<svg xmlns:dc="http://purl.org/dc/elements/1.1/" xmlns:cc="http://creativecommons.org/ns#" xmlns:rdf="http://www.w3.org/1999/02/22-rdf-syntax-ns#" xmlns:svg="http://www.w3.org/2000/svg" xmlns="http://www.w3.org/2000/svg" xmlns:sodipodi="http://sodipodi.sourceforge.net/DTD/sodipodi-0.dtd" xmlns:inkscape="http://www.inkscape.org/namespaces/inkscape" id="wave" viewBox="0 0 1920 1080" version="1.1" sodipodi:docname="divoc-ptt-outro.svg" inkscape:version="1.0.1 (c497b03c, 2020-09-10)">
  <metadata id="metadata11764">
    <rdf:RDF>
      <cc:Work rdf:about="">
        <dc:format>image/svg+xml</dc:format>
        <dc:type rdf:resource="http://purl.org/dc/dcmitype/StillImage"/>
        <dc:title/>
      </cc:Work>
    </rdf:RDF>
  </metadata>
  <defs id="defs11762">
    <rect x="1815.6721" y="228.78932" width="521.63965" height="75.042898" id="rect4221"/>
    <rect x="69.551954" y="42.097235" width="856.58728" height="84.19447" id="rect11768"/>
    <rect x="69.551956" y="42.097237" width="1746.1201" height="212.31649" id="rect11768-7"/>
    <rect x="69.551956" y="42.097237" width="788.8656" height="320.30505" id="rect69"/>
    <rect x="69.551956" y="42.097237" width="1715.0048" height="349.59008" id="rect11768-7-8"/>
    <rect x="69.551956" y="42.097237" width="788.8656" height="320.30505" id="rect101"/>
    <rect x="69.551956" y="42.097237" width="1715.0048" height="349.59009" id="rect11768-7-8-5"/>
    <rect x="69.551956" y="42.097237" width="1715.0048" height="349.59009" id="rect131"/>
  </defs>
  <sodipodi:namedview pagecolor="#ffffff" bordercolor="#666666" borderopacity="1" objecttolerance="10" gridtolerance="10" guidetolerance="10" inkscape:pageopacity="0" inkscape:pageshadow="2" inkscape:window-width="1829" inkscape:window-height="1235" id="namedview11760" showgrid="false" inkscape:zoom="0.54635417" inkscape:cx="945.35748" inkscape:cy="712.04957" inkscape:window-x="0" inkscape:window-y="23" inkscape:window-maximized="0" inkscape:current-layer="wave" inkscape:document-rotation="0" inkscape:snap-text-baseline="true" showguides="true" inkscape:guide-bbox="true">
    <sodipodi:guide position="100.6673,869.51382" orientation="1,0" id="guide90"/>
  </sodipodi:namedview>
  <linearGradient id="gradient" gradientUnits="userSpaceOnUse" x1="6.1731" y1="-9.6922" x2="1898.9858" y2="1083.1237">
    <stop offset="0" stop-color="#4D99B2" id="stop11682"/>
    <stop offset="0.3765" stop-color="#56A5BA" id="stop11684"/>
    <stop offset="1" stop-color="#6DC4CE" id="stop11686"/>
  </linearGradient>
  <rect fill="url(#gradient)" width="1920" height="1080" id="rect11689" sodipodi:insensitive="true" x="0" y="0"/>
  <g id="pttlogo" transform="translate(36.73221,-250.88524)">
    <rect x="360" y="340" fill="none" stroke="#f0f0f0" stroke-width="23.3876" width="1200" height="400" id="frame"/>
    <g id="button">
      <path fill="#1a1a1a" d="m 706.5,581.4 c 0,-0.3 -0.1,-1.8 -1.2,-3.1 -1.2,-1.3 -2.8,-1.4 -3.1,-1.5 -22.3,0.1 -44.6,0.1 -66.9,0.2 -1.3,-2 -3.8,-5.6 -7.9,-8.9 -15.8,-12.9 -42.5,-12.8 -58.3,0 -4.1,3.3 -6.7,6.9 -8,8.8 0,0 0,0 0,0 0,0 0,0 0,0 -23,0 -46.1,0.1 -69.1,0.1 -0.4,0.1 -1.6,0.3 -2.6,1.3 -1.4,1.5 -1.3,3.3 -1.3,3.6 0,17.9 0,35.8 0,53.7 0,0.2 -0.4,4.2 2.8,6.7 2.7,2 5.7,1.4 6.1,1.3 67.5,-0.4 135,-0.8 202.5,-1.1 0.7,-0.1 3.2,-0.6 5.1,-2.8 1.7,-2 1.9,-4.2 2,-5 -0.1,-17.7 -0.1,-35.5 -0.1,-53.3 z" id="path11693"/>
      <path fill="#979694" d="m 705.8,531.6 c -0.6,-3.4 -2.2,-4.5 -5.3,-4.3 -1.7,0 -4.6,-0.1 -7.6,-1.8 0,0 -1.1,-0.6 -2,-1.4 -3,-2.4 -6,-13.1 -7.3,-27.7 -30.4,0.4 -82.1,0.3 -87.9,0.3 0,0 -50.5,1.3 -84,0.5 -0.2,2.8 -0.5,4.9 -0.8,6.5 -2.8,17.1 -3,19 -5.2,20.6 -1,0.8 -3.6,2.2 -6.8,2.9 -4.1,0.8 -5.3,1 -5.3,1 -3.1,0.1 -3.8,1.8 -3.8,4.5 -0.2,12.5 -0.9,25 -0.9,37.5 0,0.4 0,1.9 0.2,3.8 0.2,1.6 0.4,3 0.6,3.9 0.9,-0.7 1.8,-0.8 2.2,-0.9 23,0 46.1,-0.1 69.1,-0.1 0,0 0,0 0,0 0,0 0,0 0,0 1.3,-1.9 3.9,-5.5 8,-8.8 15.9,-12.8 42.6,-12.9 58.3,0 4.1,3.3 6.6,6.9 7.9,8.9 22.3,-0.1 44.6,-0.1 66.9,-0.2 0.3,0 1.9,0.1 3.1,1.5 0.1,0.2 0.3,0.3 0.4,0.5 0.2,-0.9 0.4,-1.9 0.5,-2.9 0.2,-1.5 0.3,-2.9 0.2,-4.2 0,0 0.2,-10.8 -0.1,-24.8 0,-5 0.5,-10.1 -0.4,-15.3 z" id="path11695"/>
      <path id="head" fill="#1a8097" d="m 709,493.8 c 1.7,-2 1.2,-5 1,-6 -5.8,-34.4 -34.8,-57.6 -34.8,-57.6 -31.8,-25.5 -68.4,-26.9 -80.5,-26.8 -11.3,0.1 -48.1,0.8 -78.5,26.8 0,0 -31,26.4 -31.8,60 -0.1,2.5 1.1,3.9 1.1,3.9 1.3,1.5 3.3,1.8 4,1.9 24.2,3 106.2,0.8 106.2,0.8 7.8,0 100.5,0.2 109.2,-1 0.7,-0.1 2.8,-0.4 4.1,-2 z"/>
    </g>
    <rect width="12" height="32.458065" x="755" y="523.771" fill="#f0f0f0" class="bar" id="rect11699"/>
    <rect width="12" height="30.238365" x="780" y="524.8808" fill="#f0f0f0" class="bar" id="rect11701"/>
    <rect width="12" height="33.855469" x="805" y="523.07227" fill="#f0f0f0" class="bar" id="rect11703"/>
    <rect width="12" height="165.72078" x="830" y="457.13962" fill="#f0f0f0" class="bar" id="rect11705"/>
    <rect width="12" height="200" x="855" y="440" fill="#f0f0f0" class="bar" id="rect11707"/>
    <rect width="12" height="196.0903" x="880" y="441.95486" fill="#f0f0f0" class="bar" id="rect11709"/>
    <rect width="12" height="140.71889" x="905" y="469.64056" fill="#f0f0f0" class="bar" id="rect11711"/>
    <rect width="12" height="77.467522" x="930" y="501.26624" fill="#f0f0f0" class="bar" id="rect11713"/>
    <rect width="12" height="35.051079" x="955" y="522.47449" fill="#f0f0f0" class="bar" id="rect11715"/>
    <rect width="12" height="12.072141" x="980" y="533.96393" fill="#f0f0f0" class="bar" id="rect11717"/>
    <rect width="12" height="6.6893682" x="1005" y="536.65533" fill="#f0f0f0" class="bar" id="rect11719"/>
    <rect width="12" height="28.553411" x="1030" y="525.72327" fill="#f0f0f0" class="bar" id="rect11721"/>
    <rect width="12" height="26.222727" x="1055" y="526.88861" fill="#f0f0f0" class="bar" id="rect11723"/>
    <rect width="12" height="173.71169" x="1080" y="453.14417" fill="#f0f0f0" class="bar" id="rect11725"/>
    <rect width="12" height="149.7238" x="1105" y="465.13809" fill="#f0f0f0" class="bar" id="rect11727"/>
    <rect width="12" height="92.04187" x="1130" y="493.97906" fill="#f0f0f0" class="bar" id="rect11729"/>
    <rect width="12" height="43.591877" x="1155" y="518.20404" fill="#f0f0f0" class="bar" id="rect11731"/>
    <rect width="12" height="34.264095" x="1180" y="522.86798" fill="#f0f0f0" class="bar" id="rect11733"/>
    <rect width="12" height="31.206963" x="1205" y="524.39655" fill="#f0f0f0" class="bar" id="rect11735"/>
    <rect width="12" height="35.575733" x="1230" y="522.21216" fill="#f0f0f0" class="bar" id="rect11737"/>
    <rect width="12" height="176.81422" x="1255" y="451.5929" fill="#f0f0f0" class="bar" id="rect11739"/>
    <rect width="12" height="175.78004" x="1280" y="452.10999" fill="#f0f0f0" class="bar" id="rect11741"/>
    <rect width="12" height="174.74586" x="1305" y="452.62708" fill="#f0f0f0" class="bar" id="rect11743"/>
    <rect width="12" height="116.45857" x="1330" y="481.77072" fill="#f0f0f0" class="bar" id="rect11745"/>
    <rect width="12" height="65.798965" x="1355" y="507.10052" fill="#f0f0f0" class="bar" id="rect11747"/>
    <rect width="12" height="36.054989" x="1380" y="521.97253" fill="#f0f0f0" class="bar" id="rect11749"/>
    <rect width="12" height="34.763527" x="1405" y="522.61823" fill="#f0f0f0" class="bar" id="rect11751"/>
    <rect width="12" height="23.347206" x="1430" y="528.32642" fill="#f0f0f0" class="bar" id="rect11753"/>
    <rect width="12" height="15.457183" x="1455" y="532.27142" fill="#f0f0f0" class="bar" id="rect11755"/>
    <rect width="12" height="31.47938" x="1480" y="524.26031" fill="#f0f0f0" class="bar" id="rect11757"/>
  </g>
  <text xml:space="preserve" id="title" style="font-style:normal;font-variant:normal;font-weight:normal;font-stretch:normal;font-size:74.66670000000000584px;line-height:1.25;font-family:'Archivo Black';-inkscape-font-specification:'Archivo Black, Normal';font-variant-ligatures:normal;font-variant-caps:normal;font-variant-numeric:normal;font-variant-east-asian:normal;white-space:pre;shape-inside:url(#rect11768);fill:#000000;fill-opacity:1;stroke:none;" transform="translate(501.50541,512.48808)"><tspan x="69.552734" y="111.68592"><tspan>DiVOC Push To Talk</tspan></tspan></text>
  <g id="g4217" transform="matrix(0.76816015,0,0,0.76816015,253.92251,240.43791)">
    <g transform="matrix(4.9689034,0,0,4.9683471,134.11191,344.53018)" id="bysalogo" inkscape:export-filename="/mnt/hgfs/Bov/Documents/Work/2007/cc/identity/srr buttons/big/by-sa.png" inkscape:export-xdpi="300.23013" inkscape:export-ydpi="300.23013">
      <path inkscape:connector-curvature="0" id="path3817_2_" nodetypes="ccccccc" d="m 182.23532,75.39014 114.06396,0.20312 c 1.59375,0 3.01758,-0.23682 3.01758,3.18018 l -0.13965,37.56689 H 179.3569 V 78.63379 c 0,-1.68457 0.16309,-3.24365 2.87842,-3.24365 z" style="fill:#aab2ab"/>
      <g id="g5908_2_" transform="matrix(0.872921,0,0,0.872921,50.12536,143.2144)">
        <path inkscape:connector-curvature="0" id="path5906_2_" cx="296.35416" ry="22.939548" cy="264.3577" type="arc" rx="22.939548" d="m 187.20944,-55.6792 c 0.006,8.68024 -7.02786,15.72095 -15.7081,15.72708 -8.68021,0.005 -15.72205,-7.02786 -15.72708,-15.70804 0,-0.0067 0,-0.01233 0,-0.01904 -0.005,-8.68134 7.02783,-15.72205 15.70807,-15.72711 8.68134,-0.0056 15.72208,7.02789 15.72711,15.70807 0,0.0056 0,0.01233 0,0.01904 z" style="fill:#ffffff"/>
        <g id="g5706_2_" transform="translate(-289.6157,99.0653)">
          <path inkscape:connector-curvature="0" id="path5708_2_" d="m 473.88455,-167.54724 c 3.48541,3.48596 5.22839,7.75391 5.22839,12.80273 0,5.04938 -1.7128,9.27148 -5.13834,12.66736 -3.63531,3.5766 -7.93179,5.36432 -12.88947,5.36432 -4.89777,0 -9.11987,-1.77261 -12.6651,-5.31955 -3.54584,-3.54581 -5.31845,-7.78299 -5.31845,-12.71213 0,-4.92859 1.77261,-9.19598 5.31845,-12.80273 3.4552,-3.48651 7.67725,-5.22894 12.6651,-5.22894 5.04829,0 9.31401,1.74243 12.79942,5.22894 z m -23.11798,2.34485 c -2.94675,2.97638 -4.41956,6.46289 -4.41956,10.46234 0,3.99835 1.45828,7.4552 4.37424,10.37067 2.91653,2.9165 6.38849,4.37476 10.41705,4.37476 4.02853,0 7.53018,-1.47281 10.50656,-4.41901 2.8259,-2.73584 4.23941,-6.17706 4.23941,-10.32642 0,-4.11804 -1.43646,-7.61292 -4.30768,-10.48474 -2.87064,-2.87067 -6.34988,-4.30652 -10.43829,-4.30652 -4.08837,0 -7.54638,1.44318 -10.37173,4.32892 z m 7.75449,8.70312 c -0.45032,-0.98163 -1.12433,-1.47223 -2.02325,-1.47223 -1.58914,0 -2.38342,1.06952 -2.38342,3.2085 0,2.13959 0.79428,3.20911 2.38342,3.20911 1.04938,0 1.79895,-0.5213 2.24866,-1.56512 l 2.20276,1.17303 c -1.04993,1.86548 -2.62506,2.79901 -4.72549,2.79901 -1.6199,0 -2.91763,-0.4967 -3.89206,-1.48956 -0.97607,-0.99341 -1.46274,-2.36273 -1.46274,-4.10797 0,-1.71558 0.50229,-3.07709 1.50748,-4.08563 1.00519,-1.00793 2.25705,-1.51251 3.75781,-1.51251 2.22012,0 3.80984,0.87488 4.77081,2.62286 z m 10.36334,0 c -0.45087,-0.98163 -1.11148,-1.47223 -1.98239,-1.47223 -1.62106,0 -2.43213,1.06952 -2.43213,3.2085 0,2.13959 0.81107,3.20911 2.43213,3.20911 1.05103,0 1.78717,-0.5213 2.20724,-1.56512 l 2.25201,1.17303 c -1.04825,1.86548 -2.62119,2.79901 -4.71768,2.79901 -1.61771,0 -2.91263,-0.4967 -3.88647,-1.48956 -0.97217,-0.99341 -1.45938,-2.36273 -1.45938,-4.10797 0,-1.71558 0.49448,-3.07709 1.48288,-4.08563 0.98782,-1.00793 2.24527,-1.51251 3.77347,-1.51251 2.21619,0 3.80368,0.87488 4.76132,2.62286 z"/>
        </g>
      </g>
      <path inkscape:connector-curvature="0" d="M 297.29639,74.91064 H 181.06688 c -1.24658,0 -2.26074,1.01465 -2.26074,2.26123 v 39.49561 c 0,0.28174 0.22852,0.51074 0.51025,0.51074 h 119.73 c 0.28174,0 0.51074,-0.229 0.51074,-0.51074 v -39.4956 c 0,-1.24659 -1.01416,-2.26124 -2.26074,-2.26124 z m -116.22951,1.02149 h 116.22951 c 0.68359,0 1.23926,0.55615 1.23926,1.23975 0,0 0,15.91943 0,27.41846 H 215.4619 c -3.04492,5.50537 -8.91113,9.24365 -15.64355,9.24365 -6.73535,0 -12.6001,-3.73486 -15.64355,-9.24365 h -4.34814 c 0,-11.49902 0,-27.41846 0,-27.41846 -2e-5,-0.6836 0.55663,-1.23975 1.24022,-1.23975 z" id="path294-3"/>
      <g enable-background="new    " id="g296">
        <path inkscape:connector-curvature="0" d="m 265.60986,112.8833 c 0.0801,0.15576 0.1875,0.28174 0.32129,0.37842 0.13379,0.0962 0.29004,0.16797 0.46973,0.21436 0.18066,0.0469 0.36719,0.0703 0.55957,0.0703 0.12988,0 0.26953,-0.0107 0.41895,-0.0327 0.14844,-0.0215 0.28809,-0.064 0.41895,-0.12598 0.12988,-0.062 0.23926,-0.14795 0.3252,-0.25684 0.0879,-0.10889 0.13086,-0.24707 0.13086,-0.41553 0,-0.18018 -0.0576,-0.32617 -0.17285,-0.43848 -0.11426,-0.1123 -0.26562,-0.20508 -0.45215,-0.28027 -0.18555,-0.0742 -0.39746,-0.13965 -0.63281,-0.1958 -0.23633,-0.0562 -0.47559,-0.11816 -0.71777,-0.18701 -0.24902,-0.062 -0.49121,-0.13818 -0.72754,-0.22852 -0.23535,-0.0898 -0.44727,-0.20703 -0.63379,-0.3501 -0.18652,-0.14307 -0.33691,-0.32178 -0.45215,-0.53662 -0.11426,-0.21484 -0.17188,-0.47461 -0.17188,-0.7793 0,-0.34277 0.0732,-0.63965 0.21875,-0.8916 0.14648,-0.25195 0.33789,-0.46191 0.57422,-0.63037 0.23535,-0.16797 0.50293,-0.29248 0.80176,-0.37354 0.29785,-0.0806 0.59668,-0.12109 0.89453,-0.12109 0.34863,0 0.68262,0.0391 1.00293,0.11719 0.31934,0.0776 0.60449,0.2041 0.85254,0.37842 0.24902,0.17432 0.44629,0.39697 0.59277,0.66797 0.14551,0.271 0.21875,0.59961 0.21875,0.98535 h -1.42188 c -0.0127,-0.19922 -0.0547,-0.36426 -0.125,-0.49463 -0.0713,-0.13086 -0.16602,-0.2334 -0.2832,-0.30859 -0.11816,-0.0742 -0.25293,-0.12744 -0.4043,-0.1582 -0.15234,-0.0312 -0.31738,-0.0469 -0.49707,-0.0469 -0.11719,0 -0.23535,0.0127 -0.35254,0.0371 -0.11816,0.0254 -0.22461,0.0688 -0.32031,0.13086 -0.0967,0.0625 -0.17578,0.14014 -0.2373,0.2334 -0.0615,0.0937 -0.0928,0.21191 -0.0928,0.35498 0,0.13086 0.0244,0.23682 0.0742,0.31738 0.0498,0.0811 0.14844,0.15576 0.29395,0.22412 0.14551,0.0684 0.34766,0.13721 0.60547,0.20557 0.25781,0.0684 0.59473,0.15576 1.01172,0.26123 0.12402,0.0249 0.2959,0.0703 0.5166,0.13574 0.2207,0.0654 0.43945,0.16943 0.65723,0.3125 0.21777,0.14355 0.40527,0.33496 0.56445,0.57422 0.1582,0.23975 0.2373,0.54639 0.2373,0.91992 0,0.30518 -0.0596,0.58838 -0.17773,0.84961 -0.11816,0.26172 -0.29395,0.4873 -0.52734,0.67676 -0.2334,0.19043 -0.52246,0.33789 -0.86719,0.44385 -0.3457,0.10596 -0.74609,0.15869 -1.19922,0.15869 -0.36719,0 -0.72363,-0.0454 -1.06934,-0.13574 -0.34473,-0.0903 -0.65039,-0.23242 -0.91504,-0.42578 -0.26367,-0.19336 -0.47363,-0.43994 -0.62988,-0.73877 -0.15527,-0.29932 -0.22949,-0.65381 -0.22363,-1.06494 h 1.42188 c -3e-5,0.22412 0.04,0.41406 0.12106,0.56933 z" id="path298-6" style="fill:#ffffff"/>
        <path inkscape:connector-curvature="0" d="m 273.8667,107.8667 2.49316,6.66406 h -1.52246 l -0.50391,-1.48438 h -2.49316 l -0.52246,1.48438 h -1.47461 l 2.52051,-6.66406 z m 0.084,4.08594 -0.83984,-2.44336 h -0.0186 l -0.86914,2.44336 h 1.72753 z" id="path300-7" style="fill:#ffffff"/>
      </g>
      <g enable-background="new    " id="g302">
        <path inkscape:connector-curvature="0" d="m 239.17821,107.8667 c 0.31738,0 0.60742,0.0283 0.86914,0.084 0.26172,0.0561 0.48633,0.14795 0.67383,0.27539 0.18652,0.12744 0.33203,0.29688 0.43457,0.5083 0.10254,0.21142 0.1543,0.47266 0.1543,0.78369 0,0.33594 -0.0762,0.61523 -0.22949,0.83936 -0.15234,0.22412 -0.37891,0.40723 -0.67773,0.55029 0.41211,0.11816 0.71973,0.3252 0.92285,0.62109 0.20312,0.29589 0.30469,0.65234 0.30469,1.06934 0,0.33594 -0.0654,0.62695 -0.19629,0.87305 -0.13086,0.24561 -0.30762,0.44629 -0.52832,0.60205 -0.22168,0.15576 -0.47461,0.271 -0.75781,0.34521 -0.28418,0.0752 -0.5752,0.1123 -0.875,0.1123 h -3.23633 v -6.66406 h 3.14159 v 1e-5 z m -0.1875,2.69531 c 0.26172,0 0.47656,-0.062 0.64551,-0.18604 0.16797,-0.12451 0.25195,-0.32568 0.25195,-0.60498 0,-0.15527 -0.0283,-0.28271 -0.084,-0.38184 -0.0566,-0.0996 -0.13086,-0.17676 -0.22461,-0.23291 -0.0937,-0.0557 -0.20117,-0.0947 -0.32227,-0.11621 -0.12207,-0.022 -0.24805,-0.0327 -0.37891,-0.0327 h -1.37305 v 1.55469 h 1.48536 z m 0.0859,2.82813 c 0.14355,0 0.28027,-0.0137 0.41113,-0.042 0.13086,-0.0278 0.24707,-0.0747 0.34668,-0.13965 0.0996,-0.0654 0.17871,-0.1543 0.23828,-0.26611 0.0596,-0.11181 0.0889,-0.25488 0.0889,-0.4292 0,-0.3418 -0.0967,-0.58594 -0.29004,-0.73193 -0.19336,-0.14599 -0.44922,-0.21924 -0.7666,-0.21924 h -1.59961 v 1.82812 h 1.57129 z" id="path304-5" style="fill:#ffffff"/>
        <path inkscape:connector-curvature="0" d="m 241.88914,107.8667 h 1.64355 l 1.56055,2.63184 1.55078,-2.63184 h 1.63379 l -2.47363,4.10645 v 2.55762 h -1.46875 v -2.59473 z" id="path306-3" style="fill:#ffffff"/>
      </g>
      <g id="g6316_1_" transform="matrix(0.624995,0,0,0.624995,391.2294,176.9332)">
        <path inkscape:connector-curvature="0" id="path6318_1_" cx="475.97119" ry="29.209877" cy="252.08646" type="arc" rx="29.209877" d="m -175.0083,-139.1153 c 0.006,9.4118 -7.61725,17.04779 -17.02982,17.05481 -9.41101,0.007 -17.047,-7.61725 -17.05481,-17.02979 0,-0.008 0,-0.0172 0,-0.025 -0.006,-9.41254 7.6188,-17.047 17.02982,-17.05481 9.41257,-0.007 17.04855,7.61804 17.05481,17.02985 0,0.009 0,0.0164 0,0.025 z" style="fill:#ffffff"/>
        <g id="g6320_1_" transform="translate(-23.9521,-89.72962)">
          <path inkscape:connector-curvature="0" id="path6322_1_" d="m -168.2204,-68.05536 c -5.17194,0 -9.54852,1.80469 -13.13135,5.41333 -3.67661,3.73444 -5.51413,8.1532 -5.51413,13.25635 0,5.10315 1.83752,9.49152 5.51413,13.1626 3.67502,3.67194 8.05316,5.50787 13.13135,5.50787 5.14066,0 9.59537,-1.85156 13.36728,-5.55475 3.55005,-3.51562 5.3266,-7.88831 5.3266,-13.11572 0,-5.22662 -1.8078,-9.64697 -5.42191,-13.25635 -3.61407,-3.60864 -8.03756,-5.41333 -13.27197,-5.41333 z m 0.0469,3.36017 c 4.23752,0 7.836,1.49298 10.79697,4.48053 2.98907,2.9563 4.48441,6.56567 4.48441,10.82898 0,4.29382 -1.46252,7.85712 -4.39224,10.68915 -3.08438,3.04926 -6.71411,4.57349 -10.88913,4.57349 -4.17505,0 -7.7735,-1.5094 -10.79541,-4.52661 -3.02188,-3.01953 -4.53284,-6.59692 -4.53284,-10.73602 0,-4.13831 1.52658,-7.74847 4.57971,-10.82898 2.92815,-2.98756 6.51098,-4.48054 10.74853,-4.48054 z"/>
          <path inkscape:connector-curvature="0" id="path6324_1_" d="m -176.49548,-52.02087 c 0.74377,-4.69769 4.05161,-7.20862 8.1954,-7.20862 5.96097,0 9.59225,4.32501 9.59225,10.09229 0,5.62738 -3.86411,9.99927 -9.686,9.99927 -4.00473,0 -7.58914,-2.46484 -8.24228,-7.30084 h 4.70319 c 0.14062,2.51099 1.77032,3.39459 4.09845,3.39459 2.65317,0 4.37817,-2.4649 4.37817,-6.23291 0,-3.95233 -1.49063,-6.04535 -4.28598,-6.04535 -2.04846,0 -3.8172,0.74457 -4.19064,3.30157 l 1.36874,-0.007 -3.70316,3.7016 -3.7016,-3.7016 z"/>
        </g>
      </g>
      <g id="g313">
        <circle cx="242.56226" cy="90.224609" r="10.8064" id="circle315" style="fill:#ffffff"/>
        <g id="g317">
          <path inkscape:connector-curvature="0" d="m 245.68994,87.09766 c 0,-0.4165 -0.33789,-0.75342 -0.75391,-0.75342 h -4.77246 c -0.41602,0 -0.75391,0.33691 -0.75391,0.75342 v 4.77295 h 1.33105 v 5.65234 h 3.61719 v -5.65234 h 1.33203 v -4.77295 z" id="path319"/>
          <circle cx="242.5498" cy="84.083008" r="1.63232" id="circle321"/>
        </g>
        <path inkscape:connector-curvature="0" d="m 242.53467,78.31836 c -3.23145,0 -5.96826,1.12744 -8.20752,3.38379 -2.29785,2.33301 -3.44629,5.09521 -3.44629,8.28418 0,3.18897 1.14844,5.93213 3.44629,8.22705 2.29785,2.29443 5.03418,3.44189 8.20752,3.44189 3.21289,0 5.99805,-1.15674 8.35352,-3.47168 2.2207,-2.19678 3.33008,-4.92969 3.33008,-8.19727 0,-3.26758 -1.12891,-6.02881 -3.3877,-8.28418 -2.25879,-2.25634 -5.02442,-3.38378 -8.2959,-3.38378 z m 0.0293,2.09961 c 2.64844,0 4.89746,0.93359 6.74707,2.80078 1.87012,1.84717 2.80469,4.10352 2.80469,6.76758 0,2.68359 -0.91504,4.91113 -2.74609,6.68066 -1.92773,1.90576 -4.19629,2.8584 -6.80566,2.8584 -2.60937,0 -4.8584,-0.94287 -6.74658,-2.82959 -1.88965,-1.88623 -2.8335,-4.12256 -2.8335,-6.70947 0,-2.58643 0.9541,-4.84229 2.8623,-6.76758 1.83057,-1.86719 4.07031,-2.80078 6.71777,-2.80078 z" id="path323" style="clip-rule:evenodd;fill-rule:evenodd"/>
      </g>
    </g>
    <g id="g4128" transform="translate(-20.909626,-16.238948)">
      <g id="c3voclogo" transform="translate(-887.78817,495.2194)" style="fill:#2b0000">
        <path sodipodi:nodetypes="sssscscsscsssssscssssssssscsssscssssssssssssssssssssssssscsssscsssssssssssssssssssssssssssssssssssssssssscsssssssssssscsssssscssssssscsssscsssssssssscsssscssscssssssscccsssscsssssssssssssssssssssssssssscsscs" inkscape:connector-curvature="0" id="path2161" d="m 1699.4957,562.81575 c -13.7212,-9.2551 -20.933,-24.21855 -22.2724,-46.21191 -0.9981,-16.38952 0.6403,-28.74037 7.6896,-57.96681 6.2958,-26.10179 7.1374,-31.32553 7.5385,-46.7899 l 0.3487,-13.44409 -1.9484,-3.57983 c -1.0716,-1.96891 -2.1351,-3.55933 -2.3633,-3.53426 -0.7072,0.0777 -9.2908,10.26096 -14.5059,17.20931 -11.3719,15.15144 -17.826,30.09654 -19.0013,43.99948 l -0.4547,5.3795 -3.6695,0.76181 c -7.3923,1.53461 -7.5691,1.48413 -8.6114,-2.45907 -1.393,-5.2697 -0.7351,-18.43214 1.2104,-24.21959 2.6387,-7.84914 8.561,-18.84335 17.0262,-31.60748 9.3974,-14.16975 15.524,-25.36003 17.7799,-32.47518 1.8464,-5.82359 2.0684,-5.95851 10.8288,-6.58034 l 6.0799,-0.43157 2.1737,5.53604 c 5.177,13.18463 7.0825,22.4564 7.7024,37.47783 0.7083,17.16114 -1.1019,32.48115 -8.2536,69.85072 -6.1985,32.38918 -6.1225,31.64875 -4.2801,41.72191 3.182,17.39676 7.5573,27.47417 15.7664,36.31414 1.9784,2.13036 2.0396,2.39446 1.5458,6.66916 -0.2828,2.44807 -0.7831,5.16178 -1.1119,6.03053 -0.9406,2.48546 -3.8617,1.96241 -9.2178,-1.6504 z m -62.9314,-69.5961 -3.0701,-0.27294 0.3774,-2.81369 c 0.579,-4.31711 3.3529,-7.90584 7.788,-10.07574 3.4401,-1.68306 5.039,-1.9503 14.9536,-2.49946 6.106,-0.33818 12.2864,-0.62693 13.7343,-0.64162 l 2.6326,-0.0265 v 6.65579 c 0,7.86712 2.0141,6.77653 -16.1915,8.76742 -12.8021,1.40002 -14.0495,1.45593 -20.2243,0.90698 z m 63.3731,-8.98912 c -0.5806,-2.31333 0.1639,-6.91293 1.554,-9.60108 1.6642,-3.21816 6.3681,-8.03012 12.2057,-12.48592 6.0162,-4.59229 11.2369,-9.94992 12.9799,-13.32036 3.7528,-7.25725 6.295,-31.26048 4.6321,-43.73656 -2.2652,-16.99432 -11.0599,-35.91357 -22.5274,-48.46083 -1.9299,-2.11157 -3.5088,-4.15083 -3.5088,-4.53171 0,-0.38087 3.3692,-3.81157 7.4871,-7.62377 5.2784,-4.88656 7.5859,-6.62061 7.8219,-5.87823 0.929,2.9224 12.6446,24.7777 15.2763,28.4979 5.6939,8.04916 13.2514,13.78615 20.6737,15.69378 1.731,0.4449 4.3384,1.26669 5.7941,1.8262 3.8319,1.47279 9.0932,1.25626 17.9266,-0.73775 13.215,-2.98311 17.4219,-2.13536 20.4506,4.12107 2.5115,5.18804 2.0081,6.10355 -4.5691,8.31013 -11.5335,3.86935 -26.7307,4.03644 -41.9619,0.46135 -4.692,-1.10134 -6.4071,-1.25947 -7.0201,-0.64728 -0.9209,0.91966 -0.9706,6.9702 -0.1389,16.88845 0.4665,5.56393 0.3065,7.98701 -0.9656,14.62127 -3.8672,20.16624 -11.4235,34.92505 -23.8189,46.52232 -4.8893,4.57452 -6.667,5.78125 -9.8794,6.70662 -2.1545,0.62067 -5.7274,2.03677 -7.9398,3.147 l -4.0225,2.01853 z m -39.7593,-123.8729 c -1.0563,-0.31808 -3.0308,-1.26442 -4.3876,-2.10298 -2.0242,-1.25103 -2.4669,-1.94527 -2.4669,-3.86857 v -2.34392 l 4.7386,-0.46391 c 11.8375,-1.15887 21.3958,-5.06791 30.8102,-12.60041 10.0435,-8.03573 18.7424,-19.61826 32.8979,-43.8028 4.5557,-7.78347 7.4295,-12.00245 8.1863,-12.01815 1.419,-0.0294 4.6424,3.66269 5.2254,5.98517 0.9392,3.74263 -4.4549,21.76632 -9.6035,32.08785 -9.9446,19.93649 -26.6381,33.5039 -47.3333,38.46938 -5.758,1.38155 -14.5957,1.70358 -18.0671,0.65834 z m -349.79,-9.82539 -113.7268,-0.35688 -2.2863,-1.63068 c -2.8756,-2.05107 -7.2668,-10.97072 -9.2198,-18.72782 -3.3708,-13.38869 -5.3234,-28.04433 -6.4071,-48.08819 -0.407,-7.52914 -1.3972,-23.79839 -2.2004,-36.1539 -1.5947,-24.52814 -1.48,-39.8798 0.4694,-62.83055 2.9417,-34.63416 8.289,-55.40674 15.475,-60.11512 1.9765,-1.29511 22.7008,-2.55608 89.963,-5.47383 63.2718,-2.74465 131.6301,-0.4881 170.0565,5.61369 8.6659,1.37608 10.2584,2.59423 14.4192,11.02954 4.2056,8.52624 6.6158,18.21747 7.243,29.12266 0.6823,11.8651 0.4033,14.67244 -1.5097,15.18562 -2.4458,0.65615 -10.2717,0.48412 -11.655,-0.2562 -1.9996,-1.07014 -3.4343,-5.6155 -4.5993,-14.57134 -2.4717,-18.99993 -5.8294,-23.46692 -20.19,-26.86012 -16.0406,-3.79013 -40.4345,-5.2052 -88.9758,-5.1614 -47.1742,0.0425 -83.6099,1.49425 -120.1686,4.78779 -9.0345,0.8139 -11.6164,1.30125 -14.4196,2.72172 -7.2638,3.68086 -12.6899,12.27999 -16.0145,25.3795 -2.5474,10.03731 -3.0624,16.62688 -3.8172,48.84663 -1.0852,46.32311 0.6781,68.75448 7.2904,92.74752 3.9959,14.49928 7.3166,19.42122 15.9411,23.62807 9.5903,4.6779 5.8345,4.51124 101.0017,4.48209 82.4844,-0.0253 109.7217,-0.54187 120.4265,-2.2841 9.9617,-1.62132 15.6711,-11.95266 18.9491,-34.28854 1.5291,-10.41918 1.7123,-11.0487 3.7438,-12.86387 4.1201,-3.68131 9.5199,-3.23828 11.8173,0.96957 2.0644,3.78114 1.6327,16.00698 -1.0113,28.63737 -3.4089,16.28433 -6.5328,27.30785 -8.3512,29.46894 -3.549,4.21768 -14.0125,6.73736 -29.7414,7.16187 -4.8264,0.13026 -59.9522,0.0762 -122.502,-0.12004 z m 320.1199,-11.52297 c -4.574,-1.13038 -7.3243,-2.61327 -10.6312,-5.73206 l -2.6947,-2.54143 1.6431,-1.33051 c 2.5437,-2.05981 8.0387,-3.43945 18.001,-4.5196 5.0194,-0.54423 10.5478,-1.45114 12.2853,-2.01537 19.0946,-6.20066 31.0013,-13.83217 46.4356,-29.76255 7.5531,-7.79584 23.0998,-27.07835 24.2511,-30.07831 0.2333,-0.60819 1.4967,-0.95726 3.4646,-0.95726 3.6216,0 3.6155,-0.41743 0.1464,10.15636 -7.8332,23.87521 -23.9965,43.63494 -47.0891,57.56686 -5.1926,3.13276 -6.1761,3.4335 -22.0395,6.73989 -17.8498,3.72042 -18.4684,3.78479 -23.7726,2.47398 z m -96.5273,-81.55907 c 25.3973,-0.29353 46.712,-0.17495 59.2589,0.32968 10.7774,0.43345 19.7312,0.65202 19.8975,0.48571 0.6987,-0.69873 -7.5088,-4.64188 -12.4176,-5.96579 -9.6652,-2.60671 -14.0953,-2.88364 -56.5596,-3.53566 -23.1666,-0.3557 -60.7596,-1.01732 -83.5401,-1.47026 -62.93,-1.25123 -8.7895,-1.23189 -14.1823,0.24961 -9.5282,2.61756 -17.8618,6.62778 -24.9216,11.99258 -7.1327,5.42023 -15.357,14.65594 -34.9219,39.21652 l -21.1108,26.50115 h -7.3351 c -6.1912,0 -7.2729,-0.1622 -6.936,-1.0401 0.6764,-1.76276 26.4353,-37.52005 32.1656,-44.65087 11.7977,-14.68093 29.034,-32.7552 35.5531,-37.28139 4.8513,-3.36832 13.428,-6.13721 21.8083,-7.04058 9.9804,-1.07585 32.1535,-1.0368 95.6986,0.0741 53.91,0.94242 52.4322,0.81841 67.8132,5.69049 4.7634,1.50885 8.7941,2.60999 8.9571,2.44697 0.163,-0.16301 -0.565,-1.42575 -1.6178,-2.80609 -2.4769,-3.24724 -7.9793,-6.85951 -13.7331,-9.01552 -9.6103,-3.60108 -12.868,-3.82397 -67.7375,-4.63491 -49.4781,-0.73127 -11.8542,-1.25629 -71.0457,-3.08853 l -27.7297,-0.85835 -4.1164,-2.05287 c -7.2506,-3.61597 -13.0457,-9.99189 -41.6369,-45.81035 -15.1841,-19.02239 -27.6075,-34.75578 -27.6075,-34.96307 0,-0.70679 15.7917,0.58142 16.7938,1.36995 0.5492,0.43211 7.9254,10.05253 16.3915,21.37873 18.2333,24.3928 23.6777,30.99639 32.0647,38.89162 8.3058,7.81866 15.9665,12.59102 21.1539,13.68273 9.996,2.10374 -27.4513,-0.25233 33.3156,-1.07617 70.4491,-0.9551 94.0626,-0.44725 105.068,2.25968 8.788,2.16156 19.5794,5.90888 26.3235,9.14092 2.8464,1.3641 5.2983,2.35723 5.4485,2.20695 0.6551,-0.65507 -2.0938,-4.57099 -5.3407,-7.60813 -10.1845,-9.52637 -25.3522,-15.46113 -44.3328,-17.34632 -7.6043,-0.75528 -76.4095,-7.79749 -97.7142,-3.4839 -11.418,2.31183 -15.7699,-4.2149 -14.3625,-10.26093 33.2987,-5.53618 86.7584,-0.72608 91.8252,-0.2978 23.7649,2.00881 42.7826,6.75582 59.3396,14.81182 8.0282,3.9062 8.9227,4.55572 14.6482,10.63632 10.7719,11.44001 21.2026,26.72869 27.1685,39.82189 l 2.719,5.96715 -0.2543,-4.27769 c -0.5669,-9.5402 -14.6161,-32.79777 -36.6068,-60.60023 -4.0974,-5.1802 -7.4497,-9.66397 -7.4497,-9.96394 0,-1.0098 3.1051,-2.73106 4.9268,-2.73106 3.2067,0 11.4762,5.58207 15.2344,10.28349 19.1758,23.98853 31.1552,43.52603 36.7392,59.91825 1.2495,3.66804 3.0165,7.45231 3.9267,8.40948 l 1.6549,1.74031 2.1235,-2.12357 2.1236,-2.12358 -1.8161,-6.28591 c -4.0558,-14.03749 -8.4799,-22.71761 -25.5344,-50.09889 -13.0127,-20.892 -13.094,-21.12361 -7.4097,-21.12361 2.4606,0 3.96,0.64354 8.1628,3.50327 2.8316,1.92681 5.6496,3.90123 6.2622,4.38761 1.7946,1.42479 15.8553,25.26706 20.733,35.15616 2.4649,4.99749 5.6147,12.75684 6.9993,17.243 3.6703,11.89144 3.6824,11.90476 7.6774,8.39713 2.5564,-2.24453 2.5996,-2.36614 2.191,-6.17916 -0.9528,-8.89365 -6.0636,-24.85532 -12.124,-37.86445 -1.6901,-3.62791 -3.0729,-7.01893 -3.0729,-7.53561 0,-0.51667 0.9147,-1.96315 2.0327,-3.21441 1.957,-2.19027 2.1073,-2.23644 4.0366,-1.2396 3.2638,1.68641 8.8615,7.80557 11.2477,12.29562 1.223,2.30129 4.0329,10.26538 6.2441,17.69799 2.2112,7.43261 4.2728,13.51383 4.5813,13.51383 0.3085,0 1.6055,-1.31135 2.8822,-2.91411 5.8913,-7.39615 8.0275,-8.42577 10.974,-5.28934 1.9056,2.0283 1.9382,4.68102 0.1225,9.9585 -1.8763,5.45314 -1.8034,6.96391 0.384,7.96051 0.9834,0.44809 2.247,0.81471 2.808,0.81471 1.3793,0 1.2828,1.82431 -0.3471,6.56183 -4.8217,14.01452 -15.2188,26.37936 -31.6277,37.61325 -15.5873,10.67146 -35.8111,17.34172 -54.9906,18.13715 -9.5136,0.39455 -15.0488,-0.70974 -19.7743,-3.94506 -3.6307,-2.48586 -3.7608,-4.66683 -0.413,-6.92294 3.6574,-2.46472 8.4915,-3.6161 18.5838,-4.42628 31.3422,-2.51603 55.0603,-13.90528 72.2771,-34.70696 2.702,-3.26469 2.7629,-3.42528 0.8144,-2.14675 -21.3796,14.02832 -44.6742,24.27024 -62.3231,27.40158 -5.2948,0.93943 -9.2263,1.13604 -17.1994,0.86015 -10.9514,-0.37894 -17.4892,-1.69421 -25.0566,-5.04089 -4.1848,-1.85068 -4.7185,-2.80958 -4.4118,-7.92469 l 0.1782,-2.9713 -57.5654,-0.354 c -31.661,-0.19469 -79.2144,5.34241 -73.8049,-7.2711 -0.4114,-5.00245 49.5326,-5.19351 71.3479,-5.44563 z" style="fill:#2b0000;fill-opacity:1"/>
        <path id="path3041" d="m 1289.1783,151.20526 c -42.3696,0 -76.722,34.98955 -76.722,78.15805 0,43.16849 34.3524,78.15804 76.722,78.15804 42.3694,0 76.7219,-34.98955 76.7219,-78.15804 0,-43.1685 -34.3525,-78.15805 -76.7219,-78.15805 z m -32.0945,25.80608 43.0392,26.02367 43.0391,26.04543 -43.6484,24.95748 -43.6484,24.95748 0.6093,-51.00291 z" style="fill:#2b0000;fill-opacity:1" inkscape:connector-curvature="0"/>
      </g>
      <text xml:space="preserve" style="font-style:normal;font-variant:normal;font-weight:normal;font-stretch:normal;line-height:0%;font-family:'TeX Gyre Adventor';-inkscape-font-specification:'TeX Gyre Adventor, Normal';text-align:start;letter-spacing:0px;word-spacing:0px;writing-mode:lr-tb;text-anchor:start;fill:#2b0000;fill-opacity:1;stroke:none;stroke-width:1px;stroke-linecap:butt;stroke-linejoin:miter;stroke-opacity:1" x="280.24615" y="1006.2598" id="c3voctext"><tspan sodipodi:role="line" id="tspan4140" x="280.24615" y="1006.2598" style="font-style:normal;font-variant:normal;font-weight:500;font-stretch:normal;font-size:124.051px;line-height:5.6;font-family:Museo;-inkscape-font-specification:'Museo Medium';fill:#2b0000;fill-opacity:1">C3VOC</tspan></text>
    </g>
  </g>
  <text xml:space="preserve" id="text4219" style="fill:black;fill-opacity:1;line-height:1.25;stroke:none;font-family:sans-serif;font-style:normal;font-weight:normal;font-size:40px;white-space:pre;shape-inside:url(#rect4221);"/>
</svg>