<?xml version="1.0" encoding="UTF-8" standalone="no"?>
<!-- Created with Inkscape (http://www.inkscape.org/) -->

<svg
   width="1920"
   height="1080"
   viewBox="0 0 1920 1080"
   id="svg2"
   version="1.1"
   inkscape:version="1.1.2 (0a00cf5339, 2022-02-04)"
   sodipodi:docname="intro.svg"
   enable-background="new"
   xmlns:inkscape="http://www.inkscape.org/namespaces/inkscape"
   xmlns:sodipodi="http://sodipodi.sourceforge.net/DTD/sodipodi-0.dtd"
   xmlns="http://www.w3.org/2000/svg"
   xmlns:svg="http://www.w3.org/2000/svg"
   xmlns:rdf="http://www.w3.org/1999/02/22-rdf-syntax-ns#"
   xmlns:cc="http://creativecommons.org/ns#"
   xmlns:dc="http://purl.org/dc/elements/1.1/">
  <defs
     id="defs4">
    <clipPath
       clipPathUnits="userSpaceOnUse"
       id="clipPath18">
      <path
         d="m 312.117,871.087 c -6.264,-1.72 -10.84,-10.647 -14.167,-15.645 l 0,0 c -4.194,-6.302 -7.979,-12.897 -11.534,-19.58 l 0,0 c -6.794,-12.771 -13.065,-25.863 -21.157,-37.891 l 0,0 -14.658,-134.44 c -34.506,-10.769 -67.49,-29.469 -99.699,-48.874 l 0,0 c 12.812,-37.59 55.526,-58.834 95.24,-58.766 l 0,0 c 0.024,0 0.047,0 0.071,0 l 0,0 c -6.665,-0.282 -13.34,-0.125 -19.96,0.504 l 0,0 c 17.08,-29.328 37.542,-57.811 69.853,-68.2 l 0,0 c 26.039,-8.372 54.524,-0.76 79.568,10.242 l 0,0 c 16.073,7.061 37.811,23.424 50.174,37.459 l 0,0 c -5.443,-6.931 -9.356,-11.85 -9.378,-14.226 l 0,0 c -0.036,-4.022 11.889,-7.249 15.319,-7.836 l 0,0 c 4.537,-0.776 55.479,-8.821 65.762,-9.857 l 0,0 c 10.396,-1.048 20.273,-1.879 30.647,-0.162 l 0,0 c 9.775,1.619 19.405,4.609 27.984,9.637 l 0,0 c 9.366,5.488 17.124,13.214 21.752,22.642 l 0,0 c -2.467,-9.581 -5.754,-22.648 -9.272,-36.305 l 0,0 c -0.171,-0.666 -0.311,-1.344 -0.413,-2.024 l 0,0 c -3.39,-22.815 -3.156,-46.468 -3.991,-69.493 l 0,0 c -0.901,-24.858 -1.418,-49.754 -2.83,-74.59 l 0,0 c -0.791,-13.917 -3.767,-27.11 -7.947,-40.362 l 0,0 c -1.785,-5.66 -3.752,-11.282 -5.94,-16.816 l 0,0 c 2.853,8.361 4.713,17.016 5.261,25.851 l 0,0 c 0.555,8.93 -0.352,17.967 -2.745,26.592 l 0,0 c -2.662,9.599 -7.206,18.729 -13.686,26.328 l 0,0 c -1.536,1.801 -2.531,3.044 -3.792,5.045 l 0,0 c -1.313,2.081 -3.691,4.003 -5.535,5.683 l 0,0 c -4.28,3.901 -8.981,7.314 -13.802,10.512 l 0,0 c -8.952,5.937 -18.089,11.527 -28.039,15.555 l 0,0 c -22.597,9.151 -48.915,13.05 -72.999,8.126 l 0,0 c -49.265,-10.074 -94.2,-46.844 -113.089,-93.79 l 0,0 c -7.565,-18.805 -8.616,-45.719 -6.222,-65.756 l 0,0 c 7.2,-60.243 65.422,-100.088 125.514,-108.448 l 0,0 c 24.824,-3.455 52.18,-1.693 76.294,4.869 l 0,0 c 50.617,13.775 89.298,54.937 112.844,99.669 l 0,0 c 2.794,5.307 14.736,24.552 14.675,26.909 l 0,0 c 0.267,-10.318 3.457,-20.545 9.106,-29.184 l 0,0 16.227,92.559 c 1.621,-9.021 7.294,-17.234 15.157,-21.945 l 0,0 0.204,60.905 c 1.41,-9.085 6.602,-14.523 14.491,-19.244 l 0,0 c -4.166,27.38 -4.717,52.34 -2.482,79.945 l 0,0 c 7.063,-4.324 13.65,-8.62 20.658,-10.281 l 0,0 c -3.651,26.792 -12.97,49.694 -16.621,76.487 l 0,0 c 10.534,-8.562 10.319,-10.84 19.664,-11.89 l 0,0 c -3.943,26.189 -16.832,43.539 -29.738,66.666 l 0,0 25.882,-0.923 c -10.728,25.86 -25.45,41.841 -43.486,63.254 l 0,0 c 10.92,0.053 16.559,0.433 26.037,2.489 l 0,0 c -14.416,20.027 -33.431,26.496 -56.345,35.655 l 0,0 c 14.572,6.667 21.146,13.146 30.811,25.412 l 0,0 c -25.908,4.436 -43.613,6.974 -69.672,10.409 l 0,0 c 9.984,6.221 25.959,11.735 32.646,23.966 l 0,0 c -23.093,-0.068 -51.514,-1.99 -74.606,-2.058 l 0,0 c 3.118,9.15 16.024,22.056 15.344,33.286 l 0,0 -67.289,-24.136 c -2.029,7.646 4.971,10.282 1.623,31.588 l 0,0 -54.542,-23.538 c 0,6.9 9.282,21.518 5.236,31.248 l 0,0 c -1.052,2.53 -27.624,-18.934 -36.917,-20.788 l 0,0 c 0,0 19.327,52.162 14.75,52.15 l 0,0 c -15.455,-0.042 -33.75,-18.848 -49.058,-21.738 l 0,0 c -3.6,5.947 -6.717,12.18 -9.698,18.456 l 0,0 c -5.957,12.543 -11.32,25.358 -17.137,37.966 l 0,0 c -2.809,6.088 -5.71,12.138 -8.882,18.045 l 0,0 c -2.044,3.808 -3.89,8.265 -7.717,10.63 l 0,0 c -2.577,1.592 -6.347,2.531 -9.801,2.531 l 0,0 c -1.401,0 -2.751,-0.155 -3.948,-0.484 m 41.469,-271.97 c -2.238,-1.885 -4.527,-3.722 -6.865,-5.509 l 0,0 c 2.327,1.793 4.616,3.631 6.865,5.509 m 85.349,-45.569 c 0,0 0,0 0,0 M 383.533,241.747 c -16.443,19.302 -23.431,46.211 -18.815,71.142 l 0,0 c 4.341,23.447 18.996,45.037 39.804,56.683 l 0,0 c 20.808,11.645 47.481,12.699 68.622,1.67 l 0,0 c 21.142,-11.029 35.713,-34.183 35.364,-58.026 l 0,0 c -0.349,-23.843 -16.558,-46.24 -39.055,-54.146 l 0,0 c -13.248,-4.655 -27.77,-4.347 -39.5,3.375 l 0,0 c -11.729,7.722 -19.3,22.583 -15.553,36.117 l 0,0 c 3.746,13.535 19.143,23.26 32.574,19.157 l 0,0 c 5.156,-1.575 9.602,-4.83 14.374,-7.338 l 0,0 c 6.351,-3.339 14.186,-5.411 20.409,0.204 l 0,0 c 2.348,2.119 3.893,5.052 4.395,8.174 l 0,0 c 1.65,10.257 -5.836,19.545 -14.699,22.812 l 0,0 c -6.84,2.521 -14.529,2.26 -21.749,1.25 l 0,0 c -23.7,-3.318 -46.176,-17.837 -57.931,-38.681 l 0,0 c -11.755,-20.845 -11.322,-48.644 3.051,-67.777 l 0,0 c 7.968,-10.606 19.479,-17.733 32.216,-21.387 l 0,0 c -16.77,4.192 -32.281,13.594 -43.507,26.771 m 146.601,21.02 c 0.24,0.346 0.478,0.693 0.716,1.042 l 0,0 c -2.094,-3.187 -4.311,-6.295 -6.662,-9.313 l 0,0 c -5.252,-6.741 -11.254,-13.003 -17.851,-18.524 l 0,0 c 9.038,7.807 17.014,17.001 23.797,26.795"
         id="path20-4"
         inkscape:connector-curvature="0" />
    </clipPath>
    <clipPath
       clipPathUnits="userSpaceOnUse"
       id="clipPath28">
      <path
         d="m 314.284,874.024 c -6.264,-1.721 -10.84,-10.648 -14.166,-15.645 l 0,0 c -4.194,-6.302 -7.981,-12.897 -11.535,-19.58 l 0,0 c -6.794,-12.772 -13.065,-25.863 -21.157,-37.891 l 0,0 -14.657,-134.44 c -34.506,-10.769 -67.491,-29.47 -99.701,-48.874 l 0,0 c 12.813,-37.59 55.528,-58.835 95.241,-58.767 l 0,0 c 0.017,0 0.031,0 0.048,0 l 0,0 c -6.659,-0.281 -13.323,-0.124 -19.938,0.505 l 0,0 c 17.081,-29.328 37.544,-57.812 69.854,-68.2 l 0,0 c 26.039,-8.373 54.524,-0.761 79.568,10.242 l 0,0 c 16.072,7.06 37.807,23.42 50.171,37.455 l 0,0 c -5.441,-6.928 -9.354,-11.847 -9.375,-14.223 l 0,0 c -0.036,-4.022 11.889,-7.249 15.32,-7.836 l 0,0 c 4.536,-0.776 55.478,-8.82 65.761,-9.857 l 0,0 c 10.396,-1.048 20.273,-1.879 30.647,-0.161 l 0,0 c 9.774,1.618 19.404,4.608 27.984,9.636 l 0,0 c 9.366,5.488 17.124,13.214 21.752,22.642 l 0,0 c -2.467,-9.581 -5.754,-22.647 -9.272,-36.304 l 0,0 c -0.171,-0.666 -0.312,-1.345 -0.413,-2.025 l 0,0 c -3.39,-22.814 -3.157,-46.467 -3.991,-69.492 l 0,0 c -0.902,-24.859 -1.418,-49.754 -2.83,-74.591 l 0,0 c -0.791,-13.916 -3.768,-27.109 -7.947,-40.362 l 0,0 c -1.785,-5.661 -3.753,-11.284 -5.942,-16.82 l 0,0 c 2.854,8.362 4.714,17.02 5.263,25.856 l 0,0 c 0.554,8.929 -0.353,17.967 -2.745,26.592 l 0,0 c -2.662,9.598 -7.206,18.729 -13.686,26.327 l 0,0 c -1.536,1.801 -3.494,3.382 -4.757,5.383 l 0,0 c -1.312,2.081 -2.726,3.665 -4.57,5.345 l 0,0 c -4.28,3.901 -8.981,7.315 -13.802,10.512 l 0,0 c -8.952,5.938 -18.598,10.791 -28.547,14.819 l 0,0 c -22.597,9.149 -47.586,13.078 -71.67,8.153 l 0,0 c -49.265,-10.074 -95.021,-46.134 -113.91,-93.081 l 0,0 c -7.566,-18.804 -8.616,-45.718 -6.222,-65.755 l 0,0 c 7.2,-60.244 65.422,-100.089 125.514,-108.45 l 0,0 c 24.823,-3.453 52.179,-1.692 76.293,4.87 l 0,0 c 50.618,13.775 89.298,54.937 112.845,99.669 l 0,0 c 2.794,5.306 14.736,24.552 14.675,26.91 l 0,0 c 0.266,-10.318 3.457,-20.545 9.105,-29.185 l 0,0 16.228,92.559 c 1.622,-9.021 7.294,-17.234 15.156,-21.944 l 0,0 0.204,60.905 c 1.411,-9.085 6.603,-14.524 14.491,-19.245 l 0,0 c -4.165,27.381 -4.717,52.34 -2.481,79.945 l 0,0 c 7.063,-4.324 13.65,-8.619 20.657,-10.281 l 0,0 c -3.651,26.793 -12.969,49.695 -16.621,76.488 l 0,0 c 10.535,-8.562 10.321,-10.841 19.665,-11.89 l 0,0 c -3.943,26.189 -16.832,43.539 -29.738,66.666 l 0,0 25.881,-0.924 c -10.726,25.861 -25.449,41.842 -43.485,63.255 l 0,0 c 10.92,0.053 16.559,0.433 26.037,2.488 l 0,0 c -14.416,20.028 -33.431,26.496 -56.345,35.655 l 0,0 c 14.571,6.668 21.146,13.147 30.811,25.413 l 0,0 c -25.908,4.436 -43.613,6.973 -69.673,10.409 l 0,0 c 9.985,6.22 25.961,11.735 32.648,23.966 l 0,0 c -23.094,-0.069 -51.515,-1.991 -74.608,-2.06 l 0,0 c 3.119,9.152 16.025,22.058 15.345,33.287 l 0,0 -67.289,-24.135 c -2.03,7.644 4.971,10.282 1.624,31.588 l 0,0 -54.543,-23.538 c 0,6.899 9.282,21.517 5.235,31.248 l 0,0 c -1.052,2.53 -27.623,-18.935 -36.917,-20.789 l 0,0 c 0,0 19.328,52.162 14.751,52.15 l 0,0 c -15.456,-0.043 -33.751,-18.848 -49.059,-21.737 l 0,0 c -3.6,5.946 -6.717,12.18 -9.697,18.454 l 0,0 c -5.958,12.545 -11.32,25.36 -17.137,37.968 l 0,0 c -2.808,6.086 -5.71,12.137 -8.882,18.045 l 0,0 c -2.044,3.808 -3.889,8.265 -7.717,10.63 l 0,0 c -2.577,1.592 -6.347,2.53 -9.801,2.53 l 0,0 c -1.401,0 -2.752,-0.154 -3.948,-0.483 m 41.469,-271.971 c -2.231,-1.88 -4.511,-3.71 -6.842,-5.492 l 0,0 c 2.319,1.787 4.601,3.62 6.842,5.492 m 85.349,-45.569 c 0,0 0,0 0,0 M 385.7,244.684 c -16.443,19.301 -23.431,46.21 -18.815,71.142 l 0,0 c 4.341,23.447 18.996,45.036 39.804,56.681 l 0,0 c 20.807,11.646 47.481,12.699 68.623,1.672 l 0,0 c 21.141,-11.029 35.712,-34.184 35.362,-58.026 l 0,0 C 510.325,292.31 494.456,269.141 471.96,261.234 l 0,0 c -13.249,-4.656 -28.749,-3.925 -40.478,3.797 l 0,0 c -11.73,7.722 -18.663,22.934 -14.915,36.468 l 0,0 c 3.747,13.534 19.144,23.259 32.574,19.157 l 0,0 c 5.156,-1.575 9.602,-4.831 14.374,-7.339 l 0,0 c 6.352,-3.338 14.186,-5.411 20.41,0.205 l 0,0 c 2.347,2.118 3.891,5.052 4.393,8.173 l 0,0 c 1.651,10.257 -5.876,18.554 -14.739,21.821 l 0,0 c -6.84,2.522 -14.381,2.425 -21.601,1.414 l 0,0 c -23.699,-3.317 -46.283,-17.011 -58.038,-37.854 l 0,0 c -11.755,-20.844 -11.323,-48.644 3.051,-67.777 l 0,0 c 7.968,-10.606 19.481,-17.733 32.218,-21.388 l 0,0 c -16.769,4.192 -32.283,13.595 -43.509,26.773 m 146.6,21.019 c 0.248,0.358 0.494,0.716 0.739,1.075 l 0,0 c -2.1,-3.197 -4.324,-6.317 -6.684,-9.346 l 0,0 c -5.241,-6.727 -11.231,-12.977 -17.813,-18.49 l 0,0 c 9.023,7.8 16.985,16.98 23.758,26.761"
         id="path30"
         inkscape:connector-curvature="0" />
    </clipPath>
    <clipPath
       clipPathUnits="userSpaceOnUse"
       id="clipPath1428">
      <path
         d="m 0,1201.89 853.228,0 L 853.228,0 0,0 0,1201.89 Z"
         id="path1430"
         inkscape:connector-curvature="0" />
    </clipPath>
    <clipPath
       clipPathUnits="userSpaceOnUse"
       id="clipPath1436">
      <path
         d="m 153.069,874.507 547.722,0 0,-721.1 -547.722,0 0,721.1 z"
         id="path1438"
         inkscape:connector-curvature="0" />
    </clipPath>
    <radialGradient
       fx="0"
       fy="0"
       cx="0"
       cy="0"
       r="1"
       gradientUnits="userSpaceOnUse"
       gradientTransform="matrix(74.078758,0,0,-59.263008,239.82324,731.99097)"
       spreadMethod="pad"
       id="radialGradient1468">
      <stop
         style="stop-opacity:1;stop-color:#ffffff"
         offset="0"
         id="stop1470" />
      <stop
         style="stop-opacity:1;stop-color:#c4c3c3"
         offset="1"
         id="stop1472" />
    </radialGradient>
    <clipPath
       clipPathUnits="userSpaceOnUse"
       id="clipPath1480">
      <path
         d="m 0,1201.89 853.228,0 L 853.228,0 0,0 0,1201.89 Z"
         id="path1482"
         inkscape:connector-curvature="0" />
    </clipPath>
    <radialGradient
       fx="0"
       fy="0"
       cx="0"
       cy="0"
       r="1"
       gradientUnits="userSpaceOnUse"
       gradientTransform="matrix(74.078758,0,0,-59.263008,324.3374,727.64069)"
       spreadMethod="pad"
       id="radialGradient1516">
      <stop
         style="stop-opacity:1;stop-color:#ffffff"
         offset="0"
         id="stop1518" />
      <stop
         style="stop-opacity:1;stop-color:#c4c3c3"
         offset="1"
         id="stop1520" />
    </radialGradient>
    <clipPath
       clipPathUnits="userSpaceOnUse"
       id="clipPath1528">
      <path
         d="m 0,1201.89 853.228,0 L 853.228,0 0,0 0,1201.89 Z"
         id="path1530"
         inkscape:connector-curvature="0" />
    </clipPath>
    <clipPath
       clipPathUnits="userSpaceOnUse"
       id="clipPath1560">
      <path
         d="m 529.474,574.673 c 6.87,-7.702 13.741,-15.405 20.611,-23.107 l 0,0 c 2.925,-3.279 6.035,-7.149 6.026,-11.402 l 0,0 c -10e-4,-0.461 -0.038,-0.925 -0.116,-1.394 l 0,0 c -0.679,-4.076 -4.235,-6.974 -7.641,-9.312 l 0,0 c -8.134,-5.582 -16.812,-10.954 -24.245,-17.441 l 0,0 c -3.348,-2.922 -15.688,-9.847 -17.856,-11.768 l 0,0 c -10.514,-9.322 -29.698,-8.23 -43.695,-6.992 l 0,0 c -2.978,0.263 -6.376,0.501 -8.544,-1.558 l 0,0 c -1.461,-1.388 -1.959,-3.483 -2.345,-5.461 l 0,0 c -0.541,-2.777 -0.961,-5.706 -0.964,-8.569 l 0,0 c -0.005,-3.924 0.773,-7.721 3.093,-10.826 l 0,0 c 5.5,-7.361 17.621,-6.775 24.515,-0.701 l 0,0 c 3.855,3.397 7.098,8.39 12.216,8.854 l 0,0 c 5.187,0.469 9.462,-4.158 11.606,-8.906 l 0,0 c 2.145,-4.748 3.149,-10.106 6.358,-14.211 l 0,0 c 6.392,-8.178 21.134,-7.2 26.389,1.752 l 0,0 c 1.293,2.202 1.885,4.672 1.889,7.167 l 0,0 c 0.013,7.643 -5.488,15.526 -13.22,16.729 l 0,0 c -0.999,1.438 -1.44,3.117 -1.442,4.842 l 0,0 c -0.002,2.689 1.063,5.487 2.742,7.64 l 0,0 c 2.755,3.534 6.807,5.762 10.671,8.029 l 0,0 c 15.893,9.322 30.475,20.875 43.186,34.214 l 0,0 c 2.132,2.238 4.348,4.93 4.35,7.937 l 0,0 c 0,0.269 -0.017,0.54 -0.054,0.814 l 0,0 c -0.28,2.082 -1.645,3.833 -2.959,5.471 l 0,0 c -9.167,11.424 -18.333,22.849 -27.5,34.273 l 0,0 -23.071,-6.074 z"
         id="path1562"
         inkscape:connector-curvature="0" />
    </clipPath>
    <clipPath
       clipPathUnits="userSpaceOnUse"
       id="clipPath1646">
      <path
         d="m 0,1201.89 853.228,0 L 853.228,0 0,0 0,1201.89 Z"
         id="path1648"
         inkscape:connector-curvature="0" />
    </clipPath>
    <clipPath
       clipPathUnits="userSpaceOnUse"
       id="clipPath1658">
      <path
         d="m 444.813,571.047 c 6.832,-7.66 13.665,-15.32 20.499,-22.979 l 0,0 c 3.241,-3.634 6.709,-7.994 5.908,-12.797 l 0,0 c -0.056,-0.338 -0.132,-0.668 -0.226,-0.99 l 0,0 c -0.987,-3.65 -4.29,-6.315 -7.463,-8.492 l 0,0 c -8.135,-5.582 -16.812,-10.954 -24.246,-17.441 l 0,0 c -3.348,-2.922 -15.687,-9.846 -17.855,-11.769 l 0,0 c -10.514,-9.321 -29.699,-8.229 -43.695,-6.992 l 0,0 c -2.979,0.264 -6.375,0.503 -8.543,-1.557 l 0,0 c -0.945,-0.898 -1.487,-2.091 -1.857,-3.358 l 0,0 c -0.178,-0.638 -0.315,-1.291 -0.44,-1.933 l 0,0 c -1.283,-6.581 -1.885,-14.024 2.129,-19.396 l 0,0 c 5.499,-7.36 17.621,-6.774 24.514,-0.7 l 0,0 c 3.856,3.397 7.099,8.391 12.216,8.854 l 0,0 c 5.189,0.47 9.464,-4.158 11.607,-8.906 l 0,0 c 2.144,-4.747 3.15,-10.106 6.357,-14.211 l 0,0 c 6.393,-8.177 21.135,-7.199 26.39,1.752 l 0,0 c 0.57,0.971 1.003,1.993 1.311,3.046 l 0,0 c 2.398,8.633 -3.607,19.267 -12.691,20.68 l 0,0 c -1.621,2.332 -1.772,5.302 -0.964,8.064 l 0,0 c 0.46,1.658 1.268,3.248 2.313,4.588 l 0,0 c 2.754,3.534 6.806,5.762 10.671,8.029 l 0,0 c 15.893,9.322 30.475,20.875 43.186,34.215 l 0,0 c 1.669,1.751 3.39,3.782 4.06,6.024 l 0,0 c 0.225,0.825 0.306,1.678 0.187,2.556 l 0,0 c -0.279,2.082 -1.644,3.832 -2.959,5.47 l 0,0 c -9.166,11.425 -18.334,22.85 -27.5,34.274 l 0,0 -22.909,-6.031 z"
         id="path1660"
         inkscape:connector-curvature="0" />
    </clipPath>
  </defs>
  <sodipodi:namedview
     id="base"
     pagecolor="#ffffff"
     bordercolor="#666666"
     borderopacity="1.0"
     inkscape:pageopacity="0"
     inkscape:pageshadow="2"
     inkscape:zoom="0.29623369"
     inkscape:cx="1284.4589"
     inkscape:cy="1102.1704"
     inkscape:document-units="px"
     inkscape:current-layer="layer3"
     showgrid="false"
     units="px"
     inkscape:window-width="1870"
     inkscape:window-height="1016"
     inkscape:window-x="0"
     inkscape:window-y="0"
     inkscape:window-maximized="1"
     showguides="true"
     inkscape:guide-bbox="true"
     inkscape:snap-global="false"
     inkscape:pagecheckerboard="0">
    <sodipodi:guide
       position="79.389313,583.96947"
       orientation="1,0"
       id="guide5258"
       inkscape:locked="false" />
    <sodipodi:guide
       position="752.5,175"
       orientation="0,1"
       id="guide5684"
       inkscape:locked="false" />
    <sodipodi:guide
       position="622.14288,33.487991"
       orientation="0,1"
       id="guide5686"
       inkscape:locked="false" />
    <sodipodi:guide
       position="512,936"
       orientation="0,1"
       id="guide5806"
       inkscape:locked="false" />
    <sodipodi:guide
       position="1852.7369,1139.6332"
       orientation="1,0"
       id="guide5827"
       inkscape:locked="false" />
  </sodipodi:namedview>
  <metadata
     id="metadata7">
    <rdf:RDF>
      <cc:Work
         rdf:about="">
        <dc:format>image/svg+xml</dc:format>
        <dc:type
           rdf:resource="http://purl.org/dc/dcmitype/StillImage" />
      </cc:Work>
    </rdf:RDF>
  </metadata>
  <g
     inkscape:groupmode="layer"
     id="layer2"
     inkscape:label="Background">
    <rect
       style="fill:#000000;fill-opacity:1;fill-rule:nonzero;stroke:none"
       id="rect3797"
       width="1920"
       height="1080"
       x="0"
       y="0" />
  </g>
  <g
     inkscape:groupmode="layer"
     id="layer3"
     inkscape:label="Text"
     style="display:inline">
    <g
       id="textblock">
      <flowRoot
         transform="matrix(0.9364115,0,0,1,-50.681751,166.85714)"
         style="font-style:normal;font-variant:normal;font-weight:normal;font-stretch:normal;line-height:0.01%;font-family:'Alte Haas Grotesk';-inkscape-font-specification:'Alte Haas Grotesk';letter-spacing:0px;word-spacing:0px;fill:#000000;fill-opacity:1;stroke:none;stroke-width:1px;stroke-linecap:butt;stroke-linejoin:miter;stroke-opacity:1"
         id="title"
         xml:space="preserve"><flowRegion
           id="flowRegion5059"><rect
             y="62.857143"
             x="137.14285"
             height="473.63077"
             width="1895.5304"
             id="rect5061" /></flowRegion><flowPara
           id="flowPara5065"
           style="font-style:normal;font-variant:normal;font-weight:300;font-stretch:normal;font-size:82.6717px;line-height:120%;font-family:'Source Sans Pro';-inkscape-font-specification:'Source Sans Pro Light';text-align:start;writing-mode:lr-tb;text-anchor:start;fill:#eeee23;fill-opacity:1">$TITLE</flowPara><flowPara
           style="font-style:normal;font-variant:normal;font-weight:300;font-stretch:normal;font-size:20.6679px;line-height:120%;font-family:'Source Sans Pro';-inkscape-font-specification:'Source Sans Pro Light';text-align:start;writing-mode:lr-tb;text-anchor:start;fill:#35b9ab;fill-opacity:1"
           id="flowPara4200"> </flowPara><flowPara
           style="font-style:normal;font-variant:normal;font-weight:300;font-stretch:normal;font-size:62.0037px;line-height:120%;font-family:'Source Sans Pro';-inkscape-font-specification:'Source Sans Pro Light';text-align:start;writing-mode:lr-tb;text-anchor:start;fill:#ffffff;fill-opacity:1"
           id="flowPara5604">$SUBTITLE</flowPara></flowRoot>
      <flowRoot
         transform="matrix(0.9364115,0,0,1,-51.93175,642.91475)"
         style="font-style:normal;font-variant:normal;font-weight:normal;font-stretch:normal;line-height:0.01%;font-family:'Alte Haas Grotesk';-inkscape-font-specification:'Alte Haas Grotesk';letter-spacing:0px;word-spacing:0px;display:inline;fill:#000000;fill-opacity:1;stroke:none;stroke-width:1px;stroke-linecap:butt;stroke-linejoin:miter;stroke-opacity:1"
         id="speaker"
         xml:space="preserve"><flowRegion
           id="flowRegion5059-9"><rect
             y="62.857143"
             x="137.14285"
             height="237.2281"
             width="1896.8654"
             id="rect5061-3" /></flowRegion><flowPara
           id="flowPara5121"
           style="font-style:normal;font-variant:normal;font-weight:300;font-stretch:normal;font-size:62.0037px;line-height:120%;font-family:'Source Sans Pro';-inkscape-font-specification:'Source Sans Pro Light';text-align:start;writing-mode:lr-tb;text-anchor:start;fill:#eeee23;fill-opacity:1">$SPEAKER</flowPara></flowRoot>
    </g>
    <g
       id="all"
       inkscape:label="#all">
      <g
         id="g13155"
         transform="matrix(0.85352299,0,0,0.85352299,819.38453,-420.0124)">
        <path
           style="fill:#eeee23;fill-opacity:1;fill-rule:nonzero;stroke:none;stroke-width:1.33333"
           d="m 878.31395,588.31178 h -6.875 v -13.75 h -20.625 v 13.75 h -6.875 v -32.66145 h 6.875 v 12.03645 h 20.625 v -12.03645 h 6.875 z m 0,0"
           id="path11" />
        <path
           style="fill:#eeee23;fill-opacity:1;fill-rule:nonzero;stroke:none;stroke-width:1.33333"
           d="m 885.18895,555.65033 h 34.37499 v 32.66145 h -6.875 v -13.75 h -20.62499 v 13.75 h -6.875 v -32.66145 m 6.875,12.03645 h 20.62499 v -5.15624 h -20.62499 z m 0,0"
           id="path13" />
        <path
           style="fill:#eeee23;fill-opacity:1;fill-rule:nonzero;stroke:none;stroke-width:1.33333"
           d="m 933.31394,562.53054 v 18.90624 h 27.50522 v 6.875 h -34.38022 v -32.66145 h 34.38022 v 6.88021 z m 0,0"
           id="path15" />
        <path
           style="fill:#eeee23;fill-opacity:1;fill-rule:nonzero;stroke:none;stroke-width:1.33333"
           d="m 990.7254,571.29617 11.3438,17.01561 h -8.16671 l -9.15105,-13.75 h -10.18228 v 13.75 h -6.875 v -32.65624 h 6.875 v 12.02604 h 10.5677 l 8.76563,-12.02604 h 8.16671 z m 0,0"
           id="path17" />
        <path
           style="fill:#eeee23;fill-opacity:1;fill-rule:nonzero;stroke:none;stroke-width:1.33333"
           d="m 1015.8192,574.56178 v 6.875 h 27.5 v 6.875 h -34.375 v -32.65624 h 34.375 v 6.875 h -27.5 v 5.15624 h 27.5 v 6.875 z m 0,0"
           id="path19" />
        <path
           style="fill:#eeee23;fill-opacity:1;fill-rule:nonzero;stroke:none;stroke-width:1.33333"
           d="m 1084.5691,574.56178 h -6.875 l 6.875,13.75 h -8.1614 l -6.875,-13.75 h -12.4635 v 13.75 h -6.875 v -32.65624 h 34.3749 v 18.90624 m -27.4999,-6.875 h 20.6249 v -5.15624 h -20.6249 z m 0,0"
           id="path21" />
        <path
           style="fill:#eeee23;fill-opacity:1;fill-rule:nonzero;stroke:none;stroke-width:1.33333"
           d="m 852.39728,551.84303 c 0,-1.18749 0.96355,-2.14582 2.15104,-2.14582 1.18229,0 2.14584,0.95833 2.14584,2.14582 0,1.18751 -0.96355,2.15104 -2.14584,2.15104 -1.18749,0 -2.15104,-0.96353 -2.15104,-2.15104"
           id="path23" />
        <path
           style="fill:#eeee23;fill-opacity:1;fill-rule:nonzero;stroke:none;stroke-width:1.33333"
           d="m 835.9754,582.63991 c 0,-1.1875 0.96355,-2.15104 2.14584,-2.15104 1.18749,0 2.15104,0.96354 2.15104,2.15104 0,1.1875 -0.96355,2.14583 -2.15104,2.14583 -1.18229,0 -2.14584,-0.95833 -2.14584,-2.14583"
           id="path25" />
        <path
           style="fill:#eeee23;fill-opacity:1;fill-rule:nonzero;stroke:none;stroke-width:1.33333"
           d="m 856.1004,583.35345 c 0,-1.1875 0.95833,-2.14583 2.14584,-2.14583 1.18749,0 2.15104,0.95833 2.15104,2.14583 0,1.1875 -0.96355,2.15105 -2.15104,2.15105 -1.18751,0 -2.14584,-0.96355 -2.14584,-2.15105"
           id="path27" />
        <path
           style="fill:#eeee23;fill-opacity:1;fill-rule:nonzero;stroke:none;stroke-width:1.33333"
           d="m 875.79311,595.53054 c 0,-1.18751 0.96354,-2.15104 2.15105,-2.15104 1.18228,0 2.14583,0.96353 2.14583,2.15104 0,1.18749 -0.96355,2.14582 -2.14583,2.14582 -1.18751,0 -2.15105,-0.95833 -2.15105,-2.14582"
           id="path29" />
        <path
           style="fill:#eeee23;fill-opacity:1;fill-rule:nonzero;stroke:none;stroke-width:1.33333"
           d="m 900.86083,581.92117 c 0,-1.18751 0.95833,-2.14584 2.14582,-2.14584 1.18751,0 2.15104,0.95833 2.15104,2.14584 0,1.18749 -0.96353,2.15104 -2.15104,2.15104 -1.18749,0 -2.14582,-0.96355 -2.14582,-2.15104"
           id="path31" />
        <path
           style="fill:#eeee23;fill-opacity:1;fill-rule:nonzero;stroke:none;stroke-width:1.33333"
           d="m 872.20977,544.68158 c 0,-1.18751 0.96355,-2.14584 2.15106,-2.14584 1.18749,0 2.15104,0.95833 2.15104,2.14584 0,1.18749 -0.96355,2.14583 -2.15104,2.14583 -1.18751,0 -2.15106,-0.95834 -2.15106,-2.14583"
           id="path33" />
        <path
           style="fill:#eeee23;fill-opacity:1;fill-rule:nonzero;stroke:none;stroke-width:1.33333"
           d="m 914.46498,544.68158 c 0,-1.18751 0.96355,-2.14584 2.15104,-2.14584 1.18751,0 2.14584,0.95833 2.14584,2.14584 0,1.18749 -0.95833,2.14583 -2.14584,2.14583 -1.18749,0 -2.15104,-0.95834 -2.15104,-2.14583"
           id="path35" />
        <path
           style="fill:#eeee23;fill-opacity:1;fill-rule:nonzero;stroke:none;stroke-width:1.33333"
           d="m 1086.3504,579.89511 c 0,-1.18749 0.9635,-2.15104 2.1458,-2.15104 1.1875,0 2.1511,0.96355 2.1511,2.15104 0,1.1823 -0.9636,2.14584 -2.1511,2.14584 -1.1823,0 -2.1458,-0.96354 -2.1458,-2.14584"
           id="path37" />
        <path
           style="fill:#eeee23;fill-opacity:1;fill-rule:nonzero;stroke:none;stroke-width:1.33333"
           d="m 920.9129,592.66595 c 0,-1.18751 0.96354,-2.15104 2.14583,-2.15104 1.18751,0 2.15104,0.96353 2.15104,2.15104 0,1.18749 -0.96353,2.14583 -2.15104,2.14583 -1.18229,0 -2.14583,-0.95834 -2.14583,-2.14583"
           id="path39" />
        <path
           style="fill:#eeee23;fill-opacity:1;fill-rule:nonzero;stroke:none;stroke-width:1.33333"
           d="m 1003.2723,592.78574 c 0,-1.1875 0.9635,-2.15104 2.151,-2.15104 1.1875,0 2.1459,0.96354 2.1459,2.15104 0,1.1875 -0.9584,2.14584 -2.1459,2.14584 -1.1875,0 -2.151,-0.95834 -2.151,-2.14584"
           id="path41" />
        <path
           style="fill:#eeee23;fill-opacity:1;fill-rule:nonzero;stroke:none;stroke-width:1.33333"
           d="m 977.49102,597.08262 c 0,-1.18751 0.95834,-2.15104 2.15104,-2.15104 1.1823,0 2.14584,0.96353 2.14584,2.15104 0,1.18749 -0.96354,2.14582 -2.14584,2.14582 -1.1927,0 -2.15104,-0.95833 -2.15104,-2.14582"
           id="path43" />
        <path
           style="fill:#eeee23;fill-opacity:1;fill-rule:nonzero;stroke:none;stroke-width:1.33333"
           d="m 978.56394,557.57221 c 0,-1.18751 0.96355,-2.14584 2.15104,-2.14584 1.1823,0 2.14584,0.95833 2.14584,2.14584 0,1.18749 -0.96354,2.14582 -2.14584,2.14582 -1.18749,0 -2.15104,-0.95833 -2.15104,-2.14582"
           id="path45" />
        <path
           style="fill:#eeee23;fill-opacity:1;fill-rule:nonzero;stroke:none;stroke-width:1.33333"
           d="m 1026.1889,551.24407 c 0,-1.18229 0.9636,-2.14582 2.1511,-2.14582 1.1875,0 2.151,0.95833 2.151,2.14582 0,1.18751 -0.9635,2.15104 -2.151,2.15104 -1.1875,0 -2.1511,-0.96353 -2.1511,-2.15104"
           id="path47" />
        <path
           style="fill:#eeee23;fill-opacity:1;fill-rule:nonzero;stroke:none;stroke-width:1.33333"
           d="m 1014.0171,544.80137 c 0,-1.1875 0.9583,-2.15104 2.1458,-2.15104 1.1875,0 2.151,0.96354 2.151,2.15104 0,1.1875 -0.9635,2.14584 -2.151,2.14584 -1.1875,0 -2.1458,-0.95834 -2.1458,-2.14584"
           id="path49" />
        <path
           style="fill:#eeee23;fill-opacity:1;fill-rule:nonzero;stroke:none;stroke-width:1.33333"
           d="m 1073.4598,549.09825 c 0,-1.18751 0.9583,-2.14584 2.1458,-2.14584 1.1875,0 2.151,0.95833 2.151,2.14584 0,1.18749 -0.9635,2.14582 -2.151,2.14582 -1.1875,0 -2.1458,-0.95833 -2.1458,-2.14582"
           id="path51" />
        <path
           style="fill:#eeee23;fill-opacity:1;fill-rule:nonzero;stroke:none;stroke-width:1.33333"
           d="m 948.12644,573.8795 c 0,-1.18751 0.96354,-2.15105 2.15105,-2.15105 1.18228,0 2.14583,0.96354 2.14583,2.15105 0,1.18228 -0.96355,2.14583 -2.14583,2.14583 -1.18751,0 -2.15105,-0.96355 -2.15105,-2.14583"
           id="path53" />
        <path
           style="fill:#eeee23;fill-opacity:1;fill-rule:nonzero;stroke:none;stroke-width:1.33333"
           d="m 938.1004,550.41074 c 0,-1.18749 0.96354,-2.14583 2.15104,-2.14583 1.18229,0 2.14584,0.95834 2.14584,2.14583 0,1.18751 -0.96355,2.14584 -2.14584,2.14584 -1.1875,0 -2.15104,-0.95833 -2.15104,-2.14584"
           id="path55" />
        <path
           style="fill:#eeee23;fill-opacity:1;fill-rule:nonzero;stroke:none;stroke-width:1.33333"
           d="m 828.16811,571.89511 c 0,-1.18749 0.96354,-2.14582 2.15105,-2.14582 1.18228,0 2.14583,0.95833 2.14583,2.14582 0,1.18751 -0.96355,2.15106 -2.14583,2.15106 -1.18751,0 -2.15105,-0.96355 -2.15105,-2.15106"
           id="path57" />
        <path
           style="fill:none;stroke:#eeee23;stroke-width:0.894667;stroke-linecap:butt;stroke-linejoin:miter;stroke-miterlimit:10;stroke-opacity:1"
           d="m 854.81394,551.78053 -6.41145,-6.97916 h -9.84896 l -7.52084,6.56249 v 8.1198 l 7.16146,7.21875 v 15.69792"
           id="path59" />
        <path
           style="fill:none;stroke:#eeee23;stroke-width:0.894667;stroke-linecap:butt;stroke-linejoin:miter;stroke-miterlimit:10;stroke-opacity:1"
           d="m 830.31915,571.65553 v 17.1875 l 5.3698,5.375 h 18.61979 l 3.9375,-5.42708 v -5.67709"
           id="path61" />
        <path
           style="fill:none;stroke:#eeee23;stroke-width:0.894667;stroke-linecap:butt;stroke-linejoin:miter;stroke-miterlimit:10;stroke-opacity:1"
           d="m 877.94415,595.65032 h 15.03646 l 5.36979,-5.13541 v -3.9948 l 3.70313,-3.8802"
           id="path63" />
        <path
           style="fill:none;stroke:#eeee23;stroke-width:0.894667;stroke-linecap:butt;stroke-linejoin:miter;stroke-miterlimit:10;stroke-opacity:1"
           d="m 874.36082,544.80137 h 7.16146 l 5.60937,2.86458 h 16.59375 l 3.04688,2.86458 h 33.47916"
           id="path65" />
        <path
           style="fill:none;stroke:#eeee23;stroke-width:0.894667;stroke-linecap:butt;stroke-linejoin:miter;stroke-miterlimit:10;stroke-opacity:1"
           d="m 950.27748,574.16595 h 8.59375 l 4.65105,-5.375 v -16.46874 l -7.81771,-7.52084 h -39.08854"
           id="path67" />
        <path
           style="fill:none;stroke:#eeee23;stroke-width:0.894667;stroke-linecap:butt;stroke-linejoin:miter;stroke-miterlimit:10;stroke-opacity:1"
           d="m 923.77748,592.78574 h 36.64584 l 2.625,4.29688 h 16.59375"
           id="path69" />
        <path
           style="fill:none;stroke:#eeee23;stroke-width:0.894667;stroke-linecap:butt;stroke-linejoin:miter;stroke-miterlimit:10;stroke-opacity:1"
           d="m 1005.4233,592.78574 h 40.8229 l 3.9375,4.29688 h 11.099 l 4,-4.29688 h 23.8333 l 4.3229,-2.32812 0.073,-5.81771 -4.5365,-4.40105"
           id="path71" />
        <path
           style="fill:none;stroke:#eeee23;stroke-width:0.894667;stroke-linecap:butt;stroke-linejoin:miter;stroke-miterlimit:10;stroke-opacity:1"
           d="m 980.71498,557.33262 v -9.30729 l 4.95313,-3.22396 h 9.01041 l 8.59378,6.44792 h 23.6354"
           id="path73" />
        <path
           style="fill:none;stroke:#eeee23;stroke-width:0.894667;stroke-linecap:butt;stroke-linejoin:miter;stroke-miterlimit:10;stroke-opacity:1"
           d="m 1017.5952,544.80137 h 16.4739 l 4.0573,4.29688 h 37.4792"
           id="path75" />
        <path
           style="fill:#eeee23;fill-opacity:1;fill-rule:nonzero;stroke:none;stroke-width:1.33333"
           d="m 1039.2306,647.29095 h -6.901 v -13.80729 h -20.7188 v 13.80729 h -6.901 v -32.79688 h 6.901 v 12.08333 h 20.7188 v -12.08333 h 6.901 z m 0,0"
           id="path77" />
        <path
           style="fill:#eeee23;fill-opacity:1;fill-rule:nonzero;stroke:none;stroke-width:1.33333"
           d="m 1080.6629,647.29095 h -34.526 v -32.79688 h 34.526 z m -27.6198,-6.90104 h 20.7135 v -18.98959 h -20.7135 z m 0,0"
           id="path79" />
        <path
           style="fill:#eeee23;fill-opacity:1;fill-rule:nonzero;stroke:none;stroke-width:1.33333"
           d="m 1122.09,621.40032 h -13.8073 v 25.89063 h -6.9063 v -25.89063 h -13.8125 v -6.90625 h 34.5261 z m 0,0"
           id="path81" />
        <path
           style="fill:#eeee23;fill-opacity:1;fill-rule:nonzero;stroke:none;stroke-width:1.33333"
           d="m 1135.8973,633.48366 v 6.90625 h 27.6198 v 6.90104 h -34.5209 v -32.79688 h 34.5209 v 6.90625 h -27.6198 v 5.17708 h 27.6198 v 6.90626 z m 0,0"
           id="path83" />
        <path
           style="fill:#eeee23;fill-opacity:1;fill-rule:nonzero;stroke:none;stroke-width:1.33333"
           d="m 1170.4233,647.29095 v -32.79688 h 6.9063 v 25.89584 h 27.6198 v 6.90104 z m 0,0"
           id="path85" />
        <path
           style="fill:#eeee23;fill-opacity:1;fill-rule:nonzero;stroke:none;stroke-width:1.33333"
           d="m 1013.0639,610.79095 c 0,-1.19271 0.9688,-2.16145 2.1563,-2.16145 1.1927,0 2.1614,0.96874 2.1614,2.16145 0,1.18749 -0.9687,2.15625 -2.1614,2.15625 -1.1875,0 -2.1563,-0.96876 -2.1563,-2.15625"
           id="path87" />
        <path
           style="fill:#eeee23;fill-opacity:1;fill-rule:nonzero;stroke:none;stroke-width:1.33333"
           d="m 1033.9233,605.03574 c 0,-1.19271 0.9636,-2.15624 2.1563,-2.15624 1.1927,0 2.1562,0.96353 2.1562,2.15624 0,1.1927 -0.9635,2.15625 -2.1562,2.15625 -1.1927,0 -2.1563,-0.96355 -2.1563,-2.15625"
           id="path89" />
        <path
           style="fill:#eeee23;fill-opacity:1;fill-rule:nonzero;stroke:none;stroke-width:1.33333"
           d="m 1112.3244,609.35344 c 0,-1.1927 0.9635,-2.16145 2.1562,-2.16145 1.1927,0 2.1562,0.96875 2.1562,2.16145 0,1.18751 -0.9635,2.15626 -2.1562,2.15626 -1.1927,0 -2.1562,-0.96875 -2.1562,-2.15626"
           id="path91" />
        <path
           style="fill:#eeee23;fill-opacity:1;fill-rule:nonzero;stroke:none;stroke-width:1.33333"
           d="m 1131.0223,605.03574 c 0,-1.19271 0.9687,-2.15624 2.1562,-2.15624 1.1927,0 2.1563,0.96353 2.1563,2.15624 0,1.1927 -0.9636,2.15625 -2.1563,2.15625 -1.1875,0 -2.1562,-0.96355 -2.1562,-2.15625"
           id="path93" />
        <path
           style="fill:#eeee23;fill-opacity:1;fill-rule:nonzero;stroke:none;stroke-width:1.33333"
           d="m 1192.1577,624.45762 c 0,-1.19271 0.9687,-2.16146 2.1562,-2.16146 1.1927,0 2.1615,0.96875 2.1615,2.16146 0,1.18749 -0.9636,2.15625 -2.1615,2.15625 -1.1875,0 -2.1562,-0.96876 -2.1562,-2.15625"
           id="path95" />
        <path
           style="fill:#eeee23;fill-opacity:1;fill-rule:nonzero;stroke:none;stroke-width:1.33333"
           d="m 995.92332,641.59824 c 0,-1.1927 0.96354,-2.15625 2.15625,-2.15625 1.19271,0 2.16143,0.96355 2.16143,2.15625 0,1.19271 -0.96872,2.15626 -2.16143,2.15626 -1.19271,0 -2.15625,-0.96355 -2.15625,-2.15626"
           id="path97" />
        <path
           style="fill:#eeee23;fill-opacity:1;fill-rule:nonzero;stroke:none;stroke-width:1.33333"
           d="m 1025.4129,642.31699 c 0,-1.19271 0.9687,-2.15625 2.1563,-2.15625 1.1927,0 2.1562,0.96354 2.1562,2.15625 0,1.19271 -0.9635,2.15625 -2.1562,2.15625 -1.1876,0 -2.1563,-0.96354 -2.1563,-2.15625"
           id="path99" />
        <path
           style="fill:#eeee23;fill-opacity:1;fill-rule:nonzero;stroke:none;stroke-width:1.33333"
           d="m 1034.4025,654.66595 c 0,-1.19271 0.9687,-2.16145 2.1562,-2.16145 1.1927,0 2.1563,0.96874 2.1563,2.16145 0,1.18749 -0.9636,2.15625 -2.1563,2.15625 -1.1875,0 -2.1562,-0.96876 -2.1562,-2.15625"
           id="path101" />
        <path
           style="fill:#eeee23;fill-opacity:1;fill-rule:nonzero;stroke:none;stroke-width:1.33333"
           d="m 1072.5223,651.78574 c 0,-1.19271 0.9687,-2.15624 2.1562,-2.15624 1.1927,0 2.1615,0.96353 2.1615,2.15624 0,1.1927 -0.9688,2.16146 -2.1615,2.16146 -1.1875,0 -2.1562,-0.96876 -2.1562,-2.16146"
           id="path103" />
        <path
           style="fill:#eeee23;fill-opacity:1;fill-rule:nonzero;stroke:none;stroke-width:1.33333"
           d="m 988.01186,630.80658 c 0,-1.18751 0.96354,-2.15626 2.15624,-2.15626 1.19272,0 2.15626,0.96875 2.15626,2.15626 0,1.1927 -0.96354,2.16145 -2.15626,2.16145 -1.1927,0 -2.15624,-0.96875 -2.15624,-2.16145"
           id="path105" />
        <path
           style="fill:none;stroke:#eeee23;stroke-width:0.898667;stroke-linecap:butt;stroke-linejoin:miter;stroke-miterlimit:10;stroke-opacity:1"
           d="m 1014.7723,610.60866 -6.4427,-7.01042 h -9.89066 l -7.55208,6.58854 v 8.15625 l 7.19271,7.25 v 15.76563"
           id="path107" />
        <path
           style="fill:none;stroke:#eeee23;stroke-width:0.898667;stroke-linecap:butt;stroke-linejoin:miter;stroke-miterlimit:10;stroke-opacity:1"
           d="m 990.16811,630.56699 v 17.26563 l 5.39583,5.39062 h 28.04686 l 3.9583,-5.44792 v -5.69792"
           id="path109" />
        <path
           style="fill:#eeee23;fill-opacity:1;fill-rule:nonzero;stroke:none;stroke-width:1.33333"
           d="m 1180.4129,657.54095 c 0,1.19271 -0.9688,2.15625 -2.1615,2.15625 -1.1875,0 -2.1562,-0.96354 -2.1562,-2.15625 0,-1.19271 0.9687,-2.15625 2.1562,-2.15625 1.1927,0 2.1615,0.96354 2.1615,2.15625"
           id="path111" />
        <path
           style="fill:#eeee23;fill-opacity:1;fill-rule:nonzero;stroke:none;stroke-width:1.33333"
           d="m 1190.4806,651.78574 c 0,1.1927 -0.9688,2.16146 -2.1562,2.16146 -1.1928,0 -2.1563,-0.96876 -2.1563,-2.16146 0,-1.19271 0.9635,-2.15624 2.1563,-2.15624 1.1874,0 2.1562,0.96353 2.1562,2.15624"
           id="path113" />
        <path
           style="fill:#eeee23;fill-opacity:1;fill-rule:nonzero;stroke:none;stroke-width:1.33333"
           d="m 1205.5848,609.35344 c 0,1.18751 -0.9688,2.15626 -2.1563,2.15626 -1.1927,0 -2.1562,-0.96875 -2.1562,-2.15626 0,-1.1927 0.9635,-2.16145 2.1562,-2.16145 1.1875,0 2.1563,0.96875 2.1563,2.16145"
           id="path115" />
        <path
           style="fill:#eeee23;fill-opacity:1;fill-rule:nonzero;stroke:none;stroke-width:1.33333"
           d="m 1063.8921,657.54095 c 0,1.19271 -0.9688,2.15625 -2.1563,2.15625 -1.1927,0 -2.1614,-0.96354 -2.1614,-2.15625 0,-1.19271 0.9687,-2.15625 2.1614,-2.15625 1.1875,0 2.1563,0.96354 2.1563,2.15625"
           id="path117" />
        <path
           style="fill:#eeee23;fill-opacity:1;fill-rule:nonzero;stroke:none;stroke-width:1.33333"
           d="m 1096.2566,627.93158 c 0,1.1927 -0.9635,2.15625 -2.1562,2.15625 -1.1927,0 -2.1563,-0.96355 -2.1563,-2.15625 0,-1.19271 0.9636,-2.15626 2.1563,-2.15626 1.1927,0 2.1562,0.96355 2.1562,2.15626"
           id="path119" />
        <path
           style="fill:#eeee23;fill-opacity:1;fill-rule:nonzero;stroke:none;stroke-width:1.33333"
           d="m 1109.5639,654.54616 c 0,1.1875 -0.9635,2.15624 -2.1562,2.15624 -1.1927,0 -2.1563,-0.96874 -2.1563,-2.15624 0,-1.19272 0.9636,-2.16146 2.1563,-2.16146 1.1927,0 2.1562,0.96874 2.1562,2.16146"
           id="path121" />
        <path
           style="fill:none;stroke:#eeee23;stroke-width:0.898667;stroke-linecap:butt;stroke-linejoin:miter;stroke-miterlimit:10;stroke-opacity:1"
           d="M 1178.2514,657.54095 H 1164.59 l -3.474,-2.875 h -16.6666 l -3.0573,-2.16147 h -14.2084 l -3.8333,4.31771 h -7.1927 l -2.9948,-2.27604 -4.5313,-0.23957"
           id="path123" />
        <path
           style="fill:none;stroke:#eeee23;stroke-width:0.898667;stroke-linecap:butt;stroke-linejoin:miter;stroke-miterlimit:10;stroke-opacity:1"
           d="m 1093.3816,628.71282 -3.8385,2.90625 0.1249,7.86459 3.7136,3.39582 -0.089,9.45834 -2.4895,5.20313 h -29.0677"
           id="path125" />
        <path
           style="fill:none;stroke:#eeee23;stroke-width:0.898667;stroke-linecap:butt;stroke-linejoin:miter;stroke-miterlimit:10;stroke-opacity:1"
           d="m 1035.84,605.03574 h 15.1041 l 5.0365,4.3125 h 58.9792"
           id="path127" />
        <path
           style="fill:none;stroke:#eeee23;stroke-width:0.898667;stroke-linecap:butt;stroke-linejoin:miter;stroke-miterlimit:10;stroke-opacity:1"
           d="m 1188.3244,651.78574 h 17.9791 l 3.2396,-5.21354 v -30.39062 l -6.2239,-6.93751"
           id="path129" />
        <path
           style="fill:none;stroke:#eeee23;stroke-width:0.898667;stroke-linecap:butt;stroke-linejoin:miter;stroke-miterlimit:10;stroke-opacity:1"
           d="m 1194.6316,624.73366 -13.2552,-13.22396 h -25.4218 l -6.3959,-6.47396 h -15.1771"
           id="path131" />
        <path
           style="fill:none;stroke:#eeee23;stroke-width:0.898667;stroke-linecap:butt;stroke-linejoin:miter;stroke-miterlimit:10;stroke-opacity:1"
           d="m 1036.5587,654.66595 h 13.6667 l 5.276,-2.88021 h 18.4584"
           id="path133" />
      </g>
      <text
         xml:space="preserve"
         style="font-style:normal;font-variant:normal;font-weight:normal;font-stretch:normal;line-height:0%;font-family:'Open Sans Pro';-inkscape-font-specification:'Open Sans Pro';letter-spacing:0px;word-spacing:0px;fill:#ffffff;fill-opacity:1;stroke:none;stroke-width:1px;stroke-linecap:butt;stroke-linejoin:miter;stroke-opacity:1"
         x="79.389313"
         y="141.33333"
         id="text5802"><tspan
           sodipodi:role="line"
           id="tspan5804"
           x="79.389313"
           y="141.33333"
           style="font-style:normal;font-variant:normal;font-weight:bold;font-stretch:normal;font-size:70px;line-height:1.25;font-family:'Source Sans Pro';-inkscape-font-specification:'Source Sans Pro Bold'">Hacker Hotel 2024</tspan></text>
      <g
         id="g20765"
         transform="matrix(2.4640207,0,0,2.4640207,-2141.334,-2613.2162)">
        <g
           id="g20922"
           transform="translate(-106.05972,-17.424097)">
          <g
             id="g1906"
             transform="matrix(1.3333333,0,0,1.3333333,1326.3341,1294.8908)">
            <path
               style="fill:#eeee23;fill-opacity:1;fill-rule:nonzero;stroke:none"
               d="m -66.867182,120.36719 c 0,-0.89062 0.72266,-1.60937 1.61328,-1.60937 0.88672,0 1.60938,0.71875 1.60938,1.60937 0,0.89063 -0.72266,1.61328 -1.60938,1.61328 -0.89062,0 -1.61328,-0.72265 -1.61328,-1.61328"
               id="path23-3" />
            <path
               style="fill:#eeee23;fill-opacity:1;fill-rule:nonzero;stroke:none"
               d="m -79.183592,143.46485 c 0,-0.89063 0.72266,-1.61328 1.60938,-1.61328 0.89062,0 1.61328,0.72265 1.61328,1.61328 0,0.89062 -0.72266,1.60937 -1.61328,1.60937 -0.88672,0 -1.60938,-0.71875 -1.60938,-1.60937"
               id="path25-7" />
            <path
               style="fill:#eeee23;fill-opacity:1;fill-rule:nonzero;stroke:none"
               d="m -64.089842,144 c 0,-0.89062 0.71875,-1.60937 1.60938,-1.60937 0.89062,0 1.61328,0.71875 1.61328,1.60937 0,0.89063 -0.72266,1.61329 -1.61328,1.61329 -0.89063,0 -1.60938,-0.72266 -1.60938,-1.61329"
               id="path27-5" />
            <path
               style="fill:#eeee23;fill-opacity:1;fill-rule:nonzero;stroke:none"
               d="m -49.320312,153.13282 c 0,-0.89063 0.72266,-1.61328 1.61329,-1.61328 0.88671,0 1.60937,0.72265 1.60937,1.61328 0,0.89062 -0.72266,1.60937 -1.60937,1.60937 -0.89063,0 -1.61329,-0.71875 -1.61329,-1.60937"
               id="path29-9" />
            <path
               style="fill:#eeee23;fill-opacity:1;fill-rule:nonzero;stroke:none"
               d="m -30.519522,142.92579 c 0,-0.89063 0.71875,-1.60938 1.60937,-1.60938 0.89063,0 1.61328,0.71875 1.61328,1.60938 0,0.89062 -0.72265,1.61328 -1.61328,1.61328 -0.89062,0 -1.60937,-0.72266 -1.60937,-1.61328"
               id="path31-2" />
            <path
               style="fill:#eeee23;fill-opacity:1;fill-rule:nonzero;stroke:none"
               d="m -52.007812,114.9961 c 0,-0.89063 0.72266,-1.60938 1.61329,-1.60938 0.89062,0 1.61328,0.71875 1.61328,1.60938 0,0.89062 -0.72266,1.60937 -1.61328,1.60937 -0.89063,0 -1.61329,-0.71875 -1.61329,-1.60937"
               id="path33-2" />
            <path
               style="fill:#eeee23;fill-opacity:1;fill-rule:nonzero;stroke:none"
               d="m -20.316402,114.9961 c 0,-0.89063 0.72266,-1.60938 1.61328,-1.60938 0.89063,0 1.60938,0.71875 1.60938,1.60938 0,0.89062 -0.71875,1.60937 -1.60938,1.60937 -0.89062,0 -1.61328,-0.71875 -1.61328,-1.60937"
               id="path35-8" />
            <path
               style="fill:#eeee23;fill-opacity:1;fill-rule:nonzero;stroke:none"
               d="m 108.59766,141.40625 c 0,-0.89062 0.72266,-1.61328 1.60938,-1.61328 0.89062,0 1.61328,0.72266 1.61328,1.61328 0,0.88672 -0.72266,1.60938 -1.61328,1.60938 -0.88672,0 -1.60938,-0.72266 -1.60938,-1.60938"
               id="path37-9" />
            <path
               style="fill:#eeee23;fill-opacity:1;fill-rule:nonzero;stroke:none"
               d="m -15.480462,150.98438 c 0,-0.89063 0.72265,-1.61328 1.60937,-1.61328 0.89063,0 1.61328,0.72265 1.61328,1.61328 0,0.89062 -0.72265,1.60937 -1.61328,1.60937 -0.88672,0 -1.60937,-0.71875 -1.60937,-1.60937"
               id="path39-7" />
            <path
               style="fill:#eeee23;fill-opacity:1;fill-rule:nonzero;stroke:none"
               d="m 46.289068,151.07422 c 0,-0.89062 0.72266,-1.61328 1.61328,-1.61328 0.89063,0 1.60938,0.72266 1.60938,1.61328 0,0.89063 -0.71875,1.60938 -1.60938,1.60938 -0.89062,0 -1.61328,-0.71875 -1.61328,-1.60938"
               id="path41-3" />
            <path
               style="fill:#eeee23;fill-opacity:1;fill-rule:nonzero;stroke:none"
               d="m 26.953128,154.29688 c 0,-0.89063 0.71875,-1.61328 1.61328,-1.61328 0.88672,0 1.60938,0.72265 1.60938,1.61328 0,0.89062 -0.72266,1.60937 -1.60938,1.60937 -0.89453,0 -1.61328,-0.71875 -1.61328,-1.60937"
               id="path43-6" />
            <path
               style="fill:#eeee23;fill-opacity:1;fill-rule:nonzero;stroke:none"
               d="m 27.757818,124.66407 c 0,-0.89063 0.72266,-1.60938 1.61328,-1.60938 0.88672,0 1.60938,0.71875 1.60938,1.60938 0,0.89062 -0.72266,1.60937 -1.60938,1.60937 -0.89062,0 -1.61328,-0.71875 -1.61328,-1.60937"
               id="path45-1" />
            <path
               style="fill:#eeee23;fill-opacity:1;fill-rule:nonzero;stroke:none"
               d="m 63.476568,119.91797 c 0,-0.88672 0.72266,-1.60937 1.61328,-1.60937 0.89063,0 1.61328,0.71875 1.61328,1.60937 0,0.89063 -0.72265,1.61328 -1.61328,1.61328 -0.89062,0 -1.61328,-0.72265 -1.61328,-1.61328"
               id="path47-2" />
            <path
               style="fill:#eeee23;fill-opacity:1;fill-rule:nonzero;stroke:none"
               d="m 54.347658,115.08594 c 0,-0.89062 0.71875,-1.61328 1.60938,-1.61328 0.89062,0 1.61328,0.72266 1.61328,1.61328 0,0.89063 -0.72266,1.60938 -1.61328,1.60938 -0.89063,0 -1.60938,-0.71875 -1.60938,-1.60938"
               id="path49-9" />
            <path
               style="fill:#eeee23;fill-opacity:1;fill-rule:nonzero;stroke:none"
               d="m 98.929688,118.3086 c 0,-0.89063 0.71875,-1.60938 1.609382,-1.60938 0.89062,0 1.61328,0.71875 1.61328,1.60938 0,0.89062 -0.72266,1.60937 -1.61328,1.60937 -0.890632,0 -1.609382,-0.71875 -1.609382,-1.60937"
               id="path51-3" />
            <path
               style="fill:#eeee23;fill-opacity:1;fill-rule:nonzero;stroke:none"
               d="m 4.929688,136.89454 c 0,-0.89063 0.72266,-1.61329 1.61329,-1.61329 0.88671,0 1.60937,0.72266 1.60937,1.61329 0,0.88671 -0.72266,1.60937 -1.60937,1.60937 -0.89063,0 -1.61329,-0.72266 -1.61329,-1.60937"
               id="path53-1" />
            <path
               style="fill:#eeee23;fill-opacity:1;fill-rule:nonzero;stroke:none"
               d="m -2.589842,119.29297 c 0,-0.89062 0.72266,-1.60937 1.61328,-1.60937 0.88672,0 1.60938,0.71875 1.60938,1.60937 0,0.89063 -0.72266,1.60938 -1.60938,1.60938 -0.89062,0 -1.61328,-0.71875 -1.61328,-1.60938"
               id="path55-9" />
            <path
               style="fill:#eeee23;fill-opacity:1;fill-rule:nonzero;stroke:none"
               d="m -85.039062,135.40625 c 0,-0.89062 0.72266,-1.60937 1.61329,-1.60937 0.88671,0 1.60937,0.71875 1.60937,1.60937 0,0.89063 -0.72266,1.61329 -1.60937,1.61329 -0.89063,0 -1.61329,-0.72266 -1.61329,-1.61329"
               id="path57-4" />
            <path
               style="fill:none;stroke:#eeee23;stroke-width:0.671;stroke-linecap:butt;stroke-linejoin:miter;stroke-miterlimit:10;stroke-opacity:1"
               d="m -65.054683,120.32031 -4.808594,-5.23437 h -7.386719 l -5.640625,4.92187 v 6.08985 l 5.371094,5.41406 v 11.77344"
               id="path59-7" />
            <path
               style="fill:none;stroke:#eeee23;stroke-width:0.671;stroke-linecap:butt;stroke-linejoin:miter;stroke-miterlimit:10;stroke-opacity:1"
               d="m -83.425777,135.22656 v 12.89063 l 4.027344,4.03125 h 13.964844 l 2.953125,-4.07031 v -4.25782"
               id="path61-8" />
            <path
               style="fill:none;stroke:#eeee23;stroke-width:0.671;stroke-linecap:butt;stroke-linejoin:miter;stroke-miterlimit:10;stroke-opacity:1"
               d="m -47.707027,153.22266 h 11.277344 l 4.027344,-3.85156 v -2.9961 l 2.777343,-2.91015"
               id="path63-4" />
            <path
               style="fill:none;stroke:#eeee23;stroke-width:0.671;stroke-linecap:butt;stroke-linejoin:miter;stroke-miterlimit:10;stroke-opacity:1"
               d="m -50.394527,115.08594 h 5.371094 l 4.207031,2.14844 h 12.445313 l 2.285156,2.14843 h 25.109375"
               id="path65-5" />
            <path
               style="fill:none;stroke:#eeee23;stroke-width:0.671;stroke-linecap:butt;stroke-linejoin:miter;stroke-miterlimit:10;stroke-opacity:1"
               d="m 6.542973,137.10938 h 6.445313 l 3.488281,-4.03125 v -12.35156 l -5.863281,-5.64063 h -29.316407"
               id="path67-0" />
            <path
               style="fill:none;stroke:#eeee23;stroke-width:0.671;stroke-linecap:butt;stroke-linejoin:miter;stroke-miterlimit:10;stroke-opacity:1"
               d="m -13.332027,151.07422 h 27.484375 l 1.96875,3.22266 h 12.445313"
               id="path69-3" />
            <path
               style="fill:none;stroke:#eeee23;stroke-width:0.671;stroke-linecap:butt;stroke-linejoin:miter;stroke-miterlimit:10;stroke-opacity:1"
               d="m 47.902348,151.07422 h 30.617188 l 2.953125,3.22266 h 8.324218 l 3,-3.22266 h 17.875001 l 3.24219,-1.74609 0.0547,-4.36328 -3.40235,-3.30079"
               id="path71-6" />
            <path
               style="fill:none;stroke:#eeee23;stroke-width:0.671;stroke-linecap:butt;stroke-linejoin:miter;stroke-miterlimit:10;stroke-opacity:1"
               d="m 29.371098,124.48438 v -6.98047 l 3.714844,-2.41797 h 6.757812 l 6.445313,4.83594 h 17.726562"
               id="path73-1" />
            <path
               style="fill:none;stroke:#eeee23;stroke-width:0.671;stroke-linecap:butt;stroke-linejoin:miter;stroke-miterlimit:10;stroke-opacity:1"
               d="m 57.031254,115.08594 h 12.355469 l 3.042969,3.22266 h 28.109378"
               id="path75-0" />
          </g>
          <g
             id="g1877"
             transform="matrix(1.3333333,0,0,1.3333333,1440.3341,1234.547)">
            <path
               style="fill:#eeee23;fill-opacity:1;fill-rule:nonzero;stroke:none"
               d="m 53.632818,164.57813 c 0,-0.89453 0.72656,-1.62109 1.61719,-1.62109 0.89453,0 1.62109,0.72656 1.62109,1.62109 0,0.89062 -0.72656,1.61719 -1.62109,1.61719 -0.89063,0 -1.61719,-0.72657 -1.61719,-1.61719"
               id="path87-6" />
            <path
               style="fill:#eeee23;fill-opacity:1;fill-rule:nonzero;stroke:none"
               d="m 69.277348,160.26172 c 0,-0.89453 0.72266,-1.61718 1.61719,-1.61718 0.89453,0 1.61719,0.72265 1.61719,1.61718 0,0.89453 -0.72266,1.61719 -1.61719,1.61719 -0.89453,0 -1.61719,-0.72266 -1.61719,-1.61719"
               id="path89-3" />
            <path
               style="fill:#eeee23;fill-opacity:1;fill-rule:nonzero;stroke:none"
               d="m 128.07813,163.5 c 0,-0.89453 0.72266,-1.62109 1.61719,-1.62109 0.89453,0 1.61718,0.72656 1.61718,1.62109 0,0.89063 -0.72265,1.61719 -1.61718,1.61719 -0.89453,0 -1.61719,-0.72656 -1.61719,-1.61719"
               id="path91-2" />
            <path
               style="fill:#eeee23;fill-opacity:1;fill-rule:nonzero;stroke:none"
               d="m 142.10157,160.26172 c 0,-0.89453 0.72656,-1.61718 1.61718,-1.61718 0.89454,0 1.61719,0.72265 1.61719,1.61718 0,0.89453 -0.72265,1.61719 -1.61719,1.61719 -0.89062,0 -1.61718,-0.72266 -1.61718,-1.61719"
               id="path93-0" />
            <path
               style="fill:#eeee23;fill-opacity:1;fill-rule:nonzero;stroke:none"
               d="m 187.95313,174.82813 c 0,-0.89453 0.72656,-1.62109 1.61719,-1.62109 0.89453,0 1.62109,0.72656 1.62109,1.62109 0,0.89062 -0.72266,1.61719 -1.62109,1.61719 -0.89063,0 -1.61719,-0.72657 -1.61719,-1.61719"
               id="path95-6" />
            <path
               style="fill:#eeee23;fill-opacity:1;fill-rule:nonzero;stroke:none"
               d="m 40.777348,187.6836 c 0,-0.89453 0.72266,-1.61719 1.61719,-1.61719 0.89453,0 1.62109,0.72266 1.62109,1.61719 0,0.89453 -0.72656,1.61719 -1.62109,1.61719 -0.89453,0 -1.61719,-0.72266 -1.61719,-1.61719"
               id="path97-1" />
            <path
               style="fill:#eeee23;fill-opacity:1;fill-rule:nonzero;stroke:none"
               d="m 62.894538,188.22266 c 0,-0.89453 0.72656,-1.61719 1.61719,-1.61719 0.89453,0 1.61718,0.72266 1.61718,1.61719 0,0.89453 -0.72265,1.61719 -1.61718,1.61719 -0.89063,0 -1.61719,-0.72266 -1.61719,-1.61719"
               id="path99-5" />
            <path
               style="fill:#eeee23;fill-opacity:1;fill-rule:nonzero;stroke:none"
               d="m 69.636728,197.48438 c 0,-0.89453 0.72656,-1.62109 1.61718,-1.62109 0.89453,0 1.61719,0.72656 1.61719,1.62109 0,0.89062 -0.72266,1.61719 -1.61719,1.61719 -0.89062,0 -1.61718,-0.72657 -1.61718,-1.61719"
               id="path101-5" />
            <path
               style="fill:#eeee23;fill-opacity:1;fill-rule:nonzero;stroke:none"
               d="m 98.226568,195.32422 c 0,-0.89453 0.72656,-1.61718 1.61719,-1.61718 0.894532,0 1.621092,0.72265 1.621092,1.61718 0,0.89453 -0.72656,1.6211 -1.621092,1.6211 -0.89063,0 -1.61719,-0.72657 -1.61719,-1.6211"
               id="path103-4" />
            <path
               style="fill:#eeee23;fill-opacity:1;fill-rule:nonzero;stroke:none"
               d="m 34.843758,179.58985 c 0,-0.89063 0.72265,-1.61719 1.61718,-1.61719 0.89454,0 1.61719,0.72656 1.61719,1.61719 0,0.89453 -0.72265,1.62109 -1.61719,1.62109 -0.89453,0 -1.61718,-0.72656 -1.61718,-1.62109"
               id="path105-7" />
            <path
               style="fill:none;stroke:#eeee23;stroke-width:0.674;stroke-linecap:butt;stroke-linejoin:miter;stroke-miterlimit:10;stroke-opacity:1"
               d="m 54.914067,164.44141 -4.832031,-5.25781 h -7.417969 l -5.664063,4.9414 v 6.11719 l 5.394532,5.4375 v 11.82422"
               id="path107-6" />
            <path
               style="fill:none;stroke:#eeee23;stroke-width:0.674;stroke-linecap:butt;stroke-linejoin:miter;stroke-miterlimit:10;stroke-opacity:1"
               d="m 36.460942,179.41016 v 12.94922 l 4.046875,4.04297 h 21.035156 l 2.96875,-4.08594 v -4.27344"
               id="path109-5" />
            <path
               style="fill:#eeee23;fill-opacity:1;fill-rule:nonzero;stroke:none"
               d="m 179.14454,199.64063 c 0,0.89453 -0.72657,1.61719 -1.6211,1.61719 -0.89062,0 -1.61719,-0.72266 -1.61719,-1.61719 0,-0.89453 0.72657,-1.61719 1.61719,-1.61719 0.89453,0 1.6211,0.72266 1.6211,1.61719"
               id="path111-6" />
            <path
               style="fill:#eeee23;fill-opacity:1;fill-rule:nonzero;stroke:none"
               d="m 186.69532,195.32422 c 0,0.89453 -0.72657,1.6211 -1.61719,1.6211 -0.89453,0 -1.61719,-0.72657 -1.61719,-1.6211 0,-0.89453 0.72266,-1.61718 1.61719,-1.61718 0.89062,0 1.61719,0.72265 1.61719,1.61718"
               id="path113-9" />
            <path
               style="fill:#eeee23;fill-opacity:1;fill-rule:nonzero;stroke:none"
               d="m 198.02344,163.5 c 0,0.89063 -0.72656,1.61719 -1.61719,1.61719 -0.89453,0 -1.61718,-0.72656 -1.61718,-1.61719 0,-0.89453 0.72265,-1.62109 1.61718,-1.62109 0.89063,0 1.61719,0.72656 1.61719,1.62109"
               id="path115-3" />
            <path
               style="fill:#eeee23;fill-opacity:1;fill-rule:nonzero;stroke:none"
               d="m 91.753908,199.64063 c 0,0.89453 -0.72656,1.61719 -1.61719,1.61719 -0.89453,0 -1.62109,-0.72266 -1.62109,-1.61719 0,-0.89453 0.72656,-1.61719 1.62109,-1.61719 0.89063,0 1.61719,0.72266 1.61719,1.61719"
               id="path117-7" />
            <path
               style="fill:#eeee23;fill-opacity:1;fill-rule:nonzero;stroke:none"
               d="m 116.02735,177.4336 c 0,0.89453 -0.72266,1.61719 -1.61719,1.61719 -0.89453,0 -1.61719,-0.72266 -1.61719,-1.61719 0,-0.89453 0.72266,-1.61719 1.61719,-1.61719 0.89453,0 1.61719,0.72266 1.61719,1.61719"
               id="path119-4" />
            <path
               style="fill:#eeee23;fill-opacity:1;fill-rule:nonzero;stroke:none"
               d="m 126.00782,197.39454 c 0,0.89062 -0.72266,1.61718 -1.61719,1.61718 -0.89453,0 -1.61719,-0.72656 -1.61719,-1.61718 0,-0.89454 0.72266,-1.6211 1.61719,-1.6211 0.89453,0 1.61719,0.72656 1.61719,1.6211"
               id="path121-5" />
            <path
               style="fill:none;stroke:#eeee23;stroke-width:0.674;stroke-linecap:butt;stroke-linejoin:miter;stroke-miterlimit:10;stroke-opacity:1"
               d="m 177.52344,199.64063 h -10.24609 l -2.60547,-2.15625 h -12.5 l -2.29297,-1.6211 h -10.65625 l -2.875,3.23828 h -5.39453 l -2.24609,-1.70703 -3.39844,-0.17968"
               id="path123-2" />
            <path
               style="fill:none;stroke:#eeee23;stroke-width:0.674;stroke-linecap:butt;stroke-linejoin:miter;stroke-miterlimit:10;stroke-opacity:1"
               d="m 113.8711,178.01953 -2.87891,2.17969 0.0937,5.89844 2.78516,2.54687 -0.0664,7.09375 -1.86718,3.90235 H 90.136725"
               id="path125-5" />
            <path
               style="fill:none;stroke:#eeee23;stroke-width:0.674;stroke-linecap:butt;stroke-linejoin:miter;stroke-miterlimit:10;stroke-opacity:1"
               d="m 70.714848,160.26172 h 11.328125 l 3.777344,3.23438 h 44.234373"
               id="path127-4" />
            <path
               style="fill:none;stroke:#eeee23;stroke-width:0.674;stroke-linecap:butt;stroke-linejoin:miter;stroke-miterlimit:10;stroke-opacity:1"
               d="m 185.07813,195.32422 h 13.48438 l 2.42968,-3.91015 V 168.6211 l -4.66796,-5.20313"
               id="path129-7" />
            <path
               style="fill:none;stroke:#eeee23;stroke-width:0.674;stroke-linecap:butt;stroke-linejoin:miter;stroke-miterlimit:10;stroke-opacity:1"
               d="m 189.8086,175.03516 -9.94141,-9.91797 h -19.0664 l -4.79688,-4.85547 H 144.6211"
               id="path131-4" />
            <path
               style="fill:none;stroke:#eeee23;stroke-width:0.674;stroke-linecap:butt;stroke-linejoin:miter;stroke-miterlimit:10;stroke-opacity:1"
               d="M 71.253911,197.48438 H 81.50391 l 3.957032,-2.16016 h 13.84375"
               id="path133-4" />
          </g>
        </g>
      </g>
    </g>
  </g>
  <g
     inkscape:groupmode="layer"
     id="layer1"
     inkscape:label="FadeOutLayer"
     style="display:inline">
    <rect
       style="fill:#000000;fill-opacity:1;opacity:0"
       id="fadeout"
       width="1932.7112"
       height="1092.9814"
       x="-4.4430141"
       y="-1.8739687"
       inkscape:label="#fadeout" />
  </g>
</svg>
