<?xml version="1.0" encoding="UTF-8" standalone="no"?>
<!-- Created with Inkscape (http://www.inkscape.org/) -->

<svg
   width="1920"
   height="1080"
   viewBox="0 0 1920 1080"
   id="svg2"
   version="1.1"
   inkscape:version="1.1.2 (0a00cf5339, 2022-02-04)"
   sodipodi:docname="outro.svg"
   enable-background="new"
   xmlns:inkscape="http://www.inkscape.org/namespaces/inkscape"
   xmlns:sodipodi="http://sodipodi.sourceforge.net/DTD/sodipodi-0.dtd"
   xmlns="http://www.w3.org/2000/svg"
   xmlns:svg="http://www.w3.org/2000/svg"
   xmlns:rdf="http://www.w3.org/1999/02/22-rdf-syntax-ns#"
   xmlns:cc="http://creativecommons.org/ns#"
   xmlns:dc="http://purl.org/dc/elements/1.1/">
  <defs
     id="defs4">
    <clipPath
       clipPathUnits="userSpaceOnUse"
       id="clipPath18">
      <path
         d="m 312.117,871.087 c -6.264,-1.72 -10.84,-10.647 -14.167,-15.645 l 0,0 c -4.194,-6.302 -7.979,-12.897 -11.534,-19.58 l 0,0 c -6.794,-12.771 -13.065,-25.863 -21.157,-37.891 l 0,0 -14.658,-134.44 c -34.506,-10.769 -67.49,-29.469 -99.699,-48.874 l 0,0 c 12.812,-37.59 55.526,-58.834 95.24,-58.766 l 0,0 c 0.024,0 0.047,0 0.071,0 l 0,0 c -6.665,-0.282 -13.34,-0.125 -19.96,0.504 l 0,0 c 17.08,-29.328 37.542,-57.811 69.853,-68.2 l 0,0 c 26.039,-8.372 54.524,-0.76 79.568,10.242 l 0,0 c 16.073,7.061 37.811,23.424 50.174,37.459 l 0,0 c -5.443,-6.931 -9.356,-11.85 -9.378,-14.226 l 0,0 c -0.036,-4.022 11.889,-7.249 15.319,-7.836 l 0,0 c 4.537,-0.776 55.479,-8.821 65.762,-9.857 l 0,0 c 10.396,-1.048 20.273,-1.879 30.647,-0.162 l 0,0 c 9.775,1.619 19.405,4.609 27.984,9.637 l 0,0 c 9.366,5.488 17.124,13.214 21.752,22.642 l 0,0 c -2.467,-9.581 -5.754,-22.648 -9.272,-36.305 l 0,0 c -0.171,-0.666 -0.311,-1.344 -0.413,-2.024 l 0,0 c -3.39,-22.815 -3.156,-46.468 -3.991,-69.493 l 0,0 c -0.901,-24.858 -1.418,-49.754 -2.83,-74.59 l 0,0 c -0.791,-13.917 -3.767,-27.11 -7.947,-40.362 l 0,0 c -1.785,-5.66 -3.752,-11.282 -5.94,-16.816 l 0,0 c 2.853,8.361 4.713,17.016 5.261,25.851 l 0,0 c 0.555,8.93 -0.352,17.967 -2.745,26.592 l 0,0 c -2.662,9.599 -7.206,18.729 -13.686,26.328 l 0,0 c -1.536,1.801 -2.531,3.044 -3.792,5.045 l 0,0 c -1.313,2.081 -3.691,4.003 -5.535,5.683 l 0,0 c -4.28,3.901 -8.981,7.314 -13.802,10.512 l 0,0 c -8.952,5.937 -18.089,11.527 -28.039,15.555 l 0,0 c -22.597,9.151 -48.915,13.05 -72.999,8.126 l 0,0 c -49.265,-10.074 -94.2,-46.844 -113.089,-93.79 l 0,0 c -7.565,-18.805 -8.616,-45.719 -6.222,-65.756 l 0,0 c 7.2,-60.243 65.422,-100.088 125.514,-108.448 l 0,0 c 24.824,-3.455 52.18,-1.693 76.294,4.869 l 0,0 c 50.617,13.775 89.298,54.937 112.844,99.669 l 0,0 c 2.794,5.307 14.736,24.552 14.675,26.909 l 0,0 c 0.267,-10.318 3.457,-20.545 9.106,-29.184 l 0,0 16.227,92.559 c 1.621,-9.021 7.294,-17.234 15.157,-21.945 l 0,0 0.204,60.905 c 1.41,-9.085 6.602,-14.523 14.491,-19.244 l 0,0 c -4.166,27.38 -4.717,52.34 -2.482,79.945 l 0,0 c 7.063,-4.324 13.65,-8.62 20.658,-10.281 l 0,0 c -3.651,26.792 -12.97,49.694 -16.621,76.487 l 0,0 c 10.534,-8.562 10.319,-10.84 19.664,-11.89 l 0,0 c -3.943,26.189 -16.832,43.539 -29.738,66.666 l 0,0 25.882,-0.923 c -10.728,25.86 -25.45,41.841 -43.486,63.254 l 0,0 c 10.92,0.053 16.559,0.433 26.037,2.489 l 0,0 c -14.416,20.027 -33.431,26.496 -56.345,35.655 l 0,0 c 14.572,6.667 21.146,13.146 30.811,25.412 l 0,0 c -25.908,4.436 -43.613,6.974 -69.672,10.409 l 0,0 c 9.984,6.221 25.959,11.735 32.646,23.966 l 0,0 c -23.093,-0.068 -51.514,-1.99 -74.606,-2.058 l 0,0 c 3.118,9.15 16.024,22.056 15.344,33.286 l 0,0 -67.289,-24.136 c -2.029,7.646 4.971,10.282 1.623,31.588 l 0,0 -54.542,-23.538 c 0,6.9 9.282,21.518 5.236,31.248 l 0,0 c -1.052,2.53 -27.624,-18.934 -36.917,-20.788 l 0,0 c 0,0 19.327,52.162 14.75,52.15 l 0,0 c -15.455,-0.042 -33.75,-18.848 -49.058,-21.738 l 0,0 c -3.6,5.947 -6.717,12.18 -9.698,18.456 l 0,0 c -5.957,12.543 -11.32,25.358 -17.137,37.966 l 0,0 c -2.809,6.088 -5.71,12.138 -8.882,18.045 l 0,0 c -2.044,3.808 -3.89,8.265 -7.717,10.63 l 0,0 c -2.577,1.592 -6.347,2.531 -9.801,2.531 l 0,0 c -1.401,0 -2.751,-0.155 -3.948,-0.484 m 41.469,-271.97 c -2.238,-1.885 -4.527,-3.722 -6.865,-5.509 l 0,0 c 2.327,1.793 4.616,3.631 6.865,5.509 m 85.349,-45.569 c 0,0 0,0 0,0 M 383.533,241.747 c -16.443,19.302 -23.431,46.211 -18.815,71.142 l 0,0 c 4.341,23.447 18.996,45.037 39.804,56.683 l 0,0 c 20.808,11.645 47.481,12.699 68.622,1.67 l 0,0 c 21.142,-11.029 35.713,-34.183 35.364,-58.026 l 0,0 c -0.349,-23.843 -16.558,-46.24 -39.055,-54.146 l 0,0 c -13.248,-4.655 -27.77,-4.347 -39.5,3.375 l 0,0 c -11.729,7.722 -19.3,22.583 -15.553,36.117 l 0,0 c 3.746,13.535 19.143,23.26 32.574,19.157 l 0,0 c 5.156,-1.575 9.602,-4.83 14.374,-7.338 l 0,0 c 6.351,-3.339 14.186,-5.411 20.409,0.204 l 0,0 c 2.348,2.119 3.893,5.052 4.395,8.174 l 0,0 c 1.65,10.257 -5.836,19.545 -14.699,22.812 l 0,0 c -6.84,2.521 -14.529,2.26 -21.749,1.25 l 0,0 c -23.7,-3.318 -46.176,-17.837 -57.931,-38.681 l 0,0 c -11.755,-20.845 -11.322,-48.644 3.051,-67.777 l 0,0 c 7.968,-10.606 19.479,-17.733 32.216,-21.387 l 0,0 c -16.77,4.192 -32.281,13.594 -43.507,26.771 m 146.601,21.02 c 0.24,0.346 0.478,0.693 0.716,1.042 l 0,0 c -2.094,-3.187 -4.311,-6.295 -6.662,-9.313 l 0,0 c -5.252,-6.741 -11.254,-13.003 -17.851,-18.524 l 0,0 c 9.038,7.807 17.014,17.001 23.797,26.795"
         id="path20-4"
         inkscape:connector-curvature="0" />
    </clipPath>
    <clipPath
       clipPathUnits="userSpaceOnUse"
       id="clipPath28">
      <path
         d="m 314.284,874.024 c -6.264,-1.721 -10.84,-10.648 -14.166,-15.645 l 0,0 c -4.194,-6.302 -7.981,-12.897 -11.535,-19.58 l 0,0 c -6.794,-12.772 -13.065,-25.863 -21.157,-37.891 l 0,0 -14.657,-134.44 c -34.506,-10.769 -67.491,-29.47 -99.701,-48.874 l 0,0 c 12.813,-37.59 55.528,-58.835 95.241,-58.767 l 0,0 c 0.017,0 0.031,0 0.048,0 l 0,0 c -6.659,-0.281 -13.323,-0.124 -19.938,0.505 l 0,0 c 17.081,-29.328 37.544,-57.812 69.854,-68.2 l 0,0 c 26.039,-8.373 54.524,-0.761 79.568,10.242 l 0,0 c 16.072,7.06 37.807,23.42 50.171,37.455 l 0,0 c -5.441,-6.928 -9.354,-11.847 -9.375,-14.223 l 0,0 c -0.036,-4.022 11.889,-7.249 15.32,-7.836 l 0,0 c 4.536,-0.776 55.478,-8.82 65.761,-9.857 l 0,0 c 10.396,-1.048 20.273,-1.879 30.647,-0.161 l 0,0 c 9.774,1.618 19.404,4.608 27.984,9.636 l 0,0 c 9.366,5.488 17.124,13.214 21.752,22.642 l 0,0 c -2.467,-9.581 -5.754,-22.647 -9.272,-36.304 l 0,0 c -0.171,-0.666 -0.312,-1.345 -0.413,-2.025 l 0,0 c -3.39,-22.814 -3.157,-46.467 -3.991,-69.492 l 0,0 c -0.902,-24.859 -1.418,-49.754 -2.83,-74.591 l 0,0 c -0.791,-13.916 -3.768,-27.109 -7.947,-40.362 l 0,0 c -1.785,-5.661 -3.753,-11.284 -5.942,-16.82 l 0,0 c 2.854,8.362 4.714,17.02 5.263,25.856 l 0,0 c 0.554,8.929 -0.353,17.967 -2.745,26.592 l 0,0 c -2.662,9.598 -7.206,18.729 -13.686,26.327 l 0,0 c -1.536,1.801 -3.494,3.382 -4.757,5.383 l 0,0 c -1.312,2.081 -2.726,3.665 -4.57,5.345 l 0,0 c -4.28,3.901 -8.981,7.315 -13.802,10.512 l 0,0 c -8.952,5.938 -18.598,10.791 -28.547,14.819 l 0,0 c -22.597,9.149 -47.586,13.078 -71.67,8.153 l 0,0 c -49.265,-10.074 -95.021,-46.134 -113.91,-93.081 l 0,0 c -7.566,-18.804 -8.616,-45.718 -6.222,-65.755 l 0,0 c 7.2,-60.244 65.422,-100.089 125.514,-108.45 l 0,0 c 24.823,-3.453 52.179,-1.692 76.293,4.87 l 0,0 c 50.618,13.775 89.298,54.937 112.845,99.669 l 0,0 c 2.794,5.306 14.736,24.552 14.675,26.91 l 0,0 c 0.266,-10.318 3.457,-20.545 9.105,-29.185 l 0,0 16.228,92.559 c 1.622,-9.021 7.294,-17.234 15.156,-21.944 l 0,0 0.204,60.905 c 1.411,-9.085 6.603,-14.524 14.491,-19.245 l 0,0 c -4.165,27.381 -4.717,52.34 -2.481,79.945 l 0,0 c 7.063,-4.324 13.65,-8.619 20.657,-10.281 l 0,0 c -3.651,26.793 -12.969,49.695 -16.621,76.488 l 0,0 c 10.535,-8.562 10.321,-10.841 19.665,-11.89 l 0,0 c -3.943,26.189 -16.832,43.539 -29.738,66.666 l 0,0 25.881,-0.924 c -10.726,25.861 -25.449,41.842 -43.485,63.255 l 0,0 c 10.92,0.053 16.559,0.433 26.037,2.488 l 0,0 c -14.416,20.028 -33.431,26.496 -56.345,35.655 l 0,0 c 14.571,6.668 21.146,13.147 30.811,25.413 l 0,0 c -25.908,4.436 -43.613,6.973 -69.673,10.409 l 0,0 c 9.985,6.22 25.961,11.735 32.648,23.966 l 0,0 c -23.094,-0.069 -51.515,-1.991 -74.608,-2.06 l 0,0 c 3.119,9.152 16.025,22.058 15.345,33.287 l 0,0 -67.289,-24.135 c -2.03,7.644 4.971,10.282 1.624,31.588 l 0,0 -54.543,-23.538 c 0,6.899 9.282,21.517 5.235,31.248 l 0,0 c -1.052,2.53 -27.623,-18.935 -36.917,-20.789 l 0,0 c 0,0 19.328,52.162 14.751,52.15 l 0,0 c -15.456,-0.043 -33.751,-18.848 -49.059,-21.737 l 0,0 c -3.6,5.946 -6.717,12.18 -9.697,18.454 l 0,0 c -5.958,12.545 -11.32,25.36 -17.137,37.968 l 0,0 c -2.808,6.086 -5.71,12.137 -8.882,18.045 l 0,0 c -2.044,3.808 -3.889,8.265 -7.717,10.63 l 0,0 c -2.577,1.592 -6.347,2.53 -9.801,2.53 l 0,0 c -1.401,0 -2.752,-0.154 -3.948,-0.483 m 41.469,-271.971 c -2.231,-1.88 -4.511,-3.71 -6.842,-5.492 l 0,0 c 2.319,1.787 4.601,3.62 6.842,5.492 m 85.349,-45.569 c 0,0 0,0 0,0 M 385.7,244.684 c -16.443,19.301 -23.431,46.21 -18.815,71.142 l 0,0 c 4.341,23.447 18.996,45.036 39.804,56.681 l 0,0 c 20.807,11.646 47.481,12.699 68.623,1.672 l 0,0 c 21.141,-11.029 35.712,-34.184 35.362,-58.026 l 0,0 C 510.325,292.31 494.456,269.141 471.96,261.234 l 0,0 c -13.249,-4.656 -28.749,-3.925 -40.478,3.797 l 0,0 c -11.73,7.722 -18.663,22.934 -14.915,36.468 l 0,0 c 3.747,13.534 19.144,23.259 32.574,19.157 l 0,0 c 5.156,-1.575 9.602,-4.831 14.374,-7.339 l 0,0 c 6.352,-3.338 14.186,-5.411 20.41,0.205 l 0,0 c 2.347,2.118 3.891,5.052 4.393,8.173 l 0,0 c 1.651,10.257 -5.876,18.554 -14.739,21.821 l 0,0 c -6.84,2.522 -14.381,2.425 -21.601,1.414 l 0,0 c -23.699,-3.317 -46.283,-17.011 -58.038,-37.854 l 0,0 c -11.755,-20.844 -11.323,-48.644 3.051,-67.777 l 0,0 c 7.968,-10.606 19.481,-17.733 32.218,-21.388 l 0,0 c -16.769,4.192 -32.283,13.595 -43.509,26.773 m 146.6,21.019 c 0.248,0.358 0.494,0.716 0.739,1.075 l 0,0 c -2.1,-3.197 -4.324,-6.317 -6.684,-9.346 l 0,0 c -5.241,-6.727 -11.231,-12.977 -17.813,-18.49 l 0,0 c 9.023,7.8 16.985,16.98 23.758,26.761"
         id="path30"
         inkscape:connector-curvature="0" />
    </clipPath>
    <clipPath
       clipPathUnits="userSpaceOnUse"
       id="clipPath1428">
      <path
         d="m 0,1201.89 853.228,0 L 853.228,0 0,0 0,1201.89 Z"
         id="path1430"
         inkscape:connector-curvature="0" />
    </clipPath>
    <clipPath
       clipPathUnits="userSpaceOnUse"
       id="clipPath1436">
      <path
         d="m 153.069,874.507 547.722,0 0,-721.1 -547.722,0 0,721.1 z"
         id="path1438"
         inkscape:connector-curvature="0" />
    </clipPath>
    <radialGradient
       fx="0"
       fy="0"
       cx="0"
       cy="0"
       r="1"
       gradientUnits="userSpaceOnUse"
       gradientTransform="matrix(74.078758,0,0,-59.263008,239.82324,731.99097)"
       spreadMethod="pad"
       id="radialGradient1468">
      <stop
         style="stop-opacity:1;stop-color:#ffffff"
         offset="0"
         id="stop1470" />
      <stop
         style="stop-opacity:1;stop-color:#c4c3c3"
         offset="1"
         id="stop1472" />
    </radialGradient>
    <clipPath
       clipPathUnits="userSpaceOnUse"
       id="clipPath1480">
      <path
         d="m 0,1201.89 853.228,0 L 853.228,0 0,0 0,1201.89 Z"
         id="path1482"
         inkscape:connector-curvature="0" />
    </clipPath>
    <radialGradient
       fx="0"
       fy="0"
       cx="0"
       cy="0"
       r="1"
       gradientUnits="userSpaceOnUse"
       gradientTransform="matrix(74.078758,0,0,-59.263008,324.3374,727.64069)"
       spreadMethod="pad"
       id="radialGradient1516">
      <stop
         style="stop-opacity:1;stop-color:#ffffff"
         offset="0"
         id="stop1518" />
      <stop
         style="stop-opacity:1;stop-color:#c4c3c3"
         offset="1"
         id="stop1520" />
    </radialGradient>
    <clipPath
       clipPathUnits="userSpaceOnUse"
       id="clipPath1528">
      <path
         d="m 0,1201.89 853.228,0 L 853.228,0 0,0 0,1201.89 Z"
         id="path1530"
         inkscape:connector-curvature="0" />
    </clipPath>
    <clipPath
       clipPathUnits="userSpaceOnUse"
       id="clipPath1560">
      <path
         d="m 529.474,574.673 c 6.87,-7.702 13.741,-15.405 20.611,-23.107 l 0,0 c 2.925,-3.279 6.035,-7.149 6.026,-11.402 l 0,0 c -10e-4,-0.461 -0.038,-0.925 -0.116,-1.394 l 0,0 c -0.679,-4.076 -4.235,-6.974 -7.641,-9.312 l 0,0 c -8.134,-5.582 -16.812,-10.954 -24.245,-17.441 l 0,0 c -3.348,-2.922 -15.688,-9.847 -17.856,-11.768 l 0,0 c -10.514,-9.322 -29.698,-8.23 -43.695,-6.992 l 0,0 c -2.978,0.263 -6.376,0.501 -8.544,-1.558 l 0,0 c -1.461,-1.388 -1.959,-3.483 -2.345,-5.461 l 0,0 c -0.541,-2.777 -0.961,-5.706 -0.964,-8.569 l 0,0 c -0.005,-3.924 0.773,-7.721 3.093,-10.826 l 0,0 c 5.5,-7.361 17.621,-6.775 24.515,-0.701 l 0,0 c 3.855,3.397 7.098,8.39 12.216,8.854 l 0,0 c 5.187,0.469 9.462,-4.158 11.606,-8.906 l 0,0 c 2.145,-4.748 3.149,-10.106 6.358,-14.211 l 0,0 c 6.392,-8.178 21.134,-7.2 26.389,1.752 l 0,0 c 1.293,2.202 1.885,4.672 1.889,7.167 l 0,0 c 0.013,7.643 -5.488,15.526 -13.22,16.729 l 0,0 c -0.999,1.438 -1.44,3.117 -1.442,4.842 l 0,0 c -0.002,2.689 1.063,5.487 2.742,7.64 l 0,0 c 2.755,3.534 6.807,5.762 10.671,8.029 l 0,0 c 15.893,9.322 30.475,20.875 43.186,34.214 l 0,0 c 2.132,2.238 4.348,4.93 4.35,7.937 l 0,0 c 0,0.269 -0.017,0.54 -0.054,0.814 l 0,0 c -0.28,2.082 -1.645,3.833 -2.959,5.471 l 0,0 c -9.167,11.424 -18.333,22.849 -27.5,34.273 l 0,0 -23.071,-6.074 z"
         id="path1562"
         inkscape:connector-curvature="0" />
    </clipPath>
    <clipPath
       clipPathUnits="userSpaceOnUse"
       id="clipPath1646">
      <path
         d="m 0,1201.89 853.228,0 L 853.228,0 0,0 0,1201.89 Z"
         id="path1648"
         inkscape:connector-curvature="0" />
    </clipPath>
    <clipPath
       clipPathUnits="userSpaceOnUse"
       id="clipPath1658">
      <path
         d="m 444.813,571.047 c 6.832,-7.66 13.665,-15.32 20.499,-22.979 l 0,0 c 3.241,-3.634 6.709,-7.994 5.908,-12.797 l 0,0 c -0.056,-0.338 -0.132,-0.668 -0.226,-0.99 l 0,0 c -0.987,-3.65 -4.29,-6.315 -7.463,-8.492 l 0,0 c -8.135,-5.582 -16.812,-10.954 -24.246,-17.441 l 0,0 c -3.348,-2.922 -15.687,-9.846 -17.855,-11.769 l 0,0 c -10.514,-9.321 -29.699,-8.229 -43.695,-6.992 l 0,0 c -2.979,0.264 -6.375,0.503 -8.543,-1.557 l 0,0 c -0.945,-0.898 -1.487,-2.091 -1.857,-3.358 l 0,0 c -0.178,-0.638 -0.315,-1.291 -0.44,-1.933 l 0,0 c -1.283,-6.581 -1.885,-14.024 2.129,-19.396 l 0,0 c 5.499,-7.36 17.621,-6.774 24.514,-0.7 l 0,0 c 3.856,3.397 7.099,8.391 12.216,8.854 l 0,0 c 5.189,0.47 9.464,-4.158 11.607,-8.906 l 0,0 c 2.144,-4.747 3.15,-10.106 6.357,-14.211 l 0,0 c 6.393,-8.177 21.135,-7.199 26.39,1.752 l 0,0 c 0.57,0.971 1.003,1.993 1.311,3.046 l 0,0 c 2.398,8.633 -3.607,19.267 -12.691,20.68 l 0,0 c -1.621,2.332 -1.772,5.302 -0.964,8.064 l 0,0 c 0.46,1.658 1.268,3.248 2.313,4.588 l 0,0 c 2.754,3.534 6.806,5.762 10.671,8.029 l 0,0 c 15.893,9.322 30.475,20.875 43.186,34.215 l 0,0 c 1.669,1.751 3.39,3.782 4.06,6.024 l 0,0 c 0.225,0.825 0.306,1.678 0.187,2.556 l 0,0 c -0.279,2.082 -1.644,3.832 -2.959,5.47 l 0,0 c -9.166,11.425 -18.334,22.85 -27.5,34.274 l 0,0 -22.909,-6.031 z"
         id="path1660"
         inkscape:connector-curvature="0" />
    </clipPath>
  </defs>
  <sodipodi:namedview
     id="base"
     pagecolor="#ffffff"
     bordercolor="#666666"
     borderopacity="1.0"
     inkscape:pageopacity="0"
     inkscape:pageshadow="2"
     inkscape:zoom="0.23022283"
     inkscape:cx="601.59106"
     inkscape:cy="1322.6316"
     inkscape:document-units="px"
     inkscape:current-layer="layer3"
     showgrid="false"
     units="px"
     inkscape:window-width="1870"
     inkscape:window-height="1016"
     inkscape:window-x="0"
     inkscape:window-y="0"
     inkscape:window-maximized="1"
     showguides="true"
     inkscape:guide-bbox="true"
     inkscape:snap-global="false"
     inkscape:pagecheckerboard="0">
    <sodipodi:guide
       position="79.389313,583.96947"
       orientation="1,0"
       id="guide5258"
       inkscape:locked="false" />
    <sodipodi:guide
       position="752.5,175"
       orientation="0,1"
       id="guide5684"
       inkscape:locked="false" />
    <sodipodi:guide
       position="622.14288,33.487991"
       orientation="0,1"
       id="guide5686"
       inkscape:locked="false" />
    <sodipodi:guide
       position="512,936"
       orientation="0,1"
       id="guide5806"
       inkscape:locked="false" />
    <sodipodi:guide
       position="1852.7369,1139.6332"
       orientation="1,0"
       id="guide5827"
       inkscape:locked="false" />
  </sodipodi:namedview>
  <metadata
     id="metadata7">
    <rdf:RDF>
      <cc:Work
         rdf:about="">
        <dc:format>image/svg+xml</dc:format>
        <dc:type
           rdf:resource="http://purl.org/dc/dcmitype/StillImage" />
      </cc:Work>
    </rdf:RDF>
  </metadata>
  <g
     inkscape:groupmode="layer"
     id="layer2"
     inkscape:label="Background">
    <rect
       style="fill:#000000;fill-opacity:1;fill-rule:nonzero;stroke:none"
       id="rect3797"
       width="1920"
       height="1080"
       x="0"
       y="0" />
  </g>
  <g
     inkscape:groupmode="layer"
     id="layer3"
     inkscape:label="Text"
     style="display:inline">
    <g
       id="all"
       inkscape:label="#all">
      <g
         id="g3984"
         transform="translate(-3.663589,-7.2407)">
        <path
           style="fill:#eeee23;fill-opacity:1;fill-rule:nonzero;stroke:none;stroke-width:3.41408"
           d="m 212.06547,284.45341 h -17.60391 v -35.20783 h -52.81173 v 35.20783 h -17.60392 v -83.6319 h 17.60392 v 30.82016 h 52.81173 v -30.82016 h 17.60391 z m 0,0"
           id="path11" />
        <path
           style="fill:#eeee23;fill-opacity:1;fill-rule:nonzero;stroke:none;stroke-width:3.41408"
           d="m 229.66938,200.82151 h 88.01954 v 83.6319 H 300.08501 V 249.24558 H 247.2733 v 35.20783 h -17.60392 v -83.6319 m 17.60392,30.82016 h 52.81171 V 218.43876 H 247.2733 Z m 0,0"
           id="path13" />
        <path
           style="fill:#eeee23;fill-opacity:1;fill-rule:nonzero;stroke:none;stroke-width:3.41408"
           d="m 352.89674,218.43876 v 48.41073 h 70.42902 v 17.60392 h -88.03293 v -83.6319 h 88.03293 v 17.61725 z m 0,0"
           id="path15" />
        <path
           style="fill:#eeee23;fill-opacity:1;fill-rule:nonzero;stroke:none;stroke-width:3.41408"
           d="m 499.90275,240.88376 29.04658,43.56965 H 508.0379 l -23.43189,-35.20783 h -26.07243 v 35.20783 h -17.60391 v -83.61856 h 17.60391 v 30.79351 h 27.05932 l 22.445,-30.79351 h 20.91143 z m 0,0"
           id="path17" />
        <path
           style="fill:#eeee23;fill-opacity:1;fill-rule:nonzero;stroke:none;stroke-width:3.41408"
           d="m 564.15715,249.24558 v 17.60391 h 70.41565 v 17.60392 h -88.01956 v -83.61856 h 88.01956 v 17.60391 h -70.41565 v 13.20291 h 70.41565 v 17.60391 z m 0,0"
           id="path19" />
        <path
           style="fill:#eeee23;fill-opacity:1;fill-rule:nonzero;stroke:none;stroke-width:3.41408"
           d="M 740.19602,249.24558 H 722.5921 l 17.60392,35.20783 h -20.89783 l -17.60391,-35.20783 h -31.91366 v 35.20783 h -17.60391 v -83.61856 h 88.01931 v 48.41073 m -70.4154,-17.60391 h 52.81148 v -13.20291 h -52.81148 z m 0,0"
           id="path21" />
        <path
           style="fill:#eeee23;fill-opacity:1;fill-rule:nonzero;stroke:none;stroke-width:3.41408"
           d="m 145.70405,191.07266 c 0,-3.04065 2.46724,-5.49452 5.50789,-5.49452 3.02733,0 5.49457,2.45387 5.49457,5.49452 0,3.0407 -2.46724,5.50788 -5.49457,5.50788 -3.04065,0 -5.50789,-2.46718 -5.50789,-5.50788"
           id="path23" />
        <path
           style="fill:#eeee23;fill-opacity:1;fill-rule:nonzero;stroke:none;stroke-width:3.41408"
           d="m 103.65469,269.93019 c 0,-3.04067 2.46724,-5.50788 5.49458,-5.50788 3.04065,0 5.50788,2.46721 5.50788,5.50788 0,3.04068 -2.46723,5.49455 -5.50788,5.49455 -3.02734,0 -5.49458,-2.45387 -5.49458,-5.49455"
           id="path25" />
        <path
           style="fill:#eeee23;fill-opacity:1;fill-rule:nonzero;stroke:none;stroke-width:3.41408"
           d="m 155.18615,271.75726 c 0,-3.04068 2.45387,-5.49455 5.49457,-5.49455 3.04065,0 5.50788,2.45387 5.50788,5.49455 0,3.04068 -2.46723,5.50791 -5.50788,5.50791 -3.0407,0 -5.49457,-2.46723 -5.49457,-5.50791"
           id="path27" />
        <path
           style="fill:#eeee23;fill-opacity:1;fill-rule:nonzero;stroke:none;stroke-width:3.41408"
           d="m 205.61069,302.93754 c 0,-3.0407 2.46721,-5.50789 5.50791,-5.50789 3.02731,0 5.49455,2.46719 5.49455,5.50789 0,3.04065 -2.46724,5.49452 -5.49455,5.49452 -3.0407,0 -5.50791,-2.45387 -5.50791,-5.49452"
           id="path29" />
        <path
           style="fill:#eeee23;fill-opacity:1;fill-rule:nonzero;stroke:none;stroke-width:3.41408"
           d="m 269.79831,268.08981 c 0,-3.0407 2.45387,-5.49457 5.49452,-5.49457 3.04071,0 5.50789,2.45387 5.50789,5.49457 0,3.04065 -2.46718,5.50788 -5.50789,5.50788 -3.04065,0 -5.49452,-2.46723 -5.49452,-5.50788"
           id="path31" />
        <path
           style="fill:#eeee23;fill-opacity:1;fill-rule:nonzero;stroke:none;stroke-width:3.41408"
           d="m 196.4353,172.73527 c 0,-3.0407 2.46723,-5.49457 5.50794,-5.49457 3.04065,0 5.50788,2.45387 5.50788,5.49457 0,3.04065 -2.46723,5.49454 -5.50788,5.49454 -3.04071,0 -5.50794,-2.45389 -5.50794,-5.49454"
           id="path33" />
        <path
           style="fill:#eeee23;fill-opacity:1;fill-rule:nonzero;stroke:none;stroke-width:3.41408"
           d="m 304.63268,172.73527 c 0,-3.0407 2.46724,-5.49457 5.50789,-5.49457 3.0407,0 5.49457,2.45387 5.49457,5.49457 0,3.04065 -2.45387,5.49454 -5.49457,5.49454 -3.04065,0 -5.50789,-2.45389 -5.50789,-5.49454"
           id="path35" />
        <path
           style="fill:#eeee23;fill-opacity:1;fill-rule:nonzero;stroke:none;stroke-width:3.41408"
           d="m 744.75716,262.90194 c 0,-3.04065 2.46711,-5.50788 5.49447,-5.50788 3.04067,0 5.50804,2.46723 5.50804,5.50788 0,3.02736 -2.46737,5.49457 -5.50804,5.49457 -3.02736,0 -5.49447,-2.46721 -5.49447,-5.49457"
           id="path37" />
        <path
           style="fill:#eeee23;fill-opacity:1;fill-rule:nonzero;stroke:none;stroke-width:3.41408"
           d="m 321.14302,295.60256 c 0,-3.0407 2.46721,-5.50789 5.49455,-5.50789 3.0407,0 5.50789,2.46719 5.50789,5.50789 0,3.04065 -2.46719,5.49454 -5.50789,5.49454 -3.02734,0 -5.49455,-2.45389 -5.49455,-5.49454"
           id="path39" />
        <path
           style="fill:#eeee23;fill-opacity:1;fill-rule:nonzero;stroke:none;stroke-width:3.41408"
           d="m 532.02995,295.90929 c 0,-3.04068 2.46711,-5.50789 5.50778,-5.50789 3.04068,0 5.49473,2.46721 5.49473,5.50789 0,3.04068 -2.45405,5.49457 -5.49473,5.49457 -3.04067,0 -5.50778,-2.45389 -5.50778,-5.49457"
           id="path41" />
        <path
           style="fill:#eeee23;fill-opacity:1;fill-rule:nonzero;stroke:none;stroke-width:3.41408"
           d="m 466.0152,306.91175 c 0,-3.0407 2.4539,-5.50789 5.50789,-5.50789 3.02736,0 5.49457,2.46719 5.49457,5.50789 0,3.04065 -2.46721,5.49452 -5.49457,5.49452 -3.05399,0 -5.50789,-2.45387 -5.50789,-5.49452"
           id="path43" />
        <path
           style="fill:#eeee23;fill-opacity:1;fill-rule:nonzero;stroke:none;stroke-width:3.41408"
           d="m 468.76249,205.74262 c 0,-3.04071 2.46724,-5.49458 5.50789,-5.49458 3.02736,0 5.49457,2.45387 5.49457,5.49458 0,3.04065 -2.46721,5.49452 -5.49457,5.49452 -3.04065,0 -5.50789,-2.45387 -5.50789,-5.49452"
           id="path45" />
        <path
           style="fill:#eeee23;fill-opacity:1;fill-rule:nonzero;stroke:none;stroke-width:3.41408"
           d="m 590.70949,189.53898 c 0,-3.02734 2.46736,-5.49452 5.50804,-5.49452 3.04067,0 5.50778,2.45387 5.50778,5.49452 0,3.0407 -2.46711,5.50788 -5.50778,5.50788 -3.04068,0 -5.50804,-2.46718 -5.50804,-5.50788"
           id="path47" />
        <path
           style="fill:#eeee23;fill-opacity:1;fill-rule:nonzero;stroke:none;stroke-width:3.41408"
           d="m 559.54275,173.042 c 0,-3.04068 2.4538,-5.50789 5.49447,-5.50789 3.04068,0 5.50778,2.46721 5.50778,5.50789 0,3.04067 -2.4671,5.49457 -5.50778,5.49457 -3.04067,0 -5.49447,-2.4539 -5.49447,-5.49457"
           id="path49" />
        <path
           style="fill:#eeee23;fill-opacity:1;fill-rule:nonzero;stroke:none;stroke-width:3.41408"
           d="m 711.74989,184.04446 c 0,-3.0407 2.45379,-5.49457 5.49447,-5.49457 3.04067,0 5.50778,2.45387 5.50778,5.49457 0,3.04065 -2.46711,5.49452 -5.50778,5.49452 -3.04068,0 -5.49447,-2.45387 -5.49447,-5.49452"
           id="path51" />
        <path
           style="fill:#eeee23;fill-opacity:1;fill-rule:nonzero;stroke:none;stroke-width:3.41408"
           d="m 390.82517,247.49856 c 0,-3.0407 2.46721,-5.50791 5.50791,-5.50791 3.02731,0 5.49455,2.46721 5.49455,5.50791 0,3.02731 -2.46724,5.49454 -5.49455,5.49454 -3.0407,0 -5.50791,-2.46723 -5.50791,-5.49454"
           id="path53" />
        <path
           style="fill:#eeee23;fill-opacity:1;fill-rule:nonzero;stroke:none;stroke-width:3.41408"
           d="m 365.1528,187.40518 c 0,-3.04065 2.46721,-5.49455 5.50789,-5.49455 3.02733,0 5.49457,2.4539 5.49457,5.49455 0,3.0407 -2.46724,5.49457 -5.49457,5.49457 -3.04068,0 -5.50789,-2.45387 -5.50789,-5.49457"
           id="path55" />
        <path
           style="fill:#eeee23;fill-opacity:1;fill-rule:nonzero;stroke:none;stroke-width:3.41408"
           d="m 83.663589,242.41739 c 0,-3.04065 2.467211,-5.49452 5.507912,-5.49452 3.02731,0 5.494546,2.45387 5.494546,5.49452 0,3.0407 -2.467236,5.50794 -5.494546,5.50794 -3.040701,0 -5.507912,-2.46724 -5.507912,-5.50794"
           id="path57" />
        <path
           style="fill:none;stroke:#eeee23;stroke-width:2.29086;stroke-linecap:butt;stroke-linejoin:miter;stroke-miterlimit:10;stroke-opacity:1"
           d="M 151.89208,190.91262 135.47512,173.042 h -25.21895 l -19.257626,16.80371 v 20.79131 l 18.337416,18.4841 v 40.19561"
           id="path59" />
        <path
           style="fill:none;stroke:#eeee23;stroke-width:2.29086;stroke-linecap:butt;stroke-linejoin:miter;stroke-miterlimit:10;stroke-opacity:1"
           d="m 89.171476,241.80393 v 44.00978 l 13.749744,13.76306 h 47.67726 l 10.08224,-13.89642 v -14.53658"
           id="path61" />
        <path
           style="fill:none;stroke:#eeee23;stroke-width:2.29086;stroke-linecap:butt;stroke-linejoin:miter;stroke-miterlimit:10;stroke-opacity:1"
           d="m 211.11857,303.24424 h 38.5019 l 13.74972,-13.14957 v -10.22896 l 9.48212,-9.93552"
           id="path63" />
        <path
           style="fill:none;stroke:#eeee23;stroke-width:2.29086;stroke-linecap:butt;stroke-linejoin:miter;stroke-miterlimit:10;stroke-opacity:1"
           d="m 201.94321,173.042 h 18.33741 l 14.36318,7.33495 h 42.48944 l 7.80175,7.33496 h 85.7257"
           id="path65" />
        <path
           style="fill:none;stroke:#eeee23;stroke-width:2.29086;stroke-linecap:butt;stroke-linejoin:miter;stroke-miterlimit:10;stroke-opacity:1"
           d="m 396.33306,248.23203 h 22.00489 l 11.90933,-13.76306 V 192.29963 L 410.2295,173.042 H 310.14059"
           id="path67" />
        <path
           style="fill:none;stroke:#eeee23;stroke-width:2.29086;stroke-linecap:butt;stroke-linejoin:miter;stroke-miterlimit:10;stroke-opacity:1"
           d="m 328.47798,295.90929 h 93.8342 l 6.72149,11.00246 h 42.48945"
           id="path69" />
        <path
           style="fill:none;stroke:#eeee23;stroke-width:2.29086;stroke-linecap:butt;stroke-linejoin:miter;stroke-miterlimit:10;stroke-opacity:1"
           d="m 537.53773,295.90929 h 104.52986 l 10.08224,11.00246 h 28.41975 l 10.24228,-11.00246 h 61.02681 l 11.06908,-5.96131 0.18692,-14.89665 -11.61602,-11.26919"
           id="path71" />
        <path
           style="fill:none;stroke:#eeee23;stroke-width:2.29086;stroke-linecap:butt;stroke-linejoin:miter;stroke-miterlimit:10;stroke-opacity:1"
           d="m 474.27038,205.12913 v -23.83196 l 12.68283,-8.25517 h 23.07177 l 22.00497,16.51034 h 60.52007"
           id="path73" />
        <path
           style="fill:none;stroke:#eeee23;stroke-width:2.29086;stroke-linecap:butt;stroke-linejoin:miter;stroke-miterlimit:10;stroke-opacity:1"
           d="m 568.70472,173.042 h 42.18256 l 10.389,11.00246 h 95.96808"
           id="path75" />
        <path
           style="fill:#eeee23;fill-opacity:1;fill-rule:nonzero;stroke:none;stroke-width:3.41408"
           d="m 624.10366,435.47364 h -17.67049 v -35.35452 h -53.05192 v 35.35452 h -17.67048 v -83.97867 h 17.67048 v 30.9402 h 53.05192 v -30.9402 h 17.67049 z m 0,0"
           id="path77" />
        <path
           style="fill:#eeee23;fill-opacity:1;fill-rule:nonzero;stroke:none;stroke-width:3.41408"
           d="m 730.19392,435.47364 h -88.4062 v -83.97867 h 88.4062 z m -70.7224,-17.67059 h 53.03834 V 369.1789 h -53.03834 z m 0,0"
           id="path79" />
        <path
           style="fill:#eeee23;fill-opacity:1;fill-rule:nonzero;stroke:none;stroke-width:3.41408"
           d="m 836.27087,369.1789 h -35.35455 v 66.29474 H 783.23227 V 369.1789 h -35.36786 v -17.68393 h 88.40646 z m 0,0"
           id="path81" />
        <path
           style="fill:#eeee23;fill-opacity:1;fill-rule:nonzero;stroke:none;stroke-width:3.41408"
           d="m 871.62541,400.11912 v 17.68393 h 70.72241 v 17.67059 h -88.39315 v -83.97867 h 88.39315 v 17.68393 h -70.72241 v 13.25627 h 70.72241 v 17.68395 z m 0,0"
           id="path83" />
        <path
           style="fill:#eeee23;fill-opacity:1;fill-rule:nonzero;stroke:none;stroke-width:3.41408"
           d="m 960.03162,435.47364 v -83.97867 h 17.68406 v 66.30808 h 70.72242 v 17.67059 z m 0,0"
           id="path85" />
        <path
           style="fill:#eeee23;fill-opacity:1;fill-rule:nonzero;stroke:none;stroke-width:3.41408"
           d="m 557.10202,342.01287 c 0,-3.05401 2.48068,-5.53454 5.52135,-5.53454 3.05399,0 5.53442,2.48053 5.53442,5.53454 0,3.04065 -2.48043,5.52123 -5.53442,5.52123 -3.04067,0 -5.52135,-2.48058 -5.52135,-5.52123"
           id="path87" />
        <path
           style="fill:#eeee23;fill-opacity:1;fill-rule:nonzero;stroke:none;stroke-width:3.41408"
           d="m 610.51395,327.27626 c 0,-3.05402 2.46736,-5.5212 5.52136,-5.5212 3.05399,0 5.52109,2.46718 5.52109,5.5212 0,3.05399 -2.4671,5.52123 -5.52109,5.52123 -3.054,0 -5.52136,-2.46724 -5.52136,-5.52123"
           id="path89" />
        <path
           style="fill:#eeee23;fill-opacity:1;fill-rule:nonzero;stroke:none;stroke-width:3.41408"
           d="m 811.26538,338.33203 c 0,-3.05399 2.4671,-5.53454 5.5211,-5.53454 3.05399,0 5.52109,2.48055 5.52109,5.53454 0,3.0407 -2.4671,5.52125 -5.52109,5.52125 -3.054,0 -5.5211,-2.48055 -5.5211,-5.52125"
           id="path91" />
        <path
           style="fill:#eeee23;fill-opacity:1;fill-rule:nonzero;stroke:none;stroke-width:3.41408"
           d="m 859.14264,327.27626 c 0,-3.05402 2.48042,-5.5212 5.5211,-5.5212 3.05399,0 5.52135,2.46718 5.52135,5.5212 0,3.05399 -2.46736,5.52123 -5.52135,5.52123 -3.04068,0 -5.5211,-2.46724 -5.5211,-5.52123"
           id="path93" />
        <path
           style="fill:#eeee23;fill-opacity:1;fill-rule:nonzero;stroke:none;stroke-width:3.41408"
           d="m 1015.684,377.00732 c 0,-3.05401 2.4805,-5.53456 5.5211,-5.53456 3.054,0 5.5347,2.48055 5.5347,5.53456 0,3.04065 -2.4673,5.52123 -5.5347,5.52123 -3.0406,0 -5.5211,-2.48058 -5.5211,-5.52123"
           id="path95" />
        <path
           style="fill:#eeee23;fill-opacity:1;fill-rule:nonzero;stroke:none;stroke-width:3.41408"
           d="m 513.21238,420.89706 c 0,-3.05399 2.46721,-5.52122 5.52123,-5.52122 3.05401,0 5.53449,2.46723 5.53449,5.52122 0,3.05402 -2.48048,5.52126 -5.53449,5.52126 -3.05402,0 -5.52123,-2.46724 -5.52123,-5.52126"
           id="path97" />
        <path
           style="fill:#eeee23;fill-opacity:1;fill-rule:nonzero;stroke:none;stroke-width:3.41408"
           d="m 588.72248,422.73747 c 0,-3.05401 2.48043,-5.52122 5.52136,-5.52122 3.05399,0 5.5211,2.46721 5.5211,5.52122 0,3.05402 -2.46711,5.52123 -5.5211,5.52123 -3.04093,0 -5.52136,-2.46721 -5.52136,-5.52123"
           id="path99" />
        <path
           style="fill:#eeee23;fill-opacity:1;fill-rule:nonzero;stroke:none;stroke-width:3.41408"
           d="m 611.74098,454.35784 c 0,-3.05402 2.48042,-5.53454 5.52109,-5.53454 3.05399,0 5.52136,2.48052 5.52136,5.53454 0,3.04065 -2.46737,5.52122 -5.52136,5.52122 -3.04067,0 -5.52109,-2.48057 -5.52109,-5.52122"
           id="path101" />
        <path
           style="fill:#eeee23;fill-opacity:1;fill-rule:nonzero;stroke:none;stroke-width:3.41408"
           d="m 709.34935,446.98286 c 0,-3.05402 2.48043,-5.5212 5.5211,-5.5212 3.05399,0 5.53467,2.46718 5.53467,5.5212 0,3.05399 -2.48068,5.53457 -5.53467,5.53457 -3.04067,0 -5.5211,-2.48058 -5.5211,-5.53457"
           id="path103" />
        <path
           style="fill:#eeee23;fill-opacity:1;fill-rule:nonzero;stroke:none;stroke-width:3.41408"
           d="m 492.95454,393.26427 c 0,-3.0407 2.46721,-5.52125 5.5212,-5.52125 3.05404,0 5.52125,2.48055 5.52125,5.52125 0,3.05399 -2.46721,5.53455 -5.52125,5.53455 -3.05399,0 -5.5212,-2.48056 -5.5212,-5.53455"
           id="path105" />
        <path
           style="fill:none;stroke:#eeee23;stroke-width:2.3011;stroke-linecap:butt;stroke-linejoin:miter;stroke-miterlimit:10;stroke-opacity:1"
           d="M 561.47649,341.54611 544.97952,323.59544 H 519.6538 l -19.33762,16.87041 v 20.88464 l 18.41743,18.56413 v 40.36898"
           id="path107" />
        <path
           style="fill:none;stroke:#eeee23;stroke-width:2.3011;stroke-linecap:butt;stroke-linejoin:miter;stroke-miterlimit:10;stroke-opacity:1"
           d="m 498.47577,392.65079 v 44.20983 l 13.81639,13.80306 h 71.81592 l 10.1355,-13.94978 v -14.58991"
           id="path109" />
        <path
           style="fill:#eeee23;fill-opacity:1;fill-rule:nonzero;stroke:none;stroke-width:3.41408"
           d="m 985.61068,461.71947 c 0,3.05402 -2.48068,5.52123 -5.53467,5.52123 -3.04068,0 -5.5211,-2.46721 -5.5211,-5.52123 0,-3.05401 2.48042,-5.52122 5.5211,-5.52122 3.05399,0 5.53467,2.46721 5.53467,5.52122"
           id="path111" />
        <path
           style="fill:#eeee23;fill-opacity:1;fill-rule:nonzero;stroke:none;stroke-width:3.41408"
           d="m 1011.3897,446.98286 c 0,3.05399 -2.4807,5.53457 -5.5211,5.53457 -3.0542,0 -5.5213,-2.48058 -5.5213,-5.53457 0,-3.05402 2.4671,-5.5212 5.5213,-5.5212 3.0404,0 5.5211,2.46718 5.5211,5.5212"
           id="path113" />
        <path
           style="fill:#eeee23;fill-opacity:1;fill-rule:nonzero;stroke:none;stroke-width:3.41408"
           d="m 1050.0651,338.33203 c 0,3.0407 -2.4807,5.52125 -5.5214,5.52125 -3.054,0 -5.5211,-2.48055 -5.5211,-5.52125 0,-3.05399 2.4671,-5.53454 5.5211,-5.53454 3.0407,0 5.5214,2.48055 5.5214,5.53454"
           id="path115" />
        <path
           style="fill:#eeee23;fill-opacity:1;fill-rule:nonzero;stroke:none;stroke-width:3.41408"
           d="m 687.25113,461.71947 c 0,3.05402 -2.48068,5.52123 -5.52135,5.52123 -3.05399,0 -5.53442,-2.46721 -5.53442,-5.52123 0,-3.05401 2.48043,-5.52122 5.53442,-5.52122 3.04067,0 5.52135,2.46721 5.52135,5.52122"
           id="path117" />
        <path
           style="fill:#eeee23;fill-opacity:1;fill-rule:nonzero;stroke:none;stroke-width:3.41408"
           d="m 770.12267,385.90264 c 0,3.05399 -2.46711,5.52122 -5.5211,5.52122 -3.05399,0 -5.52136,-2.46723 -5.52136,-5.52122 0,-3.05402 2.46737,-5.52125 5.52136,-5.52125 3.05399,0 5.5211,2.46723 5.5211,5.52125"
           id="path119" />
        <path
           style="fill:#eeee23;fill-opacity:1;fill-rule:nonzero;stroke:none;stroke-width:3.41408"
           d="m 804.19693,454.05111 c 0,3.04067 -2.46711,5.5212 -5.5211,5.5212 -3.05399,0 -5.52136,-2.48053 -5.52136,-5.5212 0,-3.05405 2.46737,-5.53457 5.52136,-5.53457 3.05399,0 5.5211,2.48052 5.5211,5.53457"
           id="path121" />
        <path
           style="fill:none;stroke:#eeee23;stroke-width:2.3011;stroke-linecap:butt;stroke-linejoin:miter;stroke-miterlimit:10;stroke-opacity:1"
           d="m 980.07601,461.71947 h -34.98096 l -8.89541,-7.36163 h -42.67598 l -7.82843,-5.5346 h -36.38159 l -9.81543,11.0558 h -18.4174 l -7.6684,-5.82796 -11.6027,-0.61343"
           id="path123" />
        <path
           style="fill:none;stroke:#eeee23;stroke-width:2.3011;stroke-linecap:butt;stroke-linejoin:miter;stroke-miterlimit:10;stroke-opacity:1"
           d="m 762.76103,387.90306 -9.82874,7.44165 0.31981,20.13783 9.50893,8.69523 -0.22789,24.21873 -6.37454,13.32297 h -74.42985"
           id="path125" />
        <path
           style="fill:none;stroke:#eeee23;stroke-width:2.3011;stroke-linecap:butt;stroke-linejoin:miter;stroke-miterlimit:10;stroke-opacity:1"
           d="m 615.42179,327.27626 h 38.67509 l 12.89631,11.04245 H 818.0135"
           id="path127" />
        <path
           style="fill:none;stroke:#eeee23;stroke-width:2.3011;stroke-linecap:butt;stroke-linejoin:miter;stroke-miterlimit:10;stroke-opacity:1"
           d="m 1005.8686,446.98286 h 46.0367 l 8.2953,-13.34963 v -77.81728 l -15.9368,-17.76397"
           id="path129" />
        <path
           style="fill:none;stroke:#eeee23;stroke-width:2.3011;stroke-linecap:butt;stroke-linejoin:miter;stroke-miterlimit:10;stroke-opacity:1"
           d="M 1022.0186,377.71414 988.07779,343.85328 H 922.98351 L 906.60637,327.27626 H 867.74436"
           id="path131" />
        <path
           style="fill:none;stroke:#eeee23;stroke-width:2.3011;stroke-linecap:butt;stroke-linejoin:miter;stroke-miterlimit:10;stroke-opacity:1"
           d="m 617.26207,454.35784 h 34.99453 l 13.50956,-7.37498 h 47.26401"
           id="path133" />
      </g>
      <text
         xml:space="preserve"
         style="font-style:normal;font-variant:normal;font-weight:normal;font-stretch:normal;font-size:39.0202px;line-height:0%;font-family:'Open Sans Pro';-inkscape-font-specification:'Open Sans Pro';letter-spacing:0px;word-spacing:0px;fill:#eeee23;fill-opacity:1;stroke:none;stroke-width:3.25169px;stroke-linecap:butt;stroke-linejoin:miter;stroke-opacity:1"
         x="1213.1715"
         y="382.26883"
         id="text5802"><tspan
           sodipodi:role="line"
           id="tspan5804"
           x="1213.1715"
           y="382.26883"
           style="font-style:normal;font-variant:normal;font-weight:bold;font-stretch:normal;font-size:227.618px;line-height:1.25;font-family:'Source Sans Pro';-inkscape-font-specification:'Source Sans Pro Bold';fill:#eeee23;fill-opacity:1;stroke-width:3.25169px">2024</tspan></text>
      <text
         xml:space="preserve"
         style="font-style:normal;font-variant:normal;font-weight:normal;font-stretch:normal;font-size:85.3333px;line-height:0%;font-family:'Open Sans Pro';-inkscape-font-specification:'Open Sans Pro';letter-spacing:0px;word-spacing:0px;display:inline;fill:#eeee23;fill-opacity:1;stroke:none;stroke-width:3.25169px;stroke-linecap:butt;stroke-linejoin:miter;stroke-opacity:1"
         x="543.95203"
         y="558.56561"
         id="text5802-7"><tspan
           sodipodi:role="line"
           id="tspan5804-5"
           x="543.95203"
           y="558.56561"
           style="font-style:normal;font-variant:normal;font-weight:bold;font-stretch:normal;font-size:85.3333px;line-height:1.25;font-family:'Source Sans Pro';-inkscape-font-specification:'Source Sans Pro Bold';fill:#eeee23;fill-opacity:1;stroke-width:3.25169px">was brought to you by</tspan></text>
      <rect
         style="fill:#eeee23;fill-opacity:1;fill-rule:nonzero;stroke:none;stroke-width:0.6;stroke-linecap:butt;stroke-linejoin:miter;stroke-miterlimit:4;stroke-dasharray:none;stroke-dashoffset:0;stroke-opacity:1"
         id="line"
         width="1325.7142"
         height="3"
         x="297.5"
         y="888.88116" />
      <text
         xml:space="preserve"
         style="font-style:normal;font-variant:normal;font-weight:normal;font-stretch:normal;line-height:0%;font-family:'Courier 10 Pitch';-inkscape-font-specification:'Courier 10 Pitch';text-align:center;letter-spacing:0px;word-spacing:0px;text-anchor:middle;fill:#eeee23;fill-opacity:1;stroke:none"
         x="991.40881"
         y="967.91754"
         id="text"><tspan
           sodipodi:role="line"
           id="tspan3895"
           x="991.40881"
           y="967.91754"
           style="font-style:normal;font-variant:normal;font-weight:300;font-stretch:normal;font-size:45px;line-height:125%;font-family:'Source Sans Pro';-inkscape-font-specification:'Source Sans Pro Light';text-align:center;writing-mode:lr-tb;text-anchor:middle;fill:#eeee23;fill-opacity:1">More Recordings available on media.ccc.de</tspan></text>
      <g
         id="g3899"
         transform="matrix(0.53175479,0,0,0.53175479,785.99,614.11912)"
         style="fill:#eeee23;fill-opacity:1">
        <path
           id="path3901"
           d="m 294.407,7.95792 c 6.213,1.027 19.117,20.42198 17.554,56.04198 -4.3,2.287 -9.289,0.945 -12.547,0.894 -10.184,-2.682 -0.678,-29.555 -14.953,-39.546 C 263.79,10.8809 119.447,14.4069 45.5808,21.1209 13.592,24.0289 17.478,87.0639 16.8569,120.43 c -0.5169,27.768 0.4448,58.119 11.4189,88.93 9.4468,26.524 44.2989,17.409 75.9712,18.571 56.978,0 160.981,1.883 173.53,-3.125 9.092,-3.629 12.796,-16.972 14.709,-25.575 3.351,-15.069 -0.168,-25.607 11.822,-25.324 6.313,0.149 7.555,5.857 6.592,16.772 -1.001,11.346 -4.393,26.441 -9.128,44.005 -3.421,12.688 -27.012,10.129 -42.628,10.129 C 180.218,242.704 100.45,245.236 24.0554,243.125 1.9155,242.514 1.46946,137.911 0.285625,118.923 -1.10525,96.6069 2.51438,7.01993 21.3615,6.01993 35.3674,5.27692 113.628,0.0309143 159.959,0.0189209 205.016,0.00692749 252.988,1.11093 294.407,7.95792"
           style="fill:#eeee23;fill-opacity:1;stroke:none"
           inkscape:connector-curvature="0" />
        <path
           id="path3903"
           d="m 223.69,24.0759 c 5.487,15.616 -8.019,40.096 12.24,48.537 73.438,12.662 159.117,-14.772 221.582,23.635 16.882,16.4601 29.544,35.4531 37.563,55.7121 v -9.285 c -9.285,-25.746 -28.278,-47.6931 -46.427,-70.0621 5.065,-6.753 10.974,1.266 16.038,3.376 18.571,23.213 37.563,46.8491 44.739,74.7051 1.265,1.688 3.798,5.065 5.908,2.11 l 2.955,-2.954 c -6.331,-29.966 -25.324,-54.4461 -41.362,-80.1921 7.175,-4.643 14.35,3.377 20.259,8.019 12.24,20.259 25.746,40.5181 30.388,64.1531 3.376,2.532 7.597,-2.11 9.285,-5.065 -2.532,-18.571 -8.864,-35.031 -16.461,-50.6471 1.266,-2.11 1.266,-5.065 4.221,-5.065 18.149,9.707 17.727,30.8111 24.057,47.2711 5.909,-0.422 8.863,-18.993 16.46,-8.019 2.532,6.753 -10.129,17.305 2.955,18.149 -6.331,30.388 -39.674,54.024 -68.796,60.777 -15.194,3.376 -35.453,8.018 -46.849,-3.798 2.11,-5.487 9.707,-6.331 15.194,-7.175 33.765,-1.266 65.842,-13.506 86.101,-40.518 l -0.844,-0.844 c -32.077,21.525 -71.75,42.206 -111.424,26.168 -3.376,-0.844 -5.065,-5.487 -2.954,-8.019 0.844,-2.532 -1.688,-3.798 -2.955,-4.221 -67.108,2.954 -137.596,-6.324 -202.593,4.227 -7.13,1.158 -7.934,7.746 -9.284,13.082 -3.414,13.511 5.21,32.647 -2.824,39.846 0,0 -5.936,1.741 -10.256,-0.177 -1.011,-5.609 -4.227,-37.144 2.948,-54.026 9.077,-21.357 89.954,-14.153 113.334,-14.626 42.722,-0.863 92.638,-2.254 132.734,0.701 -11.396,-11.396 -29.122,-11.818 -46.427,-11.396 -54.868,-0.844 -140.604,-0.559 -175.376,-2.466 -51.431,-2.822 -69.842,48.893 -102.341,82.658 h -15.194 c 20.259,-28.277 42.097,-60.522 70.062,-85.256 4.509,-3.988 7.645,-4.615 15.194,-6.752 21.025,-5.953 224.959,0.844 224.959,0.844 9.285,2.11 19.415,3.376 28.278,7.174 -5.065,-13.084 -21.525,-16.46 -34.609,-18.147 -73.017,-2.11 -146.877,-0.422 -218.628,-5.065 -19.415,-5.909 -29.544,-29.9661 -44.739,-44.7391 l -32.499,-41.362 16.46,0.844 c 21.103,24.479 35.575,54.506 62.887,73.8601 6.02,4.266 134.602,3.027 202.584,2.954 10.96,-0.012 33.77,7.175 48.542,15.195 2.532,-3.376 -1.688,-6.331 -4.221,-8.863 -30.811,-29.5441 -94.362,-20.3431 -117.328,-20.2641 -40.285,0.14 -88.233,8.522 -121.559,-12.235 -8.141,-5.071 -6.752,-35.875 -2.953,-52.758 h 10.973"
           style="fill:#eeee23;fill-opacity:1;stroke:none"
           inkscape:connector-curvature="0" />
        <path
           id="path3905"
           d="m 575.267,153.649 c -7.175,30.389 -29.544,57.822 -57.823,73.017 -17.727,3.799 -40.518,15.616 -54.868,-2.11 9.708,-8.863 27.434,-2.954 38.83,-10.13 29.544,-8.441 53.858,-34.474 68.796,-60.777 1.91,-1.321 3.195,-2.823 5.065,0"
           style="fill:#eeee23;fill-opacity:1;stroke:none"
           inkscape:connector-curvature="0" />
        <path
           id="path3907"
           d="m 584.142,179.84 c -5.065,26.168 -17.727,53.602 -44.739,66.686 -11.818,5.487 -30.388,11.818 -41.362,2.11 v -4.221 c 41.784,1.688 62.887,-42.206 79.77,-71.75 4.643,-0.422 5.065,3.798 6.331,7.175"
           style="fill:#eeee23;fill-opacity:1;stroke:none"
           inkscape:connector-curvature="0" />
        <path
           id="path3909"
           d="m 611.567,280.265 c 19.879,4.224 39.249,-15.615 43.47,10.131 -16.883,8.863 -39.674,6.331 -57.4,1.266 -3.799,7.597 1.688,16.038 0,25.324 -2.532,24.902 -11.818,48.537 -33.765,63.731 -6.357,3.3 -7.677,5.247 -11.431,5.909 1.138,-5.702 1.527,-10.353 2.5,-13.899 4.346,-2.92 23.503,-15.22 24.125,-31.684 9.707,-34.609 -0.844,-68.796 -24.058,-94.12 l 15.194,-13.928 c 8.863,17.726 18.896,42.495 41.364,47.269"
           style="fill:#eeee23;fill-opacity:1;stroke:none"
           inkscape:connector-curvature="0" />
        <path
           id="path3911"
           d="m 542.769,257.054 c 24.479,47.271 1.688,102.561 -4.221,151.098 2.532,18.149 5.065,36.719 20.259,49.381 -1.688,4.221 0.844,14.772 -5.909,12.24 -21.525,-11.396 -28.7,-34.187 -28.278,-57.822 -0.844,-41.784 21.525,-75.127 16.038,-117.333 L 536.86,286.6 c -17.305,18.57 -36.719,41.784 -35.453,70.905 l -11.396,2.11 c -12.662,-40.518 31.655,-63.743 37.564,-100.04 0,0 9.707,-3.786 15.194,-2.521"
           style="fill:#eeee23;fill-opacity:1;stroke:none"
           inkscape:connector-curvature="0" />
      </g>
      <text
         xml:space="preserve"
         style="font-style:normal;font-variant:normal;font-weight:normal;font-stretch:normal;font-size:8.35942px;line-height:0%;font-family:'Courier 10 Pitch';-inkscape-font-specification:'Courier 10 Pitch';text-align:center;letter-spacing:0px;word-spacing:0px;text-anchor:middle;fill:#eeee23;fill-opacity:1;stroke:none;stroke-width:0.696618"
         x="866.38"
         y="789.8587"
         id="text3926"><tspan
           sodipodi:role="line"
           id="tspan3928"
           x="866.38"
           y="789.8587"
           style="font-style:normal;font-variant:normal;font-weight:300;font-stretch:normal;font-size:27.8647px;line-height:1.25;font-family:'Source Sans Pro';-inkscape-font-specification:'Source Sans Pro Light';text-align:center;text-anchor:middle;fill:#eeee23;fill-opacity:1;stroke-width:0.696618">www.ccc.de</tspan></text>
      <g
         transform="matrix(1.8929006,0,0,1.892704,-258.28838,964.90644)"
         id="g260"
         inkscape:export-filename="/mnt/hgfs/Bov/Documents/Work/2007/cc/identity/srr buttons/big/by.png"
         inkscape:export-xdpi="300.23013"
         inkscape:export-ydpi="300.23013">
        <path
           id="path3817_1_"
           nodetypes="ccccccc"
           d="m 181.96579,0.51074 114.06396,0.20264 c 1.59375,0 3.01758,-0.23633 3.01758,3.18066 l -0.13965,37.56689 H 179.08737 V 3.75439 c 0,-1.68505 0.16309,-3.24365 2.87842,-3.24365 z"
           style="fill:#aab2ab" />
        <path
           d="m 297.29636,0 h -116.229 c -1.24658,0 -2.26123,1.01416 -2.26123,2.26074 v 39.49658 c 0,0.28174 0.229,0.51025 0.51074,0.51025 h 119.73047 c 0.28174,0 0.51074,-0.22852 0.51074,-0.51025 V 2.26074 C 299.55807,1.01416 298.54343,0 297.29636,0 Z M 181.06735,1.02148 h 116.229 c 0.68408,0 1.24023,0.55566 1.24023,1.23926 0,0 0,15.94824 0,27.44971 h -83.34424 c -3.04492,5.50586 -8.91113,9.24414 -15.64355,9.24414 -6.73535,0 -12.6001,-3.73486 -15.64355,-9.24414 h -4.07764 c 0,-11.50146 0,-27.44971 0,-27.44971 1e-5,-0.68359 0.55616,-1.23926 1.23975,-1.23926 z"
           id="path263" />
        <g
           enable-background="new    "
           id="g265">
          <path
             d="m 253.07761,32.95605 c 0.31738,0 0.60742,0.02832 0.87012,0.08398 0.26172,0.05566 0.48535,0.14746 0.67285,0.27539 0.18652,0.12695 0.33203,0.29688 0.43457,0.50781 0.10254,0.21191 0.1543,0.47266 0.1543,0.78418 0,0.33594 -0.0762,0.61523 -0.22949,0.83887 -0.15234,0.22461 -0.37891,0.40723 -0.67773,0.55078 0.41211,0.11816 0.71973,0.3252 0.92285,0.62109 0.20312,0.29589 0.30469,0.65234 0.30469,1.06934 0,0.33594 -0.0654,0.62695 -0.19629,0.87305 -0.13086,0.24512 -0.30762,0.44629 -0.52832,0.60156 -0.22168,0.15625 -0.47461,0.27148 -0.75781,0.3457 -0.28418,0.0752 -0.5752,0.1123 -0.875,0.1123 H 249.936 v -6.66406 h 3.14161 z m -0.1875,2.69532 c 0.26172,0 0.47656,-0.0625 0.64551,-0.18652 0.16797,-0.12402 0.25195,-0.3252 0.25195,-0.60449 0,-0.15527 -0.0283,-0.2832 -0.084,-0.38184 -0.0566,-0.09961 -0.13086,-0.17676 -0.22461,-0.2334 -0.0937,-0.05566 -0.20117,-0.09473 -0.32227,-0.11621 -0.1211,-0.02148 -0.24805,-0.03223 -0.37793,-0.03223 h -1.37402 v 1.55469 z m 0.0859,2.82812 c 0.14355,0 0.28027,-0.01367 0.41113,-0.04199 0.13086,-0.02832 0.24609,-0.0752 0.34668,-0.13965 0.0996,-0.06543 0.17871,-0.1543 0.23828,-0.2666 0.0596,-0.11133 0.0889,-0.25488 0.0889,-0.42871 0,-0.3418 -0.0967,-0.58594 -0.29004,-0.73242 -0.19336,-0.14551 -0.44922,-0.21875 -0.7666,-0.21875 h -1.59961 v 1.82812 z"
             id="path267"
             style="fill:#ffffff" />
          <path
             d="m 255.78854,32.95605 h 1.64355 l 1.56055,2.63184 1.55078,-2.63184 h 1.63379 l -2.47363,4.10645 v 2.55762 h -1.46875 v -2.59473 z"
             id="path269"
             style="fill:#ffffff" />
        </g>
        <g
           id="g5908_1_"
           transform="matrix(0.872921,0,0,0.872921,50.12536,143.2144)">
          <path
             id="path5906_1_"
             cx="296.35416"
             ry="22.939548"
             cy="264.3577"
             type="arc"
             rx="22.939548"
             d="m 186.90065,-141.46002 c 0.006,8.68079 -7.02786,15.7215 -15.70808,15.72711 -8.68022,0.006 -15.72206,-7.02734 -15.7271,-15.70807 0,-0.006 0,-0.0123 0,-0.019 -0.005,-8.68079 7.02786,-15.7215 15.70808,-15.72656 8.68135,-0.006 15.72206,7.02734 15.7271,15.70813 0,0.006 0,0.0123 0,0.0184 z"
             style="fill:#ffffff" />
          <g
             id="g5706_1_"
             transform="translate(-289.6157,99.0653)">
            <path
               id="path5708_1_"
               d="m 473.57574,-253.32751 c 3.48541,3.48541 5.22839,7.75391 5.22839,12.80219 0,5.04938 -1.71277,9.27203 -5.13831,12.66791 -3.63531,3.5766 -7.93182,5.36432 -12.88947,5.36432 -4.89777,0 -9.11987,-1.77319 -12.66513,-5.31952 -3.54581,-3.54584 -5.31845,-7.78302 -5.31845,-12.71271 0,-4.92859 1.77264,-9.19598 5.31845,-12.80219 3.4552,-3.48651 7.67728,-5.22949 12.66513,-5.22949 5.0483,-10e-6 9.31404,1.74297 12.79939,5.22949 z m -23.11798,2.34484 c -2.94672,2.97638 -4.41953,6.46289 -4.41953,10.46234 0,3.99835 1.45828,7.45526 4.37424,10.37067 2.9165,2.9165 6.38849,4.37421 10.41705,4.37421 4.02856,0 7.53015,-1.47223 10.50653,-4.4184 2.82593,-2.73645 4.23944,-6.17706 4.23944,-10.32648 0,-4.11804 -1.43646,-7.61346 -4.30768,-10.48468 -2.87067,-2.87067 -6.34991,-4.30658 -10.43829,-4.30658 -4.0884,1e-5 -7.54638,1.44318 -10.37176,4.32892 z m 7.75449,8.70319 c -0.45029,-0.98169 -1.1243,-1.47284 -2.02322,-1.47284 -1.58917,0 -2.38345,1.07007 -2.38345,3.20911 0,2.13953 0.79428,3.2085 2.38345,3.2085 1.04938,0 1.79892,-0.52075 2.24866,-1.56451 l 2.20276,1.17297 c -1.04993,1.86548 -2.62509,2.79846 -4.72549,2.79846 -1.6199,0 -2.91763,-0.4967 -3.89206,-1.48901 -0.9761,-0.99341 -1.46274,-2.36273 -1.46274,-4.10852 0,-1.71503 0.50229,-3.07654 1.50748,-4.08502 1.00519,-1.00854 2.25702,-1.51257 3.75781,-1.51257 2.22012,0 3.80981,0.87488 4.77081,2.62286 z m 10.36337,0 c -0.45087,-0.98169 -1.11145,-1.47284 -1.98242,-1.47284 -1.62103,0 -2.43213,1.07007 -2.43213,3.20911 0,2.13953 0.8111,3.2085 2.43213,3.2085 1.05109,0 1.78717,-0.52075 2.20728,-1.56451 l 2.25201,1.17297 c -1.04828,1.86548 -2.62122,2.79846 -4.71771,2.79846 -1.61768,0 -2.9126,-0.4967 -3.88647,-1.48901 -0.97217,-0.99341 -1.45935,-2.36273 -1.45935,-4.10852 0,-1.71503 0.49445,-3.07654 1.48285,-4.08502 0.98785,-1.00854 2.2453,-1.51257 3.7735,-1.51257 2.21619,0 3.80365,0.87488 4.76129,2.62286 z" />
          </g>
        </g>
        <g
           id="g275">
          <circle
             cx="255.55124"
             cy="15.31348"
             r="10.80664"
             id="circle277"
             style="fill:#ffffff" />
          <g
             id="g279">
            <path
               d="m 258.67819,12.18701 c 0,-0.4165 -0.33789,-0.75391 -0.75293,-0.75391 h -4.77344 c -0.41504,0 -0.75293,0.3374 -0.75293,0.75391 v 4.77295 h 1.33105 v 5.65186 h 3.61719 v -5.65186 h 1.33105 v -4.77295 z"
               id="path281" />
            <circle
               cx="255.53854"
               cy="9.1723604"
               r="1.63281"
               id="circle283" />
          </g>
          <path
             clip-rule="evenodd"
             d="m 255.5239,3.40723 c -3.23242,0 -5.96875,1.12793 -8.20801,3.38379 -2.29785,2.3335 -3.44629,5.0957 -3.44629,8.28467 0,3.18897 1.14844,5.93164 3.44629,8.22656 2.29785,2.29443 5.03418,3.44189 8.20801,3.44189 3.21289,0 5.99805,-1.15625 8.35352,-3.47119 2.21973,-2.19727 3.33008,-4.92969 3.33008,-8.19727 0,-3.26758 -1.12988,-6.02881 -3.3877,-8.28467 -2.25977,-2.25585 -5.02442,-3.38378 -8.2959,-3.38378 z m 0.0293,2.09961 c 2.64844,0 4.89746,0.93408 6.74707,2.80127 1.86914,1.84717 2.80371,4.10303 2.80371,6.76758 0,2.68359 -0.91504,4.91064 -2.74512,6.68018 -1.92871,1.90625 -4.19629,2.85889 -6.80566,2.85889 -2.61035,0 -4.85938,-0.94287 -6.74707,-2.82959 -1.88965,-1.88672 -2.83301,-4.12305 -2.83301,-6.70947 0,-2.58691 0.9541,-4.84229 2.8623,-6.76758 1.83009,-1.8672 4.06934,-2.80128 6.71778,-2.80128 z"
             id="path285"
             style="fill-rule:evenodd" />
        </g>
      </g>
    </g>
  </g>
  <g
     inkscape:groupmode="layer"
     id="layer1"
     inkscape:label="FadeOutLayer"
     style="display:inline">
    <rect
       style="fill:#000000;fill-opacity:1;opacity:0"
       id="fadeout"
       width="1932.7112"
       height="1092.9814"
       x="-4.4430141"
       y="-1.8739687"
       inkscape:label="#fadeout" />
  </g>
</svg>
