<?xml version="1.0" encoding="UTF-8" standalone="no"?>
<!-- Created with Inkscape (http://www.inkscape.org/) -->

<svg
   width="1920"
   height="1080"
   viewBox="0 0 508 285.75"
   version="1.1"
   id="svg8276"
   inkscape:version="1.2.2 (b0a8486541, 2022-12-01)"
   sodipodi:docname="intro.svg"
   xmlns:inkscape="http://www.inkscape.org/namespaces/inkscape"
   xmlns:sodipodi="http://sodipodi.sourceforge.net/DTD/sodipodi-0.dtd"
   xmlns="http://www.w3.org/2000/svg"
   xmlns:svg="http://www.w3.org/2000/svg">
  <sodipodi:namedview
     id="namedview8278"
     pagecolor="#ffffff"
     bordercolor="#666666"
     borderopacity="1.0"
     inkscape:showpageshadow="2"
     inkscape:pageopacity="0.0"
     inkscape:pagecheckerboard="0"
     inkscape:deskcolor="#d1d1d1"
     inkscape:document-units="mm"
     showgrid="false"
     inkscape:zoom="0.6017091"
     inkscape:cx="972.2306"
     inkscape:cy="418.80703"
     inkscape:window-width="1865"
     inkscape:window-height="1170"
     inkscape:window-x="55"
     inkscape:window-y="30"
     inkscape:window-maximized="1"
     inkscape:current-layer="layer1" />
  <defs
     id="defs8273" />
  <g
     inkscape:label="Layer 1"
     inkscape:groupmode="layer"
     id="layer1">
    <rect
       style="fill:#9056dc;fill-opacity:1;stroke:#000000;stroke-width:1.01785;stroke-linejoin:round;stroke-miterlimit:3.7;paint-order:markers fill stroke"
       id="rect8812"
       width="508"
       height="285.75"
       x="0.50892502"
       y="0.50892502" />
    <g
       id="g11105"
       transform="matrix(0.9060378,0,0,0.9060378,99.82136,30.338081)">
      <path
         d="m 316.362,102.15 1.865,3.764 c 4.494,-2.227 8.402,-5.378 11.302,-9.113 l -3.318,-2.576 c -2.514,3.238 -5.919,5.978 -9.849,7.925 m 13.979,-37.081 c -1.094,-1.553 -2.355,-3.02 -3.757,-4.372 l 0.7,-5.348 -4.164,-0.545 -0.984,7.517 0.822,0.739 c 1.499,1.345 2.827,2.834 3.947,4.427 z m -6.084,-18.942 4.164,0.544 1.681,-12.841 -4.164,-0.545 z m -45.152,9.262 -4.164,0.548 0.721,5.477 c -1.307,1.347 -2.475,2.795 -3.48,4.317 l 3.503,2.315 c 1.028,-1.554 2.255,-3.022 3.651,-4.363 l 0.764,-0.736 z m -5.328,-8.302 4.164,-0.548 -1.711,-13.014 -4.164,0.548 z m 25.62,42.735 h -10.205 v -9.441 c 3.009,0.414 6.476,0.74 10.205,0.848 z m 4.199,-8.578 c 3.796,-0.078 7.34,-0.384 10.427,-0.793 v 9.371 h -10.427 z m -1.723,-4.166 c -12.411,0 -22.648,-2.959 -22.749,-2.988 l -2.692,-0.789 v 2.803 c 0,14.029 11.413,25.441 25.441,25.441 14.028,0 25.44,-11.412 25.44,-25.441 v -2.803 c 0,0 -2.691,0.789 -2.691,0.789 -0.102,0.029 -10.339,2.988 -22.749,2.988 m -6.788,27.876 -0.782,4.127 c 2.347,0.443 4.77,0.669 7.202,0.67 h 0.016 c 2.416,0 4.831,-0.224 7.18,-0.665 l -0.775,-4.127 c -2.094,0.393 -4.248,0.593 -6.405,0.593 h -0.014 c -2.171,0 -4.332,-0.202 -6.422,-0.598 m -18.291,-10.743 -3.319,2.574 c 2.897,3.734 6.805,6.887 11.301,9.117 l 1.867,-3.761 c -3.932,-1.953 -7.339,-4.694 -9.849,-7.93 m -4.162,-19.41 -4.061,-1.076 c -0.572,2.159 -0.862,4.39 -0.862,6.633 10e-4,2.491 0.359,4.963 1.066,7.351 l 4.028,-1.193 c -0.593,-2 -0.894,-4.073 -0.895,-6.159 0,-1.878 0.243,-3.748 0.724,-5.556 m 1.421,-60.798 -4.158,-0.591 c -0.233,1.641 -0.197,3.345 0.107,5.063 0.011,0.061 0.9,6.748 0.9,6.748 l 4.164,-0.548 -0.927,-6.928 c -0.228,-1.283 -0.256,-2.543 -0.086,-3.744 m 6.038,-4.258 2.42,-3.433 c -1.81,-1.275 -3.793,-1.767 -5.747,-1.425 -1.953,0.343 -3.653,1.485 -4.917,3.301 l 3.45,2.398 c 0.424,-0.611 1.15,-1.379 2.193,-1.562 1.04,-0.184 1.99,0.291 2.601,0.721 m 4.905,12.503 4.1,-0.914 c 0,0 -1.311,-5.919 -1.322,-5.984 -0.304,-1.721 -0.855,-3.335 -1.638,-4.798 l -3.704,1.983 c 0.574,1.07 0.979,2.263 1.219,3.642 z m 4.211,18.886 4.1,-0.914 -2.563,-11.493 -4.1,0.914 z m 22.111,7.258 -4.1,-0.913 -0.847,3.81 c -1.613,-0.204 -3.248,-0.307 -4.881,-0.308 h -0.016 c -1.892,0 -3.793,0.142 -5.674,0.42 l -0.845,-3.789 -4.1,0.914 1.73,7.757 2.019,-0.41 c 2.261,-0.459 4.573,-0.691 6.87,-0.691 h 0.014 c 2.062,0 4.125,0.184 6.134,0.547 l 1.984,0.357 z m 4.183,-18.804 -4.1,-0.912 -2.548,11.452 4.1,0.912 z m 4.188,-17.044 -3.703,-1.983 c -0.505,0.944 -1.244,3.091 -1.244,3.091 -0.16,0.56 -0.412,1.828 -0.422,1.897 l -1.283,5.775 4.1,0.911 1.348,-6.145 c 0.227,-1.285 0.632,-2.478 1.204,-3.546 m 7.135,-1.942 3.447,-2.399 c -1.261,-1.815 -2.962,-2.957 -4.915,-3.302 -1.948,-0.345 -3.938,0.147 -5.747,1.422 l 2.42,3.433 c 0.61,-0.429 1.551,-0.902 2.598,-0.719 1.045,0.185 1.771,0.953 2.197,1.565 m 5.403,2.825 -4.158,0.593 c 0.172,1.202 0.145,2.461 -0.079,3.729 l -0.916,6.858 4.164,0.545 0.847,-6.465 c 0.012,-0.06 0.377,-3.619 0.142,-5.26 m 3.059,66.947 c -10e-4,-2.333 -0.318,-4.654 -0.94,-6.9 l -4.047,1.123 c 0.521,1.881 0.787,3.825 0.788,5.778 0,2.087 -0.301,4.159 -0.892,6.159 l 4.027,1.192 c 0.706,-2.388 1.064,-4.861 1.064,-7.352"
         id="path11099" />
      <path
         d="m 249.468,81.519 v -5.106 h -9.176 v -5.402 h 6.919 v -5.143 h -6.919 v -5.143 h 9.176 V 55.619 H 234.89 v 25.9 z m -16.538,0 v -5.106 h -4.588 V 60.725 h 4.588 v -5.106 h -14.578 v 5.106 h 4.625 v 15.688 h -4.625 v 5.106 z m -15.244,0 V 76.413 H 208.51 V 55.619 h -5.402 v 25.9 z M 189.344,63.722 h 0.666 l 0.185,5.291 0.407,3.811 h -1.924 l 0.444,-3.811 z m -1.628,17.797 0.407,-3.552 h 3.034 l 0.37,3.552 h 5.365 l -3.922,-25.9 h -6.771 l -3.885,25.9 z m -12.562,-1.443 c 1.295,-1.356 1.943,-3.132 1.943,-5.328 0,-1.48 -0.272,-2.713 -0.814,-3.7 -0.543,-0.986 -1.234,-1.837 -2.072,-2.553 -0.839,-0.715 -1.715,-1.406 -2.627,-2.072 -1.11,-0.814 -2.03,-1.541 -2.757,-2.183 -0.728,-0.641 -1.091,-1.418 -1.091,-2.331 0,-0.592 0.172,-1.073 0.518,-1.443 0.345,-0.37 0.801,-0.555 1.369,-0.555 0.666,0 1.189,0.265 1.572,0.796 0.382,0.53 0.574,1.338 0.574,2.423 h 5.069 c 0,-1.628 -0.303,-3.052 -0.907,-4.274 -0.605,-1.22 -1.456,-2.164 -2.553,-2.83 -1.098,-0.666 -2.374,-0.999 -3.829,-0.999 -1.332,0 -2.523,0.29 -3.571,0.87 -1.049,0.579 -1.875,1.393 -2.479,2.442 -0.605,1.048 -0.906,2.288 -0.906,3.718 0,1.43 0.283,2.646 0.851,3.644 0.567,1 1.276,1.857 2.127,2.572 0.851,0.716 1.696,1.394 2.535,2.035 0.666,0.494 1.288,0.975 1.868,1.443 0.579,0.469 1.055,0.975 1.425,1.517 0.37,0.543 0.555,1.184 0.555,1.924 0,0.642 -0.173,1.153 -0.518,1.535 -0.346,0.383 -0.839,0.574 -1.48,0.574 -0.691,0 -1.258,-0.29 -1.702,-0.87 -0.444,-0.579 -0.666,-1.51 -0.666,-2.793 h -5.069 c 0,2.714 0.671,4.804 2.016,6.272 1.344,1.467 3.139,2.201 5.384,2.201 2.195,0 3.94,-0.678 5.235,-2.035 m -13.708,1.443 v -5.106 h -4.588 V 60.725 h 4.588 v -5.106 h -14.578 v 5.106 h 4.625 v 15.688 h -4.625 v 5.106 z m -24.235,0 V 70.752 l 4.625,-15.133 h -5.365 l -1.924,6.956 -1.813,-6.956 h -5.476 l 4.625,15.133 v 10.767 z m -20.756,0 V 67.866 l 4.144,13.653 h 5.365 v -25.9 h -5.069 v 13.653 l -4.144,-13.653 h -5.365 v 25.9 z m -17.39,0 V 67.866 l 4.144,13.653 h 5.365 v -25.9 h -5.069 V 69.272 L 99.361,55.619 h -5.365 v 25.9 z m -9.638,-1.665 c 1.245,-1.504 1.869,-3.564 1.869,-6.179 V 55.619 h -5.365 v 18.019 c 0,1.135 -0.155,1.967 -0.463,2.498 -0.309,0.53 -0.783,0.795 -1.424,0.795 -0.691,0 -1.191,-0.265 -1.499,-0.795 -0.309,-0.531 -0.462,-1.363 -0.462,-2.498 V 55.619 h -5.365 v 18.056 c 0,2.615 0.634,4.675 1.905,6.179 1.27,1.505 3.077,2.257 5.421,2.257 2.344,0 4.137,-0.752 5.383,-2.257 M 65.655,70.789 h 1.184 c 1.726,0 2.59,0.716 2.59,2.146 v 1.48 c 0,1.406 -0.864,2.109 -2.59,2.109 h -1.184 z m 0,-10.138 h 1.036 c 1.726,0 2.59,0.703 2.59,2.109 v 1.221 c 0,1.431 -0.864,2.146 -2.59,2.146 h -1.036 z m 1.702,20.868 c 2.466,0 4.335,-0.567 5.605,-1.702 1.271,-1.134 1.906,-2.799 1.906,-4.995 v -1.258 c 0,-2.639 -1.357,-4.218 -4.07,-4.736 v -0.592 c 1.307,-0.296 2.288,-0.851 2.941,-1.665 0.654,-0.814 0.981,-1.825 0.981,-3.034 v -1.258 c 0,-2.195 -0.636,-3.854 -1.906,-4.977 -1.27,-1.122 -3.139,-1.683 -5.605,-1.683 H 60.29 v 25.9 z m -14.208,0 v -5.106 h -9.176 v -5.402 h 6.919 v -5.143 h -6.919 v -5.143 h 9.176 V 55.619 H 38.571 v 25.9 z m -26.602,0 V 70.493 h 3.811 v 11.026 h 5.402 v -25.9 h -5.402 v 9.768 h -3.811 v -9.768 h -5.365 v 25.9 z m -11.544,0 V 60.725 h 4.625 V 55.619 H 5.05 v 5.106 h 4.625 v 20.794 z"
         id="path11101" />
      <path
         d="m 247.388,106.88 c 0.66,-0.445 1.172,-1.075 1.535,-1.891 0.364,-0.816 0.546,-1.773 0.546,-2.871 0,-1.305 -0.26,-2.388 -0.779,-3.249 -0.52,-0.86 -1.217,-1.387 -2.092,-1.58 l 2.47,-3.65 v -2.025 h -8.1 l -0.112,2.938 h 4.317 l -3.026,4.451 2.292,1.535 c 0.089,-0.133 0.193,-0.241 0.312,-0.323 0.118,-0.081 0.252,-0.122 0.4,-0.122 0.341,0 0.597,0.175 0.768,0.523 0.17,0.349 0.256,0.894 0.256,1.636 0,0.756 -0.089,1.309 -0.267,1.658 -0.178,0.348 -0.46,0.523 -0.846,0.523 -0.341,0 -0.612,-0.141 -0.812,-0.423 -0.2,-0.282 -0.3,-0.712 -0.3,-1.291 h -3.294 c 0,0.935 0.185,1.766 0.556,2.492 0.371,0.727 0.89,1.299 1.558,1.714 0.668,0.415 1.432,0.623 2.292,0.623 0.89,0 1.665,-0.222 2.326,-0.668 m -7.422,0.312 0.112,-2.938 h -4.651 l 2.403,-3.249 c 0.86,-1.157 1.45,-2.151 1.769,-2.982 0.319,-0.83 0.479,-1.631 0.479,-2.403 0,-1.024 -0.208,-1.854 -0.623,-2.492 -0.416,-0.638 -0.946,-1.109 -1.592,-1.414 -0.645,-0.304 -1.316,-0.456 -2.014,-0.456 -0.742,0 -1.454,0.171 -2.136,0.512 -0.683,0.341 -1.235,0.872 -1.658,1.591 -0.423,0.72 -0.634,1.643 -0.634,2.771 h 3.16 c 0,-0.564 0.104,-0.998 0.311,-1.302 0.208,-0.304 0.49,-0.456 0.846,-0.456 0.341,0 0.608,0.126 0.801,0.378 0.193,0.252 0.29,0.579 0.29,0.979 0,0.386 -0.093,0.831 -0.279,1.335 -0.185,0.505 -0.5,1.061 -0.945,1.67 l -4.34,5.852 v 2.604 z m -15.355,0 v -6.632 h 2.293 v 6.632 h 3.249 V 91.614 h -3.249 v 5.875 h -2.293 v -5.875 h -3.226 v 15.578 z m -4.406,0 v -3.071 h -5.519 v -3.249 h 4.162 v -3.093 h -4.162 v -3.094 h 5.519 v -3.071 h -8.768 v 15.578 z m -27.906,-3.271 c -0.178,-0.341 -0.267,-0.883 -0.267,-1.625 v -0.067 c 0,-0.786 0.089,-1.338 0.267,-1.658 0.178,-0.318 0.453,-0.478 0.824,-0.478 0.726,0 1.09,0.712 1.09,2.136 v 0.067 c 0,1.424 -0.364,2.137 -1.09,2.137 -0.371,0 -0.646,-0.171 -0.824,-0.512 m 3.995,2.314 c 0.808,-0.875 1.213,-2.195 1.213,-3.961 0,-0.994 -0.138,-1.869 -0.412,-2.626 -0.275,-0.757 -0.668,-1.354 -1.18,-1.792 -0.511,-0.437 -1.123,-0.656 -1.835,-0.656 -0.401,0 -0.765,0.071 -1.091,0.211 -0.326,0.142 -0.645,0.42 -0.957,0.835 v -1.958 c 0,-1.276 0.364,-1.914 1.091,-1.914 0.727,0 1.09,0.571 1.09,1.713 h 3.294 c 0,-0.993 -0.19,-1.85 -0.568,-2.57 -0.378,-0.719 -0.898,-1.276 -1.558,-1.669 -0.66,-0.393 -1.413,-0.59 -2.258,-0.59 -0.906,0 -1.688,0.227 -2.348,0.679 -0.661,0.453 -1.165,1.076 -1.513,1.869 -0.349,0.794 -0.523,1.71 -0.523,2.749 v 5.897 c 0,1.039 0.185,1.94 0.556,2.704 0.371,0.764 0.894,1.354 1.569,1.769 0.675,0.415 1.45,0.623 2.325,0.623 1.261,0 2.296,-0.437 3.105,-1.313 m -8.601,0.957 0.111,-2.938 h -4.651 l 2.404,-3.249 c 0.86,-1.157 1.45,-2.151 1.769,-2.982 0.319,-0.83 0.478,-1.631 0.478,-2.403 0,-1.024 -0.208,-1.854 -0.623,-2.492 -0.415,-0.638 -0.946,-1.109 -1.591,-1.414 -0.645,-0.304 -1.317,-0.456 -2.014,-0.456 -0.742,0 -1.454,0.171 -2.136,0.512 -0.683,0.341 -1.236,0.872 -1.658,1.591 -0.423,0.72 -0.635,1.643 -0.635,2.771 h 3.16 c 0,-0.564 0.104,-0.998 0.312,-1.302 0.208,-0.304 0.49,-0.456 0.846,-0.456 0.341,0 0.608,0.126 0.801,0.378 0.192,0.252 0.289,0.579 0.289,0.979 0,0.386 -0.093,0.831 -0.278,1.335 -0.186,0.505 -0.501,1.061 -0.946,1.67 l -4.339,5.852 v 2.604 z m -15.021,-4.673 v -6.231 c 0,-1.276 0.37,-1.914 1.113,-1.914 0.743,0 1.112,0.638 1.112,1.914 v 6.231 c 0,1.276 -0.371,1.914 -1.112,1.914 -0.741,0 -1.113,-0.638 -1.113,-1.914 m 3.394,4.35 c 0.66,-0.452 1.179,-1.079 1.557,-1.88 0.379,-0.801 0.568,-1.721 0.568,-2.76 v -5.674 c 0,-1.039 -0.189,-1.955 -0.568,-2.749 -0.378,-0.793 -0.897,-1.416 -1.557,-1.869 -0.661,-0.452 -1.421,-0.679 -2.281,-0.679 -0.86,0 -1.622,0.227 -2.282,0.679 -0.66,0.453 -1.179,1.076 -1.557,1.869 -0.379,0.794 -0.568,1.71 -0.568,2.749 v 5.674 c 0,1.039 0.189,1.959 0.568,2.76 0.378,0.801 0.897,1.428 1.557,1.88 0.66,0.453 1.421,0.679 2.282,0.679 0.861,0 1.62,-0.226 2.281,-0.679 m -7.711,0.323 0.111,-2.938 h -4.651 l 2.403,-3.249 c 0.861,-1.157 1.45,-2.151 1.77,-2.982 0.318,-0.83 0.478,-1.631 0.478,-2.403 0,-1.024 -0.208,-1.854 -0.623,-2.492 -0.416,-0.638 -0.946,-1.109 -1.591,-1.414 -0.646,-0.304 -1.317,-0.456 -2.014,-0.456 -0.742,0 -1.454,0.171 -2.137,0.512 -0.682,0.341 -1.235,0.872 -1.657,1.591 -0.423,0.72 -0.635,1.643 -0.635,2.771 h 3.16 c 0,-0.564 0.104,-0.998 0.312,-1.302 0.208,-0.304 0.49,-0.456 0.846,-0.456 0.341,0 0.608,0.126 0.801,0.378 0.192,0.252 0.289,0.579 0.289,0.979 0,0.386 -0.093,0.831 -0.278,1.335 -0.186,0.505 -0.501,1.061 -0.946,1.67 l -4.339,5.852 v 2.604 z m -16.401,-0.167 c 0.4,-0.348 0.66,-0.842 0.779,-1.48 h 0.378 l -0.067,1.647 h 2.537 v -8.278 h -4.629 v 2.759 h 1.336 v 0.935 c 0,1.276 -0.371,1.914 -1.113,1.914 -0.742,0 -1.113,-0.638 -1.113,-1.914 v -6.409 c 0,-1.276 0.371,-1.914 1.113,-1.914 0.742,0 1.113,0.638 1.113,1.914 v 1.468 h 3.293 v -1.112 c 0,-1.039 -0.186,-1.955 -0.556,-2.749 -0.371,-0.793 -0.887,-1.416 -1.547,-1.869 -0.66,-0.452 -1.421,-0.679 -2.281,-0.679 -0.86,0 -1.621,0.227 -2.281,0.679 -0.66,0.453 -1.176,1.076 -1.547,1.869 -0.371,0.794 -0.556,1.71 -0.556,2.749 v 5.674 c 0,1.321 0.159,2.37 0.479,3.149 0.318,0.779 0.741,1.336 1.268,1.669 0.526,0.334 1.109,0.501 1.747,0.501 0.697,0 1.246,-0.174 1.647,-0.523 m -9.97,0 c 0.401,-0.348 0.66,-0.842 0.779,-1.48 h 0.378 l -0.067,1.647 h 2.537 v -8.278 h -4.628 v 2.759 h 1.335 v 0.935 c 0,1.276 -0.371,1.914 -1.113,1.914 -0.742,0 -1.113,-0.638 -1.113,-1.914 v -6.409 c 0,-1.276 0.371,-1.914 1.113,-1.914 0.742,0 1.113,0.638 1.113,1.914 v 1.468 h 3.293 v -1.112 c 0,-1.039 -0.185,-1.955 -0.556,-2.749 -0.371,-0.793 -0.887,-1.416 -1.547,-1.869 -0.66,-0.452 -1.42,-0.679 -2.281,-0.679 -0.861,0 -1.621,0.227 -2.281,0.679 -0.66,0.453 -1.176,1.076 -1.546,1.869 -0.371,0.794 -0.557,1.71 -0.557,2.749 v 5.674 c 0,1.321 0.16,2.37 0.479,3.149 0.319,0.779 0.742,1.336 1.268,1.669 0.527,0.334 1.109,0.501 1.747,0.501 0.697,0 1.246,-0.174 1.647,-0.523 m -5.786,0.167 v -3.071 h -5.519 v -3.249 h 4.161 v -3.093 h -4.161 v -3.094 h 5.519 v -3.071 h -8.768 v 15.578 z m -16,0 v -6.632 h 2.292 v 6.632 h 3.249 V 91.614 h -3.249 v 5.875 h -2.292 v -5.875 h -3.227 v 15.578 z M 110.183,94.641 h 0.49 c 1.038,0 1.558,0.423 1.558,1.268 v 1.269 c 0,0.86 -0.52,1.29 -1.558,1.29 h -0.49 z m 0,12.551 v -5.92 h 0.668 c 0.504,0 0.898,0.112 1.18,0.334 0.281,0.223 0.422,0.542 0.422,0.957 v 4.629 h 3.272 v -4.251 c 0,-0.83 -0.223,-1.476 -0.668,-1.936 -0.445,-0.459 -1.083,-0.764 -1.914,-0.912 v -0.356 c 1.573,-0.356 2.359,-1.298 2.359,-2.826 V 95.62 c 0,-1.32 -0.382,-2.318 -1.146,-2.993 -0.764,-0.675 -1.888,-1.013 -3.371,-1.013 h -4.028 v 15.578 z m -4.406,0 v -3.071 h -5.519 v -3.249 h 4.162 v -3.093 h -4.162 v -3.094 h 5.519 v -3.071 h -8.768 v 15.578 z m -12.484,0 V 94.685 h 2.782 v -3.071 h -8.768 v 3.071 h 2.782 v 12.507 z m -7.199,-0.868 c 0.779,-0.816 1.168,-1.884 1.168,-3.204 0,-0.891 -0.163,-1.632 -0.489,-2.226 -0.327,-0.593 -0.742,-1.105 -1.247,-1.535 -0.504,-0.431 -1.031,-0.846 -1.58,-1.247 -0.667,-0.489 -1.22,-0.927 -1.658,-1.313 -0.437,-0.385 -0.656,-0.853 -0.656,-1.402 0,-0.356 0.104,-0.645 0.311,-0.867 0.208,-0.223 0.482,-0.334 0.824,-0.334 0.4,0 0.715,0.159 0.946,0.478 0.229,0.319 0.345,0.805 0.345,1.458 h 3.048 c 0,-0.979 -0.181,-1.836 -0.545,-2.571 -0.364,-0.734 -0.875,-1.301 -1.535,-1.702 -0.661,-0.401 -1.428,-0.601 -2.304,-0.601 -0.801,0 -1.517,0.175 -2.147,0.523 -0.631,0.349 -1.128,0.838 -1.491,1.469 -0.364,0.631 -0.545,1.376 -0.545,2.236 0,0.86 0.17,1.592 0.511,2.192 0.342,0.601 0.768,1.117 1.28,1.547 0.512,0.431 1.02,0.838 1.524,1.224 0.401,0.297 0.775,0.586 1.124,0.868 0.349,0.282 0.634,0.586 0.857,0.912 0.223,0.327 0.334,0.712 0.334,1.158 0,0.386 -0.104,0.693 -0.312,0.923 -0.208,0.23 -0.504,0.345 -0.89,0.345 -0.415,0 -0.757,-0.174 -1.024,-0.523 -0.267,-0.348 -0.4,-0.909 -0.4,-1.68 h -3.049 c 0,1.632 0.404,2.889 1.213,3.772 0.808,0.883 1.888,1.324 3.238,1.324 1.32,0 2.37,-0.408 3.149,-1.224 m -12.34,-9.836 h 0.4 l 0.112,3.182 0.245,2.292 H 73.353 L 73.62,99.67 Z m -0.979,10.704 0.244,-2.136 h 1.825 l 0.223,2.136 h 3.227 L 75.935,91.614 h -4.073 l -2.336,15.578 z m -3.672,0 v -3.071 h -5.519 v -3.249 h 4.162 v -3.093 h -4.162 v -3.094 h 5.519 v -3.071 h -8.768 v 15.578 z"
         id="path11103" />
    </g>
  </g>
</svg>
