<?xml version="1.0" encoding="UTF-8" standalone="no"?>
<!-- Created with Inkscape (http://www.inkscape.org/) -->

<svg
   xmlns:dc="http://purl.org/dc/elements/1.1/"
   xmlns:cc="http://creativecommons.org/ns#"
   xmlns:rdf="http://www.w3.org/1999/02/22-rdf-syntax-ns#"
   xmlns:svg="http://www.w3.org/2000/svg"
   xmlns="http://www.w3.org/2000/svg"
   xmlns:sodipodi="http://sodipodi.sourceforge.net/DTD/sodipodi-0.dtd"
   xmlns:inkscape="http://www.inkscape.org/namespaces/inkscape"
   width="1920"
   height="1080"
   id="svg2"
   version="1.1"
   inkscape:version="0.91 r13725"
   sodipodi:docname="outro.svg">
  <defs
     id="defs4" />
  <sodipodi:namedview
     id="base"
     pagecolor="#ffffff"
     bordercolor="#666666"
     borderopacity="1.0"
     inkscape:pageopacity="0.0"
     inkscape:pageshadow="2"
     inkscape:zoom="0.49497475"
     inkscape:cx="891.32496"
     inkscape:cy="-66.274343"
     inkscape:document-units="px"
     inkscape:current-layer="plate"
     showgrid="false"
     inkscape:window-width="1920"
     inkscape:window-height="1014"
     inkscape:window-x="0"
     inkscape:window-y="27"
     inkscape:window-maximized="1"
     showguides="true"
     inkscape:guide-bbox="true"
     inkscape:snap-global="true"
     inkscape:snap-bbox="true"
     inkscape:bbox-paths="true"
     inkscape:bbox-nodes="true"
     inkscape:snap-bbox-edge-midpoints="true"
     inkscape:snap-bbox-midpoints="true"
     inkscape:object-paths="false"
     inkscape:snap-to-guides="true">
    <sodipodi:guide
       orientation="0,1"
       position="0,0"
       id="guide3017" />
    <sodipodi:guide
       orientation="0,1"
       position="0,1080"
       id="guide3019" />
    <sodipodi:guide
       orientation="1,0"
       position="0,0"
       id="guide3021" />
    <sodipodi:guide
       orientation="1,0"
       position="1920,1337.442"
       id="guide3023" />
    <sodipodi:guide
       orientation="0,1"
       position="0,25"
       id="guide3025" />
    <sodipodi:guide
       orientation="0,1"
       position="0,1048"
       id="guide3027" />
    <sodipodi:guide
       orientation="1,0"
       position="32,0"
       id="guide3029" />
    <sodipodi:guide
       orientation="1,0"
       position="1888,0"
       id="guide3031" />
    <sodipodi:guide
       orientation="1,0"
       position="960,1080"
       id="guide3819" />
    <sodipodi:guide
       orientation="0,1"
       position="0,540"
       id="guide3821" />
  </sodipodi:namedview>
  <metadata
     id="metadata7">
    <rdf:RDF>
      <cc:Work
         rdf:about="">
        <dc:format>image/svg+xml</dc:format>
        <dc:type
           rdf:resource="http://purl.org/dc/dcmitype/StillImage" />
        <dc:title />
      </cc:Work>
    </rdf:RDF>
  </metadata>
  <g
     inkscape:label="Ebene 1"
     inkscape:groupmode="layer"
     id="layer1"
     transform="translate(0,27.63782)">
    <rect
       style="fill:#000000;fill-opacity:1;fill-rule:nonzero;stroke:none"
       id="rect3797"
       width="1920"
       height="1080"
       x="0"
       y="-27.637817" />
    <g
       id="logo"
       inkscape:label="#g4184">
      <text
         sodipodi:linespacing="125%"
         id="text3893"
         y="742.61218"
         x="959.01093"
         style="font-size:40px;font-style:normal;font-variant:normal;font-weight:normal;font-stretch:normal;text-align:center;line-height:125%;letter-spacing:0px;word-spacing:0px;text-anchor:middle;fill:#000000;fill-opacity:1;stroke:none;font-family:Courier 10 Pitch;-inkscape-font-specification:Courier 10 Pitch"
         xml:space="preserve"><tspan
           style="text-align:center;text-anchor:middle;fill:#a5a5a5;fill-opacity:1;font-family:TeX Gyre Adventor;-inkscape-font-specification:TeX Gyre Adventor;font-weight:normal;font-style:normal;font-stretch:normal;font-variant:normal"
           y="742.61218"
           x="959.01093"
           id="tspan3895"
           sodipodi:role="line">More Recordings available on <tspan
   id="tspan3028"
   style="font-weight:bold;-inkscape-font-specification:TeX Gyre Adventor Bold">media.ccc.de</tspan></tspan></text>
      <g
         style="fill:#ffffff;fill-opacity:1"
         transform="translate(632.47209,157.2726)"
         id="innerlogo"
         inkscape:label="#logo">
        <path
           inkscape:connector-curvature="0"
           style="fill:#ffffff;fill-opacity:1;stroke:none"
           d="m 294.407,7.95792 c 6.213,1.027 19.117,20.42198 17.554,56.04198 -4.3,2.287 -9.289,0.945 -12.547,0.894 -10.184,-2.682 -0.678,-29.555 -14.953,-39.546 C 263.79,10.8809 119.447,14.4069 45.5808,21.1209 13.592,24.0289 17.478,87.0639 16.8569,120.43 c -0.5169,27.768 0.4448,58.119 11.4189,88.93 9.4468,26.524 44.2989,17.409 75.9712,18.571 56.978,0 160.981,1.883 173.53,-3.125 9.092,-3.629 12.796,-16.972 14.709,-25.575 3.351,-15.069 -0.168,-25.607 11.822,-25.324 6.313,0.149 7.555,5.857 6.592,16.772 -1.001,11.346 -4.393,26.441 -9.128,44.005 -3.421,12.688 -27.012,10.129 -42.628,10.129 C 180.218,242.704 100.45,245.236 24.0554,243.125 1.9155,242.514 1.46946,137.911 0.285625,118.923 -1.10525,96.6069 2.51438,7.01993 21.3615,6.01993 35.3674,5.27692 113.628,0.0309143 159.959,0.0189209 205.016,0.00692749 252.988,1.11093 294.407,7.95792"
           id="path3901" />
        <path
           inkscape:connector-curvature="0"
           style="fill:#ffffff;fill-opacity:1;stroke:none"
           d="m 223.69,24.0759 c 5.487,15.616 -8.019,40.096 12.24,48.537 73.438,12.662 159.117,-14.772 221.582,23.635 16.882,16.4601 29.544,35.4531 37.563,55.7121 l 0,-9.285 c -9.285,-25.746 -28.278,-47.6931 -46.427,-70.0621 5.065,-6.753 10.974,1.266 16.038,3.376 18.571,23.213 37.563,46.8491 44.739,74.7051 1.265,1.688 3.798,5.065 5.908,2.11 l 2.955,-2.954 c -6.331,-29.966 -25.324,-54.4461 -41.362,-80.1921 7.175,-4.643 14.35,3.377 20.259,8.019 12.24,20.259 25.746,40.5181 30.388,64.1531 3.376,2.532 7.597,-2.11 9.285,-5.065 -2.532,-18.571 -8.864,-35.031 -16.461,-50.6471 1.266,-2.11 1.266,-5.065 4.221,-5.065 18.149,9.707 17.727,30.8111 24.057,47.2711 5.909,-0.422 8.863,-18.993 16.46,-8.019 2.532,6.753 -10.129,17.305 2.955,18.149 -6.331,30.388 -39.674,54.024 -68.796,60.777 -15.194,3.376 -35.453,8.018 -46.849,-3.798 2.11,-5.487 9.707,-6.331 15.194,-7.175 33.765,-1.266 65.842,-13.506 86.101,-40.518 l -0.844,-0.844 c -32.077,21.525 -71.75,42.206 -111.424,26.168 -3.376,-0.844 -5.065,-5.487 -2.954,-8.019 0.844,-2.532 -1.688,-3.798 -2.955,-4.221 -67.108,2.954 -137.596,-6.324 -202.593,4.227 -7.13,1.158 -7.934,7.746 -9.284,13.082 -3.414,13.511 5.21,32.647 -2.824,39.846 0,0 -5.936,1.741 -10.256,-0.177 -1.011,-5.609 -4.227,-37.144 2.948,-54.026 9.077,-21.357 89.954,-14.153 113.334,-14.626 42.722,-0.863 92.638,-2.254 132.734,0.701 -11.396,-11.396 -29.122,-11.818 -46.427,-11.396 -54.868,-0.844 -140.604,-0.559 -175.376,-2.466 -51.431,-2.822 -69.842,48.893 -102.341,82.658 l -15.194,0 c 20.259,-28.277 42.097,-60.522 70.062,-85.256 4.509,-3.988 7.645,-4.615 15.194,-6.752 21.025,-5.953 224.959,0.844 224.959,0.844 9.285,2.11 19.415,3.376 28.278,7.174 -5.065,-13.084 -21.525,-16.46 -34.609,-18.147 -73.017,-2.11 -146.877,-0.422 -218.628,-5.065 -19.415,-5.909 -29.544,-29.9661 -44.739,-44.7391 l -32.499,-41.362 16.46,0.844 c 21.103,24.479 35.575,54.506 62.887,73.8601 6.02,4.266 134.602,3.027 202.584,2.954 10.96,-0.012 33.77,7.175 48.542,15.195 2.532,-3.376 -1.688,-6.331 -4.221,-8.863 -30.811,-29.5441 -94.362,-20.3431 -117.328,-20.2641 -40.285,0.14 -88.233,8.522 -121.559,-12.235 -8.141,-5.071 -6.752,-35.875 -2.953,-52.758 l 10.973,0"
           id="path3903" />
        <path
           inkscape:connector-curvature="0"
           style="fill:#ffffff;fill-opacity:1;stroke:none"
           d="m 575.267,153.649 c -7.175,30.389 -29.544,57.822 -57.823,73.017 -17.727,3.799 -40.518,15.616 -54.868,-2.11 9.708,-8.863 27.434,-2.954 38.83,-10.13 29.544,-8.441 53.858,-34.474 68.796,-60.777 1.91,-1.321 3.195,-2.823 5.065,0"
           id="path3905" />
        <path
           inkscape:connector-curvature="0"
           style="fill:#ffffff;fill-opacity:1;stroke:none"
           d="m 584.142,179.84 c -5.065,26.168 -17.727,53.602 -44.739,66.686 -11.818,5.487 -30.388,11.818 -41.362,2.11 l 0,-4.221 c 41.784,1.688 62.887,-42.206 79.77,-71.75 4.643,-0.422 5.065,3.798 6.331,7.175"
           id="path3907" />
        <path
           inkscape:connector-curvature="0"
           style="fill:#ffffff;fill-opacity:1;stroke:none"
           d="m 611.567,280.265 c 19.879,4.224 39.249,-15.615 43.47,10.131 -16.883,8.863 -39.674,6.331 -57.4,1.266 -3.799,7.597 1.688,16.038 0,25.324 -2.532,24.902 -11.818,48.537 -33.765,63.731 -6.357,3.3 -7.677,5.247 -11.431,5.909 1.138,-5.702 1.527,-10.353 2.5,-13.899 4.346,-2.92 23.503,-15.22 24.125,-31.684 9.707,-34.609 -0.844,-68.796 -24.058,-94.12 l 15.194,-13.928 c 8.863,17.726 18.896,42.495 41.364,47.269"
           id="path3909" />
        <path
           inkscape:connector-curvature="0"
           style="fill:#ffffff;fill-opacity:1;stroke:none"
           d="m 542.769,257.054 c 24.479,47.271 1.688,102.561 -4.221,151.098 2.532,18.149 5.065,36.719 20.259,49.381 -1.688,4.221 0.844,14.772 -5.909,12.24 -21.525,-11.396 -28.7,-34.187 -28.278,-57.822 -0.844,-41.784 21.525,-75.127 16.038,-117.333 L 536.86,286.6 c -17.305,18.57 -36.719,41.784 -35.453,70.905 l -11.396,2.11 c -12.662,-40.518 31.655,-63.743 37.564,-100.04 0,0 9.707,-3.786 15.194,-2.521"
           id="path3911" />
      </g>
      <text
         sodipodi:linespacing="125%"
         id="text3926"
         y="470.10266"
         x="794.13159"
         style="font-size:49.64359283px;font-style:normal;font-variant:normal;font-weight:normal;font-stretch:normal;text-align:center;line-height:125%;letter-spacing:0px;word-spacing:0px;text-anchor:middle;fill:#000000;fill-opacity:1;stroke:none;font-family:Courier 10 Pitch;-inkscape-font-specification:Courier 10 Pitch"
         xml:space="preserve"><tspan
           style="font-weight:normal;text-align:center;text-anchor:middle;fill:#ffffff;fill-opacity:1;font-family:TeX Gyre Adventor;-inkscape-font-specification:TeX Gyre Adventor;font-style:normal;font-stretch:normal;font-variant:normal"
           y="470.10266"
           x="794.13159"
           id="tspan3928"
           sodipodi:role="line">www.ccc.de</tspan></text>
    </g>
    <g
       id="plate"
       inkscape:label="#g4303">
      <g
         transform="matrix(2.5833333,0,0,2.5833333,1578,918.86217)"
         inkscape:label="Layer 1"
         id="layer1-2"
         style="stroke:none;stroke-opacity:1">
        <g
           transform="matrix(0.9937807,0,0,0.9936694,-177.69409,-74.436409)"
           id="g287"
           inkscape:export-filename="/mnt/hgfs/Bov/Documents/Work/2007/cc/identity/srr buttons/big/by-sa.png"
           inkscape:export-xdpi="300.23013"
           inkscape:export-ydpi="300.23013"
           style="stroke:none;stroke-opacity:1">
          <path
             inkscape:connector-curvature="0"
             id="path3817_2_"
             nodetypes="ccccccc"
             d="m 182.23532,75.39014 114.06396,0.20312 c 1.59375,0 3.01758,-0.23682 3.01758,3.18018 l -0.13965,37.56689 -119.82031,0 0,-37.70654 c 0,-1.68457 0.16309,-3.24365 2.87842,-3.24365 z"
             style="fill:#aab2ab;stroke:none;stroke-opacity:1" />
          <g
             id="g5908_2_"
             transform="matrix(0.872921,0,0,0.872921,50.12536,143.2144)"
             style="stroke:none;stroke-opacity:1">
            <path
               inkscape:connector-curvature="0"
               id="path5906_2_"
               cx="296.35416"
               ry="22.939548"
               cy="264.3577"
               type="arc"
               rx="22.939548"
               d="m 187.20944,-55.6792 c 0.006,8.68024 -7.02786,15.72095 -15.7081,15.72708 -8.68021,0.005 -15.72205,-7.02786 -15.72708,-15.70804 0,-0.0067 0,-0.01233 0,-0.01904 -0.005,-8.68134 7.02783,-15.72205 15.70807,-15.72711 8.68134,-0.0056 15.72208,7.02789 15.72711,15.70807 0,0.0056 0,0.01233 0,0.01904 z"
               style="fill:#ffffff;stroke:none;stroke-opacity:1" />
            <g
               id="g5706_2_"
               transform="translate(-289.6157,99.0653)"
               style="stroke:none;stroke-opacity:1">
              <path
                 inkscape:connector-curvature="0"
                 id="path5708_2_"
                 d="m 473.88455,-167.54724 c 3.48541,3.48596 5.22839,7.75391 5.22839,12.80273 0,5.04938 -1.7128,9.27148 -5.13834,12.66736 -3.63531,3.5766 -7.93179,5.36432 -12.88947,5.36432 -4.89777,0 -9.11987,-1.77261 -12.6651,-5.31955 -3.54584,-3.54581 -5.31845,-7.78299 -5.31845,-12.71213 0,-4.92859 1.77261,-9.19598 5.31845,-12.80273 3.4552,-3.48651 7.67725,-5.22894 12.6651,-5.22894 5.04829,0 9.31401,1.74243 12.79942,5.22894 z m -23.11798,2.34485 c -2.94675,2.97638 -4.41956,6.46289 -4.41956,10.46234 0,3.99835 1.45828,7.4552 4.37424,10.37067 2.91653,2.9165 6.38849,4.37476 10.41705,4.37476 4.02853,0 7.53018,-1.47281 10.50656,-4.41901 2.8259,-2.73584 4.23941,-6.17706 4.23941,-10.32642 0,-4.11804 -1.43646,-7.61292 -4.30768,-10.48474 -2.87064,-2.87067 -6.34988,-4.30652 -10.43829,-4.30652 -4.08837,0 -7.54638,1.44318 -10.37173,4.32892 z m 7.75449,8.70312 c -0.45032,-0.98163 -1.12433,-1.47223 -2.02325,-1.47223 -1.58914,0 -2.38342,1.06952 -2.38342,3.2085 0,2.13959 0.79428,3.20911 2.38342,3.20911 1.04938,0 1.79895,-0.5213 2.24866,-1.56512 l 2.20276,1.17303 c -1.04993,1.86548 -2.62506,2.79901 -4.72549,2.79901 -1.6199,0 -2.91763,-0.4967 -3.89206,-1.48956 -0.97607,-0.99341 -1.46274,-2.36273 -1.46274,-4.10797 0,-1.71558 0.50229,-3.07709 1.50748,-4.08563 1.00519,-1.00793 2.25705,-1.51251 3.75781,-1.51251 2.22012,0 3.80984,0.87488 4.77081,2.62286 l -2.38398,1.22051 z m 10.36334,0 c -0.45087,-0.98163 -1.11148,-1.47223 -1.98239,-1.47223 -1.62106,0 -2.43213,1.06952 -2.43213,3.2085 0,2.13959 0.81107,3.20911 2.43213,3.20911 1.05103,0 1.78717,-0.5213 2.20724,-1.56512 l 2.25201,1.17303 c -1.04825,1.86548 -2.62119,2.79901 -4.71768,2.79901 -1.61771,0 -2.91263,-0.4967 -3.88647,-1.48956 -0.97217,-0.99341 -1.45938,-2.36273 -1.45938,-4.10797 0,-1.71558 0.49448,-3.07709 1.48288,-4.08563 0.98782,-1.00793 2.24527,-1.51251 3.77347,-1.51251 2.21619,0 3.80368,0.87488 4.76132,2.62286 l -2.431,1.22051 z"
                 style="stroke:none;stroke-opacity:1" />
            </g>
          </g>
          <path
             inkscape:connector-curvature="0"
             d="m 297.29639,74.91064 -116.22951,0 c -1.24658,0 -2.26074,1.01465 -2.26074,2.26123 l 0,39.49561 c 0,0.28174 0.22852,0.51074 0.51025,0.51074 l 119.73,0 c 0.28174,0 0.51074,-0.229 0.51074,-0.51074 l 0,-39.4956 c 0,-1.24659 -1.01416,-2.26124 -2.26074,-2.26124 z m -116.22951,1.02149 116.22951,0 c 0.68359,0 1.23926,0.55615 1.23926,1.23975 0,0 0,15.91943 0,27.41846 l -83.07375,0 c -3.04492,5.50537 -8.91113,9.24365 -15.64355,9.24365 -6.73535,0 -12.6001,-3.73486 -15.64355,-9.24365 l -4.34814,0 c 0,-11.49902 0,-27.41846 0,-27.41846 -2e-5,-0.6836 0.55663,-1.23975 1.24022,-1.23975 z"
             id="path294"
             style="stroke:none;stroke-opacity:1" />
          <g
             enable-background="new    "
             id="g296"
             style="stroke:none;stroke-opacity:1">
            <path
               inkscape:connector-curvature="0"
               d="m 265.60986,112.8833 c 0.0801,0.15576 0.1875,0.28174 0.32129,0.37842 0.13379,0.0962 0.29004,0.16797 0.46973,0.21436 0.18066,0.0469 0.36719,0.0703 0.55957,0.0703 0.12988,0 0.26953,-0.0107 0.41895,-0.0327 0.14844,-0.0215 0.28809,-0.064 0.41895,-0.12598 0.12988,-0.062 0.23926,-0.14795 0.3252,-0.25684 0.0879,-0.10889 0.13086,-0.24707 0.13086,-0.41553 0,-0.18018 -0.0576,-0.32617 -0.17285,-0.43848 -0.11426,-0.1123 -0.26562,-0.20508 -0.45215,-0.28027 -0.18555,-0.0742 -0.39746,-0.13965 -0.63281,-0.1958 -0.23633,-0.0562 -0.47559,-0.11816 -0.71777,-0.18701 -0.24902,-0.062 -0.49121,-0.13818 -0.72754,-0.22852 -0.23535,-0.0898 -0.44727,-0.20703 -0.63379,-0.3501 -0.18652,-0.14307 -0.33691,-0.32178 -0.45215,-0.53662 -0.11426,-0.21484 -0.17188,-0.47461 -0.17188,-0.7793 0,-0.34277 0.0732,-0.63965 0.21875,-0.8916 0.14648,-0.25195 0.33789,-0.46191 0.57422,-0.63037 0.23535,-0.16797 0.50293,-0.29248 0.80176,-0.37354 0.29785,-0.0806 0.59668,-0.12109 0.89453,-0.12109 0.34863,0 0.68262,0.0391 1.00293,0.11719 0.31934,0.0776 0.60449,0.2041 0.85254,0.37842 0.24902,0.17432 0.44629,0.39697 0.59277,0.66797 0.14551,0.271 0.21875,0.59961 0.21875,0.98535 l -1.42188,0 c -0.0127,-0.19922 -0.0547,-0.36426 -0.125,-0.49463 -0.0713,-0.13086 -0.16602,-0.2334 -0.2832,-0.30859 -0.11816,-0.0742 -0.25293,-0.12744 -0.4043,-0.1582 -0.15234,-0.0312 -0.31738,-0.0469 -0.49707,-0.0469 -0.11719,0 -0.23535,0.0127 -0.35254,0.0371 -0.11816,0.0254 -0.22461,0.0688 -0.32031,0.13086 -0.0967,0.0625 -0.17578,0.14014 -0.2373,0.2334 -0.0615,0.0937 -0.0928,0.21191 -0.0928,0.35498 0,0.13086 0.0244,0.23682 0.0742,0.31738 0.0498,0.0811 0.14844,0.15576 0.29395,0.22412 0.14551,0.0684 0.34766,0.13721 0.60547,0.20557 0.25781,0.0684 0.59473,0.15576 1.01172,0.26123 0.12402,0.0249 0.2959,0.0703 0.5166,0.13574 0.2207,0.0654 0.43945,0.16943 0.65723,0.3125 0.21777,0.14355 0.40527,0.33496 0.56445,0.57422 0.1582,0.23975 0.2373,0.54639 0.2373,0.91992 0,0.30518 -0.0596,0.58838 -0.17773,0.84961 -0.11816,0.26172 -0.29395,0.4873 -0.52734,0.67676 -0.2334,0.19043 -0.52246,0.33789 -0.86719,0.44385 -0.3457,0.10596 -0.74609,0.15869 -1.19922,0.15869 -0.36719,0 -0.72363,-0.0454 -1.06934,-0.13574 -0.34473,-0.0903 -0.65039,-0.23242 -0.91504,-0.42578 -0.26367,-0.19336 -0.47363,-0.43994 -0.62988,-0.73877 -0.15527,-0.29932 -0.22949,-0.65381 -0.22363,-1.06494 l 1.42188,0 c -3e-5,0.22412 0.04,0.41406 0.12106,0.56933 z"
               id="path298"
               style="fill:#ffffff;stroke:none;stroke-opacity:1" />
            <path
               inkscape:connector-curvature="0"
               d="m 273.8667,107.8667 2.49316,6.66406 -1.52246,0 -0.50391,-1.48438 -2.49316,0 -0.52246,1.48438 -1.47461,0 2.52051,-6.66406 1.50293,0 z m 0.084,4.08594 -0.83984,-2.44336 -0.0186,0 -0.86914,2.44336 1.72753,0 z"
               id="path300"
               style="fill:#ffffff;stroke:none;stroke-opacity:1" />
          </g>
          <g
             enable-background="new    "
             id="g302"
             style="stroke:none;stroke-opacity:1">
            <path
               inkscape:connector-curvature="0"
               d="m 239.17821,107.8667 c 0.31738,0 0.60742,0.0283 0.86914,0.084 0.26172,0.0561 0.48633,0.14795 0.67383,0.27539 0.18652,0.12744 0.33203,0.29688 0.43457,0.5083 0.10254,0.21142 0.1543,0.47266 0.1543,0.78369 0,0.33594 -0.0762,0.61523 -0.22949,0.83936 -0.15234,0.22412 -0.37891,0.40723 -0.67773,0.55029 0.41211,0.11816 0.71973,0.3252 0.92285,0.62109 0.20312,0.29589 0.30469,0.65234 0.30469,1.06934 0,0.33594 -0.0654,0.62695 -0.19629,0.87305 -0.13086,0.24561 -0.30762,0.44629 -0.52832,0.60205 -0.22168,0.15576 -0.47461,0.271 -0.75781,0.34521 -0.28418,0.0752 -0.5752,0.1123 -0.875,0.1123 l -3.23633,0 0,-6.66406 3.14159,0 0,1e-5 z m -0.1875,2.69531 c 0.26172,0 0.47656,-0.062 0.64551,-0.18604 0.16797,-0.12451 0.25195,-0.32568 0.25195,-0.60498 0,-0.15527 -0.0283,-0.28271 -0.084,-0.38184 -0.0566,-0.0996 -0.13086,-0.17676 -0.22461,-0.23291 -0.0937,-0.0557 -0.20117,-0.0947 -0.32227,-0.11621 -0.12207,-0.022 -0.24805,-0.0327 -0.37891,-0.0327 l -1.37305,0 0,1.55469 1.48536,0 z m 0.0859,2.82813 c 0.14355,0 0.28027,-0.0137 0.41113,-0.042 0.13086,-0.0278 0.24707,-0.0747 0.34668,-0.13965 0.0996,-0.0654 0.17871,-0.1543 0.23828,-0.26611 0.0596,-0.11181 0.0889,-0.25488 0.0889,-0.4292 0,-0.3418 -0.0967,-0.58594 -0.29004,-0.73193 -0.19336,-0.14599 -0.44922,-0.21924 -0.7666,-0.21924 l -1.59961,0 0,1.82812 1.57129,0 z"
               id="path304"
               style="fill:#ffffff;stroke:none;stroke-opacity:1" />
            <path
               inkscape:connector-curvature="0"
               d="m 241.88914,107.8667 1.64355,0 1.56055,2.63184 1.55078,-2.63184 1.63379,0 -2.47363,4.10645 0,2.55762 -1.46875,0 0,-2.59473 -2.44629,-4.06934 z"
               id="path306"
               style="fill:#ffffff;stroke:none;stroke-opacity:1" />
          </g>
          <g
             id="g6316_1_"
             transform="matrix(0.624995,0,0,0.624995,391.2294,176.9332)"
             style="stroke:none;stroke-opacity:1">
            <path
               inkscape:connector-curvature="0"
               id="path6318_1_"
               cx="475.97119"
               ry="29.209877"
               cy="252.08646"
               type="arc"
               rx="29.209877"
               d="m -175.0083,-139.1153 c 0.006,9.4118 -7.61725,17.04779 -17.02982,17.05481 -9.41101,0.007 -17.047,-7.61725 -17.05481,-17.02979 0,-0.008 0,-0.0172 0,-0.025 -0.006,-9.41254 7.6188,-17.047 17.02982,-17.05481 9.41257,-0.007 17.04855,7.61804 17.05481,17.02985 0,0.009 0,0.0164 0,0.025 z"
               style="fill:#ffffff;stroke:none;stroke-opacity:1" />
            <g
               id="g6320_1_"
               transform="translate(-23.9521,-89.72962)"
               style="stroke:none;stroke-opacity:1">
              <path
                 inkscape:connector-curvature="0"
                 id="path6322_1_"
                 d="m -168.2204,-68.05536 c -5.17194,0 -9.54852,1.80469 -13.13135,5.41333 -3.67661,3.73444 -5.51413,8.1532 -5.51413,13.25635 0,5.10315 1.83752,9.49152 5.51413,13.1626 3.67502,3.67194 8.05316,5.50787 13.13135,5.50787 5.14066,0 9.59537,-1.85156 13.36728,-5.55475 3.55005,-3.51562 5.3266,-7.88831 5.3266,-13.11572 0,-5.22662 -1.8078,-9.64697 -5.42191,-13.25635 -3.61407,-3.60864 -8.03756,-5.41333 -13.27197,-5.41333 z m 0.0469,3.36017 c 4.23752,0 7.836,1.49298 10.79697,4.48053 2.98907,2.9563 4.48441,6.56567 4.48441,10.82898 0,4.29382 -1.46252,7.85712 -4.39224,10.68915 -3.08438,3.04926 -6.71411,4.57349 -10.88913,4.57349 -4.17505,0 -7.7735,-1.5094 -10.79541,-4.52661 -3.02188,-3.01953 -4.53284,-6.59692 -4.53284,-10.73602 0,-4.13831 1.52658,-7.74847 4.57971,-10.82898 2.92815,-2.98756 6.51098,-4.48054 10.74853,-4.48054 z"
                 style="stroke:none;stroke-opacity:1" />
              <path
                 inkscape:connector-curvature="0"
                 id="path6324_1_"
                 d="m -176.49548,-52.02087 c 0.74377,-4.69769 4.05161,-7.20862 8.1954,-7.20862 5.96097,0 9.59225,4.32501 9.59225,10.09229 0,5.62738 -3.86411,9.99927 -9.686,9.99927 -4.00473,0 -7.58914,-2.46484 -8.24228,-7.30084 l 4.70319,0 c 0.14062,2.51099 1.77032,3.39459 4.09845,3.39459 2.65317,0 4.37817,-2.4649 4.37817,-6.23291 0,-3.95233 -1.49063,-6.04535 -4.28598,-6.04535 -2.04846,0 -3.8172,0.74457 -4.19064,3.30157 l 1.36874,-0.007 -3.70316,3.7016 -3.7016,-3.7016 1.47346,0.007 z"
                 style="stroke:none;stroke-opacity:1" />
            </g>
          </g>
          <g
             id="g313"
             style="stroke:none;stroke-opacity:1">
            <circle
               cx="242.56226"
               cy="90.224609"
               r="10.8064"
               id="circle315"
               style="fill:#ffffff;stroke:none;stroke-opacity:1" />
            <g
               id="g317"
               style="stroke:none;stroke-opacity:1">
              <path
                 inkscape:connector-curvature="0"
                 d="m 245.68994,87.09766 c 0,-0.4165 -0.33789,-0.75342 -0.75391,-0.75342 l -4.77246,0 c -0.41602,0 -0.75391,0.33691 -0.75391,0.75342 l 0,4.77295 1.33105,0 0,5.65234 3.61719,0 0,-5.65234 1.33203,0 0,-4.77295 1e-5,0 z"
                 id="path319"
                 style="stroke:none;stroke-opacity:1" />
              <circle
                 cx="242.5498"
                 cy="84.083008"
                 r="1.63232"
                 id="circle321"
                 style="stroke:none;stroke-opacity:1" />
            </g>
            <path
               inkscape:connector-curvature="0"
               d="m 242.53467,78.31836 c -3.23145,0 -5.96826,1.12744 -8.20752,3.38379 -2.29785,2.33301 -3.44629,5.09521 -3.44629,8.28418 0,3.18897 1.14844,5.93213 3.44629,8.22705 2.29785,2.29443 5.03418,3.44189 8.20752,3.44189 3.21289,0 5.99805,-1.15674 8.35352,-3.47168 2.2207,-2.19678 3.33008,-4.92969 3.33008,-8.19727 0,-3.26758 -1.12891,-6.02881 -3.3877,-8.28418 -2.25879,-2.25634 -5.02442,-3.38378 -8.2959,-3.38378 z m 0.0293,2.09961 c 2.64844,0 4.89746,0.93359 6.74707,2.80078 1.87012,1.84717 2.80469,4.10352 2.80469,6.76758 0,2.68359 -0.91504,4.91113 -2.74609,6.68066 -1.92773,1.90576 -4.19629,2.8584 -6.80566,2.8584 -2.60937,0 -4.8584,-0.94287 -6.74658,-2.82959 -1.88965,-1.88623 -2.8335,-4.12256 -2.8335,-6.70947 0,-2.58643 0.9541,-4.84229 2.8623,-6.76758 1.83057,-1.86719 4.07031,-2.80078 6.71777,-2.80078 z"
               id="path323"
               style="clip-rule:evenodd;fill-rule:evenodd;stroke:none;stroke-opacity:1" />
          </g>
        </g>
      </g>
      <text
         sodipodi:linespacing="559.99999%"
         id="text3433"
         y="911.44232"
         x="1634.3564"
         style="font-style:normal;font-weight:normal;font-size:40px;line-height:559.99999046%;font-family:Sans;letter-spacing:0px;word-spacing:0px;fill:#000000;fill-opacity:1;stroke:none;stroke-width:1px;stroke-linecap:butt;stroke-linejoin:miter;stroke-opacity:1"
         xml:space="preserve"><tspan
           style="font-style:normal;font-variant:normal;font-weight:bold;font-stretch:normal;font-size:25px;line-height:559.99999046%;font-family:'TeX Gyre Adventor';-inkscape-font-specification:'TeX Gyre Adventor Bold';text-align:start;writing-mode:lr-tb;text-anchor:start;fill:#ffffff;fill-opacity:1;stroke:none;stroke-opacity:1"
           y="911.44232"
           x="1634.3564"
           id="tspan3435"
           sodipodi:role="line">CC-BY-SA 4.0 DE</tspan></text>
    </g>
  </g>
</svg>
