<?xml version="1.0" encoding="UTF-8" standalone="no"?>
<!-- Created with Inkscape (http://www.inkscape.org/) -->

<svg
   xmlns:dc="http://purl.org/dc/elements/1.1/"
   xmlns:cc="http://creativecommons.org/ns#"
   xmlns:rdf="http://www.w3.org/1999/02/22-rdf-syntax-ns#"
   xmlns:svg="http://www.w3.org/2000/svg"
   xmlns="http://www.w3.org/2000/svg"
   xmlns:xlink="http://www.w3.org/1999/xlink"
   xmlns:sodipodi="http://sodipodi.sourceforge.net/DTD/sodipodi-0.dtd"
   xmlns:inkscape="http://www.inkscape.org/namespaces/inkscape"
   width="1920"
   height="1080"
   viewBox="0 0 507.99998 285.75001"
   version="1.1"
   id="svg12214"
   inkscape:version="0.92.4 5da689c313, 2019-01-14"
   sodipodi:docname="pause.svg">
  <defs
     id="defs12208">
    <style
       id="style13392">
      .a {
        fill: none;
      }

      .au, .av, .b, .d, .h, .l, .o, .r, .t {
        fill: #fff;
      }

      .c, .f, .p {
        fill: #575756;
      }

      .au, .av, .c, .h, .l, .o {
        stroke-linecap: round;
      }

      .au, .av, .c, .d, .h, .o, .p {
        stroke-width: 0.05px;
      }

      .c {
        stroke: url(#a);
      }

      .d, .l, .p {
        stroke: #fff;
      }

      .e {
        fill: #d73534;
      }

      .h {
        stroke: url(#c);
      }

      .i, .n {
        fill: #999696;
      }

      .k {
        fill: #333;
      }

      .l {
        stroke-linejoin: round;
        stroke-width: 13.8697px;
      }

      .m {
        fill: #d93636;
      }

      .m, .n {
        fill-rule: evenodd;
      }

      .o {
        stroke: url(#f);
      }

      .p {
        opacity: 0.56;
      }

      .p, .r, .s, .t {
        isolation: isolate;
      }

      .q {
        fill: #35343a;
      }

      .r {
        font-size: 89.6538px;
        font-family: BarlowCondensed-SemiBold, Barlow Condensed;
        font-weight: 600;
      }

      .t {
        font-size: 26.29948px;
        font-family: BarlowCondensed-Light, Barlow Condensed;
        font-weight: 300;
      }

      .u {
        letter-spacing: -0.008em;
      }

      .v {
        letter-spacing: 0.00002em;
      }

      .w {
        letter-spacing: 0.016em;
      }

      .x {
        fill: url(#g);
      }

      .y {
        fill: url(#h);
      }

      .z {
        fill: url(#i);
      }

      .aa {
        fill: url(#j);
      }

      .ab {
        fill: url(#k);
      }

      .ac {
        fill: url(#l);
      }

      .ad {
        fill: url(#m);
      }

      .ae {
        fill: url(#n);
      }

      .af {
        fill: url(#o);
      }

      .ag {
        fill: url(#p);
      }

      .ah {
        fill: url(#q);
      }

      .ai {
        fill: url(#r);
      }

      .aj {
        fill: url(#s);
      }

      .ak {
        fill: url(#t);
      }

      .al {
        fill: url(#u);
      }

      .am {
        fill: url(#v);
      }

      .an {
        fill: url(#w);
      }

      .ao {
        fill: url(#x);
      }

      .ap {
        fill: url(#y);
      }

      .aq {
        fill: url(#z);
      }

      .ar {
        fill: url(#aa);
      }

      .as {
        fill: url(#ab);
      }

      .at {
        fill: url(#ac);
      }

      .au {
        stroke: url(#ad);
      }

      .av {
        stroke: url(#af);
      }
    </style>
    <linearGradient
       gradientUnits="userSpaceOnUse"
       y2="388.34813"
       x2="1741.78707"
       y1="388.34813"
       x1="633.6034"
       id="a">
      <stop
         id="stop13394"
         stop-color="#fff"
         offset="0" />
      <stop
         id="stop13396"
         offset="1" />
    </linearGradient>
    <clipPath
       id="b">
      <path
         id="path13399"
         d="M-475.20789,80.434a292.24133,292.24133,0,0,0-207.4,86.2,292.72491,292.72491,0,0,0,0,414.7l162.9,165.9c11.5,11.4,26.9,35.7,43.1,36.1,17,.3,33.4-23.9,45.5-35.8l163.2-166.2a292.54509,292.54509,0,0,0,0-414.7A292.01439,292.01439,0,0,0-475.20789,80.434Z"
         class="a" />
    </clipPath>
    <linearGradient
       xlink:href="#a"
       gradientTransform="matrix(0.9861,0.1663,0.1663,-0.9861,-70.55109,964.47628)"
       y2="669.12903"
       x2="694.41678"
       y1="669.12903"
       x1="123.38773"
       id="c" />
    <clipPath
       id="e">
      <path
         id="path13403"
         d="M379.15634,46.35452a293.55026,293.55026,0,0,0-207.4,500.9l162.9,165.9c11.5,11.4,26.9,35.7,43.1,36.1,17,.3,33.4-23.9,45.5-35.8l163.2-166.2a293.5504,293.5504,0,0,0-207.3-500.9Z"
         class="a" />
    </clipPath>
    <linearGradient
       xlink:href="#a"
       gradientTransform="matrix(2.7952,0.4715,-0.4715,2.7952,2477.8694,675.36602)"
       y2="-16.5187"
       x2="-643.45039"
       y1="-16.5187"
       x1="-854.47459"
       id="f" />
    <linearGradient
       gradientUnits="userSpaceOnUse"
       gradientTransform="translate(3049.05526 162.04287) rotate(2.09103) scale(3.29429)"
       y2="69.62393"
       x2="-850.48263"
       y1="69.62393"
       x1="-852.37475"
       id="g">
      <stop
         id="stop13407"
         stop-color="#262626"
         offset="0" />
      <stop
         id="stop13409"
         offset="1" />
    </linearGradient>
    <linearGradient
       xlink:href="#g"
       y2="69.6427"
       x2="-846.81926"
       y1="69.6427"
       x1="-848.71137"
       id="h" />
    <linearGradient
       xlink:href="#g"
       y2="72.47988"
       x2="-850.48227"
       y1="72.47988"
       x1="-852.37438"
       id="i" />
    <linearGradient
       xlink:href="#g"
       y2="72.46721"
       x2="-846.81963"
       y1="72.46721"
       x1="-848.71174"
       id="j" />
    <linearGradient
       xlink:href="#g"
       gradientTransform="matrix(3.2935962,0.06857349,-0.06857349,3.2935962,3047.0419,107.88311)"
       y2="67.63049"
       x2="-833.76251"
       y1="67.63049"
       x1="-836.8722"
       id="k" />
    <linearGradient
       xlink:href="#g"
       gradientTransform="matrix(3.2935962,0.06857349,-0.06857349,3.2935962,3047.0419,107.88311)"
       y2="70.78866"
       x2="-833.76251"
       y1="70.78866"
       x1="-836.8722"
       id="l" />
    <linearGradient
       xlink:href="#g"
       gradientTransform="matrix(3.2941953,-0.02362894,0.02362894,3.2941953,3033.189,9.67815)"
       y2="85.57686"
       x2="-810.57792"
       y1="85.57686"
       x1="-813.4304"
       id="m" />
    <linearGradient
       xlink:href="#g"
       gradientTransform="matrix(3.2941953,-0.02362894,0.02362894,3.2941953,3033.189,9.67815)"
       y2="85.58613"
       x2="-805.04792"
       y1="85.58613"
       x1="-807.9004"
       id="n" />
    <linearGradient
       xlink:href="#g"
       gradientTransform="matrix(3.2941953,-0.02362894,0.02362894,3.2941953,3033.189,9.67815)"
       y2="88.43043"
       x2="-810.57705"
       y1="88.43043"
       x1="-813.42953"
       id="o" />
    <linearGradient
       xlink:href="#g"
       gradientTransform="matrix(3.2941953,-0.02362894,0.02362894,3.2941953,3033.189,9.67815)"
       y2="88.40936"
       x2="-805.04792"
       y1="88.40936"
       x1="-807.9004"
       id="p" />
    <linearGradient
       xlink:href="#g"
       gradientTransform="matrix(3.2881003,0.20249998,-0.20249998,3.2881003,3054.1581,283.12476)"
       y2="59.28777"
       x2="-781.59244"
       y1="59.28777"
       x1="-782.46264"
       id="q" />
    <linearGradient
       xlink:href="#g"
       gradientTransform="matrix(3.2881003,0.20249998,-0.20249998,3.2881003,3054.1581,283.12476)"
       y2="59.27417"
       x2="-779.90634"
       y1="59.27417"
       x1="-780.77654"
       id="r" />
    <linearGradient
       xlink:href="#g"
       gradientTransform="matrix(3.2881003,0.20249998,-0.20249998,3.2881003,3054.1581,283.12476)"
       y2="61.61394"
       x2="-781.59244"
       y1="61.61394"
       x1="-782.46264"
       id="s" />
    <linearGradient
       xlink:href="#g"
       gradientTransform="matrix(3.2881003,0.20249998,-0.20249998,3.2881003,3054.1581,283.12476)"
       y2="61.63251"
       x2="-779.90634"
       y1="61.63251"
       x1="-780.77654"
       id="t" />
    <linearGradient
       xlink:href="#g"
       gradientTransform="matrix(3.2943,0.01705,-0.01705,3.2943,3036.8355,83.77445)"
       y2="83.52028"
       x2="-763.07314"
       y1="83.52028"
       x1="-766.86144"
       id="u" />
    <linearGradient
       xlink:href="#g"
       gradientTransform="matrix(3.2943,0.01705,-0.01705,3.2943,3036.8355,83.77445)"
       y2="83.52299"
       x2="-757.71752"
       y1="83.52299"
       x1="-761.50582"
       id="v" />
    <linearGradient
       xlink:href="#g"
       gradientTransform="matrix(3.293,0.09362,-0.09362,3.293,3048.8869,154.56862)"
       y2="69.98568"
       x2="-794.45034"
       y1="69.98568"
       x1="-796.35604"
       id="w" />
    <linearGradient
       xlink:href="#g"
       gradientTransform="matrix(3.293,0.09362,-0.09362,3.293,3048.8869,154.56862)"
       y2="69.8163"
       x2="-790.62095"
       y1="69.8163"
       x1="-792.52664"
       id="x" />
    <linearGradient
       xlink:href="#g"
       gradientTransform="matrix(3.293,0.09362,-0.09362,3.293,3048.8869,154.56862)"
       y2="61.53758"
       x2="-791.93164"
       y1="61.53758"
       x1="-794.77424"
       id="y" />
    <linearGradient
       xlink:href="#g"
       gradientTransform="matrix(3.2943,0.01705,-0.01705,3.2943,3036.8355,83.77445)"
       y2="86.67716"
       x2="-763.06952"
       y1="86.67716"
       x1="-766.85782"
       id="z" />
    <linearGradient
       xlink:href="#g"
       gradientTransform="matrix(3.2943,0.01705,-0.01705,3.2943,3036.8355,83.77445)"
       y2="86.67987"
       x2="-757.71424"
       y1="86.67987"
       x1="-761.50253"
       id="aa" />
    <linearGradient
       xlink:href="#g"
       gradientTransform="matrix(3.2941953,-0.02362894,0.02362894,3.2941953,3033.189,9.67815)"
       y2="85.59904"
       x2="-815.96018"
       y1="85.59904"
       x1="-818.81266"
       id="ab" />
    <linearGradient
       xlink:href="#g"
       gradientTransform="matrix(3.2941953,-0.02362894,0.02362894,3.2941953,3033.189,9.67815)"
       y2="88.42225"
       x2="-815.96292"
       y1="88.42225"
       x1="-818.8154"
       id="ac" />
    <linearGradient
       xlink:href="#a"
       gradientTransform="matrix(0.9861,0.1663,0.1663,-0.9861,-70.55109,964.47628)"
       y2="657.19134"
       x2="634.12678"
       y1="657.19134"
       x1="63.09772"
       id="ad" />
    <linearGradient
       xlink:href="#a"
       gradientTransform="matrix(0.73098776,0.1233045,-0.1233045,0.73098776,653.73294,188.33678)"
       y2="-12.22833"
       x2="-621.28256"
       y1="-12.22833"
       x1="-637.67338"
       id="af" />
    <linearGradient
       inkscape:collect="always"
       xlink:href="#g"
       id="linearGradient14270"
       gradientUnits="userSpaceOnUse"
       gradientTransform="matrix(3.2920964,0.12019961,-0.12019961,3.2920964,3049.0553,162.04287)"
       x1="-852.37475"
       y1="69.62393"
       x2="-850.48263"
       y2="69.62393" />
  </defs>
  <sodipodi:namedview
     id="base"
     pagecolor="#ffffff"
     bordercolor="#666666"
     borderopacity="1.0"
     inkscape:pageopacity="0.0"
     inkscape:pageshadow="2"
     inkscape:zoom="0.24748737"
     inkscape:cx="922.34017"
     inkscape:cy="745.06419"
     inkscape:document-units="px"
     inkscape:current-layer="layer2"
     showgrid="false"
     units="px"
     inkscape:window-width="1366"
     inkscape:window-height="713"
     inkscape:window-x="0"
     inkscape:window-y="31"
     inkscape:window-maximized="1" />
  <metadata
     id="metadata12211">
    <rdf:RDF>
      <cc:Work
         rdf:about="">
        <dc:format>image/svg+xml</dc:format>
        <dc:type
           rdf:resource="http://purl.org/dc/dcmitype/StillImage" />
        <dc:title />
      </cc:Work>
    </rdf:RDF>
  </metadata>
  <g
     inkscape:groupmode="layer"
     id="layer3"
     inkscape:label="background">
    <rect
       style="opacity:0.98999999;fill:#ffffff;fill-opacity:1;stroke:none;stroke-width:1.20275104;stroke-linecap:butt;stroke-linejoin:miter;stroke-miterlimit:4;stroke-dasharray:none;stroke-dashoffset:0;stroke-opacity:1"
       id="rect1141"
       width="508"
       height="285.75"
       x="0"
       y="6.2500038e-07" />
  </g>
  <g
     inkscape:groupmode="layer"
     id="layer2"
     inkscape:label="logo">
    <g
       id="g13682"
       transform="matrix(0.26151537,0,0,0.26151537,5.7320114,11.718188)">
      <g
         class="g"
         clip-path="url(#b)"
         id="g13676">
        <path
           style="fill:#ffffff;stroke:#ffffff;stroke-width:0.05px"
           inkscape:connector-curvature="0"
           class="d"
           d="m 573.07339,384.37211 c -18.6,-0.4 -76.2,0.2 -108.9,1.5 -50,1.2 -84.1,-4.9 -116.8,-4.1 -169.6,5.7 -179.9,-4.1 -245.5,-1.1 -25.2,0.9 -96.1,0.3 -122.4,0 1,3.5 2.1,6.9 3.1,9.9 0.3,0.9 10.6,1.5 10.9,2.4 0.1,0.4 0.3,0.8 0.4,1.2 l 0.6,1.5 a 6.11793,6.11793 0 0 0 0.5,1.2 l 0.6,1.5 0.9,2.4 0.6,1.5 c 0.2,0.4 0.3,0.9 0.5,1.3 0.2,0.5 0.4,1 0.6,1.4 0.2,0.5 0.4,0.9 0.6,1.4 0.2,0.5 0.4,0.9 0.6,1.4 v 0 c 0.3,0.8 0.7,1.6 1,2.4 0.2,0.5 0.4,0.9 0.6,1.4 0.2,0.5 0.4,1 0.6,1.4 0.2,0.4 0.4,0.9 0.6,1.3 0.2,0.5 0.4,0.9 0.6,1.4 0.2,0.4 0.4,0.9 0.6,1.3 v 0 c 0.4,0.8 0.7,1.6 1.1,2.4 0.2,0.4 0.4,0.9 0.6,1.3 0.2,0.5 0.5,1 0.7,1.5 l 0.6,1.2 c 0.3,0.6 0.6,1.2 0.9,1.7 a 9.29185,9.29185 0 0 1 0.5,1 c 0.4,0.9 0.9,1.7 1.3,2.6 0.2,0.3 0.3,0.7 0.5,1 q 0.45,0.9 0.9,1.8 c 0.2,0.4 0.4,0.7 0.6,1.1 0.4,0.7 0.7,1.4 1.1,2.1 l 0.3,0.6 c 0.5,0.9 1,1.7 1.5,2.6 0.2,0.3 0.4,0.7 0.6,1 0.3,0.6 0.7,1.2 1,1.8 a 4.05352,4.05352 0 0 1 0.5,0.9 23.92261,23.92261 0 0 0 1.3,2.1 l 0.3,0.6 v 0 c 0.5,0.9 1,1.7 1.6,2.6 a 9.22242,9.22242 0 0 1 0.5,0.8 c 0.4,0.6 0.8,1.3 1.2,1.9 l 0.6,0.9 c 0.5,0.8 1,1.5 1.5,2.3 a 0.51955,0.51955 0 0 1 0.2,0.4 v 0 c 0.6,0.9 1.2,1.7 1.7,2.6 0.2,0.2 0.3,0.5 0.5,0.7 a 24.2608,24.2608 0 0 0 1.4,2 c 0.2,0.3 0.3,0.5 0.5,0.8 0.6,0.9 1.2,1.7 1.8,2.6 l -9.6,17.4 c 12,4 65.8,2.4 89.8,22.2 13.3,9 22,43.1 23.5,45.5 5.3,11.7 16.1,10.3 35.4,0.7 8.4,-37.7 41.6,-57.2 68.1,-62.9 20.3,-4.4 52.1,-1 61.6,3.3 33.6,15.2 48.4,36.2 52.1,45.8 6.5,14.6 7.8,15.2 13.3,17.4 10.4,4.2 26.9,-0.5 31.1,-7.1 7.4,-18 6.3,-38.1 20.1,-48.9 7.5,-7.3 -1.2,-10.9 35.9,-17.2 10.3,-1.7 60.1,1.4 68.5,3.8 0.6,-0.7 1.3,-1.4 1.9,-2.2 a 5.49481,5.49481 0 0 0 0.7,-0.9 c 0.5,-0.6 0.9,-1.1 1.4,-1.7 0.6,-0.8 1.3,-1.6 1.8,-2.2 v 0 a 19.20709,19.20709 0 0 0 1.3,-1.7 c 0.2,-0.2 0.3,-0.4 0.5,-0.6 v 0 l 30.3,-47.9 c 0.1,-0.2 0.2,-0.3 0.2,-0.5 q 0.3,-0.6 0.6,-1.2 c 0.7,-1.4 1.3,-2.8 2,-4.2 q 0.6,-1.35 1.2,-2.7 c 0.4,-1 0.9,-1.9 1.3,-2.9 0.4,-0.8 0.7,-1.7 1.1,-2.5 0.7,-1.6 1.3,-3.1 2,-4.7 0.1,-0.3 0.2,-0.5 0.3,-0.8 a 24.4181,24.4181 0 0 1 1,-2.4 c 0.6,-1.5 1.2,-3 1.7,-4.5 0.2,-0.5 0.4,-1.1 0.6,-1.6 0.4,-1.1 0.8,-2.2 1.2,-3.2 0.1,-0.2 0.1,-0.3 0.2,-0.5 0.7,-2 1.3,-4 2,-5.9 v 0 c 0.2,-0.69983 0.5,-1.69983 0.8,-2.69983 z"
           id="path13672" />
        <path
           style="fill:#ffffff;stroke:url(#c);stroke-width:0.05px;stroke-linecap:round"
           inkscape:connector-curvature="0"
           class="h"
           d="m 165.59354,367.109 c 105.7,4.6 86.3,-2.6 143.8,0.3 62.4,3.2 55.6,0.1 69.8,2.5 14.2,2.4 65.9,-0.6 100.5,-0.2 34.2,0.4 76,-1.8 112.4,-1 27.8,0.6 73.7,1.4 73.7,1.4 l 60.8,1 -2.2,6.1 -392.2,1.1 -168.99993,-3.8 z"
           id="path13674" />
      </g>
      <g
         class="g"
         clip-path="url(#b)"
         id="g13680">
        <polyline
           style="fill:#999696"
           class="i"
           points="-41.608 431.834 -12.808 428.834 -8.708 425.634 -1.208 421.134 2.292 415.334 -3.008 410.834 -62.508 406.434"
           id="polyline13678" />
      </g>
    </g>
    <g
       id="logo"
       transform="translate(149.26969,44.60119)">
      <path
         id="path13684"
         d="M 104.73031,20.780878 A 79.566093,79.566093 0 0 0 48.504508,156.55966 l 44.169946,44.98064 c 3.112033,3.08588 7.296279,9.67607 11.689736,9.78068 4.60267,0.0785 9.04843,-6.48558 12.34353,-9.70222 l 44.2484,-45.0591 A 79.566106,79.566106 0 0 0 104.73031,20.780878 Z"
         class="b"
         inkscape:connector-curvature="0"
         style="fill:#ffffff;stroke-width:0.26151538" />
      <g
         transform="matrix(0.26151537,0,0,0.26151537,5.7320114,11.718188)"
         id="g13860">
        <g
           id="g13854"
           clip-path="url(#e)"
           class="j">
          <path
             id="path13686"
             d="m 673.55631,416.0545 -572.3,2.8 a 273.4353,273.4353 0 0 0 33,61.5 l 9.1,12.7 488.6,-2.3 a 278.88915,278.88915 0 0 0 41.6,-74.7 z"
             class="k"
             inkscape:connector-curvature="0"
             style="fill:#333333" />
          <path
             id="path13688"
             d="m 656.75632,446.65451 c -0.2,-0.1 -0.4,0 -0.6,0.2 h 0.9 c -0.1,-0.1 -0.2,-0.1 -0.30005,-0.2 z m -0.6,0.2 -540.7,3.2 a 301.786,301.786 0 0 0 18.7,30.3 l 12.6,17.8 c 3,0.4 35.6,0.4 41.2,1.8 19.3,8.9 33.7,19.5 50.1,29.4 l 21.5,37.4 c 0.6,5.2 10.7,4.4 11.2,-0.2 18.6,-37.3 46.6,-64.8 111,-69.5 50,14.7 63.3,43.1 84.8,68.3 -0.3,2.6 7.9,4.7 9.8,-0.1 23.6,-53.7 88.7,-62 131,-70.8 l 18.3,0.8 a 2.63453,2.63453 0 0 0 2.1,0.3 c 4.1,-5 8.1,-10.2 11.8,-15.4 7.00007,-13.50006 13.6001,-31.3 16.6001,-33.3 z"
             class="k"
             inkscape:connector-curvature="0"
             style="fill:#333333" />
          <path
             id="path13690"
             d="m 379.15634,46.35452 a 293.55026,293.55026 0 0 0 -207.4,500.9 l 162.9,165.9 c 11.5,11.4 26.9,35.7 43.1,36.1 17,0.3 33.4,-23.9 45.5,-35.8 l 163.2,-166.2 a 293.5504,293.5504 0 0 0 -207.3,-500.9 z"
             class="f"
             inkscape:connector-curvature="0"
             style="fill:#575756" />
          <path
             id="path13692"
             d="m 101.75633,477.25452 232.9,235.9 c 11.5,11.4 26.9,35.7 43.1,36.1 17,0.3 33.4,-23.9 45.5,-35.8 l 230.8,-223.8"
             class="e"
             inkscape:connector-curvature="0"
             style="fill:#d73534" />
          <path
             id="path13694"
             d="m 678.05631,402.65451 c -18.6,-0.4 -76.2,0.2 -108.9,1.5 -50,1.2 -84.1,-4.9 -116.8,-4.1 -169.6,5.7 -179.9,-4.1 -245.5,-1.1 -25.2,0.9 -96.1,0.3 -122.4,0 1,3.5 2.1,6.9 3.1,9.9 0.3,0.9 10.6,1.5 10.9,2.4 0.1,0.4 0.3,0.8 0.4,1.2 l 0.6,1.5 a 6.11793,6.11793 0 0 0 0.5,1.2 l 0.6,1.5 0.9,2.4 0.6,1.5 c 0.2,0.4 0.3,0.9 0.5,1.3 0.2,0.5 0.4,1 0.6,1.4 0.2,0.5 0.4,0.9 0.6,1.4 0.2,0.5 0.4,0.9 0.6,1.4 v 0 c 0.3,0.8 0.7,1.6 1,2.4 0.2,0.5 0.4,0.9 0.6,1.4 0.2,0.5 0.4,1 0.6,1.4 0.2,0.4 0.4,0.9 0.6,1.3 0.2,0.5 0.4,0.9 0.6,1.4 0.2,0.4 0.4,0.9 0.6,1.3 v 0 c 0.4,0.8 0.7,1.6 1.1,2.4 0.2,0.4 0.4,0.9 0.6,1.3 0.2,0.5 0.5,1 0.7,1.5 l 0.6,1.2 c 0.3,0.6 0.6,1.2 0.9,1.7 a 9.29185,9.29185 0 0 1 0.5,1 c 0.4,0.9 0.9,1.7 1.3,2.6 0.2,0.3 0.3,0.7 0.5,1 q 0.45,0.9 0.9,1.8 c 0.2,0.4 0.4,0.7 0.6,1.1 0.4,0.7 0.7,1.4 1.1,2.1 l 0.3,0.6 c 0.5,0.9 1,1.7 1.5,2.6 0.2,0.3 0.4,0.7 0.6,1 0.3,0.6 0.7,1.2 1,1.8 a 4.05371,4.05371 0 0 1 0.5,0.9 23.92408,23.92408 0 0 0 1.3,2.1 l 0.3,0.6 v 0 c 0.5,0.9 1,1.7 1.6,2.6 a 9.22488,9.22488 0 0 1 0.5,0.8 c 0.4,0.6 0.8,1.3 1.2,1.9 l 0.6,0.9 c 0.5,0.8 1,1.5 1.5,2.3 a 0.51961,0.51961 0 0 1 0.2,0.4 v 0 c 0.6,0.9 1.2,1.7 1.7,2.6 0.2,0.2 0.3,0.5 0.5,0.7 a 24.25989,24.25989 0 0 0 1.4,2 c 0.2,0.3 0.3,0.5 0.5,0.8 0.6,0.9 1.2,1.7 1.8,2.6 l -9.6,17.4 c 12,4 65.8,2.4 89.8,22.2 13.3,9 22,43.1 23.5,45.5 5.3,11.7 16.1,10.3 35.4,0.7 8.4,-37.7 41.6,-57.2 68.1,-62.9 20.3,-4.4 52.1,-1 61.6,3.3 33.6,15.2 48.4,36.2 52.1,45.8 6.5,14.6 7.8,15.2 13.3,17.4 10.4,4.2 26.9,-0.5 31.1,-7.1 7.4,-18 6.3,-38.1 20.1,-48.9 7.5,-7.3 -1.2,-10.9 35.9,-17.2 10.3,-1.7 60.1,1.4 68.5,3.8 0.6,-0.7 1.3,-1.4 1.9,-2.2 a 5.49507,5.49507 0 0 0 0.7,-0.9 c 0.5,-0.6 0.9,-1.1 1.4,-1.7 0.6,-0.8 1.3,-1.6 1.8,-2.2 v 0 a 19.21193,19.21193 0 0 0 1.3,-1.7 c 0.2,-0.2 0.3,-0.4 0.5,-0.6 v 0 l 30.3,-47.9 c 0.1,-0.2 0.2,-0.3 0.2,-0.5 q 0.3,-0.6 0.6,-1.2 c 0.7,-1.4 1.3,-2.8 2,-4.2 q 0.6,-1.35 1.2,-2.7 c 0.4,-1 0.9,-1.9 1.3,-2.9 0.4,-0.8 0.7,-1.7 1.1,-2.5 0.7,-1.6 1.3,-3.1 2,-4.7 0.1,-0.3 0.2,-0.5 0.3,-0.8 a 24.41323,24.41323 0 0 1 1,-2.4 c 0.6,-1.5 1.2,-3 1.7,-4.5 0.2,-0.5 0.4,-1.1 0.6,-1.6 0.4,-1.1 0.8,-2.2 1.2,-3.2 0.1,-0.2 0.1,-0.3 0.2,-0.5 0.7,-2 1.3,-4 2,-5.9 v 0 c 0.2,-0.69983 0.5,-1.69983 0.8,-2.69983 z"
             class="d"
             inkscape:connector-curvature="0"
             style="fill:#ffffff;stroke:#ffffff;stroke-width:0.05px" />
          <path
             id="path13696"
             d="m 431.35632,120.45451 c 4.6,-14.3 22.2,-22.5 39.7,-18.3 17.5,4.1 28.7,19 25.4,33.6 -3.4,14.8 -23.1,23.3 -37.8,20.8 -17.8,-3 -30.2,-17.2 -28.2,-32.1"
             class="l"
             inkscape:connector-curvature="0"
             style="fill:#ffffff;stroke:#ffffff;stroke-width:13.86970043px;stroke-linecap:round;stroke-linejoin:round" />
          <path
             id="path13698"
             d="m 458.05634,124.95451 a 4.70883,4.70883 0 0 1 0.5,-2.4 6.54874,6.54874 0 0 1 1.5,-1.8 7.5603,7.5603 0 0 1 2.2,-1.1 6.90451,6.90451 0 0 1 2.5,-0.4 10.67918,10.67918 0 0 1 2.5,0.3 6.75467,6.75467 0 0 1 3.9,2.7 4.81469,4.81469 0 0 1 0.7,2.4 l 0.4,12 a 5.097,5.097 0 0 1 -0.5,2.5 6.54874,6.54874 0 0 1 -1.5,1.8 7.56042,7.56042 0 0 1 -2.2,1.1 6.90455,6.90455 0 0 1 -2.5,0.4 10.67911,10.67911 0 0 1 -2.5,-0.3 5.53537,5.53537 0 0 1 -2.2,-1 4.36312,4.36312 0 0 1 -1.6,-1.7 4.81468,4.81468 0 0 1 -0.7,-2.4 z m 4.3,11.9 a 1.90616,1.90616 0 0 0 1.1,1.7 3.32316,3.32316 0 0 0 2,0.5 3.077,3.077 0 0 0 1.9,-0.6 2.19714,2.19714 0 0 0 0.8,-1.8 l -0.4,-12 a 1.9412,1.9412 0 0 0 -0.9,-1.7 3.37886,3.37886 0 0 0 -2,-0.6 3.15713,3.15713 0 0 0 -1.9,0.7 2.019,2.019 0 0 0 -0.9,1.8 z"
             class="m"
             inkscape:connector-curvature="0"
             style="fill:#d93636;fill-rule:evenodd" />
          <polygon
             id="polygon13700"
             points="440.956,119.755 441.756,142.955 445.256,142.855 444.856,133.055 451.156,132.955 451.556,142.655 455.256,142.555 454.456,119.455 450.756,119.555 451.056,129.255 444.756,129.455 444.456,119.755 "
             class="m"
             style="fill:#d93636;fill-rule:evenodd" />
          <polygon
             id="polygon13702"
             points="479.956,141.955 483.556,141.855 482.956,122.155 487.956,122.055 487.856,118.655 474.156,118.955 474.256,122.355 479.356,122.255 "
             class="m"
             style="fill:#d93636;fill-rule:evenodd" />
          <path
             id="path13704"
             d="m 520.45633,139.65451 31.4,-0.8 -19.5,-20 -19.4,-20 -19.4,-19.9 -94,2.3 19.4,20 -31.5,0.8 19.4,20 0.1,0.1 -31.5,0.8 19.5,20 19.4,20 19.4,19.9 94,-2.3 -19.4,-19.9 -0.1,-0.2 31.5,-0.8 z m -55.6,25.2 c -21,0.5 -38.5,-14.3 -39.2,-33 -0.7,-18.8 15.8,-34.4 36.8,-34.9 21,-0.5 38.5,14.3 39.2,33 0.69999,18.80001 -15.80001,34.40001 -36.80001,34.90001 z"
             class="m"
             inkscape:connector-curvature="0"
             style="fill:#d93636;fill-rule:evenodd" />
          <path
             id="path13706"
             d="m -10.54367,95.75452 27.6,-4.8 -20.1,-8.1 -20.1,-8.1 -20.1,-8.1 -132.5,14.3 20.1,8.1 -27.6,4.8 20.1,8.1 0.2,0.1 -27.6,4.8 20.1,8.1 20.1,8.1 70.1,8.1 82.5,-14.3 -20.1,-8.1 -0.2,-0.1 27.6,-4.8 z"
             class="n"
             inkscape:connector-curvature="0"
             style="fill:#999696;fill-rule:evenodd" />
          <path
             id="path13708"
             d="m 758.95633,461.5545 20.1,8.1 20.1,8.1 20.1,8.1 82.5,-14.3 -20.1,-8.1 -0.2,-0.1 27.6,-4.8 -20,-8.1 27.6,-4.8 -20.1,-8.1 -20.1,-8.1 -20.1,-8.1 -82.4,14.5"
             class="n"
             inkscape:connector-curvature="0"
             style="fill:#999696;fill-rule:evenodd" />
          <path
             id="path13710"
             d="m 343.75632,112.75452 v 0 l 0.2,0.1 a 12.85029,12.85029 0 0 0 -7.4,0.5 47.59967,47.59967 0 0 0 -7.6,2.8 72.03452,72.03452 0 0 0 -16.3,10.2 c -9.9,8.2 -20.2,19.3 -30.9,31.6 -21.4,24.6 -37.8,45.9 -59,66.3 -10.9,9.5 -14,14.1 -28.8,32.2 -3,3.7 -17.4,10.4 -21.8,17.2 -1,1.4 -1.9,2.5 -2.9,4.1 -0.2,0.3 -0.4,0.8 -0.6,1.1 -5.9,9.2 -22.7,19.9 -30,30.6 -14.8,21.7 -43,42.9 -53.9,49 a 0.09794,0.09794 0 0 0 -0.1,0.1 c 1,7.2 2.2,14.3 3.7,21.4 1.8,0.2 3.9,0.3 6.1,0.5 44.1,1 182.3,-0.6 223,2.9 54.5,4.7 111.1,-1.3 159,-1.9 65.3,1.5 134.2,1.5 192,3.3 h 0.5 c 1.5,-6.5 2.8,-13.1 3.8,-19.7 -0.4,-1.7 -0.8,-3.9 -1.4,-6.4 -1.2,-5.1 -9.9,-10.3 -12.6,-16.1 -2.7,-5.8 -5.5,-11.8 -6.8,-16.2 -6,-20.3 -17.5,-40.2 -30.9,-53.3 v 0 l -0.2,-0.2 -34.3,-29.8 c -1.4,-1.5 -4.8,-6.2 -8.5,-11.6 a 202.7711,202.7711 0 0 0 -13.4,-17.9 c -5.2,-5.9 -11.1,-11.6 -18.6,-15.2 a 29.86786,29.86786 0 0 0 -26.1,0.1 l -0.2,0.1 -0.3,0.2 c -21.9,12 -40.2,23.4 -57,34.4 -22,-28.7 -51.2,-49.4 -80.1,-73.7 v 0 l -0.1,-0.1 -0.2,-0.1 h -0.1 c -12.1,-9.1 -13.2,-15.4 -14.9,-23.2 -0.8,-3.7 -1.5,-8.4 -4.5,-13.1 -2.3,-3.7 -5.5,-5.4 -8.7,-6.9 a 42.6717,42.6717 0 0 0 -9.8,-3 v 0 c -0.1,-0.3 -0.2,-0.3 -0.3,-0.3 z m 2,19.6 h 0.2 c 0.2,0.1 0,0.2 0.3,0.6 a 54.13789,54.13789 0 0 1 2,7 c 1.9,8.4 6.2,22 21.8,34 v 0 c 0.1,0 0.1,0.1 0.2,0.1 l 0.1,0.1 c 31.5,26.4 61.6,47.6 82.3,77.2 v 0 l 5.5,7.9 8,-5.4 c 18.2,-12.2 38.5,-24.8 62.9,-38.2 3.7,-1.8 5.3,-1.6 8.9,0.1 3.4,1.6 7.9,5.4 12.1,10.3 a 200.66922,200.66922 0 0 1 12.1,16.2 c 3.7,5.4 6.9,10.4 10.7,14.3 l 0.3,0.3 34.5,30 c 2.9,2.9 7.4,10.4 11.3,19.4 a 285.708,285.708 0 0 1 10.6,30 c 2.8,9.4 4.9,17.9 6.5,24.7 l -7.2,-1.8 2.7,2.7 -485.5,-2.60006 c 2.4,-3 4.7,-5.9 7.1,-9.4 6.7,-9.9 13.3,-21.8 19.7,-33.3 5.3,-9.6 10.2,-18.3 15,-26 2.1,-3.3 4.4,-6.6 6.1,-9.2 4.3,-5.6 8.2,-9.5 8.6,-9.6 a 40.68684,40.68684 0 0 0 22.1,-17.2 c 4.1,-6.4 6.5,-11.8 11.2,-15.9 l 0.2,-0.2 0.2,-0.2 v 0 c 22.5,-21.7 39.2,-43.6 60.3,-67.6 10.5,-12 20.4,-22.5 28.8,-29.5 8.3,-6.9 15.6,-9.4 16.9,-9.3 a 3.73017,3.73017 0 0 1 1.2,0.2 v 0 c 1.3,0.20005 1.9,0.20005 2.3,0.3 z m 115.8,107.9 v 0 a 0.2151,0.2151 0 0 1 -0.2,0.2 v -0.1 z"
             class="o"
             inkscape:connector-curvature="0"
             style="fill:#ffffff;stroke:url(#f);stroke-width:0.05px;stroke-linecap:round" />
          <path
             id="path13712"
             d="m 113.95633,447.25452 c 0.2,0.3 0.3,0.7 0.5,1 q 0.45,0.9 0.9,1.8 c 0.2,0.4 0.4,0.7 0.6,1.1 0.4,0.7 0.7,1.4 1.1,2.1 l 0.3,0.6 c 0.5,0.9 1,1.7 1.5,2.6 0.2,0.3 0.4,0.7 0.6,1 0.3,0.6 0.7,1.2 1,1.8 a 4.05308,4.05308 0 0 1 0.5,0.9 23.92556,23.92556 0 0 0 1.3,2.1 l 0.3,0.6 v 0 c 0.5,0.9 1,1.7 1.6,2.6 a 9.22242,9.22242 0 0 1 0.5,0.8 c 0.4,0.6 0.8,1.3 1.2,1.9 l 0.6,0.9 c 0.5,0.8 1,1.5 1.5,2.3 a 0.51957,0.51957 0 0 1 0.2,0.4 v 0 c 0.6,0.9 1.2,1.7 1.7,2.6 0.2,0.2 0.3,0.5 0.5,0.7 a 24.2591,24.2591 0 0 0 1.4,2 c 0.2,0.3 0.3,0.5 0.5,0.8 0.6,0.9 1.2,1.7 1.8,2.6 l -9.6,17.4 c 12,4 65.8,2.4 89.8,22.2 13.3,9 22,43.1 23.5,45.5 5.3,11.7 16.1,10.3 35.4,0.7 8.4,-37.7 41.6,-57.2 68.1,-62.9 20.3,-4.4 52.1,-1 61.6,3.3 33.6,15.2 48.4,36.2 52.1,45.8 6.5,14.6 7.8,15.2 13.3,17.4 10.4,4.2 26.9,-0.5 31.1,-7.1 7.4,-18 6.3,-38.1 20.1,-48.9 7.5,-7.3 -1.2,-10.9 35.9,-17.2 10.3,-1.7 60.1,1.4 68.5,3.8 0.6,-0.7 1.3,-1.4 1.9,-2.2 a 5.49444,5.49444 0 0 0 0.7,-0.9 c 0.5,-0.6 0.9,-1.1 1.4,-1.7 0.6,-0.8 1.3,-1.6 1.8,-2.2 v 0 a 19.20865,19.20865 0 0 0 1.3,-1.7 c 0.2,-0.2 0.3,-0.4 0.5,-0.6 v 0"
             class="p"
             inkscape:connector-curvature="0"
             style="opacity:0.56000001;isolation:isolate;fill:#575756;stroke:#ffffff;stroke-width:0.05px" />
          <path
             id="path13714"
             d="m 345.15634,121.65451 v 0 c -0.7,-0.1 -1.3,-0.2 -2.1,-0.3 -26.9,-2.1 -69.9,67.6 -113.7,110.2 -25.7,18.7 -133.3,124.3 -126.2,137.3 l 560.9,4 c 0.7,1.1 -30.4,-73.7 -49.8,-92.9 l -34.5,-30.2 c -10.6,-11 -30.7,-55.3 -55.3,-43 -24.8,13.8 -45.5,26.7 -64,39.3 -21.7,-31.2 -44.5,-51 -76,-77.6 -27.9,-21.3 -19.20002,-43.5 -39.3,-46.8 z m -231,358.7 h -10 l 18.9,12.5 21.3,1.9 0.1,0.2 c 3.9,0.3 37.7,0.8 41.5,1.4 a 81.02756,81.02756 0 0 1 40.1,29.3 c 14.5,19.5 11.8,26.5 15.1,42.9 0.8,9.4 25.8,9.6 32,-2.3 1,-2 2,-3.9 3.1,-5.9 14.6,-39.1 56.4,-59.8 92.1,-64.7 28.6,-3.9 49.2,7.9 67.9,21.5 14.9,10.9 27,30.9 30.3,48.3 2.8,11.3 28.4,9.4 33.5,-2.9 11,-24.3 10.5,-48.5 51.3,-66.2 16.7,-6 58.6,-6 75.2,-3.3 l 3,0.5 c 0.9,-1.1 1.7,-2.1 2.5,-3.2 0.4,-0.5 0.7,-0.9 1.1,-1.4 0.7,-0.9 1.3,-1.7 2,-2.6 0.5,-0.7 1.1,-1.5 1.6,-2.2 0.5,-0.7 1.1,-1.5 1.6,-2.2 a 15.25164,15.25164 0 0 0 1.1,-1.6 v 0 c 0,-0.1 0.1,-0.1 0.1,-0.2 l 1.5,-2.1 c 0.4,-0.6 0.9,-1.2 1.3,-1.9 0.5,-0.7 0.9,-1.4 1.4,-2.1 q 0.3,-0.45 0.6,-0.9 c 0.4,-0.6 0.8,-1.2 1.1,-1.7 0.4,-0.7 0.9,-1.4 1.3,-2.1 0.1,-0.2 0.3,-0.4 0.4,-0.6 v 0 c 1.3,-2 2.6,-4.1 3.8,-6.1 0.1,-0.2 0.2,-0.3 0.3,-0.5 1.2,-2.1 2.5,-4.2 3.6,-6.3 1.8,-3.2 3.5,-6.5 5.2,-9.7 a 2.50568,2.50568 0 0 1 0.4,-0.7 c 0.9,-1.8 1.8,-3.7 2.7,-5.5 a 9.14511,9.14511 0 0 1 0.7,-1.4 c 0.8,-1.6 1.5,-3.2 2.2,-4.8 0.3,-0.6 0.5,-1.2 0.8,-1.8 0.4,-0.9 0.8,-1.9 1.2,-2.8 v -0.1 l 1.5,-3.6 c 0.4,-0.9 0.7,-1.8 1.1,-2.7 0.5,-1.2 1,-2.5 1.4,-3.7 0,-0.1 0.1,-0.2 0.1,-0.3 0.3,-0.7 0.6,-1.5 0.9,-2.3 0.1,-0.4 0.3,-0.8 0.4,-1.2 v 0 c -150.1,2.9 -527.6,-13.8 -588.2,-6.5 4.8,14.2 23.4,63.8 24.6,65.7"
             class="q"
             inkscape:connector-curvature="0"
             style="fill:#35343a" />
          <path
             id="path13716"
             d="m 242.55634,256.85452 -21,14 -1.9,105.1 46.2,1.8 5.7,-101.2 -15,-17.3 z"
             class="e"
             inkscape:connector-curvature="0"
             style="fill:#d73534" />
          <path
             id="path13718"
             d="m 293.85632,230.95453 -16,25.3 -0.2,119.2 32.1,0.8 6,-123 z"
             class="e"
             inkscape:connector-curvature="0"
             style="fill:#d73534" />
          <path
             id="path13720"
             d="m 376.05634,281.75452 -33.2,2.2 -18.6,16.3 0.5,70.4 69.1,0.6 2.2,-74.3 z"
             class="e"
             inkscape:connector-curvature="0"
             style="fill:#d73534" />
          <path
             id="path13722"
             d="m 541.25632,325.95453 -27.5,1.1 -11.5,7 -8,45.5 66,-8.4 -4.3,-36.9 z"
             class="e"
             inkscape:connector-curvature="0"
             style="fill:#d73534" />
          <path
             id="path13724"
             d="m 460.65634,246.0545 c 12.3,15.9 22.1,25 21.7,25.3 l 12.1,10 c 18.3,9.3 -20.2,-33 -13,-51.1 -7.8,3.6 -16.2,-7.6 -20.8,15.8 z"
             class="b"
             inkscape:connector-curvature="0"
             style="fill:#ffffff" />
          <text
             id="text13726"
             transform="rotate(-8.40073,4339.7437,-5320.4251)"
             class="r"
             style="font-weight:600;font-size:89.65380096px;font-family:BarlowCondensed-SemiBold, 'Barlow Condensed';isolation:isolate;fill:#ffffff">SUMMIT</text>
          <path
             id="path13728"
             d="m 34.35633,445.25452 a 0.84376,0.84376 0 0 1 0.2,0.7 l -0.7,6 a 0.67524,0.67524 0 0 1 -0.4,0.6 0.84372,0.84372 0 0 1 -0.7,0.2 l -10.1,-1.2 c -0.3,0 -0.4,0.1 -0.4,0.3 l -5.6,46.3 a 0.67516,0.67516 0 0 1 -0.4,0.6 0.84375,0.84375 0 0 1 -0.7,0.2 l -7.3,-0.9 a 0.67521,0.67521 0 0 1 -0.6,-0.4 0.84379,0.84379 0 0 1 -0.2,-0.7 l 5.6,-46.3 c 0,-0.3 -0.1,-0.4 -0.3,-0.4 l -9.5,-1.2 a 0.67523,0.67523 0 0 1 -0.6,-0.4 0.84376,0.84376 0 0 1 -0.2,-0.7 l 0.7,-6 a 0.67524,0.67524 0 0 1 0.4,-0.6 0.84372,0.84372 0 0 1 0.7,-0.2 l 29.6,3.6 c 0.1,0.20001 0.3,0.29998 0.5,0.5 z"
             class="b"
             inkscape:connector-curvature="0"
             style="fill:#ffffff" />
          <g
             id="g13750"
             class="s"
             style="isolation:isolate">
            <text
               id="text13742"
               transform="rotate(-3.17351,11477.973,-12925.02)"
               class="t"
               style="font-weight:300;font-size:26.29948044px;font-family:BarlowCondensed-Light, 'Barlow Condensed';isolation:isolate;fill:#ffffff">
              <tspan
                 id="tspan13730"
                 class="u"
                 style="letter-spacing:-0.008em">H</tspan>
              <tspan
                 id="tspan13732"
                 y="0"
                 x="12.1499"
                 class="v"
                 style="letter-spacing:0.00002em">EI</tspan>
              <tspan
                 id="tspan13734"
                 y="0"
                 x="28.928711"
                 class="u"
                 style="letter-spacing:-0.008em">D</tspan>
              <tspan
                 id="tspan13736"
                 y="0"
                 x="40.89502">EL</tspan>
              <tspan
                 id="tspan13738"
                 y="0"
                 x="62.328609"
                 class="u"
                 style="letter-spacing:-0.008em">B</tspan>
              <tspan
                 id="tspan13740"
                 y="0"
                 x="73.768547">ERG</tspan>
            </text>
            <text
               id="text13748"
               transform="rotate(-3.17351,12052.726,-12783.784)"
               class="t"
               style="font-weight:300;font-size:26.29948044px;font-family:BarlowCondensed-Light, 'Barlow Condensed';isolation:isolate;fill:#ffffff">GER<tspan
   id="tspan13744"
   y="0"
   x="34.26709"
   class="w"
   style="letter-spacing:0.016em">M</tspan>
<tspan
   id="tspan13746"
   y="0"
   x="48.179199">ANY 2019</tspan>
</text>
          </g>
          <path
             id="path13752"
             d="m 234.75633,285.65451 6.2,0.7 -0.2,5.8 -5.9,-0.2 z"
             class="x"
             inkscape:connector-curvature="0"
             style="fill:url(#linearGradient14270)" />
          <path
             id="path13754"
             d="m 246.75633,286.15451 6.2,0.7 -0.2,5.8 -5.9,-0.2 z"
             class="y"
             inkscape:connector-curvature="0"
             style="fill:url(#h)" />
          <path
             id="path13756"
             d="m 234.35632,295.0545 6.2,0.7 -0.2,5.8 -5.9,-0.2 z"
             class="z"
             inkscape:connector-curvature="0"
             style="fill:url(#i)" />
          <path
             id="path13758"
             d="m 246.45633,295.45453 6.2,0.7 -0.2,5.8 -5.9,-0.2 z"
             class="aa"
             inkscape:connector-curvature="0"
             style="fill:url(#j)" />
          <path
             id="path13760"
             d="m 286.15633,270.65451 10.3,-0.2 -0.5,6 -9.3,-0.2 z"
             class="ab"
             inkscape:connector-curvature="0"
             style="fill:url(#k)" />
          <path
             id="path13762"
             d="m 285.95633,281.0545 10.2,-0.2 -0.5,6 -9.3,-0.2 z"
             class="ac"
             inkscape:connector-curvature="0"
             style="fill:url(#l)" />
          <path
             id="path13764"
             d="m 355.55634,307.65451 9.4,0.4 v 5.8 l -8.9,0.1 z"
             class="ad"
             inkscape:connector-curvature="0"
             style="fill:url(#m)" />
          <path
             id="path13766"
             d="m 373.75632,307.5545 9.4,0.4 v 5.8 l -8.9,0.1 z"
             class="ae"
             inkscape:connector-curvature="0"
             style="fill:url(#n)" />
          <path
             id="path13768"
             d="m 355.65634,317.0545 9.4,0.4 v 5.8 l -8.9,0.1 z"
             class="af"
             inkscape:connector-curvature="0"
             style="fill:url(#o)" />
          <path
             id="path13770"
             d="m 373.85632,316.85452 9.4,0.4 v 5.8 l -8.9,0.1 z"
             class="ag"
             inkscape:connector-curvature="0"
             style="fill:url(#p)" />
          <g
             id="g13784">
            <path
               id="path13772"
               d="m 474.15634,297.85452 c -3.6,-0.2 -7,4.9 -7.6,9.3 l -1.9,0.1 -0.8,66.1 15.1,0.9 4.2,-67.5 -1.8,0.1 c -0.7,-4.3 -3.90006,-8.8 -7.2,-9 z"
               class="e"
               inkscape:connector-curvature="0"
               style="fill:#d73534" />
            <path
               id="path13774"
               d="m 474.25632,287.85452 -1.4,11.1 2.2,0.6 -0.3,-10.6 z"
               class="e"
               inkscape:connector-curvature="0"
               style="fill:#d73534" />
            <path
               id="path13776"
               d="m 469.45633,316.65451 2.8,0.6 -0.3,5.5 -2.7,-0.2 z"
               class="ah"
               inkscape:connector-curvature="0"
               style="fill:url(#q)" />
            <path
               id="path13778"
               d="m 475.05634,316.95453 2.8,0.6 -0.3,5.5 -2.7,-0.2 z"
               class="ai"
               inkscape:connector-curvature="0"
               style="fill:url(#r)" />
            <path
               id="path13780"
               d="m 468.95633,325.5545 2.8,0.4 -0.2,3.2 -2.7,-0.2 z"
               class="aj"
               inkscape:connector-curvature="0"
               style="fill:url(#s)" />
            <path
               id="path13782"
               d="m 474.45633,325.95453 2.8,0.4 -0.2,3.2 -2.7,-0.2 z"
               class="ak"
               inkscape:connector-curvature="0"
               style="fill:url(#t)" />
          </g>
          <path
             id="path13786"
             d="m 509.15634,342.65451 12.5,-0.4 -0.5,7.3 -11.4,-0.1 z"
             class="al"
             inkscape:connector-curvature="0"
             style="fill:url(#u)" />
          <path
             id="path13788"
             d="m 526.75632,342.75452 12.5,-0.4 -0.5,7.3 -11.4,-0.1 z"
             class="am"
             inkscape:connector-curvature="0"
             style="fill:url(#v)" />
          <g
             id="g13798">
            <path
               id="path13790"
               d="m 430.25632,249.25452 -2,22.2 c -6.6,1.9 -12.2,11.3 -13.4,19.6 h -3.4 l -0.3,88.2 34.9,-4.1 4.1,-84.7 h -2.8 c -1.3,-8.4 -7.8,-17.6 -14.6,-19.2 l -1.2,-19.8 z"
               class="e"
               inkscape:connector-curvature="0"
               style="fill:#d73534" />
            <path
               id="path13792"
               d="m 420.15634,303.25452 6.3,-0.2 -0.7,15.2 -5.7,-0.2 z"
               class="an"
               inkscape:connector-curvature="0"
               style="fill:url(#w)" />
            <path
               id="path13794"
               d="m 432.75632,303.0545 6.3,-0.2 -0.7,15.2 -5.7,-0.2 z"
               class="ao"
               inkscape:connector-curvature="0"
               style="fill:url(#x)" />
            <path
               id="path13796"
               d="m 430.45633,279.65451 c -2.1,-0.1 -4,3.2 -4.6,6.4 l 9.4,0.3 c -0.50001,-3.2 -2.69999,-6.59999 -4.8,-6.7 z"
               class="ap"
               inkscape:connector-curvature="0"
               style="fill:url(#y)" />
          </g>
          <path
             id="path13800"
             d="m 509.15634,353.0545 12.5,-0.4 -0.5,7.3 -11.4,-0.1 z"
             class="aq"
             inkscape:connector-curvature="0"
             style="fill:url(#z)" />
          <path
             id="path13802"
             d="m 526.75632,353.15451 12.5,-0.4 -0.5,7.3 -11.4,-0.1 z"
             class="ar"
             inkscape:connector-curvature="0"
             style="fill:url(#aa)" />
          <path
             id="path13804"
             d="m 337.85632,307.85452 9.4,0.4 v 5.8 l -8.9,0.1 z"
             class="as"
             inkscape:connector-curvature="0"
             style="fill:url(#ab)" />
          <path
             id="path13806"
             d="m 337.95633,317.15451 9.4,0.4 v 5.8 l -8.9,0.1 z"
             class="at"
             inkscape:connector-curvature="0"
             style="fill:url(#ac)" />
          <!--<image
             sodipodi:absref="/home/michael/Dokumente/OSM/sotm-wg/2019/voc/intro-outro-generator/hotosm2019/artwork/../../CC53C7D533FFAD08.png"
             xlink:href="../../CC53C7D533FFAD08.png"
             id="image13808"
             transform="matrix(1.46854,0,0,1.46854,801.64972,191.11867)"
             height="179"
             width="604"
             class="s"
             style="isolation:isolate" />-->
          <path
             id="path13810"
             d="m 104.15633,368.85452 c 105.7,4.6 86.3,-2.6 143.8,0.3 62.4,3.2 55.6,0.1 69.8,2.5 14.2,2.4 65.9,-0.6 100.5,-0.2 34.2,0.4 76,-1.8 112.4,-1 27.8,0.6 73.7,1.4 73.7,1.4 l 60.8,1 -2.2,6.1 -392.2,1.1 -168.99993,-3.8 z"
             class="au"
             inkscape:connector-curvature="0"
             style="fill:#ffffff;stroke:url(#ad);stroke-width:0.05px;stroke-linecap:round" />
          <rect
             id="rect13812"
             height="147"
             width="210.39999"
             y="624.95453"
             x="274.85632"
             class="a"
             style="fill:none" />
          <g
             id="g13852"
             class="s"
             style="isolation:isolate">
            <g
               id="g13834"
               class="s"
               style="isolation:isolate">
              <path
                 id="path13814"
                 d="m 310.678,625.13672 a 0.4392,0.4392 0 0 1 0.32324,-0.13281 h 3.4961 a 0.45347,0.45347 0 0 1 0.45605,0.45605 v 25.6875 a 0.45347,0.45347 0 0 1 -0.45605,0.45606 h -3.4961 a 0.45347,0.45347 0 0 1 -0.45605,-0.45606 v -10.7539 a 0.168,0.168 0 0 0 -0.18945,-0.19043 h -4.82618 a 0.16832,0.16832 0 0 0 -0.19043,0.19043 v 10.7539 a 0.45347,0.45347 0 0 1 -0.45605,0.45606 H 301.387 a 0.45512,0.45512 0 0 1 -0.45606,-0.45606 V 625.46 a 0.45512,0.45512 0 0 1 0.45606,-0.45605 h 3.49609 a 0.45347,0.45347 0 0 1 0.45605,0.45605 v 10.71582 a 0.16763,0.16763 0 0 0 0.19043,0.18946 h 4.82618 a 0.16733,0.16733 0 0 0 0.18945,-0.18946 V 625.46 a 0.4392,0.4392 0 0 1 0.1328,-0.32328 z"
                 class="b"
                 inkscape:connector-curvature="0"
                 style="fill:#ffffff" />
              <path
                 id="path13816"
                 d="m 332.03448,628.6709 a 0.44234,0.44234 0 0 1 -0.32325,0.13281 h -8.208 a 0.168,0.168 0 0 0 -0.19043,0.18946 v 7.18261 a 0.16763,0.16763 0 0 0 0.19043,0.18946 h 4.86425 a 0.45512,0.45512 0 0 1 0.45606,0.45605 v 2.92578 a 0.45512,0.45512 0 0 1 -0.45606,0.45606 h -4.86425 a 0.16831,0.16831 0 0 0 -0.19043,0.19043 v 7.21972 a 0.16831,0.16831 0 0 0 0.19043,0.19043 h 8.208 a 0.45348,0.45348 0 0 1 0.45606,0.45606 v 2.88769 a 0.45347,0.45347 0 0 1 -0.45606,0.45606 h -12.35058 a 0.45512,0.45512 0 0 1 -0.45606,-0.45606 V 625.46 a 0.45512,0.45512 0 0 1 0.45606,-0.45605 h 12.35058 a 0.45347,0.45347 0 0 1 0.45606,0.45605 v 2.8877 a 0.443,0.443 0 0 1 -0.13281,0.3232 z"
                 class="b"
                 inkscape:connector-curvature="0"
                 style="fill:#ffffff" />
              <path
                 id="path13818"
                 d="m 335.56768,651.47071 a 0.43921,0.43921 0 0 1 -0.13281,-0.32325 V 625.46 a 0.45347,0.45347 0 0 1 0.45605,-0.45605 h 3.4961 a 0.45347,0.45347 0 0 1 0.45605,0.45605 v 25.6875 a 0.45347,0.45347 0 0 1 -0.45605,0.45606 h -3.4961 a 0.43924,0.43924 0 0 1 -0.32324,-0.13285 z"
                 class="b"
                 inkscape:connector-curvature="0"
                 style="fill:#ffffff" />
              <path
                 id="path13820"
                 d="m 344.0794,651.47071 a 0.43921,0.43921 0 0 1 -0.13281,-0.32325 V 625.46 a 0.45347,0.45347 0 0 1 0.45605,-0.45605 h 6.498 a 7.02235,7.02235 0 0 1 5.22461,1.97559 7.17764,7.17764 0 0 1 1.957,5.28222 v 12.084 a 7.17764,7.17764 0 0 1 -1.957,5.28222 7.02235,7.02235 0 0 1 -5.22461,1.97559 h -6.498 a 0.43924,0.43924 0 0 1 -0.32324,-0.13286 z m 4.46484,-3.667 2.28028,-0.0381 a 2.45267,2.45267 0 0 0 2.0332,-1.00684 4.43983,4.43983 0 0 0 0.8164,-2.67969 v -11.55175 a 4.33477,4.33477 0 0 0 -0.77832,-2.7168 2.52751,2.52751 0 0 0 -2.10937,-1.00684 h -2.24219 a 0.16733,0.16733 0 0 0 -0.18945,0.18946 v 18.62011 a 0.16763,0.16763 0 0 0 0.18945,0.19043 z"
                 class="b"
                 inkscape:connector-curvature="0"
                 style="fill:#ffffff" />
              <path
                 id="path13822"
                 d="m 374.85967,628.6709 a 0.4423,0.4423 0 0 1 -0.32324,0.13281 h -8.208 a 0.168,0.168 0 0 0 -0.19043,0.18946 v 7.18261 a 0.16763,0.16763 0 0 0 0.19043,0.18946 h 4.86426 a 0.4551,0.4551 0 0 1 0.45605,0.45605 v 2.92578 a 0.4551,0.4551 0 0 1 -0.45605,0.45606 h -4.86426 a 0.16832,0.16832 0 0 0 -0.19043,0.19043 v 7.21972 a 0.16832,0.16832 0 0 0 0.19043,0.19043 h 8.208 a 0.45348,0.45348 0 0 1 0.45605,0.45606 v 2.88769 a 0.45347,0.45347 0 0 1 -0.45605,0.45606 h -12.35059 a 0.45512,0.45512 0 0 1 -0.45605,-0.45606 V 625.46 a 0.45512,0.45512 0 0 1 0.45605,-0.45605 h 12.35059 a 0.45347,0.45347 0 0 1 0.45605,0.45605 v 2.8877 a 0.443,0.443 0 0 1 -0.13281,0.3232 z"
                 class="b"
                 inkscape:connector-curvature="0"
                 style="fill:#ffffff" />
              <path
                 id="path13824"
                 d="m 378.39287,651.47071 a 0.43925,0.43925 0 0 1 -0.13281,-0.32325 V 625.46 a 0.45347,0.45347 0 0 1 0.45606,-0.45605 h 3.49609 a 0.45348,0.45348 0 0 1 0.45606,0.45605 v 22.15332 a 0.16763,0.16763 0 0 0 0.18945,0.19043 h 8.208 a 0.45348,0.45348 0 0 1 0.45605,0.45606 v 2.88769 a 0.45347,0.45347 0 0 1 -0.45605,0.45606 h -12.3496 a 0.43925,0.43925 0 0 1 -0.32325,-0.13285 z"
                 class="b"
                 inkscape:connector-curvature="0"
                 style="fill:#ffffff" />
              <path
                 id="path13826"
                 d="m 406.47491,649.70313 a 7.44937,7.44937 0 0 1 -5.30176,1.90039 h -6.6875 a 0.45348,0.45348 0 0 1 -0.45606,-0.45606 V 625.46 a 0.45348,0.45348 0 0 1 0.45606,-0.45605 h 6.0039 a 8.22545,8.22545 0 0 1 5.66211,1.82324 6.74679,6.74679 0 0 1 2.05176,5.32031 q 0,3.91407 -2.77344,5.58594 c -0.12793,0.0762 -0.15234,0.15235 -0.0762,0.22852 a 6.6081,6.6081 0 0 1 2.31739,2.5459 8.08452,8.08452 0 0 1 0.83593,3.7998 7.02364,7.02364 0 0 1 -2.03222,5.39547 z m -8.03711,-20.71 v 7.06836 a 0.16763,0.16763 0 0 0 0.18945,0.19043 h 1.93848 a 3.14212,3.14212 0 0 0 2.43164,-0.9502 3.83854,3.83854 0 0 0 0.874,-2.69824 4.1048,4.1048 0 0 0 -0.874,-2.81152 3.0768,3.0768 0 0 0 -2.43164,-0.98829 h -1.93848 a 0.16733,0.16733 0 0 0 -0.18945,0.1895 z m 4.78808,17.708 a 4.61123,4.61123 0 0 0 0.874,-3.002 4.92445,4.92445 0 0 0 -0.874,-3.09668 2.87339,2.87339 0 0 0 -2.39453,-1.12109 h -2.2041 a 0.16763,0.16763 0 0 0 -0.18945,0.19043 v 7.90332 a 0.16763,0.16763 0 0 0 0.18945,0.19043 h 2.2041 a 2.93237,2.93237 0 0 0 2.39453,-1.06437 z"
                 class="b"
                 inkscape:connector-curvature="0"
                 style="fill:#ffffff" />
              <path
                 id="path13828"
                 d="m 424.5628,628.6709 a 0.44234,0.44234 0 0 1 -0.32325,0.13281 h -8.208 a 0.168,0.168 0 0 0 -0.19043,0.18946 v 7.18261 a 0.16763,0.16763 0 0 0 0.19043,0.18946 h 4.86425 a 0.45512,0.45512 0 0 1 0.45606,0.45605 v 2.92578 a 0.45512,0.45512 0 0 1 -0.45606,0.45606 h -4.86425 a 0.16831,0.16831 0 0 0 -0.19043,0.19043 v 7.21972 a 0.16831,0.16831 0 0 0 0.19043,0.19043 h 8.208 a 0.45348,0.45348 0 0 1 0.45606,0.45606 v 2.88769 a 0.45347,0.45347 0 0 1 -0.45606,0.45606 H 411.889 a 0.45512,0.45512 0 0 1 -0.45606,-0.45606 V 625.46 a 0.45512,0.45512 0 0 1 0.45606,-0.45605 h 12.35058 a 0.45347,0.45347 0 0 1 0.45606,0.45605 v 2.8877 a 0.443,0.443 0 0 1 -0.13284,0.3232 z"
                 class="b"
                 inkscape:connector-curvature="0"
                 style="fill:#ffffff" />
              <path
                 id="path13830"
                 d="m 437.99541,651.22364 -3.26855,-10.94434 c -0.0508,-0.10059 -0.11328,-0.15137 -0.18945,-0.15137 h -1.97657 a 0.16733,0.16733 0 0 0 -0.18945,0.18946 v 10.83007 a 0.45347,0.45347 0 0 1 -0.45605,0.45606 h -3.4961 a 0.45347,0.45347 0 0 1 -0.45605,-0.45606 v -25.72558 a 0.45348,0.45348 0 0 1 0.45605,-0.45606 h 7.14356 a 6.33519,6.33519 0 0 1 5.94726,3.70508 9.17285,9.17285 0 0 1 0.85547,4.04688 8.64393,8.64393 0 0 1 -0.91211,4.085 6.08493,6.08493 0 0 1 -2.5459,2.60254 q -0.15234,0.0381 -0.11425,0.22851 l 3.72363,11.4375 a 0.42686,0.42686 0 0 1 0.0381,0.19043 q 0,0.34131 -0.418,0.3418 h -3.64747 a 0.47712,0.47712 0 0 1 -0.4941,-0.37992 z m -5.624,-22.26856 v 7.5625 a 0.16694,0.16694 0 0 0 0.18945,0.18945 h 2.31836 a 2.7148,2.7148 0 0 0 2.22266,-1.06347 4.41537,4.41537 0 0 0 0.85547,-2.84961 4.62767,4.62767 0 0 0 -0.85547,-2.94531 2.70041,2.70041 0 0 0 -2.22266,-1.083 h -2.31836 a 0.16732,0.16732 0 0 0 -0.18947,0.18944 z"
                 class="b"
                 inkscape:connector-curvature="0"
                 style="fill:#ffffff" />
              <path
                 id="path13832"
                 d="m 446.98272,650.02637 a 6.606,6.606 0 0 1 -1.957,-4.99707 v -13.45215 a 6.6104,6.6104 0 0 1 1.957,-4.99707 7.16838,7.16838 0 0 1 5.18652,-1.88086 7.30529,7.30529 0 0 1 5.22461,1.88086 6.59372,6.59372 0 0 1 1.99512,5.03516 v 1.48242 a 0.45347,0.45347 0 0 1 -0.45606,0.45605 h -3.49609 a 0.4551,0.4551 0 0 1 -0.45605,-0.45605 v -1.55859 a 3.10436,3.10436 0 0 0 -0.77832,-2.20313 2.65022,2.65022 0 0 0 -2.03321,-0.83594 2.58793,2.58793 0 0 0 -2.01367,0.83594 3.14313,3.14313 0 0 0 -0.76074,2.20313 v 13.52832 a 3.144,3.144 0 0 0 0.76074,2.2041 2.588,2.588 0 0 0 2.01367,0.83593 2.65024,2.65024 0 0 0 2.03321,-0.83593 3.10519,3.10519 0 0 0 0.77832,-2.2041 v -3.64747 a 0.168,0.168 0 0 0 -0.18946,-0.19042 H 452.473 a 0.45513,0.45513 0 0 1 -0.45605,-0.45606 V 638 a 0.45512,0.45512 0 0 1 0.45605,-0.45605 h 6.46 A 0.45347,0.45347 0 0 1 459.389,638 v 7.0293 a 6.54362,6.54362 0 0 1 -1.99512,4.99707 7.30529,7.30529 0 0 1 -5.22461,1.88086 7.16838,7.16838 0 0 1 -5.18655,-1.88086 z"
                 class="b"
                 inkscape:connector-curvature="0"
                 style="fill:#ffffff" />
            </g>
            <g
               id="g13850"
               class="s"
               style="isolation:isolate">
              <path
                 id="path13836"
                 d="m 324.08819,686.2168 a 6.038,6.038 0 0 1 -1.69141,-4.46484 v -14.89649 a 5.81193,5.81193 0 0 1 6.15625,-6.15625 6.10416,6.10416 0 0 1 4.48438,1.69141 5.997,5.997 0 0 1 1.71,4.46484 v 1.67188 a 0.33565,0.33565 0 0 1 -0.37989,0.37988 h -1.2539 a 0.336,0.336 0 0 1 -0.38086,-0.37988 v -1.71 a 4.34657,4.34657 0 0 0 -1.13867,-3.1543 4.51242,4.51242 0 0 0 -6.08008,0 4.3436,4.3436 0 0 0 -1.14063,3.1543 v 14.97168 a 4.33888,4.33888 0 0 0 1.14063,3.15429 4.51242,4.51242 0 0 0 6.08008,0 4.34186,4.34186 0 0 0 1.13867,-3.15429 v -5.35743 a 0.13475,0.13475 0 0 0 -0.15137,-0.15234 h -3.57129 a 0.336,0.336 0 0 1 -0.38086,-0.37988 v -1.02637 a 0.33633,0.33633 0 0 1 0.38086,-0.37988 h 5.35742 a 0.336,0.336 0 0 1 0.37989,0.37988 v 6.87899 a 5.997,5.997 0 0 1 -1.71,4.46484 6.10356,6.10356 0 0 1 -4.48438,1.69043 6.03589,6.03589 0 0 1 -4.46484,-1.69047 z"
                 class="b"
                 inkscape:connector-curvature="0"
                 style="fill:#ffffff" />
              <path
                 id="path13838"
                 d="m 350.973,662.78907 h -9.00586 a 0.135,0.135 0 0 0 -0.15234,0.15234 v 10.29785 a 0.13465,0.13465 0 0 0 0.15234,0.15234 h 5.77539 a 0.33634,0.33634 0 0 1 0.38086,0.37989 v 1.02636 a 0.33634,0.33634 0 0 1 -0.38086,0.37989 h -5.77539 a 0.13435,0.13435 0 0 0 -0.15234,0.15136 v 10.3359 a 0.13466,0.13466 0 0 0 0.15234,0.15235 h 9.00586 a 0.33672,0.33672 0 0 1 0.38086,0.37988 v 1.02637 a 0.33672,0.33672 0 0 1 -0.38086,0.37988 h -10.792 a 0.336,0.336 0 0 1 -0.37988,-0.37988 v -25.83981 a 0.336,0.336 0 0 1 0.37988,-0.37988 h 10.792 a 0.33672,0.33672 0 0 1 0.38086,0.37988 v 1.02539 a 0.33634,0.33634 0 0 1 -0.38086,0.37989 z"
                 class="b"
                 inkscape:connector-curvature="0"
                 style="fill:#ffffff" />
              <path
                 id="path13840"
                 d="m 366.28741,687.29981 -4.18067,-12.12207 a 0.149,0.149 0 0 0 -0.15137,-0.11426 h -3.76269 a 0.134,0.134 0 0 0 -0.15137,0.15234 v 12.00782 a 0.33633,0.33633 0 0 1 -0.38086,0.37988 h -1.2539 a 0.33564,0.33564 0 0 1 -0.37989,-0.37988 v -25.916 a 0.33564,0.33564 0 0 1 0.37989,-0.37988 h 5.89062 a 5.30157,5.30157 0 0 1 4.293,1.97558 7.84361,7.84361 0 0 1 1.63477,5.168 8.1704,8.1704 0 0 1 -1.10157,4.37012 5.371,5.371 0 0 1 -3.041,2.39453 c -0.127,0.0508 -0.16406,0.11328 -0.11328,0.18945 l 4.332,12.16016 0.0371,0.15234 c 0,0.17676 -0.11328,0.26563 -0.3418,0.26563 h -1.25391 a 0.441,0.441 0 0 1 -0.45508,-0.30376 z m -8.2461,-24.39649 v 10.33594 a 0.134,0.134 0 0 0 0.15137,0.15234 h 3.876 a 3.63843,3.63843 0 0 0 3.00195,-1.44433 6.02014,6.02014 0 0 0 1.14062,-3.83789 6.16728,6.16728 0 0 0 -1.14062,-3.89453 3.62087,3.62087 0 0 0 -3.00195,-1.46289 h -3.876 a 0.13366,0.13366 0 0 0 -0.15137,0.15136 z"
                 class="b"
                 inkscape:connector-curvature="0"
                 style="fill:#ffffff" />
              <path
                 id="path13842"
                 d="m 372.556,687.22364 v -25.83985 a 0.33564,0.33564 0 0 1 0.37988,-0.37988 h 1.293 a 0.41966,0.41966 0 0 1 0.418,0.30371 l 4.55859,11.0957 a 0.12378,0.12378 0 0 0 0.22852,0 l 4.56055,-11.0957 a 0.4181,0.4181 0 0 1 0.418,-0.30371 h 1.291 a 0.33633,0.33633 0 0 1 0.38086,0.37988 v 25.83985 a 0.33633,0.33633 0 0 1 -0.38086,0.37988 h -1.2539 a 0.33534,0.33534 0 0 1 -0.37891,-0.37988 v -21.08985 q 0,-0.11425 -0.0762,-0.11426 a 0.12106,0.12106 0 0 0 -0.11426,0.0762 l -4.10449,9.80371 a 0.39578,0.39578 0 0 1 -0.37891,0.30371 0.41625,0.41625 0 0 1 -0.418,-0.30371 l -4.21875,-9.80371 a 0.12165,0.12165 0 0 0 -0.11328,-0.0762 c -0.0518,0 -0.0762,0.0381 -0.0762,0.11426 v 21.08985 a 0.33633,0.33633 0 0 1 -0.38086,0.37988 h -1.25391 a 0.33564,0.33564 0 0 1 -0.37993,-0.37988 z"
                 class="b"
                 inkscape:connector-curvature="0"
                 style="fill:#ffffff" />
              <path
                 id="path13844"
                 d="m 403.03155,687.26172 -1.02539,-4.97851 a 0.128,0.128 0 0 0 -0.0576,-0.11329 0.23532,0.23532 0 0 0 -0.13281,-0.0381 h -7.41016 a 0.23306,0.23306 0 0 0 -0.13281,0.0381 0.128,0.128 0 0 0 -0.0576,0.11329 l -1.06348,4.97851 a 0.36312,0.36312 0 0 1 -0.418,0.3418 h -1.25391 a 0.34955,0.34955 0 0 1 -0.28516,-0.11426 0.34536,0.34536 0 0 1 -0.0576,-0.30371 l 5.77734,-25.83984 a 0.38941,0.38941 0 0 1 0.418,-0.3418 h 1.51953 a 0.36257,0.36257 0 0 1 0.418,0.3418 l 5.81445,25.83984 v 0.0762 a 0.30306,0.30306 0 0 1 -0.34277,0.3418 h -1.292 a 0.39075,0.39075 0 0 1 -0.41798,-0.3418 z m -8.39844,-6.85937 a 0.12911,0.12911 0 0 0 0.11523,0.0576 h 6.6875 c 0.0762,0 0.11328,-0.0508 0.11328,-0.15234 l -3.34375,-15.8457 q -0.0381,-0.11425 -0.0762,-0.11426 -0.0381,-1e-5 -0.0762,0.11426 l -3.41992,15.8457 c -0.0254,0.0254 -0.0254,0.0566 0,0.0947 z"
                 class="b"
                 inkscape:connector-curvature="0"
                 style="fill:#ffffff" />
              <path
                 id="path13846"
                 d="m 409.52862,687.22364 v -25.83985 a 0.33564,0.33564 0 0 1 0.37988,-0.37988 h 1.33008 a 0.41811,0.41811 0 0 1 0.418,0.30371 l 8.24609,20.8623 c 0.0254,0.0752 0.0625,0.10743 0.11426,0.0947 0.0498,-0.0127 0.0752,-0.0576 0.0752,-0.13281 v -20.74805 a 0.33633,0.33633 0 0 1 0.38086,-0.37988 h 1.21582 a 0.336,0.336 0 0 1 0.37989,0.37988 v 25.83985 a 0.336,0.336 0 0 1 -0.37989,0.37988 h -1.3301 a 0.417,0.417 0 0 1 -0.418,-0.30371 l -8.2461,-20.90039 c -0.0254,-0.0762 -0.0635,-0.10742 -0.11426,-0.0947 -0.0508,0.0127 -0.0762,0.0566 -0.0762,0.13281 l 0.0391,20.78614 a 0.33633,0.33633 0 0 1 -0.38086,0.37988 h -1.25388 a 0.33564,0.33564 0 0 1 -0.37988,-0.37988 z"
                 class="b"
                 inkscape:connector-curvature="0"
                 style="fill:#ffffff" />
              <path
                 id="path13848"
                 d="m 431.87237,687.22364 v -11.78028 a 0.2997,0.2997 0 0 0 -0.0381,-0.18945 l -5.24414,-13.79391 -0.0371,-0.15234 c 0,-0.20215 0.11328,-0.30371 0.3418,-0.30371 h 1.33008 a 0.44208,0.44208 0 0 1 0.45507,0.30371 l 4.1045,11.62793 a 0.123,0.123 0 0 0 0.22754,0 l 4.0664,-11.62793 a 0.444,0.444 0 0 1 0.45606,-0.30371 h 1.33007 a 0.32791,0.32791 0 0 1 0.28516,0.13281 0.321,0.321 0 0 1 0.0186,0.32324 l -5.24415,13.79395 a 0.30143,0.30143 0 0 0 -0.0371,0.18945 v 11.78028 a 0.33633,0.33633 0 0 1 -0.38086,0.37988 h -1.25391 a 0.336,0.336 0 0 1 -0.37988,-0.37992 z"
                 class="b"
                 inkscape:connector-curvature="0"
                 style="fill:#ffffff" />
            </g>
          </g>
        </g>
        <g
           id="g13858"
           clip-path="url(#e)"
           class="j">
          <polyline
             id="polyline13856"
             points="812.756 397.755 841.556 394.755 845.656 391.555 853.156 387.055 856.656 381.255 851.356 376.755 791.856 372.355"
             class="i"
             style="fill:#999696" />
        </g>
      </g>
      <rect
         id="rect13862"
         height="19.87516"
         width="105.25994"
         y="123.21645"
         x="60.298847"
         class="a"
         style="fill:none;stroke-width:0.26151538" />
      <g
         transform="matrix(0.26151537,0,0,0.26151537,5.7320114,11.718188)"
         id="g13884"
         class="s"
         style="isolation:isolate">
        <path
           id="path13864"
           d="m 215.2044,473.67285 a 12.64628,12.64628 0 0 1 -3.67188,-9.39648 v -2.01562 a 0.86026,0.86026 0 0 1 0.86426,-0.86426 h 6.47949 a 0.86024,0.86024 0 0 1 0.86426,0.86426 v 1.584 a 6.85318,6.85318 0 0 0 1.43945,4.53613 4.5,4.5 0 0 0 3.60059,1.72754 4.69672,4.69672 0 0 0 3.67188,-1.62012 6.20949,6.20949 0 0 0 1.44042,-4.28418 6.418,6.418 0 0 0 -0.792,-3.2041 10.14912,10.14912 0 0 0 -2.19629,-2.62793 q -1.40478,-1.22314 -4.57226,-3.52734 a 64.13469,64.13469 0 0 1 -5.7959,-4.6084 17.34311,17.34311 0 0 1 -3.67188,-4.86035 14.09388,14.09388 0 0 1 -1.47656,-6.58789 12.69607,12.69607 0 0 1 3.60059,-9.50391 12.90251,12.90251 0 0 1 9.43164,-3.52734 13.06808,13.06808 0 0 1 9.71973,3.708 13.35719,13.35719 0 0 1 3.67285,9.82715 v 1.72851 a 0.86026,0.86026 0 0 1 -0.86426,0.86426 h -6.55176 a 0.86026,0.86026 0 0 1 -0.86426,-0.86426 v -1.87207 a 6.81916,6.81916 0 0 0 -1.40429,-4.5 4.583,4.583 0 0 0 -3.708,-1.69238 4.41164,4.41164 0 0 0 -3.45606,1.54883 6.24613,6.24613 0 0 0 -1.36816,4.2832 6.69839,6.69839 0 0 0 1.47656,4.39258 34.49259,34.49259 0 0 0 5.7959,4.96777 q 4.39014,3.312 6.624,5.32813 a 15.16563,15.16563 0 0 1 3.45606,4.46386 12.91774,12.91774 0 0 1 1.22363,5.832 13.28571,13.28571 0 0 1 -3.708,9.82813 14.464,14.464 0 0 1 -19.25976,0.0723 z"
           class="b"
           inkscape:connector-curvature="0"
           style="fill:#ffffff" />
        <path
           id="path13866"
           d="m 249.5833,473.3125 q -3.709,-3.99609 -3.708,-10.54785 v -35.56836 a 0.86026,0.86026 0 0 1 0.86425,-0.86426 h 6.624 a 0.86028,0.86028 0 0 1 0.86426,0.86426 v 36.43262 a 7.25516,7.25516 0 0 0 1.43945,4.67969 4.94513,4.94513 0 0 0 7.63183,0 7.26112,7.26112 0 0 0 1.44043,-4.67969 v -36.43262 a 0.86028,0.86028 0 0 1 0.86426,-0.86426 h 6.624 a 0.86027,0.86027 0 0 1 0.86328,0.86426 v 35.56836 q 0,6.55225 -3.74414,10.54785 a 14.21628,14.21628 0 0 1 -19.76368,0 z"
           class="b"
           inkscape:connector-curvature="0"
           style="fill:#ffffff" />
        <path
           id="path13868"
           d="m 282.63116,476.48047 a 0.82823,0.82823 0 0 1 -0.252,-0.6123 v -48.67188 a 0.86028,0.86028 0 0 1 0.86426,-0.86426 h 6.55176 a 1.02072,1.02072 0 0 1 1.00781,0.64844 l 6.91211,15.55176 q 0.21679,0.43213 0.43262,0 l 6.83984,-15.55176 a 1.019,1.019 0 0 1 1.00781,-0.64844 h 6.624 a 0.86028,0.86028 0 0 1 0.86426,0.86426 v 48.67188 a 0.86026,0.86026 0 0 1 -0.86426,0.86425 h -6.624 a 0.86024,0.86024 0 0 1 -0.86425,-0.86425 v -31.3916 c 0,-0.19141 -0.0479,-0.28809 -0.14356,-0.28809 -0.0967,0 -0.19238,0.0723 -0.28808,0.21582 l -6.19239,12.60059 q -0.28857,0.64746 -0.57617,0.64746 -0.21533,0 -0.57519,-0.64746 l -6.19239,-12.74414 c -0.0967,-0.14454 -0.19238,-0.20411 -0.28808,-0.18067 -0.0967,0.0254 -0.14356,0.13281 -0.14356,0.32422 v 31.46387 a 0.86024,0.86024 0 0 1 -0.86426,0.86425 h -6.624 a 0.82821,0.82821 0 0 1 -0.61228,-0.25195 z"
           class="b"
           inkscape:connector-curvature="0"
           style="fill:#ffffff" />
        <path
           id="path13870"
           d="m 323.16729,476.48047 a 0.82822,0.82822 0 0 1 -0.25195,-0.6123 v -48.67188 a 0.86025,0.86025 0 0 1 0.86328,-0.86426 h 6.55273 a 1.02156,1.02156 0 0 1 1.00781,0.64844 l 6.91211,15.55176 q 0.21534,0.43213 0.43164,0 l 6.83985,-15.55176 a 1.019,1.019 0 0 1 1.00781,-0.64844 h 6.624 a 0.86026,0.86026 0 0 1 0.86426,0.86426 v 48.67188 a 0.86024,0.86024 0 0 1 -0.86426,0.86425 h -6.624 a 0.86024,0.86024 0 0 1 -0.86328,-0.86425 v -31.3916 c 0,-0.19141 -0.0488,-0.28809 -0.14453,-0.28809 -0.0967,0 -0.19239,0.0723 -0.28809,0.21582 l -6.1914,12.60059 q -0.28859,0.64746 -0.57618,0.64746 -0.21679,0 -0.57617,-0.64746 l -6.19238,-12.74414 c -0.0967,-0.14454 -0.19238,-0.20411 -0.28711,-0.18067 -0.0977,0.0254 -0.14453,0.13281 -0.14453,0.32422 v 31.46387 a 0.86024,0.86024 0 0 1 -0.86426,0.86425 h -6.624 a 0.826,0.826 0 0 1 -0.61135,-0.25195 z"
           class="b"
           inkscape:connector-curvature="0"
           style="fill:#ffffff" />
        <path
           id="path13872"
           d="m 363.847,476.48047 a 0.82823,0.82823 0 0 1 -0.252,-0.6123 v -48.67188 a 0.86027,0.86027 0 0 1 0.86328,-0.86426 h 6.624 a 0.86028,0.86028 0 0 1 0.86426,0.86426 v 48.67188 a 0.86026,0.86026 0 0 1 -0.86426,0.86425 h -6.624 a 0.826,0.826 0 0 1 -0.61128,-0.25195 z"
           class="b"
           inkscape:connector-curvature="0"
           style="fill:#ffffff" />
        <path
           id="path13874"
           d="m 408.12725,426.584 a 0.84049,0.84049 0 0 1 0.252,0.6123 v 5.4717 a 0.86024,0.86024 0 0 1 -0.86425,0.86426 h -9.14454 a 0.31782,0.31782 0 0 0 -0.35937,0.36035 v 41.97559 a 0.86024,0.86024 0 0 1 -0.86426,0.86425 h -6.624 a 0.86024,0.86024 0 0 1 -0.86426,-0.86425 v -41.97562 a 0.31821,0.31821 0 0 0 -0.35938,-0.36035 h -8.64069 a 0.86024,0.86024 0 0 1 -0.86328,-0.86426 v -5.47168 a 0.86025,0.86025 0 0 1 0.86328,-0.86426 h 26.8565 a 0.84053,0.84053 0 0 1 0.61225,0.25197 z"
           class="b"
           inkscape:connector-curvature="0"
           style="fill:#ffffff" />
        <path
           id="path13876"
           d="m 431.09405,476.48047 a 0.832,0.832 0 0 1 -0.252,-0.6123 v -5.75977 a 1.62485,1.62485 0 0 1 0.36036,-1.08008 l 2.80761,-3.81543 q 2.80811,-3.74414 5.50879,-7.63281 2.69972,-3.8877 4.57129,-6.9834 4.1748,-6.9126 4.17578,-11.44824 a 7.33088,7.33088 0 0 0 -1.25976,-4.53613 4.0003,4.0003 0 0 0 -3.34766,-1.65625 3.934,3.934 0 0 0 -3.3125,1.62011 6.6121,6.6121 0 0 0 -1.15137,4.28418 v 2.80765 a 0.86024,0.86024 0 0 1 -0.86426,0.86426 h -6.76753 a 0.86024,0.86024 0 0 1 -0.86426,-0.86426 v -3.0957 a 13.333,13.333 0 0 1 3.92383,-9.28809 12.93124,12.93124 0 0 1 9.39648,-3.52734 12.02827,12.02827 0 0 1 9.17969,3.708 13.65424,13.65424 0 0 1 3.49219,9.75586 21.625,21.625 0 0 1 -1.22461,7.12793 34.41589,34.41589 0 0 1 -3.8877,7.55957 q -2.08887,3.31347 -7.7041,11.30468 -0.79248,1.15137 -1.47559,2.123 -0.68554,0.97266 -1.18847,1.76465 a 0.235,0.235 0 0 0 -0.0723,0.28808 0.2893,0.2893 0 0 0 0.28809,0.14356 h 15.4082 a 0.86024,0.86024 0 0 1 0.86426,0.86426 v 5.47168 a 0.86024,0.86024 0 0 1 -0.86426,0.86425 h -25.12793 a 0.82977,0.82977 0 0 1 -0.6123,-0.25192 z"
           class="b"
           inkscape:connector-curvature="0"
           style="fill:#ffffff" />
        <path
           id="path13878"
           d="m 466.84112,473.67285 a 14.05646,14.05646 0 0 1 -3.67188,-10.11621 v -24.04785 a 14.05646,14.05646 0 0 1 3.67188,-10.11621 12.81035,12.81035 0 0 1 9.7207,-3.85254 13.01693,13.01693 0 0 1 9.82715,3.85254 13.97571,13.97571 0 0 1 3.708,10.11621 v 24.04785 a 13.97571,13.97571 0 0 1 -3.708,10.11621 13.01265,13.01265 0 0 1 -9.82715,3.85157 12.80611,12.80611 0 0 1 -9.7207,-3.85157 z m 13.5,-5.1123 a 6.81736,6.81736 0 0 0 1.40429,-4.5 v -25.05566 a 6.81916,6.81916 0 0 0 -1.40429,-4.5 4.65612,4.65612 0 0 0 -3.7793,-1.69239 4.479,4.479 0 0 0 -3.67285,1.69239 6.94208,6.94208 0 0 0 -1.36719,4.5 v 25.05566 a 6.94024,6.94024 0 0 0 1.36719,4.5 4.47822,4.47822 0 0 0 3.67285,1.69141 4.65534,4.65534 0 0 0 3.7793,-1.69141 z"
           class="b"
           inkscape:connector-curvature="0"
           style="fill:#ffffff" />
        <path
           id="path13880"
           d="m 502.40948,426.332 h 6.91211 a 0.86027,0.86027 0 0 1 0.86328,0.86426 v 48.67188 a 0.86025,0.86025 0 0 1 -0.86328,0.86425 h -6.624 a 0.86026,0.86026 0 0 1 -0.86426,-0.86425 v -41.1836 a 0.31348,0.31348 0 0 0 -0.14453,-0.252 0.25835,0.25835 0 0 0 -0.28711,-0.0361 l -5.1123,1.51172 a 0.79241,0.79241 0 0 1 -0.36035,0.0723 q -0.64746,0 -0.64746,-0.792 v -4.752 a 1.01992,1.01992 0 0 1 0.64746,-1.00782 l 5.40039,-2.80859 a 3.27793,3.27793 0 0 1 1.08005,-0.28798 z"
           class="b"
           inkscape:connector-curvature="0"
           style="fill:#ffffff" />
        <path
           id="path13882"
           d="m 542.72881,464.63672 a 12.22017,12.22017 0 0 1 -3.56347,9.25195 13.00146,13.00146 0 0 1 -9.39649,3.41993 12.08117,12.08117 0 0 1 -8.92773,-3.45606 12.45462,12.45462 0 0 1 -3.45606,-9.21582 v -1.80078 a 0.86025,0.86025 0 0 1 0.86426,-0.86328 h 6.624 a 0.86023,0.86023 0 0 1 0.86328,0.86328 v 1.36816 a 6.69587,6.69587 0 0 0 1.18848,4.06836 3.46079,3.46079 0 0 0 2.84375,1.62012 3.99185,3.99185 0 0 0 3.27637,-1.584 6.39873,6.39873 0 0 0 1.25976,-4.1045 v -7.416 a 0.29181,0.29181 0 0 0 -0.14355,-0.28809 0.23706,0.23706 0 0 0 -0.28809,0.0723 7.32144,7.32144 0 0 1 -5.18457,1.94433 10.7715,10.7715 0 0 1 -8.06347,-3.168 13.46558,13.46558 0 0 1 -3.60059,-8.42383 33.62242,33.62242 0 0 1 -0.35937,-5.04 q 0,-1.65528 0.14355,-4.68067 a 11.72379,11.72379 0 0 1 3.78027,-8.46 13.24264,13.24264 0 0 1 9.03614,-2.9873 13.01763,13.01763 0 0 1 8.63965,2.77148 q 3.31055,2.773 3.96,8.17188 a 21.0862,21.0862 0 0 1 0.43261,4.53613 z M 534.305,442.46 q 0,-2.15918 -0.21582,-4.82324 a 6.66682,6.66682 0 0 0 -1.47558,-3.52832 3.76556,3.76556 0 0 0 -2.916,-1.22363 3.66056,3.66056 0 0 0 -2.916,1.2959 7.16291,7.16291 0 0 0 -1.47657,3.67187 q -0.21533,2.59131 -0.21582,4.60742 a 48.71235,48.71235 0 0 0 0.36036,5.11231 q 0.86279,4.17627 4.248,4.17578 a 3.8532,3.8532 0 0 0 2.84375,-1.11523 5.87667,5.87667 0 0 0 1.47559,-3.27637 43.26717,43.26717 0 0 0 0.28809,-4.89649 z"
           class="b"
           inkscape:connector-curvature="0"
           style="fill:#ffffff" />
      </g>
    </g>
  </g>
  <g
     inkscape:label="titles"
     inkscape:groupmode="layer"
     id="layer1"
     transform="translate(0,-11.249964)">
    <flowRoot
       xml:space="preserve"
       id="break"
       style="font-style:normal;font-variant:normal;font-weight:normal;font-stretch:normal;font-size:80px;line-height:0.01%;font-family:'Alte Haas Grotesk';-inkscape-font-specification:'Alte Haas Grotesk';letter-spacing:0px;word-spacing:0px;fill:#d73534;fill-opacity:1;stroke:none;stroke-width:1px;stroke-linecap:butt;stroke-linejoin:miter;stroke-opacity:1"
       transform="matrix(0.26458333,0,0,0.26458333,178.6361,-100.67446)"><flowRegion
         id="flowRegion6021"
         style="font-size:80px;fill:#d73534;fill-opacity:1"><rect
           id="rect6023"
           width="1002.3"
           height="152.68062"
           x="180"
           y="528.57141"
           style="font-size:80px;fill:#d73534;fill-opacity:1" /></flowRegion><flowPara
         id="flowPara6025"
         style="font-style:normal;font-variant:normal;font-weight:600;font-stretch:normal;font-size:80px;line-height:1.25;font-family:Barlow;-inkscape-font-specification:'Barlow Semi-Bold';fill:#d73534;fill-opacity:1">Break</flowPara></flowRoot>  </g>
</svg>
