<svg xmlns="http://www.w3.org/2000/svg" width="635.92" height="1081.38" viewBox="0 0 635.92 1081.38"><title>Element 1</title><g id="Ebene_2" data-name="Ebene 2"><g id="Ebene_1-2" data-name="Ebene 1"><path d="M266.8,922.82C114.51,913.47,0,776,0,599.83,0,381.11,135.15,226.63,266.8,92.28Z" style="fill:#bdd888"/><rect x="266.8" y="922.82" width="9.63" height="158.56" style="fill:#a1c854"/><path d="M266.8,92.28h92.28V0H266.8Zm276.84,0h92.28V0H543.64Zm0,0H451.36v92.28h92.28ZM451.36,646H359.08V553.69h92.28Zm184.56,0V553.69H543.64V461.41H451.36V369.13H359.08V276.84h92.28v92.28h92.28V276.84H451.36V184.56H266.8V922.82h92.28V830.54h92.28V738.25h92.28V646Z" style="fill:#a1c854"/></g></g></svg>