<?xml version="1.0" encoding="UTF-8" standalone="no"?>
<!-- Generator: Adobe Illustrator 15.0.0, SVG Export Plug-In . SVG Version: 6.00 Build 0)  -->

<svg
   version="1.1"
   id="svg2"
   sodipodi:docname="infobeamer.svg"
   inkscape:version="1.2.2 (b0a8486541, 2022-12-01)"
   x="0px"
   y="0px"
   width="1920px"
   height="1080px"
   viewBox="0 0 1920 1080"
   enable-background="new 0 0 1920 1080"
   xml:space="preserve"
   inkscape:export-filename="/home/thorsten/git/voc/intro-outro-generator/osc22/artwork/infobeamer.png"
   inkscape:export-xdpi="96"
   inkscape:export-ydpi="96"
   xmlns:inkscape="http://www.inkscape.org/namespaces/inkscape"
   xmlns:sodipodi="http://sodipodi.sourceforge.net/DTD/sodipodi-0.dtd"
   xmlns="http://www.w3.org/2000/svg"
   xmlns:svg="http://www.w3.org/2000/svg"
   xmlns:rdf="http://www.w3.org/1999/02/22-rdf-syntax-ns#"
   xmlns:cc="http://creativecommons.org/ns#"
   xmlns:dc="http://purl.org/dc/elements/1.1/"><metadata
   id="metadata943"><rdf:RDF><cc:Work
       rdf:about=""><dc:format>image/svg+xml</dc:format><dc:type
         rdf:resource="http://purl.org/dc/dcmitype/StillImage" /><dc:title /></cc:Work></rdf:RDF></metadata><defs
   id="defs941"><clipPath
     clipPathUnits="userSpaceOnUse"
     id="clipPath18"><path
       d="m 312.117,871.087 c -6.264,-1.72 -10.84,-10.647 -14.167,-15.645 l 0,0 c -4.194,-6.302 -7.979,-12.897 -11.534,-19.58 l 0,0 c -6.794,-12.771 -13.065,-25.863 -21.157,-37.891 l 0,0 -14.658,-134.44 c -34.506,-10.769 -67.49,-29.469 -99.699,-48.874 l 0,0 c 12.812,-37.59 55.526,-58.834 95.24,-58.766 l 0,0 c 0.024,0 0.047,0 0.071,0 l 0,0 c -6.665,-0.282 -13.34,-0.125 -19.96,0.504 l 0,0 c 17.08,-29.328 37.542,-57.811 69.853,-68.2 l 0,0 c 26.039,-8.372 54.524,-0.76 79.568,10.242 l 0,0 c 16.073,7.061 37.811,23.424 50.174,37.459 l 0,0 c -5.443,-6.931 -9.356,-11.85 -9.378,-14.226 l 0,0 c -0.036,-4.022 11.889,-7.249 15.319,-7.836 l 0,0 c 4.537,-0.776 55.479,-8.821 65.762,-9.857 l 0,0 c 10.396,-1.048 20.273,-1.879 30.647,-0.162 l 0,0 c 9.775,1.619 19.405,4.609 27.984,9.637 l 0,0 c 9.366,5.488 17.124,13.214 21.752,22.642 l 0,0 c -2.467,-9.581 -5.754,-22.648 -9.272,-36.305 l 0,0 c -0.171,-0.666 -0.311,-1.344 -0.413,-2.024 l 0,0 c -3.39,-22.815 -3.156,-46.468 -3.991,-69.493 l 0,0 c -0.901,-24.858 -1.418,-49.754 -2.83,-74.59 l 0,0 c -0.791,-13.917 -3.767,-27.11 -7.947,-40.362 l 0,0 c -1.785,-5.66 -3.752,-11.282 -5.94,-16.816 l 0,0 c 2.853,8.361 4.713,17.016 5.261,25.851 l 0,0 c 0.555,8.93 -0.352,17.967 -2.745,26.592 l 0,0 c -2.662,9.599 -7.206,18.729 -13.686,26.328 l 0,0 c -1.536,1.801 -2.531,3.044 -3.792,5.045 l 0,0 c -1.313,2.081 -3.691,4.003 -5.535,5.683 l 0,0 c -4.28,3.901 -8.981,7.314 -13.802,10.512 l 0,0 c -8.952,5.937 -18.089,11.527 -28.039,15.555 l 0,0 c -22.597,9.151 -48.915,13.05 -72.999,8.126 l 0,0 c -49.265,-10.074 -94.2,-46.844 -113.089,-93.79 l 0,0 c -7.565,-18.805 -8.616,-45.719 -6.222,-65.756 l 0,0 c 7.2,-60.243 65.422,-100.088 125.514,-108.448 l 0,0 c 24.824,-3.455 52.18,-1.693 76.294,4.869 l 0,0 c 50.617,13.775 89.298,54.937 112.844,99.669 l 0,0 c 2.794,5.307 14.736,24.552 14.675,26.909 l 0,0 c 0.267,-10.318 3.457,-20.545 9.106,-29.184 l 0,0 16.227,92.559 c 1.621,-9.021 7.294,-17.234 15.157,-21.945 l 0,0 0.204,60.905 c 1.41,-9.085 6.602,-14.523 14.491,-19.244 l 0,0 c -4.166,27.38 -4.717,52.34 -2.482,79.945 l 0,0 c 7.063,-4.324 13.65,-8.62 20.658,-10.281 l 0,0 c -3.651,26.792 -12.97,49.694 -16.621,76.487 l 0,0 c 10.534,-8.562 10.319,-10.84 19.664,-11.89 l 0,0 c -3.943,26.189 -16.832,43.539 -29.738,66.666 l 0,0 25.882,-0.923 c -10.728,25.86 -25.45,41.841 -43.486,63.254 l 0,0 c 10.92,0.053 16.559,0.433 26.037,2.489 l 0,0 c -14.416,20.027 -33.431,26.496 -56.345,35.655 l 0,0 c 14.572,6.667 21.146,13.146 30.811,25.412 l 0,0 c -25.908,4.436 -43.613,6.974 -69.672,10.409 l 0,0 c 9.984,6.221 25.959,11.735 32.646,23.966 l 0,0 c -23.093,-0.068 -51.514,-1.99 -74.606,-2.058 l 0,0 c 3.118,9.15 16.024,22.056 15.344,33.286 l 0,0 -67.289,-24.136 c -2.029,7.646 4.971,10.282 1.623,31.588 l 0,0 -54.542,-23.538 c 0,6.9 9.282,21.518 5.236,31.248 l 0,0 c -1.052,2.53 -27.624,-18.934 -36.917,-20.788 l 0,0 c 0,0 19.327,52.162 14.75,52.15 l 0,0 c -15.455,-0.042 -33.75,-18.848 -49.058,-21.738 l 0,0 c -3.6,5.947 -6.717,12.18 -9.698,18.456 l 0,0 c -5.957,12.543 -11.32,25.358 -17.137,37.966 l 0,0 c -2.809,6.088 -5.71,12.138 -8.882,18.045 l 0,0 c -2.044,3.808 -3.89,8.265 -7.717,10.63 l 0,0 c -2.577,1.592 -6.347,2.531 -9.801,2.531 l 0,0 c -1.401,0 -2.751,-0.155 -3.948,-0.484 m 41.469,-271.97 c -2.238,-1.885 -4.527,-3.722 -6.865,-5.509 l 0,0 c 2.327,1.793 4.616,3.631 6.865,5.509 m 85.349,-45.569 c 0,0 0,0 0,0 M 383.533,241.747 c -16.443,19.302 -23.431,46.211 -18.815,71.142 l 0,0 c 4.341,23.447 18.996,45.037 39.804,56.683 l 0,0 c 20.808,11.645 47.481,12.699 68.622,1.67 l 0,0 c 21.142,-11.029 35.713,-34.183 35.364,-58.026 l 0,0 c -0.349,-23.843 -16.558,-46.24 -39.055,-54.146 l 0,0 c -13.248,-4.655 -27.77,-4.347 -39.5,3.375 l 0,0 c -11.729,7.722 -19.3,22.583 -15.553,36.117 l 0,0 c 3.746,13.535 19.143,23.26 32.574,19.157 l 0,0 c 5.156,-1.575 9.602,-4.83 14.374,-7.338 l 0,0 c 6.351,-3.339 14.186,-5.411 20.409,0.204 l 0,0 c 2.348,2.119 3.893,5.052 4.395,8.174 l 0,0 c 1.65,10.257 -5.836,19.545 -14.699,22.812 l 0,0 c -6.84,2.521 -14.529,2.26 -21.749,1.25 l 0,0 c -23.7,-3.318 -46.176,-17.837 -57.931,-38.681 l 0,0 c -11.755,-20.845 -11.322,-48.644 3.051,-67.777 l 0,0 c 7.968,-10.606 19.479,-17.733 32.216,-21.387 l 0,0 c -16.77,4.192 -32.281,13.594 -43.507,26.771 m 146.601,21.02 c 0.24,0.346 0.478,0.693 0.716,1.042 l 0,0 c -2.094,-3.187 -4.311,-6.295 -6.662,-9.313 l 0,0 c -5.252,-6.741 -11.254,-13.003 -17.851,-18.524 l 0,0 c 9.038,7.807 17.014,17.001 23.797,26.795"
       id="path20"
       inkscape:connector-curvature="0" /></clipPath><clipPath
     clipPathUnits="userSpaceOnUse"
     id="clipPath28"><path
       d="m 314.284,874.024 c -6.264,-1.721 -10.84,-10.648 -14.166,-15.645 l 0,0 c -4.194,-6.302 -7.981,-12.897 -11.535,-19.58 l 0,0 c -6.794,-12.772 -13.065,-25.863 -21.157,-37.891 l 0,0 -14.657,-134.44 c -34.506,-10.769 -67.491,-29.47 -99.701,-48.874 l 0,0 c 12.813,-37.59 55.528,-58.835 95.241,-58.767 l 0,0 c 0.017,0 0.031,0 0.048,0 l 0,0 c -6.659,-0.281 -13.323,-0.124 -19.938,0.505 l 0,0 c 17.081,-29.328 37.544,-57.812 69.854,-68.2 l 0,0 c 26.039,-8.373 54.524,-0.761 79.568,10.242 l 0,0 c 16.072,7.06 37.807,23.42 50.171,37.455 l 0,0 c -5.441,-6.928 -9.354,-11.847 -9.375,-14.223 l 0,0 c -0.036,-4.022 11.889,-7.249 15.32,-7.836 l 0,0 c 4.536,-0.776 55.478,-8.82 65.761,-9.857 l 0,0 c 10.396,-1.048 20.273,-1.879 30.647,-0.161 l 0,0 c 9.774,1.618 19.404,4.608 27.984,9.636 l 0,0 c 9.366,5.488 17.124,13.214 21.752,22.642 l 0,0 c -2.467,-9.581 -5.754,-22.647 -9.272,-36.304 l 0,0 c -0.171,-0.666 -0.312,-1.345 -0.413,-2.025 l 0,0 c -3.39,-22.814 -3.157,-46.467 -3.991,-69.492 l 0,0 c -0.902,-24.859 -1.418,-49.754 -2.83,-74.591 l 0,0 c -0.791,-13.916 -3.768,-27.109 -7.947,-40.362 l 0,0 c -1.785,-5.661 -3.753,-11.284 -5.942,-16.82 l 0,0 c 2.854,8.362 4.714,17.02 5.263,25.856 l 0,0 c 0.554,8.929 -0.353,17.967 -2.745,26.592 l 0,0 c -2.662,9.598 -7.206,18.729 -13.686,26.327 l 0,0 c -1.536,1.801 -3.494,3.382 -4.757,5.383 l 0,0 c -1.312,2.081 -2.726,3.665 -4.57,5.345 l 0,0 c -4.28,3.901 -8.981,7.315 -13.802,10.512 l 0,0 c -8.952,5.938 -18.598,10.791 -28.547,14.819 l 0,0 c -22.597,9.149 -47.586,13.078 -71.67,8.153 l 0,0 c -49.265,-10.074 -95.021,-46.134 -113.91,-93.081 l 0,0 c -7.566,-18.804 -8.616,-45.718 -6.222,-65.755 l 0,0 c 7.2,-60.244 65.422,-100.089 125.514,-108.45 l 0,0 c 24.823,-3.453 52.179,-1.692 76.293,4.87 l 0,0 c 50.618,13.775 89.298,54.937 112.845,99.669 l 0,0 c 2.794,5.306 14.736,24.552 14.675,26.91 l 0,0 c 0.266,-10.318 3.457,-20.545 9.105,-29.185 l 0,0 16.228,92.559 c 1.622,-9.021 7.294,-17.234 15.156,-21.944 l 0,0 0.204,60.905 c 1.411,-9.085 6.603,-14.524 14.491,-19.245 l 0,0 c -4.165,27.381 -4.717,52.34 -2.481,79.945 l 0,0 c 7.063,-4.324 13.65,-8.619 20.657,-10.281 l 0,0 c -3.651,26.793 -12.969,49.695 -16.621,76.488 l 0,0 c 10.535,-8.562 10.321,-10.841 19.665,-11.89 l 0,0 c -3.943,26.189 -16.832,43.539 -29.738,66.666 l 0,0 25.881,-0.924 c -10.726,25.861 -25.449,41.842 -43.485,63.255 l 0,0 c 10.92,0.053 16.559,0.433 26.037,2.488 l 0,0 c -14.416,20.028 -33.431,26.496 -56.345,35.655 l 0,0 c 14.571,6.668 21.146,13.147 30.811,25.413 l 0,0 c -25.908,4.436 -43.613,6.973 -69.673,10.409 l 0,0 c 9.985,6.22 25.961,11.735 32.648,23.966 l 0,0 c -23.094,-0.069 -51.515,-1.991 -74.608,-2.06 l 0,0 c 3.119,9.152 16.025,22.058 15.345,33.287 l 0,0 -67.289,-24.135 c -2.03,7.644 4.971,10.282 1.624,31.588 l 0,0 -54.543,-23.538 c 0,6.899 9.282,21.517 5.235,31.248 l 0,0 c -1.052,2.53 -27.623,-18.935 -36.917,-20.789 l 0,0 c 0,0 19.328,52.162 14.751,52.15 l 0,0 c -15.456,-0.043 -33.751,-18.848 -49.059,-21.737 l 0,0 c -3.6,5.946 -6.717,12.18 -9.697,18.454 l 0,0 c -5.958,12.545 -11.32,25.36 -17.137,37.968 l 0,0 c -2.808,6.086 -5.71,12.137 -8.882,18.045 l 0,0 c -2.044,3.808 -3.889,8.265 -7.717,10.63 l 0,0 c -2.577,1.592 -6.347,2.53 -9.801,2.53 l 0,0 c -1.401,0 -2.752,-0.154 -3.948,-0.483 m 41.469,-271.971 c -2.231,-1.88 -4.511,-3.71 -6.842,-5.492 l 0,0 c 2.319,1.787 4.601,3.62 6.842,5.492 m 85.349,-45.569 c 0,0 0,0 0,0 M 385.7,244.684 c -16.443,19.301 -23.431,46.21 -18.815,71.142 l 0,0 c 4.341,23.447 18.996,45.036 39.804,56.681 l 0,0 c 20.807,11.646 47.481,12.699 68.623,1.672 l 0,0 c 21.141,-11.029 35.712,-34.184 35.362,-58.026 l 0,0 C 510.325,292.31 494.456,269.141 471.96,261.234 l 0,0 c -13.249,-4.656 -28.749,-3.925 -40.478,3.797 l 0,0 c -11.73,7.722 -18.663,22.934 -14.915,36.468 l 0,0 c 3.747,13.534 19.144,23.259 32.574,19.157 l 0,0 c 5.156,-1.575 9.602,-4.831 14.374,-7.339 l 0,0 c 6.352,-3.338 14.186,-5.411 20.41,0.205 l 0,0 c 2.347,2.118 3.891,5.052 4.393,8.173 l 0,0 c 1.651,10.257 -5.876,18.554 -14.739,21.821 l 0,0 c -6.84,2.522 -14.381,2.425 -21.601,1.414 l 0,0 c -23.699,-3.317 -46.283,-17.011 -58.038,-37.854 l 0,0 c -11.755,-20.844 -11.323,-48.644 3.051,-67.777 l 0,0 c 7.968,-10.606 19.481,-17.733 32.218,-21.388 l 0,0 c -16.769,4.192 -32.283,13.595 -43.509,26.773 m 146.6,21.019 c 0.248,0.358 0.494,0.716 0.739,1.075 l 0,0 c -2.1,-3.197 -4.324,-6.317 -6.684,-9.346 l 0,0 c -5.241,-6.727 -11.231,-12.977 -17.813,-18.49 l 0,0 c 9.023,7.8 16.985,16.98 23.758,26.761"
       id="path30"
       inkscape:connector-curvature="0" /></clipPath><clipPath
     clipPathUnits="userSpaceOnUse"
     id="clipPath1428"><path
       d="m 0,1201.89 853.228,0 L 853.228,0 0,0 0,1201.89 Z"
       id="path1430"
       inkscape:connector-curvature="0" /></clipPath><clipPath
     clipPathUnits="userSpaceOnUse"
     id="clipPath1436"><path
       d="m 153.069,874.507 547.722,0 0,-721.1 -547.722,0 0,721.1 z"
       id="path1438"
       inkscape:connector-curvature="0" /></clipPath><radialGradient
     fx="0"
     fy="0"
     cx="0"
     cy="0"
     r="1"
     gradientUnits="userSpaceOnUse"
     gradientTransform="matrix(74.078758,0,0,-59.263008,239.82324,731.99097)"
     spreadMethod="pad"
     id="radialGradient1468"><stop
       style="stop-opacity:1;stop-color:#ffffff"
       offset="0"
       id="stop1470" /><stop
       style="stop-opacity:1;stop-color:#c4c3c3"
       offset="1"
       id="stop1472" /></radialGradient><clipPath
     clipPathUnits="userSpaceOnUse"
     id="clipPath1480"><path
       d="m 0,1201.89 853.228,0 L 853.228,0 0,0 0,1201.89 Z"
       id="path1482"
       inkscape:connector-curvature="0" /></clipPath><radialGradient
     fx="0"
     fy="0"
     cx="0"
     cy="0"
     r="1"
     gradientUnits="userSpaceOnUse"
     gradientTransform="matrix(74.078758,0,0,-59.263008,324.3374,727.64069)"
     spreadMethod="pad"
     id="radialGradient1516"><stop
       style="stop-opacity:1;stop-color:#ffffff"
       offset="0"
       id="stop1518" /><stop
       style="stop-opacity:1;stop-color:#c4c3c3"
       offset="1"
       id="stop1520" /></radialGradient><clipPath
     clipPathUnits="userSpaceOnUse"
     id="clipPath1528"><path
       d="m 0,1201.89 853.228,0 L 853.228,0 0,0 0,1201.89 Z"
       id="path1530"
       inkscape:connector-curvature="0" /></clipPath><clipPath
     clipPathUnits="userSpaceOnUse"
     id="clipPath1560"><path
       d="m 529.474,574.673 c 6.87,-7.702 13.741,-15.405 20.611,-23.107 l 0,0 c 2.925,-3.279 6.035,-7.149 6.026,-11.402 l 0,0 c -10e-4,-0.461 -0.038,-0.925 -0.116,-1.394 l 0,0 c -0.679,-4.076 -4.235,-6.974 -7.641,-9.312 l 0,0 c -8.134,-5.582 -16.812,-10.954 -24.245,-17.441 l 0,0 c -3.348,-2.922 -15.688,-9.847 -17.856,-11.768 l 0,0 c -10.514,-9.322 -29.698,-8.23 -43.695,-6.992 l 0,0 c -2.978,0.263 -6.376,0.501 -8.544,-1.558 l 0,0 c -1.461,-1.388 -1.959,-3.483 -2.345,-5.461 l 0,0 c -0.541,-2.777 -0.961,-5.706 -0.964,-8.569 l 0,0 c -0.005,-3.924 0.773,-7.721 3.093,-10.826 l 0,0 c 5.5,-7.361 17.621,-6.775 24.515,-0.701 l 0,0 c 3.855,3.397 7.098,8.39 12.216,8.854 l 0,0 c 5.187,0.469 9.462,-4.158 11.606,-8.906 l 0,0 c 2.145,-4.748 3.149,-10.106 6.358,-14.211 l 0,0 c 6.392,-8.178 21.134,-7.2 26.389,1.752 l 0,0 c 1.293,2.202 1.885,4.672 1.889,7.167 l 0,0 c 0.013,7.643 -5.488,15.526 -13.22,16.729 l 0,0 c -0.999,1.438 -1.44,3.117 -1.442,4.842 l 0,0 c -0.002,2.689 1.063,5.487 2.742,7.64 l 0,0 c 2.755,3.534 6.807,5.762 10.671,8.029 l 0,0 c 15.893,9.322 30.475,20.875 43.186,34.214 l 0,0 c 2.132,2.238 4.348,4.93 4.35,7.937 l 0,0 c 0,0.269 -0.017,0.54 -0.054,0.814 l 0,0 c -0.28,2.082 -1.645,3.833 -2.959,5.471 l 0,0 c -9.167,11.424 -18.333,22.849 -27.5,34.273 l 0,0 -23.071,-6.074 z"
       id="path1562"
       inkscape:connector-curvature="0" /></clipPath><clipPath
     clipPathUnits="userSpaceOnUse"
     id="clipPath1646"><path
       d="m 0,1201.89 853.228,0 L 853.228,0 0,0 0,1201.89 Z"
       id="path1648"
       inkscape:connector-curvature="0" /></clipPath><clipPath
     clipPathUnits="userSpaceOnUse"
     id="clipPath1658"><path
       d="m 444.813,571.047 c 6.832,-7.66 13.665,-15.32 20.499,-22.979 l 0,0 c 3.241,-3.634 6.709,-7.994 5.908,-12.797 l 0,0 c -0.056,-0.338 -0.132,-0.668 -0.226,-0.99 l 0,0 c -0.987,-3.65 -4.29,-6.315 -7.463,-8.492 l 0,0 c -8.135,-5.582 -16.812,-10.954 -24.246,-17.441 l 0,0 c -3.348,-2.922 -15.687,-9.846 -17.855,-11.769 l 0,0 c -10.514,-9.321 -29.699,-8.229 -43.695,-6.992 l 0,0 c -2.979,0.264 -6.375,0.503 -8.543,-1.557 l 0,0 c -0.945,-0.898 -1.487,-2.091 -1.857,-3.358 l 0,0 c -0.178,-0.638 -0.315,-1.291 -0.44,-1.933 l 0,0 c -1.283,-6.581 -1.885,-14.024 2.129,-19.396 l 0,0 c 5.499,-7.36 17.621,-6.774 24.514,-0.7 l 0,0 c 3.856,3.397 7.099,8.391 12.216,8.854 l 0,0 c 5.189,0.47 9.464,-4.158 11.607,-8.906 l 0,0 c 2.144,-4.747 3.15,-10.106 6.357,-14.211 l 0,0 c 6.393,-8.177 21.135,-7.199 26.39,1.752 l 0,0 c 0.57,0.971 1.003,1.993 1.311,3.046 l 0,0 c 2.398,8.633 -3.607,19.267 -12.691,20.68 l 0,0 c -1.621,2.332 -1.772,5.302 -0.964,8.064 l 0,0 c 0.46,1.658 1.268,3.248 2.313,4.588 l 0,0 c 2.754,3.534 6.806,5.762 10.671,8.029 l 0,0 c 15.893,9.322 30.475,20.875 43.186,34.215 l 0,0 c 1.669,1.751 3.39,3.782 4.06,6.024 l 0,0 c 0.225,0.825 0.306,1.678 0.187,2.556 l 0,0 c -0.279,2.082 -1.644,3.832 -2.959,5.47 l 0,0 c -9.166,11.425 -18.334,22.85 -27.5,34.274 l 0,0 -22.909,-6.031 z"
       id="path1660"
       inkscape:connector-curvature="0" /></clipPath></defs><sodipodi:namedview
   units="px"
   pagecolor="#ffffff"
   inkscape:zoom="0.49497475"
   id="base"
   bordercolor="#666666"
   borderopacity="1.0"
   inkscape:pageopacity="0"
   inkscape:pageshadow="2"
   inkscape:cx="908.12713"
   inkscape:cy="565.68542"
   inkscape:document-units="px"
   inkscape:current-layer="layer2"
   showgrid="false"
   inkscape:window-width="1920"
   inkscape:window-height="1131"
   inkscape:window-x="0"
   inkscape:window-y="0"
   inkscape:window-maximized="1"
   showguides="true"
   inkscape:guide-bbox="true"
   inkscape:showpageshadow="0"
   inkscape:pagecheckerboard="0"
   inkscape:deskcolor="#d1d1d1"><sodipodi:guide
     position="991.42857,1077.1429"
     orientation="0,1"
     id="guide8407"
     inkscape:locked="false" /><sodipodi:guide
     position="880.85303,551.5433"
     orientation="0,1"
     id="guide8409"
     inkscape:locked="false"
     inkscape:label=""
     inkscape:color="rgb(0,0,255)" /><sodipodi:guide
     position="960,1143.4927"
     orientation="1,0"
     id="guide8411"
     inkscape:locked="false"
     inkscape:label=""
     inkscape:color="rgb(0,0,255)" /><sodipodi:guide
     position="1874.1345,936.72488"
     orientation="1,0"
     id="guide1596"
     inkscape:locked="false" /></sodipodi:namedview><g
   id="layer2"
   inkscape:groupmode="layer"
   inkscape:label="Background"
   style="display:inline"><rect
   id="pause_bg"
   x="1.1444092e-05"
   width="1920"
   height="1080"
   y="3.0517578e-05"
   style="display:inline;fill:#173f4f;fill-opacity:1" /><text
   xml:space="preserve"
   style="font-style:normal;font-variant:normal;font-weight:normal;font-stretch:normal;font-size:9.5266px;line-height:0%;font-family:'Open Sans Pro';-inkscape-font-specification:'Open Sans Pro';letter-spacing:0px;word-spacing:0px;display:inline;fill:#ffffff;fill-opacity:1;stroke:none;stroke-width:0.793884px;stroke-linecap:butt;stroke-linejoin:miter;stroke-opacity:1"
   x="1470.6472"
   y="343.86914"
   id="text5802"><tspan
     sodipodi:role="line"
     x="1470.6472"
     y="343.86914"
     style="font-style:normal;font-variant:normal;font-weight:bold;font-stretch:normal;font-size:55.5719px;line-height:1.25;font-family:'Source Sans Pro';-inkscape-font-specification:'Source Sans Pro Bold';stroke-width:0.793884px"
     id="tspan1594">Conference 2023</tspan></text>



</g>
<g
   id="pause"
   transform="matrix(2.4406736,0,0,2.4406736,-2702.7083,-70.559949)"><text
   xml:space="preserve"
   style="font-style:normal;font-weight:normal;line-height:0%;font-family:sans-serif;letter-spacing:0px;word-spacing:0px;fill:#000000;fill-opacity:1;stroke:none;stroke-width:0.917005px;stroke-linecap:butt;stroke-linejoin:miter;stroke-opacity:1"
   x="645.31598"
   y="593.3819"
   id="text8405" />







<g
   id="g5758"
   transform="matrix(0.51253329,0,0,0.51253329,1586.7258,-164.41202)"
   style="fill:#ffffff"><path
     d="m 523.71,442.05 c -3.3113,-0.11926 -6.4507,1.0506 -8.8499,3.3008 -2.3993,2.2502 -3.8147,5.2984 -3.9147,8.5992 -0.2297,6.8208 5.1108,12.559 11.916,12.81 3.3095,0.1 6.4647,-1.0698 8.878,-3.32 2.4098,-2.2607 3.7953,-5.3107 3.9006,-8.5992 0.2297,-6.819 -5.109,-12.549 -11.93,-12.791 z m 2.0205,13.512 c -3.0307,0 -5.4791,-1.6398 -5.4791,-3.6498 0,-2.0292 2.4484,-3.6603 5.4791,-3.6603 3.0306,0 5.486,1.6311 5.486,3.6603 0,2.0099 -2.4571,3.6498 -5.486,3.6498 z m 28.798,14.729 c 0.0887,-0.0692 0.29521,-0.25105 0.2683,-0.41918 -0.68471,-4.2787 -7.0592,-25.029 -11.884,-30.019 -1.3294,-1.3592 -2.394,-2.6992 -4.5495,-3.9602 -17.454,-10.171 -58.863,-16.309 -60.803,-16.59 0,0 -0.19473,-0.0406 -0.3297,0.0912 -0.1048,0.10237 -0.1246,0.29991 -0.1246,0.29991 0,0 -0.1596,8.5799 -0.1841,9.5392 -4.2286,-1.4206 -34.972,-11.351 -63.791,-12.351 -24.44,-0.85939 -60.033,-4.0198 -107.2,24.98 l -1.3943,0.86815 c -22.19,13.841 -37.51,30.91 -45.518,50.739 -2.5116,6.2402 -5.8895,20.32 -2.5414,33.569 1.4417,5.7912 4.1304,11.611 7.7556,16.819 8.194,11.77 21.944,19.58 36.749,20.899 20.904,1.8696 36.733,-7.5188 42.363,-25.099 3.8708,-12.13 0,-29.928 -14.839,-39.008 -12.07,-7.3908 -25.049,-5.7106 -32.578,-0.7296 -6.5313,4.3303 -10.23,11.06 -10.165,18.451 0.1508,13.11 11.444,20.078 19.564,20.099 2.3589,0 4.7284,-0.41041 7.3995,-1.2803 0.9506,-0.28939 1.845,-0.64893 2.8307,-1.2593 l 0.3087,-0.18065 0.1947,-0.12978 -0.065,0.0386 c 1.8503,-1.261 2.964,-3.3113 2.964,-5.5106 0,-0.59981 -0.084,-1.2084 -0.2561,-1.8205 -0.9593,-3.32 -4.239,-5.3282 -7.638,-4.7091 l -0.4595,0.10874 -0.6209,0.18942 -0.9015,0.31043 c -1.8696,0.45951 -3.2692,0.49985 -3.5691,0.51038 -0.9506,-0.0614 -5.6246,-1.461 -5.6246,-6.5805 v -0.0702 c 0,-1.8801 0.7542,-3.199 1.1698,-3.9199 1.454,-2.28 5.4352,-4.5179 10.814,-4.0497 7.0593,0.61034 12.149,4.2303 15.52,11.06 3.1289,6.349 2.3098,14.159 -2.1099,19.88 -4.3899,5.6685 -12.205,8.0783 -22.598,6.9593 -10.481,-1.1593 -19.34,-7.1908 -24.303,-16.579 -4.8565,-9.1779 -5.1213,-20.059 -0.6858,-28.418 10.609,-20.029 30.649,-19.82 41.637,-17.921 16.26,2.8202 34.758,17.819 41.319,35.139 1.0593,2.7606 1.5995,4.9494 2.0713,6.9505 l 0.7085,2.9903 18.37,8.9692 c 0.39458,0.19266 0.52796,0.25778 0.6858,0.14034 0.18941,-0.14093 0.081,-0.52966 0.081,-0.52966 -0.114,-0.4104 -0.3806,-0.78924 -0.805,-5.9298 -0.3491,-4.5618 -1.0594,-17.051 5.2282,-23.24 2.4414,-2.4186 6.1613,-4.5776 9.099,-5.2686 12.04,-2.9412 26.159,-0.912 39.507,14.539 6.9102,7.98 10.279,11.619 11.97,13.249 0,0 0.38494,0.36349 0.5893,0.53142 0.22331,0.1835 0.36878,0.33789 0.6945,0.51914 0.55786,0.31042 22.954,10.621 22.954,10.621 0,0 0.26534,0.13182 0.4612,-0.11049 0.19362,-0.23953 0.01,-0.4788 0.01,-0.4788 -0.1491,-0.17013 -14.199,-18.328 -11.698,-33.279 1.9696,-11.909 11.447,-10.83 24.558,-9.3498 4.2794,0.49984 9.1516,1.0593 14.196,1.1716 14.084,0.0895 29.254,-2.5115 38.604,-6.6015 6.049,-2.629 9.9093,-4.3794 12.328,-6.5787 0.8699,-0.72084 1.3207,-1.8907 1.7907,-3.1499 l 0.3297,-0.83133 c 0.3911,-1.0207 0.9664,-3.171 1.219,-4.3496 0.1017,-0.51914 0.2208,-1.0274 -0.2087,-1.3592 -0.39265,-0.30337 -1.2944,0.24027 -1.2944,0.24027 -4.1058,2.4712 -14.369,7.1505 -23.965,7.3504 -11.914,0.24028 -36.054,-12.061 -38.555,-13.36 -1.6739,-3.9857 -3.3458,-7.9724 -5.0438,-11.948 17.27,11.379 31.594,17.668 42.559,18.638 12.207,1.0874 21.723,-5.5724 25.853,-8.3433 0.54064,-0.35944 1.0799,-0.76184 1.5756,-1.1486 z m -48.992,-16.369 c 0.1753,-4.7302 2.1554,-9.1201 5.6141,-12.34 3.4603,-3.2306 7.9747,-4.9003 12.708,-4.7494 9.7602,0.34902 17.43,8.5886 17.095,18.338 -0.1841,4.7302 -2.1642,9.1201 -5.6141,12.33 -3.4603,3.2499 -7.9642,4.9196 -12.719,4.76 -9.7497,-0.35954 -17.411,-8.5799 -17.084,-18.338 z"
     id="Geeko"
     inkscape:connector-curvature="0"
     style="clip-rule:evenodd;fill:#ffffff;fill-rule:evenodd" /><path
     id="path5761"
     d="m 376.84,556.36 c -7.7836,0 -12.065,6.5805 -12.065,11.13 v 5.8403 c 0,6.6997 5.4738,10.851 10.55,10.851 h 17.819 c 2.2449,0 2.7149,1.4697 2.7149,2.7097 v 3.769 c 0,0.39988 -0.081,4.0198 -2.7149,4.0198 h -24.303 c -2.4151,0 -4.1602,1.6802 -4.1602,3.9795 v 1.0418 c 0,2.2905 1.7451,3.9602 4.1602,3.9602 h 25.624 c 6.698,0 11.02,-4.66 11.02,-11.879 v -6.3016 c 0,-6.7786 -4.8705,-9.8093 -9.7058,-9.8093 h -17.533 c -2.6395,0 -3.8356,-1.9801 -3.8356,-3.3797 v -3.4796 c 0,-2.1906 1.4644,-3.4604 4.0251,-3.4604 h 19.408 c 2.38,0 4.1707,-1.71 4.1707,-3.9707 v -1.04 c 0,-2.2695 -1.8205,-3.9813 -4.2513,-3.9813 h -20.922 z"
     inkscape:connector-curvature="0"
     style="fill:#ffffff" /><path
     id="path5763"
     d="m 449.7,556.36 c -2.301,0 -4.1548,1.8696 -4.1548,4.1707 v 29.838 c 0,2.3905 -1.9503,4.311 -4.311,4.311 h -13.545 c -2.3694,0 -4.3092,-1.9205 -4.3092,-4.311 v -29.838 c 0,-2.3011 -1.8696,-4.1707 -4.1689,-4.1707 h -1.3101 c -2.3344,0 -4.1707,1.8416 -4.1707,4.1707 v 30.968 c 0,7.2101 5.6737,12.44 13.489,12.44 h 14.485 c 7.8047,0 13.475,-5.2282 13.475,-12.44 v -30.968 c 0,-2.3291 -1.8293,-4.1707 -4.1602,-4.1707 h -1.3189 z"
     inkscape:connector-curvature="0"
     style="fill:#ffffff" /><path
     id="path5765"
     d="m 475.63,556.36 c -7.7801,0 -12.074,6.5805 -12.074,11.13 v 5.8403 c 0,6.6997 5.4843,10.851 10.564,10.851 h 17.814 c 2.2485,0 2.7203,1.4697 2.7203,2.7097 v 3.769 c 0,0.39988 -0.081,4.0198 -2.7203,4.0198 H 467.62 c -2.4045,0 -4.1601,1.6802 -4.1601,3.9795 v 1.0418 c 0,2.2905 1.7556,3.9602 4.1601,3.9602 h 25.633 c 6.6998,0 11.041,-4.66 11.041,-11.879 v -6.3016 c 0,-6.7786 -4.8845,-9.8093 -9.7199,-9.8093 h -17.533 c -2.6466,0 -3.8392,-1.9801 -3.8392,-3.3797 v -3.4796 c 0,-2.1906 1.4645,-3.4604 4.0251,-3.4604 h 19.419 c 2.3747,0 4.1584,-1.71 4.1584,-3.9707 v -1.04 c 0,-2.2695 -1.8188,-3.9813 -4.2601,-3.9813 h -20.913 z"
     inkscape:connector-curvature="0"
     style="fill:#ffffff" /><path
     id="path5767"
     d="m 516.6,556.36 c -2.3098,0 -4.0549,1.7118 -4.0549,3.9813 v 39.358 c 0,2.259 1.7047,3.9602 3.9637,3.9602 h 31.364 c 2.4151,0 4.1602,-1.6697 4.1602,-3.9602 v -1.0418 c 0,-2.2993 -1.7451,-3.9795 -4.1602,-3.9795 h -25.687 v -10.02 h 18.822 c 2.4098,0 4.1602,-1.6907 4.1602,-3.9813 v -1.04 c 0,-2.3011 -1.7504,-3.9707 -4.1602,-3.9707 h -18.822 v -10.32 h 24.382 c 2.4063,0 4.1601,-1.6591 4.1601,-3.9707 v -1.04 c 0,-2.3011 -1.7538,-3.9813 -4.1601,-3.9813 h -29.968 z"
     inkscape:connector-curvature="0"
     style="fill:#ffffff" /><g
     id="g5769"
     transform="matrix(1.7539,0,0,1.7539,-611.6,-134.13)"
     style="fill:#ffffff"><path
       id="path5771"
       d="m 491.25,404.37 c -2.241,0 -4.065,1.744 -4.065,3.894 v 8.461 c 0,2.184 1.765,3.963 3.929,3.963 h 5.473 c 2.164,0 3.929,-1.779 3.929,-3.963 v -8.461 c 0,-2.149 -1.825,-3.894 -4.065,-3.894 z m -1.184,12.019 v -7.726 c 0,-0.906 0.744,-1.647 1.654,-1.647 h 4.264 c 0.89,0 1.648,0.758 1.648,1.647 v 7.726 c 0,0.912 -0.738,1.653 -1.648,1.653 h -4.296 c -0.912,0 -1.622,-0.725 -1.622,-1.653 z"
       inkscape:connector-curvature="0"
       style="fill:#ffffff" /><path
       id="path5773"
       d="m 512.91,404.27 c -1.578,0 -2.768,0.564 -3.723,1.026 -0.582,0.279 -1.086,0.52 -1.477,0.52 -0.177,0 -0.328,-0.08 -0.408,-0.211 l -0.364,-0.696 c -0.091,-0.183 -0.456,-0.541 -0.907,-0.541 h -0.541 c -0.52,0 -0.936,0.467 -0.936,1.037 v 21.461 c 0,0.673 0.531,1.203 1.203,1.203 h 0.468 c 0.667,0 1.209,-0.536 1.209,-1.203 v -7.121 c 0,-0.211 0.137,-0.439 0.276,-0.439 0.391,0 0.895,0.229 1.477,0.496 0.955,0.439 2.145,0.98 3.723,0.98 h 0.505 c 2.794,0 4.532,-1.597 4.532,-4.162 v -8.192 c 0,-2.526 -1.775,-4.157 -4.532,-4.157 h -0.505 z m -5.475,11.952 v -7.39 c 0,-1.021 0.798,-1.818 1.818,-1.818 h 3.997 c 1.021,0 1.818,0.798 1.818,1.818 v 7.39 c 0,1.003 -0.818,1.818 -1.818,1.818 h -3.997 c -1.001,0 -1.818,-0.815 -1.818,-1.818 z"
       inkscape:connector-curvature="0"
       style="fill:#ffffff" /><path
       id="path5775"
       d="m 526.04,404.37 c -2.241,0 -4.06,1.744 -4.06,3.894 v 8.398 c 0,2.178 1.768,4.025 3.854,4.025 h 5.647 c 0.698,0 1.203,-0.484 1.203,-1.141 v -0.37 c 0,-0.661 -0.505,-1.135 -1.203,-1.135 h -4.639 c -1.3,0 -1.986,-0.639 -1.986,-1.854 v -2.457 h 8.369 c 1.346,0 2.142,-0.821 2.142,-2.212 v -3.256 c 0,-2.149 -1.822,-3.894 -4.054,-3.894 h -5.273 z m -1.183,4.265 c 0,-0.907 0.713,-1.619 1.621,-1.619 h 4.396 c 0.906,0 1.613,0.712 1.613,1.619 v 2.622 h -7.631 c 10e-4,-0.342 10e-4,-2.622 10e-4,-2.622 z"
       inkscape:connector-curvature="0"
       style="fill:#ffffff" /><path
       id="path5777"
       d="m 547,404.27 c -1.573,0 -2.76,0.564 -3.718,1.021 -0.596,0.28 -1.105,0.525 -1.521,0.525 -0.183,0 -0.257,-0.023 -0.399,-0.269 l -0.331,-0.604 c -0.19,-0.382 -0.513,-0.575 -0.949,-0.575 h -0.465 c -0.562,0 -0.972,0.438 -0.972,1.037 v 14.077 c 0,0.667 0.527,1.203 1.206,1.203 h 0.465 c 0.667,0 1.211,-0.542 1.211,-1.203 v -10.65 c 0,-0.998 0.815,-1.818 1.813,-1.818 h 3.999 c 1.001,0 1.816,0.82 1.816,1.818 v 10.65 c 0,0.667 0.53,1.203 1.203,1.203 h 0.47 c 0.667,0 1.209,-0.542 1.209,-1.203 v -11.055 c 0,-2.526 -1.776,-4.157 -4.535,-4.157 z"
       inkscape:connector-curvature="0"
       style="fill:#ffffff" /></g><g
     id="g5779"
     transform="matrix(1.7539,0,0,1.7539,-611.6,-134.13)"
     style="fill:#ffffff"><path
       id="path5781"
       d="m 667.46,415.23 c 1.218,0 2.188,0.99 2.188,2.229 0,1.257 -0.971,2.237 -2.198,2.237 -1.218,0 -2.208,-0.98 -2.208,-2.237 0,-1.238 0.99,-2.229 2.208,-2.229 z m -0.01,0.346 c -0.98,0 -1.782,0.842 -1.782,1.882 0,1.06 0.802,1.891 1.792,1.891 0.99,0.011 1.782,-0.831 1.782,-1.881 0,-1.05 -0.792,-1.892 -1.782,-1.892 z m -0.416,3.179 h -0.396 v -2.485 c 0.208,-0.03 0.406,-0.06 0.703,-0.06 0.377,0 0.624,0.079 0.772,0.188 0.149,0.108 0.229,0.276 0.229,0.515 0,0.326 -0.218,0.524 -0.485,0.604 v 0.021 c 0.218,0.039 0.366,0.237 0.416,0.604 0.06,0.387 0.118,0.535 0.158,0.614 h -0.416 c -0.06,-0.079 -0.119,-0.307 -0.168,-0.634 -0.06,-0.316 -0.218,-0.436 -0.535,-0.436 h -0.277 v 1.069 z m 0,-1.377 h 0.287 c 0.327,0 0.604,-0.118 0.604,-0.426 0,-0.218 -0.158,-0.436 -0.604,-0.436 -0.129,0 -0.218,0.01 -0.287,0.021 z"
       inkscape:connector-curvature="0"
       style="fill:#ffffff" /></g></g></g><g
   id="layer3"
   inkscape:groupmode="layer"
   inkscape:label="Text" />

</svg>
