<?xml version="1.0" encoding="UTF-8" standalone="no"?>
<!-- Created with Inkscape (http://www.inkscape.org/) -->

<svg
   xmlns:dc="http://purl.org/dc/elements/1.1/"
   xmlns:cc="http://creativecommons.org/ns#"
   xmlns:rdf="http://www.w3.org/1999/02/22-rdf-syntax-ns#"
   xmlns:svg="http://www.w3.org/2000/svg"
   xmlns="http://www.w3.org/2000/svg"
   xmlns:sodipodi="http://sodipodi.sourceforge.net/DTD/sodipodi-0.dtd"
   xmlns:inkscape="http://www.inkscape.org/namespaces/inkscape"
   version="1.1"
   width="1280"
   height="720"
   id="svg3039"
   inkscape:version="0.91 r13725"
   sodipodi:docname="intro.svg">
  <sodipodi:namedview
     pagecolor="#ffffff"
     bordercolor="#666666"
     borderopacity="1"
     objecttolerance="10"
     gridtolerance="10"
     guidetolerance="10"
     inkscape:pageopacity="0"
     inkscape:pageshadow="2"
     inkscape:window-width="1918"
     inkscape:window-height="1013"
     id="namedview3103"
     showgrid="false"
     inkscape:zoom="0.942"
     inkscape:cx="213.24927"
     inkscape:cy="386.5622"
     inkscape:window-x="0"
     inkscape:window-y="27"
     inkscape:window-maximized="0"
     inkscape:current-layer="title" />
  <metadata
     id="metadata3045">
    <rdf:RDF>
      <cc:Work
         rdf:about="">
        <dc:format>image/svg+xml</dc:format>
        <dc:type
           rdf:resource="http://purl.org/dc/dcmitype/StillImage" />
        <dc:title />
      </cc:Work>
    </rdf:RDF>
  </metadata>
  <defs
     id="defs3043">
    <inkscape:path-effect
       effect="spiro"
       id="path-effect5076"
       is_visible="true" />
    <inkscape:path-effect
       effect="spiro"
       id="path-effect5072"
       is_visible="true" />
    <inkscape:path-effect
       effect="spiro"
       id="path-effect5068"
       is_visible="true" />
  </defs>
  <g
     id="g4039"
     transform="matrix(0.72,0,0,0.72,319.4426,37.281504)">
    <g
       style="fill:#ffffff"
       transform="matrix(1.0094,0,0,1.0094,927.23173,46.230361)"
       id="g4007">
      <path
         inkscape:connector-curvature="0"
         d="m 249.57077,79.147641 c -3.27917,-1.36195 -8.45187,-3.65411 -11.4949,-5.09368 -3.04303,-1.43959 -5.86339,-2.61744 -6.26748,-2.61744 -0.40408,0 -3.67033,-1.38702 -7.25834,-3.08227 -3.588,-1.69525 -6.75163,-3.08228 -7.03027,-3.08228 -0.27865,0 -4.00991,-1.61819 -8.29169,-3.59599 -4.28179,-1.97779 -7.96877,-3.59598 -8.1933,-3.59598 -0.22452,0 -2.87461,-1.12815 -5.88908,-2.506997 -3.01446,-1.378849 -7.76716,-3.387573 -10.56155,-4.463835 -4.07996,-1.5714 -5.80549,-3.050728 -8.76034,-7.510401 l -3.67963,-5.553561 -2.69774,-32.4219699 c -1.48376,-17.8320831 -2.95893,-33.1026111 -3.27816,-33.9345061 -1.34957,-3.516914 1.83299,-4.998833 16.41744,-7.644583 7.91117,-1.435158 17.38917,-3.290858 21.06221,-4.123779 7.92791,-1.797778 92.12251,-5.90589 94.44155,-4.608092 0.89198,0.499182 2.70134,5.860033 4.39535,13.022789 1.5836,6.695887 4.28415,17.953607 6.00125,25.0171531 1.71712,7.06354801 3.56192,14.692178 4.09958,16.9525129 3.94119,16.568692 5.97169,19.647737 17.51182,26.554809 3.63109,2.173302 9.83838,5.912301 13.79396,8.308886 l 7.19197,4.357427 -0.3495,4.533926 c -0.41957,5.442891 -0.83411,5.947791 -5.94629,7.242021 -7.67665,1.94347 -29.8133,7.19285 -45.07546,10.68894 -8.47625,1.94167 -21.19063,4.90362 -28.25418,6.58213 -7.06355,1.67852 -13.53633,3.05166 -14.38395,3.05144 -0.84762,-2.1e-4 -4.2241,-1.11472 -7.50327,-2.47667 z m 40.38087,-7.2552 c 24.22644,-5.74428 40.90131,-9.65525 48.28897,-11.32586 10.23285,-2.31398 10.27425,-2.33618 10.27425,-5.51074 l 0,-2.885681 -6.4214,1.474942 c -3.53178,0.811218 -13.5877,3.041909 -22.3465,4.957079 -32.83716,7.18007 -43.84999,9.63269 -50.34382,11.21182 -3.67305,0.8932 -7.71854,1.86363 -8.98997,2.15654 -1.8351,0.42276 -2.31171,1.24696 -2.31171,3.99764 l 0,3.4651 7.96255,-1.88245 c 4.3794,-1.03534 15.12884,-3.58162 23.88763,-5.65839 z m -34.14775,3.06095 c 0.24565,-2.7226 -0.98365,-4.01092 -13.15934,-13.79112 -7.38666,-5.93338 -15.5153,-12.647895 -18.06363,-14.921143 l -4.63334,-4.133179 -2.48698,-14.360471 c -7.11922,-41.108165 -9.97122,-57.881235 -10.43421,-61.365165 -0.62882,-4.731828 -0.51297,-4.724437 -18.27611,-1.165913 -7.34609,1.471655 -14.66468,2.914024 -16.26353,3.205264 -1.59886,0.291242 -3.10536,1.049591 -3.34778,1.685223 -0.40266,1.055796 2.07876,30.71081711 4.77456,57.059838 1.48265,14.491559 3.23559,17.767799 11.53271,21.554572 10.25392,4.679849 21.07177,9.358704 21.63801,9.358704 0.28783,0 3.90906,1.53863 8.04719,3.41917 4.13812,1.88055 9.14206,4.03857 11.11985,4.7956 1.97779,0.75704 4.09478,1.75223 4.7044,2.21151 0.60963,0.4593 4.07719,1.9676 7.70569,3.3518 3.6285,1.3842 8.44663,3.4543 10.70697,4.60025 5.06025,2.5654 6.08999,2.32459 6.43554,-1.50494 z m 9.48955,-6.66263 c 1.97779,-0.56046 8.91292,-2.14374 15.41137,-3.51843 6.49847,-1.37468 18.98169,-4.10332 27.74048,-6.06361 8.7588,-1.96032 20.92554,-4.654038 27.03719,-5.986037 12.98814,-2.830687 13.15678,-2.150694 -2.89271,-11.663847 -5.65083,-3.349471 -11.42536,-7.131556 -12.8323,-8.404632 -3.11158,-2.815535 -4.8163,-2.829828 -22.61386,-0.189608 -7.62862,1.131687 -25.42876,3.700789 -39.55586,5.709115 -33.31101,4.735537 -32.36388,4.570638 -32.36388,5.634739 0,0.503261 0.35941,0.915018 0.79869,0.915018 0.43929,0 2.58416,1.50261 4.76638,3.339132 7.81908,6.580413 12.63116,10.58777 16.96401,14.1271 2.42121,1.97779 5.58429,4.6435 7.02905,5.92378 1.68781,1.49569 3.39339,2.12556 4.77115,1.76205 1.17937,-0.31119 3.7625,-1.02434 5.74029,-1.58477 z m 0.58872,-4.58198 c -1.08891,-0.82382 -1.65583,-1.82187 -1.25982,-2.21788 0.39601,-0.39601 1.44364,0.003 2.32807,0.88801 1.26935,1.26935 2.40025,1.40694 5.3695,0.65322 2.06882,-0.52514 10.0031,-2.31064 17.63173,-3.96778 7.62863,-1.65713 14.9105,-3.258855 16.18195,-3.559372 1.27143,-0.300526 2.3117,-0.170144 2.3117,0.289734 0,0.459888 -4.04549,1.658728 -8.98997,2.664098 -4.94448,1.00536 -13.72251,2.94961 -19.50672,4.32054 -12.24167,2.90144 -11.52263,2.85394 -14.06644,0.92943 z m -17.48075,-4.12032 c -1.49419,-1.13017 -1.61015,-1.50846 -0.46234,-1.50846 0.84262,0 1.97124,0.39705 2.50808,0.88236 0.55201,0.49901 6.10925,-0.14702 12.79144,-1.487 6.49846,-1.303152 18.86884,-3.755169 27.48974,-5.448925 8.62089,-1.693755 16.13393,-3.363599 16.69565,-3.710759 0.56172,-0.347163 1.02131,-0.150385 1.02131,0.437282 0,0.587668 -1.04027,1.310298 -2.3117,1.605845 -6.33396,1.472333 -54.10215,10.816867 -55.0591,10.770797 -0.37329,-0.018 -1.57618,-0.71149 -2.67308,-1.54114 z m -6.53437,-5.396159 c -1.24258,-0.825037 -2.25922,-1.932231 -2.25922,-2.460433 0,-0.528203 0.92347,-0.313543 2.05215,0.47702 2.1871,1.5319 5.25843,1.111817 42.64083,-5.832199 15.04731,-2.795131 17.73432,-3.119983 16.62415,-2.009803 -0.68755,0.687552 -9.09917,2.297301 -36.14523,6.917194 -8.47625,1.44788 -16.59083,3.032057 -18.03241,3.520397 -1.83407,0.621301 -3.2994,0.437488 -4.88027,-0.612176 z m 75.98075,-1.604504 c -1.2158,-0.5425 -2.21053,-1.368141 -2.21053,-1.834757 0,-0.466616 1.09302,-0.350383 2.42892,0.258294 1.83097,0.834244 4.29705,0.685422 10.0174,-0.604521 12.06121,-2.719816 13.23931,-2.88889 13.23931,-1.900024 0,1.573999 -20.93663,5.213707 -23.4751,4.081008 z m -84.91824,-5.809479 c -2.07768,-2.295813 -0.95368,-2.714056 1.75774,-0.654061 1.80926,1.37458 1.57148,1.40608 48.32923,-6.402308 6.07464,-1.014447 11.04482,-1.51095 11.04482,-1.103343 0,0.40761 -2.88964,1.215776 -6.4214,1.795928 -3.53178,0.58015 -16.36175,2.701425 -28.51105,4.713941 -12.1493,2.012516 -22.59591,3.669375 -23.21468,3.681908 -0.61877,0.01253 -1.96187,-0.901897 -2.98466,-2.032065 z m 77.82745,0.790824 c -3.14806,-1.504551 -2.9532,-3.093897 0.20302,-1.655832 1.92437,0.876801 4.67242,0.751032 11.7058,-0.535739 9.58814,-1.754174 12.14761,-2.021575 11.30737,-1.181332 -0.27509,0.275107 -4.39764,1.222942 -9.1612,2.106301 -4.76356,0.883359 -9.35453,1.778306 -10.20215,1.988772 -0.84762,0.210466 -2.58141,-0.11451 -3.85284,-0.72217 z m -8.40108,-5.323651 c -1.8579,-2.238626 -0.76195,-3.199147 1.29885,-1.138349 1.47324,1.473246 2.55691,1.427438 12.06378,-0.509939 5.74483,-1.170721 10.68574,-1.887979 10.97982,-1.593906 0.58131,0.581316 0.0672,0.759416 -7.17471,2.484758 -9.74221,2.321073 -15.65359,2.581882 -17.16774,0.757436 z m -7.0103,-4.850398 c -1.9775,-2.004782 -1.52084,-3.476079 0.51372,-1.655088 1.59756,1.429873 2.71424,1.453084 10.01738,0.208221 4.52067,-0.770573 9.25967,-1.708178 10.53112,-2.083566 1.32617,-0.391551 2.3117,-0.238391 2.3117,0.359258 0,0.956717 -5.61912,2.189566 -17.46623,3.832143 -3.12466,0.433227 -5.03973,0.218965 -5.90769,-0.660968 z m -46.49098,-0.393326 c 46.23258,-6.38061 55.36296,-7.703334 60.79905,-8.808008 l 5.83179,-1.185087 -1.68524,-3.534001 c -1.33401,-2.797434 -2.12122,-3.403185 -3.77696,-2.906362 -1.15043,0.345201 -14.34374,2.206973 -29.31847,4.137272 -14.97472,1.930299 -34.39305,4.444176 -43.15184,5.586395 -8.7588,1.142218 -16.20773,2.082528 -16.55319,2.089576 -0.8946,0.01826 0.19368,5.415101 1.39965,6.940894 0.63768,0.806802 2.38442,1.071627 4.74239,0.718997 2.05308,-0.307035 11.82385,-1.674889 21.71282,-3.039676 z M 234.47069,29.30832 c 3.67304,-0.529175 19.16148,-2.580866 34.41873,-4.559314 15.25727,-1.978449 30.7457,-4.063528 34.41874,-4.633512 3.67305,-0.569983 7.30566,-1.045629 8.07247,-1.056991 0.93385,-0.01383 1.14025,-0.614329 0.62508,-1.818652 -0.76178,-1.780813 -3.36788,-12.5443419 -10.01268,-41.353857 -4.67919,-20.28721 -4.20418,-19.612601 -13.35355,-18.96443 -4.08153,0.289149 -22.67821,1.213884 -41.32598,2.054967 -32.6003,1.470395 -38.54311,1.997451 -38.516,3.415912 0.007,0.357907 1.42407,8.972881 3.1494,19.144389 5.32301,31.381218 8.11828,48.254603 8.12929,49.071685 0.006,0.430491 1.74433,0.530537 3.86339,0.222326 2.11907,-0.308212 6.85807,-0.993349 10.53111,-1.522523 z m -2.54895,-12.527741 c -0.33421,-1.866465 -1.28833,-7.0923019 -2.12027,-11.6129719 -2.79924,-15.2106161 -5.56749,-31.8371581 -5.58633,-33.5522841 -0.0157,-1.428311 1.59268,-1.800155 9.99869,-2.311616 5.50957,-0.335226 16.49017,-1.061128 24.40134,-1.613115 7.91118,-0.551984 18.06243,-1.129953 22.55836,-1.284371 l 8.17441,-0.280764 0.72535,3.082275 c 0.39893,1.695251 2.35911,10.248565 4.35594,19.007362 1.99683,8.7587991 4.09242,17.7614731 4.65686,20.0059431 0.56443,2.2444709 0.9333,4.1738099 0.81968,4.2874209 -0.3305,0.33051 -17.07683,2.256959 -38.72203,4.454473 -11.01913,1.118711 -21.97419,2.298888 -24.34457,2.622618 -4.22492,0.57701 -4.32176,0.521775 -4.91743,-2.80497 z"
         id="path3049-4"
         style="fill:#ffffff" />
      <path
         style="fill:#ffffff;fill-opacity:1;stroke:#000000;stroke-width:0;stroke-miterlimit:4;stroke-opacity:1;stroke-dasharray:none;stroke-dashoffset:0"
         d="m 252.94751,78.071983 c -0.21895,-0.08433 -2.24921,-0.981731 -4.51168,-1.994228 -2.26247,-1.012497 -6.62155,-2.858742 -9.68684,-4.102768 -3.06528,-1.244023 -6.58837,-2.78595 -7.82908,-3.426499 -1.24071,-0.640552 -6.01778,-2.791609 -10.61571,-4.780125 -10.52794,-4.553137 -11.18243,-4.8293 -14.7293,-6.215082 -3.99089,-1.559265 -19.09644,-8.257604 -22.00371,-9.757232 -5.61329,-2.895452 -7.67235,-6.332938 -9.01813,-15.055263 -1.22867,-7.963249 -5.62579,-57.804123 -5.41952,-61.42948 0.0742,-1.303307 0.17117,-1.510271 0.95477,-2.036883 1.02986,-0.692106 0.21104,-0.508789 16.34211,-3.658658 13.41291,-2.619101 17.30692,-3.218118 18.59572,-2.86059 1.49,0.413347 1.6307,0.888709 3.31526,11.20111 1.56842,9.601443 10.92058,64.151924 11.4511,66.793492 0.25278,1.258636 0.45882,1.5384 2.45063,3.327569 3.57649,3.212615 8.52087,7.343315 19.15979,16.006755 13.82254,11.255899 14.6914,12.175223 14.37787,15.21298 -0.23044,2.232797 -1.36238,3.341409 -2.83328,2.774902 l 0,0 z"
         id="path3997"
         inkscape:connector-curvature="0" />
      <path
         style="fill:#ffffff;fill-opacity:1;stroke:#000000;stroke-width:0;stroke-miterlimit:4;stroke-opacity:1;stroke-dasharray:none;stroke-dashoffset:0"
         d="m 220.06849,30.418599 c -0.12242,-0.328424 -0.36695,-1.612261 -0.54341,-2.852972 -0.22984,-1.616088 -9.66884,-58.56158 -10.72525,-64.705483 -0.31067,-1.80682 3.68947,-2.262361 31.93961,-3.637323 7.51725,-0.365872 22.08731,-1.090119 32.37792,-1.609438 10.2906,-0.519318 19.45532,-0.900549 20.36604,-0.847178 2.76336,0.161941 3.78477,1.287617 5.21681,5.749365 0.49701,1.548497 2.95352,11.593316 5.45891,22.321819 4.79346,20.526364 7.13967,30.143224 7.82906,32.090427 0.39562,1.117447 0.34614,2.145242 -0.10327,2.145242 -0.11518,0 -6.4666,0.838519 -14.11428,1.863375 -7.64767,1.024854 -25.07126,3.35124 -38.71909,5.169743 -13.64782,1.818503 -27.30649,3.667086 -30.35259,4.107962 -3.04611,0.440878 -6.18401,0.801595 -6.97313,0.801595 -1.24503,0 -1.46419,-0.07897 -1.65733,-0.597134 z m 41.90237,-13.601011 c 26.53969,-2.834183 36.51599,-3.987951 37.39749,-4.325051 0.47056,-0.179952 0.46569,-0.296942 -0.12943,-3.1063159 -1.22922,-5.8027335 -9.87661,-42.8934101 -10.03784,-43.0546431 -0.37413,-0.374123 -16.60563,0.492695 -46.01591,2.457407 -14.95381,0.998969 -17.5646,1.277617 -18.41385,1.965299 -0.52666,0.426462 -0.53679,0.544927 -0.24114,2.818809 0.61789,4.752216 5.44099,32.6857476 7.16607,41.50307 0.87081,4.450963 1.19621,4.948856 3.06171,4.684766 0.58944,-0.08344 12.83525,-1.407948 27.2129,-2.943341 z"
         id="path3999"
         inkscape:connector-curvature="0" />
      <path
         style="fill:#ffffff;fill-opacity:1;stroke:#000000;stroke-width:0;stroke-miterlimit:4;stroke-opacity:1;stroke-dasharray:none;stroke-dashoffset:0"
         d="m 223.30704,39.933188 c -0.46494,-0.211651 -1.04162,-0.764353 -1.28149,-1.228227 -0.9831,-1.901105 -1.76999,-5.871463 -1.22984,-6.205297 0.1536,-0.09493 5.86818,-0.887625 12.69908,-1.761551 40.17807,-5.140272 62.42557,-8.085478 71.38213,-9.449825 6.11639,-0.931706 6.44644,-0.956233 7.10053,-0.527658 0.41563,0.272335 1.25842,1.590897 2.13854,3.345804 1.25835,2.509079 1.39124,2.91445 0.99395,3.03181 -1.19685,0.353549 -9.48176,1.866367 -14.02469,2.560896 -8.32024,1.272009 -73.33913,10.334088 -75.20781,10.482169 -1.19633,0.0948 -1.98414,0.01876 -2.5704,-0.248121 l 0,0 z"
         id="path4001"
         inkscape:connector-curvature="0" />
      <path
         style="fill:#ffffff;fill-opacity:1;stroke:#000000;stroke-width:0;stroke-miterlimit:4;stroke-opacity:1;stroke-dasharray:none;stroke-dashoffset:0"
         d="m 257.14933,69.657532 c -0.58048,-0.20733 -6.097,-4.628983 -13.66773,-10.955085 -12.81495,-10.708179 -16.81671,-13.88629 -17.4851,-13.88629 -0.56494,0 -1.01829,-1.015706 -0.65093,-1.458349 0.5833,-0.702832 1.20957,-0.801109 47.50385,-7.454549 22.92716,-3.295105 37.17107,-5.227871 39.29527,-5.332006 3.98274,-0.195246 5.33282,0.142134 7.48589,1.870698 2.9289,2.351426 6.46124,4.627915 17.04835,10.987154 5.48902,3.297022 7.65194,4.806433 8.10769,5.658011 0.41277,0.771281 -0.27866,1.468323 -1.94837,1.964173 -1.51977,0.451325 -22.62345,5.14952 -51.27609,11.415314 -21.88647,4.786157 -24.23,5.324029 -28.99287,6.654244 -3.58506,1.001268 -4.00326,1.04268 -5.41996,0.536685 l 0,0 z m 14.24298,-5.049798 c 1.16772,-0.207651 3.41322,-0.684169 4.98999,-1.058928 1.57677,-0.374758 8.01996,-1.820544 14.31821,-3.212861 12.54731,-2.773758 15.12162,-3.393625 16.67498,-4.015154 1.11935,-0.447877 1.15285,-0.888922 0.0675,-0.888922 -0.67786,0 -9.75846,1.961311 -27.02733,5.837608 -11.60815,2.605653 -11.65511,2.609841 -13.43133,1.197877 -1.7305,-1.37561 -3.0055,-1.17561 -1.96605,0.3084 0.5944,0.848631 2.79201,2.210303 3.56655,2.209891 0.37639,-1.99e-4 1.63975,-0.17026 2.80748,-0.377911 l 0,0 z m -16.22864,-4.276837 c 7.43171,-1.33432 35.61997,-6.855262 45.88301,-8.98663 5.88484,-1.222129 6.4833,-1.403012 7.09984,-2.145887 0.74474,-0.897366 -0.13126,-0.928867 -3.32414,-0.119537 -3.42799,0.868927 -39.1914,8.064605 -45.4954,9.153777 -5.34637,0.923721 -8.16975,1.100512 -9.18563,0.575178 -1.01416,-0.52444 -2.76709,-0.861718 -2.76709,-0.532405 0,0.519512 2.97241,2.729724 3.67108,2.729724 0.19973,0 2.05298,-0.3034 4.11833,-0.67422 l 0,0 z m -6.69125,-5.968906 c 3.8219,-0.867667 13.71165,-2.695696 32.98099,-6.096235 16.50345,-2.912431 19.94637,-3.670365 19.35571,-4.261019 -0.39356,-0.393564 -4.4939,0.249936 -22.11851,3.471238 -8.68498,1.58738 -18.65711,3.361191 -22.1603,3.941803 -11.47989,1.902657 -12.79826,1.958673 -15.30083,0.650113 -1.46726,-0.767206 -1.82839,-0.680769 -1.19493,0.286007 0.79982,1.220683 3.3093,2.751702 4.59098,2.800929 0.16681,0.0064 1.89791,-0.350369 3.84689,-0.792836 l 0,0 z m 78.91776,-2.407886 c 6.71599,-0.964776 12.99095,-2.474283 13.66582,-3.287454 0.86517,-1.042456 -1.45412,-0.746826 -11.40998,1.454388 -5.91888,1.308648 -9.42368,1.607314 -11.37436,0.969281 -1.45709,-0.476591 -2.42606,-0.560969 -2.42606,-0.211261 0,0.352119 0.85815,1.040054 1.86564,1.495591 1.12424,0.508321 4.11862,0.378217 9.67894,-0.420545 l 0,0 z m -79.35244,-5.137948 c 15.76342,-2.490873 40.82309,-6.673653 43.04357,-7.184522 1.04922,-0.241397 2.12406,-0.605666 2.38853,-0.809486 0.42224,-0.325411 0.28676,-0.351984 -1.1115,-0.218008 -3.54237,0.339414 -9.69228,1.263028 -22.82378,3.427753 -25.1576,4.147223 -31.63306,5.08132 -33.19457,4.788379 -0.48016,-0.09008 -1.56066,-0.577854 -2.40111,-1.083947 -0.84045,-0.506093 -1.62468,-0.920169 -1.74274,-0.920169 -0.57501,0 -0.0829,0.953234 1.10582,2.141934 1.47392,1.473922 2.21351,1.866605 3.1912,1.694351 0.36491,-0.06429 5.55997,-0.890621 11.54458,-1.836285 l 0,0 z m 75.05964,-0.259706 c 9.19789,-1.819971 10.79493,-2.205964 10.79493,-2.60906 0,-0.333924 -1.54176,-0.135954 -10.0402,1.289219 -8.01931,1.344824 -10.46659,1.460422 -13.17936,0.622533 -1.86417,-0.575782 -2.29528,-0.521295 -1.82266,0.230359 0.58054,0.923275 3.2728,2.144066 4.77481,2.165113 0.45723,0.0064 4.71984,-0.757767 9.47248,-1.698164 l 0,0 z m -13.77861,-3.342192 c 4.1786,-0.396248 16.66129,-3.136244 17.32878,-3.80373 0.72916,-0.729167 -1.80072,-0.432623 -11.06735,1.297276 -6.81184,1.27164 -9.42304,1.611477 -10.43348,1.357875 -0.36219,-0.0909 -1.1598,-0.584076 -1.77245,-1.095937 -0.61266,-0.511861 -1.28176,-0.930656 -1.4869,-0.930656 -0.91949,0 0.0399,2.022711 1.27225,2.682225 0.29837,0.159685 1.09524,0.383736 1.77082,0.497893 0.67557,0.114157 1.28803,0.221505 1.36102,0.238551 0.073,0.01705 1.43527,-0.09253 3.02731,-0.243497 z m -4.8103,-5.713511 c 8.07601,-1.202827 13.46143,-2.392669 13.87763,-3.06609 0.0953,-0.154253 0.046,-0.407746 -0.10952,-0.563318 -0.20022,-0.200215 -1.39145,-0.04331 -4.0772,0.537023 -2.08688,0.450934 -6.06031,1.197971 -8.82984,1.660081 -5.80355,0.968355 -7.92631,0.977678 -9.0938,0.03994 -0.95354,-0.765893 -1.89004,-1.237142 -2.08034,-1.046837 -0.22214,0.222138 0.53826,1.57259 1.25609,2.23077 1.17844,1.080534 2.93075,1.12086 9.05698,0.208431 l 0,0 z"
         id="path4003"
         inkscape:connector-curvature="0" />
      <path
         style="fill:#ffffff;fill-opacity:1;stroke:#000000;stroke-width:0;stroke-miterlimit:4;stroke-opacity:1;stroke-dasharray:none;stroke-dashoffset:0"
         d="m 257.99145,77.127729 c 0.002,-2.492752 0.31728,-3.905794 1.01296,-4.535374 0.78306,-0.708658 12.42135,-3.44004 47.55244,-11.160051 11.6043,-2.550029 25.6805,-5.659882 31.28045,-6.910783 5.59994,-1.250901 10.28744,-2.274366 10.41666,-2.274366 0.12922,0 0.23495,1.080544 0.23495,2.401208 0,2.261384 -0.0413,2.439462 -0.70887,3.058163 -0.38988,0.361326 -1.49457,0.890822 -2.45488,1.176657 -0.96031,0.285835 -11.4793,2.796739 -23.37553,5.579785 -11.89623,2.783047 -30.95602,7.263772 -42.3551,9.957168 -11.39907,2.693396 -20.92335,4.897083 -21.16507,4.897083 -0.37366,0 -0.43927,-0.327946 -0.43801,-2.18949 z"
         id="path4005"
         inkscape:connector-curvature="0" />
    </g>
    <g
       transform="translate(1075.3621,2.6129811)"
       id="g4015">
      <path
         inkscape:connector-curvature="0"
         d="m 104.10808,121.31442 c -3.19164,-1.3256 -8.22627,-3.55658 -11.18808,-4.95773 -2.9618,-1.40116 -5.70688,-2.54756 -6.10017,-2.54756 -0.3933,0 -3.57236,-1.35 -7.06459,-3 -3.49224,-1.65 -6.57141,-3 -6.84262,-3 -0.27121,0 -3.90287,-1.575 -8.07036,-3.5 -4.16749,-1.925 -7.75606,-3.5 -7.97459,-3.5 -0.21854,0 -2.79789,-1.098036 -5.73189,-2.440077 -2.934,-1.342041 -7.55983,-3.297147 -10.27963,-4.34468 -3.97105,-1.529454 -5.65052,-2.969295 -8.5265,-7.309926 L 28.74824,81.309127 26.12251,49.752595 C 24.67835,32.396503 23.24256,17.53359 22.93185,16.723901 c -1.31354,-3.423037 1.78406,-4.8654 15.97921,-7.440527 7.7,-1.396849 16.925,-3.203015 20.5,-4.013703 7.71629,-1.74979 89.66349,-5.748244 91.92063,-4.485088 0.86817,0.485857 2.62923,5.703611 4.27802,12.675171 1.54132,6.517155 4.1698,17.474373 5.84107,24.349373 1.67127,6.875 3.46683,14.3 3.99014,16.5 3.83599,16.126425 5.81229,19.123281 17.04438,25.845983 3.53417,2.11529 9.57576,5.754484 13.42576,8.087097 l 7,4.241115 -0.34017,4.412902 c -0.40837,5.297606 -0.81186,5.789026 -5.78757,7.048706 -7.47174,1.8916 -29.0175,7.00085 -43.87226,10.40363 -8.25,1.88983 -20.625,4.77272 -27.5,6.40643 -6.875,1.63371 -13.175,2.9702 -14,2.96999 -0.825,-2.1e-4 -4.11134,-1.08497 -7.30298,-2.41056 z m 39.30298,-7.06155 c 23.57976,-5.59094 39.80953,-9.39752 47,-11.02353 9.9597,-2.25221 10,-2.27383 10,-5.363642 l 0,-2.808654 -6.25,1.435571 c -3.4375,0.789564 -13.225,2.960704 -21.75,4.824755 -31.96065,6.98842 -42.67951,9.37557 -49,10.91255 -3.575,0.86935 -7.5125,1.81389 -8.75,2.09897 -1.78611,0.41148 -2.25,1.21368 -2.25,3.89094 l 0,3.3726 7.75,-1.8322 c 4.2625,-1.0077 14.725,-3.48602 23.25,-5.50736 z m -33.23626,2.97925 c 0.23911,-2.64993 -0.95738,-3.90386 -12.80806,-13.42299 C 90.17724,98.034127 82.26558,91.498844 79.78527,89.286275 L 75.27561,85.263423 72.85502,71.286275 C 65.92583,31.275407 63.14996,14.950061 62.69933,11.559127 62.0873,6.953605 62.20006,6.960799 44.91106,10.424335 c -7.15,1.432373 -14.27323,2.836241 -15.82941,3.119707 -1.55618,0.283467 -3.02246,1.021574 -3.25841,1.640239 -0.39192,1.027614 2.02327,29.891055 4.64711,55.536743 1.44307,14.104737 3.14922,17.293523 11.22487,20.979217 9.98021,4.55493 20.5093,9.108889 21.06042,9.108889 0.28015,0 3.80472,1.49756 7.83239,3.32791 4.02767,1.83035 8.89803,3.93077 10.82303,4.66759 1.925,0.73683 3.98547,1.70545 4.57883,2.15248 0.59335,0.44704 3.96835,1.91508 7.5,3.26233 3.53164,1.34724 8.22117,3.36209 10.42117,4.47744 4.92517,2.49693 5.92742,2.26256 6.26374,-1.46476 z m 9.23626,-6.48479 c 1.925,-0.54549 8.675,-2.08651 15,-3.4245 6.325,-1.33799 18.475,-3.99379 27,-5.90177 8.525,-1.907989 20.36697,-4.529796 26.31549,-5.826241 12.64144,-2.755128 12.80559,-2.093286 -2.81549,-11.352505 -5.5,-3.260063 -11.1204,-6.941193 -12.48978,-8.180288 -3.02852,-2.74038 -4.68773,-2.754291 -22.01022,-0.184546 -7.425,1.101479 -24.75,3.602004 -38.5,5.556722 -32.42184,4.609131 -31.5,4.448634 -31.5,5.484331 0,0.489827 0.34982,0.890594 0.77738,0.890594 0.42756,0 2.51517,1.4625 4.63915,3.25 7.61036,6.404763 12.29399,10.305143 16.51118,13.750003 2.35659,1.925 5.43523,4.51955 6.84143,5.76567 1.64276,1.45575 3.30281,2.06882 4.6438,1.715 1.14788,-0.30288 3.66206,-0.99699 5.58706,-1.54247 z m 0.573,-4.45967 c -1.05985,-0.80183 -1.61163,-1.77323 -1.22619,-2.15867 0.38545,-0.38545 1.40511,0.003 2.26592,0.8643 1.23548,1.23547 2.33619,1.36938 5.22619,0.63579 2.01359,-0.51113 9.73608,-2.24897 17.16108,-3.86187 7.425,-1.6129 14.5125,-3.171866 15.75,-3.464367 1.2375,-0.292501 2.25,-0.165598 2.25,0.282006 0,0.447604 -3.9375,1.614441 -8.75,2.592981 -4.8125,0.97853 -13.35622,2.87088 -18.98604,4.20522 -11.91489,2.82399 -11.21505,2.77775 -13.69096,0.90461 z m -17.01413,-4.01033 c -1.45432,-1.1 -1.56717,-1.4682 -0.45,-1.4682 0.82012,0 1.91863,0.38646 2.44113,0.8588 0.53727,0.4857 5.94617,-0.14308 12.45,-1.4473 6.325,-1.268368 18.36518,-3.654929 26.75595,-5.303474 8.39078,-1.648545 15.70328,-3.273814 16.25,-3.611709 0.54673,-0.337895 0.99405,-0.14637 0.99405,0.425611 0,0.571981 -1.0125,1.275322 -2.25,1.56298 -6.16488,1.433032 -52.658,10.528132 -53.5894,10.483292 -0.36333,-0.0175 -1.53411,-0.6925 -2.60173,-1.5 z m -6.35995,-5.252122 c -1.20941,-0.803014 -2.19892,-1.880654 -2.19892,-2.394757 0,-0.514103 0.89882,-0.305173 1.99738,0.464288 2.12871,1.491008 5.11807,1.082139 41.50262,-5.676521 14.64565,-2.720521 17.26094,-3.036701 16.1804,-1.956155 -0.6692,0.6692 -8.85628,2.23598 -35.1804,6.732554 -8.25,1.40923 -16.14799,2.951122 -17.55108,3.426427 -1.78511,0.604713 -3.21132,0.42581 -4.75,-0.595836 z m 73.9526,-1.561675 c -1.18334,-0.528019 -2.15152,-1.331621 -2.15152,-1.785782 0,-0.45416 1.06384,-0.34103 2.36408,0.2514 1.78209,0.811975 4.18235,0.667126 9.75,-0.588385 11.73927,-2.647216 12.88592,-2.811777 12.88592,-1.849306 0,1.531984 -20.37777,5.074537 -22.84848,3.972073 z M 87.91106,89.809127 c -2.02222,-2.234531 -0.92823,-2.64161 1.71082,-0.636602 1.76097,1.337888 1.52953,1.368547 47.03918,-6.231412 5.9125,-0.987368 10.75,-1.470619 10.75,-1.073891 0,0.396729 -2.8125,1.183323 -6.25,1.747988 -3.4375,0.564665 -15.925,2.629316 -27.75,4.588113 -11.825,1.958796 -21.99276,3.571428 -22.59501,3.583626 -0.60226,0.0122 -1.9095,-0.877822 -2.90499,-1.977822 z m 75.75,0.769715 c -3.06403,-1.464391 -2.87436,-3.011313 0.1976,-1.611634 1.87301,0.853397 4.54771,0.730984 11.39334,-0.521439 9.33221,-1.70735 11.82336,-1.967612 11.00555,-1.149798 -0.26776,0.267763 -4.28026,1.190298 -8.91667,2.050077 -4.6364,0.859779 -9.10482,1.730838 -9.92982,1.935686 -0.825,0.204849 -2.5125,-0.111453 -3.75,-0.702892 z m -8.17683,-5.181548 c -1.8083,-2.17887 -0.74161,-3.113752 1.26418,-1.107964 1.43392,1.433921 2.48866,1.389336 11.74177,-0.496326 5.59148,-1.139471 10.40051,-1.837583 10.68673,-1.55136 0.5658,0.565799 0.0653,0.739145 -6.98319,2.418432 -9.48216,2.259117 -15.23575,2.512964 -16.70949,0.737218 z m -6.82317,-4.720927 c -1.92472,-1.951268 -1.48025,-3.383292 0.5,-1.610908 1.55492,1.391705 2.64179,1.414297 9.75,0.202663 4.4,-0.750004 9.0125,-1.662582 10.25,-2.027951 1.29078,-0.381098 2.25,-0.232026 2.25,0.34967 0,0.931179 -5.46912,2.13112 -17,3.729851 -3.04126,0.421664 -4.90521,0.21312 -5.75,-0.643325 z m -45.25,-0.382827 c 44.9985,-6.210293 53.88516,-7.49771 59.17614,-8.572896 l 5.67613,-1.153454 -1.64026,-3.439667 c -1.2984,-2.722763 -2.06459,-3.312345 -3.67614,-2.828783 -1.11973,0.335986 -13.96087,2.148062 -28.53587,4.026836 -14.575,1.878773 -33.475,4.325548 -42,5.437277 -8.525,1.11173 -15.7751,2.02694 -16.11133,2.0338 -0.87072,0.01777 0.18851,5.270555 1.36228,6.755621 0.62066,0.785266 2.32078,1.043021 4.61581,0.699804 1.99828,-0.298839 11.50824,-1.630181 21.13324,-2.958538 z m -14,-7.488087 c 3.575,-0.515049 18.65,-2.511975 33.5,-4.437612 14.85,-1.925638 29.925,-3.955061 33.5,-4.50983 3.575,-0.554768 7.11064,-1.017718 7.85699,-1.028777 0.90893,-0.01347 1.10981,-0.59793 0.60839,-1.770107 -0.74145,-1.733277 -3.27798,-12.209497 -9.74542,-40.25 C 150.57674,1.063442 151.03908,1.720043 142.13393,2.350913 138.16135,2.632344 120.06106,3.532395 101.91106,4.351027 70.18095,5.782173 64.39678,6.29516 64.42316,7.675758 c 0.007,0.348353 1.38606,8.733369 3.06534,18.633369 5.18092,30.543561 7.90157,46.966545 7.91229,47.761818 0.006,0.418999 1.69777,0.516375 3.76027,0.21639 2.0625,-0.299985 6.675,-0.966832 10.25,-1.481882 z M 86.93015,60.612114 c -0.32529,-1.816643 -1.25394,-6.902987 -2.06368,-11.302987 -2.72451,-14.8046 -5.41888,-30.98733 -5.43721,-32.656675 -0.0153,-1.390186 1.55017,-1.752103 9.7318,-2.249911 5.3625,-0.326279 16.05,-1.032804 23.75,-1.570056 7.7,-0.537251 17.58029,-1.099792 21.95621,-1.250089 l 7.95621,-0.273269 0.70598,3 c 0.38829,1.65 2.29614,9.975 4.23967,18.5 1.94353,8.525 3.98318,17.287366 4.53255,19.471925 0.54937,2.184559 0.90839,4.062399 0.79781,4.172977 -0.32169,0.321687 -16.621,2.196714 -37.68843,4.33557 -10.725,1.088849 -21.38764,2.237524 -23.69475,2.552613 -4.11214,0.561608 -4.20639,0.507847 -4.78617,-2.730098 z"
         id="path3049"
         style="fill:#000000" />
      <path
         style="fill:#ffffff;fill-opacity:1;stroke:#000000;stroke-width:0;stroke-miterlimit:4;stroke-opacity:1;stroke-dasharray:none;stroke-dashoffset:0"
         d="m 103.39868,118.43791 c -2.04353,-0.94521 -6.223465,-2.74505 -9.288751,-3.99966 -3.065287,-1.2546 -6.635014,-2.81267 -7.932726,-3.46237 -3.39198,-1.6982 -19.994798,-8.86941 -25.374068,-10.95975 C 57.521556,98.740929 42.181618,91.928557 39.760813,90.671362 34.505478,87.94211 32.539097,84.651407 31.231613,76.397898 30.144218,69.533695 26.1563,25.058858 25.973479,17.75711 l -0.06949,-2.775607 1.061571,-0.585288 C 27.963669,13.845913 32.852284,12.802 50.32012,9.4090874 59.343185,7.6564682 61.457633,7.6187171 62.10348,9.1987086 c 0.161489,0.395064 0.94987,4.7190944 1.751958,9.6089564 0.802092,4.889862 3.671996,21.788747 6.377567,37.553078 l 4.919222,28.662421 1.915157,1.814156 c 2.341815,2.218312 9.902815,8.558158 20.490387,17.18104 11.967119,9.74644 12.857289,10.71144 12.518609,13.57105 -0.37693,3.18259 -1.36107,3.30764 -6.6777,0.8485 l 0,0 z"
         id="path3987"
         inkscape:connector-curvature="0" />
      <path
         style="fill:#ffffff;fill-opacity:1;stroke:#000000;stroke-width:0;stroke-miterlimit:4;stroke-opacity:1;stroke-dasharray:none;stroke-dashoffset:0"
         d="M 74.748605,69.696731 C 74.353115,67.178817 71.889581,52.328607 69.274083,36.696266 66.658586,21.063925 64.518634,8.070172 64.518634,7.8212596 c 0,-1.0394323 2.612105,-1.4792285 12.738853,-2.1448216 C 80.541723,5.4605773 85.7965,5.1604271 88.934769,5.0094374 92.073039,4.8584478 105.50855,4.1889556 118.79146,3.521677 132.07437,2.8543985 144.08533,2.295118 145.4825,2.2788315 c 3.14927,-0.036711 4.00608,0.3701271 5.11887,2.4305935 1.26581,2.3437961 1.28507,2.4201998 10.24114,40.637518 1.31695,5.619692 2.83109,11.743331 3.36475,13.608086 0.53366,1.864756 0.89002,3.470736 0.79191,3.568843 -0.18878,0.188777 -2.5373,0.510648 -47.96758,6.574079 -15.85646,2.116312 -30.885469,4.146856 -33.397787,4.51232 -2.512319,0.365467 -5.377463,0.664485 -6.366989,0.664485 l -1.799136,0 -0.719073,-4.578025 z m 42.715885,-9.082169 c 24.91755,-2.684482 33.77425,-3.70237 35.12125,-4.036427 0.77118,-0.191253 1.01944,1.169161 -2.75181,-15.079387 -1.66003,-7.152336 -3.89535,-16.825903 -4.96736,-21.496816 l -1.94911,-8.492569 -1.44729,-0.09108 c -1.91581,-0.120563 -12.31676,0.365072 -24.93455,1.16423 -33.941551,2.149716 -35.745924,2.309596 -36.687058,3.250731 -0.523548,0.523548 -0.522912,0.542144 0.18467,5.399039 0.700092,4.805484 5.377312,31.639858 6.64293,38.112132 0.814452,4.165051 1.015611,4.431635 3.187482,4.224228 0.875796,-0.08364 13.296176,-1.412972 27.600846,-2.954082 z"
         id="path3989"
         inkscape:connector-curvature="0" />
      <path
         style="fill:#ffffff;fill-opacity:1;stroke:#000000;stroke-width:0;stroke-miterlimit:4;stroke-opacity:1;stroke-dasharray:none;stroke-dashoffset:0"
         d="m 78.397433,83.028897 c -0.96191,-0.387274 -1.737641,-2.315821 -2.298625,-5.714623 -0.07341,-0.444772 -0.03794,-0.963256 0.07882,-1.152186 0.136843,-0.221416 2.040816,-0.572975 5.356799,-0.989108 28.207123,-3.539789 66.329123,-8.561099 75.556413,-9.95205 l 7.24844,-1.092653 0.67437,0.62791 c 0.53965,0.502482 3.46675,5.796801 3.20963,5.805359 -0.0378,0.0013 -2.15873,0.410082 -4.71314,0.908495 -6.48367,1.26509 -10.82902,1.907352 -48.55831,7.177165 -18.314034,2.557997 -33.899225,4.643335 -34.633766,4.634083 -0.734541,-0.0093 -1.598827,-0.122829 -1.920636,-0.252392 l 0,0 z"
         id="path3991"
         inkscape:connector-curvature="0" />
      <path
         style="fill:#ffffff;fill-opacity:1;stroke:#000000;stroke-width:0;stroke-miterlimit:4;stroke-opacity:1;stroke-dasharray:none;stroke-dashoffset:0"
         d="m 110.82967,111.61115 c -0.58386,-0.33462 -6.56792,-5.20667 -13.297909,-10.82679 C 85.400133,90.653394 82.87317,88.628636 81.271688,87.755783 c -1.017345,-0.554481 -1.066269,-1.196072 -0.118679,-1.556345 1.155338,-0.439259 5.35204,-1.0797 36.444181,-5.561596 39.41687,-5.681895 44.23268,-6.346521 47.38284,-6.539265 3.85744,-0.23602 4.86579,0.07035 8.05187,2.446476 2.85732,2.130938 7.75311,5.256653 15.55786,9.932912 7.85029,4.703543 9.03726,5.714727 7.84318,6.681634 -0.32305,0.261585 -1.02565,0.598046 -1.56134,0.74769 -1.36192,0.380449 -24.8317,5.586669 -48.61199,10.783421 -21.0542,4.60103 -26.07778,5.75386 -29.89421,6.86028 -2.88648,0.83682 -4.15644,0.85062 -5.53573,0.0602 z m 15.52548,-4.55073 c 4.63798,-0.96675 30.20401,-6.71793 31.71444,-7.134281 3.02965,-0.835133 4.20768,-1.766033 2.23488,-1.766033 -0.4322,0 -8.51631,1.718228 -17.9647,3.818284 -9.44839,2.10006 -17.612,3.8941 -18.14136,3.98677 -1.16276,0.20356 -2.09485,-0.12103 -3.373,-1.17458 -1.08473,-0.89413 -2.1715,-1.05899 -2.15821,-0.3274 0.0109,0.59687 0.40334,1.07443 1.71661,2.08869 1.77223,1.36871 1.82369,1.3731 5.97134,0.50855 l 0,0 z m -10.97374,-5.0488 c 9.25043,-1.74591 30.98608,-6.033028 38.79794,-7.652472 5.66941,-1.175302 6.96278,-1.656281 7.16076,-2.662943 0.11489,-0.584204 -0.30177,-0.558102 -3.35512,0.210182 -3.4673,0.872441 -11.39382,2.506068 -28.98685,5.974092 -15.86924,3.128221 -16.83818,3.302691 -20.75215,3.736831 -2.38736,0.2648 -2.6773,0.24517 -3.81559,-0.25835 -2.79351,-1.2357 -3.37,-0.30785 -0.83268,1.3402 1.97949,1.28573 1.03732,1.3407 11.78369,-0.68754 l 0,0 z m -11.51635,-4.897184 c 4.04581,-0.898235 10.2559,-2.043657 27.39986,-5.053777 21.16472,-3.716081 24.0105,-4.364301 22.7042,-5.171636 -0.41076,-0.253867 -6.5499,0.748175 -22.65185,3.69728 -22.4857,4.1183 -27.70064,4.958127 -31.10331,5.00896 -2.616047,0.03908 -3.015813,-0.01832 -3.848193,-0.55253 -1.904271,-1.22214 -2.489775,-0.514407 -0.862526,1.042585 2.156667,2.063554 3.151222,2.185957 8.361819,1.029118 z m 75.96674,-2.173014 c 8.07416,-1.146162 14.08232,-2.795994 13.51644,-3.711599 -0.33891,-0.548372 -1.18641,-0.414736 -12.58757,1.98483 -6.3538,1.337265 -7.56634,1.423668 -9.81812,0.699624 -1.01491,-0.32634 -2.04382,-0.517169 -2.28645,-0.424064 -0.40268,0.154522 -0.39749,0.218349 0.0594,0.732017 0.27531,0.309503 0.97827,0.7877 1.56214,1.062659 1.25819,0.592523 3.53785,0.51057 9.55414,-0.343467 l 0,0 z m -77.16697,-5.000236 c 19.75113,-3.145051 38.93062,-6.351804 41.42526,-6.926181 1.30997,-0.301612 2.60272,-0.715782 2.87277,-0.920378 0.44708,-0.338703 0.39389,-0.372747 -0.5943,-0.380433 -1.66643,-0.01296 -9.14036,1.088553 -22.26925,3.282061 -19.06981,3.186086 -27.390615,4.437468 -30.555132,4.595249 l -2.954285,0.147299 -1.633236,-1.00809 c -1.169133,-0.72163 -1.714655,-0.926671 -1.919762,-0.721565 -0.552924,0.552924 2.570839,3.781532 3.658731,3.781532 0.194839,0 5.580981,-0.832273 11.969204,-1.849494 z m 73.71686,-0.387738 c 8.82324,-1.770889 9.95223,-2.061222 9.95223,-2.559328 0,-0.399464 -1.86964,-0.174246 -9.28875,1.118929 -7.96578,1.388462 -10.71728,1.551775 -13.23911,0.785793 -2.06641,-0.627652 -2.58445,-0.567011 -2.14652,0.251269 0.53922,1.007541 3.01256,2.061243 4.90262,2.08863 0.72983,0.01058 5.14862,-0.747806 9.81953,-1.685293 l 0,0 z m -7.70931,-4.105466 c 5.5012,-1.147632 10.02256,-2.38342 10.49594,-2.868774 0.35768,-0.36674 0.18261,-0.391923 -1.72506,-0.248136 -1.16773,0.08801 -4.98938,0.703566 -8.49257,1.36789 -3.50318,0.664324 -7.38463,1.279643 -8.62543,1.367376 l -2.25602,0.159515 -1.26273,-0.963871 c -1.2405,-0.946891 -2.31972,-1.255557 -2.31972,-0.663456 0,0.632058 1.10165,2.042296 1.92575,2.465173 1.40464,0.720781 7.26385,0.426519 12.25984,-0.615717 l 0,0 z m -10.41286,-4.667261 c 7.32061,-1.117365 12.04588,-2.152718 12.8426,-2.813944 0.33708,-0.27975 0.3416,-0.383857 0.0302,-0.695276 -0.31142,-0.311418 -1.17041,-0.204628 -5.73679,0.713203 -5.95731,1.197402 -11.80758,2.124295 -13.42472,2.126956 -0.7521,0.0012 -1.50392,-0.274524 -2.61035,-0.957451 -1.10955,-0.684856 -1.63571,-0.877484 -1.83968,-0.673514 -0.35656,0.356562 0.8702,2.222698 1.73608,2.640916 0.99508,0.480615 4.48663,0.348406 9.00268,-0.34089 l 0,0 z"
         id="path3993"
         inkscape:connector-curvature="0" />
      <path
         style="fill:#ffffff;fill-opacity:1;stroke:#000000;stroke-width:0;stroke-miterlimit:4;stroke-opacity:1;stroke-dasharray:none;stroke-dashoffset:0"
         d="m 112.59692,118.62761 c 0.078,-2.53248 0.16533,-3.0129 0.63242,-3.47942 0.83579,-0.83476 9.46623,-2.86522 50.81159,-11.95429 13.35589,-2.93606 26.8486,-5.926629 29.98379,-6.645704 3.1352,-0.719076 5.85215,-1.30741 6.03769,-1.30741 0.245,0 0.33733,0.586693 0.33733,2.143557 0,2.003183 -0.0496,2.193127 -0.75695,2.900497 -0.42391,0.42392 -1.38721,0.94004 -2.18949,1.1731 -0.7879,0.22888 -12.65866,3.04851 -26.37946,6.26583 -29.04138,6.80976 -57.37788,13.49337 -58.07883,13.69881 -0.45744,0.13406 -0.48283,-0.0442 -0.39809,-2.79497 z"
         id="path3995"
         inkscape:connector-curvature="0" />
    </g>
  </g>
  <path
     inkscape:connector-curvature="0"
     style="fill:#000000"
     d="m 2.3e-4,662.93396 c 0,-55.77289 0.0314,-57.06553 1.38561,-57.06553 3.60953,0 3.67082,-0.19294 3.67082,-11.55757 0,-12.09665 -0.28503,-11.55754 6.11058,-11.55754 2.26659,0 4.14444,-0.38442 4.60833,-0.94339 0.43063,-0.51887 0.87675,-4.17575 0.99139,-8.12641 0.20084,-6.92138 0.27031,-7.19178 1.90719,-7.42347 0.93431,-0.13225 2.47833,-0.0448 3.43115,0.19434 1.68998,0.42417 1.7324,0.61955 1.7324,7.98028 0,8.4875 -0.0211,8.45337 5.77878,9.33965 6.59847,1.00831 6.44459,0.61073 6.66677,17.22512 0.16476,12.32029 0.36327,14.62068 1.26166,14.62068 0.58636,0 1.39716,-0.97517 1.80177,-2.16704 1.1506,-3.3894 2.35649,-3.92481 8.89566,-3.94995 4.34085,-0.0166 6.47732,0.29978 7.77788,1.15193 1.1969,0.78425 2.92971,1.09523 5.2116,0.93537 1.88018,-0.13176 5.9377,-0.23 9.01671,-0.21822 6.20459,0.0238 6.01526,0.21865 5.69364,-5.86496 -0.063,-1.19187 0.17844,-2.61497 0.53658,-3.16251 1.27793,-1.95373 2.25736,0.0383 2.25736,4.59081 0,5.2277 0.44868,6.8787 1.86939,6.8787 1.05501,0 1.4084,-1.16139 2.05128,-6.7416 0.48143,-4.17878 0.81633,-4.81596 2.53119,-4.81596 1.04638,0 1.38085,0.73571 1.66128,3.65428 0.59124,6.1531 3.39169,6.70584 3.44442,0.6798 0.0387,-4.42163 0.53014,-4.67575 9.064322,-4.68601 l 7.683758,-0.009 1.07212,-2.88939 c 0.58966,-1.58917 1.5694,-4.51467 2.17718,-6.50113 0.75051,-2.45295 2.2391,-4.7778 4.63962,-7.24617 2.51049,-2.58144 3.53456,-4.21576 3.53456,-5.64082 0,-1.23901 0.29511,-1.82399 0.77159,-1.52951 0.42438,0.26229 0.58448,0.96449 0.35579,1.56045 -0.26462,0.68956 1.01211,2.51151 3.51104,5.01044 2.41949,2.41949 4.11726,4.8176 4.42289,6.24742 0.77174,3.61036 1.55258,4.12641 6.24393,4.12641 4.85845,0 7.08753,-0.88611 7.08753,-2.81738 0,-0.72704 0.56885,-2.1008 1.26411,-3.05285 0.69525,-0.95204 1.62018,-2.37039 2.05539,-3.15188 0.43521,-0.78149 1.73543,-1.61521 2.88939,-1.85273 1.15396,-0.23751 2.80811,-0.81333 3.6759,-1.27962 2.15436,-1.15759 6.07005,-1.02721 7.7702,0.25871 0.77119,0.58331 2.12456,1.06055 3.00749,1.06055 1.05022,0 2.37778,1.05041 3.83929,3.03775 2.20583,2.99947 2.23308,3.14286 2.1623,11.37697 -0.0394,4.58654 0.27669,9.23608 0.70248,10.33217 l 0.77417,1.99296 5.25244,-0.54827 c 6.42993,-0.67113 12.01343,-0.62642 16.88549,0.13523 3.05503,0.47754 4.69038,0.25166 9.53809,-1.31764 3.21799,-1.04169 7.3093,-1.89406 9.09182,-1.89406 1.79951,0 3.50085,-0.40156 3.82533,-0.90294 0.32141,-0.49661 0.74692,-3.82844 0.94557,-7.40406 l 0.36117,-6.50113 7.94583,-0.44988 c 4.3702,-0.2474 8.65459,-0.49119 9.52086,-0.54176 1.04484,-0.0607 1.65275,-0.63646 1.80587,-1.7098 0.39944,-2.79966 2.45653,-2.3578 3.71964,0.79899 1.42749,3.56768 2.05585,3.96555 6.98523,4.42308 l 3.97291,0.36876 0.36117,10.47404 c 0.19865,5.76072 0.62416,10.88036 0.94557,11.37698 0.32142,0.49661 1.54038,0.90293 2.7088,0.90293 2.01071,0 2.12441,-0.16087 2.12441,-3.00648 0,-1.94341 0.67188,-4.153 1.90011,-6.24882 1.86337,-3.17963 1.90877,-3.57085 2.34763,-20.23344 l 0.44752,-16.99115 4.33409,-0.9493 c 9.09477,-1.99204 8.99313,-1.98889 11.21298,-0.34768 1.15057,0.85066 2.71543,1.54664 3.47745,1.54664 2.12295,0 3.06125,1.66988 3.52344,6.27065 0.24349,2.42378 0.98813,4.93274 1.75882,5.92609 1.13553,1.46359 1.34002,3.09331 1.35953,10.83522 0.0173,6.86599 0.28444,9.45821 1.08353,10.51471 0.5833,0.77118 1.06552,2.72152 1.07161,4.33409 0.006,1.6125 0.31248,3.40847 0.68087,3.9909 1.38555,2.19073 2.53539,-3.17154 3.62783,-16.91803 0.691,-8.69521 1.41988,-11.50894 2.66005,-10.26877 0.27652,0.27652 0.78442,4.74237 1.12865,9.92413 0.6196,9.32645 1.35444,12.95307 2.62463,12.95307 0.36078,0 0.82598,-0.65011 1.03377,-1.4447 0.22435,-0.85786 0.98529,-1.44469 1.87347,-1.44469 2.76871,0 3.90632,-3.10364 4.59277,-12.53013 1.02732,-14.10739 1.85765,-14.26315 3.11834,-0.58503 0.46864,5.0846 1.2475,9.98364 1.73081,10.88672 l 0.87872,1.64189 1.72923,-1.62449 c 1.6953,-1.59263 1.73304,-1.90194 1.9247,-15.76984 l 0.19548,-14.14532 1.91811,-0.91872 c 1.05496,-0.5053 2.2445,-1.855 2.64342,-2.99933 0.566,-1.62361 1.51506,-2.34293 4.32082,-3.27485 3.491,-1.15953 3.6841,-1.14806 6.6435,0.39447 1.94187,1.01215 3.30784,2.3341 3.76402,3.64268 0.39382,1.12969 0.92802,2.08107 1.18713,2.11417 0.2591,0.0331 1.25621,0.14527 2.2158,0.24926 0.95959,0.10398 2.34108,0.92555 3.06998,1.8257 1.20573,1.48901 1.32526,3.25029 1.32526,19.52688 0,19.9404 -0.0403,19.77845 4.82544,19.37784 l 2.75921,-0.22725 0.59874,-6.8623 c 0.7309,-8.37714 2.02917,-11.55641 4.72059,-11.56024 1.04728,0 3.03834,-0.6941 4.42459,-1.53918 2.30101,-1.40272 3.1185,-1.48991 9.39052,-1.00139 3.77854,0.29429 8.60364,0.64556 10.72244,0.78057 2.11879,0.13508 4.88177,0.5578 6.13995,0.93949 1.25818,0.38161 3.70089,0.89441 5.42826,1.1395 1.72736,0.24517 4.24655,0.90777 5.59819,1.47258 2.39247,0.99958 2.45783,1.13777 2.46859,5.21715 0.0133,5.01945 0.3326,5.6099 3.82308,7.06832 3.31085,1.38337 4.45497,0.87635 8.12258,-3.59946 1.46534,-1.78831 3.03144,-3.23315 3.48019,-3.21083 0.44875,0.0224 2.4389,1.97266 4.42256,4.33408 1.98365,2.36143 4.09652,4.28894 4.69525,4.28338 0.59874,-0.007 3.52655,-1.34039 6.50623,-2.96611 5.65053,-3.08305 6.68855,-3.2718 16.30331,-2.9653 4.53607,0.14454 5.37824,0.40502 7.53416,2.32978 2.76404,2.46776 3.68653,2.62465 6.10683,1.03881 1.38345,-0.90647 3.33075,-1.06893 9.90687,-0.82636 4.50172,0.16599 9.01767,0.53735 10.03544,0.82528 1.658,0.46895 1.99069,0.21259 3.19806,-2.46494 0.74116,-1.64356 2.62024,-3.99632 4.17575,-5.22828 2.78467,-2.20554 2.82552,-2.30776 2.65436,-6.64098 -0.26502,-6.70965 -0.0996,-7.5776 1.80793,-9.48511 1.69279,-1.69279 2.04159,-1.74842 8.21426,-1.31028 8.59966,0.61042 9.76878,0.23621 12.20383,-3.90626 1.71844,-2.9234 2.02485,-4.26883 2.09579,-9.20276 0.10819,-7.52408 0.1179,-7.58465 1.21708,-7.58465 1.04181,0 2.67274,6.74745 2.67274,11.05761 0,1.90795 0.7401,3.69382 2.60864,6.29469 2.95624,4.11487 4.31774,5.04048 7.41411,5.04048 1.19454,0 2.39498,0.36095 2.66763,0.8021 0.27265,0.44116 0.53562,5.23576 0.58439,10.6546 l 0.0887,9.85253 1.75303,-0.19467 c 0.96417,-0.10712 3.53089,0.32209 5.70382,0.95379 6.2013,1.80276 12.87626,2.1034 18.57769,0.83662 2.76452,-0.61421 9.81902,-1.34501 15.67665,-1.62391 l 10.65024,-0.50723 0.72878,-2.98286 c 1.48291,-6.06953 1.76699,-6.58666 3.74453,-6.81702 1.74464,-0.20326 2.00827,0.11645 3.04939,3.69785 1.56245,5.37455 2.19189,5.77127 7.76643,4.89412 11.91624,-1.87493 18.78949,-2.2223 32.75576,-1.65555 7.94582,0.32246 14.69074,0.46851 14.98871,0.3247 0.29797,-0.1439 0.54176,-2.32055 0.54176,-4.83699 0,-3.50577 0.26711,-4.67785 1.1426,-5.01381 0.62843,-0.24112 5.35195,-0.43847 10.49671,-0.43847 7.9105,0 9.4226,-0.17842 9.79787,-1.1564 0.54174,-1.41176 -0.91553,-2.4294 -3.49999,-2.44428 -2.67503,-0.0152 -4.21258,-0.70668 -4.21258,-1.89419 0,-1.1586 0.41625,-1.22179 8.59892,-1.30539 5.96849,-0.061 6.09109,-0.0985 7.28225,-2.22906 l 1.21155,-2.16704 11.47745,0 c 11.30354,0 11.49019,0.0256 12.31806,1.68608 1.19087,2.38866 1.74691,2.7727 4.80025,3.31546 l 2.70881,0.48153 0,-11.57653 c 0,-13.15938 -0.57611,-12.11007 6.8623,-12.49883 3.06725,-0.1603 3.61174,-0.40655 3.61174,-1.63345 0,-1.10072 -0.60196,-1.53069 -2.52822,-1.80587 -3.34831,-0.47833 -3.44731,-2.43994 -0.13917,-2.75765 2.90143,-0.27866 3.53411,-1.57804 1.94743,-3.99962 -1.15753,-1.76662 -1.12007,-1.89477 1.33686,-4.57303 l 2.52776,-2.75548 3.94301,2.12964 c 3.76531,2.03363 4.11211,2.09062 7.69271,1.26411 5.19058,-1.19812 11.60762,-1.08174 15.71359,0.28498 4.26691,1.42031 5.62341,2.6747 5.62341,5.2001 l 0,1.95639 10.65462,0.19989 c 8.89478,0.16689 10.65463,0.37867 10.65463,1.28217 0,0.62284 -0.91305,1.26488 -2.15086,1.51244 -2.41445,0.48289 -3.98982,1.97554 -3.28632,3.11381 0.26091,0.42217 3.01125,0.75399 6.24968,0.75399 9.10591,0 8.75507,-0.56494 8.21995,13.23372 -0.52731,13.59923 -0.23209,14.64657 3.37033,11.95654 1.32291,-0.98786 4.19316,-2.87667 6.37826,-4.19733 4.76106,-2.87756 5.03122,-3.24024 5.04538,-6.77405 0.007,-1.51596 0.37302,-3.43262 0.81539,-4.25924 0.44243,-0.82662 1.17381,-2.99939 1.62528,-4.82836 0.96108,-3.89297 2.04778,-4.06271 2.80097,-0.43751 0.29443,1.41716 1.02581,3.52512 1.62529,4.68435 0.59947,1.15924 1.08995,3.12038 1.08995,4.3581 0,3.42714 1.05982,4.75498 5.8206,7.29245 5.82949,3.10707 10.6711,8.54241 13.60665,15.27534 2.11301,4.84623 2.68958,5.56873 5.37506,6.73539 4.72379,2.05226 6.92875,3.83458 8.04312,6.50163 0.56712,1.35737 1.34248,2.46798 1.72294,2.46798 0.896,0 1.40526,-8.76995 1.90852,-32.8668 0.49192,-23.55489 2.30898,-107.7214 2.99023,-138.50709 0.43182,-19.51537 0.35539,-22.36284 -0.63032,-23.4763 -1.40172,-1.58347 -1.46196,-5.09341 -0.1236,-7.20112 1.08085,-1.70211 1.34567,-5.80113 0.4631,-7.16771 -0.2919,-0.45195 -1.74281,-1.3264 -3.2242,-1.9432 -4.05172,-1.68695 -9.5576,-7.22907 -11.45217,-11.52759 -3.44177,-7.80889 -1.22077,-18.22333 5.00262,-23.45744 1.85037,-1.55623 4.09564,-3.21846 4.98954,-3.69384 2.3256,-1.23679 2.01073,-3.03414 -0.94475,-5.39232 -1.97707,-1.57751 -2.51869,-2.49409 -2.34763,-3.97291 0.1652,-1.42756 0.68716,-1.98454 2.02828,-2.16408 0.99322,-0.13296 2.05153,-0.47612 2.35174,-0.76259 0.30028,-0.28646 0.59377,-3.03739 0.65221,-6.11317 0.0908,-4.77804 -0.13197,-5.91461 -1.53022,-7.80582 -1.25197,-1.69335 -1.53976,-2.80969 -1.22481,-4.75048 0.50022,-3.08263 2.32364,-5.24717 4.42026,-5.24717 0.85569,0 2.17354,-0.45167 2.92847,-1.00371 2.32886,-1.70289 3.14612,-15.0153 3.57462,-58.2288 0.21476,-21.65237 0.54573,-47.81941 0.73557,-58.14898 0.18983,-10.32957 0.3512,-24.88605 0.35864,-32.34772 0.0116,-11.76502 0.16701,-13.62563 1.16981,-14.01046 1.73833,-0.66705 2.55783,1.18931 2.12919,4.82319 -0.21085,1.78781 -0.0628,10.88939 0.32867,20.22573 0.39166,9.33635 0.74546,35.50339 0.78635,58.14898 0.0491,27.40627 0.41751,46.12531 1.10085,55.98195 1.41537,20.41623 1.19628,19.10325 3.23265,19.37085 0.95697,0.12574 2.95888,0.5446 4.44872,0.93077 2.56744,0.66551 2.7088,0.85447 2.7088,3.62116 0,1.60546 0.35865,5.96008 0.79704,9.67693 0.77696,6.5884 0.7498,6.85761 -1.08352,10.73301 -1.39565,2.95006 -1.88056,5.12894 -1.88056,8.44965 l 0,4.47454 4.73311,4.33701 c 6.43438,5.896 8.26915,9.66259 8.26915,16.97612 0,4.68881 -0.33178,6.32669 -1.93178,9.53752 -2.21024,4.43535 -6.04843,8.41312 -10.09033,10.45711 -1.53231,0.7749 -3.35487,1.88171 -4.05013,2.45959 -1.54552,1.28457 -1.65604,5.08891 -0.20355,7.00923 1.42129,1.87913 1.38033,5.73031 -0.0847,7.96629 -1.0911,1.66519 -1.12224,4.13761 -0.37107,29.41025 0.4511,15.17572 0.98817,36.85633 1.19346,48.17913 0.97589,53.81809 1.90107,90.32622 2.58116,101.85099 0.76569,12.97574 1.36358,15.16966 3.87164,14.20727 0.8778,-0.3369 1.1395,-1.5274 1.1395,-5.184 0,-3.3212 0.43385,-5.59718 1.4447,-7.57858 0.99388,-1.94817 1.44469,-4.2573 1.44469,-7.4003 0,-2.76024 0.58865,-6.2432 1.4871,-8.79954 0.81792,-2.32709 1.67708,-6.92267 1.90924,-10.21241 0.23216,-3.28974 0.66427,-6.37325 0.96036,-6.85224 1.11906,-1.81073 1.94124,0.17852 2.36959,5.73309 0.24372,3.1603 1.06553,7.64095 1.82631,9.957 0.76085,2.31604 1.59299,6.62246 1.84928,9.56978 0.30209,3.4737 0.98702,6.20186 1.94702,7.75512 1.0599,1.71493 1.42642,3.37474 1.2891,5.83758 -0.3676,6.5915 0.026,10.30357 1.09284,10.30357 1.4642,0 1.88179,-1.64536 1.89421,-7.46315 0.007,-2.84786 0.25354,-5.55912 0.54985,-6.02496 0.79531,-1.25038 6.4125,-3.17443 11.35783,-3.89042 11.94749,-1.72988 15.8002,-2.08354 23.1152,-2.12211 4.3702,-0.0231 11.03386,-0.34066 14.80813,-0.70588 3.77426,-0.36522 14.82621,-0.88538 24.55981,-1.15597 14.7222,-0.40914 17.9203,-0.68667 19.0225,-1.65049 1.4967,-1.30868 8.4982,-1.31771 12.58018,-0.0159 2.01639,0.64289 2.34759,1.08121 2.34759,3.10711 0,2.84461 2.9604,8.72574 4.3923,8.72574 1.7234,0 1.7161,-4.61695 -0.011,-6.95303 -1.3259,-1.79351 -1.4499,-2.66365 -1.0391,-7.2934 0.2566,-2.89134 0.7871,-5.66327 1.1789,-6.15988 0.4324,-0.54803 2.4663,-0.90293 5.1747,-0.90293 2.4543,0 4.8129,-0.35059 5.2414,-0.77908 0.477,-0.47701 0.6367,-2.55355 0.4117,-5.35546 -0.202,-2.51701 -0.1563,-5.41698 0.1015,-6.4444 l 0.4689,-1.86802 32.8384,0 c 28.4829,0 33.2235,-0.15404 35.741,-1.16136 5.2008,-2.08097 5.3485,-1.75792 4.8715,10.65503 -0.4144,10.78313 -0.4005,10.91857 1.3029,12.62194 2.0098,2.00979 6.1543,2.33968 7.5944,0.60446 0.742,-0.89405 0.838,-8.88558 0.4801,-39.97631 -0.3337,-28.99351 -0.2349,-39.07124 0.3891,-39.69524 0.46,-0.45998 2.6819,-0.83632 4.9375,-0.83632 4.6203,0 6.6196,-1.29963 5.0004,-3.25057 -0.4946,-0.59594 -1.4697,-1.08352 -2.167,-1.08352 -2.1331,0 -2.982,-1.82232 -2.7486,-5.90073 l 0.2201,-3.85095 6.1399,-0.56144 c 3.377,-0.3088 7.2777,-0.79638 8.6682,-1.08352 l 2.5282,-0.52208 -0.1559,-14.08578 c -0.1444,-13.03813 0.2998,-17.07206 1.7233,-15.64853 0.3093,0.30934 0.6898,7.03148 0.8454,14.93807 l 0.2829,14.37562 14.905,-0.03 c 8.1977,-0.0165 16.8381,0.0782 19.2008,0.21031 l 4.2959,0.24024 -0.1658,-13.36343 c -0.1612,-12.98685 0.2406,-15.92522 2.0266,-14.82139 0.6322,0.39069 0.8092,4.31464 0.663,14.69706 l -0.1994,14.16407 1.7654,0.49278 c 0.971,0.27102 4.4685,0.52518 7.7722,0.56478 3.3038,0.0396 6.6357,0.40849 7.4041,0.81976 2.597,1.38985 1.3854,9.36511 -1.4227,9.36511 -1.8443,0 -3.7303,1.92089 -3.212,3.27147 0.3038,0.79182 1.6658,1.06261 5.3443,1.06261 3.1649,0 5.1401,0.32403 5.504,0.90294 0.3121,0.49661 0.5751,16.66298 0.5843,35.92526 0.016,32.77193 0.098,35.03807 1.281,35.26741 0.9188,0.17813 1.2642,-0.22505 1.2642,-1.47569 0,-4.48402 4.1501,-5.81217 16.0289,-5.12975 6.922,0.39765 7.8757,0.62034 9.2052,2.14941 1.1725,1.34849 2.2785,1.73046 5.2803,1.82354 l 3.7971,0.11773 -3.9729,0.42403 c -6.248,0.66683 -4.6573,1.66522 3.2505,2.04019 4.269,0.20243 7.4406,0.68058 7.7541,1.16905 0.2919,0.45458 0.5357,1.81794 0.5418,3.02969 0.015,3.06124 1.185,3.93679 5.2594,3.93679 4.2139,0 6.3092,-0.97993 6.3092,-2.95072 0,-1.83006 -2.043,-5.89119 -3.3485,-6.65629 -1.4044,-0.82312 -1.22,-3.94133 0.2807,-4.74449 0.6965,-0.37274 1.7529,-2.25325 2.3477,-4.17891 l 1.0813,-3.50117 0.2221,3.06998 c 0.2662,3.67854 0.8356,3.78577 8.632,1.62528 5.6356,-1.5617 8.121,-1.80985 8.121,-0.81079 0,1.18474 -1.7961,2.10188 -7.2235,3.68853 -2.9796,0.87109 -5.8157,1.96487 -6.3023,2.43063 -0.4921,0.47095 -0.973,3.13094 -1.0835,5.9928 -0.1768,4.57673 -0.02,5.29504 1.4165,6.49348 1.4445,1.20509 1.6355,2.10521 1.8059,8.51251 0.2148,8.07844 0.9598,9.15388 3.4389,4.96476 l 1.6212,-2.73921 1.0845,1.62528 c 1.2125,1.81728 4.5742,2.21725 5.8378,0.69468 0.4248,-0.51185 0.8709,-3.0189 0.9914,-5.57125 l 0.219,-4.64065 2.4929,-0.50716 c 2.9077,-0.5916 4.3694,-2.27871 4.3694,-5.04328 0,-2.68814 0.6841,-4.25511 1.8577,-4.25511 1.3127,0 2.4764,2.30802 2.4764,4.9115 0,1.16443 0.6501,2.94364 1.4447,3.95377 1.4188,1.80378 1.4447,2.93042 1.4447,62.94169 L 1280,720 640.00008,720 1e-4,720 l 0,-57.06547 z"
     id="path4539" />
  <path
     inkscape:connector-curvature="0"
     style="fill:#000000"
     d="m 1259.9273,597.89344 c -0.2445,-2.06455 -0.9746,-4.56286 -1.6226,-5.55175 -0.9858,-1.50451 -1.0191,-1.94658 -0.2038,-2.70837 1.3745,-1.28436 4.4035,-1.87217 5.6566,-1.0977 0.8926,0.55166 0.8067,0.92234 -0.5478,2.36412 -1.2076,1.28556 -1.6091,2.5946 -1.6174,5.27509 -0.016,5.17302 -1.1208,6.31339 -1.665,1.71861 z"
     id="path4537" />
  <path
     inkscape:connector-curvature="0"
     style="fill:#000000"
     d="m 683.86978,579.73097 c -0.47675,-0.47675 -0.86682,-1.61445 -0.86682,-2.52822 0,-1.55834 0.23837,-1.76694 2.22859,-1.95034 0.89707,-0.0827 2.92494,4.28515 2.28609,4.92399 -0.71383,0.71384 -2.73544,0.46698 -3.64786,-0.44543 z"
     id="path4535" />
  <g
     id="title">
    <flowRoot
       inkscape:label="#title"
       style="font-style:normal;font-weight:normal;font-size:40px;line-height:125%;font-family:Sans;letter-spacing:0px;word-spacing:0px;fill:#000000;fill-opacity:1;stroke:none"
       transform="translate(18.046709,4.2462845)"
       xml:space="preserve"
       id="flowRoot4216"><flowRegion
         id="flowRegion4938"><rect
           y="40.400318"
           x="29.932016"
           height="114.07965"
           width="1047.2805"
           id="rect4940" /></flowRegion><flowPara
         id="flowPara6942">$title</flowPara><flowPara
         id="flowPara3464" /><flowPara
         style="font-size:32px"
         id="flowPara3462" /></flowRoot>  </g>
  <g
     id="persons">
    <flowRoot
       style="font-style:normal;font-weight:normal;font-size:40px;line-height:125%;font-family:Sans;letter-spacing:0px;word-spacing:0px;fill:#000000;fill-opacity:1;stroke:none"
       transform="translate(21.859209,72.186837)"
       xml:space="preserve"
       id="flowRoot4224"><flowRegion
         id="flowRegion4954"><rect
           y="271.05231"
           x="26.12545"
           height="197.42853"
           width="765.46735"
           id="rect4956" /></flowRegion><flowPara
         id="flowPara4958">$personnames</flowPara></flowRoot>  </g>
  <g
     id="g3898">
    <text
       sodipodi:linespacing="125%"
       id="text3116"
       y="318.78259"
       x="999.17908"
       style="font-size:40px;font-style:normal;font-weight:normal;line-height:125%;letter-spacing:0px;word-spacing:0px;fill:#000000;fill-opacity:1;stroke:none;font-family:Sans"
       xml:space="preserve"><tspan
         id="tspan3120"
         y="318.78259"
         x="999.17908"
         sodipodi:role="line">VCFB 15</tspan><tspan
         id="tspan3124"
         y="368.78259"
         x="999.17908"
         sodipodi:role="line" /></text>
    <text
       sodipodi:linespacing="125%"
       id="text3276"
       y="354.81952"
       x="982.77283"
       style="font-size:40px;font-style:normal;font-weight:normal;line-height:125%;letter-spacing:0px;word-spacing:0px;fill:#000000;fill-opacity:1;stroke:none;font-family:Sans"
       xml:space="preserve"><tspan
         style="font-size:20px"
         y="354.81952"
         x="982.77283"
         id="tspan3278"
         sodipodi:role="line">3.+4. Oktober 2015</tspan></text>
  </g>
  <g
     id="subtitle">
    <flowRoot
       inkscape:label="#flowRoot3466"
       transform="translate(-3.3829785,0)"
       style="font-style:normal;font-weight:normal;font-size:40px;line-height:125%;font-family:Sans;letter-spacing:0px;word-spacing:0px;fill:#000000;fill-opacity:1;stroke:none"
       xml:space="preserve"
       id="flowRoot4236"><flowRegion
         id="flowRegion3468"><rect
           y="163.73672"
           x="52.016987"
           height="144.37367"
           width="757.96179"
           id="rect3470" /></flowRegion><flowPara
         style="font-size:32px"
         id="flowPara3472">$subtitle</flowPara></flowRoot>  </g>
</svg>
