<?xml version="1.0" encoding="UTF-8" standalone="no"?>
<!-- Generator: Adobe Illustrator 16.0.0, SVG Export Plug-In . SVG Version: 6.00 Build 0)  -->

<svg
   xmlns:dc="http://purl.org/dc/elements/1.1/"
   xmlns:cc="http://creativecommons.org/ns#"
   xmlns:rdf="http://www.w3.org/1999/02/22-rdf-syntax-ns#"
   xmlns:svg="http://www.w3.org/2000/svg"
   xmlns="http://www.w3.org/2000/svg"
   xmlns:xlink="http://www.w3.org/1999/xlink"
   xmlns:sodipodi="http://sodipodi.sourceforge.net/DTD/sodipodi-0.dtd"
   xmlns:inkscape="http://www.inkscape.org/namespaces/inkscape"
   version="1.1"
   x="0px"
   y="0px"
   width="1920px"
   height="1080px"
   viewBox="0 0 1920 1080"
   enable-background="new 0 0 1920 1080"
   xml:space="preserve"
   id="svg2"
   inkscape:version="0.48.5 r10040"
   sodipodi:docname="intro-ralf.svg"><metadata
     id="metadata29"><rdf:RDF><cc:Work
         rdf:about=""><dc:format>image/svg+xml</dc:format><dc:type
           rdf:resource="http://purl.org/dc/dcmitype/StillImage" /><dc:title></dc:title></cc:Work></rdf:RDF></metadata><defs
     id="defs27" /><sodipodi:namedview
     pagecolor="#ffffff"
     bordercolor="#666666"
     borderopacity="1"
     objecttolerance="10"
     gridtolerance="10"
     guidetolerance="10"
     inkscape:pageopacity="0"
     inkscape:pageshadow="2"
     inkscape:window-width="1366"
     inkscape:window-height="768"
     id="namedview25"
     showgrid="false"
     inkscape:zoom="0.37989796"
     inkscape:cx="733.22098"
     inkscape:cy="586.24413"
     inkscape:window-x="-7"
     inkscape:window-y="0"
     inkscape:window-maximized="0"
     inkscape:current-layer="layer1" /><g
     inkscape:label="Hintergrund"
     inkscape:groupmode="layer"
     id="layer-bg"
     style="display:inline"><image
       xlink:href="/mnt/minion4/intro-outro-generator/subscribe/artwork/given-frames/frame0353.png"
       y="0"
       width="1920"
       height="1080"
       id="bg"
       x="0"
       sodipodi:absref="/mnt/minion4/intro-outro-generator/subscribe/artwork/given-frames/frame0353.png" /></g><g
     id="layer1"
     inkscape:groupmode="layer"
     style="opacity:1;display:inline"><g
       id="g16"><path
         id="sublogo_x5F_subscribe"
         d="m 756.005,963.188 c -10.081,0 -19.348,3.479 -26.669,9.303 l 8.637,8.639 c 5.068,-3.672 11.296,-5.838 18.033,-5.838 17,0 30.781,13.783 30.781,30.782 0,16.999 -13.781,30.781 -30.781,30.781 -17,0 -30.782,-13.782 -30.782,-30.781 0,-6.676 2.127,-12.854 5.737,-17.897 l -8.644,-8.645 c -5.759,7.302 -9.198,16.521 -9.198,26.542 0,23.685 19.201,42.885 42.885,42.885 23.684,0 42.885,-19.2 42.885,-42.885 0,-23.685 -19.199,-42.886 -42.884,-42.886 z m 10e-4,64.817 c 12.111,0 21.931,-9.817 21.931,-21.931 0,-12.111 -9.82,-21.931 -21.931,-21.931 -12.112,0 -21.931,9.819 -21.931,21.931 10e-4,12.114 9.82,21.931 21.931,21.931 z m -13.762,-24.744 11.293,0 0,-11.294 5.306,0 0,11.294 11.288,0 0,5.307 -11.288,0 0,11.282 -5.306,0 0,-11.282 -11.293,0 0,-5.307 z"
         inkscape:connector-curvature="0"
         style="fill:#ffffff;fill-rule:evenodd" /><text
         transform="translate(815.9785,1027.6465)"
         id="text19"><tspan
           x="0"
           y="0"
           font-size="61.5872"
           letter-spacing="-3"
           id="tspan21"
           style="font-size:61.58720016000000186px;letter-spacing:-3;fill:#ffffff;font-family:Overpass-Bold">SUBSCRIBE </tspan><tspan
           x="338.88"
           y="0"
           font-size="61.5872"
           letter-spacing="-3"
           id="tspan23"
           style="font-size:61.58720016000000186px;letter-spacing:-3;fill:#ffffff;font-family:Overpass-Light">8</tspan></text>
</g><flowRoot
       xml:space="preserve"
       id="flowRoot3344"
       style="font-size:46px;font-style:normal;font-variant:normal;font-weight:normal;font-stretch:normal;text-align:center;line-height:125%;writing-mode:lr-tb;text-anchor:middle;fill:#ffffff;display:inline;font-family:Overpass;-inkscape-font-specification:Overpass"
       transform="translate(-47.65625,129.46774)"><flowRegion
         id="flowRegion3346"><rect
           id="rect3348"
           width="1413.1884"
           height="536.98633"
           x="301.07437"
           y="151.82379"
           style="font-size:46px;font-style:normal;font-variant:normal;font-weight:normal;font-stretch:normal;text-align:center;line-height:125%;writing-mode:lr-tb;text-anchor:middle;font-family:Overpass;-inkscape-font-specification:Overpass" /></flowRegion><flowPara
         id="flowPara3354"
         style="font-size:70px;font-style:normal;font-variant:normal;font-weight:bold;font-stretch:normal;line-height:125%;text-transform:uppercase;fill:#ffffff;font-family:Overpass;-inkscape-font-specification:Overpass Bold">$title</flowPara><flowPara
         id="flowPara3360"
         style="font-size:40px;line-height:125%">$subtitle</flowPara><flowPara
         style="font-size:40px;line-height:125%"
         id="flowPara3003" /><flowPara
         id="flowPara3362"
         style="font-size:40px;line-height:125%">$personnames</flowPara></flowRoot></g></svg>