<?xml version="1.0" encoding="UTF-8" standalone="no"?>
<!-- Created with Inkscape (http://www.inkscape.org/) -->

<svg
   xmlns:dc="http://purl.org/dc/elements/1.1/"
   xmlns:cc="http://creativecommons.org/ns#"
   xmlns:rdf="http://www.w3.org/1999/02/22-rdf-syntax-ns#"
   xmlns:svg="http://www.w3.org/2000/svg"
   xmlns="http://www.w3.org/2000/svg"
   xmlns:xlink="http://www.w3.org/1999/xlink"
   xmlns:sodipodi="http://sodipodi.sourceforge.net/DTD/sodipodi-0.dtd"
   xmlns:inkscape="http://www.inkscape.org/namespaces/inkscape"
   width="2048"
   height="1152"
   viewBox="0 0 1920 1080"
   id="svg2"
   version="1.1"
   inkscape:version="0.92.2 5c3e80d, 2017-08-06"
   sodipodi:docname="intro.svg">
  <title
     id="title4199">Intro GLT Talk 2</title>
  <defs
     id="defs4">
    <clipPath
       clipPathUnits="userSpaceOnUse"
       id="clipPath4215">
      <rect
         style="opacity:1;fill:#ff0000;fill-opacity:1;stroke:#ff0000;stroke-width:1;stroke-linecap:round;stroke-linejoin:round;stroke-miterlimit:4;stroke-dasharray:1, 3;stroke-dashoffset:0;stroke-opacity:1"
         id="rect4217"
         width="598.23157"
         height="820.54736"
         x="1321.2684"
         y="111.3658" />
    </clipPath>
    <linearGradient
       inkscape:collect="always"
       id="linearGradient4313">
      <stop
         style="stop-color:#ffdf00;stop-opacity:1"
         offset="0"
         id="stop4315" />
      <stop
         style="stop-color:#e1ecff;stop-opacity:0"
         offset="1"
         id="stop4317" />
    </linearGradient>
    <linearGradient
       inkscape:collect="always"
       xlink:href="#linearGradient4313"
       id="linearGradient4159"
       x1="1157.7411"
       y1="845.13428"
       x2="1019.1442"
       y2="-16.928713"
       gradientUnits="userSpaceOnUse"
       gradientTransform="matrix(1.111049,0,0,1.7357139,42.487372,-407.41737)" />
    <clipPath
       clipPathUnits="userSpaceOnUse"
       id="clipPath4215-3">
      <rect
         style="opacity:1;fill:#ff0000;fill-opacity:1;stroke:#ff0000;stroke-width:1;stroke-linecap:round;stroke-linejoin:round;stroke-miterlimit:4;stroke-dasharray:1, 3;stroke-dashoffset:0;stroke-opacity:1"
         id="rect4217-6"
         width="598.23157"
         height="820.54736"
         x="1321.2684"
         y="111.3658" />
    </clipPath>
  </defs>
  <sodipodi:namedview
     id="base"
     pagecolor="#ffffff"
     bordercolor="#666666"
     borderopacity="1.0"
     inkscape:pageopacity="0.0"
     inkscape:pageshadow="2"
     inkscape:zoom="0.7421875"
     inkscape:cx="804.43404"
     inkscape:cy="540"
     inkscape:document-units="px"
     inkscape:current-layer="layer1"
     showgrid="false"
     units="px"
     inkscape:window-width="1920"
     inkscape:window-height="1152"
     inkscape:window-x="0"
     inkscape:window-y="0"
     inkscape:window-maximized="1" />
  <metadata
     id="metadata7">
    <rdf:RDF>
      <cc:Work
         rdf:about="">
        <dc:format>image/svg+xml</dc:format>
        <dc:type
           rdf:resource="http://purl.org/dc/dcmitype/StillImage" />
        <dc:title>Intro GLT Talk 2</dc:title>
        <cc:license
           rdf:resource="http://creativecommons.org/publicdomain/zero/1.0/" />
        <dc:creator>
          <cc:Agent>
            <dc:title>meisterluk</dc:title>
          </cc:Agent>
        </dc:creator>
        <dc:identifier>2</dc:identifier>
        <dc:language>de</dc:language>
        <dc:rights>
          <cc:Agent>
            <dc:title>CC-BY AT 4.0</dc:title>
          </cc:Agent>
        </dc:rights>
      </cc:Work>
      <cc:License
         rdf:about="http://creativecommons.org/publicdomain/zero/1.0/">
        <cc:permits
           rdf:resource="http://creativecommons.org/ns#Reproduction" />
        <cc:permits
           rdf:resource="http://creativecommons.org/ns#Distribution" />
        <cc:permits
           rdf:resource="http://creativecommons.org/ns#DerivativeWorks" />
      </cc:License>
    </rdf:RDF>
  </metadata>
  <g
     inkscape:label="Layer 1"
     inkscape:groupmode="layer"
     id="layer1"
     transform="translate(0,27.63784)">
    <rect
       style="opacity:1;fill:#1e1e1e;fill-opacity:1;stroke:none;stroke-width:0.99601775;stroke-linecap:round;stroke-linejoin:round;stroke-miterlimit:4;stroke-dasharray:0.99601775, 2.98805323;stroke-dashoffset:0;stroke-opacity:1"
       id="rect4332"
       width="1920"
       height="1080"
       x="0"
       y="-27.63784" />
    <rect
       inkscape:export-ydpi="80.963211"
       inkscape:export-xdpi="80.963211"
       inkscape:export-filename="/home/flo/Documents/projects/linuxtage/gltgit/glt12/grafiken/shirts/linuxtage2012-hinten_10jahre_v2.png"
       y="336.25522"
       x="662.20868"
       height="133.1692"
       width="550.02661"
       id="rect5254"
       style="display:inline;fill:none;fill-opacity:1;stroke:#ffffff;stroke-width:10.72014713;stroke-linecap:butt;stroke-linejoin:miter;stroke-miterlimit:4;stroke-dasharray:none;stroke-opacity:1" />
    <g
       id="g5256"
       style="font-style:normal;font-variant:normal;font-weight:normal;font-stretch:normal;font-size:26.01657295px;font-family:Haettenschweiler;-inkscape-font-specification:Haettenschweiler;display:inline;fill:#ffffff;fill-opacity:1;stroke:#ffffff;stroke-width:7.13026619;stroke-miterlimit:4;stroke-opacity:1"
       transform="matrix(0.65066552,0,0,1.053819,655.73797,1026.6289)">
      <path
         sodipodi:nodetypes="ccccccc"
         inkscape:connector-curvature="0"
         id="path5258"
         style="font-weight:800;font-size:121.95269012px;font-family:TitilliumMaps29L;-inkscape-font-specification:'TitilliumMaps29L Ultra-Bold';fill:#ffffff;fill-opacity:1;stroke:#ffffff;stroke-width:7.13026619;stroke-opacity:1"
         d="M 135.19144,-562.65198 H 103.8496 v -70.97646 H 89.703085 v 84.39126 h 45.488355 z" />
      <path
         sodipodi:nodetypes="ccccc"
         inkscape:connector-curvature="0"
         id="path5260"
         style="font-weight:800;font-size:121.95269012px;font-family:TitilliumMaps29L;-inkscape-font-specification:'TitilliumMaps29L Ultra-Bold';fill:#ffffff;fill-opacity:1;stroke:#ffffff;stroke-opacity:1"
         d="m 165.53776,-549.23718 v -84.39126 h -14.39042 v 84.39126 z" />
      <path
         sodipodi:nodetypes="ccccccccccccc"
         inkscape:connector-curvature="0"
         id="path5262"
         style="font-weight:800;font-size:121.95269012px;font-family:TitilliumMaps29L;-inkscape-font-specification:'TitilliumMaps29L Ultra-Bold';fill:#ffffff;fill-opacity:1;stroke:#ffffff;stroke-opacity:1"
         d="m 198.90134,-549.23718 v -69.51304 h 1.70734 l 25.73202,69.51304 h 23.53687 v -84.39126 h -14.39042 v 69.51303 h -1.70734 l -25.12225,-69.51303 h -24.02468 v 84.39126 z" />
      <path
         sodipodi:nodetypes="ccsssccsscc"
         inkscape:connector-curvature="0"
         id="path5264"
         style="font-weight:800;font-size:121.95269012px;font-family:TitilliumMaps29L;-inkscape-font-specification:'TitilliumMaps29L Ultra-Bold';fill:#ffffff;fill-opacity:1;stroke:#ffffff;stroke-opacity:1"
         d="m 282.95914,-633.62844 h -14.26847 v 57.19581 c 0,20.00022 9.26843,28.29302 30.24427,28.29302 21.21975,0 30.36622,-8.2928 30.36622,-28.29302 v -57.19581 H 315.0327 v 57.19581 c 0,10.60987 -5.12203,14.63432 -16.09776,14.63432 -10.85378,0 -15.9758,-3.9025 -15.9758,-14.63432 z" />
      <path
         sodipodi:nodetypes="ccccccccccccc"
         inkscape:connector-curvature="0"
         id="path5266"
         style="font-weight:800;font-size:121.95269012px;font-family:TitilliumMaps29L;-inkscape-font-specification:'TitilliumMaps29L Ultra-Bold';fill:#ffffff;fill-opacity:1;stroke:#ffffff;stroke-opacity:1"
         d="m 341.31732,-633.62844 23.53687,42.56148 -23.53687,41.82978 h 15.9758 l 16.46361,-31.58575 16.34166,31.58575 h 15.97581 l -23.17101,-41.82978 23.17101,-42.56148 h -15.97581 l -16.34166,32.19551 -16.46361,-32.19551 z" />
      <path
         sodipodi:nodetypes="ccccccccc"
         inkscape:connector-curvature="0"
         id="path5268"
         transform="matrix(1.0180738,0,0,0.6286381,-543.35514,-872.55144)"
         d="M 947.28125,380.0625 939.90625,402 H 957.75 v 112.3125 h 13.875 V 402 h 20.84375 v -21.9375 z"
         style="font-weight:800;font-size:121.95269012px;font-family:TitilliumMaps29L;-inkscape-font-specification:'TitilliumMaps29L Ultra-Bold';fill:#ffffff;fill-opacity:1;stroke:#ffffff;stroke-width:8.91283321;stroke-opacity:1" />
      <path
         sodipodi:nodetypes="cccccccccccccc"
         inkscape:connector-curvature="0"
         id="path5270"
         style="font-weight:800;font-size:121.95269012px;font-family:TitilliumMaps29L;-inkscape-font-specification:'TitilliumMaps29L Ultra-Bold';fill:#ffffff;fill-opacity:1;stroke:#ffffff;stroke-opacity:1"
         d="m 485.88652,-549.23718 4.14639,-16.82947 h 29.3906 l 4.6342,16.82947 h 14.39042 l -19.87829,-84.39126 H 491.6183 l -20.1222,84.39126 z m 21.34172,-71.83014 9.51231,41.70782 h -23.78077 l 9.87817,-41.70782 z" />
      <path
         sodipodi:nodetypes="cccsssccsssccc"
         inkscape:connector-curvature="0"
         id="path5272"
         style="font-weight:800;font-size:121.95269012px;font-family:TitilliumMaps29L;-inkscape-font-specification:'TitilliumMaps29L Ultra-Bold';fill:#ffffff;fill-opacity:1;stroke:#ffffff;stroke-opacity:1"
         d="m 580.40915,-584.43505 h 13.58461 v 22.27088 c -0.12195,0 -7.19521,0.85367 -11.95136,0.85367 -15.60993,0 -19.39048,-8.78061 -19.39048,-30.24427 0,-22.07341 4.63421,-30.00036 19.75633,-30.00036 10.12207,0 25.83971,0.0215 25.83971,0.0215 l -0.0288,-12.15659 c 0,0 -16.05474,-0.0224 -27.88414,-0.0224 -23.90271,0 -32.43942,12.88926 -32.43942,42.15787 0,27.80519 7.805,42.40179 32.92723,42.40179 9.63425,0 27.3174,-0.15343 27.3174,-0.15343 l 0.20464,-48.27753 h -27.73112" />
      <path
         sodipodi:nodetypes="ccccccccccccc"
         inkscape:connector-curvature="0"
         id="path5274"
         style="font-weight:800;font-size:121.95269012px;font-family:TitilliumMaps29L;-inkscape-font-specification:'TitilliumMaps29L Ultra-Bold';fill:#ffffff;fill-opacity:1;stroke:#ffffff;stroke-opacity:1"
         d="m 676.50808,-549.23718 v -13.17089 h -37.31752 v -22.31735 h 30.00036 v -12.80503 h -30.00036 v -22.9271 h 37.31752 v -13.17089 h -51.46404 v 84.39126 z" />
    </g>
    <text
       inkscape:export-ydpi="80.963211"
       inkscape:export-xdpi="80.963211"
       inkscape:export-filename="/home/flo/Documents/projects/linuxtage/gltgit/glt12/grafiken/shirts/linuxtage2012-hinten_10jahre_v2.png"
       transform="matrix(0,-0.95414103,1.0480631,0,0,0)"
       id="text5276"
       y="673.07855"
       x="-473.44562"
       style="font-style:normal;font-weight:normal;line-height:0%;font-family:'Bitstream Vera Sans';display:inline;fill:#ffffff;fill-opacity:1;stroke:#ffffff;stroke-opacity:1"
       xml:space="preserve"><tspan
         style="font-style:normal;font-variant:normal;font-weight:normal;font-stretch:normal;font-size:32.90254974px;line-height:125%;font-family:Ubuntu;-inkscape-font-specification:Ubuntu;text-align:start;writing-mode:lr-tb;text-anchor:start;fill:#ffffff;fill-opacity:1;stroke:#ffffff;stroke-opacity:1"
         y="673.07855"
         x="-473.44562"
         id="tspan5278"
         sodipodi:role="line">Grazer</tspan></text>
    <g
       id="tux"
       transform="matrix(0.41447206,0,0,-0.39595465,1066.4519,592.84285)">
      <g
         style="fill:#ffffff;stroke:#ffffff;stroke-width:20;stroke-linejoin:round;stroke-miterlimit:4;stroke-dasharray:none;stroke-opacity:1"
         id="g5282"
         transform="matrix(0.856841,0,0,0.856841,-40.27958,129.18817)">
        <g
           style="fill:#ffffff;stroke:#ffffff;stroke-width:20;stroke-linejoin:round;stroke-miterlimit:4;stroke-dasharray:none;stroke-opacity:1"
           transform="translate(-236.69957,27.103005)"
           id="g5284">
          <g
             style="fill:#ffffff;stroke:#ffffff;stroke-width:32.18192673;stroke-linejoin:round;stroke-miterlimit:4;stroke-dasharray:none;stroke-opacity:1"
             id="g5286"
             transform="matrix(0.625903,0,0,0.6170621,374.66747,134.30619)">
            <path
               style="fill:#ffffff;fill-opacity:1;fill-rule:evenodd;stroke:#ffffff;stroke-width:32.18192673;stroke-linejoin:round;stroke-miterlimit:4;stroke-dasharray:none;stroke-opacity:1"
               d="m 498.92661,231.43069 c -0.0935,-9.53179 -0.18694,-19.06359 -0.2804,-28.59539 11.9899,-8.67769 25.32948,-16.16626 36.48795,-25.57646 11.22624,-12.40953 4.22168,-22.94253 -10.46894,-28.8068 -18.75744,-8.31701 -36.20886,-18.82473 -52.23445,-31.63225 -11.04554,-7.46661 -21.39435,-16.820705 -32.86317,-23.140633 -14.22907,-1.087586 -28.45813,-2.175173 -42.6872,-3.26276 -6.6544,12.280023 -15.24789,24.069313 -20.69865,36.653953 1.38608,39.27232 2.77216,78.54463 4.15825,117.81695 9.01533,5.0417 16.42194,15.62817 27.81148,12.48676 23.96913,1.19677 45.90555,-11.60244 69.71241,-11.49262 8.42582,-1.36258 19.86084,-4.35624 21.06271,-14.45074 z"
               id="path5288"
               inkscape:connector-curvature="0" />
            <path
               style="fill:#ffffff;fill-opacity:1;fill-rule:evenodd;stroke:#ffffff;stroke-width:32.18192673;stroke-linejoin:round;stroke-miterlimit:4;stroke-dasharray:none;stroke-opacity:1"
               d="m 148.4935,260.5867 c 25.10939,-25.55555 49.72291,-52.8274 62.38172,-86.95256 9.47596,-20.57243 28.02079,-44.56102 15.20855,-67.59063 -2.87156,-28.710972 -35.9795,-18.084532 -54.63803,-14.177212 -34.93124,9.757002 -70.03795,18.971542 -105.083345,28.305252 -5.438719,3.98181 -21.23135,2.82592 -18.685798,10.7696 3.241467,11.85902 8.849514,23.7407 10.672085,35.58612 -3.472756,13.85518 -12.625604,27.04519 -10.49246,41.62426 10.40597,12.79 31.078927,-0.0148 44.571057,9.54332 10.094321,0.67836 7.990591,12.24012 10.922051,19.30935 2.63491,11.96315 5.87388,25.93413 18.77366,30.28857 1.31427,0.75501 2.62854,1.51002 3.94281,2.26503"
               id="path5290"
               inkscape:connector-curvature="0" />
            <path
               style="fill:#ffffff;fill-opacity:1;fill-rule:evenodd;stroke:#ffffff;stroke-width:32.18192673;stroke-linejoin:round;stroke-miterlimit:4;stroke-dasharray:none;stroke-opacity:1"
               d="m 247.7361,538.69043 c 24.9391,12.14058 52.5637,-2.8016 76.49323,-10.69462 13.0971,-2.95342 22.46204,-9.26673 22.1447,-23.43242 0.14249,-17.71749 -34.22007,-21.66523 -46.0056,-35.30848 -20.93209,-15.21856 -51.15597,-13.33266 -68.43329,6.54998 -22.99282,13.6877 -16.28219,43.47405 5.4402,54.62953 3.4034,2.81429 6.87056,5.55046 10.36076,8.25598"
               id="path5292"
               inkscape:connector-curvature="0" />
            <path
               style="fill:#ffffff;fill-opacity:1;fill-rule:nonzero;stroke:#ffffff;stroke-width:32.18164062;stroke-linejoin:round;stroke-miterlimit:4;stroke-dasharray:none;stroke-opacity:1"
               d="m 206.0368,571.7373 c -0.66867,30.32656 3.27785,66.37456 30.42745,85.05116 25.4962,15.8927 58.23592,15.45237 86.47202,8.03708 30.4864,-8.27606 55.4722,-35.00973 58.29943,-66.97654 5.96195,-34.75257 1.22058,-71.70021 15.03252,-104.81224 15.14537,-30.02308 32.09251,-59.23481 53.75952,-85.08485 22.6037,-29.70903 36.42356,-65.29798 41.63641,-102.1585 4.17934,-19.60582 6.66689,-43.45243 -9.60095,-58.51732 -14.36683,-14.48481 -31.74548,-33.71472 -54.30011,-29.83159 -17.50745,6.00287 -29.23792,26.29027 -26.98279,44.4124 4.08614,16.18087 24.97132,17.45895 38.43342,14.38284 3.84024,0.0873 17.05827,-9.95084 15.20306,-3.28783 -4.50419,6.00329 -11.96391,8.91541 -18.10669,12.03289 2.71766,15.69656 8.27879,31.58346 5.96,47.90154 -2.55162,27.4134 -16.90616,52.62435 -33.93542,73.69275 -3.09802,3.42258 -10.31474,11.00223 -13.75508,8.6259 19.24768,-27.14513 38.61006,-56.71254 40.82335,-90.91036 0.54983,-14.72101 0.58778,-34.33256 -13.84093,-42.66182 -7.07613,-2.08571 -19.84863,-3.49296 -19.6084,7.20648 -0.40686,28.12022 1.48132,58.10098 -13.34975,83.34626 -8.43114,16.63304 -19.09986,32.42003 -22.01246,51.23144 -4.20235,15.87544 -12.12079,30.29331 -22.29001,43.0716 -8.63092,10.9417 -5.44152,25.03745 -1.26593,37.00603 4.16145,10.14053 -6.172,16.74811 -14.85655,18.0675 -11.68313,4.06528 -29.98956,7.42283 -30.8036,22.68989 -1.63085,11.07546 6.53025,25.09646 19.23338,21.4568 12.48931,-0.99214 17.3547,-15.30772 12.37982,-25.57642 -4.67389,-6.13534 0.32693,-12.7163 7.42167,-11.85891 9.29829,2.55797 7.82765,15.67092 7.22092,23.3525 -2.6086,13.41558 -5.88658,32.12248 -22.29001,34.52435 -10.58057,3.00558 -23.75808,1.81625 -29.20039,-9.20534 -7.51277,-10.81431 -7.62241,-24.59165 -6.16179,-37.0504 -7.15313,0.98748 -15.45386,3.23706 -23.29571,2.17871 -5.70293,3.44746 -1.01796,12.47892 -3.35169,18.09998 -0.27192,12.14093 -9.50451,27.68429 -23.56978,23.26513 -17.33474,-5.75547 -16.73628,-27.55184 -13.76354,-42.2397 1.42012,-5.22146 2.8386,-16.4383 10.18311,-14.87931 6.48952,5.28498 4.0569,9.4772 -2.17871,12.73687 -5.68936,8.83937 -6.73227,26.1612 7.20652,27.31781 10.49135,0.0246 15.60965,-13.66086 14.63316,-22.58488 -1.45293,-9.63127 -13.12176,-12.07048 -18.42576,-19.31801 -7.26505,-4.4232 -17.39447,-13.88235 -11.12331,-22.78799 11.25906,-3.11962 13.44045,-18.71924 26.26191,-18.84021 25.52175,-2.01238 49.74189,8.71179 72.9535,17.8345 1.69385,4.45284 9.8644,9.97018 10.5585,2.0112 -6.988,-9.02368 -20.53424,-9.61474 -30.52429,-14.24259 -15.53583,-7.25448 -31.9165,-15.50162 -49.68773,-12.26567 -3.07998,0.16695 -17.18747,2.88163 -9.73638,-3.96737 8.30112,-9.26485 21.2665,-13.26567 33.13419,-8.90895 16.67768,5.56549 32.41527,13.91586 48.07631,21.47269 9.86959,0.64615 2.98967,-9.96629 -2.82601,-10.74671 -17.80506,-6.74437 -32.88193,-19.02326 -47.2615,-31.1723 -10.73967,-5.63018 -24.32323,-2.34838 -30.8373,8.04452 -7.15267,6.42953 -9.20651,18.24117 -18.2675,22.12238 -3.61012,-17.00323 -13.45853,-31.97087 -20.4463,-47.76438 -4.48093,-11.12585 -0.43284,-23.24351 -3.02607,-34.41209 -14.55309,-20.72438 -25.07947,-44.59879 -30.27771,-69.41781 -2.84161,-15.68538 -3.15695,-31.65651 -3.06422,-47.50701 -2.10811,-8.68975 -11.26368,0.50621 -14.2455,4.18991 -13.21575,14.75189 -7.5349,35.96231 -4.86,53.1272 -6.6597,-4.13829 -7.2833,-15.19433 -8.47141,-22.77992 -2.39348,-20.39275 7.81513,-40.11159 23.74788,-52.46374 20.0255,-19.28552 42.21096,-36.13286 63.53117,-53.84239 9.64138,-7.41227 12.10094,-23.65972 0.59766,-30.62417 -6.59278,-4.67698 -16.20871,-6.70703 -6.107,-14.33168 9.16227,-13.17455 23.33123,-29.65239 14.6883,-46.51111 15.37867,8.50698 11.9066,31.67273 -0.95067,40.7962 -3.50613,7.942 9.32594,3.24348 11.281,-0.87674 15.49074,-13.6893 38.04455,-8.7482 56.81038,-7.54898 20.78025,1.7096 41.22561,11.99297 52.0645,30.2987 2.68439,4.63334 11.47167,9.43553 12.67838,1.2333 3.23238,-18.97421 -12.3643,-37.38726 -5.88634,-56.18865 8.28303,-7.92447 7.55765,6.78688 8.63137,12.36963 5.75347,29.17585 4.93732,59.09059 5.24539,88.67336 -0.31901,12.52712 -3.46808,31.34571 11.29509,36.88188 5.74555,0.73653 16.09596,4.09817 18.9382,-2.5137 -4.37242,-6.84101 -16.81531,-0.50123 -20.34683,-9.65477 -6.11484,-13.63058 -4.26717,-29.69167 -2.17698,-44.10565 4.96642,-19.13589 6.17823,-39.02669 2.01192,-58.43764 -3.0194,-14.07026 -2.39531,-31.20263 10.79219,-40.04454 15.80704,-12.279832 38.56966,-5.293367 51.2357,8.24194 15.66848,13.23263 33.13635,24.77421 53.42821,29.29472 14.18081,5.03859 32.43957,9.78736 37.95731,25.54613 -0.0769,12.39629 -15.95,14.99223 -25.41315,17.29253 -18.06126,4.69536 -22.74278,26.82516 -21.42912,43.00751 -0.3272,9.71543 8.95937,11.03925 7.03563,0.21333 -0.49878,-21.79578 19.96899,-35.00553 36.26888,-45.30963 9.49515,-4.76494 15.01362,-18.91305 4.87852,-26.09734 -15.71902,-12.85593 -34.00254,-21.58426 -52.27921,-30.0609 -17.33592,-8.79866 -31.11436,-22.51069 -44.80244,-35.950312 -15.76279,-13.057282 -39.07394,-11.490206 -57.27183,-5.048476 -10.30354,3.95449 -13.34064,15.304311 -20.1113,22.624998 -12.26263,3.52022 -25.83836,1.62277 -38.6266,2.44883 -27.18554,-0.84621 -54.80045,2.20528 -81.65196,-2.95507 -18.43052,-2.6596 -28.70344,-20.51635 -45.13634,-26.811263 -19.73623,-3.3331 -37.80092,8.97461 -55.88037,15.008467 -30.30768,12.736136 -63.728726,14.455016 -94.618631,25.046236 -10.756798,3.5954 -11.292641,16.45498 -6.492433,25.03018 6.609228,13.96297 6.389338,29.99442 0.626733,44.18591 -3.44706,11.21461 -1.128262,29.42468 13.557246,30.14626 13.510345,0.34302 32.024356,-2.82497 39.234952,12.08736 3.706973,5.72273 3.532093,14.24749 8.882303,18.60299 4.53708,-9.2301 -0.80793,-20.99694 -5.1953,-29.6643 -10.3958,-13.45949 -28.75299,-5.98679 -42.870018,-6.64715 -11.398624,-1.3938 -7.682544,-15.10312 -3.551497,-21.84057 8.411627,-14.89586 11.039755,-35.23195 -1.677883,-48.60529 -6.809849,-5.60214 -4.258834,-15.46147 4.909761,-15.801 41.802766,-10.64855 83.690147,-21.18889 125.744047,-30.684148 14.31984,-3.070615 31.35037,2.780534 35.74961,17.952198 9.65349,23.16888 -4.35661,46.45366 -17.26245,65.06215 -19.36588,27.74055 -35.81511,58.39778 -61.15447,81.2891 -7.42055,7.00203 -18.10509,6.20406 -26.312,1.17331 -7.93896,-0.20647 -4.0967,11.83772 -5.47848,16.87248 -0.94435,21.48287 15.49096,38.07174 22.2684,57.41759 11.4381,25.46813 17.34645,53.99167 36.36581,75.42677 14.61628,18.94929 27.73414,39.06003 40.90753,58.9778 4.02514,13.4104 -0.57286,27.89264 0.0403,41.74805 -0.95849,20.30946 -1.64598,40.6294 -2.42995,60.94601 z M 158.7753,370.62509 c 5.33503,-0.81052 9.32516,7.01839 12.80108,10.75718 5.72907,6.37209 -3.78603,14.79436 -5.59458,4.49383 0.63365,-6.86458 -8.55539,-9.14974 -7.2065,-15.25101 z m 212.67609,103.405 c 3.9665,-6.07245 12.4015,-7.22772 12.99063,1.76567 2.7933,9.62315 -11.70168,8.6487 -15.88354,14.67509 -7.43126,10.46705 -7.8459,-4.27453 -3.30236,-9.16904 1.30724,-2.98037 3.46166,-5.50582 6.19527,-7.27172 z m -111.4495,61.33923 c -4.22839,1.87724 -14.85604,-1.7645 -9.38519,-7.03869 4.09297,0.2268 6.02975,6.45665 9.38519,7.03869 z m 17.5972,-0.67041 c 2.46301,-5.13838 16.86217,-4.32593 8.21231,1.17328 -1.97033,-0.59122 -7.92524,1.10452 -8.21231,-1.17328 z m 36.03262,23.96607 c 6.96109,-1.07143 6.41394,-10.79129 9.8881,-13.9104 6.41599,3.78471 0.79266,15.79414 -6.05088,17.18702 -2.88066,2.37905 -9.6536,-1.76332 -3.83722,-3.27662 z m -73.74101,1.6759 c -6.32705,-3.2057 4.1906,-8.05331 3.1841,-13.23981 1.13831,-10.17627 6.77419,1.71126 2.47354,5.96945 -0.82804,2.31029 -2.44933,8.41839 -5.65764,7.27036 z m 94.52269,75.7522 c -4.6916,5.03163 -11.5059,0.49085 -10.39068,-5.86579 2.16926,-4.91298 -8.3665,-10.99202 -0.8382,-12.56927 6.07906,2.82757 11.0515,8.13741 18.43539,6.53607 4.95678,1.94115 -0.5352,6.32128 -2.51379,8.21192"
               id="path5294"
               inkscape:connector-curvature="0" />
            <path
               style="fill:#ffffff;fill-opacity:1;fill-rule:evenodd;stroke:#ffffff;stroke-width:32.18192673;stroke-linecap:butt;stroke-linejoin:round;stroke-miterlimit:4;stroke-dasharray:none;stroke-opacity:1"
               d="m 211.0195,656.31543 c 44.11401,-12.86403 93.63586,-21.54439 137.85741,-4.49839 11.18912,4.05832 23.64245,20.4273 21.80363,-1.35206 5.09308,-19.4128 5.31336,-40.32485 -20.31137,-41.48962 -45.9874,-11.55497 -98.03253,-11.95649 -140.56111,11.26078 -6.08736,8.60746 0.90066,25.24215 1.21144,36.07929 z"
               id="path5296"
               inkscape:connector-curvature="0" />
            <path
               style="fill:#ffffff;stroke:#ffffff;stroke-width:32.18192673;stroke-linecap:butt;stroke-linejoin:round;stroke-miterlimit:4;stroke-dasharray:none;stroke-opacity:1"
               d="m 187.5141,642.83191 c 5.65844,-9.40779 16.51385,-13.99018 25.4131,-19.67471"
               id="path5298"
               inkscape:connector-curvature="0" />
            <path
               style="fill:#ffffff;stroke:#ffffff;stroke-width:32.18192673;stroke-linecap:butt;stroke-linejoin:round;stroke-miterlimit:4;stroke-dasharray:none;stroke-opacity:1"
               d="M 398.4707,644.47137 C 390.80645,632.36101 377.81194,624.90949 365.133,619.0583"
               id="path5300"
               inkscape:connector-curvature="0" />
            <path
               style="fill:#ffffff;fill-opacity:1;fill-rule:evenodd;stroke:#ffffff;stroke-width:38.92695236;stroke-linecap:butt;stroke-linejoin:round;stroke-miterlimit:4;stroke-dasharray:none;stroke-opacity:1"
               d="M 461.04721,728.08893 C 427.09305,699.15976 394.46597,667.11877 375.2436,626.163 c -22.17256,0.6202 -13.02911,22.63314 -13.74455,38.37038 0.82037,34.0139 -1.13515,68.06217 -5.38365,101.81192 37.94417,3.85467 80.28958,-7.66242 104.93181,-38.25637 z"
               id="path5302"
               inkscape:connector-curvature="0" />
            <path
               style="fill:#ffffff;fill-opacity:1;fill-rule:evenodd;stroke:#ffffff;stroke-width:32.18192673;stroke-linecap:butt;stroke-linejoin:round;stroke-miterlimit:4;stroke-dasharray:none;stroke-opacity:1"
               d="m 358.84799,740.38562 c 28.4699,-5.9972 56.54196,-15.24348 81.70471,-30.05852 -17.24224,-8.86766 -28.61753,-39.14549 -44.68818,-38.78848 -14.64382,11.1481 -42.82448,4.30054 -34.79815,29.69171 -0.32663,13.07213 -1.35188,26.11174 -2.21838,39.15529 z"
               id="path5304"
               inkscape:connector-curvature="0" />
          </g>
        </g>
        <path
           transform="matrix(0.8,0,0,-0.8,0,842)"
           id="path5306"
           d="m 358.27505,763.77089 c 0.18086,-0.2926 0.58899,-1.93955 0.90705,-3.65992 0.72958,-3.94682 -0.0854,-8.80418 -2.29483,-13.67702 -2.23459,-4.92834 -10.1188,-16.56479 -12.91515,-19.06177 -1.46057,-1.30416 -1.55633,-3.24807 -0.21648,-4.39374 0.54347,-0.46476 2.56772,-1.78783 4.49842,-2.94028 6.74673,-4.02711 9.43924,-9.16121 8.05501,-15.35944 -1.33228,-5.96576 -2.75395,-7.46343 -20.59964,-21.7012 -17.34044,-13.83468 -30.82984,-25.4194 -39.9902,-34.34375 -11.16282,-10.87519 -15.64278,-24.4257 -13.11175,-39.65911 1.04222,-6.2729 2.56326,-10.55375 4.31231,-12.13658 1.30552,-1.18149 1.30845,-1.49787 -0.0638,6.823 -1.24256,7.53437 -1.45085,16.72661 -0.48232,21.28759 0.96848,4.56068 3.65637,9.35055 7.28179,12.97597 3.46292,3.46292 5.66888,4.67013 7.63288,4.1772 2.05904,-0.51677 2.51832,-2.6618 2.52346,-11.78781 0.005,-9.56602 0.6874,-18.63469 1.94295,-25.83453 2.66677,-15.29252 10.88699,-35.37881 20.32319,-49.66029 l 3.91734,-5.92878 0.37865,-11.29292 c 0.26968,-8.04234 0.62908,-11.94304 1.2486,-13.5515 0.47849,-1.24223 3.55496,-7.72154 6.83668,-14.39848 3.28167,-6.67693 6.77818,-14.61727 7.76998,-17.64518 0.9918,-3.02791 2.00732,-5.5053 2.25672,-5.5053 1.1761,0 4.7476,3.97375 7.2963,8.11806 7.41583,12.05832 13.47143,16.72636 21.69827,16.72636 4.77673,0 8.06975,-1.33251 12.71729,-5.14601 12.53627,-10.28652 22.19827,-16.44336 32.15213,-20.48798 1.9871,-0.80742 4.11254,-1.91293 4.72321,-2.45666 1.58942,-1.41528 2.65253,-4.16343 2.0478,-5.29346 -0.40785,-0.76201 0.35109,-1.43579 4.14512,-3.67988 l 4.64432,-2.7471 -0.18797,5.36593 c -0.23726,6.77328 0.8791,10.02825 5.64308,16.45343 8.96047,12.08501 12.65772,20.05429 17.38465,37.47202 1.75272,6.45853 4.04072,11.49072 11.72188,25.78092 11.82284,21.99537 13.42926,28.67069 14.17854,58.91643 l 0.38402,15.50241 1.46469,1.46428 c 2.07225,2.07169 5.52856,2.72132 10.24567,1.92567 3.40211,-0.57379 4.1873,-0.96306 6.84797,-3.39479 3.46506,-3.16683 5.59694,-7.36674 6.93261,-13.65758 1.11224,-5.23831 0.74392,-21.23278 -0.63398,-27.53184 -3.3645,-15.38073 -11.15385,-31.45171 -24.76752,-51.10046 -3.81396,-5.50468 -5.22529,-7.95875 -4.64794,-8.08191 4.23897,-0.90425 17.61526,15.48202 26.06423,31.9293 6.66937,12.98297 9.95171,25.77842 9.87802,38.50751 -0.0301,5.20076 -0.47706,8.61844 -2.30025,17.58982 -1.24448,6.12417 -2.26282,11.40056 -2.26282,11.7253 0,0.32476 2.21533,1.79802 4.92298,3.27395 5.19531,2.83198 9.19317,6.01642 9.19317,7.32267 0,1.17937 -0.79807,0.9896 -6.70715,-1.5949 l -5.43274,-2.37614 -8.18736,-0.0236 c -8.98369,-0.0259 -11.82047,0.59921 -16.07982,3.54327 -2.74124,1.89467 -5.3647,5.98824 -5.76888,9.00142 l -0.29988,2.23611 -4.69938,0.33161 c -6.85152,0.48351 -10.0254,2.36948 -12.53717,7.44983 -1.83403,3.70961 -1.99817,5.94036 -1.88959,25.69139 0.16702,30.38083 -0.77639,45.54247 -4.10401,65.95866 -1.50032,9.20497 -2.19275,10.54668 -4.71293,9.13213 -3.46382,-1.94419 -3.28557,-11.66468 0.45036,-24.55498 2.24215,-7.73616 2.45643,-9.02395 2.47405,-14.86978 0.0183,-6.05583 -0.0524,-6.45831 -1.3137,-7.48156 -0.73314,-0.5948 -1.76215,-1.08147 -2.28671,-1.08147 -1.88416,0 -5.4612,2.97331 -7.95552,6.61285 -3.42243,4.99373 -9.77041,10.7324 -15.40732,13.92846 -8.7759,4.97578 -17.09952,6.90387 -35.6522,8.25823 -16.58213,1.21055 -25.3281,-0.68384 -32.47905,-7.03492 -6.6713,-5.92506 -12.7579,-4.03852 -6.66418,2.06553 1.332,1.33426 3.16653,3.95043 4.07674,5.81376 1.48474,3.03938 1.65786,3.96873 1.68321,9.03434 0.0311,6.2189 -0.56673,8.01018 -3.81593,11.43408 -1.60873,1.69523 -3.14915,2.53611 -2.38716,1.30314 z"
           style="fill:#ffffff;stroke:#ffffff;stroke-width:25;stroke-linejoin:round;stroke-miterlimit:4;stroke-dasharray:none;stroke-opacity:1"
           inkscape:connector-curvature="0" />
        <path
           transform="matrix(0.8,0,0,-0.8,0,842)"
           id="path5308"
           d="m 467.61851,488.34707 c -1.86971,-0.35355 -8.5497,-7.22812 -10.08774,-10.38155 -1.50608,-3.08797 -1.70782,-7.14576 -0.38062,-7.65508 0.57193,-0.21947 1.72962,0.47053 3.24671,1.9351 1.29688,1.25191 4.30317,3.1644 6.68072,4.25001 5.26713,2.40501 6.41105,3.85494 5.87283,7.44396 -0.26301,1.75414 -0.82376,2.87627 -1.83437,3.67123 -0.8005,0.6297 -1.61178,1.11029 -1.80286,1.068 -0.19102,-0.0423 -0.95363,-0.19154 -1.69467,-0.33167 z"
           style="fill:#ffffff;stroke:#ffffff;stroke-width:25;stroke-linejoin:round;stroke-miterlimit:4;stroke-dasharray:none;stroke-opacity:1"
           inkscape:connector-curvature="0" />
        <path
           transform="matrix(0.8,0,0,-0.8,0,842)"
           id="path5310"
           d="m 431.04736,441.92897 c -2.56502,-1.564 -2.84966,-3.64935 -1.07402,-7.86811 2.85197,-6.77591 1.19604,-14.24147 -3.92056,-17.67587 -3.06733,-2.05885 -8.32774,-3.03477 -11.62431,-2.15656 -3.61277,0.96244 -7.51803,5.15113 -8.7484,9.38332 -0.91834,3.15887 -0.90817,9.33004 0.019,11.5805 0.3262,0.79168 -0.3114,0.71732 -4.42552,-0.51626 l -4.80661,-1.4412 -0.38887,-3.11228 c -0.79367,-6.35231 1.21709,-19.50257 3.16631,-20.70724 0.30045,-0.1857 5.3119,-0.58527 11.13645,-0.88791 5.82449,-0.30264 13.50159,-0.92372 17.0601,-1.38015 3.55846,-0.45643 6.76344,-0.82988 7.12211,-0.82988 0.35866,0 1.32737,1.50458 2.15265,3.34351 3.43429,7.65262 5.53675,20.46302 4.31328,26.28102 -1.28779,6.12369 -5.55753,8.68478 -9.9817,5.98712 l 6e-5,-1e-5 z"
           style="fill:#ffffff;stroke:#ffffff;stroke-width:25;stroke-linejoin:round;stroke-miterlimit:4;stroke-dasharray:none;stroke-opacity:1"
           inkscape:connector-curvature="0" />
        <path
           transform="matrix(0.8,0,0,-0.8,0,842)"
           id="path5312"
           d="m 424.28713,427.91504 c -2.38405,-5.86288 -3.04965,-6.79998 -5.7224,-8.05632 -2.47072,-1.16141 -2.56858,-1.28846 -1.55978,-2.02611 1.48434,-1.08535 2.89246,-0.98663 5.31044,0.37237 3.81339,2.14324 6.21466,7.65196 4.62789,10.61679 -0.93686,1.7506 -1.67852,1.49742 -2.65609,-0.90673 z"
           style="fill:#ffffff;stroke:#ffffff;stroke-width:25;stroke-linejoin:round;stroke-miterlimit:4;stroke-dasharray:none;stroke-opacity:1"
           inkscape:connector-curvature="0" />
        <path
           transform="matrix(0.8,0,0,-0.8,0,842)"
           id="path5314"
           d="m 350.11643,443.02845 c -1.03816,-1.11134 -1.98196,-3.1974 -2.77298,-6.12891 -3.34863,-12.41026 -2.71809,-23.9185 1.64024,-29.93497 1.56221,-2.15661 1.7434,-2.2461 3.50324,-1.73041 2.63051,0.77085 15.05684,2.77687 17.2021,2.777 0.98712,5e-5 2.17604,0.38141 2.64209,0.84745 1.50292,1.50291 2.74063,7.16482 3.14745,14.3981 0.21835,3.88194 0.50689,7.42347 0.64116,7.87007 0.1673,0.55628 -0.3782,0.93133 -1.73205,1.19087 -1.08695,0.20839 -2.61149,0.55333 -3.38788,0.76656 -1.40405,0.38562 -1.41173,0.36719 -1.43042,-3.44945 -0.0267,-5.43963 -1.51872,-9.38099 -4.78966,-12.65192 -3.41684,-3.41683 -6.51438,-4.09472 -10.31134,-2.25663 -3.6466,1.7653 -5.23184,4.84145 -5.12348,9.94211 0.11631,5.47353 1.34798,8.49995 4.73241,11.62836 3.32491,3.07335 3.52407,4.43684 0.98655,6.75446 -2.28038,2.08279 -2.98359,2.07958 -4.94743,-0.0227 v -10e-6 z"
           style="fill:#ffffff;stroke:#ffffff;stroke-width:25;stroke-linejoin:round;stroke-miterlimit:4;stroke-dasharray:none;stroke-opacity:1"
           inkscape:connector-curvature="0" />
        <path
           transform="matrix(0.8,0,0,-0.8,0,842)"
           id="path5316"
           d="m 297.03119,563.35376 c 0,-0.58543 1.14182,-2.45137 2.53735,-4.14653 1.39557,-1.69517 2.69697,-3.94764 2.89206,-5.00552 0.43884,-2.37996 1.69173,-4.46431 2.68347,-4.46431 1.17289,0 2.61539,1.92424 2.61539,3.48877 0,1.60287 -2.16717,4.81637 -5.8171,8.62562 -2.60719,2.72107 -4.91117,3.42567 -4.91117,1.50197 z"
           style="fill:#ffffff;stroke:#ffffff;stroke-width:25;stroke-linejoin:round;stroke-miterlimit:4;stroke-dasharray:none;stroke-opacity:1"
           inkscape:connector-curvature="0" />
        <path
           transform="matrix(0.8,0,0,-0.8,0,842)"
           id="path5318"
           d="m 362.82428,428.6361 c -0.31342,-1.42737 -1.41739,-3.84267 -2.45324,-5.36732 -1.67005,-2.45814 -1.74847,-2.90712 -0.69145,-3.96413 1.04615,-1.04613 1.32117,-1.04892 2.24722,-0.0228 2.02324,2.24203 3.9461,7.80953 3.4205,9.90367 -0.70558,2.81125 -1.83933,2.56438 -2.52303,-0.54946 z"
           style="fill:#ffffff;stroke:#ffffff;stroke-width:25;stroke-linejoin:round;stroke-miterlimit:4;stroke-dasharray:none;stroke-opacity:1"
           inkscape:connector-curvature="0" />
      </g>
      <path
         sodipodi:nodetypes="cccccsccsc"
         inkscape:connector-curvature="0"
         id="path5320"
         d="m 273.62897,616.64124 c 15.80523,0.33004 24.7906,-16.12099 13.92663,-28.1881 -8.09926,-13.31861 -25.72551,-13.537 -39.63947,-15.48721 -18.922,-1.14772 -38.97078,-2.16802 -56.76936,5.2845 -10.56677,4.82335 -21.67997,22.2465 -10.41148,31.17159 8.92172,2.09906 13.15246,3.21027 15.04631,13.68067 2.52964,13.9855 8.75296,28.58055 20.31307,37.83893 11.44688,6.35674 12.82745,-18.56604 20.69372,-2.87206 9.65736,14.20752 24.93411,4.38109 27.89508,-9.87187 2.23449,-10.75596 6.28425,-20.95713 8.9455,-31.55645 z"
         style="fill:none;stroke:#ffffff;stroke-width:20.7285347;stroke-linecap:butt;stroke-linejoin:miter;stroke-miterlimit:10;stroke-dasharray:none;stroke-opacity:1" />
      <path
         style="fill:#f8c200;fill-opacity:1;fill-rule:evenodd;stroke:none"
         d="m 345.51101,389.57697 c -0.0501,-5.03968 -0.10025,-10.07938 -0.15038,-15.11907 6.43018,-4.5881 13.58419,-8.54749 19.56847,-13.52289 6.02062,-6.56122 2.26408,-12.13027 -5.61449,-15.23085 -10.0596,-4.3974 -19.41879,-9.95309 -28.0133,-16.72473 -5.92372,-3.94778 -11.47378,-8.89351 -17.6245,-12.23501 -7.63104,-0.57503 -15.26208,-1.15007 -22.89312,-1.7251 -3.56875,6.49274 -8.17743,12.72602 -11.10067,19.37983 0.74335,20.76422 1.4867,41.52844 2.23006,62.29266 4.83492,2.66567 8.80708,8.26299 14.91528,6.60205 12.85463,0.63276 24.61912,-6.13449 37.38673,-6.07643 4.51876,-0.72043 10.65135,-2.30325 11.29592,-7.64045 z"
         id="path5322"
         inkscape:connector-curvature="0" />
      <path
         style="fill:#f8c200;fill-opacity:1;fill-rule:evenodd;stroke:none"
         d="m 157.57394,404.99246 c 13.46616,-13.51184 26.66637,-27.93112 33.45528,-45.97392 5.08196,-10.87714 15.02754,-23.56048 8.15634,-35.73679 -1.54002,-15.18018 -19.29578,-9.56173 -29.30234,-7.49583 -18.73361,5.15876 -37.56131,10.03071 -56.35614,14.96566 -2.91678,2.10528 -11.38636,1.49414 -10.02118,5.69415 1.7384,6.27015 4.74599,12.55228 5.72343,18.81524 -1.86243,7.32557 -6.7711,14.29944 -5.6271,22.00775 5.58072,6.76238 16.66761,-0.008 23.90343,5.04578 5.41358,0.35867 4.28535,6.47165 5.85749,10.20932 1.4131,6.32521 3.15016,13.712 10.06831,16.0143 0.70484,0.39919 1.40968,0.79838 2.11452,1.19758"
         id="path5324"
         inkscape:connector-curvature="0" />
      <path
         style="fill:#f8c200;fill-opacity:1;fill-rule:evenodd;stroke:none"
         d="m 210.79769,552.0326 c 13.37483,6.41902 28.18988,-1.48127 41.02328,-5.6545 7.02396,-1.56154 12.04637,-4.89954 11.87618,-12.38929 0.0764,-9.36766 -18.3522,-11.45492 -24.67277,-18.66844 -11.22587,-8.04642 -27.43492,-7.0493 -36.70073,3.46313 -12.33104,7.23702 -8.73213,22.98578 2.91757,28.88395 1.82524,1.48798 3.68468,2.93466 5.55647,4.36514"
         id="path5326"
         inkscape:connector-curvature="0" />
      <path
         style="fill:#000000;fill-opacity:1;fill-rule:nonzero;stroke:none"
         d="m 188.43438,569.50528 c -0.35861,16.03438 1.75791,35.09383 16.31823,44.9686 13.67359,8.40285 31.23188,8.17004 46.37489,4.2494 16.34984,-4.37576 29.74971,-18.51049 31.26595,-35.41212 3.19739,-18.37452 0.65459,-37.90962 8.06193,-55.41675 8.12245,-15.87393 17.21119,-31.31887 28.8312,-44.98641 12.12235,-15.70788 19.53393,-34.52462 22.32958,-54.01366 2.24138,-10.36607 3.57545,-22.97435 -5.14899,-30.93952 -7.70492,-7.65847 -17.02508,-17.82579 -29.12111,-15.77268 -9.38924,3.17386 -15.68028,13.9003 -14.47086,23.4819 2.1914,8.55522 13.39211,9.23097 20.61182,7.60456 2.05952,0.0462 9.14834,-5.26125 8.1534,-1.73836 -2.4156,3.17409 -6.41624,4.7138 -9.71061,6.36208 1.45748,8.29915 4.43991,16.69894 3.19634,25.3267 -1.36843,14.49413 -9.06676,27.82376 -18.19954,38.96313 -1.66147,1.8096 -5.53179,5.81715 -7.37684,4.56072 10.32252,-14.35228 20.70655,-29.98528 21.89354,-48.06649 0.29487,-7.78336 0.31522,-18.15246 -7.42289,-22.55634 -3.79492,-1.10276 -10.64481,-1.84681 -10.51597,3.81024 -0.2182,14.86784 0.79443,30.71939 -7.15946,44.06718 -4.52162,8.79429 -10.24325,17.14125 -11.80527,27.0873 -2.25372,8.39372 -6.50037,16.0168 -11.95412,22.77299 -4.62876,5.78514 -2.91829,13.2379 -0.67892,19.56598 2.23178,5.36154 -3.31004,8.85513 -7.96756,9.55272 -6.26565,2.14941 -16.08338,3.92463 -16.51995,11.99669 -0.87462,5.85587 3.50217,13.26911 10.31485,11.34473 6.69801,-0.52457 9.30732,-8.09356 6.63929,-13.52287 -2.5066,-3.2439 0.17533,-6.72341 3.98024,-6.27009 4.98667,1.35246 4.19796,8.28559 3.87257,12.34703 -1.39899,7.09314 -3.15697,16.98393 -11.95412,18.25386 -5.67435,1.58912 -12.74144,0.96029 -15.66015,-4.86709 -4.02909,-5.71779 -4.08789,-13.0022 -3.30456,-19.58944 -3.83622,0.52211 -8.2879,1.71151 -12.49348,1.15194 -3.05848,1.82275 -0.54593,6.5979 -1.79751,9.56989 -0.14583,6.41921 -5.09726,14.63735 -12.64046,12.30084 -9.29661,-3.04306 -8.97565,-14.56732 -7.38137,-22.33315 0.76161,-2.76071 1.52234,-8.69132 5.46119,-7.86705 3.48033,2.7943 2.17571,5.01083 -1.16844,6.73429 -3.0512,4.67359 -3.61051,13.83206 3.86485,14.44359 5.62651,0.013 8.37145,-7.22283 7.84776,-11.94117 -0.77921,-5.09229 -7.03719,-6.38196 -9.88173,-10.2139 -3.89624,-2.33865 -9.32864,-7.33994 -5.96542,-12.04856 6.03823,-1.64942 7.20811,-9.89731 14.08425,-9.96127 13.6873,-1.064 26.67654,4.60613 39.12491,9.42953 0.90842,2.35432 5.29028,5.27147 5.66252,1.06337 -3.74766,-4.77104 -11.0125,-5.08355 -16.37016,-7.53041 -8.33185,-3.83561 -17.1168,-8.19608 -26.6475,-6.48515 -1.65179,0.0883 -9.21763,1.52359 -5.22161,-2.09764 4.45188,-4.89855 11.40521,-7.01388 17.76985,-4.71038 8.94422,2.94261 17.38428,7.35765 25.78329,11.35313 5.29306,0.34163 1.60336,-5.26942 -1.51559,-5.68205 -9.54884,-3.56591 -17.63456,-10.05805 -25.34631,-16.48154 -5.75968,-2.97682 -13.04453,-1.24165 -16.53803,4.25333 -3.83597,3.39945 -4.93744,9.64454 -9.79685,11.69663 -1.9361,-8.99001 -7.2178,-16.90377 -10.96533,-25.25418 -2.40312,-5.8825 -0.23214,-12.2894 -1.62288,-18.1945 -7.80482,-10.95748 -13.45011,-23.58045 -16.23792,-36.70287 -1.52395,-8.29323 -1.69307,-16.73756 -1.64334,-25.1181 -1.13058,-4.59448 -6.0407,0.26765 -7.63985,2.21531 -7.0876,7.79968 -4.04097,19.01414 -2.60642,28.08963 -3.57159,-2.18801 -3.90603,-8.03361 -4.54321,-12.04429 -1.28362,-10.78214 4.19125,-21.20797 12.73597,-27.73885 10.73967,-10.19672 22.63772,-19.10431 34.07173,-28.46777 5.17067,-3.91904 6.48973,-12.50946 0.32053,-16.19173 -3.53571,-2.47283 -8.69272,-3.54617 -3.27518,-7.57751 4.91372,-6.9657 12.51252,-15.67793 7.87732,-24.59154 8.24757,4.49784 6.38551,16.74613 -0.50984,21.56993 -1.88034,4.19913 5.00149,1.71491 6.04999,-0.46355 8.30768,-7.23786 20.40327,-4.62538 30.46738,-3.99133 11.14443,0.90391 22.10926,6.34097 27.92216,16.01965 1.43963,2.44976 6.15224,4.9888 6.7994,0.65208 1.73353,-10.03212 -6.63096,-19.76755 -3.15684,-29.70829 4.44219,-4.18986 4.05317,3.58838 4.629,6.54012 3.08558,15.42597 2.64788,31.24262 2.8131,46.88374 -0.17108,6.62339 -1.85993,16.57323 6.05755,19.50034 3.08134,0.38942 8.63225,2.1668 10.15655,-1.32905 -2.34493,-3.61701 -9.01805,-0.26502 -10.912,-5.10471 -3.27938,-7.20682 -2.28848,-15.69871 -1.16751,-23.31972 2.66349,-10.11761 3.31338,-20.63436 1.07899,-30.89739 -1.6193,-7.43929 -1.2846,-16.49759 5.78785,-21.17252 8.4773,-6.49264 20.68488,-2.79873 27.47767,4.35772 8.403,6.99641 17.77101,13.09872 28.65352,15.48882 7.60516,2.66402 17.39732,5.17481 20.35648,13.50686 -0.0412,6.55421 -8.55397,7.92675 -13.62906,9.14297 -9.68624,2.48255 -12.19694,14.18311 -11.49242,22.73911 -0.17548,5.13678 4.8049,5.83672 3.7732,0.11279 -0.26749,-11.52395 10.70936,-18.50826 19.45098,-23.95629 5.09225,-2.51934 8.0518,-9.99979 2.61635,-13.79829 -8.4301,-6.79724 -18.23554,-11.41212 -28.03731,-15.89393 -9.29724,-4.65206 -16.68661,-11.90194 -24.02752,-19.00779 -8.45358,-6.9037 -20.95533,-6.07515 -30.71485,-2.66925 -5.52578,2.09083 -7.15458,8.09175 -10.78568,11.96238 -6.57644,1.86122 -13.85709,0.858 -20.71542,1.29475 -14.57959,-0.44741 -29.38945,1.16599 -43.7899,-1.56241 -9.88427,-1.4062 -15.39363,-10.84749 -24.20659,-14.17576 -10.58453,-1.76229 -20.27261,4.74509 -29.96861,7.93533 -16.25399,6.73391 -34.17768,7.64272 -50.74391,13.24255 -5.768867,1.90098 -6.056239,8.70015 -3.48189,13.23406 3.54452,7.38256 3.4266,15.85878 0.33612,23.36216 -1.84866,5.92943 -0.60509,15.55754 7.27074,15.93905 7.24559,0.18137 17.17464,-1.49363 21.04168,6.39088 1.98805,3.02575 1.89426,7.53299 4.76357,9.83585 2.43324,-4.88018 -0.43329,-11.10159 -2.78623,-15.68423 -5.57526,-7.11636 -15.42021,-3.16536 -22.99117,-3.51451 -6.11307,-0.73693 -4.12014,-7.98538 -1.90466,-11.54763 4.51115,-7.8758 5.92061,-18.62799 -0.89985,-25.69879 -3.65212,-2.96199 -2.28401,-8.17485 2.6331,-8.35437 22.4188,-5.63015 44.88298,-11.20308 67.43646,-16.22345 7.67972,-1.62351 16.81318,1.47013 19.17249,9.49176 5.17716,12.24994 -2.33644,24.56117 -9.25784,34.39993 -10.38591,14.66709 -19.20762,30.87631 -32.7971,42.9795 -3.97964,3.70214 -9.70975,3.28024 -14.11111,0.62036 -4.25766,-0.10917 -2.19706,6.25889 -2.93811,8.92089 -0.50645,11.35851 8.30779,20.12944 11.94253,30.35806 6.13425,13.46561 9.30289,28.5467 19.50296,39.87995 7.8387,10.01895 14.8738,20.65198 21.93869,31.18298 2.15868,7.09041 -0.30723,14.74752 0.0216,22.07321 -0.51403,10.7381 -0.88274,21.48174 -1.30318,32.22362 z M 163.08807,463.17241 c 2.86117,-0.42854 5.00108,3.71079 6.86521,5.68758 3.0725,3.36908 -2.03045,7.82213 -3.00037,2.37599 0.33983,-3.62947 -4.58825,-4.83768 -3.86484,-8.06357 z m 114.05806,54.67271 c 2.12723,-3.21065 6.65091,-3.82147 6.96686,0.93355 1.49805,5.088 -6.2756,4.57278 -8.51833,7.75908 -3.98538,5.53418 -4.20775,-2.26005 -1.77105,-4.84789 0.70107,-1.5758 1.85648,-2.91106 3.32252,-3.84474 z m -59.7703,32.43153 c -2.26769,0.99254 -7.96729,-0.93293 -5.03327,-3.72152 2.19505,0.11991 3.23375,3.41378 5.03327,3.72152 z m 9.43737,-0.35446 c 1.32091,-2.71679 9.04317,-2.28722 4.40425,0.62034 -1.05668,-0.31259 -4.2503,0.58399 -4.40425,-0.62034 z m 19.32427,12.67144 c 3.73323,-0.56649 3.43979,-5.70562 5.30298,-7.35476 3.44089,2.00106 0.4251,8.35074 -3.24508,9.08719 -1.5449,1.25786 -5.17722,-0.93231 -2.0579,-1.73243 z m -39.54726,0.88609 c -3.39319,-1.69493 2.24741,-4.25798 1.70763,-7.00021 0.61047,-5.38044 3.63299,0.90479 1.32656,3.15619 -0.44408,1.22151 -1.31358,4.45101 -3.03419,3.84402 z m 50.69246,40.05201 c -2.5161,2.66035 -6.17061,0.25953 -5.57252,-3.10138 1.16338,-2.59761 -4.48694,-5.81175 -0.44952,-6.64568 3.2602,1.49501 5.92691,4.30245 9.88689,3.45578 2.65832,1.02633 -0.28703,3.34221 -1.34815,4.34184"
         id="path5328"
         inkscape:connector-curvature="0" />
      <path
         style="fill:#006c34;fill-opacity:1;fill-rule:evenodd;stroke:#000000;stroke-width:4.25993299;stroke-linecap:butt;stroke-linejoin:miter;stroke-miterlimit:10;stroke-dasharray:none;stroke-opacity:1"
         d="m 273.62897,616.64124 c 15.80523,0.33004 24.7906,-16.12099 13.92663,-28.1881 -8.09926,-13.31861 -25.72551,-13.537 -39.63947,-15.48721 -18.922,-1.14772 -38.97078,-2.16802 -56.76936,5.2845 -10.56677,4.82335 -21.67997,22.2465 -10.41148,31.17159 8.92172,2.09906 13.15246,3.21027 15.04631,13.68067 2.52964,13.9855 8.75296,28.58055 20.31307,37.83893 11.44688,6.35674 12.82745,-18.56604 20.69372,-2.87206 9.65736,14.20752 24.93411,4.38109 27.89508,-9.87187 2.23449,-10.75596 6.28425,-20.95713 8.9455,-31.55645 z"
         id="path5330"
         inkscape:connector-curvature="0"
         sodipodi:nodetypes="cccccsccsc" />
      <path
         style="fill:#000000;fill-opacity:1;fill-rule:evenodd;stroke:#000000;stroke-width:0.11501963;stroke-linecap:butt;stroke-linejoin:miter;stroke-miterlimit:10;stroke-dasharray:none;stroke-opacity:1"
         d="m 191.1066,614.22378 c 23.65832,-6.80153 50.21686,-11.39104 73.93285,-2.37841 6.00072,2.14573 12.67943,10.8004 11.69327,-0.71487 2.73142,-10.26401 2.68279,-20.9716 -11.05973,-21.58744 -24.66302,-6.10939 -52.40803,-6.67081 -75.21608,5.60472 -3.26465,4.55098 0.48302,13.34614 0.64969,19.076 z"
         id="path5332"
         inkscape:connector-curvature="0"
         sodipodi:nodetypes="cccccc" />
      <path
         style="fill:none;stroke:#000000;stroke-width:4.25993299;stroke-linecap:butt;stroke-linejoin:miter;stroke-miterlimit:10;stroke-dasharray:none;stroke-opacity:1"
         d="m 178.50067,607.09471 c 3.03462,-4.97412 8.85637,-7.39694 13.62903,-10.40249"
         id="path5334"
         inkscape:connector-curvature="0" />
      <path
         style="fill:none;stroke:#000000;stroke-width:4.25993299;stroke-linecap:butt;stroke-linejoin:miter;stroke-miterlimit:10;stroke-dasharray:none;stroke-opacity:1"
         d="M 290.47755,606.167 C 280.46613,584.74123 224.43354,587.77381 224.56729,588.05381"
         id="path5336"
         inkscape:connector-curvature="0"
         sodipodi:nodetypes="cc" />
      <path
         style="fill:#ffffff;fill-opacity:1;fill-rule:evenodd;stroke:#000000;stroke-width:4.25993299;stroke-linecap:butt;stroke-linejoin:miter;stroke-miterlimit:10;stroke-dasharray:none;stroke-opacity:1"
         d="m 325.19631,652.17215 c -18.20959,-15.29555 -35.70748,-32.23639 -46.01642,-53.89069 -11.89113,0.32791 -6.98751,11.96669 -7.3712,20.28734 0.43997,17.98397 -0.60878,35.98611 -2.88724,53.83042 20.34943,2.03806 43.05925,-4.05131 56.27486,-20.22707 z"
         id="path5338"
         inkscape:connector-curvature="0" />
      <path
         style="fill:#000000;fill-opacity:1;fill-rule:evenodd;stroke:#000000;stroke-width:4.25993299;stroke-linecap:butt;stroke-linejoin:miter;stroke-miterlimit:10;stroke-dasharray:none;stroke-opacity:1"
         d="m 270.38693,658.67371 c 15.26839,-3.17086 29.78171,-7.70518 43.27648,-15.53825 -9.247,-4.68855 -14.80586,-21.05158 -23.42454,-20.86282 -7.85347,5.89427 -22.96674,2.2738 -18.66222,15.69873 -0.17517,6.91155 -0.72501,13.8059 -1.18972,20.70234 z"
         id="path5340"
         inkscape:connector-curvature="0"
         sodipodi:nodetypes="ccccc" />
      <path
         id="path5342"
         d="m 205.30822,326.82792 c 0.12398,0.20057 0.40374,1.32951 0.62176,2.50878 0.50011,2.70543 -0.0586,6.03502 -1.57304,9.37522 -1.53175,3.37824 -6.93617,11.35471 -8.85299,13.06633 -1.00118,0.89396 -1.06682,2.22646 -0.14839,3.01178 0.37253,0.31858 1.7601,1.22551 3.08355,2.01549 4.6247,2.76047 6.47034,6.27976 5.52149,10.52847 -0.91325,4.08937 -1.88776,5.11598 -14.1205,14.87559 -11.8864,9.48329 -21.13301,17.4243 -27.41219,23.5417 -7.65181,7.45465 -10.7227,16.74316 -8.98775,27.18524 0.71441,4.29991 1.75705,7.23431 2.95597,8.3193 0.8949,0.80988 0.89691,1.02675 -0.0437,-4.67698 -0.85174,-5.16461 -0.99452,-11.46564 -0.33062,-14.59206 0.66387,-3.12623 2.50635,-6.40955 4.99147,-8.89468 2.37374,-2.37374 3.88587,-3.20125 5.23214,-2.86336 1.41141,0.35424 1.72624,1.8246 1.72976,8.08023 0.004,6.55724 0.47119,12.77357 1.33184,17.70886 1.828,10.48261 7.46273,24.25122 13.93099,34.04078 l 2.68523,4.06402 0.25956,7.74099 c 0.18485,5.5128 0.43121,8.18663 0.85588,9.28918 0.32799,0.85152 2.43683,5.29291 4.68636,9.86977 2.24949,4.57685 4.64625,10.01974 5.32611,12.09529 0.67985,2.07555 1.37596,3.77373 1.54692,3.77373 0.80618,0 3.25435,-2.72389 5.00141,-5.5647 5.08335,-8.26565 9.2343,-11.46547 14.87357,-11.46547 3.27432,0 5.5316,0.9134 8.71736,3.52745 8.59327,7.05113 15.21631,11.27148 22.03941,14.04395 1.3621,0.55347 2.81904,1.31127 3.23763,1.68398 1.08951,0.97013 1.81824,2.85392 1.40371,3.62852 -0.27957,0.52234 0.24067,0.9842 2.84137,2.52246 l 3.18356,1.88306 -0.12885,-3.6782 c -0.16264,-4.6429 0.6026,-6.87409 3.86818,-11.27838 6.14215,-8.28394 8.67652,-13.74667 11.9167,-25.68605 1.20144,-4.42714 2.7698,-7.87657 8.03503,-17.67212 8.10424,-15.07723 9.20539,-19.65298 9.719,-40.38561 l 0.26324,-10.62648 1.004,-1.00372 c 1.42048,-1.42009 3.78968,-1.86539 7.02313,-1.32 2.33206,0.39332 2.87028,0.66015 4.6941,2.32704 2.3752,2.17078 3.83655,5.0497 4.75212,9.3619 0.76241,3.59072 0.50993,14.55449 -0.43458,18.87233 -2.30627,10.54307 -7.64566,21.55929 -16.97746,35.02797 -2.61437,3.77331 -3.5818,5.45551 -3.18604,5.53993 2.9057,0.61984 12.07478,-10.6125 17.86632,-21.88667 4.57167,-8.89947 6.82163,-17.6704 6.77112,-26.39585 -0.0207,-3.56498 -0.32701,-5.9077 -1.57676,-12.05734 -0.85306,-4.19795 -1.5511,-7.81477 -1.5511,-8.03737 0,-0.22262 1.51854,-1.2325 3.37457,-2.24421 3.56124,-1.94124 6.30166,-4.12409 6.30166,-5.01949 0,-0.80842 -0.54705,-0.67834 -4.59757,1.09326 l -3.72399,1.62878 -5.61221,0.0162 c -6.15808,0.0178 -8.10261,-0.41075 -11.02228,-2.42882 -1.87905,-1.29874 -3.67736,-4.10478 -3.95441,-6.17023 l -0.20556,-1.53279 -3.2213,-0.22731 c -4.69653,-0.33143 -6.87214,-1.62421 -8.59389,-5.10666 -1.25718,-2.54283 -1.36969,-4.07195 -1.29526,-17.61075 0.11449,-20.82523 -0.5322,-31.21812 -2.81319,-45.21286 -1.02843,-6.30976 -1.50307,-7.22946 -3.23058,-6.25983 -2.37436,1.33269 -2.25217,7.99582 0.30871,16.83177 1.53693,5.30293 1.68381,6.18567 1.69589,10.19283 0.0125,4.15111 -0.0359,4.427 -0.90051,5.12841 -0.50254,0.40772 -1.2079,0.74132 -1.56747,0.74132 -1.29154,0 -3.74351,-2.03813 -5.4533,-4.53293 -2.34598,-3.42307 -6.69735,-7.35677 -10.5613,-9.54758 -6.01564,-3.41077 -11.72125,-4.73242 -24.43861,-5.6608 -11.3666,-0.82979 -17.36172,0.46876 -22.2635,4.82225 -4.573,4.06147 -8.7452,2.7683 -4.56812,-1.41586 0.91305,-0.9146 2.17057,-2.70792 2.7945,-3.98518 1.01775,-2.08341 1.13641,-2.72045 1.15379,-6.19279 0.0213,-4.26289 -0.38848,-5.49076 -2.61572,-7.83775 -1.10274,-1.16204 -2.15865,-1.73844 -1.63633,-0.89327 z"
         style="fill:#ffffff;stroke:none"
         inkscape:connector-curvature="0" />
      <path
         id="path5344"
         d="m 280.26019,515.62346 c -1.28164,0.24235 -5.86059,4.95468 -6.91487,7.11627 -1.03238,2.11672 -1.17067,4.89822 -0.26091,5.24735 0.39205,0.15044 1.18561,-0.32254 2.22553,-1.32646 0.88898,-0.85815 2.94971,-2.16911 4.57946,-2.91327 3.61047,-1.64857 4.3946,-2.64246 4.02566,-5.10263 -0.18028,-1.20242 -0.56466,-1.97161 -1.25741,-2.51653 -0.54872,-0.43164 -1.10483,-0.76107 -1.23581,-0.73208 -0.13094,0.029 -0.65369,0.13129 -1.16165,0.22735 z"
         style="fill:#ffffff;stroke:none"
         inkscape:connector-curvature="0" />
      <path
         id="path5346"
         d="m 255.19166,547.4418 c -1.75825,1.07208 -1.95336,2.50153 -0.73621,5.39338 1.95495,4.6447 0.81985,9.76214 -2.68744,12.11633 -2.10257,1.41128 -5.70844,2.08025 -7.96815,1.47826 -2.47645,-0.65973 -5.1534,-3.53096 -5.99679,-6.43201 -0.62949,-2.16532 -0.62252,-6.39549 0.0131,-7.93812 0.2236,-0.54268 -0.21346,-0.4917 -3.03358,0.35388 l -3.2948,0.98791 -0.26656,2.13338 c -0.54403,4.35433 0.83429,13.36848 2.17042,14.19425 0.20595,0.12729 3.64117,0.40119 7.63374,0.60864 3.99253,0.20745 9.25497,0.63318 11.69423,0.94605 2.43923,0.31287 4.63616,0.56886 4.88201,0.56886 0.24586,0 0.90988,-1.03135 1.47559,-2.29188 2.35411,-5.24567 3.79529,-14.02685 2.95663,-18.01493 -0.88274,-4.19762 -3.80953,-5.95318 -6.84218,-4.10401 l 4e-5,10e-6 z"
         style="fill:#ffffff;stroke:none"
         inkscape:connector-curvature="0" />
      <path
         id="path5348"
         d="m 250.55771,557.04797 c -1.6342,4.01884 -2.09046,4.6612 -3.92255,5.52239 -1.69361,0.79611 -1.76069,0.8832 -1.06919,1.38884 1.01748,0.74398 1.9827,0.67631 3.64016,-0.25525 2.61398,-1.46913 4.25998,-5.24521 3.1723,-7.27752 -0.6422,-1.19999 -1.15058,-1.02644 -1.82068,0.62154 z"
         style="fill:#ffffff;stroke:none"
         inkscape:connector-curvature="0" />
      <path
         id="path5350"
         d="m 199.71571,546.68814 c -0.71163,0.76179 -1.35858,2.19173 -1.9008,4.2012 -2.2954,8.50689 -1.86318,16.39548 1.12434,20.51961 1.07085,1.47829 1.19505,1.53964 2.40137,1.18615 1.80315,-0.5284 10.32106,-1.90347 11.79157,-1.90356 0.67665,-4e-5 1.49162,-0.26145 1.81109,-0.58091 1.03021,-1.0302 1.87862,-4.91129 2.15749,-9.8695 0.14967,-2.66097 0.34746,-5.08859 0.43949,-5.39472 0.11468,-0.38132 -0.25924,-0.6384 -1.18727,-0.81631 -0.74507,-0.14285 -1.7901,-0.37929 -2.3223,-0.52546 -0.96244,-0.26433 -0.9677,-0.25169 -0.98051,2.36451 -0.0183,3.72872 -1.04104,6.43041 -3.28318,8.67255 -2.34215,2.34214 -4.46543,2.80681 -7.06815,1.54685 -2.49964,-1.21006 -3.58628,-3.31868 -3.512,-6.81504 0.0797,-3.75196 0.924,-5.82649 3.24394,-7.97093 2.27913,-2.10669 2.41565,-3.04133 0.67625,-4.63 -1.56314,-1.42769 -2.04517,-1.42549 -3.39133,0.0155 v 10e-6 z"
         style="fill:#ffffff;stroke:none"
         inkscape:connector-curvature="0" />
      <path
         id="path5352"
         d="m 163.32722,464.20841 c 0,0.4013 0.78269,1.68035 1.73929,2.84233 0.95662,1.162 1.8487,2.706 1.98242,3.43115 0.30082,1.6314 1.15964,3.06017 1.83945,3.06017 0.80398,0 1.79278,-1.31902 1.79278,-2.39146 0,-1.09873 -1.48554,-3.30149 -3.98747,-5.91263 -1.78715,-1.86522 -3.36647,-2.3482 -3.36647,-1.02956 z"
         style="fill:#ffffff;stroke:none"
         inkscape:connector-curvature="0" />
      <path
         id="path5354"
         d="m 208.4266,556.5537 c -0.21485,0.97843 -0.97159,2.63405 -1.68163,3.67915 -1.14478,1.68499 -1.19853,1.99276 -0.47397,2.71731 0.7171,0.71709 0.90562,0.719 1.5404,0.0156 1.38688,-1.53685 2.70495,-5.35322 2.34466,-6.7887 -0.48365,-1.92703 -1.26081,-1.75781 -1.72946,0.37664 z"
         style="fill:#ffffff;stroke:none"
         inkscape:connector-curvature="0" />
    </g>
    <text
       xml:space="preserve"
       style="font-style:normal;font-variant:normal;font-weight:bold;font-stretch:normal;line-height:0%;font-family:Titillium;-inkscape-font-specification:'Titillium, Bold';text-align:center;letter-spacing:0px;word-spacing:0px;text-anchor:middle;fill:#ffffff;fill-opacity:1;stroke:none;stroke-width:1px;stroke-linecap:butt;stroke-linejoin:miter;stroke-opacity:1;font-size:40px;writing-mode:lr;font-variant-ligatures:normal;font-variant-caps:normal;font-variant-numeric:normal;font-feature-settings:normal;"
       x="941.19"
       y="594.2323"
       id="title"><tspan
         sodipodi:role="line"
         id="tspan5627"
         x="941.19"
         y="594.2323"
         style="font-style:normal;font-variant:normal;font-weight:bold;font-stretch:normal;font-size:40px;line-height:1.25;font-family:Titillium;-inkscape-font-specification:'Titillium, Bold';font-variant-ligatures:normal;font-variant-caps:normal;font-variant-numeric:normal;font-feature-settings:normal;text-align:center;writing-mode:lr;text-anchor:middle;">$title</tspan></text>
    <text
       xml:space="preserve"
       style="font-style:normal;font-weight:normal;line-height:0%;font-family:sans-serif;text-align:center;letter-spacing:0px;word-spacing:0px;text-anchor:middle;fill:#000000;fill-opacity:1;stroke:none;stroke-width:1px;stroke-linecap:butt;stroke-linejoin:miter;stroke-opacity:1"
       x="939.93469"
       y="680.10602"
       id="persons"><tspan
         sodipodi:role="line"
         id="tspan5631"
         x="939.93469"
         y="680.10602"
         style="font-style:normal;font-variant:normal;font-weight:bold;font-stretch:normal;font-size:40px;line-height:1.25;font-family:Titillium;-inkscape-font-specification:'Titillium, Bold';font-variant-ligatures:normal;font-variant-caps:normal;font-variant-numeric:normal;font-feature-settings:normal;text-align:center;writing-mode:lr-tb;text-anchor:middle;fill:#ffffff;fill-opacity:1">$persons</tspan></text>
    <text
       xml:space="preserve"
       style="font-style:normal;font-weight:normal;line-height:0%;font-family:sans-serif;letter-spacing:0px;word-spacing:0px;fill:#ffffff;fill-opacity:1;stroke:none;stroke-width:1px;stroke-linecap:butt;stroke-linejoin:miter;stroke-opacity:1"
       x="1226.8386"
       y="359.8801"
       id="text5633"><tspan
         sodipodi:role="line"
         id="tspan5635"
         x="1226.8386"
         y="359.8801"
         style="font-style:normal;font-variant:normal;font-weight:bold;font-stretch:normal;font-size:56.25px;line-height:1.25;font-family:Titillium;-inkscape-font-specification:'Titillium, Bold';fill:#ffffff;fill-opacity:1;text-anchor:start;text-align:start;writing-mode:lr;font-variant-ligatures:normal;font-variant-caps:normal;font-variant-numeric:normal;font-feature-settings:normal">'19</tspan></text>
  </g>
</svg>
