<?xml version="1.0" encoding="UTF-8" standalone="no"?>
<!-- Created with Inkscape (http://www.inkscape.org/) -->

<svg
   xmlns:dc="http://purl.org/dc/elements/1.1/"
   xmlns:cc="http://creativecommons.org/ns#"
   xmlns:rdf="http://www.w3.org/1999/02/22-rdf-syntax-ns#"
   xmlns:svg="http://www.w3.org/2000/svg"
   xmlns="http://www.w3.org/2000/svg"
   version="1.0"
   width="177.16534"
   height="212.59842"
   id="svg2396">
  <defs
     id="defs2398" />
  <metadata
     id="metadata2402">
    <rdf:RDF>
      <cc:Work
         rdf:about="">
        <dc:format>image/svg+xml</dc:format>
        <dc:type
           rdf:resource="http://purl.org/dc/dcmitype/StillImage" />
        <dc:title></dc:title>
      </cc:Work>
    </rdf:RDF>
  </metadata>
  <g
     transform="translate(-23.986061,-502.56215)"
     id="layer1">
    <path
       d="m 59.5,98.625 c -2.663713,0.15413 -5.103964,1.56121 -7.65625,3.8125 l 3.0625,3.46875 c 2.171458,-1.91538 3.680985,-2.58716 4.875,-2.65625 1.194015,-0.0691 2.506309,0.39457 4.5,1.875 2.363421,1.75497 4.458875,2.82719 6.75,2.65625 0.276011,-0.0206 0.549848,-0.0762 0.8125,-0.125 l 1.09375,-5.4375 c -1.048292,0.61148 -1.785332,0.93408 -2.25,0.96875 -0.700583,0.0523 -1.610834,-0.23116 -3.65625,-1.75 L 67,101.40625 C 64.596698,99.62836 62.150258,98.47165 59.5,98.625 z"
       transform="translate(23.986061,502.56215)"
       id="path3212"
       style="font-size:medium;font-style:normal;font-variant:normal;font-weight:normal;font-stretch:normal;text-indent:0;text-align:start;text-decoration:none;line-height:normal;letter-spacing:normal;word-spacing:normal;text-transform:none;direction:ltr;block-progression:tb;writing-mode:lr-tb;text-anchor:start;baseline-shift:baseline;color:#000000;fill:#000000;fill-opacity:1;stroke:none;stroke-width:4.6062994;marker:none;visibility:visible;display:inline;overflow:visible;enable-background:accumulate;font-family:Sans;-inkscape-font-specification:Sans" />
    <path
       d="m 90.34375,615.46875 c -7.277298,0 -11.680971,5.74098 -11.90625,11.34375 -0.112639,2.80138 0.734934,5.67006 2.71875,7.84375 1.972321,2.1611 5.049388,3.48275 8.78125,3.375 0.02175,-6.3e-4 0.04071,7.3e-4 0.0625,0 l 40.0625,0 c 0.0108,2.4e-4 0.0204,-1.7e-4 0.0312,0 1.53376,0.0238 2.93299,-0.65303 3.84375,-1.46875 0.91718,-0.82147 1.48625,-1.72817 2.03125,-2.5 1.09,-1.54366 1.76996,-2.47428 3.34375,-2.75 5.08632,-0.89109 8.05854,-4.79975 7.625,-8.625 -0.43354,-3.82525 -4.02757,-7.08859 -9.03125,-7.21875 l -0.0312,0 -0.0312,0 -47.5,0 z m 0,4.59375 47.4375,0 0.0625,0 c 3.16717,0.10593 4.34291,1.73895 4.5,3.125 0.15826,1.39635 -0.459,3.00077 -3.84375,3.59375 -3.33413,0.58411 -5.15016,3.02316 -6.28125,4.625 -0.56554,0.80092 -1.02145,1.43008 -1.34375,1.71875 -0.3223,0.28867 -0.36302,0.32032 -0.71875,0.3125 l -0.0312,0 -0.0312,0 -40.15625,0 -0.0625,0 -0.03125,0 c -2.666187,0.0888 -4.257659,-0.7192 -5.3125,-1.875 -1.054841,-1.1558 -1.570161,-2.81758 -1.5,-4.5625 0.140321,-3.48984 2.341748,-6.9375 7.3125,-6.9375 z"
       id="path3183"
       style="font-size:medium;font-style:normal;font-variant:normal;font-weight:normal;font-stretch:normal;text-indent:0;text-align:start;text-decoration:none;line-height:normal;letter-spacing:normal;word-spacing:normal;text-transform:none;direction:ltr;block-progression:tb;writing-mode:lr-tb;text-anchor:start;baseline-shift:baseline;color:#000000;fill:#000000;fill-opacity:1;stroke:none;stroke-width:4.6062994;marker:none;visibility:visible;display:inline;overflow:visible;enable-background:accumulate;font-family:Sans;-inkscape-font-specification:Sans" />
    <path
       d="m 99.173561,602.62465 -0.375,1.875 -2.5625,12.8125 -0.410511,1.89671 c 9.36593,0.3922 16.81987,0.23923 25.44176,-0.17796 l -2,-3.3125 -7.25,-11.96875 -0.65625,-1.125 -1.3125,0 -9,0 z m 3.749999,4.625 5.84375,0 5.05966,8.19501 -12.56392,0 z"
       id="path3185"
       style="font-size:medium;font-style:normal;font-variant:normal;font-weight:normal;font-stretch:normal;text-indent:0;text-align:start;text-decoration:none;line-height:normal;letter-spacing:normal;word-spacing:normal;text-transform:none;direction:ltr;block-progression:tb;writing-mode:lr-tb;text-anchor:start;baseline-shift:baseline;color:#000000;fill:#000000;fill-opacity:1;stroke:none;stroke-width:4.6062994;marker:none;visibility:visible;display:inline;overflow:visible;enable-background:accumulate;font-family:Sans;-inkscape-font-specification:Sans" />
    <path
       d="m 99.21875,590.65625 -0.625,4.5625 c 1.48173,0.20174 2.54284,0.24929 2.75,0.34375 0.10358,0.0472 0.0398,-0.0391 0.125,0.125 0.082,0.1579 0.25169,0.66727 0.28125,1.53125 0.001,0.0342 -7.7e-4,0.027 0,0.0625 l 0,6.78125 4.59375,0 0,-6.84375 0,-0.0312 c -0.0302,-1.39112 -0.24894,-2.56821 -0.78125,-3.59375 -0.53231,-1.02554 -1.42882,-1.8158 -2.3125,-2.21875 -1.76736,-0.8059 -3.24282,-0.6114 -4.03125,-0.71875 z"
       id="path3252"
       style="font-size:medium;font-style:normal;font-variant:normal;font-weight:normal;font-stretch:normal;text-indent:0;text-align:start;text-decoration:none;line-height:normal;letter-spacing:normal;word-spacing:normal;text-transform:none;direction:ltr;block-progression:tb;writing-mode:lr-tb;text-anchor:start;baseline-shift:baseline;color:#000000;fill:#000000;fill-opacity:1;stroke:none;stroke-width:4.6062994;marker:none;visibility:visible;display:inline;overflow:visible;enable-background:accumulate;font-family:Sans;-inkscape-font-specification:Sans" />
    <path
       d="m 71.53125,165.34375 c -8.89e-4,9.00446 -0.02865,17.99455 -0.03125,25.75 l 0.34375,0.125 c 1.676547,0.60965 4.79135,0.90625 7.3125,0.90625 3.65393,0 6.41048,-0.76351 8.28125,-2.4375 1.87077,-1.67399 2.75,-4.21688 2.75,-7.53125 0,-3.22477 -0.82716,-5.6707 -2.34375,-7.3125 -1.51659,-1.6418 -3.67325,-2.4375 -6.125,-2.4375 -2.5858,0 -4.241323,0.47739 -4.84375,0.8125 -0.602423,0.3351 -0.713661,0.51581 -0.875,0.625 l 0,-8.5 c -1.578239,-0.002 -2.99324,0.004 -4.46875,0 z m 22.46875,0 0,22.3125 c 0,1.19154 0.36108,2.30205 1.125,3.125 0.76392,0.82295 1.91042,1.34375 3.3125,1.34375 2.00556,0 3.36629,-0.24782 4,-0.40625 l 0.5,-0.125 c -0.22513,-1.24619 -0.42005,-2.57039 -0.5625,-3.65625 l -0.53125,0.0937 c -0.61652,0.10874 -1.28412,0.1875 -2.09375,0.1875 -0.63622,0 -0.93536,-0.1335 -1.0625,-0.25 -0.12714,-0.1165 -0.1875,-0.31631 -0.1875,-0.75 l 0,-21.875 z m 32.09,0.005 c -4e-4,8.94104 0.004,18.08291 0.004,25.74533 l 0.34375,0.125 c 1.67654,0.60965 4.79135,0.90625 7.3125,0.90625 3.65393,0 6.44173,-0.76351 8.3125,-2.4375 1.87077,-1.67399 2.75,-4.21688 2.75,-7.53125 0,-3.22477 -0.85841,-5.6707 -2.375,-7.3125 -1.51659,-1.6418 -3.67325,-2.4375 -6.125,-2.4375 -2.56218,0 -4.21754,0.46547 -4.83612,0.82823 -0.61858,0.36277 -0.72249,0.53008 -0.88258,0.64047 0,-2.84375 0,-5.6875 0,-8.53125 -1.5452,5e-4 -3.16946,0.004 -4.5038,0.005 z M 38.84375,172.375 c -2.13223,0 -3.95601,0.54721 -5.28125,1.5625 -1.32524,1.01529 -2.125,2.50941 -2.125,4.25 0,1.84213 0.783439,3.15976 1.90625,4 1.122811,0.84024 2.530775,1.25572 3.90625,1.59375 1.375475,0.33803 2.72559,0.5855 3.65625,0.96875 0.46533,0.19163 0.812727,0.41531 1.03125,0.65625 0.218523,0.24094 0.34375,0.48452 0.34375,0.875 0,0.7636 -0.289545,1.19994 -0.84375,1.53125 -0.554205,0.33131 -1.415948,0.5 -2.5,0.5 -2.410515,0 -3.969325,-0.99091 -5.0625,-2 l -0.40625,-0.375 c -0.826907,1.05404 -1.728643,2.14531 -2.4375,3.0625 0,0 0.209369,0.20731 0.3125,0.3125 1.914602,1.95288 4.531456,2.8125 7.625,2.8125 2.409347,0 4.362125,-0.60268 5.71875,-1.65625 1.356625,-1.05357 2.09375,-2.58334 2.09375,-4.25 0,-1.8752 -0.778323,-3.18152 -1.90625,-4 -1.127927,-0.81848 -2.564187,-1.19214 -3.9375,-1.5 -1.373313,-0.30786 -2.704248,-0.54253 -3.625,-0.9375 -0.460376,-0.19749 -0.809681,-0.4518 -1.03125,-0.71875 -0.221569,-0.26695 -0.34375,-0.5701 -0.34375,-1.03125 0,-0.56067 0.192953,-0.94846 0.625,-1.28125 0.432047,-0.33279 1.137424,-0.59375 2.15625,-0.59375 1.554442,0 2.803217,0.32662 4.53125,1.4375 l 0.4375,0.28125 c 0.744807,-1.14146 1.564729,-2.29175 2.25,-3.25 0,0 -0.331467,-0.21138 -0.5,-0.3125 -1.953511,-1.17211 -3.779957,-1.9375 -6.59375,-1.9375 z M 113.5,172.4062 c -2.26958,0 -3.89381,0.4446 -5.03125,0.9375 -0.8142,0.37475 -1.40027,0.79563 -2.0625,1.3125 0.76143,1.10287 1.57822,2.25405 2.21875,3.21875 0.55331,-0.37437 1.1903,-0.72179 1.6875,-1 0.007,-0.004 0.0238,0.004 0.0312,0 0.78476,-0.36702 1.79729,-0.71875 3.09375,-0.71875 1.90868,0 2.63719,0.66061 3.03125,1.28125 0.2226,0.34344 0.36758,0.72887 0.40625,1.25 8.8e-4,0.0118 -7.8e-4,0.0194 0,0.0312 l 0,1.09375 -5.3125,0 c -2.48987,0 -4.30697,0.80101 -5.5,1.96875 -1.19303,1.16774 -1.75,2.69503 -1.75,4.125 0,2.44565 1.17928,4.11164 2.96875,5.03125 1.78947,0.91961 4.14796,1.1875 6.6875,1.1875 4.517,0 5.98053,-0.50222 7.0625,-0.90625 l 0.34875,-0.13023 c -10e-4,-4.20659 -0.003,-8.41318 -0.005,-12.61977 -0.001,-3.07272 -2.90598,-6.0625 -7.875,-6.0625 z m -63.25,0.5 c -2.62e-4,4.17646 3.83e-4,8.35479 0,12.53125 -2.13e-4,2.41155 0.904331,4.15771 2.5,5.21875 1.595669,1.06104 3.771869,1.46875 6.40625,1.46875 2.689043,0 4.490295,-0.20221 5.4375,-0.375 0.947205,-0.17278 1.486231,-0.36194 1.9375,-0.5625 l 0.28125,-0.125 c 0,-6.30687 0,-12.75188 0,-18.15625 -1.543884,0 -3.166792,0 -4.5,0 0,4.98958 0,9.97917 0,14.96875 -0.09384,0.0252 -0.182105,0.0367 -0.28125,0.0625 -0.01044,0.003 -0.02053,-0.002 -0.03125,0 -0.457458,0.0936 -1.277441,0.15625 -2.5625,0.15625 -1.455354,0 -2.672029,-0.20378 -3.46875,-0.65625 C 55.172068,186.985 54.75,186.34795 54.75,185.125 c 0,-4.07292 0,-8.14583 0,-12.21875 -1.549999,-4.4e-4 -3.192411,-2e-5 -4.5,0 z m 30.65625,3.5 c 1.92432,0 3.02158,0.58615 3.71875,1.53125 0.69717,0.9451 1,2.35613 1,3.96875 0,2.24417 -0.51014,3.74964 -1.4375,4.71875 -0.92736,0.96911 -2.34234,1.46875 -4.4375,1.46875 -2.39652,0 -3.25306,-0.1861 -3.75,-0.4375 l 0,-4.6875 c 0,-2.2248 0.19016,-3.89648 0.84375,-4.9375 0.65359,-1.04102 1.75817,-1.625 4.0625,-1.625 z m 54.59375,0 c 1.92432,0 3.05283,0.58615 3.75,1.53125 0.69717,0.9451 0.96875,2.35613 0.96875,3.96875 0,2.24417 -0.47889,3.74964 -1.40625,4.71875 -0.92736,0.96911 -2.3736,1.46875 -4.46875,1.46875 -2.44011,0 -3.25964,-0.21004 -3.75,-0.46875 l 0,-4.65625 c 0,-2.2248 0.19016,-3.89648 0.84375,-4.9375 0.65359,-1.04102 1.75817,-1.625 4.0625,-1.625 z m -24.125,7.4375 5.53125,0 0,4.15625 c -0.97223,0.15921 -2.27201,0.21875 -3.40625,0.21875 -1.63812,-0.0533 -2.8498,-0.2174 -3.5625,-0.5625 -0.7127,-0.3451 -1,-0.75349 -1,-1.75 0,-0.61173 0.16871,-1.11528 0.53125,-1.46875 0.36254,-0.35347 0.96437,-0.59375 1.90625,-0.59375 z"
       transform="translate(23.986061,502.56215)"
       id="text3254"
       style="font-size:40px;font-style:normal;font-variant:normal;font-weight:normal;font-stretch:normal;text-indent:0;text-align:start;text-decoration:none;line-height:125%;letter-spacing:normal;word-spacing:normal;text-transform:none;direction:ltr;block-progression:tb;writing-mode:lr-tb;text-anchor:start;baseline-shift:baseline;color:#000000;fill:#000000;fill-opacity:1;fill-rule:nonzero;stroke:none;stroke-width:1.0629921;marker:none;visibility:visible;display:inline;overflow:visible;enable-background:accumulate;font-family:Fonce Sans;-inkscape-font-specification:Fonce Sans" />
    <path
       d="m 97.0625,523.6875 0.125,4.59375 c 1.398375,-0.0317 1.770062,0.17765 1.78125,0.1875 0.01119,0.01 0.333793,0.42964 0.46875,2.0625 l 0,10.875 c 0.02539,2.95779 -0.709828,5.47316 -2,7.96875 l 0,0.0312 -44.28125,89.40625 -0.03125,0.0625 -0.03125,0.0937 c -1.68731,4.17848 -2.195744,8.17103 -0.21875,11.34375 1.976994,3.17272 5.93637,4.6664 11.34375,4.9375 l 0.0625,0 0.03125,0 95.15625,0 0.0625,0 0.0625,0 c 5.40738,-0.2711 9.36676,-1.76478 11.34375,-4.9375 1.97699,-3.17272 1.46856,-7.16527 -0.21875,-11.34375 l -0.0312,-0.0937 -0.0312,-0.0625 -44.28125,-89.40625 0,-0.0312 c -1.29017,-2.49559 -2.02539,-5.01096 -2,-7.96875 l 0,-10.875 c 0.13496,-1.63286 0.45756,-2.05265 0.46875,-2.0625 0.0112,-0.01 0.38288,-0.21921 1.78125,-0.1875 l 0.125,-4.59375 c -1.75938,-0.0399 -3.53966,0.0539 -4.96875,1.3125 -1.42909,1.25865 -1.82819,3.07745 -2,5.15625 l 0,0.0937 0,0.0937 -0.0312,11.03125 c -9e-5,0.0109 8e-5,0.0204 0,0.0312 -0.0263,3.74752 0.96701,7.05496 2.5,10.03125 l 0.0312,0.0312 44.15625,89.21875 c 1.42438,3.52736 1.42163,5.85889 0.59375,7.1875 -0.82077,1.3172 -2.96467,2.50081 -7.5625,2.75 l -0.0937,0 -94.9375,0 c -4.68102,-0.23469 -6.828366,-1.42139 -7.65625,-2.75 -0.827884,-1.32861 -0.83063,-3.66014 0.59375,-7.1875 l 44.15625,-89.21875 0.0312,-0.0312 c 1.533,-2.97631 2.52627,-6.2837 2.5,-10.03125 -8e-5,-0.0109 9e-5,-0.0204 0,-0.0312 l -0.0312,-11.03125 0,-0.0937 0,-0.0937 c -0.17181,-2.0788 -0.57091,-3.8976 -2,-5.15625 -1.42909,-1.25865 -3.209372,-1.35239 -4.96875,-1.3125 z"
       id="path2391"
       style="font-size:medium;font-style:normal;font-variant:normal;font-weight:normal;font-stretch:normal;text-indent:0;text-align:start;text-decoration:none;line-height:normal;letter-spacing:normal;word-spacing:normal;text-transform:none;direction:ltr;block-progression:tb;writing-mode:lr-tb;text-anchor:start;baseline-shift:baseline;color:#000000;fill:#000000;fill-opacity:1;stroke:none;stroke-width:4.6062994;marker:none;visibility:visible;display:inline;overflow:visible;enable-background:accumulate;font-family:Sans;-inkscape-font-specification:Sans" />
    <path
       d="m 99.75,98.625 c -2.23177,0.15066 -4.33305,1.12918 -6.1875,2.53125 -1.241843,0.9389 -2.009565,1.23089 -2.71875,1.28125 l 2.5,4.09375 c 1.038124,-0.3962 2.032602,-0.98734 3,-1.71875 1.29471,-0.97888 2.64389,-1.48994 3.71875,-1.5625 1.07486,-0.0726 1.84866,0.14137 2.65625,1 3.37974,3.59335 9.00809,4.21148 12.40625,1 0.58492,-0.55279 1.62655,-0.94707 2.71875,-1 1.0922,-0.0529 2.12794,0.28745 2.4375,0.53125 l 2.875,-3.59375 c -1.57994,-1.24429 -3.55301,-1.62713 -5.53125,-1.53125 -1.97824,0.0959 -4.06801,0.71946 -5.6875,2.25 -1.0107,0.95518 -4.21606,0.95129 -5.875,-0.8125 -1.71174,-1.81994 -4.08073,-2.61941 -6.3125,-2.46875 z"
       transform="translate(23.986061,502.56215)"
       id="path3018"
       style="font-size:medium;font-style:normal;font-variant:normal;font-weight:normal;font-stretch:normal;text-indent:0;text-align:start;text-decoration:none;line-height:normal;letter-spacing:normal;word-spacing:normal;text-transform:none;direction:ltr;block-progression:tb;writing-mode:lr-tb;text-anchor:start;baseline-shift:baseline;color:#000000;fill:#000000;fill-opacity:1;stroke:none;stroke-width:4.6062994;marker:none;visibility:visible;display:inline;overflow:visible;enable-background:accumulate;font-family:Sans;-inkscape-font-specification:Sans" />
  </g>
</svg>
