<?xml version="1.0" encoding="UTF-8" standalone="no"?>
<!-- Created with Inkscape (http://www.inkscape.org/) -->

<svg
   xmlns:dc="http://purl.org/dc/elements/1.1/"
   xmlns:cc="http://creativecommons.org/ns#"
   xmlns:rdf="http://www.w3.org/1999/02/22-rdf-syntax-ns#"
   xmlns:svg="http://www.w3.org/2000/svg"
   xmlns="http://www.w3.org/2000/svg"
   xmlns:xlink="http://www.w3.org/1999/xlink"
   xmlns:sodipodi="http://sodipodi.sourceforge.net/DTD/sodipodi-0.dtd"
   xmlns:inkscape="http://www.inkscape.org/namespaces/inkscape"
   width="2048"
   height="1152"
   id="svg2"
   version="1.1"
   inkscape:version="0.92.1 r15371"
   sodipodi:docname="intro.svg">
  <defs
     id="defs4">
    <linearGradient
       id="linearGradient3807">
      <stop
         style="stop-color:#ffffff;stop-opacity:0;"
         offset="0"
         id="stop3809" />
      <stop
         id="stop3815"
         offset="0.2"
         style="stop-color:#ffffff;stop-opacity:0.78431374;" />
      <stop
         style="stop-color:#ffffff;stop-opacity:0.78431374;"
         offset="1"
         id="stop3811" />
    </linearGradient>
    <linearGradient
       inkscape:collect="always"
       xlink:href="#linearGradient3807"
       id="linearGradient3813"
       x1="650"
       y1="595.07648"
       x2="1230"
       y2="595.07648"
       gradientUnits="userSpaceOnUse"
       gradientTransform="matrix(1,0,0,0.99744172,-74.949237,-22.857439)" />
    <linearGradient
       inkscape:collect="always"
       xlink:href="#linearGradient3807"
       id="linearGradient3819"
       x1="575.05078"
       y1="570.69666"
       x2="1155.0508"
       y2="570.69666"
       gradientUnits="userSpaceOnUse"
       spreadMethod="reflect" />
    <linearGradient
       inkscape:collect="always"
       xlink:href="#linearGradient3807-2"
       id="linearGradient3819-8"
       x1="575.05078"
       y1="570.69666"
       x2="1155.0508"
       y2="570.69666"
       gradientUnits="userSpaceOnUse"
       spreadMethod="reflect" />
    <linearGradient
       id="linearGradient3807-2">
      <stop
         style="stop-color:#ffffff;stop-opacity:0;"
         offset="0"
         id="stop3809-5" />
      <stop
         id="stop3815-1"
         offset="0.2"
         style="stop-color:#ffffff;stop-opacity:1;" />
      <stop
         style="stop-color:#ffffff;stop-opacity:1;"
         offset="1"
         id="stop3811-1" />
    </linearGradient>
    <linearGradient
       gradientTransform="matrix(2.3933139,0,0,1,-1291.5105,359.35582)"
       y2="570.69666"
       x2="1155.0508"
       y1="570.69666"
       x1="575.05078"
       spreadMethod="reflect"
       gradientUnits="userSpaceOnUse"
       id="linearGradient4017-1"
       xlink:href="#linearGradient3807-2-2"
       inkscape:collect="always" />
    <linearGradient
       id="linearGradient3807-2-2">
      <stop
         style="stop-color:#ffffff;stop-opacity:0;"
         offset="0"
         id="stop3809-5-5" />
      <stop
         id="stop3815-1-7"
         offset="0.2"
         style="stop-color:#ffffff;stop-opacity:1;" />
      <stop
         style="stop-color:#ffffff;stop-opacity:1;"
         offset="1"
         id="stop3811-1-0" />
    </linearGradient>
    <linearGradient
       y2="570.69666"
       x2="1155.0508"
       y1="570.69666"
       x1="575.05078"
       spreadMethod="reflect"
       gradientTransform="matrix(2.3933139,0,0,1,-842.013,2.87365)"
       gradientUnits="userSpaceOnUse"
       id="linearGradient4510"
       xlink:href="#linearGradient3807-2-2"
       inkscape:collect="always" />
    <filter
       id="filter4858"
       inkscape:label="Drop Shadow"
       width="1.2"
       style="color-interpolation-filters:sRGB">
      <feFlood
         id="feFlood4860"
         flood-opacity="0.29666666666666669"
         flood-color="rgb(255,255,255)"
         result="flood" />
      <feComposite
         id="feComposite4862"
         in2="SourceGraphic"
         in="flood"
         operator="in"
         result="composite1" />
      <feGaussianBlur
         id="feGaussianBlur4864"
         stdDeviation="2"
         result="blur" />
      <feOffset
         id="feOffset4866"
         dx="2"
         dy="2.2000000000000002"
         result="offset" />
      <feComposite
         id="feComposite4868"
         in2="offset"
         in="SourceGraphic"
         operator="over"
         result="composite2"
         dy="0" />
    </filter>
  </defs>
  <sodipodi:namedview
     id="base"
     pagecolor="#ffffff"
     bordercolor="#666666"
     borderopacity="1.0"
     inkscape:pageopacity="0.0"
     inkscape:pageshadow="2"
     inkscape:zoom="0.49497475"
     inkscape:cx="1024.1261"
     inkscape:cy="575.53219"
     inkscape:document-units="px"
     inkscape:current-layer="layer1"
     showgrid="false"
     inkscape:window-width="1918"
     inkscape:window-height="1122"
     inkscape:window-x="0"
     inkscape:window-y="26"
     inkscape:window-maximized="1"
     showguides="true"
     inkscape:guide-bbox="true"
     inkscape:snap-global="true"
     inkscape:snap-bbox="true"
     inkscape:bbox-paths="true"
     inkscape:bbox-nodes="true"
     inkscape:snap-bbox-edge-midpoints="true"
     inkscape:snap-bbox-midpoints="true"
     inkscape:object-paths="false"
     inkscape:snap-to-guides="true">
    <sodipodi:guide
       orientation="0,1"
       position="0,0"
       id="guide3017"
       inkscape:locked="false" />
    <sodipodi:guide
       orientation="0,1"
       position="0,614.4"
       id="guide3019"
       inkscape:locked="false" />
    <sodipodi:guide
       orientation="1,0"
       position="0,0"
       id="guide3021"
       inkscape:locked="false" />
    <sodipodi:guide
       orientation="1,0"
       position="1092.2667,0"
       id="guide3023"
       inkscape:locked="false" />
    <sodipodi:guide
       orientation="0,1"
       position="0,26.666667"
       id="guide3025"
       inkscape:locked="false" />
    <sodipodi:guide
       orientation="0,1"
       position="0,583.46667"
       id="guide3027"
       inkscape:locked="false" />
    <sodipodi:guide
       orientation="1,0"
       position="34.133333,0"
       id="guide3029"
       inkscape:locked="false" />
    <sodipodi:guide
       orientation="1,0"
       position="1060.2667,0"
       id="guide3031"
       inkscape:locked="false" />
  </sodipodi:namedview>
  <metadata
     id="metadata7">
    <rdf:RDF>
      <cc:Work
         rdf:about="">
        <dc:format>image/svg+xml</dc:format>
        <dc:type
           rdf:resource="http://purl.org/dc/dcmitype/StillImage" />
        <dc:title />
      </cc:Work>
    </rdf:RDF>
  </metadata>
  <g
     inkscape:label="Ebene 1"
     inkscape:groupmode="layer"
     id="layer1"
     transform="translate(0,29.480341)">
    <rect
       style="fill:#000000;fill-opacity:1;fill-rule:nonzero;stroke:none;stroke-width:1.06666672"
       id="rect3797"
       width="2048"
       height="1152"
       x="0"
       y="-29.480339"
       inkscape:label="" />
    <path
       style="fill:#3399e5;fill-opacity:1;stroke-width:1.06666672"
       d="m 752.90909,423.16354 c -9.28375,-9.28374 -4.22164,-29.55942 9.15094,-36.6531 5.25843,-2.78942 23.22301,-1.95476 26.40455,1.22678 1.02784,1.02784 -2.4647,1.36389 -8.32369,0.80091 -12.42444,-1.19383 -20.28684,1.85583 -24.89456,9.65608 -5.08473,8.60775 -4.7395,17.02561 0.94801,23.11591 4.22853,4.528 6.0066,5.03424 14.80566,4.21534 5.5,-0.51186 11.8,-1.5603 14,-2.32988 2.63474,-0.92164 2.29342,-0.35232 -1,1.66804 -2.78066,1.70582 -9.70095,3.09874 -15.59091,3.13814 -8.63396,0.0578 -11.49799,-0.8362 -15.5,-4.83822 z M 971.5,426.66118 c 5.22766,-1.0069 5.45017,-2.16412 1.43641,-7.4708 -7.01737,-9.27776 -1.55885,-17.34023 11.43211,-16.88574 3.82496,0.13382 4.93864,0.58998 2.63148,1.07787 -2.2,0.46522 -6.025,1.27797 -8.5,1.80611 -5.30334,1.13164 -6.21591,8.97016 -1.5,12.88402 1.64999,1.36938 3,4.17958 3,6.24487 0,2.95909 -1.37792,3.69739 -6.5,3.48277 -4.70052,-0.19701 -5.2542,-0.51232 -2,-1.1391 z m -120.22805,-1.98326 c -2.86991,-2.8699 12.11193,-21.07379 21.28791,-25.86614 5.30297,-2.7696 5.79632,-2.62275 10.67778,3.17855 2.81486,3.34526 6.93422,6.08231 9.15413,6.08231 2.80169,0 3.67694,0.93618 2.86163,3.06084 -0.76653,1.99756 0.54865,3.84598 3.78602,5.32102 2.72832,1.24312 4.96058,3.03402 4.96058,3.97981 0,2.04281 -15.17029,-5.40113 -16.98234,-8.33309 -0.68955,-1.11572 -6.0129,-2.02858 -11.82967,-2.02858 -11.16755,0 -19.18799,4.43764 -19.18799,10.61655 0,3.56695 -2.79332,5.92347 -4.72805,3.98873 z M 877,404.07264 c -0.67984,-1.1 -2.08295,-2 -3.11804,-2 -1.03508,0 -1.88196,0.9 -1.88196,2 0,1.1 1.40311,2 3.11804,2 1.71491,0 2.5618,-0.9 1.88196,-2 z m 43.0709,16.63588 c -2.32067,-2.95026 -3.73599,-6.62386 -3.14515,-8.16358 0.59084,-1.5397 1.07425,-3.6051 1.07425,-4.58976 0,-2.35451 9.80374,-8.74546 11.22908,-7.32012 0.60734,0.60733 -0.77074,2.97924 -3.06242,5.27091 -5.56798,5.56799 -5.25892,11.35879 0.81876,15.34103 5.6563,3.70616 12.19106,2.75316 19.01574,-2.77314 5.6573,-4.581 4.13564,-10.75424 -3.5396,-14.35993 -3.54485,-1.6653 -4.51146,-2.90739 -2.7543,-3.53926 3.42308,-1.23095 13.08132,5.84684 13.94056,10.21596 0.35628,1.81175 -2.04948,5.99136 -5.34616,9.28805 -4.88434,4.88434 -7.66168,5.99396 -15.00266,5.99396 -7.3902,0 -9.76673,-0.9637 -13.2281,-5.36412 z M 1002,422.10134 c 0,-2.18422 1.0867,-8.03423 2.4148,-13 1.9402,-7.25416 3.2839,-9.0287 6.8364,-9.0287 10.389,0 13.2709,3.89819 7.5529,10.2165 -4.0555,4.48124 -2.0983,7.72682 4.8139,7.98286 2.9601,0.1096 7.632,0.99338 10.382,1.96382 5.3913,1.90256 -12.9341,0.61216 -21.6225,-1.52256 -3.5544,-0.87332 -4.8792,-0.1544 -5.7333,3.11182 -1.4022,5.362 -4.6442,5.55486 -4.6442,0.27626 z m 14.0401,-13.07704 c 1.3915,-1.67658 1.9905,-3.58776 1.3312,-4.24707 -2.0482,-2.04811 -7.3713,1.00848 -7.3713,4.23265 0,3.91722 2.7955,3.9239 6.0401,0.014 z M 1052,424.97655 c 0,-2.80601 14.1395,-22.77483 18.0815,-25.53586 4.197,-2.93969 4.781,-2.73828 10.9125,3.763 3.5631,3.77793 7.5501,6.86895 8.8602,6.86895 1.3101,0 1.8741,0.82156 1.2535,1.82567 -0.6206,1.00413 1.3497,3.63079 4.3784,5.83701 3.0286,2.20622 4.8613,4.65658 4.0726,5.44522 -0.7886,0.78865 -3.831,-0.26298 -6.7608,-2.33698 -10.0072,-7.084 -13.7999,-8.71197 -20.3654,-8.74144 -5.4001,-0.0242 -7.3015,1.2147 -10.6975,6.97052 -2.2716,3.84999 -5.3912,7 -6.9326,7 -1.5413,0 -2.8024,-0.49324 -2.8024,-1.09609 z m 25,-18.90391 c -0.6798,-1.1 -2.5329,-2 -4.1181,-2 -1.585,0 -2.8819,0.9 -2.8819,2 0,1.1 1.8531,2 4.1181,2 2.2648,0 3.5617,-0.9 2.8819,-2 z m 30.8443,19.20186 c -0.9993,-1.02028 1.1854,-16.97512 3.4042,-24.86113 0.5316,-1.88926 2.6309,-2.26621 7.2498,-1.30183 18.0235,3.76305 25.5076,15.75262 13.658,21.88028 -6.5877,3.4066 -22.4358,6.19832 -24.312,4.28268 z m 23.1488,-9.3723 4.0069,-4.07324 -4.7216,-3.87817 c -5.4693,-4.4924 -14.2784,-5.18841 -14.2784,-1.12816 0,1.51251 -0.5906,5.70313 -1.3125,9.31251 l -1.3125,6.5625 6.8056,-1.36112 c 3.743,-0.74861 8.6086,-3.19406 10.8125,-5.43432 z m 23.4869,1.29618 c 1.0187,-9.03732 4.1709,-15.14153 6.5767,-12.73568 1.6102,1.61012 -3.1525,19.43312 -5.5965,20.9436 -1.3406,0.82849 -1.6792,-2.00648 -0.9802,-8.20792 z m 29.52,4.87426 c -2.2,-2.2 -4,-5.8409 -4,-8.0909 0,-5.07892 8.573,-13.93107 13.4091,-13.84574 2.8593,0.0504 2.4703,0.89946 -1.909,4.16682 -3.1692,2.36442 -5.5001,6.02036 -5.5001,8.62666 0,5.2504 5.7372,11.14316 10.8489,11.14316 4.678,0 14.7371,-6.03636 16.1366,-9.6834 1.2689,-3.3067 -3.8011,-9.6833 -8.6944,-10.93503 -1.81,-0.46305 -0.591,-0.50121 2.7089,-0.0848 18.3201,2.31172 9.0961,22.70322 -10.2698,22.70322 -6.0635,0 -9.952,-1.2218 -12.7302,-4 z m -350,-2.87746 c 0,-4.24535 -1.16306,-5.05186 -8.97438,-6.22324 C 813.04602,411.17548 806,413.07862 806,418.11074 c 0,2.17904 -0.9,3.9619 -2,3.9619 -4.06012,0 -2.05936,-13.70798 2.82986,-19.38847 4.91626,-5.71192 9.89167,-5.30062 5.1399,0.42491 -3.58115,4.31502 -0.81623,6.24155 11.03024,7.68564 11.82015,1.44087 15.98338,-0.47302 14.07925,-6.47238 -1.01006,-3.18243 -0.5045,-4.2497 2.01306,-4.2497 2.8648,0 3.15665,1.36848 1.97389,9.2557 -0.76339,5.09064 -1.86187,10.49064 -2.44107,12 -1.71568,4.471 -4.62513,3.12914 -4.62513,-2.13316 z m 446.3943,-18.07541 c -5.4155,-6.88489 -5.8144,-20.26843 -1.2112,-40.65205 2.2038,-9.7583 2.5739,-15.18451 1.2028,-17.63446 -1.7188,-3.07129 -2.8,-2.24656 -8.1831,6.24181 -3.4115,5.37938 -6.2028,11.40449 -6.2028,13.38913 0,1.98464 -1.0177,3.60844 -2.2617,3.60844 -3.8422,0 -0.5515,-12.19744 6.5895,-24.42503 7.3867,-12.64836 10.9864,-14.3567 12.8012,-6.07497 0.6628,3.025 1.5573,6.63961 1.9877,8.03244 0.4305,1.39285 -0.5281,9.94285 -2.1301,19 -3.7207,21.03414 -3.6997,26.28738 0.1349,33.70246 4.3509,8.41363 2.5732,11.55045 -2.727,4.81223 z M 1259,376.07264 c 0.6799,-1.1 3.883,-2 7.1181,-2 3.2351,0 5.8819,0.9 5.8819,2 0,1.1 -3.2031,2 -7.1181,2 -4.236,0 -6.6175,-0.80976 -5.8819,-2 z m 25,-3.27822 c 0,-0.86434 2.3655,-3.45773 5.2567,-5.76309 7.881,-6.2841 8.765,-20.80407 2.0293,-33.33305 -6.3667,-11.84258 -2.6908,-14.16509 5.1934,-3.28126 4.9908,6.88961 6.4331,7.65562 14.4151,7.65562 4.8782,0 9.4257,0.9 10.1055,2 1.3097,2.11907 -3.7963,2.87065 -14.4999,2.13433 -6.4227,-0.44182 -6.5001,-0.34151 -6.5001,8.4135 0,9.74642 -6.6414,21.94317 -12.5703,23.08497 -1.8863,0.36327 -3.4297,-0.0467 -3.4297,-0.91102 z m -128.3034,-13.6918 c -0.5335,-0.5335 -90.0085,-1.21849 -198.83328,-1.52219 -144.59814,-0.40354 -199.26568,-1.17614 -203.07261,-2.86997 -7.15149,-3.18191 -17.30687,-17.55368 -20.93147,-29.62198 -1.75891,-5.85638 -3.77976,-25.28398 -4.86615,-46.78109 -1.8349,-36.30842 -1.80291,-36.83523 2.57446,-42.39816 2.43785,-3.0981 6.00745,-6.18939 7.93245,-6.86953 1.925,-0.68014 3.5,-2.92285 3.5,-4.98381 0,-5.2263 3.07604,-6.68138 18,-8.5147 36.7671,-4.51659 264.1426,-6.76581 346,-3.42266 100.0753,4.0872 102.1259,4.25073 109.9053,8.76445 12.6466,7.33775 16.6487,10.86125 15.5598,13.69894 -0.5835,1.52039 -0.3726,6.52779 0.4684,11.12754 l 1.5294,8.36318 H 1223.7314 1214 v -9.39056 c 0,-7.46592 -1.1014,-10.54025 -5.3742,-15 -2.9558,-3.08519 -6.8675,-5.60944 -8.6927,-5.60944 -1.8252,0 -6.3818,-1.575 -10.1258,-3.5 -6.3386,-3.25902 -18.0302,-3.47244 -169.8073,-3.09973 -191.0455,0.46914 -247.87222,2.83863 -260.41535,10.85848 -4.07844,2.60769 -7.45344,5.80196 -7.5,7.09839 -0.0465,1.29643 -1.28465,3.55714 -2.75132,5.02381 -3.37201,3.37201 -3.67148,6.05473 -3.47722,31.14942 0.1882,24.31311 5.08587,61.78394 8.63492,66.06371 6.14516,7.41038 15.38404,8.72107 82.36631,11.68499 92.79888,4.1063 276.95016,2.65344 328.43776,-2.5912 41.9631,-4.27445 45.9657,-6.00019 43.8986,-18.92723 -0.807,-5.0469 -0.286,-8.02419 1.6914,-9.66532 1.5718,-1.30444 3.4371,-5.00953 4.1453,-8.23352 1.1177,-5.089 2.1893,-5.8618 8.1285,-5.8618 7.8502,0 7.8413,-0.0353 3.8411,15.32261 -1.65,6.33479 -3,16.27869 -3,22.09759 0,5.81888 -0.225,10.58395 -0.4999,10.58902 -0.2751,0.005 -12.6501,1.80091 -27.5001,3.99078 -27.0318,3.98626 -38.486,4.84738 -40.3034,3.02998 z M 1271,325.6462 c 8.2015,-2.88506 10.4556,-4.92291 18.2534,-16.50207 7.2309,-10.73711 9.3091,-8.07588 3.4067,4.36238 -3.9751,8.3769 -13.349,14.60912 -21.6601,14.40076 l -6,-0.15042 z m -456.33872,-1.57356 c -22.18629,-0.55001 -40.94386,-1.60757 -41.6835,-2.35017 -0.73963,-0.74259 -1.82253,-17.39259 -2.40644,-37 -1.04347,-35.03918 -0.98231,-35.74931 3.57075,-41.4576 l 4.6324,-5.80775 45.01506,1.31006 c 24.75828,0.72053 45.75545,2.05046 46.66037,2.95538 2.03622,2.03622 6.13813,67.67484 4.61146,73.79235 -2.26504,9.07615 -7.80795,9.8615 -60.4001,8.55773 z m 51.54522,-8.11884 c 6.05258,-3.22354 7.13084,-59.98032 1.28009,-67.38116 -1.47061,-1.86026 -12.90557,-2.5 -44.68537,-2.5 h -42.70901 l -3.34948,5.11196 c -2.88204,4.39855 -3.18011,8.85942 -2.13575,31.96399 0.66756,14.76862 2.16386,28.62732 3.32511,30.79715 1.70186,3.17998 4.72547,4.10297 15.58964,4.75895 19.18772,1.15856 68.8752,-0.72195 72.68477,-2.75089 z M 791,304.07264 c 1.47201,-2.38177 57.56291,-2.38177 65,0 2.94239,0.94231 -9.65762,1.68332 -30.61804,1.80064 -23.28523,0.13034 -35.19003,-0.49314 -34.38196,-1.80064 z m -9,-11.41133 c 0,-2.94176 17.07806,-4.55142 48.5,-4.57128 17.01159,-0.0108 27.5,0.7454 27.5,1.98261 0,1.1 -1.125,2.00925 -2.5,2.02054 -1.375,0.0112 -18.475,0.60085 -38,1.31009 -23.54682,0.85535 -35.5,0.60553 -35.5,-0.74196 z m 63.48592,-13.76942 c -0.64941,-0.6494 -15.20108,-1.46771 -32.33705,-1.81846 -17.13596,-0.35074 -31.13878,-1.39441 -31.11736,-2.31925 0.0453,-1.95613 70.88277,-1.56787 75.71831,0.41501 2.8207,1.15668 2.72161,1.55013 -0.74982,2.97755 -4.88094,2.007 -9.92575,2.33347 -11.51408,0.74515 z M 782,260.23931 c 0,-1.00833 0.88928,-2.13334 1.97618,-2.5 4.75079,-1.60268 74.02382,0.66255 74.02382,2.42058 0,1.14988 -15.15557,1.91275 -38,1.91275 -21.69697,0 -38,-0.78655 -38,-1.83333 z m 136.7401,62.95255 c -8.97789,-3.90705 -9.80419,-6.60059 -3.85107,-12.55371 5.16538,-5.16538 5.34719,-5.19371 12.23875,-1.90736 9.25766,4.41467 10.79304,8.85696 4.6844,13.5533 -5.70084,4.38281 -5.17136,4.34604 -13.07208,0.90777 z m 10.13949,-4.92439 c 1.25983,-2.03844 -10.88354,-6.85755 -12.70076,-5.04032 -1.45951,1.45951 5.68882,6.84549 9.08539,6.84549 1.37484,0 3.00176,-0.81233 3.61537,-1.80517 z M 952.5,323.51332 c -5.86567,-2.67467 -5.70864,-7.60797 0.42562,-13.3708 4.70516,-4.42027 5.15274,-4.47857 10,-1.30253 6.67812,4.37567 6.49378,10.40794 -0.42562,13.9276 -4.03276,2.05133 -6.70048,2.25028 -10,0.74573 z m 7.5,-6.32264 c 0,-3.18526 -3.62873,-6.15599 -5.38014,-4.40457 -1.64528,1.64528 0.92304,7.28653 3.31738,7.28653 1.13451,0 2.06276,-1.29689 2.06276,-2.88196 z m 20.07974,5.97803 c -2.87776,-3.46747 -2.07834,-9.43211 1.42026,-10.59701 1.56966,-0.52262 2.5,1.09033 2.5,4.33427 0,5.73022 4.81086,7.15029 6.78602,2.0031 1.9172,-4.99613 1.50038,-6.41377 -3.16314,-10.75852 -4.96528,-4.62586 -2.96775,-5.26096 4.96278,-1.57791 7.49724,3.48181 7.68994,13.8211 0.32024,17.17897 -6.74088,3.07134 -9.91306,2.92718 -12.82616,-0.5829 z m 112.99636,-1.59607 c -1.6734,-5.23958 -5.0694,-41.69418 -4.9224,-52.84087 0.084,-6.41253 1.2234,-15.20549 2.5307,-19.53993 3.2633,-10.81994 7.817,-11.68447 56.7865,-10.78106 44.944,0.82915 45.4427,0.9771 48.4656,14.38044 2.2738,10.08165 -2.591,9.8725 -5.0838,-0.21858 l -1.8527,-7.5 -14.2875,-1.75242 c -7.8581,-0.96381 -27.5316,-1.09033 -43.7189,-0.28114 -39.3203,1.96563 -37.5791,0.14277 -36.6772,38.39623 0.8484,35.98675 0.5328,35.57797 29.1273,37.72179 23.4517,1.75824 54.8088,-0.0335 62.1906,-3.55361 3.9138,-1.86632 5.5353,-4.31375 5.9925,-9.04476 0.3878,-4.01412 1.7217,-6.48609 3.4999,-6.48609 3.4045,0 3.6839,6.00089 0.7681,16.5 l -2.0829,7.5 h -49.9687 c -38.2158,0 -50.1566,-0.58801 -50.7671,-2.5 z m -81.7428,-0.83333 c -1.9465,-1.94656 -1.6302,-10.24712 0.4393,-11.52615 0.975,-0.60254 2.2407,0.69435 2.8128,2.88198 0.5721,2.18762 2.4744,3.9775 4.2274,3.9775 3.7442,0 4.1984,-4.18876 0.8205,-7.56667 -3.4493,-3.44938 -0.6641,-5.12571 4.1954,-2.525 5.147,2.7546 5.3733,8.38389 0.5138,12.7817 -3.7134,3.36064 -10.5816,4.40419 -13.0092,1.97664 z m 29.4499,-1.51039 c -0.6002,-1.56405 -0.062,-4.76661 1.1957,-7.1168 3.3443,-6.24885 14.7454,-4.98907 15.6961,1.73434 0.3712,2.6256 -0.5288,5.53681 -2,6.46937 -4.2715,2.70751 -13.6998,2.01937 -14.8918,-1.08691 z M 1254,318.07264 c 0,-1.1 2.475,-2.00336 5.5001,-2.00748 7.2247,-0.01 17.9285,-6.44561 25.9702,-15.61495 7.4558,-8.50138 8.6822,-6.16319 1.9821,3.77907 -6.4938,9.63605 -16.5817,15.84336 -25.7482,15.84336 -4.2373,0 -7.7042,-0.9 -7.7042,-2 z m -121.7014,-5.5 c 1.6052,-1.925 7.7107,-9.15617 13.5679,-16.06927 l 10.6493,-12.56927 46.7439,0.56927 c 29.6484,0.36107 46.5062,-0.14202 46.0938,-1.37556 -1.237,-3.70086 -10.5133,-4.65743 -47.3535,-4.88312 -20.35,-0.12466 -38.9271,-0.74375 -41.2825,-1.37573 -3.5938,-0.96429 -19.9629,-19.20604 -25.5706,-28.49586 -4.1828,-6.92924 6.7114,2.27454 14.9295,12.61284 4.9079,6.17429 10.7236,11.62615 12.9236,12.11522 2.2,0.48907 20.65,1.21803 41,1.61991 20.35,0.40188 39.25,1.47647 42,2.38796 4.4789,1.48457 4.7185,1.31402 2.2991,-1.63664 -3.6333,-4.43089 -10.0987,-5.29718 -45.3043,-6.07038 -17.3388,-0.3808 -31.8055,-1.62249 -34.2699,-2.94142 -4.744,-2.5389 -7.5345,-10.68656 -5.6709,-16.55803 2.0802,-6.5542 4.946,-4.20638 4.946,4.05204 0,4.33509 1.0121,8.50745 2.249,9.27193 1.237,0.76447 16.312,1.54616 33.5,1.7371 35.0804,0.38969 45.0049,2.93279 52.4949,13.45164 2.3059,3.23821 4.6947,5.38551 5.3084,4.77175 0.6138,-0.61376 -1.5668,-4.49058 -4.8456,-8.61516 -8.2622,-10.39313 -9.4875,-12.6733 -6.1148,-11.37908 3.5446,1.3602 9.5559,9.46274 15.5364,20.94123 3.3954,6.51693 4.8672,7.96045 5.4323,5.32813 0.4265,-1.98578 -2.4119,-8.96077 -6.3073,-15.5 -3.8953,-6.53923 -6.3604,-11.8895 -5.4778,-11.8895 2.8585,0 7.9742,6.92557 12.2417,16.57307 2.2935,5.18481 5.045,9.42693 6.1145,9.42693 2.0319,0 0.6136,-8.4616 -2.4084,-14.36852 -0.9478,-1.85269 -1.7233,-4.43788 -1.7233,-5.74489 0,-4.58553 5.6874,2.137 7.0477,8.33044 0.9868,4.49286 2.1588,5.6696 4.8089,4.82845 5.3588,-1.70077 3.9193,9.78221 -2.0369,16.24915 -5.8188,6.3179 -18.8216,12.60121 -26.2017,12.66144 -8.437,0.0689 -8.5663,-3.62076 -0.1735,-4.95627 9.4822,-1.5089 24.5555,-8.27006 24.5555,-11.01446 0,-1.13665 -3.6297,-0.2149 -8.066,2.04833 -10.3426,5.2764 -25.6359,5.81509 -29.1374,1.02635 -2.2682,-3.10179 -6.1648,-3.38814 -37.5653,-2.7604 -38.7872,0.7754 -40.2313,1.24674 -40.2313,13.13206 0,4.00436 -1.1153,7.60247 -2.4999,8.06558 -1.7496,0.58509 -2.5001,-1.82269 -2.5001,-8.02062 0,-15.65437 1.6836,-16.2273 48.0812,-16.36133 21.9538,-0.0634 39.9167,-0.68535 39.9174,-1.38205 0,-2.82949 -10.8077,-3.67994 -47.1101,-3.70595 -43.6166,-0.0313 -43.2392,-0.1569 -59.0096,19.64983 -4.5205,5.67758 -9.6321,10.32286 -11.359,10.32286 -2.7689,0 -2.795,-0.4136 -0.2213,-3.5 z m -33.2986,-8.5 c 0.6799,-1.1 7.4299,-2 15,-2 7.5701,0 14.3202,0.9 15,2 0.7853,1.2706 -4.6852,2 -15,2 -10.3148,0 -15.7853,-0.7294 -15,-2 z M 957,293.62965 c -55.1409,-1.98918 -56.66138,-2.25808 -60.1635,-10.63984 -4.36063,-10.43646 -3.71299,-25.50401 1.29087,-30.03243 3.88082,-3.5121 8.86869,-3.73969 83.49999,-3.80998 74.22884,-0.07 79.72904,0.16696 84.87264,3.65526 4.9438,3.35282 5.5,4.90833 5.5,15.38197 0,6.40856 -0.9631,12.24716 -2.1402,12.97463 -1.177,0.72748 -2.8447,3.22737 -3.7059,5.55533 -1.3876,3.751 -3.363,4.29423 -17.3598,4.77394 -8.6868,0.29772 -23.8941,1.22593 -33.7941,2.06271 -9.9,0.83677 -36,0.87206 -58,0.0784 z m 27.83642,-2.77098 c 4.07808,-1.56492 4.30648,-13.9195 0.28584,-15.46237 -1.97836,-0.75917 -3.07222,0.53214 -3.5,4.13179 -0.94264,7.93194 -5.1959,7.85105 -6.69266,-0.1273 -1.74969,-9.32665 -0.59148,-14.14591 3.59335,-14.95184 2.4,-0.46219 3.47705,0.61485 3.47705,3.47704 0,2.35258 1.29796,4.14665 3,4.14665 1.66666,0 3,-1.77778 3,-4 0,-5.59516 2.90964,-4.98389 5.72882,1.20352 1.95442,4.28948 2.8891,4.77344 5.32104,2.7551 1.62254,-1.34662 2.95014,-3.6882 2.95014,-5.20351 0,-4.56493 3.6735,-3.09508 4.3609,1.74489 0.8913,6.27588 6.6391,5.84301 6.6391,-0.5 0,-3.11111 1.1333,-5 3,-5 2.2974,0 3,2.53703 3,10.83333 0,10.92264 -4.0624,16.83626 -5.3458,7.78193 -0.3598,-2.53839 -2.0042,-4.61526 -3.6542,-4.61526 -3.9665,0 -4.8483,7.07531 -1.4595,11.70985 2.4149,3.30252 3.545,3.42509 10.9965,1.19256 l 8.3051,-2.48826 -0.1302,-10.89795 c -0.1366,-11.43707 3.1473,-18.38034 5.3685,-11.35063 0.6664,2.10894 2.0274,5.36771 3.0246,7.2417 1.1191,2.10304 1.0632,3.87074 -0.146,4.61804 -1.0774,0.66592 -1.959,3.40764 -1.959,6.09273 0,3.58094 1.0876,4.88196 4.081,4.88196 3.4554,0 4.0182,-1.14972 3.671,-7.5 -0.5247,-9.59529 1.7278,-16.5 5.3828,-16.5 2.8488,0 3.6998,4.87342 2.9095,16.66107 -0.3255,4.85474 0.2781,5.56691 4.238,5 6.1974,-0.88724 9.8706,-8.70525 9.2377,-19.66107 -0.7953,-13.76436 -2.4729,-14.05058 -79.52,-13.56685 -35.75001,0.22445 -68.48459,1.01801 -72.74351,1.76345 -9.00467,1.5761 -11.80876,4.82211 -10.19644,11.8034 0.63511,2.74999 1.15154,6.71849 1.14763,8.81886 -0.0113,6.05896 3.59067,11.18114 7.86269,11.18114 3.03293,0 3.92963,-1.36915 3.92963,-6 0,-3.45034 -1.06236,-6.01301 -2.5,-6.03062 -1.79143,-0.022 -1.857,-0.4471 -0.23136,-1.5 1.24774,-0.80816 2.59775,-3.1948 3,-5.30365 1.01201,-5.3056 5.73136,-6.49993 5.73136,-1.45043 0,2.22675 0.9437,4.63187 2.09712,5.34472 1.23223,0.76157 1.38183,2.25369 0.36273,3.61804 -0.95391,1.27707 -1.88635,4.78262 -2.07208,7.79012 -0.40815,6.60898 1.73323,7.28815 25.61223,8.12317 9.34999,0.32695 21.2014,0.77766 26.33642,1.00156 5.13504,0.2239 10.76004,-0.1392 12.5,-0.80688 z m -37.62244,-7.9496 c -2.34086,-6.10017 -1.3384,-16.83643 1.57204,-16.83643 3.86404,0 5.2063,4.49761 3.84525,12.88467 -1.22675,7.55976 -3.41909,9.15899 -5.41729,3.95176 z m 13.17568,-7.16854 c 0.45072,-7.87797 1.39492,-10.66789 3.61034,-10.66789 2.26556,0 3,2.44139 3,9.97251 0,8.02361 -0.70556,10.10842 -3.61034,10.66791 -3.17434,0.6114 -3.53664,-0.59291 -3,-9.97253 z m -29.59334,5.5225 c -1.78302,-4.64646 0.0262,-15.82411 2.70368,-16.70303 1.77977,-0.58426 2.5,2.10827 2.5,9.34597 0,9.60055 -2.81536,13.58095 -5.20368,7.35706 z m 70.23388,8.76081 c 2.0691,-3.34786 -1.11477,-13.9512 -4.18912,-13.9512 -1.98126,0 -2.84108,2.4211 -2.84108,8 0,5.63216 0.853,8 2.88196,8 1.58508,0 3.45174,-0.92196 4.14824,-2.0488 z M 1102,290.33433 c 0,-2.27672 12.0972,-4.21211 26.5001,-4.23967 14.386,-0.0275 15.0318,2.99657 1,4.68201 -14.9237,1.79254 -27.5001,1.59024 -27.5001,-0.44234 z m 25,-14.57628 c -4.4,-1.0757 -11.375,-1.53063 -15.4999,-1.01094 -5.556,0.69998 -7.5001,0.21661 -7.5001,-1.86478 0,-1.97491 2.5254,-2.80453 8.5001,-2.7923 15.0952,0.0309 29.6814,2.43772 28.9052,4.7696 -0.995,2.98849 -4.8681,3.23004 -14.4053,0.89842 z m -27,-17.68541 c 0,-1.18421 7.294,-2 17.8819,-2 9.8351,0 18.4383,0.9 19.1181,2 0.7911,1.28005 -5.6459,2 -17.8819,2 -11.4121,0 -19.1181,-0.80615 -19.1181,-2 z"
       id="logo"
       inkscape:connector-curvature="0"
       inkscape:label="#path3028" />
    <flowRoot
       xml:space="preserve"
       id="text"
       style="font-style:normal;font-weight:normal;font-size:40px;line-height:1.25;font-family:sans-serif;letter-spacing:0px;word-spacing:0px;fill:#000000;fill-opacity:1;stroke:none"
       transform="translate(4.8787386,-29.480341)"
       inkscape:label="#text"><flowRegion
         id="flowRegion870"><rect
           id="rect872"
           width="1785.9496"
           height="556.79999"
           x="127.27922"
           y="568.53333" /></flowRegion><flowPara
         id="flowPara874"
         style="font-size:64px;text-align:center;text-anchor:middle;fill:#ffffff">CR$id</flowPara><flowPara
         id="flowPara876"
         style="font-style:italic;font-variant:normal;font-weight:bold;font-stretch:normal;font-size:64px;font-family:serif;-inkscape-font-specification:'serif Bold Italic';text-align:center;text-anchor:middle;fill:#ffffff">$title</flowPara></flowRoot>  </g>
</svg>
