<?xml version="1.0" encoding="UTF-8" standalone="no"?>
<!-- Created with Inkscape (http://www.inkscape.org/) -->

<svg
   xmlns:dc="http://purl.org/dc/elements/1.1/"
   xmlns:cc="http://creativecommons.org/ns#"
   xmlns:rdf="http://www.w3.org/1999/02/22-rdf-syntax-ns#"
   xmlns:svg="http://www.w3.org/2000/svg"
   xmlns="http://www.w3.org/2000/svg"
   xmlns:xlink="http://www.w3.org/1999/xlink"
   xmlns:sodipodi="http://sodipodi.sourceforge.net/DTD/sodipodi-0.dtd"
   xmlns:inkscape="http://www.inkscape.org/namespaces/inkscape"
   width="1920"
   height="1080"
   id="svg2"
   version="1.1"
   inkscape:version="0.48.5 r10040"
   sodipodi:docname="pause.svg">
  <defs
     id="defs4">
    <linearGradient
       id="linearGradient3807">
      <stop
         style="stop-color:#ffffff;stop-opacity:0;"
         offset="0"
         id="stop3809" />
      <stop
         id="stop3815"
         offset="0.2"
         style="stop-color:#ffffff;stop-opacity:0.78431374;" />
      <stop
         style="stop-color:#ffffff;stop-opacity:0.78431374;"
         offset="1"
         id="stop3811" />
    </linearGradient>
    <linearGradient
       inkscape:collect="always"
       xlink:href="#linearGradient3807"
       id="linearGradient3813"
       x1="650"
       y1="595.07648"
       x2="1230"
       y2="595.07648"
       gradientUnits="userSpaceOnUse"
       gradientTransform="matrix(1,0,0,0.99744172,-74.949237,-22.857439)" />
    <linearGradient
       inkscape:collect="always"
       xlink:href="#linearGradient3807"
       id="linearGradient3819"
       x1="575.05078"
       y1="570.69666"
       x2="1155.0508"
       y2="570.69666"
       gradientUnits="userSpaceOnUse"
       spreadMethod="reflect" />
    <linearGradient
       inkscape:collect="always"
       xlink:href="#linearGradient3807-2"
       id="linearGradient3819-8"
       x1="575.05078"
       y1="570.69666"
       x2="1155.0508"
       y2="570.69666"
       gradientUnits="userSpaceOnUse"
       spreadMethod="reflect" />
    <linearGradient
       id="linearGradient3807-2">
      <stop
         style="stop-color:#ffffff;stop-opacity:0;"
         offset="0"
         id="stop3809-5" />
      <stop
         id="stop3815-1"
         offset="0.2"
         style="stop-color:#ffffff;stop-opacity:1;" />
      <stop
         style="stop-color:#ffffff;stop-opacity:1;"
         offset="1"
         id="stop3811-1" />
    </linearGradient>
    <linearGradient
       gradientTransform="matrix(2.3933139,0,0,1,-1291.5105,359.35582)"
       y2="570.69666"
       x2="1155.0508"
       y1="570.69666"
       x1="575.05078"
       spreadMethod="reflect"
       gradientUnits="userSpaceOnUse"
       id="linearGradient4017-1"
       xlink:href="#linearGradient3807-2-2"
       inkscape:collect="always" />
    <linearGradient
       id="linearGradient3807-2-2">
      <stop
         style="stop-color:#ffffff;stop-opacity:0;"
         offset="0"
         id="stop3809-5-5" />
      <stop
         id="stop3815-1-7"
         offset="0.2"
         style="stop-color:#ffffff;stop-opacity:1;" />
      <stop
         style="stop-color:#ffffff;stop-opacity:1;"
         offset="1"
         id="stop3811-1-0" />
    </linearGradient>
    <linearGradient
       y2="570.69666"
       x2="1155.0508"
       y1="570.69666"
       x1="575.05078"
       spreadMethod="reflect"
       gradientTransform="matrix(2.3933139,0,0,1,-842.013,2.87365)"
       gradientUnits="userSpaceOnUse"
       id="linearGradient4510"
       xlink:href="#linearGradient3807-2-2"
       inkscape:collect="always" />
    <filter
       id="filter4858"
       inkscape:label="Drop Shadow"
       width="1.2"
       color-interpolation-filters="sRGB">
      <feFlood
         id="feFlood4860"
         flood-opacity="0.29666666666666669"
         flood-color="rgb(255,255,255)"
         result="flood" />
      <feComposite
         id="feComposite4862"
         in2="SourceGraphic"
         in="flood"
         operator="in"
         result="composite1" />
      <feGaussianBlur
         id="feGaussianBlur4864"
         stdDeviation="2"
         result="blur" />
      <feOffset
         id="feOffset4866"
         dx="2"
         dy="2.2000000000000002"
         result="offset" />
      <feComposite
         id="feComposite4868"
         in2="offset"
         in="SourceGraphic"
         operator="over"
         result="composite2"
         dy="0" />
    </filter>
  </defs>
  <sodipodi:namedview
     id="base"
     pagecolor="#ffffff"
     bordercolor="#666666"
     borderopacity="1.0"
     inkscape:pageopacity="0.0"
     inkscape:pageshadow="2"
     inkscape:zoom="1.4"
     inkscape:cx="509.9817"
     inkscape:cy="369.23568"
     inkscape:document-units="px"
     inkscape:current-layer="layer1"
     showgrid="false"
     inkscape:window-width="1920"
     inkscape:window-height="1014"
     inkscape:window-x="0"
     inkscape:window-y="27"
     inkscape:window-maximized="1"
     showguides="true"
     inkscape:guide-bbox="true"
     inkscape:snap-global="true"
     inkscape:snap-bbox="true"
     inkscape:bbox-paths="true"
     inkscape:bbox-nodes="true"
     inkscape:snap-bbox-edge-midpoints="true"
     inkscape:snap-bbox-midpoints="true"
     inkscape:object-paths="false"
     inkscape:snap-to-guides="true">
    <sodipodi:guide
       orientation="0,1"
       position="0,0"
       id="guide3017" />
    <sodipodi:guide
       orientation="0,1"
       position="0,576"
       id="guide3019" />
    <sodipodi:guide
       orientation="1,0"
       position="0,0"
       id="guide3021" />
    <sodipodi:guide
       orientation="1,0"
       position="1024,0"
       id="guide3023" />
    <sodipodi:guide
       orientation="0,1"
       position="0,25"
       id="guide3025" />
    <sodipodi:guide
       orientation="0,1"
       position="0,547"
       id="guide3027" />
    <sodipodi:guide
       orientation="1,0"
       position="32,0"
       id="guide3029" />
    <sodipodi:guide
       orientation="1,0"
       position="994,0"
       id="guide3031" />
  </sodipodi:namedview>
  <metadata
     id="metadata7">
    <rdf:RDF>
      <cc:Work
         rdf:about="">
        <dc:format>image/svg+xml</dc:format>
        <dc:type
           rdf:resource="http://purl.org/dc/dcmitype/StillImage" />
        <dc:title />
      </cc:Work>
    </rdf:RDF>
  </metadata>
  <g
     inkscape:label="Ebene 1"
     inkscape:groupmode="layer"
     id="layer1"
     transform="translate(0,27.63782)">
    <rect
       style="fill:#000000;fill-opacity:1;fill-rule:nonzero;stroke:none"
       id="rect3797"
       width="1920"
       height="1080"
       x="0"
       y="-27.637817" />
    <path
       style="fill:#3399e5;fill-opacity:1"
       d="m 639.7194,576.23834 c -10.57911,-10.5791 -4.8107,-33.68386 10.42777,-41.76732 5.99215,-3.17863 26.46332,-2.22752 30.08879,1.39795 1.17125,1.17125 -2.8086,1.55419 -9.4851,0.91267 -14.15803,-1.36041 -23.11747,2.11477 -28.36811,11.00339 -5.7942,9.80879 -5.4008,19.4012 1.08029,26.34129 4.81854,5.15979 6.84471,5.73667 16.8715,4.8035 6.26742,-0.58328 13.44646,-1.778 15.95343,-2.65496 3.00236,-1.05024 2.61342,-0.40148 -1.13953,1.90078 -3.16866,1.94383 -11.05453,3.53111 -17.76632,3.576 -9.83867,0.0659 -13.10231,-0.95287 -17.66272,-5.5133 z m 249.09099,3.98567 c 5.95708,-1.14739 6.21063,-2.46608 1.63682,-8.5132 -7.99649,-10.57229 -1.77634,-19.75972 13.02725,-19.24182 4.35866,0.1525 5.62773,0.67231 2.99865,1.22827 -2.50696,0.53014 -6.86567,1.45629 -9.686,2.05811 -6.04332,1.28954 -7.08323,10.22178 -1.7093,14.68174 1.88022,1.56045 3.41859,4.76276 3.41859,7.11623 0,3.37196 -1.57018,4.21328 -7.40695,3.96871 -5.35638,-0.22449 -5.98732,-0.5838 -2.27906,-1.29804 z m -137.00352,-2.25998 c -3.27035,-3.27034 13.80192,-24.01423 24.25822,-29.47527 6.0429,-3.15604 6.60509,-2.98868 12.16766,3.62206 3.20762,3.81204 7.90175,6.93098 10.4314,6.93098 3.19262,0 4.18999,1.06681 3.26092,3.48792 -0.87349,2.27628 0.62521,4.38262 4.31429,6.06347 3.109,1.41657 5.65273,3.45736 5.65273,4.53513 0,2.32783 -17.28701,-6.15477 -19.35189,-9.49583 -0.78577,-1.27139 -6.85189,-2.31163 -13.48028,-2.31163 -12.72576,0 -21.86529,5.05683 -21.86529,12.0979 0,4.06464 -3.18308,6.74996 -5.38776,4.54527 z m 29.3179,-23.48035 c -0.7747,-1.25348 -2.37359,-2.27906 -3.5531,-2.27906 -1.17951,0 -2.14456,1.02558 -2.14456,2.27906 0,1.25348 1.5989,2.27906 3.5531,2.27906 1.9542,0 2.91925,-1.02558 2.14456,-2.27906 z m 49.0806,18.95709 c -2.64448,-3.36191 -4.25728,-7.54809 -3.584,-9.30264 0.67328,-1.75454 1.22414,-4.10813 1.22414,-5.23018 0,-2.68303 11.17166,-9.96572 12.79588,-8.3415 0.69208,0.69208 -0.87828,3.39495 -3.48972,6.00637 -6.34488,6.34489 -5.9927,12.94368 0.933,17.48157 6.44553,4.22328 13.89209,3.13731 21.66902,-3.16008 6.44666,-5.22019 4.71269,-12.25478 -4.03348,-16.36358 -4.03946,-1.89766 -5.14095,-3.31306 -3.13861,-4.0331 3.9007,-1.40269 14.90656,6.66267 15.88569,11.64142 0.40599,2.06453 -2.33544,6.82734 -6.09211,10.584 -5.56586,5.56586 -8.73072,6.8303 -17.09599,6.8303 -8.42136,0 -11.12949,-1.09816 -15.07382,-6.11258 z m 93.3607,1.58717 c 0,-2.48899 1.23828,-9.15524 2.75174,-14.8139 2.21092,-8.26633 3.74206,-10.28848 7.79033,-10.28848 11.83856,0 15.1225,4.4421 8.60669,11.64201 -4.62132,5.10651 -2.39103,8.80495 5.48565,9.09672 3.37311,0.12489 8.69686,1.13198 11.83056,2.23783 6.14358,2.16802 -14.73877,0.69757 -24.63949,-1.73501 -4.0504,-0.99517 -5.55995,-0.17594 -6.53323,3.54602 -1.59785,6.11016 -5.29225,6.32993 -5.29225,0.31481 z m 15.99914,-14.90169 c 1.58559,-1.91052 2.26817,-4.08836 1.51688,-4.83967 -2.3339,-2.33389 -8.39978,1.1492 -8.39978,4.82324 0,4.46379 3.18561,4.4714 6.8829,0.0159 z m 40.97738,18.17809 c 0,-3.19755 16.11244,-25.95263 20.60441,-29.09891 4.7826,-3.34987 5.4482,-3.12035 12.4352,4.28806 4.0602,4.30506 8.6036,7.82737 10.0964,7.82737 1.4928,0 2.1356,0.9362 1.4285,2.08042 -0.7072,1.14423 1.5379,4.13739 4.9892,6.65144 3.4512,2.51406 5.5396,5.30632 4.6409,6.205 -0.8987,0.8987 -4.3656,-0.29968 -7.7042,-2.66306 -11.4034,-8.07244 -15.7254,-9.92755 -23.2069,-9.96114 -6.15363,-0.0276 -8.32031,1.38419 -12.19018,7.94312 -2.58851,4.38719 -6.14344,7.97671 -7.89986,7.97671 -1.75641,0 -3.19347,-0.56206 -3.19347,-1.24901 z m 28.48831,-21.5416 c -0.7747,-1.25348 -2.8864,-2.27906 -4.6927,-2.27906 -1.8062,0 -3.2841,1.02558 -3.2841,2.27906 0,1.25349 2.1117,2.27906 4.6927,2.27906 2.5809,0 4.0588,-1.02557 3.2841,-2.27906 z m 35.1479,21.88111 c -1.1387,-1.16264 1.3508,-19.34367 3.8792,-28.33002 0.6058,-2.15287 2.998,-2.58242 8.2615,-1.48347 20.5383,4.2881 29.0666,17.95059 15.5636,24.93324 -7.5068,3.88193 -25.5663,7.06318 -27.7043,4.88025 z m 26.3788,-10.68002 4.566,-4.64159 -5.3803,-4.41928 c -6.2326,-5.11923 -16.2708,-5.91236 -16.2708,-1.28557 0,1.72354 -0.673,6.49888 -1.4956,10.61188 l -1.4956,7.47817 7.7551,-1.55104 c 4.2653,-0.85305 9.8099,-3.63973 12.3212,-6.19257 z m 26.7641,1.47703 c 1.1608,-10.2983 4.7528,-17.25423 7.4943,-14.5127 1.8348,1.83479 -3.5924,22.14464 -6.3775,23.86588 -1.5275,0.9441 -1.9133,-2.28645 -1.1168,-9.35318 z m 33.6389,5.55437 c -2.507,-2.50697 -4.5581,-6.65588 -4.5581,-9.21983 0,-5.78758 9.7692,-15.87488 15.2801,-15.77764 3.2582,0.0575 2.8149,1.02495 -2.1755,4.74821 -3.6113,2.69434 -6.2674,6.86039 -6.2674,9.83035 0,5.98299 6.5376,12.69797 12.3626,12.69797 5.3307,0 16.7934,-6.87861 18.3882,-11.03453 1.4459,-3.76808 -4.3315,-11.03441 -9.9075,-12.46081 -2.0627,-0.52765 -0.6736,-0.57113 3.0868,-0.0966 20.8764,2.63429 10.3653,25.87102 -11.7026,25.87102 -6.9097,0 -11.3407,-1.39228 -14.5066,-4.55812 z m -398.83564,-3.27895 c 0,-4.8377 -1.32535,-5.75675 -10.22658,-7.09157 -13.65113,-2.04713 -21.68027,0.12156 -21.68027,5.85581 0,2.48309 -1.02558,4.51471 -2.27907,4.51471 -4.62662,0 -2.3467,-15.62066 3.22471,-22.09376 5.60224,-6.50891 11.27186,-6.04021 5.85708,0.4842 -4.08084,4.9171 -0.93012,7.11245 12.56929,8.75803 13.46943,1.64192 18.21355,-0.53902 16.04374,-7.37549 -1.151,-3.62645 -0.57489,-4.84265 2.29394,-4.84265 3.26453,0 3.5971,1.55943 2.24931,10.54715 -0.86991,5.80094 -2.12166,11.95441 -2.78167,13.67437 -1.95508,5.09484 -5.27048,3.56575 -5.27048,-2.4308 z m 508.67994,-20.59749 c -6.1712,-7.84554 -6.6256,-23.09649 -1.3802,-46.32425 2.5112,-11.11988 2.933,-17.30321 1.3706,-20.095 -1.9586,-3.49983 -3.1907,-2.56003 -9.325,7.11273 -3.8875,6.12997 -7.0682,12.99576 -7.0682,15.25732 0,2.26156 -1.1598,4.11193 -2.5772,4.11193 -4.3784,0 -0.6286,-13.89936 7.5088,-27.83307 8.4173,-14.41318 12.5195,-16.3599 14.5874,-6.92261 0.7553,3.44708 1.7746,7.56602 2.2651,9.15321 0.4905,1.58719 -0.6018,11.33018 -2.4274,21.65108 -4.2397,23.96905 -4.2158,29.95527 0.1538,38.40498 4.958,9.5876 2.9323,13.1621 -3.1076,5.48368 z m -24.3795,-28.54196 c 0.7747,-1.25349 4.4247,-2.27907 8.1112,-2.27907 3.6865,0 6.7027,1.02558 6.7027,2.27907 0,1.25348 -3.6501,2.27906 -8.1112,2.27906 -4.8272,0 -7.5409,-0.92275 -6.7027,-2.27906 z m 28.4883,-3.73564 c 0,-0.98494 2.6955,-3.94018 5.9901,-6.56722 8.9807,-7.16092 9.988,-23.70686 2.3124,-37.98402 -7.2551,-13.49498 -3.0662,-16.14155 5.9181,-3.73909 5.6872,7.85092 7.3308,8.7238 16.4265,8.7238 5.5588,0 10.7408,1.02558 11.5155,2.27907 1.4924,2.41474 -4.326,3.27118 -16.5232,2.43213 -7.3187,-0.50346 -7.407,-0.38916 -7.407,9.58744 0,11.10634 -7.5681,25.00491 -14.3242,26.30603 -2.1496,0.41396 -3.9082,-0.0532 -3.9082,-1.03814 z m -146.2056,-15.60221 c -0.608,-0.60795 -102.56746,-1.38852 -226.57665,-1.7346 -164.77398,-0.45985 -227.0693,-1.34025 -231.40742,-3.27041 -8.14934,-3.62588 -19.72171,-20.00296 -23.85204,-33.75515 -2.00434,-6.67354 -4.30716,-28.81186 -5.54513,-53.30848 -2.09093,-41.37457 -2.05448,-41.97488 2.93367,-48.314 2.77801,-3.53039 6.84568,-7.053 9.03927,-7.82804 2.1936,-0.77504 3.98836,-3.33068 3.98836,-5.6792 0,-5.95554 3.50524,-7.61365 20.51155,-9.70276 41.89723,-5.1468 300.99853,-7.70985 394.27749,-3.90023 114.0389,4.65748 116.3756,4.84383 125.2404,9.98735 14.4112,8.36159 18.9717,12.37673 17.7309,15.61036 -0.6649,1.73254 -0.4246,7.43862 0.5339,12.68018 l 1.7427,9.5301 -11.0893,0 -11.0893,0 0,-10.70084 c 0,-8.50764 -1.2551,-12.01093 -6.124,-17.09295 -3.3682,-3.51567 -7.8258,-6.39213 -9.9056,-6.39213 -2.0799,0 -7.2723,-1.79476 -11.5387,-3.98836 -7.223,-3.71375 -20.546,-3.95695 -193.50058,-3.53224 -217.70217,0.5346 -282.45794,3.23471 -296.75122,12.37358 -4.6475,2.97154 -8.49342,6.61151 -8.54647,8.08883 -0.0531,1.47732 -1.4639,4.05347 -3.13521,5.72479 -3.84251,3.8425 -4.18377,6.89954 -3.96241,35.49571 0.21446,27.70553 5.79551,70.40469 9.83976,75.28162 7.00259,8.44435 17.53058,9.93792 93.85892,13.3154 105.74714,4.67925 315.59311,3.02368 374.26481,-2.95275 47.8183,-4.87087 52.3793,-6.8374 50.0238,-21.56816 -0.9196,-5.7511 -0.3259,-9.14381 1.9274,-11.01393 1.7911,-1.48645 3.9167,-5.7085 4.7236,-9.38234 1.2737,-5.79908 2.4949,-6.67971 9.2628,-6.67971 8.9455,0 8.9354,-0.0402 4.377,17.4606 -1.8802,7.21867 -3.4186,18.55006 -3.4186,25.18086 0,6.63081 -0.2564,12.06074 -0.5697,12.06651 -0.3134,0.006 -14.4151,2.0522 -31.3371,4.54762 -30.8036,4.54248 -43.8559,5.52375 -45.9269,3.45277 z m 131.3917,-38.12462 c 9.3457,-3.28762 11.9144,-5.60981 20.8003,-18.80462 8.2397,-12.23526 10.6079,-9.20271 3.882,4.97106 -4.5298,9.54575 -15.2115,16.64754 -24.6823,16.41011 l -6.8372,-0.1714 6.8372,-2.40515 z m -520.0119,-1.79312 c -25.28195,-0.62675 -46.65678,-1.83188 -47.49961,-2.67809 -0.84284,-0.84621 -2.07683,-19.81939 -2.74222,-42.16263 -1.18907,-39.92823 -1.11937,-40.73744 4.06898,-47.2422 l 5.27876,-6.61812 51.29602,1.49286 c 28.21282,0.82107 52.13973,2.33656 53.17093,3.36775 2.32033,2.32034 6.99458,77.11754 5.25489,84.08863 -2.58108,10.34255 -8.8974,11.23748 -68.82775,9.7518 z m 58.73734,-9.25166 c 6.8971,-3.67333 8.12581,-68.34941 1.45871,-76.7829 -1.67582,-2.11982 -14.70629,-2.84883 -50.92035,-2.84883 l -48.66821,0 -3.81684,5.82524 c -3.28417,5.01227 -3.62382,10.09557 -2.43375,36.42394 0.7607,16.82929 2.46578,32.62172 3.78906,35.0943 1.93934,3.62367 5.38482,4.67546 17.76487,5.42297 21.86499,1.32022 78.48539,-0.82268 82.82651,-3.13472 z m -85.70009,-13.53896 c 1.67741,-2.7141 65.59468,-2.7141 74.06948,0 3.35294,1.07381 -11.00515,1.9182 -34.89018,2.05189 -26.53425,0.14852 -40.10013,-0.56195 -39.1793,-2.05189 z m -10.25577,-13.00355 c 0,-3.35223 19.46096,-5.18649 55.26722,-5.20912 19.38523,-0.0123 31.33709,0.84941 31.33709,2.25925 0,1.25348 -1.28197,2.28959 -2.84883,2.30247 -1.56685,0.0128 -21.05282,0.68467 -43.30215,1.49289 -26.83232,0.9747 -40.45333,0.69001 -40.45333,-0.84549 z m 72.34414,-15.69067 c -0.74002,-0.74002 -17.3221,-1.67251 -36.84905,-2.0722 -19.52696,-0.39968 -35.48359,-1.58897 -35.45919,-2.64286 0.0516,-2.22907 80.77308,-1.78663 86.28332,0.47293 3.21427,1.31806 3.10137,1.76641 -0.85444,3.393 -5.56198,2.28703 -11.3107,2.65907 -13.12064,0.84913 z m -72.34414,-21.2552 c 0,-1.14902 1.01336,-2.431 2.25192,-2.84883 5.41366,-1.8263 84.35239,0.75501 84.35239,2.75833 0,1.31033 -17.27024,2.17964 -43.30216,2.17964 -24.72436,0 -43.30215,-0.8963 -43.30215,-2.08914 z m 155.8195,71.73636 c -10.23058,-4.4522 -11.17217,-7.52157 -4.38841,-14.30533 5.88611,-5.88611 6.09329,-5.9184 13.94643,-2.1735 10.54938,5.03065 12.29899,10.09278 5.33801,15.44439 -6.49628,4.99435 -5.89292,4.95245 -14.89603,1.03444 z m 11.55427,-5.6115 c 1.4356,-2.32286 -12.40213,-7.81438 -14.47291,-5.7436 -1.66316,1.66316 6.48258,7.80065 10.35307,7.80065 1.56668,0 3.4206,-0.92567 4.11984,-2.05705 z m 26.91616,5.97782 c -6.68412,-3.04787 -6.50516,-8.66951 0.48501,-15.23645 5.36167,-5.03703 5.87171,-5.10346 11.39531,-1.48426 7.60992,4.98621 7.39986,11.86015 -0.48501,15.87092 -4.59545,2.33755 -7.6354,2.56426 -11.39531,0.84979 z m 8.54648,-7.20485 c 0,-3.62971 -4.13503,-7.01494 -6.13083,-5.01914 -1.87485,1.87485 1.05183,8.30322 3.78025,8.30322 1.29282,0 2.35058,-1.47784 2.35058,-3.28408 z m 22.88148,6.81216 c -3.2793,-3.9513 -2.36833,-10.74819 1.61843,-12.07562 1.78867,-0.59555 2.84882,1.24246 2.84882,4.93903 0,6.52976 5.48212,8.14797 7.73288,2.28259 2.18471,-5.69324 1.70973,-7.3087 -3.6045,-12.25966 -5.65808,-5.2713 -3.38185,-5.99503 5.65524,-1.79808 8.54331,3.96763 8.76295,15.74957 0.36493,19.57596 -7.68144,3.4999 -11.29624,3.33563 -14.6158,-0.66422 z M 1027.35,460.47241 c -1.9069,-5.97067 -5.7766,-47.51179 -5.6092,-60.2138 0.096,-7.30726 1.394,-17.32711 2.8838,-22.26634 3.7187,-12.32965 8.9078,-13.3148 64.7101,-12.28534 51.215,0.94483 51.7832,1.11344 55.2279,16.38695 2.5911,11.48836 -2.9525,11.25001 -5.7931,-0.24908 l -2.1112,-8.54648 -16.2811,-1.99693 c -8.9546,-1.0983 -31.3731,-1.24247 -49.819,-0.32036 -44.8067,2.23989 -42.8225,0.16268 -41.7948,43.75366 0.9668,41.00801 0.6071,40.54219 33.1916,42.98514 26.7237,2.00356 62.4561,-0.0382 70.8679,-4.04945 4.4599,-2.12672 6.3077,-4.91564 6.8286,-10.30678 0.442,-4.57421 1.962,-7.3911 3.9883,-7.3911 3.8796,0 4.1979,6.8382 0.8753,18.80226 l -2.3734,8.54648 -56.941,0 c -43.5481,0 -57.1549,-0.67006 -57.8507,-2.84883 z m -93.1483,-0.94961 c -2.21819,-2.21817 -1.85769,-11.6769 0.50057,-13.13439 1.11097,-0.68662 2.55332,0.79122 3.20522,3.28409 0.65191,2.49287 2.81966,4.53249 4.81723,4.53249 4.26668,0 4.7843,-4.77321 0.93508,-8.62245 -3.93068,-3.93067 -0.75676,-5.84091 4.78074,-2.87732 5.86521,3.13896 6.12308,9.55371 0.58551,14.56514 -4.2316,3.82955 -12.05808,5.01872 -14.82435,2.25244 z m 33.55903,-1.72113 c -0.68392,-1.78228 -0.0709,-5.43169 1.36249,-8.10982 3.81091,-7.12074 16.8029,-5.68519 17.88618,1.97634 0.42304,2.99195 -0.60253,6.30938 -2.27906,7.37205 -4.86748,3.08529 -15.61129,2.30113 -16.96961,-1.23857 z m 242.96697,-1.31762 c 0,-1.25348 2.8204,-2.28289 6.2675,-2.28758 8.2328,-0.0112 20.4301,-7.34497 29.5938,-17.79372 8.4962,-9.68758 9.8937,-7.02314 2.2588,4.30637 -7.3998,10.98058 -18.8953,18.05399 -29.3408,18.05399 -4.8286,0 -8.7793,-1.02557 -8.7793,-2.27906 z m -138.6825,-6.26742 c 1.8292,-2.19359 8.7866,-10.43373 15.461,-18.31142 l 12.1353,-14.32306 53.2661,0.6487 c 33.7852,0.41145 52.9952,-0.16184 52.5254,-1.5675 -1.4097,-4.21724 -11.9803,-5.30728 -53.9608,-5.56446 -23.1895,-0.14206 -44.3587,-0.84752 -47.0426,-1.56769 -4.0953,-1.09884 -22.7485,-21.88587 -29.1387,-32.4719 -4.7663,-7.89609 7.6481,2.5919 17.0127,14.37271 5.5928,7.0358 12.2199,13.24835 14.7269,13.80566 2.5069,0.55732 23.5313,1.38799 46.7207,1.84595 23.1895,0.45795 44.7266,1.68247 47.8603,2.72115 5.1039,1.69171 5.3769,1.49736 2.6198,-1.865 -4.1402,-5.04913 -11.5076,-6.0363 -51.6255,-6.91739 -19.7582,-0.43394 -36.2433,-1.84887 -39.0517,-3.35184 -5.4058,-2.89315 -8.5857,-12.17766 -6.4621,-18.86838 2.3705,-7.46871 5.6361,-4.7933 5.6361,4.61743 0,4.93996 1.1533,9.6945 2.5628,10.56564 1.4096,0.87114 18.588,1.76191 38.1743,1.97948 39.9752,0.44406 51.2844,3.342 59.8196,15.32856 2.6276,3.69005 5.3496,6.13695 6.049,5.43755 0.6994,-0.6994 -1.7854,-5.11715 -5.5218,-9.81723 -9.4149,-11.8433 -10.8112,-14.44162 -6.9679,-12.96681 4.0392,1.54999 10.8893,10.78307 17.7043,23.86316 3.8692,7.42625 5.5463,9.07119 6.1903,6.07158 0.4858,-2.26285 -2.7485,-10.21108 -7.1875,-17.66273 -4.4389,-7.45165 -7.2479,-13.54845 -6.2422,-13.54845 3.2575,0 9.0869,7.8919 13.9499,18.88552 2.6135,5.90825 5.7489,10.74228 6.9676,10.74228 2.3155,0 0.6993,-9.64226 -2.7444,-16.37337 -1.08,-2.11119 -1.9638,-5.0571 -1.9638,-6.54647 0,-5.22536 6.481,2.43518 8.0311,9.49279 1.1245,5.11974 2.46,6.46067 5.48,5.50217 6.1064,-1.93808 4.466,11.14712 -2.3212,18.51639 -6.6308,7.19945 -21.4478,14.35947 -29.8576,14.42811 -9.6143,0.0785 -9.7616,-4.12598 -0.1978,-5.64783 10.8053,-1.71944 27.9818,-9.42399 27.9818,-12.55131 0,-1.29525 -4.1362,-0.24489 -9.1915,2.33413 -11.7857,6.01262 -29.2128,6.62647 -33.203,1.16955 -2.5845,-3.53458 -7.0249,-3.86087 -42.8068,-3.14556 -44.1992,0.88359 -45.8447,1.4207 -45.8447,14.96439 0,4.56309 -1.2709,8.66326 -2.8488,9.19097 -1.9936,0.66673 -2.8489,-2.07701 -2.8489,-9.13974 0,-17.83863 1.9186,-18.4915 54.79,-18.64423 25.017,-0.0723 45.4863,-0.78097 45.4871,-1.57489 0,-3.2243 -12.3157,-4.1934 -53.6833,-4.22304 -49.7025,-0.0356 -49.2725,-0.1788 -67.2433,22.39158 -5.1513,6.46977 -10.9761,11.76321 -12.9439,11.76321 -3.1552,0 -3.185,-0.47131 -0.2523,-3.98836 z m -37.9447,-9.68601 c 0.7747,-1.25348 8.4666,-2.27906 17.093,-2.27906 8.6264,0 16.3182,1.02558 17.0929,2.27906 0.8949,1.44789 -5.3389,2.27907 -17.0929,2.27907 -11.754,0 -17.9878,-0.83118 -17.093,-2.27907 z M 872.2872,428.63053 c -62.83473,-2.26674 -64.56736,-2.57316 -68.55814,-12.12443 -4.96907,-11.89266 -4.23106,-29.0626 1.47099,-34.22289 4.42231,-4.00213 10.10615,-4.26148 95.15078,-4.34158 84.58606,-0.0797 90.85369,0.19026 96.71495,4.16529 5.63362,3.82063 6.26742,5.59319 6.26742,17.52822 0,7.30276 -1.0974,13.956 -2.4388,14.78499 -1.3413,0.82898 -3.24164,3.67769 -4.22296,6.33047 -1.58121,4.27437 -3.83227,4.89341 -19.78209,5.44005 -9.89881,0.33926 -27.22803,1.39699 -38.50938,2.35052 -11.28136,0.95352 -41.0231,0.99373 -66.09277,0.0894 z m 31.72045,-3.15764 c 4.64709,-1.78326 4.90736,-15.86169 0.32572,-17.61983 -2.2544,-0.86509 -3.50089,0.60639 -3.98835,4.7083 -1.07417,9.03869 -5.92089,8.9465 -7.62649,-0.14506 -1.99382,-10.628 -0.67401,-16.1197 4.09474,-17.03808 2.73487,-0.52668 3.96219,0.70063 3.96219,3.96219 0,2.68084 1.47907,4.72524 3.41859,4.72524 1.89921,0 3.41859,-2.02584 3.41859,-4.55813 0,-6.37584 3.31563,-5.67929 6.52817,1.37145 2.22712,4.888 3.29222,5.43948 6.06349,3.13953 1.84898,-1.53452 3.36177,-4.20282 3.36177,-5.92957 0,-5.20187 4.18609,-3.52693 4.96938,1.98836 1.01568,7.15156 7.56546,6.65829 7.56546,-0.56977 0,-3.5452 1.29147,-5.69765 3.41859,-5.69765 2.618,0 3.41859,2.89103 3.41859,12.34492 0,12.44667 -4.62919,19.18542 -6.0917,8.86774 -0.41001,-2.89257 -2.28385,-5.25923 -4.16408,-5.25923 -4.51994,0 -5.52483,8.06253 -1.66312,13.34373 2.75181,3.76333 4.03964,3.903 12.53087,1.35896 l 9.46387,-2.83544 -0.14837,-12.41855 c -0.15566,-13.0329 3.58649,-20.94496 6.11759,-12.9344 0.75932,2.4032 2.31031,6.11667 3.44663,8.25215 1.27518,2.39648 1.2115,4.41082 -0.16637,5.2624 -1.2278,0.75883 -2.23237,3.8831 -2.23237,6.94284 0,4.08059 1.23933,5.56315 4.65045,5.56315 3.93756,0 4.57882,-1.31015 4.18315,-8.54648 -0.59787,-10.93413 1.96897,-18.80226 6.13389,-18.80226 3.24627,0 4.21608,5.55342 3.31548,18.9858 -0.37091,5.53212 0.31695,6.34366 4.82933,5.69765 7.06208,-1.01103 11.24787,-9.9199 10.5266,-22.40439 -0.90618,-15.68491 -2.81786,-16.01106 -90.61542,-15.45984 -40.73821,0.25577 -78.04026,1.16005 -82.89345,2.00951 -10.26109,1.79602 -13.45643,5.49494 -11.61914,13.45033 0.72372,3.13371 1.31221,7.65592 1.30775,10.04936 -0.0129,6.90438 4.09168,12.74125 8.95978,12.74125 3.45611,0 4.47793,-1.56018 4.47793,-6.83718 0,-3.93176 -1.21059,-6.85201 -2.84882,-6.87208 -2.04139,-0.025 -2.11612,-0.50947 -0.26365,-1.7093 1.42185,-0.92092 2.96022,-3.64056 3.41859,-6.04366 1.15322,-6.04589 6.53106,-7.40686 6.53106,-1.65281 0,2.53745 1.07538,5.27816 2.38973,6.09047 1.40418,0.86783 1.57465,2.56815 0.41335,4.12286 -1.08701,1.45526 -2.14955,5.44995 -2.3612,8.87709 -0.4651,7.53114 1.97508,8.30507 29.18592,9.2566 10.65461,0.37258 24.15964,0.88617 30.01115,1.14131 5.85153,0.25514 12.26139,-0.15863 14.24413,-0.91948 z m -42.87192,-9.0588 c -2.66748,-6.95133 -1.52514,-19.18563 1.79139,-19.18563 4.40319,0 5.93274,5.12517 4.38179,14.68248 -1.39793,8.61457 -3.89617,10.43695 -6.17318,4.50315 z m 15.01409,-8.16876 c 0.51361,-8.9772 1.58956,-12.1564 4.11409,-12.1564 2.58168,0 3.4186,2.78204 3.4186,11.36399 0,9.14314 -0.80401,11.51885 -4.1141,12.1564 -3.61725,0.69671 -4.03011,-0.67564 -3.41859,-11.36399 z m -33.72251,6.29305 c -2.03181,-5.29479 0.0299,-18.03206 3.08093,-19.03362 2.02809,-0.66577 2.84882,2.40244 2.84882,10.65003 0,10.94011 -3.20819,15.4759 -5.92975,8.38359 z m 80.0336,9.98321 c 2.3578,-3.81499 -1.27026,-15.89782 -4.77359,-15.89782 -2.2577,0 -3.23749,2.75891 -3.23749,9.11624 0,6.41802 0.97202,9.11625 3.28408,9.11625 1.80625,0 3.93341,-1.0506 4.727,-2.33467 z m 115.05819,0.3538 c 0,-2.59438 13.7851,-4.79982 30.1976,-4.83123 16.3933,-0.0314 17.1294,3.4147 1.1395,5.33531 -17.0059,2.04264 -31.3371,1.81212 -31.3371,-0.50408 z m 28.4883,-16.61011 c -5.014,-1.2258 -12.9622,-1.74419 -17.6627,-1.15198 -6.3312,0.79764 -8.5465,0.24683 -8.5465,-2.12499 0,-2.25047 2.8778,-3.19584 9.686,-3.18191 17.2015,0.0352 33.823,2.77787 32.9384,5.43511 -1.1337,3.40547 -5.5473,3.68074 -16.4152,1.02377 z m -30.7673,-20.15306 c 0,-1.34944 8.3117,-2.27906 20.377,-2.27906 11.2074,0 21.0109,1.02558 21.7856,2.27906 0.9015,1.45866 -6.4337,2.27906 -20.3771,2.27906 -13.0043,0 -21.7855,-0.91863 -21.7855,-2.27906 z"
       id="logo"
       inkscape:connector-curvature="0"
       inkscape:label="#path3015" />
  </g>
</svg>
