<?xml version="1.0" encoding="UTF-8" standalone="no"?>
<!-- Created with Inkscape (http://www.inkscape.org/) -->

<svg
   xmlns:dc="http://purl.org/dc/elements/1.1/"
   xmlns:cc="http://creativecommons.org/ns#"
   xmlns:rdf="http://www.w3.org/1999/02/22-rdf-syntax-ns#"
   xmlns:svg="http://www.w3.org/2000/svg"
   xmlns="http://www.w3.org/2000/svg"
   xmlns:sodipodi="http://sodipodi.sourceforge.net/DTD/sodipodi-0.dtd"
   xmlns:inkscape="http://www.inkscape.org/namespaces/inkscape"
   width="146.63533mm"
   height="84.665817mm"
   viewBox="0 0 519.574 299.99699"
   id="svg10680"
   version="1.1"
   inkscape:version="0.91 r13725"
   sodipodi:docname="plane-shadow.svg">
  <defs
     id="defs10682" />
  <sodipodi:namedview
     id="base"
     pagecolor="#ffffff"
     bordercolor="#666666"
     borderopacity="1.0"
     inkscape:pageopacity="0.0"
     inkscape:pageshadow="2"
     inkscape:zoom="0.35"
     inkscape:cx="1226.2151"
     inkscape:cy="-598.57293"
     inkscape:document-units="px"
     inkscape:current-layer="layer1"
     showgrid="false"
     fit-margin-top="0"
     fit-margin-left="0"
     fit-margin-right="0"
     fit-margin-bottom="0"
     inkscape:window-width="1920"
     inkscape:window-height="1031"
     inkscape:window-x="1920"
     inkscape:window-y="27"
     inkscape:window-maximized="1" />
  <metadata
     id="metadata10685">
    <rdf:RDF>
      <cc:Work
         rdf:about="">
        <dc:format>image/svg+xml</dc:format>
        <dc:type
           rdf:resource="http://purl.org/dc/dcmitype/StillImage" />
        <dc:title></dc:title>
      </cc:Work>
    </rdf:RDF>
  </metadata>
  <g
     inkscape:label="Layer 1"
     inkscape:groupmode="layer"
     id="layer1"
     transform="translate(1274.0722,366.20772)">
    <path
       id="Shadow"
       d="m -870.51421,-137.03172 -6.653,3.854 -0.689,0.215 -0.701,0.204 -0.719,0.184 -0.682,0.234 -0.694,0.147 -0.701,0.204 -1.425,0.31 -1.396,0.206 -1.416,0.168 -1.428,0.188 -1.405,0.035 -1.426,0.068 -1.448,0.017 -1.408,-0.047 -1.423,-0.049 -1.423,-0.115 -1.46,-0.194 -1.423,-0.177 -1.422,-0.222 -1.419,-0.261 -1.465,-0.318 -1.418,-0.345 -1.415,-0.396 -1.418,-0.356 -1.448,-0.486 -1.418,-0.428 -1.404,-0.526 -2.839,-1.078 -2.823,-1.175 -2.809,-1.263 -2.766,-1.376 -2.749,-1.426 -2.705,-1.511 -2.714,-1.547 -2.672,-1.604 -5.219,-3.36 -5.042,-3.434 -18.216,-13.282 -10.985,-8.476 -5.285,-3.973 -2.643,-1.891 -2.651,-1.758 -2.857,-1.758 -2.99,-1.758 -15.08499,-8.513 -2.525,-1.486 -246.972,129.375996 -20.264,-11.716 225.069,-141.642996 -15.012,-9.087 -47.132,-27.176 -0.028,-0.021 0,-0.044 -0.034,-0.054 c -0.038,-0.033 -0.066,-0.033 -0.066,-0.033 -0.037,-0.03 -0.059,-0.063 -0.059,-0.063 -0.01,-0.033 -0.042,-0.057 -0.042,-0.057 -0.042,-0.021 -0.068,-0.021 -0.068,-0.021 -0.022,-0.01 -0.029,-0.033 -0.029,-0.033 -0.04,-0.021 -0.073,-0.059 -0.073,-0.059 -0.028,-0.016 -0.052,-0.022 -0.052,-0.022 -0.028,-0.02 -0.028,-0.026 -0.028,-0.026 -0.012,-0.014 -0.032,-0.014 -0.032,-0.014 -0.04,0 -0.057,0 -0.057,0 -0.03,0 -0.044,0 -0.044,0 -10e-4,0 -0.01,0 -0.01,0 -0.045,-0.005 -0.061,-0.005 -0.061,-0.005 -0.013,0 -0.052,0 -0.052,0 -0.031,-0.01 -0.038,-0.01 -0.038,-0.01 -0.023,0 -0.063,0.01 -0.063,0.01 -0.03,0 -0.066,0.005 -0.066,0.005 -0.01,0 -0.03,0 -0.03,0 -0.035,0 -0.063,0 -0.063,0 -0.04,0 -0.071,0 -0.071,0 0,0.007 -0.032,0.017 -0.032,0.017 -0.038,0.014 -0.066,0.023 -0.066,0.023 -0.034,0.019 -0.069,0.061 -0.069,0.061 l -0.071,0.033 -0.054,0.021 -0.044,0.003 -0.066,0.037 -0.03,0.037 -0.145,0.063 -0.43,0.288 -0.096,0.038 -0.068,0.058 -0.034,0.04 -0.07,0.021 -0.029,0 -0.069,0.026 -0.066,0.023 c -0.023,0.018 -0.028,0.027 -0.028,0.027 -0.035,0.014 -0.074,0.03 -0.074,0.03 -0.028,0.003 -0.055,0.013 -0.055,0.013 -0.01,0.007 -0.042,0.014 -0.042,0.014 -0.035,0.007 -0.072,0.007 -0.072,0.007 -0.032,0 -0.045,0 -0.045,0 -0.014,0 -0.052,0 -0.052,0 -0.034,0 -0.074,0 -0.074,0 -0.01,0 -0.01,0 -0.01,0 -0.032,0 -0.049,0 -0.049,0 -0.035,0 -0.054,-0.007 -0.054,-0.007 -0.033,-0.007 -0.057,-0.014 -0.057,-0.014 0,-0.01 -0.01,-0.013 -0.01,-0.013 -0.041,-0.017 -0.059,-0.023 -0.059,-0.023 -0.023,-0.017 -0.047,-0.021 -0.047,-0.021 -0.023,-0.02 -0.023,-0.026 -0.023,-0.026 -0.027,-0.017 -0.058,-0.037 -0.058,-0.037 -0.033,0 -0.071,-0.002 -0.071,-0.002 -0.03,-0.02 -0.03,-0.054 -0.03,-0.054 -0.039,-0.045 -0.069,-0.076 -0.069,-0.076 l -8.86,-5.125 -53.606,30.968 -24.722,-14.297 60.897,-35.145 -6.723,-4.674 -1.619,-1.165 -1.521,-1.165 -1.457,-1.165 -0.689,-0.583 -0.658,-0.584 -0.629,-0.578 -0.578,-0.589 -0.277,-0.286 -0.255,-0.297 -0.246,-0.291 -0.27,-0.29 -0.228,-0.289 -0.228,-0.293 -0.189,-0.29 -0.216,-0.291 -0.181,-0.296 -0.149,-0.29 -0.102,-0.152 -0.046,-0.136 -0.095,-0.154 -0.056,-0.141 -0.085,-0.148 -0.056,-0.139 -0.062,-0.138 -0.067,-0.159 -0.023,-0.15 -0.061,-0.139 -0.057,-0.135 -0.023,-0.157 -0.026,-0.136 -0.044,-0.152 -0.038,-0.137 -0.028,-0.154 -0.011,-0.154 0,-0.142 0,-0.14 -0.01,-0.15 0,-0.137 0,-0.154 0.01,-0.139 0,-0.156 0,-0.137 0.011,-0.151 0.028,-0.141 0.038,-0.152 0.051,-0.139 0.02,-0.154 0.044,-0.137 0.062,-0.151 0.04,-0.135 0.058,-0.154 0.082,-0.139 0.047,-0.154 1.28,-0.727 0.479,-0.101 0.501,-0.063 0.485,-0.077 0.479,-0.015 0.509,-0.047 0.478,-0.054 0.497,-0.028 0.514,-0.011 0.464,0 0.511,0.007 0.502,0.028 0.491,0.049 0.502,0.045 0.478,0.025 1.022,0.138 1.008,0.153 0.991,0.141 0.994,0.236 1.008,0.223 0.998,0.281 1.011,0.293 1.021,0.313 1.021,0.363 1.029,0.343 1.017,0.424 2.035,0.81 2.043,0.909 2.052,0.939 4.092,2.051 4.111,2.136 60.846,-35.139 24.736,14.255 -52.937,30.591 0.055,0.059 0.091,0.11 0.061,0.059 0.108,0.08 0.07,0.094 0.109,0.061 0.165,0.144 0.222,0.178 0.202,0.156 0.239,0.165 0.215,0.18 0.527,0.326 0.521,0.316 4.642,2.541 0.518,0.337 0.501,0.326 0.125,0.019 0.105,0.026 0.084,0.044 0.062,0.026 0.053,0.018 0.024,0.02 0.035,0.007 0.039,0 0.054,0.007 0.01,0.023 c 0.024,0.021 0.042,0.043 0.042,0.043 0.035,0.03 0.048,0.041 0.048,0.041 0.021,0.02 0.039,0.033 0.039,0.033 0.03,0.005 0.031,0.005 0.031,0.005 0,0.025 0,0.035 0,0.035 0.015,0.026 0.024,0.044 0.024,0.044 0,0.029 0.014,0.04 0.014,0.04 0,0.02 0,0.02 0,0.02 0,0.014 0,0.021 0,0.021 -0.014,0.035 -0.014,0.045 -0.014,0.045 -0.017,0.049 -0.024,0.059 -0.024,0.059 0,0.03 0,0.03 0,0.03 0,0 -0.015,0.009 -0.015,0.009 -0.035,0.033 -0.056,0.053 -0.056,0.053 -0.028,0.023 -0.059,0.047 -0.059,0.047 -0.017,0.021 -0.031,0.032 -0.031,0.032 -0.01,0 -0.044,0.01 -0.044,0.01 l -0.057,0.039 -0.033,0.062 -0.076,0.042 -0.117,0.038 -0.685,0.358 -0.147,0.042 -0.035,0.045 -0.076,0.059 -0.035,0.044 -0.065,0.002 c -0.03,0.02 -0.058,0.036 -0.058,0.036 -0.029,0.027 -0.036,0.041 -0.036,0.041 -0.014,0.029 -0.034,0.05 -0.034,0.05 -0.035,0.01 -0.048,0.01 -0.048,0.01 -0.028,0.014 -0.047,0.021 -0.047,0.021 0,0.042 0,0.066 0,0.066 -0.01,0.034 -0.019,0.044 -0.019,0.044 0,0.023 -0.013,0.023 -0.013,0.023 -0.011,0.007 -0.011,0.014 -0.011,0.014 0,0.033 0,0.047 0,0.047 0,0.03 0,0.043 0,0.043 0.021,0.027 0.021,0.037 0.021,0.037 0.015,0 0.021,0.007 0.021,0.007 10e-4,0.023 0,0.038 0,0.038 0.031,0.046 0.042,0.059 0.042,0.059 0.028,0.021 0.043,0.037 0.043,0.037 0.03,0.012 0.044,0.012 0.044,0.012 0.01,0 0.04,0.014 0.04,0.014 l 0.043,0.023 0.047,0.02 0.03,0.021 0.023,0.023 0.054,0.023 62.458,36.065 4.078,-1.912 3.989,-1.908 238.27199,-126.342 20.263,11.721 -224.124,142.943 3.561,2.21 3.631,2.133 7.457,4.148 7.671,3.991 7.88,3.809 33.226,15.216 16.129,7.474 3.942,1.936 3.879,2.033 3.736,2.034 3.518,2.067 1.697,1.101 1.631,1.031 1.552,1.074 1.519,1.132 1.404,1.082 1.353,1.095 0.661,0.556 0.598,0.547 0.59,0.586 0.582,0.586 0.578,0.586 0.517,0.586 0.503,0.586 0.47,0.586 0.463,0.586 0.427,0.586 0.398,0.586 0.199,0.276 0.192,0.31 0.19,0.276 0.161,0.31 0.143,0.276 0.157,0.31 0.148,0.276 0.143,0.31 0.131,0.276 0.157,0.31 0.117,0.295 0.096,0.314 0.094,0.311 0.122,0.305 0.077,0.311 0.082,0.312 0.075,0.318 0.059,0.314 0.015,0.141 0.03,0.145 0.026,0.165 0.021,0.126 0.023,0.15 0.014,0.141 0.015,0.169 0.01,0.126 0,0.15 0,0.141 0,0.169 0,0.136 0,0.141 -0.01,0.154 -0.01,0.155 -0.023,0.152 -0.014,0.124 -0.023,0.168 -0.033,0.142 -0.03,0.159 -0.015,0.117 -0.012,0.188 -0.04,0.122 -0.051,0.173 -0.031,0.104 -0.025,0.201 -0.117,0.288 -0.087,0.298 -0.098,0.298 -0.125,0.291 -0.136,0.292 -0.157,0.294 -0.136,0.285 -0.173,0.288 -0.188,0.277 -0.199,0.285 -0.184,0.274 -0.233,0.271 -0.205,0.268 -0.26,0.268 -0.238,0.26 -0.247,0.249 -0.281,0.31 -0.293,0.276 -0.295,0.228 z"
       inkscape:connector-curvature="0"
       style="fill:#808080" />
  </g>
</svg>
