<?xml version="1.0" encoding="UTF-8" standalone="no"?>
<!-- Created with Inkscape (http://www.inkscape.org/) -->

<svg
   version="1.1"
   id="svg630"
   width="2560"
   height="1440"
   viewBox="0 0 2560 1440"
   sodipodi:docname="outro.svg"
   inkscape:version="1.2.2 (b0a8486541, 2022-12-01)"
   inkscape:export-filename="intro.png"
   inkscape:export-xdpi="72"
   inkscape:export-ydpi="72"
   xmlns:inkscape="http://www.inkscape.org/namespaces/inkscape"
   xmlns:sodipodi="http://sodipodi.sourceforge.net/DTD/sodipodi-0.dtd"
   xmlns="http://www.w3.org/2000/svg"
   xmlns:svg="http://www.w3.org/2000/svg">
  <defs
     id="defs634">
    <rect
       x="847.59679"
       y="1236.69"
       width="1111.4201"
       height="190.31107"
       id="rect13770" />
    <rect
       x="6.2428472"
       y="898.91651"
       width="2539.1475"
       height="276.72454"
       id="rect13038" />
    <rect
       x="0.69322289"
       y="1194.7437"
       width="727.35593"
       height="184.25894"
       id="rect11530" />
    <rect
       x="963.03105"
       y="14.16727"
       width="1577.987"
       height="117.17864"
       id="rect424" />
  </defs>
  <sodipodi:namedview
     id="namedview632"
     pagecolor="#ffffff"
     bordercolor="#666666"
     borderopacity="1.0"
     inkscape:showpageshadow="2"
     inkscape:pageopacity="0.0"
     inkscape:pagecheckerboard="0"
     inkscape:deskcolor="#d1d1d1"
     showgrid="false"
     inkscape:zoom="0.42398311"
     inkscape:cx="1228.8225"
     inkscape:cy="851.44901"
     inkscape:window-width="1865"
     inkscape:window-height="1170"
     inkscape:window-x="55"
     inkscape:window-y="30"
     inkscape:window-maximized="1"
     inkscape:current-layer="g636" />
  <g
     id="g636"
     inkscape:groupmode="layer"
     inkscape:label="001_JH_COMMUNITY_DESIGN_GUIDE_20252"
     transform="matrix(1.3333333,0,0,-1.3333333,0,1440)">
    <g
       id="g638">
      <path
         d="M 0,1080 H 1920 V 0 H 0 Z"
         style="fill:#ff69b4;fill-opacity:1;fill-rule:evenodd;stroke:none"
         id="path640" />
    </g>
    <g
       id="topbar"
       transform="matrix(1,0,0,2.0997556,0,970.81271)">
      <desc
         id="desc675">bar that can be coloured in the location's colour</desc>
      <path
         d="M 0,52 H 1920 V 0 H 0 Z"
         style="fill:#ffffff;fill-opacity:1;fill-rule:nonzero;stroke:none"
         id="path644" />
    </g>
    <rect
       style="fill:#98fb98;stroke-width:2.88525;stroke-linejoin:round;stroke-miterlimit:3.7;paint-order:markers fill stroke;fill-opacity:1"
       id="rect708"
       width="1920"
       height="491.25"
       x="0"
       y="-971.01825"
       transform="scale(1,-1)" />
    <g
       id="g654"
       transform="matrix(2.0497815,0,0,2.0497815,0,-1133.7641)">
      <g
         id="g658"
         transform="translate(0,1000)">
        <path
           d="M 0,80 V 26.667713 H 309.75977 V 0 L 337,26.667713 V 80 Z"
           style="fill:#000000;fill-opacity:1;fill-rule:nonzero;stroke:none"
           id="path660" />
      </g>
      <g
         id="g662"
         transform="translate(20.648438,1040.2)">
        <path
           d="m 3.844602,22.537346 h 9.311622 V 3.691133 H 3.770635 V 6.911657 H 0 V 3.218916 H 3.288251 V -3.8e-5 h 10.350357 v 3.218954 h 3.288251 v 23.0096 H 3.844602 Z"
           style="fill:#ffffff;fill-opacity:1;fill-rule:nonzero;stroke:none"
           id="path664" />
      </g>
      <g
         id="g666"
         transform="translate(47.289062,1040.2)">
        <path
           d="M 13.156225,3.691133 H 3.770633 V 26.228516 H 0 V 3.218916 H 3.288249 V -3.8e-5 h 10.35036 v 3.218954 h 3.28825 v 23.0096 h -3.770634 z"
           style="fill:#ffffff;fill-opacity:1;fill-rule:nonzero;stroke:none"
           id="path668" />
      </g>
      <g
         id="g670"
         transform="translate(73.929688,1040.2)">
        <path
           d="M 13.638604,26.228516 H 3.288254 V 23.009565 H 0 V 3.218916 H 3.288254 V -3.8e-5 h 10.35035 v 3.218954 h 3.288255 v 10.13222 H 9.866366 V 9.658392 H 13.15622 V 3.691133 H 3.770638 V 22.537346 H 13.15622 V 19.31682 h 3.770639 v 3.692745 h -3.288255 z"
           style="fill:#ffffff;fill-opacity:1;fill-rule:nonzero;stroke:none"
           id="path672" />
      </g>
      <g
         id="g674"
         transform="translate(99.845703,1040.2)">
        <path
           d="M 0,-3.8e-5 H 16.926853 V 3.691133 H 3.770628 v 9.187785 H 13.637 v 3.691169 H 3.770628 v 5.967259 h 13.156225 v 3.69117 H 0 Z"
           style="fill:#ffffff;fill-opacity:1;fill-rule:nonzero;stroke:none"
           id="path676" />
      </g>
      <g
         id="g678"
         transform="translate(125.03906,1040.2)">
        <path
           d="m 13.154615,13.351136 h -2.805869 v 3.218951 H 7.060492 V 19.78904 H 3.770638 v 6.439476 H 0 V -3.8e-5 H 3.770638 V 16.09787 h 2.80747 V 12.878918 H 9.866362 V 9.658392 h 3.288253 V -3.8e-5 h 3.772238 v 26.228554 h -3.772238 z"
           style="fill:#ffffff;fill-opacity:1;fill-rule:nonzero;stroke:none"
           id="path680" />
      </g>
      <g
         id="g682"
         transform="translate(151.67773,1040.2)">
        <path
           d="M 13.638609,26.228516 H 0 V -3.8e-5 h 13.638609 v 3.218954 h 3.288244 v 19.790649 h -3.288244 z m -9.866361,-3.69117 h 9.383977 V 3.691133 H 3.772248 Z"
           style="fill:#ffffff;fill-opacity:1;fill-rule:nonzero;stroke:none"
           id="path684" />
      </g>
      <g
         id="g686"
         transform="translate(196.22266,1040.2)">
        <path
           d="M 13.156235,16.570087 H 3.770648 v 9.658429 H 0 V -3.8e-5 h 3.770648 v 12.878956 h 9.385587 V -3.8e-5 h 3.770628 v 26.228554 h -3.770628 z"
           style="fill:#ffffff;fill-opacity:1;fill-rule:nonzero;stroke:none"
           id="path688" />
      </g>
      <g
         id="g690"
         transform="translate(222.86523,1040.2)">
        <path
           d="m 13.636992,23.009565 h -3.289855 v 3.218951 H 6.576509 V 23.009565 H 3.288244 V 19.790611 H 0 V -3.8e-5 h 3.770629 v 9.65843 h 9.383978 V -3.8e-5 h 3.770648 V 19.790611 H 13.636992 Z M 13.154607,13.351136 H 3.770629 v 5.96726 h 3.288264 v 3.21895 h 2.80586 v -3.21895 h 3.289854 z"
           style="fill:#ffffff;fill-opacity:1;fill-rule:nonzero;stroke:none"
           id="path692" />
      </g>
      <g
         id="g694"
         transform="translate(249.50391,1040.2)">
        <path
           d="M 13.63701,26.228516 H 3.288264 V 23.009565 H 0 V 3.218916 H 3.288264 V -3.8e-5 H 13.63701 v 3.218954 h 3.289853 V 6.911657 H 13.154626 V 3.691133 H 3.770648 v 18.846213 h 9.383978 V 19.31682 h 3.772237 v 3.692745 H 13.63701 Z"
           style="fill:#ffffff;fill-opacity:1;fill-rule:nonzero;stroke:none"
           id="path696" />
      </g>
      <g
         id="g698"
         transform="translate(275.42187,1040.2)">
        <path
           d="M 13.154606,23.009565 H 9.866362 V 19.78904 H 6.576508 v -3.218953 h -2.80588 v 9.658429 H 0 V -3.8e-5 H 3.770628 V 12.878918 H 9.866362 V 6.43944 h 3.288244 V -3.8e-5 h 3.772257 V 6.911657 H 13.63699 v 6.439479 h -3.288244 v 5.965684 h 3.288244 v 3.220526 h 3.289873 v 3.69117 h -3.772257 z"
           style="fill:#ffffff;fill-opacity:1;fill-rule:nonzero;stroke:none"
           id="path700" />
      </g>
      <g
         id="g702"
         transform="translate(299.89062,1040.2)">
        <path
           d="m 0,26.228516 v -3.69117 H 6.576488 V -3.8e-5 h 3.772256 v 22.537384 h 6.578098 v 3.69117 z"
           style="fill:#ffffff;fill-opacity:1;fill-rule:nonzero;stroke:none"
           id="path704" />
      </g>
    </g>
    <g
       id="g1657"
       transform="matrix(0.62203485,0,0,0.61482803,171.10072,392.82901)">
      <path
         d="M 58.545452,58.54541 H 0 V -4.2e-5 h 58.545452 z"
         style="fill:#000000;fill-opacity:1;fill-rule:nonzero;stroke:none"
         id="path1415"
         transform="translate(1056.0898,452.18189)" />
      <g
         id="g1417"
         transform="translate(1407.3633,452.18189)">
        <path
           d="M 58.545452,58.54541 H 0 V -4.2e-5 h 58.545452 z"
           style="fill:#000000;fill-opacity:1;fill-rule:nonzero;stroke:none"
           id="path1419" />
      </g>
      <g
         id="g1421"
         transform="translate(1173.1797,335.09106)">
        <path
           d="M 117.09092,58.545368 H 58.54546 V 117.09082 H 0 V -8.4e-5 H 175.63638 V 117.09082 h -58.54546 z"
           style="fill:#000000;fill-opacity:1;fill-rule:nonzero;stroke:none"
           id="path1423" />
      </g>
      <g
         id="g1425"
         transform="translate(939,218)">
        <path
           d="M 585.45453,585.45453 V 644 H 468.36362 V 585.45453 H 409.81818 V 526.90912 H 234.18181 v 58.54541 H 175.63635 V 644 H 58.545452 V 585.45453 H 0 V 117.09094 H 58.545452 V 58.545471 H 117.0909 V 0 h 409.81816 v 58.545471 h 58.54547 V 117.09094 H 644 v 468.36359 z m 0,-409.81815 H 526.90906 V 117.09094 H 468.36362 V 58.545471 H 175.63635 V 117.09094 H 117.0909 v 58.54544 H 58.545452 V 351.27274 H 117.0909 v 58.54544 h 409.81816 v -58.54544 h 58.54547 z"
           style="fill:#000000;fill-opacity:1;fill-rule:nonzero;stroke:none"
           id="path1427" />
      </g>
    </g>
    <rect
       style="fill:#954535;fill-opacity:1;stroke-width:3.16063;stroke-linejoin:round;stroke-miterlimit:3.7;paint-order:markers fill stroke"
       id="rect4967"
       width="1920"
       height="225"
       x="0"
       y="-412.5"
       transform="scale(1,-1)" />
    <rect
       style="fill:#96d8ff;fill-opacity:1;stroke-width:2.88525;stroke-linejoin:round;stroke-miterlimit:3.7;paint-order:markers fill stroke"
       id="rect4967-3"
       width="1920"
       height="187.5"
       x="2.4000001e-05"
       y="-187.5"
       transform="scale(1,-1)" />
    <text
       xml:space="preserve"
       transform="matrix(0.75000002,0,0,-0.75000002,0,1080)"
       id="location"
       style="font-style:normal;font-variant:normal;font-weight:normal;font-stretch:normal;font-size:100px;line-height:125%;font-family:Ubuntu;-inkscape-font-specification:'Ubuntu, Normal';font-variant-ligatures:normal;font-variant-caps:normal;font-variant-numeric:normal;font-feature-settings:normal;text-align:start;letter-spacing:0px;word-spacing:0px;writing-mode:lr-tb;white-space:pre;shape-inside:url(#rect424);display:inline;fill:#000000;fill-opacity:1;stroke:none;stroke-width:1px;stroke-linecap:butt;stroke-linejoin:miter;stroke-opacity:1"
       inkscape:label="#location"><tspan
         x="963.03125"
         y="107.41719"
         id="tspan588"><tspan
           style="font-family:'Geist Mono';-inkscape-font-specification:'Geist Mono'"
           id="tspan586">Frankfurt am Main</tspan></tspan></text>
    <text
       xml:space="preserve"
       transform="matrix(0.75000002,0,0,-0.75000002,792.25446,1383.5741)"
       id="text11528"
       style="font-style:normal;font-variant:normal;font-weight:normal;font-stretch:normal;font-size:80px;line-height:125%;font-family:Ubuntu;-inkscape-font-specification:'Ubuntu, Normal';font-variant-ligatures:normal;font-variant-caps:normal;font-variant-numeric:normal;font-feature-settings:normal;text-align:start;letter-spacing:0px;word-spacing:0px;writing-mode:lr-tb;white-space:pre;shape-inside:url(#rect11530);shape-padding:7.44774;display:inline;fill:#000000;fill-opacity:1;stroke:none;stroke-width:1px;stroke-linecap:butt;stroke-linejoin:miter;stroke-opacity:1"><tspan
         x="8.140625"
         y="1276.7908"
         id="tspan592"><tspan
           style="font-family:'Geist Mono';-inkscape-font-specification:'Geist Mono'"
           id="tspan590">CC-BY 4.0</tspan></tspan></text>
    <text
       xml:space="preserve"
       transform="matrix(0.75000002,0,0,-0.75000002,267.08793,1062.0035)"
       id="text13036"
       style="font-style:normal;font-variant:normal;font-weight:normal;font-stretch:normal;font-size:180px;line-height:125%;font-family:Ubuntu;-inkscape-font-specification:'Ubuntu, Normal';font-variant-ligatures:normal;font-variant-caps:normal;font-variant-numeric:normal;font-feature-settings:normal;text-align:start;letter-spacing:0px;word-spacing:0px;writing-mode:lr-tb;white-space:pre;shape-inside:url(#rect13038);display:inline;fill:#ffffff;fill-opacity:1;stroke:none;stroke-width:1px;stroke-linecap:butt;stroke-linejoin:miter;stroke-opacity:1"><tspan
         x="6.2421875"
         y="1066.7646"
         id="tspan596"><tspan
           style="font-weight:bold;font-family:'Geist Mono';-inkscape-font-specification:'Geist Mono Bold'"
           id="tspan594">Jugend hackt 2026</tspan></tspan></text>
    <text
       xml:space="preserve"
       transform="matrix(0.75000002,0,0,-0.75000002,-82.498475,1101.4675)"
       id="text13768"
       style="font-style:normal;font-variant:normal;font-weight:normal;font-stretch:normal;font-size:150px;line-height:125%;font-family:Ubuntu;-inkscape-font-specification:'Ubuntu, Normal';font-variant-ligatures:normal;font-variant-caps:normal;font-variant-numeric:normal;font-feature-settings:normal;text-align:start;letter-spacing:0px;word-spacing:0px;writing-mode:lr-tb;white-space:pre;shape-inside:url(#rect13770);display:inline;fill:#000000;fill-opacity:1;stroke:none;stroke-width:1px;stroke-linecap:butt;stroke-linejoin:miter;stroke-opacity:1"><tspan
         x="847.59766"
         y="1376.5633"
         id="tspan600"><tspan
           style="font-size:120px;font-family:'Geist Mono';-inkscape-font-specification:'Geist Mono'"
           id="tspan598">jugendhackt.org</tspan></tspan></text>
  </g>
</svg>
