<?xml version="1.0" encoding="UTF-8" standalone="no"?>
<svg
   width="1920"
   height="1080"
   id="svg2"
   version="1.1"
   inkscape:version="1.1 (c4e8f9ed74, 2021-05-24)"
   sodipodi:docname="intro.svg"
   xmlns:inkscape="http://www.inkscape.org/namespaces/inkscape"
   xmlns:sodipodi="http://sodipodi.sourceforge.net/DTD/sodipodi-0.dtd"
   xmlns:xlink="http://www.w3.org/1999/xlink"
   xmlns="http://www.w3.org/2000/svg"
   xmlns:svg="http://www.w3.org/2000/svg"
   xmlns:rdf="http://www.w3.org/1999/02/22-rdf-syntax-ns#"
   xmlns:cc="http://creativecommons.org/ns#"
   xmlns:dc="http://purl.org/dc/elements/1.1/">
  <defs
     id="defs4">
    <linearGradient
       id="linearGradient3811">
      <stop
         id="stop3819"
         offset="0"
         style="stop-color:#fafbff;stop-opacity:1;" />
      <stop
         style="stop-color:#fffbff;stop-opacity:1;"
         offset="1"
         id="stop3815" />
    </linearGradient>
    <radialGradient
       fy="9.7279596"
       fx="1.71676"
       r="0.29498801"
       cy="9.7279596"
       cx="1.71676"
       gradientUnits="userSpaceOnUse"
       id="id12">
      <stop
         id="stop3151"
         style="stop-color:#75C5F0"
         offset="0" />
      <stop
         id="stop3153"
         style="stop-color:#007CC3"
         offset="1" />
    </radialGradient>
    <radialGradient
       fy="2.1879101"
       fx="3.27019"
       r="0.420028"
       cy="2.1879101"
       cx="3.27019"
       xlink:href="#id12"
       gradientUnits="userSpaceOnUse"
       id="id14" />
    <linearGradient
       y2="2.3961301"
       x2="3.27019"
       y1="1.96386"
       x1="3.27019"
       gradientUnits="userSpaceOnUse"
       id="linearGradient3382">
      <stop
         id="stop3384"
         style="stop-opacity:1; stop-color:white"
         offset="0" />
      <stop
         id="stop3386"
         style="stop-opacity:0; stop-color:white"
         offset="1" />
    </linearGradient>
    <mask
       id="id6">
      <linearGradient
         y2="2.3961301"
         x2="3.27019"
         y1="1.96386"
         x1="3.27019"
         gradientUnits="userSpaceOnUse"
         id="id7">
        <stop
           id="stop3128"
           style="stop-opacity:1; stop-color:white"
           offset="0" />
        <stop
           id="stop3130"
           style="stop-opacity:0; stop-color:white"
           offset="1" />
      </linearGradient>
      <rect
         id="rect3132"
         height="0.465563"
         width="0.65544897"
         y="1.94721"
         x="2.9424601"
         style="fill:url(#id7)" />
    </mask>
    <inkscape:perspective
       sodipodi:type="inkscape:persp3d"
       inkscape:vp_x="0 : 504.5 : 1"
       inkscape:vp_y="0 : 1000 : 0"
       inkscape:vp_z="1 : 504.5 : 1"
       inkscape:persp3d-origin="0.5 : 504.33333 : 1"
       id="perspective3373" />
    <inkscape:perspective
       id="perspective3412"
       inkscape:persp3d-origin="372.04724 : 854.78739 : 1"
       inkscape:vp_z="744.09448 : 1030.1811 : 1"
       inkscape:vp_y="0 : 1000 : 0"
       inkscape:vp_x="0 : 1030.1811 : 1"
       sodipodi:type="inkscape:persp3d" />
    <radialGradient
       fy="9.7279596"
       fx="1.71676"
       r="0.29498801"
       cy="9.7279596"
       cx="1.71676"
       gradientUnits="userSpaceOnUse"
       id="id12-3">
      <stop
         id="stop3151-0"
         style="stop-color:#75C5F0"
         offset="0" />
      <stop
         id="stop3153-0"
         style="stop-color:#007CC3"
         offset="1" />
    </radialGradient>
    <radialGradient
       fy="2.1879101"
       fx="3.27019"
       r="0.420028"
       cy="2.1879101"
       cx="3.27019"
       xlink:href="#id12-3"
       gradientUnits="userSpaceOnUse"
       id="id14-6" />
    <linearGradient
       y2="2.3961301"
       x2="3.27019"
       y1="1.96386"
       x1="3.27019"
       gradientUnits="userSpaceOnUse"
       id="linearGradient3382-2">
      <stop
         id="stop3384-5"
         style="stop-opacity:1; stop-color:white"
         offset="0" />
      <stop
         id="stop3386-2"
         style="stop-opacity:0; stop-color:white"
         offset="1" />
    </linearGradient>
    <mask
       id="id6-4">
      <linearGradient
         y2="2.3961301"
         x2="3.27019"
         y1="1.96386"
         x1="3.27019"
         gradientUnits="userSpaceOnUse"
         id="id7-2">
        <stop
           id="stop3128-9"
           style="stop-opacity:1; stop-color:white"
           offset="0" />
        <stop
           id="stop3130-9"
           style="stop-opacity:0; stop-color:white"
           offset="1" />
      </linearGradient>
      <rect
         id="rect3132-4"
         height="0.465563"
         width="0.65544897"
         y="1.94721"
         x="2.9424601"
         style="fill:url(#id7-2)" />
    </mask>
    <inkscape:perspective
       sodipodi:type="inkscape:persp3d"
       inkscape:vp_x="0 : 504.5 : 1"
       inkscape:vp_y="0 : 1000 : 0"
       inkscape:vp_z="1 : 504.5 : 1"
       inkscape:persp3d-origin="0.5 : 504.33333 : 1"
       id="perspective3373-6" />
    <inkscape:perspective
       id="perspective3412-2"
       inkscape:persp3d-origin="372.04724 : 854.78739 : 1"
       inkscape:vp_z="744.09448 : 1030.1811 : 1"
       inkscape:vp_y="0 : 1000 : 0"
       inkscape:vp_x="0 : 1030.1811 : 1"
       sodipodi:type="inkscape:persp3d" />
  </defs>
  <sodipodi:namedview
     id="base"
     pagecolor="#ffffff"
     bordercolor="#666666"
     borderopacity="1.0"
     inkscape:pageopacity="0.0"
     inkscape:pageshadow="2"
     inkscape:zoom="0.35355339"
     inkscape:cx="1093.1871"
     inkscape:cy="550.12908"
     inkscape:document-units="px"
     inkscape:current-layer="layer1"
     showgrid="false"
     inkscape:window-width="1916"
     inkscape:window-height="1042"
     inkscape:window-x="3840"
     inkscape:window-y="1091"
     inkscape:window-maximized="1"
     showguides="true"
     inkscape:guide-bbox="true"
     inkscape:document-rotation="0"
     inkscape:pagecheckerboard="0">
    <sodipodi:guide
       orientation="1,0"
       position="54,576"
       id="guide3846"
       inkscape:locked="false" />
    <sodipodi:guide
       orientation="1,0"
       position="1063.389,552.81622"
       id="guide3848"
       inkscape:locked="false" />
    <sodipodi:guide
       position="270,11"
       orientation="0,-1"
       id="guide3145" />
    <sodipodi:guide
       id="guide2425"
       orientation="0,-1"
       position="-1528,-430" />
    <sodipodi:guide
       id="guide2475"
       orientation="0,-1"
       position="-1718.7929,-419.89226" />
    <sodipodi:guide
       id="guide2477"
       orientation="1,0"
       position="-1630.5882,-135.34942" />
    <sodipodi:guide
       position="1456.9935,165.71093"
       orientation="0,-1"
       id="guide1143" />
    <sodipodi:guide
       id="guide4682"
       orientation="1,0"
       position="59.345215,132.74862" />
    <sodipodi:guide
       position="1370.5497,165.71093"
       orientation="1,0"
       id="guide7282" />
    <sodipodi:guide
       position="1837.5938,165.71093"
       orientation="1,0"
       id="guide7284" />
  </sodipodi:namedview>
  <metadata
     id="metadata7">
    <rdf:RDF>
      <cc:Work
         rdf:about="">
        <dc:format>image/svg+xml</dc:format>
        <dc:type
           rdf:resource="http://purl.org/dc/dcmitype/StillImage" />
      </cc:Work>
    </rdf:RDF>
  </metadata>
  <g
     style="opacity:1"
     inkscape:label="Ebene 1"
     inkscape:groupmode="layer"
     id="layer1">
    <rect
       y="0"
       x="0"
       height="1080"
       width="1920"
       id="rect3809-1"
       style="fill:#00a2e1;fill-opacity:1;stroke-width:3.6841" />
    <flowRoot
       transform="matrix(1.8789785,0,0,1.8788549,11.03754,2.8810923)"
       style="font-style:normal;font-weight:normal;line-height:0.01%;font-family:sans-serif;letter-spacing:0px;word-spacing:0px;fill:#ffffff;fill-opacity:1;stroke:none"
       id="title"
       xml:space="preserve"><flowRegion
         style="font-family:sans-serif;fill:#ffffff"
         id="flowRegion3042"><rect
           style="font-size:48px;font-family:sans-serif;fill:#ffffff;fill-opacity:1"
           y="30.517624"
           x="24.243662"
           height="194.80345"
           width="769.9577"
           id="rect3044" /></flowRegion><flowPara
         id="flowPara3836"
         style="font-style:normal;font-variant:normal;font-weight:300;font-stretch:normal;font-size:48px;line-height:125%;font-family:'Open Sans';-inkscape-font-specification:'Open Sans Light';text-align:start;writing-mode:lr-tb;text-anchor:start;fill:#ffffff;fill-opacity:1">$title</flowPara></flowRoot>
    <flowRoot
       transform="matrix(1.8789785,0,0,1.8788549,-44.620037,12.436556)"
       style="font-style:normal;font-weight:normal;line-height:0.01%;font-family:sans-serif;letter-spacing:0px;word-spacing:0px;fill:#000000;fill-opacity:1;stroke:none"
       id="names"
       xml:space="preserve"><flowRegion
         id="flowRegion3840"
         style="font-family:sans-serif"><rect
           y="243"
           x="56"
           height="271.10471"
           width="673.89355"
           id="rect3842"
           style="font-family:sans-serif" /></flowRegion><flowPara
         style="font-style:normal;font-variant:normal;font-weight:300;font-stretch:normal;font-size:40px;line-height:125%;font-family:'Open Sans';-inkscape-font-specification:'Open Sans Light';text-align:start;writing-mode:lr-tb;text-anchor:start;fill:#ffffff;fill-opacity:1"
         id="flowPara3844">$personnames</flowPara></flowRoot>
    <flowRoot
       transform="matrix(1.8789785,0,0,1.8788549,-555.36165,435.49229)"
       style="font-style:normal;font-weight:normal;line-height:0.01%;font-family:sans-serif;text-align:end;letter-spacing:0px;word-spacing:0px;text-anchor:end;fill:#000000;fill-opacity:1;stroke:none"
       id="url"
       xml:space="preserve"><flowRegion
         style="font-family:sans-serif"
         id="flowRegion3817"><rect
           style="font-family:sans-serif;text-align:end;text-anchor:end"
           y="312.37131"
           x="790.53937"
           height="22.430193"
           width="486.27167"
           id="rect3819" /></flowRegion><flowPara
         style="font-style:normal;font-variant:normal;font-weight:normal;font-stretch:normal;font-size:18px;line-height:125%;font-family:'Open Sans';-inkscape-font-specification:'Open Sans';text-align:end;writing-mode:lr-tb;text-anchor:end;fill:#ffffff;fill-opacity:1"
         id="flowPara3821">https://programm.froscon.de/2021/events/$id.html</flowPara></flowRoot>
    <path
       d="m 1803.6711,845.50585 c 4.4959,0 8.8048,0.8201 12.9256,2.45821 4.1212,1.63918 7.7271,3.9334 10.8169,6.88418 3.0911,2.94938 5.5736,6.43832 7.446,10.46543 1.8743,4.02788 2.8106,8.38256 2.8106,13.06483 v 25.98915 c 0,2.43537 -0.8662,4.54253 -2.5992,6.32176 -1.7326,1.77924 -3.8634,2.71622 -6.3921,2.80961 -2.5289,0 -4.7063,-0.81905 -6.5327,-2.45855 -1.8265,-1.63914 -2.7399,-3.72275 -2.7399,-6.2512 v -25.28698 c 0,-2.15386 -0.3981,-4.19112 -1.1939,-6.11078 -0.7961,-1.92003 -1.9201,-3.58198 -3.3726,-4.98697 -1.4517,-1.40535 -3.1373,-2.52841 -5.0574,-3.3717 -1.9194,-0.84292 -4.004,-1.26387 -6.2514,-1.26387 -2.0609,0 -4.028,0.39813 -5.9012,1.19365 -1.8727,0.79622 -3.512,1.84979 -4.9171,3.1607 -1.4047,1.3109 -2.5285,2.90301 -3.3718,4.77634 -0.8423,1.87331 -1.264,3.83969 -1.264,5.90046 v 25.56753 c 0,2.43468 -0.937,4.56606 -2.8102,6.3916 -1.8728,1.82664 -4.0274,2.73907 -6.4625,2.73907 -2.435,0 -4.5889,-0.84257 -6.4624,-2.52807 -1.8734,-1.68548 -2.8101,-3.7463 -2.8101,-6.18098 v -25.28698 c 0.094,-4.68262 1.0073,-9.08436 2.74,-13.20525 1.733,-4.12089 4.1212,-7.72674 7.1651,-10.81687 3.0443,-3.09083 6.6266,-5.52588 10.7474,-7.30511 4.1217,-1.77994 8.6168,-2.66921 13.4877,-2.66921 z m -73.4118,20.0887 c -2.1533,0 -4.1676,0.39881 -6.0407,1.19433 -1.8734,0.79554 -3.5355,1.8965 -4.9873,3.30115 -1.4517,1.40498 -2.5991,3.06765 -3.4421,4.98769 -0.8433,1.91929 -1.265,4.00291 -1.265,6.25084 0,2.1545 0.4217,4.19144 1.265,6.11144 0.843,1.91931 1.9904,3.60483 3.4421,5.05721 1.4518,1.45167 3.1139,2.59897 4.9873,3.44189 1.8731,0.84257 3.8874,1.2642 6.0407,1.2642 2.155,0 4.191,-0.42091 6.1118,-1.2642 1.9198,-0.84292 3.5826,-1.99022 4.9873,-3.44189 1.4048,-1.45238 2.5286,-3.1379 3.3719,-5.05721 0.8431,-1.92 1.264,-3.95694 1.264,-6.11144 -0.1876,-4.30802 -1.732,-7.96058 -4.6359,-10.95697 -2.9035,-2.99746 -6.6037,-4.58925 -11.0991,-4.77704 m 0,-18.4025 c 4.5898,0 8.9448,0.88998 13.0656,2.66851 4.1212,1.77992 7.7269,4.21498 10.8183,7.3058 3.091,3.09014 5.5487,6.69564 7.3758,10.81689 1.8264,4.12087 2.74,8.56897 2.74,13.34531 0,4.68259 -0.8907,9.06151 -2.6705,13.13499 -1.7793,4.0742 -4.1903,7.6562 -7.235,10.74703 -3.0436,3.09049 -6.6258,5.52588 -10.747,7.30511 -4.1215,1.77924 -8.5702,2.66918 -13.3472,2.66918 -4.6823,0 -9.085,-0.84291 -13.2054,-2.52912 -4.1212,-1.6855 -7.7276,-4.04996 -10.8183,-7.09375 -3.0904,-3.04415 -5.5259,-6.62613 -7.3049,-10.74738 -1.7801,-4.12089 -2.6694,-8.61636 -2.6694,-13.48606 0,-4.68261 0.8658,-9.06083 2.5985,-13.13504 1.733,-4.07382 4.1211,-7.63265 7.1655,-10.67677 3.0433,-3.0431 6.6497,-5.47885 10.8176,-7.30477 4.1678,-1.82594 8.6397,-2.83315 13.4164,-3.01993 z m -47.9818,36.10355 c 2.5286,0 4.7289,0.91279 6.6024,2.73907 1.8734,1.82695 2.8098,4.09735 2.8098,6.81361 0,0.93627 -0.1637,1.82627 -0.4915,2.66884 -0.3272,0.84293 -0.7257,1.73289 -1.1945,2.66923 -2.7157,4.77664 -6.5553,8.59317 -11.5205,11.44947 -4.9637,2.85634 -10.3021,4.28448 -16.0158,4.28448 -4.1205,0 -8.1012,-0.81833 -11.9408,-2.4582 -3.841,-1.63845 -7.2357,-3.88637 -10.1863,-6.74339 -2.9503,-2.85632 -5.2921,-6.22801 -7.0244,-10.11438 -1.7319,-3.88636 -2.5991,-8.0778 -2.5991,-12.57328 v -25.84839 c 0,-4.21428 0.8194,-8.24141 2.4583,-12.0811 1.6393,-3.84001 3.9105,-7.23521 6.8141,-10.1853 2.9035,-2.95007 6.2755,-5.29134 10.115,-7.02425 3.84,-1.73255 7.9611,-2.59829 12.3632,-2.59829 5.6206,0 10.912,1.42818 15.8758,4.28449 4.9645,2.85634 8.8981,6.81362 11.8013,11.87079 0.3746,0.65546 0.7261,1.45098 1.0537,2.38803 0.3279,0.93627 0.4915,1.82625 0.4915,2.66882 0,2.62216 -0.936,4.87008 -2.8098,6.74341 -1.8735,1.87295 -4.1205,2.80929 -6.7438,2.80929 -2.0603,0 -3.7459,-0.5382 -5.0569,-1.6153 -1.3117,-1.07676 -2.4826,-2.41115 -3.5127,-4.00364 -1.1238,-1.87261 -2.6455,-3.37167 -4.5656,-4.49548 -1.9202,-1.12379 -4.098,-1.6855 -6.5335,-1.6855 -1.7794,0 -3.4415,0.32825 -4.987,0.98371 -1.5452,0.65615 -2.9036,1.56894 -4.0745,2.73978 -1.1702,1.17011 -2.1073,2.55122 -2.8094,4.14368 -0.7033,1.59249 -1.0537,3.27797 -1.0537,5.05721 v 25.84838 c 0,1.77994 0.3511,3.46579 1.0537,5.05755 0.7029,1.59211 1.6392,2.97393 2.8094,4.14441 1.1709,1.17081 2.529,2.08358 4.0745,2.73939 1.5455,0.65547 3.2076,0.98407 4.987,0.98407 2.4355,0 4.5898,-0.56173 6.4629,-1.6862 1.8734,-1.12345 3.419,-2.62181 4.6362,-4.49512 1.0301,-1.59176 2.1073,-2.90373 3.2312,-3.9334 1.1238,-1.03007 2.9509,-1.54544 5.4798,-1.54544 z m -93.5022,-40.17773 c -2.2477,0 -4.144,0.82012 -5.6895,2.45819 -1.5455,1.63916 -2.3653,3.67608 -2.4591,6.11147 0.094,2.15382 0.9129,4.00362 2.4591,5.54904 1.5455,1.54541 3.4418,2.31742 5.6895,2.31742 h 9.5537 c 3.4656,0 6.8136,0.70251 10.0451,2.10714 3.2315,1.40533 6.1108,3.3489 8.6401,5.83026 2.5283,2.48135 4.5421,5.38546 6.041,8.70976 1.4985,3.32464 2.2477,6.85993 2.2477,10.60692 0,3.65256 -0.7029,7.11728 -2.1069,10.39523 -1.4051,3.27798 -3.3252,6.13429 -5.7608,8.56898 -2.4349,2.43538 -5.291,4.37823 -8.5696,5.82992 -3.2781,1.45238 -6.7908,2.22509 -10.5366,2.3181 h -25.0079 c -2.8094,0 -5.1038,-0.91277 -6.8839,-2.73907 -1.7793,-1.82661 -2.6694,-4.09732 -2.6694,-6.81358 0,-2.52878 0.9129,-4.72894 2.7393,-6.60263 1.8271,-1.87332 4.0983,-2.8096 6.814,-2.8096 h 25.0079 c 2.1539,0 4.0737,-0.79554 5.76,-2.38836 1.686,-1.59174 2.5286,-3.51178 2.5286,-5.75899 0,-2.34163 -0.8195,-4.28519 -2.4584,-5.83061 -1.6392,-1.54541 -3.5362,-2.36446 -5.6902,-2.45819 h -9.6937 c -3.5594,-0.0942 -6.9777,-0.8426 -10.2559,-2.24792 -3.2778,-1.40463 -6.1578,-3.30149 -8.6404,-5.68911 -2.4819,-2.38872 -4.4719,-5.22152 -5.9704,-8.49948 -1.4988,-3.27795 -2.248,-6.83711 -2.248,-10.67681 0,-3.46541 0.7018,-6.83641 2.1072,-10.11438 1.4048,-3.27796 3.3484,-6.18094 5.8303,-8.71044 2.4819,-2.5284 5.3627,-4.56533 8.6405,-6.11074 3.2782,-1.54543 6.7902,-2.31745 10.5367,-2.31745 h 25.0071 c 2.5289,0 4.6829,0.9128 6.4626,2.73907 1.78,1.8263 2.7631,4.09703 2.951,6.81327 0,2.71622 -0.8908,4.9638 -2.6705,6.7434 -1.7786,1.77921 -4.0267,2.66849 -6.7431,2.66849 h -25.0071 z m -155.36,70.94323 c -2.5292,0 -4.6365,-0.82011 -6.3221,-2.4589 -1.6856,-1.63847 -2.8102,-3.80952 -2.8102,-6.53242 v -25.98915 c 0,-4.4962 1.054,-8.73256 2.8804,-12.71339 1.8257,-3.97974 4.2612,-7.44551 7.3049,-10.39523 3.0443,-2.95003 6.6037,-5.29171 10.6782,-7.02424 4.0737,-1.73184 8.4034,-2.76119 12.9951,-2.87983 2.6206,-0.068 4.8002,0.88996 6.5328,2.66952 1.7323,1.77923 2.7866,3.9285 2.8797,6.46185 0.093,2.52668 -0.89,4.65979 -2.6694,6.3916 -1.779,1.73257 -3.9793,2.68851 -6.6031,2.73979 -2.1535,0.0424 -4.1674,0.39845 -6.0409,1.19399 -1.8727,0.79587 -3.5127,1.89614 -4.9174,3.30147 -1.4048,1.40464 -2.5286,3.06696 -3.3712,4.98699 -0.843,1.92 -1.2647,4.00435 -1.2647,6.25154 v 25.56753 c 0,2.44134 -1.1007,4.44877 -2.7392,6.04054 -1.6389,1.59211 -3.8171,2.38834 -6.5335,2.38834 z m -43.909,-70.94323 v 19.1057 h 18.4048 c 2.7157,0 4.9641,0.93702 6.7438,2.80927 1.7787,1.87333 2.6694,4.12122 2.6694,6.74339 0,2.62181 -0.89,4.84688 -2.6694,6.67247 -1.78,1.82627 -4.0281,2.73905 -6.7438,2.73905 h -18.4048 v 23.1799 c 0,2.71554 -0.9128,4.98733 -2.7392,6.81358 -1.8264,1.82561 -4.0976,2.73907 -6.8133,2.73907 -2.7165,0 -4.9888,-0.91277 -6.8145,-2.73907 -1.8264,-1.82625 -2.7392,-4.09732 -2.7392,-6.81358 v -70.66203 c 0,-2.43468 0.9143,-4.63624 2.7392,-6.60261 1.8264,-1.96636 4.098,-2.95007 6.8145,-2.95007 h 37.3705 c 2.622,0 4.8465,0.93668 6.6729,2.80929 1.8257,1.87331 2.7393,4.12125 2.7393,6.74339 0,2.71588 -0.9129,4.96416 -2.7393,6.74306 -1.8257,1.77921 -4.0516,2.66919 -6.6729,2.66919 z"
       style="clip-rule:evenodd;fill:#ffffff;fill-rule:nonzero;stroke-width:0.351084;stroke-miterlimit:10"
       id="path1110" />
    <g
       transform="translate(22.214258,208.04834)"
       inkscape:label="#frog"
       id="frog">
      <circle
         id="ellipse1112"
         style="clip-rule:evenodd;fill:#ffffff;fill-rule:evenodd;stroke-width:0.351653;stroke-miterlimit:10"
         cy="998.46198"
         cx="-64.135002"
         r="44" />
      <path
         id="innerfrog"
         style="clip-rule:evenodd;fill:#13a1dc;fill-rule:nonzero;stroke-width:0.351653;stroke-miterlimit:10"
         d="m -49.531201,973.16401 c 2.349734,1.42385 1.102752,5.49072 1.809976,8.17245 0.39633,1.619 0.990975,3.63751 -0.397031,4.98011 -1.292354,1.00047 -3.73143,0.8774 -4.260671,2.41763 -0.680782,1.98227 1.227651,5.14997 3.892186,4.9766 3.308658,-0.91817 5.97209,-3.37938 8.330338,-5.76923 2.333909,-2.38844 1.553869,-4.26522 1.331616,-7.21594 -0.09916,-1.31448 1.061287,-2.9581 2.066684,-2.23229 2.15813,1.55888 -1.302169,5.09159 1.229454,5.77204 2.590617,0.69627 3.74405,-6.70674 6.151476,-3.64876 1.48496,1.88416 -4.303539,3.57913 -2.864552,5.25477 1.295458,1.39958 2.842417,-2.58784 5.235319,-1.14816 0.474054,0.28485 0.854258,1.00363 0.587334,1.49558 -1.403831,2.58045 -4.677033,0.33056 -5.034301,2.43451 -0.416662,2.45349 5.324061,-0.16317 4.886266,3.04672 -0.571809,4.20263 -6.419101,-1.71113 -10.788445,0.71984 -4.32287,2.40496 -6.17291,7.54122 -10.663146,9.51932 -2.609346,1.1502 -4.912607,-1.5811 -7.358794,-2.28545 -0.586532,3.95925 -3.193275,6.94275 -5.771672,9.79605 -2.298353,6.2176 12.778807,-1.7664 10.773621,5.6233 -1.276429,4.704 -7.493709,2.8519 -11.407629,5.5371 -0.523932,3.4694 2.454902,4.8711 4.873545,6.104 3.82598,1.951 1.078214,2.9852 0.126201,2.0287 -2.035034,-2.0466 -2.168246,-0.5823 -1.822597,-0.1969 1.37809,1.5385 0.558388,0.8746 3.367051,3.0056 1.493173,1.133 0.07612,3.1413 -1.355254,2.2358 -2.085314,-2.111 -2.523109,-4.3422 -3.688461,-3.9716 -1.56068,0.5644 0.955118,2.0477 1.908032,5.3455 0.82461,2.8533 -2.98274,3.1449 -2.711609,0.5584 0.302781,-2.8828 -0.854158,-4.6836 -1.532436,-4.6506 -0.914353,0.045 0.870985,5.7133 -1.288547,5.5115 -2.048355,-0.1903 -0.96914,-3.7103 -0.852054,-4.1182 1.199205,-4.191 0.502198,-4.159 -1.453711,-8.054 -0.988871,-1.9706 -6.117021,-5.9197 -3.352327,-7.6671 9.494989,-2.9982 -1.269818,-2.6905 -2.13349,-4.8113 0,-0.3344 -0.03205,-0.3531 -0.321011,-0.1853 -2.269206,0.3119 -7.384735,-9.1648 -5.233717,0.5581 -0.130808,3.2682 -6.114917,0.8017 -8.316616,0.9301 -4.350614,0.2535 -4.671725,-0.365 -7.700838,2.7682 -0.294368,0.3049 -2.803756,2.9993 -3.993346,1.3205 -1.253292,-1.7685 4.547226,-3.057 4.129061,-3.8714 -0.310193,-0.6041 -2.448491,-0.7047 -4.794118,0.9987 -2.103246,1.5283 -3.754266,-1.9158 -0.870984,-2.6279 3.332295,-0.8229 5.875437,0.6143 5.583873,-1.0205 -0.262617,-1.1949 -2.413034,-0.4582 -5.284297,-1.2083 -1.499788,-0.787 -0.469847,-3.0186 1.2589,-2.2917 3.248963,1.3669 2.2654,0.9892 4.286011,1.4136 0.506005,0.1063 1.708315,-0.7402 -1.08242,-1.4804 -1.303972,-0.3457 -1.782132,-3.2423 1.820493,-0.9041 2.277319,1.4776 4.980515,3.3568 7.723074,1.1685 0.368485,-4.7326 -4.344004,-9.19047 -0.908344,-12.64794 5.396877,-5.43128 6.021069,11.61794 10.256299,6.51724 1.18268,-3.65864 2.462714,-7.40868 5.597696,-9.89558 -1.832512,-1.76671 -5.349401,-2.39476 -5.657791,-5.23014 -0.532446,-4.87814 2.991153,-9.0477 2.912428,-13.99407 -0.07913,-4.99981 -8.125012,-7.10694 -4.771282,-9.70355 2.561771,-1.98332 3.165931,4.29652 5.082076,2.7088 1.643712,-1.36197 -1.940784,-3.07205 -0.408549,-5.57688 0.292164,-0.4779 1.104855,-0.50744 1.589125,-0.23983 2.442882,1.35352 -0.236676,4.68615 1.62318,5.10847 2.170749,0.40758 0.745184,-5.45204 3.118856,-5.10918 3.852021,0.55667 -1.98225,5.25724 -0.08413,7.15266 1.855349,1.85215 3.185362,-2.91101 5.61312,-1.82123 1.131999,0.50779 0.288058,2.33464 -0.89983,2.90536 -2.666938,1.2832 -4.68194,1.54623 -5.582872,4.76176 -0.890415,3.23733 -1.690787,6.77425 -0.83062,10.09844 1.181879,2.39511 4.878854,2.46228 6.255241,0.883 1.068698,-1.22868 -0.256708,-3.27882 -0.03706,-4.89853 0.469446,-1.87396 2.514296,-2.36805 4.114739,-2.83468 2.676053,-0.72759 5.574759,-3.84182 7.982886,-2.51821 z"
         inkscape:label="#innerfrog" />
    </g>
    <g
       transform="matrix(0.23480341,0,0,0.23480341,1175.2121,-510.92339)"
       id="g360"
       style="clip-rule:evenodd;fill-rule:evenodd;stroke-miterlimit:10">
      <g
         transform="matrix(283.333,0,0,283.333,825.06,6316.75)"
         id="g298">
        <path
           d="m 0.087,-0.232 c 0,0.023 0.005,0.045 0.014,0.066 0.009,0.021 0.021,0.039 0.036,0.054 0.015,0.015 0.033,0.027 0.054,0.036 0.021,0.009 0.043,0.014 0.066,0.014 0.032,0 0.061,-0.008 0.087,-0.024 0.026,-0.015 0.046,-0.036 0.061,-0.061 0.005,-0.007 0.011,-0.012 0.02,-0.014 0.008,-0.002 0.016,-0.001 0.023,0.003 0.007,0.005 0.012,0.011 0.014,0.02 0.002,0.009 0.001,0.017 -0.004,0.025 C 0.438,-0.079 0.41,-0.052 0.375,-0.031 0.339,-0.01 0.3,0 0.257,0 0.225,0 0.195,-0.006 0.167,-0.018 0.138,-0.03 0.114,-0.047 0.093,-0.068 0.071,-0.089 0.055,-0.113 0.043,-0.141 0.031,-0.17 0.025,-0.2 0.025,-0.232 v -0.181 c 0,-0.032 0.006,-0.062 0.018,-0.09 0.012,-0.029 0.028,-0.054 0.05,-0.075 0.021,-0.021 0.045,-0.037 0.074,-0.049 0.028,-0.013 0.058,-0.019 0.09,-0.019 0.043,0 0.082,0.011 0.118,0.032 0.035,0.021 0.063,0.049 0.083,0.084 0.004,0.007 0.005,0.015 0.004,0.024 C 0.46,-0.497 0.455,-0.491 0.448,-0.486 0.441,-0.482 0.433,-0.481 0.425,-0.483 0.416,-0.485 0.409,-0.49 0.404,-0.498 0.389,-0.523 0.369,-0.544 0.343,-0.56 0.317,-0.576 0.288,-0.584 0.257,-0.584 0.234,-0.584 0.212,-0.58 0.191,-0.571 0.17,-0.562 0.152,-0.549 0.137,-0.534 0.122,-0.518 0.11,-0.5 0.101,-0.479 0.092,-0.458 0.087,-0.436 0.087,-0.413 Z"
           style="fill:#ffffff;fill-rule:nonzero"
           id="path296" />
      </g>
      <g
         transform="matrix(283.333,0,0,283.333,962.477,6316.75)"
         id="g302">
        <path
           d="m 0.224,-0.031 c 0,0.009 -0.003,0.016 -0.009,0.022 C 0.209,-0.003 0.202,0 0.193,0 0.162,-0.001 0.137,-0.007 0.116,-0.018 0.095,-0.029 0.079,-0.043 0.066,-0.06 0.053,-0.077 0.043,-0.094 0.038,-0.113 0.032,-0.132 0.029,-0.148 0.029,-0.163 v -0.453 c 0,-0.009 0.003,-0.016 0.009,-0.022 0.006,-0.006 0.013,-0.009 0.022,-0.009 0.009,0 0.016,0.003 0.022,0.009 0.006,0.006 0.009,0.013 0.009,0.022 v 0.453 c 0,0.005 0.001,0.013 0.004,0.024 0.002,0.011 0.007,0.022 0.014,0.033 0.007,0.011 0.018,0.021 0.031,0.03 0.013,0.009 0.031,0.013 0.053,0.014 0.009,0 0.016,0.003 0.022,0.009 0.006,0.006 0.009,0.013 0.009,0.022 z"
           style="fill:#ffffff;fill-rule:nonzero"
           id="path300" />
      </g>
      <g
         transform="matrix(283.333,0,0,283.333,1016.88,6316.75)"
         id="g306">
        <path
           d="m 0.265,-0.484 c 0.032,0 0.063,0.007 0.092,0.019 0.029,0.013 0.054,0.031 0.076,0.053 0.022,0.022 0.039,0.048 0.053,0.077 0.013,0.029 0.019,0.061 0.019,0.094 0,0.033 -0.006,0.063 -0.019,0.092 -0.013,0.03 -0.03,0.055 -0.051,0.077 C 0.413,-0.05 0.387,-0.033 0.358,-0.02 0.329,-0.007 0.297,-0.001 0.263,-0.001 0.23,-0.001 0.199,-0.007 0.17,-0.019 0.141,-0.031 0.115,-0.048 0.093,-0.069 0.071,-0.09 0.054,-0.116 0.041,-0.145 0.028,-0.174 0.022,-0.206 0.022,-0.241 c 0,-0.033 0.006,-0.065 0.019,-0.094 0.012,-0.029 0.029,-0.054 0.051,-0.075 0.021,-0.022 0.047,-0.04 0.077,-0.053 0.029,-0.012 0.061,-0.02 0.096,-0.021 z m -0.181,0.243 c 0,0.025 0.005,0.048 0.014,0.069 0.009,0.022 0.022,0.041 0.039,0.057 0.016,0.017 0.035,0.03 0.057,0.039 0.021,0.009 0.044,0.014 0.069,0.014 0.025,0 0.048,-0.005 0.07,-0.014 0.022,-0.009 0.041,-0.022 0.058,-0.039 0.016,-0.016 0.029,-0.035 0.038,-0.057 0.009,-0.021 0.014,-0.044 0.014,-0.069 0,-0.025 -0.005,-0.048 -0.014,-0.07 C 0.42,-0.333 0.407,-0.352 0.391,-0.369 0.374,-0.385 0.355,-0.398 0.333,-0.407 0.311,-0.416 0.288,-0.421 0.263,-0.421 c -0.025,0 -0.048,0.005 -0.069,0.014 -0.022,0.009 -0.041,0.022 -0.057,0.038 -0.017,0.017 -0.03,0.036 -0.039,0.058 -0.009,0.022 -0.014,0.045 -0.014,0.07 z"
           style="fill:#ffffff;fill-rule:nonzero"
           id="path304" />
      </g>
      <g
         transform="matrix(283.333,0,0,283.333,1166.19,6316.75)"
         id="g310">
        <path
           d="m 0.027,-0.455 c 0,-0.009 0.003,-0.016 0.009,-0.022 0.006,-0.006 0.013,-0.009 0.022,-0.009 0.009,0 0.016,0.003 0.022,0.009 0.006,0.006 0.009,0.013 0.009,0.022 v 0.214 c 0,0.025 0.005,0.048 0.014,0.069 0.009,0.022 0.022,0.041 0.038,0.057 0.017,0.017 0.036,0.03 0.058,0.039 0.021,0.009 0.044,0.014 0.069,0.014 0.025,0 0.048,-0.005 0.07,-0.014 0.021,-0.009 0.04,-0.022 0.057,-0.039 0.016,-0.016 0.029,-0.035 0.038,-0.057 0.009,-0.021 0.014,-0.044 0.014,-0.069 v -0.214 c 0,-0.009 0.003,-0.016 0.009,-0.022 0.006,-0.006 0.013,-0.009 0.022,-0.009 0.009,0 0.016,0.003 0.022,0.009 0.006,0.006 0.009,0.013 0.009,0.022 v 0.214 c 0,0.033 -0.006,0.065 -0.019,0.094 C 0.477,-0.118 0.46,-0.092 0.439,-0.07 0.417,-0.049 0.391,-0.032 0.362,-0.019 0.333,-0.006 0.301,0 0.268,0 0.235,0 0.203,-0.006 0.174,-0.019 0.145,-0.032 0.119,-0.049 0.098,-0.07 0.076,-0.092 0.059,-0.118 0.046,-0.147 0.033,-0.176 0.027,-0.208 0.027,-0.241 Z"
           style="fill:#ffffff;fill-rule:nonzero"
           id="path308" />
      </g>
      <g
         transform="matrix(283.333,0,0,283.333,1318.06,6316.75)"
         id="g314">
        <path
           d="m 0.248,-0.484 c 0.037,0.001 0.071,0.011 0.102,0.028 0.031,0.018 0.057,0.039 0.079,0.063 v -0.221 c 0,-0.009 0.003,-0.016 0.009,-0.022 0.006,-0.006 0.013,-0.009 0.022,-0.009 0.009,0 0.016,0.003 0.022,0.009 0.006,0.006 0.009,0.013 0.009,0.022 v 0.373 c 0,0.035 -0.006,0.067 -0.019,0.096 -0.013,0.029 -0.03,0.055 -0.052,0.076 -0.022,0.021 -0.048,0.038 -0.077,0.05 -0.029,0.012 -0.06,0.018 -0.093,0.018 -0.034,0 -0.066,-0.006 -0.095,-0.019 C 0.126,-0.033 0.1,-0.05 0.079,-0.072 0.057,-0.094 0.04,-0.119 0.027,-0.149 0.014,-0.178 0.008,-0.208 0.008,-0.241 c 0,-0.033 0.007,-0.065 0.02,-0.094 0.013,-0.029 0.03,-0.055 0.052,-0.077 0.022,-0.022 0.048,-0.04 0.077,-0.053 0.029,-0.012 0.059,-0.019 0.091,-0.019 z m 0.181,0.243 C 0.428,-0.267 0.422,-0.291 0.412,-0.313 0.403,-0.335 0.39,-0.354 0.374,-0.37 0.358,-0.386 0.339,-0.399 0.318,-0.407 0.297,-0.417 0.274,-0.421 0.25,-0.421 c -0.025,0 -0.048,0.005 -0.07,0.014 -0.022,0.009 -0.041,0.022 -0.057,0.038 -0.017,0.017 -0.03,0.036 -0.039,0.058 -0.009,0.022 -0.014,0.045 -0.014,0.07 0,0.025 0.005,0.048 0.014,0.069 0.009,0.022 0.022,0.041 0.039,0.057 0.016,0.017 0.035,0.03 0.057,0.039 0.022,0.009 0.045,0.014 0.07,0.014 0.025,0 0.048,-0.005 0.07,-0.014 0.021,-0.009 0.04,-0.022 0.057,-0.039 0.016,-0.016 0.029,-0.035 0.038,-0.057 0.009,-0.021 0.014,-0.044 0.014,-0.069 z"
           style="fill:#ffffff;fill-rule:nonzero"
           id="path312" />
      </g>
      <g
         transform="matrix(283.333,0,0,283.333,1538.78,6316.75)"
         id="g318">
        <path
           d="m 0.032,-0.614 c 0,-0.009 0.003,-0.016 0.009,-0.022 0.006,-0.006 0.013,-0.009 0.022,-0.009 h 0.354 c 0.009,0 0.016,0.003 0.022,0.009 0.006,0.006 0.009,0.013 0.009,0.022 0,0.009 -0.003,0.016 -0.009,0.022 -0.006,0.006 -0.013,0.009 -0.022,0.009 H 0.094 v 0.223 h 0.232 c 0.009,0 0.016,0.003 0.022,0.009 0.006,0.006 0.009,0.013 0.009,0.022 0,0.009 -0.003,0.016 -0.009,0.022 -0.006,0.006 -0.013,0.009 -0.022,0.009 H 0.094 v 0.236 h 0.323 c 0.009,0 0.016,0.003 0.022,0.009 0.006,0.006 0.009,0.013 0.009,0.022 0,0.009 -0.003,0.016 -0.009,0.022 C 0.433,-0.003 0.426,0 0.417,0 H 0.063 C 0.054,0 0.047,-0.003 0.041,-0.009 0.035,-0.015 0.032,-0.022 0.032,-0.031 Z"
           style="fill:#ffffff;fill-rule:nonzero"
           id="path316" />
      </g>
      <g
         transform="matrix(283.333,0,0,283.333,1654.38,6316.75)"
         id="g322">
        <path
           d="m 0.248,-0.484 c 0.037,0.001 0.071,0.011 0.102,0.028 0.031,0.018 0.057,0.039 0.079,0.063 v -0.221 c 0,-0.009 0.003,-0.016 0.009,-0.022 0.006,-0.006 0.013,-0.009 0.022,-0.009 0.009,0 0.016,0.003 0.022,0.009 0.006,0.006 0.009,0.013 0.009,0.022 v 0.373 c 0,0.035 -0.006,0.067 -0.019,0.096 -0.013,0.029 -0.03,0.055 -0.052,0.076 -0.022,0.021 -0.048,0.038 -0.077,0.05 -0.029,0.012 -0.06,0.018 -0.093,0.018 -0.034,0 -0.066,-0.006 -0.095,-0.019 C 0.126,-0.033 0.1,-0.05 0.079,-0.072 0.057,-0.094 0.04,-0.119 0.027,-0.149 0.014,-0.178 0.008,-0.208 0.008,-0.241 c 0,-0.033 0.007,-0.065 0.02,-0.094 0.013,-0.029 0.03,-0.055 0.052,-0.077 0.022,-0.022 0.048,-0.04 0.077,-0.053 0.029,-0.012 0.059,-0.019 0.091,-0.019 z m 0.181,0.243 C 0.428,-0.267 0.422,-0.291 0.412,-0.313 0.403,-0.335 0.39,-0.354 0.374,-0.37 0.358,-0.386 0.339,-0.399 0.318,-0.407 0.297,-0.417 0.274,-0.421 0.25,-0.421 c -0.025,0 -0.048,0.005 -0.07,0.014 -0.022,0.009 -0.041,0.022 -0.057,0.038 -0.017,0.017 -0.03,0.036 -0.039,0.058 -0.009,0.022 -0.014,0.045 -0.014,0.07 0,0.025 0.005,0.048 0.014,0.069 0.009,0.022 0.022,0.041 0.039,0.057 0.016,0.017 0.035,0.03 0.057,0.039 0.022,0.009 0.045,0.014 0.07,0.014 0.025,0 0.048,-0.005 0.07,-0.014 0.021,-0.009 0.04,-0.022 0.057,-0.039 0.016,-0.016 0.029,-0.035 0.038,-0.057 0.009,-0.021 0.014,-0.044 0.014,-0.069 z"
           style="fill:#ffffff;fill-rule:nonzero"
           id="path320" />
      </g>
      <g
         transform="matrix(283.333,0,0,283.333,1801.71,6316.75)"
         id="g326">
        <path
           d="m 0.028,-0.454 c 0,-0.009 0.003,-0.016 0.009,-0.022 0.006,-0.006 0.013,-0.009 0.022,-0.009 0.009,0 0.016,0.003 0.022,0.009 0.006,0.006 0.009,0.013 0.009,0.022 v 0.423 c 0,0.009 -0.003,0.016 -0.009,0.022 C 0.075,-0.003 0.068,0 0.059,0 0.05,0 0.043,-0.003 0.037,-0.009 0.031,-0.015 0.028,-0.022 0.028,-0.031 Z m -0.01,-0.139 c 0,-0.011 0.004,-0.021 0.012,-0.029 0.008,-0.008 0.018,-0.012 0.029,-0.012 0.011,0 0.021,0.004 0.029,0.012 0.008,0.008 0.012,0.018 0.012,0.029 0,0.011 -0.004,0.021 -0.012,0.029 C 0.08,-0.556 0.07,-0.552 0.059,-0.552 0.048,-0.552 0.038,-0.556 0.03,-0.564 0.022,-0.572 0.018,-0.582 0.018,-0.593 Z"
           style="fill:#ffffff;fill-rule:nonzero"
           id="path324" />
      </g>
      <g
         transform="matrix(283.333,0,0,283.333,1835.14,6316.75)"
         id="g330">
        <path
           d="m 0.028,-0.616 c 0,-0.009 0.003,-0.016 0.009,-0.022 0.006,-0.006 0.013,-0.009 0.022,-0.009 0.009,0 0.016,0.003 0.022,0.009 0.006,0.006 0.009,0.013 0.009,0.022 v 0.128 h 0.221 c 0.011,0 0.019,0.003 0.026,0.009 0.006,0.006 0.009,0.013 0.009,0.022 0,0.009 -0.003,0.016 -0.009,0.022 -0.007,0.006 -0.015,0.009 -0.026,0.009 H 0.09 v 0.185 c 0,0.025 0.005,0.048 0.014,0.069 0.009,0.022 0.022,0.041 0.038,0.057 0.017,0.017 0.036,0.03 0.058,0.039 0.021,0.009 0.044,0.014 0.069,0.014 0.025,0 0.048,-0.005 0.069,-0.014 0.021,-0.009 0.04,-0.021 0.056,-0.037 0.005,-0.006 0.012,-0.01 0.02,-0.011 0.009,-0.001 0.017,0.002 0.024,0.007 0.005,0.005 0.009,0.012 0.01,0.02 0.001,0.008 0,0.016 -0.005,0.023 C 0.421,-0.051 0.395,-0.033 0.365,-0.02 0.335,-0.007 0.303,0 0.269,0 0.236,0 0.204,-0.006 0.175,-0.019 0.146,-0.032 0.12,-0.049 0.099,-0.07 0.077,-0.092 0.06,-0.118 0.047,-0.147 0.034,-0.176 0.028,-0.208 0.028,-0.241 Z"
           style="fill:#ffffff;fill-rule:nonzero"
           id="path328" />
      </g>
      <g
         transform="matrix(283.333,0,0,283.333,1963.21,6316.75)"
         id="g334">
        <path
           d="m 0.028,-0.454 c 0,-0.009 0.003,-0.016 0.009,-0.022 0.006,-0.006 0.013,-0.009 0.022,-0.009 0.009,0 0.016,0.003 0.022,0.009 0.006,0.006 0.009,0.013 0.009,0.022 v 0.423 c 0,0.009 -0.003,0.016 -0.009,0.022 C 0.075,-0.003 0.068,0 0.059,0 0.05,0 0.043,-0.003 0.037,-0.009 0.031,-0.015 0.028,-0.022 0.028,-0.031 Z m -0.01,-0.139 c 0,-0.011 0.004,-0.021 0.012,-0.029 0.008,-0.008 0.018,-0.012 0.029,-0.012 0.011,0 0.021,0.004 0.029,0.012 0.008,0.008 0.012,0.018 0.012,0.029 0,0.011 -0.004,0.021 -0.012,0.029 C 0.08,-0.556 0.07,-0.552 0.059,-0.552 0.048,-0.552 0.038,-0.556 0.03,-0.564 0.022,-0.572 0.018,-0.582 0.018,-0.593 Z"
           style="fill:#ffffff;fill-rule:nonzero"
           id="path332" />
      </g>
      <g
         transform="matrix(283.333,0,0,283.333,1996.64,6316.75)"
         id="g338">
        <path
           d="m 0.265,-0.484 c 0.032,0 0.063,0.007 0.092,0.019 0.029,0.013 0.054,0.031 0.076,0.053 0.022,0.022 0.039,0.048 0.053,0.077 0.013,0.029 0.019,0.061 0.019,0.094 0,0.033 -0.006,0.063 -0.019,0.092 -0.013,0.03 -0.03,0.055 -0.051,0.077 C 0.413,-0.05 0.387,-0.033 0.358,-0.02 0.329,-0.007 0.297,-0.001 0.263,-0.001 0.23,-0.001 0.199,-0.007 0.17,-0.019 0.141,-0.031 0.115,-0.048 0.093,-0.069 0.071,-0.09 0.054,-0.116 0.041,-0.145 0.028,-0.174 0.022,-0.206 0.022,-0.241 c 0,-0.033 0.006,-0.065 0.019,-0.094 0.012,-0.029 0.029,-0.054 0.051,-0.075 0.021,-0.022 0.047,-0.04 0.077,-0.053 0.029,-0.012 0.061,-0.02 0.096,-0.021 z m -0.181,0.243 c 0,0.025 0.005,0.048 0.014,0.069 0.009,0.022 0.022,0.041 0.039,0.057 0.016,0.017 0.035,0.03 0.057,0.039 0.021,0.009 0.044,0.014 0.069,0.014 0.025,0 0.048,-0.005 0.07,-0.014 0.022,-0.009 0.041,-0.022 0.058,-0.039 0.016,-0.016 0.029,-0.035 0.038,-0.057 0.009,-0.021 0.014,-0.044 0.014,-0.069 0,-0.025 -0.005,-0.048 -0.014,-0.07 C 0.42,-0.333 0.407,-0.352 0.391,-0.369 0.374,-0.385 0.355,-0.398 0.333,-0.407 0.311,-0.416 0.288,-0.421 0.263,-0.421 c -0.025,0 -0.048,0.005 -0.069,0.014 -0.022,0.009 -0.041,0.022 -0.057,0.038 -0.017,0.017 -0.03,0.036 -0.039,0.058 -0.009,0.022 -0.014,0.045 -0.014,0.07 z"
           style="fill:#ffffff;fill-rule:nonzero"
           id="path336" />
      </g>
      <g
         transform="matrix(283.333,0,0,283.333,2145.96,6316.75)"
         id="g342">
        <path
           d="m 0.027,-0.245 c 0,-0.033 0.006,-0.065 0.019,-0.094 0.013,-0.029 0.03,-0.055 0.052,-0.077 0.021,-0.021 0.047,-0.038 0.076,-0.051 0.029,-0.013 0.061,-0.019 0.094,-0.019 0.033,0 0.065,0.006 0.094,0.019 0.029,0.013 0.055,0.03 0.077,0.051 0.021,0.022 0.038,0.048 0.051,0.077 0.013,0.029 0.019,0.061 0.019,0.094 v 0.214 c 0,0.009 -0.003,0.016 -0.009,0.022 C 0.494,-0.003 0.487,0 0.478,0 0.469,0 0.462,-0.003 0.456,-0.009 0.45,-0.015 0.447,-0.022 0.447,-0.031 V -0.245 C 0.447,-0.27 0.442,-0.293 0.433,-0.315 0.424,-0.336 0.411,-0.355 0.395,-0.372 0.378,-0.388 0.359,-0.401 0.338,-0.41 0.316,-0.419 0.293,-0.424 0.268,-0.424 c -0.025,0 -0.048,0.005 -0.069,0.014 -0.022,0.009 -0.041,0.022 -0.058,0.038 -0.016,0.017 -0.029,0.036 -0.038,0.057 -0.009,0.022 -0.014,0.045 -0.014,0.07 v 0.214 c 0,0.009 -0.003,0.016 -0.009,0.022 C 0.074,-0.003 0.067,0 0.058,0 0.049,0 0.042,-0.003 0.036,-0.009 0.03,-0.015 0.027,-0.022 0.027,-0.031 Z"
           style="fill:#ffffff;fill-rule:nonzero"
           id="path340" />
      </g>
      <g
         transform="matrix(283.333,0,0,283.333,2371.21,6316.75)"
         id="g346">
        <path
           d="M 0.035,-0.331 C 0.036,-0.352 0.041,-0.372 0.051,-0.391 0.061,-0.41 0.075,-0.426 0.092,-0.44 0.109,-0.454 0.13,-0.465 0.153,-0.473 0.175,-0.481 0.2,-0.485 0.226,-0.485 c 0.026,0 0.051,0.004 0.074,0.013 0.023,0.008 0.044,0.019 0.061,0.033 0.017,0.014 0.031,0.031 0.041,0.05 0.01,0.019 0.015,0.04 0.015,0.062 0,0.023 -0.006,0.045 -0.017,0.064 -0.011,0.02 -0.027,0.037 -0.046,0.051 0,0 -0.001,0.001 -0.005,0.003 C 0.346,-0.206 0.338,-0.2 0.325,-0.191 0.312,-0.182 0.291,-0.167 0.264,-0.147 0.237,-0.126 0.198,-0.098 0.148,-0.062 H 0.4 c 0.009,0 0.016,0.003 0.022,0.009 0.006,0.006 0.009,0.013 0.009,0.022 0,0.009 -0.003,0.016 -0.009,0.022 C 0.416,-0.003 0.409,0 0.4,0 H 0.054 C 0.045,0 0.038,-0.003 0.032,-0.009 0.026,-0.015 0.023,-0.022 0.023,-0.031 c 0,-0.011 0.004,-0.019 0.012,-0.025 0.035,-0.025 0.066,-0.048 0.093,-0.067 0.027,-0.019 0.05,-0.036 0.07,-0.05 0.019,-0.015 0.036,-0.027 0.05,-0.037 0.013,-0.009 0.025,-0.017 0.034,-0.024 0.021,-0.015 0.034,-0.024 0.037,-0.027 0.011,-0.008 0.02,-0.018 0.027,-0.029 0.007,-0.011 0.01,-0.024 0.01,-0.037 0,-0.013 -0.003,-0.025 -0.01,-0.037 C 0.339,-0.376 0.33,-0.386 0.318,-0.395 0.306,-0.404 0.292,-0.411 0.277,-0.416 0.261,-0.421 0.244,-0.424 0.226,-0.424 c -0.019,0 -0.036,0.003 -0.052,0.008 -0.015,0.006 -0.029,0.014 -0.04,0.023 -0.012,0.009 -0.021,0.02 -0.028,0.031 -0.007,0.012 -0.01,0.024 -0.01,0.035 0,0.009 -0.003,0.016 -0.009,0.021 C 0.081,-0.3 0.074,-0.297 0.065,-0.297 0.056,-0.297 0.049,-0.3 0.043,-0.306 0.038,-0.312 0.035,-0.32 0.035,-0.331 Z"
           style="fill:#ffffff;fill-rule:nonzero"
           id="path344" />
      </g>
      <g
         transform="matrix(283.333,0,0,283.333,2495.31,6316.75)"
         id="g350">
        <path
           d="m 0.265,-0.484 c 0.032,0 0.063,0.007 0.092,0.019 0.029,0.013 0.054,0.031 0.076,0.053 0.022,0.022 0.039,0.048 0.053,0.077 0.013,0.029 0.019,0.061 0.019,0.094 0,0.033 -0.006,0.063 -0.019,0.092 -0.013,0.03 -0.03,0.055 -0.051,0.077 C 0.413,-0.05 0.387,-0.033 0.358,-0.02 0.329,-0.007 0.297,-0.001 0.263,-0.001 0.23,-0.001 0.199,-0.007 0.17,-0.019 0.141,-0.031 0.115,-0.048 0.093,-0.069 0.071,-0.09 0.054,-0.116 0.041,-0.145 0.028,-0.174 0.022,-0.206 0.022,-0.241 c 0,-0.033 0.006,-0.065 0.019,-0.094 0.012,-0.029 0.029,-0.054 0.051,-0.075 0.021,-0.022 0.047,-0.04 0.077,-0.053 0.029,-0.012 0.061,-0.02 0.096,-0.021 z m -0.181,0.243 c 0,0.025 0.005,0.048 0.014,0.069 0.009,0.022 0.022,0.041 0.039,0.057 0.016,0.017 0.035,0.03 0.057,0.039 0.021,0.009 0.044,0.014 0.069,0.014 0.025,0 0.048,-0.005 0.07,-0.014 0.022,-0.009 0.041,-0.022 0.058,-0.039 0.016,-0.016 0.029,-0.035 0.038,-0.057 0.009,-0.021 0.014,-0.044 0.014,-0.069 0,-0.025 -0.005,-0.048 -0.014,-0.07 C 0.42,-0.333 0.407,-0.352 0.391,-0.369 0.374,-0.385 0.355,-0.398 0.333,-0.407 0.311,-0.416 0.288,-0.421 0.263,-0.421 c -0.025,0 -0.048,0.005 -0.069,0.014 -0.022,0.009 -0.041,0.022 -0.057,0.038 -0.017,0.017 -0.03,0.036 -0.039,0.058 -0.009,0.022 -0.014,0.045 -0.014,0.07 z"
           style="fill:#ffffff;fill-rule:nonzero"
           id="path348" />
      </g>
      <g
         transform="matrix(283.333,0,0,283.333,2640.09,6316.75)"
         id="g354">
        <path
           d="M 0.035,-0.331 C 0.036,-0.352 0.041,-0.372 0.051,-0.391 0.061,-0.41 0.075,-0.426 0.092,-0.44 0.109,-0.454 0.13,-0.465 0.153,-0.473 0.175,-0.481 0.2,-0.485 0.226,-0.485 c 0.026,0 0.051,0.004 0.074,0.013 0.023,0.008 0.044,0.019 0.061,0.033 0.017,0.014 0.031,0.031 0.041,0.05 0.01,0.019 0.015,0.04 0.015,0.062 0,0.023 -0.006,0.045 -0.017,0.064 -0.011,0.02 -0.027,0.037 -0.046,0.051 0,0 -0.001,0.001 -0.005,0.003 C 0.346,-0.206 0.338,-0.2 0.325,-0.191 0.312,-0.182 0.291,-0.167 0.264,-0.147 0.237,-0.126 0.198,-0.098 0.148,-0.062 H 0.4 c 0.009,0 0.016,0.003 0.022,0.009 0.006,0.006 0.009,0.013 0.009,0.022 0,0.009 -0.003,0.016 -0.009,0.022 C 0.416,-0.003 0.409,0 0.4,0 H 0.054 C 0.045,0 0.038,-0.003 0.032,-0.009 0.026,-0.015 0.023,-0.022 0.023,-0.031 c 0,-0.011 0.004,-0.019 0.012,-0.025 0.035,-0.025 0.066,-0.048 0.093,-0.067 0.027,-0.019 0.05,-0.036 0.07,-0.05 0.019,-0.015 0.036,-0.027 0.05,-0.037 0.013,-0.009 0.025,-0.017 0.034,-0.024 0.021,-0.015 0.034,-0.024 0.037,-0.027 0.011,-0.008 0.02,-0.018 0.027,-0.029 0.007,-0.011 0.01,-0.024 0.01,-0.037 0,-0.013 -0.003,-0.025 -0.01,-0.037 C 0.339,-0.376 0.33,-0.386 0.318,-0.395 0.306,-0.404 0.292,-0.411 0.277,-0.416 0.261,-0.421 0.244,-0.424 0.226,-0.424 c -0.019,0 -0.036,0.003 -0.052,0.008 -0.015,0.006 -0.029,0.014 -0.04,0.023 -0.012,0.009 -0.021,0.02 -0.028,0.031 -0.007,0.012 -0.01,0.024 -0.01,0.035 0,0.009 -0.003,0.016 -0.009,0.021 C 0.081,-0.3 0.074,-0.297 0.065,-0.297 0.056,-0.297 0.049,-0.3 0.043,-0.306 0.038,-0.312 0.035,-0.32 0.035,-0.331 Z"
           style="fill:#ffffff;fill-rule:nonzero"
           id="path352" />
      </g>
      <g
         transform="matrix(283.333,0,0,283.333,2768.16,6316.75)"
         id="g358">
        <path
           d="M 0.006,-0.364 C 0.002,-0.371 0.001,-0.379 0.003,-0.387 0.005,-0.395 0.01,-0.401 0.017,-0.406 l 0.112,-0.071 c 0.013,-0.009 0.025,-0.01 0.037,-0.005 0.011,0.005 0.017,0.015 0.017,0.028 v 0.423 c 0,0.009 -0.003,0.016 -0.009,0.022 C 0.168,-0.003 0.161,0 0.152,0 0.143,0 0.136,-0.003 0.13,-0.009 0.124,-0.015 0.121,-0.022 0.121,-0.031 V -0.397 L 0.049,-0.353 C 0.042,-0.348 0.034,-0.347 0.025,-0.349 0.017,-0.352 0.011,-0.357 0.006,-0.364 Z"
           style="fill:#ffffff;fill-rule:nonzero"
           id="path356" />
      </g>
    </g>
    <flowRoot
       xml:space="preserve"
       id="url-8"
       style="font-style:normal;font-weight:normal;line-height:0.01%;font-family:sans-serif;text-align:end;letter-spacing:0px;word-spacing:0px;text-anchor:end;opacity:1;fill:#000000;fill-opacity:1;stroke:none"
       transform="matrix(1.8789785,0,0,1.8788549,-2034.9167,435.85672)"><flowRegion
         id="flowRegion3817-6"
         style="font-family:sans-serif"><rect
           id="rect3819-0"
           width="486.27167"
           height="22.430193"
           x="790.53937"
           y="312.37131"
           style="font-family:sans-serif;text-align:end;text-anchor:end" /></flowRegion><flowPara
         id="flowPara3821-4"
         style="font-style:normal;font-variant:normal;font-weight:normal;font-stretch:normal;font-size:18px;line-height:125%;font-family:sans-serif;-inkscape-font-specification:Sans;text-align:end;writing-mode:lr-tb;text-anchor:end;fill:#ffffff;fill-opacity:1">21.-22. August 2021</flowPara></flowRoot>
    <path
       sodipodi:nodetypes="cscscscsc"
       inkscape:connector-curvature="0"
       id="animatePath"
       d="m -23.326675,1164.164 c 0,0 141.498995,-479.55655 306.279785,-454.48024 148.97451,22.67087 193.00169,370.20654 193.00169,370.20654 0,0 92.21215,-378.96781 215.85947,-301.2474 101.854,64.02189 122.38218,301.6114 122.38218,301.6114 0,0 109.09706,-396.71979 224.66835,-307.75932 64.9988,50.03245 122.2034,258.86522 122.2034,258.86522 0,0 38.06,-288.26914 208.5967,-291.10302 170.5364,-2.83385 188.8987,184.57192 188.8987,184.57192"
       style="fill:none;stroke:#000000;stroke-width:2.35687px;stroke-linecap:butt;stroke-linejoin:miter;stroke-opacity:1" />
    <g
       transform="matrix(0.15421248,0,0,0.15423844,1239.0605,5.7727245)"
       id="g555"
       style="clip-rule:evenodd;fill-rule:evenodd;stroke-miterlimit:10">
      <g
         id="Pinguin_Body"
         transform="scale(8.33333)">
        <g
           transform="translate(298.343,584.525)"
           id="g379">
          <path
             d="m 0,-512.213 h 16.628 l 21.456,27.175 12.874,54.351 2.146,24.704 20.382,53.954 78.315,104.157 23.601,65.056 h -18.773 l -35.402,-61.762 -23.602,-4.941 14.482,98.82 L 56.322,-18.117 62.223,-4.942 -10.152,0 v -508.919 z"
             style="fill:none;fill-rule:nonzero;stroke:#ffffff;stroke-width:1px"
             id="path377" />
        </g>
        <g
           transform="translate(354.665,325.428)"
           id="g383">
          <path
             d="M 0,240.98 -66.475,151.631 26.303,94.398 41.303,9.579 10.193,0"
             style="fill:none;fill-rule:nonzero;stroke:#ffffff;stroke-width:1px"
             id="path381" />
        </g>
        <g
           transform="translate(288.19,184.718)"
           id="g387">
          <path
             d="M 0,112.407 H 71.838 L 83.639,47.777 0,0"
             style="fill:none;fill-rule:nonzero;stroke:#ffffff;stroke-width:1px"
             id="path385" />
        </g>
        <g
           transform="translate(360.028,339.946)"
           id="g391">
          <path
             d="M 0,-42.821 59.541,0 Z"
             style="fill:none;fill-rule:nonzero;stroke:#ffffff;stroke-width:1px"
             id="path389" />
        </g>
        <g
           transform="translate(380.968,283.872)"
           id="g395">
          <path
             d="M 0,220.023 V 135.954 L -20.939,13.253 29.49,0 l 9.112,56.075 30.574,-3.294 4.828,65.056"
             style="fill:none;fill-rule:nonzero;stroke:#ffffff;stroke-width:1px"
             id="path393" />
        </g>
        <g
           transform="translate(360.028,199.416)"
           id="g399">
          <path
             d="M 0,97.709 -46.108,0 h -25.73"
             style="fill:none;fill-rule:nonzero;stroke:#ffffff;stroke-width:1px"
             id="path397" />
        </g>
        <g
           transform="translate(317.085,173.807)"
           id="g403">
          <path
             d="M 0,23.97 23.637,0 33.485,4.432 Z"
             style="fill:none;fill-rule:nonzero;stroke:#ffffff;stroke-width:1px"
             id="path401" />
        </g>
        <g
           transform="translate(259.267,173.807)"
           id="g407">
          <path
             d="M 0,23.509 -23.724,0 -33.863,4.507 Z"
             style="fill:none;fill-rule:nonzero;stroke:#ffffff;stroke-width:1px"
             id="path405" />
        </g>
        <g
           transform="matrix(-0.605616,0.795757,0.795757,0.605616,255.548,576.052)"
           id="g411">
          <path
             d="M -21.321,-33.009 H 13.001 L 27.059,-29.724 0.198,10.668 Z"
             style="fill:#ffffff;fill-rule:nonzero;stroke:#ffffff;stroke-width:1px"
             id="path409" />
        </g>
        <g
           transform="translate(216.044,339.946)"
           id="g415">
          <path
             d="M 0,-42.821 -59.54,0 Z"
             style="fill:none;fill-rule:nonzero;stroke:#ffffff;stroke-width:1px"
             id="path413" />
        </g>
        <g
           transform="translate(195.105,283.872)"
           id="g419">
          <path
             d="M 0,220.023 V 135.954 L 20.939,13.253 -29.491,0 l -9.11,56.075 -30.575,-3.294 -4.827,65.056"
             style="fill:none;fill-rule:nonzero;stroke:#ffffff;stroke-width:1px"
             id="path417" />
        </g>
        <g
           transform="translate(287.883,184.718)"
           id="g423">
          <path
             d="M 0,112.407 H -71.838 L -83.639,47.777 0,0"
             style="fill:none;fill-rule:nonzero;stroke:#ffffff;stroke-width:1px"
             id="path421" />
        </g>
        <g
           transform="translate(216.044,199.416)"
           id="g427">
          <path
             d="M 0,97.709 46.109,0 h 25.729"
             style="fill:none;fill-rule:nonzero;stroke:#ffffff;stroke-width:1px"
             id="path425" />
        </g>
        <g
           transform="matrix(0.605598,0.795771,0.795771,-0.605598,351.659,545.714)"
           id="g431">
          <path
             d="M -16.36,-10.567 H 17.962 L 32.02,-13.851 5.16,-54.245 Z"
             style="fill:#ffffff;fill-rule:nonzero;stroke:#ffffff;stroke-width:1px"
             id="path429" />
        </g>
        <g
           transform="translate(277.73,584.525)"
           id="g435">
          <path
             d="m 0,-512.213 h -16.628 l -21.456,27.175 -12.874,54.351 -2.146,24.704 -20.383,53.954 -78.314,104.157 -23.602,65.056 h 18.775 l 35.402,-61.762 23.601,-4.941 -14.482,98.82 55.785,132.582 -5.901,13.175 L 10.152,0 v -508.919 z"
             style="fill:none;fill-rule:nonzero;stroke:#ffffff;stroke-width:1px"
             id="path433" />
        </g>
        <g
           transform="translate(221.408,325.428)"
           id="g439">
          <path
             d="M 0,240.98 66.475,151.631 -26.303,94.398 -41.303,9.579 -10.193,0"
             style="fill:none;fill-rule:nonzero;stroke:#ffffff;stroke-width:1px"
             id="path437" />
        </g>
        <g
           transform="translate(261.102,128.07)"
           id="g443">
          <path
             d="M 0,-55.758 H 53.869 L 75.494,-26.703 47.27,0 27.758,-14.944 Z"
             style="fill:#ffffff;fill-rule:nonzero;stroke:#ffffff;stroke-width:1px"
             id="path441" />
        </g>
        <g
           transform="translate(314.263,128.18)"
           id="g447">
          <path
             d="M 0,-55.688 H -53.87 L -75.042,-26.469 -45.761,0 -26.709,-15.063 Z"
             style="fill:#ffffff;fill-rule:nonzero;stroke:#ffffff;stroke-width:1px"
             id="path445" />
        </g>
        <g
           transform="matrix(-0.825823,1.37326,0.856979,0.515351,305.673,154.286)"
           id="g451">
          <path
             d="M -19.801,-11.198 H 6.333"
             style="fill:none;fill-rule:nonzero;stroke:#ffffff;stroke-width:0.75px"
             id="path449" />
        </g>
        <g
           transform="translate(235.355,102.116)"
           id="g455">
          <path
             d="M 0,71.691 3.657,0 -8.583,51.721 0,71.305"
             style="fill:#ffffff;fill-rule:nonzero;stroke:#ffffff;stroke-width:1px"
             id="path453" />
        </g>
        <g
           transform="matrix(-0.0562959,-0.998414,-0.998414,0.0562959,374.71,133.88)"
           id="g459">
          <path
             d="M -37.968,35.887 H 33.921"
             style="fill:none;fill-rule:nonzero;stroke:#ffffff;stroke-width:1px"
             id="path457" />
        </g>
        <g
           transform="translate(321.774,145.168)"
           id="g463">
          <path
             d="M 0,-6.19 C 1.113,-2.067 -0.161,2.661 -2.847,4.371 -5.532,6.08 -8.612,4.123 -9.726,0 c -0.503,-1.862 2.579,-2.611 2.959,-4.386 -0.771,-4.069 -1.585,-5.238 -0.112,-6.175 2.686,-1.709 5.766,0.247 6.879,4.371"
             style="fill:#ffffff;fill-rule:nonzero"
             id="path461" />
        </g>
        <g
           transform="translate(321.774,145.168)"
           id="g467">
          <path
             d="M 0,-6.19 C 1.113,-2.067 -0.161,2.661 -2.847,4.371 -5.532,6.08 -8.612,4.123 -9.726,0 c -0.503,-1.862 2.579,-2.611 2.959,-4.386 -0.771,-4.069 -1.585,-5.238 -0.112,-6.175 2.686,-1.709 5.766,0.247 6.879,4.371 z"
             style="fill:none;fill-rule:nonzero;stroke:#ffffff;stroke-width:1px"
             id="path465" />
        </g>
        <g
           transform="translate(251.434,145.168)"
           id="g471">
          <path
             d="M 0,-6.19 C -1.113,-2.067 0.162,2.661 2.847,4.371 5.533,6.08 8.613,4.123 9.726,0 10.229,-1.862 7.148,-2.611 6.767,-4.386 7.539,-8.455 8.352,-9.624 6.879,-10.561 4.193,-12.27 1.114,-10.314 0,-6.19"
             style="fill:#ffffff;fill-rule:nonzero"
             id="path469" />
        </g>
        <g
           transform="translate(251.434,145.168)"
           id="g475">
          <path
             d="M 0,-6.19 C -1.113,-2.067 0.162,2.661 2.847,4.371 5.533,6.08 8.613,4.123 9.726,0 10.229,-1.862 7.148,-2.611 6.767,-4.386 7.539,-8.455 8.352,-9.624 6.879,-10.561 4.193,-12.27 1.114,-10.314 0,-6.19 Z"
             style="fill:none;fill-rule:nonzero;stroke:#ffffff;stroke-width:1px"
             id="path473" />
        </g>
        <g
           transform="translate(337.658,173.835)"
           id="g479">
          <path
             d="M 0,-67.781 11.271,-20.359 3.25,0"
             style="fill:#ffffff;fill-rule:nonzero;stroke:#ffffff;stroke-width:1px"
             id="path477" />
        </g>
        <g
           transform="translate(180.105,500.612)"
           id="g483">
          <path
             d="M 0,-165.606 14.665,-82.683 15,-80.787 14.556,0 -14.482,-66.787 0,-160.666"
             style="fill:#ffffff;fill-rule:nonzero;stroke:#ffffff;stroke-width:1px"
             id="path481" />
        </g>
        <g
           transform="translate(396.226,501.515)"
           id="g487">
          <path
             d="m 0,-165.606 -14.664,82.923 -0.335,1.896 L -14.556,0 14.483,-66.787 0,-160.665 Z"
             style="fill:#ffffff;fill-rule:nonzero;stroke:#ffffff;stroke-width:1px"
             id="path485" />
        </g>
        <g
           transform="translate(364.732,419.616)"
           id="g491">
          <path
             d="m 0,-93.564 1.884,0.578 29.351,9.001 L 16.238,0"
             style="fill:#ffffff;fill-rule:nonzero;stroke:#ffffff;stroke-width:1px"
             id="path489" />
        </g>
        <g
           transform="translate(210.84,419.825)"
           id="g495">
          <path
             d="m 0,-94.398 -1.777,0.578 c 0,0 -27.827,9.236 -29.093,9.236 -1.265,0 14.761,84.584 14.761,84.584"
             style="fill:#ffffff;fill-rule:nonzero;stroke:#ffffff;stroke-width:1px"
             id="path493" />
        </g>
        <g
           transform="matrix(0.874012,1.45351,0.856996,-0.515323,278.978,123.71)"
           id="g499">
          <path
             d="M -6.333,-11.198 H 19.8"
             style="fill:none;fill-rule:nonzero;stroke:#ffffff;stroke-width:0.72px"
             id="path497" />
        </g>
      </g>
      <g
         id="Mundschutz"
         transform="matrix(2.69959,0,0,2.69959,-3600.24,-4488.16)">
        <g
           transform="matrix(0.39637,0,0,0.374504,1203.06,1393.17)"
           id="g505">
          <g
             id="Layer9-3">
            <path
               d="m 2804.55,2020.28 219.73,-158.17 -188.19,326.85"
               style="fill:none;stroke:#dcdad9;stroke-width:12.01px;stroke-linecap:round;stroke-linejoin:round;stroke-miterlimit:1.5"
               id="path502" />
          </g>
        </g>
        <g
           transform="matrix(0.380353,0,0,0.370427,1261.15,1400.7)"
           id="g510">
          <g
             id="Layer8-6">
            <path
               d="m 2286.27,2026.47 -228.76,-166.64 189.66,321.72"
               style="fill:none;stroke:#dcdad9;stroke-width:12.68px;stroke-linecap:round;stroke-linejoin:round;stroke-miterlimit:1.5"
               id="path507" />
          </g>
        </g>
        <g
           id="Layer5-7"
           transform="matrix(1,0,0,1.23105,0,-504.66)">
          <path
             d="m 2126.5,2155.42 c 0,0 87.96,-15.33 96.9,-14.06 8.95,1.28 97.66,8.28 95.3,12.41 -2.35,4.13 -4.84,11.63 -1.02,24.37 3.81,12.73 -187.88,1.56 -187.88,1.56 0,0 4.36,-14.06 -3.3,-24.28"
             style="fill:#f3f3f2"
             id="path512" />
        </g>
        <g
           id="Layer7-5">
          <path
             d="m 2123.13,2200.69 -10.07,8.84 c 0,0 57.09,49.21 79.6,52.96 22.51,3.75 37.79,3.22 52.26,0 14.47,-3.21 60.83,-25.72 67.8,-32.69 6.96,-6.97 17.09,-16.9 17.09,-16.9 0,0 -10.32,-8.76 -11.08,-10.17 -0.76,-1.4 -66.04,20.9 -66.04,20.9 l -64.09,0.36 c 0,0 -16.58,-0.56 -34.59,-7.42 -18.01,-6.86 -30.88,-15.88 -30.88,-15.88 z"
             style="fill:#f3f2f3"
             id="path515" />
        </g>
        <g
           id="Layer6-3">
          <path
             d="m 2129.82,2178.65 c 0,0 -2.28,20.06 -6.3,21.67 -4.02,1.61 39.93,25.46 69.95,24.92 30.01,-0.53 48.87,0.87 57.61,-0.53 8.74,-1.4 65.39,-20.64 65.39,-20.64 l 2.41,-1.34 -1.07,-24.65 z"
             style="fill:#dcdad9"
             id="path518" />
        </g>
      </g>
      <g
         id="Patch"
         transform="translate(-80.0159,-105.706)">
        <g
           transform="matrix(1.02554,-0.110961,0.106777,0.98687,-357.582,444.916)"
           id="g524">
          <path
             d="m 3395.32,2334.45 c 12.74,-9.44 15.42,-27.45 5.98,-40.19 l -34.2,-46.17 c -9.44,-12.74 -27.44,-15.43 -40.19,-5.99 l -172.68,127.91 c -12.74,9.44 -15.42,27.45 -5.98,40.19 l 34.2,46.18 c 9.44,12.74 27.44,15.42 40.19,5.98 z"
             style="fill:#e5955c;stroke:#ffffff;stroke-width:8.23px;stroke-linecap:round;stroke-linejoin:round;stroke-miterlimit:1.5"
             id="path522" />
        </g>
        <g
           transform="matrix(0.571661,0.631426,-0.741319,0.671153,3201.89,-1277.06)"
           id="g528">
          <rect
             x="3175"
             y="2383.3301"
             width="133.33299"
             height="91.667"
             style="fill:none;stroke:#ffffff;stroke-width:4.66px;stroke-linecap:round;stroke-linejoin:round;stroke-miterlimit:1.5"
             id="rect526" />
        </g>
        <g
           transform="matrix(0.70455,-0.637605,0.62565,0.69134,-541.051,2825.72)"
           id="g532">
          <circle
             cx="3237.5"
             cy="2362.5"
             r="12.5"
             style="fill:#ffffff"
             id="circle530" />
        </g>
        <g
           transform="matrix(0.70455,-0.637605,0.62565,0.69134,-520.405,2848.53)"
           id="g536">
          <circle
             cx="3237.5"
             cy="2362.5"
             r="12.5"
             style="fill:#ffffff"
             id="circle534" />
        </g>
        <g
           transform="matrix(0.70455,-0.637605,0.62565,0.69134,-499.758,2871.34)"
           id="g540">
          <circle
             cx="3237.5"
             cy="2362.5"
             r="12.5"
             style="fill:#ffffff"
             id="circle538" />
        </g>
        <g
           transform="matrix(0.70455,-0.637605,0.62565,0.69134,-504.46,2794.94)"
           id="g544">
          <circle
             cx="3237.5"
             cy="2362.5"
             r="12.5"
             style="fill:#ffffff"
             id="circle542" />
        </g>
        <g
           transform="matrix(0.70455,-0.637605,0.62565,0.69134,-483.814,2817.75)"
           id="g548">
          <circle
             cx="3237.5"
             cy="2362.5"
             r="12.5"
             style="fill:#ffffff"
             id="circle546" />
        </g>
        <g
           transform="matrix(0.70455,-0.637605,0.62565,0.69134,-463.167,2840.56)"
           id="g552">
          <circle
             cx="3237.5"
             cy="2362.5"
             r="12.5"
             style="fill:#ffffff"
             id="circle550" />
        </g>
      </g>
    </g>
  </g>
</svg>
