<?xml version="1.0" encoding="UTF-8" standalone="no"?>
<!-- Created with Inkscape (http://www.inkscape.org/) -->

<svg
   xmlns:dc="http://purl.org/dc/elements/1.1/"
   xmlns:cc="http://creativecommons.org/ns#"
   xmlns:rdf="http://www.w3.org/1999/02/22-rdf-syntax-ns#"
   xmlns:svg="http://www.w3.org/2000/svg"
   xmlns="http://www.w3.org/2000/svg"
   xmlns:xlink="http://www.w3.org/1999/xlink"
   xmlns:sodipodi="http://sodipodi.sourceforge.net/DTD/sodipodi-0.dtd"
   xmlns:inkscape="http://www.inkscape.org/namespaces/inkscape"
   id="svg2"
   version="1.1"
   inkscape:version="0.92.2 5c3e80d, 2017-08-06"
   width="1920"
   height="1080"
   viewBox="0 0 1920 1080"
   sodipodi:docname="background.svg">
  <metadata
     id="metadata8">
    <rdf:RDF>
      <cc:Work
         rdf:about="">
        <dc:format>image/svg+xml</dc:format>
        <dc:type
           rdf:resource="http://purl.org/dc/dcmitype/StillImage" />
        <dc:title />
      </cc:Work>
    </rdf:RDF>
  </metadata>
  <defs
     id="defs6">
    <linearGradient
       inkscape:collect="always"
       id="linearGradient4741">
      <stop
         style="stop-color:#00a2e1;stop-opacity:1"
         offset="0"
         id="stop4743" />
      <stop
         style="stop-color:#6ab9db;stop-opacity:0"
         offset="1"
         id="stop4745" />
    </linearGradient>
    <linearGradient
       inkscape:collect="always"
       xlink:href="#linearGradient4741"
       id="linearGradient4747"
       x1="866.47607"
       y1="1057.5571"
       x2="1635.6337"
       y2="287.33304"
       gradientUnits="userSpaceOnUse"
       gradientTransform="matrix(0.99259145,0,0,0.99425016,-0.01265263,2.7220921)" />
  </defs>
  <sodipodi:namedview
     pagecolor="#ffffff"
     bordercolor="#666666"
     borderopacity="1"
     objecttolerance="10"
     gridtolerance="10"
     guidetolerance="10"
     inkscape:pageopacity="0"
     inkscape:pageshadow="2"
     inkscape:window-width="1920"
     inkscape:window-height="1152"
     id="namedview4"
     showgrid="false"
     inkscape:zoom="0.64"
     inkscape:cx="1316.8278"
     inkscape:cy="504.28555"
     inkscape:window-x="0"
     inkscape:window-y="0"
     inkscape:window-maximized="1"
     inkscape:current-layer="svg2"
     showguides="true"
     inkscape:guide-bbox="true">
    <sodipodi:guide
       position="1664.2857,871.42857"
       orientation="1,0"
       id="guide4731"
       inkscape:locked="false" />
    <sodipodi:guide
       position="1840.4762,-14.285714"
       orientation="1,0"
       id="guide4733"
       inkscape:locked="false" />
  </sodipodi:namedview>
  <rect
     style="opacity:1;fill:url(#linearGradient4747);fill-opacity:1;stroke:#ffdab9;stroke-width:0.19929704;stroke-linecap:round;stroke-linejoin:round;stroke-miterlimit:4;stroke-dasharray:none;stroke-dashoffset:0;stroke-opacity:1"
     id="rect4687"
     width="1923.7358"
     height="1084.2056"
     x="-1.6193991"
     y="-0.21300632" />
  <path
     class="fil0 str1"
     d="m 1753.7315,86.860553 c 47.415,0 85.8671,38.452177 85.8671,85.867117 0,47.41495 -38.4521,85.8671 -85.8671,85.8671 -47.4148,0 -85.8672,-38.45215 -85.8672,-85.8671 0,-47.41494 38.4524,-85.867117 85.8672,-85.867117 z"
     id="path3233"
     style="fill:#00a2e1;fill-opacity:1;fill-rule:evenodd;stroke:none"
     inkscape:connector-curvature="0" />
  <path
     id="path3235-3"
     class="fil9"
     d="m 1751.3429,88.80553 c 47.415,0 85.8671,38.45217 85.8671,85.86711 0,47.41496 -38.4521,85.86711 -85.8671,85.86711 -47.4148,0 -85.8672,-38.45215 -85.8672,-85.86711 0,-47.41494 38.4524,-85.86711 85.8672,-85.86711 z"
     style="fill:#555753;fill-opacity:1;fill-rule:evenodd;stroke:none"
     inkscape:connector-curvature="0" />
  <path
     id="path3235"
     class="fil9"
     d="m 1753.7315,86.860553 c 47.415,0 85.8671,38.452177 85.8671,85.867117 0,47.41495 -38.4521,85.8671 -85.8671,85.8671 -47.4148,0 -85.8672,-38.45215 -85.8672,-85.8671 0,-47.41494 38.4524,-85.867117 85.8672,-85.867117 z"
     style="fill:#00a2e1;fill-opacity:1;fill-rule:evenodd;stroke:none"
     inkscape:connector-curvature="0" />
  <path
     inkscape:connector-curvature="0"
     style="fill:#555753;fill-rule:nonzero"
     id="path3237-6"
     d="m 1779.6133,124.50389 c 4.586,2.77845 2.1521,10.71499 3.5326,15.94829 0.7726,3.15992 1.934,7.09875 -0.7748,9.71938 -2.5231,1.95235 -7.2824,1.71317 -8.315,4.71815 -1.3288,3.86807 2.3946,10.05017 7.5956,9.71142 6.4567,-1.79084 11.6544,-6.59422 16.2565,-11.25838 4.5547,-4.6609 3.032,-8.32311 2.599,-14.08264 -0.1939,-2.5642 2.0709,-5.77238 4.0331,-4.35585 4.2109,3.04155 -2.5417,9.9367 2.3983,11.26471 5.0569,1.35947 7.3074,-13.08869 12.006,-7.12146 2.8975,3.67736 -8.3986,6.98531 -5.5913,10.25541 2.5298,2.73165 5.5471,-5.05052 10.2186,-2.24079 0.924,0.55607 1.6661,1.95847 1.1448,2.91851 -2.7392,5.0352 -9.1272,0.64599 -9.8242,4.75185 -0.8135,4.78724 10.3892,-0.31892 9.5362,5.94555 -1.1163,8.20148 -12.5278,-3.33943 -21.0544,1.40446 -8.4365,4.69318 -12.0461,14.71679 -20.8093,18.57772 -5.0924,2.24467 -9.5868,-3.08654 -14.3604,-4.46054 -1.1447,7.72658 -6.2327,13.54904 -11.2632,19.11618 -4.4864,12.13562 24.9369,-3.44552 21.0238,10.97503 -2.4911,9.18032 -14.6236,5.5649 -22.2626,10.80679 -1.0222,6.76963 4.7922,9.50536 9.5111,11.91195 7.4669,3.80697 2.1038,5.82472 0.2474,3.95826 -3.9727,-3.99445 -4.2319,-1.13667 -3.5576,-0.38435 2.6891,3.00213 1.0896,1.70703 6.5709,5.86584 2.9145,2.21094 0.1471,6.13054 -2.6448,4.36323 -4.0693,-4.12018 -4.9232,-8.4736 -7.1987,-7.75153 -3.0456,1.10189 1.8646,3.99687 3.7241,10.43328 1.6088,5.56714 -5.8216,6.13711 -5.2921,1.08962 0.5909,-5.626 -1.6661,-9.14166 -2.99,-9.07645 -1.7847,0.0876 1.6988,11.14882 -2.5144,10.75608 -3.9976,-0.37206 -1.891,-7.24205 -1.664,-8.0373 2.3407,-8.17817 0.9813,-8.11622 -2.8363,-15.71728 -1.9298,-3.84561 -11.9377,-11.55215 -6.5419,-14.96233 18.5303,-5.85128 -2.4782,-5.25088 -4.1635,-9.38943 -9e-4,-0.65214 -0.063,-0.68893 -0.6276,-0.36183 -4.4267,0.6092 -14.4101,-17.88471 -10.213,1.08962 -0.2555,6.37771 -11.9335,1.56392 -16.2292,1.81536 -8.4904,0.49473 -9.1173,-0.71345 -15.0291,5.40135 -0.5743,0.59491 -5.4714,5.85294 -7.7925,2.57709 -2.4469,-3.45124 8.8733,-5.96557 8.0572,-7.55443 -0.605,-1.17958 -4.7782,-1.37585 -9.3549,1.94826 -4.1055,2.98206 -7.3274,-3.7387 -1.7009,-5.12781 6.5034,-1.60687 11.4655,1.19798 10.8969,-1.9912 -0.5129,-2.33237 -4.709,-0.89543 -10.3125,-2.35895 -2.9264,-1.53531 -0.9158,-5.89076 2.4565,-4.4718 6.3406,2.66725 4.4211,1.92986 8.3657,2.75823 0.9873,0.20648 3.3336,-1.44536 -2.1122,-2.88947 -2.545,-0.67464 -3.4786,-6.32785 3.552,-1.76426 4.4435,2.88373 9.7192,6.55068 15.0715,2.28085 0.7197,-9.23652 -8.4775,-17.93537 -1.7723,-24.6825 10.5323,-10.59991 11.7499,22.67211 20.0159,12.71842 2.3065,-7.13984 4.8051,-14.45775 10.9235,-19.31182 -3.576,-3.44717 -10.4398,-4.67376 -11.0419,-10.20636 -1.0385,-9.51987 5.8377,-17.65695 5.684,-27.31051 -0.1542,-9.75641 -15.8557,-13.86941 -9.3108,-18.9359 4.9992,-3.87136 6.1781,8.38424 9.9176,5.28544 3.2074,-2.65684 -3.7876,-5.99462 -0.7972,-10.88324 0.5704,-0.932219 2.1561,-0.989468 3.1002,-0.468154 4.7689,2.640674 -0.462,9.144714 3.1687,9.969814 4.2359,0.79526 1.4535,-10.640148 6.0865,-9.970632 7.5166,1.085532 -3.8689,10.258682 -0.1635,13.958522 3.6194,3.6146 6.2151,-5.68141 10.9541,-3.55509 2.2085,0.9915 0.5622,4.55621 -1.7562,5.67099 -5.205,2.50391 -9.1374,3.01663 -10.896,9.29131 -1.7378,6.31822 -3.2999,13.22134 -1.6213,19.70783 2.3068,4.67376 9.5217,4.80583 12.208,1.72338 2.0856,-2.39678 -0.5008,-6.39858 -0.072,-9.56014 0.9159,-3.65569 4.9065,-4.62063 8.0294,-5.53096 5.2227,-1.42083 10.8784,-7.49721 15.5789,-4.91439 z"
     class="fil5" />
  <path
     inkscape:connector-curvature="0"
     style="fill:#ffffff;fill-rule:nonzero"
     id="path3237"
     d="m 1782.2338,123.36017 c 4.586,2.77845 2.1521,10.71499 3.5326,15.94829 0.7726,3.15992 1.934,7.09875 -0.7748,9.71938 -2.5231,1.95235 -7.2824,1.71317 -8.315,4.71815 -1.3288,3.86807 2.3946,10.05017 7.5956,9.71142 6.4567,-1.79084 11.6544,-6.59422 16.2565,-11.25838 4.5547,-4.6609 3.032,-8.32311 2.599,-14.08264 -0.1939,-2.5642 2.0709,-5.77238 4.0331,-4.35585 4.2109,3.04155 -2.5417,9.9367 2.3983,11.26471 5.0569,1.35947 7.3074,-13.08869 12.006,-7.12146 2.8975,3.67736 -8.3986,6.98531 -5.5913,10.25541 2.5298,2.73165 5.5471,-5.05052 10.2186,-2.24079 0.924,0.55607 1.6661,1.95847 1.1448,2.91851 -2.7392,5.0352 -9.1272,0.64599 -9.8242,4.75185 -0.8135,4.78724 10.3892,-0.31892 9.5362,5.94555 -1.1163,8.20148 -12.5278,-3.33943 -21.0544,1.40446 -8.4365,4.69318 -12.0461,14.71679 -20.8093,18.57772 -5.0924,2.24467 -9.5868,-3.08654 -14.3604,-4.46054 -1.1447,7.72658 -6.2327,13.54904 -11.2632,19.11618 -4.4864,12.13562 24.9369,-3.44552 21.0238,10.97503 -2.4911,9.18032 -14.6236,5.5649 -22.2626,10.80679 -1.0222,6.76963 4.7922,9.50536 9.5111,11.91195 7.4669,3.80697 2.1038,5.82472 0.2474,3.95826 -3.9727,-3.99445 -4.2319,-1.13667 -3.5576,-0.38435 2.6891,3.00213 1.0896,1.70703 6.5709,5.86584 2.9145,2.21094 0.1471,6.13054 -2.6448,4.36323 -4.0693,-4.12018 -4.9232,-8.4736 -7.1987,-7.75153 -3.0456,1.10189 1.8646,3.99687 3.7241,10.43328 1.6088,5.56714 -5.8216,6.13711 -5.2921,1.08962 0.5909,-5.626 -1.6661,-9.14166 -2.99,-9.07645 -1.7847,0.0876 1.6988,11.14882 -2.5144,10.75608 -3.9976,-0.37206 -1.891,-7.24205 -1.664,-8.0373 2.3407,-8.17817 0.9813,-8.11622 -2.8363,-15.71728 -1.9298,-3.84561 -11.9377,-11.55215 -6.5419,-14.96233 18.5303,-5.85128 -2.4782,-5.25088 -4.1635,-9.38943 -9e-4,-0.65214 -0.063,-0.68893 -0.6276,-0.36183 -4.4267,0.6092 -14.4101,-17.88471 -10.213,1.08962 -0.2555,6.37771 -11.9335,1.56392 -16.2292,1.81536 -8.4904,0.49473 -9.1173,-0.71345 -15.0291,5.40135 -0.5743,0.59491 -5.4714,5.85294 -7.7925,2.57709 -2.4469,-3.45124 8.8733,-5.96557 8.0572,-7.55443 -0.605,-1.17958 -4.7782,-1.37585 -9.3549,1.94826 -4.1055,2.98206 -7.3274,-3.7387 -1.7009,-5.12781 6.5034,-1.60687 11.4655,1.19798 10.8969,-1.9912 -0.5129,-2.33237 -4.709,-0.89543 -10.3125,-2.35895 -2.9264,-1.53531 -0.9158,-5.89076 2.4565,-4.4718 6.3406,2.66725 4.4211,1.92986 8.3657,2.75823 0.9873,0.20648 3.3336,-1.44536 -2.1122,-2.88947 -2.545,-0.67464 -3.4786,-6.32785 3.552,-1.76426 4.4435,2.88373 9.7192,6.55068 15.0715,2.28085 0.7197,-9.23652 -8.4775,-17.93537 -1.7723,-24.6825 10.5323,-10.59991 11.7499,22.67211 20.0159,12.71842 2.3065,-7.13984 4.8051,-14.45775 10.9235,-19.31182 -3.576,-3.44717 -10.4398,-4.67376 -11.0419,-10.20636 -1.0385,-9.51987 5.8377,-17.65695 5.684,-27.31051 -0.1542,-9.75641 -15.8557,-13.86941 -9.3108,-18.93589 4.9992,-3.871369 6.1781,8.38423 9.9176,5.28543 3.2074,-2.65683 -3.7876,-5.99461 -0.7972,-10.883237 0.5704,-0.932217 2.1561,-0.989466 3.1002,-0.468152 4.7689,2.64067 -0.462,9.144719 3.1687,9.969819 4.2359,0.79525 1.4535,-10.640153 6.0865,-9.970637 7.5166,1.085535 -3.8689,10.258687 -0.1635,13.958517 3.6194,3.6146 6.2151,-5.6814 10.9541,-3.55509 2.2085,0.9915 0.5622,4.55621 -1.7562,5.67099 -5.205,2.50391 -9.1374,3.01663 -10.896,9.29131 -1.7378,6.31822 -3.2999,13.22134 -1.6213,19.70783 2.3068,4.67376 9.5217,4.80583 12.208,1.72338 2.0856,-2.39678 -0.5008,-6.39858 -0.072,-9.56014 0.9159,-3.65569 4.9065,-4.62063 8.0294,-5.53096 5.2227,-1.42083 10.8784,-7.49721 15.5789,-4.91439 z"
     class="fil5" />
  <ellipse
     style="fill:#75c5f0;fill-rule:evenodd"
     id="ellipse3239"
     ry="2.3386819"
     rx="1.8191522"
     cy="144.40254"
     cx="1784.0491"
     class="fil10" />
  <ellipse
     style="fill:#75c5f0;fill-rule:evenodd"
     cy="-1460.7368"
     cx="-996.13379"
     id="circle3241"
     transform="matrix(-0.49999923,-0.86602585,-0.86602505,0.50000061,0,0)"
     class="fil10"
     rx="1.8191562"
     ry="2.3386817" />
  <text
     xml:space="preserve"
     style="font-style:normal;font-variant:normal;font-weight:normal;font-stretch:normal;line-height:0%;font-family:Umpush;-inkscape-font-specification:Umpush;letter-spacing:0px;word-spacing:0px;fill:#555753;fill-opacity:1;stroke:none;stroke-width:1px;stroke-linecap:butt;stroke-linejoin:miter;stroke-opacity:1"
     x="1674.2495"
     y="327.95859"
     id="text4689-6"><tspan
       sodipodi:role="line"
       id="tspan4691-9"
       x="1674.2495"
       y="327.95859"
       style="font-style:normal;font-variant:normal;font-weight:bold;font-stretch:normal;font-size:70px;line-height:125%;font-family:'Open Sans';-inkscape-font-specification:'Open Sans, Bold';text-align:start;writing-mode:lr-tb;text-anchor:start;fill:#555753">2019</tspan></text>
  <text
     xml:space="preserve"
     style="font-style:normal;font-variant:normal;font-weight:normal;font-stretch:normal;line-height:0%;font-family:Umpush;-inkscape-font-specification:Umpush;letter-spacing:0px;word-spacing:0px;fill:#00a2e1;fill-opacity:1;stroke:none;stroke-width:1px;stroke-linecap:butt;stroke-linejoin:miter;stroke-opacity:1"
     x="1676.1906"
     y="325.23807"
     id="text4689"><tspan
       sodipodi:role="line"
       id="tspan4691"
       x="1676.1906"
       y="325.23807"
       style="font-style:normal;font-variant:normal;font-weight:bold;font-stretch:normal;font-size:70px;line-height:125%;font-family:'Open Sans';-inkscape-font-specification:'Open Sans, Bold';text-align:start;writing-mode:lr-tb;text-anchor:start">2019</tspan></text>
</svg>
