<?xml version="1.0" encoding="UTF-8" standalone="no"?>
<svg
   xmlns:dc="http://purl.org/dc/elements/1.1/"
   xmlns:cc="http://creativecommons.org/ns#"
   xmlns:rdf="http://www.w3.org/1999/02/22-rdf-syntax-ns#"
   xmlns:svg="http://www.w3.org/2000/svg"
   xmlns="http://www.w3.org/2000/svg"
   xmlns:sodipodi="http://sodipodi.sourceforge.net/DTD/sodipodi-0.dtd"
   xmlns:inkscape="http://www.inkscape.org/namespaces/inkscape"
   width="1920"
   height="1080"
   viewBox="0 0 507.99999 285.75001"
   version="1.1"
   id="svg186910"
   inkscape:version="1.0.1 (3bc2e813f5, 2020-09-07)"
   sodipodi:docname="intro.svg">
  <defs
     id="defs186904">
    <rect
       x="201.08333"
       y="243.41667"
       width="52.916665"
       height="31.75"
       id="rect188251" />
    <rect
       x="195.79167"
       y="243.41667"
       width="58.208332"
       height="31.75"
       id="rect188245" />
    <rect
       x="10.583333"
       y="190.5"
       width="243.41667"
       height="84.666667"
       id="rect188239" />
    <rect
       x="10.583333"
       y="95.250001"
       width="243.41667"
       height="95.250001"
       id="rect188233" />
    <rect
       x="10.583333"
       y="10.583333"
       width="243.41667"
       height="84.666659"
       id="rect187105" />
  </defs>
  <sodipodi:namedview
     id="base"
     pagecolor="#ffffff"
     bordercolor="#666666"
     borderopacity="1.0"
     inkscape:pageopacity="0.0"
     inkscape:pageshadow="2"
     inkscape:zoom="1.4"
     inkscape:cx="694.08671"
     inkscape:cy="468.61437"
     inkscape:document-units="px"
     inkscape:current-layer="layer7"
     inkscape:document-rotation="0"
     showgrid="true"
     units="px"
     inkscape:pagecheckerboard="true"
     showguides="true"
     inkscape:guide-bbox="true"
     inkscape:lockguides="false"
     inkscape:window-width="830"
     inkscape:window-height="1315"
     inkscape:window-x="0"
     inkscape:window-y="0"
     inkscape:window-maximized="1">
    <sodipodi:guide
       position="254,314.85417"
       orientation="1,0"
       id="guide186943"
       inkscape:locked="false" />
    <inkscape:grid
       type="xygrid"
       id="grid186947" />
    <sodipodi:guide
       position="89.958332,190.50001"
       orientation="0,-1"
       id="guide186967" />
    <sodipodi:guide
       position="158.75,95.250003"
       orientation="0,-1"
       id="guide186969" />
    <sodipodi:guide
       position="10.583333,301.625"
       orientation="1,0"
       id="guide187095" />
    <sodipodi:guide
       position="497.41666,306.91668"
       orientation="1,0"
       id="guide187097" />
    <sodipodi:guide
       position="52.916666,275.16668"
       orientation="0,-1"
       id="guide187099" />
    <sodipodi:guide
       position="116.41666,10.583334"
       orientation="0,-1"
       id="guide187101" />
  </sodipodi:namedview>
  <metadata
     id="metadata186907">
    <rdf:RDF>
      <cc:Work
         rdf:about="">
        <dc:format>image/svg+xml</dc:format>
        <dc:type
           rdf:resource="http://purl.org/dc/dcmitype/StillImage" />
        <dc:title></dc:title>
        <cc:license
           rdf:resource="http://creativecommons.org/licenses/by-sa/4.0/" />
      </cc:Work>
      <cc:License
         rdf:about="http://creativecommons.org/licenses/by-sa/4.0/">
        <cc:permits
           rdf:resource="http://creativecommons.org/ns#Reproduction" />
        <cc:permits
           rdf:resource="http://creativecommons.org/ns#Distribution" />
        <cc:requires
           rdf:resource="http://creativecommons.org/ns#Notice" />
        <cc:requires
           rdf:resource="http://creativecommons.org/ns#Attribution" />
        <cc:permits
           rdf:resource="http://creativecommons.org/ns#DerivativeWorks" />
        <cc:requires
           rdf:resource="http://creativecommons.org/ns#ShareAlike" />
      </cc:License>
    </rdf:RDF>
  </metadata>
  <g
     inkscape:label="Background"
     inkscape:groupmode="layer"
     id="layer1"
     style="display:inline"
     sodipodi:insensitive="true">
    <rect
       style="fill:#000000;stroke-width:0.264583"
       id="rect186912"
       width="508"
       height="285.75"
       x="0"
       y="0" />
  </g>
  <g
     inkscape:groupmode="layer"
     id="layer7"
     inkscape:label="logo"
     style="display:inline">
    <g
       id="logo"
       inkscape:label="#logo">
      <path
         d="m 214.38126,49.850221 c -3.089,-0.0051 -5.65255,0.628342 -6.6438,0.97389 l -1.02058,5.509816 c -0.002,0.0203 5.07926,-1.355132 7.31752,-1.274061 3.70592,0.133155 4.047,1.416363 3.98227,3.148466 0.0632,0.10131 -0.95613,-1.565038 -4.16238,-1.620927 -4.04489,-0.06977 -9.75338,1.432172 -9.74557,7.537642 -0.10904,6.867737 5.13011,8.888028 8.69831,8.925101 3.20785,-0.05841 4.7126,-1.214852 5.5365,-1.834382 1.08248,-1.131817 2.32091,-2.269984 3.502,-3.635411 -1.11758,2.030553 -2.08647,3.434453 -3.0951,4.509244 v 0.907185 l 4.87612,-0.820469 0.0333,-13.254242 c -0.0494,-1.875929 1.07608,-9.054406 -9.27864,-9.071852 z m -0.7004,11.539929 c 2.02119,0.02774 4.3391,1.023962 4.34248,3.421956 0.0105,2.181131 -2.73224,3.353774 -4.51591,3.335239 -1.78444,-0.01853 -4.15191,-1.402363 -4.16238,-3.528683 0.0342,-1.9007 2.23264,-3.277432 4.33581,-3.228512 z"
         id="path2284"
         style="fill:#ffffff;fill-opacity:1;fill-rule:evenodd;stroke:none;stroke-width:0.213455" />
      <path
         d="m 226.8753,51.074964 -0.0331,21.948956 5.6805,-1.094436 0.01,-12.444781 c 0.001,-1.852982 2.64803,-4.018192 5.96879,-3.983689 0.70484,-1.2752 2.02968,-4.534259 2.35247,-5.275579 -7.41896,-0.01778 -7.51341,2.132404 -8.80375,3.190127 -0.0135,-2.017762 -0.005,-3.229027 -0.005,-3.229027 l -5.16993,0.888429 z"
         id="path2286-6"
         style="fill:#ffffff;fill-opacity:1;fill-rule:evenodd;stroke:none;stroke-width:0.213455" />
      <path
         d="m 258.84402,53.956425 c -0.0548,-0.02576 -2.96263,-3.401237 -8.80853,-3.427857 -5.47566,-0.09101 -11.61747,2.03187 -11.71578,11.213406 0.0479,8.072564 5.89995,11.227342 11.74675,11.288856 6.257,0.065 8.74666,-3.912523 8.896,-4.01109 -0.74659,-0.647218 -3.54292,-3.418082 -3.54292,-3.418082 0,0 -1.74657,2.486972 -5.13531,2.518587 -3.38955,0.03227 -6.33588,-2.61979 -6.37763,-6.320209 -0.0434,-3.700451 2.70849,-5.705279 6.40307,-5.867219 3.19856,-6.41e-4 5.04389,2.064826 5.04389,2.064826 z"
         id="path2288"
         style="fill:#ffffff;fill-opacity:1;fill-rule:evenodd;stroke:none;stroke-width:0.213455" />
      <path
         d="m 266.0041,43.393198 -5.36307,1.26072 0.04,28.589673 5.28302,-0.953878 0.06,-13.454356 c 0.0113,-1.410784 2.0409,-3.577332 5.42977,-3.508672 3.24019,0.03367 3.96437,2.15967 3.95559,2.428054 l 0.0934,15.575569 5.20965,-0.920526 0.02,-16.516107 c 0.0343,-1.589258 -3.4811,-4.945661 -9.13189,-4.969506 -2.68545,0.0043 -4.17266,0.612243 -4.92948,1.060606 -1.29494,1.000177 -2.77488,1.958544 -4.22909,3.181818 1.34436,-1.727065 2.47299,-2.92117 3.57538,-3.808843 l -0.0133,-7.964552 z"
         id="path2290-7"
         style="fill:#ffffff;fill-opacity:1;fill-rule:evenodd;stroke:none;stroke-width:0.213455" />
      <path
         d="m 285.25764,44.135066 2.41897,-0.605409 0.11445,28.823208 -2.45766,0.418488 z"
         id="path2292"
         style="fill:#1793d1;fill-opacity:1;fill-rule:evenodd;stroke:none;stroke-width:0.316016" />
      <path
         d="m 291.83459,52.737503 2.11996,-0.943847 0.0181,20.667261 -2.04742,0.423194 z m -0.50383,-7.452668 1.7094,-1.395317 1.41997,1.579931 -1.7101,1.432253 z"
         id="path2294-5"
         style="fill:#1793d1;fill-opacity:1;fill-rule:evenodd;stroke:none;stroke-width:0.316016" />
      <path
         d="m 297.94105,52.360991 2.41925,-0.493621 0.0114,4.320641 c 4.1e-4,0.185556 1.3283,-4.826722 7.73414,-4.715263 6.21966,0.03461 7.23716,4.849697 7.20348,5.929218 l 0.0767,15.193537 -2.12042,0.460218 -0.0123,-15.007308 c 0.0246,-0.438264 -0.96923,-4.14437 -5.36446,-4.158 -4.39442,-0.01277 -7.43925,3.191919 -7.43385,5.239355 l 0.035,13.220477 -2.45707,0.641925 z"
         id="path2296-3"
         style="fill:#1793d1;fill-opacity:1;fill-rule:evenodd;stroke:none;stroke-width:0.316016" />
      <path
         d="m 336.49546,72.704835 -2.41926,0.493573 -0.0114,-4.320571 c -4.2e-4,-0.185634 -1.32913,4.826713 -7.73415,4.715238 -6.21964,-0.03458 -7.23715,-4.849671 -7.20347,-5.929193 l -0.0767,-15.193634 2.57032,-0.518982 0.0397,15.007586 c 10e-4,0.409817 0.49193,4.202953 4.88715,4.216482 4.39443,0.0128 7.47307,-2.646193 7.49488,-6.650302 l -0.0313,-11.840828 2.39239,-0.610529 z"
         id="path2298-5"
         style="fill:#1793d1;fill-opacity:1;fill-rule:evenodd;stroke:none;stroke-width:0.316016" />
      <path
         d="m 341.23665,52.190545 -1.69629,1.327323 6.50365,8.511361 -6.93675,9.833239 1.79965,1.335485 6.52091,-9.131834 6.73005,9.348271 1.66472,-1.327595 -7.21256,-9.995178 5.75393,-8.082912 -1.76935,-1.496114 -5.24151,7.479409 z"
         id="path2300-6"
         style="fill:#1793d1;fill-opacity:1;fill-rule:evenodd;stroke:none;stroke-width:0.316016" />
      <path
         d="m 177.75808,30.213871 c -2.83011,6.93868 -4.5371,11.477391 -7.68806,18.20981 1.93193,2.047846 4.30329,4.432667 8.15436,7.126098 -4.14028,-1.7037 -6.96446,-3.414176 -9.07501,-5.189138 -4.03263,8.414691 -10.35059,20.401047 -23.17177,43.438107 10.07702,-5.817639 17.88854,-9.404276 25.16851,-10.772843 -0.3126,-1.344508 -0.49033,-2.798854 -0.47826,-4.31631 l 0.012,-0.322827 c 0.1599,-6.456078 3.51835,-11.420805 7.49675,-11.083711 3.97841,0.337094 7.07078,5.847195 6.91088,12.303279 -0.0301,1.214831 -0.1671,2.383482 -0.40652,3.467396 7.20093,1.408629 14.92893,4.986083 24.8696,10.725016 -1.96011,-3.608694 -3.70967,-6.861668 -5.38044,-9.959797 -2.63174,-2.03977 -5.37677,-4.694539 -10.9761,-7.568489 3.84866,1.000043 6.60425,2.15383 8.75218,3.443483 C 184.95896,48.08676 183.58336,43.88416 177.75808,30.213871 Z"
         id="path2518-2"
         style="fill:#1793d1;fill-opacity:1;fill-rule:evenodd;stroke:none;stroke-width:0.382609" />
      <path
         d="m 358.99032,71.436999 v -1.783464 h -0.66622 v -0.238624 h 1.60278 v 0.238624 h -0.66898 v 1.783464 h -0.26758"
         id="path3660"
         style="font-style:normal;font-weight:normal;font-size:8.44138px;font-family:'DejaVu Sans Mono';fill:#ffffff;fill-opacity:1;stroke:none;stroke-width:0.334644" />
      <path
         d="m 360.2055,71.436999 v -2.022088 h 0.40276 l 0.47863,1.431739 c 0.0441,0.133332 0.0763,0.233106 0.0966,0.299312 0.023,-0.07356 0.0589,-0.181611 0.10759,-0.324142 l 0.48414,-1.406909 h 0.36 v 2.022088 h -0.25793 v -1.692431 l -0.58759,1.692431 h -0.24138 l -0.58484,-1.721394 v 1.721394 h -0.25793"
         id="path3662"
         style="font-style:normal;font-weight:normal;font-size:8.44138px;font-family:'DejaVu Sans Mono';fill:#ffffff;fill-opacity:1;stroke:none;stroke-width:0.334644" />
      <path
         d="m 209.86427,88.123473 v -1.743309 h -0.65121 v -0.233247 h 1.56668 v 0.233247 h -0.65391 v 1.743309 h -0.26156"
         id="path2883"
         style="font-style:normal;font-weight:normal;font-size:8.2513px;font-family:'DejaVu Sans Mono';fill:#ffffff;fill-opacity:1;stroke:none;stroke-width:0.334644" />
      <path
         d="m 211.05209,88.123473 v -1.976556 h 0.39369 l 0.46785,1.399497 c 0.0431,0.130333 0.0746,0.227858 0.0944,0.292575 0.0224,-0.07191 0.0575,-0.177522 0.10516,-0.316844 l 0.47324,-1.375228 h 0.3519 v 1.976556 h -0.25213 v -1.654321 l -0.57436,1.654321 h -0.23594 l -0.57167,-1.682635 v 1.682635 h -0.25212"
         id="path2885"
         style="font-style:normal;font-weight:normal;font-size:8.2513px;font-family:'DejaVu Sans Mono';fill:#ffffff;fill-opacity:1;stroke:none;stroke-width:0.334644" />
    </g>
    <g
       id="conf_title"
       inkscape:label="#conf_title"
       transform="translate(0, 0)">
      <path
         d="m 201.98873,183.17572 -0.99218,-3.12125 h -3.38309 l -1.00596,3.12125 h -1.30914 l 3.32796,-10.11479 h 1.34359 l 3.34174,10.11479 z m -1.35736,-4.25813 -0.9164,-2.92144 q -0.26872,-0.85439 -0.42719,-1.55719 -0.1378,0.68213 -0.31695,1.26091 l -0.99218,3.21772 z"
         style="font-style:normal;font-variant:normal;font-weight:normal;font-stretch:normal;font-size:53.3333px;line-height:1.25;font-family:'Droid Sans Mono';-inkscape-font-specification:'Droid Sans Mono, Normal';font-variant-ligatures:normal;font-variant-caps:normal;font-variant-numeric:normal;font-variant-east-asian:normal;white-space:pre;fill:#ffffff;fill-opacity:1;stroke:none;stroke-width:0.264583"
         id="path186879" />
      <path
         d="m 210.83573,175.78255 -0.33761,1.14377 q -0.8475,-0.31006 -1.54341,-0.31006 -1.1231,0 -1.73633,0.64079 -0.60633,0.6339 -0.60633,1.83968 v 4.07899 h -1.25402 v -7.56542 h 1.01975 l 0.15158,1.38492 h 0.0551 q 0.52365,-0.81993 1.1231,-1.17133 0.59944,-0.3514 1.4745,-0.3514 0.81304,0 1.65364,0.31006 z"
         style="font-style:normal;font-variant:normal;font-weight:normal;font-stretch:normal;font-size:53.3333px;line-height:1.25;font-family:'Droid Sans Mono';-inkscape-font-specification:'Droid Sans Mono, Normal';font-variant-ligatures:normal;font-variant-caps:normal;font-variant-numeric:normal;font-variant-east-asian:normal;white-space:pre;fill:#ffffff;fill-opacity:1;stroke:none;stroke-width:0.264583"
         id="path186881" />
      <path
         d="m 219.31755,175.87902 -0.42719,1.08864 q -1.03353,-0.39274 -1.84657,-0.39274 -2.55626,0 -2.55626,2.84565 0,2.79742 2.48736,2.79742 1.08176,0 2.21175,-0.4272 v 1.10244 q -0.92328,0.4203 -2.26687,0.4203 -1.77078,0 -2.74919,-0.99908 -0.9784,-1.00597 -0.9784,-2.8801 0,-1.93614 0.99907,-2.949 0.99908,-1.01286 2.8112,-1.01286 1.22645,0 2.3151,0.40653 z"
         style="font-style:normal;font-variant:normal;font-weight:normal;font-stretch:normal;font-size:53.3333px;line-height:1.25;font-family:'Droid Sans Mono';-inkscape-font-specification:'Droid Sans Mono, Normal';font-variant-ligatures:normal;font-variant-caps:normal;font-variant-numeric:normal;font-variant-east-asian:normal;white-space:pre;fill:#ffffff;fill-opacity:1;stroke:none;stroke-width:0.264583"
         id="path186883" />
      <path
         d="m 226.5867,183.17572 v -4.87136 q 0,-1.79145 -1.63986,-1.79145 -2.11529,0 -2.11529,2.7423 v 3.92051 h -1.25402 v -10.72113 h 1.25402 v 3.18327 l -0.0551,0.99219 h 0.0689 q 0.70969,-1.15756 2.3151,-1.15756 2.68028,0 2.68028,2.76297 v 4.94026 z"
         style="font-style:normal;font-variant:normal;font-weight:normal;font-stretch:normal;font-size:53.3333px;line-height:1.25;font-family:'Droid Sans Mono';-inkscape-font-specification:'Droid Sans Mono, Normal';font-variant-ligatures:normal;font-variant-caps:normal;font-variant-numeric:normal;font-variant-east-asian:normal;white-space:pre;fill:#ffffff;fill-opacity:1;stroke:none;stroke-width:0.264583"
         id="path186885" />
      <path
         d="m 245.15575,181.79079 v 1.11621 q -1.00597,0.40653 -2.46668,0.40653 -2.12907,0 -3.25906,-1.35048 -1.12999,-1.35048 -1.12999,-3.83784 0,-2.384 1.23334,-3.77582 1.23334,-1.39181 3.3693,-1.39181 1.51584,0 2.63894,0.59255 l -0.53743,1.07487 q -1.06109,-0.53743 -2.10151,-0.53743 -1.48139,0 -2.36333,1.09554 -0.88195,1.08864 -0.88195,2.95589 0,1.97748 0.82683,3.0179 0.82682,1.03353 2.41845,1.03353 0.89573,0 2.25309,-0.39964 z"
         style="font-style:normal;font-variant:normal;font-weight:normal;font-stretch:normal;font-size:53.3333px;line-height:1.25;font-family:'Droid Sans Mono';-inkscape-font-specification:'Droid Sans Mono, Normal';font-variant-ligatures:normal;font-variant-caps:normal;font-variant-numeric:normal;font-variant-east-asian:normal;white-space:pre;fill:#ffffff;fill-opacity:1;stroke:none;stroke-width:0.264583"
         id="path186887" />
      <path
         d="m 250.08224,183.31353 q -1.48828,0 -2.45291,-1.06798 -0.95774,-1.07487 -0.95774,-2.86632 0,-1.81212 0.93018,-2.85943 0.93707,-1.04731 2.5218,-1.04731 1.50206,0 2.4598,1.06798 0.95774,1.06798 0.95774,2.83876 0,1.8259 -0.94395,2.8801 -0.94396,1.0542 -2.51492,1.0542 z m 0.0276,-1.04042 q 2.13596,0 2.13596,-2.89388 0,-2.86632 -2.14974,-2.86632 -2.12908,0 -2.12908,2.86632 0,2.89388 2.14286,2.89388 z"
         style="font-style:normal;font-variant:normal;font-weight:normal;font-stretch:normal;font-size:53.3333px;line-height:1.25;font-family:'Droid Sans Mono';-inkscape-font-specification:'Droid Sans Mono, Normal';font-variant-ligatures:normal;font-variant-caps:normal;font-variant-numeric:normal;font-variant-east-asian:normal;white-space:pre;fill:#ffffff;fill-opacity:1;stroke:none;stroke-width:0.264583"
         id="path186889" />
      <path
         d="m 260.45886,183.17572 v -4.87136 q 0,-1.79145 -1.63987,-1.79145 -2.11529,0 -2.11529,2.7423 v 3.92051 h -1.25402 v -7.56542 h 1.01288 l 0.18603,1.01975 h 0.0689 q 0.70969,-1.15756 2.3151,-1.15756 2.68028,0 2.68028,2.76297 v 4.94026 z"
         style="font-style:normal;font-variant:normal;font-weight:normal;font-stretch:normal;font-size:53.3333px;line-height:1.25;font-family:'Droid Sans Mono';-inkscape-font-specification:'Droid Sans Mono, Normal';font-variant-ligatures:normal;font-variant-caps:normal;font-variant-numeric:normal;font-variant-east-asian:normal;white-space:pre;fill:#ffffff;fill-opacity:1;stroke:none;stroke-width:0.264583"
         id="path186891" />
      <path
         d="m 270.00865,176.55425 h -2.68029 v 6.62147 h -1.25399 v -6.62147 h -2.18419 v -0.75792 l 2.18419,-0.22737 v -0.66146 q 0,-1.32981 0.62011,-1.92925 0.62013,-0.59945 2.06017,-0.59945 0.88882,0 1.73633,0.24116 l -0.28252,0.98529 q -0.71657,-0.19292 -1.42626,-0.19292 -0.84749,0 -1.15065,0.34451 -0.30319,0.34451 -0.30319,1.13688 v 0.71658 h 2.68029 z"
         style="font-style:normal;font-variant:normal;font-weight:normal;font-stretch:normal;font-size:53.3333px;line-height:1.25;font-family:'Droid Sans Mono';-inkscape-font-specification:'Droid Sans Mono, Normal';font-variant-ligatures:normal;font-variant-caps:normal;font-variant-numeric:normal;font-variant-east-asian:normal;white-space:pre;fill:#ffffff;fill-opacity:1;stroke:none;stroke-width:0.264583"
         id="path186893" />
      <path
         d="m 287.117,183.17572 h -6.27697 v -1.07487 l 2.41157,-2.62516 q 1.34358,-1.46761 1.77078,-2.18419 0.42719,-0.72347 0.42719,-1.59163 0,-0.77859 -0.44098,-1.22645 -0.43407,-0.45476 -1.17822,-0.45476 -1.10243,0 -2.19109,0.94396 l -0.70279,-0.81993 q 1.32292,-1.18511 2.90767,-1.18511 1.3367,0 2.10838,0.73035 0.77172,0.73037 0.77172,1.96371 0,0.81993 -0.40654,1.6812 -0.4065,0.86128 -2.00504,2.58382 l -1.93614,2.06017 v 0.0551 h 4.74046 z"
         style="font-style:normal;font-variant:normal;font-weight:normal;font-stretch:normal;font-size:53.3333px;line-height:1.25;font-family:'Droid Sans Mono';-inkscape-font-specification:'Droid Sans Mono, Normal';font-variant-ligatures:normal;font-variant-caps:normal;font-variant-numeric:normal;font-variant-east-asian:normal;white-space:pre;fill:#ffffff;fill-opacity:1;stroke:none;stroke-width:0.264583"
         id="path186895" />
      <path
         d="m 292.43621,183.31353 q -1.57784,0 -2.39088,-1.32981 -0.81306,-1.3367 -0.81306,-3.85851 0,-5.18142 3.20394,-5.18142 1.59854,0 2.41157,1.3367 0.81992,1.32981 0.81992,3.84472 0,5.18832 -3.23149,5.18832 z m 0,-1.06798 q 1.01285,0 1.48828,-0.96463 0.47543,-0.97152 0.47543,-3.15571 0,-2.1704 -0.47543,-3.13503 -0.47543,-0.97152 -1.48828,-0.97152 -0.99906,0 -1.46761,0.96463 -0.46165,0.95774 -0.46165,3.14192 0,2.19108 0.46165,3.15571 0.46855,0.96463 1.46761,0.96463 z"
         style="font-style:normal;font-variant:normal;font-weight:normal;font-stretch:normal;font-size:53.3333px;line-height:1.25;font-family:'Droid Sans Mono';-inkscape-font-specification:'Droid Sans Mono, Normal';font-variant-ligatures:normal;font-variant-caps:normal;font-variant-numeric:normal;font-variant-east-asian:normal;white-space:pre;fill:#ffffff;fill-opacity:1;stroke:none;stroke-width:0.264583"
         id="path186897" />
      <path
         d="m 304.05306,183.17572 h -6.27695 v -1.07487 l 2.41157,-2.62516 q 1.34358,-1.46761 1.77078,-2.18419 0.4272,-0.72347 0.4272,-1.59163 0,-0.77859 -0.44098,-1.22645 -0.43408,-0.45476 -1.17822,-0.45476 -1.10244,0 -2.19109,0.94396 l -0.70279,-0.81993 q 1.32292,-1.18511 2.90764,-1.18511 1.3367,0 2.10841,0.73035 0.77171,0.73037 0.77171,1.96371 0,0.81993 -0.40653,1.6812 -0.40653,0.86128 -2.00504,2.58382 l -1.93614,2.06017 v 0.0551 h 4.74043 z"
         style="font-style:normal;font-variant:normal;font-weight:normal;font-stretch:normal;font-size:53.3333px;line-height:1.25;font-family:'Droid Sans Mono';-inkscape-font-specification:'Droid Sans Mono, Normal';font-variant-ligatures:normal;font-variant-caps:normal;font-variant-numeric:normal;font-variant-east-asian:normal;white-space:pre;fill:#ffffff;fill-opacity:1;stroke:none;stroke-width:0.264583"
         id="path186899" />
      <path
         d="m 309.3723,183.31353 q -1.57787,0 -2.39091,-1.32981 -0.81304,-1.3367 -0.81304,-3.85851 0,-5.18142 3.20395,-5.18142 1.5985,0 2.41157,1.3367 0.81992,1.32981 0.81992,3.84472 0,5.18832 -3.23149,5.18832 z m 0,-1.06798 q 1.01285,0 1.48828,-0.96463 0.47543,-0.97152 0.47543,-3.15571 0,-2.1704 -0.47543,-3.13503 -0.47543,-0.97152 -1.48828,-0.97152 -0.9991,0 -1.46762,0.96463 -0.46164,0.95774 -0.46164,3.14192 0,2.19108 0.46164,3.15571 0.46852,0.96463 1.46762,0.96463 z"
         style="font-style:normal;font-variant:normal;font-weight:normal;font-stretch:normal;font-size:53.3333px;line-height:1.25;font-family:'Droid Sans Mono';-inkscape-font-specification:'Droid Sans Mono, Normal';font-variant-ligatures:normal;font-variant-caps:normal;font-variant-numeric:normal;font-variant-east-asian:normal;white-space:pre;fill:#ffffff;fill-opacity:1;stroke:none;stroke-width:0.264583"
         id="path186901" />
    </g>
  </g>
  <g
     inkscape:groupmode="layer"
     id="layer8"
     inkscape:label="text">
    <text
       xml:space="preserve"
       id="title"
       style="font-style:normal;font-weight:normal;font-size:10.5833px;line-height:1.25;font-family:sans-serif;white-space:pre;shape-inside:url(#rect187105);fill:#000000;fill-opacity:1;stroke:none;"
       inkscape:label="#title"><tspan
         x="10.583984"
         y="26.212916"><tspan
           style="font-style:normal;font-variant:normal;font-weight:normal;font-stretch:normal;font-size:17.6389px;font-family:'Droid Sans Mono';-inkscape-font-specification:'Droid Sans Mono, Normal';font-variant-ligatures:normal;font-variant-caps:normal;font-variant-numeric:normal;font-variant-east-asian:normal;fill:#1793d1;fill-opacity:1">$title</tspan></tspan></text>
    <text
       xml:space="preserve"
       id="subtitle"
       style="font-style:normal;font-weight:normal;font-size:10.5833px;line-height:1.25;font-family:sans-serif;white-space:pre;shape-inside:url(#rect188233);fill:#000000;fill-opacity:1;stroke:none;"
       inkscape:label="#subtitle"><tspan
         x="10.583984"
         y="104.62732"><tspan
           style="font-style:normal;font-variant:normal;font-weight:normal;font-stretch:normal;font-size:10.5833px;font-family:'Droid Sans Mono';-inkscape-font-specification:'Droid Sans Mono, Normal';font-variant-ligatures:normal;font-variant-caps:normal;font-variant-numeric:normal;font-variant-east-asian:normal;fill:#ffffff;fill-opacity:1">$subtitle</tspan></tspan></text>
    <text
       xml:space="preserve"
       id="persons"
       style="font-style:normal;font-weight:normal;font-size:10.5833px;line-height:1.25;font-family:sans-serif;white-space:pre;shape-inside:url(#rect188239);fill:#000000;fill-opacity:1;stroke:none;"
       inkscape:label="#persons"><tspan
         x="10.583984"
         y="199.87732"><tspan
           style="font-style:normal;font-variant:normal;font-weight:normal;font-stretch:normal;font-size:10.5833px;font-family:'Droid Sans Mono';-inkscape-font-specification:'Droid Sans Mono, Normal';font-variant-ligatures:normal;font-variant-caps:normal;font-variant-numeric:normal;font-variant-east-asian:normal;fill:#ffffff;fill-opacity:1">$persons</tspan></tspan></text>
    <text
       xml:space="preserve"
       id="id"
       style="font-style:normal;font-weight:normal;font-size:10.5833px;line-height:1.25;font-family:sans-serif;white-space:pre;shape-inside:url(#rect188251);fill:#000000;fill-opacity:1;stroke:none;"
       inkscape:label="#id"><tspan
         x="201.08398"
         y="252.79334"><tspan
           style="font-style:normal;font-variant:normal;font-weight:normal;font-stretch:normal;font-size:10.5833px;font-family:'Droid Sans Mono';-inkscape-font-specification:'Droid Sans Mono, Normal';font-variant-ligatures:normal;font-variant-caps:normal;font-variant-numeric:normal;font-variant-east-asian:normal;fill:#ffffff;fill-opacity:1">$id</tspan></tspan></text>
  </g>
</svg>
