<?xml version="1.0" encoding="utf-8"?>
<!-- Generator: Adobe Illustrator 14.0.0, SVG Export Plug-In . SVG Version: 6.00 Build 43363)  -->
<!DOCTYPE svg PUBLIC "-//W3C//DTD SVG 1.1//EN" "http://www.w3.org/Graphics/SVG/1.1/DTD/svg11.dtd">
<svg version="1.1" id="Ebene_1" xmlns="http://www.w3.org/2000/svg" xmlns:xlink="http://www.w3.org/1999/xlink" x="0px" y="0px"
	 width="575.022px" height="649.145px" viewBox="0 0 575.022 649.145" enable-background="new 0 0 575.022 649.145"
	 xml:space="preserve">
<g>
	<path fill-rule="evenodd" clip-rule="evenodd" d="M165.798,155.262c-0.492,10.818,0,21.062,0,31.593v11.941
		c0,2.559-1.393,8.641,0.391,10.957c2.458,3.199,7.685,3.711,12.26,3.752c11.922,0.104,27.555-2.09,39.431-1.266
		c18.36,1.273,58.056,1.117,59.44,0.191c2.736-1.836,1.752-10.873,1.752-13.178c0-14.439-0.137-21.327-0.137-35.767
		c0-3.188-0.131-13.545-0.969-16.674c-2.654-9.953-32.324-4.857-43.489-4.857c-15.667,0-29.61,0.031-45.296,0.152
		c-9.268,0.076-19.805-2.371-22.846,4.912C165.568,148.856,165.886,153.34,165.798,155.262"/>
	<path fill-rule="evenodd" clip-rule="evenodd" d="M160.408,161.411c-8.304-3.693-20.533-20.553-22.053-19.398
		c-1.412,1.074,0.158,20.311,0.229,34.73c0.041,9.47-0.256,33.335,0.695,34.655c0.364,0.51,7.734-7.469,9.498-9.75
		c4.3-5.553,8.668-11.221,11.99-14.307v-15.917L160.408,161.411z"/>
	<path d="M220.587,103.37c-0.264-6.479-4.713-20.773-13.664-26.123c-2.912-1.748-11.774-3.068-15.143-3.506
		c-8.441-1.094-16.925,0.643-23.561,7.006c-7.863,7.541-9.797,18.102-9.833,28.447c-0.073,19.393,21.308,32.77,39.313,27.018
		c6.34-2.023,14.602-7.061,17.76-13.221C217.843,118.333,220.792,108.522,220.587,103.37 M199.19,110.034
		c-7.205,0.072-13.876-7.246-13.695-7.414c4.563-4.42,9.216-8.076,13.683-7.986c3.867,0.078,12.344,4.762,14.41,7.703
		C213.587,102.336,206.029,110.04,199.19,110.034"/>
	<path d="M271.05,75.981c-5.824-3.357-15.868-4.005-22.503-2c-5.036,1.518-12.26,4.484-15.856,8.309
		c-4.538,4.814-8.603,11.533-8.039,22.348c0.434,8.242,4.011,16.463,6.01,19.326c4.996,7.156,12.795,11.701,21.981,12.182
		c10.884,0.564,17.333-2.707,24.886-10.049C291.679,112.323,287.591,85.485,271.05,75.981 M267.814,108.227
		c-5.976-0.092-12.182-6.346-12.014-6.508c4.006-3.879,8.088-7.086,12.002-7.008c3.398,0.072,10.83,4.18,12.645,6.762
		C280.447,101.473,273.818,108.227,267.814,108.227"/>
	<ellipse fill-rule="evenodd" clip-rule="evenodd" cx="194.076" cy="100.497" rx="5.212" ry="5.791"/>
	<ellipse fill-rule="evenodd" clip-rule="evenodd" cx="262.726" cy="99.528" rx="4.427" ry="4.984"/>
</g>
<g>
	<path fill-rule="evenodd" clip-rule="evenodd" d="M120.337,82.739c0.492,10.818,0,21.062,0,31.592v11.941
		c0,2.559,1.393,8.641-0.391,10.957c-2.457,3.199-7.684,3.711-12.26,3.752c-11.921,0.104-27.555-2.09-39.43-1.266
		c-18.361,1.273-58.057,1.117-59.44,0.191c-2.736-1.836-1.752-10.873-1.752-13.178c0-14.439,0.135-21.326,0.135-35.766
		c0-3.189,0.132-13.545,0.97-16.673c2.653-9.954,32.325-4.857,43.49-4.857c15.666,0,29.61,0.031,45.296,0.151
		c9.267,0.077,19.804-2.371,22.845,4.911C120.569,76.333,120.25,80.817,120.337,82.739"/>
	<path fill-rule="evenodd" clip-rule="evenodd" d="M125.729,88.885c8.304-3.691,20.533-20.551,22.052-19.397
		c1.412,1.073-0.158,20.311-0.229,34.731c-0.041,9.469,0.257,33.334-0.695,34.654c-0.363,0.51-7.733-7.469-9.498-9.75
		c-4.299-5.553-8.667-11.221-11.99-14.307V98.901L125.729,88.885z"/>
	<path d="M65.548,30.847c-0.203,5.15,2.744,14.961,5.128,19.619c3.158,6.162,11.419,11.198,17.76,13.221
		c18.005,5.753,39.386-7.625,39.313-27.016c-0.037-10.346-1.97-20.906-9.834-28.447c-6.635-6.365-15.118-8.1-23.561-7.007
		c-3.367,0.438-12.23,1.759-15.142,3.506C70.261,10.072,65.812,24.368,65.548,30.847 M106.947,37.51
		c-6.839,0.007-14.397-7.696-14.397-7.696c2.065-2.942,10.542-7.625,14.409-7.704c4.467-0.09,9.12,3.566,13.684,7.985
		C120.822,30.265,114.152,37.583,106.947,37.51"/>
	<path d="M15.086,3.457C-1.455,12.961-5.543,39.798,8.607,53.571c7.553,7.343,14.001,10.615,24.887,10.051
		c9.187-0.48,16.984-5.025,21.98-12.183c2-2.864,5.577-11.083,6.01-19.326c0.564-10.813-3.5-17.532-8.039-22.347
		c-3.596-3.824-10.819-6.791-15.855-8.31C30.955-0.548,20.909,0.101,15.086,3.457 M42.322,35.704
		c-6.004,0-12.633-6.755-12.633-6.755c1.814-2.582,9.247-6.689,12.646-6.761c3.913-0.078,7.996,3.128,12.001,7.007
		C54.503,29.356,48.299,35.611,42.322,35.704"/>
	<ellipse fill-rule="evenodd" clip-rule="evenodd" cx="111.06" cy="32.972" rx="5.213" ry="5.793"/>
	<ellipse fill-rule="evenodd" clip-rule="evenodd" cx="45.41" cy="32.003" rx="4.428" ry="4.986"/>
</g>
<g>
	<path fill-rule="evenodd" clip-rule="evenodd" d="M165.798,300.639c-0.492,10.818,0,21.062,0,31.592v11.941
		c0,2.559-1.393,8.641,0.391,10.957c2.458,3.199,7.685,3.711,12.26,3.752c11.922,0.104,27.555-2.09,39.431-1.266
		c18.36,1.273,58.056,1.117,59.44,0.191c2.736-1.836,1.752-10.873,1.752-13.178c0-14.439-0.137-21.326-0.137-35.766
		c0-3.188-0.131-13.545-0.969-16.674c-2.654-9.954-32.324-4.858-43.489-4.858c-15.667,0-29.61,0.031-45.296,0.152
		c-9.268,0.076-19.805-2.371-22.846,4.913C165.568,294.232,165.886,298.716,165.798,300.639"/>
	<path fill-rule="evenodd" clip-rule="evenodd" d="M160.408,306.787c-8.304-3.693-20.533-20.554-22.053-19.399
		c-1.412,1.074,0.158,20.312,0.229,34.731c0.041,9.469-0.256,33.334,0.695,34.654c0.364,0.51,7.734-7.469,9.498-9.75
		c4.3-5.553,8.668-11.221,11.99-14.307v-15.916L160.408,306.787z"/>
	<path d="M220.587,248.745c-0.264-6.479-4.713-20.773-13.664-26.123c-2.912-1.748-11.774-3.068-15.143-3.506
		c-8.441-1.094-16.925,0.643-23.561,7.006c-7.863,7.541-9.797,18.102-9.833,28.447c-0.073,19.393,21.308,32.77,39.313,27.018
		c6.34-2.023,14.602-7.061,17.76-13.221C217.843,263.708,220.792,253.897,220.587,248.745 M199.19,255.409
		c-7.205,0.072-13.876-7.246-13.695-7.414c4.563-4.42,9.216-8.076,13.683-7.986c3.867,0.078,12.344,4.762,14.41,7.703
		C213.587,247.712,206.029,255.415,199.19,255.409"/>
	<path d="M271.05,221.356c-5.824-3.357-15.868-4.005-22.503-2c-5.036,1.518-12.26,4.484-15.856,8.309
		c-4.538,4.814-8.603,11.533-8.039,22.348c0.434,8.242,4.011,16.463,6.01,19.326c4.996,7.156,12.795,11.701,21.981,12.182
		c10.884,0.564,17.333-2.707,24.886-10.049C291.679,257.698,287.591,230.86,271.05,221.356 M267.814,253.603
		c-5.976-0.092-12.182-6.346-12.014-6.508c4.006-3.879,8.088-7.086,12.002-7.008c3.398,0.072,10.83,4.18,12.645,6.762
		C280.447,246.849,273.818,253.603,267.814,253.603"/>
	<ellipse fill-rule="evenodd" clip-rule="evenodd" cx="194.076" cy="245.872" rx="5.212" ry="5.791"/>
	<ellipse fill-rule="evenodd" clip-rule="evenodd" cx="262.726" cy="244.903" rx="4.427" ry="4.984"/>
</g>
<g>
	<path fill-rule="evenodd" clip-rule="evenodd" d="M120.337,228.114c0.492,10.818,0,21.062,0,31.592v11.941
		c0,2.559,1.393,8.641-0.391,10.957c-2.457,3.199-7.684,3.711-12.26,3.752c-11.921,0.104-27.555-2.09-39.43-1.266
		c-18.361,1.273-58.057,1.117-59.44,0.191c-2.736-1.836-1.752-10.873-1.752-13.178c0-14.439,0.135-21.326,0.135-35.766
		c0-3.189,0.132-13.545,0.97-16.673c2.653-9.954,32.325-4.857,43.49-4.857c15.666,0,29.61,0.031,45.296,0.151
		c9.267,0.077,19.804-2.371,22.845,4.911C120.569,221.708,120.25,226.192,120.337,228.114"/>
	<path fill-rule="evenodd" clip-rule="evenodd" d="M125.729,234.261c8.304-3.691,20.533-20.551,22.052-19.397
		c1.412,1.073-0.158,20.311-0.229,34.731c-0.041,9.469,0.257,33.334-0.695,34.654c-0.363,0.51-7.733-7.469-9.498-9.75
		c-4.299-5.553-8.667-11.221-11.99-14.307v-15.916L125.729,234.261z"/>
	<path d="M65.548,176.222c-0.203,5.15,2.744,14.961,5.128,19.619c3.158,6.162,11.419,11.198,17.76,13.221
		c18.005,5.753,39.386-7.625,39.313-27.016c-0.037-10.346-1.97-20.906-9.834-28.447c-6.635-6.365-15.118-8.1-23.561-7.007
		c-3.367,0.438-12.23,1.759-15.142,3.506C70.261,155.448,65.812,169.743,65.548,176.222 M106.947,182.885
		c-6.839,0.007-14.397-7.696-14.397-7.696c2.065-2.942,10.542-7.625,14.409-7.704c4.467-0.09,9.12,3.566,13.684,7.985
		C120.822,175.64,114.152,182.958,106.947,182.885"/>
	<path d="M15.086,148.832c-16.541,9.504-20.629,36.341-6.479,50.115c7.553,7.343,14.001,10.615,24.887,10.051
		c9.187-0.48,16.984-5.025,21.98-12.183c2-2.864,5.577-11.083,6.01-19.326c0.564-10.813-3.5-17.532-8.039-22.347
		c-3.596-3.824-10.819-6.791-15.855-8.31C30.955,144.827,20.909,145.476,15.086,148.832 M42.322,181.08
		c-6.004,0-12.633-6.755-12.633-6.755c1.814-2.582,9.247-6.689,12.646-6.761c3.913-0.078,7.996,3.128,12.001,7.007
		C54.503,174.732,48.299,180.987,42.322,181.08"/>
	<ellipse fill-rule="evenodd" clip-rule="evenodd" cx="111.06" cy="178.347" rx="5.213" ry="5.793"/>
	<ellipse fill-rule="evenodd" clip-rule="evenodd" cx="45.41" cy="177.378" rx="4.428" ry="4.986"/>
</g>
<g>
	<path fill-rule="evenodd" clip-rule="evenodd" d="M165.798,445.846c-0.492,10.818,0,21.062,0,31.592v11.941
		c0,2.559-1.393,8.641,0.391,10.957c2.458,3.199,7.685,3.711,12.26,3.752c11.922,0.104,27.555-2.09,39.431-1.266
		c18.36,1.273,58.056,1.117,59.44,0.191c2.736-1.836,1.752-10.873,1.752-13.178c0-14.439-0.137-21.326-0.137-35.766
		c0-3.188-0.131-13.545-0.969-16.674c-2.654-9.953-32.324-4.857-43.489-4.857c-15.667,0-29.61,0.031-45.296,0.152
		c-9.268,0.076-19.805-2.371-22.846,4.912C165.568,439.439,165.886,443.924,165.798,445.846"/>
	<path fill-rule="evenodd" clip-rule="evenodd" d="M160.408,451.994c-8.304-3.693-20.533-20.553-22.053-19.398
		c-1.412,1.074,0.158,20.311,0.229,34.73c0.041,9.469-0.256,33.334,0.695,34.654c0.364,0.51,7.734-7.469,9.498-9.75
		c4.3-5.553,8.668-11.221,11.99-14.307v-15.916L160.408,451.994z"/>
	<path d="M220.587,393.953c-0.264-6.479-4.713-20.773-13.664-26.123c-2.912-1.748-11.774-3.068-15.143-3.506
		c-8.441-1.094-16.925,0.643-23.561,7.006c-7.863,7.541-9.797,18.102-9.833,28.447c-0.073,19.393,21.308,32.77,39.313,27.018
		c6.34-2.023,14.602-7.061,17.76-13.221C217.843,408.916,220.792,399.105,220.587,393.953 M199.19,400.617
		c-7.205,0.072-13.876-7.246-13.695-7.414c4.563-4.42,9.216-8.076,13.683-7.986c3.867,0.078,12.344,4.762,14.41,7.703
		C213.587,392.92,206.029,400.623,199.19,400.617"/>
	<path d="M271.05,366.564c-5.824-3.357-15.868-4.006-22.503-2c-5.036,1.518-12.26,4.484-15.856,8.309
		c-4.538,4.814-8.603,11.533-8.039,22.348c0.434,8.242,4.011,16.463,6.01,19.326c4.996,7.156,12.795,11.701,21.981,12.182
		c10.884,0.564,17.333-2.707,24.886-10.049C291.679,402.906,287.591,376.068,271.05,366.564 M267.814,398.811
		c-5.976-0.092-12.182-6.346-12.014-6.508c4.006-3.879,8.088-7.086,12.002-7.008c3.398,0.072,10.83,4.18,12.645,6.762
		C280.447,392.057,273.818,398.811,267.814,398.811"/>
	<ellipse fill-rule="evenodd" clip-rule="evenodd" cx="194.076" cy="391.08" rx="5.212" ry="5.791"/>
	<ellipse fill-rule="evenodd" clip-rule="evenodd" cx="262.726" cy="390.111" rx="4.427" ry="4.984"/>
</g>
<g>
	<path fill-rule="evenodd" clip-rule="evenodd" d="M120.337,373.322c0.492,10.818,0,21.062,0,31.592v11.941
		c0,2.559,1.393,8.641-0.391,10.957c-2.457,3.199-7.684,3.711-12.26,3.752c-11.921,0.104-27.555-2.09-39.43-1.266
		c-18.361,1.273-58.057,1.117-59.44,0.191c-2.736-1.836-1.752-10.873-1.752-13.178c0-14.439,0.135-21.326,0.135-35.766
		c0-3.189,0.132-13.545,0.97-16.674c2.653-9.953,32.325-4.857,43.49-4.857c15.666,0,29.61,0.031,45.296,0.152
		c9.267,0.076,19.804-2.371,22.845,4.91C120.569,366.916,120.25,371.4,120.337,373.322"/>
	<path fill-rule="evenodd" clip-rule="evenodd" d="M125.729,379.469c8.304-3.691,20.533-20.551,22.052-19.396
		c1.412,1.072-0.158,20.311-0.229,34.73c-0.041,9.469,0.257,33.334-0.695,34.654c-0.363,0.51-7.733-7.469-9.498-9.75
		c-4.299-5.553-8.667-11.221-11.99-14.307v-15.916L125.729,379.469z"/>
	<path d="M65.548,321.43c-0.203,5.15,2.744,14.961,5.128,19.619c3.158,6.162,11.419,11.199,17.76,13.221
		c18.005,5.754,39.386-7.625,39.313-27.016c-0.037-10.346-1.97-20.906-9.834-28.448c-6.635-6.364-15.118-8.1-23.561-7.006
		c-3.367,0.438-12.23,1.758-15.142,3.506C70.261,300.656,65.812,314.951,65.548,321.43 M106.947,328.094
		c-6.839,0.006-14.397-7.697-14.397-7.697c2.065-2.941,10.542-7.625,14.409-7.703c4.467-0.09,9.12,3.566,13.684,7.984
		C120.822,320.848,114.152,328.166,106.947,328.094"/>
	<path d="M15.086,294.04c-16.541,9.505-20.629,36.341-6.479,50.115c7.553,7.344,14.001,10.615,24.887,10.051
		c9.187-0.48,16.984-5.025,21.98-12.182c2-2.865,5.577-11.084,6.01-19.326c0.564-10.814-3.5-17.533-8.039-22.348
		c-3.596-3.825-10.819-6.792-15.855-8.31C30.955,290.035,20.909,290.683,15.086,294.04 M42.322,326.287
		c-6.004,0-12.633-6.754-12.633-6.754c1.814-2.582,9.247-6.689,12.646-6.762c3.913-0.078,7.996,3.129,12.001,7.008
		C54.503,319.939,48.299,326.195,42.322,326.287"/>
	<ellipse fill-rule="evenodd" clip-rule="evenodd" cx="111.06" cy="323.555" rx="5.213" ry="5.793"/>
	<ellipse fill-rule="evenodd" clip-rule="evenodd" cx="45.41" cy="322.586" rx="4.428" ry="4.986"/>
</g>
<g>
	<path fill-rule="evenodd" clip-rule="evenodd" d="M165.798,591.221c-0.492,10.818,0,21.062,0,31.592v11.941
		c0,2.559-1.393,8.641,0.391,10.957c2.458,3.199,7.685,3.711,12.26,3.752c11.922,0.104,27.555-2.09,39.431-1.266
		c18.36,1.273,58.056,1.117,59.44,0.191c2.736-1.836,1.752-10.873,1.752-13.178c0-14.439-0.137-21.326-0.137-35.766
		c0-3.188-0.131-13.545-0.969-16.674c-2.654-9.953-32.324-4.857-43.489-4.857c-15.667,0-29.61,0.031-45.296,0.152
		c-9.268,0.076-19.805-2.371-22.846,4.912C165.568,584.814,165.886,589.299,165.798,591.221"/>
	<path fill-rule="evenodd" clip-rule="evenodd" d="M160.408,597.369c-8.304-3.693-20.533-20.553-22.053-19.398
		c-1.412,1.074,0.158,20.311,0.229,34.73c0.041,9.469-0.256,33.334,0.695,34.654c0.364,0.51,7.734-7.469,9.498-9.75
		c4.3-5.553,8.668-11.221,11.99-14.307v-15.916L160.408,597.369z"/>
	<path d="M220.587,539.328c-0.264-6.479-4.713-20.773-13.664-26.123c-2.912-1.748-11.774-3.068-15.143-3.506
		c-8.441-1.094-16.925,0.643-23.561,7.006c-7.863,7.541-9.797,18.102-9.833,28.447c-0.073,19.393,21.308,32.77,39.313,27.018
		c6.34-2.023,14.602-7.061,17.76-13.221C217.843,554.291,220.792,544.48,220.587,539.328 M199.19,545.992
		c-7.205,0.072-13.876-7.246-13.695-7.414c4.563-4.42,9.216-8.076,13.683-7.986c3.867,0.078,12.344,4.762,14.41,7.703
		C213.587,538.295,206.029,545.998,199.19,545.992"/>
	<path d="M271.05,511.939c-5.824-3.357-15.868-4.006-22.503-2c-5.036,1.518-12.26,4.484-15.856,8.309
		c-4.538,4.814-8.603,11.533-8.039,22.348c0.434,8.242,4.011,16.463,6.01,19.326c4.996,7.156,12.795,11.701,21.981,12.182
		c10.884,0.564,17.333-2.707,24.886-10.049C291.679,548.281,287.591,521.443,271.05,511.939 M267.814,544.186
		c-5.976-0.092-12.182-6.346-12.014-6.508c4.006-3.879,8.088-7.086,12.002-7.008c3.398,0.072,10.83,4.18,12.645,6.762
		C280.447,537.432,273.818,544.186,267.814,544.186"/>
	<ellipse fill-rule="evenodd" clip-rule="evenodd" cx="194.076" cy="536.455" rx="5.212" ry="5.791"/>
	<ellipse fill-rule="evenodd" clip-rule="evenodd" cx="262.726" cy="535.486" rx="4.427" ry="4.984"/>
</g>
<g>
	<path fill-rule="evenodd" clip-rule="evenodd" d="M120.337,518.697c0.492,10.818,0,21.062,0,31.592v11.941
		c0,2.559,1.393,8.641-0.391,10.957c-2.457,3.199-7.684,3.711-12.26,3.752c-11.921,0.104-27.555-2.09-39.43-1.266
		c-18.361,1.273-58.057,1.117-59.44,0.191c-2.736-1.836-1.752-10.873-1.752-13.178c0-14.439,0.135-21.326,0.135-35.766
		c0-3.189,0.132-13.545,0.97-16.674c2.653-9.953,32.325-4.857,43.49-4.857c15.666,0,29.61,0.031,45.296,0.152
		c9.267,0.076,19.804-2.371,22.845,4.91C120.569,512.291,120.25,516.775,120.337,518.697"/>
	<path fill-rule="evenodd" clip-rule="evenodd" d="M125.729,524.844c8.304-3.691,20.533-20.551,22.052-19.396
		c1.412,1.072-0.158,20.311-0.229,34.73c-0.041,9.469,0.257,33.334-0.695,34.654c-0.363,0.51-7.733-7.469-9.498-9.75
		c-4.299-5.553-8.667-11.221-11.99-14.307v-15.916L125.729,524.844z"/>
	<path d="M65.548,466.805c-0.203,5.15,2.744,14.961,5.128,19.619c3.158,6.162,11.419,11.199,17.76,13.221
		c18.005,5.754,39.386-7.625,39.313-27.016c-0.037-10.346-1.97-20.906-9.834-28.447c-6.635-6.363-15.118-8.1-23.561-7.006
		c-3.367,0.438-12.23,1.758-15.142,3.506C70.261,446.031,65.812,460.326,65.548,466.805 M106.947,473.469
		c-6.839,0.006-14.397-7.697-14.397-7.697c2.065-2.941,10.542-7.625,14.409-7.703c4.467-0.09,9.12,3.566,13.684,7.984
		C120.822,466.223,114.152,473.541,106.947,473.469"/>
	<path d="M15.086,439.416c-16.541,9.504-20.629,36.34-6.479,50.113c7.553,7.344,14.001,10.615,24.887,10.051
		c9.187-0.48,16.984-5.025,21.98-12.182c2-2.865,5.577-11.084,6.01-19.326c0.564-10.814-3.5-17.533-8.039-22.348
		c-3.596-3.824-10.819-6.791-15.855-8.309C30.955,435.41,20.909,436.059,15.086,439.416 M42.322,471.662
		c-6.004,0-12.633-6.754-12.633-6.754c1.814-2.582,9.247-6.689,12.646-6.762c3.913-0.078,7.996,3.129,12.001,7.008
		C54.503,465.314,48.299,471.57,42.322,471.662"/>
	<ellipse fill-rule="evenodd" clip-rule="evenodd" cx="111.06" cy="468.93" rx="5.213" ry="5.793"/>
	<ellipse fill-rule="evenodd" clip-rule="evenodd" cx="45.41" cy="467.961" rx="4.428" ry="4.986"/>
</g>
<g>
	<path fill-rule="evenodd" clip-rule="evenodd" d="M454.686,154.939c-0.492,10.818,0,21.062,0,31.593v11.941
		c0,2.559-1.393,8.641,0.391,10.957c2.457,3.199,7.684,3.711,12.26,3.752c11.922,0.104,27.555-2.09,39.43-1.266
		c18.361,1.273,58.057,1.117,59.441,0.191c2.736-1.836,1.752-10.873,1.752-13.178c0-14.439-0.137-21.327-0.137-35.767
		c0-3.188-0.131-13.545-0.969-16.674c-2.654-9.953-32.324-4.857-43.49-4.857c-15.666,0-29.609,0.031-45.295,0.152
		c-9.268,0.076-19.805-2.371-22.846,4.912C454.455,148.533,454.773,153.017,454.686,154.939"/>
	<path fill-rule="evenodd" clip-rule="evenodd" d="M449.295,161.087c-8.305-3.693-20.533-20.553-22.053-19.398
		c-1.412,1.074,0.158,20.311,0.229,34.73c0.041,9.47-0.256,33.335,0.695,34.655c0.363,0.51,7.734-7.469,9.498-9.75
		c4.299-5.553,8.668-11.221,11.99-14.307v-15.917L449.295,161.087z"/>
	<path d="M509.475,103.046c-0.264-6.479-4.713-20.773-13.664-26.123c-2.912-1.748-11.775-3.068-15.143-3.506
		c-8.441-1.094-16.926,0.643-23.561,7.006c-7.863,7.541-9.797,18.102-9.834,28.447c-0.072,19.393,21.309,32.77,39.314,27.018
		c6.34-2.023,14.602-7.061,17.76-13.221C506.73,118.009,509.678,108.199,509.475,103.046 M488.076,109.71
		c-7.205,0.072-13.875-7.246-13.695-7.414c4.564-4.42,9.217-8.076,13.684-7.986c3.867,0.078,12.344,4.762,14.41,7.703
		C502.475,102.013,494.916,109.716,488.076,109.71"/>
	<path d="M559.938,75.658c-5.824-3.357-15.869-4.005-22.504-2c-5.035,1.518-12.26,4.484-15.855,8.309
		c-4.539,4.814-8.604,11.533-8.039,22.348c0.434,8.242,4.01,16.463,6.01,19.326c4.996,7.156,12.795,11.701,21.98,12.182
		c10.885,0.564,17.334-2.707,24.887-10.049C580.566,112,576.479,85.162,559.938,75.658 M556.701,107.904
		c-5.977-0.092-12.182-6.346-12.014-6.508c4.006-3.879,8.088-7.086,12.002-7.008c3.398,0.072,10.83,4.18,12.645,6.762
		C569.334,101.15,562.705,107.904,556.701,107.904"/>
	<ellipse fill-rule="evenodd" clip-rule="evenodd" cx="482.963" cy="100.173" rx="5.213" ry="5.791"/>
	<ellipse fill-rule="evenodd" clip-rule="evenodd" cx="551.613" cy="99.205" rx="4.428" ry="4.984"/>
</g>
<g>
	<path fill-rule="evenodd" clip-rule="evenodd" d="M409.224,82.416c0.492,10.818,0,21.062,0,31.592v11.941
		c0,2.559,1.393,8.641-0.391,10.957c-2.457,3.199-7.684,3.711-12.26,3.752c-11.922,0.104-27.555-2.09-39.43-1.266
		c-18.361,1.273-58.057,1.117-59.441,0.191c-2.736-1.836-1.752-10.873-1.752-13.178c0-14.439,0.136-21.326,0.136-35.766
		c0-3.189,0.132-13.545,0.97-16.673c2.653-9.954,32.324-4.857,43.49-4.857c15.666,0,29.609,0.031,45.295,0.151
		c9.268,0.077,19.805-2.371,22.846,4.911C409.455,76.009,409.136,80.494,409.224,82.416"/>
	<path fill-rule="evenodd" clip-rule="evenodd" d="M414.615,88.562c8.305-3.691,20.534-20.551,22.053-19.397
		c1.412,1.073-0.158,20.311-0.229,34.731c-0.041,9.469,0.256,33.334-0.695,34.654c-0.363,0.51-7.734-7.469-9.498-9.75
		c-4.299-5.553-8.668-11.221-11.991-14.307V98.578L414.615,88.562z"/>
	<path d="M354.435,30.523c-0.203,5.15,2.744,14.961,5.127,19.619c3.158,6.162,11.42,11.198,17.76,13.221
		c18.006,5.753,39.387-7.625,39.314-27.016c-0.037-10.346-1.971-20.906-9.834-28.447c-6.635-6.365-15.119-8.1-23.561-7.007
		c-3.367,0.438-12.23,1.759-15.143,3.506C359.148,9.749,354.699,24.044,354.435,30.523 M395.833,37.187
		c-6.84,0.007-14.398-7.696-14.398-7.696c2.066-2.942,10.543-7.625,14.41-7.704c4.467-0.09,9.119,3.566,13.684,7.985
		C409.708,29.941,403.039,37.26,395.833,37.187"/>
	<path d="M303.972,3.133c-16.541,9.504-20.629,36.341-6.479,50.115c7.553,7.343,14.001,10.615,24.887,10.051
		c9.186-0.48,16.984-5.025,21.98-12.183c2-2.864,5.576-11.083,6.01-19.326c0.564-10.813-3.5-17.532-8.039-22.347
		c-3.596-3.824-10.82-6.791-15.855-8.31C319.841-0.872,309.795-0.223,303.972,3.133 M331.208,35.381
		c-6.004,0-12.633-6.755-12.633-6.755c1.814-2.582,9.246-6.689,12.645-6.761c3.914-0.078,7.996,3.128,12.002,7.007
		C343.39,29.033,337.185,35.288,331.208,35.381"/>
	<ellipse fill-rule="evenodd" clip-rule="evenodd" cx="399.947" cy="32.648" rx="5.213" ry="5.793"/>
	<ellipse fill-rule="evenodd" clip-rule="evenodd" cx="334.296" cy="31.68" rx="4.428" ry="4.986"/>
</g>
<g>
	<path fill-rule="evenodd" clip-rule="evenodd" d="M454.686,300.314c-0.492,10.818,0,21.062,0,31.592v11.941
		c0,2.559-1.393,8.641,0.391,10.957c2.457,3.199,7.684,3.711,12.26,3.752c11.922,0.104,27.555-2.09,39.43-1.266
		c18.361,1.273,58.057,1.117,59.441,0.191c2.736-1.836,1.752-10.873,1.752-13.178c0-14.439-0.137-21.326-0.137-35.766
		c0-3.188-0.131-13.545-0.969-16.674c-2.654-9.953-32.324-4.857-43.49-4.857c-15.666,0-29.609,0.031-45.295,0.152
		c-9.268,0.076-19.805-2.371-22.846,4.912C454.455,293.908,454.773,298.392,454.686,300.314"/>
	<path fill-rule="evenodd" clip-rule="evenodd" d="M449.295,306.463c-8.305-3.693-20.533-20.553-22.053-19.398
		c-1.412,1.074,0.158,20.311,0.229,34.73c0.041,9.469-0.256,33.334,0.695,34.654c0.363,0.51,7.734-7.469,9.498-9.75
		c4.299-5.553,8.668-11.221,11.99-14.307v-15.916L449.295,306.463z"/>
	<path d="M509.475,248.422c-0.264-6.479-4.713-20.773-13.664-26.123c-2.912-1.748-11.775-3.068-15.143-3.506
		c-8.441-1.094-16.926,0.643-23.561,7.006c-7.863,7.541-9.797,18.102-9.834,28.447c-0.072,19.393,21.309,32.77,39.314,27.018
		c6.34-2.023,14.602-7.061,17.76-13.221C506.73,263.385,509.678,253.574,509.475,248.422 M488.076,255.086
		c-7.205,0.072-13.875-7.246-13.695-7.414c4.564-4.42,9.217-8.076,13.684-7.986c3.867,0.078,12.344,4.762,14.41,7.703
		C502.475,247.389,494.916,255.092,488.076,255.086"/>
	<path d="M559.938,221.033c-5.824-3.357-15.869-4.005-22.504-2c-5.035,1.518-12.26,4.484-15.855,8.309
		c-4.539,4.814-8.604,11.533-8.039,22.348c0.434,8.242,4.01,16.463,6.01,19.326c4.996,7.156,12.795,11.701,21.98,12.182
		c10.885,0.564,17.334-2.707,24.887-10.049C580.566,257.375,576.479,230.537,559.938,221.033 M556.701,253.279
		c-5.977-0.092-12.182-6.346-12.014-6.508c4.006-3.879,8.088-7.086,12.002-7.008c3.398,0.072,10.83,4.18,12.645,6.762
		C569.334,246.525,562.705,253.279,556.701,253.279"/>
	<ellipse fill-rule="evenodd" clip-rule="evenodd" cx="482.963" cy="245.549" rx="5.213" ry="5.791"/>
	<ellipse fill-rule="evenodd" clip-rule="evenodd" cx="551.613" cy="244.58" rx="4.428" ry="4.984"/>
</g>
<g>
	<path fill-rule="evenodd" clip-rule="evenodd" d="M409.224,227.791c0.492,10.818,0,21.062,0,31.592v11.941
		c0,2.559,1.393,8.641-0.391,10.957c-2.457,3.199-7.684,3.711-12.26,3.752c-11.922,0.104-27.555-2.09-39.43-1.266
		c-18.361,1.273-58.057,1.117-59.441,0.191c-2.736-1.836-1.752-10.873-1.752-13.178c0-14.439,0.136-21.326,0.136-35.766
		c0-3.189,0.132-13.545,0.97-16.673c2.653-9.954,32.324-4.857,43.49-4.857c15.666,0,29.609,0.031,45.295,0.151
		c9.268,0.077,19.805-2.371,22.846,4.911C409.455,221.385,409.136,225.869,409.224,227.791"/>
	<path fill-rule="evenodd" clip-rule="evenodd" d="M414.615,233.938c8.305-3.691,20.534-20.551,22.053-19.397
		c1.412,1.073-0.158,20.311-0.229,34.731c-0.041,9.469,0.256,33.334-0.695,34.654c-0.363,0.51-7.734-7.469-9.498-9.75
		c-4.299-5.553-8.668-11.221-11.991-14.307v-15.916L414.615,233.938z"/>
	<path d="M354.435,175.899c-0.203,5.15,2.744,14.961,5.127,19.619c3.158,6.162,11.42,11.198,17.76,13.221
		c18.006,5.753,39.387-7.625,39.314-27.016c-0.037-10.346-1.971-20.906-9.834-28.447c-6.635-6.365-15.119-8.1-23.561-7.007
		c-3.367,0.438-12.23,1.759-15.143,3.506C359.148,155.125,354.699,169.42,354.435,175.899 M395.833,182.562
		c-6.84,0.007-14.398-7.696-14.398-7.696c2.066-2.942,10.543-7.625,14.41-7.704c4.467-0.09,9.119,3.566,13.684,7.985
		C409.708,175.317,403.039,182.635,395.833,182.562"/>
	<path d="M303.972,148.509c-16.541,9.504-20.629,36.341-6.479,50.115c7.553,7.343,14.001,10.615,24.887,10.051
		c9.186-0.48,16.984-5.025,21.98-12.183c2-2.864,5.576-11.083,6.01-19.326c0.564-10.813-3.5-17.532-8.039-22.347
		c-3.596-3.824-10.82-6.791-15.855-8.31C319.841,144.504,309.795,145.153,303.972,148.509 M331.208,180.756
		c-6.004,0-12.633-6.755-12.633-6.755c1.814-2.582,9.246-6.689,12.645-6.761c3.914-0.078,7.996,3.128,12.002,7.007
		C343.39,174.409,337.185,180.664,331.208,180.756"/>
	<ellipse fill-rule="evenodd" clip-rule="evenodd" cx="399.947" cy="178.024" rx="5.213" ry="5.793"/>
	<ellipse fill-rule="evenodd" clip-rule="evenodd" cx="334.296" cy="177.055" rx="4.428" ry="4.986"/>
</g>
<g>
	<path fill-rule="evenodd" clip-rule="evenodd" d="M454.686,445.521c-0.492,10.818,0,21.062,0,31.594v11.941
		c0,2.559-1.393,8.641,0.391,10.957c2.457,3.199,7.684,3.711,12.26,3.752c11.922,0.104,27.555-2.09,39.43-1.266
		c18.361,1.273,58.057,1.117,59.441,0.191c2.736-1.836,1.752-10.873,1.752-13.178c0-14.439-0.137-21.328-0.137-35.768
		c0-3.188-0.131-13.545-0.969-16.674c-2.654-9.953-32.324-4.857-43.49-4.857c-15.666,0-29.609,0.031-45.295,0.152
		c-9.268,0.076-19.805-2.371-22.846,4.912C454.455,439.115,454.773,443.6,454.686,445.521"/>
	<path fill-rule="evenodd" clip-rule="evenodd" d="M449.295,451.67c-8.305-3.693-20.533-20.553-22.053-19.398
		c-1.412,1.074,0.158,20.311,0.229,34.73c0.041,9.471-0.256,33.336,0.695,34.656c0.363,0.51,7.734-7.469,9.498-9.75
		c4.299-5.553,8.668-11.221,11.99-14.307v-15.918L449.295,451.67z"/>
	<path d="M509.475,393.629c-0.264-6.479-4.713-20.773-13.664-26.123c-2.912-1.748-11.775-3.068-15.143-3.506
		c-8.441-1.094-16.926,0.643-23.561,7.006c-7.863,7.541-9.797,18.102-9.834,28.447c-0.072,19.393,21.309,32.77,39.314,27.018
		c6.34-2.023,14.602-7.061,17.76-13.221C506.73,408.592,509.678,398.781,509.475,393.629 M488.076,400.293
		c-7.205,0.072-13.875-7.246-13.695-7.414c4.564-4.42,9.217-8.076,13.684-7.986c3.867,0.078,12.344,4.762,14.41,7.703
		C502.475,392.596,494.916,400.299,488.076,400.293"/>
	<path d="M559.938,366.24c-5.824-3.357-15.869-4.006-22.504-2c-5.035,1.518-12.26,4.484-15.855,8.309
		c-4.539,4.814-8.604,11.533-8.039,22.348c0.434,8.242,4.01,16.463,6.01,19.326c4.996,7.156,12.795,11.701,21.98,12.182
		c10.885,0.564,17.334-2.707,24.887-10.049C580.566,402.582,576.479,375.744,559.938,366.24 M556.701,398.486
		c-5.977-0.092-12.182-6.346-12.014-6.508c4.006-3.879,8.088-7.086,12.002-7.008c3.398,0.072,10.83,4.18,12.645,6.762
		C569.334,391.732,562.705,398.486,556.701,398.486"/>
	<ellipse fill-rule="evenodd" clip-rule="evenodd" cx="482.963" cy="390.756" rx="5.213" ry="5.791"/>
	<ellipse fill-rule="evenodd" clip-rule="evenodd" cx="551.613" cy="389.787" rx="4.428" ry="4.984"/>
</g>
<g>
	<path fill-rule="evenodd" clip-rule="evenodd" d="M409.224,372.998c0.492,10.818,0,21.062,0,31.592v11.941
		c0,2.559,1.393,8.641-0.391,10.957c-2.457,3.199-7.684,3.711-12.26,3.752c-11.922,0.104-27.555-2.09-39.43-1.266
		c-18.361,1.273-58.057,1.117-59.441,0.191c-2.736-1.836-1.752-10.873-1.752-13.178c0-14.439,0.136-21.326,0.136-35.766
		c0-3.189,0.132-13.545,0.97-16.674c2.653-9.953,32.324-4.857,43.49-4.857c15.666,0,29.609,0.031,45.295,0.152
		c9.268,0.076,19.805-2.371,22.846,4.91C409.455,366.592,409.136,371.076,409.224,372.998"/>
	<path fill-rule="evenodd" clip-rule="evenodd" d="M414.615,379.145c8.305-3.691,20.534-20.551,22.053-19.396
		c1.412,1.072-0.158,20.311-0.229,34.73c-0.041,9.469,0.256,33.334-0.695,34.654c-0.363,0.51-7.734-7.469-9.498-9.75
		c-4.299-5.553-8.668-11.221-11.991-14.307V389.16L414.615,379.145z"/>
	<path d="M354.435,321.105c-0.203,5.15,2.744,14.961,5.127,19.619c3.158,6.162,11.42,11.199,17.76,13.221
		c18.006,5.754,39.387-7.625,39.314-27.016c-0.037-10.346-1.971-20.906-9.834-28.446c-6.635-6.365-15.119-8.1-23.561-7.008
		c-3.367,0.439-12.23,1.76-15.143,3.507C359.148,300.332,354.699,314.627,354.435,321.105 M395.833,327.77
		c-6.84,0.006-14.398-7.697-14.398-7.697c2.066-2.941,10.543-7.625,14.41-7.703c4.467-0.09,9.119,3.566,13.684,7.984
		C409.708,320.523,403.039,327.842,395.833,327.77"/>
	<path d="M303.972,293.716c-16.541,9.504-20.629,36.34-6.479,50.114c7.553,7.344,14.001,10.615,24.887,10.051
		c9.186-0.48,16.984-5.025,21.98-12.182c2-2.865,5.576-11.084,6.01-19.326c0.564-10.814-3.5-17.533-8.039-22.348
		c-3.596-3.824-10.82-6.79-15.855-8.309C319.841,289.711,309.795,290.361,303.972,293.716 M331.208,325.963
		c-6.004,0-12.633-6.754-12.633-6.754c1.814-2.582,9.246-6.689,12.645-6.762c3.914-0.078,7.996,3.129,12.002,7.008
		C343.39,319.615,337.185,325.871,331.208,325.963"/>
	<ellipse fill-rule="evenodd" clip-rule="evenodd" cx="399.947" cy="323.23" rx="5.213" ry="5.793"/>
	<ellipse fill-rule="evenodd" clip-rule="evenodd" cx="334.296" cy="322.262" rx="4.428" ry="4.986"/>
</g>
<g>
	<path fill-rule="evenodd" clip-rule="evenodd" d="M454.686,590.898c-0.492,10.818,0,21.062,0,31.592v11.941
		c0,2.559-1.393,8.641,0.391,10.957c2.457,3.199,7.684,3.711,12.26,3.752c11.922,0.104,27.555-2.09,39.43-1.266
		c18.361,1.273,58.057,1.117,59.441,0.191c2.736-1.836,1.752-10.873,1.752-13.178c0-14.439-0.137-21.326-0.137-35.766
		c0-3.188-0.131-13.547-0.969-16.676c-2.654-9.953-32.324-4.857-43.49-4.857c-15.666,0-29.609,0.031-45.295,0.152
		c-9.268,0.076-19.805-2.371-22.846,4.912C454.455,584.49,454.773,588.975,454.686,590.898"/>
	<path fill-rule="evenodd" clip-rule="evenodd" d="M449.295,597.047c-8.305-3.693-20.533-20.555-22.053-19.4
		c-1.412,1.074,0.158,20.312,0.229,34.732c0.041,9.469-0.256,33.334,0.695,34.654c0.363,0.51,7.734-7.469,9.498-9.75
		c4.299-5.553,8.668-11.221,11.99-14.307v-15.916L449.295,597.047z"/>
	<path d="M509.475,539.004c-0.264-6.479-4.713-20.773-13.664-26.123c-2.912-1.748-11.775-3.068-15.143-3.506
		c-8.441-1.094-16.926,0.643-23.561,7.006c-7.863,7.541-9.797,18.102-9.834,28.447c-0.072,19.393,21.309,32.77,39.314,27.018
		c6.34-2.023,14.602-7.061,17.76-13.221C506.73,553.967,509.678,544.156,509.475,539.004 M488.076,545.668
		c-7.205,0.072-13.875-7.246-13.695-7.414c4.564-4.42,9.217-8.076,13.684-7.986c3.867,0.078,12.344,4.762,14.41,7.703
		C502.475,537.971,494.916,545.674,488.076,545.668"/>
	<path d="M559.938,511.615c-5.824-3.357-15.869-4.004-22.504-2c-5.035,1.518-12.26,4.484-15.855,8.309
		c-4.539,4.814-8.604,11.533-8.039,22.348c0.434,8.242,4.01,16.463,6.01,19.326c4.996,7.156,12.795,11.701,21.98,12.182
		c10.885,0.564,17.334-2.707,24.887-10.049C580.566,547.957,576.479,521.119,559.938,511.615 M556.701,543.861
		c-5.977-0.092-12.182-6.346-12.014-6.508c4.006-3.879,8.088-7.086,12.002-7.008c3.398,0.072,10.83,4.18,12.645,6.762
		C569.334,537.107,562.705,543.861,556.701,543.861"/>
	<ellipse fill-rule="evenodd" clip-rule="evenodd" cx="482.963" cy="536.131" rx="5.213" ry="5.791"/>
	<ellipse fill-rule="evenodd" clip-rule="evenodd" cx="551.613" cy="535.162" rx="4.428" ry="4.984"/>
</g>
<g>
	<path fill-rule="evenodd" clip-rule="evenodd" d="M409.224,518.373c0.492,10.818,0,21.062,0,31.592v11.941
		c0,2.559,1.393,8.641-0.391,10.957c-2.457,3.199-7.684,3.711-12.26,3.752c-11.922,0.104-27.555-2.09-39.43-1.266
		c-18.361,1.273-58.057,1.117-59.441,0.191c-2.736-1.836-1.752-10.873-1.752-13.178c0-14.439,0.136-21.326,0.136-35.766
		c0-3.189,0.132-13.545,0.97-16.672c2.653-9.955,32.324-4.857,43.49-4.857c15.666,0,29.609,0.031,45.295,0.15
		c9.268,0.078,19.805-2.371,22.846,4.912C409.455,511.967,409.136,516.451,409.224,518.373"/>
	<path fill-rule="evenodd" clip-rule="evenodd" d="M414.615,524.52c8.305-3.691,20.534-20.551,22.053-19.396
		c1.412,1.074-0.158,20.311-0.229,34.73c-0.041,9.469,0.256,33.334-0.695,34.654c-0.363,0.51-7.734-7.469-9.498-9.75
		c-4.299-5.553-8.668-11.221-11.991-14.307v-15.916L414.615,524.52z"/>
	<path d="M354.435,466.482c-0.203,5.15,2.744,14.961,5.127,19.619c3.158,6.162,11.42,11.197,17.76,13.221
		c18.006,5.752,39.387-7.625,39.314-27.016c-0.037-10.346-1.971-20.906-9.834-28.447c-6.635-6.365-15.119-8.1-23.561-7.008
		c-3.367,0.439-12.23,1.76-15.143,3.506C359.148,445.707,354.699,460.002,354.435,466.482 M395.833,473.145
		c-6.84,0.008-14.398-7.695-14.398-7.695c2.066-2.943,10.543-7.627,14.41-7.705c4.467-0.09,9.119,3.566,13.684,7.986
		C409.708,465.9,403.039,473.219,395.833,473.145"/>
	<path d="M303.972,439.092c-16.541,9.504-20.629,36.342-6.479,50.115c7.553,7.342,14.001,10.615,24.887,10.051
		c9.186-0.48,16.984-5.025,21.98-12.184c2-2.863,5.576-11.082,6.01-19.326c0.564-10.812-3.5-17.531-8.039-22.348
		c-3.596-3.824-10.82-6.789-15.855-8.309C319.841,435.086,309.795,435.736,303.972,439.092 M331.208,471.34
		c-6.004,0-12.633-6.756-12.633-6.756c1.814-2.582,9.246-6.689,12.645-6.762c3.914-0.078,7.996,3.129,12.002,7.008
		C343.39,464.992,337.185,471.246,331.208,471.34"/>
	<ellipse fill-rule="evenodd" clip-rule="evenodd" cx="399.947" cy="468.607" rx="5.213" ry="5.793"/>
	<ellipse fill-rule="evenodd" clip-rule="evenodd" cx="334.296" cy="467.639" rx="4.428" ry="4.986"/>
</g>
</svg>
