<?xml version="1.0" encoding="utf-8"?>
<!-- Generator: Adobe Illustrator 14.0.0, SVG Export Plug-In . SVG Version: 6.00 Build 43363)  -->
<!DOCTYPE svg PUBLIC "-//W3C//DTD SVG 1.1//EN" "http://www.w3.org/Graphics/SVG/1.1/DTD/svg11.dtd">
<svg version="1.1" id="Ebene_1" xmlns="http://www.w3.org/2000/svg" xmlns:xlink="http://www.w3.org/1999/xlink" x="0px" y="0px"
	 width="350.587px" height="841.89px" viewBox="0 0 350.587 841.89" enable-background="new 0 0 350.587 841.89"
	 xml:space="preserve">
<g>
	<path fill-rule="evenodd" clip-rule="evenodd" d="M47.009,511.526c-1.733,5.818-5.096,10.007-8.924,13.731
		c-4.09-5.628-9.857-10.202-15.791-7.552c-9.599,4.286-13.705,55.556,8.241,51.492c5.54-1.029,7.336-6.678,6.863-15.103
		c-2.508-1.381-7.258-0.522-9.611-2.064c0-3.659,0-7.322,0-10.985c8.271-0.029,16.869-0.387,23.341,1.378
		c-0.057,17.335-1.326,33.454-13.043,39.13c-11.793,0.791-20.71,2.443-27.461-4.118c-13.971-13.584-10.011-54.955,0.688-67.965
		C19.158,499.922,39.282,500.873,47.009,511.526z"/>
	<path fill-rule="evenodd" clip-rule="evenodd" d="M90.262,541.738c6.146,12.386,11.969,25.1,17.848,37.756
		c-3.667,3.199-12.33,1.4-17.163,3.434c-0.865-7.079-4.669-13.405-7.554-19.91c-2.569-5.801-2.996-15.274-10.296-17.161
		c-3.387,12.101,4.16,27.023,0,35.697c-5.052,0.245-9.436-0.175-13.73-0.686c-1.771-12.987-1.373-30.858-1.373-47.37
		c0-11.19-2.196-23.437,3.432-30.208c11.556,0.273,25.197-2.592,34.33,1.372C105.731,514.009,106.017,538.953,90.262,541.738z
		 M72.412,532.811c5.176-0.085,8.95-1.574,13.73-2.061c1.321-4.288,2.719-7.718,1.374-13.044c-3.995-2.183-8.949-3.405-15.789-2.743
		C71.93,520.934,71.168,527.877,72.412,532.811z"/>
	<path fill-rule="evenodd" clip-rule="evenodd" d="M193.241,506.038c3.897,4.343,4.788,11.687,4.121,20.596
		c-7.625,5.968-16.582,1.213-15.105-9.611c-3.921-0.24-8.467,1.883-8.925,6.174c-1.052,9.9,12.515,12.707,20.598,19.228
		c7.127,5.749,13.922,21.803,7.55,32.952c-5.264,9.212-25.927,12.878-37.073,4.118c-3.388-4.774-5.434-15.271,0.687-18.536
		c10.001-2.219,8.729,6.832,13.043,10.3c5.192,1.71,8.026-1.083,11.672-2.748c4.445-19.77-19.455-16.755-28.149-31.577
		C149.296,515.846,170.449,492.604,193.241,506.038z"/>
	<path fill-rule="evenodd" clip-rule="evenodd" d="M239.239,506.038c3.896,4.343,4.787,11.687,4.118,20.596
		c-7.623,5.968-16.582,1.213-15.103-9.611c-3.923-0.24-8.47,1.883-8.924,6.174c-1.051,9.9,12.516,12.707,20.594,19.228
		c7.132,5.749,13.925,21.803,7.552,32.952c-5.261,9.212-25.925,12.878-37.073,4.118c-3.387-4.774-5.432-15.271,0.687-18.536
		c10.003-2.219,8.729,6.832,13.045,10.3c5.19,1.71,8.026-1.083,11.671-2.748c4.444-19.77-19.453-16.755-28.149-31.577
		C195.293,515.846,216.448,492.604,239.239,506.038z"/>
	<path fill-rule="evenodd" clip-rule="evenodd" d="M266.701,549.288c0.411,9.53-2.148,19.331,5.492,20.596
		c6.952,1.151,9.302-5.162,12.356-10.984c2.96-2.193,7.604-1.042,11.671-0.686c-1.297,7.245-1.765,16.567-8.237,21.28
		c-9.529,6.94-25.498,1.892-30.895-6.177c-5.612-17.302-4.917-48.171,2.06-63.159c7.242-12.472,34.191-8.521,36.386,5.487
		c0.954,14.746-4.996,23.561-14.417,28.152C276.525,546.031,270.334,544.816,266.701,549.288z M281.803,517.022
		c-9.723-8.763-15.76,3.548-14.418,15.788C277.022,532.524,284.947,527.922,281.803,517.022z"/>
	<path fill-rule="evenodd" clip-rule="evenodd" d="M333.979,506.038c3.895,4.343,4.786,11.687,4.119,20.596
		c-7.625,5.968-16.582,1.213-15.103-9.611c-3.925-0.24-8.47,1.883-8.924,6.174c-1.053,9.9,12.515,12.707,20.595,19.228
		c7.129,5.749,13.923,21.803,7.551,32.952c-5.262,9.212-25.929,12.878-37.073,4.118c-3.391-4.774-5.432-15.271,0.688-18.536
		c10.001-2.219,8.728,6.832,13.043,10.3c5.19,1.71,8.025-1.083,11.672-2.748c4.445-19.77-19.451-16.755-28.146-31.577
		C290.035,515.846,311.188,492.604,333.979,506.038z"/>
	<path fill-rule="evenodd" clip-rule="evenodd" d="M112.23,556.152c-5.94-8.282-6.611-33.193,0-44.626
		c5.636-9.749,25.038-11.282,34.327-2.746c9.313,8.564,7.943,34.684,0,46C138.886,565.707,123.018,564.338,112.23,556.152z
		 M128.709,514.963c-8.415,3.493-9.021,20.538-6.18,30.894c3.457,2.025,7.911,3.577,13.043,2.06
		C141.69,539.018,145.911,514.499,128.709,514.963z"/>
	<path fill-rule="evenodd" clip-rule="evenodd" d="M148.6,567.14c0.783,3.849,0.88,8.341,0.743,13.042
		c-10.568,0.764-22.639-1.638-35.73-0.688c-0.44-5.208,0.469-9.177,2.233-12.354C127.338,566.402,136.259,567.313,148.6,567.14z"/>
</g>
<g>
	<path fill-rule="evenodd" clip-rule="evenodd" d="M327.791,765.218c-19.871,7.416-50.044,5.273-62.327-7.245
		c-19.39-34.658-21.179-120.166,2.898-152.195c28.41-15.212,61.514-2.224,72.473,20.298
		C345.837,669.254,348.744,735,327.791,765.218z M313.294,634.768c-6.41-4.547-15.041-10.167-26.089-5.801
		c-13.982,25.754-7.779,71.333-2.9,104.364c7.403,4.679,14.993,9.167,28.989,7.248C317.415,708.13,323.415,664.648,313.294,634.768z
		"/>
	<path fill-rule="evenodd" clip-rule="evenodd" d="M218.752,599.979c10.348,0.284,18.662,2.601,23.19,8.703
		c-2.989,50.152-6.118,100.174-5.796,153.64c-8.728,5.1-16.651,3.357-27.542,1.451c-9.415-37.452-16.864-76.866-27.539-113.061
		c-3.594,34.546-0.19,82.287-1.449,114.506c-8.317,2.464-20.262-1.225-26.088-5.794c-4.196-50.579,1.711-102.296,0-155.092
		c12.896-3.695,25.119-0.649,42.031-1.451c6.482,23.474,11.143,48.769,15.944,73.925
		C216.532,653.808,217.961,627.213,218.752,599.979z"/>
	<path fill-rule="evenodd" clip-rule="evenodd" d="M143.049,602.865c-1.924,52.822-6.662,109.209-1.447,160.655
		c-6.103,3.555-17.659,0.812-26.092,1.672c-4.027-45.175-0.046-107.604-1.448-160.655
		C117.288,593.772,136.103,601.904,143.049,602.865z"/>
	<path fill-rule="evenodd" clip-rule="evenodd" d="M70.278,670.928c0.234-12.64,15.118-30.101,20.744-44.68
		c3.123-8.095,12.108-15.965,9.144-23.706c0,0-27.93-6.92-31.896,0c-7.056,12.297-15.997,40.945-31.5,47.643
		c-3.25-15.36-0.95-32.968-1.934-47.643c0,0-25.227-6.259-28.772,0c-6.585,11.618-1.968,110.312-4.397,159.344
		c8.043,3.649,20.045,3.353,31.912,3.188c0.09-22.444-8.76-65.68,6.383-78.187c9.673,28.09,23.146,52.381,33.511,79.781
		c11.167,0,22.339,0,33.506,0c-3.17-17.856-11.415-31.943-17.551-47.869C83.764,704.103,70.019,684.905,70.278,670.928z"/>
</g>
<g>
	<path fill-rule="evenodd" clip-rule="evenodd" d="M79.775,362.849c-4.512,7.716-11.589,12.869-19.563,17.123
		c-3.938-5.439-7.922-10.83-13.45-14.677c-29.575,7.419-18.746,64.758-13.451,90.488c2.907,3.613,7.226,5.816,11.006,8.558
		c7.814,0.481,12.879-1.791,19.563-2.445c2.351-9.651,1.861-15.8,2.448-28.121c-4.917-2.832-15.066-0.425-22.011-1.222
		c-2.303-5.444-0.652-14.839-2.446-20.791c14.288-1.307,35.557-5.743,45.242,2.444c-1.093,26.57,2.492,52.356,0,73.37
		c-6.583,0.473-13.033,0.809-12.226-6.116c-55.808,24.384-78.763-34.546-72.145-94.151c3.688-33.212,29.14-53.133,66.03-41.576
		C72.314,351.566,75.581,357.671,79.775,362.849z"/>
	<path fill-rule="evenodd" clip-rule="evenodd" d="M241.185,345.731c8.73,0.238,15.746,2.19,19.564,7.338
		c-2.522,42.315-5.158,84.507-4.891,129.616c-7.359,4.306-14.046,2.83-23.229,1.224c-7.946-31.595-14.229-64.852-23.237-95.379
		c-3.03,29.144-0.159,69.418-1.221,96.601c-7.017,2.079-17.094-1.039-22.009-4.895c-3.541-42.665,1.445-86.297,0-130.834
		c10.879-3.118,21.191-0.55,35.46-1.227c5.469,19.802,9.401,41.143,13.449,62.364C239.314,391.142,240.52,368.705,241.185,345.731z"
		/>
	<path fill-rule="evenodd" clip-rule="evenodd" d="M173.242,481.611c-2.402,2.08-21.413,5.65-22.544,1.074
		c-44.963,23.431-77.647-41.78-45.244-64.812c10.312-7.324,23.04-7.843,39.13-11.003c0.817-14.677-0.012-27.701-8.56-33.015
		c-9.451,1.55-15.071,6.944-18.34,14.674c-6.87-4.14-14.585-7.427-17.122-15.896c6.107-19.207,28.488-29.452,52.581-23.231
		C183.466,368.805,170.104,435.018,173.242,481.611z M122.574,463.12c7.025-0.313,15.589,0.916,20.788-1.226
		c3.155-7.861,5.753-22.761,2.445-33.016C122.509,427.385,106.157,445.469,122.574,463.12z"/>
	<path fill-rule="evenodd" clip-rule="evenodd" d="M345.123,351.847c1.821,50.327-30.212,74.256-45.244,108.825
		c10.922,4.572,27.336,0.616,40.353,0c4.774,5.826,4.153,17.042,4.892,26.903c-21.389,2.923-45.471,1.669-68.477,0
		c-7.791-29.12,9.389-48.784,20.787-68.475c8.606-14.87,15.416-27.957,20.787-44.021c-18.299-0.358-35.627-3.53-51.355,0
		c2.245-7.128,0.198-18.553,2.444-25.677C294.652,351.843,319.192,348.979,345.123,351.847z"/>
</g>
<path fill-rule="evenodd" clip-rule="evenodd" d="M65.123,194.109c-1.148,25.318,0,49.292,0,73.933c0,10.083,0,17.883,0,27.963
	c0.002,5.986-3.255,20.215,0.915,25.64c5.75,7.491,17.992,8.682,28.695,8.778c27.909,0.247,64.499-4.889,92.293-2.965
	c42.974,2.976,135.886,2.613,139.123,0.445c6.414-4.288,4.103-25.451,4.103-30.841c0.007-33.796-0.309-49.91-0.309-83.707
	c0-7.462-0.32-31.709-2.274-39.035c-6.208-23.28-75.663-11.361-101.794-11.359c-36.667,0.004-69.303,0.065-106.021,0.358
	c-21.688,0.171-46.354-5.557-53.471,11.484C64.583,179.104,65.329,189.602,65.123,194.109z"/>
<path fill-rule="evenodd" clip-rule="evenodd" d="M54.978,208.498c-19.446-8.648-48.07-48.111-51.619-45.404
	c-3.294,2.511,0.38,47.542,0.533,81.29c0.102,22.167-0.595,78.023,1.625,81.109c0.858,1.193,18.104-17.481,22.233-22.819
	c10.067-13.01,20.288-26.259,28.072-33.485c0,0,0-11.417,0-37.249L54.978,208.498z"/>
<g>
	<path fill-rule="evenodd" clip-rule="evenodd" d="M175.926,781.277c10.861,0.2,21.698,2.79,26.465,13.229
		c4.726,10.354,3.372,36.513-3.579,42.918c-5.007,4.615-17.833,5.521-25.746,2.148c-0.047-13.318,1.226-28.228,1.069-42.921
		C174.062,789.57,172.36,784.937,175.926,781.277z M184.866,792c0.788,14.503-1.202,26.222-1.43,39.702
		c3.498,0.281,5.652-0.783,8.224-1.431C194.898,818.927,197.705,794.567,184.866,792z"/>
	<path fill-rule="evenodd" clip-rule="evenodd" d="M163.764,805.592c-2.749-0.247-4.402,0.606-7.15,0.359
		c0.279-5.41-0.501-9.753-3.935-11.445c-8.41,2.146-6.257,26.7-2.861,33.617c1.125,0.785,2.841,0.975,3.575,2.148
		c5.197-1.6,4.585-9.008,8.942-11.445c1.647,0.618,4.038,0.49,5.724,1.072c-0.151,9.27-3.096,15.744-8.228,20.032
		c-10.169,4.005-16.94-2.611-19.313-9.659c-3.98-11.84-4.292-35.979,3.221-43.634C154.569,775.6,173.015,791.762,163.764,805.592z"
		/>
	<path fill-rule="evenodd" clip-rule="evenodd" d="M337.939,809.167c1.05,2.194,3.647,2.132,5.005,4.292
		c3.604,5.718,1.405,15.911,0.359,22.534c-3.337,2.53-6.082,4.866-12.519,5.364c-4.328,0.334-10.996,0.875-13.945,0
		c-4.117-1.224-8.627-10.616-8.23-16.808c0.296-4.543,2.929-7.562,3.581-11.445c2.119-1.101,3.896-2.543,5.366-4.297
		c-3.144-3.985-5.185-10.121-3.224-17.164c2.093-7.506,11.683-10.397,19.313-7.151c2.685,1.142,8.287,7.079,8.943,11.09
		C343.548,801.439,340.908,806.46,337.939,809.167z M325.423,793.788c-1.179,4.271-0.521,8.23,1.786,10.729
		c0.045-0.786,1.519-0.147,2.146-0.354c1.121-3.545,3.751-7.291,1.072-10.731C328.342,792.496,327.421,793.187,325.423,793.788z
		 M334.721,825.98c0.201-3.561-4.113-10.379-7.154-10.733c-8.425-0.972-7.78,12.164-4.649,17.886
		c2.021,0.123,3.521,0.774,5.367,1.07C330.493,831.464,334.5,829.89,334.721,825.98z"/>
	<path fill-rule="evenodd" clip-rule="evenodd" d="M18.917,785.923c1.297,9.433,4.288,17.175,6.083,26.108
		c2.492-7.998,3.349-17.633,5.005-26.466c3.5-1.801,10.313-1.825,14.664-0.715c-0.298,20.277,4.196,37.388,2.861,56.507
		c-2.743,0-5.483,0-8.224,0c-1.343-12.965-2.476-26.14-3.578-39.339c-3.297,12.199-4.493,26.502-8.226,38.267
		c-3.175,0.309-6.238,0.022-7.51-2.503c-2.281-4.535-1.485-12.874-2.863-19.674c-1.399-6.894-4.173-12.142-4.647-16.807
		c-0.631,11.482-0.547,25.343,0,36.839c-1.685,1.771-4.901,2.015-8.583,1.79c-2.499-16.696-0.289-39.436,1.428-56.511
		C10.253,783.857,15.732,783.747,18.917,785.923z"/>
	<path fill-rule="evenodd" clip-rule="evenodd" d="M106.897,785.923c1.3,9.433,4.288,17.175,6.084,26.108
		c2.495-7.998,3.349-17.633,5.005-26.466c3.503-1.801,10.313-1.825,14.663-0.715c-0.299,20.277,4.195,37.388,2.862,56.507
		c-2.742,0-5.483,0-8.228,0c-1.337-12.965-2.471-26.14-3.578-39.339c-3.293,12.199-4.491,26.502-8.224,38.267
		c-3.176,0.309-6.24,0.022-7.509-2.503c-2.281-4.535-1.481-12.874-2.863-19.674c-1.4-6.894-4.172-12.142-4.647-16.807
		c-0.633,11.482-0.547,25.343,0,36.839c-1.685,1.771-4.901,2.015-8.584,1.79c-2.498-16.696-0.292-39.436,1.43-56.511
		C98.231,783.857,103.713,783.747,106.897,785.923z"/>
	<path fill-rule="evenodd" clip-rule="evenodd" d="M76.499,811.674c4.307,8.926,8.182,18.284,12.875,26.821
		c-2.082,2.928-8.388,1.624-12.161,2.862c-1.666-5.931-5.066-13.23-7.866-20.028c-1.118-2.707-1.614-7.141-5.721-6.437
		c-1.844,8.517,3.817,19.744,0,25.747c-3.684,0.225-6.776-0.143-9.302-1.067c-2.084-15.679-0.648-34.88-1.071-52.217
		c0.726-1.062,1.711-1.869,2.145-3.221c8.488,0.262,19.184-1.853,25.39,1.431c2.713,4.31,6.645,11.706,4.652,18.238
		C84.209,807.848,79.822,809.737,76.499,811.674z M63.626,805.237c3.852,0.154,6.516-0.87,9.655-1.434
		c1.209-2.97,2.135-5.144,1.072-8.939c-2.273-2.378-7.044-2.253-11.444-2.501C63.14,796.658,62.307,802.021,63.626,805.237z"/>
	<path fill-rule="evenodd" clip-rule="evenodd" d="M270.701,785.565c4.378,4.565,4.875,13.145,5.368,23.602
		c0.374,8.078,1.123,16.784-1.077,22.894c-1.73,4.815-6.127,6.717-8.942,9.297c-5.781,1.367-11.066-0.143-15.736-1.785
		c-5.375-5.819-6.472-22.014-5.72-34.693c0.413-6.982,2.751-13.206,5.007-17.167C253.901,783.475,264.233,782.723,270.701,785.565z
		 M256.039,795.937c-0.376,11.318-4.092,26.16,0.357,35.766c1.801,0.225,3.64,0.413,5.364,0.713
		c9.691-5.344,4.941-27.266,3.936-38.627C261.273,793.309,258.42,794.388,256.039,795.937z"/>
	<path fill-rule="evenodd" clip-rule="evenodd" d="M222.42,829.913c3.995,3.062,13.831-1.365,16.452,3.22
		c-0.242,3.101,0.218,5.501,0.716,7.868c-8.941,0-17.885,0-26.825,0c-7.387-18.604,12.614-25.638,16.096-38.982
		c0.723-2.777,0.118-5.691-0.716-8.23c-5.364-1.942-9.023,0.649-7.869,7.154c-3.125,0.942-5.433,1.042-9.301,0.716
		c-6.576-15.713,15.677-21.894,25.753-13.587c6.454,9.767-1.047,22.67-6.08,29.324C227.361,821.733,223.584,824.066,222.42,829.913z
		"/>
	<path fill-rule="evenodd" clip-rule="evenodd" d="M301.815,784.492c3.474,15.953,0.354,37.836,0.717,55.08
		c-3.972-0.082-8.461,0.35-11.447-0.718c0.002-14.185,1.673-26.701,1.075-41.487c-2.277,1.306-4.243,6.005-7.509,7.512
		c-1.9-0.846-3.651-1.835-5.011-3.221c1.549-8.227,8.112-11.442,12.163-17.166C295.143,784.492,298.478,784.492,301.815,784.492z"/>
</g>
<path d="M192.121,74.228c-0.612-15.167-11.028-48.63-31.972-61.149c-6.83-4.081-27.561-7.181-35.455-8.206
	C104.938,2.312,85.089,6.378,69.559,21.27C51.15,38.931,46.629,63.643,46.54,87.853c-0.168,45.394,49.865,76.7,92.013,63.244
	c14.843-4.738,34.18-16.526,41.559-30.946C185.696,109.242,192.608,86.281,192.121,74.228z M159.895,83.775
	c0.166-0.854,0.254-1.74,0.254-2.647c0-7.087-5.324-12.833-11.892-12.833c-6.567,0-11.894,5.746-11.894,12.833
	c0,3.414,1.238,6.515,3.252,8.813c-11.569-1.43-30.825-15.834-29.707-16.917c10.482-10.154,21.168-18.547,31.43-18.338
	c8.888,0.18,28.348,10.943,33.101,17.689C174.44,72.375,168.239,78.693,159.895,83.775z"/>
<path d="M310.238,10.109c-13.634-7.838-37.132-9.371-52.681-4.671c-11.773,3.556-28.679,10.492-37.105,19.45
	c-10.616,11.274-20.143,26.994-18.812,52.301c1.014,19.292,9.384,38.542,14.055,45.233c11.696,16.757,29.965,27.395,51.456,28.513
	c25.476,1.322,40.566-6.334,58.237-23.523C358.525,95.182,348.949,32.367,310.238,10.109z M314.819,81.7
	c0.499-1.305,0.775-2.733,0.775-4.232c0-6.132-4.606-11.103-10.286-11.103c-5.686,0-10.291,4.97-10.291,11.103
	c0,2.965,1.08,5.657,2.834,7.648c-10.175-2.452-24.835-13.521-23.922-14.407c9.161-8.876,18.501-16.21,27.467-16.03
	c7.77,0.159,24.778,9.565,28.933,15.463C330.33,70.143,323.48,77.122,314.819,81.7z"/>
</svg>
