<?xml version="1.0" encoding="utf-8"?>
<!-- Generator: Adobe Illustrator 14.0.0, SVG Export Plug-In . SVG Version: 6.00 Build 43363)  -->
<!DOCTYPE svg PUBLIC "-//W3C//DTD SVG 1.1//EN" "http://www.w3.org/Graphics/SVG/1.1/DTD/svg11.dtd">
<svg version="1.1" id="Ebene_1" xmlns="http://www.w3.org/2000/svg" xmlns:xlink="http://www.w3.org/1999/xlink" x="0px" y="0px"
	 width="841.89px" height="300.542px" viewBox="0 0 841.89 300.542" enable-background="new 0 0 841.89 300.542"
	 xml:space="preserve">
<g>
	<path fill-rule="evenodd" clip-rule="evenodd" d="M33.676,254.908c-1.029,3.45-3.024,5.938-5.295,8.146
		c-2.425-3.339-5.846-6.052-9.367-4.482c-5.693,2.546-8.129,32.957,4.889,30.547c3.285-0.61,4.352-3.962,4.07-8.961
		c-1.487-0.818-4.304-0.309-5.7-1.224c0-2.169,0-4.343,0-6.515c4.905-0.018,10.007-0.23,13.846,0.816
		c-0.035,10.285-0.787,19.845-7.738,23.214c-6.996,0.467-12.285,1.448-16.289-2.443c-8.289-8.059-5.94-32.6,0.407-40.316
		C17.155,248.024,29.092,248.589,33.676,254.908z"/>
	<path fill-rule="evenodd" clip-rule="evenodd" d="M59.331,272.83c3.647,7.346,7.102,14.888,10.589,22.396
		c-2.174,1.896-7.315,0.831-10.182,2.036c-0.513-4.198-2.769-7.95-4.48-11.809c-1.523-3.442-1.777-9.06-6.107-10.182
		c-2.009,7.18,2.467,16.033,0,21.178c-2.996,0.145-5.597-0.106-8.144-0.407c-1.051-7.706-0.815-18.306-0.815-28.099
		c0-6.641-1.304-13.904,2.034-17.922c6.857,0.166,14.947-1.536,20.365,0.815C68.509,256.38,68.678,271.179,59.331,272.83z
		 M48.744,267.533c3.069-0.049,5.309-0.933,8.144-1.222c0.784-2.544,1.615-4.578,0.815-7.74c-2.37-1.291-5.307-2.017-9.365-1.626
		C48.458,260.489,48.007,264.609,48.744,267.533z"/>
	<path fill-rule="evenodd" clip-rule="evenodd" d="M120.417,251.653c2.312,2.576,2.84,6.932,2.445,12.217
		c-4.522,3.539-9.837,0.719-8.96-5.702c-2.327-0.141-5.023,1.119-5.293,3.664c-0.624,5.871,7.423,7.536,12.218,11.403
		c4.227,3.412,8.258,12.935,4.478,19.548c-3.122,5.464-15.38,7.638-21.99,2.442c-2.009-2.832-3.225-9.059,0.407-10.997
		c5.934-1.315,5.179,4.056,7.738,6.11c3.08,1.013,4.761-0.64,6.924-1.629c2.636-11.729-11.539-9.938-16.699-18.73
		C94.351,257.47,106.897,243.684,120.417,251.653z"/>
	<path fill-rule="evenodd" clip-rule="evenodd" d="M147.702,251.653c2.312,2.576,2.84,6.932,2.444,12.217
		c-4.522,3.539-9.837,0.719-8.96-5.702c-2.327-0.141-5.024,1.119-5.293,3.664c-0.623,5.871,7.425,7.536,12.216,11.403
		c4.23,3.412,8.26,12.935,4.48,19.548c-3.122,5.464-15.38,7.638-21.991,2.442c-2.011-2.832-3.223-9.059,0.408-10.997
		c5.933-1.315,5.178,4.056,7.737,6.11c3.079,1.013,4.761-0.64,6.923-1.629c2.637-11.729-11.538-9.938-16.697-18.73
		C121.635,257.47,134.184,243.684,147.702,251.653z"/>
	<path fill-rule="evenodd" clip-rule="evenodd" d="M163.994,277.308c0.244,5.654-1.275,11.465,3.257,12.216
		c4.125,0.683,5.519-3.059,7.33-6.514c1.756-1.301,4.509-0.618,6.923-0.407c-0.769,4.296-1.047,9.828-4.887,12.623
		c-5.653,4.118-15.125,1.122-18.326-3.663c-3.33-10.262-2.917-28.573,1.222-37.465c4.295-7.401,20.281-5.055,21.583,3.255
		c0.566,8.747-2.963,13.976-8.552,16.7C169.821,275.375,166.147,274.655,163.994,277.308z M172.951,258.168
		c-5.768-5.197-9.348,2.105-8.553,9.365C170.115,267.363,174.817,264.633,172.951,258.168z"/>
	<path fill-rule="evenodd" clip-rule="evenodd" d="M203.902,251.653c2.31,2.576,2.839,6.932,2.443,12.217
		c-4.523,3.539-9.836,0.719-8.958-5.702c-2.328-0.141-5.025,1.119-5.293,3.664c-0.625,5.871,7.423,7.536,12.214,11.403
		c4.23,3.412,8.26,12.935,4.48,19.548c-3.121,5.464-15.38,7.638-21.991,2.442c-2.01-2.832-3.223-9.059,0.408-10.997
		c5.932-1.315,5.177,4.056,7.737,6.11c3.079,1.013,4.762-0.64,6.923-1.629c2.638-11.729-11.538-9.938-16.696-18.73
		C177.834,257.47,190.382,243.684,203.902,251.653z"/>
	<path fill-rule="evenodd" clip-rule="evenodd" d="M72.364,281.381c-3.524-4.914-3.921-19.693,0-26.473
		c3.342-5.785,14.853-6.691,20.363-1.627c5.523,5.078,4.711,20.573,0,27.287C88.175,287.048,78.762,286.234,72.364,281.381z
		 M82.139,256.945c-4.993,2.075-5.352,12.184-3.667,18.326c2.049,1.203,4.693,2.125,7.738,1.225
		C89.838,271.213,92.341,256.67,82.139,256.945z"/>
	<path fill-rule="evenodd" clip-rule="evenodd" d="M93.937,287.896c0.464,2.283,0.522,4.947,0.441,7.738
		c-6.269,0.451-13.429-0.972-21.194-0.409c-0.261-3.088,0.278-5.443,1.326-7.329C81.325,287.46,86.616,288.001,93.937,287.896z"/>
</g>
<path fill-rule="evenodd" clip-rule="evenodd" d="M52.896,169.447c-2.677,4.506-6.875,7.518-11.604,10
	c-2.336-3.177-4.702-6.326-7.977-8.573c-17.546,4.336-11.123,37.823-7.983,52.853c1.725,2.11,4.289,3.397,6.533,4.998
	c4.635,0.282,7.638-1.047,11.602-1.428c1.395-5.64,1.105-9.227,1.454-16.421c-2.917-1.658-8.938-0.251-13.056-0.717
	c-1.367-3.182-0.387-8.667-1.453-12.143c8.476-0.765,21.091-3.354,26.836,1.426c-0.649,15.522,1.478,30.582,0,42.856
	c-3.904,0.276-7.73,0.469-7.253-3.577C16.89,252.967,3.274,218.545,7.2,183.733c2.188-19.398,17.284-31.035,39.167-24.286
	C48.47,162.857,50.406,166.42,52.896,169.447"/>
<path fill-rule="evenodd" clip-rule="evenodd" d="M148.64,158.158c5.178,0.139,9.338,1.298,11.603,4.352
	c-1.495,25.099-3.062,50.128-2.899,76.886c-4.369,2.553-8.332,1.676-13.784,0.724c-4.711-18.741-8.438-38.469-13.781-56.578
	c-1.797,17.287-0.095,41.182-0.725,57.302c-4.158,1.234-10.139-0.614-13.053-2.904c-2.101-25.304,0.855-51.188,0-77.605
	c6.451-1.853,12.569-0.328,21.032-0.726c3.246,11.742,5.577,24.398,7.979,36.99C147.528,185.095,148.243,171.785,148.64,158.158"/>
<path fill-rule="evenodd" clip-rule="evenodd" d="M108.337,238.681c-1.423,1.261-12.703,3.422-13.371,0.654
	c-26.676,14.184-46.062-25.3-26.839-39.245c6.115-4.431,13.666-4.745,23.212-6.659c0.482-8.888-0.009-16.775-5.081-19.992
	c-5.603,0.943-8.938,4.207-10.877,8.886c-4.076-2.507-8.649-4.499-10.154-9.625c3.623-11.625,16.897-17.83,31.189-14.066
	C114.402,170.382,106.477,210.474,108.337,238.681 M78.282,227.486c4.166-0.187,9.247,0.558,12.331-0.742
	c1.872-4.755,3.414-13.778,1.449-19.986C78.242,205.849,68.542,216.801,78.282,227.486"/>
<path fill-rule="evenodd" clip-rule="evenodd" d="M210.29,158.386c1.085,31.102-17.919,45.883-26.834,67.245
	c6.478,2.821,16.217,0.377,23.936,0c2.834,3.596,2.463,10.53,2.898,16.625c-12.685,1.798-26.967,1.029-40.617,0
	c-4.623-17.994,5.572-30.148,12.333-42.313c5.105-9.187,9.141-17.275,12.33-27.199c-10.854-0.223-21.135-2.178-30.463,0
	c1.331-4.407,0.116-11.462,1.451-15.865C180.354,158.383,194.909,156.618,210.29,158.386"/>
<path fill-rule="evenodd" clip-rule="evenodd" d="M586.907,173.469c-1.047,22.954,0,44.692,0,67.031v25.353
	c0,5.427-2.953,18.329,0.825,23.246c5.216,6.794,16.317,7.873,26.019,7.961c25.301,0.225,58.479-4.434,83.681-2.687
	c38.964,2.697,123.202,2.37,126.135,0.401c5.816-3.885,3.724-23.075,3.724-27.962c0.003-30.641-0.282-45.252-0.282-75.894
	c0-6.766-0.29-28.748-2.062-35.392c-5.63-21.108-68.602-10.3-92.295-10.3c-33.244,0.006-62.834,0.061-96.124,0.325
	c-19.665,0.155-42.029-5.036-48.481,10.414C586.412,159.861,587.091,169.38,586.907,173.469"/>
<path fill-rule="evenodd" clip-rule="evenodd" d="M577.706,186.514c-17.629-7.842-43.584-43.62-46.802-41.164
	c-2.987,2.274,0.346,43.101,0.486,73.7c0.089,20.099-0.544,70.743,1.469,73.542c0.779,1.081,16.416-15.849,20.162-20.69
	c9.126-11.795,18.394-23.811,25.449-30.359v-33.773L577.706,186.514z"/>
<path fill-rule="evenodd" clip-rule="evenodd" d="M271.36,51.82c16.591,0.306,33.15,4.264,40.433,20.212
	c7.22,15.819,5.151,55.784-5.47,65.569c-7.65,7.05-27.244,8.439-39.334,3.281c-0.07-20.346,1.874-43.125,1.634-65.573
	C268.513,64.488,265.912,57.409,271.36,51.82 M285.018,68.203c1.203,22.157-1.836,40.059-2.185,60.658
	c5.344,0.429,8.635-1.197,12.564-2.187C300.346,109.34,304.633,72.125,285.018,68.203"/>
<path fill-rule="evenodd" clip-rule="evenodd" d="M252.779,89.446c-4.199-0.383-6.725,0.937-10.923,0.558
	c0.426-8.381-0.769-15.107-6.014-17.728c-12.847,3.319-9.559,41.354-4.371,52.069c1.719,1.213,4.341,1.511,5.462,3.327
	c7.941-2.477,7.008-13.952,13.662-17.728c2.516,0.956,6.167,0.76,8.745,1.662c-0.232,14.354-4.73,24.384-12.571,31.027
	c-15.538,6.204-25.879-4.042-29.505-14.962c-6.082-18.337-6.56-55.729,4.919-67.585C238.732,42.988,266.91,68.022,252.779,89.446"/>
<path fill-rule="evenodd" clip-rule="evenodd" d="M518.883,94.429c1.602,3.351,5.569,3.257,7.648,6.556
	c5.5,8.741,2.145,24.309,0.546,34.43c-5.095,3.865-9.29,7.436-19.123,8.195c-6.616,0.512-16.801,1.34-21.31,0
	c-6.285-1.869-13.181-16.22-12.57-25.679c0.451-6.941,4.477-11.552,5.469-17.486c3.24-1.679,5.952-3.882,8.197-6.564
	c-4.799-6.09-7.919-15.46-4.923-26.224c3.197-11.462,17.851-15.882,29.504-10.922c4.106,1.742,12.663,10.815,13.663,16.942
	C527.451,82.622,523.417,90.297,518.883,94.429 M499.759,70.937c-1.803,6.522-0.793,12.572,2.731,16.389
	c0.069-1.202,2.318-0.226,3.275-0.543c1.717-5.414,5.73-11.138,1.642-16.392C504.219,68.961,502.81,70.016,499.759,70.937
	 M513.96,120.119c0.313-5.44-6.276-15.857-10.926-16.399c-12.873-1.484-11.887,18.582-7.103,27.323
	c3.086,0.189,5.377,1.188,8.198,1.636C507.505,128.494,513.627,126.088,513.96,120.119"/>
<path fill-rule="evenodd" clip-rule="evenodd" d="M31.483,59.028c1.98,14.824,6.552,26.992,9.294,41.031
	c3.809-12.568,5.117-27.709,7.647-41.594c5.348-2.833,15.758-2.867,22.404-1.122c-0.456,31.867,6.409,58.76,4.371,88.806H62.636
	c-2.054-20.373-3.785-41.078-5.47-61.824c-5.039,19.17-6.863,41.65-12.565,60.137c-4.852,0.487-9.535,0.038-11.476-3.932
	c-3.485-7.125-2.268-20.233-4.375-30.917c-2.138-10.837-6.376-19.085-7.101-26.417c-0.962,18.047-0.833,39.832,0,57.897
	c-2.573,2.784-7.483,3.166-13.112,2.812c-3.816-26.24-0.441-61.978,2.183-88.812C18.246,55.782,26.617,55.606,31.483,59.028"/>
<path fill-rule="evenodd" clip-rule="evenodd" d="M165.9,59.04c1.984,14.869,6.549,27.074,9.293,41.157
	c3.812-12.608,5.115-27.795,7.646-41.721c5.352-2.841,15.757-2.878,22.4-1.125c-0.457,31.962,6.411,58.937,4.373,89.076h-12.568
	c-2.043-20.439-3.777-41.205-5.468-62.012c-5.032,19.229-6.862,41.776-12.563,60.32c-4.852,0.489-9.533,0.034-11.472-3.945
	c-3.487-7.148-2.261-20.294-4.372-31.013c-2.14-10.867-6.375-19.139-7.102-26.495c-0.967,18.102-0.836,39.951,0,58.073
	c-2.573,2.791-7.485,3.176-13.114,2.822c-3.818-26.321-0.445-62.166,2.187-89.082C152.658,55.783,161.033,55.611,165.9,59.04"/>
<path fill-rule="evenodd" clip-rule="evenodd" d="M119.458,98.899c6.577,13.841,12.498,28.353,19.667,41.594
	c-3.18,4.536-12.814,2.516-18.58,4.437c-2.543-9.198-7.737-20.514-12.016-31.058c-1.708-4.198-2.466-11.073-8.741-9.98
	c-2.817,13.207,5.833,30.615,0,39.925c-5.626,0.348-10.353-0.224-14.209-1.656c-3.187-24.311-0.991-54.086-1.639-80.97
	c1.108-1.649,2.614-2.897,3.279-4.995c12.967,0.406,29.308-2.87,38.788,2.217c4.146,6.685,10.152,18.151,7.111,28.28
	C131.236,92.968,124.533,95.898,119.458,98.899 M99.789,88.917c5.884,0.242,9.956-1.35,14.752-2.224
	c1.848-4.602,3.259-7.973,1.636-13.857c-3.472-3.689-10.761-3.494-17.484-3.882C99.048,75.614,97.773,83.934,99.789,88.917"/>
<path fill-rule="evenodd" clip-rule="evenodd" d="M416.154,58.371c6.69,6.974,7.449,20.081,8.199,36.06
	c0.572,12.342,1.72,25.644-1.641,34.975c-2.646,7.358-9.362,10.265-13.664,14.204c-8.832,2.087-16.908-0.221-24.04-2.729
	c-8.213-8.891-9.888-33.631-8.74-53.004c0.63-10.666,4.202-20.174,7.647-26.224C390.488,55.175,406.275,54.029,416.154,58.371
	 M393.755,74.217c-0.575,17.291-6.252,39.969,0.546,54.643c2.751,0.342,5.562,0.631,8.193,1.087
	c14.808-8.166,7.55-41.656,6.015-59.011C401.751,70.202,397.392,71.851,393.755,74.217"/>
<path fill-rule="evenodd" clip-rule="evenodd" d="M342.393,127.638c6.105,4.78,21.131-2.132,25.135,5.026
	c-0.368,4.839,0.335,8.588,1.092,12.285h-40.981c-11.285-29.043,19.271-40.021,24.59-60.853c1.104-4.334,0.179-8.885-1.094-12.847
	c-8.194-3.033-13.784,1.015-12.021,11.168c-4.775,1.469-8.298,1.622-14.208,1.117c-10.045-24.529,23.95-34.178,39.345-21.208
	c9.859,15.244-1.6,35.385-9.291,45.772C349.94,114.87,344.172,118.514,342.393,127.638"/>
<path fill-rule="evenodd" clip-rule="evenodd" d="M463.691,56.734c5.308,25.536,0.537,60.573,1.096,88.183
	c-6.067-0.133-12.925,0.562-17.491-1.147c0.006-22.714,2.557-42.753,1.645-66.424c-3.479,2.087-6.48,9.612-11.472,12.026
	c-2.904-1.353-5.581-2.939-7.657-5.156c2.366-13.172,12.393-18.318,18.58-27.482H463.691z"/>
<path d="M702.05,64.776c-0.555-13.751-10-44.088-28.989-55.442c-6.19-3.7-24.986-6.513-32.146-7.44
	c-17.91-2.323-35.908,1.366-49.988,14.869c-16.691,16.008-20.791,38.418-20.872,60.366c-0.152,41.157,45.215,69.543,83.425,57.342
	c13.46-4.296,30.993-14.983,37.685-28.057C696.225,96.522,702.492,75.704,702.05,64.776 M656.637,78.914
	c-2.363,0-5.21-0.768-8.186-1.953c3.691-1.955,6.242-6.044,6.242-10.784c0-6.638-4.986-12.019-11.136-12.019
	c-6.15,0-11.137,5.381-11.137,12.019c0,0.582,0.052,1.153,0.127,1.715c-3.284-2.408-5.343-4.357-4.972-4.715
	c9.684-9.382,19.558-17.138,29.038-16.946c8.212,0.166,26.194,10.113,30.585,16.345C687.199,62.576,671.16,78.922,656.637,78.914"/>
<path d="M809.144,6.644c-12.363-7.109-33.67-8.499-47.762-4.238c-10.679,3.225-26.004,9.513-33.644,17.636
	c-9.627,10.223-18.265,24.475-17.054,47.421c0.914,17.489,8.502,34.941,12.737,41.009c10.61,15.192,27.172,24.835,46.658,25.852
	c23.094,1.197,36.777-5.741,52.802-21.326C852.926,83.771,844.242,26.822,809.144,6.644 M802.271,75.078
	c-1.912,0-4.189-0.571-6.578-1.477c3.231-1.689,5.469-5.251,5.469-9.392c0-5.762-4.33-10.435-9.67-10.435
	c-5.343,0-9.67,4.672-9.67,10.435c0,0.618,0.058,1.218,0.152,1.803c-3.358-2.382-5.552-4.394-5.195-4.737
	c8.496-8.233,17.157-15.037,25.473-14.87c7.208,0.148,22.982,8.871,26.832,14.341C829.084,60.746,815.012,75.087,802.271,75.078"/>
<g>
	<path fill-rule="evenodd" clip-rule="evenodd" d="M501.39,296.925c-16.841,6.285-42.411,4.468-52.819-6.142
		c-16.436-29.371-17.948-101.833,2.458-128.975c24.075-12.893,52.127-1.886,61.414,17.2
		C516.684,215.599,519.145,271.314,501.39,296.925z M489.104,186.375c-5.435-3.853-12.747-8.617-22.108-4.917
		c-11.853,21.825-6.594,60.451-2.459,88.442c6.271,3.965,12.706,7.769,24.567,6.143
		C492.597,248.543,497.681,211.694,489.104,186.375z"/>
	<path fill-rule="evenodd" clip-rule="evenodd" d="M408.983,156.894c8.77,0.238,15.813,2.202,19.652,7.375
		c-2.536,42.5-5.185,84.889-4.914,130.2c-7.395,4.321-14.109,2.843-23.338,1.228c-7.979-31.738-14.292-65.137-23.339-95.81
		c-3.046,29.274-0.16,69.734-1.229,97.038c-7.047,2.087-17.17-1.04-22.107-4.911c-3.556-42.862,1.449-86.691,0-131.434
		c10.931-3.131,21.286-0.549,35.618-1.228c5.495,19.892,9.444,41.327,13.514,62.646
		C407.103,202.509,408.313,179.971,408.983,156.894z"/>
	<path fill-rule="evenodd" clip-rule="evenodd" d="M344.829,159.338c-1.631,44.763-5.646,92.548-1.227,136.146
		c-5.17,3.014-14.965,0.688-22.112,1.417c-3.412-38.282-0.04-91.188-1.226-136.146C322.997,151.632,338.942,158.524,344.829,159.338
		z"/>
	<path fill-rule="evenodd" clip-rule="evenodd" d="M283.159,217.018c0.198-10.712,12.812-25.51,17.58-37.864
		c2.647-6.86,10.261-13.529,7.75-20.09c0,0-23.67-5.864-27.032,0c-5.979,10.42-13.556,34.7-26.694,40.374
		c-2.755-13.017-0.805-27.938-1.639-40.374c0,0-21.379-5.305-24.383,0c-5.582,9.845-1.667,93.482-3.727,135.034
		c6.816,3.094,16.987,2.844,27.044,2.704c0.076-19.021-7.424-55.66,5.409-66.26c8.198,23.806,19.615,44.389,28.397,67.61
		c9.465,0,18.931,0,28.395,0c-2.686-15.131-9.673-27.07-14.873-40.565C294.588,245.131,282.939,228.863,283.159,217.018z"/>
</g>
</svg>
