<?xml version="1.0" encoding="utf-8"?>
<!-- Generator: Adobe Illustrator 14.0.0, SVG Export Plug-In . SVG Version: 6.00 Build 43363)  -->
<!DOCTYPE svg PUBLIC "-//W3C//DTD SVG 1.1//EN" "http://www.w3.org/Graphics/SVG/1.1/DTD/svg11.dtd">
<svg version="1.1" id="Ebene_1" xmlns="http://www.w3.org/2000/svg" xmlns:xlink="http://www.w3.org/1999/xlink" x="0px" y="0px"
	 width="350.587px" height="337.094px" viewBox="0 0 350.587 337.094" enable-background="new 0 0 350.587 337.094"
	 xml:space="preserve">
<path fill-rule="evenodd" clip-rule="evenodd" d="M65.123,194.109c-1.148,25.318,0,49.292,0,73.933c0,10.083,0,17.883,0,27.963
	c0.002,5.986-3.255,20.215,0.915,25.64c5.75,7.491,17.992,8.682,28.695,8.778c27.909,0.247,64.499-4.889,92.293-2.965
	c42.974,2.976,135.886,2.613,139.123,0.445c6.414-4.288,4.103-25.451,4.103-30.841c0.007-33.796-0.309-49.91-0.309-83.707
	c0-7.462-0.32-31.709-2.274-39.035c-6.208-23.28-75.663-11.361-101.794-11.359c-36.667,0.004-69.303,0.065-106.021,0.358
	c-21.688,0.171-46.354-5.557-53.471,11.484C64.583,179.104,65.329,189.602,65.123,194.109z"/>
<path fill-rule="evenodd" clip-rule="evenodd" d="M54.978,208.498c-19.446-8.648-48.07-48.111-51.619-45.404
	c-3.294,2.511,0.38,47.542,0.533,81.29c0.102,22.167-0.595,78.023,1.625,81.109c0.858,1.193,18.104-17.481,22.233-22.819
	c10.067-13.01,20.288-26.259,28.072-33.485c0,0,0-11.417,0-37.249L54.978,208.498z"/>
<path d="M192.121,74.228c-0.612-15.167-11.028-48.63-31.972-61.149c-6.83-4.081-27.561-7.181-35.455-8.206
	C104.938,2.312,85.089,6.378,69.559,21.27C51.15,38.931,46.629,63.643,46.54,87.853c-0.168,45.394,49.865,76.7,92.013,63.244
	c14.843-4.738,34.18-16.526,41.559-30.946C185.696,109.242,192.608,86.281,192.121,74.228z M159.895,83.775
	c0.166-0.854,0.254-1.74,0.254-2.647c0-7.087-5.324-12.833-11.892-12.833c-6.567,0-11.894,5.746-11.894,12.833
	c0,3.414,1.238,6.515,3.252,8.813c-11.569-1.43-30.825-15.834-29.707-16.917c10.482-10.154,21.168-18.547,31.43-18.338
	c8.888,0.18,28.348,10.943,33.101,17.689C174.44,72.375,168.239,78.693,159.895,83.775z"/>
<path d="M310.238,10.109c-13.634-7.838-37.132-9.371-52.681-4.671c-11.773,3.556-28.679,10.492-37.105,19.45
	c-10.616,11.274-20.143,26.994-18.812,52.301c1.014,19.292,9.384,38.542,14.055,45.233c11.696,16.757,29.965,27.395,51.456,28.513
	c25.476,1.322,40.566-6.334,58.237-23.523C358.525,95.182,348.949,32.367,310.238,10.109z M314.819,81.7
	c0.499-1.305,0.775-2.733,0.775-4.232c0-6.132-4.606-11.103-10.286-11.103c-5.686,0-10.291,4.97-10.291,11.103
	c0,2.965,1.08,5.657,2.834,7.648c-10.175-2.452-24.835-13.521-23.922-14.407c9.161-8.876,18.501-16.21,27.467-16.03
	c7.77,0.159,24.778,9.565,28.933,15.463C330.33,70.143,323.48,77.122,314.819,81.7z"/>
</svg>
