<?xml version="1.0" encoding="utf-8"?>
<!-- Generator: Adobe Illustrator 14.0.0, SVG Export Plug-In . SVG Version: 6.00 Build 43363)  -->
<!DOCTYPE svg PUBLIC "-//W3C//DTD SVG 1.1//EN" "http://www.w3.org/Graphics/SVG/1.1/DTD/svg11.dtd">
<svg version="1.1" id="Ebene_1" xmlns="http://www.w3.org/2000/svg" xmlns:xlink="http://www.w3.org/1999/xlink" x="0px" y="0px"
	 width="350.587px" height="337.094px" viewBox="0 0 350.587 337.094" enable-background="new 0 0 350.587 337.094"
	 xml:space="preserve">
<path fill-rule="evenodd" clip-rule="evenodd" d="M69.951,196.627c-1.145,25.142,0,48.944,0,73.413v27.752
	c0,5.943-3.237,20.075,0.906,25.461c5.712,7.435,17.857,8.625,28.488,8.719c27.702,0.239,64.031-4.856,91.628-2.942
	c42.665,2.958,134.908,2.594,138.125,0.446c6.358-4.269,4.07-25.267,4.07-30.623c0-33.555-0.313-49.558-0.313-83.113
	c0-7.409-0.307-31.476-2.254-38.745c-6.165-23.13-75.114-11.287-101.059-11.287c-36.406,0-68.81,0.071-105.259,0.352
	c-21.532,0.179-46.019-5.511-53.086,11.413C69.412,181.741,70.153,192.162,69.951,196.627"/>
<path fill-rule="evenodd" clip-rule="evenodd" d="M57.421,210.914c-19.294-8.579-47.713-47.759-51.243-45.076
	c-3.281,2.495,0.368,47.198,0.53,80.707c0.097,22.003-0.595,77.461,1.617,80.531c0.845,1.185,17.971-17.356,22.07-22.658
	c9.991-12.906,20.142-26.075,27.862-33.245v-36.986L57.421,210.914z"/>
<path d="M197.268,76.043c-0.614-15.056-10.952-48.274-31.754-60.705c-6.767-4.06-27.36-7.129-35.188-8.147
	c-19.616-2.54-39.329,1.492-54.747,16.282C57.304,40.997,52.812,65.537,52.728,89.576c-0.168,45.062,49.515,76.147,91.355,62.781
	c14.733-4.701,33.93-16.405,41.269-30.723C190.891,110.81,197.741,88.013,197.268,76.043 M147.544,91.527
	c-16.743,0.169-32.244-16.837-31.824-17.23c10.604-10.269,21.414-18.764,31.795-18.556c8.986,0.182,28.686,11.063,33.484,17.901
	C180.999,73.642,163.435,91.542,147.544,91.527"/>
<path d="M314.53,12.396c-13.531-7.799-36.873-9.307-52.291-4.648c-11.704,3.531-28.488,10.424-36.847,19.31
	c-10.546,11.189-19.991,26.802-18.681,51.929c1.006,19.154,9.319,38.255,13.965,44.911c11.609,16.631,29.731,27.191,51.079,28.309
	c25.295,1.311,40.278-6.292,57.83-23.355C362.467,96.845,352.968,34.481,314.53,12.396 M307.012,87.331
	c-13.891-0.215-28.308-14.75-27.917-15.125c9.306-9.014,18.793-16.465,27.887-16.283c7.897,0.166,25.169,9.712,29.385,15.711
	C336.366,71.634,320.962,87.331,307.012,87.331"/>
<ellipse fill-rule="evenodd" clip-rule="evenodd" cx="147.28" cy="80.982" rx="12.113" ry="13.459"/>
<ellipse fill-rule="evenodd" clip-rule="evenodd" cx="306.807" cy="78.731" rx="10.289" ry="11.586"/>
</svg>
