<?xml version="1.0" encoding="utf-8"?>
<!-- Generator: Adobe Illustrator 14.0.0, SVG Export Plug-In . SVG Version: 6.00 Build 43363)  -->
<!DOCTYPE svg PUBLIC "-//W3C//DTD SVG 1.1//EN" "http://www.w3.org/Graphics/SVG/1.1/DTD/svg11.dtd">
<svg version="1.1" id="Ebene_1" xmlns="http://www.w3.org/2000/svg" xmlns:xlink="http://www.w3.org/1999/xlink" x="0px" y="0px"
	 width="350.587px" height="337.094px" viewBox="0 0 350.587 337.094" enable-background="new 0 0 350.587 337.094"
	 xml:space="preserve">
<path fill-rule="evenodd" clip-rule="evenodd" d="M66.525,193.431c-1.155,25.345,0,49.349,0,74.016v27.994
	c0,5.992-3.261,20.239,0.911,25.667c5.76,7.503,18.018,8.693,28.73,8.792c27.937,0.248,64.571-4.896,92.399-2.966
	c43.024,2.979,136.04,2.616,139.278,0.442c6.422-4.29,4.111-25.479,4.111-30.876c0.002-33.834-0.312-49.967-0.312-83.801
	c0-7.471-0.32-31.744-2.275-39.081c-6.217-23.307-75.75-11.373-101.912-11.373c-36.709,0.007-69.381,0.067-106.141,0.359
	c-21.713,0.171-46.408-5.561-53.533,11.499C65.979,178.406,66.729,188.916,66.525,193.431"/>
<path fill-rule="evenodd" clip-rule="evenodd" d="M56.366,207.835c-19.467-8.659-48.126-48.164-51.679-45.453
	c-3.299,2.511,0.381,47.591,0.537,81.378c0.098,22.194-0.601,78.116,1.622,81.206c0.86,1.192,18.126-17.501,22.262-22.848
	c10.078-13.023,20.311-26.292,28.102-33.522v-37.292L56.366,207.835z"/>
<path d="M193.665,73.413c-0.611-15.184-11.041-48.682-32.01-61.219c-6.835-4.086-27.59-7.191-35.494-8.215
	c-19.777-2.565-39.65,1.508-55.197,16.418C52.533,38.073,48.007,62.818,47.917,87.052c-0.168,45.445,49.926,76.79,92.117,63.317
	c14.863-4.744,34.223-16.545,41.611-30.98C187.233,108.467,194.154,85.479,193.665,73.413 M143.521,89.024
	c-2.609,0-5.752-0.848-9.038-2.156c4.075-2.159,6.893-6.674,6.893-11.907c0-7.329-5.506-13.271-12.296-13.271
	c-6.791,0-12.297,5.942-12.297,13.271c0,0.643,0.057,1.273,0.14,1.894c-3.626-2.659-5.899-4.812-5.489-5.207
	c10.691-10.36,21.595-18.924,32.063-18.711c9.067,0.183,28.923,11.167,33.771,18.048C177.268,70.984,159.558,89.033,143.521,89.024"
	/>
<path d="M311.919,9.224c-13.652-7.85-37.179-9.385-52.738-4.679c-11.792,3.561-28.715,10.504-37.15,19.473
	c-10.629,11.289-20.167,27.025-18.83,52.362c1.01,19.312,9.388,38.582,14.064,45.283c11.716,16.774,30.003,27.422,51.52,28.545
	c25.5,1.322,40.609-6.338,58.305-23.548C360.263,94.387,350.675,31.504,311.919,9.224 M304.331,84.788
	c-2.111,0-4.627-0.63-7.265-1.63c3.569-1.865,6.038-5.798,6.038-10.371c0-6.363-4.781-11.522-10.677-11.522
	c-5.899,0-10.678,5.159-10.678,11.522c0,0.683,0.063,1.345,0.169,1.991c-3.709-2.631-6.131-4.852-5.737-5.23
	c9.382-9.091,18.945-16.604,28.128-16.419c7.959,0.164,25.377,9.795,29.627,15.835C333.937,68.963,318.397,84.798,304.331,84.788"/>
</svg>
