<?xml version="1.0" encoding="UTF-8" standalone="no"?>
<!-- Generator: Adobe Illustrator 19.1.0, SVG Export Plug-In . SVG Version: 6.00 Build 0)  -->

<svg
   xmlns:dc="http://purl.org/dc/elements/1.1/"
   xmlns:cc="http://creativecommons.org/ns#"
   xmlns:rdf="http://www.w3.org/1999/02/22-rdf-syntax-ns#"
   xmlns:svg="http://www.w3.org/2000/svg"
   xmlns="http://www.w3.org/2000/svg"
   xmlns:sodipodi="http://sodipodi.sourceforge.net/DTD/sodipodi-0.dtd"
   xmlns:inkscape="http://www.inkscape.org/namespaces/inkscape"
   version="1.1"
   id="Ebene_1"
   x="0px"
   y="0px"
   width="1024px"
   height="576px"
   viewBox="0 0 1024 576"
   enable-background="new 0 0 1024 576"
   xml:space="preserve"
   inkscape:version="0.91 r13725"
   sodipodi:docname="pause.svg"><metadata
     id="metadata113"><rdf:RDF><cc:Work
         rdf:about=""><dc:format>image/svg+xml</dc:format><dc:type
           rdf:resource="http://purl.org/dc/dcmitype/StillImage" /></cc:Work></rdf:RDF></metadata><defs
     id="defs111" /><sodipodi:namedview
     pagecolor="#ffffff"
     bordercolor="#666666"
     borderopacity="1"
     objecttolerance="10"
     gridtolerance="10"
     guidetolerance="10"
     inkscape:pageopacity="0"
     inkscape:pageshadow="2"
     inkscape:window-width="1384"
     inkscape:window-height="763"
     id="namedview109"
     showgrid="false"
     inkscape:zoom="0.8117387"
     inkscape:cx="687.38536"
     inkscape:cy="236.52173"
     inkscape:window-x="0"
     inkscape:window-y="23"
     inkscape:window-maximized="0"
     inkscape:current-layer="Ebene_1" /><g
     id="logo"
     transform="matrix(1.744236,0,0,1.744236,-40.932981,-49.146815)"><g
       id="g4"><path
         d="m 170.4,77.7 c 0,0.5 -0.1,0.9 -0.2,1.3 -0.1,0.4 -0.3,0.7 -0.5,1 -0.3,0.3 -0.6,0.5 -1,0.6 -0.4,0.2 -0.9,0.2 -1.5,0.2 l -8.1,0 0,1.9 0,1.9 -2.3,0 0,-12 0,-1.9 10.4,0 c 0.6,0 1.1,0.1 1.5,0.2 0.4,0.2 0.7,0.4 1,0.6 0.3,0.3 0.4,0.6 0.5,1 0.1,0.4 0.2,0.8 0.2,1.3 l 0,3.9 z m -2.3,-4.2 c 0,-0.3 -0.1,-0.5 -0.2,-0.6 -0.1,-0.1 -0.3,-0.2 -0.5,-0.2 l -7.6,0 c -0.2,0 -0.4,0.1 -0.5,0.2 -0.1,0.1 -0.2,0.3 -0.2,0.6 l 0,4.6 c 0,0.3 0.1,0.5 0.2,0.6 0.1,0.1 0.3,0.2 0.5,0.2 l 7.6,0 c 0.2,0 0.4,-0.1 0.5,-0.2 0.1,-0.1 0.2,-0.3 0.2,-0.6 l 0,-4.6 z"
         id="path6"
         inkscape:connector-curvature="0" /><path
         d="m 185.5,77.8 c 0,0.5 0,1 -0.1,1.4 -0.1,0.4 -0.3,0.7 -0.5,0.9 -0.2,0.3 -0.5,0.4 -0.9,0.6 -0.4,0.2 -0.8,0.2 -1.4,0.2 l -7.9,0 c -0.6,0 -1,-0.1 -1.4,-0.2 -0.4,-0.1 -0.7,-0.3 -0.9,-0.6 -0.2,-0.3 -0.4,-0.6 -0.5,-0.9 -0.1,-0.4 -0.1,-0.8 -0.1,-1.4 l 0,-4 c 0,-0.5 0,-1 0.1,-1.4 0.1,-0.4 0.3,-0.7 0.5,-0.9 0.2,-0.3 0.5,-0.4 0.9,-0.6 0.4,-0.1 0.8,-0.2 1.4,-0.2 l 7.9,0 c 0.6,0 1,0.1 1.4,0.2 0.4,0.1 0.7,0.3 0.9,0.6 0.2,0.3 0.4,0.6 0.5,0.9 0.1,0.4 0.1,0.8 0.1,1.4 l 0,4 z m -2.3,-4.3 c 0,-0.3 -0.1,-0.5 -0.2,-0.6 -0.1,-0.1 -0.3,-0.2 -0.6,-0.2 l -7.7,0 c -0.3,0 -0.5,0.1 -0.6,0.2 -0.1,0.1 -0.2,0.3 -0.2,0.6 l 0,4.5 c 0,0.3 0.1,0.5 0.2,0.6 0.1,0.1 0.3,0.2 0.6,0.2 l 7.7,0 c 0.3,0 0.5,-0.1 0.6,-0.2 0.1,-0.1 0.2,-0.3 0.2,-0.6 l 0,-4.5 z"
         id="path8"
         inkscape:connector-curvature="0" /><path
         d="m 190.1,80.8 c -0.6,0 -1.1,-0.1 -1.5,-0.2 -0.4,-0.1 -0.7,-0.3 -1,-0.6 -0.2,-0.3 -0.4,-0.6 -0.5,-1 -0.1,-0.4 -0.2,-0.8 -0.2,-1.3 l 0,-3.8 c 0,-1 0.2,-1.8 0.7,-2.3 0.5,-0.5 1.3,-0.8 2.5,-0.8 l 8.1,0 0,-3.6 2.3,0 0,11.8 0,1.9 -10.4,0 z m 8.1,-7.3 c 0,-0.3 -0.1,-0.5 -0.2,-0.6 -0.1,-0.1 -0.3,-0.2 -0.5,-0.2 l -7.6,0 c -0.2,0 -0.4,0.1 -0.5,0.2 -0.1,0.1 -0.2,0.3 -0.2,0.6 l 0,4.6 c 0,0.3 0.1,0.5 0.2,0.6 0.1,0.1 0.3,0.2 0.5,0.2 l 7.6,0 c 0.2,0 0.4,-0.1 0.5,-0.2 0.1,-0.1 0.2,-0.3 0.2,-0.6 l 0,-4.6 z"
         id="path10"
         inkscape:connector-curvature="0" /><path
         d="m 202.1,80.8 0,-13.7 2.3,0 0,13.7 -2.3,0 z"
         id="path12"
         inkscape:connector-curvature="0" /><path
         d="m 219.8,77.8 c 0,0.5 0,1 -0.1,1.4 -0.1,0.4 -0.3,0.7 -0.5,0.9 -0.2,0.3 -0.5,0.4 -0.9,0.6 -0.4,0.1 -0.8,0.2 -1.4,0.2 l -7.9,0 c -0.6,0 -1,-0.1 -1.4,-0.2 -0.4,-0.1 -0.7,-0.3 -0.9,-0.6 -0.2,-0.3 -0.4,-0.6 -0.5,-0.9 -0.1,-0.4 -0.1,-0.8 -0.1,-1.4 l 0,-4 c 0,-0.5 0,-1 0.1,-1.4 0.1,-0.4 0.2,-0.7 0.5,-0.9 0.2,-0.3 0.5,-0.4 0.9,-0.6 0.4,-0.1 0.8,-0.2 1.4,-0.2 l 7.9,0 c 0.6,0 1,0.1 1.4,0.2 0.4,0.1 0.7,0.3 0.9,0.6 0.2,0.3 0.4,0.6 0.5,0.9 0.1,0.4 0.1,0.8 0.1,1.4 l 0,4 z m -2.3,-4.3 c 0,-0.3 -0.1,-0.5 -0.2,-0.6 -0.1,-0.1 -0.3,-0.2 -0.6,-0.2 l -7.7,0 c -0.3,0 -0.5,0.1 -0.6,0.2 -0.1,0.1 -0.2,0.3 -0.2,0.6 l 0,4.5 c 0,0.3 0.1,0.5 0.2,0.6 0.1,0.1 0.3,0.2 0.6,0.2 l 7.7,0 c 0.3,0 0.5,-0.1 0.6,-0.2 0.1,-0.1 0.2,-0.3 0.2,-0.6 l 0,-4.5 z"
         id="path14"
         inkscape:connector-curvature="0" /><path
         d="m 229.1,80.8 0,0 -2.6,0 -0.1,0 -6.2,-10.1 2.6,0 4.9,8 4.9,-8 2.6,0 -6.1,10.1 z"
         id="path16"
         inkscape:connector-curvature="0" /><path
         d="m 238,76.9 0,0.9 c 0,0.4 0.1,0.6 0.3,0.8 0.2,0.2 0.5,0.2 0.9,0.2 l 8.2,0 0,2 -8.7,0 c -0.6,0 -1,-0.1 -1.4,-0.2 -0.4,-0.1 -0.7,-0.3 -0.9,-0.5 -0.2,-0.2 -0.4,-0.6 -0.5,-0.9 -0.1,-0.4 -0.1,-0.8 -0.1,-1.4 l 0,-4 c 0,-0.5 0,-1 0.1,-1.4 0.1,-0.4 0.2,-0.7 0.4,-0.9 0.2,-0.3 0.5,-0.4 0.9,-0.6 0.4,-0.1 0.9,-0.2 1.5,-0.2 l 7.7,0 c 0.6,0 1.1,0.1 1.5,0.2 0.4,0.1 0.7,0.3 0.9,0.5 0.2,0.2 0.4,0.6 0.4,0.9 0.1,0.4 0.1,0.9 0.1,1.4 l 0,3.1 -11.3,0 z m 9.2,-3.4 c 0,-0.3 -0.1,-0.5 -0.1,-0.6 -0.1,-0.1 -0.3,-0.2 -0.6,-0.2 l -7.7,0 c -0.3,0 -0.5,0.1 -0.6,0.2 -0.1,0.1 -0.2,0.3 -0.2,0.6 l 0,1.4 9.1,0 0,-1.4 z"
         id="path18"
         inkscape:connector-curvature="0" /></g><g
       id="sub_signet"><g
         id="g21"><g
           id="g23"><path
             d="m 123,52.6 -27.8,0 c -1.4,0 -2.8,0.3 -4,0.8 l 1.2,0 c 5.6,0 10.1,4.5 10.1,10.1 l 0,56.7 c 0,5.6 -4.5,10.1 -10.1,10.1 l -1.2,0 c 1.2,0.5 2.6,0.8 4,0.8 l 27.8,0 c 5.7,0 10.4,-4.6 10.4,-10.4 l 0,-57.7 c 0,-5.7 -4.7,-10.4 -10.4,-10.4 z"
             id="path25"
             inkscape:connector-curvature="0"
             style="clip-rule:evenodd;fill:#7eb51f;fill-rule:evenodd" /></g></g><g
         id="g27"><path
           stroke-miterlimit="10"
           d="m 116.5,88.6 c 0.3,0.8 1.2,3.4 1.2,3.4 l -6.2,2.3 c 0,0 -1,-2.6 -1.2,-3.4 l 0,0 c -0.6,-1.7 0.2,-3.6 1.9,-4.2 l 0,0 c 1.7,-0.6 3.6,0.2 4.3,1.9 l 0,0 z"
           id="path29"
           inkscape:connector-curvature="0"
           style="clip-rule:evenodd;fill:none;fill-rule:evenodd;stroke:#ffffff;stroke-width:2.44330001;stroke-miterlimit:10" /><path
           stroke-miterlimit="10"
           d="m 114,100.9 c -0.3,-0.8 -2.4,-6.6 -2.4,-6.6 l 6.2,-2.3 c 0,0 2.1,5.8 2.4,6.6 l 0,0 c 0.6,1.7 -0.2,3.6 -1.9,4.2 l 0,0 c -1.8,0.7 -3.7,-0.2 -4.3,-1.9 l 0,0 z"
           id="path31"
           inkscape:connector-curvature="0"
           style="clip-rule:evenodd;fill:none;fill-rule:evenodd;stroke:#ffffff;stroke-width:2.44330001;stroke-miterlimit:10" /><path
           stroke-miterlimit="10"
           d="m 121.1,98.8 c 2.1,-0.8 3.2,-3.2 2.5,-5.3 l 0,0"
           id="path33"
           inkscape:connector-curvature="0"
           style="fill:none;stroke:#ffffff;stroke-width:2.44330001;stroke-miterlimit:10" /><ellipse
           transform="matrix(0.9391,-0.3436,0.3436,0.9391,-22.7178,47.0119)"
           stroke-miterlimit="10"
           cx="121.3"
           cy="87.599998"
           rx="1.7"
           ry="7"
           id="ellipse35"
           style="fill:none;stroke:#ffffff;stroke-width:2.02719998;stroke-miterlimit:10" /></g></g><g
       id="podlove_signet"><g
         id="g38"><path
           d="m 93.2,57 c 3.3,0 6,2.7 6,6 l 0,57.9 c 0,3.3 -2.7,6 -6,6 l -27.9,0 c -3.3,0 -6,-2.7 -6,-6 l 0,-57.9 c 0,-3.3 2.7,-6 6,-6 l 27.9,0 m 0,-4.4 -27.9,0 C 59.6,52.6 55,57.3 55,63 l 0,57.9 c 0,5.7 4.6,10.4 10.4,10.4 l 27.8,0 c 5.7,0 10.4,-4.6 10.4,-10.4 l 0,-57.9 C 103.5,57.3 98.9,52.6 93.2,52.6 l 0,0 z"
           id="path40"
           inkscape:connector-curvature="0"
           style="fill:#181716" /></g><g
         id="g42"><path
           d="m 79.2,96.8 c 6.2,0 11.3,5 11.3,11.3 0,6.2 -5,11.3 -11.3,11.3 -6.2,0 -11.3,-5 -11.3,-11.3 0,-6.3 5.1,-11.3 11.3,-11.3 m 0,-4.4 c -8.6,0 -15.7,7 -15.7,15.7 0,8.6 7,15.7 15.7,15.7 8.6,0 15.7,-7 15.7,-15.7 0,-8.7 -7,-15.7 -15.7,-15.7 l 0,0 z"
           id="path44"
           inkscape:connector-curvature="0"
           style="fill:#181716" /></g><path
         stroke-miterlimit="10"
         d="M 90.6,75.2 79.1,86.7 67.6,75.2 c -1.3,-1.3 -2.1,-3.1 -2.1,-5.1 0,-4 3.3,-7.3 7.3,-7.3 2.7,0 5,1.4 6.3,3.6 1.3,-2.1 3.6,-3.6 6.3,-3.6 4,0 7.3,3.3 7.3,7.3 0,2 -0.8,3.8 -2.1,5.1 z"
         id="path46"
         inkscape:connector-curvature="0"
         style="clip-rule:evenodd;fill:none;fill-rule:evenodd;stroke:#181716;stroke-width:4.39799976;stroke-miterlimit:10" /><path
         d="m 79.2,104 c 2.2,0 4,1.8 4,4 0,2.2 -1.8,4 -4,4 -2.2,0 -4,-1.8 -4,-4 0,-2.2 1.8,-4 4,-4 z"
         id="path48"
         inkscape:connector-curvature="0"
         style="clip-rule:evenodd;fill:#181716;fill-rule:evenodd" /></g><g
       id="g50"><path
         d="m 183.2,108 0,13.9 -2.7,0 0,-33.5 11.5,0 c 3.5,0 6.2,0.9 8.2,2.7 1.9,1.8 2.9,4.2 2.9,7.1 0,3 -1,5.4 -2.9,7.1 -1.9,1.8 -4.7,2.7 -8.2,2.7 l -8.8,0 z m 0,-2.4 8.8,0 c 2.8,0 4.8,-0.7 6.2,-2.1 1.4,-1.4 2.1,-3.2 2.1,-5.3 0,-2.2 -0.7,-3.9 -2.1,-5.4 -1.4,-1.4 -3.5,-2.1 -6.2,-2.1 l -8.8,0 0,14.9 z"
         id="path52"
         inkscape:connector-curvature="0"
         style="fill:#181716" /><path
         d="m 202.6,109.1 c 0,-3.7 1,-6.7 3,-9 2,-2.4 4.7,-3.5 8,-3.5 3.3,0 6,1.2 8,3.5 2,2.4 3,5.4 3,9 l 0,0.8 c 0,3.7 -1,6.7 -3,9 -2,2.3 -4.7,3.5 -8,3.5 -3.3,0 -6,-1.2 -8,-3.5 -2,-2.3 -3,-5.4 -3,-9 l 0,-0.8 z m 2.7,0.8 c 0,2.9 0.7,5.3 2.2,7.3 1.5,2 3.5,2.9 6.1,2.9 2.6,0 4.6,-1 6,-2.9 1.5,-2 2.2,-4.4 2.2,-7.3 l 0,-0.8 c 0,-2.8 -0.7,-5.2 -2.2,-7.2 -1.5,-2 -3.5,-3 -6.1,-3 -2.6,0 -4.6,1 -6.1,3 -1.5,2 -2.2,4.4 -2.2,7.2 l 0,0.8 z"
         id="path54"
         inkscape:connector-curvature="0"
         style="fill:#181716" /><path
         d="m 226.7,109.7 c 0,-4 0.8,-7.2 2.5,-9.6 1.7,-2.4 4,-3.6 7,-3.6 1.7,0 3.2,0.4 4.5,1.1 1.3,0.7 2.3,1.8 3.2,3.1 l 0,-14.7 2.7,0 0,36 -2.4,0 -0.2,-3.6 c -0.8,1.3 -1.9,2.3 -3.2,3 -1.3,0.7 -2.8,1.1 -4.6,1.1 -3,0 -5.3,-1.1 -7,-3.3 -1.7,-2.2 -2.5,-5.2 -2.5,-8.9 l 0,-0.6 z m 2.8,0.5 c 0,3 0.6,5.4 1.8,7.2 1.2,1.8 3,2.7 5.5,2.7 1.8,0 3.3,-0.4 4.5,-1.2 1.2,-0.8 2.1,-1.9 2.8,-3.3 l 0,-11.8 c -0.6,-1.5 -1.5,-2.6 -2.7,-3.5 -1.2,-0.9 -2.7,-1.4 -4.5,-1.4 -2.4,0 -4.3,1 -5.5,3 -1.2,2 -1.8,4.6 -1.8,7.8 l 0,0.5 z"
         id="path56"
         inkscape:connector-curvature="0"
         style="fill:#181716" /><path
         d="m 259.8,120.1 c 1.8,0 3.4,-0.5 4.8,-1.6 1.4,-1 2.1,-2.5 2.1,-4.3 l 2.4,0 0,0.1 c 0.1,2.3 -0.8,4.2 -2.8,5.8 -1.9,1.6 -4.1,2.3 -6.7,2.3 -3.4,0 -6,-1.2 -7.9,-3.5 -1.9,-2.3 -2.8,-5.3 -2.8,-9 l 0,-1 c 0,-3.6 0.9,-6.6 2.8,-8.9 1.9,-2.3 4.5,-3.5 7.8,-3.5 2.7,0 5,0.8 6.8,2.4 1.8,1.6 2.7,3.7 2.6,6.4 l 0,0.1 -2.5,0 c 0,-2 -0.7,-3.6 -2,-4.8 -1.3,-1.2 -3,-1.8 -4.9,-1.8 -2.7,0 -4.7,1 -5.9,2.9 -1.3,1.9 -1.9,4.3 -1.9,7.2 l 0,1 c 0,2.9 0.6,5.4 1.9,7.3 1.5,1.9 3.4,2.9 6.2,2.9 z"
         id="path58"
         inkscape:connector-curvature="0"
         style="fill:#181716" /><path
         d="m 288.2,121.9 c -0.2,-0.8 -0.3,-1.6 -0.4,-2.2 -0.1,-0.6 -0.1,-1.2 -0.1,-1.9 -0.9,1.3 -2.2,2.4 -3.7,3.2 -1.5,0.9 -3.3,1.3 -5.2,1.3 -2.4,0 -4.3,-0.6 -5.7,-1.9 -1.3,-1.3 -2,-3 -2,-5.2 0,-2.3 1,-4.1 3,-5.5 2,-1.4 4.7,-2.1 8.1,-2.1 l 5.5,0 0,-3.1 c 0,-1.8 -0.6,-3.2 -1.7,-4.2 -1.1,-1 -2.7,-1.5 -4.8,-1.5 -1.9,0 -3.5,0.5 -4.8,1.5 -1.3,1 -1.9,2.2 -1.9,3.5 l -2.5,0 0,-0.1 c -0.1,-1.9 0.8,-3.5 2.5,-5 1.8,-1.5 4.1,-2.2 6.8,-2.2 2.7,0 5,0.7 6.6,2.1 1.7,1.4 2.5,3.4 2.5,6 l 0,12.3 c 0,0.9 0,1.7 0.1,2.6 0.1,0.8 0.3,1.7 0.5,2.5 l -2.8,0 z m -9.1,-1.9 c 2,0 3.7,-0.5 5.3,-1.4 1.5,-0.9 2.6,-2.1 3.3,-3.6 l 0,-5.2 -5.6,0 c -2.5,0 -4.5,0.5 -6,1.6 -1.5,1.1 -2.2,2.4 -2.2,4 0,1.4 0.5,2.5 1.4,3.3 0.9,0.9 2.2,1.3 3.8,1.3 z"
         id="path60"
         inkscape:connector-curvature="0"
         style="fill:#181716" /><path
         d="m 308.2,115.6 c 0,-1.2 -0.5,-2.2 -1.4,-3.1 -1,-0.9 -2.7,-1.6 -5.2,-2.1 -3,-0.6 -5.2,-1.5 -6.6,-2.6 -1.4,-1.1 -2.1,-2.6 -2.1,-4.5 0,-1.9 0.8,-3.5 2.4,-4.8 1.6,-1.3 3.7,-2 6.4,-2 2.8,0 5,0.7 6.7,2.1 1.6,1.4 2.4,3.1 2.4,5.2 l 0,0.1 -2.8,0 c 0,-1.4 -0.6,-2.6 -1.7,-3.6 -1.2,-1 -2.7,-1.5 -4.7,-1.5 -2,0 -3.5,0.4 -4.5,1.3 -1,0.9 -1.5,1.9 -1.5,3 0,1.1 0.4,2.1 1.3,2.8 0.9,0.7 2.6,1.4 5.2,2 3,0.7 5.2,1.6 6.7,2.7 1.5,1.1 2.2,2.7 2.2,4.7 0,2.1 -0.8,3.8 -2.5,5.1 -1.7,1.3 -3.9,1.9 -6.7,1.9 -3,0 -5.4,-0.7 -7.1,-2.2 -1.7,-1.4 -2.5,-3.2 -2.5,-5.2 l 0,-0.1 2.5,0 c 0.1,1.8 0.8,3.1 2.2,3.9 1.4,0.8 3,1.2 4.8,1.2 2,0 3.6,-0.4 4.7,-1.3 1.2,-0.7 1.8,-1.8 1.8,-3 z"
         id="path62"
         inkscape:connector-curvature="0"
         style="fill:#181716" /><path
         d="m 319,90.6 0,6.4 5.5,0 0,2.3 -5.5,0 0,16.2 c 0,1.6 0.3,2.8 0.9,3.5 0.6,0.7 1.4,1 2.4,1 0.4,0 0.9,0 1.3,-0.1 0.4,0 0.9,-0.1 1.5,-0.2 l 0.4,2.1 c -0.5,0.2 -1,0.4 -1.7,0.5 -0.7,0.1 -1.3,0.2 -2,0.2 -1.8,0 -3.1,-0.6 -4.1,-1.7 -1,-1.1 -1.5,-2.9 -1.5,-5.3 l 0,-16.2 -4.3,0 0,-2.3 4.3,0 0,-6.4 2.8,0 z"
         id="path64"
         inkscape:connector-curvature="0"
         style="fill:#181716" /><path
         d="m 336.2,122.4 c -3.1,0 -5.7,-1.2 -7.8,-3.5 -2.1,-2.3 -3.1,-5.2 -3.1,-8.8 l 0,-1.3 c 0,-3.6 1,-6.5 3.1,-8.9 2.1,-2.4 4.5,-3.5 7.5,-3.5 3.1,0 5.5,1 7.2,2.9 1.8,1.9 2.6,4.5 2.6,7.7 l 0,2.4 -17.6,0 0,0.7 c 0,2.8 0.7,5.2 2.2,7 1.5,1.9 3.4,2.8 5.9,2.8 1.7,0 3.2,-0.2 4.4,-0.7 1.2,-0.5 2.3,-1.2 3.1,-2.1 l 1.2,1.9 c -0.9,1 -2.1,1.8 -3.6,2.4 -1.4,0.7 -3.1,1 -5.1,1 z m -0.4,-23.5 c -2,0 -3.8,0.8 -5.1,2.3 -1.4,1.6 -2.2,3.5 -2.4,5.8 l 0,0.1 14.6,0 0,-0.7 c 0,-2.2 -0.6,-4 -1.9,-5.4 -1.3,-1.4 -3,-2.1 -5.2,-2.1 z"
         id="path66"
         inkscape:connector-curvature="0"
         style="fill:#181716" /><path
         d="m 360,99.4 -2.1,-0.1 c -1.7,0 -3.2,0.5 -4.3,1.5 -1.1,1 -1.9,2.3 -2.4,4 l 0,17.2 -2.8,0 0,-25 2.4,0 0.3,4.1 0,0.3 c 0.7,-1.5 1.7,-2.7 2.9,-3.6 1.2,-0.9 2.7,-1.3 4.3,-1.3 0.4,0 0.7,0 1,0.1 0.3,0.1 0.6,0.1 0.8,0.2 l -0.1,2.6 z"
         id="path68"
         inkscape:connector-curvature="0"
         style="fill:#181716" /><path
         d="m 395.5,110.4 0.1,0 4.4,-22 7.5,0 -7.7,33.6 -7.3,0 -5.6,-20.7 -0.1,0 -5.6,20.7 -7.3,0 -7.7,-33.6 7.6,0 4.4,22 0.1,0 5.9,-22 5.4,0 5.9,22 z"
         id="path70"
         inkscape:connector-curvature="0"
         style="fill:#7eb51f" /><path
         d="m 406.9,109.2 c 0,-3.7 1.1,-6.8 3.2,-9.2 2.1,-2.4 5.1,-3.5 8.9,-3.5 3.8,0 6.8,1.2 8.9,3.5 2.1,2.4 3.2,5.4 3.2,9.2 l 0,0.5 c 0,3.8 -1.1,6.8 -3.2,9.2 -2.1,2.4 -5.1,3.5 -8.9,3.5 -3.8,0 -6.8,-1.2 -8.9,-3.5 -2.1,-2.4 -3.2,-5.4 -3.2,-9.2 l 0,-0.5 z m 7.8,0.5 c 0,2.1 0.3,3.7 1,4.9 0.7,1.2 1.8,1.8 3.3,1.8 1.5,0 2.6,-0.6 3.3,-1.8 0.7,-1.2 1,-2.8 1,-4.9 l 0,-0.5 c 0,-2 -0.3,-3.7 -1,-4.9 -0.7,-1.2 -1.8,-1.8 -3.3,-1.8 -1.5,0 -2.6,0.6 -3.3,1.8 -0.7,1.2 -1,2.8 -1,4.9 l 0,0.5 z"
         id="path72"
         inkscape:connector-curvature="0"
         style="fill:#7eb51f" /><path
         d="m 447.1,103.9 -2.8,0 c -0.9,0 -1.6,0.1 -2.2,0.4 -0.6,0.3 -1,0.7 -1.3,1.3 l 0,16.4 -7.8,0 0,-25 7.3,0 0.3,3.7 c 0.5,-1.3 1.2,-2.3 2.1,-3 0.9,-0.7 1.9,-1.1 3,-1.1 0.4,0 0.7,0 1.1,0.1 0.4,0.1 0.7,0.1 1,0.2 l -0.7,7 z"
         id="path74"
         inkscape:connector-curvature="0"
         style="fill:#7eb51f" /><path
         d="m 458.2,112 -1.3,0 0,9.9 -7.8,0 0,-35.9 7.8,0 0,20.2 1,0 5.3,-9.1 8.9,0 -7.7,11.3 9,13.7 -8.9,0 -6.3,-10.1 z"
         id="path76"
         inkscape:connector-curvature="0"
         style="fill:#7eb51f" /><path
         d="m 486.4,114.9 c 0,-0.6 -0.3,-1.2 -1,-1.6 -0.7,-0.5 -2,-0.9 -3.8,-1.3 -2.9,-0.6 -5.1,-1.5 -6.6,-2.7 -1.5,-1.2 -2.2,-2.8 -2.2,-4.9 0,-2.2 0.9,-4.1 2.8,-5.6 1.8,-1.5 4.3,-2.3 7.5,-2.3 3.3,0 6,0.7 7.9,2.2 2,1.5 2.9,3.4 2.8,5.7 l 0,0.1 -7.6,0 c 0,-1 -0.2,-1.7 -0.7,-2.2 -0.5,-0.5 -1.3,-0.8 -2.4,-0.8 -0.8,0 -1.5,0.2 -2.1,0.7 -0.6,0.4 -0.8,1 -0.8,1.7 0,0.7 0.3,1.2 1,1.7 0.6,0.5 1.9,0.9 3.9,1.2 3,0.6 5.3,1.5 6.8,2.7 1.5,1.2 2.2,2.9 2.2,5.1 0,2.2 -1,4.1 -3,5.5 -2,1.5 -4.6,2.2 -7.9,2.2 -3.4,0 -6.1,-0.9 -8.1,-2.6 -2,-1.7 -2.9,-3.6 -2.8,-5.8 l 0,-0.1 7.1,0 c 0,1.2 0.4,2 1.1,2.6 0.7,0.5 1.7,0.8 2.9,0.8 1,0 1.8,-0.2 2.4,-0.6 0.4,-0.3 0.6,-0.9 0.6,-1.7 z"
         id="path78"
         inkscape:connector-curvature="0"
         style="fill:#7eb51f" /><path
         d="m 503.7,100.1 c 0.8,-1.1 1.7,-2 2.8,-2.6 1.1,-0.6 2.3,-0.9 3.6,-0.9 2.6,0 4.6,0.9 6.1,2.7 1.5,1.8 2.2,4.6 2.2,8.4 l 0,14.3 -7.8,0 0,-14.4 c 0,-1.9 -0.3,-3.2 -0.9,-3.9 -0.6,-0.7 -1.5,-1.1 -2.6,-1.1 -0.8,0 -1.4,0.1 -2,0.3 -0.6,0.2 -1,0.5 -1.4,0.9 l 0,18.1 -7.8,0 0,-35.9 7.8,0 0,14.1 z"
         id="path80"
         inkscape:connector-curvature="0"
         style="fill:#7eb51f" /><path
         d="m 520.2,109.2 c 0,-3.7 1.1,-6.8 3.2,-9.2 2.1,-2.4 5.1,-3.5 8.9,-3.5 3.8,0 6.8,1.2 8.9,3.5 2.1,2.4 3.2,5.4 3.2,9.2 l 0,0.5 c 0,3.8 -1.1,6.8 -3.2,9.2 -2.1,2.4 -5.1,3.5 -8.9,3.5 -3.8,0 -6.8,-1.2 -8.9,-3.5 -2.1,-2.4 -3.2,-5.4 -3.2,-9.2 l 0,-0.5 z m 7.8,0.5 c 0,2.1 0.3,3.7 1,4.9 0.7,1.2 1.8,1.8 3.3,1.8 1.5,0 2.6,-0.6 3.3,-1.8 0.7,-1.2 1,-2.8 1,-4.9 l 0,-0.5 c 0,-2 -0.3,-3.7 -1,-4.9 -0.7,-1.2 -1.8,-1.8 -3.3,-1.8 -1.5,0 -2.6,0.6 -3.3,1.8 -0.7,1.2 -1,2.8 -1,4.9 l 0,0.5 z"
         id="path82"
         inkscape:connector-curvature="0"
         style="fill:#7eb51f" /><path
         d="m 569.5,110 c 0,3.7 -0.8,6.8 -2.5,9 -1.7,2.3 -4.1,3.4 -7.1,3.4 -1.2,0 -2.3,-0.2 -3.2,-0.7 -0.9,-0.5 -1.7,-1.1 -2.4,-2 l 0,11.8 -7.8,0 0,-34.5 7.3,0 0.3,2.7 c 0.7,-1 1.5,-1.8 2.5,-2.4 1,-0.6 2.1,-0.8 3.3,-0.8 3.1,0 5.5,1.2 7.2,3.6 1.7,2.4 2.5,5.5 2.5,9.4 l 0,0.5 z m -7.8,-0.5 c 0,-2.1 -0.3,-3.8 -0.9,-5.1 -0.6,-1.3 -1.6,-1.9 -3,-1.9 -0.9,0 -1.6,0.2 -2.2,0.5 -0.6,0.3 -1.1,0.8 -1.4,1.4 l 0,10.4 c 0.4,0.5 0.9,0.9 1.5,1.2 0.6,0.3 1.4,0.4 2.2,0.4 1.4,0 2.3,-0.6 2.9,-1.7 0.6,-1.1 0.9,-2.7 0.9,-4.7 l 0,-0.5 z"
         id="path84"
         inkscape:connector-curvature="0"
         style="fill:#7eb51f" /></g><g
       id="g86"><circle
         cx="568.29999"
         cy="74.099998"
         r="16.4"
         id="circle88"
         style="clip-rule:evenodd;fill-rule:evenodd" /><g
         id="g90"><path
           d="m 560.7,80.9 -1.1,0 0,-12 -3.3,0.4 0,-0.8 4.4,-0.8 0,13.2 z"
           id="path92"
           inkscape:connector-curvature="0"
           style="fill:#ffffff" /><path
           d="m 562.6,74.9 0.7,-7.1 6.3,0 0,1 -5.4,0 -0.5,4.6 c 0.3,-0.3 0.7,-0.5 1.1,-0.7 0.4,-0.2 0.9,-0.3 1.6,-0.3 1.1,0 2,0.4 2.7,1.1 0.7,0.8 1,1.8 1,3.1 0,1.3 -0.3,2.4 -1,3.2 -0.7,0.8 -1.6,1.2 -3,1.2 -1.1,0 -2,-0.3 -2.7,-0.9 -0.7,-0.6 -1.1,-1.5 -1,-2.7 l 0,-0.1 1,0 c 0,0.9 0.2,1.5 0.7,2 0.5,0.5 1.2,0.7 2,0.7 1,0 1.7,-0.3 2.2,-0.9 0.5,-0.6 0.7,-1.4 0.7,-2.5 0,-1 -0.2,-1.7 -0.7,-2.3 -0.5,-0.6 -1.2,-0.9 -2,-0.9 -0.8,0 -1.5,0.1 -1.9,0.4 -0.4,0.3 -0.8,0.7 -1,1.2 l -0.8,-0.1 z"
           id="path94"
           inkscape:connector-curvature="0"
           style="fill:#ffffff" /><path
           d="m 579.2,76.2 c 0,1.4 -0.3,2.6 -1,3.5 -0.7,0.9 -1.6,1.3 -2.7,1.3 -0.7,0 -1.3,-0.1 -1.8,-0.4 -0.5,-0.3 -0.9,-0.7 -1.2,-1.2 l -0.1,1.5 -0.9,0 0,-14 1.1,0 0,5.8 c 0.3,-0.5 0.7,-1 1.2,-1.3 0.5,-0.3 1.1,-0.4 1.8,-0.4 1.2,0 2.1,0.5 2.7,1.4 0.7,0.9 1,2.2 1,3.7 l 0,0.1 z m -1.1,-0.1 c 0,-1.2 -0.2,-2.2 -0.7,-3 -0.5,-0.8 -1.2,-1.2 -2.1,-1.2 -0.7,0 -1.3,0.2 -1.8,0.6 -0.5,0.4 -0.8,0.8 -1,1.4 l 0,4.4 c 0.2,0.6 0.6,1 1.1,1.3 0.5,0.3 1.1,0.5 1.8,0.5 0.9,0 1.6,-0.3 2.1,-1 0.5,-0.7 0.7,-1.6 0.7,-2.8 l 0,-0.2 z"
           id="path96"
           inkscape:connector-curvature="0"
           style="fill:#ffffff" /></g></g></g><rect
     y="241.30257"
     width="1024"
     height="334.69739"
     id="rect98"
     x="0"
     style="fill:#7eb51f" /><rect
     x="51.4"
     y="215.7"
     fill="none"
     width="891.8"
     height="291.1"
     id="rect100" /><flowRoot
     xml:space="preserve"
     id="flowRoot3392-8-7"
     style="font-style:normal;font-variant:normal;font-weight:normal;font-stretch:normal;font-size:26.72106552px;line-height:125%;font-family:Roboto;-inkscape-font-specification:Roboto;letter-spacing:0px;word-spacing:0px;fill:#ffffff;fill-opacity:1;stroke:none;stroke-width:1px;stroke-linecap:butt;stroke-linejoin:miter;stroke-opacity:1"
     transform="translate(53.819203,293.82637)"><flowRegion
       id="flowRegion3394-4-7"><rect
         id="rect3396-8-4"
         width="925.30225"
         height="246.16641"
         x="-0.090736479"
         y="-7.2665358"
         style="font-style:normal;font-variant:normal;font-weight:normal;font-stretch:normal;font-size:26.72106552px;font-family:Roboto;-inkscape-font-specification:Roboto;fill:#ffffff" /></flowRegion><flowPara
       style="font-style:normal;font-variant:normal;font-weight:bold;font-stretch:normal;font-family:Roboto;-inkscape-font-specification:'Roboto Bold';fill:#ffffff;font-size:100px"
       id="flowPara3572">Pause...</flowPara><flowPara
       style="font-style:italic;font-variant:normal;font-weight:normal;font-stretch:normal;font-family:Roboto;-inkscape-font-specification:'Roboto Italic';fill:#ffffff;font-size:60px"
       id="flowPara3429">Geht gleich weiter!</flowPara></flowRoot></svg>