<?xml version="1.0" encoding="UTF-8" standalone="no"?>
<svg
   xmlns:ns3="http://ns.adobe.com/AdobeIllustrator/10.0/"
   xmlns:dc="http://purl.org/dc/elements/1.1/"
   xmlns:cc="http://creativecommons.org/ns#"
   xmlns:rdf="http://www.w3.org/1999/02/22-rdf-syntax-ns#"
   xmlns:svg="http://www.w3.org/2000/svg"
   xmlns="http://www.w3.org/2000/svg"
   version="1.1"
   width="1920"
   height="1080"
   id="svg2">
  <metadata
     id="metadata24">
    <rdf:RDF>
      <cc:Work
         rdf:about="">
        <dc:format>image/svg+xml</dc:format>
        <dc:type
           rdf:resource="http://purl.org/dc/dcmitype/StillImage" />
        <dc:title></dc:title>
      </cc:Work>
    </rdf:RDF>
  </metadata>
  <defs
     id="defs22" />
  <style
     type="text/css"
     id="style4">
    path { fill: #000; stroke-width: 106px; stroke-opacity: 0 }
    #bg { fill: #fff }
    #one {
      stroke: #f00;
    }
    #cee {
      stroke: #0f0;
    }
    #two {
      stroke: #66f;
    }
    #dot1 {
      fill: #f0f;
    }
  </style>
  <rect
     style="opacity:1;fill:#000000;fill-opacity:1;stroke:#ffffff;stroke-width:2;stroke-linecap:round;stroke-linejoin:round;stroke-miterlimit:4;stroke-dasharray:none;stroke-opacity:1"
     id="rect3348"
     width="1922"
     height="1082"
     x="-1"
     y="-1" />
  <g
     id="g3346"
     transform="matrix(0.45474896,0,0,0.45474896,-61.18612,18.784181)">
    <rect
       height="530"
       width="1430"
       y="144.84746"
       x="245"
       id="bg"
       style="fill:#ffffff" />
    <path
       d="m 244.49999,462.84746 106.00001,0 0,-106 -53,0 0,-159 53,0 0,-53 212,0 0,53 106,0 0,-53 371,0 0,53 106,0 0,-53 424,0 0,53 53,0 0,53 53,0 0,-182.203392 -1431,0 z"
       id="top-border" />
    <path
       d="m 1092.5,409.84746 53,0 0,53 -53,0 z"
       id="dot1" />
    <path
       d="m 1622.5,462.84746 53,0 0,53 -53,0 z"
       id="dot2" />
    <path
       d="m 350.5,250.84746 53,0 0,-53 106,0 0,318 106,0 0,53 -318,0 0,-53 106,0 0,-212 -53,0 z"
       id="one" />
    <path
       d="m 668.5,250.84746 53,0 0,-53 264.99999,0 0,53 53.00001,0 0,53 -106,0 0,-53 -159,0 0,265 159,0 0,-53 106,0 0,53 -53.00001,0 0,53 -264.99999,0 0,-53 -53,0 z"
       id="cee" />
    <path
       d="m 1145.5,356.84746 0,-106 53,0 0,-53 265,0 0,53 53,0 0,106 -53,0 0,53 -53,0 0,53 -53,0 0,53 212,0 0,53 -424,0 0,-53 53,0 0,-53 53,0 0,-53 53,0 0,-53 53,0 0,-53 53,0 0,-53 -159,0 0,106 z"
       id="two" />
    <path
       d="m 244.49999,755.08476 1431.00001,0 0,-80.2373 -530,0 0,-53 -53,0 0,53 -795,0 0,-53 -53,0 z"
       id="bottom-border" />
  </g>
  <g
     style="fill:#ffffff"
     id="Background"
     ns3:layer="yes"
     ns3:dimmedPercent="100"
     ns3:rgbTrio="#4F008000FFFF"
     transform="matrix(2.1692274,0,0,2.1692274,1099.1586,461.5)" />
  <g
     style="fill:#ffffff"
     id="Guides"
     ns3:layer="yes"
     ns3:dimmedPercent="100"
     ns3:rgbTrio="#4F008000FFFF"
     transform="matrix(2.1692274,0,0,2.1692274,1099.1586,461.5)" />
  <g
     transform="translate(28.300964,-1.981824)"
     id="g3426">
    <g
       transform="translate(-27.67119,-374)"
       id="g4575">
      <g
         style="fill:#ffffff"
         id="Foreground"
         ns3:layer="yes"
         ns3:dimmedPercent="100"
         ns3:rgbTrio="#4F008000FFFF"
         transform="matrix(2.1692274,0,0,2.1692274,1106.023,461.5)">
        <g
           style="fill:#ffffff"
           id="g3541">
          <path
             style="clip-rule:evenodd;fill:#ffffff;fill-rule:evenodd;stroke-width:106px;stroke-opacity:0"
             ns3:knockout="Off"
             d="m 94.282,49.116 c -2.759,-5.03 -7.465,-7.032 -12.928,-7.032 -7.951,0 -14.28,5.625 -14.28,15.146 0,9.682 5.95,15.145 14.55,15.145 5.517,0 10.223,-3.029 12.819,-7.627 l -6.058,-3.083 c -1.353,3.246 -3.408,4.22 -6.004,4.22 -4.49,0 -6.545,-3.732 -6.545,-8.654 0,-4.923 1.731,-8.655 6.545,-8.655 1.298,0 3.895,0.703 5.409,3.949 l 6.492,-3.409 z"
             id="path3543" />
          <path
             style="clip-rule:evenodd;fill:#ffffff;fill-rule:evenodd;stroke-width:106px;stroke-opacity:0"
             ns3:knockout="Off"
             d="m 109.746,48.575 c 4.814,0 6.87,3.732 6.87,8.33 0,5.247 -2.056,8.979 -6.87,8.979 -4.814,0 -6.869,-3.732 -6.869,-8.654 0,-4.922 2.055,-8.655 6.869,-8.655 z m 0,-6.491 c -8.979,0 -15.307,5.463 -15.307,15.146 0,9.682 6.328,15.145 15.307,15.145 8.979,0 15.308,-5.463 15.308,-15.145 0,-9.682 -6.329,-15.146 -15.308,-15.146 z"
             id="path3545" />
          <path
             style="clip-rule:evenodd;fill:#ffffff;fill-rule:evenodd;stroke-width:106px;stroke-opacity:0"
             ns3:knockout="Off"
             d="m 126.783,71.617 8.438,0 0,-17.903 c 0,-2.596 1.082,-4.814 4.489,-4.814 3.246,0 4.111,1.893 4.111,4.706 l 0,18.012 8.438,0 0,-17.688 c 0,-2.921 1.46,-5.03 4.273,-5.03 3.191,0 4.327,1.839 4.327,5.896 l 0,16.821 8.438,0 0,-21.96 c 0,-6.599 -6.058,-7.573 -8.871,-7.573 -3.354,0 -6.491,1.028 -9.249,3.84 -1.894,-2.542 -4.327,-3.84 -7.627,-3.84 -2.596,0 -6.166,0.757 -8.33,3.3 l 0,-2.542 -8.438,0 0,28.775 z"
             id="path3547" />
          <path
             style="clip-rule:evenodd;fill:#ffffff;fill-rule:evenodd;stroke-width:106px;stroke-opacity:0"
             ns3:knockout="Off"
             d="m 171.997,71.617 8.438,0 0,-17.903 c 0,-2.596 1.082,-4.814 4.489,-4.814 3.246,0 4.111,1.893 4.111,4.706 l 0,18.012 8.438,0 0,-17.688 c 0,-2.921 1.46,-5.03 4.272,-5.03 3.191,0 4.328,1.839 4.328,5.896 l 0,16.821 8.438,0 0,-21.96 c 0,-6.599 -6.059,-7.573 -8.871,-7.573 -3.354,0 -6.49,1.028 -9.249,3.84 -1.893,-2.542 -4.327,-3.84 -7.627,-3.84 -2.596,0 -6.166,0.757 -8.33,3.3 l 0,-2.542 -8.438,0 0,28.775 z"
             id="path3549" />
          <path
             style="clip-rule:evenodd;fill:#ffffff;fill-rule:evenodd;stroke-width:106px;stroke-opacity:0"
             ns3:knockout="Off"
             d="m 231.544,48.575 c 4.813,0 6.869,3.732 6.869,8.33 0,5.247 -2.056,8.979 -6.869,8.979 -4.814,0 -6.87,-3.732 -6.87,-8.654 0,-4.922 2.056,-8.655 6.87,-8.655 z m 0,-6.491 c -8.979,0 -15.308,5.463 -15.308,15.146 0,9.682 6.328,15.145 15.308,15.145 8.979,0 15.308,-5.463 15.308,-15.145 0,-9.682 -6.329,-15.146 -15.308,-15.146 z"
             id="path3551" />
          <path
             style="clip-rule:evenodd;fill:#ffffff;fill-rule:evenodd;stroke-width:106px;stroke-opacity:0"
             ns3:knockout="Off"
             d="m 249.122,71.617 8.438,0 0,-17.903 c 0,-2.596 1.082,-4.814 4.49,-4.814 3.245,0 4.11,1.893 4.11,4.706 l 0,18.012 8.438,0 0,-21.258 c 0,-4.327 -1.894,-8.276 -8.709,-8.276 -2.596,0 -6.166,0.757 -8.33,3.3 l 0,-2.542 -8.438,0 0,28.775 z"
             id="path3553" />
          <path
             style="clip-rule:evenodd;fill:#ffffff;fill-rule:evenodd;stroke-width:106px;stroke-opacity:0"
             ns3:knockout="Off"
             d="m 302.774,46.25 c -3.895,-2.596 -8.275,-4.165 -12.711,-4.165 -5.843,0 -12.171,2.813 -12.171,10.061 0,10.223 17.038,6.653 17.038,11.143 0,2.597 -3.19,2.921 -4.598,2.921 -3.84,0 -6.49,-1.568 -9.087,-4.057 l -5.247,4.543 c 4.22,3.895 7.789,5.68 14.064,5.68 6.273,0 12.981,-2.705 12.981,-10.277 0,-10.764 -17.038,-6.707 -17.038,-11.629 0,-1.46 1.514,-2.217 3.623,-2.217 2.651,0 6.275,1.082 7.951,3.083 l 5.195,-5.086 z"
             id="path3555" />
          <path
             style="clip-rule:evenodd;fill:#ffffff;fill-rule:evenodd;stroke-width:106px;stroke-opacity:0"
             ns3:knockout="Off"
             d="m 94.282,16.011 c -2.759,-5.03 -7.465,-7.032 -12.928,-7.032 -7.951,0 -14.28,5.625 -14.28,15.145 0,9.682 5.95,15.146 14.55,15.146 5.517,0 10.223,-3.029 12.819,-7.627 L 88.385,28.56 c -1.353,3.246 -3.408,4.219 -6.004,4.219 -4.49,0 -6.545,-3.732 -6.545,-8.655 0,-4.922 1.731,-8.654 6.545,-8.654 1.298,0 3.895,0.703 5.409,3.949 l 6.492,-3.408 z"
             id="path3557" />
          <path
             style="clip-rule:evenodd;fill:#ffffff;fill-rule:evenodd;stroke-width:106px;stroke-opacity:0"
             ns3:knockout="Off"
             d="m 96.34,38.512 8.438,0 0,-16.66 c 0,-3.191 2.001,-4.057 7.032,-4.652 l 0.919,-0.108 -0.054,-7.464 c -2.975,0.217 -6.058,1.298 -7.897,3.029 l 0,-2.921 -8.438,0 0,28.776 z"
             id="path3559" />
          <path
             style="clip-rule:evenodd;fill:#ffffff;fill-rule:evenodd;stroke-width:106px;stroke-opacity:0"
             ns3:knockout="Off"
             d="m 141.386,25.855 c -0.054,-8.871 -3.624,-16.876 -14.118,-16.876 -8.763,0 -14.118,5.842 -14.118,16.011 0,8.113 5.193,14.28 14.118,14.28 6.437,0 11.034,-2.542 13.955,-7.951 l -6.329,-3.3 c -2.434,3.462 -3.895,5.084 -7.032,5.084 -2.704,0 -6.22,-1.731 -6.274,-7.248 l 19.798,0 z m -19.905,-5.192 c 0.378,-3.787 3.299,-5.517 5.733,-5.517 2.434,0 5.463,1.298 5.733,5.517 l -11.466,0 z"
             id="path3561" />
          <path
             style="clip-rule:evenodd;fill:#ffffff;fill-rule:evenodd;stroke-width:106px;stroke-opacity:0"
             ns3:knockout="Off"
             d="m 160.742,26.504 c 0,4.381 -2.488,6.599 -5.788,6.599 -2.056,0 -3.949,-0.974 -3.949,-3.245 0,-2.326 1.947,-3.137 4.057,-3.732 l 5.68,-1.623 0,2.001 z m 8.113,-9.195 c -0.054,-6.491 -4.976,-8.33 -12.819,-8.33 -3.895,0 -11.575,0.757 -11.846,9.033 l 8.114,0 c 0.433,-2.867 1.73,-3.84 4.435,-3.84 2.272,0 4.003,0.919 4.003,3.083 l 0,2.38 -3.083,0.433 c -9.195,1.298 -14.767,3.732 -14.767,10.656 0,5.517 4.111,8.546 9.628,8.546 3.029,0 7.248,-1.46 8.654,-3.732 l 0.108,0 c 0.054,0.974 0.217,2.001 0.541,2.975 l 7.789,0 c -0.703,-1.785 -0.757,-4.002 -0.757,-6.004 l 0,-15.2 z"
             id="path3563" />
          <path
             style="clip-rule:evenodd;fill:#ffffff;fill-rule:evenodd;stroke-width:106px;stroke-opacity:0"
             ns3:knockout="Off"
             d="m 188.699,10.277 -5.031,0 0,-8.33 -8.438,0 0,8.33 -4.11,0 0,5.192 4.11,0 0,15.146 c 0,4.165 1.028,8.654 8.223,8.654 1.839,0 4.327,-0.216 5.409,-0.325 l 0,-6.653 c -0.434,0.054 -1.623,0.162 -2.542,0.162 -1.516,0 -2.651,-0.595 -2.651,-2.867 l 0,-14.116 5.031,0 0,-5.193 z"
             id="path3565" />
          <path
             style="clip-rule:evenodd;fill:#ffffff;fill-rule:evenodd;stroke-width:106px;stroke-opacity:0"
             ns3:knockout="Off"
             d="m 191.876,9.736 0,28.776 8.438,0 0,-28.776 -8.438,0 z m 8.439,-3.245 0,-6.491 -8.438,0 0,6.491 8.438,0 z"
             id="path3567" />
          <polygon
             style="clip-rule:evenodd;fill:#ffffff;fill-rule:evenodd"
             ns3:knockout="Off"
             points="201.934,9.736 211.67,38.512 220.162,38.512 230.007,9.736 221.028,9.736 216.051,30.074 215.944,30.074 210.966,9.736 "
             id="polygon3569" />
          <path
             style="clip-rule:evenodd;fill:#ffffff;fill-rule:evenodd;stroke-width:106px;stroke-opacity:0"
             ns3:knockout="Off"
             d="m 257.256,25.855 c -0.054,-8.871 -3.624,-16.876 -14.117,-16.876 -8.764,0 -14.117,5.842 -14.117,16.011 0,8.113 5.191,14.28 14.117,14.28 6.437,0 11.034,-2.542 13.955,-7.951 l -6.329,-3.3 c -2.434,3.462 -3.895,5.084 -7.031,5.084 -2.704,0 -6.221,-1.731 -6.274,-7.248 l 19.796,0 z m -19.905,-5.192 c 0.379,-3.787 3.299,-5.517 5.733,-5.517 2.434,0 5.464,1.298 5.734,5.517 l -11.467,0 z"
             id="path3571" />
          <g
             style="fill:#ffffff"
             id="g3573">
            <path
               style="clip-rule:evenodd;fill:#ffffff;fill-rule:evenodd;stroke-width:106px;stroke-opacity:0"
               ns3:knockout="Off"
               d="M 31.602,8.495 C 22.92,8.495 15.28,11.708 9.376,17.698 3.299,23.863 0,31.85 0,40.185 c 0,8.421 3.212,16.235 9.29,22.313 6.077,6.077 13.978,9.376 22.312,9.376 8.334,0 16.409,-3.299 22.66,-9.463 5.904,-5.817 9.029,-13.544 9.029,-22.226 0,-8.595 -3.125,-16.409 -9.116,-22.4 -6.077,-6.077 -13.891,-9.29 -22.573,-9.29 z m 0.087,5.731 c 7.119,0 13.457,2.691 18.406,7.64 4.861,4.862 7.466,11.287 7.466,18.319 0,7.119 -2.518,13.37 -7.38,18.146 -5.123,5.035 -11.721,7.727 -18.493,7.727 -6.859,0 -13.284,-2.691 -18.232,-7.64 -4.949,-4.95 -7.727,-11.461 -7.727,-18.233 0,-6.859 2.778,-13.37 7.727,-18.406 4.862,-4.948 11.114,-7.553 18.233,-7.553 z"
               id="path3575" />
            <path
               style="clip-rule:evenodd;fill:#ffffff;fill-rule:evenodd;stroke-width:106px;stroke-opacity:0"
               ns3:knockout="Off"
               d="m 31.28,34.919 c -1.79,-3.264 -4.844,-4.563 -8.389,-4.563 -5.16,0 -9.267,3.65 -9.267,9.829 0,6.283 3.861,9.829 9.443,9.829 3.581,0 6.634,-1.966 8.319,-4.949 l -3.932,-2.001 c -0.878,2.106 -2.211,2.738 -3.896,2.738 -2.914,0 -4.247,-2.422 -4.247,-5.616 0,-3.194 1.123,-5.617 4.247,-5.617 0.842,0 2.527,0.457 3.51,2.562 l 4.212,-2.212 z"
               id="path3577" />
            <path
               style="clip-rule:evenodd;fill:#ffffff;fill-rule:evenodd;stroke-width:106px;stroke-opacity:0"
               ns3:knockout="Off"
               d="m 49.562,34.919 c -1.791,-3.264 -4.844,-4.563 -8.389,-4.563 -5.16,0 -9.268,3.65 -9.268,9.829 0,6.283 3.862,9.829 9.443,9.829 3.581,0 6.634,-1.966 8.319,-4.949 l -3.932,-2.001 c -0.877,2.106 -2.211,2.738 -3.896,2.738 -2.913,0 -4.248,-2.422 -4.248,-5.616 0,-3.194 1.124,-5.617 4.248,-5.617 0.842,0 2.527,0.457 3.511,2.562 l 4.212,-2.212 z"
               id="path3579" />
          </g>
        </g>
      </g>
      <g
         id="g4478"
         transform="matrix(0.8756879,0,0,0.8756879,-286.74713,-537.84251)">
        <circle
           id="circle3649"
           r="69.364563"
           cy="1242.6632"
           cx="1502.4108"
           style="fill:#000000" />
        <g
           style="fill:#ffffff"
           transform="matrix(2.453125,0,0,2.453125,1410.0825,1171.9985)"
           id="g3651">
          <path
             id="path3653"
             d="m 37.443,-3.5 c 8.988,0 16.57,3.085 22.742,9.257 6.208,6.21 9.315,13.791 9.315,22.743 0,8.991 -3.049,16.476 -9.145,22.456 C 53.879,57.319 46.242,60.5 37.443,60.5 28.794,60.5 21.29,57.356 14.929,51.07 8.644,44.784 5.5,37.262 5.5,28.5 5.5,19.739 8.644,12.158 14.929,5.758 21.101,-0.415 28.604,-3.5 37.443,-3.5 Z m 0.114,5.772 c -7.276,0 -13.428,2.553 -18.457,7.657 -5.22,5.334 -7.829,11.525 -7.829,18.572 0,7.086 2.59,13.22 7.77,18.398 5.181,5.182 11.352,7.771 18.514,7.771 7.123,0 13.334,-2.607 18.629,-7.828 5.029,-4.838 7.543,-10.952 7.543,-18.343 0,-7.276 -2.553,-13.465 -7.656,-18.571 C 50.967,4.824 44.795,2.272 37.557,2.272 Z m 8.572,18.285 0,13.085 -3.656,0 0,15.542 -9.944,0 0,-15.541 -3.656,0 0,-13.086 c 0,-0.572 0.2,-1.057 0.599,-1.457 0.401,-0.399 0.887,-0.6 1.457,-0.6 l 13.144,0 c 0.533,0 1.01,0.2 1.428,0.6 0.417,0.4 0.628,0.886 0.628,1.457 z M 33.042,12.329 c 0,-3.008 1.485,-4.514 4.458,-4.514 2.973,0 4.457,1.504 4.457,4.514 0,2.971 -1.486,4.457 -4.457,4.457 -2.971,0 -4.458,-1.486 -4.458,-4.457 z"
             style="fill:#ffffff;stroke-width:106px;stroke-opacity:0" />
        </g>
      </g>
    </g>
    <text
       xml:space="preserve"
       style="font-style:normal;font-weight:normal;font-size:45px;line-height:125%;font-family:Sans;letter-spacing:0px;word-spacing:0px;fill:#ffffff;fill-opacity:1;stroke:none;stroke-width:1px;stroke-linecap:butt;stroke-linejoin:miter;stroke-opacity:1"
       x="822.12384"
       y="318.77966"
       id="text3372"><tspan
         id="tspan3374"
         x="822.12384"
         y="318.77966">https://creativecommons.org/licenses/by/3.0/</tspan></text>
  </g>
  <g
     style="fill:#ffffff"
     transform="translate(955,368.71167)"
     id="g3422">
    <path
       style="fill:#ffffff;stroke-width:106px;stroke-opacity:0"
       d="m 767.63859,656.71445 c -19.70624,-13.29211 -30.0638,-34.78251 -31.98744,-66.3692 -1.43349,-23.53847 0.9196,-41.27676 11.04384,-83.2515 9.04187,-37.48722 10.25058,-44.98953 10.82668,-67.19933 l 0.50084,-19.30831 -2.79827,-5.14132 c -1.53903,-2.82773 -3.06642,-5.11188 -3.39419,-5.07588 -1.01564,0.11154 -13.34335,14.73672 -20.83326,24.71589 -16.33234,21.76038 -25.60163,43.22441 -27.28949,63.19178 l -0.65308,7.72594 -5.27016,1.09408 c -10.61678,2.20404 -10.8706,2.13156 -12.36758,-3.53166 -2.00056,-7.56826 -1.05576,-26.47211 1.73846,-34.78401 3.78961,-11.27287 12.29519,-27.06267 24.45286,-45.39442 13.49651,-20.3505 22.29544,-36.42189 25.53532,-46.64062 2.65176,-8.3638 2.97063,-8.55756 15.55219,-9.45063 l 8.732,-0.61982 3.12189,7.95082 c 7.43509,18.93566 10.17178,32.25172 11.06213,53.82538 1.01717,24.6467 -1.58267,46.64916 -11.85379,100.3191 -8.90226,46.5171 -8.79316,45.45365 -6.14705,59.92072 4.56989,24.98504 10.85366,39.45816 22.64364,52.15409 2.84124,3.05955 2.92917,3.43892 2.22,9.5782 -0.40614,3.51586 -1.12477,7.41331 -1.59696,8.661 -1.35091,3.56954 -5.54603,2.81843 -13.23858,-2.3703 z m -90.38164,-99.95339 -4.40915,-0.39201 0.542,-4.04098 c 0.83163,-6.20021 4.81551,-11.35435 11.18508,-14.47069 4.9407,-2.41726 7.23692,-2.80107 21.47635,-3.58977 8.76928,-0.4857 17.64554,-0.90037 19.72502,-0.92146 l 3.78087,-0.0384 0,9.559 c 0,11.29871 2.89266,9.73239 -23.25417,12.59173 -18.38624,2.01065 -20.17778,2.091 -29.046,1.30254 z M 768.2731,543.8509 c -0.83386,-3.32234 0.23533,-9.92823 2.23178,-13.78895 2.39007,-4.62188 9.14586,-11.53281 17.52971,-17.93225 8.64051,-6.59535 16.13845,-14.28995 18.64164,-19.13059 5.38981,-10.42275 9.04084,-44.89604 6.65258,-62.8141 -3.25318,-24.40712 -15.88415,-51.5788 -32.35366,-69.59908 -2.77164,-3.03262 -5.03935,-5.9614 -5.03935,-6.50842 0,-0.547 4.83882,-5.47414 10.75293,-10.94919 7.58087,-7.01805 10.89476,-9.50848 11.23374,-8.44227 1.33436,4.19712 18.16012,35.58555 21.9397,40.92846 8.17767,11.56015 19.03163,19.79958 29.69147,22.5393 2.48609,0.63896 6.23073,1.81921 8.32143,2.62277 5.50332,2.11521 13.05961,1.80424 25.74605,-1.05955 18.97928,-4.28432 25.02118,-3.06679 29.37097,5.91865 3.60698,7.45103 2.88405,8.76588 -6.56211,11.93495 -16.56431,5.55713 -38.39037,5.7971 -60.26526,0.66258 -6.73871,-1.58173 -9.20194,-1.80884 -10.08232,-0.92961 -1.32254,1.32081 -1.39401,10.01055 -0.19947,24.25506 0.67011,7.99088 0.44027,11.47089 -1.38686,20.99896 -5.55393,28.96263 -16.40629,50.15914 -34.20845,66.81499 -7.02205,6.56989 -9.57507,8.303 -14.18877,9.63203 -3.0943,0.89136 -8.22568,2.92522 -11.40305,4.51968 l -5.77706,2.89903 z M 711.17104,365.94558 c -1.51716,-0.45683 -4.35281,-1.81595 -6.30145,-3.02028 -2.90717,-1.79673 -3.54297,-2.79378 -3.54297,-5.55601 l 0,-3.36633 6.80557,-0.66626 c 17.00091,-1.66436 30.72847,-7.2785 44.24943,-18.09661 14.4243,-11.54086 26.91772,-28.1756 47.24764,-62.90926 6.54291,-11.17857 10.67025,-17.23784 11.7571,-17.26038 2.03801,-0.0423 6.66745,5.26032 7.50461,8.59585 1.34907,5.37514 -6.39806,31.26064 -13.79234,46.08434 -14.28239,28.63264 -38.25754,48.11805 -67.97977,55.24944 -8.26962,1.98417 -20.96226,2.44666 -25.94782,0.9455 z M 208.80522,351.83443 45.471616,351.32188 42.188122,348.97991 C 38.058137,346.03417 31.751543,333.22384 28.946692,322.08315 24.105544,302.85441 21.301153,281.80609 19.744904,253.01925 19.160325,242.20596 17.738163,218.84018 16.584545,201.09529 14.29438,165.86815 14.45912,143.82021 17.258786,110.85852 21.483662,61.117196 29.163428,31.283773 39.48376,24.521631 c 2.838761,-1.860028 32.602841,-3.671032 129.2043,-7.86148 90.8705,-3.941844 189.04609,-0.700997 244.23385,8.062337 12.44597,1.976313 14.73313,3.725809 20.70877,15.840548 6.04005,12.245322 9.50166,26.163797 10.40235,41.825748 0.97996,17.040563 0.57912,21.072446 -2.16826,21.809476 -3.5127,0.94236 -14.75211,0.69529 -16.7388,-0.36796 -2.87176,-1.53692 -4.93227,-8.064935 -6.6055,-20.927234 -3.54978,-27.287562 -8.37212,-33.703035 -28.99678,-38.576318 -23.03731,-5.443354 -58.07166,-7.475663 -127.78628,-7.412765 -67.75118,0.06113 -120.08,2.146025 -172.585343,6.876185 -12.975165,1.16892 -16.683365,1.868852 -20.709241,3.908918 -10.432251,5.286422 -18.225133,17.636423 -22.999951,36.449858 -3.658631,14.41551 -4.3982,23.879396 -5.482217,70.153156 -1.558517,66.52892 0.973794,98.74468 10.470413,133.20331 5.738918,20.82375 10.508062,27.89261 22.894548,33.93445 13.773448,6.71837 8.379445,6.47901 145.057801,6.43715 118.46344,-0.0363 157.58161,-0.77823 172.95564,-3.28041 14.30695,-2.32852 22.50687,-17.16632 27.2146,-49.24495 2.19604,-14.96394 2.45917,-15.86805 5.37684,-18.47499 5.91727,-5.28707 13.67236,-4.65079 16.97188,1.39249 2.96492,5.43044 2.34488,22.98911 -1.45237,41.12878 -4.89578,23.38743 -9.38243,39.21933 -11.99406,42.32308 -5.09697,6.0574 -20.12458,9.67614 -42.71422,10.28582 -6.9316,0.18707 -86.10303,0.1095 -175.93651,-0.1724 z m 459.75386,-16.54921 c -6.56917,-1.62344 -10.51915,-3.75316 -15.26847,-8.23234 l -3.87011,-3.64998 2.35982,-1.91087 c 3.65332,-2.95828 11.54508,-4.93971 25.85285,-6.49102 7.20886,-0.78162 15.14869,-2.08412 17.64406,-2.89446 27.42355,-8.90534 44.52387,-19.86565 66.69047,-42.74475 10.84765,-11.19633 33.17581,-38.88972 34.82915,-43.19824 0.33519,-0.87348 2.14969,-1.37481 4.97595,-1.37481 5.20125,0 5.19261,-0.59952 0.21024,14.58649 -11.24999,34.2894 -34.46353,62.66817 -67.62899,82.67709 -7.45766,4.49925 -8.87008,4.93117 -31.653,9.67978 -25.6358,5.34324 -26.52414,5.43569 -34.14197,3.55311 z M 529.92716,218.15069 c 36.47542,-0.42156 67.08756,-0.25126 85.10738,0.47348 15.47824,0.62252 28.33769,0.93643 28.57653,0.69758 1.00351,-1.00351 -10.78409,-6.66663 -17.83404,-8.56802 -13.88105,-3.74374 -20.24349,-4.14147 -81.23051,-5.07789 -33.27166,-0.51086 -87.26249,-1.46107 -119.97962,-2.11158 -90.37961,-1.79701 -12.6234,-1.76923 -20.36849,0.35848 -13.68442,3.75933 -25.65304,9.51878 -35.79225,17.22366 -10.24398,7.7845 -22.05568,21.04876 -50.15464,56.32248 l -30.3191,38.06076 -10.53466,0 c -8.89177,0 -10.44527,-0.23296 -9.96144,-1.49379 0.97148,-2.53167 37.96622,-53.88602 46.1961,-64.12725 16.94364,-21.08464 41.69834,-47.04277 51.06095,-53.54326 6.96752,-4.83756 19.28527,-8.81421 31.32098,-10.11163 14.33373,-1.54513 46.17856,-1.48904 137.44162,0.10637 77.42515,1.3535 75.30272,1.1754 97.3928,8.17264 6.84115,2.167 12.63001,3.74845 12.86413,3.51432 0.23413,-0.23412 -0.81146,-2.04766 -2.32353,-4.03009 -3.55715,-4.66366 -11.45974,-9.85157 -19.72335,-12.94802 -13.80224,-5.17184 -18.48079,-5.49196 -97.28414,-6.65663 -71.05998,-1.05024 -17.02487,-1.80427 -102.0353,-4.43572 l -39.82517,-1.23276 -5.91188,-2.94831 C 366.1962,160.60228 357.87335,151.44523 316.81091,100.00303 295.00355,72.683207 277.16115,50.087036 277.16115,49.789324 c 0,-1.015078 22.67993,0.835029 24.11924,1.967517 0.7887,0.620579 11.38229,14.437362 23.54133,30.703962 26.18644,35.032767 34.00567,44.516797 46.05111,55.855867 11.92863,11.2291 22.93085,18.08312 30.38093,19.65103 14.35635,3.02138 -39.42531,-0.3624 47.84778,-1.54559 101.17838,-1.37171 135.09195,-0.64234 150.89775,3.24534 12.62138,3.10441 28.11984,8.48629 37.80571,13.12812 4.08799,1.95911 7.60929,3.38544 7.82513,3.16961 0.94081,-0.94081 -3.00715,-6.56482 -7.67038,-10.92674 -14.62686,-13.68171 -36.41061,-22.20516 -63.67038,-24.91266 -10.92126,-1.08473 -109.73881,-11.1987 -140.33639,-5.00356 -16.3985,3.32024 -22.64873,-6.0534 -20.62727,-14.73666 47.82325,-7.95102 124.60168,-1.0428 131.87859,-0.4277 34.13102,2.88503 61.44405,9.70266 85.22307,21.27262 11.52999,5.61006 12.8147,6.5429 21.03762,15.27581 15.47057,16.43005 30.45113,38.38755 39.01932,57.1919 l 3.9049,8.56998 -0.36508,-6.14359 c -0.81421,-13.70157 -20.99162,-47.10391 -52.57452,-87.0336 -5.88459,-7.43977 -10.69924,-13.87933 -10.69924,-14.31014 0,-1.45027 4.4596,-3.92232 7.0759,-3.92232 4.60545,0 16.48206,8.01692 21.87953,14.76907 27.54005,34.45215 44.74492,62.51176 52.7645,86.05414 1.79451,5.26801 4.33229,10.70295 5.63951,12.07763 l 2.37675,2.49943 3.04987,-3.04986 3.04987,-3.04987 -2.60835,-9.02777 c -5.82489,-20.16055 -12.17874,-32.62687 -36.67238,-71.95166 -18.68872,-30.00493 -18.8054,-30.33758 -10.64165,-30.33758 3.53388,0 5.68742,0.92426 11.72327,5.03138 4.06679,2.76727 8.11401,5.60292 8.99385,6.30145 2.57733,2.04628 22.77123,36.28836 29.77653,50.49102 3.54016,7.17736 8.0637,18.32128 10.05233,24.76427 5.27125,17.07839 5.28873,17.09752 11.02629,12.05989 3.67145,-3.22358 3.73338,-3.39823 3.14671,-8.87446 -1.36837,-12.773 -8.70857,-35.69703 -17.41249,-54.38064 -2.42731,-5.21038 -4.41329,-10.08054 -4.41329,-10.82259 0,-0.74204 1.31372,-2.81947 2.91937,-4.61651 2.81066,-3.14566 3.02655,-3.21196 5.79733,-1.78031 4.68752,2.42201 12.72683,11.21031 16.15389,17.65888 1.75648,3.30509 5.79194,14.74307 8.96769,25.41772 3.17575,10.67466 6.13664,19.40847 6.57973,19.40847 0.44311,0 2.30581,-1.88335 4.13934,-4.18523 8.46103,-10.62229 11.52906,-12.10103 15.76084,-7.59651 2.73665,2.91303 2.78346,6.72285 0.17574,14.30232 -2.69452,7.83177 -2.58984,10.00152 0.55156,11.43283 1.41241,0.64355 3.22723,1.17008 4.03292,1.17008 1.981,0 1.84241,2.62006 -0.49852,9.42406 -6.92489,20.12755 -21.85723,37.88584 -45.42348,54.01986 -22.38641,15.32628 -51.43161,24.90606 -78.97699,26.04844 -13.66356,0.56665 -21.61316,-1.01932 -28.39973,-5.66586 -5.21447,-3.57017 -5.40136,-6.70247 -0.59322,-9.94267 5.25274,-3.53982 12.19541,-5.19342 26.68994,-6.35699 45.01345,-3.61351 79.07713,-19.97067 103.80372,-49.84589 3.88068,-4.68872 3.96818,-4.91936 1.16974,-3.08314 -30.70528,20.14736 -64.16079,34.85673 -89.50801,39.35395 -7.60437,1.34919 -13.25078,1.63157 -24.70168,1.23534 -15.72835,-0.54424 -25.11781,-2.43321 -35.98609,-7.23969 -6.01008,-2.65794 -6.77676,-4.0351 -6.33615,-11.38138 l 0.25595,-4.26736 -82.67504,-0.50841 c -45.47127,-0.27962 -113.76707,7.67273 -105.99808,-10.4427 -0.59075,-7.18449 71.13845,-7.45888 102.46927,-7.82098 z"
       id="path2161" />
    <path
       style="fill:#ffffff;fill-opacity:1;stroke-width:106px;stroke-opacity:0"
       d="m 178.34375,65.5625 c -60.85075,0 -110.1875,50.25173 -110.1875,112.25 0,61.99827 49.33675,112.25 110.1875,112.25 60.85075,0 110.1875,-50.25173 110.1875,-112.25 0,-61.99827 -49.33675,-112.25 -110.1875,-112.25 z M 132.25,102.625 194.0625,140 255.875,177.40625 193.1875,213.25 130.5,249.09375 l 0.875,-73.25 0.875,-73.21875 z"
       id="path3041" />
  </g>
  <text
     id="text3460"
     y="846.95233"
     x="1075.371"
     style="font-style:normal;font-variant:normal;font-weight:normal;font-stretch:normal;font-size:64px;line-height:125%;font-family:'DejaVu Sans';-inkscape-font-specification:'DejaVu Sans';letter-spacing:0px;word-spacing:0px;fill:#6666ff;fill-opacity:1;stroke:none;stroke-width:1px;stroke-linecap:butt;stroke-linejoin:miter;stroke-opacity:1"
     xml:space="preserve"><tspan
       y="846.95233"
       x="1075.371"
       id="tspan3462">Recorded by:</tspan></text>
</svg>
