<?xml version="1.0" encoding="UTF-8" standalone="no"?>
<!-- Created with Inkscape (http://www.inkscape.org/) -->

<svg
   xmlns:dc="http://purl.org/dc/elements/1.1/"
   xmlns:cc="http://creativecommons.org/ns#"
   xmlns:rdf="http://www.w3.org/1999/02/22-rdf-syntax-ns#"
   xmlns:svg="http://www.w3.org/2000/svg"
   xmlns="http://www.w3.org/2000/svg"
   xmlns:sodipodi="http://sodipodi.sourceforge.net/DTD/sodipodi-0.dtd"
   xmlns:inkscape="http://www.inkscape.org/namespaces/inkscape"
   width="590"
   height="300"
   id="svg3194"
   version="1.1"
   inkscape:version="0.48.4 r9939"
   sodipodi:docname="SotmEU.de.svg"
   inkscape:export-filename="C:\Users\peterkoerner\Desktop\SotmEU.de.png"
   inkscape:export-xdpi="50.405869"
   inkscape:export-ydpi="50.405869">
  <defs
     id="defs3196" />
  <sodipodi:namedview
     id="base"
     pagecolor="#ffffff"
     bordercolor="#666666"
     borderopacity="1.0"
     inkscape:pageopacity="0.0"
     inkscape:pageshadow="2"
     inkscape:zoom="1"
     inkscape:cx="554.58121"
     inkscape:cy="-43.267341"
     inkscape:document-units="px"
     inkscape:current-layer="layer1"
     showgrid="false"
     inkscape:window-width="1920"
     inkscape:window-height="1018"
     inkscape:window-x="-8"
     inkscape:window-y="-8"
     inkscape:window-maximized="1"
     showguides="true"
     inkscape:guide-bbox="true">
    <sodipodi:guide
       orientation="1,0"
       position="580,262"
       id="guide3129" />
    <sodipodi:guide
       orientation="1,0"
       position="233,214"
       id="guide3131" />
  </sodipodi:namedview>
  <metadata
     id="metadata3199">
    <rdf:RDF>
      <cc:Work
         rdf:about="">
        <dc:format>image/svg+xml</dc:format>
        <dc:type
           rdf:resource="http://purl.org/dc/dcmitype/StillImage" />
        <dc:title></dc:title>
      </cc:Work>
    </rdf:RDF>
  </metadata>
  <g
     inkscape:label="Ebene 1"
     inkscape:groupmode="layer"
     id="layer1"
     transform="translate(0,-752.36218)">
    <g
       transform="matrix(1.5,0,0,1.5,-648.47188,14.14024)"
       id="g3585">
      <circle
         style="opacity:0.7;fill:#f8951d"
         sodipodi:ry="36.963001"
         sodipodi:rx="36.963001"
         sodipodi:cy="621.651"
         sodipodi:cx="569.47302"
         d="m 606.43602,621.651 c 0,20.4141 -16.5489,36.963 -36.963,36.963 -20.4141,0 -36.963,-16.5489 -36.963,-36.963 0,-20.4141 16.5489,-36.963 36.963,-36.963 20.4141,0 36.963,16.5489 36.963,36.963 z"
         cx="569.47302"
         cy="621.651"
         r="36.963001"
         id="circle3587" />
      <path
         style="opacity:0.7;fill:#d9e137"
         inkscape:connector-curvature="0"
         d="m 479.934,653.729 c 0,11.319 -9.175,20.497 -20.495,20.497 -11.318,0 -20.494,-9.178 -20.494,-20.497 0,-11.317 9.176,-20.493 20.494,-20.493 11.32,-10e-4 20.495,9.175 20.495,20.493 z"
         id="path3589" />
      <circle
         style="opacity:0.7;fill:#4b9dd0"
         sodipodi:ry="14.965"
         sodipodi:rx="14.965"
         sodipodi:cy="548.62201"
         sodipodi:cx="541.86798"
         d="m 556.83298,548.62201 c 0,8.26494 -6.70006,14.965 -14.965,14.965 -8.26494,0 -14.965,-6.70006 -14.965,-14.965 0,-8.26494 6.70006,-14.965 14.965,-14.965 8.26494,0 14.965,6.70006 14.965,14.965 z"
         cx="541.86798"
         cy="548.62201"
         r="14.965"
         id="circle3591" />
      <circle
         style="opacity:0.7;fill:#fff152"
         sodipodi:ry="38.318001"
         sodipodi:rx="38.318001"
         sodipodi:cy="595.59003"
         sodipodi:cx="600.74597"
         d="m 639.06397,595.59003 c 0,21.16244 -17.15555,38.318 -38.318,38.318 -21.16245,0 -38.318,-17.15556 -38.318,-38.318 0,-21.16245 17.15555,-38.318 38.318,-38.318 21.16245,0 38.318,17.15555 38.318,38.318 z"
         cx="600.74597"
         cy="595.59003"
         r="38.318001"
         id="circle3593" />
      <circle
         style="opacity:0.9;fill:#ed2927"
         sodipodi:ry="25.263"
         sodipodi:rx="25.263"
         sodipodi:cy="610.89001"
         sodipodi:cx="529.37402"
         d="m 554.63702,610.89001 c 0,13.95237 -11.31063,25.26301 -25.263,25.26301 -13.95237,0 -25.263,-11.31064 -25.263,-25.26301 0,-13.95237 11.31063,-25.263 25.263,-25.263 13.95237,0 25.263,11.31063 25.263,25.263 z"
         cx="529.37402"
         cy="610.89001"
         r="25.263"
         id="circle3595" />
      <circle
         style="opacity:0.9;fill:#ed2927"
         sodipodi:ry="15.703"
         sodipodi:rx="15.703"
         sodipodi:cy="669.87598"
         sodipodi:cx="621.73901"
         d="m 637.44201,669.87598 c 0,8.67252 -7.03047,15.703 -15.703,15.703 -8.67252,0 -15.703,-7.03048 -15.703,-15.703 0,-8.67253 7.03048,-15.703 15.703,-15.703 8.67253,0 15.703,7.03047 15.703,15.703 z"
         cx="621.73901"
         cy="669.87598"
         r="15.703"
         id="circle3597" />
      <circle
         style="opacity:0.7;fill:#b8d433"
         sodipodi:ry="21.896"
         sodipodi:rx="21.896"
         sodipodi:cy="624.47803"
         sodipodi:cx="501.88699"
         d="m 523.78299,624.47803 c 0,12.09282 -9.80317,21.896 -21.896,21.896 -12.09282,0 -21.896,-9.80318 -21.896,-21.896 0,-12.09283 9.80318,-21.896 21.896,-21.896 12.09283,0 21.896,9.80317 21.896,21.896 z"
         cx="501.88699"
         cy="624.47803"
         r="21.896"
         id="circle3599" />
      <circle
         style="opacity:0.7;fill:#d694c1"
         sodipodi:ry="15.534"
         sodipodi:rx="15.534"
         sodipodi:cy="518.38898"
         sodipodi:cx="587.646"
         d="m 603.18,518.38898 c 0,8.57919 -6.95481,15.534 -15.534,15.534 -8.5792,0 -15.534,-6.95481 -15.534,-15.534 0,-8.57919 6.9548,-15.534 15.534,-15.534 8.57919,0 15.534,6.95481 15.534,15.534 z"
         cx="587.646"
         cy="518.38898"
         r="15.534"
         id="circle3601" />
      <circle
         style="opacity:0.7;fill:#b8d433"
         sodipodi:ry="20.656"
         sodipodi:rx="20.656"
         sodipodi:cy="547.97302"
         sodipodi:cx="589.578"
         d="m 610.234,547.97302 c 0,11.408 -9.248,20.656 -20.656,20.656 -11.40799,0 -20.656,-9.248 -20.656,-20.656 0,-11.40799 9.24801,-20.656 20.656,-20.656 11.408,0 20.656,9.24801 20.656,20.656 z"
         cx="589.578"
         cy="547.97302"
         r="20.656"
         id="circle3603" />
      <circle
         style="opacity:0.7;fill:#d9e137"
         sodipodi:ry="7.4790001"
         sodipodi:rx="7.4790001"
         sodipodi:cy="563.48297"
         sodipodi:cx="490.496"
         d="m 497.975,563.48297 c 0,4.13054 -3.34846,7.479 -7.479,7.479 -4.13054,0 -7.479,-3.34846 -7.479,-7.479 0,-4.13054 3.34846,-7.479 7.479,-7.479 4.13054,0 7.479,3.34846 7.479,7.479 z"
         cx="490.496"
         cy="563.48297"
         r="7.4790001"
         id="circle3605" />
      <circle
         style="opacity:0.7;fill:#efa41f"
         sodipodi:ry="7.3920002"
         sodipodi:rx="7.3920002"
         sodipodi:cy="580.17102"
         sodipodi:cx="470.34299"
         d="m 477.73499,580.17102 c 0,4.08249 -3.30951,7.392 -7.392,7.392 -4.08249,0 -7.392,-3.30951 -7.392,-7.392 0,-4.08249 3.30951,-7.392 7.392,-7.392 4.08249,0 7.392,3.30951 7.392,7.392 z"
         cx="470.34299"
         cy="580.17102"
         r="7.3920002"
         id="circle3607" />
      <circle
         style="opacity:0.7;fill:#b8d433"
         sodipodi:ry="11.317"
         sodipodi:rx="11.317"
         sodipodi:cy="565.83698"
         sodipodi:cx="546.71198"
         d="m 558.02898,565.83698 c 0,6.2502 -5.0668,11.317 -11.317,11.317 -6.25021,0 -11.31701,-5.0668 -11.31701,-11.317 0,-6.25021 5.0668,-11.31701 11.31701,-11.31701 6.2502,0 11.317,5.0668 11.317,11.31701 z"
         cx="546.71198"
         cy="565.83698"
         r="11.317"
         id="circle3609" />
      <circle
         style="opacity:0.7;fill:#f8951d"
         sodipodi:ry="13.019"
         sodipodi:rx="13.019"
         sodipodi:cy="672.95801"
         sodipodi:cx="603.242"
         d="m 616.261,672.95801 c 0,7.19019 -5.8288,13.019 -13.019,13.019 -7.19019,0 -13.019,-5.82881 -13.019,-13.019 0,-7.1902 5.82881,-13.019 13.019,-13.019 7.1902,0 13.019,5.8288 13.019,13.019 z"
         cx="603.242"
         cy="672.95801"
         r="13.019"
         id="circle3611" />
      <circle
         style="opacity:0.7;fill:#f6eb00"
         sodipodi:ry="11.997"
         sodipodi:rx="11.997"
         sodipodi:cy="644.64398"
         sodipodi:cx="484.12"
         d="m 496.11699,644.64398 c 0,6.62576 -5.37123,11.997 -11.99699,11.997 -6.62576,0 -11.997,-5.37124 -11.997,-11.997 0,-6.62576 5.37124,-11.997 11.997,-11.997 6.62576,0 11.99699,5.37124 11.99699,11.997 z"
         cx="484.12"
         cy="644.64398"
         r="11.997"
         id="circle3613" />
      <circle
         style="opacity:0.7;fill:#f5882b"
         sodipodi:ry="11.213"
         sodipodi:rx="11.213"
         sodipodi:cy="589.51202"
         sodipodi:cx="491.42801"
         d="m 502.64101,589.51202 c 0,6.19277 -5.02023,11.213 -11.213,11.213 -6.19277,0 -11.213,-5.02023 -11.213,-11.213 0,-6.19277 5.02023,-11.213 11.213,-11.213 6.19277,0 11.213,5.02023 11.213,11.213 z"
         cx="491.42801"
         cy="589.51202"
         r="11.213"
         id="circle3615" />
      <circle
         style="opacity:0.7;fill:#b65d93"
         sodipodi:ry="10.116"
         sodipodi:rx="10.116"
         sodipodi:cy="662.63397"
         sodipodi:cx="570.18103"
         d="m 580.29703,662.63397 c 0,5.58691 -4.52909,10.116 -10.116,10.116 -5.58691,0 -10.116,-4.52909 -10.116,-10.116 0,-5.58691 4.52909,-10.116 10.116,-10.116 5.58691,0 10.116,4.52909 10.116,10.116 z"
         cx="570.18103"
         cy="662.63397"
         r="10.116"
         id="circle3617" />
      <circle
         style="opacity:0.7;fill:#f6eb00"
         sodipodi:ry="8.1999998"
         sodipodi:rx="8.1999998"
         sodipodi:cy="582.737"
         sodipodi:cx="530.349"
         d="m 538.549,582.737 c 0,4.52873 -3.67127,8.2 -8.2,8.2 -4.52874,0 -8.2,-3.67127 -8.2,-8.2 0,-4.52874 3.67126,-8.2 8.2,-8.2 4.52873,0 8.2,3.67126 8.2,8.2 z"
         cx="530.349"
         cy="582.737"
         r="8.1999998"
         id="circle3619" />
      <circle
         style="opacity:0.7;fill:#df4097"
         sodipodi:ry="2.425"
         sodipodi:rx="2.425"
         sodipodi:cy="655.99298"
         sodipodi:cx="518.41199"
         d="m 520.83699,655.99298 c 0,1.33929 -1.08571,2.425 -2.425,2.425 -1.33929,0 -2.425,-1.08571 -2.425,-2.425 0,-1.33929 1.08571,-2.425 2.425,-2.425 1.33929,0 2.425,1.08571 2.425,2.425 z"
         cx="518.41199"
         cy="655.99298"
         r="2.425"
         id="circle3621" />
      <circle
         style="opacity:0.7;fill:#ed2927"
         sodipodi:ry="5.316"
         sodipodi:rx="5.316"
         sodipodi:cy="573.70599"
         sodipodi:cx="476.54599"
         d="m 481.86199,573.70599 c 0,2.93595 -2.38005,5.316 -5.316,5.316 -2.93595,0 -5.316,-2.38005 -5.316,-5.316 0,-2.93594 2.38005,-5.316 5.316,-5.316 2.93595,0 5.316,2.38006 5.316,5.316 z"
         cx="476.54599"
         cy="573.70599"
         r="5.316"
         id="circle3623" />
      <circle
         style="opacity:0.7;fill:#f6eb00"
         sodipodi:ry="6.448"
         sodipodi:rx="6.448"
         sodipodi:cy="574.724"
         sodipodi:cx="492.30099"
         d="m 498.74899,574.724 c 0,3.56113 -2.88686,6.448 -6.448,6.448 -3.56113,0 -6.448,-2.88687 -6.448,-6.448 0,-3.56113 2.88687,-6.448 6.448,-6.448 3.56114,0 6.448,2.88687 6.448,6.448 z"
         cx="492.30099"
         cy="574.724"
         r="6.448"
         id="circle3625" />
      <circle
         style="opacity:0.7;fill:#e5edb4"
         sodipodi:ry="6.8590002"
         sodipodi:rx="6.8590002"
         sodipodi:cy="613.90698"
         sodipodi:cx="481.297"
         d="m 488.156,613.90698 c 0,3.78812 -3.07088,6.859 -6.859,6.859 -3.78812,0 -6.859,-3.07088 -6.859,-6.859 0,-3.78812 3.07088,-6.859 6.859,-6.859 3.78812,0 6.859,3.07088 6.859,6.859 z"
         cx="481.297"
         cy="613.90698"
         r="6.8590002"
         id="circle3627" />
      <circle
         style="opacity:0.7;fill:#f6eb00"
         sodipodi:ry="5.5139999"
         sodipodi:rx="5.5139999"
         sodipodi:cy="664.85498"
         sodipodi:cx="516.47699"
         d="m 521.99099,664.85498 c 0,3.0453 -2.4687,5.514 -5.514,5.514 -3.0453,0 -5.514,-2.4687 -5.514,-5.514 0,-3.0453 2.4687,-5.514 5.514,-5.514 3.0453,0 5.514,2.4687 5.514,5.514 z"
         cx="516.47699"
         cy="664.85498"
         r="5.5139999"
         id="circle3629" />
      <circle
         style="opacity:0.7;fill:#a3cf65"
         sodipodi:ry="6.605"
         sodipodi:rx="6.605"
         sodipodi:cy="650.65503"
         sodipodi:cx="531.19098"
         d="m 537.79598,650.65503 c 0,3.64784 -2.95716,6.605 -6.605,6.605 -3.64784,0 -6.605,-2.95716 -6.605,-6.605 0,-3.64784 2.95716,-6.605 6.605,-6.605 3.64784,0 6.605,2.95716 6.605,6.605 z"
         cx="531.19098"
         cy="650.65503"
         r="6.605"
         id="circle3631" />
      <circle
         style="opacity:0.7;fill:#f6eb00"
         sodipodi:ry="4.7989998"
         sodipodi:rx="4.7989998"
         sodipodi:cy="659.09497"
         sodipodi:cx="538.38098"
         d="m 543.17998,659.09497 c 0,2.65042 -2.14858,4.799 -4.799,4.799 -2.65041,0 -4.799,-2.14858 -4.799,-4.799 0,-2.65041 2.14859,-4.799 4.799,-4.799 2.65042,0 4.799,2.14859 4.799,4.799 z"
         cx="538.38098"
         cy="659.09497"
         r="4.7989998"
         id="circle3633" />
      <circle
         style="opacity:0.7;fill:#d3e27d"
         sodipodi:ry="8.1870003"
         sodipodi:rx="8.1870003"
         sodipodi:cy="668.10999"
         sodipodi:cx="545.58502"
         d="m 553.77202,668.10999 c 0,4.52155 -3.66544,8.187 -8.187,8.187 -4.52155,0 -8.187,-3.66545 -8.187,-8.187 0,-4.52156 3.66545,-8.187 8.187,-8.187 4.52156,0 8.187,3.66544 8.187,8.187 z"
         cx="545.58502"
         cy="668.10999"
         r="8.1870003"
         id="circle3635" />
      <circle
         style="opacity:0.7;fill:#f6eb00"
         sodipodi:ry="5.164"
         sodipodi:rx="5.164"
         sodipodi:cy="681.83002"
         sodipodi:cx="538.00598"
         d="m 543.16998,681.83002 c 0,2.852 -2.312,5.164 -5.164,5.164 -2.852,0 -5.164,-2.312 -5.164,-5.164 0,-2.852 2.312,-5.164 5.164,-5.164 2.852,0 5.164,2.312 5.164,5.164 z"
         cx="538.00598"
         cy="681.83002"
         r="5.164"
         id="circle3637" />
      <circle
         style="opacity:0.7;fill:#a3cf65"
         sodipodi:ry="9.6289997"
         sodipodi:rx="9.6289997"
         sodipodi:cy="506.16901"
         sodipodi:cx="476.29001"
         d="m 485.91901,506.16901 c 0,5.31795 -4.31105,9.629 -9.629,9.629 -5.31795,0 -9.629,-4.31105 -9.629,-9.629 0,-5.31795 4.31105,-9.629 9.629,-9.629 5.31795,0 9.629,4.31105 9.629,9.629 z"
         cx="476.29001"
         cy="506.16901"
         r="9.6289997"
         id="circle3639" />
      <circle
         style="opacity:0.7;fill:#a2dceb"
         sodipodi:ry="9.6289997"
         sodipodi:rx="9.6289997"
         sodipodi:cy="553.94202"
         sodipodi:cx="528.48499"
         d="m 538.11399,553.94202 c 0,5.31795 -4.31105,9.629 -9.629,9.629 -5.31795,0 -9.629,-4.31105 -9.629,-9.629 0,-5.31795 4.31105,-9.629 9.629,-9.629 5.31795,0 9.629,4.31105 9.629,9.629 z"
         cx="528.48499"
         cy="553.94202"
         r="9.6289997"
         id="circle3641" />
      <circle
         style="opacity:0.8;fill:#975fa6"
         sodipodi:ry="14.848"
         sodipodi:rx="14.848"
         sodipodi:cy="652.638"
         sodipodi:cx="582.49103"
         d="m 597.33903,652.638 c 0,8.20032 -6.64768,14.848 -14.848,14.848 -8.20033,0 -14.848,-6.64768 -14.848,-14.848 0,-8.20032 6.64767,-14.848 14.848,-14.848 8.20032,0 14.848,6.64768 14.848,14.848 z"
         cx="582.49103"
         cy="652.638"
         r="14.848"
         id="circle3643" />
      <circle
         style="opacity:0.7;fill:#f8951d"
         sodipodi:ry="12.992"
         sodipodi:rx="12.992"
         sodipodi:cy="529.95599"
         sodipodi:cx="555.909"
         d="m 568.901,529.95599 c 0,7.17529 -5.81672,12.992 -12.992,12.992 -7.17529,0 -12.992,-5.81671 -12.992,-12.992 0,-7.17528 5.81671,-12.992 12.992,-12.992 7.17528,0 12.992,5.81672 12.992,12.992 z"
         cx="555.909"
         cy="529.95599"
         r="12.992"
         id="circle3645" />
      <circle
         style="opacity:0.7;fill:#7baed9"
         sodipodi:ry="7.7319999"
         sodipodi:rx="7.7319999"
         sodipodi:cy="675.79199"
         sodipodi:cx="571.91101"
         d="m 579.64301,675.79199 c 0,4.27027 -3.46173,7.732 -7.732,7.732 -4.27026,0 -7.732,-3.46173 -7.732,-7.732 0,-4.27026 3.46174,-7.732 7.732,-7.732 4.27027,0 7.732,3.46174 7.732,7.732 z"
         cx="571.91101"
         cy="675.79199"
         r="7.7319999"
         id="circle3647" />
      <circle
         style="opacity:0.7;fill:#9360a8"
         sodipodi:ry="15.748"
         sodipodi:rx="15.748"
         sodipodi:cy="513.66901"
         sodipodi:cx="570.46301"
         d="m 586.21101,513.66901 c 0,8.69738 -7.05062,15.748 -15.748,15.748 -8.69738,0 -15.748,-7.05062 -15.748,-15.748 0,-8.69738 7.05062,-15.748 15.748,-15.748 8.69738,0 15.748,7.05062 15.748,15.748 z"
         cx="570.46301"
         cy="513.66901"
         r="15.748"
         id="circle3649" />
      <path
         style="opacity:0.7;fill:#f6eb00"
         inkscape:connector-curvature="0"
         d="m 537.297,631.261 c 0,9.047 -7.339,16.389 -16.389,16.389 -9.05,0 -16.388,-7.342 -16.388,-16.389 0,-9.057 7.338,-16.393 16.388,-16.393 9.05,0 16.389,7.336 16.389,16.393 z"
         id="path3651" />
      <circle
         style="opacity:0.7;fill:#a2dceb"
         sodipodi:ry="7.2049999"
         sodipodi:rx="7.2049999"
         sodipodi:cy="623.599"
         sodipodi:cx="537.86603"
         d="m 545.07103,623.599 c 0,3.97921 -3.22579,7.205 -7.205,7.205 -3.97921,0 -7.205,-3.22579 -7.205,-7.205 0,-3.97921 3.22579,-7.205 7.205,-7.205 3.97921,0 7.205,3.22579 7.205,7.205 z"
         cx="537.86603"
         cy="623.599"
         r="7.2049999"
         id="circle3653" />
      <path
         inkscape:connector-curvature="0"
         d="m 587.28,577.039 h 13.969 v 16.068 c 0,1.597 0.969,2.394 2.907,2.394 1.872,0 2.807,-0.797 2.807,-2.394 v -8.303 c 0,-2.54 -1.692,-5.519 -5.08,-8.938 -6.543,-6.349 -10.615,-10.613 -12.209,-12.795 -1.596,-2.182 -2.395,-4.574 -2.395,-7.18 v -7.864 c 0,-9.085 5.935,-13.626 17.805,-13.626 10.629,0 15.944,4.135 15.944,12.405 v 12.112 H 607.06 v -12.894 c 0,-1.399 -0.781,-2.101 -2.341,-2.101 -1.826,0 -2.738,1.352 -2.738,4.054 l 0.294,4.542 c 0,2.605 1.729,5.634 5.19,9.084 6.43,6.154 10.518,10.453 12.264,12.895 1.746,2.442 2.619,5.211 2.619,8.303 v 8.938 c 0,9.313 -5.95,13.969 -17.852,13.969 -11.479,0 -17.217,-4.232 -17.217,-12.698 v -15.971 z"
         id="path3655" />
      <path
         inkscape:connector-curvature="0"
         d="m 625.181,593.89 v -33.945 c 0,-7.977 5.521,-11.966 16.557,-11.966 4.266,0 8.02,0.928 11.259,2.784 3.24,1.855 4.86,4.754 4.86,8.693 v 34.922 c 0,7.651 -5.374,11.478 -16.119,11.478 -11.037,-10e-4 -16.557,-3.989 -16.557,-11.966 z m 18.756,0.39 v -34.727 c 0,-1.855 -0.798,-2.783 -2.395,-2.783 -1.628,0 -2.44,0.928 -2.44,2.783 v 34.727 c 0,1.922 0.813,2.881 2.44,2.881 1.597,0 2.395,-0.959 2.395,-2.881 z"
         id="path3657" />
      <path
         inkscape:connector-curvature="0"
         d="m 688.234,605.073 h -8.791 c -6.284,0 -10.045,-0.943 -11.282,-2.832 -1.237,-1.889 -1.855,-5.52 -1.855,-10.892 V 556.77 h -6.204 v -8.401 h 6.204 V 536.94 h 13.919 v 11.429 h 7.522 v 8.401 h -7.522 v 34.481 c 0,1.66 0.497,2.776 1.49,3.345 0.993,0.57 3.166,0.855 6.52,0.855 v 9.622 z"
         id="path3659" />
      <path
         inkscape:connector-curvature="0"
         d="m 744.598,605.073 h -13.725 v -39.316 l -8.01,39.316 h -10.599 l -9.183,-39.316 v 39.316 h -12.014 v -70.037 h 19.78 l 7.033,36.337 6.104,-36.337 h 20.611 v 70.037 z"
         id="path3661" />
      <circle
         style="fill:#4b9dd0"
         sodipodi:ry="35.728001"
         sodipodi:rx="35.728001"
         sodipodi:cy="570.13"
         sodipodi:cx="783.47998"
         d="m 819.20798,570.13 c 0,19.73203 -15.99597,35.72801 -35.728,35.72801 -19.73203,0 -35.728,-15.99598 -35.728,-35.72801 0,-19.73203 15.99597,-35.728 35.728,-35.728 19.73203,0 35.728,15.99597 35.728,35.728 z"
         cx="783.47998"
         cy="570.13"
         r="35.728001"
         id="circle3663" />
      <g
         id="g3665">
        <path
           style="fill:#ffffff"
           inkscape:connector-curvature="0"
           d="m 782.132,592.11 -17.798,1.43 -3.33,-41.432 17.683,-1.421 0.426,5.315 -8.581,0.689 0.901,11.211 7.744,-0.623 0.403,5.028 -7.744,0.622 1.172,14.563 8.695,-0.699 0.429,5.317 z"
           id="path3667" />
        <path
           style="fill:#ffffff"
           inkscape:connector-curvature="0"
           d="m 783.205,550.323 9.101,-0.731 2.796,34.788 c 0.067,0.828 0.609,1.201 1.632,1.119 1.001,-0.08 1.469,-0.535 1.403,-1.363 l -2.798,-34.787 9.103,-0.732 2.756,34.296 c 0.192,2.39 -0.651,4.319 -2.529,5.787 -1.879,1.47 -4.37,2.329 -7.47,2.578 -2.872,0.229 -5.407,-0.156 -7.612,-1.162 -2.202,-1.006 -3.408,-2.817 -3.62,-5.438 l -2.762,-34.355 z"
           id="path3669" />
      </g>
    </g>
    <text
       xml:space="preserve"
       style="font-size:40px;font-style:normal;font-variant:normal;font-weight:normal;font-stretch:normal;line-height:125%;letter-spacing:0px;word-spacing:0px;fill:#000000;fill-opacity:1;stroke:none;font-family:DejaVu Sans;-inkscape-font-specification:DejaVu Sans"
       x="232.63814"
       y="952.6601"
       id="text3125"
       sodipodi:linespacing="125%"><tspan
         sodipodi:role="line"
         id="tspan3127"
         x="232.63814"
         y="952.6601"
         style="font-size:25px;letter-spacing:0.1px">KARLSRUHE 13.-15. JUNI 14</tspan></text>
  </g>
</svg>
