<?xml version="1.0" encoding="UTF-8" standalone="no"?>
<!-- Generator: Adobe Illustrator 15.0.0, SVG Export Plug-In . SVG Version: 6.00 Build 0)  -->

<svg
   xmlns:dc="http://purl.org/dc/elements/1.1/"
   xmlns:cc="http://creativecommons.org/ns#"
   xmlns:rdf="http://www.w3.org/1999/02/22-rdf-syntax-ns#"
   xmlns:svg="http://www.w3.org/2000/svg"
   xmlns="http://www.w3.org/2000/svg"
   xmlns:sodipodi="http://sodipodi.sourceforge.net/DTD/sodipodi-0.dtd"
   xmlns:inkscape="http://www.inkscape.org/namespaces/inkscape"
   version="1.1"
   x="0px"
   y="0px"
   width="1920"
   height="1080"
   viewBox="0 0 1920 1080"
   enable-background="new 0 0 4096 3112"
   xml:space="preserve"
   id="svg2"
   inkscape:version="0.91 r13725"
   sodipodi:docname="pause.svg"
   inkscape:export-filename="/home/derpeter/projects/VOC/events/vcfb16/VCFB-Pause-2.png"
   inkscape:export-xdpi="90"
   inkscape:export-ydpi="90"><metadata
     id="metadata204"><rdf:RDF><cc:Work
         rdf:about=""><dc:format>image/svg+xml</dc:format><dc:type
           rdf:resource="http://purl.org/dc/dcmitype/StillImage" /><dc:title /></cc:Work></rdf:RDF></metadata><defs
     id="defs202" /><sodipodi:namedview
     pagecolor="#ffffff"
     bordercolor="#666666"
     borderopacity="1"
     objecttolerance="10"
     gridtolerance="10"
     guidetolerance="10"
     inkscape:pageopacity="0"
     inkscape:pageshadow="2"
     inkscape:window-width="1360"
     inkscape:window-height="692"
     id="namedview200"
     showgrid="false"
     inkscape:zoom="0.296875"
     inkscape:cx="672.71642"
     inkscape:cy="610.84406"
     inkscape:window-x="0"
     inkscape:window-y="24"
     inkscape:window-maximized="1"
     inkscape:current-layer="g4234" /><g
     id="ChaosKnoten"
     transform="matrix(0.3461273,0,0,0.3461273,265.94179,-0.35314801)"><path
       id="path2161"
       d="m 3610.335,2797.903 c -10.82,-7.299 -16.508,-19.1 -17.564,-36.443 -0.787,-12.926 0.505,-22.666 6.064,-45.715 4.965,-20.584 5.629,-24.704 5.945,-36.898 l 0.275,-10.604 -1.537,-2.822 c -0.846,-1.553 -1.684,-2.808 -1.863,-2.787 -0.559,0.061 -7.328,8.092 -11.439,13.57 -8.969,11.949 -14.059,23.735 -14.986,34.699 l -0.357,4.242 -2.895,0.602 c -5.83,1.211 -5.969,1.17 -6.791,-1.939 -1.098,-4.156 -0.579,-14.537 0.955,-19.1 2.08,-6.19 6.751,-14.86 13.427,-24.926 7.411,-11.176 12.243,-20 14.021,-25.611 1.456,-4.594 1.632,-4.699 8.54,-5.189 l 4.795,-0.34 1.714,4.365 c 4.083,10.396 5.585,17.709 6.074,29.556 0.56,13.534 -0.868,25.614 -6.509,55.085 -4.889,25.543 -4.828,24.96 -3.375,32.904 2.51,13.719 5.959,21.666 12.434,28.637 1.561,1.68 1.608,1.889 1.219,5.26 -0.223,1.931 -0.617,4.07 -0.877,4.756 -0.743,1.96 -3.045,1.546 -7.27,-1.302 z m -49.629,-54.886 -2.421,-0.214 0.298,-2.219 c 0.457,-3.405 2.645,-6.235 6.142,-7.946 2.713,-1.328 3.974,-1.537 11.792,-1.971 4.816,-0.268 9.69,-0.494 10.832,-0.506 l 2.076,-0.021 0,5.249 c 0,6.204 1.588,5.345 -12.77,6.915 -10.095,1.103 -11.08,1.146 -15.949,0.713 z m 49.978,-7.088 c -0.458,-1.824 0.129,-5.451 1.226,-7.57 1.312,-2.539 5.021,-6.334 9.626,-9.848 4.744,-3.622 8.861,-7.847 10.235,-10.506 2.961,-5.723 4.965,-24.651 3.653,-34.49 -1.786,-13.402 -8.722,-28.322 -17.766,-38.217 -1.522,-1.666 -2.767,-3.273 -2.767,-3.575 0,-0.3 2.656,-3.005 5.904,-6.013 4.162,-3.853 5.982,-5.221 6.168,-4.635 0.732,2.305 9.972,19.541 12.047,22.474 4.491,6.349 10.451,10.873 16.305,12.378 1.365,0.35 3.421,0.998 4.568,1.439 3.023,1.16 7.172,0.99 14.138,-0.582 10.422,-2.354 13.739,-1.684 16.128,3.25 1.98,4.092 1.584,4.812 -3.604,6.554 -9.096,3.051 -21.08,3.183 -33.092,0.363 -3.7,-0.868 -5.053,-0.993 -5.536,-0.511 -0.726,0.726 -0.766,5.498 -0.109,13.319 0.368,4.388 0.241,6.299 -0.762,11.53 -3.05,15.903 -9.009,27.543 -18.784,36.689 -3.855,3.606 -5.258,4.559 -7.791,5.288 -1.699,0.489 -4.517,1.606 -6.262,2.481 l -3.172,1.593 -0.353,-1.411 z m -31.355,-97.689 c -0.834,-0.251 -2.391,-0.997 -3.461,-1.658 -1.596,-0.986 -1.945,-1.534 -1.945,-3.051 l 0,-1.849 3.737,-0.366 c 9.335,-0.913 16.873,-3.996 24.298,-9.937 7.92,-6.337 14.779,-15.471 25.943,-34.544 3.593,-6.139 5.859,-9.466 6.456,-9.478 1.118,-0.023 3.661,2.889 4.12,4.72 0.742,2.952 -3.513,17.165 -7.572,25.306 -7.844,15.722 -21.008,26.422 -37.328,30.338 -4.541,1.09 -11.512,1.344 -14.248,0.519 z m -275.851,-7.749 -89.688,-0.281 -1.803,-1.285 c -2.268,-1.618 -5.73,-8.652 -7.271,-14.77 -2.659,-10.559 -4.198,-22.117 -5.054,-37.924 -0.32,-5.938 -1.102,-18.768 -1.734,-28.512 -1.258,-19.343 -1.168,-31.449 0.369,-49.549 2.32,-27.313 6.538,-43.695 12.205,-47.408 1.559,-1.021 17.901,-2.016 70.945,-4.316 49.898,-2.164 103.807,-0.386 134.11,4.427 6.835,1.085 8.091,2.046 11.372,8.698 3.316,6.724 5.217,14.366 5.711,22.967 0.539,9.357 0.318,11.57 -1.189,11.976 -1.93,0.517 -8.101,0.382 -9.191,-0.202 -1.578,-0.844 -2.709,-4.429 -3.628,-11.49 -1.949,-14.985 -4.597,-18.508 -15.923,-21.184 -12.648,-2.988 -31.887,-4.105 -70.168,-4.07 -37.201,0.033 -65.936,1.179 -94.767,3.775 -7.124,0.643 -9.161,1.027 -11.371,2.146 -5.729,2.903 -10.008,9.685 -12.63,20.016 -2.009,7.915 -2.415,13.112 -3.01,38.521 -0.855,36.531 0.534,54.221 5.749,73.143 3.151,11.434 5.771,15.316 12.571,18.633 7.563,3.689 4.602,3.558 79.652,3.535 65.049,-0.021 86.528,-0.428 94.971,-1.802 7.855,-1.278 12.357,-9.427 14.943,-27.04 1.206,-8.217 1.35,-8.713 2.953,-10.146 3.248,-2.903 7.506,-2.554 9.318,0.765 1.628,2.982 1.287,12.623 -0.797,22.585 -2.688,12.842 -5.152,21.535 -6.586,23.239 -2.799,3.326 -11.051,5.312 -23.455,5.647 -3.804,0.103 -47.276,0.061 -96.604,-0.094 z m 252.453,-9.086 c -3.607,-0.893 -5.776,-2.062 -8.385,-4.521 l -2.125,-2.004 1.296,-1.049 c 2.007,-1.625 6.339,-2.713 14.196,-3.564 3.958,-0.43 8.318,-1.145 9.688,-1.59 15.058,-4.89 24.448,-10.908 36.62,-23.471 5.956,-6.148 18.217,-21.355 19.125,-23.721 0.184,-0.479 1.18,-0.756 2.732,-0.756 2.855,0 2.85,-0.328 0.114,8.01 -6.177,18.829 -18.923,34.412 -37.136,45.399 -4.094,2.47 -4.869,2.707 -17.38,5.315 -14.075,2.935 -14.563,2.985 -18.745,1.952 z m -267.482,-11.669 c 0.534,-1.39 20.847,-29.589 25.366,-35.212 9.305,-11.578 22.896,-25.832 28.038,-29.402 3.825,-2.655 10.589,-4.839 17.198,-5.552 7.871,-0.849 72.58,-0.817 122.693,0.06 42.514,0.742 41.349,0.645 53.479,4.486 3.756,1.19 6.935,2.059 7.063,1.93 0.129,-0.128 -0.446,-1.124 -1.276,-2.213 -1.953,-2.561 -6.292,-5.409 -10.83,-7.109 -7.578,-2.84 -10.147,-3.016 -53.419,-3.656 -39.019,-0.575 -56.571,-0.99 -103.251,-2.436 l -21.867,-0.676 -3.247,-1.619 c -5.718,-2.852 -10.288,-7.88 -32.836,-36.127 -11.974,-15.002 -21.771,-27.408 -21.771,-27.572 0,-0.557 12.454,0.459 13.244,1.08 0.433,0.341 6.249,7.928 12.927,16.859 14.379,19.236 18.672,24.445 25.287,30.67 6.55,6.168 8.848,7.686 12.939,8.546 7.883,1.659 29.316,2.046 77.238,1.396 55.558,-0.753 74.18,-0.353 82.859,1.782 6.93,1.705 15.44,4.66 20.759,7.209 2.245,1.076 4.179,1.859 4.297,1.74 0.517,-0.516 -1.651,-3.605 -4.212,-6 -8.031,-7.512 -19.993,-12.192 -34.962,-13.68 -5.997,-0.596 -40.406,-0.87 -62.836,-0.502 -7.003,0.115 -20.954,0.204 -31.003,0.197 -16.412,-0.012 -18.963,-0.139 -25.09,-1.241 -8.115,-1.46 -17.189,-4.372 -22.529,-7.23 -3.201,-1.714 -4.079,-2.497 -5.092,-4.544 -2.912,-5.889 -3.219,-21.925 -0.662,-34.723 l 0.58,-2.906 4.391,0 c 2.414,0 4.429,0.062 4.477,0.139 0.049,0.076 0.246,6.242 0.438,13.703 0.383,14.847 0.567,15.77 3.916,19.583 2.441,2.78 3.979,3.482 9.153,4.177 10.961,1.475 19.357,1.715 59.291,1.705 24.643,-0.01 45,0.23 48.995,0.568 18.742,1.584 33.739,5.328 46.797,11.681 6.331,3.081 7.036,3.593 11.552,8.389 8.494,9.022 16.721,21.079 21.426,31.404 l 2.144,4.706 -0.2,-3.374 c -0.447,-7.523 -11.527,-25.864 -28.869,-47.79 -3.23,-4.085 -5.875,-7.621 -5.875,-7.857 0,-0.797 2.449,-2.154 3.886,-2.154 2.528,0 9.051,4.402 12.015,8.109 15.122,18.918 24.569,34.326 28.973,47.252 0.985,2.894 2.379,5.878 3.097,6.633 l 1.306,1.373 1.674,-1.676 1.675,-1.674 -1.432,-4.957 c -3.198,-11.07 -6.688,-17.916 -20.138,-39.51 -10.262,-16.475 -10.326,-16.658 -5.843,-16.658 1.94,0 3.123,0.508 6.437,2.763 2.234,1.52 4.456,3.077 4.939,3.46 1.415,1.124 12.504,19.926 16.351,27.725 1.943,3.941 4.427,10.061 5.52,13.599 2.895,9.378 2.903,9.388 6.054,6.622 2.018,-1.77 2.051,-1.866 1.729,-4.873 -0.752,-7.014 -4.782,-19.602 -9.561,-29.86 -1.334,-2.86 -2.424,-5.536 -2.424,-5.943 0,-0.407 0.721,-1.548 1.604,-2.534 1.543,-1.728 1.661,-1.764 3.182,-0.979 2.574,1.33 6.989,6.156 8.871,9.697 0.965,1.814 3.181,8.096 4.924,13.957 1.744,5.861 3.37,10.657 3.613,10.657 0.243,0 1.266,-1.034 2.273,-2.298 4.646,-5.833 6.33,-6.645 8.654,-4.172 1.502,1.6 1.527,3.691 0.096,7.854 -1.479,4.301 -1.422,5.492 0.303,6.278 0.776,0.353 1.773,0.643 2.215,0.643 1.088,0 1.012,1.438 -0.273,5.175 -3.803,11.051 -12.002,20.803 -24.943,29.662 -12.291,8.416 -28.24,13.676 -43.365,14.303 -7.503,0.312 -11.869,-0.559 -15.595,-3.11 -2.863,-1.96 -2.966,-3.681 -0.325,-5.46 2.884,-1.943 6.696,-2.852 14.654,-3.49 24.718,-1.984 43.422,-10.967 57,-27.371 2.131,-2.574 2.179,-2.701 0.643,-1.692 -16.861,11.062 -35.231,19.14 -49.15,21.608 -4.175,0.742 -7.275,0.896 -13.562,0.68 -8.637,-0.299 -13.793,-1.336 -19.761,-3.976 -3.3,-1.46 -3.722,-2.216 -3.479,-6.249 l 0.141,-2.344 -45.396,-0.279 c -24.969,-0.154 -51.242,-0.278 -58.385,-0.277 -16.52,0 -32.584,1.064 -46.25,3.059 -6.451,0.941 -7.581,1.781 -9.738,7.244 -1.453,3.68 -1.738,10.807 -0.842,21.078 0.557,6.395 -0.121,10.16 -2.079,11.532 -0.713,0.499 -2.481,0.807 -4.642,0.807 -4.146,0 -4.145,0 -5.064,-7.502 -1.348,-10.993 -0.517,-22.94 2.156,-30.972 1.071,-3.219 1.53,-3.844 4.272,-5.807 5.78,-4.141 15.438,-6.906 28.939,-8.289 3.309,-0.338 17.124,-0.582 32.11,-0.566 14.467,0.014 40.379,-0.137 57.584,-0.336 20.027,-0.23 36.838,-0.137 46.732,0.261 8.498,0.341 15.561,0.514 15.691,0.383 0.551,-0.552 -5.922,-3.661 -9.793,-4.705 -7.622,-2.056 -11.116,-2.273 -44.604,-2.788 -18.27,-0.28 -47.916,-0.803 -65.883,-1.16 -49.627,-0.986 -54.154,-0.971 -58.406,0.197 -7.515,2.064 -14.086,5.227 -19.654,9.457 -5.625,4.275 -12.11,11.559 -27.539,30.928 l -16.648,20.899 -5.785,0 c -4.887,0 -5.739,-0.13 -5.474,-0.823 z"
       inkscape:connector-curvature="0" /></g><g
     id="Text"
     transform="matrix(0.3461273,0,0,0.3461273,265.94179,-0.35314801)"><rect
       x="816.26898"
       y="2445.5349"
       width="2478.248"
       height="364.41"
       id="rect10"
       style="fill:none" /><text
       transform="translate(1596.103,2691.1162)"
       font-size="350"
       id="text12"
       style="font-size:350px;font-family:SanFranciscoDisplay-Regular">Pause</text>
</g><g
     id="Layer_1"
     transform="matrix(0.3461273,0,0,0.3461273,265.94179,-0.35314801)"><path
       stroke-miterlimit="10"
       d="m 2754.756,2207.928 c -40.838,-4.482 -68.486,-3.716 -93.988,0 -11.961,2.267 -7.902,20.598 -12.816,29.906 -56.306,-61.047 103.39,-82.367 106.804,-29.906 z"
       id="path15"
       inkscape:connector-curvature="0"
       style="fill:#999999;stroke:#000000;stroke-miterlimit:10" /><path
       stroke-miterlimit="10"
       d="m 2635.135,2139.574 c 12.646,7.475 -2.479,22.771 0,34.18 -8.846,-3.678 -4.485,-29.737 0,-34.18 z"
       id="path17"
       inkscape:connector-curvature="0"
       style="fill:#999999;stroke:#000000;stroke-miterlimit:10" /><path
       stroke-miterlimit="10"
       d="m 2767.572,2139.574 c -0.082,11.708 -20.162,10.168 -25.631,4.273 5.981,-10.55 14.739,-7.517 25.631,-4.273 z"
       id="path19"
       inkscape:connector-curvature="0"
       style="fill:#999999;stroke:#000000;stroke-miterlimit:10" /><path
       stroke-miterlimit="10"
       d="m 2622.319,2096.854 c 6.538,0.081 9.355,31.656 -4.273,25.632 -0.554,-10.509 -0.642,-20.593 4.273,-25.632 z"
       id="path21"
       inkscape:connector-curvature="0"
       style="fill:#999999;stroke:#000000;stroke-miterlimit:10" /><path
       stroke-miterlimit="10"
       d="m 2613.771,2045.586 c 11.963,6.834 -5.981,19.227 0,34.179 -8.843,-3.677 -4.482,-29.736 0,-34.179 z"
       id="path23"
       inkscape:connector-curvature="0"
       style="fill:#999999;stroke:#000000;stroke-miterlimit:10" /><path
       stroke-miterlimit="10"
       d="m 2823.109,2054.131 c -8.072,-1.881 -25.76,5.811 -21.358,-8.545 6.108,-6.539 22.257,-4.141 21.358,8.545 z"
       id="path25"
       inkscape:connector-curvature="0"
       style="fill:#999999;stroke:#000000;stroke-miterlimit:10" /><path
       stroke-miterlimit="10"
       d="m 2720.578,2041.312 c 12.223,-0.854 23.326,-0.512 21.363,12.818 -7.435,-3.929 -22.943,0.132 -21.363,-12.818 z"
       id="path27"
       inkscape:connector-curvature="0"
       style="fill:#999999;stroke:#000000;stroke-miterlimit:10" /><path
       stroke-miterlimit="10"
       d="m 2660.768,2045.586 c -3.629,15.254 -10.51,0.516 -25.633,4.271 0.082,-11.705 20.162,-10.166 25.633,-4.271 z"
       id="path29"
       inkscape:connector-curvature="0"
       style="fill:#999999;stroke:#000000;stroke-miterlimit:10" /><path
       stroke-miterlimit="10"
       d="m 2430.071,2186.57 c 28.494,-0.727 31.997,5.168 51.265,0 1.623,12.686 10.51,30.973 4.271,38.447 -25.717,0.77 -48.957,-1.322 -59.809,-4.27 0.512,-12.304 -2.351,-27.981 4.273,-34.177 z"
       id="path31"
       inkscape:connector-curvature="0"
       style="fill:#999999;stroke:#000000;stroke-miterlimit:10" /><path
       stroke-miterlimit="10"
       d="m 2340.354,2186.57 c 22.259,6.107 30.976,-1.666 55.539,4.271 -1.883,14.699 1.665,23.968 4.273,34.176 -22.514,-2.434 -53.957,3.676 -64.085,0 0.855,-13.369 -2.862,-31.356 4.273,-38.447 z"
       id="path33"
       inkscape:connector-curvature="0"
       style="fill:#999999;stroke:#000000;stroke-miterlimit:10" /><path
       stroke-miterlimit="10"
       d="m 2250.638,2186.57 c 18.497,0 37.039,0 55.539,0 4.442,9.867 8.716,32.767 4.272,38.447 -24.992,-3.072 -29.18,-1.15 -55.541,0 -7.131,-7.09 -3.414,-25.076 -4.27,-38.447 z"
       id="path35"
       inkscape:connector-curvature="0"
       style="fill:#999999;stroke:#000000;stroke-miterlimit:10" /><path
       stroke-miterlimit="10"
       d="m 2165.193,2186.57 c 18.499,0 37.039,0 55.541,0 2.605,10.207 6.151,19.478 4.268,34.178 -9.309,4.015 -38.318,-2.609 -59.809,0 0,-11.408 0,-22.773 0,-34.178 z"
       id="path37"
       inkscape:connector-curvature="0"
       style="fill:#999999;stroke:#000000;stroke-miterlimit:10" /><path
       stroke-miterlimit="10"
       d="m 1379.11,2178.023 c 28.112,2.781 34.006,1.713 59.811,4.271 3.032,15.854 -7.305,18.329 -4.273,34.18 -21.363,0 -42.721,0 -64.084,0 2.351,-13.286 3.504,-27.853 8.546,-38.451 z"
       id="path39"
       inkscape:connector-curvature="0"
       style="fill:#999999;stroke:#000000;stroke-miterlimit:10" /><path
       stroke-miterlimit="10"
       d="m 2271.998,2131.032 c 34.48,6.788 100.227,-17.606 102.533,21.358 -29.093,11.195 -71.518,-11.747 -98.262,8.547 -9.568,-1.837 -1.752,-21.062 -4.271,-29.905 z"
       id="path41"
       inkscape:connector-curvature="0"
       style="fill:#999999;stroke:#000000;stroke-miterlimit:10" /><path
       stroke-miterlimit="10"
       d="m 1947.312,2131.032 c 7.519,3.717 13.243,14.31 17.089,0 20.291,17.854 -22.6,8.457 -25.635,17.087 -15.037,-7.307 10.724,-8.584 8.546,-17.087 z"
       id="path43"
       inkscape:connector-curvature="0"
       style="fill:#999999;stroke:#000000;stroke-miterlimit:10" /><path
       stroke-miterlimit="10"
       d="m 1883.229,2135.303 c -3.887,15.509 -12.603,2.607 -25.632,4.271 3.886,-15.51 12.602,-2.606 25.632,-4.271 z"
       id="path45"
       inkscape:connector-curvature="0"
       style="fill:#999999;stroke:#000000;stroke-miterlimit:10" /><path
       stroke-miterlimit="10"
       d="m 1772.153,2131.032 c 12.217,-0.86 23.323,-0.517 21.359,12.815 -11.28,-0.13 -26.785,3.972 -21.359,-12.815 z"
       id="path47"
       inkscape:connector-curvature="0"
       style="fill:#999999;stroke:#000000;stroke-miterlimit:10" /><path
       stroke-miterlimit="10"
       d="m 2545.42,2135.303 c 0,7.135 0,14.227 0,21.361 -26.189,-4.656 -39.219,3.503 -59.812,-4.273 0,-7.134 0,-14.227 0,-21.358 23.882,-4.36 34.775,-4.145 59.812,4.27 z"
       id="path49"
       inkscape:connector-curvature="0"
       style="fill:#999999;stroke:#000000;stroke-miterlimit:10" /><path
       stroke-miterlimit="10"
       d="m 1515.821,2126.758 c 10.296,-1.754 9.269,7.818 21.36,4.274 1.24,11.105 -28.878,14.821 -21.36,-4.274 z"
       id="path51"
       inkscape:connector-curvature="0"
       style="fill:#999999;stroke:#000000;stroke-miterlimit:10" /><path
       stroke-miterlimit="10"
       d="m 1451.737,2131.032 c -6.45,6.062 -18.415,15.808 -25.632,8.542 2.348,-10.126 16.534,-17.73 25.632,-8.542 z"
       id="path53"
       inkscape:connector-curvature="0"
       style="fill:#999999;stroke:#000000;stroke-miterlimit:10" /><path
       stroke-miterlimit="10"
       d="m 1383.381,2122.486 c 7.518,10.166 -6.193,32.383 4.272,46.994 -10.808,-3.419 -10.893,-17.604 -17.089,-25.633 -29.733,1.58 -66.6,-3.93 -89.716,4.271 -3.459,-46.181 67.673,-17.77 102.533,-25.632 z"
       id="path55"
       inkscape:connector-curvature="0"
       style="fill:#999999;stroke:#000000;stroke-miterlimit:10" /><path
       stroke-miterlimit="10"
       d="m 1208.222,2122.486 c 10.042,1.369 16.021,6.75 29.905,4.271 5.596,18.116 -34.263,13.714 -29.905,-4.271 z"
       id="path57"
       inkscape:connector-curvature="0"
       style="fill:#999999;stroke:#000000;stroke-miterlimit:10" /><path
       stroke-miterlimit="10"
       d="m 2477.066,2079.765 c 26.869,1.621 65.49,-8.547 59.81,25.632 -19.952,2.822 -53.828,-8.244 -55.54,12.816 -9.697,-4.524 -1.623,-26.871 -4.27,-38.448 z"
       id="path59"
       inkscape:connector-curvature="0"
       style="fill:#999999;stroke:#000000;stroke-miterlimit:10" /><path
       stroke-miterlimit="10"
       d="m 1503.002,2084.038 c 6.538,13.114 -27.895,13.114 -21.36,0 2.606,-2.479 20.251,-9.999 21.36,0 z"
       id="path61"
       inkscape:connector-curvature="0"
       style="fill:#999999;stroke:#000000;stroke-miterlimit:10" /><path
       stroke-miterlimit="10"
       d="m 1417.559,2092.581 c -12.517,-3.847 -13.114,-3.847 -25.632,0 0.726,-12.347 27.47,-20.678 25.632,0 z"
       id="path63"
       inkscape:connector-curvature="0"
       style="fill:#999999;stroke:#000000;stroke-miterlimit:10" /><path
       stroke-miterlimit="10"
       d="m 1302.211,2079.765 c 14.226,0 28.495,0 42.721,0 -6.579,12.259 -40.242,23.153 -42.721,0 z"
       id="path65"
       inkscape:connector-curvature="0"
       style="fill:#999999;stroke:#000000;stroke-miterlimit:10" /><path
       stroke-miterlimit="10"
       d="m 2464.246,2037.041 c 25.635,0 51.268,0 76.9,0 -1.75,10.299 7.819,9.271 4.273,21.361 -27.942,1.965 -65.879,-6.064 -81.174,8.545 5.855,-13.5 0.941,-14.267 0,-29.906 z"
       id="path67"
       inkscape:connector-curvature="0"
       style="fill:#999999;stroke:#000000;stroke-miterlimit:10" /><path
       stroke-miterlimit="10"
       d="m 2348.898,2045.586 c -15.981,6.369 -46.652,7.648 -59.812,4.271 20.506,-7.775 48.66,-20.08 59.812,-4.271 z"
       id="path69"
       inkscape:connector-curvature="0"
       style="fill:#999999;stroke:#000000;stroke-miterlimit:10" /><path
       stroke-miterlimit="10"
       d="m 2225.002,2037.041 c 4.658,1.07 2.904,8.504 8.549,8.545 -1.028,6.196 -35.163,9.913 -29.906,-4.273 10.893,2.268 14.952,5.683 21.357,-4.272 z"
       id="path71"
       inkscape:connector-curvature="0"
       style="fill:#999999;stroke:#000000;stroke-miterlimit:10" /><path
       stroke-miterlimit="10"
       d="m 2152.377,2049.857 c -9.696,-3.119 -33.321,7.689 -29.905,-8.545 9.912,-3.12 31.911,-10.808 29.905,8.545 z"
       id="path73"
       inkscape:connector-curvature="0"
       style="fill:#999999;stroke:#000000;stroke-miterlimit:10" /><path
       stroke-miterlimit="10"
       d="m 2084.023,2045.586 c -8.717,9.784 -35.461,1.539 -51.268,4.271 14.953,-15.165 31.274,-12.515 51.268,-4.271 z"
       id="path75"
       inkscape:connector-curvature="0"
       style="fill:#999999;stroke:#000000;stroke-miterlimit:10" /><path
       stroke-miterlimit="10"
       d="m 1998.577,2049.857 c -15.679,0 -31.313,0 -46.991,0 19.266,-10.206 34.602,-15.293 46.991,0 z"
       id="path77"
       inkscape:connector-curvature="0"
       style="fill:#999999;stroke:#000000;stroke-miterlimit:10" /><path
       stroke-miterlimit="10"
       d="m 1908.861,2049.857 c -12.302,-0.51 -27.98,2.35 -34.176,-4.271 6.451,-4.141 29.136,-14.867 34.176,4.271 z"
       id="path79"
       inkscape:connector-curvature="0"
       style="fill:#999999;stroke:#000000;stroke-miterlimit:10" /><path
       stroke-miterlimit="10"
       d="m 1827.691,2045.586 c -1.027,6.196 -35.162,9.913 -29.906,-4.273 11.748,-11.832 17.86,3.849 29.906,4.273 z"
       id="path81"
       inkscape:connector-curvature="0"
       style="fill:#999999;stroke:#000000;stroke-miterlimit:10" /><path
       stroke-miterlimit="10"
       d="m 1631.17,2037.041 c 20.548,-6.278 17.815,10.641 34.178,8.545 -6.369,8.846 -36.955,5.894 -34.178,-8.545 z"
       id="path83"
       inkscape:connector-curvature="0"
       style="fill:#999999;stroke:#000000;stroke-miterlimit:10" /><path
       stroke-miterlimit="10"
       d="m 2442.887,2032.77 c 1.621,28.283 11.365,48.447 8.543,81.173 -46.994,0 -93.988,0 -140.98,0 2.053,-18.925 -5.897,-21.232 0,-34.178 32.768,0 65.491,0 98.26,0 11.065,-12.304 -1.923,-26.491 0,-42.724 6.194,-6.622 21.872,-3.758 34.177,-4.271 z"
       id="path85"
       inkscape:connector-curvature="0"
       style="fill:#999999;stroke:#000000;stroke-miterlimit:10" /><path
       stroke-miterlimit="10"
       d="m 1720.885,2032.77 c 13.159,-3.205 8.201,11.747 21.363,8.543 -3.632,6.369 -13.759,6.197 -21.363,8.545 -4.957,-6.325 -4.957,-10.763 0,-17.088 z"
       id="path87"
       inkscape:connector-curvature="0"
       style="fill:#999999;stroke:#000000;stroke-miterlimit:10" /><path
       stroke-miterlimit="10"
       d="m 1567.086,2032.77 c -0.811,3.459 -4.273,4.271 -4.273,8.543 7.562,0.986 21.403,-4.312 17.089,8.545 -14.353,-1.32 -37.038,5.682 -34.175,-12.816 4.955,-3.589 11.449,-5.644 21.359,-4.272 z"
       id="path89"
       inkscape:connector-curvature="0"
       style="fill:#999999;stroke:#000000;stroke-miterlimit:10" /><path
       stroke-miterlimit="10"
       d="m 1485.916,2032.77 c 4.358,2.777 4.399,9.826 12.816,8.543 -2.011,14.058 -40.843,12.095 -38.452,-4.271 9.741,-8.586 16.537,4.955 25.636,-4.272 z"
       id="path91"
       inkscape:connector-curvature="0"
       style="fill:#999999;stroke:#000000;stroke-miterlimit:10" /><path
       stroke-miterlimit="10"
       d="m 1409.016,2049.857 c -11.151,-1.663 -23.455,-2.176 -29.906,-8.545 5.597,-20.544 29.479,-9.308 29.906,8.545 z"
       id="path93"
       inkscape:connector-curvature="0"
       style="fill:#999999;stroke:#000000;stroke-miterlimit:10" /><path
       stroke-miterlimit="10"
       d="m 1263.759,1990.049 c 11.365,0.041 24.395,-1.625 29.906,4.273 1.367,11.319 -29.648,7.987 -29.906,-4.273 z"
       id="path95"
       inkscape:connector-curvature="0"
       style="fill:#999999;stroke:#000000;stroke-miterlimit:10" /><path
       stroke-miterlimit="10"
       d="m 2643.678,2002.865 c 13.804,-19.697 20.166,15.979 38.451,17.088 12.732,-16.104 65.746,-14.14 81.17,0 13.889,-23.113 35.804,-0.424 64.084,-12.816 39.219,49.088 43.789,132.781 72.627,192.248 -1.492,14.188 -24.605,6.709 -38.449,8.543 -2.305,22.259 8.201,31.658 8.544,51.269 -75.489,1.665 -176.952,-2.479 -226.427,0 -22.044,-77.666 -37.892,-161.489 -55.537,-243.517 16.834,-6.834 1.492,18.459 12.816,17.09 7.477,-3.93 9.441,-13.373 8.546,-25.633 8.071,7.561 28.192,3.119 42.72,4.27 3.631,0.771 4.019,-1.661 4.275,-4.27 -0.686,-4.998 -7.781,-3.588 -12.82,-4.272 z"
       id="path97"
       inkscape:connector-curvature="0"
       style="stroke:#000000;stroke-miterlimit:10" /><path
       stroke-miterlimit="10"
       d="m 1669.618,1985.775 c 14.271,3.849 4.486,10.297 -4.27,12.814 5.938,9.745 29.733,1.584 42.721,4.275 3.717,-8.758 -21.746,-8.543 -8.546,-12.816 20.168,-5.895 9.272,19.18 21.362,21.357 19.139,-5.466 64.895,-18.924 81.173,0 27.895,-3.756 65.234,-18.709 85.443,4.273 32.252,-14.354 60.194,-17.902 89.716,0 12.131,-20.718 68.055,-16.229 81.169,0 14.401,-14.568 65.75,-14.479 81.174,0 15.637,-15.848 65.107,-13.885 81.174,0 12.855,-18.326 61.559,-7.989 85.442,0 9.099,2.008 8.118,-6.107 8.541,-12.814 21.15,8.755 62.162,-2.351 72.632,17.088 8.16,-22.471 58.4,-14.783 81.17,-4.273 18.971,-13.412 65.877,-11.021 85.443,0 3.162,31.016 6.367,61.99 17.088,85.446 -1.023,7.516 -7.346,9.739 -17.088,8.544 1.752,29.564 10.598,52.078 12.818,81.172 -17.09,0 -34.179,0 -51.268,0 -8.845,3.674 -4.484,29.734 0,34.176 18.5,0 37.041,0 55.537,0 11.881,1.923 -3.332,-23.281 8.547,-21.359 18.752,3.928 19.947,43.791 17.09,55.538 -417.309,-9.099 -904.126,-2.306 -1324.382,-12.817 2.262,-11.961 6.28,-22.215 8.543,-34.178 12.775,8.588 40.289,2.438 59.811,4.273 8.289,-5.938 6.369,-22.128 12.816,-29.904 -7.305,-14.057 -35.97,-6.753 -55.538,-8.547 -8.927,3.889 -13.029,12.607 -12.816,25.635 -27.555,-9.486 -72.284,-1.794 -106.805,-4.273 0.77,-41.955 19.311,-66.134 25.632,-102.53 19.013,2.347 49.345,-6.62 55.541,8.542 7.091,-4.314 4.656,-18.156 8.543,-25.632 -7.604,-14.313 -18.669,-0.382 -38.448,-4.273 6.749,-31.7 14.695,-62.202 25.632,-89.716 24.181,-2.266 25.592,-0.767 51.268,0 -0.641,10.598 2.221,17.732 8.542,21.361 25.507,2.731 13.542,-32.041 46.995,-21.361 1.837,11.791 -15.937,4.018 -17.089,12.814 12.219,6.58 25.761,3.851 38.449,0 -1.153,-14.992 -15.933,10.725 -17.087,-4.268 7.56,-24.097 29.136,2.605 29.905,12.814 25.162,5.209 14.054,-25.806 38.449,-21.361 2.008,9.098 -6.111,8.119 -12.816,8.547 13.542,23.624 48.745,-13.545 51.265,17.084 18.456,-12.856 58.274,-4.398 81.173,-12.816 -0.384,6.069 -0.726,12.091 4.273,12.816 22.686,-11.875 71.216,-16.533 89.716,0 13.712,-1.963 14.696,-16.613 21.36,-25.631 z"
       id="path99"
       inkscape:connector-curvature="0"
       style="stroke:#000000;stroke-miterlimit:10" /></g><g
     id="Layer_3"
     transform="matrix(0.3461273,0,0,0.3461273,265.94179,-0.35314801)"><path
       stroke-miterlimit="10"
       d="m 2751.759,2205.678 c -40.839,-4.484 -68.483,-3.719 -93.989,0 -11.961,2.265 -7.9,20.596 -12.815,29.902 -56.305,-61.046 103.389,-82.365 106.804,-29.902 z"
       id="path102"
       inkscape:connector-curvature="0"
       style="fill:#999999;stroke:#000000;stroke-miterlimit:10" /><path
       stroke-miterlimit="10"
       d="m 2632.138,2137.324 c 12.647,7.473 -2.479,22.77 0,34.178 -8.844,-3.676 -4.485,-29.736 0,-34.178 z"
       id="path104"
       inkscape:connector-curvature="0"
       style="fill:#999999;stroke:#000000;stroke-miterlimit:10" /><path
       stroke-miterlimit="10"
       d="m 2764.575,2137.324 c -0.081,11.704 -20.161,10.166 -25.632,4.271 5.982,-10.55 14.739,-7.517 25.632,-4.271 z"
       id="path106"
       inkscape:connector-curvature="0"
       style="fill:#999999;stroke:#000000;stroke-miterlimit:10" /><path
       stroke-miterlimit="10"
       d="m 2619.322,2094.603 c 6.538,0.081 9.355,31.657 -4.275,25.632 -0.551,-10.511 -0.639,-20.594 4.275,-25.632 z"
       id="path108"
       inkscape:connector-curvature="0"
       style="fill:#999999;stroke:#000000;stroke-miterlimit:10" /><path
       stroke-miterlimit="10"
       d="m 2610.775,2043.334 c 11.961,6.834 -5.982,19.227 0,34.178 -8.844,-3.676 -4.483,-29.735 0,-34.178 z"
       id="path110"
       inkscape:connector-curvature="0"
       style="fill:#999999;stroke:#000000;stroke-miterlimit:10" /><path
       stroke-miterlimit="10"
       d="m 2820.113,2051.879 c -8.072,-1.882 -25.762,5.811 -21.359,-8.545 6.107,-6.539 22.257,-4.141 21.359,8.545 z"
       id="path112"
       inkscape:connector-curvature="0"
       style="fill:#999999;stroke:#000000;stroke-miterlimit:10" /><path
       stroke-miterlimit="10"
       d="m 2717.582,2039.061 c 12.221,-0.854 23.325,-0.512 21.361,12.818 -7.433,-3.93 -22.942,0.129 -21.361,-12.818 z"
       id="path114"
       inkscape:connector-curvature="0"
       style="fill:#999999;stroke:#000000;stroke-miterlimit:10" /><path
       stroke-miterlimit="10"
       d="m 2657.77,2043.334 c -3.629,15.254 -10.509,0.516 -25.632,4.273 0.081,-11.708 20.162,-10.168 25.632,-4.273 z"
       id="path116"
       inkscape:connector-curvature="0"
       style="fill:#999999;stroke:#000000;stroke-miterlimit:10" /><path
       stroke-miterlimit="10"
       d="m 2427.074,2184.318 c 28.494,-0.729 31.996,5.168 51.264,0 1.624,12.686 10.51,30.973 4.273,38.447 -25.717,0.771 -48.959,-1.323 -59.811,-4.271 0.512,-12.304 -2.349,-27.982 4.274,-34.176 z"
       id="path118"
       inkscape:connector-curvature="0"
       style="fill:#999999;stroke:#000000;stroke-miterlimit:10" /><path
       stroke-miterlimit="10"
       d="m 2337.357,2184.318 c 22.258,6.107 30.975,-1.666 55.537,4.273 -1.881,14.696 1.666,23.966 4.273,34.174 -22.512,-2.434 -53.957,3.676 -64.082,0 0.854,-13.369 -2.863,-31.357 4.272,-38.447 z"
       id="path120"
       inkscape:connector-curvature="0"
       style="fill:#999999;stroke:#000000;stroke-miterlimit:10" /><path
       stroke-miterlimit="10"
       d="m 2247.641,2184.318 c 18.498,0 37.039,0 55.539,0 4.441,9.866 8.717,32.766 4.272,38.447 -24.991,-3.072 -29.181,-1.15 -55.541,0 -7.132,-7.09 -3.415,-25.076 -4.27,-38.447 z"
       id="path122"
       inkscape:connector-curvature="0"
       style="fill:#999999;stroke:#000000;stroke-miterlimit:10" /><path
       stroke-miterlimit="10"
       d="m 2162.195,2184.318 c 18.5,0 37.041,0 55.541,0 2.607,10.207 6.151,19.476 4.27,34.176 -9.309,4.018 -38.318,-2.605 -59.811,0 0,-11.406 0,-22.771 0,-34.176 z"
       id="path124"
       inkscape:connector-curvature="0"
       style="fill:#999999;stroke:#000000;stroke-miterlimit:10" /><path
       stroke-miterlimit="10"
       d="m 1376.114,2175.771 c 28.111,2.781 34.005,1.713 59.81,4.271 3.033,15.854 -7.305,18.328 -4.273,34.18 -21.362,0 -42.721,0 -64.083,0 2.35,-13.288 3.503,-27.853 8.546,-38.451 z"
       id="path126"
       inkscape:connector-curvature="0"
       style="fill:#999999;stroke:#000000;stroke-miterlimit:10" /><path
       stroke-miterlimit="10"
       d="m 2269.001,2128.78 c 34.479,6.79 100.226,-17.604 102.532,21.36 -29.092,11.193 -71.518,-11.751 -98.26,8.545 -9.57,-1.837 -1.752,-21.06 -4.272,-29.905 z"
       id="path128"
       inkscape:connector-curvature="0"
       style="fill:#999999;stroke:#000000;stroke-miterlimit:10" /><path
       stroke-miterlimit="10"
       d="m 1944.314,2128.78 c 7.52,3.717 13.245,14.308 17.089,0 20.292,17.856 -22.6,8.457 -25.634,17.087 -15.038,-7.306 10.724,-8.586 8.545,-17.087 z"
       id="path130"
       inkscape:connector-curvature="0"
       style="fill:#999999;stroke:#000000;stroke-miterlimit:10" /><path
       stroke-miterlimit="10"
       d="m 1880.231,2133.051 c -3.887,15.507 -12.603,2.607 -25.632,4.273 3.887,-15.51 12.603,-2.609 25.632,-4.273 z"
       id="path132"
       inkscape:connector-curvature="0"
       style="fill:#999999;stroke:#000000;stroke-miterlimit:10" /><path
       stroke-miterlimit="10"
       d="m 1769.156,2128.78 c 12.216,-0.858 23.323,-0.517 21.359,12.815 -11.279,-0.13 -26.785,3.972 -21.359,-12.815 z"
       id="path134"
       inkscape:connector-curvature="0"
       style="fill:#999999;stroke:#000000;stroke-miterlimit:10" /><path
       stroke-miterlimit="10"
       d="m 2542.422,2133.051 c 0,7.135 0,14.226 0,21.361 -26.189,-4.656 -39.219,3.503 -59.811,-4.271 0,-7.138 0,-14.229 0,-21.36 23.882,-4.36 34.776,-4.147 59.811,4.27 z"
       id="path136"
       inkscape:connector-curvature="0"
       style="fill:#999999;stroke:#000000;stroke-miterlimit:10" /><path
       stroke-miterlimit="10"
       d="m 1512.825,2124.507 c 10.296,-1.753 9.269,7.817 21.359,4.273 1.24,11.105 -28.879,14.821 -21.359,-4.273 z"
       id="path138"
       inkscape:connector-curvature="0"
       style="fill:#999999;stroke:#000000;stroke-miterlimit:10" /><path
       stroke-miterlimit="10"
       d="m 1448.741,2128.78 c -6.451,6.063 -18.415,15.808 -25.632,8.544 2.347,-10.128 16.533,-17.732 25.632,-8.544 z"
       id="path140"
       inkscape:connector-curvature="0"
       style="fill:#999999;stroke:#000000;stroke-miterlimit:10" /><path
       stroke-miterlimit="10"
       d="m 1380.384,2120.234 c 7.519,10.167 -6.193,32.383 4.273,46.994 -10.809,-3.419 -10.893,-17.602 -17.089,-25.633 -29.732,1.58 -66.601,-3.93 -89.716,4.271 -3.459,-46.179 67.671,-17.771 102.532,-25.632 z"
       id="path142"
       inkscape:connector-curvature="0"
       style="fill:#999999;stroke:#000000;stroke-miterlimit:10" /><path
       stroke-miterlimit="10"
       d="m 1205.225,2120.234 c 10.042,1.369 16.021,6.752 29.905,4.272 5.597,18.113 -34.263,13.713 -29.905,-4.272 z"
       id="path144"
       inkscape:connector-curvature="0"
       style="fill:#999999;stroke:#000000;stroke-miterlimit:10" /><path
       stroke-miterlimit="10"
       d="m 2474.067,2077.512 c 26.87,1.622 65.493,-8.546 59.812,25.632 -19.951,2.821 -53.828,-8.243 -55.541,12.817 -9.696,-4.525 -1.621,-26.871 -4.271,-38.449 z"
       id="path146"
       inkscape:connector-curvature="0"
       style="fill:#999999;stroke:#000000;stroke-miterlimit:10" /><path
       stroke-miterlimit="10"
       d="m 1500.005,2081.785 c 6.539,13.115 -27.894,13.115 -21.359,0 2.605,-2.478 20.25,-9.998 21.359,0 z"
       id="path148"
       inkscape:connector-curvature="0"
       style="fill:#999999;stroke:#000000;stroke-miterlimit:10" /><path
       stroke-miterlimit="10"
       d="m 1414.562,2090.327 c -12.517,-3.845 -13.115,-3.845 -25.632,0 0.726,-12.345 27.47,-20.676 25.632,0 z"
       id="path150"
       inkscape:connector-curvature="0"
       style="fill:#999999;stroke:#000000;stroke-miterlimit:10" /><path
       stroke-miterlimit="10"
       d="m 1299.214,2077.512 c 14.227,0 28.494,0 42.721,0 -6.579,12.259 -40.242,23.154 -42.721,0 z"
       id="path152"
       inkscape:connector-curvature="0"
       style="fill:#999999;stroke:#000000;stroke-miterlimit:10" /><path
       stroke-miterlimit="10"
       d="m 2461.249,2034.791 c 25.635,0 51.267,0 76.899,0 -1.75,10.295 7.82,9.27 4.273,21.359 -27.941,1.967 -65.879,-6.064 -81.173,8.545 5.854,-13.5 0.94,-14.267 10e-4,-29.904 z"
       id="path154"
       inkscape:connector-curvature="0"
       style="fill:#999999;stroke:#000000;stroke-miterlimit:10" /><path
       stroke-miterlimit="10"
       d="m 2345.9,2043.334 c -15.98,6.369 -46.652,7.648 -59.811,4.273 20.505,-7.776 48.662,-20.08 59.811,-4.273 z"
       id="path156"
       inkscape:connector-curvature="0"
       style="fill:#999999;stroke:#000000;stroke-miterlimit:10" /><path
       stroke-miterlimit="10"
       d="m 2222.006,2034.791 c 4.657,1.068 2.904,8.501 8.547,8.543 -1.027,6.196 -35.162,9.912 -29.905,-4.273 10.893,2.268 14.953,5.683 21.358,-4.27 z"
       id="path158"
       inkscape:connector-curvature="0"
       style="fill:#999999;stroke:#000000;stroke-miterlimit:10" /><path
       stroke-miterlimit="10"
       d="m 2149.38,2047.607 c -9.696,-3.121 -33.321,7.688 -29.905,-8.547 9.912,-3.121 31.913,-10.806 29.905,8.547 z"
       id="path160"
       inkscape:connector-curvature="0"
       style="fill:#999999;stroke:#000000;stroke-miterlimit:10" /><path
       stroke-miterlimit="10"
       d="m 2081.026,2043.334 c -8.716,9.784 -35.461,1.539 -51.268,4.273 14.953,-15.167 31.275,-12.518 51.268,-4.273 z"
       id="path162"
       inkscape:connector-curvature="0"
       style="fill:#999999;stroke:#000000;stroke-miterlimit:10" /><path
       stroke-miterlimit="10"
       d="m 1995.58,2047.607 c -15.679,0 -31.313,0 -46.992,0 19.267,-10.21 34.603,-15.295 46.992,0 z"
       id="path164"
       inkscape:connector-curvature="0"
       style="fill:#999999;stroke:#000000;stroke-miterlimit:10" /><path
       stroke-miterlimit="10"
       d="m 1905.864,2047.607 c -12.301,-0.513 -27.979,2.346 -34.176,-4.273 6.451,-4.141 29.136,-14.867 34.176,4.273 z"
       id="path166"
       inkscape:connector-curvature="0"
       style="fill:#999999;stroke:#000000;stroke-miterlimit:10" /><path
       stroke-miterlimit="10"
       d="m 1824.694,2043.334 c -1.027,6.196 -35.162,9.912 -29.905,-4.273 11.747,-11.83 17.858,3.849 29.905,4.273 z"
       id="path168"
       inkscape:connector-curvature="0"
       style="fill:#999999;stroke:#000000;stroke-miterlimit:10" /><path
       stroke-miterlimit="10"
       d="m 1628.173,2034.791 c 20.548,-6.282 17.815,10.639 34.178,8.543 -6.368,8.844 -36.955,5.895 -34.178,-8.543 z"
       id="path170"
       inkscape:connector-curvature="0"
       style="fill:#999999;stroke:#000000;stroke-miterlimit:10" /><path
       stroke-miterlimit="10"
       d="m 2439.891,2030.518 c 1.62,28.283 11.363,48.445 8.542,81.175 -46.993,0 -93.988,0 -140.98,0 2.052,-18.927 -5.897,-21.236 0,-34.181 32.769,0 65.491,0 98.259,0 11.065,-12.305 -1.922,-26.488 0,-42.721 6.195,-6.624 21.874,-3.762 34.179,-4.273 z"
       id="path172"
       inkscape:connector-curvature="0"
       style="fill:#999999;stroke:#000000;stroke-miterlimit:10" /><path
       stroke-miterlimit="10"
       d="m 1717.889,2030.518 c 13.159,-3.205 8.201,11.747 21.362,8.543 -3.632,6.369 -13.759,6.195 -21.362,8.547 -4.958,-6.327 -4.958,-10.766 0,-17.09 z"
       id="path174"
       inkscape:connector-curvature="0"
       style="fill:#999999;stroke:#000000;stroke-miterlimit:10" /><path
       stroke-miterlimit="10"
       d="m 1564.088,2030.518 c -0.811,3.459 -4.272,4.273 -4.272,8.543 7.562,0.985 21.403,-4.311 17.089,8.547 -14.354,-1.323 -37.038,5.68 -34.176,-12.816 4.956,-3.591 11.45,-5.646 21.359,-4.274 z"
       id="path176"
       inkscape:connector-curvature="0"
       style="fill:#999999;stroke:#000000;stroke-miterlimit:10" /><path
       stroke-miterlimit="10"
       d="m 1482.919,2030.518 c 4.358,2.777 4.399,9.826 12.816,8.543 -2.011,14.058 -40.843,12.093 -38.452,-4.27 9.741,-8.587 16.537,4.953 25.636,-4.273 z"
       id="path178"
       inkscape:connector-curvature="0"
       style="fill:#999999;stroke:#000000;stroke-miterlimit:10" /><path
       stroke-miterlimit="10"
       d="m 1406.019,2047.607 c -11.15,-1.666 -23.455,-2.178 -29.905,-8.547 5.596,-20.544 29.478,-9.31 29.905,8.547 z"
       id="path180"
       inkscape:connector-curvature="0"
       style="fill:#999999;stroke:#000000;stroke-miterlimit:10" /><path
       stroke-miterlimit="10"
       d="m 1260.763,1987.797 c 11.364,0.041 24.394,-1.625 29.905,4.273 1.367,11.319 -29.648,7.987 -29.905,-4.273 z"
       id="path182"
       inkscape:connector-curvature="0"
       style="fill:#999999;stroke:#000000;stroke-miterlimit:10" /><path
       stroke-miterlimit="10"
       d="m 2640.68,2000.613 c 13.805,-19.698 20.166,15.979 38.451,17.088 12.733,-16.106 65.748,-14.139 81.172,0 13.887,-23.111 35.803,-0.424 64.083,-12.814 39.219,49.086 43.791,132.779 72.628,192.246 -1.494,14.188 -24.605,6.709 -38.448,8.545 -2.307,22.257 8.199,31.656 8.542,51.268 -75.49,1.664 -176.951,-2.479 -226.428,0 -22.043,-77.667 -37.891,-161.488 -55.535,-243.518 16.834,-6.834 1.491,18.459 12.814,17.09 7.479,-3.93 9.441,-13.373 8.547,-25.631 8.071,7.559 28.191,3.119 42.722,4.27 3.629,0.769 4.019,-1.664 4.271,-4.27 -0.684,-5.002 -7.777,-3.59 -12.819,-4.274 z"
       id="path184"
       inkscape:connector-curvature="0"
       style="stroke:#000000;stroke-miterlimit:10" /><path
       stroke-miterlimit="10"
       d="m 1287.122,733.395 c 0,0 1205.823,-65.455 1552.269,13.394 l -239.994,208.352 c -212.848,-71.682 -871.655,-89.894 -1064.124,3.29 L 1287.122,733.395 Z"
       id="path186"
       inkscape:connector-curvature="0"
       style="fill:#cccccc;stroke:#cccccc;stroke-miterlimit:10" /><path
       stroke-miterlimit="10"
       d="m 1287.024,732.926 c 0,0 1198.924,-62.37 1552.367,13.863 92.401,221.764 161.702,711.499 144.767,1183.527 49.278,93.938 96.237,386.346 95.479,389.627 -13.862,60.062 -1651.517,20.284 -2042.101,0 -3.368,-33.789 13.864,-203.285 78.542,-397.33 9.241,-462.013 92.982,-1111.718 170.946,-1189.687 z"
       id="path188"
       inkscape:connector-curvature="0"
       style="fill:none;stroke:#000000;stroke-width:4;stroke-miterlimit:10" /><path
       stroke-miterlimit="10"
       d="m 1535.273,958.431 c 190.678,-89.288 853.256,-71.976 1064.124,-3.29 20.186,194.609 6.266,548.042 -23.297,757.963 -22.436,73.266 -933.28,51.773 -1018.393,10.027 -38.136,-178.584 -40.381,-576.959 -22.434,-764.7 z"
       id="path190"
       inkscape:connector-curvature="0"
       style="fill:none;stroke:#000000;stroke-width:4;stroke-miterlimit:10" /></g><g
     id="break"><g
       id="g4238"><path
         inkscape:connector-curvature="0"
         id="path193"
         d="m 959.50648,550.30631 c 0,7.53623 -5.92154,13.45778 -13.45881,13.45778 l -32.83848,0 c -7.53693,0 -13.45882,-5.9212 -13.45882,-13.45778 l 0,-183.03696 c 0,-7.53658 5.92189,-13.45847 13.45882,-13.45847 l 32.83848,0 c 7.53727,0 13.45881,5.92155 13.45881,13.45847 l 0,183.03696 z" /><path
         inkscape:connector-curvature="0"
         id="path195"
         d="m 1062.7313,548.30985 c 0,7.53692 -5.9219,13.45847 -13.4591,13.45847 l -32.8385,0 c -7.5366,0 -13.4595,-5.9212 -13.4595,-13.45847 l 0,-183.03696 c 0,-7.53658 5.9226,-13.45812 13.4595,-13.45812 l 32.8385,0 c 7.5369,0 13.4591,5.92154 13.4591,13.45812 l 0,183.03696 z" /></g></g><g
     id="Play"
     display="none"
     style="display:none"
     transform="translate(0,-2032)"><path
       display="inline"
       d="m 2262.618,1341.368 -365.053,211.006 c -18.122,10.355 -41.424,-2.59 -41.424,-24.596 l 0,-422.012 c 0,-20.712 23.302,-34.951 41.424,-24.595 l 365.053,211.005 c 19.419,11.652 19.419,37.541 0,49.192 z"
       id="path198"
       inkscape:connector-curvature="0"
       style="display:inline" /></g></svg>
