<?xml version="1.0" encoding="UTF-8" standalone="no"?>
<!-- Created with Inkscape (http://www.inkscape.org/) -->

<svg
   xmlns:dc="http://purl.org/dc/elements/1.1/"
   xmlns:cc="http://creativecommons.org/ns#"
   xmlns:rdf="http://www.w3.org/1999/02/22-rdf-syntax-ns#"
   xmlns:svg="http://www.w3.org/2000/svg"
   xmlns="http://www.w3.org/2000/svg"
   xmlns:xlink="http://www.w3.org/1999/xlink"
   xmlns:sodipodi="http://sodipodi.sourceforge.net/DTD/sodipodi-0.dtd"
   xmlns:inkscape="http://www.inkscape.org/namespaces/inkscape"
   width="1024"
   height="576"
   id="svg2"
   version="1.1"
   inkscape:version="0.48.4 r9939"
   sodipodi:docname="abspann.svg">
  <defs
     id="defs4">
    <linearGradient
       id="linearGradient3807">
      <stop
         style="stop-color:#ffffff;stop-opacity:0;"
         offset="0"
         id="stop3809" />
      <stop
         id="stop3815"
         offset="0.2"
         style="stop-color:#ffffff;stop-opacity:0.78431374;" />
      <stop
         style="stop-color:#ffffff;stop-opacity:0.78431374;"
         offset="1"
         id="stop3811" />
    </linearGradient>
    <linearGradient
       inkscape:collect="always"
       xlink:href="#linearGradient3807"
       id="linearGradient3813"
       x1="650"
       y1="595.07648"
       x2="1230"
       y2="595.07648"
       gradientUnits="userSpaceOnUse"
       gradientTransform="matrix(1,0,0,0.99744172,-74.949237,-22.857439)" />
    <linearGradient
       inkscape:collect="always"
       xlink:href="#linearGradient3807"
       id="linearGradient3819"
       x1="575.05078"
       y1="570.69666"
       x2="1155.0508"
       y2="570.69666"
       gradientUnits="userSpaceOnUse"
       spreadMethod="reflect" />
    <linearGradient
       inkscape:collect="always"
       xlink:href="#linearGradient3807-2"
       id="linearGradient3819-8"
       x1="575.05078"
       y1="570.69666"
       x2="1155.0508"
       y2="570.69666"
       gradientUnits="userSpaceOnUse"
       spreadMethod="reflect" />
    <linearGradient
       id="linearGradient3807-2">
      <stop
         style="stop-color:#ffffff;stop-opacity:0;"
         offset="0"
         id="stop3809-5" />
      <stop
         id="stop3815-1"
         offset="0.2"
         style="stop-color:#ffffff;stop-opacity:1;" />
      <stop
         style="stop-color:#ffffff;stop-opacity:1;"
         offset="1"
         id="stop3811-1" />
    </linearGradient>
    <linearGradient
       gradientTransform="matrix(2.3933139,0,0,1,-1291.5105,359.35582)"
       y2="570.69666"
       x2="1155.0508"
       y1="570.69666"
       x1="575.05078"
       spreadMethod="reflect"
       gradientUnits="userSpaceOnUse"
       id="linearGradient4017-1"
       xlink:href="#linearGradient3807-2-2"
       inkscape:collect="always" />
    <linearGradient
       id="linearGradient3807-2-2">
      <stop
         style="stop-color:#ffffff;stop-opacity:0;"
         offset="0"
         id="stop3809-5-5" />
      <stop
         id="stop3815-1-7"
         offset="0.2"
         style="stop-color:#ffffff;stop-opacity:1;" />
      <stop
         style="stop-color:#ffffff;stop-opacity:1;"
         offset="1"
         id="stop3811-1-0" />
    </linearGradient>
    <linearGradient
       y2="570.69666"
       x2="1155.0508"
       y1="570.69666"
       x1="575.05078"
       spreadMethod="reflect"
       gradientTransform="matrix(2.3933139,0,0,1,-842.013,2.87365)"
       gradientUnits="userSpaceOnUse"
       id="linearGradient4510"
       xlink:href="#linearGradient3807-2-2"
       inkscape:collect="always" />
    <filter
       id="filter4858"
       style="color-interpolation-filters:sRGB;"
       inkscape:label="Drop Shadow"
       width="1.2">
      <feFlood
         id="feFlood4860"
         flood-opacity="0.29666666666666669"
         flood-color="rgb(255,255,255)"
         result="flood" />
      <feComposite
         id="feComposite4862"
         in2="SourceGraphic"
         in="flood"
         operator="in"
         result="composite1" />
      <feGaussianBlur
         id="feGaussianBlur4864"
         in="composite"
         stdDeviation="2"
         result="blur" />
      <feOffset
         id="feOffset4866"
         dx="2"
         dy="2.2000000000000002"
         result="offset" />
      <feComposite
         id="feComposite4868"
         in2="offset"
         in="SourceGraphic"
         operator="over"
         result="composite2"
         dy="0" />
    </filter>
  </defs>
  <sodipodi:namedview
     id="base"
     pagecolor="#ffffff"
     bordercolor="#666666"
     borderopacity="1.0"
     inkscape:pageopacity="0.0"
     inkscape:pageshadow="2"
     inkscape:zoom="1.979899"
     inkscape:cx="1055.992"
     inkscape:cy="55.460883"
     inkscape:document-units="px"
     inkscape:current-layer="layer1"
     showgrid="false"
     inkscape:window-width="1920"
     inkscape:window-height="993"
     inkscape:window-x="0"
     inkscape:window-y="27"
     inkscape:window-maximized="1"
     showguides="true"
     inkscape:guide-bbox="true"
     inkscape:snap-global="true"
     inkscape:snap-bbox="true"
     inkscape:bbox-paths="true"
     inkscape:bbox-nodes="true"
     inkscape:snap-bbox-edge-midpoints="true"
     inkscape:snap-bbox-midpoints="true"
     inkscape:object-paths="false"
     inkscape:snap-to-guides="true">
    <sodipodi:guide
       orientation="0,1"
       position="0,0"
       id="guide3017" />
    <sodipodi:guide
       orientation="0,1"
       position="0,576"
       id="guide3019" />
    <sodipodi:guide
       orientation="1,0"
       position="0,0"
       id="guide3021" />
    <sodipodi:guide
       orientation="1,0"
       position="1024,0"
       id="guide3023" />
    <sodipodi:guide
       orientation="0,1"
       position="0,25"
       id="guide3025" />
    <sodipodi:guide
       orientation="0,1"
       position="0,547"
       id="guide3027" />
    <sodipodi:guide
       orientation="1,0"
       position="32,0"
       id="guide3029" />
    <sodipodi:guide
       orientation="1,0"
       position="994,0"
       id="guide3031" />
  </sodipodi:namedview>
  <metadata
     id="metadata7">
    <rdf:RDF>
      <cc:Work
         rdf:about="">
        <dc:format>image/svg+xml</dc:format>
        <dc:type
           rdf:resource="http://purl.org/dc/dcmitype/StillImage" />
        <dc:title />
      </cc:Work>
    </rdf:RDF>
  </metadata>
  <g
     inkscape:label="Ebene 1"
     inkscape:groupmode="layer"
     id="layer1"
     transform="translate(0,-476.36218)">
    <rect
       style="opacity:1;fill:#000000;fill-opacity:1;fill-rule:nonzero;stroke:none"
       id="rect3797"
       width="1024"
       height="576"
       x="0"
       y="0"
       transform="translate(0,476.36218)" />
    <image
       sodipodi:absref="/home/peter/AAA-VOC/mazdermind-c3voc-toolz/vor-abspann/cre200/artwork/chaosradio-logo-transparent-300.png"
       xlink:href="chaosradio-logo-transparent-300.png"
       width="455.21515"
       height="176.01654"
       id="logo"
       x="284.3924"
       y="676.35394" />
    <g
       id="lizenz-cc0"
       transform="matrix(1.7461354,0,0,1.7461354,841.21315,1093.232)"
       inkscape:label="#lizenz-cc0">
      <path
         id="path3083"
         d="M 1.803,0.482 84.93,0.631 c 1.161,0 2.198,-0.173 2.198,2.333 L 87.025,30.52 H -0.295 V 2.862 c 0,-1.236 0.118,-2.38 2.098,-2.38 z"
         inkscape:connector-curvature="0"
         style="fill:#ffffff" />
      <g
         id="g3085">
        <ellipse
           id="ellipse3087"
           ry="11.174"
           rx="11.101"
           cy="15.502"
           cx="13.887"
           sodipodi:cx="13.887"
           sodipodi:cy="15.502"
           sodipodi:rx="11.101"
           sodipodi:ry="11.174"
           style="fill:#ffffff"
           d="m 24.988,15.502 c 0,6.17123 -4.970087,11.174 -11.101,11.174 -6.1309128,0 -11.1009997,-5.00277 -11.1009997,-11.174 0,-6.1712298 4.9700869,-11.1739999 11.1009997,-11.1739999 6.130913,0 11.101,5.0027701 11.101,11.1739999 z" />
      </g>
      <path
         id="path3089"
         d="m 23.271,4.061 c 3.484,2.592 5.754,6.744 5.755,11.44 -0.001,4.272 -1.88,8.095 -4.842,10.705 H 87.037 V 4.061 H 23.271 z"
         inkscape:connector-curvature="0" />
      <g
         id="g3091">
        <path
           id="path3093"
           d="m 35.739,7.559 c 0.392,0 0.728,0.059 1.002,0.173 0.276,0.116 0.5,0.268 0.674,0.456 0.173,0.189 0.299,0.405 0.379,0.647 0.079,0.242 0.118,0.494 0.118,0.753 0,0.253 -0.039,0.503 -0.118,0.749 -0.08,0.244 -0.206,0.462 -0.379,0.65 -0.174,0.189 -0.397,0.341 -0.674,0.456 -0.274,0.114 -0.61,0.173 -1.002,0.173 h -1.452 v 2.267 H 32.905 V 7.559 h 2.834 z m -0.379,2.976 c 0.158,0 0.312,-0.012 0.457,-0.035 0.147,-0.023 0.276,-0.069 0.388,-0.137 0.112,-0.068 0.201,-0.164 0.269,-0.288 0.068,-0.124 0.101,-0.287 0.101,-0.487 0,-0.2 -0.033,-0.362 -0.101,-0.487 C 36.407,8.977 36.317,8.88 36.205,8.814 36.094,8.746 35.965,8.7 35.817,8.676 35.671,8.652 35.518,8.64 35.36,8.64 h -1.073 v 1.896 l 1.073,-10e-4 0,0 z"
           inkscape:connector-curvature="0"
           style="fill:#ffffff" />
        <path
           id="path3095"
           d="m 43.751,13.4 c -0.476,0.417 -1.133,0.625 -1.972,0.625 -0.851,0 -1.509,-0.207 -1.976,-0.62 -0.466,-0.412 -0.699,-1.052 -0.699,-1.913 V 7.559 h 1.381 v 3.934 c 0,0.171 0.016,0.338 0.045,0.505 0.029,0.165 0.091,0.311 0.185,0.439 0.094,0.126 0.225,0.229 0.392,0.309 0.167,0.081 0.392,0.12 0.673,0.12 0.493,0 0.833,-0.11 1.021,-0.332 0.188,-0.222 0.282,-0.568 0.282,-1.04 V 7.559 h 1.382 v 3.934 c -0.001,0.855 -0.238,1.49 -0.714,1.907 z"
           inkscape:connector-curvature="0"
           style="fill:#ffffff" />
        <path
           id="path3097"
           d="m 49.07,7.559 c 0.3,0 0.572,0.027 0.818,0.081 0.244,0.054 0.457,0.14 0.633,0.261 0.177,0.121 0.312,0.282 0.41,0.482 0.096,0.201 0.146,0.45 0.146,0.745 0,0.318 -0.072,0.584 -0.216,0.796 -0.146,0.212 -0.357,0.388 -0.639,0.523 0.387,0.112 0.676,0.31 0.865,0.589 0.189,0.281 0.286,0.62 0.286,1.015 0,0.319 -0.062,0.595 -0.187,0.828 -0.123,0.232 -0.289,0.423 -0.496,0.571 -0.209,0.148 -0.445,0.257 -0.713,0.327 -0.269,0.07 -0.541,0.105 -0.822,0.105 H 46.108 V 7.559 h 2.962 z m -0.175,2.56 c 0.246,0 0.448,-0.059 0.607,-0.178 C 49.66,9.823 49.738,9.632 49.738,9.365 49.738,9.218 49.713,9.096 49.66,9.002 49.607,8.909 49.537,8.834 49.449,8.781 49.359,8.728 49.26,8.69 49.144,8.672 49.029,8.65 48.912,8.64 48.789,8.64 h -1.294 v 1.48 l 1.4,-10e-4 0,0 0,0 z m 0.08,2.685 c 0.135,0 0.264,-0.014 0.387,-0.04 0.123,-0.026 0.23,-0.072 0.326,-0.133 0.092,-0.062 0.168,-0.147 0.226,-0.254 0.056,-0.104 0.083,-0.241 0.083,-0.406 0,-0.324 -0.092,-0.557 -0.271,-0.695 -0.182,-0.138 -0.424,-0.208 -0.723,-0.208 h -1.505 v 1.738 h 1.479 v -0.002 h -0.002 z"
           inkscape:connector-curvature="0"
           style="fill:#ffffff" />
        <path
           id="path3099"
           d="m 54.143,7.559 v 5.156 h 3.062 v 1.168 H 52.76 V 7.559 h 1.383 z"
           inkscape:connector-curvature="0"
           style="fill:#ffffff" />
        <path
           id="path3101"
           d="m 59.748,7.559 v 6.324 H 58.366 V 7.559 h 1.382 z"
           inkscape:connector-curvature="0"
           style="fill:#ffffff" />
        <path
           id="path3103"
           d="M 65.451,9.247 C 65.369,9.115 65.265,8.998 65.142,8.898 65.019,8.796 64.879,8.718 64.724,8.662 64.568,8.605 64.408,8.578 64.236,8.578 c -0.312,0 -0.574,0.062 -0.793,0.183 -0.217,0.12 -0.394,0.283 -0.525,0.486 -0.136,0.204 -0.232,0.436 -0.296,0.695 -0.062,0.259 -0.093,0.528 -0.093,0.806 0,0.267 0.031,0.524 0.093,0.776 0.062,0.251 0.16,0.477 0.296,0.678 0.134,0.201 0.312,0.361 0.525,0.483 0.219,0.12 0.481,0.181 0.793,0.181 0.424,0 0.752,-0.13 0.99,-0.389 0.236,-0.26 0.383,-0.602 0.437,-1.028 H 67 c -0.034,0.396 -0.126,0.753 -0.271,1.072 -0.146,0.318 -0.342,0.591 -0.582,0.815 -0.238,0.225 -0.521,0.396 -0.845,0.513 -0.323,0.119 -0.678,0.178 -1.065,0.178 -0.479,0 -0.914,-0.084 -1.297,-0.252 -0.385,-0.169 -0.709,-0.398 -0.973,-0.695 -0.265,-0.295 -0.468,-0.642 -0.607,-1.04 -0.142,-0.399 -0.211,-0.829 -0.211,-1.289 0,-0.473 0.069,-0.911 0.211,-1.316 0.141,-0.404 0.344,-0.758 0.607,-1.059 0.264,-0.302 0.588,-0.536 0.973,-0.708 0.384,-0.172 0.815,-0.258 1.297,-0.258 0.348,0 0.676,0.051 0.981,0.15 0.308,0.102 0.583,0.248 0.827,0.44 0.243,0.191 0.443,0.43 0.604,0.712 0.158,0.283 0.259,0.608 0.301,0.975 H 65.61 C 65.586,9.524 65.533,9.377 65.451,9.247 z"
           inkscape:connector-curvature="0"
           style="fill:#ffffff" />
        <path
           id="path3105"
           d="m 35.615,16.418 c 0.405,0 0.782,0.062 1.131,0.192 0.35,0.13 0.651,0.324 0.906,0.585 0.255,0.26 0.455,0.586 0.599,0.975 0.144,0.391 0.216,0.849 0.216,1.371 0,0.463 -0.059,0.888 -0.176,1.277 -0.118,0.391 -0.295,0.727 -0.532,1.012 -0.238,0.281 -0.534,0.504 -0.89,0.668 -0.354,0.16 -0.772,0.242 -1.254,0.242 h -2.71 v -6.322 h 2.71 z m -0.096,5.154 c 0.199,0 0.393,-0.031 0.581,-0.098 0.188,-0.062 0.354,-0.173 0.502,-0.323 0.146,-0.151 0.264,-0.347 0.352,-0.59 0.088,-0.241 0.132,-0.536 0.132,-0.886 0,-0.317 -0.031,-0.606 -0.093,-0.863 C 36.931,18.556 36.831,18.333 36.689,18.153 36.548,17.97 36.363,17.83 36.13,17.732 35.899,17.634 35.613,17.586 35.272,17.586 h -0.984 v 3.986 h 1.231 z"
           inkscape:connector-curvature="0"
           style="fill:#ffffff" />
        <path
           id="path3107"
           d="m 39.8,18.289 c 0.141,-0.403 0.344,-0.756 0.606,-1.059 0.265,-0.303 0.589,-0.538 0.973,-0.709 0.385,-0.171 0.816,-0.257 1.298,-0.257 0.487,0 0.921,0.086 1.303,0.257 0.381,0.171 0.704,0.406 0.969,0.709 0.264,0.303 0.466,0.652 0.605,1.059 0.143,0.404 0.213,0.845 0.213,1.316 0,0.46 -0.07,0.891 -0.213,1.288 -0.142,0.397 -0.344,0.744 -0.605,1.04 -0.266,0.295 -0.588,0.525 -0.969,0.695 -0.382,0.166 -0.815,0.252 -1.303,0.252 -0.481,0 -0.913,-0.086 -1.298,-0.252 -0.384,-0.17 -0.708,-0.4 -0.973,-0.695 -0.263,-0.296 -0.466,-0.645 -0.606,-1.04 -0.14,-0.397 -0.211,-0.828 -0.211,-1.288 0,-0.471 0.07,-0.911 0.211,-1.316 z m 1.262,2.09 c 0.062,0.252 0.16,0.479 0.295,0.68 0.135,0.2 0.312,0.359 0.527,0.482 0.218,0.121 0.481,0.183 0.792,0.183 0.312,0 0.576,-0.062 0.792,-0.183 0.218,-0.121 0.394,-0.281 0.529,-0.482 0.134,-0.2 0.231,-0.428 0.295,-0.68 0.062,-0.25 0.092,-0.508 0.092,-0.774 0,-0.276 -0.03,-0.547 -0.092,-0.806 -0.062,-0.262 -0.161,-0.492 -0.295,-0.696 -0.136,-0.201 -0.312,-0.365 -0.529,-0.485 -0.216,-0.121 -0.48,-0.184 -0.792,-0.184 -0.311,0 -0.574,0.062 -0.792,0.184 -0.216,0.12 -0.393,0.284 -0.527,0.485 -0.135,0.204 -0.233,0.437 -0.295,0.696 -0.062,0.259 -0.093,0.527 -0.093,0.806 10e-4,0.266 0.032,0.524 0.093,0.774 z"
           inkscape:connector-curvature="0"
           style="fill:#ffffff" />
        <path
           id="path3109"
           d="m 49.092,16.418 1.471,4.348 h 0.02 l 1.393,-4.348 h 1.942 v 6.322 h -1.294 v -4.48 h -0.02 l -1.539,4.48 H 50 l -1.54,-4.437 h -0.019 v 4.437 h -1.293 v -6.322 h 1.944 z"
           inkscape:connector-curvature="0"
           style="fill:#ffffff" />
        <path
           id="path3111"
           d="m 58.764,16.418 2.35,6.322 H 59.68 L 59.204,21.332 H 56.853 L 56.361,22.74 H 54.97 l 2.377,-6.322 h 1.417 z m 0.08,3.879 -0.793,-2.322 h -0.018 l -0.817,2.322 h 1.628 z"
           inkscape:connector-curvature="0"
           style="fill:#ffffff" />
        <path
           id="path3113"
           d="m 63.547,16.418 v 6.322 h -1.382 v -6.322 h 1.382 z"
           inkscape:connector-curvature="0"
           style="fill:#ffffff" />
        <path
           id="path3115"
           d="m 66.604,16.418 2.623,4.242 h 0.018 v -4.242 h 1.294 v 6.322 h -1.384 l -2.611,-4.234 h -0.02 V 22.74 H 65.23 v -6.322 h 1.374 z"
           inkscape:connector-curvature="0"
           style="fill:#ffffff" />
      </g>
      <path
         id="path3117"
         d="M 85.852,0 H 1.147 C 0.239,0 -0.5,0.744 -0.5,1.658 V 30.627 C -0.5,30.834 -0.333,31 -0.128,31 H 87.128 C 87.333,31 87.5,30.834 87.5,30.627 V 1.658 C 87.5,0.744 86.762,0 85.852,0 z M 1.147,0.75 h 84.705 c 0.498,0 0.902,0.406 0.902,0.908 0,0 0,20.121 0,28.557 H 0.245 v -8.426 c 0,-8.435 0,-20.131 0,-20.131 0,-0.501 0.405,-0.908 0.902,-0.908 z"
         inkscape:connector-curvature="0" />
      <g
         id="g3119">
        <ellipse
           id="ellipse3121"
           ry="11.076"
           rx="11.004"
           cy="15.661"
           cx="14.156"
           sodipodi:cx="14.156"
           sodipodi:cy="15.661"
           sodipodi:rx="11.004"
           sodipodi:ry="11.076"
           style="fill:#ffffff"
           d="m 25.16,15.661 c 0,6.117106 -4.926659,11.076 -11.004,11.076 -6.0773411,0 -11.0039996,-4.958894 -11.0039996,-11.076 0,-6.1171058 4.9266585,-11.076 11.0039996,-11.076 6.077341,0 11.004,4.9588942 11.004,11.076 z" />
        <path
           d="m 14.22,8.746 c -3.862,0 -4.834,3.669 -4.834,6.779 0,3.111 0.971,6.779 4.834,6.779 3.863,0 4.834,-3.67 4.834,-6.779 0,-3.111 -0.971,-6.779 -4.834,-6.779 z m 0,2.555 c 0.157,0 0.3,0.024 0.435,0.06 0.278,0.24 0.414,0.573 0.147,1.038 l -2.572,4.76 c -0.079,-0.603 -0.091,-1.195 -0.091,-1.634 0,-1.37 0.094,-4.224 2.081,-4.224 z m 1.926,2.193 c 0.137,0.731 0.155,1.493 0.155,2.03 0,1.37 -0.094,4.223 -2.08,4.223 -0.156,0 -0.301,-0.017 -0.435,-0.049 -0.025,-0.01 -0.049,-0.019 -0.074,-0.025 -0.04,-0.012 -0.084,-0.024 -0.122,-0.041 -0.442,-0.188 -0.721,-0.531 -0.319,-1.139 l 2.875,-4.999 z"
           id="text2809_4_"
           inkscape:connector-curvature="0" />
        <path
           d="m 14.195,3.748 c -3.245,0 -5.98,1.137 -8.21,3.422 -1.128,1.135 -1.99,2.431 -2.589,3.876 -0.585,1.43 -0.876,2.921 -0.876,4.478 0,1.57 0.291,3.062 0.876,4.479 0.585,1.417 1.434,2.69 2.548,3.826 1.128,1.121 2.395,1.985 3.802,2.588 1.421,0.59 2.903,0.884 4.449,0.884 1.547,0 3.05,-0.304 4.499,-0.907 1.448,-0.604 2.74,-1.471 3.883,-2.605 1.101,-1.078 1.934,-2.317 2.49,-3.719 0.571,-1.415 0.853,-2.932 0.853,-4.544 0,-1.598 -0.281,-3.112 -0.852,-4.528 C 24.497,9.569 23.661,8.305 22.561,7.197 20.263,4.895 17.469,3.748 14.195,3.748 z m 0.049,2.119 c 2.646,0 4.904,0.944 6.784,2.836 0.906,0.912 1.6,1.954 2.073,3.119 0.473,1.164 0.713,2.398 0.713,3.703 0,2.707 -0.92,4.952 -2.744,6.746 -0.948,0.927 -2.012,1.638 -3.196,2.128 -1.17,0.489 -2.375,0.732 -3.63,0.732 -1.268,0 -2.481,-0.239 -3.638,-0.717 C 9.45,23.925 8.413,23.223 7.493,22.31 6.573,21.385 5.864,20.34 5.363,19.175 4.876,17.997 4.625,16.784 4.625,15.522 4.625,14.246 4.876,13.025 5.363,11.86 5.864,10.682 6.574,9.625 7.493,8.685 9.317,6.809 11.57,5.867 14.244,5.867 z"
           id="path2815_4_"
           inkscape:connector-curvature="0" />
      </g>
    </g>
    <g
       id="lizenz"
       inkscape:label="#lizenz"
       transform="matrix(1.2804993,0,0,1.2804993,840.34008,973.58121)">
      <g
         inkscape:export-ydpi="300.23013"
         inkscape:export-xdpi="300.23013"
         inkscape:export-filename="/mnt/hgfs/Bov/Documents/Work/2007/cc/identity/srr buttons/big/by-sa.png"
         id="g287"
         transform="matrix(0.9937807,0,0,0.9936694,-177.69409,-74.436409)">
        <path
           style="fill:#aab2ab"
           d="m 182.23532,75.39014 114.06396,0.20312 c 1.59375,0 3.01758,-0.23682 3.01758,3.18018 l -0.13965,37.56689 -119.82031,0 0,-37.70654 c 0,-1.68457 0.16309,-3.24365 2.87842,-3.24365 z"
           nodetypes="ccccccc"
           id="path3817_2_"
           inkscape:connector-curvature="0" />
        <g
           transform="matrix(0.872921,0,0,0.872921,50.12536,143.2144)"
           id="g5908_2_">
          <path
             style="fill:#ffffff"
             d="m 187.20944,-55.6792 c 0.006,8.68024 -7.02786,15.72095 -15.7081,15.72708 -8.68021,0.005 -15.72205,-7.02786 -15.72708,-15.70804 0,-0.0067 0,-0.01233 0,-0.01904 -0.005,-8.68134 7.02783,-15.72205 15.70807,-15.72711 8.68134,-0.0056 15.72208,7.02789 15.72711,15.70807 0,0.0056 0,0.01233 0,0.01904 z"
             rx="22.939548"
             type="arc"
             cy="264.3577"
             ry="22.939548"
             cx="296.35416"
             id="path5906_2_"
             inkscape:connector-curvature="0" />
          <g
             transform="translate(-289.6157,99.0653)"
             id="g5706_2_">
            <path
               d="m 473.88455,-167.54724 c 3.48541,3.48596 5.22839,7.75391 5.22839,12.80273 0,5.04938 -1.7128,9.27148 -5.13834,12.66736 -3.63531,3.5766 -7.93179,5.36432 -12.88947,5.36432 -4.89777,0 -9.11987,-1.77261 -12.6651,-5.31955 -3.54584,-3.54581 -5.31845,-7.78299 -5.31845,-12.71213 0,-4.92859 1.77261,-9.19598 5.31845,-12.80273 3.4552,-3.48651 7.67725,-5.22894 12.6651,-5.22894 5.04829,0 9.31401,1.74243 12.79942,5.22894 z m -23.11798,2.34485 c -2.94675,2.97638 -4.41956,6.46289 -4.41956,10.46234 0,3.99835 1.45828,7.4552 4.37424,10.37067 2.91653,2.9165 6.38849,4.37476 10.41705,4.37476 4.02853,0 7.53018,-1.47281 10.50656,-4.41901 2.8259,-2.73584 4.23941,-6.17706 4.23941,-10.32642 0,-4.11804 -1.43646,-7.61292 -4.30768,-10.48474 -2.87064,-2.87067 -6.34988,-4.30652 -10.43829,-4.30652 -4.08837,0 -7.54638,1.44318 -10.37173,4.32892 z m 7.75449,8.70312 c -0.45032,-0.98163 -1.12433,-1.47223 -2.02325,-1.47223 -1.58914,0 -2.38342,1.06952 -2.38342,3.2085 0,2.13959 0.79428,3.20911 2.38342,3.20911 1.04938,0 1.79895,-0.5213 2.24866,-1.56512 l 2.20276,1.17303 c -1.04993,1.86548 -2.62506,2.79901 -4.72549,2.79901 -1.6199,0 -2.91763,-0.4967 -3.89206,-1.48956 -0.97607,-0.99341 -1.46274,-2.36273 -1.46274,-4.10797 0,-1.71558 0.50229,-3.07709 1.50748,-4.08563 1.00519,-1.00793 2.25705,-1.51251 3.75781,-1.51251 2.22012,0 3.80984,0.87488 4.77081,2.62286 l -2.38398,1.22051 z m 10.36334,0 c -0.45087,-0.98163 -1.11148,-1.47223 -1.98239,-1.47223 -1.62106,0 -2.43213,1.06952 -2.43213,3.2085 0,2.13959 0.81107,3.20911 2.43213,3.20911 1.05103,0 1.78717,-0.5213 2.20724,-1.56512 l 2.25201,1.17303 c -1.04825,1.86548 -2.62119,2.79901 -4.71768,2.79901 -1.61771,0 -2.91263,-0.4967 -3.88647,-1.48956 -0.97217,-0.99341 -1.45938,-2.36273 -1.45938,-4.10797 0,-1.71558 0.49448,-3.07709 1.48288,-4.08563 0.98782,-1.00793 2.24527,-1.51251 3.77347,-1.51251 2.21619,0 3.80368,0.87488 4.76132,2.62286 l -2.431,1.22051 z"
               id="path5708_2_"
               inkscape:connector-curvature="0" />
          </g>
        </g>
        <path
           id="path294"
           d="m 297.29639,74.91064 -116.22951,0 c -1.24658,0 -2.26074,1.01465 -2.26074,2.26123 l 0,39.49561 c 0,0.28174 0.22852,0.51074 0.51025,0.51074 l 119.73,0 c 0.28174,0 0.51074,-0.229 0.51074,-0.51074 l 0,-39.4956 c 0,-1.24659 -1.01416,-2.26124 -2.26074,-2.26124 z m -116.22951,1.02149 116.22951,0 c 0.68359,0 1.23926,0.55615 1.23926,1.23975 0,0 0,15.91943 0,27.41846 l -83.07375,0 c -3.04492,5.50537 -8.91113,9.24365 -15.64355,9.24365 -6.73535,0 -12.6001,-3.73486 -15.64355,-9.24365 l -4.34814,0 c 0,-11.49902 0,-27.41846 0,-27.41846 -2e-5,-0.6836 0.55663,-1.23975 1.24022,-1.23975 z"
           inkscape:connector-curvature="0" />
        <g
           id="g296"
           enable-background="new    ">
          <path
             style="fill:#ffffff"
             id="path298"
             d="m 265.60986,112.8833 c 0.0801,0.15576 0.1875,0.28174 0.32129,0.37842 0.13379,0.0962 0.29004,0.16797 0.46973,0.21436 0.18066,0.0469 0.36719,0.0703 0.55957,0.0703 0.12988,0 0.26953,-0.0107 0.41895,-0.0327 0.14844,-0.0215 0.28809,-0.064 0.41895,-0.12598 0.12988,-0.062 0.23926,-0.14795 0.3252,-0.25684 0.0879,-0.10889 0.13086,-0.24707 0.13086,-0.41553 0,-0.18018 -0.0576,-0.32617 -0.17285,-0.43848 -0.11426,-0.1123 -0.26562,-0.20508 -0.45215,-0.28027 -0.18555,-0.0742 -0.39746,-0.13965 -0.63281,-0.1958 -0.23633,-0.0562 -0.47559,-0.11816 -0.71777,-0.18701 -0.24902,-0.062 -0.49121,-0.13818 -0.72754,-0.22852 -0.23535,-0.0898 -0.44727,-0.20703 -0.63379,-0.3501 -0.18652,-0.14307 -0.33691,-0.32178 -0.45215,-0.53662 -0.11426,-0.21484 -0.17188,-0.47461 -0.17188,-0.7793 0,-0.34277 0.0732,-0.63965 0.21875,-0.8916 0.14648,-0.25195 0.33789,-0.46191 0.57422,-0.63037 0.23535,-0.16797 0.50293,-0.29248 0.80176,-0.37354 0.29785,-0.0806 0.59668,-0.12109 0.89453,-0.12109 0.34863,0 0.68262,0.0391 1.00293,0.11719 0.31934,0.0776 0.60449,0.2041 0.85254,0.37842 0.24902,0.17432 0.44629,0.39697 0.59277,0.66797 0.14551,0.271 0.21875,0.59961 0.21875,0.98535 l -1.42188,0 c -0.0127,-0.19922 -0.0547,-0.36426 -0.125,-0.49463 -0.0713,-0.13086 -0.16602,-0.2334 -0.2832,-0.30859 -0.11816,-0.0742 -0.25293,-0.12744 -0.4043,-0.1582 -0.15234,-0.0312 -0.31738,-0.0469 -0.49707,-0.0469 -0.11719,0 -0.23535,0.0127 -0.35254,0.0371 -0.11816,0.0254 -0.22461,0.0688 -0.32031,0.13086 -0.0967,0.0625 -0.17578,0.14014 -0.2373,0.2334 -0.0615,0.0937 -0.0928,0.21191 -0.0928,0.35498 0,0.13086 0.0244,0.23682 0.0742,0.31738 0.0498,0.0811 0.14844,0.15576 0.29395,0.22412 0.14551,0.0684 0.34766,0.13721 0.60547,0.20557 0.25781,0.0684 0.59473,0.15576 1.01172,0.26123 0.12402,0.0249 0.2959,0.0703 0.5166,0.13574 0.2207,0.0654 0.43945,0.16943 0.65723,0.3125 0.21777,0.14355 0.40527,0.33496 0.56445,0.57422 0.1582,0.23975 0.2373,0.54639 0.2373,0.91992 0,0.30518 -0.0596,0.58838 -0.17773,0.84961 -0.11816,0.26172 -0.29395,0.4873 -0.52734,0.67676 -0.2334,0.19043 -0.52246,0.33789 -0.86719,0.44385 -0.3457,0.10596 -0.74609,0.15869 -1.19922,0.15869 -0.36719,0 -0.72363,-0.0454 -1.06934,-0.13574 -0.34473,-0.0903 -0.65039,-0.23242 -0.91504,-0.42578 -0.26367,-0.19336 -0.47363,-0.43994 -0.62988,-0.73877 -0.15527,-0.29932 -0.22949,-0.65381 -0.22363,-1.06494 l 1.42188,0 c -3e-5,0.22412 0.04,0.41406 0.12106,0.56933 z"
             inkscape:connector-curvature="0" />
          <path
             style="fill:#ffffff"
             id="path300"
             d="m 273.8667,107.8667 2.49316,6.66406 -1.52246,0 -0.50391,-1.48438 -2.49316,0 -0.52246,1.48438 -1.47461,0 2.52051,-6.66406 1.50293,0 z m 0.084,4.08594 -0.83984,-2.44336 -0.0186,0 -0.86914,2.44336 1.72753,0 z"
             inkscape:connector-curvature="0" />
        </g>
        <g
           id="g302"
           enable-background="new    ">
          <path
             style="fill:#ffffff"
             id="path304"
             d="m 239.17821,107.8667 c 0.31738,0 0.60742,0.0283 0.86914,0.084 0.26172,0.0561 0.48633,0.14795 0.67383,0.27539 0.18652,0.12744 0.33203,0.29688 0.43457,0.5083 0.10254,0.21142 0.1543,0.47266 0.1543,0.78369 0,0.33594 -0.0762,0.61523 -0.22949,0.83936 -0.15234,0.22412 -0.37891,0.40723 -0.67773,0.55029 0.41211,0.11816 0.71973,0.3252 0.92285,0.62109 0.20312,0.29589 0.30469,0.65234 0.30469,1.06934 0,0.33594 -0.0654,0.62695 -0.19629,0.87305 -0.13086,0.24561 -0.30762,0.44629 -0.52832,0.60205 -0.22168,0.15576 -0.47461,0.271 -0.75781,0.34521 -0.28418,0.0752 -0.5752,0.1123 -0.875,0.1123 l -3.23633,0 0,-6.66406 3.14159,0 0,1e-5 z m -0.1875,2.69531 c 0.26172,0 0.47656,-0.062 0.64551,-0.18604 0.16797,-0.12451 0.25195,-0.32568 0.25195,-0.60498 0,-0.15527 -0.0283,-0.28271 -0.084,-0.38184 -0.0566,-0.0996 -0.13086,-0.17676 -0.22461,-0.23291 -0.0937,-0.0557 -0.20117,-0.0947 -0.32227,-0.11621 -0.12207,-0.022 -0.24805,-0.0327 -0.37891,-0.0327 l -1.37305,0 0,1.55469 1.48536,0 z m 0.0859,2.82813 c 0.14355,0 0.28027,-0.0137 0.41113,-0.042 0.13086,-0.0278 0.24707,-0.0747 0.34668,-0.13965 0.0996,-0.0654 0.17871,-0.1543 0.23828,-0.26611 0.0596,-0.11181 0.0889,-0.25488 0.0889,-0.4292 0,-0.3418 -0.0967,-0.58594 -0.29004,-0.73193 -0.19336,-0.14599 -0.44922,-0.21924 -0.7666,-0.21924 l -1.59961,0 0,1.82812 1.57129,0 z"
             inkscape:connector-curvature="0" />
          <path
             style="fill:#ffffff"
             id="path306"
             d="m 241.88914,107.8667 1.64355,0 1.56055,2.63184 1.55078,-2.63184 1.63379,0 -2.47363,4.10645 0,2.55762 -1.46875,0 0,-2.59473 -2.44629,-4.06934 z"
             inkscape:connector-curvature="0" />
        </g>
        <g
           transform="matrix(0.624995,0,0,0.624995,391.2294,176.9332)"
           id="g6316_1_">
          <path
             style="fill:#ffffff"
             d="m -175.0083,-139.1153 c 0.006,9.4118 -7.61725,17.04779 -17.02982,17.05481 -9.41101,0.007 -17.047,-7.61725 -17.05481,-17.02979 0,-0.008 0,-0.0172 0,-0.025 -0.006,-9.41254 7.6188,-17.047 17.02982,-17.05481 9.41257,-0.007 17.04855,7.61804 17.05481,17.02985 0,0.009 0,0.0164 0,0.025 z"
             rx="29.209877"
             type="arc"
             cy="252.08646"
             ry="29.209877"
             cx="475.97119"
             id="path6318_1_"
             inkscape:connector-curvature="0" />
          <g
             transform="translate(-23.9521,-89.72962)"
             id="g6320_1_">
            <path
               d="m -168.2204,-68.05536 c -5.17194,0 -9.54852,1.80469 -13.13135,5.41333 -3.67661,3.73444 -5.51413,8.1532 -5.51413,13.25635 0,5.10315 1.83752,9.49152 5.51413,13.1626 3.67502,3.67194 8.05316,5.50787 13.13135,5.50787 5.14066,0 9.59537,-1.85156 13.36728,-5.55475 3.55005,-3.51562 5.3266,-7.88831 5.3266,-13.11572 0,-5.22662 -1.8078,-9.64697 -5.42191,-13.25635 -3.61407,-3.60864 -8.03756,-5.41333 -13.27197,-5.41333 z m 0.0469,3.36017 c 4.23752,0 7.836,1.49298 10.79697,4.48053 2.98907,2.9563 4.48441,6.56567 4.48441,10.82898 0,4.29382 -1.46252,7.85712 -4.39224,10.68915 -3.08438,3.04926 -6.71411,4.57349 -10.88913,4.57349 -4.17505,0 -7.7735,-1.5094 -10.79541,-4.52661 -3.02188,-3.01953 -4.53284,-6.59692 -4.53284,-10.73602 0,-4.13831 1.52658,-7.74847 4.57971,-10.82898 2.92815,-2.98756 6.51098,-4.48054 10.74853,-4.48054 z"
               id="path6322_1_"
               inkscape:connector-curvature="0" />
            <path
               d="m -176.49548,-52.02087 c 0.74377,-4.69769 4.05161,-7.20862 8.1954,-7.20862 5.96097,0 9.59225,4.32501 9.59225,10.09229 0,5.62738 -3.86411,9.99927 -9.686,9.99927 -4.00473,0 -7.58914,-2.46484 -8.24228,-7.30084 l 4.70319,0 c 0.14062,2.51099 1.77032,3.39459 4.09845,3.39459 2.65317,0 4.37817,-2.4649 4.37817,-6.23291 0,-3.95233 -1.49063,-6.04535 -4.28598,-6.04535 -2.04846,0 -3.8172,0.74457 -4.19064,3.30157 l 1.36874,-0.007 -3.70316,3.7016 -3.7016,-3.7016 1.47346,0.007 z"
               id="path6324_1_"
               inkscape:connector-curvature="0" />
          </g>
        </g>
        <g
           id="g313">
          <circle
             style="fill:#ffffff"
             sodipodi:ry="10.8064"
             sodipodi:rx="10.8064"
             sodipodi:cy="90.224609"
             sodipodi:cx="242.56226"
             id="circle315"
             r="10.8064"
             cy="90.224609"
             cx="242.56226"
             d="m 253.36866,90.224609 c 0,5.96821 -4.83819,10.806401 -10.8064,10.806401 -5.96821,0 -10.8064,-4.838191 -10.8064,-10.806401 0,-5.96821 4.83819,-10.8064 10.8064,-10.8064 5.96821,0 10.8064,4.83819 10.8064,10.8064 z" />
          <g
             id="g317">
            <path
               id="path319"
               d="m 245.68994,87.09766 c 0,-0.4165 -0.33789,-0.75342 -0.75391,-0.75342 l -4.77246,0 c -0.41602,0 -0.75391,0.33691 -0.75391,0.75342 l 0,4.77295 1.33105,0 0,5.65234 3.61719,0 0,-5.65234 1.33203,0 0,-4.77295 1e-5,0 z"
               inkscape:connector-curvature="0" />
            <circle
               sodipodi:ry="1.63232"
               sodipodi:rx="1.63232"
               sodipodi:cy="84.083008"
               sodipodi:cx="242.5498"
               id="circle321"
               r="1.63232"
               cy="84.083008"
               cx="242.5498"
               d="m 244.18212,84.083008 c 0,0.901505 -0.73081,1.63232 -1.63232,1.63232 -0.9015,0 -1.63232,-0.730815 -1.63232,-1.63232 0,-0.901506 0.73082,-1.63232 1.63232,-1.63232 0.90151,0 1.63232,0.730814 1.63232,1.63232 z" />
          </g>
          <path
             style="fill-rule:evenodd"
             id="path323"
             d="m 242.53467,78.31836 c -3.23145,0 -5.96826,1.12744 -8.20752,3.38379 -2.29785,2.33301 -3.44629,5.09521 -3.44629,8.28418 0,3.18897 1.14844,5.93213 3.44629,8.22705 2.29785,2.29443 5.03418,3.44189 8.20752,3.44189 3.21289,0 5.99805,-1.15674 8.35352,-3.47168 2.2207,-2.19678 3.33008,-4.92969 3.33008,-8.19727 0,-3.26758 -1.12891,-6.02881 -3.3877,-8.28418 -2.25879,-2.25634 -5.02442,-3.38378 -8.2959,-3.38378 z m 0.0293,2.09961 c 2.64844,0 4.89746,0.93359 6.74707,2.80078 1.87012,1.84717 2.80469,4.10352 2.80469,6.76758 0,2.68359 -0.91504,4.91113 -2.74609,6.68066 -1.92773,1.90576 -4.19629,2.8584 -6.80566,2.8584 -2.60937,0 -4.8584,-0.94287 -6.74658,-2.82959 -1.88965,-1.88623 -2.8335,-4.12256 -2.8335,-6.70947 0,-2.58643 0.9541,-4.84229 2.8623,-6.76758 1.83057,-1.86719 4.07031,-2.80078 6.71777,-2.80078 z"
             clip-rule="evenodd"
             inkscape:connector-curvature="0" />
        </g>
      </g>
    </g>
  </g>
</svg>
