<?xml version="1.0" encoding="UTF-8" standalone="no"?>
<!-- Created with Inkscape (http://www.inkscape.org/) -->

<svg
   xmlns:dc="http://purl.org/dc/elements/1.1/"
   xmlns:cc="http://creativecommons.org/ns#"
   xmlns:rdf="http://www.w3.org/1999/02/22-rdf-syntax-ns#"
   xmlns:svg="http://www.w3.org/2000/svg"
   xmlns="http://www.w3.org/2000/svg"
   xmlns:xlink="http://www.w3.org/1999/xlink"
   xmlns:sodipodi="http://sodipodi.sourceforge.net/DTD/sodipodi-0.dtd"
   xmlns:inkscape="http://www.inkscape.org/namespaces/inkscape"
   width="1920"
   height="1080"
   viewBox="0 0 1920.0001 1080"
   id="svg4261"
   version="1.1"
   inkscape:version="0.91 r13725"
   sodipodi:docname="pause.svg">
  <defs
     id="defs4263" />
  <sodipodi:namedview
     id="base"
     pagecolor="#ffffff"
     bordercolor="#666666"
     borderopacity="1.0"
     inkscape:pageopacity="0.0"
     inkscape:pageshadow="2"
     inkscape:zoom="0.35"
     inkscape:cx="345.93443"
     inkscape:cy="257.61667"
     inkscape:document-units="px"
     inkscape:current-layer="layer2"
     showgrid="false"
     units="px"
     showguides="true"
     inkscape:window-width="1920"
     inkscape:window-height="1021"
     inkscape:window-x="0"
     inkscape:window-y="27"
     inkscape:window-maximized="1"
     inkscape:guide-bbox="true"
     inkscape:snap-path-clip="true"
     inkscape:snap-path-mask="true"
     guidetolerance="10000"
     inkscape:snap-perpendicular="true"
     inkscape:snap-tangential="true"
     objecttolerance="10000"
     inkscape:object-paths="false"
     inkscape:snap-intersection-paths="true"
     inkscape:object-nodes="false"
     inkscape:snap-smooth-nodes="false"
     inkscape:snap-midpoints="true"
     inkscape:snap-bbox="true"
     inkscape:bbox-paths="true"
     inkscape:bbox-nodes="true"
     inkscape:snap-bbox-edge-midpoints="true"
     inkscape:snap-bbox-midpoints="false"
     inkscape:snap-object-midpoints="false"
     inkscape:snap-center="false"
     inkscape:snap-text-baseline="true"
     inkscape:snap-page="true"
     inkscape:snap-nodes="false"
     inkscape:snap-global="false"
     inkscape:snap-others="true"
     inkscape:snap-grids="false"
     inkscape:snap-to-guides="true">
    <inkscape:grid
       type="xygrid"
       id="grid4484" />
    <sodipodi:guide
       position="20.000001,1060"
       orientation="1,0"
       id="guide4684"
       inkscape:label=""
       inkscape:color="rgb(0,0,255)" />
    <sodipodi:guide
       position="1900.0001,0"
       orientation="1,0"
       id="guide4686"
       inkscape:label=""
       inkscape:color="rgb(0,0,255)" />
    <sodipodi:guide
       position="1900.0001,1060"
       orientation="0,1"
       id="guide4690"
       inkscape:label=""
       inkscape:color="rgb(0,0,255)" />
    <sodipodi:guide
       position="20.000001,0"
       orientation="0,1"
       id="guide4708"
       inkscape:label=""
       inkscape:color="rgb(0,0,255)" />
  </sodipodi:namedview>
  <metadata
     id="metadata4266">
    <rdf:RDF>
      <cc:Work
         rdf:about="">
        <dc:format>image/svg+xml</dc:format>
        <dc:type
           rdf:resource="http://purl.org/dc/dcmitype/StillImage" />
        <dc:title />
      </cc:Work>
    </rdf:RDF>
  </metadata>
  <g
     inkscape:label="BG"
     inkscape:groupmode="layer"
     id="layer1"
     transform="translate(0,27.637408)"
     sodipodi:insensitive="true">
    <image
       sodipodi:absref="/home/peter/VOC/intro-outro-generator/foss4g-2016/artwork/Abendpanorama-2014-01.jpg"
       xlink:href="Abendpanorama-2014-01.jpg"
       width="1920"
       height="1280"
       preserveAspectRatio="none"
       style="image-rendering:optimizeQuality"
       id="image0"
       x="0"
       y="-27.637316" />
    <image
       sodipodi:absref="/home/peter/VOC/intro-outro-generator/foss4g-2016/artwork/Panorama-v-Stadthaus-2013-02.jpg"
       xlink:href="Panorama-v-Stadthaus-2013-02.jpg"
       width="2220.386"
       height="1110.0364"
       preserveAspectRatio="none"
       style="opacity:0;image-rendering:optimizeQuality"
       id="image1"
       x="-191.62154"
       y="-33.373199" />
    <image
       sodipodi:absref="/home/peter/VOC/intro-outro-generator/foss4g-2016/artwork/ship.jpg"
       xlink:href="ship.jpg"
       width="1985.7144"
       height="1116.9644"
       preserveAspectRatio="none"
       style="opacity:0;image-rendering:optimizeQuality"
       id="image2"
       x="-14.285739"
       y="-39.066048" />
  </g>
  <g
     inkscape:groupmode="layer"
     id="layer2"
     inkscape:label="Text"
     style="display:inline">
    <g
       transform="matrix(0.55833272,0,0,0.55833272,2451.5456,203.52837)"
       id="g459">
      <text
         id="text461"
         transform="translate(-390.5454,66.7334)">
        <tspan
           style="font-size:72px;font-family:MyriadPro-Regular;fill:#2c3e50"
           id="tspan463"
           font-size="72"
           y="0"
           x="0">#</tspan>
        <tspan
           style="font-size:72px;font-family:DicotBold;fill:#2c3e50"
           id="tspan465"
           font-size="72"
           y="0"
           x="35.784">2C3E50</tspan>
      </text>
      <text
         style="fill:#7f8c8d;fill-opacity:1"
         id="text467"
         transform="translate(-390.5454,123.9629)">
        <tspan
           style="font-size:72px;font-family:MyriadPro-Regular;fill:#7f8c8d;fill-opacity:1"
           id="tspan469"
           font-size="72"
           y="0"
           x="0">#</tspan>
        <tspan
           style="font-size:72px;font-family:DicotBold;fill:#7f8c8d;fill-opacity:1"
           id="tspan471"
           font-size="72"
           y="0"
           x="35.784">7F8C8D</tspan>
      </text>
      <text
         id="text473"
         transform="translate(-390.5454,181.1924)">
        <tspan
           style="font-size:72px;font-family:MyriadPro-Regular;fill:#b0c2c2"
           id="tspan475"
           font-size="72"
           y="0"
           x="0">#</tspan>
        <tspan
           style="font-size:72px;font-family:DicotBold;fill:#b0c2c2"
           id="tspan477"
           font-size="72"
           y="0"
           x="35.784">B0C2C2</tspan>
      </text>
      <text
         id="text479"
         transform="translate(-390.5454,238.4219)">
        <tspan
           style="font-size:72px;font-family:MyriadPro-Regular;fill:#49a942"
           id="tspan481"
           font-size="72"
           y="0"
           x="0">#</tspan>
        <tspan
           style="font-size:72px;font-family:DicotBold;fill:#49a942"
           id="tspan483"
           font-size="72"
           y="0"
           x="35.784">49A942</tspan>
      </text>
      <text
         style="fill:#2980b9;fill-opacity:1"
         id="text485"
         transform="translate(-390.5454,295.6514)">
        <tspan
           style="font-size:72px;font-family:MyriadPro-Regular;fill:#2980b9;fill-opacity:1"
           id="tspan487"
           font-size="72"
           y="0"
           x="0">#</tspan>
        <tspan
           style="font-size:72px;font-family:DicotBold;fill:#2980b9;fill-opacity:1"
           id="tspan489"
           font-size="72"
           y="0"
           x="35.784">2980B9</tspan>
      </text>
    </g>
    <flowRoot
       xml:space="preserve"
       id="text"
       style="font-style:normal;font-variant:normal;font-weight:normal;font-stretch:normal;font-size:61.47167206px;line-height:559.99999046%;font-family:'TeX Gyre Adventor';-inkscape-font-specification:'TeX Gyre Adventor, Normal';text-align:start;letter-spacing:0px;word-spacing:0px;writing-mode:lr-tb;text-anchor:start;fill:#ffffff;fill-opacity:1;stroke:#ffffff;stroke-width:3.07358408;stroke-linecap:butt;stroke-linejoin:miter;stroke-miterlimit:4;stroke-dasharray:none;stroke-opacity:1"
       inkscape:label="#flowRoot4837"
       transform="translate(490.49317,100.00001)"><flowRegion
         id="flowRegion4839"
         style="stroke-width:3.07358408"><rect
           id="rect4841"
           width="2889.1687"
           height="845.23553"
           x="19.32901"
           y="517.34772"
           ry="0"
           style="stroke:#ffffff;stroke-width:4.72345877;stroke-miterlimit:4;stroke-dasharray:none;stroke-opacity:1" /></flowRegion><flowPara
         style="font-style:normal;font-variant:normal;font-weight:normal;font-stretch:normal;font-size:144.07424927px;line-height:120.00000477%;font-family:'Passion One';-inkscape-font-specification:'Passion One';letter-spacing:1.15259397px;fill:#2980b9;fill-opacity:1;stroke:#ffffff;stroke-width:3.07358408;stroke-linejoin:round;stroke-miterlimit:4;stroke-dasharray:none;stroke-opacity:1"
         id="flowPara4845">Continuing soon</flowPara><flowPara
         style="font-style:normal;font-variant:normal;font-weight:normal;font-stretch:normal;font-size:96.04949951px;line-height:120.00000477%;font-family:'Open Sans';-inkscape-font-specification:'Open Sans';fill:#cbd7d7;fill-opacity:1;stroke:none;stroke-width:2.00000024;stroke-miterlimit:4;stroke-dasharray:none;stroke-opacity:1"
         id="flowPara5781">after a short break</flowPara></flowRoot>    <g
       transform="matrix(0.73833421,0,0,0.73833421,251.19917,100.32722)"
       id="g4397">
      <path
         inkscape:connector-curvature="0"
         id="path3486-0-6"
         style="font-size:medium;font-family:DicotMedium;letter-spacing:20.35000038px;fill:#2c3e50;stroke:#ffffff;stroke-width:6.96542883;stroke-linecap:round;stroke-linejoin:round;stroke-miterlimit:4;stroke-dasharray:none;stroke-opacity:1"
         d="m 1246.0511,239.00196 0,-22.68085 0.2035,-2.94953 c 0.678,-4.94975 2.5766,-8.67904 5.6956,-11.18786 3.1868,-2.50876 6.5432,-3.76315 10.0691,-3.76319 l 15.2562,0 c 1.017,4e-5 1.9324,-0.30508 2.7461,-0.91537 0.8814,-0.67801 1.4916,-1.52558 1.8307,-2.5427 0.339,-0.67801 0.5085,-1.32215 0.5086,-1.93245 l 0,-10.3742 -0.1018,-1.3222 c -0.4068,-2.71215 -1.763,-4.30557 -4.0682,-4.78027 l -1.2206,-0.20341 -30.9192,0 0,-10.57762 30.2073,0 c 4.8819,7e-5 8.8485,1.42398 11.8998,4.27173 l 1.9325,2.23757 c 1.8984,2.71227 2.8477,5.56009 2.8478,8.54346 l 0,12.30665 c -10e-5,5.62787 -2.2377,9.9674 -6.7128,13.01861 -2.9156,1.96638 -5.8991,2.94955 -8.9502,2.94952 l -14.0357,0 -1.1188,0.10171 c -2.0342,0.40686 -3.4242,1.05101 -4.17,1.93245 -0.7459,0.8815 -1.1188,2.30541 -1.1188,4.27173 l 0,13.01861 36.208,-0.10171 0,10.67932 -46.9891,0" />
      <path
         inkscape:connector-curvature="0"
         id="path3488-8-6"
         style="font-size:medium;font-family:DicotMedium;letter-spacing:20.35000038px;fill:#2c3e50;stroke:#ffffff;stroke-width:6.96542883;stroke-linecap:round;stroke-linejoin:round;stroke-miterlimit:4;stroke-dasharray:none;stroke-opacity:1"
         d="m 1310.5394,218.45698 0,-32.13968 c 0,-3.66143 0.373,-6.57705 1.1189,-8.74688 0.7458,-2.23751 2.068,-4.37337 3.9666,-6.4076 1.9663,-2.10189 4.1021,-3.5258 6.4075,-4.27173 2.3054,-0.74578 5.8991,-1.11871 10.7811,-1.11878 l 8.0349,0 c 4.9497,7e-5 8.5434,0.373 10.781,1.11878 2.2376,0.67813 4.4073,2.13593 6.5094,4.37344 3.3223,3.52594 4.9836,8.54352 4.9836,15.05277 l 0,32.13968 c 0,3.59369 -0.373,6.54322 -1.1188,8.84858 -0.7459,2.23758 -2.0342,4.30564 -3.8648,6.20418 -2.1021,2.16977 -4.3057,3.62758 -6.6111,4.37344 -2.2376,0.74586 -5.7973,1.11878 -10.6793,1.11878 l -8.0349,0 c -6.8484,0 -12.171,-1.76293 -15.9682,-5.2888 -2.78,-2.50879 -4.6446,-5.79734 -5.5939,-9.86566 -0.2712,-1.76293 -0.5085,-3.55977 -0.712,-5.39052 m 19.4263,9.86566 1.2205,0.10171 1.1419,0 10.2493,0 1.3223,-0.10171 c 3.3224,1e-5 5.5599,-0.64414 6.7127,-1.93245 1.2204,-1.35609 1.8307,-3.83098 1.8307,-7.42467 l 0,-33.15677 c 0,-3.59362 -0.6103,-6.03461 -1.8307,-7.32296 -1.1528,-1.35604 -3.3903,-2.0341 -6.7127,-2.03416 l -1.3223,-0.1017 -3.2413,0 -8.1499,0 -1.2205,0.1017 c -3.3903,6e-5 -5.7296,0.67812 -7.0179,2.03416 -1.2205,1.28835 -1.8307,3.72934 -1.8307,7.32296 l 0,33.15677 c 0,3.52589 0.6102,5.96687 1.8307,7.32296 1.2205,1.35612 3.5598,2.03417 7.0179,2.03416"
         sodipodi:nodetypes="cscccccccsccccssccccccccccccccccccsscc" />
      <path
         inkscape:connector-curvature="0"
         id="path3490-3-1"
         style="font-size:medium;font-family:DicotMedium;letter-spacing:20.35000038px;fill:#2c3e50;stroke:#ffffff;stroke-width:6.96542883;stroke-linecap:round;stroke-linejoin:round;stroke-miterlimit:4;stroke-dasharray:none;stroke-opacity:1"
         d="m 1395.9383,239.00196 0,-73.22965 10.5776,0 0,73.22965 -10.5776,0" />
      <path
         inkscape:connector-curvature="0"
         id="path3492-4-1"
         style="font-size:medium;font-family:DicotMedium;letter-spacing:20.35000038px;fill:#2c3e50;stroke:#ffffff;stroke-width:6.96542883;stroke-linecap:round;stroke-linejoin:round;stroke-miterlimit:4;stroke-dasharray:none;stroke-opacity:1"
         d="m 1438.4335,222.52529 0,-39.86948 c 0,-4.94972 1.1527,-8.81462 3.4581,-11.5947 2.3731,-2.84775 5.8312,-4.54288 10.3742,-5.08539 0.5424,-0.13553 1.39,-0.20334 2.5426,-0.20341 l 36.6149,0 0,10.57762 -35.496,0 c -3.865,6e-5 -6.1025,1.72909 -6.7128,5.18709 l -0.2034,1.2205 0,9.15371 24.8167,0 c 4.5429,4e-5 8.2722,1.08493 11.1879,3.25465 2.9834,2.102 4.9497,5.15323 5.8991,9.1537 0.2711,1.08492 0.4067,2.27151 0.4068,3.55978 l 0,14.64593 c -10e-5,5.22102 -2.0681,9.49274 -6.2042,12.81519 -3.0513,2.44099 -6.1703,3.66148 -9.3571,3.66148 l -20.545,0 c -3.5259,0 -6.5771,-0.88147 -9.1537,-2.6444 -5.0854,-3.39025 -7.6281,-8.00101 -7.6281,-13.83227 m 12.1033,2.94953 c 0.6779,0.94929 1.8985,1.72904 3.6614,2.33928 1.2205,0.40684 2.068,0.61026 2.5427,0.61025 l 18.0023,0 2.2376,-0.50854 c 1.8985,-0.74585 3.119,-2.27146 3.6615,-4.57686 l 0.1017,-0.91537 0,-13.62885 c -10e-5,-2.03413 -0.4069,-3.45803 -1.2205,-4.27173 -0.7459,-0.88143 -2.2376,-1.52558 -4.4752,-1.93245 l -1.2205,-0.10171 -17.6971,0 -1.1188,0.10171 c -4.0006,0.47467 -6.0008,2.40712 -6.0008,5.79735 l 0,13.12031 c 0,1.42393 0.5085,2.74613 1.5256,3.96661" />
      <path
         inkscape:connector-curvature="0"
         id="path3477-5-6"
         style="font-size:186.2592926px;font-family:DicotMedium;fill:#2c3e50;stroke:#ffffff;stroke-width:6.96542883;stroke-linecap:round;stroke-linejoin:round;stroke-miterlimit:4;stroke-dasharray:none;stroke-opacity:1"
         d="m 1245.8262,155.65816 0,-73.229661 37.1234,0 c 6.9839,7.1e-5 11.8319,3.424235 14.5442,10.272494 0.678,1.762994 1.017,3.492029 1.0171,5.187099 l 0,8.848588 c -10e-5,0.94932 -0.068,1.69518 -0.2035,2.23757 -0.339,2.23762 -1.051,4.17006 -2.1358,5.79735 -1.0171,1.62736 -2.3394,2.94956 -3.9666,3.96661 3.2546,1.49174 5.2887,4.44127 6.1024,8.84857 0.1356,0.54248 0.2034,1.32223 0.2035,2.33929 l 0,6.81442 c -10e-5,6.10249 -1.1528,10.64544 -3.4581,13.62886 -2.7123,3.52587 -7.1535,5.28881 -13.3237,5.28881 l -35.9029,0 m 10.3742,-10.57762 24.0031,0 c 2.8477,10e-6 4.9836,-1.32219 6.4075,-3.96661 0.7458,-1.28828 1.1188,-2.54268 1.1188,-3.76319 l 0,-6.91614 c 0,-2.03412 -1.3222,-3.72925 -3.9666,-5.08539 -1.2883,-0.54241 -2.4071,-0.81363 -3.3563,-0.81366 l -24.2065,0 0,20.54499 m 24.5116,-31.12261 c 1.5595,5e-5 2.9156,-0.37288 4.0683,-1.11878 2.1019,-1.42387 3.1529,-3.42412 3.153,-6.00077 l 0,-7.017837 c -10e-5,-3.593617 -2.0343,-5.797288 -6.1025,-6.611014 l -1.3222,-0.203411 -24.1048,0 0,20.951812 24.3082,0" />
      <path
         inkscape:connector-curvature="0"
         id="path3479-0-1"
         style="font-size:186.2592926px;font-family:DicotMedium;fill:#2c3e50;stroke:#ffffff;stroke-width:6.96542883;stroke-linecap:round;stroke-linejoin:round;stroke-miterlimit:4;stroke-dasharray:none;stroke-opacity:1"
         d="m 1310.5855,135.11317 0,-32.13968 c 0,-7.187301 1.7629,-12.408299 5.2888,-15.663012 3.5259,-3.254582 9.1876,-4.881908 16.9852,-4.881979 l 8.0349,0 c 7.7976,7.1e-5 13.4593,1.627397 16.9853,4.881979 3.5258,3.254713 5.2887,8.475711 5.2888,15.663012 l 0,32.13968 c -10e-5,7.18737 -1.763,12.40837 -5.2888,15.66301 -3.526,3.25465 -9.1877,4.88198 -16.9853,4.88198 l -8.0349,0 c -6.9162,0 -12.2727,-1.76294 -16.0698,-5.28881 -2.7801,-2.57659 -4.6447,-5.86515 -5.5939,-9.86567 -0.2035,-1.76291 -0.4069,-3.55975 -0.6103,-5.39051 m 19.1211,9.86566 1.5256,0.10171 11.3913,0 1.4239,-0.10171 c 3.1868,1e-5 5.3905,-0.67804 6.611,-2.03415 1.2204,-1.35609 1.8307,-3.72928 1.8308,-7.11955 l 0,-33.36018 c -10e-5,-3.458013 -0.6104,-5.865095 -1.8308,-7.221262 -1.1527,-1.42385 -3.3225,-2.135802 -6.5093,-2.135862 l -1.5256,-0.101708 -11.3913,0 -1.5256,0.101708 c -3.2547,6e-5 -5.4923,0.678113 -6.7127,2.034154 -1.2206,1.356167 -1.8308,3.797153 -1.8308,7.32297 l 0,33.15676 c 0,3.45808 0.6102,5.89907 1.8308,7.32297 1.2882,1.35611 3.5258,2.03416 6.7127,2.03415" />
      <path
         inkscape:connector-curvature="0"
         id="path3481-4-1"
         style="font-size:186.2592926px;font-family:DicotMedium;fill:#2c3e50;stroke:#ffffff;stroke-width:6.96542883;stroke-linecap:round;stroke-linejoin:round;stroke-miterlimit:4;stroke-dasharray:none;stroke-opacity:1"
         d="m 1375.9408,155.65816 0,-62.957167 c 0,-7.255092 2.9156,-10.882667 8.7468,-10.882744 0.4747,7.7e-5 0.9832,7.7e-5 1.5257,0 0.2034,7.7e-5 0.9153,0.169589 2.1358,0.508541 1.2883,0.271297 2.441,0.949345 3.4581,2.03416 1.017,1.017148 1.9663,2.61057 2.8478,4.780266 l 22.0706,53.701754 0,-60.414471 10.6793,0 0,64.482781 c 0,2.57661 -0.7798,4.78027 -2.3393,6.61101 -1.5596,1.76294 -3.5598,2.78002 -6.0007,3.05124 -0.2713,0.0678 -0.5086,0.1017 -0.712,0.1017 -0.3391,0 -0.5763,0 -0.7119,0 -3.9328,0 -6.9501,-2.47488 -9.052,-7.42467 l -22.0706,-52.786378 0,59.193978 -10.5776,0" />
      <path
         inkscape:connector-curvature="0"
         id="path3483-6-1"
         style="font-size:186.2592926px;font-family:DicotMedium;fill:#2c3e50;stroke:#ffffff;stroke-width:6.96542883;stroke-linecap:round;stroke-linejoin:round;stroke-miterlimit:4;stroke-dasharray:none;stroke-opacity:1"
         d="m 1440.3028,155.65816 0,-62.957167 c 0,-7.255092 2.9156,-10.882667 8.7468,-10.882744 0.4746,7.7e-5 0.9831,7.7e-5 1.5257,0 0.2033,7.7e-5 0.9153,0.169589 2.1358,0.508541 1.2883,0.271297 2.441,0.949345 3.4581,2.03416 1.017,1.017148 1.9663,2.61057 2.8478,4.780266 l 22.0706,53.701754 0,-60.414471 10.6793,0 0,64.482781 c 0,2.57661 -0.7798,4.78027 -2.3393,6.61101 -1.5596,1.76294 -3.5598,2.78002 -6.0007,3.05124 -0.2713,0.0678 -0.5086,0.1017 -0.712,0.1017 -0.3391,0 -0.5764,0 -0.7119,0 -3.9328,0 -6.9501,-2.47488 -9.052,-7.42467 l -22.0707,-52.786378 0,59.193978 -10.5775,0" />
      <g
         style="stroke:#ffffff;stroke-width:12.75590515;stroke-miterlimit:4;stroke-dasharray:none;stroke-opacity:1"
         transform="matrix(0.54605522,0,0,0.54605522,410.6393,-1.1972973)"
         id="g435-0-9">
        <path
           style="fill:#49a942;stroke:#ffffff;stroke-width:12.75590515;stroke-miterlimit:4;stroke-dasharray:none;stroke-opacity:1"
           inkscape:connector-curvature="0"
           id="path437-6-9"
           d="m 636.912,150 -74.655,0 c -18.823,0 -33.181,3.702 -42.674,10.768 -9.408,7.009 -15.887,18.775 -19.254,34.852 l 0.093,0.14 c -1.384,5.561 -1.422,6.849 -1.422,7.103 l 0,175.735 c 0,3.147 0.012,5.771 0.268,7.8 0.255,2.077 0.592,4.318 1.119,6.669 3.129,16.424 9.315,28.409 18.462,35.27 9.233,6.926 23.726,10.665 43.134,10.665 l 74.394,0 c 42.54,0 63.624,-20.198 63.624,-60.813 l 0,-167.59 C 700,169.983 679.091,150 636.912,150 Z M 642,359.794 c 0,8.047 -1.601,13.426 -5.138,16.638 -3.445,3.137 -9.373,4.568 -18.363,4.568 l -38.64,0 c -8.78,0 -14.858,-1.667 -18.456,-5.288 C 557.808,372.102 556,366.289 556,357.75 l 0,-126.715 c 0,-9.091 1.693,-14.933 5.051,-18.274 3.363,-3.34 9.357,-4.761 18.202,-4.761 l 39.03,0 c 8.845,0 14.794,1.555 18.429,5.167 3.64,3.624 5.289,9.333 5.289,17.868 l 0,128.759 z" />
        <path
           style="fill:#49a942;stroke:#ffffff;stroke-width:12.75590515;stroke-miterlimit:4;stroke-dasharray:none;stroke-opacity:1"
           inkscape:connector-curvature="0"
           id="path439-2-2"
           d="m 891,379.951 0,-59.39 -1.354,-12.028 C 883.862,279.31 865.71,265.101 834.313,265.101 l -50.426,-0.021 c -13.341,-1.586 -17.598,-9.205 -18.715,-15.317 l -0.172,-0.538 0,-24.383 1.472,-6.938 0.252,-0.383 c 2.917,-5.6 7.964,-8.728 14.948,-9.694 l 0.438,0.173 108.89,0 0,-58 -126.059,0 c -16.151,0 -28.681,3.358 -37.243,9.743 -8.519,6.357 -14.603,16.993 -18.226,31.493 -1.025,4.098 -1.473,8.863 -1.473,14.048 l 0,62.54 c 0,10.265 3.065,20.305 9.253,29.841 11.454,16.662 26.787,24.794 46.907,24.794 l 52.902,0.021 c 10.55,1.281 15.938,7.258 15.938,17.284 l 0,21.255 c 0,8.813 -4.306,15.286 -12.776,18.722 l -0.096,-0.027 -4.066,1.286 -108.061,0 0,58 132.656,0 C 874.33,434 891,414.869 891,379.951 Z" />
        <path
           style="fill:#2980b9;stroke:#ffffff;stroke-width:12.75590515;stroke-miterlimit:4;stroke-dasharray:none;stroke-opacity:1"
           inkscape:connector-curvature="0"
           id="path441-0-9"
           d="m 1240.877,439 0.401,-289 -57.278,0 0,150 -75.808,0 61.313,-150 -61.777,0 -60.55,147.863 c -2.573,5.883 -3.864,11.824 -3.864,17.604 0,9.006 3.07,17.421 9.124,24.956 5.326,6.574 11.065,10.962 17.048,13.2 6.143,2.299 15.663,3.377 28.296,3.377 l 86.218,0 0,82 56.877,0 z" />
        <path
           style="fill:#49a942;stroke:#ffffff;stroke-width:12.75590515;stroke-miterlimit:4;stroke-dasharray:none;stroke-opacity:1"
           inkscape:connector-curvature="0"
           id="path443-8-8"
           d="m 1263.163,165.388 c -10.13,10.13 -15.163,28.583 -15.163,54.611 l 0,138.159 c 0,19.576 0.831,33.366 2.674,40.988 1.771,7.36 5.743,14.476 11.907,21.152 6.161,6.679 13.28,11.654 21.214,14.34 8.094,2.743 19.434,4.361 33.756,4.361 l 72.759,0 c 14.934,0 26.807,-2.706 35.29,-7.594 8.406,-4.835 15.408,-13.578 21.111,-25.764 3.615,-7.488 5.289,-20.642 5.289,-38.9 l 0,-91.741 -57,0 0,90.274 -0.047,0.167 c -0.652,5.836 -2.916,9.92 -6.7,12.323 -3.52,2.239 -8.873,3.235 -16.337,3.235 l -50.547,0 -0.265,0.046 c -6.984,-1.265 -11.707,-4.397 -14.039,-9.404 l -0.1,-0.218 -1.816,-4.981 0.032,-144.026 c 1.621,-10.983 8.53,-13.907 14.041,-14.597 l 0.372,0.181 113.406,0 0,-58 -115.857,0 c -25.757,0 -43.85,5.257 -53.98,15.388 z" />
        <g
           style="stroke:#ffffff;stroke-width:12.75590515;stroke-miterlimit:4;stroke-dasharray:none;stroke-opacity:1"
           id="g445-9-4">
          <path
             style="fill:#49a942;stroke:#ffffff;stroke-width:12.75590515;stroke-miterlimit:4;stroke-dasharray:none;stroke-opacity:1"
             inkscape:connector-curvature="0"
             id="path447-4-8"
             d="m 492,265 -99.086,0 0.043,-40.452 C 394.271,216.884 399.55,208 417.239,208 l 74.761,0 0,-5.168 c 0,-0.823 0.089,-2.417 1.586,-8.438 3.681,-17.525 10.866,-30.417 21.474,-38.319 1.844,-1.372 3.792,-2.62 5.94,-3.755 l 0,-2.32 -121.817,0 c -13.849,0 -23.908,0.913 -29.899,2.476 -5.774,1.506 -11.48,4.784 -16.961,9.624 -5.47,4.834 -9.443,11.002 -12.249,18.277 -2.852,7.375 -4.074,16.462 -4.074,26.951 l 0,231.672 57,0 0,-117 99,0 0,-57 z" />
        </g>
        <g
           style="stroke:#ffffff;stroke-width:12.75590515;stroke-miterlimit:4;stroke-dasharray:none;stroke-opacity:1"
           id="g449-1-1">
          <path
             style="fill:#49a942;stroke:#ffffff;stroke-width:12.75590515;stroke-miterlimit:4;stroke-dasharray:none;stroke-opacity:1"
             inkscape:connector-curvature="0"
             id="path451-0-1"
             d="m 1067.382,359.358 c -6.999,-2.618 -13.598,-7.711 -19.615,-15.138 -6.939,-8.637 -10.454,-18.288 -10.454,-28.693 0,-6.613 1.46,-13.304 4.339,-19.884 l 10.284,-25.093 c -7.854,-3.639 -17.339,-5.449 -28.517,-5.449 l -50.408,-0.021 c -13.341,-1.586 -17.66,-9.205 -18.777,-15.317 l -0.234,-0.538 0,-24.383 1.543,-6.938 0.287,-0.383 c 2.917,-5.6 7.982,-8.728 14.966,-9.694 l 0.454,0.173 106.321,0 2.428,-5.926 0,-52.074 -125.916,0 c -16.151,0 -28.681,3.358 -37.243,9.743 -8.519,6.357 -14.674,16.993 -18.297,31.493 -1.025,4.098 -1.543,8.863 -1.543,14.048 l 0,62.54 c 0,10.265 3.136,20.305 9.324,29.841 11.454,16.662 26.822,24.794 46.942,24.794 l 52.849,0.021 c 10.55,1.281 15.884,7.258 15.884,17.284 l 0,21.255 c 0,8.813 -4.235,15.286 -12.705,18.722 l -0.061,-0.027 -4.031,1.286 -108.202,0 0,58 132.797,0 C 1063.472,434 1080,414.869 1080,379.951 l 0,-17.714 c -5,-0.637 -9.183,-1.593 -12.618,-2.879 z" />
        </g>
      </g>
      <g
         style="stroke:#ffffff;stroke-width:12.75590515;stroke-linecap:butt;stroke-linejoin:round;stroke-miterlimit:4;stroke-dasharray:none;stroke-opacity:1"
         transform="matrix(0.54605522,0,0,0.54605522,410.6393,-1.1972973)"
         id="g411-9-6">
        <g
           style="stroke:#ffffff;stroke-width:12.75590515;stroke-linecap:butt;stroke-linejoin:round;stroke-miterlimit:4;stroke-dasharray:none;stroke-opacity:1"
           id="g413-1-5">
          <path
             style="fill:#7f8c8d;stroke:#ffffff;stroke-width:12.75590515;stroke-linecap:butt;stroke-linejoin:round;stroke-miterlimit:4;stroke-dasharray:none;stroke-opacity:1"
             inkscape:connector-curvature="0"
             id="path415-1-7"
             d="m 296.715,466.447 -11.771,-114.42 c 0,0 -46.309,-25.959 -87.441,45.014 l 0,117.418 c 0,0 25.63,-33.66 99.212,-48.012 z" />
          <path
             style="fill:#b0c2c2;stroke:#ffffff;stroke-width:12.75590515;stroke-linecap:butt;stroke-linejoin:round;stroke-miterlimit:4;stroke-dasharray:none;stroke-opacity:1"
             inkscape:connector-curvature="0"
             id="path417-6-2"
             d="m 191.764,395.128 c 7.894,-13.619 15.976,-23.658 23.887,-31.007 -4.496,0 -14.917,0 -33.013,0 -24.254,0 -82.276,-27.383 -87.415,-29.829 l 74.497,91.081 22.044,26.871 0,-57.116 z" />
          <path
             style="fill:#b0c2c2;stroke:#ffffff;stroke-width:12.75590515;stroke-linecap:butt;stroke-linejoin:round;stroke-miterlimit:4;stroke-dasharray:none;stroke-opacity:1"
             inkscape:connector-curvature="0"
             id="path419-9-3"
             d="m 277.038,476.591 c -0.075,-0.102 -0.156,-0.218 -0.237,-0.335 -41.769,12.262 -64.049,30.061 -73.009,38.748 0.442,0.891 1.005,1.924 1.757,3.159 25.831,54.17 70.903,67.29 114.451,62.987 l 0,-92.113 c -22.866,0.063 -39.892,-8.303 -42.962,-12.446 z" />
          <path
             style="fill:#7f8c8d;stroke:#ffffff;stroke-width:12.75590515;stroke-linecap:butt;stroke-linejoin:round;stroke-miterlimit:4;stroke-dasharray:none;stroke-opacity:1"
             inkscape:connector-curvature="0"
             id="path421-8-4"
             d="M 191.764,461.891 86.954,333.745 15.345,422.551 c 0,0 -9.688,14.688 0.306,29.412 9.994,14.728 100.604,113.063 100.604,113.063 l 75.509,-66.905 0,-36.23 z" />
        </g>
        <path
           style="fill:#b0c2c2;stroke:#ffffff;stroke-width:12.75590515;stroke-linecap:butt;stroke-linejoin:round;stroke-miterlimit:4;stroke-dasharray:none;stroke-opacity:1"
           inkscape:connector-curvature="0"
           id="path423-0-1"
           d="m 1004.665,376.027 3.136,-1.042 c 6.218,-2.55 9.115,-6.723 9.115,-13.126 l 0,-21.255 c 0,-5.627 -2.215,-8.985 -7.071,-10.535 -29.108,15.9 -68.045,31.083 -112.713,45.313 l 0,0.645 107.533,0 z" />
        <polygon
           style="fill:#b0c2c2;stroke:#ffffff;stroke-width:12.75590515;stroke-linecap:butt;stroke-linejoin:round;stroke-miterlimit:4;stroke-dasharray:none;stroke-opacity:1"
           id="polygon425-3-0"
           points="1117.568,294.686 1177.949,294.686 1177.949,147.354 " />
        <path
           style="fill:#b0c2c2;stroke:#ffffff;stroke-width:12.75590515;stroke-linecap:butt;stroke-linejoin:round;stroke-miterlimit:4;stroke-dasharray:none;stroke-opacity:1"
           inkscape:connector-curvature="0"
           id="path427-5-0"
           d="m 1086.273,188.662 17.861,-43.582 93.854,0 c 22.704,-24.965 87.293,-27.973 87.293,-27.973 l 715.6,-59.742 -46.754,1.3 c 0,0 -375.052,2.399 -732.113,30.675 -165.79,13.129 -231.044,35.459 -253.188,55.74 l 117.448,0 0,43.582 z" />
        <path
           style="fill:#b0c2c2;stroke:#ffffff;stroke-width:12.75590515;stroke-linecap:butt;stroke-linejoin:round;stroke-miterlimit:4;stroke-dasharray:none;stroke-opacity:1"
           inkscape:connector-curvature="0"
           id="path429-6-5"
           d="m 1038.521,231.395 c 10.014,7.32 17.018,14.596 21.301,21.809 l 15.887,-38.766 -62.624,0 25.436,16.957 z" />
        <path
           style="fill:#b0c2c2;stroke:#ffffff;stroke-width:12.75590515;stroke-linecap:butt;stroke-linejoin:round;stroke-miterlimit:4;stroke-dasharray:none;stroke-opacity:1"
           inkscape:connector-curvature="0"
           id="path431-5-8"
           d="m 1177.949,364.043 -79.734,0 c -4.347,0 -8.317,-0.131 -11.941,-0.393 l 0,17.141 c 0,37.988 -18.657,59.712 -55.452,64.568 l -0.195,0.025 -139.199,0 0,-33.197 c -8.076,18.74 -24.707,29.867 -49.749,33.172 l -0.195,0.025 -139.197,0 0,-19.693 c -4.502,0.972 -9.006,1.936 -13.511,2.889 -11.563,11.174 -28.91,16.805 -51.967,16.805 l -32.179,0 c -147.502,27.817 -276.849,44.129 -291.001,43.452 l -6.892,93.073 c 379.576,-14.222 760.487,-119.55 871.212,-152.424 l 0,-65.443 z" />
        <path
           style="fill:#b0c2c2;stroke:#ffffff;stroke-width:12.75590515;stroke-linecap:butt;stroke-linejoin:round;stroke-miterlimit:4;stroke-dasharray:none;stroke-opacity:1"
           inkscape:connector-curvature="0"
           id="path433-4-5"
           d="m 1419.05,250.877 c -43.275,-12.27 -78.216,-22.396 -106.442,-30.76 -0.46,1.104 -0.801,2.371 -1.026,3.81 l 0,142.31 1.407,3.868 c 1.477,3.063 4.541,5.003 9.358,5.923 l 24.899,0 42.13,-13.404 0,-92.464 69.357,0 0,67.802 c 117.827,-52.696 -27.07,-83.847 -39.683,-87.085 z" />
      </g>
      <g
         transform="matrix(0.54605522,0,0,0.54605522,410.6393,-1.1972973)"
         id="g411-2-7">
        <g
           id="g413-7-8">
          <path
             style="fill:#7f8c8d"
             inkscape:connector-curvature="0"
             id="path415-6-3"
             d="m 296.715,466.447 -11.771,-114.42 c 0,0 -46.309,-25.959 -87.441,45.014 l 0,117.418 c 0,0 25.63,-33.66 99.212,-48.012 z" />
          <path
             style="fill:#b0c2c2"
             inkscape:connector-curvature="0"
             id="path417-5-4"
             d="m 191.764,395.128 c 7.894,-13.619 15.976,-23.658 23.887,-31.007 -4.496,0 -14.917,0 -33.013,0 -24.254,0 -82.276,-27.383 -87.415,-29.829 l 74.497,91.081 22.044,26.871 0,-57.116 z" />
          <path
             style="fill:#b0c2c2"
             inkscape:connector-curvature="0"
             id="path419-5-1"
             d="m 277.038,476.591 c -0.075,-0.102 -0.156,-0.218 -0.237,-0.335 -41.769,12.262 -64.049,30.061 -73.009,38.748 0.442,0.891 1.005,1.924 1.757,3.159 25.831,54.17 70.903,67.29 114.451,62.987 l 0,-92.113 c -22.866,0.063 -39.892,-8.303 -42.962,-12.446 z" />
          <path
             style="fill:#7f8c8d"
             inkscape:connector-curvature="0"
             id="path421-7-5"
             d="M 191.764,461.891 86.954,333.745 15.345,422.551 c 0,0 -9.688,14.688 0.306,29.412 9.994,14.728 100.604,113.063 100.604,113.063 l 75.509,-66.905 0,-36.23 z" />
        </g>
        <path
           style="fill:#b0c2c2"
           inkscape:connector-curvature="0"
           id="path423-5-2"
           d="m 1004.665,376.027 3.136,-1.042 c 6.218,-2.55 9.115,-6.723 9.115,-13.126 l 0,-21.255 c 0,-5.627 -2.215,-8.985 -7.071,-10.535 -29.108,15.9 -68.045,31.083 -112.713,45.313 l 0,0.645 107.533,0 z" />
        <polygon
           style="fill:#b0c2c2"
           id="polygon425-5-3"
           points="1117.568,294.686 1177.949,294.686 1177.949,147.354 " />
        <path
           style="fill:#b0c2c2"
           inkscape:connector-curvature="0"
           id="path427-3-8"
           d="m 1086.273,188.662 17.861,-43.582 93.854,0 c 22.704,-24.965 87.293,-27.973 87.293,-27.973 l 715.6,-59.742 -46.754,1.3 c 0,0 -375.052,2.399 -732.113,30.675 -165.79,13.129 -231.044,35.459 -253.188,55.74 l 117.448,0 0,43.582 z" />
        <path
           style="fill:#b0c2c2"
           inkscape:connector-curvature="0"
           id="path429-8-4"
           d="m 1038.521,231.395 c 10.014,7.32 17.018,14.596 21.301,21.809 l 15.887,-38.766 -62.624,0 25.436,16.957 z" />
        <path
           style="fill:#b0c2c2"
           inkscape:connector-curvature="0"
           id="path431-3-4"
           d="m 1177.949,364.043 -79.734,0 c -4.347,0 -8.317,-0.131 -11.941,-0.393 l 0,17.141 c 0,37.988 -18.657,59.712 -55.452,64.568 l -0.195,0.025 -139.199,0 0,-33.197 c -8.076,18.74 -24.707,29.867 -49.749,33.172 l -0.195,0.025 -139.197,0 0,-19.693 c -4.502,0.972 -9.006,1.936 -13.511,2.889 -11.563,11.174 -28.91,16.805 -51.967,16.805 l -32.179,0 c -147.502,27.817 -276.849,44.129 -291.001,43.452 l -6.892,93.073 c 379.576,-14.222 760.487,-119.55 871.212,-152.424 l 0,-65.443 z" />
        <path
           style="fill:#b0c2c2"
           inkscape:connector-curvature="0"
           id="path433-9-7"
           d="m 1419.05,250.877 c -43.275,-12.27 -78.216,-22.396 -106.442,-30.76 -0.46,1.104 -0.801,2.371 -1.026,3.81 l 0,142.31 1.407,3.868 c 1.477,3.063 4.541,5.003 9.358,5.923 l 24.899,0 42.13,-13.404 0,-92.464 69.357,0 0,67.802 c 117.827,-52.696 -27.07,-83.847 -39.683,-87.085 z" />
      </g>
      <g
         transform="matrix(0.54605522,0,0,0.54605522,410.6393,-1.1972973)"
         id="g435-1-8">
        <path
           style="fill:#49a942"
           inkscape:connector-curvature="0"
           id="path437-5-3"
           d="m 636.912,150 -74.655,0 c -18.823,0 -33.181,3.702 -42.674,10.768 -9.408,7.009 -15.887,18.775 -19.254,34.852 l 0.093,0.14 c -1.384,5.561 -1.422,6.849 -1.422,7.103 l 0,175.735 c 0,3.147 0.012,5.771 0.268,7.8 0.255,2.077 0.592,4.318 1.119,6.669 3.129,16.424 9.315,28.409 18.462,35.27 9.233,6.926 23.726,10.665 43.134,10.665 l 74.394,0 c 42.54,0 63.624,-20.198 63.624,-60.813 l 0,-167.59 C 700,169.983 679.091,150 636.912,150 Z M 642,359.794 c 0,8.047 -1.601,13.426 -5.138,16.638 -3.445,3.137 -9.373,4.568 -18.363,4.568 l -38.64,0 c -8.78,0 -14.858,-1.667 -18.456,-5.288 C 557.808,372.102 556,366.289 556,357.75 l 0,-126.715 c 0,-9.091 1.693,-14.933 5.051,-18.274 3.363,-3.34 9.357,-4.761 18.202,-4.761 l 39.03,0 c 8.845,0 14.794,1.555 18.429,5.167 3.64,3.624 5.289,9.333 5.289,17.868 l 0,128.759 z" />
        <path
           style="fill:#49a942"
           inkscape:connector-curvature="0"
           id="path439-0-8"
           d="m 891,379.951 0,-59.39 -1.354,-12.028 C 883.862,279.31 865.71,265.101 834.313,265.101 l -50.426,-0.021 c -13.341,-1.586 -17.598,-9.205 -18.715,-15.317 l -0.172,-0.538 0,-24.383 1.472,-6.938 0.252,-0.383 c 2.917,-5.6 7.964,-8.728 14.948,-9.694 l 0.438,0.173 108.89,0 0,-58 -126.059,0 c -16.151,0 -28.681,3.358 -37.243,9.743 -8.519,6.357 -14.603,16.993 -18.226,31.493 -1.025,4.098 -1.473,8.863 -1.473,14.048 l 0,62.54 c 0,10.265 3.065,20.305 9.253,29.841 11.454,16.662 26.787,24.794 46.907,24.794 l 52.902,0.021 c 10.55,1.281 15.938,7.258 15.938,17.284 l 0,21.255 c 0,8.813 -4.306,15.286 -12.776,18.722 l -0.096,-0.027 -4.066,1.286 -108.061,0 0,58 132.656,0 C 874.33,434 891,414.869 891,379.951 Z" />
        <path
           style="fill:#2980b9"
           inkscape:connector-curvature="0"
           id="path441-9-2"
           d="m 1240.877,439 0.401,-289 -57.278,0 0,150 -75.808,0 61.313,-150 -61.777,0 -60.55,147.863 c -2.573,5.883 -3.864,11.824 -3.864,17.604 0,9.006 3.07,17.421 9.124,24.956 5.326,6.574 11.065,10.962 17.048,13.2 6.143,2.299 15.663,3.377 28.296,3.377 l 86.218,0 0,82 56.877,0 z" />
        <path
           style="fill:#49a942"
           inkscape:connector-curvature="0"
           id="path443-6-4"
           d="m 1263.163,165.388 c -10.13,10.13 -15.163,28.583 -15.163,54.611 l 0,138.159 c 0,19.576 0.831,33.366 2.674,40.988 1.771,7.36 5.743,14.476 11.907,21.152 6.161,6.679 13.28,11.654 21.214,14.34 8.094,2.743 19.434,4.361 33.756,4.361 l 72.759,0 c 14.934,0 26.807,-2.706 35.29,-7.594 8.406,-4.835 15.408,-13.578 21.111,-25.764 3.615,-7.488 5.289,-20.642 5.289,-38.9 l 0,-91.741 -57,0 0,90.274 -0.047,0.167 c -0.652,5.836 -2.916,9.92 -6.7,12.323 -3.52,2.239 -8.873,3.235 -16.337,3.235 l -50.547,0 -0.265,0.046 c -6.984,-1.265 -11.707,-4.397 -14.039,-9.404 l -0.1,-0.218 -1.816,-4.981 0.032,-144.026 c 1.621,-10.983 8.53,-13.907 14.041,-14.597 l 0.372,0.181 113.406,0 0,-58 -115.857,0 c -25.757,0 -43.85,5.257 -53.98,15.388 z" />
        <g
           id="g445-7-9">
          <path
             style="fill:#49a942"
             inkscape:connector-curvature="0"
             id="path447-43-6"
             d="m 492,265 -99.086,0 0.043,-40.452 C 394.271,216.884 399.55,208 417.239,208 l 74.761,0 0,-5.168 c 0,-0.823 0.089,-2.417 1.586,-8.438 3.681,-17.525 10.866,-30.417 21.474,-38.319 1.844,-1.372 3.792,-2.62 5.94,-3.755 l 0,-2.32 -121.817,0 c -13.849,0 -23.908,0.913 -29.899,2.476 -5.774,1.506 -11.48,4.784 -16.961,9.624 -5.47,4.834 -9.443,11.002 -12.249,18.277 -2.852,7.375 -4.074,16.462 -4.074,26.951 l 0,231.672 57,0 0,-117 99,0 0,-57 z" />
        </g>
        <g
           id="g449-3-2">
          <path
             style="fill:#49a942"
             inkscape:connector-curvature="0"
             id="path451-01-7"
             d="m 1067.382,359.358 c -6.999,-2.618 -13.598,-7.711 -19.615,-15.138 -6.939,-8.637 -10.454,-18.288 -10.454,-28.693 0,-6.613 1.46,-13.304 4.339,-19.884 l 10.284,-25.093 c -7.854,-3.639 -17.339,-5.449 -28.517,-5.449 l -50.408,-0.021 c -13.341,-1.586 -17.66,-9.205 -18.777,-15.317 l -0.234,-0.538 0,-24.383 1.543,-6.938 0.287,-0.383 c 2.917,-5.6 7.982,-8.728 14.966,-9.694 l 0.454,0.173 106.321,0 2.428,-5.926 0,-52.074 -125.916,0 c -16.151,0 -28.681,3.358 -37.243,9.743 -8.519,6.357 -14.674,16.993 -18.297,31.493 -1.025,4.098 -1.543,8.863 -1.543,14.048 l 0,62.54 c 0,10.265 3.136,20.305 9.324,29.841 11.454,16.662 26.822,24.794 46.942,24.794 l 52.849,0.021 c 10.55,1.281 15.884,7.258 15.884,17.284 l 0,21.255 c 0,8.813 -4.235,15.286 -12.705,18.722 l -0.061,-0.027 -4.031,1.286 -108.202,0 0,58 132.797,0 C 1063.472,434 1080,414.869 1080,379.951 l 0,-17.714 c -5,-0.637 -9.183,-1.593 -12.618,-2.879 z" />
        </g>
      </g>
      <g
         transform="matrix(0.54605522,0,0,0.54605522,1236.5923,239.00196)"
         style="font-size:186.2592926px;font-family:DicotMedium;letter-spacing:0px;fill:#2c3e50;stroke:none"
         id="text455-17-3">
        <path
           d="m 17.322114,0 0,-41.535822 0.372519,-5.40152 c 1.241709,-9.064563 4.718546,-15.894063 10.43052,-20.488522 5.836091,-4.594324 11.982641,-6.891519 18.43967,-6.891594 l 27.938894,0 c 1.862517,7.5e-5 3.538849,-0.558703 5.029001,-1.676333 1.614166,-1.241652 2.731721,-2.793811 3.352667,-4.656483 0.620781,-1.241646 0.931213,-2.421287 0.931297,-3.538926 l 0,-18.99845 -0.18626,-2.42137 c -0.74512,-4.9668 -3.228574,-7.88486 -7.450371,-8.75419 l -2.235112,-0.37251 -56.622825,0 0,-19.37097 55.31901,0 c 8.940365,1.3e-4 16.20447,2.60776 21.792337,7.82289 l 3.538927,4.0977 c 3.476742,4.96704 5.215152,10.18229 5.215262,15.64578 l 0,22.537379 c -1.1e-4,10.306421 -4.097805,18.253476 -12.293115,23.841189 -5.339519,3.60107 -10.803119,5.401575 -16.390818,5.40152 l -25.703782,0 -2.048853,0.186259 c -3.725228,0.745091 -6.27077,1.924732 -7.636631,3.538927 -1.365939,1.614296 -2.048889,4.221924 -2.048852,7.82289 l 0,23.84119 66.308311,-0.18626 0,19.557226 -86.051796,0"
           style="letter-spacing:20.35000038px;stroke:none"
           id="path3486-9-4"
           inkscape:connector-curvature="0" />
        <path
           d="m 135.42063,-37.62438 0,-58.85793 c -10e-6,-6.70523 0.68294,-12.04466 2.04885,-16.0183 1.36589,-4.09759 3.78726,-8.00903 7.26412,-11.73434 3.60098,-3.84923 7.51242,-6.45686 11.73433,-7.82289 4.22184,-1.36577 10.803,-2.04872 19.74349,-2.04885 l 14.71448,0 c 9.06454,1.3e-4 15.6457,0.68308 19.74349,2.04885 4.09761,1.24186 8.07114,3.91157 11.92059,8.00915 6.08436,6.45711 9.1266,15.64589 9.12671,27.56638 l 0,58.85793 c -1.1e-4,6.5812 -0.68306,11.98271 -2.04886,16.20456 -1.366,4.09772 -3.72529,7.88499 -7.07785,11.36182 -3.84945,3.97354 -7.88507,6.64325 -12.10685,8.00915 C 206.38534,-0.68295 199.86627,0 190.9259,0 l -14.71448,0 c -12.5415,0 -22.28906,-3.22849 -29.24271,-9.68548 -5.09111,-4.59439 -8.50586,-10.61676 -10.24426,-18.06715 -0.49671,-3.22847 -0.93131,-6.51905 -1.30382,-9.87175 m 35.57553,18.06715 2.23511,0.18626 20.86104,0 2.42137,-0.18626 c 6.08439,2e-5 10.18209,-1.17962 12.29311,-3.53892 2.23503,-2.48343 3.35258,-7.01574 3.35267,-13.59693 l 0,-60.72053 c -9e-5,-6.58106 -1.11764,-11.05128 -3.35267,-13.41067 -2.11102,-2.48334 -6.20872,-3.72507 -12.29311,-3.72518 l -2.42137,-0.18626 -20.86104,0 -2.23511,0.18626 c -6.20869,1.1e-4 -10.49265,1.24184 -12.8519,3.72518 -2.23514,2.35939 -3.35269,6.82961 -3.35266,13.41067 l 0,60.72053 c -3e-5,6.45702 1.11752,10.92724 3.35266,13.41067 2.23508,2.48348 6.51904,3.7252 12.8519,3.72518"
           style="letter-spacing:20.35000038px;stroke:none"
           id="path3488-1-0"
           inkscape:connector-curvature="0" />
        <path
           d="m 291.81287,0 0,-134.10669 19.37097,0 0,134.10669 -19.37097,0"
           style="letter-spacing:20.35000038px;stroke:none"
           id="path3490-0-9"
           inkscape:connector-curvature="0" />
        <path
           d="m 369.63509,-30.174005 0,-73.013645 c -10e-6,-9.0645 2.11093,-16.14235 6.33282,-21.23356 4.34603,-5.21513 10.67884,-8.31945 18.99845,-9.31296 0.99334,-0.24821 2.5455,-0.37239 4.65648,-0.37252 l 67.05334,0 0,19.37097 -65.00449,0 c -7.07789,1.1e-4 -11.17559,3.16652 -12.29311,9.49922 l -0.37252,2.23511 0,16.763338 45.44727,0 c 8.31949,8.6e-5 15.14899,1.98685 20.48852,5.960297 5.4635,3.849435 9.06451,9.437208 10.80304,16.763336 0.49658,1.986828 0.74493,4.15985 0.74503,6.519075 l 0,26.821339 c -10e-5,9.561331 -3.78737,17.384213 -11.36181,23.4686705 C 449.54024,-2.2351093 443.82829,0 437.99225,0 l -37.62437,0 c -6.45703,0 -12.0448,-1.6142456 -16.76334,-4.8427416 -9.31298,-6.2086324 -13.96946,-14.6523784 -13.96945,-25.3312634 m 22.16486,5.401519 c 1.24169,1.738443 3.4768,3.16643 6.70533,4.283964 2.23507,0.745057 3.78723,1.117575 4.65648,1.117556 l 32.9679,0 4.0977,-0.931297 c 3.47676,-1.36588 5.71187,-4.159766 6.70534,-8.381668 l 0.18626,-1.676334 0,-24.958745 c -9e-5,-3.725127 -0.74513,-6.332754 -2.23511,-7.82289 -1.36599,-1.614183 -4.09779,-2.793824 -8.19541,-3.538927 l -2.23511,-0.186259 -32.40912,0 -2.04885,0.186259 c -7.32624,0.869276 -10.98933,4.408199 -10.9893,10.61678 l 0,24.027449 c -3e-5,2.607659 0.93126,5.029028 2.79389,7.264112"
           style="letter-spacing:20.35000038px;stroke:none"
           id="path3492-2-6"
           inkscape:connector-curvature="0" />
      </g>
      <path
         inkscape:connector-curvature="0"
         id="path3477-4-3"
         style="font-size:186.2592926px;font-family:DicotMedium;fill:#2c3e50;stroke:none"
         d="m 1245.8262,155.65816 0,-73.229658 37.1234,0 c 6.9839,7.1e-5 11.8319,3.424236 14.5442,10.272494 0.678,1.762994 1.017,3.492029 1.0171,5.187099 l 0,8.848585 c -10e-5,0.94932 -0.068,1.69518 -0.2034,2.23757 -0.3391,2.23762 -1.0511,4.17007 -2.1359,5.79735 -1.0171,1.62737 -2.3393,2.94957 -3.9666,3.96661 3.2546,1.49175 5.2887,4.44127 6.1025,8.84858 0.1355,0.54247 0.2033,1.32223 0.2034,2.33928 l 0,6.81443 c -10e-5,6.10248 -1.1528,10.64543 -3.4581,13.62885 -2.7123,3.52588 -7.1535,5.28881 -13.3237,5.28881 l -35.9029,0 m 10.3742,-10.57762 24.0031,0 c 2.8477,10e-6 4.9836,-1.32219 6.4075,-3.9666 0.7459,-1.28829 1.1188,-2.54268 1.1188,-3.76319 l 0,-6.91614 c 0,-2.03413 -1.3222,-3.72926 -3.9666,-5.08539 -1.2883,-0.54241 -2.4071,-0.81363 -3.3563,-0.81367 l -24.2065,0 0,20.54499 m 24.5116,-31.1226 c 1.5595,4e-5 2.9156,-0.37289 4.0683,-1.11879 2.1019,-1.42386 3.1529,-3.42412 3.1529,-6.00076 l 0,-7.017844 c 0,-3.593616 -2.0342,-5.797288 -6.1024,-6.611014 l -1.3222,-0.203411 -24.1048,0 0,20.951819 24.3082,0" />
      <path
         inkscape:connector-curvature="0"
         id="path3479-06-2"
         style="font-size:186.2592926px;font-family:DicotMedium;fill:#2c3e50;stroke:none"
         d="m 1310.5855,135.11317 0,-32.13968 c 0,-7.187298 1.7629,-12.408296 5.2888,-15.663009 3.5259,-3.254582 9.1876,-4.881908 16.9852,-4.881979 l 8.0349,0 c 7.7976,7.1e-5 13.4593,1.627397 16.9853,4.881979 3.5258,3.254713 5.2887,8.475711 5.2888,15.663009 l 0,32.13968 c -10e-5,7.18737 -1.763,12.40837 -5.2888,15.66301 -3.526,3.25466 -9.1877,4.88198 -16.9853,4.88198 l -8.0349,0 c -6.9161,0 -12.2727,-1.76293 -16.0698,-5.28881 -2.78,-2.57659 -4.6447,-5.86514 -5.594,-9.86566 -0.2034,-1.76292 -0.4068,-3.55976 -0.6102,-5.39052 m 19.1211,9.86566 1.5256,0.10171 11.3913,0 1.4239,-0.10171 c 3.1868,2e-5 5.3905,-0.67804 6.611,-2.03415 1.2204,-1.35609 1.8307,-3.72927 1.8307,-7.11955 l 0,-33.36018 c 0,-3.45801 -0.6103,-5.865092 -1.8307,-7.221258 -1.1527,-1.42385 -3.3225,-2.135803 -6.5093,-2.135863 l -1.5256,-0.101708 -11.3913,0 -1.5256,0.101708 c -3.2547,6e-5 -5.4923,0.678114 -6.7127,2.034154 -1.2206,1.356167 -1.8308,3.797154 -1.8308,7.322967 l 0,33.15676 c 0,3.45809 0.6102,5.89907 1.8308,7.32297 1.2882,1.35611 3.5258,2.03417 6.7127,2.03415" />
      <path
         inkscape:connector-curvature="0"
         id="path3481-1-3"
         style="font-size:186.2592926px;font-family:DicotMedium;fill:#2c3e50;stroke:none"
         d="m 1375.9407,155.65816 0,-62.957164 c 0,-7.255091 2.9157,-10.882667 8.7469,-10.882744 0.4746,7.7e-5 0.9832,7.7e-5 1.5256,0 0.2034,7.7e-5 0.9154,0.169589 2.1359,0.508542 1.2883,0.271296 2.441,0.949344 3.4581,2.034159 1.017,1.017148 1.9663,2.61057 2.8478,4.780266 l 22.0706,53.701751 0,-60.414468 10.6793,0 0,64.482778 c 0,2.57661 -0.7798,4.78028 -2.3393,6.61101 -1.5595,1.76294 -3.5598,2.78002 -6.0007,3.05124 -0.2713,0.0678 -0.5086,0.10171 -0.712,0.10171 -0.339,0 -0.5764,0 -0.7119,0 -3.9328,0 -6.9501,-2.47489 -9.052,-7.42467 l -22.0706,-52.786385 0,59.193975 -10.5777,0" />
      <path
         inkscape:connector-curvature="0"
         id="path3483-7-3"
         style="font-size:186.2592926px;font-family:DicotMedium;fill:#2c3e50;stroke:none"
         d="m 1440.3027,155.65816 0,-62.957164 c 0,-7.255091 2.9157,-10.882667 8.7469,-10.882744 0.4746,7.7e-5 0.9832,7.7e-5 1.5256,0 0.2034,7.7e-5 0.9154,0.169589 2.1359,0.508542 1.2883,0.271296 2.441,0.949344 3.4581,2.034159 1.017,1.017148 1.9663,2.61057 2.8478,4.780266 l 22.0706,53.701751 0,-60.414468 10.6793,0 0,64.482778 c 0,2.57661 -0.7798,4.78028 -2.3393,6.61101 -1.5595,1.76294 -3.5598,2.78002 -6.0007,3.05124 -0.2713,0.0678 -0.5086,0.10171 -0.712,0.10171 -0.3391,0 -0.5764,0 -0.7119,0 -3.9328,0 -6.9501,-2.47489 -9.052,-7.42467 l -22.0706,-52.786385 0,59.193975 -10.5777,0" />
    </g>
  </g>
</svg>
