<?xml version="1.0" encoding="UTF-8" standalone="no"?>
<!-- Created with Inkscape (http://www.inkscape.org/) -->

<svg
   xmlns:dc="http://purl.org/dc/elements/1.1/"
   xmlns:cc="http://creativecommons.org/ns#"
   xmlns:rdf="http://www.w3.org/1999/02/22-rdf-syntax-ns#"
   xmlns:svg="http://www.w3.org/2000/svg"
   xmlns="http://www.w3.org/2000/svg"
   xmlns:sodipodi="http://sodipodi.sourceforge.net/DTD/sodipodi-0.dtd"
   xmlns:inkscape="http://www.inkscape.org/namespaces/inkscape"
   version="1.1"
   id="svg2"
   xml:space="preserve"
   width="350.66666"
   height="350.66666"
   viewBox="0 0 350.66666 350.66666"
   sodipodi:docname="django_avatar.svg"
   inkscape:version="0.92.2 5c3e80d, 2017-08-06"><metadata
     id="metadata8"><rdf:RDF><cc:Work
         rdf:about=""><dc:format>image/svg+xml</dc:format><dc:type
           rdf:resource="http://purl.org/dc/dcmitype/StillImage" /><dc:title></dc:title></cc:Work></rdf:RDF></metadata><defs
     id="defs6"><clipPath
       clipPathUnits="userSpaceOnUse"
       id="clipPath20"><path
         d="M 0,263 H 263 V 0 H 0 Z"
         id="path18"
         inkscape:connector-curvature="0" /></clipPath></defs><sodipodi:namedview
     pagecolor="#ffffff"
     bordercolor="#666666"
     borderopacity="1"
     objecttolerance="10"
     gridtolerance="10"
     guidetolerance="10"
     inkscape:pageopacity="0"
     inkscape:pageshadow="2"
     inkscape:window-width="1920"
     inkscape:window-height="1029"
     id="namedview4"
     showgrid="false"
     inkscape:zoom="0.67300382"
     inkscape:cx="-109.9548"
     inkscape:cy="175.33333"
     inkscape:window-x="0"
     inkscape:window-y="51"
     inkscape:window-maximized="0"
     inkscape:current-layer="g10" /><g
     id="g10"
     inkscape:groupmode="layer"
     inkscape:label="django_avatar"
     transform="matrix(1.3333333,0,0,-1.3333333,0,350.66667)"><path
       d="M 0,0 H 263 V 263 H 0 Z"
       style="fill:#f58718;fill-opacity:1;fill-rule:nonzero;stroke:none"
       id="path12"
       inkscape:connector-curvature="0" /><g
       id="g14"><g
         id="g16"
         clip-path="url(#clipPath20)"><g
           id="g22"
           transform="translate(103.562,163.2588)"><path
             d="m 0,0 c -0.189,-2.117 -11.625,-11.762 -16.354,-13.291 -4.24,-1.371 -18.33,-0.262 -24.074,0.254 -5.828,0.523 -16.47,3.342 -19.59,6.578 -1.378,1.428 -0.861,8.303 -0.673,10.4 0.17,1.889 8.097,5.252 13.982,5.875 4.824,0.51 20.471,3.985 27.211,3.381 6.56,-0.59 13.545,-1.217 17.199,-6.363 C 1.252,1.832 0.174,1.93 0,0 m 23.07,9.73 c -0.449,5.239 -1.804,15.477 -2.738,28.76 -0.857,12.17 -0.631,23.799 -2.148,25.295 -2.911,2.861 -8.09,1.6 -11.311,1.516 C 5.955,65.277 4.711,57.334 4.148,48.377 3.576,39.252 3.838,29.643 3.111,30.098 c -9.17,5.732 -15.453,5.703 -30.662,6.265 -20.474,0.756 -47.916,-5.463 -56.017,-14.449 -1.522,-1.689 -2.065,-18.215 -1.514,-22.455 0.832,-6.4 0.846,-10.422 5.92,-14.588 3.742,-3.072 18.064,-10.943 27.232,-12.82 3.807,-0.78 18.543,1.492 22.614,2.213 13.16,2.334 26.863,5.027 31.273,3.828 0.527,-0.143 0.188,-5.74 1.682,-5.873 2.49,-0.225 22.644,-1.141 24.068,0.246 2.661,2.588 -3.801,27.553 -4.637,37.265"
             style="fill:#171316;fill-opacity:1;fill-rule:nonzero;stroke:none"
             id="path24"
             inkscape:connector-curvature="0" /></g><g
           id="g26"
           transform="translate(141.668,83.5)"><path
             d="m 0,0 c -4.398,14.92 -4.822,38.607 -4.533,41.834 0.035,0.402 15.304,-0.071 18.521,-0.136 3.033,-0.061 16.989,1.077 16.354,-1.364 -0.438,-1.685 -0.627,-21.421 7.824,-25.668 8.973,-4.507 24.213,-4.23 30.5,-4.076 7.742,0.189 11.668,1.911 15.375,7.429 5.479,8.155 4.154,25.204 5.955,24.313 1.684,-0.833 10.424,1.239 11.604,0.3 2.351,-1.878 -0.127,-63.353 -1.891,-64.323 -0.711,-0.391 -13.311,0.326 -14.168,-0.001 -1.771,-0.675 -0.064,2.498 -0.773,2.734 -0.651,0.217 -6.227,-2.733 -17.393,-2.733 -10.906,0 -39.893,-0.512 -47.414,1.624 C 12.465,-17.94 4.057,-13.77 0,0"
             style="fill:#171316;fill-opacity:1;fill-rule:nonzero;stroke:none"
             id="path28"
             inkscape:connector-curvature="0" /></g><g
           id="g30"
           transform="translate(243.0508,190.0723)"><path
             d="m 0,0 c 2.461,-3.787 1.531,-22.787 -1.869,-26.666 -1.113,-1.268 -15.75,-0.082 -30.012,-0.441 -15.787,-0.399 -31.346,-2.338 -32.656,-3.809 -0.586,-0.658 -13.248,-10.916 -4.776,-13.309 5.875,-1.66 23.936,-2.304 33.6,-1.601 14.227,1.037 36.555,5.553 37.1,4.801 0.791,-1.09 -1.617,-10.446 -2.965,-11.26 -6.215,-3.758 -20.078,-2.742 -36.162,-2.533 -13.664,0.175 -29.776,-0.819 -35.227,0.408 -15.172,3.412 -33.931,21.408 -32.908,35.435 0.486,6.653 0.689,11.955 7.711,16.926 3.578,2.535 9.725,4.844 15.844,6.684 7.187,2.162 14.677,3.607 22.998,3.025 C -46.438,6.756 -4.242,6.533 0,0"
             style="fill:#171316;fill-opacity:1;fill-rule:nonzero;stroke:none"
             id="path32"
             inkscape:connector-curvature="0" /></g><g
           id="g34"
           transform="translate(60.3315,90.166)"><path
             d="m 0,0 c -4.567,1.055 -8.275,6.247 -7.164,8.834 1.059,2.465 8.252,5.486 12.072,5.486 11.082,0 44.85,-0.724 49.758,-2.82 3.08,-1.313 5.602,-4.144 5.205,-6.65 C 59.479,2.341 37.686,-3.802 32.666,-3.166 29.984,-2.826 10.046,-2.32 0,0 m 66.197,-16.346 c -3.816,-0.216 -1.672,-1.963 -16.494,-3 -10.068,-0.703 -41.455,-2.327 -47.576,-0.667 -8.826,2.393 -1.652,6.842 -1.041,7.5 1.365,1.471 14.98,-0.731 31.428,-0.333 14.857,0.36 26.716,1.934 33.683,8.666 5.905,5.705 3.371,32.382 -0.689,36 -4.863,4.333 -27.44,4.571 -42.371,4.5 -8.69,-0.041 -32.901,-2.586 -40.389,-4.748 -6.375,-1.84 -9.361,-3.55 -13.088,-6.085 -7.316,-4.97 -10.777,-7.514 -11.283,-14.167 -1.066,-14.027 1.66,-27.967 8.648,-33 6.946,-5 22.09,-7 51.946,-6.778 16.756,0.124 41.42,-0.647 47.894,3.11 1.405,0.815 2.285,9.168 -0.668,9.002"
             style="fill:#171316;fill-opacity:1;fill-rule:nonzero;stroke:none"
             id="path36"
             inkscape:connector-curvature="0" /></g><g
           id="g38"
           transform="translate(97.6304,114.7705)"><path
             d="M 0,0 C -0.205,0 -0.406,0.004 -0.605,0.016 L -2.35,0.119 -2.391,1.748 c -0.172,6.91 0.657,11.854 5.52,18.17 1.75,2.273 3.586,5.762 3,8.105 -0.24,0.957 -0.861,1.657 -1.955,2.202 -0.881,0.437 -2.151,0.443 -3.483,0.015 -1.693,-0.543 -3.195,-1.679 -3.738,-2.824 l -3.486,1.438 c 0.974,2.054 3.265,3.873 5.982,4.746 2.364,0.759 4.68,0.673 6.52,-0.241 C 8.016,32.34 9.354,30.773 9.84,28.83 10.912,24.547 7.67,19.723 6.225,17.848 2.389,12.863 1.438,8.963 1.4,3.654 2.527,3.797 3.813,4.064 5.072,4.328 8.869,5.121 12.797,5.941 15.633,4.354 L 13.67,1.309 C 12.143,2.164 8.83,1.471 5.906,0.861 3.793,0.418 1.783,0 0,0"
             style="fill:#ffffff;fill-opacity:1;fill-rule:nonzero;stroke:none"
             id="path40"
             inkscape:connector-curvature="0" /></g><g
           id="g42"
           transform="translate(120.7554,141.3955)"><path
             d="m 0,0 c -0.721,0 -1.217,-0.262 -1.66,-0.873 -2.465,-3.397 -0.994,-14.158 1.867,-20.807 2.393,-5.56 4.471,-7.045 5.322,-7.045 0.617,0 1.487,0.776 2.325,2.075 2.419,3.752 4.494,15.244 0.492,22.015 C 6.547,-1.594 3.838,-0.078 0.061,0 Z M 5.529,-32.277 H 5.527 c -3.228,0 -6.209,3.121 -8.857,9.275 -1.525,3.545 -2.715,8.223 -3.182,12.514 -0.398,3.679 -0.429,8.679 1.694,11.605 C -3.662,2.711 -1.996,3.553 0,3.553 H 0.145 C 5.252,3.447 9.242,1.211 11.684,-2.92 c 2.072,-3.508 3.01,-8.445 2.635,-13.906 -0.315,-4.619 -1.541,-9.086 -3.2,-11.654 -1.625,-2.52 -3.506,-3.797 -5.59,-3.797"
             style="fill:#ffffff;fill-opacity:1;fill-rule:nonzero;stroke:none"
             id="path44"
             inkscape:connector-curvature="0" /></g><g
           id="g46"
           transform="translate(140.1641,115.3057)"><path
             d="M 0,0 C -1.711,6.639 -3.551,26.428 -1.729,34.623 L 2.004,33.902 C 1.275,30.627 1.133,24.486 1.611,17.051 2.025,10.604 2.867,4.086 3.705,0.828 Z"
             style="fill:#ffffff;fill-opacity:1;fill-rule:nonzero;stroke:none"
             id="path48"
             inkscape:connector-curvature="0" /></g><g
           id="g50"
           transform="translate(166.9043,125.251)"><path
             d="m 0,0 c -1.73,-1.658 -5.326,-2.57 -10.123,-2.57 -0.133,0 -0.266,0 -0.398,0.002 -3.973,0.043 -6.909,0.867 -8.053,2.261 -0.688,0.836 -0.819,1.975 -0.401,3.483 0.659,2.385 2.871,5.008 6.172,5.135 0.811,0.031 2.448,0.064 3.785,0.064 1.307,0 1.862,-0.029 2.075,-0.047 0.461,-0.039 0.916,-0.07 1.355,-0.101 C -0.57,7.875 1.17,7.541 1.291,3.381 1.332,1.979 0.91,0.871 0,0 m -16.521,18.127 c 0.623,0.295 2.64,0.561 3.886,0.562 h 0.047 c 1.297,0 2.986,-0.031 4.555,-0.271 2.226,-0.34 2.724,-0.881 2.795,-0.975 0.064,-0.197 0.009,-0.955 -0.565,-2.048 -0.609,-1.161 -1.31,-1.799 -1.535,-1.911 -0.603,-0.3 -1.562,-0.466 -2.701,-0.466 -2.479,0 -5.336,0.82 -6.371,1.83 -0.957,0.933 -1.223,1.673 -0.111,3.279 M 1.502,10.365 c -1.576,0.863 -3.428,1.134 -5.402,1.298 1.019,1.113 1.834,2.592 2.207,3.817 0.449,1.477 0.365,2.77 -0.243,3.741 -1.675,2.677 -6.572,3.021 -10.652,3.021 h -0.049 c -0.551,0 -1.84,-0.058 -3.166,-0.275 -1.994,-0.324 -3.16,-0.854 -3.779,-1.711 -2.094,-2.906 -1.953,-5.553 0.418,-7.865 0.607,-0.591 1.4,-1.076 2.279,-1.482 -0.849,-0.396 -1.654,-0.906 -2.39,-1.536 -1.623,-1.391 -2.829,-3.275 -3.391,-5.31 -0.719,-2.598 -0.359,-4.795 1.064,-6.53 2.424,-2.949 7.34,-3.615 11.038,-3.654 0.146,-0.002 0.293,-0.002 0.441,-0.002 h 0.002 c 4.127,0 9.707,0.633 12.851,3.644 1.643,1.575 2.44,3.579 2.372,5.958 -0.098,3.363 -1.276,5.615 -3.6,6.886"
             style="fill:#ffffff;fill-opacity:1;fill-rule:nonzero;stroke:none"
             id="path52"
             inkscape:connector-curvature="0" /></g></g></g></g></svg>