<?xml version="1.0" encoding="UTF-8" standalone="no"?>
<!-- Created with Inkscape (http://www.inkscape.org/) -->

<svg
   xmlns:dc="http://purl.org/dc/elements/1.1/"
   xmlns:cc="http://creativecommons.org/ns#"
   xmlns:rdf="http://www.w3.org/1999/02/22-rdf-syntax-ns#"
   xmlns:svg="http://www.w3.org/2000/svg"
   xmlns="http://www.w3.org/2000/svg"
   xmlns:sodipodi="http://sodipodi.sourceforge.net/DTD/sodipodi-0.dtd"
   xmlns:inkscape="http://www.inkscape.org/namespaces/inkscape"
   version="1.1"
   id="svg2"
   xml:space="preserve"
   width="848.34821"
   height="246.83337"
   viewBox="0 0 848.34819 246.83338"
   sodipodi:docname="djangocon_logo.svg"
   inkscape:version="0.92.1 r"><metadata
     id="metadata8"><rdf:RDF><cc:Work
         rdf:about=""><dc:format>image/svg+xml</dc:format><dc:type
           rdf:resource="http://purl.org/dc/dcmitype/StillImage" /><dc:title></dc:title></cc:Work></rdf:RDF></metadata><defs
     id="defs6"><clipPath
       clipPathUnits="userSpaceOnUse"
       id="clipPath20"><path
         d="M 0,595.28 H 841.89 V 0 H 0 Z"
         id="path18"
         inkscape:connector-curvature="0" /></clipPath></defs><sodipodi:namedview
     pagecolor="#ffffff"
     bordercolor="#666666"
     borderopacity="1"
     objecttolerance="10"
     gridtolerance="10"
     guidetolerance="10"
     inkscape:pageopacity="0"
     inkscape:pageshadow="2"
     inkscape:window-width="1916"
     inkscape:window-height="1023"
     id="namedview4"
     showgrid="false"
     fit-margin-top="0"
     fit-margin-left="0"
     fit-margin-right="0"
     fit-margin-bottom="0"
     inkscape:zoom="0.29733907"
     inkscape:cx="-490.60654"
     inkscape:cy="87.195806"
     inkscape:window-x="1920"
     inkscape:window-y="36"
     inkscape:window-maximized="0"
     inkscape:current-layer="g10" /><g
     id="g10"
     inkscape:groupmode="layer"
     inkscape:label="000011d3.djangoA4"
     transform="matrix(1.3333333,0,0,-1.3333333,-137.08598,556.49091)"><g
       id="g14"><g
         id="g16"
         clip-path="url(#clipPath20)"><g
           id="g22"
           transform="translate(188.1055,351.7188)"><path
             d="m 0,0 c -0.189,-2.118 -11.624,-11.762 -16.354,-13.291 -4.24,-1.372 -18.33,-0.263 -24.073,0.253 -5.829,0.523 -16.47,3.342 -19.591,6.578 -1.378,1.429 -0.861,8.303 -0.672,10.401 0.169,1.889 8.096,5.251 13.981,5.874 4.824,0.51 20.471,3.986 27.211,3.381 6.561,-0.59 13.546,-1.217 17.2,-6.363 C 1.253,1.831 0.174,1.93 0,0 m 23.07,9.73 c -0.45,5.239 -1.804,15.477 -2.739,28.76 -0.856,12.169 -0.629,23.799 -2.147,25.294 -2.91,2.862 -8.09,1.601 -11.31,1.517 C 5.956,65.276 4.712,57.333 4.149,48.377 3.577,39.251 3.839,29.642 3.111,30.097 c -9.169,5.732 -15.452,5.704 -30.662,6.265 -20.473,0.757 -47.915,-5.462 -56.016,-14.449 -1.522,-1.688 -2.065,-18.215 -1.514,-22.455 0.831,-6.399 0.845,-10.422 5.92,-14.588 3.741,-3.071 18.064,-10.943 27.232,-12.819 3.806,-0.78 18.543,1.491 22.613,2.213 13.161,2.333 26.863,5.026 31.273,3.827 0.528,-0.143 0.188,-5.739 1.682,-5.873 2.49,-0.224 22.644,-1.141 24.068,0.246 2.659,2.588 -3.802,27.553 -4.637,37.266"
             style="fill:#171316;fill-opacity:1;fill-rule:nonzero;stroke:none"
             id="path24"
             inkscape:connector-curvature="0" /></g><g
           id="g26"
           transform="translate(244.2627,310.2607)"><path
             d="m 0,0 c -0.162,1.89 0.2,2.9 -1.601,10.8 -0.694,3.048 -3.899,3.1 -7.317,2.673 -2.614,-0.327 -8.43,-0.423 -10.292,1.158 -2.371,2.014 -3.048,13.187 -1.668,15.14 2.101,2.97 8.642,2.212 15.202,2.331 2.699,0.047 25.081,2.842 28.256,0.81 2.335,-1.494 0,0 2.28,-15.447 3,-20.328 14.591,-53.491 7.729,-64.822 -4.123,-6.806 -9.852,-15.692 -16.752,-19.331 -7.917,-4.174 -36.422,-10.281 -47.154,-10.767 -23.501,-1.066 -78.909,-2.4 -92.71,14.406 -7.603,9.258 -8.927,52.796 -8.018,57.965 0.214,1.212 15.414,4.319 15.477,3.696 0.942,-9.461 18.943,-20.78 41.746,-20.78 13.8,0 62.551,8.112 69.907,11.319 C 0.7,-8.4 0.155,-1.82 0,0"
             style="fill:#171316;fill-opacity:1;fill-rule:nonzero;stroke:none"
             id="path28"
             inkscape:connector-curvature="0" /></g><g
           id="g30"
           transform="translate(365.167,352.7119)"><path
             d="m 0,0 c -0.135,-1.57 -1.501,-5.829 -7.689,-9.76 -6.19,-3.929 -17.168,-6.281 -24.6,-6.612 -8.514,-0.38 -18.03,0.31 -23.783,4.132 -4.115,2.732 -6.77,11.05 -6.638,12.586 0.114,1.327 3.618,6.062 8.629,6.767 6.849,0.965 22.529,5.825 31.073,4.764 C -9.345,10.179 0.271,3.143 0,0 m 18.348,2.897 c -0.457,7.89 0.908,21.35 -0.209,26.497 -0.286,1.318 -9.188,-0.056 -11.456,0.044 -1.268,0.056 -0.782,-4.648 -1.731,-3.775 -7.379,6.79 -20.937,8.399 -33.977,9.747 -13.102,1.355 -24.981,-2.805 -35.192,-7.822 -10.897,-5.356 -26.003,-20.077 -26.842,-28.189 -0.609,-5.891 -2.6,-8.468 2.218,-13.555 3.879,-4.096 17.002,-12.274 23.618,-14.652 4.976,-1.788 18.911,1 27.707,1.559 14.398,0.913 24.878,1.011 35.275,3.463 0.756,0.179 0.237,-4.857 1.444,-4.848 2.867,0.022 18.845,-0.541 19.379,0.744 1.482,3.562 -0.059,27.761 -0.234,30.787"
             style="fill:#171316;fill-opacity:1;fill-rule:nonzero;stroke:none"
             id="path32"
             inkscape:connector-curvature="0" /></g><g
           id="g34"
           transform="translate(496.209,371.3193)"><path
             d="m 0,0 c 4.59,-14.938 4.899,-43.602 4.611,-46.828 -0.035,-0.402 -3.832,0 -7.157,0.074 -3.137,0.07 -5.791,-0.208 -6.46,0.125 -1.603,0.798 -1.527,13.993 -10.275,18.266 -9.288,4.535 -21.81,6.222 -28.283,6.8 -5.463,0.486 -25.865,-3.668 -28.715,-7.132 -1.538,-1.869 1.916,-18.429 0.052,-17.533 -1.742,0.838 -28.093,-1.874 -29.314,-0.929 -2.438,1.885 0.371,34.294 0.554,36.344 0.184,2.077 -0.47,21.178 1.349,22.143 0.734,0.389 18.125,3.718 19.011,4.042 1.828,0.669 0.948,-4.478 1.684,-4.717 0.671,-0.218 5.508,2.652 11.663,3.806 11.353,2.13 43.384,4.473 51.166,2.315 C -12.359,14.626 -4.235,13.786 0,0"
             style="fill:#171316;fill-opacity:1;fill-rule:nonzero;stroke:none"
             id="path36"
             inkscape:connector-curvature="0" /></g><g
           id="g38"
           transform="translate(734.3877,285.4189)"><path
             d="m 0,0 c 4.59,-14.938 4.898,-43.603 4.611,-46.829 -0.036,-0.403 -3.833,0 -7.158,0.074 -3.136,0.07 -5.791,-0.208 -6.46,0.124 -1.603,0.799 -1.526,13.994 -10.275,18.266 -9.287,4.535 -21.809,6.224 -28.283,6.801 -5.463,0.486 -25.864,-3.668 -28.714,-7.132 -1.539,-1.869 1.915,-18.429 0.051,-17.533 -1.742,0.838 -28.092,-1.874 -29.313,-0.929 -2.438,1.885 0.37,34.295 0.553,36.345 0.184,2.076 -0.47,21.177 1.349,22.141 0.734,0.39 18.125,3.719 19.011,4.043 1.828,0.669 0.949,-4.478 1.684,-4.717 0.672,-0.218 5.508,2.651 11.664,3.806 11.353,2.13 43.384,4.473 51.165,2.315 C -12.36,14.625 -4.236,13.785 0,0"
             style="fill:#171316;fill-opacity:1;fill-rule:nonzero;stroke:none"
             id="path40"
             inkscape:connector-curvature="0" /></g><g
           id="g42"
           transform="translate(576.7451,259.1387)"><path
             d="m 0,0 c -9.604,-2.561 -27.684,-4.467 -42.492,-5.051 -12.335,-0.485 -21.925,2.115 -21.925,4.277 0,1.868 -2.465,7.152 1.953,11.754 6.832,7.119 22.475,12.258 29.832,14.257 14.383,3.907 48.478,-0.216 48.478,-4.972 C 15.846,15.509 5.327,1.421 0,0 m -9.37,104.646 c 3.871,0 19.403,1.871 29.655,-1.243 4.911,-1.492 12.074,-7.103 12.074,-8.346 0,-2.752 -5.193,-7.495 -14.738,-10.299 -11.203,-3.291 -27.256,-4.44 -30.909,-4.44 -6.768,0 -16.68,4.44 -16.68,7.103 0,3.019 13.831,17.225 20.598,17.225 M 21.351,52.761 c -17.681,1.14 -53.255,1.408 -56.018,-0.487 0,0 -10.501,-2.798 -10.501,3.901 0,3.849 5.457,10.248 8.562,10.248 11.386,0 42.765,0.324 51.38,3.788 13.401,5.388 25.923,14.69 26.204,18.468 0.451,6.1 1.34,19.731 -0.238,24.309 -0.789,2.289 -4.819,8.235 -6.269,9.314 -2.249,1.672 10.295,-2.289 11.399,-0.79 0.901,1.222 4.668,19.49 3.157,20.126 -13.028,5.488 -39.665,-10.674 -41.356,-12.313 -0.944,-0.914 -14.372,-0.236 -21.705,-0.236 -19.252,0 -36.053,-6.456 -45.243,-15.152 -4.7,-4.446 -12.609,-19.232 -12.609,-24.785 0,-7.229 9.677,-15.684 17.206,-20.954 2.367,-1.658 -14.302,-5.275 -17.003,-13.376 -0.875,-2.626 1.745,-5.436 5,-7.4 3.683,-2.222 8.058,-2.11 13.147,-2.107 0.303,0 -15.081,-7.437 -19.938,-18.458 -4.617,-10.476 -1.62,-31.663 -0.354,-32.695 1.102,-0.9 6.415,-9.381 12.074,-10.832 27.701,-7.102 52.739,-4.022 66.945,-1.776 24.301,3.843 36.054,20.302 37.113,20.598 0.199,0.056 6.442,13.924 3.729,27.879 -2.486,12.785 -13.674,22.02 -24.682,22.73"
             style="fill:#171316;fill-opacity:1;fill-rule:nonzero;stroke:none"
             id="path44"
             inkscape:connector-curvature="0" /></g><g
           id="g46"
           transform="translate(701.6396,351.9697)"><path
             d="m 0,0 c -0.187,-2.345 -9.7,-12.056 -14.266,-14.061 -10.356,-4.546 -38.755,2.522 -43.471,6.415 -2.961,2.442 -5.002,8.746 -4.63,13.434 0.372,4.691 34.046,10.366 40.987,9.815 C -14.438,15.052 0.372,4.689 0,0 M 22.519,26.191 C 12.89,32.498 -3.859,37.165 -16.738,38.188 -42.045,40.196 -69.244,26.314 -71.852,19.274 -73.377,15.159 -76.56,8.423 -75.171,2.784 c 1.68,-6.823 8.271,-16.757 11.44,-20.511 2.827,-3.347 16.481,-9.181 27.182,-10.031 7.81,-0.62 19.393,-0.015 30.705,0.578 11.127,0.584 21.991,1.117 28.911,5.412 7.079,4.395 12.912,14.928 13.471,21.967 0.456,5.744 -5.579,20.464 -14.019,25.992"
             style="fill:#171316;fill-opacity:1;fill-rule:nonzero;stroke:none"
             id="path48"
             inkscape:connector-curvature="0" /></g><g
           id="g50"
           transform="translate(495.5938,293.1582)"><path
             d="m 0,0 c 2.461,-3.788 1.531,-22.788 -1.87,-26.667 -1.112,-1.268 -15.749,-0.081 -30.011,-0.441 -15.788,-0.399 -31.347,-2.337 -32.656,-3.808 -0.586,-0.659 -13.249,-10.916 -4.776,-13.31 5.875,-1.66 23.936,-2.304 33.6,-1.6 14.226,1.037 36.555,5.553 37.1,4.8 0.79,-1.09 -1.618,-10.445 -2.965,-11.259 -6.216,-3.758 -20.078,-2.742 -36.163,-2.534 -13.663,0.176 -29.776,-0.818 -35.226,0.409 -15.173,3.412 -33.932,21.407 -32.909,35.434 0.486,6.654 0.689,11.955 7.711,16.927 3.579,2.534 9.726,4.844 15.844,6.684 7.187,2.161 14.678,3.607 22.999,3.024 C -46.438,6.755 -4.243,6.532 0,0"
             style="fill:#171316;fill-opacity:1;fill-rule:nonzero;stroke:none"
             id="path52"
             inkscape:connector-curvature="0" /></g><g
           id="g54"
           transform="translate(266.0498,382.3906)"><path
             d="m 0,0 c 0,-1.81 1.727,-25.822 0,-26.814 -6.436,-3.699 -37.428,-3.009 -42.797,-3.009 -4.841,0 -5.599,22.686 -5.599,26.836 0,4.15 20.607,8.881 30.127,8.881 C -8.749,5.894 0,4.149 0,0"
             style="fill:#171316;fill-opacity:1;fill-rule:nonzero;stroke:none"
             id="path56"
             inkscape:connector-curvature="0" /></g><g
           id="g58"
           transform="translate(134.6689,259.5215)"><path
             d="M 0,0 C 1.111,-0.003 2.227,-0.01 3.314,-0.016 5.97,-0.032 8.698,-0.048 11.389,-0.009 11.354,4.029 10.428,8.382 8.261,10.198 7.216,11.073 5.879,11.346 4.173,11.031 0.609,10.374 -0.19,4.989 0,0 m 8.776,-17.4 c -3.244,0 -6.076,1.169 -8.26,3.428 -2.008,2.076 -3.418,5.077 -3.973,8.452 -0.305,1.855 -0.941,6.646 -0.282,11.071 1.003,6.737 4.445,8.747 7.157,9.247 2.913,0.537 5.498,-0.055 7.475,-1.712 1.927,-1.615 3.258,-4.195 3.957,-7.669 0.643,-3.201 0.556,-6.25 0.489,-7.412 l -0.103,-1.764 -1.84,-0.047 C 10.033,-3.892 6.604,-3.871 3.29,-3.852 2.318,-3.846 1.324,-3.84 0.333,-3.837 c 0.05,-0.376 0.105,-0.738 0.161,-1.086 0.366,-2.224 2.127,-9.42 9.453,-8.572 1.732,0.2 2.098,0.611 2.219,0.746 0.351,0.395 0.572,1.187 0.853,2.193 0.121,0.432 0.257,0.921 0.422,1.445 l 3.828,-1.116 c -0.146,-0.461 -0.268,-0.898 -0.386,-1.321 -0.379,-1.357 -0.737,-2.639 -1.678,-3.693 -1.023,-1.149 -2.542,-1.804 -4.778,-2.063 C 9.866,-17.368 9.315,-17.4 8.776,-17.4"
             style="fill:#ffffff;fill-opacity:1;fill-rule:nonzero;stroke:none"
             id="path60"
             inkscape:connector-curvature="0" /></g><g
           id="g62"
           transform="translate(165.7813,241.4717)"><path
             d="m 0,0 c -2.759,0 -5.129,0.733 -7.045,2.178 -1.735,1.308 -2.858,3.019 -3.643,4.365 -2.715,4.654 -2.5,10.976 -2.327,16.055 0.036,1.057 0.071,2.057 0.071,2.923 h 4 c 0,-0.929 -0.035,-1.958 -0.073,-3.049 C -9.174,17.868 -9.369,12.139 -7.197,8.415 -5.548,5.588 -3.769,3.836 0,3.836 0.485,3.836 0.805,3.971 1.103,4.3 1.644,4.9 2.53,6.645 2.38,11.579 2.272,15.094 1.68,19.013 1.246,21.875 0.993,23.547 0.794,24.867 0.739,25.744 l 3.993,0.229 C 4.776,25.258 4.975,23.945 5.205,22.425 5.651,19.472 6.264,15.427 6.378,11.691 6.527,6.804 5.812,3.657 4.127,1.79 3.07,0.619 1.644,0 0,0"
             style="fill:#ffffff;fill-opacity:1;fill-rule:nonzero;stroke:none"
             id="path64"
             inkscape:connector-curvature="0" /></g><g
           id="g66"
           transform="translate(178.5654,263.583)"><path
             d="m 0,0 c 0.074,-0.399 0.137,-0.89 0.14,-1.48 0.01,-2.18 0.085,-4.27 0.223,-6.28 0.546,0.089 1.132,0.176 1.75,0.268 2.005,0.299 4.279,0.638 6.215,1.188 2.359,0.672 3.237,1.383 3.56,1.861 0.551,0.821 1.094,2.041 0.544,3.195 C 11.945,-0.229 10.717,0.505 9.146,0.717 6.975,1.008 3.968,0.856 1.483,0.33 1.136,0.256 0.52,0.125 0,0 m -0.686,-24.239 c -2.093,6.532 -3.131,13.97 -3.174,22.74 -0.003,0.558 -0.096,0.941 -0.186,1.312 -0.142,0.591 -0.359,1.486 0.233,2.385 0.716,1.089 2.037,1.369 4.433,1.877 2.957,0.627 6.437,0.795 9.08,0.441 2.931,-0.395 5.312,-1.953 6.369,-4.168 1.018,-2.132 0.726,-4.573 -0.821,-6.871 -0.751,-1.116 -1.933,-1.948 -3.349,-2.586 1.49,-0.453 2.816,-1.107 3.845,-2.049 1.734,-1.589 2.691,-3.502 3.616,-5.353 0.666,-1.332 1.296,-2.59 2.157,-3.569 l -3.059,-2.473 c -1.188,1.354 -1.959,2.894 -2.704,4.383 -0.806,1.611 -1.567,3.133 -2.774,4.238 -2.228,2.043 -8.154,2.003 -12.216,1.946 0.494,-4.032 1.282,-7.718 2.374,-11.126 z"
             style="fill:#ffffff;fill-opacity:1;fill-rule:nonzero;stroke:none"
             id="path68"
             inkscape:connector-curvature="0" /></g><g
           id="g70"
           transform="translate(204.959,268.9199)"><path
             d="m 0,0 c -1.65,-3.2 -2.115,-7.898 -1.239,-12.613 0.936,-5.047 3.29,-9.521 6.457,-12.276 1.034,-0.899 2.055,-1.375 2.954,-1.376 h 10e-4 c 1.717,0 2.947,1.762 3.406,3.508 0.51,1.944 0.812,6.195 0.27,10.944 C 11.271,-6.757 9.94,-2.726 8.101,-0.462 7.007,0.883 5.793,1.536 4.388,1.536 3.432,1.536 2.347,1.241 1.161,0.659 0.43,0.3 0.125,0.099 0,0 M 8.173,-30.1 H 8.172 c -1.908,0 -3.859,0.82 -5.642,2.371 -3.865,3.361 -6.602,8.491 -7.708,14.443 -1.051,5.666 -0.434,11.197 1.693,15.178 0.477,0.894 1.473,1.518 2.822,2.181 1.756,0.862 3.455,1.299 5.051,1.299 2.644,0 5.018,-1.202 6.867,-3.476 2.934,-3.611 4.105,-9.221 4.57,-13.292 0.527,-4.614 0.383,-9.441 -0.367,-12.296 -0.464,-1.768 -1.333,-3.3 -2.514,-4.433 C 11.597,-29.417 9.947,-30.1 8.173,-30.1"
             style="fill:#ffffff;fill-opacity:1;fill-rule:nonzero;stroke:none"
             id="path72"
             inkscape:connector-curvature="0" /></g><g
           id="g74"
           transform="translate(227.4199,257.8184)"><path
             d="M 0,0 C 0.701,-0.012 1.724,0.028 2.942,0.165 5.049,0.401 6.288,0.758 6.656,0.927 6.725,1.027 6.862,1.308 6.917,1.97 6.98,2.757 6.896,3.703 6.822,4.539 6.794,4.854 6.768,5.151 6.748,5.438 6.733,5.667 6.719,5.902 6.703,6.143 6.522,9.036 6.275,12.999 4.405,14.486 3.669,15.072 2.639,15.276 1.256,15.108 -0.154,14.937 -1.086,14.573 -1.513,14.026 -2.261,13.068 -1.914,11.018 -1.548,8.847 -1.493,8.521 -1.438,8.193 -1.385,7.864 -1.109,6.141 -0.792,4.395 -0.485,2.707 -0.322,1.81 -0.159,0.908 0,0 m -2.637,-12.657 c -0.019,4.964 -0.879,9.695 -1.789,14.705 -0.31,1.707 -0.631,3.473 -0.913,5.235 -0.051,0.319 -0.104,0.636 -0.157,0.951 -0.484,2.866 -0.984,5.829 0.78,8.09 1.117,1.432 2.906,2.279 5.47,2.589 2.506,0.304 4.594,-0.192 6.205,-1.475 3.205,-2.549 3.513,-7.472 3.737,-11.066 0.015,-0.235 0.03,-0.467 0.044,-0.691 0.017,-0.244 0.041,-0.522 0.068,-0.816 0.19,-2.136 0.451,-5.06 -1.445,-6.776 C 8.471,-2.719 6.462,-3.303 3.394,-3.646 2.355,-3.763 1.433,-3.827 0.627,-3.841 1.05,-6.72 1.352,-9.653 1.363,-12.643 Z"
             style="fill:#ffffff;fill-opacity:1;fill-rule:nonzero;stroke:none"
             id="path76"
             inkscape:connector-curvature="0" /></g><g
           id="g78"
           transform="translate(245.2246,262.0234)"><path
             d="m 0,0 c 1.168,0 2.477,-0.087 3.86,-0.178 1.933,-0.127 4.064,-0.266 5.738,-0.139 0.003,0.04 0.006,0.08 0.01,0.12 C 10.169,5.838 10.187,10.542 5.02,11.64 3.188,12.029 1.857,11.832 0.95,11.037 -0.622,9.658 -0.979,6.464 -0.635,3.908 -0.534,3.163 -0.338,1.706 -0.014,0 Z m 7.214,-14.812 c -0.115,0 -0.231,10e-4 -0.347,0.004 -1.953,0.054 -3.693,0.553 -4.898,1.407 -4.265,3.015 -5.792,11.043 -6.571,16.818 -0.224,1.668 -0.683,7.352 2.854,10.451 1.314,1.153 3.706,2.352 7.634,1.517 2.111,-0.448 3.838,-1.349 5.131,-2.675 1.114,-1.143 1.908,-2.61 2.362,-4.363 0.764,-2.957 0.459,-6.243 0.214,-8.884 -0.053,-0.562 -0.102,-1.092 -0.136,-1.574 L 13.356,-3.505 11.942,-3.841 C 9.595,-4.399 6.54,-4.198 3.587,-4.004 c -0.956,0.063 -1.874,0.123 -2.7,0.151 0.009,-0.037 0.02,-0.073 0.031,-0.109 1.189,-4.09 2.519,-5.712 3.424,-6.352 1.098,-0.777 4.072,-0.945 5.726,-0.061 0.861,0.46 0.823,0.902 0.802,1.141 l 3.986,0.313 c 0.171,-1.997 -0.864,-3.748 -2.839,-4.805 -1.32,-0.705 -3.013,-1.086 -4.803,-1.086"
             style="fill:#ffffff;fill-opacity:1;fill-rule:nonzero;stroke:none"
             id="path80"
             inkscape:connector-curvature="0" /></g><g
           id="g82"
           transform="translate(294.8613,243.5732)"><path
             d="M 0,0 C -0.205,0 -0.406,0.005 -0.605,0.017 L -2.35,0.119 -2.391,1.748 c -0.172,6.911 0.657,11.854 5.52,18.171 1.75,2.273 3.586,5.761 3,8.105 -0.239,0.956 -0.86,1.656 -1.955,2.201 -0.881,0.438 -2.151,0.444 -3.483,0.016 -1.692,-0.544 -3.195,-1.679 -3.738,-2.825 l -3.486,1.438 c 0.974,2.054 3.266,3.874 5.982,4.746 2.364,0.76 4.68,0.674 6.52,-0.241 C 8.016,32.34 9.354,30.774 9.841,28.831 10.912,24.547 7.67,19.723 6.226,17.848 2.39,12.864 1.438,8.963 1.401,3.654 2.527,3.797 3.813,4.065 5.073,4.328 8.87,5.122 12.797,5.942 15.633,4.354 L 13.67,1.309 C 12.143,2.164 8.83,1.472 5.907,0.861 3.793,0.419 1.783,0 0,0"
             style="fill:#ffffff;fill-opacity:1;fill-rule:nonzero;stroke:none"
             id="path84"
             inkscape:connector-curvature="0" /></g><g
           id="g86"
           transform="translate(317.9873,270.1992)"><path
             d="m 0,0 c -0.721,0 -1.218,-0.262 -1.661,-0.874 -2.464,-3.396 -0.993,-14.158 1.868,-20.806 2.393,-5.56 4.47,-7.045 5.32,-7.045 0.618,0 1.487,0.776 2.325,2.075 2.419,3.751 4.495,15.244 0.492,22.014 C 6.545,-1.594 3.836,-0.078 0.061,-0.001 0.04,-0.001 0.02,0 0,0 M 5.527,-32.277 H 5.526 c -3.228,0 -6.209,3.12 -8.857,9.274 -1.525,3.545 -2.714,8.223 -3.181,12.515 -0.399,3.678 -0.429,8.678 1.694,11.605 1.155,1.594 2.822,2.436 4.818,2.436 0.048,0 0.096,0 0.145,-10e-4 C 5.251,3.447 9.24,1.21 11.682,-2.92 c 2.073,-3.508 3.009,-8.446 2.635,-13.907 -0.315,-4.619 -1.542,-9.085 -3.199,-11.654 -1.625,-2.52 -3.506,-3.796 -5.591,-3.796"
             style="fill:#ffffff;fill-opacity:1;fill-rule:nonzero;stroke:none"
             id="path88"
             inkscape:connector-curvature="0" /></g><g
           id="g90"
           transform="translate(337.3936,244.1084)"><path
             d="M 0,0 C -1.71,6.639 -3.551,26.428 -1.729,34.623 L 2.004,33.902 C 1.275,30.628 1.133,24.486 1.611,17.051 2.026,10.604 2.868,4.086 3.706,0.829 Z"
             style="fill:#ffffff;fill-opacity:1;fill-rule:nonzero;stroke:none"
             id="path92"
             inkscape:connector-curvature="0" /></g><g
           id="g94"
           transform="translate(347.6123,272.1807)"><path
             d="m 0,0 c -1.111,-1.604 -0.845,-2.346 0.112,-3.279 1.035,-1.009 3.893,-1.829 6.37,-1.829 1.139,0 2.098,0.165 2.702,0.465 0.225,0.113 0.926,0.75 1.536,1.911 0.574,1.094 0.628,1.852 0.564,2.049 -0.07,0.093 -0.568,0.635 -2.796,0.975 C 6.921,0.531 5.231,0.563 3.935,0.563 H 3.887 C 2.642,0.562 0.624,0.295 0,0 M 6.483,-8.662 H 6.482 c -2.948,0 -7.061,0.916 -9.124,2.927 -2.372,2.312 -2.512,4.958 -0.418,7.865 0.619,0.857 1.785,1.386 3.78,1.711 1.326,0.217 2.614,0.274 3.166,0.274 h 0.049 c 4.08,0 8.976,-0.343 10.651,-3.02 0.607,-0.971 0.691,-2.265 0.242,-3.741 -0.557,-1.836 -2.097,-4.258 -3.849,-5.13 C 9.816,-8.355 8.262,-8.662 6.483,-8.662"
             style="fill:#ffffff;fill-opacity:1;fill-rule:nonzero;stroke:none"
             id="path96"
             inkscape:connector-curvature="0" /></g><g
           id="g98"
           transform="translate(355.1162,262.4287)"><path
             d="m 0,0 c -1.337,0 -2.975,-0.033 -3.785,-0.064 -3.301,-0.127 -5.513,-2.75 -6.172,-5.135 -0.417,-1.507 -0.286,-2.647 0.4,-3.482 1.146,-1.395 4.081,-2.219 8.054,-2.261 0.132,-0.002 0.265,-0.002 0.399,-0.002 4.796,-10e-4 8.391,0.912 10.122,2.569 0.91,0.872 1.333,1.979 1.292,3.382 -0.122,4.16 -1.863,4.493 -6.88,4.846 -0.44,0.03 -0.895,0.062 -1.356,0.1 C 1.861,-0.029 1.308,0 0,0 m -1.104,-14.498 v 0 c -0.149,0 -0.296,10e-4 -0.443,0.002 -3.697,0.04 -8.613,0.706 -11.036,3.655 -1.425,1.735 -1.783,3.931 -1.064,6.529 0.562,2.035 1.766,3.92 3.39,5.31 1.797,1.538 3.98,2.398 6.314,2.488 C -3.105,3.519 -1.438,3.553 0,3.553 1.107,3.553 1.917,3.532 2.407,3.492 2.845,3.457 3.287,3.426 3.716,3.396 6.215,3.221 8.575,3.055 10.52,1.991 c 2.324,-1.271 3.501,-3.524 3.6,-6.887 0.068,-2.379 -0.728,-4.383 -2.371,-5.957 -3.145,-3.012 -8.726,-3.645 -12.853,-3.645"
             style="fill:#ffffff;fill-opacity:1;fill-rule:nonzero;stroke:none"
             id="path100"
             inkscape:connector-curvature="0" /></g></g></g></g></svg>