<?xml version="1.0" encoding="UTF-8" standalone="no"?>
<!-- Created with Inkscape (http://www.inkscape.org/) -->

<svg
   xmlns:dc="http://purl.org/dc/elements/1.1/"
   xmlns:cc="http://creativecommons.org/ns#"
   xmlns:rdf="http://www.w3.org/1999/02/22-rdf-syntax-ns#"
   xmlns:svg="http://www.w3.org/2000/svg"
   xmlns="http://www.w3.org/2000/svg"
   xmlns:sodipodi="http://sodipodi.sourceforge.net/DTD/sodipodi-0.dtd"
   xmlns:inkscape="http://www.inkscape.org/namespaces/inkscape"
   width="1920"
   height="1080"
   viewBox="0 0 1920.0001 1080"
   id="svg2"
   version="1.1"
   inkscape:version="0.91 r13725"
   sodipodi:docname="intro.svg"
   inkscape:export-filename="/home/bastian/Sync/GUADEC16/GUADEC16  video overlay intro outro streaming artwork/guadec16-video-overlay-ver3.png"
   inkscape:export-xdpi="55.688644"
   inkscape:export-ydpi="55.688644">
  <defs
     id="defs4">
    <inkscape:perspective
       sodipodi:type="inkscape:persp3d"
       inkscape:vp_x="0 : 540 : 1"
       inkscape:vp_y="0 : 1000 : 0"
       inkscape:vp_z="1920.0001 : 540 : 1"
       inkscape:persp3d-origin="960.00005 : 360 : 1"
       id="perspective7384" />
    <clipPath
       clipPathUnits="userSpaceOnUse"
       id="clipPath20">
      <path
         d="m 0,10.012 1366.9,0 0,1110.9 -1366.9,0 z"
         id="path18"
         inkscape:connector-curvature="0" />
    </clipPath>
    <clipPath
       clipPathUnits="userSpaceOnUse"
       id="clipPath20-3">
      <path
         inkscape:connector-curvature="0"
         d="m 0,10.012 1366.9,0 0,1110.9 -1366.9,0 z"
         id="path18-2" />
    </clipPath>
  </defs>
  <sodipodi:namedview
     id="base"
     pagecolor="#ffffff"
     bordercolor="#666666"
     borderopacity="1.0"
     inkscape:pageopacity="0.0"
     inkscape:pageshadow="2"
     inkscape:zoom="0.8184761"
     inkscape:cx="308.72591"
     inkscape:cy="432.02271"
     inkscape:document-units="px"
     inkscape:current-layer="layer4"
     showgrid="false"
     inkscape:window-width="1920"
     inkscape:window-height="1016"
     inkscape:window-x="0"
     inkscape:window-y="27"
     inkscape:window-maximized="1"
     fit-margin-top="5"
     fit-margin-left="5"
     fit-margin-right="5"
     fit-margin-bottom="5"
     units="px" />
  <metadata
     id="metadata7">
    <rdf:RDF>
      <cc:Work
         rdf:about="">
        <dc:format>image/svg+xml</dc:format>
        <dc:type
           rdf:resource="http://purl.org/dc/dcmitype/StillImage" />
        <dc:title />
      </cc:Work>
    </rdf:RDF>
  </metadata>
  <g
     inkscape:label="Background"
     inkscape:groupmode="layer"
     id="layer1"
     transform="translate(-1641.7153,22.599037)"
     style="display:inline">
    <rect
       style="opacity:1;fill:#6b8e9f;fill-opacity:1;fill-rule:evenodd;stroke:none;stroke-width:0.5;stroke-miterlimit:4;stroke-dasharray:none;stroke-opacity:1"
       id="rect7330"
       width="1920"
       height="1080"
       x="-3561.8096"
       y="-22.618431"
       rx="0"
       ry="0"
       transform="matrix(-1,0,0,1,2.1461428e-6,-3.4114115e-7)" />
    <g
       id="overlay"
       inkscape:label="#overlay">
      <rect
         transform="matrix(-1,0,0,1,2.1461428e-6,-3.4114115e-7)"
         ry="0"
         rx="0"
         y="-22.618431"
         x="-3561.8096"
         height="1080"
         width="1155.955"
         id="rect7330-2-2-2"
         style="opacity:1;fill:#eeeeec;fill-opacity:1;fill-rule:evenodd;stroke:none;stroke-width:0.5;stroke-miterlimit:4;stroke-dasharray:none;stroke-opacity:1" />
    </g>
  </g>
  <g
     inkscape:groupmode="layer"
     id="layer3"
     inkscape:label="Icons"
     style="display:inline" />
  <g
     inkscape:groupmode="layer"
     id="layer4"
     inkscape:label="Text">
    <g
       id="speakertranslator"
       inkscape:label="#speakertranslator">
      <flowRoot
         transform="translate(1081.8288,639.10978)"
         style="font-style:normal;font-variant:normal;font-weight:bold;font-stretch:normal;font-size:12.98549747px;line-height:125%;font-family:'Open Sans';-inkscape-font-specification:'Open Sans Bold';text-align:start;letter-spacing:0px;word-spacing:0px;writing-mode:lr-tb;text-anchor:start;fill:#555555;fill-opacity:1;stroke:none;stroke-width:1px;stroke-linecap:butt;stroke-linejoin:miter;stroke-opacity:1"
         id="speaker"
         xml:space="preserve"><flowRegion
           id="flowRegion7497-9-1"><rect
             style="font-style:normal;font-variant:normal;font-weight:bold;font-stretch:normal;font-family:'Open Sans';-inkscape-font-specification:'Open Sans Bold';text-align:start;text-anchor:start;fill:#555555;fill-opacity:1"
             y="-9.5796041"
             x="-203.17442"
             height="212.55467"
             width="853.07196"
             id="rect7499-7-9" /></flowRegion><flowPara
           style="font-style:normal;font-variant:normal;font-weight:bold;font-stretch:normal;font-size:43.28499222px;font-family:'Open Sans';-inkscape-font-specification:'Open Sans Bold';text-align:start;text-anchor:start;fill:#555555;fill-opacity:1"
           id="flowPara7501-3-4">$speaker</flowPara></flowRoot>      <flowRoot
         transform="translate(1081.8288,639.10978)"
         style="font-style:normal;font-variant:normal;font-weight:bold;font-stretch:normal;font-size:12.98549747px;line-height:125%;font-family:'Open Sans';-inkscape-font-specification:'Open Sans Bold';text-align:start;letter-spacing:0px;word-spacing:0px;writing-mode:lr-tb;text-anchor:start;fill:#555555;fill-opacity:1;stroke:none;stroke-width:1px;stroke-linecap:butt;stroke-linejoin:miter;stroke-opacity:1"
         id="longspeaker"
         xml:space="preserve"><flowRegion
           id="flowRegion7497-9-1-2"><rect
             style="font-style:normal;font-variant:normal;font-weight:bold;font-stretch:normal;font-family:'Open Sans';-inkscape-font-specification:'Open Sans Bold';text-align:start;text-anchor:start;fill:#555555;fill-opacity:1"
             y="-9.5796041"
             x="-203.17442"
             height="212.55467"
             width="853.07196"
             id="rect7499-7-9-7" /></flowRegion><flowPara
           style="font-style:normal;font-variant:normal;font-weight:bold;font-stretch:normal;font-size:32.50000381px;font-family:'Open Sans';-inkscape-font-specification:'Open Sans Bold';text-align:start;text-anchor:start;fill:#555555;fill-opacity:1"
           id="flowPara7501-3-4-0">$longspeaker</flowPara></flowRoot>    </g>
    <g
       id="presentedby"
       inkscape:label="#presentedby">
      <flowRoot
         transform="translate(937.5713,611.55834)"
         style="font-style:normal;font-variant:normal;font-weight:600;font-stretch:normal;font-size:4.35315514px;line-height:125%;font-family:'Open Sans';-inkscape-font-specification:'Open Sans Semi-Bold';text-align:start;letter-spacing:0px;word-spacing:0px;writing-mode:lr-tb;text-anchor:start;fill:#555555;fill-opacity:1;stroke:none;stroke-width:1px;stroke-linecap:butt;stroke-linejoin:miter;stroke-opacity:1"
         id="presentedbytext"
         xml:space="preserve"><flowRegion
           id="flowRegion7497-5-8"><rect
             style="font-style:normal;font-variant:normal;font-weight:600;font-stretch:normal;font-family:'Open Sans';-inkscape-font-specification:'Open Sans Semi-Bold';text-align:start;text-anchor:start;fill:#555555;fill-opacity:1"
             y="-3.2113905"
             x="-58.743931"
             height="61.773346"
             width="131.42383"
             id="rect7499-6-4" /></flowRegion><flowPara
           style="font-style:normal;font-variant:normal;font-weight:600;font-stretch:normal;font-size:14.51051712px;font-family:'Open Sans';-inkscape-font-specification:'Open Sans Semi-Bold';text-align:start;text-anchor:start;fill:#555555;fill-opacity:1"
           id="flowPara7501-2-5">PRESENTED BY</flowPara></flowRoot>    </g>
    <g
       id="guadeclogo"
       inkscape:label="#guadeclogo">
      <path
         transform="translate(0,-6.1035164e-5)"
         inkscape:connector-curvature="0"
         id="rect8464"
         d="m 762.23633,760.27734 0,49.44727 -0.67969,0 -9.7832,3.96484 0,3.88282 2.61523,0 0,15.70507 -2.61523,0 0,7.20899 c -7.8116,5.88085 -13.08395,16.827 -13.08985,29.40234 l -1.44921,0 0,5.26367 1.36718,0 0,20.92578 -101.97656,0 0,-2.61523 c 0,-4.34947 -2.33282,-7.84766 -5.23242,-7.84766 -2.8998,0 -5.23242,3.49819 -5.23242,7.84766 l 0.0234,2.61523 -0.0234,0 0,20.9375 98.97851,0 c 13.12833,-6.6394 26.4828,-13.4007 39,-19.70117 l 0,-12.01367 -1.82226,0 0,-5.33203 c 0,-2.1755 0.76706,-3.98911 1.82226,-4.59375 l 0,-44.71289 -1.82226,0 0,-5.50586 c 0,-2.24193 0.76689,-4.10691 1.82226,-4.72852 l 0,-60.15039 -1.90039,0 -0.002,0 z m -3.92383,59.91016 c 0.725,0 1.30859,2.21799 1.30859,4.96875 l 0,5.50586 -2.61718,0 0,-5.50586 c 0,-2.75076 0.58379,-4.96875 1.30859,-4.96875 z m -320.58398,36.64258 0,10.69726 c -5.8959,1.16248 -10.4629,9.90045 -10.4629,20.70313 l 0,7.84765 -0.0254,0 -13.07812,10.55469 0,98.15629 54.96289,0 0,-108.71098 -18.32227,0 0,-7.84765 c 0,-10.80268 -4.57555,-19.54065 -10.47265,-20.70313 l 0,-10.69726 -2.60156,0 z m 311.46875,18.31054 c 1.429,0 2.57617,2.1586 2.57617,4.82813 l 0,5.33203 -5.16211,0 0,-5.33203 c 0,-2.66953 1.15684,-4.82812 2.58594,-4.82813 z m -277.44336,20.9375 0,49.73243 151.79101,0 0,-49.73243 -151.79101,0 z m 292.38476,3.71094 c -12.60529,6.34486 -26.10681,13.18312 -39.27539,19.8418 l -98.70312,0 0,86.49614 137.97851,0 0,-6.17388 -4.51758,0 0,-17.80468 c 0,-2.50379 1.96276,-4.55342 4.51758,-4.88477 l 0,-10.52734 -1.90234,0 0,-13.07813 1.90234,0 0,-13.08984 -1.90234,0 0,-13.08008 1.90234,0 0,-27.69922 z m -281.92187,27.69922 5.23242,0 0,13.08008 -5.23242,0 0,-13.08008 z m 15.70703,0 5.23047,0 0,13.08008 -5.23047,0 0,-13.08008 z m 15.69531,0 5.24024,0 0,13.08008 -5.24024,0 0,-13.08008 z m 15.70508,0 5.23047,0 0,13.08008 -5.23047,0 0,-13.08008 z m 15.70508,0 5.23047,0 0,13.08008 -5.23047,0 0,-13.08008 z m 15.69531,0 5.24023,0 0,13.08008 -5.24023,0 0,-13.08008 z m 15.70508,0 5.23047,0 0,13.08008 -5.23047,0 0,-13.08008 z m 15.70508,0 5.23046,0 0,13.08008 -5.23046,0 0,-13.08008 z m 15.70507,0 5.23243,0 0,13.08008 -5.23243,0 0,-13.08008 z m 28.78516,0 5.23047,0 0,13.08008 -5.23047,0 0,-13.08008 z m 15.70508,0 5.23047,0 0,13.08008 -5.23047,0 0,-13.08008 z m 15.69531,0 5.24023,0 0,13.08008 -5.24023,0 0,-13.08008 z m 15.70508,0 5.23047,0 0,13.08008 -5.23047,0 0,-13.08008 z m 15.70508,0 5.23047,0 0,13.08008 -5.23047,0 0,-13.08008 z m 31.40039,0 5.23242,0 0,13.08008 -5.23242,0 0,-13.08008 z m 15.70508,0 5.23242,0 0,13.08008 -5.23242,0 0,-13.08008 z m -274.78711,20.9375 0,58.14652 151.78125,0 0,-58.14652 -151.78125,0 z m 10.46289,5.23242 5.23242,0 0,13.07813 -5.23242,0 0,-13.07813 z m 15.70703,0 5.23047,0 0,13.07813 -5.23047,0 0,-13.07813 z m 15.69531,0 5.24024,0 0,13.07813 -5.24024,0 0,-13.07813 z m 15.70508,0 5.23047,0 0,13.07813 -5.23047,0 0,-13.07813 z m 15.70508,0 5.23047,0 0,13.07813 -5.23047,0 0,-13.07813 z m 15.69531,0 5.24023,0 0,13.07813 -5.24023,0 0,-13.07813 z m 15.70508,0 5.23047,0 0,13.07813 -5.23047,0 0,-13.07813 z m 15.70508,0 5.23046,0 0,13.07813 -5.23046,0 0,-13.07813 z m 15.70507,0 5.23243,0 0,13.07813 -5.23243,0 0,-13.07813 z m 28.78516,0 5.23047,0 0,13.07813 -5.23047,0 0,-13.07813 z m 15.70508,0 5.23047,0 0,13.07813 -5.23047,0 0,-13.07813 z m 15.69531,0 5.24023,0 0,13.07813 -5.24023,0 0,-13.07813 z m 15.70508,0 5.23047,0 0,13.07813 -5.23047,0 0,-13.07813 z m 15.70508,0 5.23047,0 0,13.07813 -5.23047,0 0,-13.07813 z m 31.40039,0 5.23242,0 0,13.07813 -5.23242,0 0,-13.07813 z m 15.70508,0 5.23242,0 0,13.07813 -5.23242,0 0,-13.07813 z m -264.32422,23.55274 5.23242,0 0,13.07812 -5.23242,0 0,-13.07812 z m 15.70703,0 5.23047,0 0,13.07812 -5.23047,0 0,-13.07812 z m 15.69531,0 5.24024,0 0,13.07812 -5.24024,0 0,-13.07812 z m 15.70508,0 5.23047,0 0,13.07812 -5.23047,0 0,-13.07812 z m 15.70508,0 5.23047,0 0,13.07812 -5.23047,0 0,-13.07812 z m 15.69531,0 5.24023,0 0,13.07812 -5.24023,0 0,-13.07812 z m 15.70508,0 5.23047,0 0,13.07812 -5.23047,0 0,-13.07812 z m 15.70508,0 5.23046,0 0,13.07812 -5.23046,0 0,-13.07812 z m 15.70507,0 5.23243,0 0,13.07812 -5.23243,0 0,-13.07812 z m 28.78516,0 5.23047,0 0,13.07812 -5.23047,0 0,-13.07812 z m 15.70508,0 5.23047,0 0,13.07812 -5.23047,0 0,-13.07812 z m 15.69531,0 5.24023,0 0,13.07812 -5.24023,0 0,-13.07812 z m 15.70508,0 5.23047,0 0,13.07812 -5.23047,0 0,-13.07812 z m 15.70508,0 5.23047,0 0,13.07812 -5.23047,0 0,-13.07812 z m 31.40039,0 5.23242,0 0,13.07812 -5.23242,0 0,-13.07812 z m 19.6289,0 c 2.1746,0 3.92383,2.20117 3.92383,4.9375 l 0,13.35351 -7.84765,0 0,-13.35351 c 0,-2.73633 1.74902,-4.9375 3.92382,-4.9375 z"
         style="color:#000000;clip-rule:nonzero;display:inline;overflow:visible;visibility:visible;opacity:1;color-interpolation:sRGB;color-interpolation-filters:linearRGB;fill:#ffffff;fill-opacity:1;fill-rule:nonzero;stroke:none;stroke-width:1;stroke-linecap:round;stroke-linejoin:round;stroke-miterlimit:4;stroke-dasharray:none;stroke-dashoffset:0;stroke-opacity:1;marker:none;color-rendering:auto;image-rendering:auto;shape-rendering:auto;text-rendering:auto;enable-background:accumulate" />
      <g
         transform="matrix(2.0788315,0,0,2.0788315,-4387.1021,888.47132)"
         style="display:inline;fill:#eeeeec;fill-opacity:1"
         id="g7398">
        <g
           inkscape:export-ydpi="45"
           inkscape:export-xdpi="45"
           inkscape:export-filename="/home/andreasn/SparkleShare/gnome-marketing/t-shirts/guadec-2013.png"
           id="text3000-5-5-2-3-0-8-9"
           style="font-style:normal;font-variant:normal;font-weight:bold;font-stretch:normal;font-size:79.21905518px;line-height:125%;font-family:Cantarell;-inkscape-font-specification:'Cantarell Bold';text-align:start;letter-spacing:0px;word-spacing:0px;writing-mode:lr-tb;text-anchor:start;fill:#eeeeec;fill-opacity:1;stroke:none"
           transform="matrix(0.53543495,0,0,0.53543495,2121.6927,-290.10499)">
          <path
             id="path6549-6-1-2-3-3-6-5"
             style="fill:#eeeeec;fill-opacity:1"
             d="m 209.42126,269.34144 0,-22.57744 -25.03322,0 0,8.55566 15.44771,0 0,10.53614 c -2.37657,1.90125 -5.86221,3.24798 -10.45691,3.24798 -11.88285,0 -20.43852,-8.15958 -20.43852,-19.56711 0,-11.72441 9.34786,-18.61648 19.17101,-18.61648 5.54533,0 10.85301,1.98048 13.86334,3.56486 l 1.42594,0.79219 4.04017,-7.68425 -1.34672,-0.79219 c -4.67392,-2.61422 -11.01146,-4.83236 -18.37882,-4.83236 -18.45803,0 -28.59808,13.54647 -28.59808,27.96433 0,13.54644 9.03099,28.20198 28.75651,28.20198 13.22957,0 19.48789,-6.57518 21.54759,-8.79331"
             inkscape:connector-curvature="0" />
          <path
             id="path6551-0-5-4-9-7-9-1"
             style="fill:#eeeeec;fill-opacity:1"
             d="m 243.8704,278.13475 c 21.54757,0 22.49822,-13.94256 22.49822,-20.59695 0,-3.56486 -0.0792,-4e-5 -0.0792,-35.17326 l -9.66473,0 0,34.85638 c 0,1.6636 -0.15844,3.24798 -0.55453,4.67392 -1.18829,4.75314 -5.70378,7.36738 -12.19974,7.36738 -6.33751,0 -9.34785,-2.53501 -10.29847,-3.56486 -2.21813,-2.37657 -2.45579,-5.14924 -2.45579,-8.47644 l 0,-34.85638 -9.74395,0 0,35.72779 0,0.47531 c 0,6.09986 0.3169,19.56711 22.49821,19.56711"
             inkscape:connector-curvature="0" />
          <path
             id="path6553-16-5-6-8-9-8-2"
             style="fill:#eeeeec;fill-opacity:1"
             d="m 294.8491,222.36454 -20.51773,54.97802 9.50628,0 5.46612,-14.41787 20.20086,0 5.54533,14.41787 10.06082,0 -20.59695,-54.97802 -9.66473,0 m 11.56598,31.68762 -14.02177,0 7.0505,-20.43852 6.97127,20.43852"
             inkscape:connector-curvature="0" />
          <path
             id="path6555-2-6-4-0-7-9-2"
             style="fill:#eeeeec;fill-opacity:1"
             d="m 351.77913,231.31629 c 1.6636,0 3.24798,0.0792 4.75315,0.31687 6.57517,1.02985 14.33864,6.1791 14.33864,17.90351 0,5.14923 -1.42594,8.47644 -2.37657,10.29848 -4.51548,8.31799 -13.3088,8.55566 -19.32945,8.55566 l -6.33752,0 0,-37.07452 8.95175,0 m -0.23766,-8.95175 -18.45803,0 0,54.97802 13.70489,0 c 4.5947,0 9.42707,0 14.10099,-1.18829 15.28927,-3.64407 19.72555,-16.71523 19.72555,-27.8851 0,-12.12051 -6.33755,-25.90463 -29.0734,-25.90463"
             inkscape:connector-curvature="0" />
          <path
             id="path6557-6-3-1-9-4-8-5"
             style="fill:#eeeeec;fill-opacity:1"
             d="m 390.95049,277.34256 36.51998,0 0,-8.95175 -26.77604,0 0,-14.89319 24.71634,0 0,-8.95175 -24.71634,0 0,-13.22958 26.77604,0 0,-8.95175 -36.51998,0 0,54.97802"
             inkscape:connector-curvature="0" />
          <path
             id="path6559-6-5-4-4-2-1-1"
             style="fill:#eeeeec;fill-opacity:1"
             d="m 463.67977,221.96844 c -17.82427,0 -29.15261,12.12053 -29.15261,27.96433 0,15.60613 10.85303,28.20198 28.6773,28.20198 5.07001,0 11.01145,-1.18829 16.79444,-3.64408 l 1.42594,-0.55453 -3.16876,-7.76347 -1.42594,0.47532 c -4.27783,1.50516 -8.39723,2.29735 -11.88286,2.29735 -12.83348,0 -20.59696,-8.87254 -20.59696,-19.09179 0,-9.90237 7.20895,-18.85414 19.17101,-18.85414 2.45579,0 6.49597,0.31688 12.59583,2.45579 l 1.50517,0.55454 3.01032,-8.39722 -1.42594,-0.55454 c -5.78299,-2.29735 -11.24911,-3.08954 -15.52694,-3.08954"
             inkscape:connector-curvature="0" />
        </g>
        <g
           inkscape:export-ydpi="45"
           inkscape:export-xdpi="45"
           inkscape:export-filename="/home/andreasn/SparkleShare/gnome-marketing/t-shirts/guadec-2013.png"
           transform="matrix(0.5322018,0,0,0.5322018,1785.8534,-368.25881)"
           style="fill:#eeeeec;fill-opacity:1"
           id="g5813-5-3-9-5-94-9-0">
          <text
             xml:space="preserve"
             style="font-style:normal;font-variant:normal;font-weight:normal;font-stretch:normal;font-size:29.50051689px;line-height:125%;font-family:Cantarell;-inkscape-font-specification:Cantarell;text-align:start;letter-spacing:0px;word-spacing:0px;writing-mode:lr-tb;text-anchor:start;fill:#eeeeec;fill-opacity:1;stroke:none"
             x="792.4502"
             y="357.88382"
             id="text5815-1-39-3-5-25-4-6"
             sodipodi:linespacing="125%"><tspan
               sodipodi:role="line"
               id="tspan5817-3-0-7-5-4-3-6"
               x="792.4502"
               y="357.88382">The</tspan></text>
          <text
             sodipodi:linespacing="125%"
             id="text5819-8-0-9-3-0-3-7"
             y="357.88382"
             x="973.19745"
             style="font-style:normal;font-variant:normal;font-weight:normal;font-stretch:normal;font-size:29.50051689px;line-height:125%;font-family:Cantarell;-inkscape-font-specification:Cantarell;text-align:start;letter-spacing:0px;word-spacing:0px;writing-mode:lr-tb;text-anchor:start;fill:#eeeeec;fill-opacity:1;stroke:none"
             xml:space="preserve"><tspan
               y="357.88382"
               x="973.19745"
               id="tspan5821-5-1-3-2-1-2-0"
               sodipodi:role="line">Conference</tspan></text>
          <g
             style="fill:#eeeeec;fill-opacity:1"
             transform="matrix(0.92337906,0,0,0.92337906,65.460957,27.451834)"
             id="g5823-0-9-2-8-1-0-0">
            <g
               style="fill:#eeeeec;fill-opacity:1"
               transform="matrix(0.11840388,0,0,0.11840388,865.19335,299.21794)"
               id="g5825-5-1-4-0-84-8-3">
              <g
                 style="fill:#eeeeec;fill-opacity:1"
                 transform="matrix(1.293235,0,0,1.293235,-4878.321,-1224.915)"
                 id="g5827-6-4-1-3-9-2-1">
                <g
                   transform="matrix(2.438586,0,0,2.438586,3659.952,1113.451)"
                   style="fill:#eeeeec;fill-opacity:1;fill-rule:nonzero;stroke:none"
                   id="g5829-7-9-6-3-5-0-9">
                  <g
                     style="fill:#eeeeec;fill-opacity:1"
                     id="g5831-2-6-6-6-9-9-5">
                    <path
                       inkscape:connector-curvature="0"
                       d="M 86.068,0 C 61.466,0 56.851,35.041 70.691,35.041 84.529,35.041 110.671,0 86.068,0 Z"
                       style="fill:#eeeeec;fill-opacity:1"
                       id="path5833-0-2-1-0-9-5-1" />
                    <path
                       inkscape:connector-curvature="0"
                       d="M 45.217,30.699 C 52.586,31.149 60.671,2.577 46.821,4.374 32.976,6.171 37.845,30.249 45.217,30.699 Z"
                       style="fill:#eeeeec;fill-opacity:1"
                       id="path5835-4-2-5-1-11-1-0" />
                    <path
                       inkscape:connector-curvature="0"
                       d="M 11.445,48.453 C 16.686,46.146 12.12,23.581 3.208,29.735 -5.7,35.89 6.204,50.759 11.445,48.453 Z"
                       style="fill:#eeeeec;fill-opacity:1"
                       id="path5837-8-9-1-6-2-9-0" />
                    <path
                       inkscape:connector-curvature="0"
                       d="M 26.212,36.642 C 32.451,35.37 32.793,9.778 21.667,14.369 10.539,18.961 19.978,37.916 26.212,36.642 l 0,0 z"
                       style="fill:#eeeeec;fill-opacity:1"
                       id="path5839-7-1-5-6-1-6-0" />
                    <path
                       inkscape:connector-curvature="0"
                       d="m 58.791,93.913 c 1.107,8.454 -6.202,12.629 -13.36,7.179 C 22.644,83.743 83.16,75.088 79.171,51.386 75.86,31.712 15.495,37.769 8.621,68.553 3.968,89.374 27.774,118.26 52.614,118.26 c 12.22,0 26.315,-11.034 28.952,-25.012 C 83.58,82.589 57.867,86.86 58.791,93.913 l 0,0 z"
                       style="fill:#eeeeec;fill-opacity:1"
                       id="path5841-6-0-6-9-0-7-0" />
                  </g>
                </g>
                <g
                   style="fill:#eeeeec;fill-opacity:1"
                   id="g5843-2-2-7-7-6-4-2">
                  <path
                     inkscape:connector-curvature="0"
                     d="m 4176.2963,1214.4401 c -15.1078,0.4069 -27.0386,5.8367 -35.8126,16.25 -9.0861,10.8369 -13.6562,25.8104 -13.6562,44.9063 0,19.0432 4.5703,33.9757 13.6562,44.8124 9.1305,10.8369 21.6664,16.25 37.6563,16.25 16.034,0 28.6014,-5.4131 37.6875,-16.25 9.0859,-10.8367 13.6251,-25.7692 13.625,-44.8124 -1e-4,-19.0959 -4.5391,-34.0694 -13.625,-44.9063 -9.0861,-10.8366 -21.6536,-16.2499 -37.6875,-16.25 -0.6246,0 -1.2296,-0.016 -1.8437,0 z m 1.125,22 c 0.2415,-0.01 0.4737,0 0.7187,0 7.8833,10e-5 13.9919,3.4114 18.3125,10.25 4.3203,6.8388 6.4999,16.4913 6.5,28.9063 0,12.3623 -2.1799,21.9427 -6.5,28.7812 -4.3204,6.8389 -10.4293,10.2812 -18.3125,10.2812 -7.8391,0 -13.8983,-3.4423 -18.2187,-10.2812 -4.3204,-6.8385 -6.4999,-16.4189 -6.5,-28.7812 0,-12.4149 2.1798,-22.0675 6.5,-28.9063 4.1852,-6.6249 10.0123,-10.0428 17.5,-10.25 z"
                     style="font-style:normal;font-variant:normal;font-weight:bold;font-stretch:normal;font-size:148.699646px;line-height:125%;font-family:'Bitstream Vera Sans';text-align:start;writing-mode:lr-tb;text-anchor:start;fill:#eeeeec;fill-opacity:1;stroke:none"
                     id="path5845-3-0-7-2-1-3-8" />
                  <path
                     inkscape:connector-curvature="0"
                     d="m 4005.6293,1325.612 c -13.3076,11.1757 -33.1067,11.0472 -41.3549,11.0472 -16.6133,0 -29.7747,-5.471 -39.4842,-16.413 -9.7097,-10.9946 -14.5644,-25.8819 -14.5644,-44.6622 0,-18.9906 4.9438,-33.9305 14.8316,-44.82 9.8878,-10.8892 23.4277,-16.3339 40.62,-16.334 6.6363,10e-5 12.9831,0.7366 19.0406,2.2094 6.1019,1.473 11.8475,3.6562 17.2368,6.5494 l -6.921,20.4608 c -3.0298,-1.6586 -6.4987,-3.2932 -9.7145,-4.4424 -5.4784,-1.8411 -10.979,-2.7617 -16.5018,-2.7618 -10.2442,10e-5 -18.15,3.3932 -23.7173,10.1792 -5.523,6.7336 -8.2844,16.3867 -8.2844,28.9594 0,12.4676 2.6723,22.0945 8.0172,28.8806 5.3446,6.7861 13.3768,10.1791 22.7818,10.1791 9.5548,0 15.4728,-2.4084 18.6291,-4.9461 l 0,-20.3835 -20.7001,0 0,-20.3584 40.0855,0"
                     style="font-style:normal;font-variant:normal;font-weight:bold;font-stretch:normal;font-size:148.699646px;line-height:125%;font-family:'Bitstream Vera Sans';text-align:start;writing-mode:lr-tb;text-anchor:start;fill:#eeeeec;fill-opacity:1;stroke:none"
                     id="path5847-1-4-7-9-2-8-0" />
                  <path
                     inkscape:connector-curvature="0"
                     d="m 4023.2108,1216.5605 16.2279,0 51.2775,70.8022 0,-70.8022 21.8853,0 0,117.8103 -16.2279,0 -51.2774,-70.8022 0,70.8022 -21.8854,0 0,-117.8103"
                     style="font-style:normal;font-variant:normal;font-weight:bold;font-stretch:normal;font-size:148.699646px;line-height:125%;font-family:'Bitstream Vera Sans';text-align:start;writing-mode:lr-tb;text-anchor:start;fill:#eeeeec;fill-opacity:1;stroke:none"
                     id="path5849-8-73-3-5-55-2-3" />
                  <path
                     inkscape:connector-curvature="0"
                     d="m 4246.3361,1216.5605 32.7366,0 22.7151,73.5479 22.8487,-73.5479 27.6698,0 12.5,117.8103 -24.3186,0 -7.5,-73.668 -22.9823,74.0213 -16.3015,0 -22.9824,-76.5213 -7.5,76.168 -24.3854,0 12.5,-117.8103"
                     style="font-style:normal;font-variant:normal;font-weight:bold;font-stretch:normal;font-size:148.699646px;line-height:125%;font-family:'Bitstream Vera Sans';text-align:start;writing-mode:lr-tb;text-anchor:start;fill:#eeeeec;fill-opacity:1;stroke:none"
                     id="path5851-3-2-6-5-4-0-3" />
                  <path
                     inkscape:connector-curvature="0"
                     d="m 4382.3597,1216.5605 69.4147,0 0,22.9624 -43.6933,0 0,24.4365 33.5877,0 0,20.4623 -33.5877,0 0,26.9868 45.1631,0 0,22.9623 -70.8845,0 0,-117.8103"
                     style="font-style:normal;font-variant:normal;font-weight:bold;font-stretch:normal;font-size:148.699646px;line-height:125%;font-family:'Bitstream Vera Sans';text-align:start;writing-mode:lr-tb;text-anchor:start;fill:#eeeeec;fill-opacity:1;stroke:none"
                     id="path5853-4-18-1-4-8-8-5" />
                  <text
                     x="4474.6182"
                     y="1215.743"
                     style="font-style:normal;font-weight:normal;font-size:30.68958855px;font-family:'Bitstream Vera Sans';fill:#eeeeec;fill-opacity:1;stroke:none"
                     id="text5855-1-8-6-7-3-8-6"
                     xml:space="preserve"><tspan
                       x="4474.6182"
                       y="1215.743"
                       style="letter-spacing:11.06259632;fill:#eeeeec;fill-opacity:1"
                       id="tspan5857-7-5-9-2-5-4-3"><tspan
                         style="letter-spacing:0.2523815;fill:#eeeeec;fill-opacity:1"
                         id="tspan5859-9-55-5-4-5-5-5">TM</tspan></tspan></text>
                </g>
              </g>
            </g>
          </g>
        </g>
      </g>
      <circle
         id="path13685-1"
         style="color:#000000;display:inline;overflow:visible;visibility:visible;fill:#ffffff;fill-opacity:1;fill-rule:nonzero;stroke:none;stroke-width:1;marker:none;enable-background:accumulate"
         cx="1665.3429"
         cy="932.16943"
         r="17.077"
         transform="translate(-1641.7153,22.599037)" />
      <circle
         id="path13685-4-8"
         style="color:#000000;display:inline;overflow:visible;visibility:visible;fill:#ffffff;fill-opacity:1;fill-rule:nonzero;stroke:none;stroke-width:1;marker:none;enable-background:accumulate"
         cx="1712.4518"
         cy="932.16943"
         r="17.077"
         transform="translate(-1641.7153,22.599037)" />
      <circle
         id="path13685-4-4-6"
         style="color:#000000;display:inline;overflow:visible;visibility:visible;fill:#ffffff;fill-opacity:1;fill-rule:nonzero;stroke:none;stroke-width:1;marker:none;enable-background:accumulate"
         cx="1759.5608"
         cy="932.16943"
         r="17.077"
         transform="translate(-1641.7153,22.599037)" />
      <circle
         id="path13685-4-4-7-5"
         style="color:#000000;display:inline;overflow:visible;visibility:visible;fill:#ffffff;fill-opacity:1;fill-rule:nonzero;stroke:none;stroke-width:1;marker:none;enable-background:accumulate"
         cx="1806.6698"
         cy="932.16943"
         r="17.077"
         transform="translate(-1641.7153,22.599037)" />
      <circle
         id="path13685-4-4-7-4-8"
         style="color:#000000;display:inline;overflow:visible;visibility:visible;fill:#ffffff;fill-opacity:1;fill-rule:nonzero;stroke:none;stroke-width:1;marker:none;enable-background:accumulate"
         cx="1853.7787"
         cy="932.16943"
         r="17.077"
         transform="translate(-1641.7153,22.599037)" />
      <circle
         id="path13685-4-4-7-4-0-8"
         style="color:#000000;display:inline;overflow:visible;visibility:visible;fill:#ffffff;fill-opacity:1;fill-rule:nonzero;stroke:none;stroke-width:1;marker:none;enable-background:accumulate"
         cx="1900.8877"
         cy="932.16943"
         r="17.077"
         transform="translate(-1641.7153,22.599037)" />
      <rect
         ry="0"
         rx="0"
         y="935.31561"
         x="1661.2208"
         height="59.081093"
         width="6.4774823"
         id="rect13777-0"
         style="color:#000000;display:inline;overflow:visible;visibility:visible;fill:#ffffff;fill-opacity:1;fill-rule:nonzero;stroke:none;stroke-width:1;marker:none;enable-background:accumulate"
         transform="translate(-1641.7153,22.599037)" />
      <rect
         ry="0"
         rx="0"
         y="935.31561"
         x="1708.3298"
         height="59.081093"
         width="6.4774823"
         id="rect13777-1-9"
         style="color:#000000;display:inline;overflow:visible;visibility:visible;fill:#ffffff;fill-opacity:1;fill-rule:nonzero;stroke:none;stroke-width:1;marker:none;enable-background:accumulate"
         transform="translate(-1641.7153,22.599037)" />
      <rect
         ry="0"
         rx="0"
         y="935.31561"
         x="1755.4387"
         height="59.081093"
         width="6.4774823"
         id="rect13777-1-0-5"
         style="color:#000000;display:inline;overflow:visible;visibility:visible;fill:#ffffff;fill-opacity:1;fill-rule:nonzero;stroke:none;stroke-width:1;marker:none;enable-background:accumulate"
         transform="translate(-1641.7153,22.599037)" />
      <rect
         ry="0"
         rx="0"
         y="935.31561"
         x="1802.5477"
         height="59.081093"
         width="6.4774823"
         id="rect13777-1-0-1-99"
         style="color:#000000;display:inline;overflow:visible;visibility:visible;fill:#ffffff;fill-opacity:1;fill-rule:nonzero;stroke:none;stroke-width:1;marker:none;enable-background:accumulate"
         transform="translate(-1641.7153,22.599037)" />
      <rect
         ry="0"
         rx="0"
         y="935.31561"
         x="1849.6567"
         height="59.081093"
         width="6.4774823"
         id="rect13777-1-0-1-9-04"
         style="color:#000000;display:inline;overflow:visible;visibility:visible;fill:#ffffff;fill-opacity:1;fill-rule:nonzero;stroke:none;stroke-width:1;marker:none;enable-background:accumulate"
         transform="translate(-1641.7153,22.599037)" />
      <rect
         ry="0"
         rx="0"
         y="935.31561"
         x="1896.7656"
         height="59.081093"
         width="6.4774823"
         id="rect13777-1-0-1-9-0-2"
         style="color:#000000;display:inline;overflow:visible;visibility:visible;fill:#ffffff;fill-opacity:1;fill-rule:nonzero;stroke:none;stroke-width:1;marker:none;enable-background:accumulate"
         transform="translate(-1641.7153,22.599037)" />
      <rect
         y="980.85095"
         x="1641.6211"
         height="76.569397"
         width="764.53223"
         id="rect7668"
         style="display:inline;opacity:1;fill:#ffffff;fill-opacity:1;fill-rule:evenodd;stroke:none;stroke-width:3;stroke-miterlimit:4;stroke-dasharray:3, 18;stroke-dashoffset:0;stroke-opacity:1"
         transform="translate(-1641.7153,22.599037)" />
      <flowRoot
         transform="matrix(1.3404792,0,0,1.3312544,18.6968,1026.0131)"
         style="font-style:normal;font-variant:normal;font-weight:normal;font-stretch:normal;font-size:6.19838572px;line-height:125%;font-family:'Open Sans';-inkscape-font-specification:'Open Sans';text-align:start;letter-spacing:0px;word-spacing:0px;writing-mode:lr-tb;text-anchor:start;fill:#6b8e9f;fill-opacity:1;stroke:none;stroke-width:1px;stroke-linecap:butt;stroke-linejoin:miter;stroke-opacity:1"
         id="flowRoot7495-3-1-3-7-0-9-35"
         xml:space="preserve"><flowRegion
           id="flowRegion7497-5-2-3-6-6-0-62"><rect
             style="font-style:normal;font-variant:normal;font-weight:normal;font-stretch:normal;font-family:'Open Sans';-inkscape-font-specification:'Open Sans';text-align:start;text-anchor:start;fill:#6b8e9f;fill-opacity:1"
             y="-0.32222947"
             x="0.013115888"
             height="89.864861"
             width="752.862"
             id="rect7499-6-7-8-8-8-3-9" /></flowRegion><flowPara
           style="font-style:normal;font-variant:normal;font-weight:normal;font-stretch:normal;font-size:20.6612854px;font-family:'Open Sans';-inkscape-font-specification:'Open Sans';text-align:start;text-anchor:start;fill:#6b8e9f;fill-opacity:1"
           id="flowPara7501-2-0-0-9-7-3-1">Karlsruhe Institute of Technology                                2016</flowPara></flowRoot>    </g>
    <g
       id="titletranslator"
       inkscape:label="#titletranslator"
       transform="translate(0,7.0851071)">
      <flowRoot
         xml:space="preserve"
         id="title"
         style="font-style:normal;font-variant:normal;font-weight:bold;font-stretch:normal;font-size:12.98549747px;line-height:125%;font-family:'Open Sans';-inkscape-font-specification:'Open Sans Bold';text-align:start;letter-spacing:0px;word-spacing:0px;writing-mode:lr-tb;text-anchor:start;fill:#555555;fill-opacity:1;stroke:none;stroke-width:1px;stroke-linecap:butt;stroke-linejoin:miter;stroke-opacity:1"
         transform="matrix(1.0679066,0,0,1,1095.1791,486.11101)"><flowRegion
           id="flowRegion7497-9"><rect
             id="rect7499-7"
             width="867.6391"
             height="212.55467"
             x="-203.17442"
             y="-9.5796041"
             style="font-style:normal;font-variant:normal;font-weight:bold;font-stretch:normal;font-family:'Open Sans';-inkscape-font-specification:'Open Sans Bold';text-align:start;writing-mode:lr-tb;text-anchor:start;fill:#555555;fill-opacity:1" /></flowRegion><flowPara
           id="flowPara7501-3"
           style="font-style:normal;font-variant:normal;font-weight:bold;font-stretch:normal;font-size:43.28499222px;font-family:'Open Sans';-inkscape-font-specification:'Open Sans Bold';text-align:start;writing-mode:lr-tb;text-anchor:start;fill:#555555;fill-opacity:1">$title</flowPara></flowRoot>      <flowRoot
         xml:space="preserve"
         id="longtitle"
         style="font-style:normal;font-variant:normal;font-weight:bold;font-stretch:normal;font-size:12.98549747px;line-height:125%;font-family:'Open Sans';-inkscape-font-specification:'Open Sans Bold';text-align:start;letter-spacing:0px;word-spacing:0px;writing-mode:lr-tb;text-anchor:start;fill:#555555;fill-opacity:1;stroke:none;stroke-width:1px;stroke-linecap:butt;stroke-linejoin:miter;stroke-opacity:1"
         transform="matrix(1.0679066,0,0,1,1095.1791,486.11101)"><flowRegion
           id="flowRegion7497-9-6"><rect
             id="rect7499-7-2"
             width="867.6391"
             height="212.55467"
             x="-203.17442"
             y="-9.5796041"
             style="font-style:normal;font-variant:normal;font-weight:bold;font-stretch:normal;font-family:'Open Sans';-inkscape-font-specification:'Open Sans Bold';text-align:start;writing-mode:lr-tb;text-anchor:start;fill:#555555;fill-opacity:1" /></flowRegion><flowPara
           id="flowPara7501-3-9"
           style="font-style:normal;font-variant:normal;font-weight:bold;font-stretch:normal;font-size:31.44971848px;font-family:'Open Sans';-inkscape-font-specification:'Open Sans Bold';text-align:start;writing-mode:lr-tb;text-anchor:start;fill:#555555;fill-opacity:1">$longtitle</flowPara></flowRoot>    </g>
  </g>
  <g
     inkscape:groupmode="layer"
     id="layer2"
     inkscape:label="black"
     style="display:none">
    <rect
       style="opacity:1;fill:#000000;fill-opacity:1;fill-rule:evenodd;stroke:none;stroke-width:0.5;stroke-miterlimit:4;stroke-dasharray:none;stroke-opacity:1"
       id="fadetoblack"
       width="1920.0001"
       height="1080"
       x="-1920.0002"
       y="-0.019361038"
       rx="0"
       ry="0"
       transform="scale(-1,1)"
       inkscape:label="#fadetoblack" />
  </g>
</svg>
