<?xml version="1.0" encoding="UTF-8" standalone="no"?>
<!-- Created with Inkscape (http://www.inkscape.org/) -->

<svg
   xmlns:dc="http://purl.org/dc/elements/1.1/"
   xmlns:cc="http://creativecommons.org/ns#"
   xmlns:rdf="http://www.w3.org/1999/02/22-rdf-syntax-ns#"
   xmlns:svg="http://www.w3.org/2000/svg"
   xmlns="http://www.w3.org/2000/svg"
   xmlns:xlink="http://www.w3.org/1999/xlink"
   xmlns:sodipodi="http://sodipodi.sourceforge.net/DTD/sodipodi-0.dtd"
   xmlns:inkscape="http://www.inkscape.org/namespaces/inkscape"
   width="287.04709"
   height="417.92252"
   id="svg2"
   version="1.1"
   inkscape:version="0.48.4 r9939"
   sodipodi:docname="New document 1">
  <defs
     id="defs4">
    <linearGradient
       id="linearGradient3916">
      <stop
         style="stop-color:#000000;stop-opacity:1;"
         offset="0"
         id="stop3918" />
      <stop
         id="stop3928"
         offset="0.5"
         style="stop-color:#000000;stop-opacity:0.64313725;" />
      <stop
         id="stop3924"
         offset="1"
         style="stop-color:#000000;stop-opacity:0.28682169;" />
    </linearGradient>
    <linearGradient
       inkscape:collect="always"
       xlink:href="#linearGradient3916"
       id="linearGradient3922"
       x1="781.76086"
       y1="576.9375"
       x2="989.08734"
       y2="576.9375"
       gradientUnits="userSpaceOnUse" />
  </defs>
  <sodipodi:namedview
     id="base"
     pagecolor="#ffffff"
     bordercolor="#666666"
     borderopacity="1.0"
     inkscape:pageopacity="0.0"
     inkscape:pageshadow="2"
     inkscape:zoom="0.7"
     inkscape:cx="644.23374"
     inkscape:cy="36.429751"
     inkscape:document-units="px"
     inkscape:current-layer="layer1"
     showgrid="false"
     fit-margin-top="0"
     fit-margin-left="0"
     fit-margin-right="0"
     fit-margin-bottom="0"
     inkscape:window-width="1855"
     inkscape:window-height="1056"
     inkscape:window-x="65"
     inkscape:window-y="24"
     inkscape:window-maximized="1" />
  <metadata
     id="metadata7">
    <rdf:RDF>
      <cc:Work
         rdf:about="">
        <dc:format>image/svg+xml</dc:format>
        <dc:type
           rdf:resource="http://purl.org/dc/dcmitype/StillImage" />
        <dc:title></dc:title>
      </cc:Work>
    </rdf:RDF>
  </metadata>
  <g
     inkscape:label="Layer 1"
     inkscape:groupmode="layer"
     id="layer1"
     transform="translate(-18.528189,-27.43553)">
    <g
       id="g3974"
       transform="translate(-815.71429,-215.71429)">
      <path
         sodipodi:nodetypes="sssssscssssssssssscssscsscsssssssscsssssssssssssssss"
         inkscape:connector-curvature="0"
         id="path3140"
         d="m 844.50095,634.53306 c 8.49609,-16.65371 8.79891,-20.16379 4.29367,-49.76793 -6.95799,-45.72111 -5.60472,-99.15766 3.32735,-131.38636 4.19658,-15.14216 14.75798,-53.26228 23.46975,-84.71137 23.9513,-86.46297 35.62204,-99.52722 95.47876,-106.87917 17.4718,-2.14599 39.86742,-4.89907 49.76802,-6.11797 9.9007,-1.2189 17.9731,-0.59475 17.939,1.38699 -0.034,1.98175 -9.8059,8.36818 -21.715,14.19209 -26.03694,12.73289 -51.94303,44.47211 -41.62519,50.99757 3.42217,2.16431 17.18171,3.96428 30.57669,3.99995 35.07,0.0934 32.9894,7.41758 -4.2356,14.90968 -7.57112,1.52378 -13.76558,3.68644 -13.76558,4.80588 0,1.11943 6.48963,10.53464 14.42148,20.92267 17.8704,23.40399 25.5433,53.44524 21.8673,85.61452 -1.5193,13.29614 -10.3229,54.80186 -19.5634,92.23497 -9.24046,37.4331 -17.26039,75.53573 -17.82203,84.67252 -0.97854,15.91873 2.53703,18.92775 16.74253,21.47471 8.1536,1.46186 -28.65612,0.70443 -78.20662,1.01108 l -90.09191,0.55757 z m 75.79233,7.26874 c 4.17638,-5.03224 10.90005,-5.84562 31.22647,-3.77756 l 25.90417,2.63554 18.34656,-76.29078 c 31.66682,-131.68059 31.64512,-159.14101 -0.15764,-198.52098 l -17.52797,-21.70425 -16.74649,5.90846 c -30.6207,10.80364 -42.94268,6.71196 -45.9833,-15.26937 -2.18916,-15.82601 -20.88649,-14.87624 -25.20746,1.28046 -2.6722,9.99172 -1.63921,12.45306 6.52984,15.55892 5.33731,2.02924 10.58802,6.21805 11.66825,9.30845 1.08022,3.09041 0.6642,36.11502 -0.92447,73.38802 -2.6665,62.56018 -4.10346,71.51299 -18.69519,116.47812 -8.69368,26.78996 -16.85947,59.66857 -18.1462,73.06355 l -2.33951,24.35451 23.36528,0 c 15.69868,0 25.11164,-2.10425 28.68766,-6.41309 z M 1110.8443,307.11805 c 0,-5.89738 -3.9072,-22.3209 -8.6827,-36.49669 -10.0333,-29.78321 -8.5287,-37.98026 2.097,-11.42425 7.59,18.96934 13.8773,58.64347 9.2935,58.64347 -1.4893,0 -2.7078,-4.82513 -2.7078,-10.72253 z m -73.82,-8.64006 c -1.5578,-6.20728 -2.0157,-12.10282 -1.0173,-13.10121 0.9984,-0.99838 3.0899,3.26344 4.6478,9.47073 1.558,6.20728 2.0157,12.10282 1.0173,13.1012 -0.9983,0.99838 -3.0899,-3.26344 -4.6478,-9.47072 z m 35.6998,0.57828 c 0,-5.67226 -2.0259,-15.67879 -4.502,-22.23674 -2.8238,-7.47868 -2.9143,-10.34461 -0.2429,-7.68797 5.9419,5.90894 13.2194,40.23789 8.5302,40.23789 -2.0819,0 -3.7853,-4.64094 -3.7853,-10.31318 z"
         style="fill:#000000" />
      <path
         inkscape:connector-curvature="0"
         id="path3936"
         d="m 839.75955,655.64272 275.77185,0"
         style="fill:none;stroke:#000000;stroke-width:10.86231995;stroke-linecap:round;stroke-linejoin:round;stroke-miterlimit:4;stroke-opacity:1;stroke-dasharray:none" />
    </g>
  </g>
</svg>
