<?xml version="1.0" encoding="UTF-8" standalone="no"?>
<!-- Created with Inkscape (http://www.inkscape.org/) -->

<svg
   xmlns:dc="http://purl.org/dc/elements/1.1/"
   xmlns:cc="http://creativecommons.org/ns#"
   xmlns:rdf="http://www.w3.org/1999/02/22-rdf-syntax-ns#"
   xmlns:svg="http://www.w3.org/2000/svg"
   xmlns="http://www.w3.org/2000/svg"
   xmlns:xlink="http://www.w3.org/1999/xlink"
   xmlns:sodipodi="http://sodipodi.sourceforge.net/DTD/sodipodi-0.dtd"
   xmlns:inkscape="http://www.inkscape.org/namespaces/inkscape"
   width="1920"
   height="1080"
   id="svg2"
   version="1.1"
   inkscape:version="0.48.4 r9939"
   sodipodi:docname="outro.svg">
  <defs
     id="defs4">
    <linearGradient
       id="linearGradient3807">
      <stop
         style="stop-color:#ffffff;stop-opacity:0;"
         offset="0"
         id="stop3809" />
      <stop
         id="stop3815"
         offset="0.2"
         style="stop-color:#ffffff;stop-opacity:0.78431374;" />
      <stop
         style="stop-color:#ffffff;stop-opacity:0.78431374;"
         offset="1"
         id="stop3811" />
    </linearGradient>
    <linearGradient
       inkscape:collect="always"
       xlink:href="#linearGradient3807"
       id="linearGradient3813"
       x1="650"
       y1="595.07648"
       x2="1230"
       y2="595.07648"
       gradientUnits="userSpaceOnUse"
       gradientTransform="matrix(1,0,0,0.99744172,-74.949237,-22.857439)" />
    <linearGradient
       inkscape:collect="always"
       xlink:href="#linearGradient3807"
       id="linearGradient3819"
       x1="575.05078"
       y1="570.69666"
       x2="1155.0508"
       y2="570.69666"
       gradientUnits="userSpaceOnUse"
       spreadMethod="reflect" />
    <linearGradient
       inkscape:collect="always"
       xlink:href="#linearGradient3807-2"
       id="linearGradient3819-8"
       x1="575.05078"
       y1="570.69666"
       x2="1155.0508"
       y2="570.69666"
       gradientUnits="userSpaceOnUse"
       spreadMethod="reflect" />
    <linearGradient
       id="linearGradient3807-2">
      <stop
         style="stop-color:#ffffff;stop-opacity:0;"
         offset="0"
         id="stop3809-5" />
      <stop
         id="stop3815-1"
         offset="0.2"
         style="stop-color:#ffffff;stop-opacity:1;" />
      <stop
         style="stop-color:#ffffff;stop-opacity:1;"
         offset="1"
         id="stop3811-1" />
    </linearGradient>
    <linearGradient
       gradientTransform="matrix(2.3933139,0,0,1,-1291.5105,359.35582)"
       y2="570.69666"
       x2="1155.0508"
       y1="570.69666"
       x1="575.05078"
       spreadMethod="reflect"
       gradientUnits="userSpaceOnUse"
       id="linearGradient4017-1"
       xlink:href="#linearGradient3807-2-2"
       inkscape:collect="always" />
    <linearGradient
       id="linearGradient3807-2-2">
      <stop
         style="stop-color:#ffffff;stop-opacity:0;"
         offset="0"
         id="stop3809-5-5" />
      <stop
         id="stop3815-1-7"
         offset="0.2"
         style="stop-color:#ffffff;stop-opacity:1;" />
      <stop
         style="stop-color:#ffffff;stop-opacity:1;"
         offset="1"
         id="stop3811-1-0" />
    </linearGradient>
    <linearGradient
       y2="570.69666"
       x2="1155.0508"
       y1="570.69666"
       x1="575.05078"
       spreadMethod="reflect"
       gradientTransform="matrix(2.3933139,0,0,1,-842.013,2.87365)"
       gradientUnits="userSpaceOnUse"
       id="linearGradient4510"
       xlink:href="#linearGradient3807-2-2"
       inkscape:collect="always" />
    <filter
       id="filter4858"
       inkscape:label="Drop Shadow"
       width="1.2"
       color-interpolation-filters="sRGB">
      <feFlood
         id="feFlood4860"
         flood-opacity="0.29666666666666669"
         flood-color="rgb(255,255,255)"
         result="flood" />
      <feComposite
         id="feComposite4862"
         in2="SourceGraphic"
         in="flood"
         operator="in"
         result="composite1" />
      <feGaussianBlur
         id="feGaussianBlur4864"
         stdDeviation="2"
         result="blur" />
      <feOffset
         id="feOffset4866"
         dx="2"
         dy="2.2000000000000002"
         result="offset" />
      <feComposite
         id="feComposite4868"
         in2="offset"
         in="SourceGraphic"
         operator="over"
         result="composite2"
         dy="0" />
    </filter>
    <filter
       id="filter3207"
       inkscape:label="Invert"
       x="0"
       y="0"
       width="1"
       height="1"
       inkscape:menu="Color"
       inkscape:menu-tooltip="Invert colors"
       color-interpolation-filters="sRGB">
      <feColorMatrix
         id="feColorMatrix3209"
         type="saturate"
         values="1"
         result="fbSourceGraphic" />
      <feColorMatrix
         id="feColorMatrix3211"
         in="fbSourceGraphic"
         values="-1 0 0 0 1 0 -1 0 0 1 0 0 -1 0 1 0 0 0 1 0 " />
    </filter>
  </defs>
  <sodipodi:namedview
     id="base"
     pagecolor="#ffffff"
     bordercolor="#666666"
     borderopacity="1.0"
     inkscape:pageopacity="0.0"
     inkscape:pageshadow="2"
     inkscape:zoom="0.7"
     inkscape:cx="734.95703"
     inkscape:cy="261.97074"
     inkscape:document-units="px"
     inkscape:current-layer="layer1"
     showgrid="false"
     inkscape:window-width="1360"
     inkscape:window-height="768"
     inkscape:window-x="0"
     inkscape:window-y="0"
     inkscape:window-maximized="1"
     showguides="true"
     inkscape:guide-bbox="true"
     inkscape:snap-global="true"
     inkscape:snap-bbox="true"
     inkscape:bbox-paths="true"
     inkscape:bbox-nodes="true"
     inkscape:snap-bbox-edge-midpoints="true"
     inkscape:snap-bbox-midpoints="true"
     inkscape:object-paths="false"
     inkscape:snap-to-guides="true">
    <sodipodi:guide
       orientation="0,1"
       position="0,0"
       id="guide3017" />
    <sodipodi:guide
       orientation="0,1"
       position="0,1080"
       id="guide3019" />
    <sodipodi:guide
       orientation="1,0"
       position="0,0"
       id="guide3021" />
    <sodipodi:guide
       orientation="1,0"
       position="1920,1337.442"
       id="guide3023" />
    <sodipodi:guide
       orientation="0,1"
       position="0,25"
       id="guide3025" />
    <sodipodi:guide
       orientation="0,1"
       position="0,1048"
       id="guide3027" />
    <sodipodi:guide
       orientation="1,0"
       position="32,0"
       id="guide3029" />
    <sodipodi:guide
       orientation="1,0"
       position="1888,0"
       id="guide3031" />
    <sodipodi:guide
       orientation="1,0"
       position="960,1080"
       id="guide3819" />
    <sodipodi:guide
       orientation="0,1"
       position="0,540"
       id="guide3821" />
  </sodipodi:namedview>
  <metadata
     id="metadata7">
    <rdf:RDF>
      <cc:Work
         rdf:about="">
        <dc:format>image/svg+xml</dc:format>
        <dc:type
           rdf:resource="http://purl.org/dc/dcmitype/StillImage" />
        <dc:title />
      </cc:Work>
    </rdf:RDF>
  </metadata>
  <g
     inkscape:label="Ebene 1"
     inkscape:groupmode="layer"
     id="layer1"
     transform="translate(0,27.63782)">
    <rect
       style="fill:#000000;fill-opacity:1;fill-rule:nonzero;stroke:none"
       id="rect3797"
       width="1920"
       height="1080"
       x="0"
       y="-27.637817" />
    <text
       xml:space="preserve"
       style="font-size:40px;font-style:normal;font-variant:normal;font-weight:normal;font-stretch:normal;text-align:center;line-height:125%;letter-spacing:0px;word-spacing:0px;text-anchor:middle;fill:#000000;fill-opacity:1;stroke:none;font-family:Courier 10 Pitch;-inkscape-font-specification:Courier 10 Pitch"
       x="959.01093"
       y="916.61218"
       id="text3893"
       sodipodi:linespacing="125%"><tspan
         sodipodi:role="line"
         id="tspan3895"
         x="959.01093"
         y="916.61218"
         style="font-style:normal;font-variant:normal;font-weight:normal;font-stretch:normal;text-align:center;text-anchor:middle;fill:#a5a5a5;fill-opacity:1;font-family:TeX Gyre Adventor;-inkscape-font-specification:TeX Gyre Adventor">More Recordings available on <tspan
   style="font-weight:bold;-inkscape-font-specification:TeX Gyre Adventor Bold"
   id="tspan3028">media.ccc.de</tspan></tspan></text>
    <g
       id="layer1-3"
       inkscape:label="Layer 1"
       transform="matrix(4.3809523,0,0,4.3809523,757.14284,614.50502)">
      <g
         inkscape:export-ydpi="300.23013"
         inkscape:export-xdpi="300.23013"
         inkscape:export-filename="/mnt/hgfs/Bov/Documents/Work/2007/cc/identity/srr buttons/big/by-sa.png"
         id="g287"
         transform="matrix(0.9937807,0,0,0.9936694,-191.38974,-73.458148)">
        <path
           style="fill:#aab2ab"
           d="m 182.23532,75.39014 114.06396,0.20312 c 1.59375,0 3.01758,-0.23682 3.01758,3.18018 l -0.13965,37.56689 -119.82031,0 0,-37.70654 c 0,-1.68457 0.16309,-3.24365 2.87842,-3.24365 z"
           nodetypes="ccccccc"
           id="path3817_2_"
           inkscape:connector-curvature="0" />
        <g
           transform="matrix(0.872921,0,0,0.872921,50.12536,143.2144)"
           id="g5908_2_">
          <path
             style="fill:#ffffff"
             d="m 187.20944,-55.6792 c 0.006,8.68024 -7.02786,15.72095 -15.7081,15.72708 -8.68021,0.005 -15.72205,-7.02786 -15.72708,-15.70804 0,-0.0067 0,-0.01233 0,-0.01904 -0.005,-8.68134 7.02783,-15.72205 15.70807,-15.72711 8.68134,-0.0056 15.72208,7.02789 15.72711,15.70807 0,0.0056 0,0.01233 0,0.01904 z"
             rx="22.939548"
             type="arc"
             cy="264.3577"
             ry="22.939548"
             cx="296.35416"
             id="path5906_2_"
             inkscape:connector-curvature="0" />
          <g
             transform="translate(-289.6157,99.0653)"
             id="g5706_2_">
            <path
               d="m 473.88455,-167.54724 c 3.48541,3.48596 5.22839,7.75391 5.22839,12.80273 0,5.04938 -1.7128,9.27148 -5.13834,12.66736 -3.63531,3.5766 -7.93179,5.36432 -12.88947,5.36432 -4.89777,0 -9.11987,-1.77261 -12.6651,-5.31955 -3.54584,-3.54581 -5.31845,-7.78299 -5.31845,-12.71213 0,-4.92859 1.77261,-9.19598 5.31845,-12.80273 3.4552,-3.48651 7.67725,-5.22894 12.6651,-5.22894 5.04829,0 9.31401,1.74243 12.79942,5.22894 z m -23.11798,2.34485 c -2.94675,2.97638 -4.41956,6.46289 -4.41956,10.46234 0,3.99835 1.45828,7.4552 4.37424,10.37067 2.91653,2.9165 6.38849,4.37476 10.41705,4.37476 4.02853,0 7.53018,-1.47281 10.50656,-4.41901 2.8259,-2.73584 4.23941,-6.17706 4.23941,-10.32642 0,-4.11804 -1.43646,-7.61292 -4.30768,-10.48474 -2.87064,-2.87067 -6.34988,-4.30652 -10.43829,-4.30652 -4.08837,0 -7.54638,1.44318 -10.37173,4.32892 z m 7.75449,8.70312 c -0.45032,-0.98163 -1.12433,-1.47223 -2.02325,-1.47223 -1.58914,0 -2.38342,1.06952 -2.38342,3.2085 0,2.13959 0.79428,3.20911 2.38342,3.20911 1.04938,0 1.79895,-0.5213 2.24866,-1.56512 l 2.20276,1.17303 c -1.04993,1.86548 -2.62506,2.79901 -4.72549,2.79901 -1.6199,0 -2.91763,-0.4967 -3.89206,-1.48956 -0.97607,-0.99341 -1.46274,-2.36273 -1.46274,-4.10797 0,-1.71558 0.50229,-3.07709 1.50748,-4.08563 1.00519,-1.00793 2.25705,-1.51251 3.75781,-1.51251 2.22012,0 3.80984,0.87488 4.77081,2.62286 l -2.38398,1.22051 z m 10.36334,0 c -0.45087,-0.98163 -1.11148,-1.47223 -1.98239,-1.47223 -1.62106,0 -2.43213,1.06952 -2.43213,3.2085 0,2.13959 0.81107,3.20911 2.43213,3.20911 1.05103,0 1.78717,-0.5213 2.20724,-1.56512 l 2.25201,1.17303 c -1.04825,1.86548 -2.62119,2.79901 -4.71768,2.79901 -1.61771,0 -2.91263,-0.4967 -3.88647,-1.48956 -0.97217,-0.99341 -1.45938,-2.36273 -1.45938,-4.10797 0,-1.71558 0.49448,-3.07709 1.48288,-4.08563 0.98782,-1.00793 2.24527,-1.51251 3.77347,-1.51251 2.21619,0 3.80368,0.87488 4.76132,2.62286 l -2.431,1.22051 z"
               id="path5708_2_"
               inkscape:connector-curvature="0" />
          </g>
        </g>
        <path
           id="path294"
           d="m 297.29639,74.91064 -116.22951,0 c -1.24658,0 -2.26074,1.01465 -2.26074,2.26123 l 0,39.49561 c 0,0.28174 0.22852,0.51074 0.51025,0.51074 l 119.73,0 c 0.28174,0 0.51074,-0.229 0.51074,-0.51074 l 0,-39.4956 c 0,-1.24659 -1.01416,-2.26124 -2.26074,-2.26124 z m -116.22951,1.02149 116.22951,0 c 0.68359,0 1.23926,0.55615 1.23926,1.23975 0,0 0,15.91943 0,27.41846 l -83.07375,0 c -3.04492,5.50537 -8.91113,9.24365 -15.64355,9.24365 -6.73535,0 -12.6001,-3.73486 -15.64355,-9.24365 l -4.34814,0 c 0,-11.49902 0,-27.41846 0,-27.41846 -2e-5,-0.6836 0.55663,-1.23975 1.24022,-1.23975 z"
           inkscape:connector-curvature="0" />
        <g
           id="g296"
           enable-background="new    ">
          <path
             style="fill:#ffffff"
             id="path298"
             d="m 265.60986,112.8833 c 0.0801,0.15576 0.1875,0.28174 0.32129,0.37842 0.13379,0.0962 0.29004,0.16797 0.46973,0.21436 0.18066,0.0469 0.36719,0.0703 0.55957,0.0703 0.12988,0 0.26953,-0.0107 0.41895,-0.0327 0.14844,-0.0215 0.28809,-0.064 0.41895,-0.12598 0.12988,-0.062 0.23926,-0.14795 0.3252,-0.25684 0.0879,-0.10889 0.13086,-0.24707 0.13086,-0.41553 0,-0.18018 -0.0576,-0.32617 -0.17285,-0.43848 -0.11426,-0.1123 -0.26562,-0.20508 -0.45215,-0.28027 -0.18555,-0.0742 -0.39746,-0.13965 -0.63281,-0.1958 -0.23633,-0.0562 -0.47559,-0.11816 -0.71777,-0.18701 -0.24902,-0.062 -0.49121,-0.13818 -0.72754,-0.22852 -0.23535,-0.0898 -0.44727,-0.20703 -0.63379,-0.3501 -0.18652,-0.14307 -0.33691,-0.32178 -0.45215,-0.53662 -0.11426,-0.21484 -0.17188,-0.47461 -0.17188,-0.7793 0,-0.34277 0.0732,-0.63965 0.21875,-0.8916 0.14648,-0.25195 0.33789,-0.46191 0.57422,-0.63037 0.23535,-0.16797 0.50293,-0.29248 0.80176,-0.37354 0.29785,-0.0806 0.59668,-0.12109 0.89453,-0.12109 0.34863,0 0.68262,0.0391 1.00293,0.11719 0.31934,0.0776 0.60449,0.2041 0.85254,0.37842 0.24902,0.17432 0.44629,0.39697 0.59277,0.66797 0.14551,0.271 0.21875,0.59961 0.21875,0.98535 l -1.42188,0 c -0.0127,-0.19922 -0.0547,-0.36426 -0.125,-0.49463 -0.0713,-0.13086 -0.16602,-0.2334 -0.2832,-0.30859 -0.11816,-0.0742 -0.25293,-0.12744 -0.4043,-0.1582 -0.15234,-0.0312 -0.31738,-0.0469 -0.49707,-0.0469 -0.11719,0 -0.23535,0.0127 -0.35254,0.0371 -0.11816,0.0254 -0.22461,0.0688 -0.32031,0.13086 -0.0967,0.0625 -0.17578,0.14014 -0.2373,0.2334 -0.0615,0.0937 -0.0928,0.21191 -0.0928,0.35498 0,0.13086 0.0244,0.23682 0.0742,0.31738 0.0498,0.0811 0.14844,0.15576 0.29395,0.22412 0.14551,0.0684 0.34766,0.13721 0.60547,0.20557 0.25781,0.0684 0.59473,0.15576 1.01172,0.26123 0.12402,0.0249 0.2959,0.0703 0.5166,0.13574 0.2207,0.0654 0.43945,0.16943 0.65723,0.3125 0.21777,0.14355 0.40527,0.33496 0.56445,0.57422 0.1582,0.23975 0.2373,0.54639 0.2373,0.91992 0,0.30518 -0.0596,0.58838 -0.17773,0.84961 -0.11816,0.26172 -0.29395,0.4873 -0.52734,0.67676 -0.2334,0.19043 -0.52246,0.33789 -0.86719,0.44385 -0.3457,0.10596 -0.74609,0.15869 -1.19922,0.15869 -0.36719,0 -0.72363,-0.0454 -1.06934,-0.13574 -0.34473,-0.0903 -0.65039,-0.23242 -0.91504,-0.42578 -0.26367,-0.19336 -0.47363,-0.43994 -0.62988,-0.73877 -0.15527,-0.29932 -0.22949,-0.65381 -0.22363,-1.06494 l 1.42188,0 c -3e-5,0.22412 0.04,0.41406 0.12106,0.56933 z"
             inkscape:connector-curvature="0" />
          <path
             style="fill:#ffffff"
             id="path300"
             d="m 273.8667,107.8667 2.49316,6.66406 -1.52246,0 -0.50391,-1.48438 -2.49316,0 -0.52246,1.48438 -1.47461,0 2.52051,-6.66406 1.50293,0 z m 0.084,4.08594 -0.83984,-2.44336 -0.0186,0 -0.86914,2.44336 1.72753,0 z"
             inkscape:connector-curvature="0" />
        </g>
        <g
           id="g302"
           enable-background="new    ">
          <path
             style="fill:#ffffff"
             id="path304"
             d="m 239.17821,107.8667 c 0.31738,0 0.60742,0.0283 0.86914,0.084 0.26172,0.0561 0.48633,0.14795 0.67383,0.27539 0.18652,0.12744 0.33203,0.29688 0.43457,0.5083 0.10254,0.21142 0.1543,0.47266 0.1543,0.78369 0,0.33594 -0.0762,0.61523 -0.22949,0.83936 -0.15234,0.22412 -0.37891,0.40723 -0.67773,0.55029 0.41211,0.11816 0.71973,0.3252 0.92285,0.62109 0.20312,0.29589 0.30469,0.65234 0.30469,1.06934 0,0.33594 -0.0654,0.62695 -0.19629,0.87305 -0.13086,0.24561 -0.30762,0.44629 -0.52832,0.60205 -0.22168,0.15576 -0.47461,0.271 -0.75781,0.34521 -0.28418,0.0752 -0.5752,0.1123 -0.875,0.1123 l -3.23633,0 0,-6.66406 3.14159,0 0,1e-5 z m -0.1875,2.69531 c 0.26172,0 0.47656,-0.062 0.64551,-0.18604 0.16797,-0.12451 0.25195,-0.32568 0.25195,-0.60498 0,-0.15527 -0.0283,-0.28271 -0.084,-0.38184 -0.0566,-0.0996 -0.13086,-0.17676 -0.22461,-0.23291 -0.0937,-0.0557 -0.20117,-0.0947 -0.32227,-0.11621 -0.12207,-0.022 -0.24805,-0.0327 -0.37891,-0.0327 l -1.37305,0 0,1.55469 1.48536,0 z m 0.0859,2.82813 c 0.14355,0 0.28027,-0.0137 0.41113,-0.042 0.13086,-0.0278 0.24707,-0.0747 0.34668,-0.13965 0.0996,-0.0654 0.17871,-0.1543 0.23828,-0.26611 0.0596,-0.11181 0.0889,-0.25488 0.0889,-0.4292 0,-0.3418 -0.0967,-0.58594 -0.29004,-0.73193 -0.19336,-0.14599 -0.44922,-0.21924 -0.7666,-0.21924 l -1.59961,0 0,1.82812 1.57129,0 z"
             inkscape:connector-curvature="0" />
          <path
             style="fill:#ffffff"
             id="path306"
             d="m 241.88914,107.8667 1.64355,0 1.56055,2.63184 1.55078,-2.63184 1.63379,0 -2.47363,4.10645 0,2.55762 -1.46875,0 0,-2.59473 -2.44629,-4.06934 z"
             inkscape:connector-curvature="0" />
        </g>
        <g
           transform="matrix(0.624995,0,0,0.624995,391.2294,176.9332)"
           id="g6316_1_">
          <path
             style="fill:#ffffff"
             d="m -175.0083,-139.1153 c 0.006,9.4118 -7.61725,17.04779 -17.02982,17.05481 -9.41101,0.007 -17.047,-7.61725 -17.05481,-17.02979 0,-0.008 0,-0.0172 0,-0.025 -0.006,-9.41254 7.6188,-17.047 17.02982,-17.05481 9.41257,-0.007 17.04855,7.61804 17.05481,17.02985 0,0.009 0,0.0164 0,0.025 z"
             rx="29.209877"
             type="arc"
             cy="252.08646"
             ry="29.209877"
             cx="475.97119"
             id="path6318_1_"
             inkscape:connector-curvature="0" />
          <g
             transform="translate(-23.9521,-89.72962)"
             id="g6320_1_">
            <path
               d="m -168.2204,-68.05536 c -5.17194,0 -9.54852,1.80469 -13.13135,5.41333 -3.67661,3.73444 -5.51413,8.1532 -5.51413,13.25635 0,5.10315 1.83752,9.49152 5.51413,13.1626 3.67502,3.67194 8.05316,5.50787 13.13135,5.50787 5.14066,0 9.59537,-1.85156 13.36728,-5.55475 3.55005,-3.51562 5.3266,-7.88831 5.3266,-13.11572 0,-5.22662 -1.8078,-9.64697 -5.42191,-13.25635 -3.61407,-3.60864 -8.03756,-5.41333 -13.27197,-5.41333 z m 0.0469,3.36017 c 4.23752,0 7.836,1.49298 10.79697,4.48053 2.98907,2.9563 4.48441,6.56567 4.48441,10.82898 0,4.29382 -1.46252,7.85712 -4.39224,10.68915 -3.08438,3.04926 -6.71411,4.57349 -10.88913,4.57349 -4.17505,0 -7.7735,-1.5094 -10.79541,-4.52661 -3.02188,-3.01953 -4.53284,-6.59692 -4.53284,-10.73602 0,-4.13831 1.52658,-7.74847 4.57971,-10.82898 2.92815,-2.98756 6.51098,-4.48054 10.74853,-4.48054 z"
               id="path6322_1_"
               inkscape:connector-curvature="0" />
            <path
               d="m -176.49548,-52.02087 c 0.74377,-4.69769 4.05161,-7.20862 8.1954,-7.20862 5.96097,0 9.59225,4.32501 9.59225,10.09229 0,5.62738 -3.86411,9.99927 -9.686,9.99927 -4.00473,0 -7.58914,-2.46484 -8.24228,-7.30084 l 4.70319,0 c 0.14062,2.51099 1.77032,3.39459 4.09845,3.39459 2.65317,0 4.37817,-2.4649 4.37817,-6.23291 0,-3.95233 -1.49063,-6.04535 -4.28598,-6.04535 -2.04846,0 -3.8172,0.74457 -4.19064,3.30157 l 1.36874,-0.007 -3.70316,3.7016 -3.7016,-3.7016 1.47346,0.007 z"
               id="path6324_1_"
               inkscape:connector-curvature="0" />
          </g>
        </g>
        <g
           id="g313">
          <circle
             style="fill:#ffffff"
             sodipodi:ry="10.8064"
             sodipodi:rx="10.8064"
             sodipodi:cy="90.224609"
             sodipodi:cx="242.56226"
             id="circle315"
             r="10.8064"
             cy="90.224609"
             cx="242.56226"
             d="m 253.36866,90.224609 c 0,5.96821 -4.83819,10.806401 -10.8064,10.806401 -5.96821,0 -10.8064,-4.838191 -10.8064,-10.806401 0,-5.96821 4.83819,-10.8064 10.8064,-10.8064 5.96821,0 10.8064,4.83819 10.8064,10.8064 z" />
          <g
             id="g317">
            <path
               id="path319"
               d="m 245.68994,87.09766 c 0,-0.4165 -0.33789,-0.75342 -0.75391,-0.75342 l -4.77246,0 c -0.41602,0 -0.75391,0.33691 -0.75391,0.75342 l 0,4.77295 1.33105,0 0,5.65234 3.61719,0 0,-5.65234 1.33203,0 0,-4.77295 1e-5,0 z"
               inkscape:connector-curvature="0" />
            <circle
               sodipodi:ry="1.63232"
               sodipodi:rx="1.63232"
               sodipodi:cy="84.083008"
               sodipodi:cx="242.5498"
               id="circle321"
               r="1.63232"
               cy="84.083008"
               cx="242.5498"
               d="m 244.18212,84.083008 c 0,0.901505 -0.73081,1.63232 -1.63232,1.63232 -0.9015,0 -1.63232,-0.730815 -1.63232,-1.63232 0,-0.901506 0.73082,-1.63232 1.63232,-1.63232 0.90151,0 1.63232,0.730814 1.63232,1.63232 z" />
          </g>
          <path
             style="fill-rule:evenodd"
             id="path323"
             d="m 242.53467,78.31836 c -3.23145,0 -5.96826,1.12744 -8.20752,3.38379 -2.29785,2.33301 -3.44629,5.09521 -3.44629,8.28418 0,3.18897 1.14844,5.93213 3.44629,8.22705 2.29785,2.29443 5.03418,3.44189 8.20752,3.44189 3.21289,0 5.99805,-1.15674 8.35352,-3.47168 2.2207,-2.19678 3.33008,-4.92969 3.33008,-8.19727 0,-3.26758 -1.12891,-6.02881 -3.3877,-8.28418 -2.25879,-2.25634 -5.02442,-3.38378 -8.2959,-3.38378 z m 0.0293,2.09961 c 2.64844,0 4.89746,0.93359 6.74707,2.80078 1.87012,1.84717 2.80469,4.10352 2.80469,6.76758 0,2.68359 -0.91504,4.91113 -2.74609,6.68066 -1.92773,1.90576 -4.19629,2.8584 -6.80566,2.8584 -2.60937,0 -4.8584,-0.94287 -6.74658,-2.82959 -1.88965,-1.88623 -2.8335,-4.12256 -2.8335,-6.70947 0,-2.58643 0.9541,-4.84229 2.8623,-6.76758 1.83057,-1.86719 4.07031,-2.80078 6.71777,-2.80078 z"
             clip-rule="evenodd"
             inkscape:connector-curvature="0" />
        </g>
      </g>
    </g>
    <g
       id="g3974"
       transform="translate(-17.645475,-114.3211)"
       style="filter:url(#filter3207)">
      <path
         sodipodi:nodetypes="sssssscssssssssssscssscsscsssssssscsssssssssssssssss"
         inkscape:connector-curvature="0"
         id="path3140"
         d="m 844.50095,634.53306 c 8.49609,-16.65371 8.79891,-20.16379 4.29367,-49.76793 -6.95799,-45.72111 -5.60472,-99.15766 3.32735,-131.38636 4.19658,-15.14216 14.75798,-53.26228 23.46975,-84.71137 23.9513,-86.46297 35.62204,-99.52722 95.47876,-106.87917 17.4718,-2.14599 39.86742,-4.89907 49.76802,-6.11797 9.9007,-1.2189 17.9731,-0.59475 17.939,1.38699 -0.034,1.98175 -9.8059,8.36818 -21.715,14.19209 -26.03694,12.73289 -51.94303,44.47211 -41.62519,50.99757 3.42217,2.16431 17.18171,3.96428 30.57669,3.99995 35.07,0.0934 32.9894,7.41758 -4.2356,14.90968 -7.57112,1.52378 -13.76558,3.68644 -13.76558,4.80588 0,1.11943 6.48963,10.53464 14.42148,20.92267 17.8704,23.40399 25.5433,53.44524 21.8673,85.61452 -1.5193,13.29614 -10.3229,54.80186 -19.5634,92.23497 -9.24046,37.4331 -17.26039,75.53573 -17.82203,84.67252 -0.97854,15.91873 2.53703,18.92775 16.74253,21.47471 8.1536,1.46186 -28.65612,0.70443 -78.20662,1.01108 l -90.09191,0.55757 z m 75.79233,7.26874 c 4.17638,-5.03224 10.90005,-5.84562 31.22647,-3.77756 l 25.90417,2.63554 18.34656,-76.29078 c 31.66682,-131.68059 31.64512,-159.14101 -0.15764,-198.52098 l -17.52797,-21.70425 -16.74649,5.90846 c -30.6207,10.80364 -42.94268,6.71196 -45.9833,-15.26937 -2.18916,-15.82601 -20.88649,-14.87624 -25.20746,1.28046 -2.6722,9.99172 -1.63921,12.45306 6.52984,15.55892 5.33731,2.02924 10.58802,6.21805 11.66825,9.30845 1.08022,3.09041 0.6642,36.11502 -0.92447,73.38802 -2.6665,62.56018 -4.10346,71.51299 -18.69519,116.47812 -8.69368,26.78996 -16.85947,59.66857 -18.1462,73.06355 l -2.33951,24.35451 23.36528,0 c 15.69868,0 25.11164,-2.10425 28.68766,-6.41309 z M 1110.8443,307.11805 c 0,-5.89738 -3.9072,-22.3209 -8.6827,-36.49669 -10.0333,-29.78321 -8.5287,-37.98026 2.097,-11.42425 7.59,18.96934 13.8773,58.64347 9.2935,58.64347 -1.4893,0 -2.7078,-4.82513 -2.7078,-10.72253 z m -73.82,-8.64006 c -1.5578,-6.20728 -2.0157,-12.10282 -1.0173,-13.10121 0.9984,-0.99838 3.0899,3.26344 4.6478,9.47073 1.558,6.20728 2.0157,12.10282 1.0173,13.1012 -0.9983,0.99838 -3.0899,-3.26344 -4.6478,-9.47072 z m 35.6998,0.57828 c 0,-5.67226 -2.0259,-15.67879 -4.502,-22.23674 -2.8238,-7.47868 -2.9143,-10.34461 -0.2429,-7.68797 5.9419,5.90894 13.2194,40.23789 8.5302,40.23789 -2.0819,0 -3.7853,-4.64094 -3.7853,-10.31318 z"
         style="fill:#000000" />
      <path
         inkscape:connector-curvature="0"
         id="path3936"
         d="m 839.75955,655.64272 275.77185,0"
         style="fill:none;stroke:#000000;stroke-width:10.86231995;stroke-linecap:round;stroke-linejoin:round;stroke-miterlimit:4;stroke-opacity:1;stroke-dasharray:none" />
    </g>
  </g>
</svg>
