<?xml version="1.0" encoding="UTF-8" standalone="no"?>
<!-- Created with Inkscape (http://www.inkscape.org/) -->

<svg
   xmlns:dc="http://purl.org/dc/elements/1.1/"
   xmlns:cc="http://creativecommons.org/ns#"
   xmlns:rdf="http://www.w3.org/1999/02/22-rdf-syntax-ns#"
   xmlns:svg="http://www.w3.org/2000/svg"
   xmlns="http://www.w3.org/2000/svg"
   xmlns:xlink="http://www.w3.org/1999/xlink"
   xmlns:sodipodi="http://sodipodi.sourceforge.net/DTD/sodipodi-0.dtd"
   xmlns:inkscape="http://www.inkscape.org/namespaces/inkscape"
   width="1920"
   height="1080"
   id="svg2"
   version="1.1"
   inkscape:version="0.48.4 r9939"
   sodipodi:docname="overlay.svg"
   inkscape:export-filename="/home/peter/AAA-VOC/intro-outro-generator/dg/artwork/overlay.png"
   inkscape:export-xdpi="90"
   inkscape:export-ydpi="90">
  <defs
     id="defs4">
    <linearGradient
       id="linearGradient3807">
      <stop
         style="stop-color:#ffffff;stop-opacity:0;"
         offset="0"
         id="stop3809" />
      <stop
         id="stop3815"
         offset="0.2"
         style="stop-color:#ffffff;stop-opacity:0.78431374;" />
      <stop
         style="stop-color:#ffffff;stop-opacity:0.78431374;"
         offset="1"
         id="stop3811" />
    </linearGradient>
    <linearGradient
       inkscape:collect="always"
       xlink:href="#linearGradient3807"
       id="linearGradient3813"
       x1="650"
       y1="595.07648"
       x2="1230"
       y2="595.07648"
       gradientUnits="userSpaceOnUse"
       gradientTransform="matrix(1,0,0,0.99744172,-74.949237,-22.857439)" />
    <linearGradient
       inkscape:collect="always"
       xlink:href="#linearGradient3807"
       id="linearGradient3819"
       x1="575.05078"
       y1="570.69666"
       x2="1155.0508"
       y2="570.69666"
       gradientUnits="userSpaceOnUse"
       spreadMethod="reflect" />
    <linearGradient
       inkscape:collect="always"
       xlink:href="#linearGradient3807-2"
       id="linearGradient3819-8"
       x1="575.05078"
       y1="570.69666"
       x2="1155.0508"
       y2="570.69666"
       gradientUnits="userSpaceOnUse"
       spreadMethod="reflect" />
    <linearGradient
       id="linearGradient3807-2">
      <stop
         style="stop-color:#ffffff;stop-opacity:0;"
         offset="0"
         id="stop3809-5" />
      <stop
         id="stop3815-1"
         offset="0.2"
         style="stop-color:#ffffff;stop-opacity:1;" />
      <stop
         style="stop-color:#ffffff;stop-opacity:1;"
         offset="1"
         id="stop3811-1" />
    </linearGradient>
    <linearGradient
       gradientTransform="matrix(2.3933139,0,0,1,-1291.5105,359.35582)"
       y2="570.69666"
       x2="1155.0508"
       y1="570.69666"
       x1="575.05078"
       spreadMethod="reflect"
       gradientUnits="userSpaceOnUse"
       id="linearGradient4017-1"
       xlink:href="#linearGradient3807-2-2"
       inkscape:collect="always" />
    <linearGradient
       id="linearGradient3807-2-2">
      <stop
         style="stop-color:#ffffff;stop-opacity:0;"
         offset="0"
         id="stop3809-5-5" />
      <stop
         id="stop3815-1-7"
         offset="0.2"
         style="stop-color:#ffffff;stop-opacity:1;" />
      <stop
         style="stop-color:#ffffff;stop-opacity:1;"
         offset="1"
         id="stop3811-1-0" />
    </linearGradient>
    <linearGradient
       y2="570.69666"
       x2="1155.0508"
       y1="570.69666"
       x1="575.05078"
       spreadMethod="reflect"
       gradientTransform="matrix(2.3933139,0,0,1,-842.013,2.87365)"
       gradientUnits="userSpaceOnUse"
       id="linearGradient4510"
       xlink:href="#linearGradient3807-2-2"
       inkscape:collect="always" />
    <filter
       id="filter4858"
       inkscape:label="Drop Shadow"
       width="1.2"
       color-interpolation-filters="sRGB">
      <feFlood
         id="feFlood4860"
         flood-opacity="0.29666666666666669"
         flood-color="rgb(255,255,255)"
         result="flood" />
      <feComposite
         id="feComposite4862"
         in2="SourceGraphic"
         in="flood"
         operator="in"
         result="composite1" />
      <feGaussianBlur
         id="feGaussianBlur4864"
         stdDeviation="2"
         result="blur" />
      <feOffset
         id="feOffset4866"
         dx="2"
         dy="2.2000000000000002"
         result="offset" />
      <feComposite
         id="feComposite4868"
         in2="offset"
         in="SourceGraphic"
         operator="over"
         result="composite2"
         dy="0" />
    </filter>
    <filter
       inkscape:menu-tooltip="In and out glow with a possible offset and colorizable flood"
       inkscape:menu="Shadows and Glows"
       inkscape:label="Cutout Glow"
       style="color-interpolation-filters:sRGB;"
       id="filter4197">
      <feOffset
         dy="3"
         dx="3"
         id="feOffset4199" />
      <feGaussianBlur
         stdDeviation="3"
         result="blur"
         id="feGaussianBlur4201" />
      <feFlood
         flood-color="rgb(255,255,255)"
         flood-opacity="1"
         result="flood"
         id="feFlood4203" />
      <feComposite
         in="flood"
         in2="SourceGraphic"
         operator="in"
         result="composite"
         id="feComposite4205" />
      <feBlend
         in="blur"
         in2="composite"
         mode="normal"
         id="feBlend4207" />
    </filter>
    <linearGradient
       gradientUnits="userSpaceOnUse"
       y2="576.9375"
       x2="989.08734"
       y1="576.9375"
       x1="781.76086"
       id="linearGradient3922"
       xlink:href="#linearGradient3916"
       inkscape:collect="always" />
    <linearGradient
       id="linearGradient3916">
      <stop
         id="stop3918"
         offset="0"
         style="stop-color:#000000;stop-opacity:1;" />
      <stop
         style="stop-color:#000000;stop-opacity:0.64313725;"
         offset="0.5"
         id="stop3928" />
      <stop
         style="stop-color:#000000;stop-opacity:0.28682169;"
         offset="1"
         id="stop3924" />
    </linearGradient>
  </defs>
  <sodipodi:namedview
     id="base"
     pagecolor="#ffffff"
     bordercolor="#666666"
     borderopacity="1.0"
     inkscape:pageopacity="0.0"
     inkscape:pageshadow="2"
     inkscape:zoom="0.7"
     inkscape:cx="1152.558"
     inkscape:cy="580.83708"
     inkscape:document-units="px"
     inkscape:current-layer="layer1"
     showgrid="false"
     inkscape:window-width="1855"
     inkscape:window-height="1056"
     inkscape:window-x="65"
     inkscape:window-y="24"
     inkscape:window-maximized="1"
     showguides="true"
     inkscape:guide-bbox="true"
     inkscape:snap-global="true"
     inkscape:snap-bbox="true"
     inkscape:bbox-paths="true"
     inkscape:bbox-nodes="true"
     inkscape:snap-bbox-edge-midpoints="true"
     inkscape:snap-bbox-midpoints="true"
     inkscape:object-paths="false"
     inkscape:snap-to-guides="true">
    <sodipodi:guide
       orientation="0,1"
       position="0,0"
       id="guide3017" />
    <sodipodi:guide
       orientation="0,1"
       position="0,1080"
       id="guide3019" />
    <sodipodi:guide
       orientation="1,0"
       position="0,0"
       id="guide3021" />
    <sodipodi:guide
       orientation="1,0"
       position="1920,1337.442"
       id="guide3023" />
    <sodipodi:guide
       orientation="0,1"
       position="0,25"
       id="guide3025" />
    <sodipodi:guide
       orientation="0,1"
       position="0,1048"
       id="guide3027" />
    <sodipodi:guide
       orientation="1,0"
       position="32,0"
       id="guide3029" />
    <sodipodi:guide
       orientation="1,0"
       position="1888,0"
       id="guide3031" />
    <sodipodi:guide
       orientation="1,0"
       position="960,1080"
       id="guide3819" />
    <sodipodi:guide
       orientation="0,1"
       position="0,540"
       id="guide3821" />
  </sodipodi:namedview>
  <metadata
     id="metadata7">
    <rdf:RDF>
      <cc:Work
         rdf:about="">
        <dc:format>image/svg+xml</dc:format>
        <dc:type
           rdf:resource="http://purl.org/dc/dcmitype/StillImage" />
        <dc:title />
      </cc:Work>
    </rdf:RDF>
  </metadata>
  <g
     inkscape:label="Ebene 1"
     inkscape:groupmode="layer"
     id="layer1"
     transform="translate(0,27.63782)">
    <g
       id="g3149"
       transform="translate(0,-1.3967456e-6)"
       style="opacity:0.40416667000000001;fill:#000000">
      <g
         inkscape:label="Layer 1"
         id="layer1-7"
         transform="matrix(0.39155044,0,0,0.39155044,1768.4799,-6.380213)"
         style="fill:#000000">
        <g
           id="g3974"
           transform="translate(-815.71429,-215.71429)"
           style="fill:#000000">
          <path
             sodipodi:nodetypes="sssssscssssssssssscssscsscsssssssscsssssssssssssssss"
             inkscape:connector-curvature="0"
             id="path3140"
             d="m 844.50095,634.53306 c 8.49609,-16.65371 8.79891,-20.16379 4.29367,-49.76793 -6.95799,-45.72111 -5.60472,-99.15766 3.32735,-131.38636 4.19658,-15.14216 14.75798,-53.26228 23.46975,-84.71137 23.9513,-86.46297 35.62204,-99.52722 95.47876,-106.87917 17.4718,-2.14599 39.86742,-4.89907 49.76802,-6.11797 9.9007,-1.2189 17.9731,-0.59475 17.939,1.38699 -0.034,1.98175 -9.8059,8.36818 -21.715,14.19209 -26.03694,12.73289 -51.94303,44.47211 -41.62519,50.99757 3.42217,2.16431 17.18171,3.96428 30.57669,3.99995 35.07,0.0934 32.9894,7.41758 -4.2356,14.90968 -7.57112,1.52378 -13.76558,3.68644 -13.76558,4.80588 0,1.11943 6.48963,10.53464 14.42148,20.92267 17.8704,23.40399 25.5433,53.44524 21.8673,85.61452 -1.5193,13.29614 -10.3229,54.80186 -19.5634,92.23497 -9.24046,37.4331 -17.26039,75.53573 -17.82203,84.67252 -0.97854,15.91873 2.53703,18.92775 16.74253,21.47471 8.1536,1.46186 -28.65612,0.70443 -78.20662,1.01108 l -90.09191,0.55757 z m 75.79233,7.26874 c 4.17638,-5.03224 10.90005,-5.84562 31.22647,-3.77756 l 25.90417,2.63554 18.34656,-76.29078 c 31.66682,-131.68059 31.64512,-159.14101 -0.15764,-198.52098 l -17.52797,-21.70425 -16.74649,5.90846 c -30.6207,10.80364 -42.94268,6.71196 -45.9833,-15.26937 -2.18916,-15.82601 -20.88649,-14.87624 -25.20746,1.28046 -2.6722,9.99172 -1.63921,12.45306 6.52984,15.55892 5.33731,2.02924 10.58802,6.21805 11.66825,9.30845 1.08022,3.09041 0.6642,36.11502 -0.92447,73.38802 -2.6665,62.56018 -4.10346,71.51299 -18.69519,116.47812 -8.69368,26.78996 -16.85947,59.66857 -18.1462,73.06355 l -2.33951,24.35451 23.36528,0 c 15.69868,0 25.11164,-2.10425 28.68766,-6.41309 z M 1110.8443,307.11805 c 0,-5.89738 -3.9072,-22.3209 -8.6827,-36.49669 -10.0333,-29.78321 -8.5287,-37.98026 2.097,-11.42425 7.59,18.96934 13.8773,58.64347 9.2935,58.64347 -1.4893,0 -2.7078,-4.82513 -2.7078,-10.72253 z m -73.82,-8.64006 c -1.5578,-6.20728 -2.0157,-12.10282 -1.0173,-13.10121 0.9984,-0.99838 3.0899,3.26344 4.6478,9.47073 1.558,6.20728 2.0157,12.10282 1.0173,13.1012 -0.9983,0.99838 -3.0899,-3.26344 -4.6478,-9.47072 z m 35.6998,0.57828 c 0,-5.67226 -2.0259,-15.67879 -4.502,-22.23674 -2.8238,-7.47868 -2.9143,-10.34461 -0.2429,-7.68797 5.9419,5.90894 13.2194,40.23789 8.5302,40.23789 -2.0819,0 -3.7853,-4.64094 -3.7853,-10.31318 z"
             style="fill:#000000" />
          <path
             inkscape:connector-curvature="0"
             id="path3936"
             d="m 839.75955,655.64272 275.77185,0"
             style="fill:#000000;stroke:#000000;stroke-width:10.86231994999999984;stroke-linecap:round;stroke-linejoin:round;stroke-miterlimit:4;stroke-opacity:1;stroke-dasharray:none" />
        </g>
      </g>
    </g>
  </g>
</svg>
