<?xml version="1.0" encoding="UTF-8" standalone="no"?>
<svg
   xmlns:dc="http://purl.org/dc/elements/1.1/"
   xmlns:cc="http://creativecommons.org/ns#"
   xmlns:rdf="http://www.w3.org/1999/02/22-rdf-syntax-ns#"
   xmlns:svg="http://www.w3.org/2000/svg"
   xmlns="http://www.w3.org/2000/svg"
   id="svg2"
   version="1.1"
   viewBox="0 0 507.99999 285.75001"
   height="1080"
   width="1920">
  <defs
     id="defs2" />
  <metadata
     id="metadata4">
    <rdf:RDF>
      <cc:Work
         rdf:about="">
        <dc:format>image/svg+xml</dc:format>
        <dc:type
           rdf:resource="http://purl.org/dc/dcmitype/StillImage" />
        <dc:title></dc:title>
      </cc:Work>
    </rdf:RDF>
  </metadata>
  <rect
     style="clip-rule:evenodd;fill:#727272;fill-opacity:1;fill-rule:evenodd;stroke-width:0.02999373;image-rendering:optimizeQuality;shape-rendering:geometricPrecision;text-rendering:geometricPrecision"
     id="bgmain"
     height="285.75"
     width="508"
     y="1.0937498e-006"
     x="1.9444442e-006" />
  <g
     transform="translate(4.0792926e-7,122.1254)"
     style="opacity: 0"
     id="g-bysa">
    <g
       transform="matrix(1.314689,0,0,1.3145418,-60.449463,-116.9657)"
       id="bysalogo">
      <path
         id="path3817_2_"
         nodetypes="ccccccc"
         d="m 182.23532,75.39014 114.06396,0.20312 c 1.59375,0 3.01758,-0.23682 3.01758,3.18018 l -0.13965,37.56689 H 179.3569 V 78.63379 c 0,-1.68457 0.16309,-3.24365 2.87842,-3.24365 z"
         style="fill:#aab2ab" />
      <g
         id="g5908_2_"
         transform="matrix(0.872921,0,0,0.872921,50.12536,143.2144)">
        <path
           id="path5906_2_"
           cx="296.35416"
           ry="22.939548"
           cy="264.3577"
           type="arc"
           rx="22.939548"
           d="m 187.20944,-55.6792 c 0.006,8.68024 -7.02786,15.72095 -15.7081,15.72708 -8.68021,0.005 -15.72205,-7.02786 -15.72708,-15.70804 0,-0.0067 0,-0.01233 0,-0.01904 -0.005,-8.68134 7.02783,-15.72205 15.70807,-15.72711 8.68134,-0.0056 15.72208,7.02789 15.72711,15.70807 0,0.0056 0,0.01233 0,0.01904 z"
           style="fill:#ffffff" />
        <g
           id="g5706_2_"
           transform="translate(-289.6157,99.0653)">
          <path
             id="path5708_2_"
             d="m 473.88455,-167.54724 c 3.48541,3.48596 5.22839,7.75391 5.22839,12.80273 0,5.04938 -1.7128,9.27148 -5.13834,12.66736 -3.63531,3.5766 -7.93179,5.36432 -12.88947,5.36432 -4.89777,0 -9.11987,-1.77261 -12.6651,-5.31955 -3.54584,-3.54581 -5.31845,-7.78299 -5.31845,-12.71213 0,-4.92859 1.77261,-9.19598 5.31845,-12.80273 3.4552,-3.48651 7.67725,-5.22894 12.6651,-5.22894 5.04829,0 9.31401,1.74243 12.79942,5.22894 z m -23.11798,2.34485 c -2.94675,2.97638 -4.41956,6.46289 -4.41956,10.46234 0,3.99835 1.45828,7.4552 4.37424,10.37067 2.91653,2.9165 6.38849,4.37476 10.41705,4.37476 4.02853,0 7.53018,-1.47281 10.50656,-4.41901 2.8259,-2.73584 4.23941,-6.17706 4.23941,-10.32642 0,-4.11804 -1.43646,-7.61292 -4.30768,-10.48474 -2.87064,-2.87067 -6.34988,-4.30652 -10.43829,-4.30652 -4.08837,0 -7.54638,1.44318 -10.37173,4.32892 z m 7.75449,8.70312 c -0.45032,-0.98163 -1.12433,-1.47223 -2.02325,-1.47223 -1.58914,0 -2.38342,1.06952 -2.38342,3.2085 0,2.13959 0.79428,3.20911 2.38342,3.20911 1.04938,0 1.79895,-0.5213 2.24866,-1.56512 l 2.20276,1.17303 c -1.04993,1.86548 -2.62506,2.79901 -4.72549,2.79901 -1.6199,0 -2.91763,-0.4967 -3.89206,-1.48956 -0.97607,-0.99341 -1.46274,-2.36273 -1.46274,-4.10797 0,-1.71558 0.50229,-3.07709 1.50748,-4.08563 1.00519,-1.00793 2.25705,-1.51251 3.75781,-1.51251 2.22012,0 3.80984,0.87488 4.77081,2.62286 z m 10.36334,0 c -0.45087,-0.98163 -1.11148,-1.47223 -1.98239,-1.47223 -1.62106,0 -2.43213,1.06952 -2.43213,3.2085 0,2.13959 0.81107,3.20911 2.43213,3.20911 1.05103,0 1.78717,-0.5213 2.20724,-1.56512 l 2.25201,1.17303 c -1.04825,1.86548 -2.62119,2.79901 -4.71768,2.79901 -1.61771,0 -2.91263,-0.4967 -3.88647,-1.48956 -0.97217,-0.99341 -1.45938,-2.36273 -1.45938,-4.10797 0,-1.71558 0.49448,-3.07709 1.48288,-4.08563 0.98782,-1.00793 2.24527,-1.51251 3.77347,-1.51251 2.21619,0 3.80368,0.87488 4.76132,2.62286 z" />
        </g>
      </g>
      <path
         d="M 297.29639,74.91064 H 181.06688 c -1.24658,0 -2.26074,1.01465 -2.26074,2.26123 v 39.49561 c 0,0.28174 0.22852,0.51074 0.51025,0.51074 h 119.73 c 0.28174,0 0.51074,-0.229 0.51074,-0.51074 v -39.4956 c 0,-1.24659 -1.01416,-2.26124 -2.26074,-2.26124 z m -116.22951,1.02149 h 116.22951 c 0.68359,0 1.23926,0.55615 1.23926,1.23975 0,0 0,15.91943 0,27.41846 H 215.4619 c -3.04492,5.50537 -8.91113,9.24365 -15.64355,9.24365 -6.73535,0 -12.6001,-3.73486 -15.64355,-9.24365 h -4.34814 c 0,-11.49902 0,-27.41846 0,-27.41846 -2e-5,-0.6836 0.55663,-1.23975 1.24022,-1.23975 z"
         id="path294-3" />
      <g
         enable-background="new    "
         id="g296">
        <path
           d="m 265.60986,112.8833 c 0.0801,0.15576 0.1875,0.28174 0.32129,0.37842 0.13379,0.0962 0.29004,0.16797 0.46973,0.21436 0.18066,0.0469 0.36719,0.0703 0.55957,0.0703 0.12988,0 0.26953,-0.0107 0.41895,-0.0327 0.14844,-0.0215 0.28809,-0.064 0.41895,-0.12598 0.12988,-0.062 0.23926,-0.14795 0.3252,-0.25684 0.0879,-0.10889 0.13086,-0.24707 0.13086,-0.41553 0,-0.18018 -0.0576,-0.32617 -0.17285,-0.43848 -0.11426,-0.1123 -0.26562,-0.20508 -0.45215,-0.28027 -0.18555,-0.0742 -0.39746,-0.13965 -0.63281,-0.1958 -0.23633,-0.0562 -0.47559,-0.11816 -0.71777,-0.18701 -0.24902,-0.062 -0.49121,-0.13818 -0.72754,-0.22852 -0.23535,-0.0898 -0.44727,-0.20703 -0.63379,-0.3501 -0.18652,-0.14307 -0.33691,-0.32178 -0.45215,-0.53662 -0.11426,-0.21484 -0.17188,-0.47461 -0.17188,-0.7793 0,-0.34277 0.0732,-0.63965 0.21875,-0.8916 0.14648,-0.25195 0.33789,-0.46191 0.57422,-0.63037 0.23535,-0.16797 0.50293,-0.29248 0.80176,-0.37354 0.29785,-0.0806 0.59668,-0.12109 0.89453,-0.12109 0.34863,0 0.68262,0.0391 1.00293,0.11719 0.31934,0.0776 0.60449,0.2041 0.85254,0.37842 0.24902,0.17432 0.44629,0.39697 0.59277,0.66797 0.14551,0.271 0.21875,0.59961 0.21875,0.98535 h -1.42188 c -0.0127,-0.19922 -0.0547,-0.36426 -0.125,-0.49463 -0.0713,-0.13086 -0.16602,-0.2334 -0.2832,-0.30859 -0.11816,-0.0742 -0.25293,-0.12744 -0.4043,-0.1582 -0.15234,-0.0312 -0.31738,-0.0469 -0.49707,-0.0469 -0.11719,0 -0.23535,0.0127 -0.35254,0.0371 -0.11816,0.0254 -0.22461,0.0688 -0.32031,0.13086 -0.0967,0.0625 -0.17578,0.14014 -0.2373,0.2334 -0.0615,0.0937 -0.0928,0.21191 -0.0928,0.35498 0,0.13086 0.0244,0.23682 0.0742,0.31738 0.0498,0.0811 0.14844,0.15576 0.29395,0.22412 0.14551,0.0684 0.34766,0.13721 0.60547,0.20557 0.25781,0.0684 0.59473,0.15576 1.01172,0.26123 0.12402,0.0249 0.2959,0.0703 0.5166,0.13574 0.2207,0.0654 0.43945,0.16943 0.65723,0.3125 0.21777,0.14355 0.40527,0.33496 0.56445,0.57422 0.1582,0.23975 0.2373,0.54639 0.2373,0.91992 0,0.30518 -0.0596,0.58838 -0.17773,0.84961 -0.11816,0.26172 -0.29395,0.4873 -0.52734,0.67676 -0.2334,0.19043 -0.52246,0.33789 -0.86719,0.44385 -0.3457,0.10596 -0.74609,0.15869 -1.19922,0.15869 -0.36719,0 -0.72363,-0.0454 -1.06934,-0.13574 -0.34473,-0.0903 -0.65039,-0.23242 -0.91504,-0.42578 -0.26367,-0.19336 -0.47363,-0.43994 -0.62988,-0.73877 -0.15527,-0.29932 -0.22949,-0.65381 -0.22363,-1.06494 h 1.42188 c -3e-5,0.22412 0.04,0.41406 0.12106,0.56933 z"
           id="path298-6"
           style="fill:#ffffff" />
        <path
           d="m 273.8667,107.8667 2.49316,6.66406 h -1.52246 l -0.50391,-1.48438 h -2.49316 l -0.52246,1.48438 h -1.47461 l 2.52051,-6.66406 z m 0.084,4.08594 -0.83984,-2.44336 h -0.0186 l -0.86914,2.44336 h 1.72753 z"
           id="path300-7"
           style="fill:#ffffff" />
      </g>
      <g
         enable-background="new    "
         id="g302">
        <path
           d="m 239.17821,107.8667 c 0.31738,0 0.60742,0.0283 0.86914,0.084 0.26172,0.0561 0.48633,0.14795 0.67383,0.27539 0.18652,0.12744 0.33203,0.29688 0.43457,0.5083 0.10254,0.21142 0.1543,0.47266 0.1543,0.78369 0,0.33594 -0.0762,0.61523 -0.22949,0.83936 -0.15234,0.22412 -0.37891,0.40723 -0.67773,0.55029 0.41211,0.11816 0.71973,0.3252 0.92285,0.62109 0.20312,0.29589 0.30469,0.65234 0.30469,1.06934 0,0.33594 -0.0654,0.62695 -0.19629,0.87305 -0.13086,0.24561 -0.30762,0.44629 -0.52832,0.60205 -0.22168,0.15576 -0.47461,0.271 -0.75781,0.34521 -0.28418,0.0752 -0.5752,0.1123 -0.875,0.1123 h -3.23633 v -6.66406 h 3.14159 v 1e-5 z m -0.1875,2.69531 c 0.26172,0 0.47656,-0.062 0.64551,-0.18604 0.16797,-0.12451 0.25195,-0.32568 0.25195,-0.60498 0,-0.15527 -0.0283,-0.28271 -0.084,-0.38184 -0.0566,-0.0996 -0.13086,-0.17676 -0.22461,-0.23291 -0.0937,-0.0557 -0.20117,-0.0947 -0.32227,-0.11621 -0.12207,-0.022 -0.24805,-0.0327 -0.37891,-0.0327 h -1.37305 v 1.55469 h 1.48536 z m 0.0859,2.82813 c 0.14355,0 0.28027,-0.0137 0.41113,-0.042 0.13086,-0.0278 0.24707,-0.0747 0.34668,-0.13965 0.0996,-0.0654 0.17871,-0.1543 0.23828,-0.26611 0.0596,-0.11181 0.0889,-0.25488 0.0889,-0.4292 0,-0.3418 -0.0967,-0.58594 -0.29004,-0.73193 -0.19336,-0.14599 -0.44922,-0.21924 -0.7666,-0.21924 h -1.59961 v 1.82812 h 1.57129 z"
           id="path304-5"
           style="fill:#ffffff" />
        <path
           d="m 241.88914,107.8667 h 1.64355 l 1.56055,2.63184 1.55078,-2.63184 h 1.63379 l -2.47363,4.10645 v 2.55762 h -1.46875 v -2.59473 z"
           id="path306-3"
           style="fill:#ffffff" />
      </g>
      <g
         id="g6316_1_"
         transform="matrix(0.624995,0,0,0.624995,391.2294,176.9332)">
        <path
           id="path6318_1_"
           cx="475.97119"
           ry="29.209877"
           cy="252.08646"
           type="arc"
           rx="29.209877"
           d="m -175.0083,-139.1153 c 0.006,9.4118 -7.61725,17.04779 -17.02982,17.05481 -9.41101,0.007 -17.047,-7.61725 -17.05481,-17.02979 0,-0.008 0,-0.0172 0,-0.025 -0.006,-9.41254 7.6188,-17.047 17.02982,-17.05481 9.41257,-0.007 17.04855,7.61804 17.05481,17.02985 0,0.009 0,0.0164 0,0.025 z"
           style="fill:#ffffff" />
        <g
           id="g6320_1_"
           transform="translate(-23.9521,-89.72962)">
          <path
             id="path6322_1_"
             d="m -168.2204,-68.05536 c -5.17194,0 -9.54852,1.80469 -13.13135,5.41333 -3.67661,3.73444 -5.51413,8.1532 -5.51413,13.25635 0,5.10315 1.83752,9.49152 5.51413,13.1626 3.67502,3.67194 8.05316,5.50787 13.13135,5.50787 5.14066,0 9.59537,-1.85156 13.36728,-5.55475 3.55005,-3.51562 5.3266,-7.88831 5.3266,-13.11572 0,-5.22662 -1.8078,-9.64697 -5.42191,-13.25635 -3.61407,-3.60864 -8.03756,-5.41333 -13.27197,-5.41333 z m 0.0469,3.36017 c 4.23752,0 7.836,1.49298 10.79697,4.48053 2.98907,2.9563 4.48441,6.56567 4.48441,10.82898 0,4.29382 -1.46252,7.85712 -4.39224,10.68915 -3.08438,3.04926 -6.71411,4.57349 -10.88913,4.57349 -4.17505,0 -7.7735,-1.5094 -10.79541,-4.52661 -3.02188,-3.01953 -4.53284,-6.59692 -4.53284,-10.73602 0,-4.13831 1.52658,-7.74847 4.57971,-10.82898 2.92815,-2.98756 6.51098,-4.48054 10.74853,-4.48054 z" />
          <path
             id="path6324_1_"
             d="m -176.49548,-52.02087 c 0.74377,-4.69769 4.05161,-7.20862 8.1954,-7.20862 5.96097,0 9.59225,4.32501 9.59225,10.09229 0,5.62738 -3.86411,9.99927 -9.686,9.99927 -4.00473,0 -7.58914,-2.46484 -8.24228,-7.30084 h 4.70319 c 0.14062,2.51099 1.77032,3.39459 4.09845,3.39459 2.65317,0 4.37817,-2.4649 4.37817,-6.23291 0,-3.95233 -1.49063,-6.04535 -4.28598,-6.04535 -2.04846,0 -3.8172,0.74457 -4.19064,3.30157 l 1.36874,-0.007 -3.70316,3.7016 -3.7016,-3.7016 z" />
        </g>
      </g>
      <g
         id="g313">
        <circle
           cx="242.56226"
           cy="90.224609"
           r="10.8064"
           id="circle315"
           style="fill:#ffffff" />
        <g
           id="g317">
          <path
             d="m 245.68994,87.09766 c 0,-0.4165 -0.33789,-0.75342 -0.75391,-0.75342 h -4.77246 c -0.41602,0 -0.75391,0.33691 -0.75391,0.75342 v 4.77295 h 1.33105 v 5.65234 h 3.61719 v -5.65234 h 1.33203 v -4.77295 z"
             id="path319" />
          <circle
             cx="242.5498"
             cy="84.083008"
             r="1.63232"
             id="circle321" />
        </g>
        <path
           d="m 242.53467,78.31836 c -3.23145,0 -5.96826,1.12744 -8.20752,3.38379 -2.29785,2.33301 -3.44629,5.09521 -3.44629,8.28418 0,3.18897 1.14844,5.93213 3.44629,8.22705 2.29785,2.29443 5.03418,3.44189 8.20752,3.44189 3.21289,0 5.99805,-1.15674 8.35352,-3.47168 2.2207,-2.19678 3.33008,-4.92969 3.33008,-8.19727 0,-3.26758 -1.12891,-6.02881 -3.3877,-8.28418 -2.25879,-2.25634 -5.02442,-3.38378 -8.2959,-3.38378 z m 0.0293,2.09961 c 2.64844,0 4.89746,0.93359 6.74707,2.80078 1.87012,1.84717 2.80469,4.10352 2.80469,6.76758 0,2.68359 -0.91504,4.91113 -2.74609,6.68066 -1.92773,1.90576 -4.19629,2.8584 -6.80566,2.8584 -2.60937,0 -4.8584,-0.94287 -6.74658,-2.82959 -1.88965,-1.88623 -2.8335,-4.12256 -2.8335,-6.70947 0,-2.58643 0.9541,-4.84229 2.8623,-6.76758 1.83057,-1.86719 4.07031,-2.80078 6.71777,-2.80078 z"
           id="path323"
           style="clip-rule:evenodd;fill-rule:evenodd" />
      </g>
    </g>
    <text
       xml:space="preserve"
       style="font-style:normal;font-variant:normal;font-weight:normal;font-stretch:normal;font-size:3.17499995px;line-height:0%;font-family:'Alte Haas Grotesk';-inkscape-font-specification:'Alte Haas Grotesk';letter-spacing:0px;word-spacing:0px;fill:#d6e4ed;fill-opacity:1;stroke:none;stroke-width:0.26458335px;stroke-linecap:butt;stroke-linejoin:miter;stroke-opacity:1"
       x="183.20491"
       y="59.710743"
       id="bysatext"><tspan
         id="tspan7986"
         x="183.20491"
         y="59.710743"
         style="font-style:normal;font-variant:normal;font-weight:bold;font-stretch:normal;font-size:19.84375px;line-height:1.25;font-family:sans-serif;-inkscape-font-specification:'sans-serif Bold';fill:#d6e4ed;fill-opacity:1;stroke-width:0.26458335px">CC BY-SA 4.0</tspan></text>
  </g>
  <g
     transform="matrix(0.77777776,0,0,0.77777776,79.730682,74.747265)"
     style="fill:#d6e4ed;fill-opacity:1; opacity: 0"
     id="g-datenknoten">
    <g
       style="fill:#d6e4ed;fill-opacity:1"
       transform="matrix(0.26458334,0,0,0.26458334,-169.68097,-2.6302403)"
       id="c3voclogo">
      <path
         id="path2161"
         d="m 1699.4957,562.81575 c -13.7212,-9.2551 -20.933,-24.21855 -22.2724,-46.21191 -0.9981,-16.38952 0.6403,-28.74037 7.6896,-57.96681 6.2958,-26.10179 7.1374,-31.32553 7.5385,-46.7899 l 0.3487,-13.44409 -1.9484,-3.57983 c -1.0716,-1.96891 -2.1351,-3.55933 -2.3633,-3.53426 -0.7072,0.0777 -9.2908,10.26096 -14.5059,17.20931 -11.3719,15.15144 -17.826,30.09654 -19.0013,43.99948 l -0.4547,5.3795 -3.6695,0.76181 c -7.3923,1.53461 -7.5691,1.48413 -8.6114,-2.45907 -1.393,-5.2697 -0.7351,-18.43214 1.2104,-24.21959 2.6387,-7.84914 8.561,-18.84335 17.0262,-31.60748 9.3974,-14.16975 15.524,-25.36003 17.7799,-32.47518 1.8464,-5.82359 2.0684,-5.95851 10.8288,-6.58034 l 6.0799,-0.43157 2.1737,5.53604 c 5.177,13.18463 7.0825,22.4564 7.7024,37.47783 0.7083,17.16114 -1.1019,32.48115 -8.2536,69.85072 -6.1985,32.38918 -6.1225,31.64875 -4.2801,41.72191 3.182,17.39676 7.5573,27.47417 15.7664,36.31414 1.9784,2.13036 2.0396,2.39446 1.5458,6.66916 -0.2828,2.44807 -0.7831,5.16178 -1.1119,6.03053 -0.9406,2.48546 -3.8617,1.96241 -9.2178,-1.6504 z m -62.9314,-69.5961 -3.0701,-0.27294 0.3774,-2.81369 c 0.579,-4.31711 3.3529,-7.90584 7.788,-10.07574 3.4401,-1.68306 5.039,-1.9503 14.9536,-2.49946 6.106,-0.33818 12.2864,-0.62693 13.7343,-0.64162 l 2.6326,-0.0265 v 6.65579 c 0,7.86712 2.0141,6.77653 -16.1915,8.76742 -12.8021,1.40002 -14.0495,1.45593 -20.2243,0.90698 z m 63.3731,-8.98912 c -0.5806,-2.31333 0.1639,-6.91293 1.554,-9.60108 1.6642,-3.21816 6.3681,-8.03012 12.2057,-12.48592 6.0162,-4.59229 11.2369,-9.94992 12.9799,-13.32036 3.7528,-7.25725 6.295,-31.26048 4.6321,-43.73656 -2.2652,-16.99432 -11.0599,-35.91357 -22.5274,-48.46083 -1.9299,-2.11157 -3.5088,-4.15083 -3.5088,-4.53171 0,-0.38087 3.3692,-3.81157 7.4871,-7.62377 5.2784,-4.88656 7.5859,-6.62061 7.8219,-5.87823 0.929,2.9224 12.6446,24.7777 15.2763,28.4979 5.6939,8.04916 13.2514,13.78615 20.6737,15.69378 1.731,0.4449 4.3384,1.26669 5.7941,1.8262 3.8319,1.47279 9.0932,1.25626 17.9266,-0.73775 13.215,-2.98311 17.4219,-2.13536 20.4506,4.12107 2.5115,5.18804 2.0081,6.10355 -4.5691,8.31013 -11.5335,3.86935 -26.7307,4.03644 -41.9619,0.46135 -4.692,-1.10134 -6.4071,-1.25947 -7.0201,-0.64728 -0.9209,0.91966 -0.9706,6.9702 -0.1389,16.88845 0.4665,5.56393 0.3065,7.98701 -0.9656,14.62127 -3.8672,20.16624 -11.4235,34.92505 -23.8189,46.52232 -4.8893,4.57452 -6.667,5.78125 -9.8794,6.70662 -2.1545,0.62067 -5.7274,2.03677 -7.9398,3.147 l -4.0225,2.01853 z m -39.7593,-123.8729 c -1.0563,-0.31808 -3.0308,-1.26442 -4.3876,-2.10298 -2.0242,-1.25103 -2.4669,-1.94527 -2.4669,-3.86857 v -2.34392 l 4.7386,-0.46391 c 11.8375,-1.15887 21.3958,-5.06791 30.8102,-12.60041 10.0435,-8.03573 18.7424,-19.61826 32.8979,-43.8028 4.5557,-7.78347 7.4295,-12.00245 8.1863,-12.01815 1.419,-0.0294 4.6424,3.66269 5.2254,5.98517 0.9392,3.74263 -4.4549,21.76632 -9.6035,32.08785 -9.9446,19.93649 -26.6381,33.5039 -47.3333,38.46938 -5.758,1.38155 -14.5957,1.70358 -18.0671,0.65834 z m -349.79,-9.82539 -113.7268,-0.35688 -2.2863,-1.63068 c -2.8756,-2.05107 -7.2668,-10.97072 -9.2198,-18.72782 -3.3708,-13.38869 -5.3234,-28.04433 -6.4071,-48.08819 -0.407,-7.52914 -1.3972,-23.79839 -2.2004,-36.1539 -1.5947,-24.52814 -1.48,-39.8798 0.4694,-62.83055 2.9417,-34.63416 8.289,-55.40674 15.475,-60.11512 1.9765,-1.29511 22.7008,-2.55608 89.963,-5.47383 63.2718,-2.74465 131.6301,-0.4881 170.0565,5.61369 8.6659,1.37608 10.2584,2.59423 14.4192,11.02954 4.2056,8.52624 6.6158,18.21747 7.243,29.12266 0.6823,11.8651 0.4033,14.67244 -1.5097,15.18562 -2.4458,0.65615 -10.2717,0.48412 -11.655,-0.2562 -1.9996,-1.07014 -3.4343,-5.6155 -4.5993,-14.57134 -2.4717,-18.99993 -5.8294,-23.46692 -20.19,-26.86012 -16.0406,-3.79013 -40.4345,-5.2052 -88.9758,-5.1614 -47.1742,0.0425 -83.6099,1.49425 -120.1686,4.78779 -9.0345,0.8139 -11.6164,1.30125 -14.4196,2.72172 -7.2638,3.68086 -12.6899,12.27999 -16.0145,25.3795 -2.5474,10.03731 -3.0624,16.62688 -3.8172,48.84663 -1.0852,46.32311 0.6781,68.75448 7.2904,92.74752 3.9959,14.49928 7.3166,19.42122 15.9411,23.62807 9.5903,4.6779 5.8345,4.51124 101.0017,4.48209 82.4844,-0.0253 109.7217,-0.54187 120.4265,-2.2841 9.9617,-1.62132 15.6711,-11.95266 18.9491,-34.28854 1.5291,-10.41918 1.7123,-11.0487 3.7438,-12.86387 4.1201,-3.68131 9.5199,-3.23828 11.8173,0.96957 2.0644,3.78114 1.6327,16.00698 -1.0113,28.63737 -3.4089,16.28433 -6.5328,27.30785 -8.3512,29.46894 -3.549,4.21768 -14.0125,6.73736 -29.7414,7.16187 -4.8264,0.13026 -59.9522,0.0762 -122.502,-0.12004 z m 320.1199,-11.52297 c -4.574,-1.13038 -7.3243,-2.61327 -10.6312,-5.73206 l -2.6947,-2.54143 1.6431,-1.33051 c 2.5437,-2.05981 8.0387,-3.43945 18.001,-4.5196 5.0194,-0.54423 10.5478,-1.45114 12.2853,-2.01537 19.0946,-6.20066 31.0013,-13.83217 46.4356,-29.76255 7.5531,-7.79584 23.0998,-27.07835 24.2511,-30.07831 0.2333,-0.60819 1.4967,-0.95726 3.4646,-0.95726 3.6216,0 3.6155,-0.41743 0.1464,10.15636 -7.8332,23.87521 -23.9965,43.63494 -47.0891,57.56686 -5.1926,3.13276 -6.1761,3.4335 -22.0395,6.73989 -17.8498,3.72042 -18.4684,3.78479 -23.7726,2.47398 z m -96.5273,-81.55907 c 25.3973,-0.29353 46.712,-0.17495 59.2589,0.32968 10.7774,0.43345 19.7312,0.65202 19.8975,0.48571 0.6987,-0.69873 -7.5088,-4.64188 -12.4176,-5.96579 -9.6652,-2.60671 -14.0953,-2.88364 -56.5596,-3.53566 -23.1666,-0.3557 -60.7596,-1.01732 -83.5401,-1.47026 -62.93,-1.25123 -8.7895,-1.23189 -14.1823,0.24961 -9.5282,2.61756 -17.8618,6.62778 -24.9216,11.99258 -7.1327,5.42023 -15.357,14.65594 -34.9219,39.21652 l -21.1108,26.50115 h -7.3351 c -6.1912,0 -7.2729,-0.1622 -6.936,-1.0401 0.6764,-1.76276 26.4353,-37.52005 32.1656,-44.65087 11.7977,-14.68093 29.034,-32.7552 35.5531,-37.28139 4.8513,-3.36832 13.428,-6.13721 21.8083,-7.04058 9.9804,-1.07585 32.1535,-1.0368 95.6986,0.0741 53.91,0.94242 52.4322,0.81841 67.8132,5.69049 4.7634,1.50885 8.7941,2.60999 8.9571,2.44697 0.163,-0.16301 -0.565,-1.42575 -1.6178,-2.80609 -2.4769,-3.24724 -7.9793,-6.85951 -13.7331,-9.01552 -9.6103,-3.60108 -12.868,-3.82397 -67.7375,-4.63491 -49.4781,-0.73127 -11.8542,-1.25629 -71.0457,-3.08853 l -27.7297,-0.85835 -4.1164,-2.05287 c -7.2506,-3.61597 -13.0457,-9.99189 -41.6369,-45.81035 -15.1841,-19.02239 -27.6075,-34.75578 -27.6075,-34.96307 0,-0.70679 15.7917,0.58142 16.7938,1.36995 0.5492,0.43211 7.9254,10.05253 16.3915,21.37873 18.2333,24.3928 23.6777,30.99639 32.0647,38.89162 8.3058,7.81866 15.9665,12.59102 21.1539,13.68273 9.996,2.10374 -27.4513,-0.25233 33.3156,-1.07617 70.4491,-0.9551 94.0626,-0.44725 105.068,2.25968 8.788,2.16156 19.5794,5.90888 26.3235,9.14092 2.8464,1.3641 5.2983,2.35723 5.4485,2.20695 0.6551,-0.65507 -2.0938,-4.57099 -5.3407,-7.60813 -10.1845,-9.52637 -25.3522,-15.46113 -44.3328,-17.34632 -7.6043,-0.75528 -76.4095,-7.79749 -97.7142,-3.4839 -11.418,2.31183 -15.7699,-4.2149 -14.3625,-10.26093 33.2987,-5.53618 86.7584,-0.72608 91.8252,-0.2978 23.7649,2.00881 42.7826,6.75582 59.3396,14.81182 8.0282,3.9062 8.9227,4.55572 14.6482,10.63632 10.7719,11.44001 21.2026,26.72869 27.1685,39.82189 l 2.719,5.96715 -0.2543,-4.27769 c -0.5669,-9.5402 -14.6161,-32.79777 -36.6068,-60.60023 -4.0974,-5.1802 -7.4497,-9.66397 -7.4497,-9.96394 0,-1.0098 3.1051,-2.73106 4.9268,-2.73106 3.2067,0 11.4762,5.58207 15.2344,10.28349 19.1758,23.98853 31.1552,43.52603 36.7392,59.91825 1.2495,3.66804 3.0165,7.45231 3.9267,8.40948 l 1.6549,1.74031 2.1235,-2.12357 2.1236,-2.12358 -1.8161,-6.28591 c -4.0558,-14.03749 -8.4799,-22.71761 -25.5344,-50.09889 -13.0127,-20.892 -13.094,-21.12361 -7.4097,-21.12361 2.4606,0 3.96,0.64354 8.1628,3.50327 2.8316,1.92681 5.6496,3.90123 6.2622,4.38761 1.7946,1.42479 15.8553,25.26706 20.733,35.15616 2.4649,4.99749 5.6147,12.75684 6.9993,17.243 3.6703,11.89144 3.6824,11.90476 7.6774,8.39713 2.5564,-2.24453 2.5996,-2.36614 2.191,-6.17916 -0.9528,-8.89365 -6.0636,-24.85532 -12.124,-37.86445 -1.6901,-3.62791 -3.0729,-7.01893 -3.0729,-7.53561 0,-0.51667 0.9147,-1.96315 2.0327,-3.21441 1.957,-2.19027 2.1073,-2.23644 4.0366,-1.2396 3.2638,1.68641 8.8615,7.80557 11.2477,12.29562 1.223,2.30129 4.0329,10.26538 6.2441,17.69799 2.2112,7.43261 4.2728,13.51383 4.5813,13.51383 0.3085,0 1.6055,-1.31135 2.8822,-2.91411 5.8913,-7.39615 8.0275,-8.42577 10.974,-5.28934 1.9056,2.0283 1.9382,4.68102 0.1225,9.9585 -1.8763,5.45314 -1.8034,6.96391 0.384,7.96051 0.9834,0.44809 2.247,0.81471 2.808,0.81471 1.3793,0 1.2828,1.82431 -0.3471,6.56183 -4.8217,14.01452 -15.2188,26.37936 -31.6277,37.61325 -15.5873,10.67146 -35.8111,17.34172 -54.9906,18.13715 -9.5136,0.39455 -15.0488,-0.70974 -19.7743,-3.94506 -3.6307,-2.48586 -3.7608,-4.66683 -0.413,-6.92294 3.6574,-2.46472 8.4915,-3.6161 18.5838,-4.42628 31.3422,-2.51603 55.0603,-13.90528 72.2771,-34.70696 2.702,-3.26469 2.7629,-3.42528 0.8144,-2.14675 -21.3796,14.02832 -44.6742,24.27024 -62.3231,27.40158 -5.2948,0.93943 -9.2263,1.13604 -17.1994,0.86015 -10.9514,-0.37894 -17.4892,-1.69421 -25.0566,-5.04089 -4.1848,-1.85068 -4.7185,-2.80958 -4.4118,-7.92469 l 0.1782,-2.9713 -57.5654,-0.354 c -31.661,-0.19469 -79.2144,5.34241 -73.8049,-7.2711 -0.4114,-5.00245 49.5326,-5.19351 71.3479,-5.44563 z"
         style="fill:#d6e4ed;fill-opacity:1" />
      <path
         id="path3041"
         d="m 1289.1783,151.20526 c -42.3696,0 -76.722,34.98955 -76.722,78.15805 0,43.16849 34.3524,78.15804 76.722,78.15804 42.3694,0 76.7219,-34.98955 76.7219,-78.15804 0,-43.1685 -34.3525,-78.15805 -76.7219,-78.15805 z m -32.0945,25.80608 43.0392,26.02367 43.0391,26.04543 -43.6484,24.95748 -43.6484,24.95748 0.6093,-51.00291 z"
         style="fill:#d6e4ed;fill-opacity:1" />
    </g>
    <text
       xml:space="preserve"
       style="font-style:normal;font-variant:normal;font-weight:normal;font-stretch:normal;font-size:3.17499995px;line-height:0%;font-family:'TeX Gyre Adventor';-inkscape-font-specification:'TeX Gyre Adventor, Normal';text-align:start;letter-spacing:0px;word-spacing:0px;writing-mode:lr-tb;text-anchor:start;fill:#d6e4ed;fill-opacity:1;stroke:none;stroke-width:0.26458335px;stroke-linecap:butt;stroke-linejoin:miter;stroke-opacity:1"
       x="139.36143"
       y="132.58255"
       id="c3voctext"><tspan
         id="tspan4140"
         x="139.36143"
         y="132.58255"
         style="font-style:normal;font-variant:normal;font-weight:bold;font-stretch:normal;font-size:32.82181549px;line-height:5.5999999;font-family:sans-serif;-inkscape-font-specification:'sans-serif Bold';fill:#d6e4ed;fill-opacity:1;stroke-width:0.26458335px">C3VOC</tspan></text>
  </g>
  <g
     id="c3d2"
     transform="matrix(1.2747364,0,0,1.2747364,-1853.7029,-1106.3667)"
     style="opacity:0">
    <path
       d="m 1675.8503,955.31965 c 0.1134,0.45355 7.2189,12.66142 8.0882,14.13544 l 6.4252,11.11181 c 0,0.37795 -0.5291,1.05827 -0.8315,1.5874 -1.2472,2.11654 -3.3637,5.5937 -4.6488,7.55906 l -0.9071,1.47401 c -1.3606,2.26772 -3.2504,5.36693 -4.6866,7.63465 l -2.3055,3.77948 c -0.1512,0.2646 -0.3024,0.4536 -0.4535,0.756 -0.189,0.3023 -0.3024,0.4913 -0.4536,0.7559 -0.189,0.2645 -0.3401,0.4913 -0.4913,0.7937 h 17.6126 c 0.1134,-0.4536 3.326,-5.63154 3.6661,-6.16067 0.6425,-1.05827 1.2095,-2.00315 1.852,-3.06142 l 7.3701,-12.24567 c 0.3401,-0.56693 0.6425,-1.05827 0.9448,-1.5496 0.567,-0.94489 0.756,-0.75591 0.2646,-1.54961 l -3.5527,-6.23622 c -0.2646,-0.52914 -0.567,-0.98268 -0.8693,-1.54961 -0.3024,-0.56693 -0.6048,-1.05827 -0.9071,-1.5874 -0.6425,-1.05827 -1.2095,-2.15433 -1.8142,-3.1748 -0.6047,-1.05827 -1.1716,-2.04095 -1.7764,-3.13701 l -4.9134,-8.61733 c -0.1889,-0.34015 -0.3401,-0.49133 -0.4157,-0.86929 -1.4362,0 -2.8724,0 -4.3087,0 h -0.076 c -1.474,0 -2.6456,0.11339 -4.1196,0.11339 -1.4363,0 -2.8725,0 -4.3087,0 -1.5118,0 -2.7213,0.11338 -4.3087,0.11338 z"
       id="1"
       style="clip-rule:evenodd;fill:#878787;fill-opacity:1;fill-rule:evenodd;stroke-width:0.03779528;image-rendering:optimizeQuality;shape-rendering:geometricPrecision;text-rendering:geometricPrecision" />
    <path
       id="path1751"
       d="m 1609.2173,980.64249 c 0.5291,0.98268 3.1748,5.10236 3.7417,5.97166 l 5.6315,8.95748 c 1.0583,1.77638 4.9512,7.71027 5.6693,9.07087 h 16.3275 c -0.1133,-0.4158 -12.2834,-21.08977 -14.022,-23.84883 -0.2646,-0.41575 -0.2268,-0.37795 0.076,-0.7937 1.2094,-1.92756 2.4567,-4.19527 3.6661,-6.16063 0.6425,-1.05827 1.1717,-2.00315 1.8142,-3.06142 l 7.2945,-12.35905 c 0.2646,-0.45355 1.7008,-2.79685 1.7764,-3.13701 h -16.7433 l -1.852,3.13701 c -1.5874,2.4189 -4.1575,6.91653 -5.7071,9.52441 l -6.652,11.07401 c -0.3401,0.56693 -0.6425,1.09607 -0.9826,1.6252 z"
       style="clip-rule:evenodd;fill:#878787;fill-opacity:1;fill-rule:evenodd;stroke-width:0.03779528;image-rendering:optimizeQuality;shape-rendering:geometricPrecision;text-rendering:geometricPrecision" />
    <path
       id="path1753"
       d="m 1587.485,1004.7937 h 16.7433 c -0.5291,-1.0205 -1.1717,-1.9654 -1.7386,-2.9859 -1.4362,-2.57003 -3.8173,-6.57633 -5.3291,-9.07082 0,0 -7.0677,-11.90551 -7.0677,-12.09449 0,-0.15118 2.6456,-4.34646 2.8346,-4.64882 l 0.9827,-1.62519 c 1.8141,-3.06142 3.9685,-6.34961 5.8204,-9.41103 0.6426,-1.09606 1.3229,-2.07874 1.9654,-3.13701 0.8693,-1.43622 2.948,-4.87559 3.8929,-6.31181 -1.3228,0 -2.5701,-0.11339 -4.0063,-0.11339 -1.3606,0 -2.7212,0 -4.1197,0 -0.7937,0 -1.1338,-0.11338 -1.8897,-0.11338 h -6.3118 c -0.076,0.30236 -1.1339,1.88976 -1.3985,2.30551 -0.1889,0.26457 -0.3401,0.49134 -0.5291,0.7937 l -2.9102,4.57323 c -2.2678,3.40158 -4.6111,7.33229 -6.841,10.65827 l -3.8929,6.12284 c -0.7937,1.24724 -0.9449,0.49133 0.6425,3.137 l 11.263,18.78429 c 0.6047,1.0204 1.2473,2.1165 1.8898,3.0992 z"
       style="clip-rule:evenodd;fill:#878787;fill-opacity:1;fill-rule:evenodd;stroke-width:0.03779528;image-rendering:optimizeQuality;shape-rendering:geometricPrecision;text-rendering:geometricPrecision" />
    <path
       id="path1755"
       d="m 1694.4834,1004.6803 c 1.4362,0 2.5323,0.1134 3.8929,0.1134 1.3607,0 2.7213,0 4.1197,0 1.4362,0 2.5323,0.1134 3.9307,0.1134 h 0.076 c 1.3606,0 2.7213,0 4.1197,0 0.5669,-1.0583 1.2094,-2.041 1.8142,-3.0993 1.7386,-2.87239 3.8929,-6.38735 5.4803,-9.222 1.6252,-2.83465 3.7417,-6.27402 5.5181,-9.22205 0.2268,-0.34016 1.8142,-2.94803 1.8142,-3.09921 l -5.4048,-9.33544 c -1.7385,-3.02362 -3.6283,-6.3874 -5.4047,-9.33543 -0.6425,-1.05827 -1.1716,-2.07874 -1.8142,-3.09921 -0.3401,-0.52914 -0.6047,-1.05827 -0.907,-1.5874 -0.3024,-0.52914 -0.6048,-1.05827 -0.9071,-1.58741 -1.474,0 -2.6079,-0.11338 -4.1197,-0.11338 -1.3984,0 -2.7969,0 -4.1953,0 -1.4362,0 -2.5701,-0.11339 -4.0441,-0.11339 h -0.076 c -1.4362,0 -2.8724,0 -4.3086,0 0.076,0.34016 1.5118,2.72126 1.7385,3.09922 1.5119,2.53228 3.9686,6.84094 5.367,9.37322 l 3.5905,6.23623 c 0.2646,0.41574 3.9685,6.61417 3.8929,6.99212 l -10.5448,17.68819 c -0.3024,0.49134 -3.515,5.78264 -3.6284,6.19844 z"
       style="clip-rule:evenodd;fill:#878787;fill-opacity:1;fill-rule:evenodd;stroke-width:0.03779528;image-rendering:optimizeQuality;shape-rendering:geometricPrecision;text-rendering:geometricPrecision" />
    <path
       id="path1757"
       d="m 1591.6047,980.64249 c 0,0.18898 4.8,8.16378 5.3669,9.07087 l 8.5795,14.36224 c 0.1134,0.2267 0.3024,0.6803 0.6047,0.6803 h 7.8993 c 2.948,0 5.5559,-0.1134 8.5039,-0.1134 -0.1134,-0.4158 -10.3559,-17.12127 -10.9606,-18.17954 -0.6426,-1.05826 -1.2095,-1.96535 -1.8142,-2.98582 -0.3024,-0.52914 -0.5669,-0.98268 -0.9071,-1.51181 -0.3402,-0.56693 -0.6425,-0.98268 -0.9449,-1.58741 0.4914,-0.7559 1.2851,-2.22992 1.8142,-3.09921 2.1921,-3.62835 5.1402,-8.65512 7.2945,-12.43465 0.3023,-0.52913 0.6047,-0.98267 0.9449,-1.5874 0.1511,-0.30236 0.3023,-0.49134 0.4535,-0.7559 1.0961,-1.77638 3.1748,-5.32914 4.1197,-7.10552 h -15.5339 c -0.1133,0.37796 -0.6803,1.20945 -0.9071,1.58741 l -4.8377,7.78582 c -1.7764,3.02363 -3.9686,6.38741 -5.8205,9.41103 -0.4158,0.68031 -3.8551,6.12283 -3.8551,6.34961 z"
       style="clip-rule:evenodd;fill:#878787;fill-opacity:1;fill-rule:evenodd;stroke-width:0.03779528;image-rendering:optimizeQuality;shape-rendering:geometricPrecision;text-rendering:geometricPrecision" />
    <path
       id="path1759"
       d="m 1641.381,1004.9071 c 1.2851,0 2.5323,0 3.8174,0 h 0.076 c 1.3606,0 2.4189,-0.1134 3.7417,-0.1134 1.285,0 2.5323,0 3.8173,0 1.3984,0 2.4189,-0.1134 3.8173,-0.1134 0.3024,-0.5669 4.4221,-11.45198 4.7244,-12.20789 l 7.0678,-18.48189 c 0.3779,-1.05827 0.7559,-2.00315 1.1716,-3.02362 0.4158,-1.05827 0.7559,-2.07874 1.1717,-3.13701 0.076,-0.15118 4.5732,-11.82992 4.6866,-12.32126 -2.2677,0 -5.178,-0.22677 -7.5213,-0.18898 -0.7559,0 -1.096,-0.11338 -1.8141,-0.11338 -0.6804,0 -1.3229,0 -2.0032,0 -0.6803,0 -0.9827,-0.0756 -1.663,-0.11339 h -0.2646 -0.076 c -0.4914,0 -0.9827,0 -1.4741,0 h -0.3023 c -0.1512,0.56693 -0.8693,2.4189 -1.1339,3.06142 l -2.3811,6.23622 c -0.3779,1.02047 -0.7937,2.07874 -1.1716,3.09921 l -4.7622,12.47245 c -1.9654,4.91338 -3.9685,10.50708 -5.9339,15.49606 -0.4158,1.05827 -0.7937,2.00315 -1.2095,3.09921 l -1.7763,4.64885 c -0.189,0.4913 -0.5292,1.1716 -0.567,1.6252 z"
       style="clip-rule:evenodd;fill:#878787;fill-opacity:1;fill-rule:evenodd;stroke-width:0.03779528;image-rendering:optimizeQuality;shape-rendering:geometricPrecision;text-rendering:geometricPrecision" />
    <text
       id="text3195"
       y="975.69128"
       x="1574.1636"
       style="font-weight:normal;font-size:14.66645813px;font-family:sans-serif;clip-rule:evenodd;fill:#d6e4ed;fill-rule:evenodd;stroke-width:0.03779528;image-rendering:optimizeQuality;shape-rendering:geometricPrecision;text-rendering:geometricPrecision">Chaos Computer Club</text>
    <text
       id="text3197"
       y="995.685"
       x="1648.8386"
       style="font-weight:normal;font-size:14.66645813px;font-family:sans-serif;clip-rule:evenodd;fill:#d6e4ed;fill-rule:evenodd;stroke-width:0.03779528;image-rendering:optimizeQuality;shape-rendering:geometricPrecision;text-rendering:geometricPrecision">
      <tspan
         id="tspan984"
         style="text-align:center;text-anchor:middle">Dresden • c3d2.de</tspan>
    </text>
  </g>
  <g
     style="display:inline"
     transform="matrix(0.26458334,0,0,0.26458334,-3.291389e-6,-2.5062502e-6)"
     id="g-logo">
    <g
       style="clip-rule:evenodd;fill-rule:evenodd;image-rendering:optimizeQuality;shape-rendering:geometricPrecision;text-rendering:geometricPrecision"
       id="machtnix-5"
       transform="matrix(0.0982801,0,0,0.0982801,232.72726,234.25061)">
      <path
         d="m 10773,4463 c 16,-87 3,-76 82,-76 -17,86 -2,76 -82,76 z m 47,-204 c -82,-4 -19,77 -71,93 -59,0 -64,-17 -68,35 h 72 l -17,71 c -86,17 -63,-14 -81,22 11,23 1,13 29,18 4,1 35,0 41,0 l -21,93 c 46,1 33,11 45,-36 14,-56 -6,-57 78,-57 l -21,92 c 44,2 31,24 57,-88 91,-17 63,14 82,-22 -13,-24 15,-14 -71,-18 l 17,-74 80,-2 c -3,-52 -8,-35 -69,-35 l 20,-93 c -43,-2 -33,-9 -44,35 -16,58 4,59 -78,58 l 21,-93 z"
         id="path908-0"
         style="fill:#d6e4ed" />
      <path
         d="m 11421,4173 v 182 c 45,-15 43,-22 44,-79 0,-39 2,-76 -8,-114 51,15 144,9 207,6 -2,109 -17,163 35,185 11,-25 6,-7 8,-40 5,-73 11,-146 -29,-176 -30,-22 -207,-12 -210,-12 -17,4 -37,28 -47,47 z"
         id="path910-7"
         style="fill:#d6e4ed" />
      <path
         d="m 11841,4169 c 62,1 215,24 212,-40 -281,-27 -221,30 -254,34 v 191 c 60,-20 45,-56 42,-186 z"
         id="path912-8"
         style="fill:#d6e4ed" />
      <path
         d="m 11799,4546 c 16,17 25,42 47,47 l 208,-5 c 3,-63 -150,-40 -212,-39 1,-38 2,-78 1,-116 -1,-50 -3,-56 -44,-69 z"
         id="path914-4"
         style="fill:#d6e4ed" />
      <path
         d="m 12604,4169 c 61,1 207,25 205,-39 l -33,-5 -157,1 c -62,0 -34,22 -15,43 z"
         id="path916-1"
         style="fill:#d6e4ed" />
      <path
         d="m 13351,4169 c 61,1 207,25 205,-39 l -33,-5 -157,1 c -62,0 -34,22 -15,43 z"
         id="path918-2"
         style="fill:#d6e4ed" />
      <path
         d="m 13366,4593 157,1 33,-5 c 3,-64 -144,-40 -205,-39 -19,21 -47,43 15,43 z"
         id="path920-4"
         style="fill:#d6e4ed" />
      <path
         d="m 12462,4367 c -54,9 -43,33 -43,95 0,61 -13,89 35,103 18,-41 8,-148 8,-198 z"
         id="path922-4"
         style="fill:#d6e4ed" />
      <path
         d="m 11706,4367 c -54,9 -43,33 -43,95 0,61 -13,89 35,103 18,-41 8,-148 8,-198 z"
         id="path924-5"
         style="fill:#d6e4ed" />
      <path
         d="m 12191,4570 c 3,-17 29,1 29,-61 0,-111 12,-126 -43,-145 0,58 -16,168 14,206 z"
         id="path926-0"
         style="fill:#d6e4ed" />
      <path
         d="m 11435,4570 c 3,-17 29,1 29,-61 0,-111 12,-126 -43,-145 0,58 -16,168 14,206 z"
         id="path928-1"
         style="fill:#d6e4ed" />
      <path
         d="m 13208,4367 c -51,17 -42,40 -44,95 -1,60 -14,89 36,103 18,-41 8,-148 8,-198 z"
         id="path930-5"
         style="fill:#d6e4ed" />
      <path
         d="m 11284,4210 c 2,84 -10,125 45,143 0,-50 10,-158 -8,-199 -30,8 -38,14 -37,56 z"
         id="path932-8"
         style="fill:#d6e4ed" />
      <path
         d="m 11328,4367 c -50,17 -43,40 -43,95 0,61 -13,89 35,103 18,-41 8,-148 8,-198 z"
         id="path934-7"
         style="fill:#d6e4ed" />
      <path
         d="m 13165,4210 c 0,79 -14,124 43,143 0,-50 10,-158 -8,-199 -33,9 -35,13 -35,56 z"
         id="path936-2"
         style="fill:#d6e4ed" />
      <path
         d="m 11044,4364 c 0,50 -2,105 -1,155 2,74 31,51 43,8 v -19 c 0,-111 12,-126 -43,-145 z"
         id="path938-7"
         style="fill:#d6e4ed" />
      <path
         d="m 12923,4364 c 0,50 -2,105 -1,155 2,74 31,51 43,8 v -19 c 0,-111 12,-126 -43,-145 z"
         id="path940-5"
         style="fill:#d6e4ed" />
      <path
         d="m 12419,4210 c 0,99 -12,123 35,143 15,-32 11,-175 0,-199 -33,9 -35,13 -35,56 z"
         id="path942-3"
         style="fill:#d6e4ed" />
      <path
         d="m 11053,4353 c 25,-22 33,-6 33,-59 0,-114 10,-100 -29,-145 -21,26 -16,102 -15,155 0,8 1,20 2,27 3,16 6,17 9,22 z"
         id="path944-1"
         style="fill:#d6e4ed" />
      <path
         d="m 12933,4353 c 25,-22 33,-6 33,-59 0,-114 10,-100 -29,-145 -22,27 -14,53 -14,98 0,38 -6,78 10,106 z"
         id="path946-2"
         style="fill:#d6e4ed" />
      <path
         d="m 12187,4353 c 25,-22 33,-6 33,-59 0,-114 10,-100 -29,-145 -22,27 -14,53 -14,98 0,38 -6,78 10,106 z"
         id="path948-0"
         style="fill:#d6e4ed" />
      <path
         d="m 11187,4373 c -31,37 -31,120 -13,167 l 34,-4 c 0,-65 12,-115 -21,-163 z"
         id="path950-1"
         style="fill:#d6e4ed" />
      <path
         d="m 13444,4373 c -31,37 -31,120 -13,167 l 34,-4 c 0,-65 12,-115 -21,-163 z"
         id="path952-6"
         style="fill:#d6e4ed" />
      <path
         d="m 12698,4373 c -27,32 -26,69 -23,127 l 9,40 34,-4 c 0,-65 12,-115 -21,-163 z"
         id="path954-3"
         style="fill:#d6e4ed" />
      <path
         d="m 13444,4345 c 32,-47 21,-98 21,-163 l -34,-4 c -1,3 -3,4 -3,8 -4,46 -22,113 17,159 z"
         id="path956-1"
         style="fill:#d6e4ed" />
      <path
         d="m 12698,4345 c 32,-47 21,-98 21,-163 l -34,-4 c -1,3 -3,4 -3,8 -4,46 -22,113 17,159 z"
         id="path958-3"
         style="fill:#d6e4ed" />
      <path
         d="m 11152,4328 c 7,-63 10,-57 -15,-100 -39,-65 -13,-34 -41,-50 0,54 8,119 56,149 z"
         id="path960-4"
         style="fill:#d6e4ed" />
      <path
         d="m 13787,4328 c 7,-62 -7,-121 -56,-149 0,47 -6,56 16,94 14,24 20,43 41,55 z"
         id="path962-0"
         style="fill:#d6e4ed" />
      <path
         d="m 13031,4328 c 7,-62 -7,-121 -56,-149 0,47 -6,56 16,94 14,24 20,43 41,55 z"
         id="path964-7"
         style="fill:#d6e4ed" />
      <path
         d="m 13731,4540 c 40,-23 66,-83 56,-149 -20,13 -27,31 -41,55 -22,39 -16,47 -16,94 z"
         id="path966-8"
         style="fill:#d6e4ed" />
      <path
         d="m 13100,4391 c -11,61 9,121 56,150 0,-68 -16,-116 -56,-150 z"
         id="path968-4"
         style="fill:#d6e4ed" />
      <path
         d="m 13856,4391 c -10,61 9,121 56,150 0,-68 -16,-116 -56,-150 z"
         id="path970-4"
         style="fill:#d6e4ed" />
      <path
         d="m 13856,4328 c 40,-34 56,-81 56,-150 -46,28 -66,89 -56,150 z"
         id="path972-8"
         style="fill:#d6e4ed" />
      <path
         d="m 11221,4328 c 40,-34 56,-81 56,-150 -46,28 -66,89 -56,150 z"
         id="path974-5"
         style="fill:#d6e4ed" />
      <path
         d="m 11514,4338 c -72,0 -49,-6 -67,22 17,26 -1,22 49,22 66,0 46,5 60,-22 -14,-25 3,-22 -42,-22 z"
         id="path976-0"
         style="fill:#d6e4ed" />
      <path
         d="m 12270,4338 c -72,0 -49,-6 -67,22 17,26 -1,22 49,22 66,0 46,5 60,-22 -14,-25 3,-22 -42,-22 z"
         id="path978-9"
         style="fill:#d6e4ed" />
      <path
         d="m 11634,4338 c -64,0 -42,-3 -62,13 v 16 c 19,16 1,13 43,13 67,0 48,4 65,-22 -17,-23 -3,-22 -47,-22 z"
         id="path980-2"
         style="fill:#d6e4ed" />
      <path
         d="m 12389,4338 c -64,0 -42,-3 -62,13 v 16 c 19,16 1,13 43,13 67,0 48,4 65,-22 -17,-23 -3,-22 -47,-22 z"
         id="path982-9"
         style="fill:#d6e4ed" />
    </g>
    <g
       id="g-inlay">
      <!--         
        <path
           style="clip-rule:evenodd;display:none;fill:#b5ff00;fill-opacity:1;fill-rule:evenodd;stroke-width:0.0982801;image-rendering:optimizeQuality;shape-rendering:geometricPrecision;text-rendering:geometricPrecision"
           d="M 392.08005,414.40954 358.4,429.25861 v 153.51347 l 36.50847,19.09205 c 34.60272,18.09544 -57.02155,-37.58894 -57.02155,-94.78796 v 0 c 0,-57.19902 89.52593,-109.29149 54.19313,-92.66663 z"
           id="inlay-0" />
        <path
           style="clip-rule:evenodd;display:none;fill:#b5ff00;fill-opacity:1;fill-rule:evenodd;stroke-width:0.0982801;image-rendering:optimizeQuality;shape-rendering:geometricPrecision;text-rendering:geometricPrecision"
           d="M 448.64859,403.09583 409.6,403.09566 v 207.96069 l 39.04859,1.7e-4 C 409.6,611.05635 337.88692,564.27519 337.88692,507.07617 v 0 c 0,-57.19902 71.71308,-103.98051 110.76167,-103.98034 z"
           id="inlay-1" />
        <path
           style="clip-rule:evenodd;display:none;fill:#b5ff00;fill-opacity:1;fill-rule:evenodd;stroke-width:0.0982801;image-rendering:optimizeQuality;shape-rendering:geometricPrecision;text-rendering:geometricPrecision"
           d="M 448.64859,403.09583 460.8,403.09566 v 207.96069 l -12.15141,1.7e-4 C 387.71493,611.0574 337.88692,564.27519 337.88692,507.07617 v 0 c 0,-57.19902 49.82801,-103.98034 110.76167,-103.98034 z"
           id="inlay-2" />
        <path
           style="clip-rule:evenodd;display:none;fill:#b5ff00;fill-opacity:1;fill-rule:evenodd;stroke-width:0.0982801;image-rendering:optimizeQuality;shape-rendering:geometricPrecision;text-rendering:geometricPrecision"
           d="M 448.64859,403.09583 H 512 v 207.96069 h -63.35141 c -60.93366,0 -110.76167,-46.78133 -110.76167,-103.98035 v 0 c 0,-57.19902 49.82801,-103.98034 110.76167,-103.98034 z"
           id="inlay-3" />
        <path
           style="clip-rule:evenodd;display:none;fill:#b5ff00;fill-opacity:1;fill-rule:evenodd;stroke-width:0.0982801;image-rendering:optimizeQuality;shape-rendering:geometricPrecision;text-rendering:geometricPrecision"
           d="M 448.64859,403.09583 H 563.2 V 611.05652 H 448.64859 c -60.93366,0 -110.76167,-46.78133 -110.76167,-103.98035 v 0 c 0,-57.19902 49.82801,-103.98034 110.76167,-103.98034 z"
           id="inlay-4" />
        <path
           style="clip-rule:evenodd;display:none;fill:#b5ff00;fill-opacity:1;fill-rule:evenodd;stroke-width:0.0982801;image-rendering:optimizeQuality;shape-rendering:geometricPrecision;text-rendering:geometricPrecision"
           d="M 448.64859,403.09583 H 614.4 V 611.05652 H 448.64859 c -60.93366,0 -110.76167,-46.78133 -110.76167,-103.98035 v 0 c 0,-57.19902 49.82801,-103.98034 110.76167,-103.98034 z"
           id="inlay-5" />
        <path
           style="clip-rule:evenodd;display:none;fill:#b5ff00;fill-opacity:1;fill-rule:evenodd;stroke-width:0.09828;image-rendering:optimizeQuality;shape-rendering:geometricPrecision;text-rendering:geometricPrecision"
           d="M 448.64859,403.09583 H 665.6 V 611.05652 H 448.64859 c -60.93366,0 -110.76167,-46.78133 -110.76167,-103.98035 v 0 c 0,-57.19902 49.82801,-103.98034 110.76167,-103.98034 z"
           id="inlay-6" />
        <path
           style="clip-rule:evenodd;display:none;fill:#b5ff00;fill-opacity:1;fill-rule:evenodd;stroke-width:0.0982801;image-rendering:optimizeQuality;shape-rendering:geometricPrecision;text-rendering:geometricPrecision"
           d="M 448.64859,403.09583 H 716.8 V 611.05652 H 448.64859 c -60.93366,0 -110.76167,-46.78133 -110.76167,-103.98035 v 0 c 0,-57.19902 49.82801,-103.98034 110.76167,-103.98034 z"
           id="inlay-7" />
        <path
           style="clip-rule:evenodd;display:none;fill:#b5ff00;fill-opacity:1;fill-rule:evenodd;stroke-width:0.0982801;image-rendering:optimizeQuality;shape-rendering:geometricPrecision;text-rendering:geometricPrecision"
           d="M 448.64859,403.09583 H 768 V 611.05652 H 448.64859 c -60.93366,0 -110.76167,-46.78133 -110.76167,-103.98035 v 0 c 0,-57.19902 49.82801,-103.98034 110.76167,-103.98034 z"
           id="inlay-8" />
        <path
           style="clip-rule:evenodd;display:none;fill:#b5ff00;fill-opacity:1;fill-rule:evenodd;stroke-width:0.0982801;image-rendering:optimizeQuality;shape-rendering:geometricPrecision;text-rendering:geometricPrecision"
           d="M 448.64859,403.09583 H 819.2 V 611.05652 H 448.64859 c -60.93366,0 -110.76167,-46.78133 -110.76167,-103.98035 v 0 c 0,-57.19902 49.82801,-103.98034 110.76167,-103.98034 z"
           id="inlay-9" />
        <path
           style="clip-rule:evenodd;display:none;fill:#b5ff00;fill-opacity:1;fill-rule:evenodd;stroke-width:0.0982801;image-rendering:optimizeQuality;shape-rendering:geometricPrecision;text-rendering:geometricPrecision"
           d="M 448.64861,403.09583 H 870.4 V 611.05652 H 448.64861 c -60.93366,0 -110.76167,-46.78133 -110.76167,-103.98035 v 0 c 0,-57.19902 49.82801,-103.98034 110.76167,-103.98034 z"
           id="inlay-10" />
        <path
           style="clip-rule:evenodd;display:none;fill:#b5ff00;fill-opacity:1;fill-rule:evenodd;stroke-width:0.0982801;image-rendering:optimizeQuality;shape-rendering:geometricPrecision;text-rendering:geometricPrecision"
           d="M 448.6486,403.09583 H 921.6 V 611.05652 H 448.6486 c -60.93366,0 -110.76167,-46.78133 -110.76167,-103.98035 v 0 c 0,-57.19902 49.82801,-103.98034 110.76167,-103.98034 z"
           id="inlay-11" />
        <path
           style="clip-rule:evenodd;display:none;fill:#b5ff00;fill-opacity:1;fill-rule:evenodd;stroke-width:0.0982801;image-rendering:optimizeQuality;shape-rendering:geometricPrecision;text-rendering:geometricPrecision"
           d="M 448.64862,403.09583 H 972.8 V 611.05652 H 448.64862 c -60.93366,0 -110.76167,-46.78133 -110.76167,-103.98035 v 0 c 0,-57.19902 49.82801,-103.98034 110.76167,-103.98034 z"
           id="inlay-12" />
        <path
           style="clip-rule:evenodd;display:none;fill:#b5ff00;fill-opacity:1;fill-rule:evenodd;stroke-width:0.0982801;image-rendering:optimizeQuality;shape-rendering:geometricPrecision;text-rendering:geometricPrecision"
           d="M 448.64862,403.09583 H 1024 V 611.05652 H 448.64862 c -60.93366,0 -110.76167,-46.78133 -110.76167,-103.98035 v 0 c 0,-57.19902 49.82801,-103.98034 110.76167,-103.98034 z"
           id="inlay-13" />
        <path
           style="clip-rule:evenodd;display:none;fill:#b5ff00;fill-opacity:1;fill-rule:evenodd;stroke-width:0.0982801;image-rendering:optimizeQuality;shape-rendering:geometricPrecision;text-rendering:geometricPrecision"
           d="M 448.64862,403.09583 H 1075.2 V 611.05652 H 448.64862 c -60.93366,0 -110.76167,-46.78133 -110.76167,-103.98035 v 0 c 0,-57.19902 49.82801,-103.98034 110.76167,-103.98034 z"
           id="inlay-14" />
        <path
           style="clip-rule:evenodd;display:none;fill:#b5ff00;fill-opacity:1;fill-rule:evenodd;stroke-width:0.0982801;image-rendering:optimizeQuality;shape-rendering:geometricPrecision;text-rendering:geometricPrecision"
           d="M 448.64862,403.09583 H 1126.4 V 611.05652 H 448.64862 c -60.93366,0 -110.76167,-46.78133 -110.76167,-103.98035 v 0 c 0,-57.19902 49.82801,-103.98034 110.76167,-103.98034 z"
           id="inlay-15" />
        <path
           style="clip-rule:evenodd;display:none;fill:#b5ff00;fill-opacity:1;fill-rule:evenodd;stroke-width:0.0982801;image-rendering:optimizeQuality;shape-rendering:geometricPrecision;text-rendering:geometricPrecision"
           d="M 448.64863,403.09583 H 1177.6 V 611.05652 H 448.64863 c -60.93366,0 -110.76167,-46.78133 -110.76167,-103.98035 v 0 c 0,-57.19902 49.82801,-103.98034 110.76167,-103.98034 z"
           id="inlay-16" />
        <path
           style="clip-rule:evenodd;display:none;fill:#b5ff00;fill-opacity:1;fill-rule:evenodd;stroke-width:0.0982801;image-rendering:optimizeQuality;shape-rendering:geometricPrecision;text-rendering:geometricPrecision"
           d="M 448.64866,403.09583 H 1228.8 V 611.05652 H 448.64866 c -60.93366,0 -110.76167,-46.78133 -110.76167,-103.98035 v 0 c 0,-57.19902 49.82801,-103.98034 110.76167,-103.98034 z"
           id="inlay-17" />
-->
      <path
         style="clip-rule:evenodd;display:inline;fill:#b5ff00;fill-opacity:1;fill-rule:evenodd;stroke-width:0.0982801;image-rendering:optimizeQuality;shape-rendering:geometricPrecision;text-rendering:geometricPrecision"
         d="M 448.64864,403.09583 H 1280 V 611.05652 H 448.64864 c -60.93366,0 -110.76167,-46.78133 -110.76167,-103.98035 v 0 c 0,-57.19902 49.82801,-103.98034 110.76167,-103.98034 z"
         id="inlay-18" />
      <path
         style="clip-rule:evenodd;display:inline;opacity:0;fill:#b5ff00;fill-opacity:1;fill-rule:evenodd;stroke-width:0.09828;image-rendering:optimizeQuality;shape-rendering:geometricPrecision;text-rendering:geometricPrecision"
         d="m 1280,421.09583 v 172.427 l 207.0804,-0.0442 c 47.371,-0.0101 86.1914,-38.8204 86.1914,-86.19141 0,-47.37101 -38.8204,-86.1914 -86.1914,-86.1914 z"
         id="inlay-19" />
      <!--
        <path
           style="clip-rule:evenodd;display:inline;fill:#b5ff00;fill-opacity:1;fill-rule:evenodd;stroke-width:0.09828;image-rendering:optimizeQuality;shape-rendering:geometricPrecision;text-rendering:geometricPrecision"
           d="m 1331.2,421.09583 v 172.427 l 155.8804,-0.0442 c 47.371,-0.0134 86.1914,-38.8204 86.1914,-86.19141 0,-47.37101 -38.8204,-86.1914 -86.1914,-86.1914 z"
           id="inlay-20" />
        <path
           style="clip-rule:evenodd;display:inline;fill:#b5ff00;fill-opacity:1;fill-rule:evenodd;stroke-width:0.09828;image-rendering:optimizeQuality;shape-rendering:geometricPrecision;text-rendering:geometricPrecision"
           d="m 1382.4,421.09583 v 172.427 l 104.6804,-0.0442 c 47.371,-0.02 86.1914,-38.8204 86.1914,-86.19141 0,-47.37101 -38.8204,-86.1914 -86.1914,-86.1914 z"
           id="inlay-21" />
        <path
           style="clip-rule:evenodd;display:inline;fill:#b5ff00;fill-opacity:1;fill-rule:evenodd;stroke-width:0.09828;image-rendering:optimizeQuality;shape-rendering:geometricPrecision;text-rendering:geometricPrecision"
           d="m 1433.6,421.09583 v 172.427 l 53.4804,-0.0442 c 47.371,-0.0391 86.1914,-38.8204 86.1914,-86.19141 0,-47.37101 -38.8204,-86.1914 -86.1914,-86.1914 z"
           id="inlay-22" />
        <path
           style="clip-rule:evenodd;display:inline;fill:#b5ff00;fill-opacity:1;fill-rule:evenodd;stroke-width:0.09828;image-rendering:optimizeQuality;shape-rendering:geometricPrecision;text-rendering:geometricPrecision"
           d="m 1484.8,421.09583 v 172.427 l 2.2804,-0.0442 c 47.3621,-0.918 86.1914,-38.8204 86.1914,-86.19141 0,-47.37101 -38.8204,-86.1914 -86.1914,-86.1914 z"
           id="inlay-23" />
        <path
           style="clip-rule:evenodd;display:none;fill:#b5ff00;fill-opacity:1;fill-rule:evenodd;stroke-width:0.09828;image-rendering:optimizeQuality;shape-rendering:geometricPrecision;text-rendering:geometricPrecision"
           d="m 1536,421.09583 v 172.427 l -48.9196,-0.0442 c 48.9196,0.0442 86.1914,-38.8204 86.1914,-86.19141 0,-47.37101 -21.1427,-86.19139 -86.1914,-86.1914 z"
           id="inlay-24" />
-->
    </g>
    <g
       id="g-hb">
      <path
         style="display:none;fill:#d45500;fill-opacity:0.5;stroke:none;stroke-width:0.027;stroke-miterlimit:4;stroke-dasharray:none;stroke-opacity:1"
         d="m 376.49061,571.86431 c -1.45991,-1.30813 -2.70168,-2.49358 -2.75947,-2.63434 -0.0578,-0.14075 -0.96059,-2.04994 -2.00623,-4.24264 -1.04563,-2.1927 -1.7926,-4.09382 -1.65994,-4.22473 0.23744,-0.23429 39.26214,-19.26503 39.50723,-19.26503 0.0127,6.53379 -2e-4,18.54521 -2e-4,18.54521 l -14.84705,7.19398 c -7.96175,3.85778 -14.72133,7.01847 -15.02602,7.01404 -0.30468,-0.004 -1.74845,-1.07836 -3.20837,-2.38649 z"
         id="hb-1" />
      <path
         style="display:none;fill:#d45500;fill-opacity:0.5;stroke:none;stroke-width:0.009546;stroke-miterlimit:4;stroke-dasharray:none;stroke-opacity:1"
         d="m 409.57848,550.55887 -0.006,-9.0613 3.51884,-1.68966 c 1.7987,-0.86396 13.19053,-6.37569 25.31519,-12.24829 12.12465,-5.87259 22.10949,-10.61277 22.18854,-10.53372 0.079,0.0791 0.10257,8.76673 0.0523,19.30595 l -0.0915,19.16222 -3.23141,-8.41138 c -1.77728,-4.62625 -3.39036,-8.37749 -3.58462,-8.33609 -0.19427,0.0414 -10.06001,4.77461 -21.92387,10.51822 -11.86386,5.74361 -22.10364,10.7398 -22.22033,10.7398 0.0186,-3.70414 -0.0242,-6.39509 -0.0169,-9.44575 z"
         id="hb-2" />
      <path
         style="display:none;fill:#d45500;fill-opacity:0.5;stroke:none;stroke-width:0.009546;stroke-miterlimit:4;stroke-dasharray:none;stroke-opacity:1"
         d="m 460.64653,516.90043 1.45203,-0.83169 1.01008,-0.52234 11.2546,29.32852 11.25461,29.32851 h 4.43684 4.43683 l 8.75305,-8.74779 8.75305,-8.7478 v 11.61637 11.61637 l -5.1742,5.44399 -5.17419,5.44399 -13.78457,-0.0924 -13.78456,-0.0925 -6.4087,-16.68089 -7.11583,-18.4687 c 0,0 0.19951,-24.66614 0.091,-38.59364 z"
         id="hb-3" />
      <path
         style="display:none;fill:#d45500;fill-opacity:0.5;stroke:none;stroke-width:0.009546;stroke-miterlimit:4;stroke-dasharray:none;stroke-opacity:1"
         d="m 563.19657,570.19956 -16.85619,-4.07607 -16.39215,-4.03188 -8.97531,8.97012 -8.9753,8.97013 v -11.84512 -11.84512 l 6.27916,-6.27189 c 3.45353,-3.44954 6.47196,-6.27189 6.70761,-6.27189 0.36581,0 38.21125,9.23482 38.21125,9.23482 z"
         id="hb-4" />
      <path
         style="display:none;fill:#d45500;fill-opacity:0.5;stroke:none;stroke-width:0.019092;stroke-miterlimit:4;stroke-dasharray:none;stroke-opacity:1"
         d="m 578.30339,573.99581 c -5.25027,-1.28598 -10.73918,-2.67099 -12.19759,-3.07781 l -2.90923,-0.71844 c -0.007,-5.72526 -9.3e-4,-10.48424 -9.3e-4,-17.1669 l 2.10877,0.54296 c 1.01764,0.25542 2.76556,0.64745 3.88425,0.87119 l 2.03399,0.4068 0.18162,-49.39665 0.1816,-49.39665 7.77818,-1.21077 c 4.278,-0.66593 7.98992,-0.98929 8.24872,-0.71858 0.2588,0.27071 6.38411,19.86724 13.6118,43.54784 l 13.14127,43.05564 v 10.15414 10.15415 l -3.00521,0.008 c -1.65286,0.004 -4.13493,0.1947 -5.51571,0.42316 l -2.51052,0.41539 -7.38898,-24.23223 -7.38898,-24.23223 -0.35356,31.45468 -0.35355,31.45469 z"
         id="hb-5" />
      <path
         style="display:none;fill:#d45500;fill-opacity:0.5;stroke:none;stroke-width:0.009546;stroke-miterlimit:4;stroke-dasharray:none;stroke-opacity:1"
         d="m 665.607,558.19195 c 0,0 -33.39669,1.50354 -49.89836,2.68875 l -1.32583,0.10659 0.0371,-9.90884 c 0.0299,-8.00332 -0.38108,-11.3915 -0.0541,-10.34401 0.22268,0.71329 0.99559,3.12341 1.11134,3.23888 0.11575,0.11546 5.92286,-0.10756 12.9047,-0.49559 6.98183,-0.38803 17.46721,-0.95354 23.30084,-1.25669 4.535,-0.32052 13.85978,-0.79267 13.85978,-0.79267 z"
         id="hb-6" />
      <path
         style="display:none;fill:#d45500;fill-opacity:0.5;stroke:none;stroke-width:0.0135;stroke-miterlimit:4;stroke-dasharray:none;stroke-opacity:1"
         d="m 665.54247,541.42837 c 0,0 11.46244,-0.7097 22.46244,-1.28245 11,-0.57274 21.96524,-1.24057 24.375,-1.34817 l 4.42188,-0.19744 -0.0148,16.66084 -1.65707,0.0624 c -0.89375,0.13692 -10.625,0.71341 -21.625,1.28108 -11,0.56767 -21.89166,1.11281 -24.02291,1.28118 l -3.875,0.30614 z"
         id="hb-7" />
      <path
         style="display:none;fill:#d45500;fill-opacity:0.5;stroke:none;stroke-width:0.0135;stroke-miterlimit:4;stroke-dasharray:none;stroke-opacity:1"
         d="m 716.80179,538.60031 1.97738,-0.0865 c 0.89375,-0.13568 10.7375,-0.70998 21.875,-1.27622 11.1375,-0.56624 21.76875,-1.16325 23.625,-1.3267 l 3.70646,-0.1204 v 16.66609 l -21.45646,1.17625 c -11.61798,0.6369 -22.98125,1.26657 -25.25,1.43098 l -4.49219,0.19736 z"
         id="hb-8" />
      <path
         style="display:none;fill:#d45500;fill-opacity:0.5;stroke:none;stroke-width:0.004773;stroke-miterlimit:4;stroke-dasharray:none;stroke-opacity:1"
         d="m 767.98563,535.79049 c 0.46387,0 48.41803,-2.71056 49.72255,-2.80893 l 1.46015,-0.11011 0.0176,16.7101 -24.59295,1.38608 c -13.46543,0.75892 -24.94098,1.36684 -25.50004,1.37196 l -1.10729,0.11699 c 0,0 0.0151,-11.22758 0,-16.66609 z"
         id="hb-9" />
      <path
         style="display:none;fill:#d45500;fill-opacity:0.5;stroke:none;stroke-width:0.00675;stroke-miterlimit:4;stroke-dasharray:none;stroke-opacity:1"
         d="m 870.39267,567.75826 -1.69931,0.0569 c -1.42342,0.16521 -1.49481,0.14692 -1.61187,-0.41295 -0.0674,-0.3222 -1.19887,-12.67957 -2.51446,-27.46082 -1.31559,-14.78125 -2.46097,-27.47766 -2.54528,-28.21425 -0.14958,-1.30675 -0.30001,-0.88678 -6.19958,17.3076 -3.32545,10.25576 -6.09827,18.69883 -6.16181,18.76238 -0.0635,0.0635 -6.35638,0.45703 -13.98407,0.87442 -7.6277,0.41739 -14.45917,0.79874 -15.18104,0.84744 l -1.3125,0.0886 v -8.31174 -8.31174 l 1.8125,-0.14906 c 0.99687,-0.082 5.075,-0.32704 9.0625,-0.54456 3.9875,-0.21753 7.26871,-0.41317 7.29159,-0.43477 0.0229,-0.0216 4.7957,-14.72052 10.60627,-32.66427 5.81058,-17.94375 10.59806,-32.66869 10.63885,-32.7221 0.0771,-0.10101 9.69539,0.8945 10.8995,1.12812 l 0.90167,0.10553 c 0.12268,25.1637 -0.003,100.05532 -0.003,100.05532 z"
         id="hb-10" />
      <path
         style="display:none;fill:#d45500;fill-opacity:0.5;stroke:none;stroke-width:0.00675;stroke-miterlimit:4;stroke-dasharray:none;stroke-opacity:1"
         d="m 870.46258,517.66962 v -50.02346 l 1.3125,0.15888 c 0.72187,0.0874 1.70778,0.21584 2.1909,0.28545 l 0.87841,0.12657 3.71136,41.17551 c 2.04125,22.64653 3.73269,41.19973 3.75875,41.22933 0.0261,0.0296 6.11691,-0.16236 13.53523,-0.42657 7.41832,-0.26421 15.9066,-0.54677 18.86285,-0.62791 2.95625,-0.0811 5.68437,-0.19574 6.0625,-0.25468 l 0.81456,-0.0132 -0.002,16.62389 c 0,0 -48.83015,1.76038 -49.81283,1.76437 l -1.3125,0.005 z"
         id="hb-11" />
      <path
         style="display:none;fill:#d45500;fill-opacity:0.5;stroke:none;stroke-width:0.0135;stroke-miterlimit:4;stroke-dasharray:none;stroke-opacity:1"
         d="m 921.58964,549.29954 4.08031,-0.23429 c 2.13125,-0.007 12.5375,-0.3388 23.125,-0.73701 10.5875,-0.39822 20.31875,-0.72988 21.625,-0.73702 l 2.375,-0.013 v 8.20734 8.20734 l -3.625,0.28487 c -1.99375,0.15667 -11.3875,0.51451 -20.875,0.79518 -9.4875,0.28067 -19.33125,0.64267 -21.875,0.80445 l -4.83231,0.046 z"
         id="hb-12" />
      <path
         style="display:none;fill:#d45500;fill-opacity:0.5;stroke:none;stroke-width:0.00675;stroke-miterlimit:4;stroke-dasharray:none;stroke-opacity:1"
         d="m 972.79495,547.57822 51.12955,-1.81421 v 16.69837 c 0,0 -11.671,0.35012 -25.28345,0.83045 -13.6125,0.48032 -25.8422,0.70007 -25.8422,0.70007 z"
         id="hb-13" />
      <path
         style="display:none;fill:#d45500;fill-opacity:0.5;stroke:none;stroke-width:0.009546;stroke-miterlimit:4;stroke-dasharray:none;stroke-opacity:1"
         d="m 1023.9245,545.76401 2.5565,-0.13015 c 4.2623,-0.21699 26.6128,-0.9325 26.7348,-1.07824 0.065,-0.0779 4.955,-9.0005 10.8662,-19.82793 l 11.1232,-20.30494 -0.015,34.8447 -5.3705,9.72164 c -2.8565,5.26183 -5.545,10.13237 -5.9744,10.82341 l -0.7808,1.25645 -17.9822,0.60976 c -9.8902,0.33538 -18.6584,0.60525 -19.4848,0.59971 l -1.6731,0.18396 z"
         id="hb-14" />
      <path
         style="display:none;fill:#d45500;fill-opacity:0.5;stroke:none;stroke-width:0.0135;stroke-miterlimit:4;stroke-dasharray:none;stroke-opacity:1"
         d="m 1092.1513,545.74463 c 0.4611,-5.66371 1.9021,-39.289 1.7086,-39.86961 -0.095,-0.28565 -4.2221,6.8829 -9.1708,15.93011 l -9.4989,17.46232 0.015,-34.8447 10.8103,-19.89043 c 5.8074,-10.68536 10.6168,-19.46 10.6532,-19.51781 0.1151,-0.18247 15.1778,4.09357 15.4783,4.39398 0.2262,0.22626 -1.5871,44.66804 -2.3497,57.58614 -0.2048,3.4696 -0.7698,3.36836 9.5191,1.70546 l 7.125,-1.15155 -0.049,16.99779 c 0,0 -8.9615,1.31097 -17.2078,2.55573 -8.2462,1.24475 -15.5186,2.26417 -16.1608,2.26538 -1.1435,0.002 -1.1616,-0.0729 -0.8725,-3.62281 z"
         id="hb-15" />
      <path
         style="display:none;fill:#d45500;fill-opacity:0.5;stroke:none;stroke-width:0.009546;stroke-miterlimit:4;stroke-dasharray:none;stroke-opacity:1"
         d="m 1140.4411,591.59643 c -0.1143,-0.92366 -1.1785,-12.17991 -2.365,-25.0139 -1.1865,-12.83399 -2.1884,-23.36754 -2.2264,-23.40788 -0.066,-0.0702 -9.4573,1.37168 -9.4573,1.37168 l 0.049,-16.99779 c 0,0 6.126,-0.82341 12.5342,-1.78809 6.4083,-0.96468 11.7139,-1.69148 11.7902,-1.61512 0.1385,0.1385 4.9921,51.26922 5.01,52.77864 l 0.01,0.79549 h 10.7834 l 11.0374,0.15468 -0.022,15.40167 h -18.5835 -18.3516 z"
         id="hb-16" />
      <path
         style="display:none;fill:#d45500;fill-opacity:0.5;stroke:none;stroke-width:0.009546;stroke-miterlimit:4;stroke-dasharray:none;stroke-opacity:1"
         d="m 1177.6556,577.91542 5.5684,-0.008 5.5685,-0.008 6.9709,-15.81364 c 3.8339,-8.69749 7.2976,-16.55981 7.6969,-17.47182 l 0.7261,-1.65819 1.6722,0.48106 c 4.2481,1.22207 19.9508,5.18073 20.0715,5.06002 0.074,-0.0745 0.4587,-3.94663 0.8538,-8.6047 0.8775,-10.34459 1.0327,-11.39112 1.0327,-11.39112 l 0.9795,0.33332 0.01,37.80988 c 0,0 -3.6741,-0.92319 -7.6605,-1.98323 -5.4775,-1.45657 -7.3189,-1.82199 -7.5388,-1.49604 -0.1601,0.23722 -3.211,7.03392 -6.78,15.10378 l -6.5773,14.97077 -22.6619,0.0363 z"
         id="hb-17" />
      <path
         style="display:none;fill:#d45500;fill-opacity:0.5;stroke:none;stroke-width:0.00675;stroke-miterlimit:4;stroke-dasharray:none;stroke-opacity:1"
         d="m 1234.8795,568.23579 -6.2205,-1.61196 c 0,-12.62117 0.1371,-25.16831 0.1371,-37.78948 l 2.9596,1.0168 c 1.5469,0.54802 12.9938,4.58465 25.4375,8.97028 l 22.7797,8.06226 0.022,17.63391 -18.714,-6.58711 c -10.2711,-3.6153 -18.6899,-6.55901 -18.7145,-6.52466 -0.024,0.0343 -0.3553,3.83119 -0.735,8.43744 -0.3798,4.60625 -0.7628,8.72038 -0.8512,9.14252 l -0.1607,0.76752 z"
         id="hb-18" />
      <path
         style="display:none;fill:#d45500;fill-opacity:0.5;stroke:none;stroke-width:0.002386;stroke-miterlimit:4;stroke-dasharray:none;stroke-opacity:1"
         d="m 1331.1995,579.99491 -0.8997,1.02031 c -0.4281,0.49433 -0.8258,0.89914 -0.8839,0.89957 -0.058,4.5e-4 -11.1925,-3.90743 -24.7431,-8.68415 l -24.6376,-8.68495 -7e-4,-8.81673 c -4e-4,-4.84921 0.015,-8.81674 0.035,-8.81674 0.019,0 9.8936,3.47536 21.9424,7.72302 12.0488,4.24767 21.9938,7.7497 22.1,7.78229 0.169,0.0519 0.617,-0.43175 3.6014,-3.88825 l 3.4857,-3.99172 z"
         id="hb-19" />
      <path
         style="display:none;fill:#d45500;fill-opacity:0.5;stroke:none;stroke-width:0.0135;stroke-miterlimit:4;stroke-dasharray:none;stroke-opacity:1"
         d="m 1331.199,554.53756 8.2506,-9.65457 8.125,-9.40201 9.9649,-24.56863 c 5.4806,-13.51275 10.0145,-24.5153 10.0752,-24.45013 0.061,0.0652 3.3953,7.60008 7.4102,16.74422 l 7.2997,16.62572 v 17.67995 17.67995 l -1.2804,-0.24478 c -0.7043,-0.13463 -1.58,-0.72218 -1.9461,-1.30567 -0.366,-0.58348 -2.8664,-6.12338 -5.5563,-12.31088 -2.6899,-6.1875 -5.0264,-11.41347 -5.1922,-11.61326 -0.1658,-0.19979 -1.6495,2.98359 -3.2972,7.07417 l -2.9957,7.43744 -14.9121,17.29982 c -8.2017,9.5149 -15.9451,18.46601 -15.9451,18.46601 z"
         id="hb-20" />
      <path
         style="display:none;fill:#d45500;fill-opacity:0.5;stroke:none;stroke-width:0.002386;stroke-miterlimit:4;stroke-dasharray:none;stroke-opacity:1"
         d="m 1429.3876,569.00025 c -2.2119,-0.64811 -9.431,-2.75765 -16.0425,-4.68785 -6.6114,-1.93019 -15.1431,-4.42147 -18.9593,-5.53616 -3.8161,-1.1147 -8.062,-2.35387 -9.4353,-2.75371 l -2.6259,-0.83047 c 0.3987,-11.44897 -0.5063,-24.23816 0,-35.3599 0.065,0.14584 2.3268,5.35831 4.7201,10.80303 2.3933,5.44473 4.3571,9.90593 4.3641,9.9138 0.01,0.008 3.2344,0.95547 7.1721,2.1058 3.9377,1.15033 9.8784,2.88633 13.2016,3.85777 3.3232,0.97144 6.0513,1.75403 6.0625,1.73909 0.025,-0.0331 2.9735,-73.42967 2.9689,-73.89774 l 1.0607,-24.90341 11.728,-1.51918 c 0,0 0.3647,82.23183 -0.01,122.26374 -0.036,-0.003 -1.9976,-0.5465 -4.2095,-1.19462 z"
         id="hb-21" />
      <path
         style="display:none;fill:#d45500;fill-opacity:0.5;stroke:none;stroke-width:0.019092;stroke-miterlimit:4;stroke-dasharray:none;stroke-opacity:1"
         d="m 1484.7899,561.17122 -17.1352,-0.0937 c -13.058,-0.0714 -16.6168,-0.19677 -16.8999,-0.93446 -0.1972,-0.51395 -3.4928,-12.84412 -7.3235,-27.40038 -5.7327,-21.78388 -7.1914,-23.28396 -7.1914,-23.28396 0,0 -0.6764,12.40801 -1.1364,23.68808 l -1.5109,37.04831 0.01,-122.26374 2.3335,-0.19962 c 1.0695,-0.20545 2.051,-0.2686 2.1812,-0.14034 0.1302,0.12826 5.8964,21.70172 12.8137,47.94103 6.9173,26.2393 12.7958,48.06194 13.0632,48.49473 0.3194,0.51677 3.8642,0.903 10.3236,0.78689 l 10.4201,-0.25932 z"
         id="hb-22" />
      <path
         style="display:none;fill:#d45500;fill-opacity:0.5;stroke:none;stroke-width:0.002386;stroke-miterlimit:4;stroke-dasharray:none;stroke-opacity:1"
         d="m 1484.8539,544.54922 25.5498,0.0156 h 25.5884 v 8.30851 8.3085 h -25.5884 l -25.6138,-0.0106 c 0.027,-5.53544 -0.052,-16.61649 -0.052,-16.61649 z"
         id="hb-23" />
      <path
         style="display:none;fill:#d45500;fill-opacity:0.5;stroke:none;stroke-width:0.0135;stroke-miterlimit:4;stroke-dasharray:none;stroke-opacity:1"
         d="m 1535.9921,544.56482 13.761,-0.0295 c 15.4808,-0.0332 19.4636,-0.45768 16.813,4.26626 -1.4323,2.5526 0.079,9.83526 -1.555,11.88907 -0.6156,0.77396 -12.1026,0.5414 -19.9015,0.34467 l -9.1175,0.14654 z"
         id="hb-24" />
    </g>
    <polyline
       id="heartbeat"
       points="13539,3242 12461,3242 12184,2191 12139,3307 11728,3187 11550,2782 11417,3110 11133,3439 10200,3110 10183,3307 9933,3242 9783,3581 9316,3581 9266,3045 8833,3110 8866,2388 8399,3242 6532,3307 6449,2388 6215,3110 3832,3242 3531,2257 3531,3373 2998,3242 2698,3544 2515,3544 2298,2979 1431,3399 "
       style="clip-rule:evenodd;display:inline;fill:none;fill-rule:evenodd;stroke:#868686;stroke-width:169.33000183;stroke-opacity:0.2;image-rendering:optimizeQuality;shape-rendering:geometricPrecision;text-rendering:geometricPrecision"
       transform="matrix(0.0982801,0,0,0.0982801,232.72726,234.25061)" />
    <text
       x="1313.5104"
       y="534.25586"
       id="t-2018"
       style="font-weight:bold;font-size:74.66666412px;font-family:sans-serif;clip-rule:evenodd;display:inline;opacity:1;fill:#b5ff00;fill-opacity:1;fill-rule:evenodd;stroke-width:0.09828;image-rendering:optimizeQuality;shape-rendering:geometricPrecision;text-rendering:geometricPrecision">2018</text>
    <g
       transform="translate(-157.45166,0.51109147)"
       style="display:inline"
       id="g-t-datenspuren">
      <text
         transform="scale(1.1085261,0.90209875)"
         style="font-weight:bold;font-size:82.88040161px;font-family:sans-serif;clip-rule:evenodd;display:inline;fill:#000000;fill-opacity:1;fill-rule:evenodd;stroke-width:0.120931;image-rendering:optimizeQuality;shape-rendering:geometricPrecision;text-rendering:geometricPrecision"
         id="t-datenspuren-11"
         y="591.71021"
         x="561.3443">DATENSPUREN</text>
      <text
         transform="scale(1.1085261,0.90209875)"
         style="font-weight:bold;font-size:82.88040161px;font-family:sans-serif;clip-rule:evenodd;display:inline;fill:#000000;fill-opacity:1;fill-rule:evenodd;stroke-width:0.120931;image-rendering:optimizeQuality;shape-rendering:geometricPrecision;text-rendering:geometricPrecision"
         id="t-datenspuren-10"
         y="591.71021"
         x="561.3443">DATENSPURE</text>
      <text
         transform="scale(1.1085261,0.90209875)"
         style="font-weight:bold;font-size:82.88040161px;font-family:sans-serif;clip-rule:evenodd;display:inline;fill:#000000;fill-opacity:1;fill-rule:evenodd;stroke-width:0.120931;image-rendering:optimizeQuality;shape-rendering:geometricPrecision;text-rendering:geometricPrecision"
         id="t-datenspuren-9"
         y="591.71021"
         x="561.3443">DATENSPUR</text>
      <text
         transform="scale(1.1085261,0.90209875)"
         style="font-weight:bold;font-size:82.88040161px;font-family:sans-serif;clip-rule:evenodd;display:inline;fill:#000000;fill-opacity:1;fill-rule:evenodd;stroke-width:0.120931;image-rendering:optimizeQuality;shape-rendering:geometricPrecision;text-rendering:geometricPrecision"
         id="t-datenspuren-8"
         y="591.71021"
         x="561.3443">DATENSPU</text>
      <text
         transform="scale(1.1085261,0.90209875)"
         style="font-weight:bold;font-size:82.88040161px;font-family:sans-serif;clip-rule:evenodd;display:inline;fill:#000000;fill-opacity:1;fill-rule:evenodd;stroke-width:0.120931;image-rendering:optimizeQuality;shape-rendering:geometricPrecision;text-rendering:geometricPrecision"
         id="t-datenspuren-7"
         y="591.71021"
         x="561.3443">DATENSP</text>
      <text
         transform="scale(1.1085261,0.90209875)"
         style="font-weight:bold;font-size:82.88040161px;font-family:sans-serif;clip-rule:evenodd;display:inline;fill:#000000;fill-opacity:1;fill-rule:evenodd;stroke-width:0.120931;image-rendering:optimizeQuality;shape-rendering:geometricPrecision;text-rendering:geometricPrecision"
         id="t-datenspuren-6"
         y="591.71021"
         x="561.3443">DATENS</text>
      <text
         transform="scale(1.1085261,0.90209875)"
         style="font-weight:bold;font-size:82.88040161px;font-family:sans-serif;clip-rule:evenodd;display:inline;fill:#000000;fill-opacity:1;fill-rule:evenodd;stroke-width:0.120931;image-rendering:optimizeQuality;shape-rendering:geometricPrecision;text-rendering:geometricPrecision"
         id="t-datenspuren-5"
         y="591.71021"
         x="561.3443">DATEN</text>
      <text
         transform="scale(1.1085261,0.90209875)"
         style="font-weight:bold;font-size:82.88040161px;font-family:sans-serif;clip-rule:evenodd;display:inline;fill:#000000;fill-opacity:1;fill-rule:evenodd;stroke-width:0.120931;image-rendering:optimizeQuality;shape-rendering:geometricPrecision;text-rendering:geometricPrecision"
         id="t-datenspuren-4"
         y="591.71021"
         x="561.3443">DATE</text>
      <text
         transform="scale(1.1085261,0.90209875)"
         style="font-weight:bold;font-size:82.88040161px;font-family:sans-serif;clip-rule:evenodd;display:inline;fill:#000000;fill-opacity:1;fill-rule:evenodd;stroke-width:0.120931;image-rendering:optimizeQuality;shape-rendering:geometricPrecision;text-rendering:geometricPrecision"
         id="t-datenspuren-3"
         y="591.71021"
         x="561.3443">DAT</text>
      <text
         transform="scale(1.1085261,0.90209875)"
         style="font-weight:bold;font-size:82.88040161px;font-family:sans-serif;clip-rule:evenodd;display:inline;fill:#000000;fill-opacity:1;fill-rule:evenodd;stroke-width:0.120931;image-rendering:optimizeQuality;shape-rendering:geometricPrecision;text-rendering:geometricPrecision"
         id="t-datenspuren-2"
         y="591.71021"
         x="561.3443">DA</text>
      <text
         transform="scale(1.1085261,0.90209875)"
         style="font-weight:bold;font-size:82.88040161px;font-family:sans-serif;clip-rule:evenodd;display:inline;fill:#000000;fill-opacity:1;fill-rule:evenodd;stroke-width:0.120931;image-rendering:optimizeQuality;shape-rendering:geometricPrecision;text-rendering:geometricPrecision"
         id="t-datenspuren-1"
         y="591.71021"
         x="561.3443">D</text>
    </g>
    <rect
       style="display:inline;fill:#727272;fill-opacity:1;stroke-width:0.11547006;stroke-miterlimit:4;stroke-dasharray:none"
       id="overlay"
       width="1280"
       height="400"
       x="1600"
       y="340" />
    <path
       id="outline"
       d="M 432.92381,394.15233 H 1487.0762 c 62.113,0 112.9238,50.81082 112.9238,112.92384 v 0 c 0,62.11302 -50.8108,112.92384 -112.9238,112.92384 H 432.92381 c -62.11302,0 -112.92383,-50.81082 -112.92383,-112.92384 v 0 c 0,-62.11302 50.81081,-112.92384 112.92383,-112.92384 z m 0,26.63391 H 1487.0762 c 47.371,0 86.1916,38.82064 86.1916,86.19165 v 0 c 0,47.37101 -38.8206,86.19165 -86.1916,86.19165 H 432.92381 c -47.371,0 -86.19164,-38.82064 -86.19164,-86.19165 v 0 c 0,-47.37101 38.82064,-86.19165 86.19164,-86.19165 z"
       style="clip-rule:evenodd;display:inline;fill:#878787;fill-opacity:1;fill-rule:evenodd;stroke-width:0.0982801;image-rendering:optimizeQuality;shape-rendering:geometricPrecision;text-rendering:geometricPrecision" />
    <path
       id="amboss"
       d="M 432.92382,438.67322 H 1487.0762 c 37.6413,0 68.4029,30.76167 68.4029,68.40295 v 0 c 0,37.64128 -30.7616,68.40295 -68.4029,68.40295 H 432.92382 c -37.64127,0 -68.40295,-30.76167 -68.40295,-68.40295 v 0 c 0,-37.64128 30.76168,-68.40295 68.40295,-68.40295 z m 0,-17.7887 H 1487.0762 c 47.371,0 86.1916,38.82064 86.1916,86.19165 v 0 c 0,47.37101 -38.8206,86.19165 -86.1916,86.19165 H 432.92382 c -47.371,0 -86.19164,-38.82064 -86.19164,-86.19165 v 0 c 0,-47.37101 38.82064,-86.19165 86.19164,-86.19165 z"
       style="clip-rule:evenodd;display:inline;fill:#868686;fill-opacity:0.2;fill-rule:evenodd;stroke-width:0.0982801;image-rendering:optimizeQuality;shape-rendering:geometricPrecision;text-rendering:geometricPrecision" />
    <g
       id="g-t-loading">
      <text
         id="t-loading-9"
         y="537.24579"
         x="681.20941"
         style="font-weight:bold;font-size:82.88040161px;font-family:sans-serif;clip-rule:evenodd;display:none;fill:#878787;fill-opacity:1;fill-rule:evenodd;stroke-width:0.120931;image-rendering:optimizeQuality;shape-rendering:geometricPrecision;text-rendering:geometricPrecision">UNLOADING</text>
      <text
         id="t-loading-8"
         y="537.24579"
         x="681.20941"
         style="font-weight:bold;font-size:82.88040161px;font-family:sans-serif;clip-rule:evenodd;display:none;fill:#878787;fill-opacity:1;fill-rule:evenodd;stroke-width:0.120931;image-rendering:optimizeQuality;shape-rendering:geometricPrecision;text-rendering:geometricPrecision">UNLOADIN</text>
      <text
         id="t-loading-7"
         y="537.24579"
         x="681.20941"
         style="font-weight:bold;font-size:82.88040161px;font-family:sans-serif;clip-rule:evenodd;display:none;fill:#878787;fill-opacity:1;fill-rule:evenodd;stroke-width:0.120931;image-rendering:optimizeQuality;shape-rendering:geometricPrecision;text-rendering:geometricPrecision">UNLOADI</text>
      <text
         id="t-loading-6"
         y="537.24579"
         x="681.20941"
         style="font-weight:bold;font-size:82.88040161px;font-family:sans-serif;clip-rule:evenodd;display:none;fill:#878787;fill-opacity:1;fill-rule:evenodd;stroke-width:0.120931;image-rendering:optimizeQuality;shape-rendering:geometricPrecision;text-rendering:geometricPrecision">UNLOAD</text>
      <text
         id="t-loading-5"
         y="537.24579"
         x="681.20941"
         style="font-weight:bold;font-size:82.88040161px;font-family:sans-serif;clip-rule:evenodd;display:none;fill:#878787;fill-opacity:1;fill-rule:evenodd;stroke-width:0.120931;image-rendering:optimizeQuality;shape-rendering:geometricPrecision;text-rendering:geometricPrecision">UNLOA</text>
      <text
         id="t-loading-4"
         y="537.24579"
         x="681.20941"
         style="font-weight:bold;font-size:82.88040161px;font-family:sans-serif;clip-rule:evenodd;display:none;fill:#878787;fill-opacity:1;fill-rule:evenodd;stroke-width:0.120931;image-rendering:optimizeQuality;shape-rendering:geometricPrecision;text-rendering:geometricPrecision">UNLO</text>
      <text
         id="t-loading-3"
         y="537.24579"
         x="681.20941"
         style="font-weight:bold;font-size:82.88040161px;font-family:sans-serif;clip-rule:evenodd;display:none;fill:#878787;fill-opacity:1;fill-rule:evenodd;stroke-width:0.120931;image-rendering:optimizeQuality;shape-rendering:geometricPrecision;text-rendering:geometricPrecision">UNL</text>
      <text
         id="t-loading-2"
         y="537.24579"
         x="681.20941"
         style="font-weight:bold;font-size:82.88040161px;font-family:sans-serif;clip-rule:evenodd;display:none;fill:#878787;fill-opacity:1;fill-rule:evenodd;stroke-width:0.120931;image-rendering:optimizeQuality;shape-rendering:geometricPrecision;text-rendering:geometricPrecision">UN</text>
      <text
         id="t-loading-1"
         y="537.24579"
         x="681.20941"
         style="font-weight:bold;font-size:82.88040161px;font-family:sans-serif;clip-rule:evenodd;display:none;fill:#878787;fill-opacity:1;fill-rule:evenodd;stroke-width:0.120931;image-rendering:optimizeQuality;shape-rendering:geometricPrecision;text-rendering:geometricPrecision">U</text>
    </g>
  </g>
</svg>
