<?xml version="1.0" encoding="UTF-8" standalone="no"?>
<!-- Created with Inkscape (http://www.inkscape.org/) -->

<svg
   xmlns:dc="http://purl.org/dc/elements/1.1/"
   xmlns:cc="http://creativecommons.org/ns#"
   xmlns:rdf="http://www.w3.org/1999/02/22-rdf-syntax-ns#"
   xmlns:svg="http://www.w3.org/2000/svg"
   xmlns="http://www.w3.org/2000/svg"
   xmlns:sodipodi="http://sodipodi.sourceforge.net/DTD/sodipodi-0.dtd"
   xmlns:inkscape="http://www.inkscape.org/namespaces/inkscape"
   width="1920"
   height="1080"
   viewBox="0 0 1920 1080"
   id="svg4632"
   version="1.1"
   inkscape:version="0.91 r13725"
   sodipodi:docname="notext.svg"
   inkscape:export-filename="/tmp/7/notext_hd.png"
   inkscape:export-xdpi="90"
   inkscape:export-ydpi="90">
  <defs
     id="defs4634" />
  <sodipodi:namedview
     id="base"
     pagecolor="#ffffff"
     bordercolor="#666666"
     borderopacity="1.0"
     inkscape:pageopacity="0"
     inkscape:pageshadow="2"
     inkscape:zoom="0.50749643"
     inkscape:cx="521.58561"
     inkscape:cy="559.37632"
     inkscape:document-units="px"
     inkscape:current-layer="layer1"
     showgrid="false"
     units="px"
     inkscape:window-width="1920"
     inkscape:window-height="1057"
     inkscape:window-x="0"
     inkscape:window-y="0"
     inkscape:window-maximized="0"
     showguides="true" />
  <metadata
     id="metadata4637">
    <rdf:RDF>
      <cc:Work
         rdf:about="">
        <dc:format>image/svg+xml</dc:format>
        <dc:type
           rdf:resource="http://purl.org/dc/dcmitype/StillImage" />
        <dc:title />
      </cc:Work>
    </rdf:RDF>
  </metadata>
  <g
     inkscape:label="Layer 1"
     inkscape:groupmode="layer"
     id="layer1"
     transform="translate(0,27.637471)"
     style="opacity:1">
    <g
       transform="matrix(0.5709157,0,0,0.5709157,1718.9636,-55.812264)"
       id="g4148"
       style="opacity:0.7">
      <path
         id="cccamp_signet"
         d="m 92.381,212.492 c -0.5,-1.119 -0.956,-2.262 -1.519,-3.349 -0.324,-0.629 -0.386,-1.182 0.331,-1.37 0.321,-0.086 1.008,0.265 1.147,0.584 1.356,3.122 2.792,6.225 3.874,9.443 0.712,2.121 2.121,2.595 3.981,2.56 3.809,-0.069 7.615,-0.233 11.423,-0.285 8.203,-0.114 16.404,-0.228 24.608,-0.246 3.021,-0.008 6.044,0.191 9.06,0.401 5.735,0.398 11.468,0.864 17.198,1.323 1.535,0.124 3.082,0.229 4.589,0.518 1.785,0.341 2.759,-0.645 3.414,-1.979 1.075,-2.18 1.972,-4.445 2.972,-6.661 0.163,-0.362 0.472,-0.661 0.714,-0.989 0.239,0.359 0.486,0.716 0.718,1.08 0.074,0.112 0.117,0.246 0.197,0.418 0.142,-0.07 0.315,-0.096 0.354,-0.185 0.338,-0.721 0.543,-1.918 1.519,-1.572 1.01,0.357 1.958,1.204 2.618,2.075 0.271,0.362 -0.164,1.413 -0.497,2.031 -0.751,1.396 -1.689,2.69 -2.457,4.077 -0.47,0.854 -1.317,1.663 0.17,2.667 0.77,0.521 0.831,1.997 1.406,2.919 2.083,3.348 4.225,6.659 6.393,9.952 1.602,2.434 3.34,4.782 4.9,7.241 0.993,1.562 1.756,3.269 2.651,4.895 0.249,0.451 0.525,0.955 0.926,1.245 1.673,1.213 2.35,2.962 2.925,4.841 0.177,0.576 1.008,0.919 1.348,1.482 1.39,2.313 2.704,4.668 4.051,7.007 0.19,0.332 0.347,0.874 0.616,0.944 2.658,0.702 2.797,3.296 3.578,5.153 2.035,4.822 3.621,9.833 5.445,14.746 0.582,1.57 1.283,3.104 2.066,4.584 0.208,0.391 0.909,0.736 1.386,0.733 3.601,-0.01 7.199,-0.142 10.804,-0.162 0.521,-0.002 1.051,0.384 1.576,0.591 -0.488,0.389 -0.982,1.11 -1.466,1.104 -1.131,-0.015 -1.153,0.446 -1.114,1.349 0.088,1.989 -0.863,2.674 -2.8,2.395 -1.325,-0.191 -2.688,-0.147 -4.034,-0.165 -1.344,-0.015 -1.506,1.25 -1.974,2.052 -1.269,2.195 -2.328,4.512 -3.587,6.711 -1.961,3.424 -3.977,6.816 -6.043,10.182 -2.293,3.725 -4.648,7.412 -7.021,11.092 -5.234,8.121 -10.472,16.236 -15.749,24.33 -2.078,3.187 -4.155,6.387 -6.441,9.42 -1.166,1.551 -0.883,2.813 -0.24,4.361 1.526,3.666 2.979,7.362 4.345,11.094 0.195,0.531 -0.053,1.67 -0.45,1.891 -0.868,0.479 -1.958,0.587 -2.971,0.748 -0.116,0.018 -0.384,-0.588 -0.494,-0.934 -0.685,-2.127 -1.32,-4.271 -2.017,-6.396 -0.446,-1.359 -0.959,-2.7 -1.458,-4.045 -0.152,-0.403 -0.332,-1.118 -0.541,-1.135 -2.201,-0.164 -2.9,-2.803 -5.17,-2.946 -4.422,-0.278 -8.827,-0.95 -13.251,-1.104 -4.229,-0.145 -8.483,0.035 -12.71,0.305 -8.591,0.552 -17.168,1.242 -25.752,1.904 -3.596,0.276 -7.183,0.657 -10.779,0.926 -2.536,0.187 -5.08,0.236 -7.617,0.41 -0.363,0.025 -0.867,0.334 -1.025,0.65 -1.391,2.799 -2.759,5.605 -4.048,8.449 -0.859,1.895 -1.41,2.367 -3.239,1.753 -0.863,-0.291 -0.984,0.04 -1.419,0.542 -0.553,0.641 -1.323,1.089 -2,1.621 -0.186,-0.252 -0.572,-0.564 -0.519,-0.744 0.163,-0.545 0.499,-1.033 0.764,-1.545 0.132,-0.254 0.425,-0.564 0.362,-0.762 -0.586,-1.83 0.862,-2.902 1.579,-4.207 1.438,-2.609 3.032,-5.133 4.497,-7.729 0.203,-0.36 0.21,-1.062 -0.011,-1.396 -0.841,-1.264 -1.414,-2.654 -2.117,-3.977 -3.676,-6.926 -7.586,-13.729 -11.412,-20.574 -0.376,-0.672 -0.686,-1.324 -1.72,-1.076 -0.303,0.072 -0.92,-0.385 -1.109,-0.748 -1.954,-3.742 -3.894,-7.5 -5.755,-11.291 -4.071,-8.297 -8.554,-16.356 -13.555,-24.131 -1.513,-2.353 -3.534,-3.78 -6.452,-3.467 -2.042,0.223 -4.071,0.646 -6.115,0.764 -0.677,0.037 -1.642,-0.428 -2.022,-0.977 -0.414,-0.596 -0.493,-1.594 -0.352,-2.347 0.104,-0.556 0.459,-0.903 -0.219,-1.327 -0.238,-0.148 -0.263,-0.641 -0.384,-0.977 0.301,-0.062 0.603,-0.187 0.903,-0.186 1.505,0.01 3.017,-0.012 4.516,0.104 0.85,0.066 1.68,0.396 2.527,0.562 1.923,0.383 3.846,0.77 5.782,1.069 0.326,0.05 0.85,-0.229 1.059,-0.521 1.041,-1.442 2.019,-2.937 2.993,-4.427 0.456,-0.7 0.644,-1.269 -0.337,-1.877 -0.919,-0.571 -1.15,-1.549 -0.527,-2.64 1.162,-2.033 2.158,-4.164 3.373,-6.161 4.419,-7.273 8.807,-14.568 13.402,-21.728 2.046,-3.185 4.653,-6.003 6.837,-9.107 2.848,-4.052 5.508,-8.234 8.292,-12.33 1.352,-1.991 2.781,-3.933 4.221,-5.862 0.782,-1.043 0.909,-1.772 -0.456,-2.489 -0.769,-0.401 -1.437,-1.146 -1.935,-1.879 -1.188,-1.751 -2.243,-3.594 -3.362,-5.393 -0.668,-1.073 -1.178,-1.943 -0.027,-3.23 1.311,-1.459 1.958,-1.764 3.859,-0.67 z m 80.656,15.522 c -8.316,13.671 -16.526,27.158 -24.734,40.648 0.146,0.094 0.291,0.19 0.437,0.284 1.078,-1.407 2.144,-2.823 3.243,-4.214 0.257,-0.327 0.697,-0.849 0.929,-0.792 1.188,0.295 1.604,-0.62 2.211,-1.237 0.505,-0.512 0.943,-1.09 1.469,-1.582 0.215,-0.204 0.575,-0.256 0.87,-0.377 0.047,0.357 0.153,0.722 0.116,1.07 -0.021,0.2 -0.269,0.377 -0.424,0.559 -2.952,3.423 -5.738,7.01 -8.897,10.231 -4.077,4.156 -7.771,8.529 -10.322,13.8 -0.549,1.136 0.274,4.478 1.369,5.119 0.179,0.106 0.463,0.069 0.694,0.049 6.025,-0.518 12.051,-0.997 18.069,-1.579 5.838,-0.562 11.664,-1.238 17.501,-1.832 0.417,-0.043 0.862,0.174 1.297,0.271 -0.368,0.449 -0.65,1.076 -1.124,1.298 -0.627,0.299 -1.404,0.29 -2.119,0.396 -1.947,0.289 -3.895,0.565 -5.843,0.849 0.008,0.122 0.019,0.245 0.028,0.366 0.365,0.062 0.73,0.183 1.094,0.181 3.134,-0.021 6.271,-0.11 9.405,-0.088 3.28,0.028 6.56,0.26 9.837,0.21 3.12,-0.047 6.238,-0.312 9.352,-0.531 3.826,-0.27 7.648,-0.572 11.465,-0.925 0.262,-0.024 0.744,-0.735 0.664,-0.894 -0.47,-0.936 -0.887,-2.164 -1.688,-2.582 -0.854,-0.445 -0.961,-1.06 -1.272,-1.701 -0.475,-0.985 -0.881,-2.014 -1.451,-2.94 -1.086,-1.757 -2.354,-3.405 -3.395,-5.188 -3.238,-5.551 -6.385,-11.158 -9.608,-16.717 -2.46,-4.245 -4.962,-8.463 -7.486,-12.669 -3.09,-5.152 -6.229,-10.274 -9.335,-15.417 -0.79,-1.308 -1.53,-2.642 -2.352,-4.066 z M 87.813,292.84 c 0,-0.108 -0.001,-0.215 -0.001,-0.322 -0.396,-0.04 -0.79,-0.107 -1.186,-0.117 -3.17,-0.1 -6.34,-0.175 -9.509,-0.291 -0.515,-0.02 -1.044,-0.148 -1.526,-0.333 -0.171,-0.067 -0.346,-0.485 -0.291,-0.678 0.057,-0.188 0.39,-0.397 0.618,-0.416 1.086,-0.089 2.178,-0.151 3.271,-0.161 2.64,-0.021 5.282,-0.021 7.922,-0.011 9.294,0.032 18.59,0.032 27.883,0.128 4.854,0.048 9.707,0.277 14.563,0.41 2.201,0.061 3.771,-2.619 2.702,-4.605 -0.57,-1.056 -1.19,-2.087 -1.782,-3.132 -1.844,-3.267 -3.607,-6.582 -5.539,-9.792 -4.962,-8.246 -10.029,-16.429 -14.992,-24.673 -3.354,-5.571 -6.597,-11.208 -9.917,-16.796 -0.397,-0.667 -0.978,-1.227 -1.475,-1.837 -0.45,0.672 -0.943,1.317 -1.326,2.022 -0.154,0.282 -0.042,0.701 -0.092,1.049 -0.073,0.483 -0.062,1.042 -0.308,1.428 -0.671,1.051 -1.539,1.983 -2.19,3.047 -3.184,5.208 -6.348,10.426 -9.467,15.671 -1.79,3.008 -3.576,6.03 -5.182,9.139 -1.032,1.996 -1.247,2.168 -3.208,0.98 -0.225,-0.136 -0.886,0.009 -1.014,0.221 -3.286,5.549 -6.517,11.133 -9.785,16.692 -1.949,3.315 -3.944,6.609 -5.917,9.916 -0.233,0.389 -0.443,0.793 -0.663,1.189 0.452,0.139 0.894,0.355 1.354,0.401 4.056,0.385 8.106,0.894 12.171,1.055 4.211,0.17 8.438,0.004 12.657,-0.032 0.742,-0.003 1.485,-0.097 2.229,-0.152 z m 81.561,62.276 c -2.399,-4.691 -4.423,-8.978 -6.744,-13.1 -2.665,-4.732 -5.728,-9.247 -8.361,-13.999 -2.325,-4.192 -4.264,-8.599 -6.432,-12.882 -1.649,-3.26 -3.343,-6.499 -5.106,-9.7 -1.289,-2.341 -2.992,-4.485 -4.018,-6.927 -0.985,-2.352 -2.241,-3.401 -4.813,-2.979 -0.938,0.153 -1.573,0.275 -2.02,1.214 -1.442,3.019 -2.922,6.022 -4.49,8.979 -2.268,4.283 -4.754,8.455 -6.917,12.79 -3.407,6.829 -6.464,13.841 -9.975,20.61 -2.608,5.035 -5.694,9.821 -8.585,14.709 -0.354,0.602 -0.405,1.021 0.412,1.094 2.394,0.211 4.79,0.408 7.188,0.564 0.315,0.016 0.874,-0.188 0.936,-0.396 0.303,-1.025 1.038,-1.121 1.915,-1.147 1.252,-0.03 2.502,-0.149 3.754,-0.218 6.039,-0.314 12.083,0.324 18.144,-0.523 2.718,-0.382 5.622,-0.354 8.495,0.371 3.139,0.791 6.452,0.979 9.706,1.209 3.479,0.245 6.98,0.252 10.472,0.323 2.009,0.043 4.021,0.008 6.439,0.008 z m 11.589,-14.549 c -0.865,0 -1.38,0 -1.895,0 0.251,-0.456 0.436,-0.971 0.766,-1.363 2.149,-2.562 4.36,-5.076 6.493,-7.648 1.741,-2.102 3.602,-4.143 5.059,-6.434 2.381,-3.74 4.483,-7.66 6.692,-11.509 1.925,-3.354 3.911,-6.68 5.732,-10.092 1.377,-2.579 2.475,-5.306 3.822,-7.901 0.601,-1.152 0.18,-1.229 -0.788,-1.158 -2.593,0.201 -5.185,0.508 -7.779,0.547 -5.929,0.09 -11.86,0.02 -17.79,0.05 -12.786,0.067 -25.569,0.157 -38.353,0.241 -1.664,0.013 -1.701,0.093 -0.89,1.558 2.633,4.745 5.342,9.449 7.861,14.252 2.143,4.084 3.892,8.38 6.129,12.402 2.626,4.725 5.735,9.181 8.377,13.896 2.599,4.639 4.866,9.459 7.3,14.188 0.204,0.396 0.572,0.705 0.863,1.054 0.286,-0.312 0.625,-0.589 0.85,-0.94 1.156,-1.795 2.233,-3.644 3.431,-5.41 1.311,-1.938 2.724,-3.8 4.12,-5.733 z m -45.675,-56.572 c 0.481,-1.009 0.841,-1.939 1.344,-2.789 2.138,-3.582 4.331,-7.129 6.478,-10.705 1.609,-2.675 3.208,-5.359 4.76,-8.075 1.712,-2.994 3.276,-6.079 5.068,-9.023 2.619,-4.306 5.42,-8.499 8.073,-12.784 1.596,-2.572 3.067,-5.221 4.577,-7.848 1.33,-2.311 2.635,-4.636 4.125,-7.259 -4.001,-0.353 -7.585,-0.647 -11.163,-0.998 -0.992,-0.096 -1.888,-0.289 -2.381,0.938 -0.117,0.292 -0.703,0.508 -1.099,0.56 -1.194,0.15 -2.398,0.271 -3.6,0.284 -3.475,0.037 -6.952,-0.046 -10.425,0.049 -1.146,0.032 -2.443,0.194 -3.379,0.771 -1.203,0.738 -2.32,0.563 -3.527,0.474 -3.22,-0.24 -6.439,-0.631 -9.66,-0.654 -4.964,-0.039 -9.931,0.142 -14.893,0.302 -2.615,0.088 -5.224,0.331 -7.979,0.512 11.273,18.827 22.437,37.467 33.681,56.245 z M 63.72,295.903 c 0.173,0.348 0.259,0.559 0.378,0.754 2.756,4.518 5.582,8.994 8.255,13.561 2.38,4.062 4.576,8.232 6.888,12.337 1.358,2.409 2.855,4.741 4.17,7.173 2.118,3.915 4.176,7.863 6.181,11.839 0.906,1.795 1.691,3.66 2.384,5.546 0.198,0.537 -0.132,1.262 -0.193,1.898 -0.041,0.439 -0.217,0.998 -0.019,1.3 1.336,2.052 2.756,4.05 4.227,6.183 0.436,-0.582 0.854,-1.043 1.162,-1.57 0.644,-1.109 1.188,-2.278 1.85,-3.379 1.989,-3.301 4.079,-6.543 6.01,-9.877 1.52,-2.629 2.903,-5.344 4.272,-8.057 1.46,-2.889 2.848,-5.814 4.239,-8.736 1.208,-2.539 2.307,-5.137 3.583,-7.64 1.6,-3.14 3.334,-6.211 4.999,-9.315 0.124,-0.231 0.141,-0.521 0.208,-0.785 -0.114,-0.057 -0.229,-0.111 -0.343,-0.168 -1.652,2.875 -3.303,5.75 -4.984,8.674 -0.395,-0.287 -0.659,-1.381 -1.407,-0.305 -0.128,0.183 -0.678,0.069 -1.034,0.097 0.021,-0.341 -0.076,-0.757 0.083,-1.015 0.936,-1.506 1.945,-2.971 2.908,-4.459 2.892,-4.476 5.764,-8.961 8.668,-13.43 0.507,-0.781 0.358,-1.086 -0.553,-1.143 -2.07,-0.127 -4.135,-0.404 -6.202,-0.397 -7.273,0.024 -14.552,-0.008 -21.815,0.291 -3.976,0.166 -7.916,1.235 -11.892,1.394 -5.133,0.209 -10.285,-0.039 -15.426,-0.187 -2.145,-0.067 -4.282,-0.371 -6.597,-0.584 z"
         inkscape:connector-curvature="0"
         style="" />
      <path
         id="campfire"
         d="m 305.654,138.834 c 1.916,-0.462 3.096,-0.745 4.275,-1.028 -0.043,-0.265 -0.088,-0.526 -0.131,-0.788 -0.68,-0.176 -1.363,-0.353 -2.514,-0.651 0.145,-0.232 0.293,-0.462 0.438,-0.695 -0.904,-0.51 -1.82,-1.002 -2.748,-1.48 -0.168,0.255 -0.334,0.506 -0.486,0.736 -1.283,-0.757 -2.484,-1.469 -3.686,-2.176 -0.207,0.276 -0.414,0.558 -0.619,0.833 0.455,0.961 0.912,1.921 1.613,3.394 -13.353,-0.378 -26.346,-0.793 -39.34,-1.106 -12.44,-0.3 -24.934,1.722 -37.306,-0.07 -1.122,0.638 -2.228,1.299 -3.315,1.986 0.365,0.924 0.729,1.842 1.207,3.059 -1.742,2.326 -3.803,4.616 -5.336,7.217 -3.397,5.744 -6.504,11.658 -9.777,17.476 -2.395,4.256 -5.273,8.291 -7.215,12.74 -3.583,8.202 -8.021,15.857 -13.427,22.937 -1.08,1.416 -2.672,2.448 -4.502,3.804 -0.018,0 -0.036,0 -0.054,0 -0.048,1.107 -0.078,2.218 -0.084,3.337 5.364,9.399 11.382,19.2 18.532,28.25 0.832,3.045 1.932,5.964 3.226,8.793 2.79,6.095 6.757,11.523 12.056,15.438 4.672,3.455 6.641,8.192 8.961,12.458 -0.573,1.572 -1.059,2.898 -1.526,4.186 -0.545,0.68 -1.164,1.492 -1.854,2.436 1.045,0.652 2.104,1.283 3.18,1.894 1.164,0.302 1.898,0.493 2.357,0.618 0.385,-1.887 0.723,-3.537 1.055,-5.152 1.701,-0.628 3.519,-0.115 5.188,0.946 1.784,-0.542 2.87,-1.149 3.959,-1.157 6.473,-0.023 12.953,0.35 19.412,0.107 15.826,-0.576 31.484,1.009 47.256,2.975 0.551,0.831 1.129,1.676 1.678,2.532 0.02,0.03 0.035,0.06 0.055,0.088 1.41,-0.757 2.795,-1.55 4.154,-2.384 -0.998,-1.737 -2,-3.477 -2.996,-5.213 2.117,-2.883 4.357,-5.626 6.254,-8.591 3.17,-4.958 5.883,-10.222 9.223,-15.058 5.49,-7.954 11.348,-15.658 17,-23.504 0.533,-0.743 0.701,-1.754 1.277,-3.261 -1.619,0.575 -2.381,0.848 -3.963,1.409 3.32,-5.856 6.271,-11.068 9.48,-16.728 1.488,1.034 2.645,1.834 3.777,2.62 0.041,-1.086 0.082,-2.172 0.082,-3.268 0,-0.596 -0.031,-1.182 -0.045,-1.773 -0.18,0.029 -0.354,0.062 -0.537,0.091 -10.799,-24.827 -29.232,-45.255 -44.234,-68.277 z m 39.928,68.627 c -1.629,-0.374 -3.18,-0.738 -4.73,-1.098 -0.344,0.447 -0.688,0.89 -1.029,1.336 1.182,0.695 2.361,1.388 3.695,2.172 -4.057,7.475 -8.061,14.855 -12.297,22.666 -0.328,-1.046 -0.523,-1.672 -0.84,-2.669 -9.068,14.677 -17.977,29.088 -27.252,44.101 -4.076,0.271 -8.248,0.553 -12.42,0.832 0.062,-0.41 0.129,-0.818 0.191,-1.233 -1.516,-0.524 -3.038,-1.528 -4.546,-1.508 -15.499,0.205 -30.998,0.578 -46.498,0.897 -1.969,0.037 -3.94,0.004 -6.083,0.004 -0.531,0.438 -1.174,0.967 -1.898,1.563 -1.088,-0.166 -2.172,-0.331 -2.52,-0.385 -4.296,-6.846 -8.27,-13.18 -12.299,-19.606 0.389,-0.659 0.804,-1.361 1.398,-2.366 -2.216,-2.48 -4.33,-5.037 -6.642,-7.399 -6.842,-6.992 -12.035,-15.021 -15.907,-24.001 -0.946,-2.194 -2.934,-3.942 -4.528,-6.007 0.645,-0.132 1.411,-0.289 2.174,-0.45 0.048,-0.193 0.095,-0.383 0.142,-0.577 -1.048,-0.31 -2.096,-0.62 -3.483,-1.028 -1.008,-1.471 -2.177,-3.182 -3.457,-5.051 2.954,-4.084 6.007,-7.708 8.392,-11.725 7.034,-11.847 13.795,-23.858 20.688,-35.789 0.938,-1.628 2.188,-3.1 2.98,-4.789 0.701,-1.495 0.971,-3.193 1.428,-4.798 -0.279,-0.115 -0.562,-0.229 -0.844,-0.341 1.932,-3.219 3.384,-6.911 5.956,-9.489 1.806,-1.81 5.134,-2.094 7.622,-3.003 3.386,3.48 6.893,1.992 10.471,1.521 0.193,0.569 0.396,1.156 0.828,2.418 3.303,-0.239 6.75,-0.603 10.205,-0.712 7.186,-0.231 14.382,-0.184 21.562,-0.54 3.318,-0.166 6.604,-1.036 9.916,-1.524 1.258,-0.186 2.547,-0.311 3.813,-0.272 3.505,0.105 7.007,0.313 11.071,0.506 5.92,2.617 7.814,9.354 11.66,14.385 7.1,9.291 14.062,18.715 20.535,28.448 4.924,7.4 9.002,15.367 13.559,23.256 -0.365,0.818 -0.637,1.42 -1.013,2.255 z m -90.709,12.089 -15.779,0 0,-7.909 23.691,0 0.012,-0.015 0.016,0.015 2.598,0 0.094,0 2.472,0 0.014,-0.015 0.015,0.015 23.813,0 0,7.909 -15.903,0 10.748,10.749 -5.595,5.593 -11.597,-11.592 0,13.85 -7.908,0 0,-14.103 -11.846,11.845 -5.594,-5.593 10.749,-10.749 z m -5.102,-26.594 c 0,-12.495 15.635,-25.644 15.635,-25.644 0,0 15.635,12.974 15.635,25.644 0,8.635 -7,15.634 -15.635,15.634 -8.635,0 -15.635,-6.999 -15.635,-15.634 z m 8.172,0.904 c 0,4.118 3.319,7.458 7.414,7.458 4.098,0 7.416,-3.339 7.416,-7.458 0,-6.045 -7.354,-13.792 -7.354,-13.792 0,0 -7.476,7.831 -7.476,13.792 z"
         inkscape:connector-curvature="0"
         style="" />
      <polygon
         id="tent_1"
         points="215.005,128.921 173.939,200.05 91.807,200.049 50.74,128.921 91.806,57.792 173.939,57.792 "
         style="fill:#7b992a" />
      <path
         id="tent_2"
         stroke-miterlimit="10"
         d="M 175.666,54.801 90.08,203.04 m 85.586,0 L 90.079,54.801 m -42.793,74.12 171.174,0"
         inkscape:connector-curvature="0"
         style="fill:none;stroke:#698423;stroke-width:3.69370008;stroke-linecap:round;stroke-miterlimit:10" />
      <path
         id="icon_laptop"
         d="m 166.661,144.982 -10.029,-17.871 0,-25.105 -8.4,0 0,0.013 -30.519,0 0,-0.013 -8.398,0 0,25.105 0.025,0 0,0.075 -10.311,17.756 0.001,0.041 -0.012,0 0,8.324 67.709,0 0,-8.324 -0.066,-0.001 0,0 z m -18.429,-34.639 0,16.505 -30.519,0 0,-16.505 30.519,0 z m -33.803,24.829 36.851,0 5.683,9.81 -48.231,0 5.697,-9.81 z"
         inkscape:connector-curvature="0"
         style="fill:#ffffff" />
    </g>
  </g>
</svg>
