<?xml version="1.0" encoding="UTF-8" standalone="no"?>
<!-- Created with Inkscape (http://www.inkscape.org/) -->

<svg
   xmlns:dc="http://purl.org/dc/elements/1.1/"
   xmlns:cc="http://creativecommons.org/ns#"
   xmlns:rdf="http://www.w3.org/1999/02/22-rdf-syntax-ns#"
   xmlns:svg="http://www.w3.org/2000/svg"
   xmlns="http://www.w3.org/2000/svg"
   xmlns:sodipodi="http://sodipodi.sourceforge.net/DTD/sodipodi-0.dtd"
   xmlns:inkscape="http://www.inkscape.org/namespaces/inkscape"
   width="1920"
   height="1080"
   viewBox="0 0 1920 1080"
   id="svg4632"
   version="1.1"
   inkscape:version="0.91 r13725"
   sodipodi:docname="project2501.svg"
   inkscape:export-filename="/tmp/7/s1_hd.png"
   inkscape:export-xdpi="90"
   inkscape:export-ydpi="90">
  <defs
     id="defs4634" />
  <sodipodi:namedview
     id="base"
     pagecolor="#ffffff"
     bordercolor="#666666"
     borderopacity="0"
     inkscape:pageopacity="0"
     inkscape:pageshadow="2"
     inkscape:zoom="1.3114583"
     inkscape:cx="1828.9505"
     inkscape:cy="815.43867"
     inkscape:document-units="px"
     inkscape:current-layer="layer1"
     showgrid="false"
     units="px"
     inkscape:window-width="1920"
     inkscape:window-height="1057"
     inkscape:window-x="0"
     inkscape:window-y="0"
     inkscape:window-maximized="0" />
  <metadata
     id="metadata4637">
    <rdf:RDF>
      <cc:Work
         rdf:about="">
        <dc:format>image/svg+xml</dc:format>
        <dc:type
           rdf:resource="http://purl.org/dc/dcmitype/StillImage" />
        <dc:title></dc:title>
      </cc:Work>
    </rdf:RDF>
  </metadata>
  <g
     inkscape:label="Layer 1"
     inkscape:groupmode="layer"
     id="layer1"
     transform="translate(0,27.637471)"
     style="opacity:0.7">
    <g
       id="g4148"
       style="opacity:1">
      <text
         transform="scale(1.0000028,0.99999722)"
         sodipodi:linespacing="125%"
         id="text4155"
         y="189.34192"
         x="1707.4474"
         style="font-style:normal;font-variant:normal;font-weight:600;font-stretch:normal;font-size:35px;line-height:125%;font-family:Neris;-inkscape-font-specification:'Neris, Semi-Bold';text-align:start;letter-spacing:0px;word-spacing:0px;writing-mode:lr-tb;text-anchor:start;fill:#000000;fill-opacity:1;stroke:none;stroke-width:1;stroke-linecap:butt;stroke-linejoin:miter;stroke-miterlimit:4;stroke-dasharray:none;stroke-opacity:1"
         xml:space="preserve"><tspan
           style="font-style:normal;font-variant:normal;font-weight:600;font-stretch:normal;font-size:35px;line-height:125%;font-family:Neris;-inkscape-font-specification:'Neris, Semi-Bold';text-align:start;writing-mode:lr-tb;text-anchor:start;fill:#000000;fill-opacity:1;stroke-width:1;stroke-miterlimit:4;stroke-dasharray:none"
           y="189.34192"
           x="1707.4474"
           id="tspan4157"
           sodipodi:role="line">Project 2501</tspan></text>
      <path
         id="cccamp_signet"
         d="m 1771.7054,65.502755 c -0.2855,-0.638855 -0.5458,-1.291411 -0.8673,-1.911997 -0.1849,-0.359106 -0.2203,-0.674822 0.189,-0.782154 0.1833,-0.0491 0.5755,0.151292 0.6549,0.333415 0.7741,1.782398 1.594,3.55395 2.2117,5.391156 0.4065,1.210913 1.2109,1.481527 2.2728,1.461545 2.1746,-0.03939 4.3475,-0.133024 6.5216,-0.162711 4.6832,-0.06508 9.3653,-0.130169 14.0491,-0.140446 1.7247,-0.0046 3.4506,0.109045 5.1725,0.228938 3.2742,0.227224 6.5472,0.493271 9.8186,0.755321 0.8763,0.07079 1.7595,0.13074 2.6199,0.295734 1.0191,0.194683 1.5752,-0.36824 1.9491,-1.129842 0.6137,-1.244596 1.1259,-2.53772 1.6968,-3.802869 0.093,-0.206672 0.2694,-0.377376 0.4076,-0.564636 0.1364,0.204959 0.2775,0.408776 0.4099,0.616589 0.042,0.06394 0.067,0.140445 0.1125,0.238643 0.081,-0.03996 0.1798,-0.05481 0.2021,-0.10562 0.193,-0.41163 0.31,-1.095016 0.8672,-0.897479 0.5766,0.203817 1.1179,0.687382 1.4947,1.18465 0.1547,0.206672 -0.094,0.806704 -0.2838,1.15953 -0.4287,0.796998 -0.9643,1.535763 -1.4027,2.327623 -0.2683,0.487562 -0.7519,0.949433 0.097,1.522632 0.4396,0.297447 0.4745,1.140119 0.8027,1.666503 1.1893,1.911426 2.4122,3.801728 3.6499,5.681753 0.9146,1.389609 1.9069,2.730119 2.7975,4.134001 0.5669,0.89177 1.0025,1.866323 1.5135,2.794632 0.1422,0.257483 0.2997,0.545225 0.5287,0.71079 0.9551,0.692521 1.3416,1.691053 1.6699,2.763803 0.101,0.328848 0.5755,0.524672 0.7696,0.846097 0.7936,1.320528 1.5437,2.665035 2.3128,4.000407 0.1084,0.189544 0.1981,0.49898 0.3517,0.538944 1.5174,0.400783 1.5968,1.881738 2.0427,2.941929 1.1618,2.752954 2.0673,5.613814 3.1086,8.418724 0.3323,0.89634 0.7325,1.77212 1.1795,2.61708 0.1188,0.22322 0.519,0.42019 0.7913,0.41848 2.0559,-0.006 4.11,-0.0811 6.1682,-0.0925 0.2974,-0.001 0.6,0.21923 0.8998,0.33741 -0.2786,0.22209 -0.5607,0.63372 -0.837,0.63029 -0.6457,-0.009 -0.6583,0.25463 -0.636,0.77017 0.05,1.13555 -0.4927,1.52662 -1.5986,1.36734 -0.7564,-0.10905 -1.5346,-0.0839 -2.303,-0.0942 -0.7673,-0.009 -0.8598,0.71364 -1.127,1.17152 -0.7245,1.25316 -1.3291,2.57597 -2.0479,3.83141 -1.1196,1.95482 -2.2705,3.89136 -3.45,5.81307 -1.3092,2.12666 -2.6537,4.23162 -4.0084,6.33259 -2.9882,4.63641 -5.9787,9.26939 -8.9914,13.89038 -1.1864,1.81951 -2.3722,3.64644 -3.6773,5.37803 -0.6657,0.88549 -0.5041,1.60598 -0.137,2.48976 0.8712,2.09298 1.7008,4.20308 2.4806,6.33374 0.1114,0.30316 -0.03,0.95343 -0.2569,1.0796 -0.4955,0.27347 -1.1178,0.33513 -1.6962,0.42705 -0.066,0.0103 -0.2192,-0.3357 -0.282,-0.53324 -0.3911,-1.21434 -0.7536,-2.43838 -1.1515,-3.65158 -0.2547,-0.77587 -0.5475,-1.54147 -0.8324,-2.30935 -0.087,-0.23008 -0.1896,-0.63828 -0.3089,-0.64799 -1.2566,-0.0936 -1.6556,-1.60028 -2.9516,-1.68192 -2.5246,-0.15871 -5.0395,-0.54237 -7.5652,-0.63029 -2.4144,-0.0828 -4.8431,0.02 -7.2564,0.17413 -4.9047,0.31515 -9.8014,0.70908 -14.7022,1.08703 -2.053,0.15757 -4.1009,0.37509 -6.1539,0.52866 -1.4478,0.10676 -2.9002,0.13474 -4.3486,0.23408 -0.2073,0.0143 -0.495,0.19068 -0.5852,0.37109 -0.7942,1.598 -1.5752,3.19999 -2.3111,4.82367 -0.4904,1.08189 -0.805,1.35136 -1.8492,1.00082 -0.4927,-0.16614 -0.5618,0.0228 -0.8101,0.30943 -0.3157,0.36596 -0.7554,0.62173 -1.1419,0.92546 -0.1062,-0.14387 -0.3265,-0.322 -0.2963,-0.42476 0.093,-0.31115 0.2849,-0.58976 0.4362,-0.88207 0.075,-0.14501 0.2427,-0.322 0.2067,-0.43504 -0.3346,-1.04477 0.4921,-1.65679 0.9015,-2.40184 0.8209,-1.48952 1.731,-2.93051 2.5674,-4.41261 0.1159,-0.20553 0.1199,-0.60631 -0.01,-0.797 -0.4802,-0.72163 -0.8073,-1.51521 -1.2086,-2.27053 -2.0987,-3.95416 -4.331,-7.8381 -6.5153,-11.74602 -0.2147,-0.38365 -0.3917,-0.75589 -0.982,-0.6143 -0.173,0.0411 -0.5252,-0.2198 -0.6332,-0.42705 -1.1155,-2.13636 -2.2231,-4.28186 -3.2856,-6.44621 -2.3242,-4.73688 -4.8836,-9.33789 -7.7387,-13.77676 -0.8638,-1.34337 -2.0176,-2.15806 -3.6836,-1.97937 -1.1658,0.12732 -2.3242,0.36881 -3.4911,0.43618 -0.3865,0.0211 -0.9375,-0.24435 -1.1544,-0.55778 -0.2364,-0.34027 -0.2815,-0.91004 -0.201,-1.33994 0.059,-0.31743 0.2621,-0.51554 -0.125,-0.75761 -0.1359,-0.0845 -0.1502,-0.36595 -0.2192,-0.55778 0.1718,-0.0354 0.3442,-0.10676 0.5155,-0.10619 0.8592,0.006 1.7224,-0.007 2.5782,0.0594 0.4853,0.0377 0.9592,0.22609 1.4427,0.32086 1.0979,0.21866 2.1958,0.4396 3.3011,0.61031 0.1861,0.0285 0.4853,-0.13074 0.6046,-0.29745 0.5943,-0.82326 1.1527,-1.67678 1.7087,-2.52744 0.2604,-0.39964 0.3677,-0.7245 -0.1924,-1.07161 -0.5246,-0.326 -0.6565,-0.88435 -0.3008,-1.50722 0.6634,-1.16067 1.232,-2.37729 1.9257,-3.51741 2.5228,-4.152272 5.028,-8.317102 7.6514,-12.404858 1.1681,-1.818367 2.6564,-3.427207 3.9033,-5.199329 1.626,-2.313351 3.1446,-4.70092 4.7341,-7.039391 0.7718,-1.136693 1.5877,-2.245411 2.4098,-3.346708 0.4464,-0.595465 0.519,-1.011662 -0.2603,-1.421009 -0.4391,-0.228937 -0.8205,-0.654269 -1.1048,-1.07275 -0.6782,-0.999674 -1.2805,-2.051872 -1.9194,-3.078949 -0.3814,-0.612592 -0.6725,-1.109289 -0.015,-1.844058 0.7485,-0.832966 1.1179,-1.007095 2.2032,-0.382513 z m 46.0477,8.861753 c -4.7477,7.804989 -9.4349,15.504929 -14.121,23.206582 0.083,0.05367 0.1661,0.108474 0.2495,0.16214 0.6154,-0.803279 1.224,-1.611695 1.8515,-2.405839 0.1467,-0.186689 0.3979,-0.484707 0.5304,-0.452165 0.6782,0.16842 0.9157,-0.353968 1.2623,-0.706223 0.2883,-0.292309 0.5383,-0.622298 0.8386,-0.903189 0.1228,-0.116466 0.3283,-0.146154 0.4967,-0.215235 0.027,0.203817 0.087,0.412201 0.066,0.61088 -0.012,0.114183 -0.1536,0.215235 -0.2421,0.319142 -1.6854,1.954244 -3.2759,4.002119 -5.0795,5.841038 -2.3276,2.372731 -4.4365,4.869341 -5.8929,7.878641 -0.3135,0.64856 0.1564,2.55656 0.7815,2.92251 0.1022,0.0605 0.2644,0.0394 0.3963,0.028 3.4397,-0.29574 6.8801,-0.5692 10.3158,-0.90148 3.333,-0.32085 6.6592,-0.70679 9.9916,-1.04591 0.2381,-0.0245 0.4922,0.0993 0.7405,0.15471 -0.2101,0.25634 -0.3711,0.61431 -0.6417,0.74105 -0.358,0.17071 -0.8016,0.16557 -1.2098,0.22608 -1.1115,0.165 -2.2237,0.32257 -3.3358,0.48471 0,0.0697 0.011,0.13988 0.016,0.20896 0.2083,0.0354 0.4167,0.10447 0.6245,0.10333 1.7893,-0.012 3.5802,-0.0628 5.3695,-0.0502 1.8726,0.016 3.7452,0.14844 5.6161,0.11989 1.7812,-0.0268 3.5614,-0.17812 5.3392,-0.30315 2.1843,-0.15415 4.3664,-0.32657 6.5455,-0.5281 0.1496,-0.0137 0.4248,-0.41962 0.3791,-0.5104 -0.2683,-0.53437 -0.5064,-1.23546 -0.9637,-1.4741 -0.4875,-0.25406 -0.5486,-0.60517 -0.7262,-0.97113 -0.2712,-0.56235 -0.503,-1.14982 -0.8284,-1.67849 -0.62,-1.0031 -1.3439,-1.94397 -1.9382,-2.96191 -1.8487,-3.169155 -3.6453,-6.37028 -5.4854,-9.544 -1.4044,-2.423537 -2.8329,-4.83166 -4.2739,-7.232931 -1.7641,-2.941358 -3.5562,-5.865588 -5.3295,-8.801807 -0.451,-0.746758 -0.8735,-1.50836 -1.3428,-2.321344 z m -48.6557,37.010182 c 0,-0.0617 -6e-4,-0.12275 -6e-4,-0.18384 -0.226,-0.0228 -0.451,-0.0611 -0.6771,-0.0668 -1.8098,-0.0571 -3.6196,-0.0999 -5.4288,-0.16614 -0.294,-0.0114 -0.596,-0.0845 -0.8712,-0.19011 -0.098,-0.0383 -0.1975,-0.2769 -0.1661,-0.38708 0.033,-0.10734 0.2226,-0.22666 0.3528,-0.23751 0.62,-0.0508 1.2434,-0.0862 1.8674,-0.0919 1.5073,-0.012 3.0156,-0.012 4.5228,-0.006 5.3061,0.0183 10.6134,0.0183 15.9189,0.0731 2.7712,0.0274 5.5419,0.15815 8.3142,0.23408 1.2566,0.0348 2.1529,-1.49523 1.5426,-2.62907 -0.3254,-0.60288 -0.6794,-1.1915 -1.0173,-1.78811 -1.0528,-1.86518 -2.0593,-3.75776 -3.1623,-5.5904 -2.8329,-4.707773 -5.7257,-9.379576 -8.5592,-14.086205 -1.9149,-3.180571 -3.7663,-6.398823 -5.6618,-9.5891 -0.2266,-0.380801 -0.5583,-0.700513 -0.8421,-1.048772 -0.2569,0.383655 -0.5383,0.751896 -0.757,1.154392 -0.088,0.160998 -0.024,0.400211 -0.053,0.59889 -0.042,0.275752 -0.035,0.594894 -0.1759,0.815268 -0.3831,0.600032 -0.8786,1.132126 -1.2503,1.73958 -1.8178,2.973329 -3.6242,5.952367 -5.4048,8.94682 -1.022,1.717314 -2.0416,3.442621 -2.9585,5.217598 -0.5892,1.139548 -0.712,1.237746 -1.8315,0.559498 -0.1285,-0.07765 -0.5059,0.0051 -0.5789,0.126172 -1.8761,3.168011 -3.7207,6.356009 -5.5864,9.529729 -1.1128,1.89258 -2.2517,3.77318 -3.3781,5.6612 -0.1331,0.22208 -0.253,0.45273 -0.3786,0.67881 0.2581,0.0794 0.5104,0.20268 0.7731,0.22894 2.3156,0.2198 4.6278,0.5104 6.9486,0.60232 2.4041,0.097 4.8174,0.002 7.226,-0.0183 0.4237,-0.002 0.8479,-0.0554 1.2726,-0.0868 z m 46.5645,35.55435 c -1.3697,-2.67817 -2.5252,-5.12569 -3.8503,-7.479 -1.5215,-2.70157 -3.2702,-5.27926 -4.7734,-7.99225 -1.3274,-2.39328 -2.4344,-4.9093 -3.6721,-7.35453 -0.9415,-1.86119 -1.9086,-3.71039 -2.9151,-5.53789 -0.7359,-1.33651 -1.7082,-2.56055 -2.294,-3.95473 -0.5623,-1.34279 -1.2794,-1.94168 -2.7478,-1.70076 -0.5355,0.0874 -0.898,0.157 -1.1532,0.69309 -0.8233,1.7236 -1.6683,3.43806 -2.5634,5.12626 -1.2949,2.44523 -2.7142,4.82709 -3.9491,7.30201 -1.9451,3.89878 -3.6904,7.90204 -5.6949,11.76657 -1.4889,2.87456 -3.2508,5.60696 -4.9013,8.3976 -0.2021,0.34369 -0.2312,0.5829 0.2352,0.62458 1.3668,0.12046 2.7347,0.23293 4.1038,0.322 0.1798,0.009 0.499,-0.10733 0.5344,-0.22609 0.173,-0.58518 0.5926,-0.63999 1.0933,-0.65484 0.7148,-0.0171 1.4284,-0.0851 2.1432,-0.12446 3.4477,-0.17926 6.8984,0.18498 10.3587,-0.29858 1.5517,-0.21809 3.2097,-0.20211 4.8499,0.21181 1.7921,0.45159 3.6836,0.55892 5.5413,0.69023 1.9862,0.13988 3.985,0.14387 5.9786,0.18441 1.147,0.0245 2.2957,0.005 3.6762,0.005 z m 6.6163,-8.30626 c -0.4938,0 -0.7878,0 -1.0819,0 0.1433,-0.26033 0.249,-0.55436 0.4374,-0.77815 1.2269,-1.46269 2.4891,-2.89797 3.7069,-4.36637 0.994,-1.20006 2.0564,-2.3653 2.8883,-3.67327 1.3593,-2.13522 2.5594,-4.37321 3.8205,-6.57067 1.0991,-1.91485 2.2329,-3.81372 3.2725,-5.76168 0.7862,-1.47239 1.413,-3.02928 2.1821,-4.5108 0.3431,-0.6577 0.1027,-0.70166 -0.4499,-0.66113 -1.4804,0.11476 -2.9602,0.29003 -4.4412,0.3123 -3.3849,0.0514 -6.771,0.0114 -10.1566,0.0285 -7.2997,0.0383 -14.5977,0.0896 -21.8963,0.13759 -0.95,0.007 -0.9711,0.0531 -0.5081,0.88949 1.5032,2.70899 3.0498,5.39458 4.488,8.13669 1.2234,2.33162 2.222,4.78427 3.4991,7.0805 1.4992,2.69757 3.2742,5.24157 4.7826,7.93344 1.4838,2.64848 2.778,5.40029 4.1677,8.10015 0.1164,0.22609 0.3265,0.4025 0.4927,0.60175 0.1632,-0.17813 0.3568,-0.33627 0.4852,-0.53666 0.66,-1.0248 1.2749,-2.08042 1.9588,-3.08866 0.7485,-1.10643 1.5552,-2.16948 2.3522,-3.27306 z m -26.0766,-32.29784 c 0.2747,-0.57605 0.4802,-1.10701 0.7674,-1.59228 1.2206,-2.04502 2.4726,-4.07006 3.6983,-6.111656 0.9186,-1.5272 1.8315,-3.059537 2.7176,-4.610145 0.9774,-1.709321 1.8703,-3.470596 2.8934,-5.151372 1.4952,-2.458363 3.0944,-4.852212 4.609,-7.298586 0.9112,-1.468395 1.751,-2.980751 2.6131,-4.480547 0.7593,-1.319386 1.5044,-2.646765 2.355,-4.144277 -2.2842,-0.201533 -4.3304,-0.369382 -6.3731,-0.569774 -0.5664,-0.05481 -1.0779,-0.164994 -1.3594,0.535519 -0.067,0.166708 -0.4013,0.290026 -0.6274,0.319713 -0.6817,0.08564 -1.3691,0.154718 -2.0553,0.16214 -1.9839,0.02112 -3.969,-0.02626 -5.9518,0.02797 -0.6543,0.01827 -1.3947,0.110758 -1.9291,0.440176 -0.6868,0.421336 -1.3245,0.321426 -2.0136,0.270614 -1.8384,-0.13702 -3.6762,-0.360248 -5.5151,-0.373379 -2.834,-0.02227 -5.6697,0.08107 -8.5026,0.172417 -1.493,0.05024 -2.9825,0.188973 -4.5554,0.292309 6.436,10.74863 12.8097,21.390498 19.229,32.111148 z m -40.8593,6.79846 c 0.099,0.19868 0.1479,0.31915 0.2159,0.43047 1.5734,2.5794 3.1868,5.13482 4.7129,7.74219 1.3587,2.31906 2.6125,4.69978 3.9324,7.04339 0.7753,1.37534 1.63,2.70671 2.3807,4.09518 1.2092,2.23513 2.3842,4.48911 3.5289,6.75907 0.5172,1.02479 0.9654,2.08955 1.361,3.1663 0.1131,0.30658 -0.075,0.72049 -0.1101,1.0836 -0.024,0.25063 -0.1239,0.56977 -0.011,0.74219 0.7628,1.17151 1.5735,2.3122 2.4133,3.52997 0.2489,-0.33228 0.4875,-0.59547 0.6634,-0.89634 0.3676,-0.63315 0.6782,-1.30055 1.0562,-1.92912 1.1355,-1.8846 2.3287,-3.73551 3.4312,-5.63894 0.8678,-1.50094 1.6573,-3.05097 2.4389,-4.59987 0.8336,-1.64937 1.626,-3.3193 2.4201,-4.98752 0.6897,-1.44955 1.3171,-2.93279 2.0456,-4.36179 0.9135,-1.79268 1.9035,-3.54596 2.854,-5.31808 0.071,-0.13188 0.081,-0.29745 0.1188,-0.44817 -0.065,-0.0325 -0.1308,-0.0634 -0.1958,-0.0959 -0.9432,1.64138 -1.8858,3.28276 -2.8455,4.95212 -0.2255,-0.16385 -0.3762,-0.78844 -0.8033,-0.17413 -0.073,0.10448 -0.387,0.0394 -0.5903,0.0554 0.012,-0.19468 -0.043,-0.43219 0.047,-0.57948 0.5344,-0.8598 1.1104,-1.69619 1.6602,-2.54571 1.6511,-2.55542 3.2908,-5.11598 4.9487,-7.6674 0.2895,-0.44589 0.2044,-0.62002 -0.3157,-0.65256 -1.1818,-0.0725 -2.3607,-0.23065 -3.5408,-0.22665 -4.1523,0.0137 -8.308,-0.005 -12.4545,0.16613 -2.27,0.0948 -4.5194,0.70508 -6.7894,0.79586 -2.9305,0.11932 -5.8718,-0.0223 -8.8069,-0.10676 -1.2246,-0.0382 -2.4447,-0.21181 -3.7664,-0.33342 z"
         inkscape:connector-curvature="0"
         style="" />
      <path
         id="campfire"
         d="m 1893.4663,23.450246 c 1.0938,-0.263763 1.7675,-0.425332 2.4406,-0.586901 -0.024,-0.151293 -0.05,-0.300302 -0.075,-0.449882 -0.3882,-0.100481 -0.7781,-0.201533 -1.4352,-0.371666 0.083,-0.132452 0.1672,-0.263763 0.25,-0.396786 -0.5161,-0.291167 -1.039,-0.572058 -1.5689,-0.844955 -0.096,0.145583 -0.1906,0.288883 -0.2774,0.420194 -0.7325,-0.432184 -1.4182,-0.838676 -2.1044,-1.242313 -0.1182,0.157573 -0.2364,0.318571 -0.3534,0.475573 0.2598,0.54865 0.5207,1.096729 0.9209,1.937688 -7.6235,-0.215806 -15.0414,-0.452736 -22.4598,-0.631433 -7.1022,-0.171275 -14.2353,0.983117 -21.2986,-0.03996 -0.6406,0.364244 -1.272,0.741619 -1.8926,1.133838 0.2084,0.527526 0.4162,1.051627 0.6891,1.746432 -0.9946,1.327949 -2.1712,2.635346 -3.0464,4.120298 -1.9394,3.27934 -3.7133,6.655735 -5.5819,9.977323 -1.3673,2.429817 -3.0104,4.733462 -4.1191,7.273466 -2.0456,4.68265 -4.5793,9.05301 -7.6657,13.095093 -0.6166,0.808417 -1.5255,1.397602 -2.5703,2.171764 -0.01,0 -0.021,0 -0.031,0 -0.027,0.632003 -0.045,1.266291 -0.048,1.905145 3.0624,5.366037 6.4982,10.961582 10.5802,16.128369 0.4751,1.738438 1.1031,3.404941 1.8418,5.020062 1.5929,3.479731 3.8577,6.578661 6.883,8.813796 2.6673,1.972514 3.7914,4.676942 5.116,7.112459 -0.3272,0.89748 -0.6046,1.65452 -0.8713,2.38986 -0.3111,0.38822 -0.6645,0.8518 -1.0584,1.39075 0.5966,0.37224 1.2012,0.73248 1.8155,1.08131 0.6645,0.17242 1.0836,0.28146 1.3456,0.35283 0.2198,-1.07732 0.4128,-2.01933 0.6023,-2.94136 0.9712,-0.35853 2.0091,-0.0657 2.962,0.54009 1.0185,-0.30944 1.6385,-0.65598 2.2602,-0.66055 3.6955,-0.0131 7.3951,0.19982 11.0826,0.0611 9.0353,-0.32885 17.9747,0.57605 26.9792,1.69847 0.3146,0.47443 0.6446,0.95685 0.958,1.44556 0.011,0.0171 0.02,0.0343 0.031,0.0502 0.805,-0.43218 1.5957,-0.88492 2.3716,-1.36106 -0.5698,-0.99168 -1.1418,-1.98508 -1.7105,-2.97619 1.2087,-1.645943 2.4875,-3.211965 3.5705,-4.90473 1.8098,-2.8306 3.3587,-5.8359 5.2656,-8.596849 3.1343,-4.541063 6.4787,-8.939398 9.7056,-13.418802 0.3043,-0.424191 0.4002,-1.001386 0.729,-1.861756 -0.9243,0.328276 -1.3593,0.484136 -2.2625,0.80442 1.8954,-3.343282 3.5802,-6.318895 5.4123,-9.550278 0.8495,0.590327 1.51,1.04706 2.1563,1.495799 0.023,-0.620014 0.047,-1.240029 0.047,-1.865752 0,-0.340266 -0.018,-0.674823 -0.026,-1.012234 -0.1027,0.01656 -0.2021,0.0354 -0.3065,0.05195 -6.1654,-14.174125 -16.6891,-25.83679 -25.2539,-38.980412 z m 22.7955,39.180232 c -0.93,-0.213522 -1.8155,-0.421336 -2.7004,-0.626865 -0.1964,0.255199 -0.3928,0.508115 -0.5875,0.762743 0.6748,0.396786 1.3479,0.792431 2.1095,1.240029 -2.3162,4.267595 -4.6021,8.480953 -7.0205,12.940375 -0.1873,-0.597178 -0.2986,-0.954571 -0.4796,-1.523774 -5.1771,8.37933 -10.2634,16.606796 -15.5586,25.177954 -2.327,0.15472 -4.7089,0.31572 -7.0908,0.475 0.035,-0.23407 0.074,-0.46701 0.1091,-0.70394 -0.8655,-0.29916 -1.7345,-0.872357 -2.5954,-0.860939 -8.8486,0.117038 -17.6973,0.32999 -26.5464,0.512109 -1.1242,0.0211 -2.2495,0.002 -3.4729,0.002 -0.3032,0.25006 -0.6703,0.55207 -1.0836,0.89234 -0.6212,-0.0948 -1.2401,-0.18898 -1.4387,-0.2198 -2.4527,-3.908494 -4.7215,-7.524674 -7.0217,-11.193378 0.2221,-0.376234 0.459,-0.777016 0.7981,-1.350787 -1.2651,-1.415871 -2.472,-2.875702 -3.792,-4.224205 -3.9062,-3.991843 -6.871,-8.575725 -9.0816,-13.702548 -0.54,-1.252589 -1.675,-2.250549 -2.5851,-3.42949 0.3683,-0.07536 0.8056,-0.164995 1.2412,-0.256912 0.027,-0.110187 0.054,-0.218661 0.081,-0.329419 -0.5983,-0.176984 -1.1967,-0.353967 -1.9885,-0.586901 -0.5755,-0.839817 -1.2429,-1.816654 -1.9737,-2.883695 1.6865,-2.33162 3.4295,-4.400618 4.7911,-6.693987 4.0159,-6.763638 7.8758,-13.620907 11.8111,-20.432502 0.5356,-0.929451 1.2492,-1.769838 1.7014,-2.734115 0.4002,-0.853519 0.5543,-1.822934 0.8152,-2.739254 -0.1592,-0.06565 -0.3208,-0.130739 -0.4818,-0.194682 1.103,-1.837778 1.932,-3.945598 3.4004,-5.417419 1.031,-1.033357 2.931,-1.195497 4.3515,-1.71446 1.9331,1.986787 3.9353,1.137264 5.978,0.868363 0.1102,0.324851 0.2261,0.659979 0.4728,1.380474 1.8857,-0.136449 3.8536,-0.344262 5.8262,-0.406492 4.1026,-0.131881 8.2109,-0.105048 12.31,-0.308294 1.8943,-0.09477 3.7704,-0.591469 5.6612,-0.870076 0.7183,-0.10619 1.4542,-0.177555 2.1769,-0.155289 2.0011,0.05995 4.0004,0.178697 6.3207,0.288883 3.3798,1.494087 4.4611,5.340346 6.6568,8.212623 4.0535,5.304378 8.0282,10.684687 11.7238,16.24141 2.8112,4.224776 5.1394,8.773261 7.741,13.277215 -0.2084,0.467009 -0.3636,0.8107 -0.5783,1.287415 z m -51.7872,6.9018 -9.0085,0 0,-4.515372 13.5256,0 0.01,-0.0086 0.01,0.0086 1.4832,0 0.054,0 1.4113,0 0.01,-0.0086 0.01,0.0086 13.5952,0 0,4.515372 -9.0792,0 6.1362,6.136773 -3.1943,3.193131 -6.6209,-6.618054 0,7.907182 -4.5148,0 0,-8.051624 -6.7631,6.762496 -3.1937,-3.193131 6.1368,-6.136773 z m -2.9128,-15.182932 c 0,-7.133592 8.9263,-14.640562 8.9263,-14.640562 0,0 8.9262,7.40706 8.9262,14.640562 0,4.929857 -3.9964,8.925696 -8.9262,8.925696 -4.9299,0 -8.9263,-3.995839 -8.9263,-8.925696 z m 4.6655,0.516108 c 0,2.35103 1.8949,4.257889 4.2328,4.257889 2.3396,0 4.2339,-1.906288 4.2339,-4.257889 0,-3.451186 -4.1985,-7.87407 -4.1985,-7.87407 0,0 -4.2682,4.470841 -4.2682,7.87407 z"
         inkscape:connector-curvature="0"
         style="" />
      <polygon
         transform="matrix(0.5709157,0,0,0.5709157,1718.9636,-55.812264)"
         id="tent_1"
         points="91.807,200.049 50.74,128.921 91.806,57.792 173.939,57.792 215.005,128.921 173.939,200.05 "
         style="fill:#7b992a" />
      <path
         id="tent_2"
         stroke-miterlimit="10"
         d="m 1819.2541,-24.525513 -48.8624,84.631973 m 48.8624,0 -48.863,-84.631973 m -24.4312,42.316272 97.7259,0"
         inkscape:connector-curvature="0"
         style="fill:none;stroke:#698423;stroke-width:2.10879135;stroke-linecap:round;stroke-miterlimit:10" />
      <path
         id="icon_laptop"
         d="m 1814.113,26.960236 -5.7257,-10.202834 0,-14.3328391 -4.7957,0 0,0.00742 -17.4238,0 0,-0.00742 -4.7946,0 0,14.3328391 0.014,0 0,0.04282 -5.8867,10.137179 6e-4,0.02341 -0.01,0 0,4.752302 38.6562,0 0,-4.752302 -0.038,-5.71e-4 0,0 z m -10.5214,-19.7759489 0,9.4229639 -17.4238,0 0,-9.4229639 17.4238,0 z m -19.2987,14.1752659 21.0388,0 3.2445,5.600683 -27.5358,0 3.2525,-5.600683 z"
         inkscape:connector-curvature="0"
         style="fill:#ffffff" />
    </g>
  </g>
</svg>
