<?xml version="1.0" encoding="UTF-8" standalone="no"?>
<svg
   xmlns:serif="http://www.serif.com/"
   xmlns:dc="http://purl.org/dc/elements/1.1/"
   xmlns:cc="http://creativecommons.org/ns#"
   xmlns:rdf="http://www.w3.org/1999/02/22-rdf-syntax-ns#"
   xmlns:svg="http://www.w3.org/2000/svg"
   xmlns="http://www.w3.org/2000/svg"
   xmlns:xlink="http://www.w3.org/1999/xlink"
   xmlns:sodipodi="http://sodipodi.sourceforge.net/DTD/sodipodi-0.dtd"
   xmlns:inkscape="http://www.inkscape.org/namespaces/inkscape"
   width="1920"
   height="1080"
   id="svg2"
   version="1.1"
   inkscape:version="1.0 (4035a4fb49, 2020-05-01)"
   sodipodi:docname="intro.svg">
  <defs
     id="defs4">
    <linearGradient
       id="linearGradient3811">
      <stop
         id="stop3819"
         offset="0"
         style="stop-color:#fafbff;stop-opacity:1;" />
      <stop
         style="stop-color:#fffbff;stop-opacity:1;"
         offset="1"
         id="stop3815" />
    </linearGradient>
    <radialGradient
       fy="9.7279596"
       fx="1.71676"
       r="0.29498801"
       cy="9.7279596"
       cx="1.71676"
       gradientUnits="userSpaceOnUse"
       id="id12">
      <stop
         id="stop3151"
         style="stop-color:#75C5F0"
         offset="0" />
      <stop
         id="stop3153"
         style="stop-color:#007CC3"
         offset="1" />
    </radialGradient>
    <radialGradient
       fy="2.1879101"
       fx="3.27019"
       r="0.420028"
       cy="2.1879101"
       cx="3.27019"
       xlink:href="#id12"
       gradientUnits="userSpaceOnUse"
       id="id14" />
    <linearGradient
       y2="2.3961301"
       x2="3.27019"
       y1="1.96386"
       x1="3.27019"
       gradientUnits="userSpaceOnUse"
       id="linearGradient3382">
      <stop
         id="stop3384"
         style="stop-opacity:1; stop-color:white"
         offset="0" />
      <stop
         id="stop3386"
         style="stop-opacity:0; stop-color:white"
         offset="1" />
    </linearGradient>
    <mask
       id="id6">
      <linearGradient
         y2="2.3961301"
         x2="3.27019"
         y1="1.96386"
         x1="3.27019"
         gradientUnits="userSpaceOnUse"
         id="id7">
        <stop
           id="stop3128"
           style="stop-opacity:1; stop-color:white"
           offset="0" />
        <stop
           id="stop3130"
           style="stop-opacity:0; stop-color:white"
           offset="1" />
      </linearGradient>
      <rect
         id="rect3132"
         height="0.465563"
         width="0.65544897"
         y="1.94721"
         x="2.9424601"
         style="fill:url(#id7)" />
    </mask>
    <inkscape:perspective
       sodipodi:type="inkscape:persp3d"
       inkscape:vp_x="0 : 504.5 : 1"
       inkscape:vp_y="0 : 1000 : 0"
       inkscape:vp_z="1 : 504.5 : 1"
       inkscape:persp3d-origin="0.5 : 504.33333 : 1"
       id="perspective3373" />
    <inkscape:perspective
       id="perspective3412"
       inkscape:persp3d-origin="372.04724 : 854.78739 : 1"
       inkscape:vp_z="744.09448 : 1030.1811 : 1"
       inkscape:vp_y="0 : 1000 : 0"
       inkscape:vp_x="0 : 1030.1811 : 1"
       sodipodi:type="inkscape:persp3d" />
    <radialGradient
       fy="9.7279596"
       fx="1.71676"
       r="0.29498801"
       cy="9.7279596"
       cx="1.71676"
       gradientUnits="userSpaceOnUse"
       id="id12-3">
      <stop
         id="stop3151-0"
         style="stop-color:#75C5F0"
         offset="0" />
      <stop
         id="stop3153-0"
         style="stop-color:#007CC3"
         offset="1" />
    </radialGradient>
    <radialGradient
       fy="2.1879101"
       fx="3.27019"
       r="0.420028"
       cy="2.1879101"
       cx="3.27019"
       xlink:href="#id12-3"
       gradientUnits="userSpaceOnUse"
       id="id14-6" />
    <linearGradient
       y2="2.3961301"
       x2="3.27019"
       y1="1.96386"
       x1="3.27019"
       gradientUnits="userSpaceOnUse"
       id="linearGradient3382-2">
      <stop
         id="stop3384-5"
         style="stop-opacity:1; stop-color:white"
         offset="0" />
      <stop
         id="stop3386-2"
         style="stop-opacity:0; stop-color:white"
         offset="1" />
    </linearGradient>
    <mask
       id="id6-4">
      <linearGradient
         y2="2.3961301"
         x2="3.27019"
         y1="1.96386"
         x1="3.27019"
         gradientUnits="userSpaceOnUse"
         id="id7-2">
        <stop
           id="stop3128-9"
           style="stop-opacity:1; stop-color:white"
           offset="0" />
        <stop
           id="stop3130-9"
           style="stop-opacity:0; stop-color:white"
           offset="1" />
      </linearGradient>
      <rect
         id="rect3132-4"
         height="0.465563"
         width="0.65544897"
         y="1.94721"
         x="2.9424601"
         style="fill:url(#id7-2)" />
    </mask>
    <inkscape:perspective
       sodipodi:type="inkscape:persp3d"
       inkscape:vp_x="0 : 504.5 : 1"
       inkscape:vp_y="0 : 1000 : 0"
       inkscape:vp_z="1 : 504.5 : 1"
       inkscape:persp3d-origin="0.5 : 504.33333 : 1"
       id="perspective3373-6" />
    <inkscape:perspective
       id="perspective3412-2"
       inkscape:persp3d-origin="372.04724 : 854.78739 : 1"
       inkscape:vp_z="744.09448 : 1030.1811 : 1"
       inkscape:vp_y="0 : 1000 : 0"
       inkscape:vp_x="0 : 1030.1811 : 1"
       sodipodi:type="inkscape:persp3d" />
  </defs>
  <sodipodi:namedview
     id="base"
     pagecolor="#ffffff"
     bordercolor="#666666"
     borderopacity="1.0"
     inkscape:pageopacity="0.0"
     inkscape:pageshadow="2"
     inkscape:zoom="2.8284271"
     inkscape:cx="1186.0379"
     inkscape:cy="939.0199"
     inkscape:document-units="px"
     inkscape:current-layer="layer1"
     showgrid="false"
     inkscape:window-width="1920"
     inkscape:window-height="1016"
     inkscape:window-x="0"
     inkscape:window-y="27"
     inkscape:window-maximized="1"
     showguides="true"
     inkscape:guide-bbox="true"
     inkscape:document-rotation="0">
    <sodipodi:guide
       orientation="1,0"
       position="54,576"
       id="guide3846"
       inkscape:locked="false" />
    <sodipodi:guide
       orientation="1,0"
       position="1063.389,552.81622"
       id="guide3848"
       inkscape:locked="false" />
    <sodipodi:guide
       position="270,11"
       orientation="0,-1"
       id="guide3145" />
    <sodipodi:guide
       id="guide2425"
       orientation="0,-1"
       position="-1528,-430" />
    <sodipodi:guide
       id="guide2475"
       orientation="0,-1"
       position="-1718.7929,-419.89226" />
    <sodipodi:guide
       id="guide2477"
       orientation="1,0"
       position="-1630.5882,-135.34942" />
    <sodipodi:guide
       position="1456.9935,165.71093"
       orientation="0,-1"
       id="guide1143" />
    <sodipodi:guide
       id="guide4682"
       orientation="1,0"
       position="59.345215,132.74862" />
  </sodipodi:namedview>
  <metadata
     id="metadata7">
    <rdf:RDF>
      <cc:Work
         rdf:about="">
        <dc:format>image/svg+xml</dc:format>
        <dc:type
           rdf:resource="http://purl.org/dc/dcmitype/StillImage" />
        <dc:title></dc:title>
      </cc:Work>
    </rdf:RDF>
  </metadata>
  <g
     style="opacity:1"
     inkscape:label="Ebene 1"
     inkscape:groupmode="layer"
     id="layer1">
    <rect
       y="0"
       x="0"
       height="1080"
       width="1920"
       id="rect3809-1"
       style="fill:#00a2e1;fill-opacity:1;stroke-width:3.6841" />
    <flowRoot
       transform="matrix(1.8789785,0,0,1.8788549,11.03754,2.8810923)"
       style="font-style:normal;font-weight:normal;line-height:0.01%;font-family:sans-serif;letter-spacing:0px;word-spacing:0px;fill:#ffffff;fill-opacity:1;stroke:none"
       id="title"
       xml:space="preserve"><flowRegion
         style="font-family:sans-serif;fill:#ffffff"
         id="flowRegion3042"><rect
           style="font-size:48px;font-family:sans-serif;fill:#ffffff;fill-opacity:1"
           y="30.517624"
           x="24.243662"
           height="194.80345"
           width="769.9577"
           id="rect3044" /></flowRegion><flowPara
         id="flowPara3836"
         style="font-style:normal;font-variant:normal;font-weight:300;font-stretch:normal;font-size:48px;line-height:125%;font-family:'Open Sans';-inkscape-font-specification:'Open Sans Light';text-align:start;writing-mode:lr-tb;text-anchor:start;fill:#ffffff;fill-opacity:1">$title</flowPara></flowRoot>
    <flowRoot
       transform="matrix(1.8789785,0,0,1.8788549,-44.620037,12.436556)"
       style="font-style:normal;font-weight:normal;line-height:0.01%;font-family:sans-serif;letter-spacing:0px;word-spacing:0px;fill:#000000;fill-opacity:1;stroke:none"
       id="names"
       xml:space="preserve"><flowRegion
         id="flowRegion3840"
         style="font-family:sans-serif"><rect
           y="243"
           x="56"
           height="271.10471"
           width="673.89355"
           id="rect3842"
           style="font-family:sans-serif" /></flowRegion><flowPara
         style="font-style:normal;font-variant:normal;font-weight:300;font-stretch:normal;font-size:40px;line-height:125%;font-family:'Open Sans';-inkscape-font-specification:'Open Sans Light';text-align:start;writing-mode:lr-tb;text-anchor:start;fill:#ffffff;fill-opacity:1"
         id="flowPara3844">$personnames</flowPara></flowRoot>
    <flowRoot
       transform="matrix(1.8789785,0,0,1.8788549,-555.36165,435.49229)"
       style="font-style:normal;font-weight:normal;line-height:0.01%;font-family:sans-serif;text-align:end;letter-spacing:0px;word-spacing:0px;text-anchor:end;fill:#000000;fill-opacity:1;stroke:none"
       id="url"
       xml:space="preserve"><flowRegion
         style="font-family:sans-serif"
         id="flowRegion3817"><rect
           style="font-family:sans-serif;text-align:end;text-anchor:end"
           y="312.37131"
           x="790.53937"
           height="22.430193"
           width="486.27167"
           id="rect3819" /></flowRegion><flowPara
         style="font-style:normal;font-variant:normal;font-weight:normal;font-stretch:normal;font-size:18px;line-height:125%;font-family:'Open Sans';-inkscape-font-specification:'Open Sans';text-align:end;writing-mode:lr-tb;text-anchor:end;fill:#ffffff;fill-opacity:1"
         id="flowPara3821">https://programm.froscon.de/2020/events/$id.html</flowPara></flowRoot>
    <g
       style="clip-rule:evenodd;fill-rule:evenodd;stroke-miterlimit:10"
       id="g2813"
       transform="matrix(0.30916883,0,0,0.3091485,1226.1695,-10.756921)">
      <g
         id="g1199">
        <g
           id="Layer-1"
           serif:id="Layer 1">
          <path
             d="m 1283.1,352.327 h 69.283 l 89.4,113.229 53.642,226.463 8.941,102.933 84.925,224.808 326.313,433.988 98.337,271.067 h -78.22 l -147.509,-257.342 -98.341,-20.588 60.341,411.75 -232.437,552.425 24.587,54.896 -301.562,20.592 v -2120.5 l 42.3,-13.725 z"
             style="fill:none;stroke:#ffffff;stroke-width:4.17px"
             id="path1119" />
          <path
             d="m 1517.78,2411.06 -276.98,-372.287 386.575,-238.471 62.5,-353.413 -129.625,-39.912"
             style="fill:none;stroke:#ffffff;stroke-width:4.17px"
             id="path1121" />
          <path
             d="m 1240.8,1289.05 h 299.325 l 49.171,-269.292 -348.496,-199.07"
             style="fill:none;stroke:#ffffff;stroke-width:4.17px"
             id="path1123" />
          <path
             d="m 1540.13,1289.05 248.087,178.421 z"
             style="fill:none;stroke:#ffffff;stroke-width:4.17px"
             id="path1125" />
          <path
             d="m 1627.37,2150.59 v -350.288 l -87.246,-511.254 210.121,-55.221 37.966,233.646 127.392,-13.725 20.117,271.067"
             style="fill:none;stroke:#ffffff;stroke-width:4.17px"
             id="path1127" />
          <path
             d="M 1540.13,1289.05 1348.013,881.929 h -107.208"
             style="fill:none;stroke:#ffffff;stroke-width:4.17px"
             id="path1129" />
          <path
             d="m 1361.19,875.099 98.488,-99.875 41.033,18.467 z"
             style="fill:none;stroke:#ffffff;stroke-width:4.17px"
             id="path1131" />
          <path
             d="m 1120.29,873.179 -98.85,-97.954 -42.246,18.779 z"
             style="fill:none;stroke:#ffffff;stroke-width:4.17px"
             id="path1133" />
          <path
             d="m 1049.15,2297.26 -86.609,113.8 -24.583,54.9 201.708,12.867 z"
             style="fill:#ffffff;fill-rule:nonzero;stroke:#ffffff;stroke-width:4.17px"
             id="path1135" />
          <path
             d="M 940.193,1289.05 692.109,1467.471 Z"
             style="fill:none;stroke:#ffffff;stroke-width:4.17px"
             id="path1137" />
          <path
             d="m 852.947,2150.59 v -350.288 l 87.246,-511.254 -210.125,-55.221 -37.958,233.646 -127.396,-13.725 -20.113,271.067"
             style="fill:none;stroke:#ffffff;stroke-width:4.17px"
             id="path1139" />
          <path
             d="M 1239.52,1289.05 H 940.195 l -49.17,-269.292 348.495,-199.07"
             style="fill:none;stroke:#ffffff;stroke-width:4.17px"
             id="path1141" />
          <path
             d="m 940.193,1289.05 192.121,-407.121 h 107.204"
             style="fill:none;stroke:#ffffff;stroke-width:4.17px"
             id="path1143" />
          <path
             d="m 1428.94,2297.26 86.604,113.8 24.588,54.9 -201.713,12.867 z"
             style="fill:#ffffff;fill-rule:nonzero;stroke:#ffffff;stroke-width:4.17px"
             id="path1145" />
          <path
             d="m 1197.22,352.327 h -69.283 l -89.4,113.229 -53.642,226.463 -8.942,102.933 -84.929,224.808 -326.308,433.988 -98.342,271.067 h 78.229 l 147.509,-257.342 98.337,-20.588 -60.341,411.75 232.437,552.425 -24.587,54.896 301.562,20.592 v -2120.5 l -42.3,-13.725 z"
             style="fill:none;stroke:#ffffff;stroke-width:4.17px"
             id="path1147" />
          <path
             d="m 962.542,2411.06 276.979,-372.287 -386.575,-238.471 -62.5,-353.413 129.625,-39.912"
             style="fill:none;stroke:#ffffff;stroke-width:4.17px"
             id="path1149" />
          <path
             d="m 1127.93,352.327 h 224.454 l 90.104,121.063 -117.6,111.262 -81.3,-62.267 z"
             style="fill:#ffffff;fill-rule:nonzero;stroke:#ffffff;stroke-width:4.17px"
             id="path1151" />
          <path
             d="m 1349.44,353.076 h -224.459 l -88.216,121.746 122.004,110.287 79.383,-62.762 z"
             style="fill:#ffffff;fill-rule:nonzero;stroke:#ffffff;stroke-width:4.17px"
             id="path1153" />
          <path
             d="m 1341.8,556.542 -89.924,149.535"
             style="fill:none;stroke:#ffffff;stroke-width:4.17px"
             id="path1155" />
          <path
             d="m 1020.65,775.225 15.237,-298.712 -51,215.504 35.763,81.6"
             style="fill:#ffffff;fill-rule:nonzero;stroke:#ffffff;stroke-width:4.17px"
             id="path1157" />
          <path
             d="M 1460.91,775.225 1444.048,476.167"
             style="fill:#ffffff;fill-rule:nonzero;stroke:#ffffff;stroke-width:4.17px"
             id="path1159" />
          <path
             d="m 1380.73,630.104 c 4.638,17.179 -0.67,36.879 -11.862,44.004 -11.188,7.121 -24.021,-1.033 -28.663,-18.212 -2.095,-7.758 10.746,-10.879 12.33,-18.275 -3.213,-16.954 -6.605,-21.825 -0.467,-25.729 11.192,-7.121 24.025,1.029 28.662,18.212"
             style="fill:#ffffff;fill-rule:nonzero"
             id="path1161" />
          <path
             d="m 1380.73,630.104 c 4.638,17.179 -0.67,36.879 -11.862,44.004 -11.188,7.121 -24.021,-1.033 -28.663,-18.212 -2.095,-7.758 10.746,-10.879 12.33,-18.275 -3.213,-16.954 -6.605,-21.825 -0.467,-25.729 11.192,-7.121 24.025,1.029 28.662,18.212 z"
             style="fill:none;stroke:#ffffff;stroke-width:4.17px"
             id="path1163" />
          <path
             d="m 1087.65,630.104 c -4.638,17.179 0.675,36.879 11.862,44.004 11.192,7.121 24.025,-1.033 28.663,-18.212 2.096,-7.758 -10.742,-10.879 -12.329,-18.275 3.216,-16.954 6.604,-21.825 0.466,-25.729 -11.191,-7.121 -24.021,1.029 -28.662,18.212"
             style="fill:#ffffff;fill-rule:nonzero"
             id="path1165" />
          <path
             d="m 1087.65,630.104 c -4.638,17.179 0.675,36.879 11.862,44.004 11.192,7.121 24.025,-1.033 28.663,-18.212 2.096,-7.758 -10.742,-10.879 -12.329,-18.275 3.216,-16.954 6.604,-21.825 0.466,-25.729 -11.191,-7.121 -24.021,1.029 -28.662,18.212 z"
             style="fill:none;stroke:#ffffff;stroke-width:4.17px"
             id="path1167" />
          <path
             d="m 1446.92,492.92 46.962,197.591 -33.42,84.829"
             style="fill:#ffffff;fill-rule:nonzero;stroke:#ffffff;stroke-width:4.17px"
             id="path1169" />
          <path
             d="m 790.447,1446.89 61.104,345.512 1.396,7.9 -1.85,336.613 -120.991,-278.279 60.341,-391.163"
             style="fill:#ffffff;fill-rule:nonzero;stroke:#ffffff;stroke-width:4.17px"
             id="path1171" />
          <path
             d="m 1690.95,1450.65 -61.1,345.512 -1.396,7.9 1.846,336.613 120.996,-278.279 -60.346,-391.159 z"
             style="fill:#ffffff;fill-rule:nonzero;stroke:#ffffff;stroke-width:4.17px"
             id="path1173" />
          <path
             d="m 1559.73,1409.58 7.85,2.408 122.296,37.504 -62.488,349.938"
             style="fill:#ffffff;fill-rule:nonzero;stroke:#ffffff;stroke-width:4.17px"
             id="path1175" />
          <path
             d="m 918.509,1406.97 -7.404,2.408 c 0,0 -115.946,38.483 -121.221,38.483 -5.271,0 61.504,352.434 61.504,352.434"
             style="fill:#ffffff;fill-rule:nonzero;stroke:#ffffff;stroke-width:4.17px"
             id="path1177" />
          <path
             d="m 1139.37,552.175 95.169,158.269"
             style="fill:none;stroke:#ffffff;stroke-width:4.17px"
             id="path1179" />
        </g>
        <g
           id="g1197">
          <g
             id="Layer9">
            <path
               d="m 1364.25,708.701 117.558,-79.956 -100.683,165.223"
               style="fill:none;stroke:#dcdad9;stroke-width:6.25px;stroke-linecap:round;stroke-linejoin:round;stroke-miterlimit:1.5"
               id="path1182" />
          </g>
          <g
             id="Layer8">
            <path
               d="m 1115.95,710.834 -117.44,-83.322 97.368,160.86"
               style="fill:none;stroke:#dcdad9;stroke-width:6.42px;stroke-linecap:round;stroke-linejoin:round;stroke-miterlimit:1.5"
               id="path1185" />
          </g>
          <g
             id="Layer5">
            <path
               d="m 1110.22,707.333 c 0,0 118.726,-25.48 130.8,-23.357 12.074,2.124 131.815,13.746 128.64,20.615 -3.174,6.869 -6.543,19.327 -1.39,40.487 5.153,21.161 -253.595,2.598 -253.595,2.598 0,0 5.894,-23.357 -4.455,-40.343"
               style="fill:#f3f3f2"
               id="path1188" />
          </g>
          <g
             id="Layer7">
            <path
               d="m 1105.68,777.423 -13.597,11.936 c 0,0 77.065,66.423 107.449,71.487 30.384,5.064 51.002,4.341 70.535,0 19.533,-4.341 82.11,-34.725 91.514,-44.129 9.405,-9.405 23.075,-22.808 23.075,-22.808 0,0 -13.924,-11.833 -14.956,-13.726 -1.033,-1.892 -89.143,28.207 -89.143,28.207 l -86.512,0.485 c 0,0 -22.38,-0.76 -46.688,-10.02 -24.307,-9.26 -41.677,-21.432 -41.677,-21.432 z"
               style="fill:#f3f2f3"
               id="path1191" />
          </g>
          <g
             id="Layer6">
            <path
               d="m 1114.71,747.68 c 0,0 -3.077,27.077 -8.503,29.248 -5.425,2.17 53.896,34.363 94.408,33.639 40.513,-0.723 65.975,1.162 77.769,-0.723 11.795,-1.885 88.259,-27.852 88.259,-27.852 l 3.256,-1.809 -1.447,-33.278 z"
               style="fill:#dcdad9"
               id="path1194" />
          </g>
        </g>
      </g>
    </g>
    <path
       d="m 1803.6711,845.50585 c 4.4959,0 8.8048,0.8201 12.9256,2.45821 4.1212,1.63918 7.7271,3.9334 10.8169,6.88418 3.0911,2.94938 5.5736,6.43832 7.446,10.46543 1.8743,4.02788 2.8106,8.38256 2.8106,13.06483 v 25.98915 c 0,2.43537 -0.8662,4.54253 -2.5992,6.32176 -1.7326,1.77924 -3.8634,2.71622 -6.3921,2.80961 -2.5289,0 -4.7063,-0.81905 -6.5327,-2.45855 -1.8265,-1.63914 -2.7399,-3.72275 -2.7399,-6.2512 v -25.28698 c 0,-2.15386 -0.3981,-4.19112 -1.1939,-6.11078 -0.7961,-1.92003 -1.9201,-3.58198 -3.3726,-4.98697 -1.4517,-1.40535 -3.1373,-2.52841 -5.0574,-3.3717 -1.9194,-0.84292 -4.004,-1.26387 -6.2514,-1.26387 -2.0609,0 -4.028,0.39813 -5.9012,1.19365 -1.8727,0.79622 -3.512,1.84979 -4.9171,3.1607 -1.4047,1.3109 -2.5285,2.90301 -3.3718,4.77634 -0.8423,1.87331 -1.264,3.83969 -1.264,5.90046 v 25.56753 c 0,2.43468 -0.937,4.56606 -2.8102,6.3916 -1.8728,1.82664 -4.0274,2.73907 -6.4625,2.73907 -2.435,0 -4.5889,-0.84257 -6.4624,-2.52807 -1.8734,-1.68548 -2.8101,-3.7463 -2.8101,-6.18098 v -25.28698 c 0.094,-4.68262 1.0073,-9.08436 2.74,-13.20525 1.733,-4.12089 4.1212,-7.72674 7.1651,-10.81687 3.0443,-3.09083 6.6266,-5.52588 10.7474,-7.30511 4.1217,-1.77994 8.6168,-2.66921 13.4877,-2.66921 z m -73.4118,20.0887 c -2.1533,0 -4.1676,0.39881 -6.0407,1.19433 -1.8734,0.79554 -3.5355,1.8965 -4.9873,3.30115 -1.4517,1.40498 -2.5991,3.06765 -3.4421,4.98769 -0.8433,1.91929 -1.265,4.00291 -1.265,6.25084 0,2.1545 0.4217,4.19144 1.265,6.11144 0.843,1.91931 1.9904,3.60483 3.4421,5.05721 1.4518,1.45167 3.1139,2.59897 4.9873,3.44189 1.8731,0.84257 3.8874,1.2642 6.0407,1.2642 2.155,0 4.191,-0.42091 6.1118,-1.2642 1.9198,-0.84292 3.5826,-1.99022 4.9873,-3.44189 1.4048,-1.45238 2.5286,-3.1379 3.3719,-5.05721 0.8431,-1.92 1.264,-3.95694 1.264,-6.11144 -0.1876,-4.30802 -1.732,-7.96058 -4.6359,-10.95697 -2.9035,-2.99746 -6.6037,-4.58925 -11.0991,-4.77704 m 0,-18.4025 c 4.5898,0 8.9448,0.88998 13.0656,2.66851 4.1212,1.77992 7.7269,4.21498 10.8183,7.3058 3.091,3.09014 5.5487,6.69564 7.3758,10.81689 1.8264,4.12087 2.74,8.56897 2.74,13.34531 0,4.68259 -0.8907,9.06151 -2.6705,13.13499 -1.7793,4.0742 -4.1903,7.6562 -7.235,10.74703 -3.0436,3.09049 -6.6258,5.52588 -10.747,7.30511 -4.1215,1.77924 -8.5702,2.66918 -13.3472,2.66918 -4.6823,0 -9.085,-0.84291 -13.2054,-2.52912 -4.1212,-1.6855 -7.7276,-4.04996 -10.8183,-7.09375 -3.0904,-3.04415 -5.5259,-6.62613 -7.3049,-10.74738 -1.7801,-4.12089 -2.6694,-8.61636 -2.6694,-13.48606 0,-4.68261 0.8658,-9.06083 2.5985,-13.13504 1.733,-4.07382 4.1211,-7.63265 7.1655,-10.67677 3.0433,-3.0431 6.6497,-5.47885 10.8176,-7.30477 4.1678,-1.82594 8.6397,-2.83315 13.4164,-3.01993 z m -47.9818,36.10355 c 2.5286,0 4.7289,0.91279 6.6024,2.73907 1.8734,1.82695 2.8098,4.09735 2.8098,6.81361 0,0.93627 -0.1637,1.82627 -0.4915,2.66884 -0.3272,0.84293 -0.7257,1.73289 -1.1945,2.66923 -2.7157,4.77664 -6.5553,8.59317 -11.5205,11.44947 -4.9637,2.85634 -10.3021,4.28448 -16.0158,4.28448 -4.1205,0 -8.1012,-0.81833 -11.9408,-2.4582 -3.841,-1.63845 -7.2357,-3.88637 -10.1863,-6.74339 -2.9503,-2.85632 -5.2921,-6.22801 -7.0244,-10.11438 -1.7319,-3.88636 -2.5991,-8.0778 -2.5991,-12.57328 v -25.84839 c 0,-4.21428 0.8194,-8.24141 2.4583,-12.0811 1.6393,-3.84001 3.9105,-7.23521 6.8141,-10.1853 2.9035,-2.95007 6.2755,-5.29134 10.115,-7.02425 3.84,-1.73255 7.9611,-2.59829 12.3632,-2.59829 5.6206,0 10.912,1.42818 15.8758,4.28449 4.9645,2.85634 8.8981,6.81362 11.8013,11.87079 0.3746,0.65546 0.7261,1.45098 1.0537,2.38803 0.3279,0.93627 0.4915,1.82625 0.4915,2.66882 0,2.62216 -0.936,4.87008 -2.8098,6.74341 -1.8735,1.87295 -4.1205,2.80929 -6.7438,2.80929 -2.0603,0 -3.7459,-0.5382 -5.0569,-1.6153 -1.3117,-1.07676 -2.4826,-2.41115 -3.5127,-4.00364 -1.1238,-1.87261 -2.6455,-3.37167 -4.5656,-4.49548 -1.9202,-1.12379 -4.098,-1.6855 -6.5335,-1.6855 -1.7794,0 -3.4415,0.32825 -4.987,0.98371 -1.5452,0.65615 -2.9036,1.56894 -4.0745,2.73978 -1.1702,1.17011 -2.1073,2.55122 -2.8094,4.14368 -0.7033,1.59249 -1.0537,3.27797 -1.0537,5.05721 v 25.84838 c 0,1.77994 0.3511,3.46579 1.0537,5.05755 0.7029,1.59211 1.6392,2.97393 2.8094,4.14441 1.1709,1.17081 2.529,2.08358 4.0745,2.73939 1.5455,0.65547 3.2076,0.98407 4.987,0.98407 2.4355,0 4.5898,-0.56173 6.4629,-1.6862 1.8734,-1.12345 3.419,-2.62181 4.6362,-4.49512 1.0301,-1.59176 2.1073,-2.90373 3.2312,-3.9334 1.1238,-1.03007 2.9509,-1.54544 5.4798,-1.54544 z m -93.5022,-40.17773 c -2.2477,0 -4.144,0.82012 -5.6895,2.45819 -1.5455,1.63916 -2.3653,3.67608 -2.4591,6.11147 0.094,2.15382 0.9129,4.00362 2.4591,5.54904 1.5455,1.54541 3.4418,2.31742 5.6895,2.31742 h 9.5537 c 3.4656,0 6.8136,0.70251 10.0451,2.10714 3.2315,1.40533 6.1108,3.3489 8.6401,5.83026 2.5283,2.48135 4.5421,5.38546 6.041,8.70976 1.4985,3.32464 2.2477,6.85993 2.2477,10.60692 0,3.65256 -0.7029,7.11728 -2.1069,10.39523 -1.4051,3.27798 -3.3252,6.13429 -5.7608,8.56898 -2.4349,2.43538 -5.291,4.37823 -8.5696,5.82992 -3.2781,1.45238 -6.7908,2.22509 -10.5366,2.3181 h -25.0079 c -2.8094,0 -5.1038,-0.91277 -6.8839,-2.73907 -1.7793,-1.82661 -2.6694,-4.09732 -2.6694,-6.81358 0,-2.52878 0.9129,-4.72894 2.7393,-6.60263 1.8271,-1.87332 4.0983,-2.8096 6.814,-2.8096 h 25.0079 c 2.1539,0 4.0737,-0.79554 5.76,-2.38836 1.686,-1.59174 2.5286,-3.51178 2.5286,-5.75899 0,-2.34163 -0.8195,-4.28519 -2.4584,-5.83061 -1.6392,-1.54541 -3.5362,-2.36446 -5.6902,-2.45819 h -9.6937 c -3.5594,-0.0942 -6.9777,-0.8426 -10.2559,-2.24792 -3.2778,-1.40463 -6.1578,-3.30149 -8.6404,-5.68911 -2.4819,-2.38872 -4.4719,-5.22152 -5.9704,-8.49948 -1.4988,-3.27795 -2.248,-6.83711 -2.248,-10.67681 0,-3.46541 0.7018,-6.83641 2.1072,-10.11438 1.4048,-3.27796 3.3484,-6.18094 5.8303,-8.71044 2.4819,-2.5284 5.3627,-4.56533 8.6405,-6.11074 3.2782,-1.54543 6.7902,-2.31745 10.5367,-2.31745 h 25.0071 c 2.5289,0 4.6829,0.9128 6.4626,2.73907 1.78,1.8263 2.7631,4.09703 2.951,6.81327 0,2.71622 -0.8908,4.9638 -2.6705,6.7434 -1.7786,1.77921 -4.0267,2.66849 -6.7431,2.66849 h -25.0071 z m -155.36,70.94323 c -2.5292,0 -4.6365,-0.82011 -6.3221,-2.4589 -1.6856,-1.63847 -2.8102,-3.80952 -2.8102,-6.53242 v -25.98915 c 0,-4.4962 1.054,-8.73256 2.8804,-12.71339 1.8257,-3.97974 4.2612,-7.44551 7.3049,-10.39523 3.0443,-2.95003 6.6037,-5.29171 10.6782,-7.02424 4.0737,-1.73184 8.4034,-2.76119 12.9951,-2.87983 2.6206,-0.068 4.8002,0.88996 6.5328,2.66952 1.7323,1.77923 2.7866,3.9285 2.8797,6.46185 0.093,2.52668 -0.89,4.65979 -2.6694,6.3916 -1.779,1.73257 -3.9793,2.68851 -6.6031,2.73979 -2.1535,0.0424 -4.1674,0.39845 -6.0409,1.19399 -1.8727,0.79587 -3.5127,1.89614 -4.9174,3.30147 -1.4048,1.40464 -2.5286,3.06696 -3.3712,4.98699 -0.843,1.92 -1.2647,4.00435 -1.2647,6.25154 v 25.56753 c 0,2.44134 -1.1007,4.44877 -2.7392,6.04054 -1.6389,1.59211 -3.8171,2.38834 -6.5335,2.38834 z m -43.909,-70.94323 v 19.1057 h 18.4048 c 2.7157,0 4.9641,0.93702 6.7438,2.80927 1.7787,1.87333 2.6694,4.12122 2.6694,6.74339 0,2.62181 -0.89,4.84688 -2.6694,6.67247 -1.78,1.82627 -4.0281,2.73905 -6.7438,2.73905 h -18.4048 v 23.1799 c 0,2.71554 -0.9128,4.98733 -2.7392,6.81358 -1.8264,1.82561 -4.0976,2.73907 -6.8133,2.73907 -2.7165,0 -4.9888,-0.91277 -6.8145,-2.73907 -1.8264,-1.82625 -2.7392,-4.09732 -2.7392,-6.81358 v -70.66203 c 0,-2.43468 0.9143,-4.63624 2.7392,-6.60261 1.8264,-1.96636 4.098,-2.95007 6.8145,-2.95007 h 37.3705 c 2.622,0 4.8465,0.93668 6.6729,2.80929 1.8257,1.87331 2.7393,4.12125 2.7393,6.74339 0,2.71588 -0.9129,4.96416 -2.7393,6.74306 -1.8257,1.77921 -4.0516,2.66919 -6.6729,2.66919 z"
       style="clip-rule:evenodd;fill:#ffffff;fill-rule:nonzero;stroke-width:0.351084;stroke-miterlimit:10"
       id="path1110" />
    <g
       transform="translate(22.214258,208.04834)"
       inkscape:label="#frog"
       id="frog">
      <circle
         id="ellipse1112"
         style="clip-rule:evenodd;fill:#ffffff;fill-rule:evenodd;stroke-width:0.351653;stroke-miterlimit:10"
         cy="998.46198"
         cx="-64.135002"
         r="44" />
      <path
         id="innerfrog"
         style="clip-rule:evenodd;fill:#13a1dc;fill-rule:nonzero;stroke-width:0.351653;stroke-miterlimit:10"
         d="m -49.531201,973.16401 c 2.349734,1.42385 1.102752,5.49072 1.809976,8.17245 0.39633,1.619 0.990975,3.63751 -0.397031,4.98011 -1.292354,1.00047 -3.73143,0.8774 -4.260671,2.41763 -0.680782,1.98227 1.227651,5.14997 3.892186,4.9766 3.308658,-0.91817 5.97209,-3.37938 8.330338,-5.76923 2.333909,-2.38844 1.553869,-4.26522 1.331616,-7.21594 -0.09916,-1.31448 1.061287,-2.9581 2.066684,-2.23229 2.15813,1.55888 -1.302169,5.09159 1.229454,5.77204 2.590617,0.69627 3.74405,-6.70674 6.151476,-3.64876 1.48496,1.88416 -4.303539,3.57913 -2.864552,5.25477 1.295458,1.39958 2.842417,-2.58784 5.235319,-1.14816 0.474054,0.28485 0.854258,1.00363 0.587334,1.49558 -1.403831,2.58045 -4.677033,0.33056 -5.034301,2.43451 -0.416662,2.45349 5.324061,-0.16317 4.886266,3.04672 -0.571809,4.20263 -6.419101,-1.71113 -10.788445,0.71984 -4.32287,2.40496 -6.17291,7.54122 -10.663146,9.51932 -2.609346,1.1502 -4.912607,-1.5811 -7.358794,-2.28545 -0.586532,3.95925 -3.193275,6.94275 -5.771672,9.79605 -2.298353,6.2176 12.778807,-1.7664 10.773621,5.6233 -1.276429,4.704 -7.493709,2.8519 -11.407629,5.5371 -0.523932,3.4694 2.454902,4.8711 4.873545,6.104 3.82598,1.951 1.078214,2.9852 0.126201,2.0287 -2.035034,-2.0466 -2.168246,-0.5823 -1.822597,-0.1969 1.37809,1.5385 0.558388,0.8746 3.367051,3.0056 1.493173,1.133 0.07612,3.1413 -1.355254,2.2358 -2.085314,-2.111 -2.523109,-4.3422 -3.688461,-3.9716 -1.56068,0.5644 0.955118,2.0477 1.908032,5.3455 0.82461,2.8533 -2.98274,3.1449 -2.711609,0.5584 0.302781,-2.8828 -0.854158,-4.6836 -1.532436,-4.6506 -0.914353,0.045 0.870985,5.7133 -1.288547,5.5115 -2.048355,-0.1903 -0.96914,-3.7103 -0.852054,-4.1182 1.199205,-4.191 0.502198,-4.159 -1.453711,-8.054 -0.988871,-1.9706 -6.117021,-5.9197 -3.352327,-7.6671 9.494989,-2.9982 -1.269818,-2.6905 -2.13349,-4.8113 0,-0.3344 -0.03205,-0.3531 -0.321011,-0.1853 -2.269206,0.3119 -7.384735,-9.1648 -5.233717,0.5581 -0.130808,3.2682 -6.114917,0.8017 -8.316616,0.9301 -4.350614,0.2535 -4.671725,-0.365 -7.700838,2.7682 -0.294368,0.3049 -2.803756,2.9993 -3.993346,1.3205 -1.253292,-1.7685 4.547226,-3.057 4.129061,-3.8714 -0.310193,-0.6041 -2.448491,-0.7047 -4.794118,0.9987 -2.103246,1.5283 -3.754266,-1.9158 -0.870984,-2.6279 3.332295,-0.8229 5.875437,0.6143 5.583873,-1.0205 -0.262617,-1.1949 -2.413034,-0.4582 -5.284297,-1.2083 -1.499788,-0.787 -0.469847,-3.0186 1.2589,-2.2917 3.248963,1.3669 2.2654,0.9892 4.286011,1.4136 0.506005,0.1063 1.708315,-0.7402 -1.08242,-1.4804 -1.303972,-0.3457 -1.782132,-3.2423 1.820493,-0.9041 2.277319,1.4776 4.980515,3.3568 7.723074,1.1685 0.368485,-4.7326 -4.344004,-9.19047 -0.908344,-12.64794 5.396877,-5.43128 6.021069,11.61794 10.256299,6.51724 1.18268,-3.65864 2.462714,-7.40868 5.597696,-9.89558 -1.832512,-1.76671 -5.349401,-2.39476 -5.657791,-5.23014 -0.532446,-4.87814 2.991153,-9.0477 2.912428,-13.99407 -0.07913,-4.99981 -8.125012,-7.10694 -4.771282,-9.70355 2.561771,-1.98332 3.165931,4.29652 5.082076,2.7088 1.643712,-1.36197 -1.940784,-3.07205 -0.408549,-5.57688 0.292164,-0.4779 1.104855,-0.50744 1.589125,-0.23983 2.442882,1.35352 -0.236676,4.68615 1.62318,5.10847 2.170749,0.40758 0.745184,-5.45204 3.118856,-5.10918 3.852021,0.55667 -1.98225,5.25724 -0.08413,7.15266 1.855349,1.85215 3.185362,-2.91101 5.61312,-1.82123 1.131999,0.50779 0.288058,2.33464 -0.89983,2.90536 -2.666938,1.2832 -4.68194,1.54623 -5.582872,4.76176 -0.890415,3.23733 -1.690787,6.77425 -0.83062,10.09844 1.181879,2.39511 4.878854,2.46228 6.255241,0.883 1.068698,-1.22868 -0.256708,-3.27882 -0.03706,-4.89853 0.469446,-1.87396 2.514296,-2.36805 4.114739,-2.83468 2.676053,-0.72759 5.574759,-3.84182 7.982886,-2.51821 z"
         inkscape:label="#innerfrog" />
    </g>
    <g
       style="font-style:normal;font-variant:normal;font-weight:normal;font-stretch:normal;font-size:138.667px;line-height:1.25;font-family:'Arista 2.0 Alternate Light';-inkscape-font-specification:'Arista 2.0 Alternate Light, ';letter-spacing:0px;word-spacing:0px;white-space:pre;shape-inside:url(#rect1212);clip-rule:evenodd;fill:#000000;fill-opacity:1;fill-rule:evenodd;stroke:none;stroke-miterlimit:10"
       id="text1210-7"
       transform="matrix(0.4565532,0,0,0.45652316,1054.1214,-460.77265)"
       aria-label="Cloud Edition 2020">
      <path
         id="path1234-5"
         style="font-style:normal;font-variant:normal;font-weight:normal;font-stretch:normal;font-size:138.667px;font-family:'Arista 2.0 Light';-inkscape-font-specification:'Arista 2.0 Light, ';fill:#ffffff"
         d="m 691.48981,3103.1695 q 0,4.8534 1.80267,9.152 1.94134,4.2987 5.13068,7.488 3.18934,3.1894 7.48802,5.1307 4.29868,1.8027 9.15202,1.8027 6.65602,0 12.06403,-3.1893 5.40802,-3.3281 8.45869,-8.5974 0.97067,-1.5253 2.63467,-1.9413 1.80267,-0.416 3.32801,0.416 1.52534,0.9706 1.94134,2.7733 0.416,1.8027 -0.55467,3.4667 -4.16001,7.072 -11.64803,11.3707 -7.34935,4.2987 -16.22404,4.2987 -6.65601,0 -12.6187,-2.4961 -5.82401,-2.496 -10.26135,-6.7946 -4.29868,-4.4374 -6.79469,-10.2614 -2.496,-5.9627 -2.496,-12.6187 v -25.0987 q 0,-6.656 2.496,-12.4801 2.49601,-5.9626 6.79469,-10.2613 4.43734,-4.4374 10.26135,-6.9334 5.96269,-2.6346 12.6187,-2.6346 8.87469,0 16.22404,4.4373 7.48802,4.4374 11.64803,11.648 0.832,1.5254 0.416,3.328 -0.27733,1.8027 -1.80267,2.7734 -1.52534,0.832 -3.32801,0.416 -1.664,-0.416 -2.77334,-2.08 -3.05067,-5.2694 -8.45869,-8.5974 -5.40801,-3.328 -11.92536,-3.328 -4.85334,0 -9.15202,1.9414 -4.29868,1.8026 -7.48802,5.1306 -3.18934,3.1894 -5.13068,7.4881 -1.80267,4.2986 -1.80267,9.152 z" />
      <path
         id="path1236-4"
         style="font-style:normal;font-variant:normal;font-weight:normal;font-stretch:normal;font-size:138.667px;font-family:'Arista 2.0 Light';-inkscape-font-specification:'Arista 2.0 Light, ';fill:#ffffff"
         d="m 777.74051,3131.0416 q 0,1.8026 -1.248,3.0507 -1.24801,1.248 -3.05068,1.248 -6.37868,-0.1387 -10.67736,-2.4961 -4.29867,-2.3573 -7.07201,-5.824 -2.63468,-3.4666 -3.88268,-7.3493 -1.10934,-3.8827 -1.10934,-6.9334 v -62.8161 q 0,-1.8027 1.24801,-3.0507 1.248,-1.248 3.05067,-1.248 1.80267,0 3.05067,1.248 1.24801,1.248 1.24801,3.0507 v 62.8161 q 0,1.1094 0.416,3.328 0.55467,2.2187 2.08,4.5761 1.52534,2.3573 4.29868,4.16 2.77334,1.8026 7.34935,1.9413 1.80267,0 3.05068,1.248 1.248,1.248 1.248,3.0507 z" />
      <path
         id="path1238-8"
         style="font-style:normal;font-variant:normal;font-weight:normal;font-stretch:normal;font-size:138.667px;font-family:'Arista 2.0 Light';-inkscape-font-specification:'Arista 2.0 Light, ';fill:#ffffff"
         d="m 810.04984,3068.2254 q 6.65602,0 12.6187,2.7734 6.10135,2.6346 10.67736,7.2106 4.57601,4.5761 7.21068,10.6774 2.77334,6.1014 2.77334,13.0347 0,6.7947 -2.63467,12.896 -2.63467,5.9627 -7.21068,10.5387 -4.43735,4.576 -10.5387,7.2107 -6.10134,2.6347 -13.17336,2.6347 -6.93335,0 -13.0347,-2.496 -5.96268,-2.496 -10.53869,-6.9334 -4.57601,-4.4373 -7.21069,-10.5387 -2.63467,-6.1013 -2.63467,-13.312 0,-6.9333 2.49601,-12.896 2.63467,-6.1014 7.07201,-10.5387 4.57601,-4.576 10.67736,-7.2107 6.24002,-2.7733 13.4507,-3.0507 z m -25.09873,33.6961 q 0,5.1307 1.94134,9.7067 1.94134,4.4373 5.26935,7.904 3.46667,3.328 7.90402,5.2694 4.57601,1.9413 9.70669,1.9413 5.13068,0 9.70669,-1.9413 4.57601,-1.9414 7.90402,-5.2694 3.46667,-3.4667 5.40801,-7.904 1.94134,-4.576 1.94134,-9.7067 0,-5.1307 -1.94134,-9.7067 -1.94134,-4.576 -5.40801,-7.904 -3.32801,-3.4667 -7.90402,-5.408 -4.57601,-1.9414 -9.70669,-1.9414 -5.13068,0 -9.70669,1.9414 -4.43735,1.9413 -7.90402,5.408 -3.32801,3.328 -5.26935,7.904 -1.94134,4.576 -1.94134,9.7067 z" />
      <path
         id="path1240-1"
         style="font-style:normal;font-variant:normal;font-weight:normal;font-stretch:normal;font-size:138.667px;font-family:'Arista 2.0 Light';-inkscape-font-specification:'Arista 2.0 Light, ';fill:#ffffff"
         d="m 850.12441,3072.2468 q 0,-1.8027 1.248,-3.0507 1.24801,-1.248 3.05068,-1.248 1.80267,0 3.05067,1.248 1.24801,1.248 1.24801,3.0507 v 29.6747 q 0,5.1307 1.94133,9.7067 1.94134,4.4373 5.26935,7.904 3.46667,3.328 7.90402,5.2694 4.57601,1.9413 9.70669,1.9413 5.13068,0 9.56802,-1.9413 4.57601,-1.9414 7.90402,-5.2694 3.46668,-3.4667 5.40802,-7.904 1.94133,-4.576 1.94133,-9.7067 v -29.6747 q 0,-1.8027 1.24801,-3.0507 1.248,-1.248 3.05067,-1.248 1.80267,0 3.05068,1.248 1.248,1.248 1.248,3.0507 v 29.6747 q 0,6.9334 -2.63467,13.0347 -2.63468,6.1014 -7.21069,10.6774 -4.43734,4.4373 -10.53869,7.072 -6.10135,2.6347 -13.0347,2.6347 -6.93335,0 -13.0347,-2.6347 -6.10135,-2.6347 -10.67736,-7.072 -4.43734,-4.576 -7.07202,-10.6774 -2.63467,-6.1013 -2.63467,-13.0347 z" />
      <path
         id="path1242-2"
         style="font-style:normal;font-variant:normal;font-weight:normal;font-stretch:normal;font-size:138.667px;font-family:'Arista 2.0 Light';-inkscape-font-specification:'Arista 2.0 Light, ';fill:#ffffff"
         d="m 955.09523,3068.2254 q 7.76535,0.2774 14.14403,4.0214 6.37869,3.6053 10.9547,8.5973 v -30.6454 q 0,-1.8027 1.248,-3.0507 1.248,-1.248 3.05067,-1.248 1.80268,0 3.05068,1.248 1.248,1.248 1.248,3.0507 v 51.7228 q 0,7.2107 -2.63467,13.312 -2.63468,6.1014 -7.21069,10.5387 -4.57601,4.4374 -10.67736,6.9334 -6.10134,2.496 -12.89603,2.496 -7.07201,0 -13.17336,-2.6347 -6.10135,-2.6347 -10.67736,-7.2107 -4.43735,-4.576 -7.07202,-10.5387 -2.63467,-6.1013 -2.63467,-12.896 0,-6.9333 2.63467,-13.0347 2.77334,-6.1013 7.34935,-10.6774 4.57601,-4.576 10.53869,-7.2106 6.10135,-2.7734 12.75737,-2.7734 z m 25.09873,33.6961 q -0.27734,-5.408 -2.35734,-9.984 -1.94134,-4.576 -5.26935,-7.904 -3.32801,-3.328 -7.76535,-5.1307 -4.43735,-1.9414 -9.42936,-1.9414 -5.13068,0 -9.70669,1.9414 -4.57601,1.9413 -8.04268,5.408 -3.32801,3.328 -5.26935,7.904 -1.94134,4.576 -1.94134,9.7067 0,5.1307 1.94134,9.7067 1.94134,4.4373 5.26935,7.904 3.46667,3.328 8.04268,5.2694 4.57601,1.9413 9.70669,1.9413 5.13068,0 9.56803,-1.9413 4.57601,-1.9414 7.90402,-5.2694 3.46667,-3.4667 5.40801,-7.904 1.94134,-4.576 1.94134,-9.7067 z" />
      <path
         id="path1244-8"
         style="font-style:normal;font-variant:normal;font-weight:normal;font-stretch:normal;font-size:138.667px;font-family:'Arista 2.0 Light';-inkscape-font-specification:'Arista 2.0 Light, ';fill:#ffffff"
         d="m 1033.1644,3050.1987 q 0,-1.8027 1.248,-3.0507 1.248,-1.248 3.0507,-1.248 h 49.0881 q 1.8027,0 3.0507,1.248 1.248,1.248 1.248,3.0507 0,1.8027 -1.248,3.0507 -1.248,1.248 -3.0507,1.248 h -44.7895 v 30.9227 h 32.1708 q 1.8027,0 3.0507,1.248 1.248,1.248 1.248,3.0507 0,1.8027 -1.248,3.0507 -1.248,1.248 -3.0507,1.248 h -32.1708 v 32.7254 h 44.7895 q 1.8027,0 3.0507,1.248 1.248,1.248 1.248,3.0507 0,1.8026 -1.248,3.0507 -1.248,1.248 -3.0507,1.248 h -49.0881 q -1.8027,0 -3.0507,-1.248 -1.248,-1.2481 -1.248,-3.0507 z" />
      <path
         id="path1246-9"
         style="font-style:normal;font-variant:normal;font-weight:normal;font-stretch:normal;font-size:138.667px;font-family:'Arista 2.0 Light';-inkscape-font-specification:'Arista 2.0 Light, ';fill:#ffffff"
         d="m 1119.6925,3068.2254 q 7.7653,0.2774 14.144,4.0214 6.3787,3.6053 10.9547,8.5973 v -30.6454 q 0,-1.8027 1.248,-3.0507 1.248,-1.248 3.0507,-1.248 1.8027,0 3.0507,1.248 1.248,1.248 1.248,3.0507 v 51.7228 q 0,7.2107 -2.6347,13.312 -2.6347,6.1014 -7.2107,10.5387 -4.576,4.4374 -10.6773,6.9334 -6.1014,2.496 -12.8961,2.496 -7.072,0 -13.1733,-2.6347 -6.1014,-2.6347 -10.6774,-7.2107 -4.4373,-4.576 -7.072,-10.5387 -2.6347,-6.1013 -2.6347,-12.896 0,-6.9333 2.6347,-13.0347 2.7733,-6.1013 7.3493,-10.6774 4.576,-4.576 10.5387,-7.2106 6.1014,-2.7734 12.7574,-2.7734 z m 25.0987,33.6961 q -0.2773,-5.408 -2.3573,-9.984 -1.9414,-4.576 -5.2694,-7.904 -3.328,-3.328 -7.7653,-5.1307 -4.4374,-1.9414 -9.4294,-1.9414 -5.1307,0 -9.7067,1.9414 -4.576,1.9413 -8.0427,5.408 -3.328,3.328 -5.2693,7.904 -1.9413,4.576 -1.9413,9.7067 0,5.1307 1.9413,9.7067 1.9413,4.4373 5.2693,7.904 3.4667,3.328 8.0427,5.2694 4.576,1.9413 9.7067,1.9413 5.1307,0 9.568,-1.9413 4.5761,-1.9414 7.9041,-5.2694 3.4666,-3.4667 5.408,-7.904 1.9413,-4.576 1.9413,-9.7067 z" />
      <path
         id="path1248-3"
         style="font-style:normal;font-variant:normal;font-weight:normal;font-stretch:normal;font-size:138.667px;font-family:'Arista 2.0 Light';-inkscape-font-specification:'Arista 2.0 Light, ';fill:#ffffff"
         d="m 1161.2924,3072.3854 q 0,-1.8026 1.248,-3.0506 1.248,-1.248 3.0507,-1.248 1.8026,0 3.0506,1.248 1.248,1.248 1.248,3.0506 v 58.6562 q 0,1.8026 -1.248,3.0507 -1.248,1.248 -3.0506,1.248 -1.8027,0 -3.0507,-1.248 -1.248,-1.2481 -1.248,-3.0507 z m -1.3867,-19.2747 q 0,-2.3573 1.664,-4.0213 1.664,-1.664 4.0214,-1.664 2.3573,0 4.0213,1.664 1.664,1.664 1.664,4.0213 0,2.3574 -1.664,4.0214 -1.664,1.664 -4.0213,1.664 -2.3574,0 -4.0214,-1.664 -1.664,-1.664 -1.664,-4.0214 z" />
      <path
         id="path1250-6"
         style="font-style:normal;font-variant:normal;font-weight:normal;font-stretch:normal;font-size:138.667px;font-family:'Arista 2.0 Light';-inkscape-font-specification:'Arista 2.0 Light, ';fill:#ffffff"
         d="m 1177.6548,3049.9214 q 0,-1.8027 1.248,-3.0507 1.248,-1.248 3.0507,-1.248 1.8027,0 3.0507,1.248 1.248,1.248 1.248,3.0507 v 17.7494 h 30.6454 q 2.2187,0 3.4667,1.248 1.3866,1.248 1.3866,3.0506 0,1.8027 -1.3866,3.0507 -1.248,1.248 -3.4667,1.248 h -30.6454 v 25.6534 q 0,5.1307 1.9413,9.7067 1.9414,4.4373 5.2694,7.904 3.4666,3.328 7.904,5.2694 4.576,1.9413 9.7067,1.9413 5.1307,0 9.568,-1.8027 4.4373,-1.9413 7.7654,-5.2693 1.1093,-1.248 2.7733,-1.3867 1.8027,-0.2773 3.328,0.832 1.1093,1.1093 1.3867,2.7734 0.2773,1.664 -0.6934,3.1893 -4.576,4.8533 -10.816,7.6267 -6.24,2.6347 -13.312,2.6347 -6.9334,0 -13.0347,-2.6347 -6.1014,-2.6347 -10.6774,-7.072 -4.4373,-4.576 -7.072,-10.6774 -2.6347,-6.1013 -2.6347,-13.0347 z" />
      <path
         id="path1252-8"
         style="font-style:normal;font-variant:normal;font-weight:normal;font-stretch:normal;font-size:138.667px;font-family:'Arista 2.0 Light';-inkscape-font-specification:'Arista 2.0 Light, ';fill:#ffffff"
         d="m 1240.3323,3072.3854 q 0,-1.8026 1.248,-3.0506 1.248,-1.248 3.0506,-1.248 1.8027,0 3.0507,1.248 1.248,1.248 1.248,3.0506 v 58.6562 q 0,1.8026 -1.248,3.0507 -1.248,1.248 -3.0507,1.248 -1.8026,0 -3.0506,-1.248 -1.248,-1.2481 -1.248,-3.0507 z m -1.3867,-19.2747 q 0,-2.3573 1.664,-4.0213 1.664,-1.664 4.0213,-1.664 2.3574,0 4.0214,1.664 1.664,1.664 1.664,4.0213 0,2.3574 -1.664,4.0214 -1.664,1.664 -4.0214,1.664 -2.3573,0 -4.0213,-1.664 -1.664,-1.664 -1.664,-4.0214 z" />
      <path
         id="path1254-0"
         style="font-style:normal;font-variant:normal;font-weight:normal;font-stretch:normal;font-size:138.667px;font-family:'Arista 2.0 Light';-inkscape-font-specification:'Arista 2.0 Light, ';fill:#ffffff"
         d="m 1289.5588,3068.2254 q 6.656,0 12.6187,2.7734 6.1013,2.6346 10.6773,7.2106 4.576,4.5761 7.2107,10.6774 2.7734,6.1014 2.7734,13.0347 0,6.7947 -2.6347,12.896 -2.6347,5.9627 -7.2107,10.5387 -4.4374,4.576 -10.5387,7.2107 -6.1013,2.6347 -13.1734,2.6347 -6.9333,0 -13.0347,-2.496 -5.9626,-2.496 -10.5387,-6.9334 -4.576,-4.4373 -7.2106,-10.5387 -2.6347,-6.1013 -2.6347,-13.312 0,-6.9333 2.496,-12.896 2.6347,-6.1014 7.072,-10.5387 4.576,-4.576 10.6774,-7.2107 6.24,-2.7733 13.4507,-3.0507 z m -25.0988,33.6961 q 0,5.1307 1.9414,9.7067 1.9413,4.4373 5.2693,7.904 3.4667,3.328 7.904,5.2694 4.5761,1.9413 9.7067,1.9413 5.1307,0 9.7067,-1.9413 4.576,-1.9414 7.904,-5.2694 3.4667,-3.4667 5.4081,-7.904 1.9413,-4.576 1.9413,-9.7067 0,-5.1307 -1.9413,-9.7067 -1.9414,-4.576 -5.4081,-7.904 -3.328,-3.4667 -7.904,-5.408 -4.576,-1.9414 -9.7067,-1.9414 -5.1306,0 -9.7067,1.9414 -4.4373,1.9413 -7.904,5.408 -3.328,3.328 -5.2693,7.904 -1.9414,4.576 -1.9414,9.7067 z" />
      <path
         id="path1256-2"
         style="font-style:normal;font-variant:normal;font-weight:normal;font-stretch:normal;font-size:138.667px;font-family:'Arista 2.0 Light';-inkscape-font-specification:'Arista 2.0 Light, ';fill:#ffffff"
         d="m 1329.6334,3101.3668 q 0,-6.9333 2.6346,-13.0347 2.6347,-6.1013 7.072,-10.5387 4.5761,-4.576 10.6774,-7.2106 6.1014,-2.6347 13.0347,-2.6347 6.9334,0 13.0347,2.6347 6.1013,2.6346 10.5387,7.2106 4.576,4.4374 7.2107,10.5387 2.6347,6.1014 2.6347,13.0347 v 29.6748 q 0,1.8026 -1.2481,3.0507 -1.248,1.248 -3.0506,1.248 -1.8027,0 -3.0507,-1.248 -1.248,-1.2481 -1.248,-3.0507 v -29.6748 q 0,-5.1306 -1.9413,-9.568 -1.9414,-4.576 -5.4081,-7.904 -3.328,-3.4667 -7.904,-5.408 -4.4373,-1.9414 -9.568,-1.9414 -5.1307,0 -9.7067,1.9414 -4.4373,1.9413 -7.904,5.408 -3.328,3.328 -5.2694,7.904 -1.9413,4.4374 -1.9413,9.568 v 29.6748 q 0,1.8026 -1.248,3.0507 -1.248,1.248 -3.0507,1.248 -1.8026,0 -3.0506,-1.248 -1.248,-1.2481 -1.248,-3.0507 z" />
      <path
         id="path1258-1"
         style="font-style:normal;font-variant:normal;font-weight:normal;font-stretch:normal;font-size:138.667px;font-family:'Arista 2.0 Light';-inkscape-font-specification:'Arista 2.0 Light, ';fill:#ffffff"
         d="m 1440.9827,3089.4415 q 0.1386,-4.4374 2.2187,-8.32 2.08,-3.8827 5.6853,-6.7947 3.6053,-2.912 8.32,-4.576 4.8534,-1.664 10.2614,-1.664 5.408,0 10.2613,1.8026 4.8534,1.664 8.4587,4.576 3.6054,2.912 5.6854,6.9334 2.08,4.0213 2.08,8.5973 0,4.8534 -2.3574,9.0134 -2.3573,4.0213 -6.3786,6.9333 0,0 -0.6934,0.5547 -0.5546,0.416 -3.328,2.3574 -2.7733,1.9413 -8.4587,6.24 -5.6853,4.16 -16.0853,11.648 h 34.944 q 1.8027,0 3.0507,1.248 1.248,1.248 1.248,3.0507 0,1.8026 -1.248,3.0507 -1.248,1.248 -3.0507,1.248 h -47.9787 q -1.8027,0 -3.0507,-1.248 -1.248,-1.2481 -1.248,-3.0507 0,-2.2187 1.664,-3.4667 7.2107,-5.2693 12.7573,-9.2907 5.6854,-4.0213 9.7067,-6.9333 4.16,-3.0507 6.9334,-4.9921 2.912,-2.08 4.8533,-3.4666 4.4374,-3.1894 5.1307,-3.744 2.3573,-1.664 3.744,-4.0214 1.3867,-2.3573 1.3867,-5.1307 0,-2.6346 -1.3867,-5.1306 -1.3867,-2.496 -3.8827,-4.2987 -2.496,-1.8027 -5.824,-2.912 -3.1893,-1.1094 -6.9333,-1.1094 -3.8827,0 -7.2107,1.248 -3.1893,1.1094 -5.6854,3.0507 -2.3573,1.9414 -3.744,4.4374 -1.3866,2.3573 -1.3866,4.7146 0,1.8027 -1.248,3.0507 -1.248,1.1094 -3.0507,1.1094 -1.8027,0 -3.0507,-1.2481 -1.1093,-1.248 -1.1093,-3.4666 z" />
      <path
         id="path1260-0"
         style="font-style:normal;font-variant:normal;font-weight:normal;font-stretch:normal;font-size:138.667px;font-family:'Arista 2.0 Light';-inkscape-font-specification:'Arista 2.0 Light, ';fill:#ffffff"
         d="m 1533.6119,3068.2254 q 6.656,0 12.6187,2.7734 6.1014,2.6346 10.6774,7.2106 4.576,4.5761 7.2107,10.6774 2.7733,6.1014 2.7733,13.0347 0,6.7947 -2.6347,12.896 -2.6346,5.9627 -7.2106,10.5387 -4.4374,4.576 -10.5387,7.2107 -6.1014,2.6347 -13.1734,2.6347 -6.9334,0 -13.0347,-2.496 -5.9627,-2.496 -10.5387,-6.9334 -4.576,-4.4373 -7.2107,-10.5387 -2.6347,-6.1013 -2.6347,-13.312 0,-6.9333 2.4961,-12.896 2.6346,-6.1014 7.072,-10.5387 4.576,-4.576 10.6773,-7.2107 6.24,-2.7733 13.4507,-3.0507 z m -25.0987,33.6961 q 0,5.1307 1.9413,9.7067 1.9414,4.4373 5.2694,7.904 3.4667,3.328 7.904,5.2694 4.576,1.9413 9.7067,1.9413 5.1307,0 9.7067,-1.9413 4.576,-1.9414 7.904,-5.2694 3.4667,-3.4667 5.408,-7.904 1.9414,-4.576 1.9414,-9.7067 0,-5.1307 -1.9414,-9.7067 -1.9413,-4.576 -5.408,-7.904 -3.328,-3.4667 -7.904,-5.408 -4.576,-1.9414 -9.7067,-1.9414 -5.1307,0 -9.7067,1.9414 -4.4373,1.9413 -7.904,5.408 -3.328,3.328 -5.2694,7.904 -1.9413,4.576 -1.9413,9.7067 z" />
      <path
         id="path1262-5"
         style="font-style:normal;font-variant:normal;font-weight:normal;font-stretch:normal;font-size:138.667px;font-family:'Arista 2.0 Light';-inkscape-font-specification:'Arista 2.0 Light, ';fill:#ffffff"
         d="m 1572.5771,3089.4415 q 0.1387,-4.4374 2.2187,-8.32 2.08,-3.8827 5.6853,-6.7947 3.6054,-2.912 8.32,-4.576 4.8534,-1.664 10.2614,-1.664 5.408,0 10.2614,1.8026 4.8533,1.664 8.4586,4.576 3.6054,2.912 5.6854,6.9334 2.08,4.0213 2.08,8.5973 0,4.8534 -2.3573,9.0134 -2.3574,4.0213 -6.3787,6.9333 0,0 -0.6934,0.5547 -0.5546,0.416 -3.328,2.3574 -2.7733,1.9413 -8.4587,6.24 -5.6853,4.16 -16.0853,11.648 h 34.9441 q 1.8026,0 3.0506,1.248 1.248,1.248 1.248,3.0507 0,1.8026 -1.248,3.0507 -1.248,1.248 -3.0506,1.248 h -47.9788 q -1.8027,0 -3.0507,-1.248 -1.248,-1.2481 -1.248,-3.0507 0,-2.2187 1.664,-3.4667 7.2107,-5.2693 12.7574,-9.2907 5.6853,-4.0213 9.7067,-6.9333 4.16,-3.0507 6.9333,-4.9921 2.912,-2.08 4.8534,-3.4666 4.4373,-3.1894 5.1306,-3.744 2.3574,-1.664 3.744,-4.0214 1.3867,-2.3573 1.3867,-5.1307 0,-2.6346 -1.3867,-5.1306 -1.3866,-2.496 -3.8826,-4.2987 -2.496,-1.8027 -5.8241,-2.912 -3.1893,-1.1094 -6.9333,-1.1094 -3.8827,0 -7.2107,1.248 -3.1893,1.1094 -5.6853,3.0507 -2.3574,1.9414 -3.744,4.4374 -1.3867,2.3573 -1.3867,4.7146 0,1.8027 -1.248,3.0507 -1.248,1.1094 -3.0507,1.1094 -1.8027,0 -3.0507,-1.2481 -1.1093,-1.248 -1.1093,-3.4666 z" />
      <path
         id="path1264-1"
         style="font-style:normal;font-variant:normal;font-weight:normal;font-stretch:normal;font-size:138.667px;font-family:'Arista 2.0 Light';-inkscape-font-specification:'Arista 2.0 Light, ';fill:#ffffff"
         d="m 1665.2064,3068.2254 q 6.656,0 12.6186,2.7734 6.1014,2.6346 10.6774,7.2106 4.576,4.5761 7.2107,10.6774 2.7733,6.1014 2.7733,13.0347 0,6.7947 -2.6346,12.896 -2.6347,5.9627 -7.2107,10.5387 -4.4374,4.576 -10.5387,7.2107 -6.1014,2.6347 -13.1734,2.6347 -6.9333,0 -13.0347,-2.496 -5.9627,-2.496 -10.5387,-6.9334 -4.576,-4.4373 -7.2107,-10.5387 -2.6346,-6.1013 -2.6346,-13.312 0,-6.9333 2.496,-12.896 2.6346,-6.1014 7.072,-10.5387 4.576,-4.576 10.6774,-7.2107 6.24,-2.7733 13.4507,-3.0507 z m -25.0988,33.6961 q 0,5.1307 1.9414,9.7067 1.9413,4.4373 5.2693,7.904 3.4667,3.328 7.904,5.2694 4.576,1.9413 9.7067,1.9413 5.1307,0 9.7067,-1.9413 4.576,-1.9414 7.904,-5.2694 3.4667,-3.4667 5.408,-7.904 1.9414,-4.576 1.9414,-9.7067 0,-5.1307 -1.9414,-9.7067 -1.9413,-4.576 -5.408,-7.904 -3.328,-3.4667 -7.904,-5.408 -4.576,-1.9414 -9.7067,-1.9414 -5.1307,0 -9.7067,1.9414 -4.4373,1.9413 -7.904,5.408 -3.328,3.328 -5.2693,7.904 -1.9414,4.576 -1.9414,9.7067 z" />
    </g>
    <flowRoot
       xml:space="preserve"
       id="url-8"
       style="font-style:normal;font-weight:normal;line-height:0.01%;font-family:sans-serif;text-align:end;letter-spacing:0px;word-spacing:0px;text-anchor:end;opacity:1;fill:#000000;fill-opacity:1;stroke:none"
       transform="matrix(1.8789785,0,0,1.8788549,-2034.9167,435.85672)"><flowRegion
         id="flowRegion3817-6"
         style="font-family:sans-serif"><rect
           id="rect3819-0"
           width="486.27167"
           height="22.430193"
           x="790.53937"
           y="312.37131"
           style="font-family:sans-serif;text-align:end;text-anchor:end" /></flowRegion><flowPara
         id="flowPara3821-4"
         style="font-style:normal;font-variant:normal;font-weight:normal;font-stretch:normal;font-size:18px;line-height:125%;font-family:sans-serif;-inkscape-font-specification:Sans;text-align:end;writing-mode:lr-tb;text-anchor:end;fill:#ffffff;fill-opacity:1">22.-23. August 2020</flowPara></flowRoot>
    <path
       sodipodi:nodetypes="cscscscsc"
       inkscape:connector-curvature="0"
       id="animatePath"
       d="m -23.326675,1164.164 c 0,0 141.498995,-479.55655 306.279785,-454.48024 148.97451,22.67087 193.00169,370.20654 193.00169,370.20654 0,0 92.21215,-378.96781 215.85947,-301.2474 101.854,64.02189 122.38218,301.6114 122.38218,301.6114 0,0 109.09706,-396.71979 224.66835,-307.75932 64.9988,50.03245 122.2034,258.86522 122.2034,258.86522 0,0 38.06,-288.26914 208.5967,-291.10302 170.5364,-2.83385 188.8987,184.57192 188.8987,184.57192"
       style="fill:none;stroke:#000000;stroke-width:2.35687px;stroke-linecap:butt;stroke-linejoin:miter;stroke-opacity:1" />
  </g>
</svg>
