<?xml version="1.0" encoding="UTF-8" standalone="no"?>
<svg
   xmlns:dc="http://purl.org/dc/elements/1.1/"
   xmlns:cc="http://creativecommons.org/ns#"
   xmlns:rdf="http://www.w3.org/1999/02/22-rdf-syntax-ns#"
   xmlns:svg="http://www.w3.org/2000/svg"
   xmlns="http://www.w3.org/2000/svg"
   xmlns:xlink="http://www.w3.org/1999/xlink"
   xmlns:sodipodi="http://sodipodi.sourceforge.net/DTD/sodipodi-0.dtd"
   xmlns:inkscape="http://www.inkscape.org/namespaces/inkscape"
   sodipodi:docname="outro.svg"
   inkscape:version="1.0 (4035a4fb49, 2020-05-01)"
   version="1.1"
   id="svg2"
   height="576"
   width="1024">
  <defs
     id="defs4">
    <linearGradient
       id="linearGradient3811">
      <stop
         style="stop-color:#fafbff;stop-opacity:1;"
         offset="0"
         id="stop3819" />
      <stop
         id="stop3815"
         offset="1"
         style="stop-color:#fffbff;stop-opacity:1;" />
    </linearGradient>
    <radialGradient
       id="id12"
       gradientUnits="userSpaceOnUse"
       cx="1.71676"
       cy="9.7279596"
       r="0.29498801"
       fx="1.71676"
       fy="9.7279596">
      <stop
         offset="0"
         style="stop-color:#75C5F0"
         id="stop3151" />
      <stop
         offset="1"
         style="stop-color:#007CC3"
         id="stop3153" />
    </radialGradient>
    <radialGradient
       id="id14"
       gradientUnits="userSpaceOnUse"
       xlink:href="#id12"
       cx="3.27019"
       cy="2.1879101"
       r="0.420028"
       fx="3.27019"
       fy="2.1879101" />
    <linearGradient
       id="linearGradient3382"
       gradientUnits="userSpaceOnUse"
       x1="3.27019"
       y1="1.96386"
       x2="3.27019"
       y2="2.3961301">
      <stop
         offset="0"
         style="stop-opacity:1; stop-color:white"
         id="stop3384" />
      <stop
         offset="1"
         style="stop-opacity:0; stop-color:white"
         id="stop3386" />
    </linearGradient>
    <mask
       id="id6">
      <linearGradient
         id="id7"
         gradientUnits="userSpaceOnUse"
         x1="3.27019"
         y1="1.96386"
         x2="3.27019"
         y2="2.3961301">
        <stop
           offset="0"
           style="stop-opacity:1; stop-color:white"
           id="stop3128" />
        <stop
           offset="1"
           style="stop-opacity:0; stop-color:white"
           id="stop3130" />
      </linearGradient>
      <rect
         style="fill:url(#id7)"
         x="2.9424601"
         y="1.94721"
         width="0.65544897"
         height="0.465563"
         id="rect3132" />
    </mask>
    <inkscape:perspective
       id="perspective3373"
       inkscape:persp3d-origin="0.5 : 0.33333333 : 1"
       inkscape:vp_z="1 : 0.5 : 1"
       inkscape:vp_y="0 : 1000 : 0"
       inkscape:vp_x="0 : 0.5 : 1"
       sodipodi:type="inkscape:persp3d" />
    <inkscape:perspective
       sodipodi:type="inkscape:persp3d"
       inkscape:vp_x="0 : 526.18109 : 1"
       inkscape:vp_y="0 : 1000 : 0"
       inkscape:vp_z="744.09448 : 526.18109 : 1"
       inkscape:persp3d-origin="372.04724 : 350.78739 : 1"
       id="perspective3412" />
    <radialGradient
       id="id12-3"
       gradientUnits="userSpaceOnUse"
       cx="1.71676"
       cy="9.7279596"
       r="0.29498801"
       fx="1.71676"
       fy="9.7279596">
      <stop
         offset="0"
         style="stop-color:#75C5F0"
         id="stop3151-0" />
      <stop
         offset="1"
         style="stop-color:#007CC3"
         id="stop3153-0" />
    </radialGradient>
    <radialGradient
       id="id14-6"
       gradientUnits="userSpaceOnUse"
       xlink:href="#id12-3"
       cx="3.27019"
       cy="2.1879101"
       r="0.420028"
       fx="3.27019"
       fy="2.1879101" />
    <linearGradient
       id="linearGradient3382-2"
       gradientUnits="userSpaceOnUse"
       x1="3.27019"
       y1="1.96386"
       x2="3.27019"
       y2="2.3961301">
      <stop
         offset="0"
         style="stop-opacity:1; stop-color:white"
         id="stop3384-5" />
      <stop
         offset="1"
         style="stop-opacity:0; stop-color:white"
         id="stop3386-2" />
    </linearGradient>
    <mask
       id="id6-4">
      <linearGradient
         id="id7-2"
         gradientUnits="userSpaceOnUse"
         x1="3.27019"
         y1="1.96386"
         x2="3.27019"
         y2="2.3961301">
        <stop
           offset="0"
           style="stop-opacity:1; stop-color:white"
           id="stop3128-9" />
        <stop
           offset="1"
           style="stop-opacity:0; stop-color:white"
           id="stop3130-9" />
      </linearGradient>
      <rect
         style="fill:url(#id7-2)"
         x="2.9424601"
         y="1.94721"
         width="0.65544897"
         height="0.465563"
         id="rect3132-4" />
    </mask>
    <inkscape:perspective
       id="perspective3373-6"
       inkscape:persp3d-origin="0.5 : 0.33333333 : 1"
       inkscape:vp_z="1 : 0.5 : 1"
       inkscape:vp_y="0 : 1000 : 0"
       inkscape:vp_x="0 : 0.5 : 1"
       sodipodi:type="inkscape:persp3d" />
    <inkscape:perspective
       sodipodi:type="inkscape:persp3d"
       inkscape:vp_x="0 : 526.18109 : 1"
       inkscape:vp_y="0 : 1000 : 0"
       inkscape:vp_z="744.09448 : 526.18109 : 1"
       inkscape:persp3d-origin="372.04724 : 350.78739 : 1"
       id="perspective3412-2" />
  </defs>
  <sodipodi:namedview
     inkscape:document-rotation="0"
     inkscape:guide-bbox="true"
     showguides="false"
     inkscape:window-maximized="1"
     inkscape:window-y="27"
     inkscape:window-x="0"
     inkscape:window-height="1016"
     inkscape:window-width="1920"
     showgrid="false"
     inkscape:current-layer="layer1"
     inkscape:document-units="px"
     inkscape:cy="297.21276"
     inkscape:cx="556.97737"
     inkscape:zoom="0.94"
     inkscape:pageshadow="2"
     inkscape:pageopacity="0.0"
     borderopacity="1.0"
     bordercolor="#666666"
     pagecolor="#ffffff"
     id="base">
    <sodipodi:guide
       inkscape:locked="false"
       id="guide3846"
       position="54,576"
       orientation="1,0" />
    <sodipodi:guide
       inkscape:locked="false"
       id="guide3848"
       position="913,541"
       orientation="1,0" />
    <sodipodi:guide
       inkscape:locked="false"
       id="guide3049"
       position="1130.6638,384.66611"
       orientation="0,1" />
    <sodipodi:guide
       inkscape:locked="false"
       id="guide7766"
       orientation="0,1"
       position="285.3176,641.34588" />
    <sodipodi:guide
       inkscape:locked="false"
       id="guide7798"
       orientation="1,0"
       position="290.97446,691.19691" />
    <sodipodi:guide
       inkscape:locked="false"
       id="guide7800"
       orientation="1,0"
       position="426.73896,684.4794" />
    <sodipodi:guide
       inkscape:locked="false"
       id="guide8000"
       orientation="0,1"
       position="524.67326,801.85913" />
  </sodipodi:namedview>
  <metadata
     id="metadata7">
    <rdf:RDF>
      <cc:Work
         rdf:about="">
        <dc:format>image/svg+xml</dc:format>
        <dc:type
           rdf:resource="http://purl.org/dc/dcmitype/StillImage" />
        <dc:title />
      </cc:Work>
    </rdf:RDF>
  </metadata>
  <g
     inkscape:label="Ebene 2"
     id="layer3"
     inkscape:groupmode="layer" />
  <g
     transform="translate(0,-476.36218)"
     id="layer1"
     inkscape:groupmode="layer"
     inkscape:label="Ebene 1">
    <rect
       y="476.40805"
       x="0.054346703"
       height="11.77061"
       width="1024.9558"
       id="rect3809"
       style="fill:#00a2e1;fill-opacity:1" />
    <g
       transform="matrix(1.0009495,0,0,3.8635175,-0.97322136,-1535.9091)"
       id="bar">
      <rect
         style="fill:#00a2e1;fill-opacity:1"
         id="rect3809-1"
         width="1024"
         height="149.19937"
         x="1"
         y="520.72675" />
    </g>
    <path
       id="path1110"
       style="clip-rule:evenodd;opacity:1;fill:#ffffff;fill-rule:nonzero;stroke-width:0.549438;stroke-miterlimit:10"
       d="m 833.11799,660.35717 c 7.03597,0 13.77929,1.28343 20.22824,3.84703 6.44958,2.56528 12.09273,6.15568 16.92819,10.77358 4.8375,4.61571 8.72255,10.07581 11.65281,16.37814 2.93323,6.30354 4.39852,13.1185 4.39852,20.44614 v 40.67239 c 0,3.8113 -1.35558,7.10895 -4.06768,9.8934 -2.71148,2.78447 -6.04613,4.25082 -10.00349,4.39697 -3.95766,0 -7.36524,-1.28179 -10.22351,-3.84757 -2.85843,-2.56521 -4.28788,-5.82601 -4.28788,-9.78297 v -39.57351 c 0,-3.37074 -0.62302,-6.559 -1.86842,-9.56322 -1.24588,-3.00481 -3.00491,-5.60572 -5.27804,-7.80449 -2.27188,-2.19934 -4.9098,-3.9569 -7.91471,-5.27663 -3.00381,-1.31915 -6.26616,-1.97793 -9.78329,-1.97793 -3.22526,0 -6.30372,0.62307 -9.23523,1.86804 -2.93073,1.24606 -5.4962,2.89487 -7.69514,4.94642 -2.19833,2.05152 -3.95705,4.54314 -5.27679,7.47485 -1.31818,2.93169 -1.97813,6.00902 -1.97813,9.23408 v 40.01256 c 0,3.81022 -1.46638,7.14577 -4.39789,10.0027 -2.93089,2.85865 -6.30279,4.28658 -10.11366,4.28658 -3.81071,0 -7.18152,-1.3186 -10.1135,-3.95637 -2.93182,-2.63774 -4.39774,-5.86287 -4.39774,-9.67308 v -39.57351 c 0.14711,-7.32819 1.5764,-14.21681 4.28804,-20.6659 2.7121,-6.44909 6.44958,-12.09216 11.2132,-16.92814 4.76426,-4.83707 10.37047,-8.64786 16.81942,-11.43232 6.45036,-2.78556 13.48509,-4.17724 21.10793,-4.17724 z M 718.2303,691.79549 c -3.36986,0 -6.52219,0.62413 -9.45355,1.8691 -2.93182,1.245 -5.53297,2.96798 -7.805,5.16622 -2.27187,2.19876 -4.06753,4.8008 -5.3868,7.80561 -1.31975,3.00364 -1.9797,6.26446 -1.9797,9.78242 0,3.37174 0.65995,6.5595 1.9797,9.56425 1.31927,3.00367 3.11493,5.64147 5.3868,7.91441 2.27203,2.27183 4.87318,4.06733 7.805,5.38648 2.93136,1.3186 6.08369,1.97844 9.45355,1.97844 3.37253,0 6.55882,-0.65872 9.56482,-1.97844 3.00444,-1.31915 5.60668,-3.11465 7.805,-5.38648 2.19848,-2.27294 3.9572,-4.91074 5.27695,-7.91441 1.31943,-3.00475 1.97813,-6.19251 1.97813,-9.56425 -0.29359,-6.74195 -2.71054,-12.45812 -7.25508,-17.1474 -4.5439,-4.69095 -10.33463,-7.18206 -17.36982,-7.47595 m 0,-28.79946 c 7.18293,0 13.9984,1.39279 20.44735,4.17615 6.44958,2.78553 12.09241,6.59634 16.93038,11.4334 4.83734,4.83599 8.68358,10.47851 11.54294,16.92817 2.85827,6.44906 4.28804,13.41023 4.28804,20.88509 0,7.32813 -1.39393,14.18104 -4.17927,20.55594 -2.78456,6.37602 -6.55772,11.98176 -11.3226,16.81884 -4.76316,4.83654 -10.36922,8.64786 -16.81879,11.43232 -6.45005,2.78446 -13.41216,4.1772 -20.88805,4.1772 -7.32768,0 -14.2178,-1.31914 -20.66613,-3.95801 -6.44958,-2.63777 -12.0935,-6.33809 -16.93037,-11.10155 -4.8364,-4.76402 -8.6479,-10.36973 -11.43199,-16.81939 -2.78582,-6.44909 -4.17755,-13.48439 -4.17755,-21.10535 0,-7.32818 1.35496,-14.17998 4.06659,-20.55602 2.7121,-6.37543 6.44942,-11.94491 11.21383,-16.70889 4.76269,-4.76238 10.40662,-8.57427 16.92928,-11.43179 6.52251,-2.85755 13.52092,-4.43381 20.99634,-4.72611 z m -75.09035,56.50118 c 3.9572,0 7.40062,1.42849 10.3326,4.28657 2.93182,2.85914 4.39727,6.41226 4.39727,10.66314 0,1.46524 -0.25619,2.85807 -0.76919,4.17667 -0.51206,1.31916 -1.1357,2.71193 -1.86936,4.17728 -4.25001,7.47532 -10.25889,13.4481 -18.02931,17.91814 -7.76806,4.4701 -16.12253,6.70511 -25.06433,6.70511 -6.44848,0 -12.67818,-1.28067 -18.68706,-3.84703 -6.01108,-2.56413 -11.3237,-6.08207 -15.94132,-10.55324 -4.61714,-4.47007 -8.282,-9.74668 -10.99301,-15.82876 -2.71038,-6.08206 -4.06753,-12.64156 -4.06753,-19.67687 v -40.45211 c 0,-6.59524 1.28234,-12.8976 3.84718,-18.90662 2.56546,-6.00953 6.11984,-11.32293 10.6639,-15.93975 4.54391,-4.61679 9.82101,-8.28082 15.82973,-10.99278 6.00951,-2.7114 12.45893,-4.06626 19.34811,-4.06626 8.7961,0 17.07701,2.23506 24.84524,6.70512 7.76932,4.4701 13.92531,10.66315 18.46875,18.5775 0.58624,1.02578 1.13632,2.27075 1.64901,3.73721 0.51316,1.46524 0.76919,2.85803 0.76919,4.17664 0,4.10361 -1.46482,7.62155 -4.39727,10.55327 -2.93198,2.93112 -6.44848,4.39647 -10.55389,4.39647 -3.22431,0 -5.86224,-0.84227 -7.91392,-2.52791 -2.05278,-1.6851 -3.88521,-3.77339 -5.49729,-6.2656 -1.75872,-2.93059 -4.14014,-5.27658 -7.14505,-7.03531 -3.00507,-1.75871 -6.41327,-2.63777 -10.22477,-2.63777 -2.78472,0 -5.38587,0.5137 -7.80454,1.53948 -2.4182,1.02686 -4.54406,2.45536 -6.37649,4.28769 -1.83133,1.8312 -3.29787,3.9926 -4.39664,6.48476 -1.10065,2.49221 -1.64902,5.12994 -1.64902,7.91441 v 40.45209 c 0,2.78556 0.54947,5.42387 1.64902,7.91494 1.10002,2.49161 2.56531,4.65413 4.39664,6.4859 1.83243,1.83229 3.95782,3.26075 6.37649,4.28708 2.41867,1.02579 5.01982,1.54005 7.80454,1.54005 3.8115,0 7.18292,-0.8791 10.11428,-2.63887 2.93182,-1.75817 5.35065,-4.10307 7.25554,-7.03475 1.61208,-2.49107 3.29787,-4.54427 5.05675,-6.15568 1.75872,-1.61203 4.61809,-2.41857 8.57575,-2.41857 z M 496.81128,656.62003 c -3.51759,0 -6.48526,1.28347 -8.90393,3.84701 -2.41867,2.56525 -3.70163,5.75298 -3.84843,9.5643 0.14711,3.37068 1.42867,6.26557 3.84843,8.68412 2.41867,2.41853 5.38634,3.6267 8.90393,3.6267 h 14.95131 c 5.42358,0 10.66312,1.09941 15.72034,3.29763 5.05722,2.1993 9.56325,5.24094 13.52154,9.12421 3.95673,3.88325 7.10828,8.42811 9.45402,13.63056 2.34512,5.20298 3.5176,10.73563 3.5176,16.59958 0,5.71616 -1.10002,11.13837 -3.29725,16.26828 -2.19895,5.12996 -5.20386,9.60001 -9.01551,13.41024 -3.81056,3.81131 -8.28029,6.85183 -13.41122,9.12369 -5.13014,2.27294 -10.62743,3.48221 -16.48952,3.62777 h -39.13675 c -4.39665,0 -7.98733,-1.42847 -10.77314,-4.28658 -2.78456,-2.8586 -4.17755,-6.41221 -4.17755,-10.66309 0,-3.95748 1.42867,-7.40068 4.28694,-10.33295 2.85937,-2.9317 6.41374,-4.39696 10.66375,-4.39696 h 39.13675 c 3.3708,0 6.37524,-1.245 9.01426,-3.73773 2.63855,-2.49103 3.9572,-5.49585 3.9572,-9.01267 0,-3.6646 -1.2825,-6.70622 -3.84734,-9.12477 -2.56531,-2.41853 -5.53407,-3.70032 -8.90502,-3.84701 h -15.17041 c -5.57037,-0.14742 -10.91993,-1.31864 -16.05023,-3.51794 -5.12968,-2.19821 -9.63681,-5.16675 -13.52202,-8.90331 -3.88411,-3.73829 -6.99841,-8.17156 -9.34353,-13.30148 -2.34558,-5.12992 -3.51806,-10.69991 -3.51806,-16.70895 0,-5.42328 1.0983,-10.69882 3.29771,-15.82876 2.19848,-5.12993 5.24017,-9.67302 9.12428,-13.63163 3.88411,-3.95688 8.3925,-7.14463 13.52217,-9.56316 5.13031,-2.41856 10.6265,-3.62675 16.48968,-3.62675 h 39.13551 c 3.95766,0 7.32862,1.42851 10.11381,4.28658 2.78565,2.85811 4.32418,6.41175 4.61824,10.6626 0,4.25082 -1.39408,7.76823 -4.17927,10.55326 -2.78346,2.78442 -6.30168,4.17612 -10.55278,4.17612 H 496.81128 Z M 253.67666,767.64446 c -3.95814,0 -7.25601,-1.28345 -9.89393,-3.84811 -2.63793,-2.56417 -4.3979,-5.96181 -4.3979,-10.22308 v -40.67239 c 0,-7.03644 1.64949,-13.66624 4.50776,-19.89615 2.85717,-6.22819 6.66867,-11.65204 11.43199,-16.26828 4.76425,-4.61672 10.33463,-8.2814 16.71112,-10.99276 6.37524,-2.71029 13.15112,-4.3212 20.33702,-4.50687 4.10117,-0.10642 7.51219,1.39277 10.22367,4.17774 2.71101,2.78445 4.36096,6.148 4.50666,10.11263 0.14554,3.9542 -1.39283,7.29246 -4.17754,10.0027 -2.7841,2.71143 -6.22751,4.20746 -10.3337,4.28771 -3.37017,0.0663 -6.52188,0.62356 -9.45386,1.86856 -2.93073,1.24552 -5.49729,2.96742 -7.69561,5.16672 -2.19848,2.19823 -3.9572,4.79972 -5.27584,7.80452 -1.31928,3.00475 -1.97923,6.26671 -1.97923,9.78351 v 40.01256 c 0,3.82064 -1.72257,6.96222 -4.28678,9.4533 -2.56484,2.49161 -5.97367,3.73769 -10.22477,3.73769 z M 184.96014,656.62003 v 29.89996 h 28.80307 c 4.25,0 7.76869,1.46641 10.55388,4.39644 2.78362,2.93172 4.17755,6.44961 4.17755,10.55324 0,4.10307 -1.39283,7.58525 -4.17755,10.44225 -2.78566,2.85807 -6.30388,4.28655 -10.55388,4.28655 h -28.80307 v 36.27598 c 0,4.24976 -1.42851,7.80505 -4.28678,10.66309 -2.85827,2.85703 -6.41264,4.28658 -10.66265,4.28658 -4.25125,0 -7.80735,-1.42847 -10.66453,-4.28658 -2.85827,-2.85804 -4.28678,-6.41221 -4.28678,-10.66309 V 641.89009 c 0,-3.81021 1.43086,-7.2556 4.28678,-10.33292 2.85828,-3.07731 6.41328,-4.61679 10.66453,-4.61679 h 58.48393 c 4.10336,0 7.58465,1.46588 10.44292,4.39647 2.85718,2.93169 4.28694,6.44966 4.28694,10.55324 0,4.25029 -1.42867,7.76879 -4.28694,10.55273 -2.85717,2.78442 -6.34065,4.17721 -10.44292,4.17721 z" />
    <g
       transform="translate(-366.71206,-8)"
       id="g4680">
      <text
         xml:space="preserve"
         style="font-style:normal;font-variant:normal;font-weight:normal;font-stretch:normal;font-size:9.25517px;line-height:0%;font-family:'Open Sans';-inkscape-font-specification:'Open Sans, Normal';font-variant-ligatures:normal;font-variant-caps:normal;font-variant-numeric:normal;font-feature-settings:normal;text-align:start;letter-spacing:0px;word-spacing:0px;writing-mode:lr-tb;text-anchor:start;fill:#ffffff;fill-opacity:1;stroke:none;stroke-width:0.771264"
         x="764.92072"
         y="1015.8785"
         id="text3062-4"><tspan
           sodipodi:role="line"
           id="tspan3064-8"
           x="764.92072"
           y="1015.8785"
           style="font-style:normal;font-variant:normal;font-weight:normal;font-stretch:normal;font-size:10.2835px;line-height:125%;font-family:'Open Sans';-inkscape-font-specification:'Open Sans, Normal';font-variant-ligatures:normal;font-variant-caps:normal;font-variant-numeric:normal;font-feature-settings:normal;text-align:start;writing-mode:lr-tb;text-anchor:start;fill:#ffffff;fill-opacity:1;stroke-width:0.771264">Creative Commons Attribution 4.0 International </tspan><tspan
           sodipodi:role="line"
           x="764.92072"
           y="1028.7329"
           style="font-style:normal;font-variant:normal;font-weight:normal;font-stretch:normal;font-size:10.2835px;line-height:125%;font-family:'Open Sans';-inkscape-font-specification:'Open Sans, Normal';font-variant-ligatures:normal;font-variant-caps:normal;font-variant-numeric:normal;font-feature-settings:normal;text-align:start;writing-mode:lr-tb;text-anchor:start;fill:#ffffff;fill-opacity:1;stroke-width:0.771264"
           id="tspan492">  http://creativecommons.org/licenses/by/4.0/</tspan></text>
      <g
         id="license"
         transform="matrix(0.47397866,0,0,0.47397866,648.37531,619.29603)">
        <g
           transform="matrix(2.404762,0,0,2.404762,-253.42861,-1037.1755)"
           id="g3607">
          <g
             id="surface1"
             transform="translate(258.00002,728.36216)">
            <path
               inkscape:connector-curvature="0"
               style="fill:#a8b0ab;fill-opacity:1;fill-rule:nonzero;stroke:none"
               d="m 3.40625,0.476563 113.35547,0.203125 c 1.58594,0 3,-0.238282 3,3.160156 l -0.14063,37.328125 H 0.546875 V 3.699219 c 0,-1.671875 0.164063,-3.222656 2.859375,-3.222656 z"
               id="path3511" />
            <path
               inkscape:connector-curvature="0"
               style="fill:#ffffff;fill-opacity:1;fill-rule:nonzero;stroke:none"
               d="m 34.523438,19.574219 c 0.0039,7.53125 -6.097657,13.636719 -13.628907,13.644531 -7.527343,0.0039 -13.636718,-6.097656 -13.640625,-13.625 0,-0.0078 0,-0.01172 0,-0.01953 -0.00391,-7.527345 6.09375,-13.63672 13.625,-13.640626 7.53125,-0.00391 13.640625,6.097656 13.644532,13.625 0,0.0039 0,0.01172 0,0.01563 z"
               id="path3513" />
            <path
               inkscape:connector-curvature="0"
               style="fill:#000000;fill-opacity:1;fill-rule:nonzero;stroke:none"
               d="m 31.972656,8.46875 c 3.023438,3.027344 4.535157,6.726563 4.535157,11.105469 0,4.382812 -1.488282,8.042969 -4.457032,10.988281 -3.15625,3.101563 -6.882812,4.652344 -11.183593,4.652344 -4.25,0 -7.910157,-1.535156 -10.984375,-4.613281 -3.078125,-3.074219 -4.617188,-6.75 -4.617188,-11.027344 0,-4.273438 1.539063,-7.976563 4.617188,-11.105469 2.996093,-3.023437 6.65625,-4.535156 10.984375,-4.535156 4.378906,0 8.082031,1.511719 11.105468,4.535156 z m -20.054687,2.035156 c -2.558594,2.582032 -3.835938,5.605469 -3.835938,9.074219 0,3.46875 1.265625,6.46875 3.796875,8.996094 2.527344,2.53125 5.539063,3.796875 9.035157,3.796875 3.496093,0 6.53125,-1.277344 9.113281,-3.835938 2.453125,-2.371093 3.679687,-5.355468 3.679687,-8.957031 0,-3.570312 -1.246093,-6.601562 -3.738281,-9.09375 C 27.480469,7.996094 24.460938,6.75 20.914063,6.75 17.367188,6.75 14.367188,8 11.917969,10.503906 Z m 6.726562,7.550782 c -0.390625,-0.851563 -0.976562,-1.277344 -1.757812,-1.277344 -1.375,0 -2.066406,0.925781 -2.066406,2.78125 0,1.855469 0.691406,2.785156 2.066406,2.785156 0.910156,0 1.5625,-0.453125 1.953125,-1.359375 L 20.75,22.003906 c -0.910156,1.617188 -2.277344,2.425782 -4.097656,2.425782 -1.40625,0 -2.53125,-0.429688 -3.378906,-1.289063 -0.847657,-0.863281 -1.269532,-2.050781 -1.269532,-3.566406 0,-1.488281 0.4375,-2.667969 1.308594,-3.542969 0.871094,-0.875 1.957031,-1.3125 3.261719,-1.3125 1.925781,0 3.304687,0.761719 4.136719,2.277344 z m 8.988282,0 c -0.390625,-0.851563 -0.964844,-1.277344 -1.71875,-1.277344 -1.40625,0 -2.109375,0.925781 -2.109375,2.78125 0,1.855469 0.703125,2.785156 2.109375,2.785156 0.910156,0 1.550781,-0.453125 1.914062,-1.359375 l 1.953125,1.019531 c -0.910156,1.617188 -2.273437,2.425782 -4.089844,2.425782 -1.40625,0 -2.527343,-0.429688 -3.375,-1.289063 -0.839843,-0.863281 -1.265625,-2.050781 -1.265625,-3.566406 0,-1.488281 0.429688,-2.667969 1.289063,-3.542969 0.855469,-0.875 1.945312,-1.3125 3.273437,-1.3125 1.921875,0 3.296875,0.761719 4.128907,2.277344 z"
               id="path3515" />
            <path
               inkscape:connector-curvature="0"
               style="fill:#000000;fill-opacity:1;fill-rule:nonzero;stroke:none"
               d="M 117.75391,0 H 2.246094 C 1.007813,0 0,1.007813 0,2.246094 V 41.492188 C 0,41.773438 0.226563,42 0.507813,42 H 119.49219 C 119.77344,42 120,41.773438 120,41.492188 V 2.246094 C 120,1.007813 118.99219,0 117.75391,0 Z M 2.246094,1.015625 H 117.75391 c 0.67968,0 1.23047,0.550781 1.23047,1.230469 0,0 0,15.820312 0,27.246094 H 36.429688 c -3.027344,5.46875 -8.859375,9.183593 -15.546875,9.183593 -6.695313,0 -12.523438,-3.710937 -15.546875,-9.183593 H 1.015625 c 0,-11.425782 0,-27.246094 0,-27.246094 0,-0.679688 0.550781,-1.230469 1.230469,-1.230469 z"
               id="path3517" />
            <path
               inkscape:connector-curvature="0"
               style="fill:#ffffff;fill-opacity:1;fill-rule:nonzero;stroke:none"
               d="m 74.882669,32.746094 c 0.316406,0 0.605469,0.03125 0.863281,0.08594 0.261719,0.05469 0.484375,0.144532 0.671875,0.273438 0.183594,0.125 0.328125,0.292969 0.429688,0.503906 0.101562,0.210938 0.152343,0.46875 0.152343,0.777344 0,0.335937 -0.07422,0.613281 -0.226562,0.835937 -0.152344,0.222657 -0.375,0.40625 -0.671875,0.546875 0.410156,0.117188 0.714844,0.324219 0.914062,0.617188 0.203125,0.292969 0.304688,0.648437 0.304688,1.0625 0,0.332031 -0.06641,0.621094 -0.195313,0.867187 -0.128906,0.242188 -0.304687,0.445313 -0.523437,0.597657 -0.222656,0.15625 -0.472656,0.269531 -0.753906,0.34375 -0.28125,0.07422 -0.570313,0.113281 -0.871094,0.113281 h -3.214844 v -6.625 z m -0.1875,2.679687 c 0.261719,0 0.476562,-0.0625 0.644531,-0.183593 0.164063,-0.125 0.25,-0.324219 0.25,-0.601563 0,-0.15625 -0.02734,-0.28125 -0.08594,-0.378906 -0.05469,-0.101563 -0.128907,-0.175781 -0.222657,-0.234375 -0.09375,-0.05469 -0.199218,-0.09375 -0.320312,-0.113281 -0.121094,-0.02344 -0.246094,-0.03516 -0.375,-0.03516 H 73.22251 v 1.546875 z m 0.08594,2.808594 c 0.144532,0 0.28125,-0.01172 0.410157,-0.03906 0.128906,-0.02734 0.246093,-0.07422 0.34375,-0.140625 0.09766,-0.0625 0.179687,-0.152344 0.238281,-0.265625 0.05859,-0.109375 0.08594,-0.25 0.08594,-0.425782 0,-0.339843 -0.09375,-0.582031 -0.285156,-0.726562 -0.195312,-0.144531 -0.449219,-0.21875 -0.765625,-0.21875 h -1.585937 v 1.816406 z"
               id="path3523" />
            <path
               inkscape:connector-curvature="0"
               style="fill:#ffffff;fill-opacity:1;fill-rule:nonzero;stroke:none"
               d="m 77.577981,32.746094 h 1.632813 l 1.550781,2.617187 1.539063,-2.617187 h 1.625 l -2.457032,4.082031 v 2.542969 h -1.460937 v -2.582031 z"
               id="path3525" />
            <path
               inkscape:connector-curvature="0"
               style="fill:#ffffff;fill-opacity:1;fill-rule:nonzero;stroke:none"
               d="m 88.984231,15.21875 c 0,5.929688 -4.808593,10.734375 -10.738281,10.734375 -5.929687,0 -10.738281,-4.804687 -10.738281,-10.734375 0,-5.933594 4.808594,-10.738281 10.738281,-10.738281 5.929688,0 10.738281,4.804687 10.738281,10.738281 z"
               id="path3533" />
            <path
               inkscape:connector-curvature="0"
               style="fill:#000000;fill-opacity:1;fill-rule:nonzero;stroke:none"
               d="m 81.355325,12.109375 c 0,-0.414062 -0.335937,-0.75 -0.75,-0.75 h -4.742187 c -0.414063,0 -0.75,0.335938 -0.75,0.75 v 4.742188 h 1.324218 v 5.617187 h 3.59375 v -5.617187 h 1.324219 z"
               id="path3535" />
            <path
               inkscape:connector-curvature="0"
               style="fill:#000000;fill-opacity:1;fill-rule:nonzero;stroke:none"
               d="m 79.855325,9.113281 c 0,0.898438 -0.726562,1.621094 -1.621094,1.621094 -0.894531,0 -1.621093,-0.722656 -1.621093,-1.621094 0,-0.894531 0.726562,-1.621093 1.621093,-1.621093 0.894532,0 1.621094,0.726562 1.621094,1.621093 z"
               id="path3537" />
            <path
               inkscape:connector-curvature="0"
               style="fill:#000000;fill-opacity:1;fill-rule:evenodd;stroke:none"
               d="m 78.218606,3.386719 c -3.210937,0 -5.929687,1.121094 -8.15625,3.363281 -2.285156,2.316406 -3.425781,5.0625 -3.425781,8.230469 0,3.167969 1.140625,5.894531 3.425781,8.175781 2.285157,2.277344 5.003907,3.417969 8.15625,3.417969 3.191407,0 5.960938,-1.148438 8.300782,-3.449219 2.207031,-2.183594 3.308593,-4.898437 3.308593,-8.144531 C 89.827981,11.734375 88.706888,8.988281 86.4647,6.75 84.218606,4.507813 81.468606,3.386719 78.218606,3.386719 Z m 0.02734,2.085937 c 2.632813,0 4.867188,0.925782 6.707031,2.78125 1.859375,1.835938 2.789063,4.078125 2.789063,6.726563 0,2.667969 -0.910156,4.878906 -2.730469,6.636719 -1.917969,1.894531 -4.171875,2.839843 -6.765625,2.839843 -2.589844,0 -4.828125,-0.933593 -6.703125,-2.808593 -1.878906,-1.875 -2.816406,-4.097657 -2.816406,-6.667969 0,-2.570313 0.949219,-4.8125 2.84375,-6.726563 1.820312,-1.855468 4.046875,-2.78125 6.675781,-2.78125 z"
               id="path3539" />
          </g>
        </g>
      </g>
    </g>
    <g
       transform="matrix(1.5649757,0,0,1.5649757,-1989.5833,-662.83894)"
       style="opacity:1"
       id="frog-8"
       inkscape:label="#frog">
      <ellipse
         ry="43.927185"
         rx="43.930077"
         cx="1514.2871"
         cy="870.44672"
         style="clip-rule:evenodd;fill:#ffffff;fill-rule:evenodd;stroke-width:0.351083;stroke-miterlimit:10"
         id="ellipse1112" />
      <path
         inkscape:label="#innerfrog"
         d="m 1528.8677,845.19063 c 2.346,1.4215 1.101,5.48164 1.8071,8.15893 0.3957,1.61632 0.9894,3.63149 -0.3964,4.97187 -1.2903,0.99881 -3.7255,0.87594 -4.2539,2.41363 -0.6797,1.97899 1.2257,5.14144 3.886,4.96836 3.3034,-0.91665 5.9626,-3.37379 8.3171,-5.75968 2.3302,-2.38449 1.5514,-4.25816 1.3295,-7.204 -0.099,-1.31231 1.0596,-2.95321 2.0634,-2.2286 2.1547,1.5563 -1.3001,5.08317 1.2275,5.76249 2.5865,0.69512 3.7381,-6.69564 6.1417,-3.64272 1.4826,1.88104 -4.2967,3.57321 -2.86,5.24607 1.2934,1.39727 2.8379,-2.58355 5.227,-1.14626 0.4733,0.28438 0.8529,1.00197 0.5864,1.49311 -1.4016,2.57618 -4.6696,0.33001 -5.0263,2.43048 -0.416,2.44943 5.3156,-0.1629 4.8785,3.04168 -0.5709,4.19567 -6.4089,-1.7083 -10.7713,0.71865 -4.316,2.40098 -6.1631,7.52874 -10.6462,9.50352 -2.6052,1.14835 -4.9048,-1.57842 -7.3471,-2.28162 -0.5856,3.95272 -3.1882,6.93122 -5.7625,9.77981 -2.2947,6.20731 12.7585,-1.76342 10.7565,5.614 -1.2744,4.69628 -7.4818,2.84719 -11.3895,5.52798 -0.5231,3.46368 2.451,4.86304 4.8658,6.09391 3.8199,1.94774 1.0765,2.98024 0.126,2.02533 -2.0318,-2.04323 -2.1648,-0.58138 -1.8197,-0.1966 1.3759,1.53595 0.5575,0.87312 3.3617,3.00062 1.4908,1.13115 0.076,3.13612 -1.3531,2.23211 -2.082,-2.10749 -2.5191,-4.33504 -3.6826,-3.96501 -1.5582,0.56347 0.9536,2.0443 1.905,5.33665 0.8233,2.8486 -2.978,3.13964 -2.7073,0.5575 0.3023,-2.87808 -0.8528,-4.67592 -1.53,-4.64292 -0.9129,0.0446 0.8696,5.70387 -1.2865,5.50235 -2.0451,-0.18994 -0.9676,-3.70416 -0.8507,-4.11141 1.1973,-4.18408 0.5014,-4.15213 -1.4514,-8.04061 -0.9873,-1.96739 -6.1073,-5.90993 -3.347,-7.65442 9.4799,-2.99323 -1.2678,-2.68604 -2.1301,-4.80336 0,-0.33388 -0.032,-0.35247 -0.3205,-0.18501 -2.2656,0.31139 -7.373,-9.14964 -5.2254,0.55715 -0.1306,3.26286 -6.1052,0.80044 -8.3034,0.92858 -4.3437,0.25312 -4.6643,-0.36442 -7.6886,2.76364 -0.2939,0.30437 -2.7993,2.99429 -3.987,1.31828 -1.2513,-1.76555 4.54,-3.05187 4.1225,-3.86495 -0.3097,-0.60315 -2.4446,-0.70355 -4.7865,0.99704 -2.0999,1.52576 -3.7483,-1.91264 -0.8696,-2.62357 3.327,-0.82151 5.8661,0.61333 5.575,-1.0188 -0.2622,-1.19295 -2.4092,-0.45746 -5.2759,-1.20629 -1.4974,-0.7857 -0.4691,-3.01361 1.2569,-2.28794 3.2438,1.36462 2.2618,0.98756 4.2792,1.41131 0.5052,0.10606 1.7056,-0.739 -1.0807,-1.478 -1.3019,-0.34511 -1.7793,-3.23689 1.8176,-0.90261 2.2737,1.4752 4.9726,3.35133 7.7108,1.16661 0.3679,-4.72473 -4.3371,-9.17527 -0.9069,-12.62702 5.3883,-5.42229 6.0115,11.59873 10.24,6.50642 1.1808,-3.65255 2.4588,-7.39638 5.5888,-9.87916 -1.8296,-1.76379 -5.3409,-2.3908 -5.6488,-5.22149 -0.5316,-4.87007 2.9864,-9.03273 2.9078,-13.97091 -0.079,-4.99154 -8.1121,-7.09518 -4.7637,-9.68749 2.5577,-1.98004 3.1609,4.28941 5.074,2.70431 1.6411,-1.35971 -1.9377,-3.06696 -0.4079,-5.56765 0.2917,-0.47711 1.1031,-0.5066 1.5866,-0.23943 2.439,1.35128 -0.2363,4.67839 1.6206,5.10002 2.1673,0.4069 0.744,-5.44302 3.1139,-5.10073 3.8459,0.55575 -1.9791,5.24854 -0.084,7.14082 1.8524,1.84909 3.1803,-2.90619 5.6042,-1.81821 1.1302,0.50695 0.2876,2.33077 -0.8984,2.90055 -2.6627,1.28108 -4.6745,1.54367 -5.574,4.75388 -0.889,3.23197 -1.6881,6.76304 -0.8293,10.08173 1.18,2.39115 4.8711,2.4582 6.2453,0.88154 1.067,-1.22665 -0.2563,-3.2734 -0.037,-4.89043 0.4687,-1.87086 2.5103,-2.36413 4.1082,-2.82999 2.6718,-0.72638 5.5659,-3.83546 7.9702,-2.51404 z"
         style="clip-rule:evenodd;fill:#13a1dc;fill-rule:nonzero;stroke-width:0.351083;stroke-miterlimit:10"
         id="innerfrog" />
    </g>
    <g
       aria-label="Cloud Edition 2020"
       transform="matrix(0.71449466,0,0,0.71444765,-339.90908,-1383.937)"
       id="text1210-7"
       style="font-style:normal;font-variant:normal;font-weight:normal;font-stretch:normal;font-size:138.667px;line-height:1.25;font-family:'Arista 2.0 Alternate Light';-inkscape-font-specification:'Arista 2.0 Alternate Light, ';letter-spacing:0px;word-spacing:0px;white-space:pre;shape-inside:url(#rect1212);clip-rule:evenodd;opacity:1;fill:#000000;fill-opacity:1;fill-rule:evenodd;stroke:none;stroke-miterlimit:10">
      <path
         d="m 691.48981,3103.1695 q 0,4.8534 1.80267,9.152 1.94134,4.2987 5.13068,7.488 3.18934,3.1894 7.48802,5.1307 4.29868,1.8027 9.15202,1.8027 6.65602,0 12.06403,-3.1893 5.40802,-3.3281 8.45869,-8.5974 0.97067,-1.5253 2.63467,-1.9413 1.80267,-0.416 3.32801,0.416 1.52534,0.9706 1.94134,2.7733 0.416,1.8027 -0.55467,3.4667 -4.16001,7.072 -11.64803,11.3707 -7.34935,4.2987 -16.22404,4.2987 -6.65601,0 -12.6187,-2.4961 -5.82401,-2.496 -10.26135,-6.7946 -4.29868,-4.4374 -6.79469,-10.2614 -2.496,-5.9627 -2.496,-12.6187 v -25.0987 q 0,-6.656 2.496,-12.4801 2.49601,-5.9626 6.79469,-10.2613 4.43734,-4.4374 10.26135,-6.9334 5.96269,-2.6346 12.6187,-2.6346 8.87469,0 16.22404,4.4373 7.48802,4.4374 11.64803,11.648 0.832,1.5254 0.416,3.328 -0.27733,1.8027 -1.80267,2.7734 -1.52534,0.832 -3.32801,0.416 -1.664,-0.416 -2.77334,-2.08 -3.05067,-5.2694 -8.45869,-8.5974 -5.40801,-3.328 -11.92536,-3.328 -4.85334,0 -9.15202,1.9414 -4.29868,1.8026 -7.48802,5.1306 -3.18934,3.1894 -5.13068,7.4881 -1.80267,4.2986 -1.80267,9.152 z"
         style="font-style:normal;font-variant:normal;font-weight:normal;font-stretch:normal;font-size:138.667px;font-family:'Arista 2.0 Light';-inkscape-font-specification:'Arista 2.0 Light, ';fill:#ffffff"
         id="path1234-5" />
      <path
         d="m 777.74051,3131.0416 q 0,1.8026 -1.248,3.0507 -1.24801,1.248 -3.05068,1.248 -6.37868,-0.1387 -10.67736,-2.4961 -4.29867,-2.3573 -7.07201,-5.824 -2.63468,-3.4666 -3.88268,-7.3493 -1.10934,-3.8827 -1.10934,-6.9334 v -62.8161 q 0,-1.8027 1.24801,-3.0507 1.248,-1.248 3.05067,-1.248 1.80267,0 3.05067,1.248 1.24801,1.248 1.24801,3.0507 v 62.8161 q 0,1.1094 0.416,3.328 0.55467,2.2187 2.08,4.5761 1.52534,2.3573 4.29868,4.16 2.77334,1.8026 7.34935,1.9413 1.80267,0 3.05068,1.248 1.248,1.248 1.248,3.0507 z"
         style="font-style:normal;font-variant:normal;font-weight:normal;font-stretch:normal;font-size:138.667px;font-family:'Arista 2.0 Light';-inkscape-font-specification:'Arista 2.0 Light, ';fill:#ffffff"
         id="path1236-4" />
      <path
         d="m 810.04984,3068.2254 q 6.65602,0 12.6187,2.7734 6.10135,2.6346 10.67736,7.2106 4.57601,4.5761 7.21068,10.6774 2.77334,6.1014 2.77334,13.0347 0,6.7947 -2.63467,12.896 -2.63467,5.9627 -7.21068,10.5387 -4.43735,4.576 -10.5387,7.2107 -6.10134,2.6347 -13.17336,2.6347 -6.93335,0 -13.0347,-2.496 -5.96268,-2.496 -10.53869,-6.9334 -4.57601,-4.4373 -7.21069,-10.5387 -2.63467,-6.1013 -2.63467,-13.312 0,-6.9333 2.49601,-12.896 2.63467,-6.1014 7.07201,-10.5387 4.57601,-4.576 10.67736,-7.2107 6.24002,-2.7733 13.4507,-3.0507 z m -25.09873,33.6961 q 0,5.1307 1.94134,9.7067 1.94134,4.4373 5.26935,7.904 3.46667,3.328 7.90402,5.2694 4.57601,1.9413 9.70669,1.9413 5.13068,0 9.70669,-1.9413 4.57601,-1.9414 7.90402,-5.2694 3.46667,-3.4667 5.40801,-7.904 1.94134,-4.576 1.94134,-9.7067 0,-5.1307 -1.94134,-9.7067 -1.94134,-4.576 -5.40801,-7.904 -3.32801,-3.4667 -7.90402,-5.408 -4.57601,-1.9414 -9.70669,-1.9414 -5.13068,0 -9.70669,1.9414 -4.43735,1.9413 -7.90402,5.408 -3.32801,3.328 -5.26935,7.904 -1.94134,4.576 -1.94134,9.7067 z"
         style="font-style:normal;font-variant:normal;font-weight:normal;font-stretch:normal;font-size:138.667px;font-family:'Arista 2.0 Light';-inkscape-font-specification:'Arista 2.0 Light, ';fill:#ffffff"
         id="path1238-8" />
      <path
         d="m 850.12441,3072.2468 q 0,-1.8027 1.248,-3.0507 1.24801,-1.248 3.05068,-1.248 1.80267,0 3.05067,1.248 1.24801,1.248 1.24801,3.0507 v 29.6747 q 0,5.1307 1.94133,9.7067 1.94134,4.4373 5.26935,7.904 3.46667,3.328 7.90402,5.2694 4.57601,1.9413 9.70669,1.9413 5.13068,0 9.56802,-1.9413 4.57601,-1.9414 7.90402,-5.2694 3.46668,-3.4667 5.40802,-7.904 1.94133,-4.576 1.94133,-9.7067 v -29.6747 q 0,-1.8027 1.24801,-3.0507 1.248,-1.248 3.05067,-1.248 1.80267,0 3.05068,1.248 1.248,1.248 1.248,3.0507 v 29.6747 q 0,6.9334 -2.63467,13.0347 -2.63468,6.1014 -7.21069,10.6774 -4.43734,4.4373 -10.53869,7.072 -6.10135,2.6347 -13.0347,2.6347 -6.93335,0 -13.0347,-2.6347 -6.10135,-2.6347 -10.67736,-7.072 -4.43734,-4.576 -7.07202,-10.6774 -2.63467,-6.1013 -2.63467,-13.0347 z"
         style="font-style:normal;font-variant:normal;font-weight:normal;font-stretch:normal;font-size:138.667px;font-family:'Arista 2.0 Light';-inkscape-font-specification:'Arista 2.0 Light, ';fill:#ffffff"
         id="path1240-1" />
      <path
         d="m 955.09523,3068.2254 q 7.76535,0.2774 14.14403,4.0214 6.37869,3.6053 10.9547,8.5973 v -30.6454 q 0,-1.8027 1.248,-3.0507 1.248,-1.248 3.05067,-1.248 1.80268,0 3.05068,1.248 1.248,1.248 1.248,3.0507 v 51.7228 q 0,7.2107 -2.63467,13.312 -2.63468,6.1014 -7.21069,10.5387 -4.57601,4.4374 -10.67736,6.9334 -6.10134,2.496 -12.89603,2.496 -7.07201,0 -13.17336,-2.6347 -6.10135,-2.6347 -10.67736,-7.2107 -4.43735,-4.576 -7.07202,-10.5387 -2.63467,-6.1013 -2.63467,-12.896 0,-6.9333 2.63467,-13.0347 2.77334,-6.1013 7.34935,-10.6774 4.57601,-4.576 10.53869,-7.2106 6.10135,-2.7734 12.75737,-2.7734 z m 25.09873,33.6961 q -0.27734,-5.408 -2.35734,-9.984 -1.94134,-4.576 -5.26935,-7.904 -3.32801,-3.328 -7.76535,-5.1307 -4.43735,-1.9414 -9.42936,-1.9414 -5.13068,0 -9.70669,1.9414 -4.57601,1.9413 -8.04268,5.408 -3.32801,3.328 -5.26935,7.904 -1.94134,4.576 -1.94134,9.7067 0,5.1307 1.94134,9.7067 1.94134,4.4373 5.26935,7.904 3.46667,3.328 8.04268,5.2694 4.57601,1.9413 9.70669,1.9413 5.13068,0 9.56803,-1.9413 4.57601,-1.9414 7.90402,-5.2694 3.46667,-3.4667 5.40801,-7.904 1.94134,-4.576 1.94134,-9.7067 z"
         style="font-style:normal;font-variant:normal;font-weight:normal;font-stretch:normal;font-size:138.667px;font-family:'Arista 2.0 Light';-inkscape-font-specification:'Arista 2.0 Light, ';fill:#ffffff"
         id="path1242-2" />
      <path
         d="m 1033.1644,3050.1987 q 0,-1.8027 1.248,-3.0507 1.248,-1.248 3.0507,-1.248 h 49.0881 q 1.8027,0 3.0507,1.248 1.248,1.248 1.248,3.0507 0,1.8027 -1.248,3.0507 -1.248,1.248 -3.0507,1.248 h -44.7895 v 30.9227 h 32.1708 q 1.8027,0 3.0507,1.248 1.248,1.248 1.248,3.0507 0,1.8027 -1.248,3.0507 -1.248,1.248 -3.0507,1.248 h -32.1708 v 32.7254 h 44.7895 q 1.8027,0 3.0507,1.248 1.248,1.248 1.248,3.0507 0,1.8026 -1.248,3.0507 -1.248,1.248 -3.0507,1.248 h -49.0881 q -1.8027,0 -3.0507,-1.248 -1.248,-1.2481 -1.248,-3.0507 z"
         style="font-style:normal;font-variant:normal;font-weight:normal;font-stretch:normal;font-size:138.667px;font-family:'Arista 2.0 Light';-inkscape-font-specification:'Arista 2.0 Light, ';fill:#ffffff"
         id="path1244-8" />
      <path
         d="m 1119.6925,3068.2254 q 7.7653,0.2774 14.144,4.0214 6.3787,3.6053 10.9547,8.5973 v -30.6454 q 0,-1.8027 1.248,-3.0507 1.248,-1.248 3.0507,-1.248 1.8027,0 3.0507,1.248 1.248,1.248 1.248,3.0507 v 51.7228 q 0,7.2107 -2.6347,13.312 -2.6347,6.1014 -7.2107,10.5387 -4.576,4.4374 -10.6773,6.9334 -6.1014,2.496 -12.8961,2.496 -7.072,0 -13.1733,-2.6347 -6.1014,-2.6347 -10.6774,-7.2107 -4.4373,-4.576 -7.072,-10.5387 -2.6347,-6.1013 -2.6347,-12.896 0,-6.9333 2.6347,-13.0347 2.7733,-6.1013 7.3493,-10.6774 4.576,-4.576 10.5387,-7.2106 6.1014,-2.7734 12.7574,-2.7734 z m 25.0987,33.6961 q -0.2773,-5.408 -2.3573,-9.984 -1.9414,-4.576 -5.2694,-7.904 -3.328,-3.328 -7.7653,-5.1307 -4.4374,-1.9414 -9.4294,-1.9414 -5.1307,0 -9.7067,1.9414 -4.576,1.9413 -8.0427,5.408 -3.328,3.328 -5.2693,7.904 -1.9413,4.576 -1.9413,9.7067 0,5.1307 1.9413,9.7067 1.9413,4.4373 5.2693,7.904 3.4667,3.328 8.0427,5.2694 4.576,1.9413 9.7067,1.9413 5.1307,0 9.568,-1.9413 4.5761,-1.9414 7.9041,-5.2694 3.4666,-3.4667 5.408,-7.904 1.9413,-4.576 1.9413,-9.7067 z"
         style="font-style:normal;font-variant:normal;font-weight:normal;font-stretch:normal;font-size:138.667px;font-family:'Arista 2.0 Light';-inkscape-font-specification:'Arista 2.0 Light, ';fill:#ffffff"
         id="path1246-9" />
      <path
         d="m 1161.2924,3072.3854 q 0,-1.8026 1.248,-3.0506 1.248,-1.248 3.0507,-1.248 1.8026,0 3.0506,1.248 1.248,1.248 1.248,3.0506 v 58.6562 q 0,1.8026 -1.248,3.0507 -1.248,1.248 -3.0506,1.248 -1.8027,0 -3.0507,-1.248 -1.248,-1.2481 -1.248,-3.0507 z m -1.3867,-19.2747 q 0,-2.3573 1.664,-4.0213 1.664,-1.664 4.0214,-1.664 2.3573,0 4.0213,1.664 1.664,1.664 1.664,4.0213 0,2.3574 -1.664,4.0214 -1.664,1.664 -4.0213,1.664 -2.3574,0 -4.0214,-1.664 -1.664,-1.664 -1.664,-4.0214 z"
         style="font-style:normal;font-variant:normal;font-weight:normal;font-stretch:normal;font-size:138.667px;font-family:'Arista 2.0 Light';-inkscape-font-specification:'Arista 2.0 Light, ';fill:#ffffff"
         id="path1248-3" />
      <path
         d="m 1177.6548,3049.9214 q 0,-1.8027 1.248,-3.0507 1.248,-1.248 3.0507,-1.248 1.8027,0 3.0507,1.248 1.248,1.248 1.248,3.0507 v 17.7494 h 30.6454 q 2.2187,0 3.4667,1.248 1.3866,1.248 1.3866,3.0506 0,1.8027 -1.3866,3.0507 -1.248,1.248 -3.4667,1.248 h -30.6454 v 25.6534 q 0,5.1307 1.9413,9.7067 1.9414,4.4373 5.2694,7.904 3.4666,3.328 7.904,5.2694 4.576,1.9413 9.7067,1.9413 5.1307,0 9.568,-1.8027 4.4373,-1.9413 7.7654,-5.2693 1.1093,-1.248 2.7733,-1.3867 1.8027,-0.2773 3.328,0.832 1.1093,1.1093 1.3867,2.7734 0.2773,1.664 -0.6934,3.1893 -4.576,4.8533 -10.816,7.6267 -6.24,2.6347 -13.312,2.6347 -6.9334,0 -13.0347,-2.6347 -6.1014,-2.6347 -10.6774,-7.072 -4.4373,-4.576 -7.072,-10.6774 -2.6347,-6.1013 -2.6347,-13.0347 z"
         style="font-style:normal;font-variant:normal;font-weight:normal;font-stretch:normal;font-size:138.667px;font-family:'Arista 2.0 Light';-inkscape-font-specification:'Arista 2.0 Light, ';fill:#ffffff"
         id="path1250-6" />
      <path
         d="m 1240.3323,3072.3854 q 0,-1.8026 1.248,-3.0506 1.248,-1.248 3.0506,-1.248 1.8027,0 3.0507,1.248 1.248,1.248 1.248,3.0506 v 58.6562 q 0,1.8026 -1.248,3.0507 -1.248,1.248 -3.0507,1.248 -1.8026,0 -3.0506,-1.248 -1.248,-1.2481 -1.248,-3.0507 z m -1.3867,-19.2747 q 0,-2.3573 1.664,-4.0213 1.664,-1.664 4.0213,-1.664 2.3574,0 4.0214,1.664 1.664,1.664 1.664,4.0213 0,2.3574 -1.664,4.0214 -1.664,1.664 -4.0214,1.664 -2.3573,0 -4.0213,-1.664 -1.664,-1.664 -1.664,-4.0214 z"
         style="font-style:normal;font-variant:normal;font-weight:normal;font-stretch:normal;font-size:138.667px;font-family:'Arista 2.0 Light';-inkscape-font-specification:'Arista 2.0 Light, ';fill:#ffffff"
         id="path1252-8" />
      <path
         d="m 1289.5588,3068.2254 q 6.656,0 12.6187,2.7734 6.1013,2.6346 10.6773,7.2106 4.576,4.5761 7.2107,10.6774 2.7734,6.1014 2.7734,13.0347 0,6.7947 -2.6347,12.896 -2.6347,5.9627 -7.2107,10.5387 -4.4374,4.576 -10.5387,7.2107 -6.1013,2.6347 -13.1734,2.6347 -6.9333,0 -13.0347,-2.496 -5.9626,-2.496 -10.5387,-6.9334 -4.576,-4.4373 -7.2106,-10.5387 -2.6347,-6.1013 -2.6347,-13.312 0,-6.9333 2.496,-12.896 2.6347,-6.1014 7.072,-10.5387 4.576,-4.576 10.6774,-7.2107 6.24,-2.7733 13.4507,-3.0507 z m -25.0988,33.6961 q 0,5.1307 1.9414,9.7067 1.9413,4.4373 5.2693,7.904 3.4667,3.328 7.904,5.2694 4.5761,1.9413 9.7067,1.9413 5.1307,0 9.7067,-1.9413 4.576,-1.9414 7.904,-5.2694 3.4667,-3.4667 5.4081,-7.904 1.9413,-4.576 1.9413,-9.7067 0,-5.1307 -1.9413,-9.7067 -1.9414,-4.576 -5.4081,-7.904 -3.328,-3.4667 -7.904,-5.408 -4.576,-1.9414 -9.7067,-1.9414 -5.1306,0 -9.7067,1.9414 -4.4373,1.9413 -7.904,5.408 -3.328,3.328 -5.2693,7.904 -1.9414,4.576 -1.9414,9.7067 z"
         style="font-style:normal;font-variant:normal;font-weight:normal;font-stretch:normal;font-size:138.667px;font-family:'Arista 2.0 Light';-inkscape-font-specification:'Arista 2.0 Light, ';fill:#ffffff"
         id="path1254-0" />
      <path
         d="m 1329.6334,3101.3668 q 0,-6.9333 2.6346,-13.0347 2.6347,-6.1013 7.072,-10.5387 4.5761,-4.576 10.6774,-7.2106 6.1014,-2.6347 13.0347,-2.6347 6.9334,0 13.0347,2.6347 6.1013,2.6346 10.5387,7.2106 4.576,4.4374 7.2107,10.5387 2.6347,6.1014 2.6347,13.0347 v 29.6748 q 0,1.8026 -1.2481,3.0507 -1.248,1.248 -3.0506,1.248 -1.8027,0 -3.0507,-1.248 -1.248,-1.2481 -1.248,-3.0507 v -29.6748 q 0,-5.1306 -1.9413,-9.568 -1.9414,-4.576 -5.4081,-7.904 -3.328,-3.4667 -7.904,-5.408 -4.4373,-1.9414 -9.568,-1.9414 -5.1307,0 -9.7067,1.9414 -4.4373,1.9413 -7.904,5.408 -3.328,3.328 -5.2694,7.904 -1.9413,4.4374 -1.9413,9.568 v 29.6748 q 0,1.8026 -1.248,3.0507 -1.248,1.248 -3.0507,1.248 -1.8026,0 -3.0506,-1.248 -1.248,-1.2481 -1.248,-3.0507 z"
         style="font-style:normal;font-variant:normal;font-weight:normal;font-stretch:normal;font-size:138.667px;font-family:'Arista 2.0 Light';-inkscape-font-specification:'Arista 2.0 Light, ';fill:#ffffff"
         id="path1256-2" />
      <path
         d="m 1440.9827,3089.4415 q 0.1386,-4.4374 2.2187,-8.32 2.08,-3.8827 5.6853,-6.7947 3.6053,-2.912 8.32,-4.576 4.8534,-1.664 10.2614,-1.664 5.408,0 10.2613,1.8026 4.8534,1.664 8.4587,4.576 3.6054,2.912 5.6854,6.9334 2.08,4.0213 2.08,8.5973 0,4.8534 -2.3574,9.0134 -2.3573,4.0213 -6.3786,6.9333 0,0 -0.6934,0.5547 -0.5546,0.416 -3.328,2.3574 -2.7733,1.9413 -8.4587,6.24 -5.6853,4.16 -16.0853,11.648 h 34.944 q 1.8027,0 3.0507,1.248 1.248,1.248 1.248,3.0507 0,1.8026 -1.248,3.0507 -1.248,1.248 -3.0507,1.248 h -47.9787 q -1.8027,0 -3.0507,-1.248 -1.248,-1.2481 -1.248,-3.0507 0,-2.2187 1.664,-3.4667 7.2107,-5.2693 12.7573,-9.2907 5.6854,-4.0213 9.7067,-6.9333 4.16,-3.0507 6.9334,-4.9921 2.912,-2.08 4.8533,-3.4666 4.4374,-3.1894 5.1307,-3.744 2.3573,-1.664 3.744,-4.0214 1.3867,-2.3573 1.3867,-5.1307 0,-2.6346 -1.3867,-5.1306 -1.3867,-2.496 -3.8827,-4.2987 -2.496,-1.8027 -5.824,-2.912 -3.1893,-1.1094 -6.9333,-1.1094 -3.8827,0 -7.2107,1.248 -3.1893,1.1094 -5.6854,3.0507 -2.3573,1.9414 -3.744,4.4374 -1.3866,2.3573 -1.3866,4.7146 0,1.8027 -1.248,3.0507 -1.248,1.1094 -3.0507,1.1094 -1.8027,0 -3.0507,-1.2481 -1.1093,-1.248 -1.1093,-3.4666 z"
         style="font-style:normal;font-variant:normal;font-weight:normal;font-stretch:normal;font-size:138.667px;font-family:'Arista 2.0 Light';-inkscape-font-specification:'Arista 2.0 Light, ';fill:#ffffff"
         id="path1258-1" />
      <path
         d="m 1533.6119,3068.2254 q 6.656,0 12.6187,2.7734 6.1014,2.6346 10.6774,7.2106 4.576,4.5761 7.2107,10.6774 2.7733,6.1014 2.7733,13.0347 0,6.7947 -2.6347,12.896 -2.6346,5.9627 -7.2106,10.5387 -4.4374,4.576 -10.5387,7.2107 -6.1014,2.6347 -13.1734,2.6347 -6.9334,0 -13.0347,-2.496 -5.9627,-2.496 -10.5387,-6.9334 -4.576,-4.4373 -7.2107,-10.5387 -2.6347,-6.1013 -2.6347,-13.312 0,-6.9333 2.4961,-12.896 2.6346,-6.1014 7.072,-10.5387 4.576,-4.576 10.6773,-7.2107 6.24,-2.7733 13.4507,-3.0507 z m -25.0987,33.6961 q 0,5.1307 1.9413,9.7067 1.9414,4.4373 5.2694,7.904 3.4667,3.328 7.904,5.2694 4.576,1.9413 9.7067,1.9413 5.1307,0 9.7067,-1.9413 4.576,-1.9414 7.904,-5.2694 3.4667,-3.4667 5.408,-7.904 1.9414,-4.576 1.9414,-9.7067 0,-5.1307 -1.9414,-9.7067 -1.9413,-4.576 -5.408,-7.904 -3.328,-3.4667 -7.904,-5.408 -4.576,-1.9414 -9.7067,-1.9414 -5.1307,0 -9.7067,1.9414 -4.4373,1.9413 -7.904,5.408 -3.328,3.328 -5.2694,7.904 -1.9413,4.576 -1.9413,9.7067 z"
         style="font-style:normal;font-variant:normal;font-weight:normal;font-stretch:normal;font-size:138.667px;font-family:'Arista 2.0 Light';-inkscape-font-specification:'Arista 2.0 Light, ';fill:#ffffff"
         id="path1260-0" />
      <path
         d="m 1572.5771,3089.4415 q 0.1387,-4.4374 2.2187,-8.32 2.08,-3.8827 5.6853,-6.7947 3.6054,-2.912 8.32,-4.576 4.8534,-1.664 10.2614,-1.664 5.408,0 10.2614,1.8026 4.8533,1.664 8.4586,4.576 3.6054,2.912 5.6854,6.9334 2.08,4.0213 2.08,8.5973 0,4.8534 -2.3573,9.0134 -2.3574,4.0213 -6.3787,6.9333 0,0 -0.6934,0.5547 -0.5546,0.416 -3.328,2.3574 -2.7733,1.9413 -8.4587,6.24 -5.6853,4.16 -16.0853,11.648 h 34.9441 q 1.8026,0 3.0506,1.248 1.248,1.248 1.248,3.0507 0,1.8026 -1.248,3.0507 -1.248,1.248 -3.0506,1.248 h -47.9788 q -1.8027,0 -3.0507,-1.248 -1.248,-1.2481 -1.248,-3.0507 0,-2.2187 1.664,-3.4667 7.2107,-5.2693 12.7574,-9.2907 5.6853,-4.0213 9.7067,-6.9333 4.16,-3.0507 6.9333,-4.9921 2.912,-2.08 4.8534,-3.4666 4.4373,-3.1894 5.1306,-3.744 2.3574,-1.664 3.744,-4.0214 1.3867,-2.3573 1.3867,-5.1307 0,-2.6346 -1.3867,-5.1306 -1.3866,-2.496 -3.8826,-4.2987 -2.496,-1.8027 -5.8241,-2.912 -3.1893,-1.1094 -6.9333,-1.1094 -3.8827,0 -7.2107,1.248 -3.1893,1.1094 -5.6853,3.0507 -2.3574,1.9414 -3.744,4.4374 -1.3867,2.3573 -1.3867,4.7146 0,1.8027 -1.248,3.0507 -1.248,1.1094 -3.0507,1.1094 -1.8027,0 -3.0507,-1.2481 -1.1093,-1.248 -1.1093,-3.4666 z"
         style="font-style:normal;font-variant:normal;font-weight:normal;font-stretch:normal;font-size:138.667px;font-family:'Arista 2.0 Light';-inkscape-font-specification:'Arista 2.0 Light, ';fill:#ffffff"
         id="path1262-5" />
      <path
         d="m 1665.2064,3068.2254 q 6.656,0 12.6186,2.7734 6.1014,2.6346 10.6774,7.2106 4.576,4.5761 7.2107,10.6774 2.7733,6.1014 2.7733,13.0347 0,6.7947 -2.6346,12.896 -2.6347,5.9627 -7.2107,10.5387 -4.4374,4.576 -10.5387,7.2107 -6.1014,2.6347 -13.1734,2.6347 -6.9333,0 -13.0347,-2.496 -5.9627,-2.496 -10.5387,-6.9334 -4.576,-4.4373 -7.2107,-10.5387 -2.6346,-6.1013 -2.6346,-13.312 0,-6.9333 2.496,-12.896 2.6346,-6.1014 7.072,-10.5387 4.576,-4.576 10.6774,-7.2107 6.24,-2.7733 13.4507,-3.0507 z m -25.0988,33.6961 q 0,5.1307 1.9414,9.7067 1.9413,4.4373 5.2693,7.904 3.4667,3.328 7.904,5.2694 4.576,1.9413 9.7067,1.9413 5.1307,0 9.7067,-1.9413 4.576,-1.9414 7.904,-5.2694 3.4667,-3.4667 5.408,-7.904 1.9414,-4.576 1.9414,-9.7067 0,-5.1307 -1.9414,-9.7067 -1.9413,-4.576 -5.408,-7.904 -3.328,-3.4667 -7.904,-5.408 -4.576,-1.9414 -9.7067,-1.9414 -5.1307,0 -9.7067,1.9414 -4.4373,1.9413 -7.904,5.408 -3.328,3.328 -5.2693,7.904 -1.9414,4.576 -1.9414,9.7067 z"
         style="font-style:normal;font-variant:normal;font-weight:normal;font-stretch:normal;font-size:138.667px;font-family:'Arista 2.0 Light';-inkscape-font-specification:'Arista 2.0 Light, ';fill:#ffffff"
         id="path1264-1" />
    </g>
  </g>
</svg>
