<?xml version="1.0" encoding="UTF-8" standalone="no"?>
<!-- Created with Inkscape (http://www.inkscape.org/) -->

<svg
   xmlns:dc="http://purl.org/dc/elements/1.1/"
   xmlns:cc="http://creativecommons.org/ns#"
   xmlns:rdf="http://www.w3.org/1999/02/22-rdf-syntax-ns#"
   xmlns:svg="http://www.w3.org/2000/svg"
   xmlns="http://www.w3.org/2000/svg"
   xmlns:xlink="http://www.w3.org/1999/xlink"
   xmlns:sodipodi="http://sodipodi.sourceforge.net/DTD/sodipodi-0.dtd"
   xmlns:inkscape="http://www.inkscape.org/namespaces/inkscape"
   width="1024"
   height="576"
   id="svg2"
   version="1.1"
   inkscape:version="0.48.4 r9939"
   sodipodi:docname="overlay.svg">
  <defs
     id="defs4">
    <linearGradient
       id="linearGradient3807">
      <stop
         style="stop-color:#ffffff;stop-opacity:0;"
         offset="0"
         id="stop3809" />
      <stop
         id="stop3815"
         offset="0.2"
         style="stop-color:#ffffff;stop-opacity:0.78431374;" />
      <stop
         style="stop-color:#ffffff;stop-opacity:0.78431374;"
         offset="1"
         id="stop3811" />
    </linearGradient>
    <linearGradient
       inkscape:collect="always"
       xlink:href="#linearGradient3807"
       id="linearGradient3813"
       x1="650"
       y1="595.07648"
       x2="1230"
       y2="595.07648"
       gradientUnits="userSpaceOnUse"
       gradientTransform="matrix(1,0,0,0.99744172,-74.949237,-22.857439)" />
    <linearGradient
       inkscape:collect="always"
       xlink:href="#linearGradient3807"
       id="linearGradient3819"
       x1="575.05078"
       y1="570.69666"
       x2="1155.0508"
       y2="570.69666"
       gradientUnits="userSpaceOnUse"
       spreadMethod="reflect" />
    <linearGradient
       inkscape:collect="always"
       xlink:href="#linearGradient3807-2"
       id="linearGradient3819-8"
       x1="575.05078"
       y1="570.69666"
       x2="1155.0508"
       y2="570.69666"
       gradientUnits="userSpaceOnUse"
       spreadMethod="reflect" />
    <linearGradient
       id="linearGradient3807-2">
      <stop
         style="stop-color:#ffffff;stop-opacity:0;"
         offset="0"
         id="stop3809-5" />
      <stop
         id="stop3815-1"
         offset="0.2"
         style="stop-color:#ffffff;stop-opacity:1;" />
      <stop
         style="stop-color:#ffffff;stop-opacity:1;"
         offset="1"
         id="stop3811-1" />
    </linearGradient>
    <linearGradient
       gradientTransform="matrix(2.3933139,0,0,1,-1291.5105,359.35582)"
       y2="570.69666"
       x2="1155.0508"
       y1="570.69666"
       x1="575.05078"
       spreadMethod="reflect"
       gradientUnits="userSpaceOnUse"
       id="linearGradient4017-1"
       xlink:href="#linearGradient3807-2-2"
       inkscape:collect="always" />
    <linearGradient
       id="linearGradient3807-2-2">
      <stop
         style="stop-color:#ffffff;stop-opacity:0;"
         offset="0"
         id="stop3809-5-5" />
      <stop
         id="stop3815-1-7"
         offset="0.2"
         style="stop-color:#ffffff;stop-opacity:1;" />
      <stop
         style="stop-color:#ffffff;stop-opacity:1;"
         offset="1"
         id="stop3811-1-0" />
    </linearGradient>
    <linearGradient
       y2="570.69666"
       x2="1155.0508"
       y1="570.69666"
       x1="575.05078"
       spreadMethod="reflect"
       gradientTransform="matrix(2.3933139,0,0,1,-842.013,2.87365)"
       gradientUnits="userSpaceOnUse"
       id="linearGradient4510"
       xlink:href="#linearGradient3807-2-2"
       inkscape:collect="always" />
    <filter
       id="filter4858"
       style="color-interpolation-filters:sRGB;"
       inkscape:label="Drop Shadow"
       width="1.2">
      <feFlood
         id="feFlood4860"
         flood-opacity="0.29666666666666669"
         flood-color="rgb(255,255,255)"
         result="flood" />
      <feComposite
         id="feComposite4862"
         in2="SourceGraphic"
         in="flood"
         operator="in"
         result="composite1" />
      <feGaussianBlur
         id="feGaussianBlur4864"
         in="composite"
         stdDeviation="2"
         result="blur" />
      <feOffset
         id="feOffset4866"
         dx="2"
         dy="2.2000000000000002"
         result="offset" />
      <feComposite
         id="feComposite4868"
         in2="offset"
         in="SourceGraphic"
         operator="over"
         result="composite2"
         dy="0" />
    </filter>
  </defs>
  <sodipodi:namedview
     id="base"
     pagecolor="#ffffff"
     bordercolor="#666666"
     borderopacity="1.0"
     inkscape:pageopacity="0.0"
     inkscape:pageshadow="2"
     inkscape:zoom="7.9195959"
     inkscape:cx="897.63386"
     inkscape:cy="495.20685"
     inkscape:document-units="px"
     inkscape:current-layer="layer1-7"
     showgrid="false"
     inkscape:window-width="1920"
     inkscape:window-height="993"
     inkscape:window-x="0"
     inkscape:window-y="27"
     inkscape:window-maximized="1"
     showguides="true"
     inkscape:guide-bbox="true"
     inkscape:snap-global="true"
     inkscape:snap-bbox="true"
     inkscape:bbox-paths="true"
     inkscape:bbox-nodes="true"
     inkscape:snap-bbox-edge-midpoints="true"
     inkscape:snap-bbox-midpoints="true"
     inkscape:object-paths="false"
     inkscape:snap-to-guides="true">
    <sodipodi:guide
       orientation="0,1"
       position="0,0"
       id="guide3017" />
    <sodipodi:guide
       orientation="0,1"
       position="0,576"
       id="guide3019" />
    <sodipodi:guide
       orientation="1,0"
       position="0,0"
       id="guide3021" />
    <sodipodi:guide
       orientation="1,0"
       position="1024,0"
       id="guide3023" />
    <sodipodi:guide
       orientation="0,1"
       position="0,25"
       id="guide3025" />
    <sodipodi:guide
       orientation="0,1"
       position="0,547"
       id="guide3027" />
    <sodipodi:guide
       orientation="1,0"
       position="122.22846,648.51793"
       id="guide3029" />
    <sodipodi:guide
       orientation="1,0"
       position="994,0"
       id="guide3031" />
  </sodipodi:namedview>
  <metadata
     id="metadata7">
    <rdf:RDF>
      <cc:Work
         rdf:about="">
        <dc:format>image/svg+xml</dc:format>
        <dc:type
           rdf:resource="http://purl.org/dc/dcmitype/StillImage" />
        <dc:title />
      </cc:Work>
    </rdf:RDF>
  </metadata>
  <g
     inkscape:label="Ebene 1"
     inkscape:groupmode="layer"
     id="layer1"
     transform="translate(0,-476.36218)">
    <g
       transform="matrix(0.48267099,0,0,0.48267099,713.88668,139.03891)"
       id="layer1-7"
       inkscape:label="Ebene 1">
      <g
         id="g3475"
         transform="matrix(0.37466785,0,0,0.37466785,332.39648,758.95025)"
         style="opacity:0.6">
        <rect
           transform="matrix(0.99261072,-0.12134228,0.12134228,0.99261072,0,0)"
           y="220.40764"
           x="219.88812"
           height="180.67668"
           width="397.77655"
           id="rect3996"
           style="fill:#99cc00;fill-opacity:1;stroke:none" />
        <path
           transform="matrix(1.0410256,0,0,1.0153846,-120.40437,-139.9603)"
           d="m 495.77582,327.89792 a 190.05823,190.05823 0 1 1 -380.11646,0 190.05823,190.05823 0 1 1 380.11646,0 z"
           sodipodi:ry="190.05823"
           sodipodi:rx="190.05823"
           sodipodi:cy="327.89792"
           sodipodi:cx="305.71759"
           id="path3222"
           style="fill:#99cc00;fill-opacity:1;stroke:none"
           sodipodi:type="arc" />
        <path
           inkscape:connector-curvature="0"
           id="path3"
           d="m 630.56864,155.1609 -262.116,32.184 c -2.366,2.654 -5.591,4.202 -8.237,5.305 -3.561,1.483 -7.119,0.589 -10.445,-0.801 0.039,1.485 0.067,2.973 0.067,4.468 0,46.449 -16.76,88.735 -44.2,120.431 0.815,3.384 2.034,8.376 3.078,12.402 1.75,6.75 5,13.25 4,16.75 -1,3.5 -2.5,4.25 -2.5,4.25 l 2.25,4.949 337.564,-41.447 -19.461,-158.491 z" />
        <g
           transform="translate(-121.65936,-103.3511)"
           id="g145">
          <g
             id="g147">
            <path
               style="fill:#ffffff"
               inkscape:connector-curvature="0"
               id="path149"
               d="m 471.268,383.029 c 0.563,1.395 1.364,2.33 2.405,2.809 1.041,0.48 2.352,0.621 3.934,0.428 1.02,-0.126 2.147,-0.389 3.383,-0.79 1.236,-0.401 2.438,-0.923 3.608,-1.567 0.604,0.854 1.169,1.891 1.694,3.111 0.524,1.221 0.888,2.515 1.092,3.88 -2.987,1.545 -6.115,2.519 -9.385,2.92 -2.531,0.311 -4.746,0.226 -6.643,-0.255 -1.897,-0.48 -3.494,-1.275 -4.79,-2.384 -1.296,-1.106 -2.322,-2.489 -3.078,-4.146 -0.757,-1.654 -1.26,-3.503 -1.511,-5.542 -0.246,-2.004 -0.195,-3.919 0.151,-5.746 0.347,-1.828 1.002,-3.461 1.968,-4.9 0.966,-1.438 2.246,-2.639 3.84,-3.603 1.596,-0.963 3.518,-1.584 5.768,-1.86 1.863,-0.229 3.563,-0.115 5.102,0.339 1.535,0.453 2.881,1.17 4.038,2.153 1.155,0.982 2.102,2.224 2.839,3.72 0.737,1.499 1.218,3.161 1.442,4.989 0.116,0.949 0.177,1.808 0.182,2.573 0.005,0.768 0.003,1.401 -0.007,1.902 l -16.032,1.969 z m 2.942,-10.908 c -1.125,0.139 -2.049,0.608 -2.771,1.412 -0.724,0.803 -1.063,1.949 -1.022,3.443 l 8.438,-1.036 c -0.222,-1.221 -0.726,-2.203 -1.513,-2.946 -0.786,-0.74 -1.831,-1.032 -3.132,-0.873 z" />
            <path
               style="fill:#ffffff"
               inkscape:connector-curvature="0"
               id="path151"
               d="m 490.855,382.551 c -0.212,-1.722 -0.018,-3.191 0.583,-4.407 0.6,-1.216 1.439,-2.229 2.518,-3.039 1.079,-0.81 2.303,-1.434 3.678,-1.87 1.374,-0.437 2.729,-0.736 4.065,-0.9 l 3.217,-0.396 c -0.113,-0.63 -0.354,-1.134 -0.722,-1.518 -0.368,-0.384 -0.812,-0.659 -1.332,-0.827 -0.521,-0.168 -1.086,-0.26 -1.694,-0.274 -0.608,-0.013 -1.229,0.018 -1.861,0.095 -0.845,0.104 -1.817,0.322 -2.918,0.653 -1.103,0.331 -2.225,0.781 -3.367,1.351 -0.39,-0.56 -0.729,-1.07 -1.019,-1.535 -0.29,-0.464 -0.526,-0.942 -0.712,-1.438 -0.186,-0.494 -0.339,-1.011 -0.458,-1.55 -0.119,-0.539 -0.223,-1.159 -0.31,-1.863 1.619,-0.769 3.246,-1.397 4.882,-1.884 1.635,-0.486 3.121,-0.812 4.457,-0.977 1.828,-0.224 3.508,-0.206 5.039,0.051 1.529,0.26 2.87,0.781 4.02,1.568 1.149,0.788 2.093,1.857 2.83,3.212 0.737,1.356 1.227,3.018 1.469,4.985 l 1.897,15.453 c -1.289,0.552 -2.859,1.137 -4.709,1.756 -1.852,0.62 -3.831,1.06 -5.941,1.318 -1.829,0.225 -3.528,0.264 -5.098,0.117 -1.571,-0.146 -2.947,-0.521 -4.127,-1.127 -1.181,-0.604 -2.153,-1.474 -2.917,-2.612 -0.764,-1.137 -1.254,-2.583 -1.47,-4.342 z m 12.809,1.426 c 0.316,-0.039 0.769,-0.13 1.357,-0.274 0.59,-0.143 1.02,-0.269 1.293,-0.373 l -0.712,-5.801 -3.006,0.369 c -1.231,0.151 -2.235,0.542 -3.015,1.173 -0.779,0.63 -1.11,1.421 -0.994,2.37 0.087,0.704 0.312,1.239 0.679,1.604 0.366,0.366 0.799,0.624 1.3,0.778 0.5,0.151 1.027,0.23 1.581,0.232 0.554,0.005 1.059,-0.022 1.517,-0.078 z" />
            <path
               style="fill:#ffffff"
               inkscape:connector-curvature="0"
               id="path153"
               d="m 531.937,369.209 c 1.089,0.152 2.089,0.378 3,0.675 0.911,0.3 1.712,0.727 2.405,1.284 0.694,0.557 1.272,1.272 1.736,2.142 0.463,0.872 0.776,1.959 0.936,3.259 0.164,1.337 0.044,2.617 -0.358,3.845 -0.402,1.228 -1.088,2.328 -2.057,3.305 -0.969,0.975 -2.206,1.806 -3.709,2.489 -1.505,0.685 -3.277,1.152 -5.315,1.402 -1.688,0.207 -3.269,0.275 -4.739,0.207 -1.472,-0.069 -3.053,-0.303 -4.743,-0.703 -0.118,-2.411 0.234,-4.918 1.058,-7.517 1.189,0.389 2.416,0.64 3.679,0.752 1.264,0.113 2.51,0.094 3.74,-0.058 0.422,-0.052 0.86,-0.123 1.312,-0.213 0.452,-0.092 0.848,-0.221 1.184,-0.388 0.336,-0.166 0.605,-0.369 0.81,-0.608 0.201,-0.238 0.281,-0.534 0.238,-0.886 -0.057,-0.457 -0.327,-0.771 -0.812,-0.943 -0.485,-0.173 -1.038,-0.31 -1.656,-0.413 l -3.709,-0.562 c -1.929,-0.298 -3.586,-1.005 -4.972,-2.119 -1.387,-1.115 -2.214,-2.762 -2.481,-4.941 -0.168,-1.372 -0.04,-2.653 0.385,-3.849 0.425,-1.194 1.098,-2.249 2.021,-3.166 0.922,-0.917 2.052,-1.67 3.389,-2.264 1.337,-0.591 2.85,-0.992 4.537,-1.199 1.336,-0.164 2.812,-0.201 4.429,-0.114 1.617,0.087 3.231,0.299 4.844,0.637 0.067,1.134 -0.014,2.365 -0.243,3.696 -0.229,1.332 -0.529,2.519 -0.9,3.564 -0.996,-0.271 -2.183,-0.482 -3.559,-0.635 -1.374,-0.152 -2.624,-0.159 -3.748,-0.021 -1.654,0.203 -2.423,0.76 -2.311,1.674 0.047,0.388 0.275,0.663 0.689,0.825 0.413,0.164 0.874,0.287 1.383,0.366 l 3.537,0.477 z" />
            <path
               style="fill:#ffffff"
               inkscape:connector-curvature="0"
               id="path155"
               d="m 548.792,364.355 -7.806,0.959 c -0.263,-0.681 -0.458,-1.326 -0.585,-1.936 -0.129,-0.609 -0.228,-1.193 -0.297,-1.758 -0.069,-0.562 -0.114,-1.145 -0.134,-1.75 -0.021,-0.604 0.013,-1.268 0.103,-1.994 l 24.523,-3.011 c 0.262,0.683 0.456,1.319 0.583,1.909 0.126,0.593 0.223,1.169 0.292,1.731 0.069,0.563 0.115,1.154 0.139,1.776 0.021,0.623 -0.012,1.296 -0.101,2.02 l -7.806,0.959 2.429,19.777 c -0.897,0.251 -1.71,0.458 -2.439,0.62 -0.73,0.16 -1.394,0.278 -1.992,0.352 -0.598,0.073 -1.27,0.119 -2.016,0.141 -0.748,0.02 -1.57,0.014 -2.466,-0.019 l -2.427,-19.776 z" />
            <path
               style="fill:#ffffff"
               inkscape:connector-curvature="0"
               id="path157"
               d="m 577.903,369.936 c 0.563,1.396 1.364,2.33 2.405,2.81 1.04,0.479 2.353,0.621 3.935,0.427 1.019,-0.125 2.146,-0.389 3.381,-0.79 1.236,-0.4 2.438,-0.923 3.608,-1.567 0.605,0.854 1.17,1.891 1.694,3.112 0.525,1.22 0.889,2.514 1.093,3.88 -2.987,1.544 -6.116,2.518 -9.384,2.919 -2.533,0.312 -4.747,0.227 -6.644,-0.255 -1.897,-0.48 -3.494,-1.274 -4.789,-2.384 -1.296,-1.106 -2.323,-2.489 -3.079,-4.145 -0.758,-1.655 -1.259,-3.504 -1.51,-5.543 -0.246,-2.004 -0.196,-3.919 0.15,-5.746 0.346,-1.827 1.002,-3.46 1.969,-4.899 0.964,-1.438 2.245,-2.639 3.84,-3.604 1.595,-0.963 3.517,-1.583 5.768,-1.859 1.862,-0.229 3.563,-0.115 5.1,0.338 1.536,0.454 2.883,1.171 4.039,2.154 1.155,0.982 2.102,2.223 2.839,3.72 0.737,1.498 1.218,3.161 1.442,4.989 0.116,0.949 0.177,1.807 0.182,2.572 0.005,0.769 0.003,1.402 -0.007,1.902 l -16.032,1.969 z m 2.943,-10.908 c -1.125,0.138 -2.048,0.608 -2.771,1.411 -0.723,0.803 -1.064,1.95 -1.022,3.443 l 8.438,-1.036 c -0.223,-1.221 -0.726,-2.202 -1.514,-2.945 -0.787,-0.741 -1.831,-1.033 -3.131,-0.873 z" />
            <path
               style="fill:#ffffff"
               inkscape:connector-curvature="0"
               id="path159"
               d="m 596.621,351.042 c 1.626,-0.414 3.319,-0.8 5.078,-1.158 1.757,-0.358 3.428,-0.637 5.01,-0.831 4.253,-0.521 7.543,-0.112 9.866,1.226 2.324,1.339 3.663,3.449 4.017,6.332 0.134,1.091 0.128,2.054 -0.02,2.893 -0.146,0.84 -0.361,1.571 -0.641,2.193 -0.281,0.624 -0.593,1.136 -0.936,1.533 -0.345,0.4 -0.626,0.721 -0.847,0.962 l 7.425,10.759 c -0.687,0.226 -1.455,0.429 -2.308,0.604 -0.854,0.176 -1.685,0.312 -2.493,0.412 -0.984,0.121 -1.938,0.203 -2.86,0.245 -0.923,0.042 -1.692,0.028 -2.306,-0.038 l -7.383,-11.728 0.687,-0.514 c 1.144,-0.854 1.896,-1.704 2.257,-2.551 0.358,-0.848 0.482,-1.728 0.37,-2.643 -0.111,-0.914 -0.477,-1.628 -1.092,-2.141 -0.616,-0.514 -1.522,-0.697 -2.718,-0.55 -0.668,0.082 -1.175,0.18 -1.517,0.294 l 2.544,20.726 c -0.892,0.288 -1.703,0.504 -2.436,0.646 -0.732,0.144 -1.38,0.25 -1.941,0.319 -0.599,0.073 -1.252,0.127 -1.961,0.159 -0.71,0.035 -1.532,0.02 -2.469,-0.044 l -3.326,-27.105 z" />
            <path
               style="fill:#ffffff;fill-opacity:1;stroke:none"
               inkscape:connector-curvature="0"
               id="path161"
               d="m 644.39,362.521 -7.805,0.958 1.229,10.021 c -0.897,0.252 -1.71,0.459 -2.439,0.621 -0.729,0.16 -1.394,0.278 -1.992,0.352 -0.598,0.073 -1.269,0.119 -2.016,0.141 -0.747,0.02 -1.569,0.014 -2.465,-0.019 l -3.341,-27.214 c 0.751,-0.27 1.5,-0.486 2.248,-0.65 0.747,-0.162 1.472,-0.287 2.176,-0.374 0.667,-0.081 1.393,-0.135 2.175,-0.161 0.782,-0.023 1.554,0.007 2.313,0.091 l 1.14,9.282 7.806,-0.958 -1.14,-9.282 c 0.751,-0.27 1.5,-0.486 2.248,-0.65 0.748,-0.162 1.473,-0.287 2.177,-0.374 0.666,-0.081 1.393,-0.135 2.174,-0.16 0.782,-0.024 1.554,0.006 2.313,0.09 l 3.341,27.214 c -0.897,0.252 -1.71,0.459 -2.438,0.621 -0.73,0.16 -1.395,0.278 -1.992,0.352 -0.597,0.074 -1.27,0.119 -2.017,0.141 -0.747,0.02 -1.569,0.014 -2.465,-0.019 l -1.23,-10.023 z"
               stroke-miterlimit="10" />
            <path
               style="fill:#ffffff;fill-opacity:1;stroke:none"
               inkscape:connector-curvature="0"
               id="path163"
               d="m 666.766,359.024 c 0.563,1.396 1.365,2.331 2.406,2.81 1.04,0.48 2.352,0.621 3.934,0.427 1.019,-0.125 2.147,-0.389 3.382,-0.79 1.236,-0.4 2.438,-0.923 3.608,-1.566 0.604,0.854 1.17,1.89 1.694,3.111 0.524,1.221 0.889,2.514 1.092,3.88 -2.986,1.544 -6.115,2.518 -9.385,2.919 -2.531,0.312 -4.746,0.227 -6.643,-0.254 -1.897,-0.481 -3.493,-1.275 -4.789,-2.385 -1.296,-1.106 -2.322,-2.489 -3.078,-4.145 -0.758,-1.655 -1.26,-3.504 -1.511,-5.543 -0.246,-2.004 -0.195,-3.919 0.151,-5.746 0.346,-1.827 1.002,-3.46 1.968,-4.899 0.965,-1.438 2.246,-2.639 3.841,-3.603 1.595,-0.964 3.517,-1.584 5.767,-1.86 1.863,-0.229 3.563,-0.115 5.101,0.338 1.536,0.454 2.883,1.171 4.038,2.154 1.156,0.982 2.103,2.223 2.839,3.72 0.737,1.498 1.219,3.161 1.443,4.989 0.116,0.949 0.176,1.808 0.182,2.573 0.005,0.768 0.002,1.401 -0.007,1.902 l -16.033,1.968 z m 2.943,-10.907 c -1.126,0.138 -2.048,0.608 -2.771,1.411 -0.723,0.803 -1.064,1.95 -1.022,3.444 l 8.438,-1.036 c -0.222,-1.222 -0.725,-2.203 -1.513,-2.946 -0.787,-0.741 -1.831,-1.033 -3.132,-0.873 z"
               stroke-miterlimit="10" />
            <path
               style="fill:#ffffff;fill-opacity:1;stroke:none"
               inkscape:connector-curvature="0"
               id="path165"
               d="m 701.606,366.363 c -2.531,0.312 -4.731,0.197 -6.6,-0.34 -1.869,-0.538 -3.444,-1.389 -4.729,-2.552 -1.285,-1.162 -2.291,-2.591 -3.016,-4.286 -0.727,-1.696 -1.211,-3.546 -1.457,-5.55 -0.237,-1.934 -0.154,-3.8 0.249,-5.599 0.402,-1.798 1.135,-3.404 2.191,-4.819 1.058,-1.415 2.438,-2.601 4.141,-3.56 1.702,-0.959 3.73,-1.583 6.087,-1.872 1.23,-0.151 2.602,-0.176 4.112,-0.076 1.513,0.101 3.189,0.394 5.034,0.881 0.037,0.603 0.037,1.174 -0.005,1.714 -0.041,0.54 -0.106,1.093 -0.198,1.657 -0.09,0.563 -0.213,1.169 -0.365,1.811 -0.153,0.644 -0.34,1.372 -0.562,2.184 -1.256,-0.344 -2.407,-0.569 -3.455,-0.673 -1.048,-0.104 -1.94,-0.109 -2.679,-0.019 -1.16,0.142 -2.124,0.439 -2.889,0.89 -0.766,0.451 -1.358,1.005 -1.776,1.663 -0.42,0.659 -0.694,1.397 -0.826,2.217 -0.131,0.819 -0.144,1.649 -0.04,2.494 0.289,2.355 1.01,4.024 2.167,5.007 1.154,0.983 2.718,1.353 4.686,1.11 l 0.95,-0.116 -0.952,-7.752 c 0.856,-0.283 1.624,-0.503 2.302,-0.657 0.677,-0.154 1.331,-0.271 1.964,-0.349 1.23,-0.15 2.709,-0.173 4.436,-0.062 l 1.645,13.396 c -0.972,0.512 -2.344,1.109 -4.116,1.79 -1.773,0.681 -3.873,1.17 -6.299,1.468 z"
               stroke-miterlimit="10" />
            <path
               style="fill:#ffffff;fill-opacity:1;stroke:none"
               inkscape:connector-curvature="0"
               id="path167"
               d="m 729.874,362.893 c -2.531,0.311 -4.731,0.197 -6.601,-0.34 -1.868,-0.538 -3.444,-1.389 -4.729,-2.552 -1.285,-1.162 -2.291,-2.591 -3.016,-4.286 -0.727,-1.696 -1.211,-3.546 -1.457,-5.55 -0.237,-1.934 -0.155,-3.8 0.248,-5.599 0.403,-1.798 1.136,-3.404 2.191,-4.819 1.059,-1.415 2.438,-2.601 4.142,-3.56 1.702,-0.959 3.73,-1.583 6.087,-1.872 1.229,-0.151 2.602,-0.176 4.112,-0.076 1.512,0.101 3.189,0.394 5.033,0.881 0.038,0.603 0.037,1.173 -0.004,1.714 -0.041,0.54 -0.106,1.093 -0.198,1.656 -0.091,0.564 -0.213,1.17 -0.366,1.812 -0.154,0.644 -0.34,1.372 -0.562,2.184 -1.256,-0.345 -2.408,-0.569 -3.456,-0.673 -1.048,-0.104 -1.939,-0.109 -2.678,-0.02 -1.16,0.143 -2.124,0.44 -2.89,0.891 -0.765,0.451 -1.357,1.005 -1.776,1.663 -0.419,0.659 -0.693,1.397 -0.825,2.217 -0.132,0.82 -0.145,1.649 -0.041,2.494 0.289,2.355 1.011,4.024 2.167,5.007 1.155,0.983 2.718,1.353 4.687,1.11 l 0.95,-0.116 -0.952,-7.752 c 0.856,-0.283 1.624,-0.503 2.302,-0.657 0.676,-0.154 1.33,-0.271 1.963,-0.349 1.231,-0.15 2.71,-0.173 4.437,-0.062 l 1.645,13.396 c -0.972,0.512 -2.344,1.109 -4.116,1.79 -1.772,0.68 -3.871,1.17 -6.297,1.468 z"
               stroke-miterlimit="10" />
          </g>
          <g
             id="g169">
            <path
               style="fill:#ffffff"
               inkscape:connector-curvature="0"
               id="path171"
               d="m 625.83,338.443 -0.82,-1.452 7.872,-13.493 c 1.349,-2.378 2.328,-4.363 2.937,-5.955 0.607,-1.592 0.838,-2.984 0.691,-4.18 -0.134,-1.09 -0.637,-1.912 -1.508,-2.465 -0.871,-0.554 -2.01,-0.744 -3.416,-0.571 -1.336,0.164 -2.555,0.555 -3.657,1.172 -1.102,0.617 -2.078,1.245 -2.927,1.885 -0.714,-1.161 -1.36,-2.349 -1.937,-3.563 -0.577,-1.213 -0.982,-2.483 -1.218,-3.812 1.113,-0.815 2.502,-1.573 4.164,-2.277 1.661,-0.704 3.582,-1.19 5.764,-1.458 1.793,-0.22 3.48,-0.213 5.062,0.021 1.581,0.233 2.985,0.713 4.219,1.437 1.229,0.724 2.241,1.696 3.033,2.919 0.793,1.224 1.3,2.731 1.52,4.524 0.155,1.266 0.145,2.48 -0.033,3.645 -0.18,1.165 -0.452,2.286 -0.819,3.366 -0.366,1.08 -0.802,2.115 -1.305,3.104 -0.504,0.991 -1.001,1.944 -1.495,2.861 l -2.488,4.589 9.229,-1.134 c 0.497,1.438 0.812,2.702 0.946,3.791 0.151,1.232 0.159,2.604 0.025,4.119 l -23.839,2.927 z" />
            <path
               style="fill:#ffffff"
               inkscape:connector-curvature="0"
               id="path173"
               d="m 663.786,298.342 c 2.355,-0.289 4.452,-0.081 6.287,0.621 1.834,0.704 3.412,1.786 4.734,3.247 1.321,1.462 2.379,3.25 3.174,5.364 0.795,2.115 1.349,4.438 1.659,6.971 0.311,2.53 0.316,4.903 0.019,7.117 -0.301,2.214 -0.914,4.181 -1.846,5.901 -0.931,1.721 -2.221,3.137 -3.867,4.248 -1.649,1.112 -3.651,1.814 -6.006,2.104 -2.356,0.289 -4.45,0.091 -6.283,-0.595 -1.834,-0.684 -3.399,-1.749 -4.701,-3.195 -1.302,-1.447 -2.357,-3.209 -3.165,-5.287 -0.81,-2.077 -1.368,-4.383 -1.679,-6.913 -0.311,-2.532 -0.32,-4.922 -0.023,-7.171 0.293,-2.248 0.905,-4.242 1.835,-5.979 0.927,-1.737 2.206,-3.171 3.835,-4.298 1.629,-1.128 3.637,-1.841 6.027,-2.135 z m 0.872,7.978 c -1.406,0.173 -2.395,1.133 -2.965,2.88 -0.57,1.747 -0.653,4.274 -0.247,7.579 0.401,3.27 1.1,5.682 2.093,7.236 0.994,1.556 2.178,2.249 3.548,2.081 1.337,-0.164 2.29,-1.12 2.86,-2.867 0.569,-1.747 0.655,-4.256 0.254,-7.525 -0.405,-3.305 -1.098,-5.736 -2.073,-7.294 -0.977,-1.557 -2.133,-2.254 -3.47,-2.09 z" />
            <path
               style="fill:#ffffff"
               inkscape:connector-curvature="0"
               id="path175"
               d="m 686.261,310.037 c -0.372,-0.418 -0.753,-0.906 -1.143,-1.465 -0.391,-0.558 -0.765,-1.138 -1.123,-1.736 -0.36,-0.598 -0.685,-1.209 -0.976,-1.834 -0.29,-0.624 -0.525,-1.228 -0.704,-1.814 l 14.644,-8.49 2.267,-0.278 3.264,26.582 6.751,-0.829 c 0.485,1.332 0.803,2.614 0.954,3.845 0.159,1.301 0.165,2.655 0.018,4.065 l -22.572,2.771 c -0.485,-1.333 -0.807,-2.648 -0.966,-3.949 -0.151,-1.23 -0.153,-2.552 -0.006,-3.961 l 6.856,-0.842 -1.839,-14.979 -5.425,2.914 z" />
            <path
               style="fill:#ffffff"
               inkscape:connector-curvature="0"
               id="path177"
               d="m 741.174,312.985 c 0.484,1.332 0.803,2.614 0.953,3.844 0.151,1.231 0.153,2.552 0.005,3.961 l -2.796,0.343 0.765,6.225 c -0.717,0.266 -1.434,0.47 -2.146,0.61 -0.714,0.143 -1.406,0.253 -2.074,0.335 -0.703,0.087 -1.418,0.148 -2.145,0.184 -0.728,0.035 -1.488,0.013 -2.283,-0.066 l -0.765,-6.225 -16.771,2.059 -1.091,-1.471 10.456,-32.121 c 1.394,0.009 2.775,0.15 4.148,0.428 1.372,0.278 2.731,0.815 4.079,1.613 l -7.001,22.328 5.221,-0.641 -0.726,-5.906 c 0.752,-0.271 1.485,-0.479 2.199,-0.619 0.714,-0.14 1.422,-0.255 2.126,-0.342 0.668,-0.082 1.366,-0.14 2.093,-0.177 0.726,-0.035 1.472,-0.01 2.23,0.075 l 0.726,5.906 2.797,-0.343 z" />
          </g>
          <g
             id="g179">
            <path
               style="fill:#ffffff"
               inkscape:connector-curvature="0"
               id="path181"
               d="m 466.105,404.21 c 0.752,-0.27 1.501,-0.487 2.249,-0.65 0.747,-0.162 1.472,-0.287 2.176,-0.374 0.668,-0.082 1.393,-0.135 2.175,-0.16 0.782,-0.025 1.554,0.006 2.313,0.09 l 3.335,27.16 c -0.894,0.288 -1.705,0.504 -2.437,0.648 -0.732,0.143 -1.38,0.249 -1.941,0.317 -0.599,0.074 -1.27,0.13 -2.015,0.168 -0.744,0.037 -1.585,0.024 -2.521,-0.039 l -3.334,-27.16 z m 15.98,-1.962 c 0.616,-0.218 1.376,-0.418 2.281,-0.601 0.906,-0.183 1.71,-0.317 2.414,-0.404 0.913,-0.112 1.841,-0.189 2.781,-0.233 0.939,-0.044 1.7,-0.03 2.28,0.04 l -4.985,13.461 9.059,13.608 c -0.616,0.219 -1.394,0.421 -2.334,0.609 -0.941,0.186 -1.764,0.322 -2.466,0.408 -0.915,0.112 -1.824,0.188 -2.729,0.229 -0.904,0.039 -1.63,0.021 -2.175,-0.056 l -8.749,-13.272 4.623,-13.789 z" />
            <path
               style="fill:#ffffff;fill-opacity:1;stroke:none"
               inkscape:connector-curvature="0"
               id="path183"
               d="m 505.096,416.126 c 0.563,1.395 1.364,2.33 2.405,2.81 1.04,0.479 2.352,0.621 3.934,0.427 1.02,-0.125 2.148,-0.389 3.383,-0.79 1.235,-0.4 2.438,-0.923 3.608,-1.567 0.604,0.854 1.169,1.891 1.694,3.11 0.524,1.222 0.888,2.516 1.091,3.881 -2.986,1.545 -6.114,2.519 -9.384,2.92 -2.531,0.311 -4.746,0.225 -6.643,-0.255 -1.897,-0.48 -3.494,-1.275 -4.79,-2.384 -1.296,-1.106 -2.322,-2.489 -3.078,-4.146 -0.757,-1.654 -1.261,-3.503 -1.511,-5.542 -0.246,-2.005 -0.195,-3.919 0.151,-5.747 0.347,-1.827 1.002,-3.46 1.968,-4.898 0.966,-1.438 2.246,-2.64 3.84,-3.604 1.596,-0.962 3.518,-1.582 5.768,-1.858 1.863,-0.229 3.563,-0.116 5.102,0.338 1.535,0.454 2.883,1.171 4.038,2.153 1.156,0.982 2.102,2.224 2.838,3.721 0.737,1.498 1.219,3.161 1.443,4.989 0.116,0.948 0.177,1.807 0.182,2.572 0.006,0.768 0.003,1.4 -0.006,1.902 l -16.033,1.968 z m 2.942,-10.908 c -1.125,0.139 -2.049,0.608 -2.771,1.411 -0.724,0.804 -1.063,1.951 -1.022,3.444 l 8.438,-1.036 c -0.223,-1.221 -0.725,-2.203 -1.513,-2.945 -0.788,-0.742 -1.831,-1.033 -3.132,-0.874 z"
               stroke-miterlimit="10" />
            <path
               style="fill:#ffffff;fill-opacity:1;stroke:none"
               inkscape:connector-curvature="0"
               id="path185"
               d="m 543.579,412.15 -7.805,0.958 1.229,10.021 c -0.897,0.252 -1.709,0.459 -2.439,0.62 -0.73,0.161 -1.394,0.278 -1.991,0.353 -0.599,0.073 -1.27,0.119 -2.017,0.14 -0.747,0.02 -1.57,0.014 -2.465,-0.018 l -3.342,-27.214 c 0.751,-0.271 1.501,-0.488 2.249,-0.651 0.746,-0.162 1.473,-0.287 2.176,-0.373 0.667,-0.082 1.393,-0.136 2.176,-0.161 0.781,-0.024 1.552,0.007 2.312,0.091 l 1.14,9.282 7.806,-0.958 -1.14,-9.282 c 0.751,-0.271 1.5,-0.488 2.248,-0.651 0.747,-0.162 1.473,-0.287 2.177,-0.373 0.667,-0.082 1.392,-0.136 2.174,-0.161 0.782,-0.024 1.554,0.007 2.313,0.091 l 3.342,27.214 c -0.898,0.252 -1.711,0.459 -2.439,0.62 -0.73,0.161 -1.395,0.278 -1.992,0.353 -0.598,0.073 -1.271,0.119 -2.017,0.14 -0.747,0.02 -1.569,0.014 -2.465,-0.018 l -1.23,-10.023 z"
               stroke-miterlimit="10" />
            <path
               style="fill:#ffffff"
               inkscape:connector-curvature="0"
               id="path187"
               d="m 557.249,393.126 c 1.627,-0.414 3.319,-0.8 5.078,-1.159 1.758,-0.357 3.429,-0.635 5.011,-0.829 4.253,-0.522 7.542,-0.113 9.866,1.226 2.323,1.338 3.662,3.449 4.016,6.332 0.134,1.091 0.128,2.054 -0.02,2.893 -0.146,0.84 -0.361,1.57 -0.641,2.193 -0.28,0.624 -0.593,1.135 -0.936,1.533 -0.345,0.4 -0.625,0.719 -0.846,0.961 l 7.425,10.758 c -0.688,0.228 -1.456,0.429 -2.308,0.605 -0.854,0.176 -1.685,0.313 -2.493,0.412 -0.985,0.121 -1.938,0.203 -2.86,0.246 -0.923,0.041 -1.692,0.028 -2.307,-0.039 l -7.383,-11.727 0.687,-0.514 c 1.144,-0.854 1.896,-1.705 2.257,-2.551 0.359,-0.848 0.483,-1.729 0.371,-2.644 -0.112,-0.914 -0.477,-1.627 -1.093,-2.141 -0.616,-0.513 -1.522,-0.696 -2.718,-0.55 -0.667,0.082 -1.174,0.181 -1.517,0.294 l 2.545,20.727 c -0.893,0.288 -1.704,0.503 -2.437,0.646 -0.731,0.145 -1.379,0.251 -1.941,0.32 -0.598,0.073 -1.251,0.127 -1.961,0.159 -0.71,0.034 -1.532,0.02 -2.468,-0.044 l -3.327,-27.107 z" />
            <path
               style="fill:#ffffff"
               inkscape:connector-curvature="0"
               id="path189"
               d="m 614.12,401.989 1.34,-16.117 c 0.272,-0.104 0.809,-0.241 1.608,-0.411 0.8,-0.171 1.656,-0.311 2.571,-0.423 1.161,-0.143 2.193,-0.234 3.099,-0.273 0.905,-0.04 1.555,-0.048 1.951,-0.026 l -5.209,28.209 c -0.577,0.25 -1.214,0.443 -1.909,0.584 -0.698,0.138 -1.397,0.251 -2.1,0.337 -0.704,0.086 -1.42,0.147 -2.146,0.185 -0.728,0.034 -1.488,0.012 -2.283,-0.069 l -5.663,-14.294 c -0.379,2.438 -0.751,5 -1.117,7.687 -0.366,2.687 -0.726,5.211 -1.077,7.572 -0.717,0.267 -1.434,0.471 -2.146,0.612 -0.716,0.141 -1.424,0.255 -2.127,0.341 -0.703,0.087 -1.41,0.146 -2.119,0.181 -0.71,0.033 -1.374,-0.002 -1.993,-0.104 l -11.615,-26.144 c 0.378,-0.117 1.046,-0.271 2.004,-0.46 0.958,-0.189 2.019,-0.354 3.179,-0.497 0.914,-0.112 1.805,-0.187 2.676,-0.222 0.87,-0.035 1.449,-0.035 1.74,0 l 5.41,15.718 1.815,-16.605 c 0.575,-0.248 1.221,-0.444 1.936,-0.584 0.714,-0.143 1.422,-0.256 2.126,-0.343 0.703,-0.086 1.418,-0.147 2.146,-0.182 0.726,-0.037 1.47,-0.012 2.23,0.072 l 5.673,15.256 z" />
            <path
               style="fill:#ffffff"
               inkscape:connector-curvature="0"
               id="path191"
               d="m 628.488,398.244 c -0.263,-2.144 -0.215,-4.139 0.147,-5.986 0.363,-1.847 1.037,-3.474 2.025,-4.879 0.985,-1.407 2.281,-2.556 3.885,-3.449 1.604,-0.893 3.513,-1.476 5.728,-1.747 2.25,-0.276 4.262,-0.176 6.034,0.303 1.771,0.479 3.306,1.28 4.604,2.406 1.299,1.126 2.347,2.54 3.146,4.245 0.797,1.705 1.329,3.629 1.592,5.772 0.26,2.11 0.205,4.07 -0.161,5.882 -0.367,1.812 -1.045,3.413 -2.034,4.8 -0.989,1.39 -2.286,2.521 -3.892,3.396 -1.605,0.875 -3.535,1.452 -5.785,1.729 -2.215,0.271 -4.207,0.177 -5.977,-0.284 -1.77,-0.46 -3.303,-1.244 -4.598,-2.353 -1.297,-1.107 -2.341,-2.495 -3.135,-4.165 -0.794,-1.672 -1.319,-3.56 -1.579,-5.67 z m 18.142,-2.227 c -0.275,-2.249 -0.866,-3.925 -1.768,-5.028 -0.904,-1.103 -2.128,-1.56 -3.676,-1.369 -1.548,0.189 -2.616,0.928 -3.207,2.214 -0.592,1.287 -0.75,3.055 -0.474,5.304 0.272,2.215 0.851,3.876 1.736,4.98 0.885,1.104 2.1,1.562 3.647,1.372 1.547,-0.19 2.625,-0.929 3.235,-2.218 0.609,-1.288 0.779,-3.041 0.507,-5.255 z" />
            <path
               style="fill:#ffffff"
               inkscape:connector-curvature="0"
               id="path193"
               d="m 659.854,394.286 c -0.259,-2.109 -0.198,-4.08 0.185,-5.911 0.382,-1.831 1.076,-3.442 2.083,-4.834 1.007,-1.39 2.311,-2.539 3.912,-3.45 1.601,-0.911 3.492,-1.5 5.672,-1.768 0.738,-0.091 1.443,-0.158 2.117,-0.205 0.67,-0.048 1.338,-0.058 2.002,-0.033 0.664,0.025 1.352,0.102 2.063,0.229 0.712,0.128 1.509,0.298 2.39,0.51 0.219,1.188 0.259,2.387 0.122,3.599 -0.138,1.214 -0.436,2.418 -0.894,3.616 -0.625,-0.138 -1.181,-0.238 -1.672,-0.304 -0.488,-0.064 -0.949,-0.105 -1.379,-0.125 -0.431,-0.019 -0.85,-0.012 -1.257,0.021 -0.406,0.033 -0.839,0.076 -1.295,0.133 -1.688,0.207 -3.023,0.88 -4.008,2.018 -0.985,1.138 -1.325,2.938 -1.023,5.398 0.16,1.302 0.459,2.362 0.899,3.183 0.439,0.821 0.961,1.443 1.567,1.868 0.605,0.426 1.281,0.699 2.028,0.82 0.746,0.124 1.524,0.136 2.333,0.036 1.02,-0.125 1.896,-0.321 2.63,-0.591 0.734,-0.269 1.588,-0.658 2.561,-1.171 0.714,0.876 1.32,1.881 1.816,3.016 0.495,1.136 0.837,2.459 1.022,3.97 -1.541,0.831 -2.967,1.417 -4.281,1.758 -1.315,0.339 -2.64,0.592 -3.976,0.756 -2.25,0.276 -4.279,0.185 -6.082,-0.271 -1.806,-0.455 -3.374,-1.235 -4.705,-2.34 -1.331,-1.103 -2.402,-2.487 -3.213,-4.155 -0.81,-1.67 -1.349,-3.592 -1.617,-5.773 z" />
            <path
               style="fill:#ffffff"
               inkscape:connector-curvature="0"
               id="path195"
               d="m 704.112,392.439 -7.805,0.958 1.229,10.021 c -0.897,0.252 -1.709,0.459 -2.439,0.619 -0.729,0.161 -1.394,0.279 -1.991,0.354 -0.599,0.073 -1.269,0.119 -2.017,0.139 -0.747,0.021 -1.569,0.015 -2.465,-0.018 l -3.341,-27.213 c 0.751,-0.271 1.5,-0.488 2.248,-0.651 0.746,-0.162 1.473,-0.287 2.176,-0.373 0.667,-0.082 1.393,-0.136 2.176,-0.161 0.781,-0.024 1.553,0.007 2.312,0.091 l 1.14,9.282 7.806,-0.959 -1.14,-9.281 c 0.751,-0.271 1.501,-0.488 2.249,-0.651 0.746,-0.162 1.472,-0.287 2.176,-0.373 0.667,-0.082 1.393,-0.136 2.174,-0.161 0.782,-0.024 1.555,0.007 2.314,0.091 l 3.341,27.214 c -0.897,0.252 -1.711,0.459 -2.439,0.619 -0.729,0.161 -1.394,0.279 -1.992,0.354 -0.598,0.073 -1.27,0.119 -2.016,0.139 -0.748,0.021 -1.569,0.015 -2.466,-0.018 l -1.23,-10.022 z" />
            <path
               style="fill:#ffffff"
               inkscape:connector-curvature="0"
               id="path197"
               d="m 727.438,388.826 c 0.563,1.395 1.365,2.33 2.406,2.809 1.039,0.48 2.352,0.621 3.934,0.427 1.019,-0.125 2.147,-0.388 3.382,-0.79 1.236,-0.4 2.438,-0.922 3.608,-1.566 0.604,0.854 1.17,1.891 1.694,3.11 0.524,1.222 0.889,2.515 1.093,3.881 -2.987,1.544 -6.116,2.519 -9.386,2.92 -2.531,0.311 -4.746,0.225 -6.643,-0.255 -1.897,-0.481 -3.493,-1.275 -4.789,-2.384 -1.296,-1.107 -2.322,-2.49 -3.078,-4.146 -0.758,-1.654 -1.26,-3.503 -1.511,-5.542 -0.246,-2.005 -0.195,-3.92 0.151,-5.747 0.346,-1.827 1.002,-3.46 1.968,-4.899 0.965,-1.438 2.246,-2.639 3.841,-3.604 1.595,-0.962 3.517,-1.583 5.767,-1.859 1.863,-0.229 3.563,-0.115 5.101,0.339 1.536,0.453 2.883,1.17 4.039,2.153 1.155,0.982 2.102,2.224 2.838,3.72 0.736,1.499 1.219,3.161 1.443,4.989 0.116,0.948 0.177,1.808 0.182,2.573 0.005,0.768 0.002,1.4 -0.007,1.902 l -16.033,1.969 z m 2.943,-10.908 c -1.125,0.139 -2.048,0.608 -2.771,1.411 -0.723,0.803 -1.064,1.95 -1.022,3.444 l 8.438,-1.036 c -0.222,-1.221 -0.725,-2.203 -1.513,-2.946 -0.787,-0.742 -1.831,-1.033 -3.132,-0.873 z" />
          </g>
        </g>
        <g
           transform="translate(-121.65936,-103.3511)"
           id="g199">
          <path
             inkscape:connector-curvature="0"
             id="path201"
             d="m 158.091,349.604 c 1.484,-0.415 2.353,-1.954 1.938,-3.439 -4.184,-14.988 -6.305,-30.598 -6.305,-46.394 0,-21.468 3.937,-41.969 11.061,-60.734 h 39.42 l 15.428,-21.005 23.383,17.188 44.393,-29.274 -61.444,-44.142 c 23.036,-15.171 50.137,-23.935 79.116,-23.935 41.333,0 79.941,17.493 108.714,49.255 1.035,1.143 2.801,1.23 3.943,0.194 1.143,-1.034 1.229,-2.8 0.195,-3.942 -29.845,-32.946 -69.923,-51.09 -112.853,-51.09 -86.536,0 -156.938,75.134 -156.938,167.485 0,16.303 2.19,32.417 6.511,47.895 0.344,1.234 1.466,2.042 2.688,2.042 0.245,-0.001 0.498,-0.035 0.75,-0.104 z M 202.79,236.245 h -36.922 c 1.136,-2.834 2.348,-5.626 3.627,-8.374 h 29.062 l 12.027,-16.384 6.749,4.953 -14.543,19.805 z m -5.646,-11.166 h -26.32 c 5.14,-10.525 11.328,-20.373 18.417,-29.387 l 19.146,14.071 -11.243,15.316 z m 26.343,-61.618 58.999,42.386 -39.384,25.972 -52.12,-38.311 c 9.436,-11.577 20.378,-21.713 32.505,-30.047 z" />
          <path
             inkscape:connector-curvature="0"
             id="path203"
             d="m 330.206,459.451 c -8.244,1.474 -16.698,2.221 -25.127,2.221 -47.659,0 -93.105,-24.465 -121.57,-65.442 -0.882,-1.266 -2.621,-1.578 -3.886,-0.7 -1.267,0.879 -1.579,2.618 -0.7,3.885 14.294,20.578 33.098,37.639 54.38,49.339 22.333,12.276 46.482,18.502 71.776,18.502 8.758,0 17.542,-0.776 26.108,-2.308 1.518,-0.271 2.528,-1.722 2.257,-3.239 -0.27,-1.518 -1.724,-2.525 -3.238,-2.258 z" />
          <path
             inkscape:connector-curvature="0"
             id="path205"
             d="m 429.592,396.923 c 0.473,0.313 1.007,0.463 1.535,0.463 0.906,0 1.795,-0.441 2.332,-1.254 18.685,-28.299 28.561,-61.619 28.561,-96.361 0,-3.098 -0.081,-6.231 -0.239,-9.317 -0.078,-1.539 -1.386,-2.721 -2.93,-2.645 -1.541,0.078 -2.724,1.391 -2.646,2.931 0.154,2.99 0.231,6.029 0.231,9.031 0,33.645 -9.557,65.901 -27.637,93.285 -0.848,1.286 -0.493,3.018 0.793,3.867 z" />
          <path
             inkscape:connector-curvature="0"
             id="path207"
             d="m 439.611,219.257 c -1.377,0.694 -1.931,2.372 -1.236,3.75 2.881,5.712 5.461,11.661 7.667,17.683 0.416,1.13 1.484,1.831 2.623,1.831 0.318,0 0.644,-0.056 0.959,-0.172 1.449,-0.53 2.192,-2.134 1.661,-3.582 -2.281,-6.223 -4.948,-12.37 -7.925,-18.275 -0.695,-1.376 -2.374,-1.93 -3.749,-1.235 z" />
          <path
             inkscape:connector-curvature="0"
             id="path209"
             d="m 385.929,369.611 c 0.229,-0.092 0.92,-0.063 1.477,-0.042 1.839,0.072 4.619,0.183 7.527,-1.998 3.529,-2.648 5.801,-9.972 7.303,-14.818 0.236,-0.764 0.445,-1.438 0.628,-1.984 0.495,-1.485 1.322,-2.936 2.198,-4.47 1.192,-2.088 2.425,-4.245 2.816,-6.598 0.455,-2.731 -0.592,-5.76 -1.918,-9.594 -0.694,-2.011 -1.483,-4.289 -2.14,-6.807 -1.05,-4.023 -1.397,-7.717 -1.733,-11.289 -0.247,-2.632 -0.504,-5.355 -1.038,-8.159 -0.363,-1.909 -0.645,-4.284 -0.942,-6.799 -0.907,-7.633 -1.669,-12.767 -3.914,-14.514 -2.251,-1.75 -4.286,-1.193 -5.771,-0.786 -0.729,0.199 -1.363,0.37 -1.836,0.236 -1.694,-0.483 -2.469,-1.17 -2.512,-1.209 -0.546,-0.531 -1.418,-0.527 -1.96,0.013 -0.545,0.545 -0.545,1.429 0,1.974 0.121,0.122 1.256,1.208 3.705,1.906 1.226,0.351 2.347,0.044 3.339,-0.227 1.427,-0.392 2.225,-0.557 3.321,0.298 1.493,1.159 2.312,8.066 2.854,12.638 0.305,2.563 0.592,4.986 0.974,6.991 0.51,2.676 0.749,5.214 1.002,7.899 0.346,3.683 0.704,7.49 1.81,11.732 0.686,2.623 1.492,4.955 2.203,7.014 1.197,3.459 2.143,6.191 1.804,8.222 -0.311,1.86 -1.368,3.713 -2.487,5.674 -0.84,1.471 -1.694,2.992 -2.279,4.598 -1.086,0.378 -2.694,0.897 -3.821,1.085 -2.792,0.465 -6.63,-1.047 -11.05,-2.792 -4.251,-1.678 -5.699,-5.233 -6.513,-5.466 -0.814,-0.233 -1.861,1.163 -2.326,1.86 -0.466,0.698 -0.698,2.326 0.93,4.42 1.2,1.543 4.357,4.156 7.332,5.798 -0.259,0.791 -0.673,1.932 -1.283,3.274 -1.163,2.559 -2.676,2.907 -3.839,3.141 -1.163,0.232 -6.164,0.349 -7.792,-0.117 -1.629,-0.465 -3.955,-1.396 -4.652,-0.465 -0.849,1.132 2.093,3.024 4.419,3.257 2.326,0.233 7.718,0.01 9.538,0.465 2.199,0.55 3.014,2.032 3.314,3.154 -2.138,0.822 -9.032,3.16 -12.752,2.897 -4.024,-0.287 -9.44,-3.138 -10.018,-3.885 -0.165,-0.331 -0.316,-1.156 -0.476,-2.029 -0.286,-1.571 -0.68,-3.722 -1.642,-6.221 -1.953,-5.083 -4.287,-10.656 -6.772,-13.453 -1.901,-2.141 -6.188,-5.011 -9.772,-4.699 -1.693,0.148 -3.054,0.983 -3.935,2.414 -2.707,4.398 -2.854,7.177 -0.549,10.252 1.184,1.578 2.77,2.509 3.987,3.033 -0.412,0.493 -0.968,0.938 -1.629,0.938 -1.825,0 -5.639,-1.279 -6.954,-1.772 l -2.618,-0.981 0.79,2.683 c 0.067,0.232 1.714,5.725 5.119,8.449 1.714,1.372 4.107,2.809 5.986,3.859 -2.268,0.569 -5.125,0.965 -7.127,0.249 -4.122,-1.472 -10.782,-5.996 -10.849,-6.042 l -4.436,-3.022 2.4,4.8 c 0.069,0.138 1.706,3.383 3.768,5.101 0.779,0.65 1.652,1.244 2.426,1.727 -0.83,0.346 -1.909,0.666 -3.2,0.774 -3.095,0.253 -5.521,-1.558 -5.54,-1.572 -0.609,-0.475 -1.485,-0.364 -1.958,0.244 -0.475,0.608 -0.363,1.486 0.244,1.959 0.123,0.096 2.856,2.186 6.641,2.186 0.276,0 0.559,-0.012 0.846,-0.036 4.124,-0.343 6.583,-2.414 6.686,-2.502 l 1.418,-1.218 c 0.21,0.082 0.415,0.16 0.616,0.232 4.789,1.71 11.864,-1.141 12.164,-1.263 l 2.846,-1.165 -2.751,-1.376 c -0.055,-0.027 -5.488,-2.755 -8.437,-5.114 -1.378,-1.103 -2.432,-2.893 -3.137,-4.394 1.645,0.492 3.646,0.986 5.057,0.986 3.388,0 4.953,-3.817 5.018,-3.979 l 0.623,-1.558 -1.646,-0.329 c -0.025,-0.006 -2.62,-0.57 -4.12,-2.569 -1.372,-1.83 -1.618,-3.361 0.692,-7.116 0.417,-0.677 0.989,-1.025 1.802,-1.096 2.232,-0.199 5.717,1.831 7.442,3.771 2.483,2.795 5.126,9.667 6.254,12.601 0.867,2.257 1.218,4.177 1.501,5.722 0.222,1.213 0.382,2.09 0.726,2.777 0.605,1.209 3.358,2.797 6.39,3.945 -0.267,0.089 -0.511,0.256 -0.688,0.502 -0.453,0.623 -0.315,1.495 0.308,1.948 0.282,0.205 6.924,5.03 9.758,6.605 l 0.636,0.355 c 2.564,1.437 5.214,2.922 8.727,2.922 1.165,0 3.066,-0.299 5.474,-0.679 5.148,-0.811 12.2,-1.921 16.87,-0.904 6.192,1.346 9.959,5.739 13.107,10.287 l 0.054,0.078 c 2.867,4.14 4.443,6.609 3.504,9.195 -1.294,3.558 -3.073,6.919 -4.328,8.174 l -1.551,1.551 c -0.545,0.546 -0.545,1.429 0,1.974 0.272,0.272 0.63,0.409 0.987,0.409 0.356,0 0.714,-0.137 0.986,-0.409 l 1.551,-1.551 c 1.896,-1.896 3.867,-6.138 4.978,-9.193 1.479,-4.068 -0.981,-7.623 -3.831,-11.739 l -0.055,-0.078 c -3.474,-5.016 -7.672,-9.874 -14.808,-11.425 -5.182,-1.126 -12.53,0.03 -17.898,0.875 -2.195,0.346 -4.093,0.645 -5.04,0.645 -2.784,0 -4.904,-1.189 -7.361,-2.565 l -0.646,-0.361 c -2.202,-1.224 -7.109,-4.721 -8.845,-5.97 1.432,0.436 2.84,0.743 4.036,0.828 5.194,0.379 14.174,-3.162 14.263,-3.197 z M 397.816,354.9 c 0.38,-0.189 0.718,-0.417 1.024,-0.665 -1.301,4.028 -3.262,9.361 -5.582,11.103 -1.916,1.437 -3.675,1.509 -5.255,1.459 -0.248,-0.64 -0.615,-1.389 -1.121,-1.894 -0.593,-0.594 -1.628,-1.163 -0.93,-2.326 0.697,-1.163 2.093,-3.722 2.791,-5.351 0.167,-0.391 0.32,-0.809 0.458,-1.217 2.992,0.584 5.759,0.32 8.615,-1.109 z" />
          <path
             inkscape:connector-curvature="0"
             id="path211"
             d="m 487.898,272.868 c -1.39,-8.337 -13.282,-19.397 -19.269,-22.988 -6.328,-3.797 -13.746,-4.821 -26.076,-5.471 -13.602,-0.718 -31.956,2.688 -37.257,3.748 -9.411,1.882 -19.818,7.658 -20.257,7.903 -0.673,0.376 -0.914,1.227 -0.537,1.898 0.376,0.674 1.227,0.915 1.898,0.538 0.104,-0.058 10.468,-5.808 19.443,-7.604 5.22,-1.043 23.284,-4.399 36.562,-3.696 11.87,0.625 18.964,1.581 24.788,5.076 6.461,3.876 16.847,14.426 17.95,21.054 1.145,6.869 -0.502,13.173 -4.007,15.33 -3.778,2.324 -8.381,1.68 -12.312,-1.727 -1.351,-1.171 -3.266,-3.236 -5.482,-5.63 -5.383,-5.805 -12.082,-13.03 -17.583,-15.093 -8.087,-3.033 -17.59,-6.294 -28.053,-6.603 -2.665,-0.078 -4.835,-0.176 -6.662,-0.26 -5.524,-0.249 -8.047,-0.363 -11.727,0.617 -5.007,1.335 -7.415,4.037 -7.516,4.151 -0.505,0.577 -0.446,1.451 0.128,1.96 0.574,0.509 1.454,0.456 1.968,-0.115 0.019,-0.021 2.007,-2.197 6.138,-3.299 3.266,-0.87 5.495,-0.77 10.882,-0.524 1.84,0.082 4.023,0.182 6.707,0.261 10.034,0.295 19.279,3.471 27.155,6.425 4.882,1.83 11.605,9.083 16.514,14.378 2.273,2.452 4.238,4.569 5.703,5.84 2.879,2.495 6.165,3.772 9.368,3.772 2.168,0 4.298,-0.585 6.234,-1.777 4.518,-2.777 6.648,-10.078 5.3,-18.164 z" />
          <path
             inkscape:connector-curvature="0"
             id="path213"
             d="m 361.675,392.119 c -7.807,-2.703 -22.804,-12.468 -22.954,-12.566 -0.646,-0.422 -1.511,-0.24 -1.932,0.405 -0.422,0.646 -0.24,1.51 0.405,1.932 0.627,0.409 15.436,10.052 23.568,12.867 8.18,2.832 26.039,3.165 26.796,3.178 0.008,0 0.016,0 0.024,0 0.76,0 1.381,-0.608 1.395,-1.372 0.013,-0.771 -0.602,-1.406 -1.372,-1.419 -0.18,-0.003 -18.167,-0.337 -25.93,-3.025 z" />
          <path
             inkscape:connector-curvature="0"
             id="path215"
             d="m 391.276,452.71 -25.997,-13.91 0.434,-8.249 c 0.027,-0.514 -0.367,-0.952 -0.879,-0.978 -0.506,-0.027 -0.952,0.366 -0.979,0.879 l -0.431,8.169 -11.214,3.079 c -0.496,0.136 -0.787,0.648 -0.652,1.144 0.137,0.495 0.649,0.787 1.145,0.651 l 11.506,-3.158 26.19,14.014 c 0.14,0.075 0.29,0.11 0.438,0.11 0.332,0 0.653,-0.178 0.821,-0.491 0.242,-0.454 0.071,-1.018 -0.382,-1.26 z" />
          <path
             inkscape:connector-curvature="0"
             id="path217"
             d="m 190.095,383.899 c 0.007,0.297 -0.011,0.609 -0.064,0.935 -0.195,1.169 -1.521,3.755 -2.311,5.11 l -1.816,3.116 3.441,-1.083 c 0.597,-0.187 14.638,-4.714 16.311,-14.749 0.119,-0.711 0.183,-1.401 0.219,-2.076 1.872,6.936 1.115,14.735 0.183,17.534 -0.728,2.183 -1.673,3.529 -2.297,4.42 -0.493,0.703 -0.852,1.212 -0.875,1.862 -0.027,0.724 0.585,6.048 4.032,8.347 3.35,2.232 12.122,2.406 14.731,2.406 0.362,0 0.749,-0.004 1.156,-0.008 3.407,-0.028 8.074,-0.071 12.241,1.751 2.195,0.961 6.275,4.271 10.222,7.473 4.754,3.856 9.244,7.5 11.917,8.391 2.501,0.834 8.673,2.298 13.49,2.297 2.385,0 4.438,-0.357 5.55,-1.33 2.09,-1.828 2.945,-4.138 3.228,-6.511 1.272,0.501 3.145,1.061 5.169,1.061 0.231,0 0.466,-0.007 0.701,-0.023 3.852,-0.256 6.39,-2.724 7.542,-7.335 0.925,-3.698 -1.973,-9.318 -4.529,-14.276 -0.403,-0.781 -0.796,-1.543 -1.159,-2.271 -2.837,-5.674 -11.221,-14.426 -19.584,-16.098 -5.38,-1.077 -13.342,1.807 -21.042,4.597 -0.775,0.281 -1.539,0.557 -2.297,0.828 2.11,-3.638 9.073,-15.68 12.201,-21.543 2.801,-5.253 6.479,-14.068 8.676,-19.335 0.731,-1.755 1.31,-3.14 1.598,-3.773 1.199,-2.639 4.608,-15.709 4.057,-18.739 -0.162,-0.895 -0.656,-3.615 -14.077,-12.767 -4.164,-2.838 -16.278,-9.78 -19.862,-9.78 -2.053,0 -4.896,2.558 -9.335,6.768 -1.918,1.819 -4.091,3.882 -4.979,4.297 -2.041,0.954 -2.856,-0.175 -3.046,-0.522 -0.346,-0.69 -1.184,-0.969 -1.873,-0.625 -0.689,0.346 -0.969,1.184 -0.624,1.873 0.558,1.115 2.852,3.61 6.724,1.804 1.238,-0.578 2.979,-2.201 5.72,-4.801 2.181,-2.068 6.24,-5.92 7.414,-6.001 2.204,0 12.781,5.54 18.288,9.294 9.854,6.718 12.75,10.107 12.905,10.961 0.379,2.083 -2.678,14.501 -3.852,17.083 -0.307,0.675 -0.863,2.009 -1.634,3.854 -2.177,5.222 -5.822,13.959 -8.563,19.096 -3.666,6.876 -12.678,22.363 -12.768,22.52 -0.261,0.447 -0.238,0.976 0.002,1.396 -2.577,0.87 -4.947,1.57 -6.923,1.882 -4.963,0.784 -9.238,0.685 -9.283,0.681 -0.754,-0.017 -1.41,0.588 -1.431,1.359 -0.021,0.77 0.587,1.41 1.357,1.433 0.185,0.003 4.563,0.11 9.793,-0.716 3.542,-0.559 8.021,-2.182 12.764,-3.899 6.996,-2.534 14.923,-5.406 19.543,-4.484 7.391,1.479 15.119,9.575 17.635,14.608 0.369,0.739 0.767,1.51 1.176,2.302 2.215,4.296 4.971,9.643 4.302,12.321 -1.104,4.409 -3.262,5.108 -5.02,5.227 -2.386,0.154 -4.699,-0.827 -5.582,-1.255 -0.015,-0.422 -0.037,-0.84 -0.066,-1.251 -0.336,-4.722 -5.36,-11.051 -5.573,-11.318 -0.481,-0.602 -1.359,-0.698 -1.962,-0.218 -0.603,0.48 -0.7,1.359 -0.219,1.961 1.305,1.634 4.741,6.575 4.97,9.773 0.308,4.303 -0.364,6.756 -2.318,8.465 -1.61,1.409 -10.852,0.307 -16.318,-1.514 -2.191,-0.73 -6.893,-4.545 -11.042,-7.911 -4.277,-3.471 -8.318,-6.749 -10.86,-7.861 -4.715,-2.062 -9.934,-2.02 -13.386,-1.984 -0.398,0.003 -0.776,0.006 -1.131,0.006 -5.115,0 -11.176,-0.599 -13.183,-1.938 -1.942,-1.294 -2.702,-4.682 -2.784,-5.751 0.087,-0.138 0.236,-0.353 0.363,-0.532 0.675,-0.961 1.803,-2.569 2.66,-5.141 1.419,-4.259 1.88,-14.172 -0.948,-21.712 -0.885,-2.359 -2.339,-4.633 -3.937,-6.668 -0.105,-0.206 -0.178,-0.335 -0.196,-0.365 -0.123,-0.213 -0.297,-0.374 -0.494,-0.491 -2.873,-3.456 -6.021,-6.093 -7.177,-7.015 -0.394,-2.451 -1.975,-12.815 -1.45,-18.334 0.488,-5.123 2.054,-15.759 7.055,-29.429 4.711,-12.874 15.906,-30.325 20.178,-34.883 4.405,-4.699 12.747,-9.551 21.769,-12.662 8.329,-2.87 20.884,-5.242 28.864,-2.481 7.764,2.688 26.286,13.777 32.011,19.803 5.744,6.046 17.521,25.521 19.323,28.857 2.859,5.289 8.689,7.628 10.521,8.252 1.603,2.758 4.058,6.041 4.168,6.188 0.274,0.365 0.693,0.558 1.118,0.558 0.291,0 0.585,-0.091 0.836,-0.277 0.616,-0.464 0.742,-1.338 0.279,-1.955 -0.027,-0.036 -2.752,-3.679 -4.238,-6.354 -0.27,-0.486 -0.728,-1.28 -1.298,-2.273 -1.901,-3.304 -7.684,-13.357 -7.831,-15.036 0,-0.705 -0.124,-1.526 -0.267,-2.479 -0.295,-1.967 -0.698,-4.661 0.298,-5.989 1.685,-2.247 8.722,-9.031 12.11,-11.495 3.182,-2.314 6.268,-6.294 6.975,-7.231 l 2.092,1.227 c 0,0 5.273,-8.997 7.445,-12.72 2.155,-3.694 17.048,-27.261 20.994,-32.422 0.852,-1.113 1.718,-2.281 2.584,-3.454 3.13,-4.227 6.366,-8.598 8.844,-10.173 1.126,-0.718 4.292,-2.588 7.958,-4.753 7.472,-4.415 17.704,-10.46 21.251,-12.964 5.067,-3.575 29.025,-12.38 38.054,-10.928 6.795,1.097 11.488,3.163 13.216,5.818 0.716,1.101 0.894,2.283 0.543,3.614 -1.401,5.325 -5.063,10.087 -10.59,13.771 -5.222,3.481 -20.812,8.459 -25.553,9.407 -4.812,0.963 -28.665,8.392 -34.127,10.962 -1.297,0.609 -2.789,1.26 -4.368,1.948 -4.892,2.133 -10.436,4.549 -13.618,7.243 -4.628,3.916 -12.895,11.031 -16.257,14.699 -3.46,3.776 -5.948,7.797 -6.052,7.966 l -0.411,0.658 1.443,2.887 3.288,2.193 0.787,-1.091 c 0.036,-0.049 3.71,-4.938 7.776,-4.697 2.61,0.163 6.052,1.478 8.55,2.589 -1.108,0.376 -2.239,0.84 -3.034,1.37 -1.954,1.304 -5.937,5.279 -6.105,5.448 l -3.42,3.419 4.716,-1.071 c 0.065,-0.016 6.577,-1.47 11.794,-0.309 2.917,0.647 6.41,2.021 8.994,3.141 -2.784,0.667 -6.183,1.582 -7.522,2.349 -2.151,1.229 -5.751,3.287 -4.635,6.073 0.22,0.549 0.749,0.891 1.308,0.891 0.17,0 0.341,-0.031 0.508,-0.099 0.716,-0.287 1.064,-1.083 0.778,-1.799 0.034,-0.275 0.524,-0.985 3.426,-2.643 1.44,-0.823 7.362,-2.244 10.756,-2.946 l 3.941,-0.815 -3.6,-1.8 c -0.312,-0.155 -7.663,-3.813 -13.349,-5.077 -2.9,-0.645 -6.068,-0.585 -8.555,-0.356 0.956,-0.867 1.895,-1.67 2.513,-2.082 1.342,-0.895 4.586,-1.723 5.723,-1.968 l 3.693,-0.793 -3.321,-1.799 c -0.315,-0.171 -7.774,-4.182 -12.983,-4.508 -4.265,-0.276 -7.801,3.046 -9.36,4.804 l -0.5,-0.334 -0.41,-0.82 c 0.828,-1.265 2.826,-4.178 5.318,-6.896 3.379,-3.688 12.316,-11.337 16.001,-14.455 2.871,-2.429 8.216,-4.76 12.931,-6.814 1.598,-0.696 3.109,-1.356 4.441,-1.982 5.252,-2.472 28.994,-9.852 33.486,-10.75 4.87,-0.975 20.739,-5.946 26.554,-9.822 6.103,-4.067 10.163,-9.388 11.741,-15.383 0.555,-2.107 0.251,-4.074 -0.903,-5.847 -2.771,-4.261 -9.748,-6.187 -15.112,-7.053 -10.007,-1.613 -34.493,7.441 -40.106,11.403 -3.454,2.438 -13.631,8.45 -21.062,12.841 -3.84,2.268 -6.871,4.06 -8.038,4.801 -2.912,1.854 -6.155,6.232 -9.587,10.867 -0.858,1.161 -1.715,2.317 -2.558,3.42 -4.204,5.496 -19.154,29.225 -21.188,32.711 -1.691,2.898 -5.254,8.979 -6.75,11.532 -0.076,-0.305 -0.248,-0.589 -0.523,-0.788 -0.621,-0.456 -1.493,-0.322 -1.949,0.3 -0.033,0.044 -3.32,4.503 -6.521,6.829 -3.446,2.506 -10.687,9.393 -12.701,12.078 -1.698,2.263 -1.192,5.625 -0.824,8.078 0.12,0.807 0.235,1.568 0.235,2.064 0,1.526 1.961,5.522 7.396,15.021 -1.991,-1.125 -4.318,-2.888 -5.703,-5.451 -2.073,-3.834 -13.82,-23.204 -19.756,-29.452 -6.066,-6.384 -24.92,-17.679 -33.123,-20.518 -8.653,-2.997 -21.938,-0.536 -30.686,2.48 -9.425,3.25 -18.198,8.382 -22.895,13.393 -4.938,5.267 -16.077,23.025 -20.763,35.832 -5.109,13.964 -6.712,24.866 -7.213,30.122 -0.234,2.453 -0.092,5.705 0.184,8.855 -1.516,-0.505 -3.445,-0.58 -5.419,0.635 -1.923,1.182 -3.213,3.318 -4.709,5.791 -2.037,3.369 -4.346,7.188 -8.88,9.682 -4.271,2.351 -11.176,-3.911 -13.477,-6.522 l -2.199,-2.496 -0.241,3.317 c -0.133,1.835 -1.1,18.052 5.972,22.093 4.535,2.592 8.532,2.075 10.919,1.307 -0.185,0.466 -0.503,0.925 -1.041,1.262 -0.964,0.602 -3.927,0.783 -5.723,0.719 l -3.302,-0.117 2.216,2.447 c 0.265,0.292 6.553,7.119 14.415,5.067 4.432,-1.157 7.771,-4.503 9.656,-6.859 z m -19.363,2.115 c 1.317,-0.152 2.685,-0.445 3.58,-1.007 3.263,-2.039 2.522,-5.944 2.49,-6.11 l -0.402,-2.013 -1.724,1.115 c -0.046,0.029 -4.627,2.911 -10.337,-0.351 -3.844,-2.197 -4.676,-10.777 -4.675,-16.306 3.318,3.022 9.53,7.559 14.58,4.783 5.19,-2.854 7.814,-7.195 9.924,-10.684 1.308,-2.162 2.437,-4.029 3.783,-4.857 1.974,-1.216 3.674,-0.202 4.29,0.264 0.457,3.985 1.002,7.204 1.047,7.467 l 0.093,0.544 0.439,0.332 c 0.061,0.046 4.202,3.219 7.617,7.482 0.624,1.305 2.261,5.314 1.464,10.097 -0.936,5.611 -7.067,9.33 -11.021,11.178 0.416,-0.938 0.776,-1.9 0.901,-2.655 0.492,-2.958 -0.911,-5.223 -0.972,-5.317 l -1.23,-1.945 -1.156,1.989 c -0.037,0.065 -3.842,6.51 -9.691,8.036 -3.55,0.926 -6.833,-0.577 -9,-2.042 z" />
          <path
             inkscape:connector-curvature="0"
             id="path219"
             d="m 355.888,318.796 c 0.415,0.113 0.86,0.171 1.32,0.171 h 10e-4 c 4.17,0 9.483,-4.694 11.374,-10.048 0.386,-1.094 3.681,-10.852 0.416,-16.167 -1.06,-1.723 -2.723,-2.776 -4.809,-3.05 -0.327,-0.042 -0.66,-0.063 -0.989,-0.063 -5.497,0 -10.42,5.976 -11.57,11.557 -0.931,4.516 -0.591,16.278 4.257,17.6 z m -1.855,-14.313 c 0.541,0.446 1.249,0.792 2.067,1.025 2.172,0.62 5.271,-1.24 5.737,-4.032 0.465,-2.791 -1.861,-4.809 -3.722,-5.117 -0.385,-0.064 -0.821,-0.06 -1.256,-0.007 1.684,-2.258 3.973,-3.922 6.341,-3.922 0.208,0 0.419,0.013 0.628,0.04 1.258,0.163 2.171,0.733 2.791,1.742 1.83,2.979 0.935,9.23 -0.671,13.777 -1.599,4.534 -6.09,8.186 -8.741,8.186 -0.212,0 -0.409,-0.024 -0.586,-0.073 -1.665,-0.454 -2.877,-6.574 -2.588,-11.619 z" />
          <path
             inkscape:connector-curvature="0"
             id="path221"
             d="m 406.255,449.561 c 0.231,0.043 5.316,0.966 9.796,0.966 0.375,0 0.745,-0.007 1.109,-0.021 6.54,-0.252 7.517,-3.147 7.606,-3.476 0.131,-0.482 -0.146,-0.962 -0.622,-1.112 -0.474,-0.151 -0.991,0.119 -1.162,0.587 -0.007,0.02 -0.767,1.944 -5.896,2.142 -4.491,0.173 -10.437,-0.905 -10.496,-0.916 -0.508,-0.092 -0.99,0.243 -1.083,0.748 -0.093,0.505 0.243,0.989 0.748,1.082 z" />
          <path
             inkscape:connector-curvature="0"
             id="path223"
             d="m 442.146,482.021 c 1.414,-0.084 2.879,-0.172 3.776,-1.367 1.019,-1.358 -0.108,-2.498 -3.841,-6.273 -2.986,-3.021 -7.075,-7.157 -8.58,-10.288 -2.749,-5.73 -5.537,-11.997 -5.564,-12.06 -0.002,-0.004 -0.006,-0.008 -0.007,-0.011 0.663,-1.594 0.786,-3.363 0.298,-4.951 -0.337,-1.092 -0.969,-4.074 -1.703,-7.526 -1.248,-5.882 -2.803,-13.2 -4.123,-17.161 -1.736,-5.211 -2.335,-6.373 -2.967,-6.664 l -4.89,-4.891 -0.22,-6.281 c -0.204,-2.151 -1.772,-6.167 -6.118,-5.913 -4.761,0.266 -6.901,4.375 -6.901,7.209 0,0.45 0.08,1.139 0.201,1.938 -1.377,-0.604 -3.738,-1.721 -5.681,-3.08 -2.804,-1.963 -4.849,-5.42 -4.868,-5.454 -0.391,-0.665 -1.244,-0.889 -1.909,-0.5 -0.665,0.389 -0.89,1.242 -0.501,1.907 0.095,0.163 2.363,4.014 5.678,6.333 3.203,2.243 7.262,3.815 7.433,3.882 0.142,0.055 0.286,0.072 0.429,0.08 0.209,1.028 0.422,2.01 0.589,2.757 -2.746,1.199 -4.446,4.018 -4.154,6.932 0.196,1.969 2.188,21.18 3.026,28.174 0.062,0.514 0.16,0.982 0.275,1.431 -3.53,-2.431 -12.832,-9.057 -18.093,-14.863 -5.583,-6.16 -13.474,-19.636 -13.554,-19.771 l -0.498,-0.854 -0.973,0.188 c -0.486,0.095 -7.365,1.424 -13.991,2.748 0.465,-0.816 1.007,-2.056 1.359,-3.818 0.804,-4.019 -2.098,-7.295 -6.7,-10.979 -4.147,-3.317 -10.267,-1.285 -12.931,-0.138 -1.259,-4.642 -4.533,-7.302 -9.032,-7.302 -2.822,0 -5.146,1.335 -6.589,2.442 -0.631,-1.531 -1.517,-3.632 -2.087,-4.771 -0.309,-0.617 -0.958,-1.688 -1.856,-3.171 -1.988,-3.28 -4.992,-8.237 -7.115,-12.91 -3.023,-6.649 -6.716,-19.527 -6.753,-19.657 -0.211,-0.741 -0.985,-1.169 -1.726,-0.958 -0.741,0.211 -1.17,0.984 -0.958,1.726 0.153,0.536 3.786,13.205 6.894,20.044 2.193,4.824 5.249,9.866 7.271,13.202 0.832,1.373 1.488,2.457 1.746,2.973 0.895,1.787 2.727,6.361 2.744,6.407 l 0.845,2.111 1.5,-1.709 c 0.026,-0.029 2.617,-2.937 6.084,-2.937 4.164,0 5.779,2.967 6.4,5.455 0.25,1.003 0.108,2.107 -0.092,2.956 -1.42,-0.631 -3.624,-1.397 -5.765,-1.275 -6.047,0.336 -8.858,3.082 -8.975,3.198 -0.541,0.541 -0.54,1.412 -0.005,1.959 0.272,0.277 0.633,0.416 0.995,0.416 0.352,0 0.702,-0.131 0.975,-0.393 0.011,-0.01 0.567,-0.529 1.718,-1.085 l 11.528,13.317 c -3.308,1.066 -6.704,2.201 -9.075,3.001 -0.196,-0.266 -0.483,-0.466 -0.832,-0.537 -0.088,-0.019 -8.699,-1.835 -12.713,-5.276 -4.652,-3.987 -7.975,-8.579 -10.157,-14.036 -1.551,-3.874 -4.464,-12.817 -7.034,-20.708 -1.481,-4.549 -2.881,-8.846 -3.799,-11.487 -0.684,-1.966 -1.579,-4.261 -2.525,-6.691 -2.462,-6.317 -5.525,-14.179 -6.406,-20.341 -0.109,-0.765 -0.819,-1.294 -1.578,-1.186 -0.764,0.109 -1.293,0.816 -1.185,1.579 0.925,6.481 4.055,14.51 6.568,20.962 0.938,2.404 1.822,4.678 2.488,6.593 0.91,2.616 2.306,6.9 3.783,11.436 2.583,7.932 5.512,16.922 7.096,20.882 2.354,5.885 5.93,10.829 10.932,15.117 3.09,2.649 8.215,4.372 11.326,5.235 l -0.751,22.289 0.669,0.429 c 0.596,0.381 14.656,9.372 21.02,12.844 7.705,4.203 27.55,10.537 28.392,10.806 l 0.523,0.166 5.662,-2.674 c 0.514,0.784 1.078,1.504 1.682,2.107 4.42,4.42 13.725,9.305 19.074,6.746 5.351,-2.559 0.233,-11.631 -3.023,-15.818 -0.255,-0.327 -0.563,-0.656 -0.896,-0.986 l 11.495,-5.428 c 0.161,-0.076 0.299,-0.182 0.414,-0.304 0.255,3.94 1.275,11.528 5.288,17.286 2.439,3.5 3.72,5.347 3.721,5.348 l 0.258,0.373 0.43,0.15 c 0.478,0.165 11.093,3.836 16.614,3.836 0.343,0 0.666,-0.015 0.965,-0.045 3.106,-0.311 4.99,-1.117 6.365,-1.707 0.728,-0.312 1.303,-0.559 1.81,-0.622 0.472,-0.062 0.927,-0.088 1.355,-0.113 z M 401.298,420.36 c -0.175,-1.755 0.901,-3.462 2.619,-4.148 0.114,-0.046 0.226,-0.091 0.334,-0.135 0.134,0.007 0.264,-0.004 0.396,-0.034 0.292,-0.068 0.541,-0.224 0.726,-0.431 1.472,-0.627 2.327,-1.054 2.373,-1.076 0.689,-0.345 0.969,-1.183 0.624,-1.872 -0.343,-0.689 -1.183,-0.969 -1.872,-0.625 -0.008,0.004 -0.438,0.218 -1.206,0.562 -0.567,-2.581 -1.194,-5.765 -1.194,-6.757 0,-0.884 0.724,-4.225 4.265,-4.421 2.752,-0.153 3.148,3.033 3.181,3.307 l 0.251,7.295 6.02,6.02 c 0.184,0.359 0.72,1.558 1.941,5.223 1.271,3.812 2.807,11.046 4.041,16.858 0.777,3.663 1.392,6.556 1.765,7.769 0.376,1.224 0.135,2.71 -0.633,3.879 -0.526,0.803 -1.528,1.802 -3.306,2 -3.992,0.441 -13.107,-0.458 -13.254,-0.472 -0.357,-0.026 -3.515,-0.379 -4.048,-4.821 -0.839,-6.977 -2.827,-26.156 -3.023,-28.121 z m -32.985,-2.418 c -0.093,-0.004 -0.186,0.002 -0.279,0.019 -0.166,0.029 -1.5,0.263 -3.467,0.63 1.582,-0.309 2.881,-0.562 3.703,-0.722 0.013,0.021 0.031,0.051 0.043,0.073 z m -20.682,-12.869 c 4.563,3.651 6.163,5.965 5.706,8.251 -0.512,2.561 -1.479,3.629 -1.479,3.629 -0.374,0.374 -0.472,0.903 -0.332,1.378 -1.896,0.383 -3.669,0.748 -5.152,1.061 L 336.15,408.316 c 0.207,-0.638 0.449,-1.564 0.543,-2.605 1.269,-0.623 7.459,-3.422 10.938,-0.638 z m -22.109,3.441 c 0.762,-0.165 1.621,-0.293 2.587,-0.346 2.303,-0.119 4.898,1.213 5.559,1.574 l 9.551,10.348 c -1.396,0.337 -3.626,0.999 -6.131,1.783 l -11.566,-13.359 z m -2.35,39.616 0.64,-18.944 c 2.13,-0.725 7.627,-2.584 12.522,-4.146 0.171,0.072 0.353,0.111 0.536,0.111 0.325,0 0.65,-0.112 0.914,-0.34 0.105,-0.093 0.188,-0.199 0.26,-0.312 2.441,-0.765 4.593,-1.402 5.896,-1.713 2.245,-0.534 7.873,-1.676 13.253,-2.744 -3.197,0.667 -6.518,1.419 -9.069,2.137 -7.485,2.104 -18.395,7.54 -18.855,7.771 l -1.728,0.862 38.188,38.404 c -6.595,-2.228 -17.357,-6.034 -22.373,-8.771 -5.501,-2.998 -17.256,-10.451 -20.184,-12.315 z m 66.037,17.962 c 1.629,2.326 5.007,6.392 3.723,7.677 -1.861,1.86 -6.514,-1.629 -8.84,-3.723 -0.497,-0.446 -1.047,-1.015 -1.589,-1.641 l 6.197,-2.927 c 0.195,0.211 0.373,0.418 0.509,0.614 z m -9.305,-4.42 c 1.069,-1.068 4.062,0.186 6.446,1.828 l -5.56,2.626 c -1.136,-1.78 -1.773,-3.566 -0.886,-4.454 z m 23.829,-6.38 -12.692,5.994 c -4.396,-3.062 -10.949,-5.402 -13.695,-3.801 -3.901,2.275 -3.824,7.159 -2.075,11.247 l -4.144,1.957 -38.868,-39.089 c 3.41,-1.632 11.114,-5.186 16.62,-6.734 6.751,-1.897 19.507,-4.133 19.635,-4.155 0.458,-0.08 0.821,-0.378 1.012,-0.765 2.688,4.401 7.937,12.674 12.137,17.309 6.786,7.487 19.5,15.921 20.038,16.277 0.523,0.348 1.194,0.286 1.655,-0.096 0.58,0.73 1.239,1.279 1.902,1.685 0,0.1 0,0.234 0.002,0.393 -0.406,-0.363 -1.004,-0.468 -1.527,-0.222 z m 34.148,24.896 c -1.275,0.548 -2.864,1.229 -5.543,1.497 -3.612,0.355 -12.353,-2.281 -15.957,-3.505 -0.488,-0.705 -1.659,-2.39 -3.463,-4.977 -4.072,-5.844 -4.741,-14.145 -4.849,-17.128 0.024,0.001 0.052,0.006 0.075,0.007 0.307,0.031 6.087,0.603 10.607,0.603 1.187,0 2.287,-0.039 3.179,-0.139 1.596,-0.178 3.015,-0.825 4.139,-1.854 1.002,2.226 2.967,6.545 4.917,10.607 1.704,3.555 5.985,7.883 9.11,11.044 0.937,0.947 2.025,2.049 2.722,2.83 -0.289,0.028 -0.598,0.046 -0.84,0.061 -0.483,0.029 -0.999,0.061 -1.533,0.128 -0.899,0.113 -1.708,0.459 -2.564,0.826 z" />
          <path
             inkscape:connector-curvature="0"
             id="path225"
             d="m 422.484,457.435 c -0.2,0.057 -0.399,0.113 -0.593,0.167 -0.548,0.153 -1.104,0.262 -1.664,0.35 0.453,1.346 1.639,4.824 2.828,8.024 1.512,4.07 3.98,8.473 5.932,11.398 1.074,1.612 1.955,2.506 2.578,3.002 1.473,-0.084 2.729,-0.426 3.763,-0.802 -1.635,-1.829 -5.629,-6.562 -8.667,-12.319 -1.689,-3.2 -3.442,-7.817 -4.177,-9.82 z" />
          <path
             inkscape:connector-curvature="0"
             id="path227"
             d="m 422.125,467.139 c -1.74,-4.061 -2.755,-7.871 -3.049,-9.045 -0.77,0.069 -1.533,0.091 -2.278,0.074 0.158,1.409 0.605,4.345 1.838,8.04 2.134,6.403 5.323,11.457 6.678,13.442 1.576,0.311 3.122,0.551 4.36,0.669 -0.451,-0.582 -1.083,-1.418 -1.792,-2.422 -1.396,-1.977 -3.664,-5.874 -5.757,-10.758 z" />
          <path
             inkscape:connector-curvature="0"
             id="path229"
             d="m 429.336,465.161 c -1.204,-2.709 -3.838,-8.606 -3.838,-8.606 0,0 -0.923,0.275 -2.007,0.59 0.934,2.049 3.74,8.146 5.845,11.972 2.014,3.661 5.964,8.104 7.559,9.835 0.473,-0.2 0.868,-0.358 1.164,-0.414 1.861,-0.35 0.233,-1.396 -0.93,-3.257 -1.163,-1.861 -5.933,-5.932 -7.793,-10.12 z" />
          <path
             inkscape:connector-curvature="0"
             id="path231"
             d="m 415.077,458.071 c -0.931,-0.087 -1.805,-0.214 -2.575,-0.356 0.293,2.187 0.994,6.916 1.889,9.308 1.634,4.369 4.97,9.402 6.485,11.578 0.92,0.262 1.958,0.52 3.035,0.757 -0.986,-1.698 -3.139,-5.45 -4.868,-8.788 -2.658,-5.13 -3.67,-10.549 -3.966,-12.499 z" />
          <path
             inkscape:connector-curvature="0"
             id="path233"
             d="m 411.261,457.456 c -1.256,-0.288 -2.046,-0.553 -2.046,-0.553 0,0 0.116,6.281 2.675,11.747 2.559,5.467 5.436,8.432 6.048,8.84 0.364,0.242 1.042,0.515 1.896,0.793 -1.601,-2.152 -4.805,-6.771 -6.258,-11.087 -0.998,-2.964 -1.931,-7.684 -2.315,-9.74 z" />
          <path
             inkscape:connector-curvature="0"
             id="path235"
             d="m 425.032,483.771 c -7.676,-2.326 -13.957,-1.628 -16.051,0.232 -3.339,2.969 -2.559,10.934 7.909,14.888 10.468,3.955 16.46,0.169 17.446,-2.791 1.164,-3.49 -1.627,-10.003 -9.304,-12.329 z m 3.025,10.467 c -1.163,2.094 -6.048,1.163 -9.072,0 -3.024,-1.163 -5.882,-4.001 -4.42,-6.048 1.163,-1.628 5.815,-1.628 8.84,-0.232 3.074,1.419 5.815,4.187 4.652,6.28 z" />
          <polygon
             id="polygon237"
             points="442.788,496.564 463.104,509.746 472.099,504.318 448.371,494.083 " />
          <polygon
             id="polygon239"
             points="444.03,482.762 439.997,487.57 474.58,488.655 469.772,482.918 " />
          <path
             inkscape:connector-curvature="0"
             id="path241"
             d="m 442.169,470.666 c -1.551,0.311 -2.326,0.155 -2.326,0.155 0,0 0.931,1.24 1.705,2.171 0.775,0.931 1.706,1.706 1.706,1.706 0,0 16.681,-3.104 12.407,-9.615 -3.257,-4.962 -14.577,-4.497 -16.283,-4.497 -1.707,0 -5.118,0.775 -5.118,0.775 l 1.861,3.103 c 0,0 9.614,-0.312 10.079,2.015 0.466,2.326 -2.48,3.876 -4.031,4.187 z" />
          <path
             inkscape:connector-curvature="0"
             id="path243"
             d="m 256.242,227.733 7.237,5.863 16.073,-21.022 -23.31,15.159 z m 6.764,1.887 -2.024,-1.64 6.52,-4.238 -4.496,5.878 z" />
          <path
             inkscape:connector-curvature="0"
             id="path245"
             d="m 290.542,222.656 -12.232,-8.105 -14.241,21.491 12.231,8.105 14.242,-21.491 z m -22.604,12.602 11.156,-16.838 7.579,5.021 -11.158,16.837 -7.577,-5.02 z" />
        </g>
      </g>
    </g>
  </g>
</svg>
