<?xml version="1.0" encoding="UTF-8" standalone="no"?>
<!-- Created with Inkscape (http://www.inkscape.org/) -->

<svg
   xmlns:dc="http://purl.org/dc/elements/1.1/"
   xmlns:cc="http://creativecommons.org/ns#"
   xmlns:rdf="http://www.w3.org/1999/02/22-rdf-syntax-ns#"
   xmlns:svg="http://www.w3.org/2000/svg"
   xmlns="http://www.w3.org/2000/svg"
   xmlns:xlink="http://www.w3.org/1999/xlink"
   xmlns:sodipodi="http://sodipodi.sourceforge.net/DTD/sodipodi-0.dtd"
   xmlns:inkscape="http://www.inkscape.org/namespaces/inkscape"
   width="1920"
   height="1080"
   id="svg2"
   version="1.1"
   inkscape:version="0.91 r13725"
   sodipodi:docname="intro.svg">
  <defs
     id="defs4">
    <linearGradient
       id="linearGradient3807">
      <stop
         style="stop-color:#ffffff;stop-opacity:0;"
         offset="0"
         id="stop3809" />
      <stop
         id="stop3815"
         offset="0.2"
         style="stop-color:#ffffff;stop-opacity:0.78431374;" />
      <stop
         style="stop-color:#ffffff;stop-opacity:0.78431374;"
         offset="1"
         id="stop3811" />
    </linearGradient>
    <linearGradient
       inkscape:collect="always"
       xlink:href="#linearGradient3807"
       id="linearGradient3813"
       x1="650"
       y1="595.07648"
       x2="1230"
       y2="595.07648"
       gradientUnits="userSpaceOnUse"
       gradientTransform="matrix(1,0,0,0.99744172,-74.949237,-22.857439)" />
    <linearGradient
       inkscape:collect="always"
       xlink:href="#linearGradient3807"
       id="linearGradient3819"
       x1="575.05078"
       y1="570.69666"
       x2="1155.0508"
       y2="570.69666"
       gradientUnits="userSpaceOnUse"
       spreadMethod="reflect" />
    <linearGradient
       inkscape:collect="always"
       xlink:href="#linearGradient3807-2"
       id="linearGradient3819-8"
       x1="575.05078"
       y1="570.69666"
       x2="1155.0508"
       y2="570.69666"
       gradientUnits="userSpaceOnUse"
       spreadMethod="reflect" />
    <linearGradient
       id="linearGradient3807-2">
      <stop
         style="stop-color:#ffffff;stop-opacity:0;"
         offset="0"
         id="stop3809-5" />
      <stop
         id="stop3815-1"
         offset="0.2"
         style="stop-color:#ffffff;stop-opacity:1;" />
      <stop
         style="stop-color:#ffffff;stop-opacity:1;"
         offset="1"
         id="stop3811-1" />
    </linearGradient>
    <linearGradient
       gradientTransform="matrix(2.3933139,0,0,1,-1291.5105,359.35582)"
       y2="570.69666"
       x2="1155.0508"
       y1="570.69666"
       x1="575.05078"
       spreadMethod="reflect"
       gradientUnits="userSpaceOnUse"
       id="linearGradient4017-1"
       xlink:href="#linearGradient3807-2-2"
       inkscape:collect="always" />
    <linearGradient
       id="linearGradient3807-2-2">
      <stop
         style="stop-color:#ffffff;stop-opacity:0;"
         offset="0"
         id="stop3809-5-5" />
      <stop
         id="stop3815-1-7"
         offset="0.2"
         style="stop-color:#ffffff;stop-opacity:1;" />
      <stop
         style="stop-color:#ffffff;stop-opacity:1;"
         offset="1"
         id="stop3811-1-0" />
    </linearGradient>
    <linearGradient
       y2="570.69666"
       x2="1155.0508"
       y1="570.69666"
       x1="575.05078"
       spreadMethod="reflect"
       gradientTransform="matrix(2.3933139,0,0,1,-842.013,2.87365)"
       gradientUnits="userSpaceOnUse"
       id="linearGradient4510"
       xlink:href="#linearGradient3807-2-2"
       inkscape:collect="always" />
    <filter
       id="filter4858"
       inkscape:label="Drop Shadow"
       width="1.2"
       color-interpolation-filters="sRGB">
      <feFlood
         id="feFlood4860"
         flood-opacity="0.29666666666666669"
         flood-color="rgb(255,255,255)"
         result="flood" />
      <feComposite
         id="feComposite4862"
         in2="SourceGraphic"
         in="flood"
         operator="in"
         result="composite1" />
      <feGaussianBlur
         id="feGaussianBlur4864"
         stdDeviation="2"
         result="blur" />
      <feOffset
         id="feOffset4866"
         dx="2"
         dy="2.2000000000000002"
         result="offset" />
      <feComposite
         id="feComposite4868"
         in2="offset"
         in="SourceGraphic"
         operator="over"
         result="composite2"
         dy="0" />
    </filter>
  </defs>
  <sodipodi:namedview
     id="base"
     pagecolor="#ffffff"
     bordercolor="#666666"
     borderopacity="1.0"
     inkscape:pageopacity="0.0"
     inkscape:pageshadow="2"
     inkscape:zoom="0.49497475"
     inkscape:cx="865.28389"
     inkscape:cy="514.86212"
     inkscape:document-units="px"
     inkscape:current-layer="layer1"
     showgrid="false"
     inkscape:window-width="1920"
     inkscape:window-height="1014"
     inkscape:window-x="1280"
     inkscape:window-y="27"
     inkscape:window-maximized="1"
     showguides="true"
     inkscape:guide-bbox="true"
     inkscape:snap-global="true"
     inkscape:snap-bbox="true"
     inkscape:bbox-paths="true"
     inkscape:bbox-nodes="true"
     inkscape:snap-bbox-edge-midpoints="true"
     inkscape:snap-bbox-midpoints="true"
     inkscape:object-paths="false"
     inkscape:snap-to-guides="true">
    <sodipodi:guide
       orientation="0,1"
       position="0,0"
       id="guide3017" />
    <sodipodi:guide
       orientation="0,1"
       position="0,576"
       id="guide3019" />
    <sodipodi:guide
       orientation="1,0"
       position="0,0"
       id="guide3021" />
    <sodipodi:guide
       orientation="1,0"
       position="1024,0"
       id="guide3023" />
    <sodipodi:guide
       orientation="0,1"
       position="0,25"
       id="guide3025" />
    <sodipodi:guide
       orientation="0,1"
       position="0,547"
       id="guide3027" />
    <sodipodi:guide
       orientation="1,0"
       position="32,0"
       id="guide3029" />
    <sodipodi:guide
       orientation="1,0"
       position="994,0"
       id="guide3031" />
  </sodipodi:namedview>
  <metadata
     id="metadata7">
    <rdf:RDF>
      <cc:Work
         rdf:about="">
        <dc:format>image/svg+xml</dc:format>
        <dc:type
           rdf:resource="http://purl.org/dc/dcmitype/StillImage" />
        <dc:title />
      </cc:Work>
    </rdf:RDF>
  </metadata>
  <g
     inkscape:label="Ebene 1"
     inkscape:groupmode="layer"
     id="layer1"
     transform="translate(0,27.63782)">
    <rect
       style="fill:#000000;fill-opacity:1;fill-rule:nonzero;stroke:none"
       id="rect3797"
       width="1920"
       height="1080"
       x="0"
       y="-27.637817" />
    <path
       style="fill:#3399e5;fill-opacity:1"
       d="m 705.85227,396.71582 c -8.70351,-8.70351 -3.95779,-27.71196 8.57901,-34.36228 4.92978,-2.61508 21.77157,-1.83259 24.75426,1.1501 0.9636,0.9636 -2.31065,1.27865 -7.80346,0.75086 -11.64791,-1.11922 -19.01891,1.73984 -23.33865,9.05257 -4.76693,8.06977 -4.44328,15.96151 0.88876,21.67117 3.96425,4.245 5.63119,4.7196 13.88031,3.95188 5.15625,-0.47987 11.0625,-1.46278 13.125,-2.18426 2.47007,-0.86404 2.15008,-0.3303 -0.9375,1.56378 -2.60687,1.59921 -9.09464,2.90507 -14.61648,2.94201 -8.09434,0.0542 -10.77936,-0.78394 -14.53125,-4.53583 z m 204.92898,3.27904 c 4.90093,-0.94397 5.10953,-2.02887 1.34663,-7.00388 -6.57878,-8.6979 -1.46142,-16.25646 10.71761,-15.83038 3.5859,0.12546 4.62997,0.55311 2.46701,1.0105 -2.0625,0.43615 -5.64844,1.1981 -7.96875,1.69323 -4.97188,1.06091 -5.82742,8.40953 -1.40625,12.07877 1.54687,1.28379 2.8125,3.91836 2.8125,5.85457 0,2.77414 -1.2918,3.4663 -6.09375,3.26509 -4.40674,-0.18469 -4.92581,-0.4803 -1.875,-1.0679 z m -112.7138,-1.85931 c -2.69054,-2.69053 11.35494,-19.75668 19.95742,-24.24951 4.97153,-2.5965 5.43405,-2.45882 10.01042,2.97989 2.63893,3.13619 6.50083,5.70217 8.58199,5.70217 2.62659,0 3.44714,0.87767 2.68278,2.86954 -0.71862,1.87271 0.51436,3.6056 3.5494,4.98845 2.5578,1.16543 4.65054,2.8444 4.65054,3.73108 0,1.91513 -14.22215,-5.06356 -15.92094,-7.81228 -0.64646,-1.04598 -5.6371,-1.90179 -11.09032,-1.90179 -10.46958,0 -17.98874,4.16029 -17.98874,9.95302 0,3.34401 -2.61874,5.55325 -4.43255,3.73943 z M 822.1875,378.8181 c -0.63735,-1.03125 -1.95277,-1.875 -2.92316,-1.875 -0.97039,0 -1.76434,0.84375 -1.76434,1.875 0,1.03125 1.31542,1.875 2.92316,1.875 1.60773,0 2.40169,-0.84375 1.76434,-1.875 z m 40.37897,15.59614 c -2.17563,-2.76587 -3.50249,-6.20987 -2.94858,-7.65336 0.55391,-1.44347 1.00711,-3.37978 1.00711,-4.3029 0,-2.20735 9.19101,-8.19887 10.52726,-6.86261 0.56938,0.56937 -0.72257,2.79304 -2.87102,4.94148 -5.21998,5.21999 -4.93023,10.64886 0.76759,14.38221 5.30278,3.47453 11.42912,2.58109 17.82726,-2.59982 5.30372,-4.29468 3.87716,-10.0821 -3.31838,-13.46243 -3.32329,-1.56122 -4.22949,-2.72568 -2.58215,-3.31806 3.20913,-1.15401 12.26373,5.48142 13.06927,9.57747 0.33401,1.69851 -1.92139,5.6169 -5.01202,8.70754 -4.57907,4.57907 -7.18283,5.61934 -14.065,5.61934 -6.92831,0 -9.15631,-0.90347 -12.40134,-5.02886 z m 76.80853,1.30577 c 0,-2.04771 1.01874,-7.53209 2.26387,-12.1875 1.81894,-6.80078 3.07862,-8.46441 6.40917,-8.46441 9.73967,0 12.44139,3.65455 7.08078,9.57797 -3.80199,4.20116 -1.96711,7.24389 4.51309,7.48393 2.77508,0.10275 7.15496,0.93129 9.73309,1.84108 5.05436,1.78365 -12.1257,0.5739 -20.27109,-1.4274 -3.33229,-0.81874 -4.57422,-0.14475 -5.37494,2.91733 -1.31456,5.02688 -4.35397,5.20768 -4.35397,0.259 z m 13.16261,-12.25973 c 1.30448,-1.57179 1.86604,-3.36352 1.24795,-3.98163 -1.92012,-1.9201 -6.91056,0.94545 -6.91056,3.96811 0,3.6724 2.62082,3.67866 5.66261,0.0131 z M 986.25,398.41552 c 0,-2.63064 13.25582,-21.35141 16.9514,-23.93987 3.9347,-2.75596 4.4822,-2.56714 10.2305,3.52781 3.3404,3.54181 7.0782,6.43964 8.3064,6.43964 1.2282,0 1.757,0.77021 1.1752,1.71157 -0.5818,0.94137 1.2653,3.40386 4.1047,5.47219 2.8393,2.06833 4.5575,4.36555 3.8181,5.1049 -0.7393,0.73936 -3.5916,-0.24655 -6.3383,-2.19092 -9.3817,-6.64125 -12.9374,-8.16747 -19.0925,-8.1951 -5.0626,-0.0227 -6.84517,1.13878 -10.02894,6.53486 -2.12958,3.60937 -5.05425,6.5625 -6.49927,6.5625 -1.44501,0 -2.62729,-0.46241 -2.62729,-1.02758 z m 23.4375,-17.72242 c -0.6373,-1.03125 -2.3746,-1.875 -3.8607,-1.875 -1.486,0 -2.7018,0.84375 -2.7018,1.875 0,1.03125 1.7373,1.875 3.8607,1.875 2.1233,0 3.3391,-0.84375 2.7018,-1.875 z m 28.9165,18.00174 c -0.9368,-0.95651 1.1113,-15.91417 3.1915,-23.30731 0.4983,-1.77118 2.4664,-2.12457 6.7967,-1.22046 16.897,3.52786 23.9133,14.76808 12.8043,20.51276 -6.1759,3.19369 -21.0335,5.81093 -22.7925,4.01501 z m 21.702,-8.78653 3.7565,-3.81866 -4.4265,-3.63578 c -5.1275,-4.21163 -13.386,-4.86414 -13.386,-1.05765 0,1.41797 -0.5537,5.34668 -1.2305,8.73047 l -1.2304,6.15235 6.3802,-1.27605 c 3.5091,-0.70182 8.0706,-2.99443 10.1367,-5.09468 z m 22.019,1.21517 c 0.955,-8.47249 3.9102,-14.19518 6.1657,-11.9397 1.5095,1.50949 -2.9555,18.21855 -5.2468,19.63463 -1.2568,0.77671 -1.5742,-1.88108 -0.9189,-7.69493 z M 1110,395.6931 c -2.0625,-2.0625 -3.75,-5.47584 -3.75,-7.58522 0,-4.76149 8.0372,-13.06038 12.571,-12.98038 2.6806,0.0473 2.3159,0.84324 -1.7897,3.90639 -2.9711,2.21665 -5.1563,5.64409 -5.1563,8.0875 0,4.92225 5.3786,10.44671 10.1708,10.44671 4.3857,0 13.8161,-5.65909 15.1281,-9.07819 1.1896,-3.10003 -3.5635,-9.07809 -8.151,-10.25159 -1.6969,-0.43411 -0.5541,-0.46988 2.5396,-0.0795 17.1751,2.16724 8.5276,21.28427 -9.6279,21.28427 -5.6846,0 -9.33,-1.14544 -11.9346,-3.75 z m -328.125,-2.69762 c 0,-3.98001 -1.09037,-4.73612 -8.41348,-5.83429 -11.23088,-1.68418 -17.83652,0.10002 -17.83652,4.81763 0,2.04285 -0.84375,3.71428 -1.875,3.71428 -3.80636,0 -1.93065,-12.85123 2.65299,-18.17669 4.609,-5.35493 9.27344,-4.96933 4.81866,0.39835 -3.35733,4.04533 -0.76522,5.85146 10.34085,7.20529 11.08139,1.35082 14.98442,-0.44346 13.1993,-6.06786 -0.94693,-2.98352 -0.47297,-3.98409 1.88724,-3.98409 2.68575,0 2.95936,1.28295 1.85052,8.67722 -0.71568,4.77247 -1.7455,9.83497 -2.2885,11.25 -1.60845,4.19156 -4.33606,2.93357 -4.33606,-1.99984 z m 418.4947,-16.9457 c -5.0771,-6.45458 -5.451,-19.00165 -1.1355,-38.11129 2.066,-9.14841 2.413,-14.23548 1.1276,-16.53231 -1.6114,-2.87933 -2.625,-2.10615 -7.6717,5.8517 -3.1983,5.04317 -5.8151,10.69171 -5.8151,12.55231 0,1.8606 -0.9541,3.38291 -2.1203,3.38291 -3.6021,0 -0.5171,-11.4351 6.1776,-22.89847 6.925,-11.85783 10.2998,-13.4594 12.0011,-5.69528 0.6214,2.83594 1.46,6.22463 1.8635,7.53041 0.4036,1.3058 -0.4951,9.32142 -1.997,17.8125 -3.4881,19.71951 -3.4684,24.64442 0.1265,31.59606 4.079,7.88778 2.4124,10.82855 -2.5566,4.51146 z m -20.0572,-23.48168 c 0.6374,-1.03125 3.6403,-1.875 6.6732,-1.875 3.0329,0 5.5143,0.84375 5.5143,1.875 0,1.03125 -3.0029,1.875 -6.6732,1.875 -3.9713,0 -6.2039,-0.75915 -5.5143,-1.875 z m 23.4375,-3.07333 c 0,-0.81032 2.2177,-3.24162 4.9282,-5.4029 7.3884,-5.89134 8.2171,-19.50381 1.9024,-31.24973 -5.9688,-11.10242 -2.5226,-13.27977 4.8688,-3.07618 4.6789,6.45901 6.0311,7.17714 13.5142,7.17714 4.5733,0 8.8366,0.84375 9.4739,1.875 1.2278,1.98663 -3.559,2.69123 -13.5937,2.00093 -6.0212,-0.4142 -6.0938,-0.32016 -6.0938,7.88766 0,9.13727 -6.2263,20.57172 -11.7847,21.64216 -1.7684,0.34057 -3.2153,-0.0438 -3.2153,-0.85408 z m -120.2844,-12.83606 c -0.5002,-0.50016 -84.38297,-1.14234 -186.40624,-1.42706 -135.56075,-0.37832 -186.81157,-1.10263 -190.38057,-2.69059 -6.70452,-2.98304 -16.22519,-16.45658 -19.62325,-27.77061 -1.64898,-5.49036 -3.54353,-23.70373 -4.56202,-43.85727 -1.72022,-34.03915 -1.69023,-34.53303 2.41356,-39.74828 2.28548,-2.90447 5.63198,-5.80255 7.43667,-6.44018 1.80469,-0.63763 3.28125,-2.74017 3.28125,-4.67232 0,-4.89966 2.88379,-6.2638 16.875,-7.98253 34.46916,-4.23431 247.63369,-6.34295 324.375,-3.20875 93.8206,3.83175 95.743,3.98506 103.0362,8.21667 11.8562,6.87914 15.6082,10.18243 14.5873,12.84276 -0.547,1.42537 -0.3493,6.1198 0.4392,10.43207 l 1.4338,7.84048 -9.1233,0 -9.1232,0 0,-8.80365 c 0,-6.9993 -1.0326,-9.88148 -5.0383,-14.0625 -2.7711,-2.89237 -6.4383,-5.25885 -8.1494,-5.25885 -1.7111,0 -5.983,-1.47656 -9.493,-3.28125 -5.9424,-3.05533 -16.9033,-3.25541 -159.1943,-2.906 -179.10516,0.43982 -232.38021,2.66122 -244.13939,10.17983 -3.82354,2.44471 -6.9876,5.43934 -7.03125,6.65474 -0.0436,1.2154 -1.20436,3.33482 -2.57936,4.70982 -3.16126,3.16126 -3.44202,5.67631 -3.2599,29.20258 0.17644,22.79354 4.76801,57.92245 8.09524,61.93473 5.76109,6.94723 14.42254,8.176 77.21842,10.95468 86.99895,3.84965 259.64074,2.4876 307.91044,-2.42925 39.3404,-4.0073 43.0928,-5.62518 41.1549,-17.74428 -0.7566,-4.73147 -0.2681,-7.52268 1.5857,-9.06124 1.4735,-1.22291 3.2223,-4.69643 3.8862,-7.71892 1.0478,-4.77094 2.0525,-5.49544 7.6205,-5.49544 7.3595,0 7.3512,-0.0331 3.601,14.36495 -1.5469,5.93886 -2.8125,15.26127 -2.8125,20.71649 0,5.4552 -0.2109,9.92245 -0.4687,9.9272 -0.2579,0.005 -11.8594,1.68836 -25.7813,3.74136 -25.3423,3.73712 -36.0806,4.54442 -37.7844,2.84061 z m 108.0969,-31.3654 c 7.6889,-2.70474 9.8021,-4.61523 17.1126,-15.47069 6.7789,-10.06604 8.7272,-7.57114 3.1937,4.08973 -3.7266,7.85335 -12.5146,13.69605 -20.3063,13.50072 l -5.625,-0.14102 5.625,-1.97874 z M 763.74495,303.8181 c -20.79965,-0.51563 -38.38487,-1.5071 -39.07828,-2.20328 -0.6934,-0.69618 -1.70862,-16.30556 -2.25604,-34.6875 -0.97825,-32.84924 -0.92091,-33.51498 3.34758,-38.8665 l 4.34287,-5.44477 42.20162,1.22818 c 23.21089,0.6755 42.89574,1.92231 43.7441,2.77067 1.90896,1.90896 5.7545,63.44516 4.32324,69.18033 -2.12347,8.50889 -7.31995,9.24515 -56.62509,8.02287 z m 48.32364,-7.61141 c 5.6743,-3.02207 6.68517,-56.23155 1.20009,-63.16984 -1.3787,-1.74399 -12.09897,-2.34375 -41.89254,-2.34375 l -40.03969,0 -3.14014,4.79246 c -2.70191,4.12364 -2.98135,8.30571 -2.00227,29.96624 0.62584,13.84558 2.02862,26.83812 3.11729,28.87233 1.5955,2.98123 4.43013,3.84654 14.61529,4.46152 17.98849,1.08615 64.5705,-0.67683 68.14197,-2.57896 z M 741.5625,285.0681 c 1.38001,-2.23291 53.96523,-2.23291 60.9375,0 2.75849,0.88342 -9.05402,1.57811 -28.70441,1.6881 -21.82991,0.12219 -32.99066,-0.46232 -32.23309,-1.6881 z m -8.4375,-10.69812 c 0,-2.7579 16.01068,-4.26696 45.46875,-4.28558 15.94837,-0.0101 25.78125,0.69882 25.78125,1.8587 0,1.03125 -1.05469,1.88367 -2.34375,1.89426 -1.28906,0.0105 -17.32031,0.56329 -35.625,1.22821 -22.07514,0.80189 -33.28125,0.56768 -33.28125,-0.69559 z m 59.51805,-12.90883 c -0.60882,-0.60882 -14.25101,-1.37598 -30.31598,-1.70481 -16.06497,-0.32882 -29.19261,-1.30726 -29.17253,-2.1743 0.0425,-1.83387 66.4526,-1.46987 70.98592,0.38908 2.6444,1.08438 2.55151,1.45324 -0.70296,2.79145 -4.57588,1.88156 -9.30539,2.18763 -10.79445,0.69858 z M 733.125,243.97435 c 0,-0.94531 0.8337,-2 1.85267,-2.34375 4.45386,-1.50251 69.39733,0.62114 69.39733,2.2693 0,1.07801 -14.20835,1.7932 -35.625,1.7932 -20.34091,0 -35.625,-0.73739 -35.625,-1.71875 z m 128.19384,59.01802 c -8.41677,-3.66286 -9.19142,-6.18805 -3.61037,-11.7691 4.84254,-4.84255 5.01299,-4.86911 11.47382,-1.78815 8.67906,4.13875 10.11848,8.3034 4.39163,12.70621 -5.34454,4.10889 -4.84815,4.07442 -12.25508,0.85104 z m 9.50578,-4.61662 c 1.18109,-1.91103 -10.20332,-6.42895 -11.90697,-4.7253 -1.36829,1.36829 5.33327,6.41765 8.51756,6.41765 1.28891,0 2.81415,-0.76156 3.38941,-1.69235 z m 22.14413,4.91799 c -5.49907,-2.50751 -5.35185,-7.13247 0.39902,-12.53513 4.41109,-4.144 4.83069,-4.19866 9.375,-1.22112 6.26074,4.10219 6.08792,9.75744 -0.39902,13.05713 -3.78071,1.92312 -6.2817,2.10963 -9.375,0.69912 z M 900,297.36626 c 0,-2.98618 -3.40193,-5.77124 -5.04388,-4.12928 -1.54245,1.54245 0.86535,6.83112 3.11004,6.83112 1.06361,0 1.93384,-1.21583 1.93384,-2.70184 z m 18.82476,5.60441 c -2.6979,-3.25076 -1.94845,-8.84261 1.33149,-9.9347 1.47156,-0.48996 2.34375,1.02218 2.34375,4.06338 0,5.37208 4.51018,6.70339 6.36189,1.8779 1.79738,-4.68387 1.40661,-6.01291 -2.96544,-10.08611 -4.65495,-4.33674 -2.78227,-4.93215 4.65261,-1.47929 7.02864,3.2642 7.20933,12.95728 0.30022,16.10528 -6.31957,2.87939 -9.29349,2.74424 -12.02452,-0.54646 z m 105.93404,-1.49632 c -1.5688,-4.91211 -4.7525,-39.08829 -4.6147,-49.53832 0.079,-6.01174 1.1469,-14.25514 2.3725,-18.31868 3.0594,-10.14369 7.3285,-10.95419 53.2374,-10.10724 42.135,0.77732 42.6025,0.91603 45.4365,13.48166 2.1317,9.45155 -2.4291,9.25547 -4.7661,-0.20492 l -1.7369,-7.03125 -13.3945,-1.64289 c -7.367,-0.90358 -25.8109,-1.02219 -40.9865,-0.26357 -36.8628,1.84278 -35.2304,0.13384 -34.3849,35.99646 0.7954,33.73758 0.4995,33.35435 27.3069,35.36418 21.9859,1.64835 51.3832,-0.0314 58.3037,-3.33151 3.6691,-1.74967 5.1893,-4.04414 5.6179,-8.47946 0.3636,-3.76324 1.6141,-6.08071 3.2812,-6.08071 3.1917,0 3.4536,5.62583 0.7201,15.46875 l -1.9527,7.03125 -46.8457,0 c -35.8273,0 -47.0218,-0.55126 -47.5942,-2.34375 z m -76.63379,-0.78125 c -1.82492,-1.8249 -1.52834,-9.60667 0.41182,-10.80576 0.91401,-0.56488 2.10064,0.65095 2.63696,2.70185 0.53633,2.0509 2.31975,3.72891 3.96317,3.72891 3.51023,0 3.93608,-3.92696 0.7693,-7.09375 -3.2338,-3.2338 -0.6226,-4.80536 3.93315,-2.36719 4.82535,2.58244 5.0375,7.8599 0.4817,11.98284 -3.48137,3.1506 -9.92027,4.12893 -12.1961,1.8531 z m 27.60926,-1.41599 c -0.56267,-1.46629 -0.0583,-4.46869 1.12093,-6.672 3.13526,-5.85829 13.82387,-4.67725 14.71509,1.62595 0.34804,2.4615 -0.49571,5.19076 -1.875,6.06503 -4.00451,2.53829 -12.84352,1.89316 -13.96102,-1.01898 z M 1175.625,298.1931 c 0,-1.03125 2.3203,-1.87815 5.1563,-1.88201 6.7732,-0.009 16.808,-6.04276 24.3471,-14.63902 6.9898,-7.97004 8.1396,-5.77799 1.8582,3.54288 -6.0879,9.0338 -15.5453,14.85315 -24.1389,14.85315 -3.9725,0 -7.2227,-0.84375 -7.2227,-1.875 z m -114.0951,-5.15625 c 1.5049,-1.80469 7.2288,-8.58391 12.7199,-15.06494 l 9.9838,-11.78369 43.8224,0.53369 c 27.7953,0.3385 43.5995,-0.13314 43.2129,-1.28959 -1.1597,-3.46955 -9.8562,-4.36634 -44.3939,-4.57792 -19.0781,-0.11687 -36.4942,-0.69727 -38.7023,-1.28975 -3.3692,-0.90402 -18.7153,-18.00566 -23.9725,-26.71487 -3.9214,-6.49616 6.292,2.13238 13.9964,11.82454 4.6012,5.7884 10.0534,10.89951 12.1159,11.35802 2.0625,0.4585 19.3594,1.1419 38.4375,1.51866 19.0781,0.37677 36.7969,1.38419 39.375,2.23872 4.199,1.39178 4.4236,1.23189 2.1554,-1.53435 -3.4062,-4.15396 -9.4675,-4.96611 -42.4728,-5.69099 -16.2551,-0.357 -29.8176,-1.52108 -32.128,-2.75758 -4.4475,-2.38022 -7.0636,-10.01865 -5.3165,-15.52315 1.9502,-6.14456 4.6369,-3.94348 4.6369,3.79879 0,4.06414 0.9488,7.97573 2.1084,8.69243 1.1597,0.71669 15.2925,1.44953 31.4063,1.62853 32.8879,0.36534 42.1921,2.74949 49.214,12.61092 2.1617,3.03582 4.4012,5.04891 4.9766,4.47351 0.5754,-0.5754 -1.4689,-4.20992 -4.5428,-8.07671 -7.7458,-9.74356 -8.8945,-11.88122 -5.7326,-10.66789 3.3231,1.27519 8.9587,8.87132 14.5654,19.6324 3.1832,6.10963 4.563,7.46293 5.0928,4.99513 0.3998,-1.86167 -2.2612,-8.40073 -5.9131,-14.53125 -3.6519,-6.13053 -5.9629,-11.14641 -5.1355,-11.14641 2.6799,0 7.4758,6.49272 11.4766,15.53725 2.1502,4.86076 4.7297,8.83775 5.7324,8.83775 1.9049,0 0.5752,-7.93275 -2.2579,-13.47049 -0.8886,-1.73689 -1.6156,-4.16051 -1.6156,-5.38583 0,-4.29894 5.3319,2.00344 6.6072,7.80979 0.9251,4.21205 2.0239,5.31525 4.5084,4.52667 5.0238,-1.59447 3.6743,9.17082 -1.9096,15.23358 -5.4552,5.92303 -17.6453,11.81363 -24.5641,11.8701 -7.9097,0.0646 -8.0309,-3.39447 -0.1627,-4.64651 8.8896,-1.41459 23.0208,-7.75318 23.0208,-10.32605 0,-1.06561 -3.4028,-0.20147 -7.5619,1.92031 -9.6962,4.94662 -24.0336,5.45164 -27.3163,0.9622 -2.1264,-2.90793 -5.7795,-3.17638 -35.2175,-2.58788 -36.363,0.72694 -37.7168,1.16882 -37.7168,12.31131 0,3.75409 -1.0456,7.12732 -2.3437,7.56148 -1.6402,0.54852 -2.3438,-1.70877 -2.3438,-7.51933 0,-14.67597 1.5784,-15.21309 45.0761,-15.33875 20.5817,-0.0594 37.4219,-0.64251 37.4226,-1.29567 0,-2.65265 -10.1322,-3.44994 -44.1657,-3.47433 -40.8906,-0.0293 -40.5368,-0.14709 -55.3215,18.42172 -4.238,5.32273 -9.0301,9.67768 -10.6491,9.67768 -2.5958,0 -2.6203,-0.38775 -0.2075,-3.28125 z m -31.2174,-7.96875 c 0.6374,-1.03125 6.9655,-1.875 14.0625,-1.875 7.097,0 13.4252,0.84375 14.0625,1.875 0.7362,1.19119 -4.3924,1.875 -14.0625,1.875 -9.6701,0 -14.7987,-0.68381 -14.0625,-1.875 z m -133.125,-9.7903 c -51.69459,-1.86486 -53.12004,-2.11695 -56.40328,-9.97485 -4.08809,-9.78418 -3.48093,-23.91001 1.21019,-28.15541 3.63827,-3.29259 8.3144,-3.50596 78.28124,-3.57185 69.58957,-0.0656 74.74599,0.15652 79.5681,3.4268 4.63485,3.14327 5.15625,4.60156 5.15625,14.4206 0,6.00803 -0.9029,11.48171 -2.0064,12.16372 -1.1035,0.68201 -2.6669,3.02566 -3.47428,5.20812 -1.30088,3.51656 -3.15283,4.02584 -16.27487,4.47557 -8.14382,0.27911 -22.4007,1.14931 -31.68195,1.93379 -9.28125,0.78447 -33.75,0.81755 -54.375,0.0735 z m 26.09664,-2.5978 c 3.8232,-1.46711 4.03733,-13.04953 0.26798,-14.49597 -1.85471,-0.71172 -2.88021,0.49888 -3.28125,3.87355 -0.88373,7.4362 -4.87116,7.36036 -6.27437,-0.11934 -1.64033,-8.74373 -0.55451,-13.26179 3.36877,-14.01735 2.25,-0.4333 3.25973,0.57642 3.25973,3.25973 0,2.20554 1.21684,3.88748 2.8125,3.88748 1.56249,0 2.8125,-1.66667 2.8125,-3.75 0,-5.24546 2.72779,-4.6724 5.37077,1.1283 1.83227,4.02139 2.70853,4.4751 4.98847,2.58291 1.52117,-1.26246 2.76576,-3.45769 2.76576,-4.87829 0,-4.27963 3.44393,-2.90164 4.08834,1.63583 0.83562,5.88364 6.22416,5.47782 6.22416,-0.46875 0,-2.91667 1.06251,-4.6875 2.8125,-4.6875 2.15385,0 2.8125,2.37847 2.8125,10.15625 0,10.23997 -3.80846,15.78399 -5.01169,7.29556 -0.33731,-2.37974 -1.87894,-4.32681 -3.42581,-4.32681 -3.71859,0 -4.54532,6.6331 -1.36826,10.97798 2.26393,3.09612 3.32344,3.21103 10.30923,1.11803 l 7.786,-2.33274 -0.12206,-10.21683 c -0.12807,-10.72226 2.95063,-17.23157 5.03298,-10.64122 0.6247,1.97713 1.90071,5.03223 2.83557,6.7891 1.0491,1.9716 0.99671,3.62881 -0.13688,4.32941 -1.01012,0.6243 -1.83658,3.19466 -1.83658,5.71193 0,3.35713 1.01961,4.57684 3.82596,4.57684 3.23945,0 3.76702,-1.07786 3.4415,-7.03125 -0.49187,-8.99558 1.61989,-15.46875 5.0464,-15.46875 2.67073,0 3.4686,4.56883 2.72767,15.61975 -0.30516,4.55132 0.26076,5.21898 3.97313,4.6875 5.81002,-0.83178 9.2537,-8.16117 8.6603,-18.43225 -0.74552,-12.90409 -2.31827,-13.17242 -74.54996,-12.71892 -33.51563,0.21042 -64.2043,0.95438 -68.19704,1.65323 -8.44188,1.4776 -11.07071,4.52073 -9.55916,11.06569 0.59541,2.57812 1.07957,6.29858 1.0759,8.26768 -0.0106,5.68028 3.36625,10.48232 7.37127,10.48232 2.84337,0 3.68403,-1.28358 3.68403,-5.625 0,-3.23469 -0.99596,-5.6372 -2.34375,-5.65371 -1.67947,-0.0206 -1.74094,-0.41915 -0.2169,-1.40625 1.16976,-0.75765 2.43539,-2.99512 2.8125,-4.97217 0.94876,-4.974 5.37315,-6.09368 5.37315,-1.35978 0,2.08758 0.88472,4.34238 1.96605,5.01068 1.15522,0.71397 1.29547,2.11283 0.34006,3.39191 -0.89429,1.19725 -1.76845,4.48371 -1.94258,7.30324 -0.38264,6.19592 1.62491,6.83264 24.01147,7.61547 8.76562,0.30652 19.87631,0.72906 24.69039,0.93896 4.8141,0.20991 10.08754,-0.1305 11.71875,-0.75645 z m -35.27103,-7.45275 c -2.19456,-5.71891 -1.25475,-15.78415 1.47378,-15.78415 3.62254,0 4.88091,4.21651 3.60493,12.07938 -1.15008,7.08727 -3.2054,8.58655 -5.07871,3.70477 z m 12.3522,-6.7205 c 0.42255,-7.3856 1.30773,-10.00115 3.38469,-10.00115 2.12396,0 2.8125,2.2888 2.8125,9.34923 0,7.52213 -0.66146,9.47664 -3.38469,10.00116 -2.97595,0.57319 -3.3156,-0.55585 -2.8125,-9.34924 z m -27.74376,5.17734 c -1.67158,-4.35606 0.0246,-14.8351 2.5347,-15.65909 1.66853,-0.54774 2.34375,1.9765 2.34375,8.76185 0,9.00051 -2.6394,12.73214 -4.87845,6.89724 z m 65.84422,8.21326 c 1.93979,-3.13862 -1.04505,-13.07925 -3.92726,-13.07925 -1.85743,0 -2.66351,2.26978 -2.66351,7.5 0,5.28015 0.79969,7.5 2.70184,7.5 1.48601,0 3.23604,-0.86434 3.88893,-1.92075 z m 94.65923,0.29108 c 0,-2.13442 11.3411,-3.94885 24.8438,-3.97469 13.4869,-0.0258 14.0924,2.80929 0.9375,4.38939 -13.9909,1.6805 -25.7813,1.49085 -25.7813,-0.4147 z m 23.4375,-13.66526 c -4.125,-1.00847 -10.6641,-1.43496 -14.5312,-0.94775 -5.2087,0.65623 -7.0313,0.20307 -7.0313,-1.74824 0,-1.85147 2.3676,-2.62924 7.9688,-2.61778 14.1518,0.029 27.8264,2.28537 27.0987,4.4715 -0.9328,2.80171 -4.5639,3.02817 -13.505,0.84227 z M 1031.25,241.9431 c 0,-1.1102 6.8381,-1.875 16.7643,-1.875 9.2204,0 17.2859,0.84375 17.9232,1.875 0.7417,1.20005 -5.293,1.875 -16.7643,1.875 -10.6988,0 -17.9232,-0.75577 -17.9232,-1.875 z"
       id="logo"
       inkscape:connector-curvature="0"
       inkscape:label="#path3028" />
    <text
       xml:space="preserve"
       style="font-style:normal;font-weight:normal;font-size:75px;line-height:125%;font-family:Sans;text-align:center;letter-spacing:0px;word-spacing:0px;text-anchor:middle;fill:#ffffff;fill-opacity:1;stroke:none"
       x="959.94507"
       y="639.08167"
       id="text"
       sodipodi:linespacing="125%"><tspan
         sodipodi:role="line"
         x="959.94507"
         y="639.08167"
         id="tspan3833"
         style="font-style:normal;font-variant:normal;font-weight:normal;font-stretch:normal;font-family:'Nimbus Sans L';-inkscape-font-specification:'Nimbus Sans L'">CR215</tspan><tspan
         sodipodi:role="line"
         x="959.94507"
         y="730.83075"
         id="tspan3842"
         style="font-style:italic;font-variant:normal;font-weight:bold;font-stretch:normal;font-family:'Nimbus Roman No9 L';-inkscape-font-specification:'Nimbus Roman No9 L Italic'">Das Chaos Communication Camp</tspan></text>
  </g>
</svg>
