<?xml version="1.0" encoding="UTF-8" standalone="no"?>
<!-- Created with Inkscape (http://www.inkscape.org/) -->

<svg
   xmlns:dc="http://purl.org/dc/elements/1.1/"
   xmlns:cc="http://creativecommons.org/ns#"
   xmlns:rdf="http://www.w3.org/1999/02/22-rdf-syntax-ns#"
   xmlns:svg="http://www.w3.org/2000/svg"
   xmlns="http://www.w3.org/2000/svg"
   xmlns:xlink="http://www.w3.org/1999/xlink"
   xmlns:sodipodi="http://sodipodi.sourceforge.net/DTD/sodipodi-0.dtd"
   xmlns:inkscape="http://www.inkscape.org/namespaces/inkscape"
   width="1920"
   height="1080"
   id="svg2"
   version="1.1"
   inkscape:version="0.48.5 r10040"
   sodipodi:docname="outro.svg">
  <defs
     id="defs4">
    <linearGradient
       id="linearGradient3807">
      <stop
         style="stop-color:#ffffff;stop-opacity:0;"
         offset="0"
         id="stop3809" />
      <stop
         id="stop3815"
         offset="0.2"
         style="stop-color:#ffffff;stop-opacity:0.78431374;" />
      <stop
         style="stop-color:#ffffff;stop-opacity:0.78431374;"
         offset="1"
         id="stop3811" />
    </linearGradient>
    <linearGradient
       inkscape:collect="always"
       xlink:href="#linearGradient3807"
       id="linearGradient3813"
       x1="650"
       y1="595.07648"
       x2="1230"
       y2="595.07648"
       gradientUnits="userSpaceOnUse"
       gradientTransform="matrix(1,0,0,0.99744172,-74.949237,-22.857439)" />
    <linearGradient
       inkscape:collect="always"
       xlink:href="#linearGradient3807"
       id="linearGradient3819"
       x1="575.05078"
       y1="570.69666"
       x2="1155.0508"
       y2="570.69666"
       gradientUnits="userSpaceOnUse"
       spreadMethod="reflect" />
    <linearGradient
       inkscape:collect="always"
       xlink:href="#linearGradient3807-2"
       id="linearGradient3819-8"
       x1="575.05078"
       y1="570.69666"
       x2="1155.0508"
       y2="570.69666"
       gradientUnits="userSpaceOnUse"
       spreadMethod="reflect" />
    <linearGradient
       id="linearGradient3807-2">
      <stop
         style="stop-color:#ffffff;stop-opacity:0;"
         offset="0"
         id="stop3809-5" />
      <stop
         id="stop3815-1"
         offset="0.2"
         style="stop-color:#ffffff;stop-opacity:1;" />
      <stop
         style="stop-color:#ffffff;stop-opacity:1;"
         offset="1"
         id="stop3811-1" />
    </linearGradient>
    <linearGradient
       gradientTransform="matrix(2.3933139,0,0,1,-1291.5105,359.35582)"
       y2="570.69666"
       x2="1155.0508"
       y1="570.69666"
       x1="575.05078"
       spreadMethod="reflect"
       gradientUnits="userSpaceOnUse"
       id="linearGradient4017-1"
       xlink:href="#linearGradient3807-2-2"
       inkscape:collect="always" />
    <linearGradient
       id="linearGradient3807-2-2">
      <stop
         style="stop-color:#ffffff;stop-opacity:0;"
         offset="0"
         id="stop3809-5-5" />
      <stop
         id="stop3815-1-7"
         offset="0.2"
         style="stop-color:#ffffff;stop-opacity:1;" />
      <stop
         style="stop-color:#ffffff;stop-opacity:1;"
         offset="1"
         id="stop3811-1-0" />
    </linearGradient>
    <linearGradient
       y2="570.69666"
       x2="1155.0508"
       y1="570.69666"
       x1="575.05078"
       spreadMethod="reflect"
       gradientTransform="matrix(2.3933139,0,0,1,-842.013,2.87365)"
       gradientUnits="userSpaceOnUse"
       id="linearGradient4510"
       xlink:href="#linearGradient3807-2-2"
       inkscape:collect="always" />
    <filter
       id="filter4858"
       inkscape:label="Drop Shadow"
       width="1.2"
       color-interpolation-filters="sRGB">
      <feFlood
         id="feFlood4860"
         flood-opacity="0.29666666666666669"
         flood-color="rgb(255,255,255)"
         result="flood" />
      <feComposite
         id="feComposite4862"
         in2="SourceGraphic"
         in="flood"
         operator="in"
         result="composite1" />
      <feGaussianBlur
         id="feGaussianBlur4864"
         stdDeviation="2"
         result="blur" />
      <feOffset
         id="feOffset4866"
         dx="2"
         dy="2.2000000000000002"
         result="offset" />
      <feComposite
         id="feComposite4868"
         in2="offset"
         in="SourceGraphic"
         operator="over"
         result="composite2"
         dy="0" />
    </filter>
  </defs>
  <sodipodi:namedview
     id="base"
     pagecolor="#ffffff"
     bordercolor="#666666"
     borderopacity="1.0"
     inkscape:pageopacity="0.0"
     inkscape:pageshadow="2"
     inkscape:zoom="1.979899"
     inkscape:cx="1361.9601"
     inkscape:cy="470.15125"
     inkscape:document-units="px"
     inkscape:current-layer="layer1"
     showgrid="false"
     inkscape:window-width="1920"
     inkscape:window-height="1014"
     inkscape:window-x="0"
     inkscape:window-y="27"
     inkscape:window-maximized="1"
     showguides="true"
     inkscape:guide-bbox="true"
     inkscape:snap-global="true"
     inkscape:snap-bbox="true"
     inkscape:bbox-paths="true"
     inkscape:bbox-nodes="true"
     inkscape:snap-bbox-edge-midpoints="true"
     inkscape:snap-bbox-midpoints="true"
     inkscape:object-paths="false"
     inkscape:snap-to-guides="true">
    <sodipodi:guide
       orientation="0,1"
       position="0,0"
       id="guide3017" />
    <sodipodi:guide
       orientation="0,1"
       position="0,576"
       id="guide3019" />
    <sodipodi:guide
       orientation="1,0"
       position="0,0"
       id="guide3021" />
    <sodipodi:guide
       orientation="1,0"
       position="1024,0"
       id="guide3023" />
    <sodipodi:guide
       orientation="0,1"
       position="0,25"
       id="guide3025" />
    <sodipodi:guide
       orientation="0,1"
       position="0,547"
       id="guide3027" />
    <sodipodi:guide
       orientation="1,0"
       position="32,0"
       id="guide3029" />
    <sodipodi:guide
       orientation="1,0"
       position="994,0"
       id="guide3031" />
  </sodipodi:namedview>
  <metadata
     id="metadata7">
    <rdf:RDF>
      <cc:Work
         rdf:about="">
        <dc:format>image/svg+xml</dc:format>
        <dc:type
           rdf:resource="http://purl.org/dc/dcmitype/StillImage" />
        <dc:title />
      </cc:Work>
    </rdf:RDF>
  </metadata>
  <g
     inkscape:label="Ebene 1"
     inkscape:groupmode="layer"
     id="layer1"
     transform="translate(0,27.63782)">
    <rect
       style="fill:#000000;fill-opacity:1;fill-rule:nonzero;stroke:none"
       id="rect3797"
       width="1920"
       height="1080"
       x="0"
       y="-27.637817" />
    <path
       style="fill:#3399e5;fill-opacity:1"
       d="m 578.3414,660.1695 c -13.20657,-13.20656 -6.0055,-42.04968 13.01764,-52.14078 7.48038,-3.96807 33.03583,-2.78074 37.56172,1.74515 1.46215,1.46215 -3.50614,1.9402 -11.84084,1.13934 -17.67435,-1.69828 -28.85899,2.64001 -35.41369,13.73623 -7.23326,12.24493 -6.74216,24.21974 1.34859,32.88348 6.01528,6.44129 8.54468,7.16145 21.06175,5.99652 7.82401,-0.72814 16.78606,-2.2196 19.91567,-3.31436 3.74804,-1.31108 3.2625,-0.5012 -1.42255,2.37286 -3.95563,2.42661 -13.80007,4.40811 -22.17881,4.46416 -12.28223,0.0822 -16.35643,-1.18954 -22.04948,-6.8826 z m 310.95591,4.97556 c 7.43659,-1.43237 7.75311,-3.07857 2.04334,-10.62757 -9.98252,-13.19805 -2.21752,-24.6673 16.26274,-24.02076 5.44118,0.19036 7.02544,0.83928 3.7434,1.53332 -3.1296,0.6618 -8.57085,1.81797 -12.09165,2.56926 -7.54425,1.60982 -8.84244,12.76049 -2.13382,18.32814 2.3472,1.94801 4.26764,5.94565 4.26764,8.88364 0,4.20943 -1.96016,5.2597 -9.24656,4.95439 -6.68671,-0.28024 -7.47435,-0.7288 -2.84509,-1.62042 z m -171.0301,-2.82128 c -4.08258,-4.08257 17.22981,-29.97847 30.28306,-36.79583 7.54373,-3.93988 8.24555,-3.73096 15.18966,4.52165 4.00427,4.7588 9.86425,8.65238 13.02217,8.65238 3.98554,0 5.23063,1.33176 4.07081,4.35419 -1.09043,2.84162 0.78049,5.47109 5.3858,7.5694 3.88116,1.7684 7.05665,4.31604 7.05665,5.66148 0,2.90598 -21.58045,-7.68338 -24.15817,-11.85423 -0.98092,-1.58716 -8.55365,-2.88575 -16.82828,-2.88575 -15.88636,0 -27.29582,6.31275 -27.29582,15.10256 0,5.07414 -3.97363,8.4264 -6.72588,5.67415 z m 36.59938,-29.31199 c -0.9671,-1.56481 -2.9631,-2.8451 -4.43555,-2.8451 -1.47246,0 -2.67719,1.28029 -2.67719,2.8451 0,1.5648 1.996,2.84509 4.43555,2.84509 2.43955,0 3.64429,-1.28029 2.67719,-2.84509 z m 61.2704,23.66533 c -3.30127,-4.19689 -5.31464,-9.42276 -4.47414,-11.61308 0.8405,-2.1903 1.52818,-5.12843 1.52818,-6.52916 0,-3.3494 13.94628,-12.44083 15.97389,-10.41322 0.86397,0.86397 -1.09641,4.23812 -4.35643,7.49813 -7.92072,7.92073 -7.48106,16.15841 1.16472,21.82334 8.04636,5.27219 17.34236,3.9165 27.05079,-3.94492 8.04778,-6.51669 5.88314,-15.29842 -5.03525,-20.42769 -5.0427,-2.36896 -6.41776,-4.1359 -3.91812,-5.03477 4.86949,-1.75107 18.6088,8.31743 19.83111,14.53271 0.50682,2.57729 -2.91549,8.52299 -7.60517,13.21268 -6.9482,6.9482 -10.8991,8.52669 -21.34199,8.52669 -10.51291,0 -13.89364,-1.37091 -18.81759,-7.63071 z m 116.54801,1.98135 c 0,-3.10716 1.54582,-11.42906 3.43517,-18.49312 2.76002,-10.31938 4.67144,-12.84375 9.72516,-12.84375 14.77881,0 18.87837,5.54535 10.74427,14.53345 -5.76909,6.37478 -2.98488,10.99177 6.84808,11.356 4.21086,0.15591 10.85683,1.41313 14.76883,2.79363 7.66941,2.70648 -18.39934,0.87082 -30.75903,-2.16592 -5.05636,-1.24234 -6.94083,-0.21964 -8.15583,4.42671 -1.9947,7.6277 -6.60665,7.90206 -6.60665,0.393 z m 19.97273,-18.60271 c 1.97939,-2.38502 2.8315,-5.10376 1.89361,-6.04166 -2.91354,-2.91354 -10.48596,1.43461 -10.48596,6.02114 0,5.57244 3.97679,5.58194 8.59235,0.0199 z m 51.15467,22.69284 c 0,-3.99169 20.1141,-32.39829 25.7217,-36.32598 5.9704,-4.18185 6.8013,-3.89533 15.5237,5.35305 5.0685,5.37428 10.7403,9.7714 12.6039,9.7714 1.8636,0 2.666,1.16871 1.7832,2.59712 -0.8828,1.42841 1.92,5.16495 6.2284,8.30341 4.3084,3.13845 6.9155,6.6242 5.7936,7.74608 -1.1219,1.12191 -5.4498,-0.3741 -9.6177,-3.32446 -14.2356,-10.07733 -19.631,-12.39318 -28.9706,-12.43512 -7.682,-0.0344 -10.3868,1.72797 -15.2178,9.9159 -3.2314,5.47681 -7.6692,9.95783 -9.8619,9.95783 -2.1926,0 -3.9865,-0.70166 -3.9865,-1.55923 z m 35.5636,-26.89172 c -0.9671,-1.5648 -3.6032,-2.84509 -5.8581,-2.84509 -2.2548,0 -4.0997,1.28029 -4.0997,2.84509 0,1.5648 2.6361,2.8451 5.8581,2.8451 3.2219,0 5.0668,-1.2803 4.0997,-2.8451 z m 43.8774,27.31556 c -1.4215,-1.4514 1.6863,-24.14792 4.8427,-35.36614 0.7562,-2.68756 3.7425,-3.2238 10.3133,-1.85191 25.6393,5.35311 36.2857,22.40885 19.429,31.12573 -9.3712,4.84605 -31.916,8.81741 -34.585,6.09232 z m 32.9303,-13.33254 5.7001,-5.79438 -6.7167,-5.51687 c -7.7805,-6.39066 -20.3117,-7.38077 -20.3117,-1.60486 0,2.15161 -0.8402,8.11296 -1.8671,13.24748 l -1.8671,9.33546 9.6812,-1.93625 c 5.3247,-1.06492 12.2463,-4.54371 15.3813,-7.73058 z m 33.4113,1.84387 c 1.4491,-12.85601 5.9333,-21.53953 9.3557,-18.11711 2.2904,2.29048 -4.4847,27.64454 -7.9615,29.79327 -1.9069,1.17858 -2.3885,-2.85431 -1.3942,-11.67616 z m 41.9936,6.93387 c -3.1296,-3.1296 -5.6902,-8.30896 -5.6902,-11.50969 0,-7.225 12.1955,-19.81761 19.0751,-19.69622 4.0674,0.0718 3.514,1.27952 -2.7158,5.92749 -4.5083,3.36351 -7.824,8.56426 -7.824,12.27184 0,7.46894 8.1614,15.85168 15.433,15.85168 6.6547,0 20.9643,-8.58701 22.9551,-13.7751 1.8051,-4.70394 -5.4072,-13.77495 -12.3681,-15.55561 -2.575,-0.6587 -0.8409,-0.71298 3.8535,-0.12062 26.0612,3.28855 12.9397,32.29642 -14.6092,32.29642 -8.6258,0 -14.1573,-1.73807 -18.1094,-5.69019 z m -497.89155,-4.09332 c 0,-6.0392 -1.65451,-7.18651 -12.76648,-8.85286 -17.04155,-2.55555 -27.06484,0.15176 -27.06484,7.31019 0,3.09979 -1.28029,5.63599 -2.8451,5.63599 -5.77571,0 -2.92954,-19.50025 4.02561,-27.58102 6.99362,-8.12548 14.07137,-7.54038 7.31176,0.60445 -5.09437,6.13833 -1.16113,8.87892 15.69103,10.93319 16.81473,2.04972 22.73711,-0.67289 20.0284,-9.20727 -1.43686,-4.52714 -0.71766,-6.04539 2.86368,-6.04539 4.07531,0 4.49048,1.94673 2.80794,13.16667 -1.08595,7.24168 -2.64859,14.92343 -3.47253,17.07057 -2.44064,6.36021 -6.57947,4.45135 -6.57947,-3.03452 z m 635.01705,-25.71314 c -7.704,-9.79408 -8.2712,-28.83279 -1.7229,-57.82946 3.1348,-13.88165 3.6613,-21.60068 1.7109,-25.08585 -2.445,-4.36906 -3.9832,-3.19585 -11.641,8.87927 -4.853,7.65242 -8.8236,16.22342 -8.8236,19.04667 0,2.82324 -1.4479,5.13317 -3.2174,5.13317 -5.4657,0 -0.7846,-17.35144 9.3738,-34.74576 10.5079,-17.99289 15.6288,-20.42309 18.2103,-8.64193 0.9429,4.3032 2.2154,9.44514 2.8277,11.42653 0.6123,1.98138 -0.7513,14.14416 -3.0303,27.0284 -5.2927,29.92206 -5.2628,37.39504 0.1921,47.94335 6.1893,11.96879 3.6605,16.43107 -3.8795,6.84561 z m -30.4345,-35.63072 c 0.9671,-1.5648 5.5237,-2.8451 10.1258,-2.8451 4.602,0 8.3673,1.2803 8.3673,2.8451 0,1.5648 -4.5565,2.84509 -10.1257,2.84509 -6.026,0 -9.4138,-1.15193 -8.3674,-2.84509 z m 35.5637,-4.66343 c 0,-1.22956 3.3651,-4.91878 7.4779,-8.19827 11.2112,-8.93942 12.4686,-29.59476 2.8867,-47.41784 -9.057,-16.84663 -3.8277,-20.1505 7.3879,-4.66774 7.0997,9.80079 9.1515,10.89047 20.5062,10.89047 6.9395,0 13.4085,1.2803 14.3756,2.8451 1.863,3.01448 -5.4005,4.08363 -20.627,3.03618 -9.1363,-0.6285 -9.2465,-0.48581 -9.2465,11.9686 0,13.86475 -9.4478,31.21521 -17.8819,32.83948 -2.6834,0.51677 -4.8789,-0.0664 -4.8789,-1.29598 z m -182.5176,-19.47722 c -0.7589,-0.75894 -128.0413,-1.73337 -282.84976,-2.16541 -205.6977,-0.57405 -283.46485,-1.67311 -288.8804,-4.08265 -10.17333,-4.52642 -24.61984,-24.97096 -29.776,-42.13867 -2.50213,-8.331 -5.37689,-35.96766 -6.92233,-66.54832 -2.61024,-51.65047 -2.56473,-52.39987 3.66229,-60.3134 3.46795,-4.4072 8.54588,-8.80471 11.28429,-9.77223 2.7384,-0.96753 4.97891,-4.15789 4.97891,-7.0897 0,-7.43467 4.37581,-9.5046 25.60585,-12.11257 52.30294,-6.42508 375.75535,-9.62469 492.20135,-4.8689 142.3618,5.81422 145.2789,6.04685 156.3454,12.46784 17.9904,10.43829 23.6836,15.45065 22.1346,19.48739 -0.83,2.16284 -0.5301,9.28609 0.6665,15.82945 l 2.1755,11.89703 -13.8434,0 -13.8435,0 0,-13.35852 c 0,-10.62063 -1.5669,-14.994 -7.645,-21.33821 -4.2048,-4.38884 -9.7694,-7.9797 -12.3658,-7.9797 -2.5965,0 -9.0785,-2.24051 -14.4045,-4.97891 -9.0169,-4.63611 -25.6488,-4.93971 -241.55885,-4.40952 -271.77127,0.66737 -352.60996,4.03809 -370.45315,15.44671 -5.80178,3.70956 -10.60287,8.25357 -10.6691,10.0978 -0.0662,1.84423 -1.82748,5.0602 -3.91388,7.14661 -4.79685,4.79684 -5.22286,8.61313 -4.94652,44.31152 0.26772,34.58655 7.23489,87.89059 12.28359,93.97876 8.74177,10.54162 21.88451,12.40613 117.16998,16.62246 132.01078,5.8414 393.97453,3.77464 467.21823,-3.68611 59.6946,-6.08061 65.3884,-8.53555 62.4478,-26.92488 -1.148,-7.17946 -0.4068,-11.41479 2.4062,-13.74938 2.2359,-1.85563 4.8894,-7.12628 5.8967,-11.71256 1.59,-7.23936 3.1145,-8.3387 11.5633,-8.3387 11.1672,0 11.1546,-0.0502 5.4641,21.79715 -2.3472,9.01152 -4.2676,23.15721 -4.2676,31.43486 0,8.27765 -0.3201,15.05617 -0.7113,15.06337 -0.3912,0.007 -17.9952,2.5619 -39.1201,5.67709 -38.454,5.67065 -54.748,6.89563 -57.3334,4.3103 z m 164.0245,-47.59336 c 11.6669,-4.10413 14.8735,-7.00307 25.9663,-23.47498 10.2862,-15.27404 13.2425,-11.48832 4.8462,6.20569 -5.6548,11.91655 -18.9895,20.78217 -30.8125,20.48577 l -8.5353,-0.21398 8.5353,-3.0025 z m -649.16339,-2.23846 c -31.56105,-0.7824 -58.24458,-2.28685 -59.29675,-3.34322 -1.05216,-1.05638 -2.59263,-24.74179 -3.42327,-52.63426 -1.48439,-49.84491 -1.39738,-50.8551 5.07955,-58.97539 l 6.58981,-8.26182 64.03605,1.86362 c 35.21983,1.025 65.08929,2.91688 66.37659,4.20418 2.89663,2.89662 8.73179,96.27066 6.56002,104.97311 -3.22212,12.91126 -11.10718,14.02845 -85.922,12.17378 z m 73.32551,-11.54942 c 8.61008,-4.58565 10.14396,-85.32486 1.821,-95.85291 -2.09203,-2.6463 -18.35879,-3.55637 -63.56707,-3.55637 l -60.75558,0 -4.7648,7.27201 c -4.09983,6.25713 -4.52384,12.60294 -3.0382,45.47028 0.94963,21.00906 3.07818,40.72374 4.73012,43.81042 2.42099,4.52366 6.72221,5.83667 22.17701,6.76983 27.29543,1.64811 97.97822,-1.027 103.39752,-3.91326 z m -106.9848,-16.90153 c 2.09401,-3.38819 81.88596,-3.38819 92.46557,0 4.18569,1.34049 -13.73841,2.39461 -43.5556,2.5615 -33.12436,0.1854 -50.0595,-0.70152 -48.90997,-2.5615 z m -12.80293,-16.23315 c 0,-4.1848 24.29434,-6.47462 68.99355,-6.50288 24.19979,-0.0153 39.12005,1.06038 39.12005,2.82037 0,1.5648 -1.60037,2.85824 -3.55637,2.87431 -1.956,0.0159 -26.28156,0.85473 -54.0568,1.86368 -33.49646,1.21677 -50.50043,0.86138 -50.50043,-1.05548 z m 90.31173,-19.58765 c -0.92381,-0.92382 -21.62425,-2.0879 -46.00098,-2.58685 -24.37673,-0.49896 -44.29639,-1.98362 -44.26592,-3.29926 0.0644,-2.78268 100.83409,-2.23035 107.71288,0.59039 4.01257,1.64542 3.87163,2.20512 -1.06666,4.2357 -6.94337,2.85504 -14.11985,3.31948 -16.37932,1.06002 z m -90.31173,-26.5342 c 0,-1.4344 1.26505,-3.03476 2.81122,-3.55637 6.75821,-2.27988 105.30238,0.94252 105.30238,3.4434 0,1.63577 -21.55953,2.72098 -54.0568,2.72098 -30.86497,0 -54.0568,-1.11891 -54.0568,-2.60801 z m 194.51926,89.553 c -12.77147,-5.55796 -13.94691,-9.38965 -5.47833,-17.85824 7.348,-7.34801 7.60664,-7.38831 17.4102,-2.71331 13.16946,6.28007 15.35361,12.59945 6.66379,19.2802 -8.10972,6.23476 -7.35651,6.18245 -18.59566,1.29135 z m 14.42392,-7.00519 c 1.79216,-2.89977 -15.48235,-9.75518 -18.06744,-7.17009 -2.07622,2.07622 8.09261,9.73804 12.92439,9.73804 1.95578,0 4.27015,-1.15558 5.14305,-2.56795 z m 33.60114,7.46248 c -8.34421,-3.80484 -8.12081,-10.82269 0.60546,-19.02061 6.69332,-6.28803 7.33002,-6.37097 14.22548,-1.85289 9.49994,6.22459 9.2377,14.80577 -0.60547,19.81266 -5.73679,2.91812 -9.53175,3.20112 -14.22547,1.06084 z m 10.6691,-8.99426 c 0,-4.53119 -5.16202,-8.75718 -7.6535,-6.2657 -2.34049,2.34049 1.31307,10.36543 4.71913,10.36543 1.61391,0 2.93437,-1.84488 2.93437,-4.09973 z m 28.56438,8.50405 c -4.09375,-4.93265 -2.95653,-13.41764 2.02039,-15.07475 2.23292,-0.74347 3.55637,1.55103 3.55637,6.1657 0,8.1515 6.84367,10.17161 9.65343,2.84949 2.72731,-7.10723 2.13436,-9.1239 -4.49971,-15.3045 -7.06335,-6.5805 -4.22178,-7.48397 7.05979,-2.24465 10.66515,4.95304 10.93933,19.66117 0.45555,24.4379 -9.58922,4.36914 -14.10179,4.16407 -18.24582,-0.82919 z m 160.74251,-2.2705 c -2.3804,-7.45356 -7.2112,-59.31194 -7.0022,-75.16866 0.1203,-9.12211 1.7402,-21.63052 3.5999,-27.79647 4.6424,-15.39187 11.1202,-16.6217 80.7817,-15.33656 63.9349,1.1795 64.6443,1.38998 68.9445,20.45686 3.2346,14.34164 -3.6857,14.04409 -7.2319,-0.31094 l -2.6356,-10.66911 -20.3247,-2.49289 c -11.1785,-1.37109 -39.165,-1.55106 -62.1921,-0.39993 -55.9351,2.79619 -53.4581,0.20308 -52.1751,54.62044 1.207,51.19287 0.7579,50.61135 41.4351,53.66104 33.3609,2.50117 77.968,-0.0477 88.4689,-5.05518 5.5676,-2.65492 7.8742,-6.13651 8.5245,-12.8666 0.5518,-5.71028 2.4494,-9.22677 4.979,-9.22677 4.843,0 5.2404,8.53655 1.0927,23.47203 l -2.963,10.66911 -71.0829,0 c -54.3639,0 -71.3501,-0.83648 -72.2188,-3.55637 z m -116.28278,-1.18546 c -2.76911,-2.76908 -2.31907,-14.57701 0.62489,-16.39647 1.3869,-0.85715 3.18748,0.98772 4.00129,4.09973 0.81381,3.112 3.51995,5.65819 6.01365,5.65819 5.32635,0 5.97253,-5.9587 1.16731,-10.76394 -4.90691,-4.90691 -0.94471,-7.29158 5.9681,-3.59194 7.32191,3.91856 7.64383,11.92649 0.73093,18.18257 -5.28257,4.78066 -15.05285,6.26518 -18.50617,2.81186 z m 41.89384,-2.14859 c -0.85378,-2.22493 -0.0885,-6.78072 1.70089,-10.12399 4.75739,-8.88927 20.97605,-7.09718 22.32845,2.46718 0.5281,3.73504 -0.7522,7.87639 -2.8451,9.203 -6.0764,3.85156 -19.48856,2.87264 -21.18424,-1.54619 z m 303.31094,-1.64486 c 0,-1.56481 3.5208,-2.84989 7.824,-2.85573 10.2776,-0.0139 25.5043,-9.16919 36.9439,-22.21302 10.6063,-12.09362 12.3509,-8.76743 2.8197,5.37591 -9.2376,13.70775 -23.5882,22.53793 -36.628,22.53793 -6.0278,0 -10.9596,-1.28029 -10.9596,-2.84509 z m -173.1261,-7.82402 c 2.2835,-2.7384 10.9689,-13.02508 19.301,-22.85929 l 15.1492,-17.88038 66.4954,0.80981 c 42.1761,0.51364 66.1573,-0.20203 65.5707,-1.95681 -1.7598,-5.26463 -14.9558,-6.62541 -67.3627,-6.94646 -28.9488,-0.17734 -55.3756,-1.05802 -58.7262,-1.95705 -5.1124,-1.37174 -28.3984,-27.3215 -36.3756,-40.5367 -5.9501,-9.85718 9.5475,3.23562 21.238,17.94235 6.9819,8.78323 15.2549,16.53875 18.3845,17.23448 3.1296,0.69573 29.3756,1.73271 58.3244,2.3044 28.9489,0.5717 55.835,2.10034 59.747,3.39699 6.3715,2.11187 6.7124,1.86925 3.2705,-2.3282 -5.1685,-6.30314 -14.3657,-7.53549 -64.4474,-8.63541 -24.6653,-0.54171 -45.2448,-2.30806 -48.7506,-4.18431 -6.7485,-3.6117 -10.7181,-15.20214 -8.0671,-23.55458 2.9592,-9.32366 7.0359,-5.98378 7.0359,5.76423 0,6.16686 1.4397,12.10224 3.1993,13.18974 1.7596,1.0875 23.2045,2.1995 47.6554,2.47112 49.9036,0.55435 64.0216,4.17203 74.6766,19.13559 3.2801,4.60652 6.6782,7.66114 7.5513,6.78804 0.8731,-0.8731 -2.2289,-6.38806 -6.8932,-12.25546 -11.7533,-14.78474 -13.4963,-18.02839 -8.6985,-16.18729 5.0424,1.93495 13.5938,13.46119 22.1013,29.78988 4.8302,9.27066 6.9238,11.32414 7.7278,7.57953 0.6065,-2.82485 -3.4311,-12.74712 -8.9725,-22.04948 -5.5414,-9.30236 -9.0481,-16.91338 -7.7926,-16.91338 4.0665,0 11.3437,9.85195 17.4145,23.57598 3.2626,7.37564 7.1768,13.41025 8.6982,13.41025 2.8904,0 0.8729,-12.03703 -3.426,-20.4399 -1.3484,-2.63553 -2.4516,-6.3131 -2.4516,-8.17237 0,-6.52315 8.0906,3.03999 10.0257,11.85045 1.4037,6.39129 3.071,8.06526 6.841,6.8687 7.623,-2.41943 5.5752,13.91565 -2.8977,23.11518 -8.2776,8.98752 -26.7746,17.92582 -37.2731,18.0115 -12.0021,0.098 -12.1859,-5.15071 -0.2469,-7.05054 13.4889,-2.14648 34.9314,-11.76455 34.9314,-15.66858 0,-1.61694 -5.1634,-0.30571 -11.4743,2.91384 -14.7128,7.50593 -36.4681,8.27224 -41.4493,1.46003 -3.2265,-4.41245 -8.7697,-4.81978 -53.4385,-3.9268 -55.1767,1.10304 -57.2308,1.77354 -57.2308,18.68098 0,5.69639 -1.5866,10.81489 -3.5564,11.47366 -2.4887,0.83232 -3.5564,-2.59285 -3.5564,-11.4097 0,-22.26909 2.3951,-23.0841 68.3978,-23.27477 31.2303,-0.0902 56.7833,-0.97493 56.7844,-1.96603 0.01,-4.0251 -15.3745,-5.23489 -67.0163,-5.27189 -62.0467,-0.0445 -61.5099,-0.2232 -83.944,27.95282 -6.4307,8.07661 -13.7021,14.68475 -16.1587,14.68475 -3.9388,0 -3.976,-0.58836 -0.3149,-4.97892 z m -47.3687,-12.09165 c 0.9671,-1.5648 10.5693,-2.84509 21.3382,-2.84509 10.7689,0 20.3711,1.28029 21.3382,2.84509 1.1171,1.80749 -6.665,2.8451 -21.3382,2.8451 -14.6733,0 -22.4553,-1.03761 -21.3382,-2.8451 z M 868.67037,475.9014 c -78.44053,-2.82971 -80.60349,-3.21223 -85.58542,-15.13568 -6.20321,-14.84636 -5.28191,-36.28067 1.83632,-42.72257 5.52065,-4.99612 12.61614,-5.31988 118.78269,-5.41987 105.59404,-0.0995 113.41834,0.23751 120.73534,5.19978 7.0328,4.76954 7.824,6.98234 7.824,21.88158 0,9.11649 -1.37,17.42216 -3.0445,18.45703 -1.6745,1.03488 -4.0468,4.5911 -5.2718,7.90272 -1.9739,5.33597 -4.7841,6.10876 -24.69521,6.79116 -12.3573,0.42352 -33.99046,1.74395 -48.07368,2.9343 -14.08321,1.19034 -51.2117,1.24054 -82.50774,0.11155 z m 39.59863,-3.94187 c 5.80126,-2.22616 6.12617,-19.80114 0.40662,-21.99594 -2.81431,-1.07995 -4.37038,0.75699 -4.97892,5.87766 -1.34095,11.28356 -7.39141,11.16848 -9.52063,-0.18109 -2.489,-13.26759 -0.8414,-20.12323 5.11173,-21.2697 3.41411,-0.65749 4.94625,0.87465 4.94625,4.94626 0,3.34665 1.84641,5.8988 4.26765,5.8988 2.3709,0 4.26764,-2.52897 4.26764,-5.69019 0,-7.95937 4.1391,-7.08982 8.14951,1.71206 2.78026,6.102 4.10989,6.79045 7.56944,3.91928 2.30819,-1.91564 4.19671,-5.24665 4.19671,-7.40225 0,-6.49383 5.22576,-4.4029 6.20359,2.48219 1.26794,8.92774 9.44443,8.31195 9.44443,-0.71128 0,-4.4257 1.61223,-7.11273 4.26764,-7.11273 3.26822,0 4.26764,3.60905 4.26764,15.41093 0,15.53796 -5.7789,23.95037 -7.60465,11.07016 -0.51183,-3.61098 -2.85107,-6.56543 -5.19827,-6.56543 -5.64254,0 -6.897,10.06496 -2.07618,16.65781 3.43525,4.69801 5.04293,4.87236 15.64307,1.69648 l 11.81434,-3.53965 -0.18522,-15.50286 c -0.19432,-16.26978 4.47724,-26.14691 7.63698,-16.14682 0.9479,3.00006 2.8841,7.63582 4.30263,10.30168 1.59189,2.99167 1.5124,5.50629 -0.20769,6.56937 -1.53274,0.94729 -2.7868,4.84753 -2.7868,8.66718 0,5.09406 1.54714,6.94483 5.80545,6.94483 4.9155,0 5.71602,-1.63553 5.22208,-10.6691 -0.74635,-13.64976 2.45799,-23.47204 7.65732,-23.47204 4.05254,0 5.26324,6.93268 4.13894,23.70116 -0.4631,6.9061 0.3957,7.9192 6.0287,7.11274 8.8161,-1.26214 14.0414,-12.38364 13.141,-27.9688 -1.1312,-19.58046 -3.5177,-19.98762 -113.12085,-19.29949 -50.85607,0.31929 -97.42256,1.44816 -103.48109,2.50859 -12.80957,2.24209 -16.79851,6.85968 -14.50491,16.7909 0.90347,3.912 1.63812,9.55736 1.63255,12.54524 -0.0161,8.61917 5.1079,15.90571 11.18505,15.90571 4.31448,0 5.59009,-1.94768 5.59009,-8.53529 0,-4.90826 -1.51126,-8.5538 -3.55637,-8.57885 -2.5484,-0.0312 -2.64168,-0.636 -0.32913,-2.13382 1.77499,-1.14964 3.69542,-4.54475 4.26764,-7.54468 1.43964,-7.54747 8.15314,-9.24645 8.15314,-2.06331 0,3.16765 1.34246,6.58906 2.98325,7.60312 1.75292,1.08337 1.96573,3.20597 0.516,5.14682 -1.35698,1.81669 -2.68341,6.80351 -2.94763,11.08182 -0.58061,9.4016 2.46561,10.36774 36.43461,11.5556 13.30082,0.46511 30.15999,1.10626 37.4648,1.42477 7.30484,0.3185 15.30667,-0.19802 17.78185,-1.14784 z m -53.51971,-11.30868 c -3.32998,-8.67777 -1.90393,-23.95061 2.23631,-23.95061 5.49678,0 7.4062,6.39806 5.47006,18.32905 -1.74512,10.75411 -4.86383,13.0291 -7.70637,5.62156 z m 18.74303,-10.19757 c 0.64117,-11.2068 1.98434,-15.17559 5.13588,-15.17559 3.22287,0 4.26764,3.47299 4.26764,14.18638 0,11.41395 -1.00369,14.3797 -5.13588,15.17559 -4.51564,0.86975 -5.03103,-0.84344 -4.26764,-14.18638 z m -42.09792,7.85601 c -2.53643,-6.60982 0.0373,-22.51054 3.84611,-23.76086 2.53179,-0.83113 3.55637,2.99912 3.55637,13.2951 0,13.65723 -4.00499,19.31953 -7.40248,10.46576 z m 99.91096,12.46267 c 2.94339,-4.76249 -1.58575,-19.84625 -5.95917,-19.84625 -2.81843,0 -4.04157,3.44412 -4.04157,11.38038 0,8.01201 1.21343,11.38038 4.09973,11.38038 2.25485,0 4.91032,-1.31153 5.90101,-2.91451 z m 143.63434,0.44167 c 0,-3.23872 17.2088,-5.99192 37.6975,-6.03113 20.4649,-0.0392 21.3837,4.26278 1.4226,6.6604 -21.2295,2.54996 -39.1201,2.26218 -39.1201,-0.62927 z m 35.5637,-20.73544 c -6.2592,-1.53024 -16.1815,-2.17738 -22.0495,-1.43809 -7.9036,0.99574 -10.6691,0.30813 -10.6691,-2.65276 0,-2.8094 3.5925,-3.98957 12.0916,-3.97218 21.4738,0.0439 42.2235,3.46779 41.1192,6.78499 -1.4153,4.25126 -6.9251,4.59489 -20.4922,1.27804 z m -38.4088,-25.15833 c 0,-1.68459 10.376,-2.8451 25.4379,-2.8451 13.9909,0 26.2293,1.2803 27.1964,2.8451 1.1254,1.82094 -8.0316,2.84509 -25.438,2.84509 -16.2341,0 -27.1963,-1.14679 -27.1963,-2.84509 z"
       id="logo"
       inkscape:connector-curvature="0"
       inkscape:label="#path3022" />
  </g>
</svg>
