<?xml version="1.0" encoding="UTF-8" standalone="no"?>
<!-- Created with Inkscape (http://www.inkscape.org/) -->

<svg
   xmlns:dc="http://purl.org/dc/elements/1.1/"
   xmlns:cc="http://creativecommons.org/ns#"
   xmlns:rdf="http://www.w3.org/1999/02/22-rdf-syntax-ns#"
   xmlns:svg="http://www.w3.org/2000/svg"
   xmlns="http://www.w3.org/2000/svg"
   xmlns:xlink="http://www.w3.org/1999/xlink"
   xmlns:sodipodi="http://sodipodi.sourceforge.net/DTD/sodipodi-0.dtd"
   xmlns:inkscape="http://www.inkscape.org/namespaces/inkscape"
   width="1920"
   height="1080"
   id="svg2"
   version="1.1"
   inkscape:version="0.92.5 (2060ec1f9f, 2020-04-08)"
   sodipodi:docname="outro.svg">
  <defs
     id="defs4">
    <linearGradient
       id="linearGradient3807">
      <stop
         style="stop-color:#ffffff;stop-opacity:0;"
         offset="0"
         id="stop3809" />
      <stop
         id="stop3815"
         offset="0.2"
         style="stop-color:#ffffff;stop-opacity:0.78431374;" />
      <stop
         style="stop-color:#ffffff;stop-opacity:0.78431374;"
         offset="1"
         id="stop3811" />
    </linearGradient>
    <linearGradient
       inkscape:collect="always"
       xlink:href="#linearGradient3807"
       id="linearGradient3813"
       x1="650"
       y1="595.07648"
       x2="1230"
       y2="595.07648"
       gradientUnits="userSpaceOnUse"
       gradientTransform="matrix(1,0,0,0.99744172,-74.949237,-22.857439)" />
    <linearGradient
       inkscape:collect="always"
       xlink:href="#linearGradient3807"
       id="linearGradient3819"
       x1="575.05078"
       y1="570.69666"
       x2="1155.0508"
       y2="570.69666"
       gradientUnits="userSpaceOnUse"
       spreadMethod="reflect" />
    <linearGradient
       inkscape:collect="always"
       xlink:href="#linearGradient3807-2"
       id="linearGradient3819-8"
       x1="575.05078"
       y1="570.69666"
       x2="1155.0508"
       y2="570.69666"
       gradientUnits="userSpaceOnUse"
       spreadMethod="reflect" />
    <linearGradient
       id="linearGradient3807-2">
      <stop
         style="stop-color:#ffffff;stop-opacity:0;"
         offset="0"
         id="stop3809-5" />
      <stop
         id="stop3815-1"
         offset="0.2"
         style="stop-color:#ffffff;stop-opacity:1;" />
      <stop
         style="stop-color:#ffffff;stop-opacity:1;"
         offset="1"
         id="stop3811-1" />
    </linearGradient>
    <linearGradient
       gradientTransform="matrix(2.3933139,0,0,1,-1291.5105,359.35582)"
       y2="570.69666"
       x2="1155.0508"
       y1="570.69666"
       x1="575.05078"
       spreadMethod="reflect"
       gradientUnits="userSpaceOnUse"
       id="linearGradient4017-1"
       xlink:href="#linearGradient3807-2-2"
       inkscape:collect="always" />
    <linearGradient
       id="linearGradient3807-2-2">
      <stop
         style="stop-color:#ffffff;stop-opacity:0;"
         offset="0"
         id="stop3809-5-5" />
      <stop
         id="stop3815-1-7"
         offset="0.2"
         style="stop-color:#ffffff;stop-opacity:1;" />
      <stop
         style="stop-color:#ffffff;stop-opacity:1;"
         offset="1"
         id="stop3811-1-0" />
    </linearGradient>
    <linearGradient
       y2="570.69666"
       x2="1155.0508"
       y1="570.69666"
       x1="575.05078"
       spreadMethod="reflect"
       gradientTransform="matrix(2.3933139,0,0,1,-842.013,2.87365)"
       gradientUnits="userSpaceOnUse"
       id="linearGradient4510"
       xlink:href="#linearGradient3807-2-2"
       inkscape:collect="always" />
    <filter
       id="filter4858"
       inkscape:label="Drop Shadow"
       width="1.2"
       color-interpolation-filters="sRGB">
      <feFlood
         id="feFlood4860"
         flood-opacity="0.29666666666666669"
         flood-color="rgb(255,255,255)"
         result="flood" />
      <feComposite
         id="feComposite4862"
         in2="SourceGraphic"
         in="flood"
         operator="in"
         result="composite1" />
      <feGaussianBlur
         id="feGaussianBlur4864"
         stdDeviation="2"
         result="blur" />
      <feOffset
         id="feOffset4866"
         dx="2"
         dy="2.2000000000000002"
         result="offset" />
      <feComposite
         id="feComposite4868"
         in2="offset"
         in="SourceGraphic"
         operator="over"
         result="composite2"
         dy="0" />
    </filter>
    <clipPath
       clipPathUnits="userSpaceOnUse"
       id="clipPath18">
      <path
         d="m 312.117,871.087 c -6.264,-1.72 -10.84,-10.647 -14.167,-15.645 l 0,0 c -4.194,-6.302 -7.979,-12.897 -11.534,-19.58 l 0,0 c -6.794,-12.771 -13.065,-25.863 -21.157,-37.891 l 0,0 -14.658,-134.44 c -34.506,-10.769 -67.49,-29.469 -99.699,-48.874 l 0,0 c 12.812,-37.59 55.526,-58.834 95.24,-58.766 l 0,0 c 0.024,0 0.047,0 0.071,0 l 0,0 c -6.665,-0.282 -13.34,-0.125 -19.96,0.504 l 0,0 c 17.08,-29.328 37.542,-57.811 69.853,-68.2 l 0,0 c 26.039,-8.372 54.524,-0.76 79.568,10.242 l 0,0 c 16.073,7.061 37.811,23.424 50.174,37.459 l 0,0 c -5.443,-6.931 -9.356,-11.85 -9.378,-14.226 l 0,0 c -0.036,-4.022 11.889,-7.249 15.319,-7.836 l 0,0 c 4.537,-0.776 55.479,-8.821 65.762,-9.857 l 0,0 c 10.396,-1.048 20.273,-1.879 30.647,-0.162 l 0,0 c 9.775,1.619 19.405,4.609 27.984,9.637 l 0,0 c 9.366,5.488 17.124,13.214 21.752,22.642 l 0,0 c -2.467,-9.581 -5.754,-22.648 -9.272,-36.305 l 0,0 c -0.171,-0.666 -0.311,-1.344 -0.413,-2.024 l 0,0 c -3.39,-22.815 -3.156,-46.468 -3.991,-69.493 l 0,0 c -0.901,-24.858 -1.418,-49.754 -2.83,-74.59 l 0,0 c -0.791,-13.917 -3.767,-27.11 -7.947,-40.362 l 0,0 c -1.785,-5.66 -3.752,-11.282 -5.94,-16.816 l 0,0 c 2.853,8.361 4.713,17.016 5.261,25.851 l 0,0 c 0.555,8.93 -0.352,17.967 -2.745,26.592 l 0,0 c -2.662,9.599 -7.206,18.729 -13.686,26.328 l 0,0 c -1.536,1.801 -2.531,3.044 -3.792,5.045 l 0,0 c -1.313,2.081 -3.691,4.003 -5.535,5.683 l 0,0 c -4.28,3.901 -8.981,7.314 -13.802,10.512 l 0,0 c -8.952,5.937 -18.089,11.527 -28.039,15.555 l 0,0 c -22.597,9.151 -48.915,13.05 -72.999,8.126 l 0,0 c -49.265,-10.074 -94.2,-46.844 -113.089,-93.79 l 0,0 c -7.565,-18.805 -8.616,-45.719 -6.222,-65.756 l 0,0 c 7.2,-60.243 65.422,-100.088 125.514,-108.448 l 0,0 c 24.824,-3.455 52.18,-1.693 76.294,4.869 l 0,0 c 50.617,13.775 89.298,54.937 112.844,99.669 l 0,0 c 2.794,5.307 14.736,24.552 14.675,26.909 l 0,0 c 0.267,-10.318 3.457,-20.545 9.106,-29.184 l 0,0 16.227,92.559 c 1.621,-9.021 7.294,-17.234 15.157,-21.945 l 0,0 0.204,60.905 c 1.41,-9.085 6.602,-14.523 14.491,-19.244 l 0,0 c -4.166,27.38 -4.717,52.34 -2.482,79.945 l 0,0 c 7.063,-4.324 13.65,-8.62 20.658,-10.281 l 0,0 c -3.651,26.792 -12.97,49.694 -16.621,76.487 l 0,0 c 10.534,-8.562 10.319,-10.84 19.664,-11.89 l 0,0 c -3.943,26.189 -16.832,43.539 -29.738,66.666 l 0,0 25.882,-0.923 c -10.728,25.86 -25.45,41.841 -43.486,63.254 l 0,0 c 10.92,0.053 16.559,0.433 26.037,2.489 l 0,0 c -14.416,20.027 -33.431,26.496 -56.345,35.655 l 0,0 c 14.572,6.667 21.146,13.146 30.811,25.412 l 0,0 c -25.908,4.436 -43.613,6.974 -69.672,10.409 l 0,0 c 9.984,6.221 25.959,11.735 32.646,23.966 l 0,0 c -23.093,-0.068 -51.514,-1.99 -74.606,-2.058 l 0,0 c 3.118,9.15 16.024,22.056 15.344,33.286 l 0,0 -67.289,-24.136 c -2.029,7.646 4.971,10.282 1.623,31.588 l 0,0 -54.542,-23.538 c 0,6.9 9.282,21.518 5.236,31.248 l 0,0 c -1.052,2.53 -27.624,-18.934 -36.917,-20.788 l 0,0 c 0,0 19.327,52.162 14.75,52.15 l 0,0 c -15.455,-0.042 -33.75,-18.848 -49.058,-21.738 l 0,0 c -3.6,5.947 -6.717,12.18 -9.698,18.456 l 0,0 c -5.957,12.543 -11.32,25.358 -17.137,37.966 l 0,0 c -2.809,6.088 -5.71,12.138 -8.882,18.045 l 0,0 c -2.044,3.808 -3.89,8.265 -7.717,10.63 l 0,0 c -2.577,1.592 -6.347,2.531 -9.801,2.531 l 0,0 c -1.401,0 -2.751,-0.155 -3.948,-0.484 m 41.469,-271.97 c -2.238,-1.885 -4.527,-3.722 -6.865,-5.509 l 0,0 c 2.327,1.793 4.616,3.631 6.865,5.509 m 85.349,-45.569 c 0,0 0,0 0,0 M 383.533,241.747 c -16.443,19.302 -23.431,46.211 -18.815,71.142 l 0,0 c 4.341,23.447 18.996,45.037 39.804,56.683 l 0,0 c 20.808,11.645 47.481,12.699 68.622,1.67 l 0,0 c 21.142,-11.029 35.713,-34.183 35.364,-58.026 l 0,0 c -0.349,-23.843 -16.558,-46.24 -39.055,-54.146 l 0,0 c -13.248,-4.655 -27.77,-4.347 -39.5,3.375 l 0,0 c -11.729,7.722 -19.3,22.583 -15.553,36.117 l 0,0 c 3.746,13.535 19.143,23.26 32.574,19.157 l 0,0 c 5.156,-1.575 9.602,-4.83 14.374,-7.338 l 0,0 c 6.351,-3.339 14.186,-5.411 20.409,0.204 l 0,0 c 2.348,2.119 3.893,5.052 4.395,8.174 l 0,0 c 1.65,10.257 -5.836,19.545 -14.699,22.812 l 0,0 c -6.84,2.521 -14.529,2.26 -21.749,1.25 l 0,0 c -23.7,-3.318 -46.176,-17.837 -57.931,-38.681 l 0,0 c -11.755,-20.845 -11.322,-48.644 3.051,-67.777 l 0,0 c 7.968,-10.606 19.479,-17.733 32.216,-21.387 l 0,0 c -16.77,4.192 -32.281,13.594 -43.507,26.771 m 146.601,21.02 c 0.24,0.346 0.478,0.693 0.716,1.042 l 0,0 c -2.094,-3.187 -4.311,-6.295 -6.662,-9.313 l 0,0 c -5.252,-6.741 -11.254,-13.003 -17.851,-18.524 l 0,0 c 9.038,7.807 17.014,17.001 23.797,26.795"
         id="path20"
         inkscape:connector-curvature="0" />
    </clipPath>
    <clipPath
       clipPathUnits="userSpaceOnUse"
       id="clipPath28">
      <path
         d="m 314.284,874.024 c -6.264,-1.721 -10.84,-10.648 -14.166,-15.645 l 0,0 c -4.194,-6.302 -7.981,-12.897 -11.535,-19.58 l 0,0 c -6.794,-12.772 -13.065,-25.863 -21.157,-37.891 l 0,0 -14.657,-134.44 c -34.506,-10.769 -67.491,-29.47 -99.701,-48.874 l 0,0 c 12.813,-37.59 55.528,-58.835 95.241,-58.767 l 0,0 c 0.017,0 0.031,0 0.048,0 l 0,0 c -6.659,-0.281 -13.323,-0.124 -19.938,0.505 l 0,0 c 17.081,-29.328 37.544,-57.812 69.854,-68.2 l 0,0 c 26.039,-8.373 54.524,-0.761 79.568,10.242 l 0,0 c 16.072,7.06 37.807,23.42 50.171,37.455 l 0,0 c -5.441,-6.928 -9.354,-11.847 -9.375,-14.223 l 0,0 c -0.036,-4.022 11.889,-7.249 15.32,-7.836 l 0,0 c 4.536,-0.776 55.478,-8.82 65.761,-9.857 l 0,0 c 10.396,-1.048 20.273,-1.879 30.647,-0.161 l 0,0 c 9.774,1.618 19.404,4.608 27.984,9.636 l 0,0 c 9.366,5.488 17.124,13.214 21.752,22.642 l 0,0 c -2.467,-9.581 -5.754,-22.647 -9.272,-36.304 l 0,0 c -0.171,-0.666 -0.312,-1.345 -0.413,-2.025 l 0,0 c -3.39,-22.814 -3.157,-46.467 -3.991,-69.492 l 0,0 c -0.902,-24.859 -1.418,-49.754 -2.83,-74.591 l 0,0 c -0.791,-13.916 -3.768,-27.109 -7.947,-40.362 l 0,0 c -1.785,-5.661 -3.753,-11.284 -5.942,-16.82 l 0,0 c 2.854,8.362 4.714,17.02 5.263,25.856 l 0,0 c 0.554,8.929 -0.353,17.967 -2.745,26.592 l 0,0 c -2.662,9.598 -7.206,18.729 -13.686,26.327 l 0,0 c -1.536,1.801 -3.494,3.382 -4.757,5.383 l 0,0 c -1.312,2.081 -2.726,3.665 -4.57,5.345 l 0,0 c -4.28,3.901 -8.981,7.315 -13.802,10.512 l 0,0 c -8.952,5.938 -18.598,10.791 -28.547,14.819 l 0,0 c -22.597,9.149 -47.586,13.078 -71.67,8.153 l 0,0 c -49.265,-10.074 -95.021,-46.134 -113.91,-93.081 l 0,0 c -7.566,-18.804 -8.616,-45.718 -6.222,-65.755 l 0,0 c 7.2,-60.244 65.422,-100.089 125.514,-108.45 l 0,0 c 24.823,-3.453 52.179,-1.692 76.293,4.87 l 0,0 c 50.618,13.775 89.298,54.937 112.845,99.669 l 0,0 c 2.794,5.306 14.736,24.552 14.675,26.91 l 0,0 c 0.266,-10.318 3.457,-20.545 9.105,-29.185 l 0,0 16.228,92.559 c 1.622,-9.021 7.294,-17.234 15.156,-21.944 l 0,0 0.204,60.905 c 1.411,-9.085 6.603,-14.524 14.491,-19.245 l 0,0 c -4.165,27.381 -4.717,52.34 -2.481,79.945 l 0,0 c 7.063,-4.324 13.65,-8.619 20.657,-10.281 l 0,0 c -3.651,26.793 -12.969,49.695 -16.621,76.488 l 0,0 c 10.535,-8.562 10.321,-10.841 19.665,-11.89 l 0,0 c -3.943,26.189 -16.832,43.539 -29.738,66.666 l 0,0 25.881,-0.924 c -10.726,25.861 -25.449,41.842 -43.485,63.255 l 0,0 c 10.92,0.053 16.559,0.433 26.037,2.488 l 0,0 c -14.416,20.028 -33.431,26.496 -56.345,35.655 l 0,0 c 14.571,6.668 21.146,13.147 30.811,25.413 l 0,0 c -25.908,4.436 -43.613,6.973 -69.673,10.409 l 0,0 c 9.985,6.22 25.961,11.735 32.648,23.966 l 0,0 c -23.094,-0.069 -51.515,-1.991 -74.608,-2.06 l 0,0 c 3.119,9.152 16.025,22.058 15.345,33.287 l 0,0 -67.289,-24.135 c -2.03,7.644 4.971,10.282 1.624,31.588 l 0,0 -54.543,-23.538 c 0,6.899 9.282,21.517 5.235,31.248 l 0,0 c -1.052,2.53 -27.623,-18.935 -36.917,-20.789 l 0,0 c 0,0 19.328,52.162 14.751,52.15 l 0,0 c -15.456,-0.043 -33.751,-18.848 -49.059,-21.737 l 0,0 c -3.6,5.946 -6.717,12.18 -9.697,18.454 l 0,0 c -5.958,12.545 -11.32,25.36 -17.137,37.968 l 0,0 c -2.808,6.086 -5.71,12.137 -8.882,18.045 l 0,0 c -2.044,3.808 -3.889,8.265 -7.717,10.63 l 0,0 c -2.577,1.592 -6.347,2.53 -9.801,2.53 l 0,0 c -1.401,0 -2.752,-0.154 -3.948,-0.483 m 41.469,-271.971 c -2.231,-1.88 -4.511,-3.71 -6.842,-5.492 l 0,0 c 2.319,1.787 4.601,3.62 6.842,5.492 m 85.349,-45.569 c 0,0 0,0 0,0 M 385.7,244.684 c -16.443,19.301 -23.431,46.21 -18.815,71.142 l 0,0 c 4.341,23.447 18.996,45.036 39.804,56.681 l 0,0 c 20.807,11.646 47.481,12.699 68.623,1.672 l 0,0 c 21.141,-11.029 35.712,-34.184 35.362,-58.026 l 0,0 C 510.325,292.31 494.456,269.141 471.96,261.234 l 0,0 c -13.249,-4.656 -28.749,-3.925 -40.478,3.797 l 0,0 c -11.73,7.722 -18.663,22.934 -14.915,36.468 l 0,0 c 3.747,13.534 19.144,23.259 32.574,19.157 l 0,0 c 5.156,-1.575 9.602,-4.831 14.374,-7.339 l 0,0 c 6.352,-3.338 14.186,-5.411 20.41,0.205 l 0,0 c 2.347,2.118 3.891,5.052 4.393,8.173 l 0,0 c 1.651,10.257 -5.876,18.554 -14.739,21.821 l 0,0 c -6.84,2.522 -14.381,2.425 -21.601,1.414 l 0,0 c -23.699,-3.317 -46.283,-17.011 -58.038,-37.854 l 0,0 c -11.755,-20.844 -11.323,-48.644 3.051,-67.777 l 0,0 c 7.968,-10.606 19.481,-17.733 32.218,-21.388 l 0,0 c -16.769,4.192 -32.283,13.595 -43.509,26.773 m 146.6,21.019 c 0.248,0.358 0.494,0.716 0.739,1.075 l 0,0 c -2.1,-3.197 -4.324,-6.317 -6.684,-9.346 l 0,0 c -5.241,-6.727 -11.231,-12.977 -17.813,-18.49 l 0,0 c 9.023,7.8 16.985,16.98 23.758,26.761"
         id="path30"
         inkscape:connector-curvature="0" />
    </clipPath>
    <clipPath
       clipPathUnits="userSpaceOnUse"
       id="clipPath1428">
      <path
         d="m 0,1201.89 853.228,0 L 853.228,0 0,0 0,1201.89 Z"
         id="path1430"
         inkscape:connector-curvature="0" />
    </clipPath>
    <clipPath
       clipPathUnits="userSpaceOnUse"
       id="clipPath1436">
      <path
         d="m 153.069,874.507 547.722,0 0,-721.1 -547.722,0 0,721.1 z"
         id="path1438"
         inkscape:connector-curvature="0" />
    </clipPath>
    <radialGradient
       fx="0"
       fy="0"
       cx="0"
       cy="0"
       r="1"
       gradientUnits="userSpaceOnUse"
       gradientTransform="matrix(74.078758,0,0,-59.263008,239.82324,731.99097)"
       spreadMethod="pad"
       id="radialGradient1468">
      <stop
         style="stop-opacity:1;stop-color:#ffffff"
         offset="0"
         id="stop1470" />
      <stop
         style="stop-opacity:1;stop-color:#c4c3c3"
         offset="1"
         id="stop1472" />
    </radialGradient>
    <clipPath
       clipPathUnits="userSpaceOnUse"
       id="clipPath1480">
      <path
         d="m 0,1201.89 853.228,0 L 853.228,0 0,0 0,1201.89 Z"
         id="path1482"
         inkscape:connector-curvature="0" />
    </clipPath>
    <radialGradient
       fx="0"
       fy="0"
       cx="0"
       cy="0"
       r="1"
       gradientUnits="userSpaceOnUse"
       gradientTransform="matrix(74.078758,0,0,-59.263008,324.3374,727.64069)"
       spreadMethod="pad"
       id="radialGradient1516">
      <stop
         style="stop-opacity:1;stop-color:#ffffff"
         offset="0"
         id="stop1518" />
      <stop
         style="stop-opacity:1;stop-color:#c4c3c3"
         offset="1"
         id="stop1520" />
    </radialGradient>
    <clipPath
       clipPathUnits="userSpaceOnUse"
       id="clipPath1528">
      <path
         d="m 0,1201.89 853.228,0 L 853.228,0 0,0 0,1201.89 Z"
         id="path1530"
         inkscape:connector-curvature="0" />
    </clipPath>
    <clipPath
       clipPathUnits="userSpaceOnUse"
       id="clipPath1560">
      <path
         d="m 529.474,574.673 c 6.87,-7.702 13.741,-15.405 20.611,-23.107 l 0,0 c 2.925,-3.279 6.035,-7.149 6.026,-11.402 l 0,0 c -10e-4,-0.461 -0.038,-0.925 -0.116,-1.394 l 0,0 c -0.679,-4.076 -4.235,-6.974 -7.641,-9.312 l 0,0 c -8.134,-5.582 -16.812,-10.954 -24.245,-17.441 l 0,0 c -3.348,-2.922 -15.688,-9.847 -17.856,-11.768 l 0,0 c -10.514,-9.322 -29.698,-8.23 -43.695,-6.992 l 0,0 c -2.978,0.263 -6.376,0.501 -8.544,-1.558 l 0,0 c -1.461,-1.388 -1.959,-3.483 -2.345,-5.461 l 0,0 c -0.541,-2.777 -0.961,-5.706 -0.964,-8.569 l 0,0 c -0.005,-3.924 0.773,-7.721 3.093,-10.826 l 0,0 c 5.5,-7.361 17.621,-6.775 24.515,-0.701 l 0,0 c 3.855,3.397 7.098,8.39 12.216,8.854 l 0,0 c 5.187,0.469 9.462,-4.158 11.606,-8.906 l 0,0 c 2.145,-4.748 3.149,-10.106 6.358,-14.211 l 0,0 c 6.392,-8.178 21.134,-7.2 26.389,1.752 l 0,0 c 1.293,2.202 1.885,4.672 1.889,7.167 l 0,0 c 0.013,7.643 -5.488,15.526 -13.22,16.729 l 0,0 c -0.999,1.438 -1.44,3.117 -1.442,4.842 l 0,0 c -0.002,2.689 1.063,5.487 2.742,7.64 l 0,0 c 2.755,3.534 6.807,5.762 10.671,8.029 l 0,0 c 15.893,9.322 30.475,20.875 43.186,34.214 l 0,0 c 2.132,2.238 4.348,4.93 4.35,7.937 l 0,0 c 0,0.269 -0.017,0.54 -0.054,0.814 l 0,0 c -0.28,2.082 -1.645,3.833 -2.959,5.471 l 0,0 c -9.167,11.424 -18.333,22.849 -27.5,34.273 l 0,0 -23.071,-6.074 z"
         id="path1562"
         inkscape:connector-curvature="0" />
    </clipPath>
    <clipPath
       clipPathUnits="userSpaceOnUse"
       id="clipPath1646">
      <path
         d="m 0,1201.89 853.228,0 L 853.228,0 0,0 0,1201.89 Z"
         id="path1648"
         inkscape:connector-curvature="0" />
    </clipPath>
    <clipPath
       clipPathUnits="userSpaceOnUse"
       id="clipPath1658">
      <path
         d="m 444.813,571.047 c 6.832,-7.66 13.665,-15.32 20.499,-22.979 l 0,0 c 3.241,-3.634 6.709,-7.994 5.908,-12.797 l 0,0 c -0.056,-0.338 -0.132,-0.668 -0.226,-0.99 l 0,0 c -0.987,-3.65 -4.29,-6.315 -7.463,-8.492 l 0,0 c -8.135,-5.582 -16.812,-10.954 -24.246,-17.441 l 0,0 c -3.348,-2.922 -15.687,-9.846 -17.855,-11.769 l 0,0 c -10.514,-9.321 -29.699,-8.229 -43.695,-6.992 l 0,0 c -2.979,0.264 -6.375,0.503 -8.543,-1.557 l 0,0 c -0.945,-0.898 -1.487,-2.091 -1.857,-3.358 l 0,0 c -0.178,-0.638 -0.315,-1.291 -0.44,-1.933 l 0,0 c -1.283,-6.581 -1.885,-14.024 2.129,-19.396 l 0,0 c 5.499,-7.36 17.621,-6.774 24.514,-0.7 l 0,0 c 3.856,3.397 7.099,8.391 12.216,8.854 l 0,0 c 5.189,0.47 9.464,-4.158 11.607,-8.906 l 0,0 c 2.144,-4.747 3.15,-10.106 6.357,-14.211 l 0,0 c 6.393,-8.177 21.135,-7.199 26.39,1.752 l 0,0 c 0.57,0.971 1.003,1.993 1.311,3.046 l 0,0 c 2.398,8.633 -3.607,19.267 -12.691,20.68 l 0,0 c -1.621,2.332 -1.772,5.302 -0.964,8.064 l 0,0 c 0.46,1.658 1.268,3.248 2.313,4.588 l 0,0 c 2.754,3.534 6.806,5.762 10.671,8.029 l 0,0 c 15.893,9.322 30.475,20.875 43.186,34.215 l 0,0 c 1.669,1.751 3.39,3.782 4.06,6.024 l 0,0 c 0.225,0.825 0.306,1.678 0.187,2.556 l 0,0 c -0.279,2.082 -1.644,3.832 -2.959,5.47 l 0,0 c -9.166,11.425 -18.334,22.85 -27.5,34.274 l 0,0 -22.909,-6.031 z"
         id="path1660"
         inkscape:connector-curvature="0" />
    </clipPath>
  </defs>
  <sodipodi:namedview
     id="base"
     pagecolor="#ffffff"
     bordercolor="#666666"
     borderopacity="1.0"
     inkscape:pageopacity="0.0"
     inkscape:pageshadow="2"
     inkscape:zoom="0.49497475"
     inkscape:cx="886.57303"
     inkscape:cy="508.13531"
     inkscape:document-units="px"
     inkscape:current-layer="layer1"
     showgrid="false"
     inkscape:window-width="1868"
     inkscape:window-height="1016"
     inkscape:window-x="52"
     inkscape:window-y="27"
     inkscape:window-maximized="1"
     showguides="true"
     inkscape:guide-bbox="true"
     inkscape:snap-global="true"
     inkscape:snap-bbox="true"
     inkscape:bbox-paths="true"
     inkscape:bbox-nodes="true"
     inkscape:snap-bbox-edge-midpoints="true"
     inkscape:snap-bbox-midpoints="true"
     inkscape:object-paths="false"
     inkscape:snap-to-guides="true">
    <sodipodi:guide
       orientation="0,1"
       position="0,0"
       id="guide3017"
       inkscape:locked="false" />
    <sodipodi:guide
       orientation="0,1"
       position="0,1080"
       id="guide3019"
       inkscape:locked="false" />
    <sodipodi:guide
       orientation="1,0"
       position="0,0"
       id="guide3021"
       inkscape:locked="false" />
    <sodipodi:guide
       orientation="1,0"
       position="1920,1337.442"
       id="guide3023"
       inkscape:locked="false" />
    <sodipodi:guide
       orientation="0,1"
       position="0,25"
       id="guide3025"
       inkscape:locked="false" />
    <sodipodi:guide
       orientation="0,1"
       position="0,1048"
       id="guide3027"
       inkscape:locked="false" />
    <sodipodi:guide
       orientation="1,0"
       position="32,0"
       id="guide3029"
       inkscape:locked="false" />
    <sodipodi:guide
       orientation="1,0"
       position="1888,0"
       id="guide3031"
       inkscape:locked="false" />
    <sodipodi:guide
       orientation="1,0"
       position="960,1080"
       id="guide3819"
       inkscape:locked="false" />
    <sodipodi:guide
       position="801.03138,410.45881"
       orientation="0,1"
       id="guide6270"
       inkscape:locked="false" />
  </sodipodi:namedview>
  <metadata
     id="metadata7">
    <rdf:RDF>
      <cc:Work
         rdf:about="">
        <dc:format>image/svg+xml</dc:format>
        <dc:type
           rdf:resource="http://purl.org/dc/dcmitype/StillImage" />
        <dc:title />
      </cc:Work>
    </rdf:RDF>
  </metadata>
  <g
     inkscape:label="Ebene 1"
     inkscape:groupmode="layer"
     id="layer1"
     transform="translate(0,27.63782)">
    <rect
       style="fill:#6da741;fill-opacity:1;fill-rule:nonzero;stroke:none"
       id="rect3797"
       width="1920"
       height="1080"
       x="0"
       y="-27.637817" />
    <g
       id="ccbysa"
       inkscape:label="#ccbysa"
       transform="matrix(1.81654,0,0,1.81654,31.999998,951.0675)">
      <g
         inkscape:export-ydpi="300.23013"
         inkscape:export-xdpi="300.23013"
         inkscape:export-filename="/mnt/hgfs/Bov/Documents/Work/2007/cc/identity/srr buttons/big/by-sa.png"
         id="g287"
         transform="matrix(0.9937807,0,0,0.9936694,-177.69409,-74.436409)">
        <path
           style="fill:#aab2ab"
           d="m 182.23532,75.39014 114.06396,0.20312 c 1.59375,0 3.01758,-0.23682 3.01758,3.18018 l -0.13965,37.56689 -119.82031,0 0,-37.70654 c 0,-1.68457 0.16309,-3.24365 2.87842,-3.24365 z"
           nodetypes="ccccccc"
           id="path3817_2_"
           inkscape:connector-curvature="0" />
        <g
           transform="matrix(0.872921,0,0,0.872921,50.12536,143.2144)"
           id="g5908_2_">
          <path
             style="fill:#ffffff"
             d="m 187.20944,-55.6792 c 0.006,8.68024 -7.02786,15.72095 -15.7081,15.72708 -8.68021,0.005 -15.72205,-7.02786 -15.72708,-15.70804 0,-0.0067 0,-0.01233 0,-0.01904 -0.005,-8.68134 7.02783,-15.72205 15.70807,-15.72711 8.68134,-0.0056 15.72208,7.02789 15.72711,15.70807 0,0.0056 0,0.01233 0,0.01904 z"
             rx="22.939548"
             type="arc"
             cy="264.3577"
             ry="22.939548"
             cx="296.35416"
             id="path5906_2_"
             inkscape:connector-curvature="0" />
          <g
             transform="translate(-289.6157,99.0653)"
             id="g5706_2_">
            <path
               d="m 473.88455,-167.54724 c 3.48541,3.48596 5.22839,7.75391 5.22839,12.80273 0,5.04938 -1.7128,9.27148 -5.13834,12.66736 -3.63531,3.5766 -7.93179,5.36432 -12.88947,5.36432 -4.89777,0 -9.11987,-1.77261 -12.6651,-5.31955 -3.54584,-3.54581 -5.31845,-7.78299 -5.31845,-12.71213 0,-4.92859 1.77261,-9.19598 5.31845,-12.80273 3.4552,-3.48651 7.67725,-5.22894 12.6651,-5.22894 5.04829,0 9.31401,1.74243 12.79942,5.22894 z m -23.11798,2.34485 c -2.94675,2.97638 -4.41956,6.46289 -4.41956,10.46234 0,3.99835 1.45828,7.4552 4.37424,10.37067 2.91653,2.9165 6.38849,4.37476 10.41705,4.37476 4.02853,0 7.53018,-1.47281 10.50656,-4.41901 2.8259,-2.73584 4.23941,-6.17706 4.23941,-10.32642 0,-4.11804 -1.43646,-7.61292 -4.30768,-10.48474 -2.87064,-2.87067 -6.34988,-4.30652 -10.43829,-4.30652 -4.08837,0 -7.54638,1.44318 -10.37173,4.32892 z m 7.75449,8.70312 c -0.45032,-0.98163 -1.12433,-1.47223 -2.02325,-1.47223 -1.58914,0 -2.38342,1.06952 -2.38342,3.2085 0,2.13959 0.79428,3.20911 2.38342,3.20911 1.04938,0 1.79895,-0.5213 2.24866,-1.56512 l 2.20276,1.17303 c -1.04993,1.86548 -2.62506,2.79901 -4.72549,2.79901 -1.6199,0 -2.91763,-0.4967 -3.89206,-1.48956 -0.97607,-0.99341 -1.46274,-2.36273 -1.46274,-4.10797 0,-1.71558 0.50229,-3.07709 1.50748,-4.08563 1.00519,-1.00793 2.25705,-1.51251 3.75781,-1.51251 2.22012,0 3.80984,0.87488 4.77081,2.62286 l -2.38398,1.22051 z m 10.36334,0 c -0.45087,-0.98163 -1.11148,-1.47223 -1.98239,-1.47223 -1.62106,0 -2.43213,1.06952 -2.43213,3.2085 0,2.13959 0.81107,3.20911 2.43213,3.20911 1.05103,0 1.78717,-0.5213 2.20724,-1.56512 l 2.25201,1.17303 c -1.04825,1.86548 -2.62119,2.79901 -4.71768,2.79901 -1.61771,0 -2.91263,-0.4967 -3.88647,-1.48956 -0.97217,-0.99341 -1.45938,-2.36273 -1.45938,-4.10797 0,-1.71558 0.49448,-3.07709 1.48288,-4.08563 0.98782,-1.00793 2.24527,-1.51251 3.77347,-1.51251 2.21619,0 3.80368,0.87488 4.76132,2.62286 l -2.431,1.22051 z"
               id="path5708_2_"
               inkscape:connector-curvature="0" />
          </g>
        </g>
        <path
           id="path294"
           d="m 297.29639,74.91064 -116.22951,0 c -1.24658,0 -2.26074,1.01465 -2.26074,2.26123 l 0,39.49561 c 0,0.28174 0.22852,0.51074 0.51025,0.51074 l 119.73,0 c 0.28174,0 0.51074,-0.229 0.51074,-0.51074 l 0,-39.4956 c 0,-1.24659 -1.01416,-2.26124 -2.26074,-2.26124 z m -116.22951,1.02149 116.22951,0 c 0.68359,0 1.23926,0.55615 1.23926,1.23975 0,0 0,15.91943 0,27.41846 l -83.07375,0 c -3.04492,5.50537 -8.91113,9.24365 -15.64355,9.24365 -6.73535,0 -12.6001,-3.73486 -15.64355,-9.24365 l -4.34814,0 c 0,-11.49902 0,-27.41846 0,-27.41846 -2e-5,-0.6836 0.55663,-1.23975 1.24022,-1.23975 z"
           inkscape:connector-curvature="0" />
        <g
           id="g296"
           enable-background="new    ">
          <path
             style="fill:#ffffff"
             id="path298"
             d="m 265.60986,112.8833 c 0.0801,0.15576 0.1875,0.28174 0.32129,0.37842 0.13379,0.0962 0.29004,0.16797 0.46973,0.21436 0.18066,0.0469 0.36719,0.0703 0.55957,0.0703 0.12988,0 0.26953,-0.0107 0.41895,-0.0327 0.14844,-0.0215 0.28809,-0.064 0.41895,-0.12598 0.12988,-0.062 0.23926,-0.14795 0.3252,-0.25684 0.0879,-0.10889 0.13086,-0.24707 0.13086,-0.41553 0,-0.18018 -0.0576,-0.32617 -0.17285,-0.43848 -0.11426,-0.1123 -0.26562,-0.20508 -0.45215,-0.28027 -0.18555,-0.0742 -0.39746,-0.13965 -0.63281,-0.1958 -0.23633,-0.0562 -0.47559,-0.11816 -0.71777,-0.18701 -0.24902,-0.062 -0.49121,-0.13818 -0.72754,-0.22852 -0.23535,-0.0898 -0.44727,-0.20703 -0.63379,-0.3501 -0.18652,-0.14307 -0.33691,-0.32178 -0.45215,-0.53662 -0.11426,-0.21484 -0.17188,-0.47461 -0.17188,-0.7793 0,-0.34277 0.0732,-0.63965 0.21875,-0.8916 0.14648,-0.25195 0.33789,-0.46191 0.57422,-0.63037 0.23535,-0.16797 0.50293,-0.29248 0.80176,-0.37354 0.29785,-0.0806 0.59668,-0.12109 0.89453,-0.12109 0.34863,0 0.68262,0.0391 1.00293,0.11719 0.31934,0.0776 0.60449,0.2041 0.85254,0.37842 0.24902,0.17432 0.44629,0.39697 0.59277,0.66797 0.14551,0.271 0.21875,0.59961 0.21875,0.98535 l -1.42188,0 c -0.0127,-0.19922 -0.0547,-0.36426 -0.125,-0.49463 -0.0713,-0.13086 -0.16602,-0.2334 -0.2832,-0.30859 -0.11816,-0.0742 -0.25293,-0.12744 -0.4043,-0.1582 -0.15234,-0.0312 -0.31738,-0.0469 -0.49707,-0.0469 -0.11719,0 -0.23535,0.0127 -0.35254,0.0371 -0.11816,0.0254 -0.22461,0.0688 -0.32031,0.13086 -0.0967,0.0625 -0.17578,0.14014 -0.2373,0.2334 -0.0615,0.0937 -0.0928,0.21191 -0.0928,0.35498 0,0.13086 0.0244,0.23682 0.0742,0.31738 0.0498,0.0811 0.14844,0.15576 0.29395,0.22412 0.14551,0.0684 0.34766,0.13721 0.60547,0.20557 0.25781,0.0684 0.59473,0.15576 1.01172,0.26123 0.12402,0.0249 0.2959,0.0703 0.5166,0.13574 0.2207,0.0654 0.43945,0.16943 0.65723,0.3125 0.21777,0.14355 0.40527,0.33496 0.56445,0.57422 0.1582,0.23975 0.2373,0.54639 0.2373,0.91992 0,0.30518 -0.0596,0.58838 -0.17773,0.84961 -0.11816,0.26172 -0.29395,0.4873 -0.52734,0.67676 -0.2334,0.19043 -0.52246,0.33789 -0.86719,0.44385 -0.3457,0.10596 -0.74609,0.15869 -1.19922,0.15869 -0.36719,0 -0.72363,-0.0454 -1.06934,-0.13574 -0.34473,-0.0903 -0.65039,-0.23242 -0.91504,-0.42578 -0.26367,-0.19336 -0.47363,-0.43994 -0.62988,-0.73877 -0.15527,-0.29932 -0.22949,-0.65381 -0.22363,-1.06494 l 1.42188,0 c -3e-5,0.22412 0.04,0.41406 0.12106,0.56933 z"
             inkscape:connector-curvature="0" />
          <path
             style="fill:#ffffff"
             id="path300"
             d="m 273.8667,107.8667 2.49316,6.66406 -1.52246,0 -0.50391,-1.48438 -2.49316,0 -0.52246,1.48438 -1.47461,0 2.52051,-6.66406 1.50293,0 z m 0.084,4.08594 -0.83984,-2.44336 -0.0186,0 -0.86914,2.44336 1.72753,0 z"
             inkscape:connector-curvature="0" />
        </g>
        <g
           id="g302"
           enable-background="new    ">
          <path
             style="fill:#ffffff"
             id="path304"
             d="m 239.17821,107.8667 c 0.31738,0 0.60742,0.0283 0.86914,0.084 0.26172,0.0561 0.48633,0.14795 0.67383,0.27539 0.18652,0.12744 0.33203,0.29688 0.43457,0.5083 0.10254,0.21142 0.1543,0.47266 0.1543,0.78369 0,0.33594 -0.0762,0.61523 -0.22949,0.83936 -0.15234,0.22412 -0.37891,0.40723 -0.67773,0.55029 0.41211,0.11816 0.71973,0.3252 0.92285,0.62109 0.20312,0.29589 0.30469,0.65234 0.30469,1.06934 0,0.33594 -0.0654,0.62695 -0.19629,0.87305 -0.13086,0.24561 -0.30762,0.44629 -0.52832,0.60205 -0.22168,0.15576 -0.47461,0.271 -0.75781,0.34521 -0.28418,0.0752 -0.5752,0.1123 -0.875,0.1123 l -3.23633,0 0,-6.66406 3.14159,0 0,1e-5 z m -0.1875,2.69531 c 0.26172,0 0.47656,-0.062 0.64551,-0.18604 0.16797,-0.12451 0.25195,-0.32568 0.25195,-0.60498 0,-0.15527 -0.0283,-0.28271 -0.084,-0.38184 -0.0566,-0.0996 -0.13086,-0.17676 -0.22461,-0.23291 -0.0937,-0.0557 -0.20117,-0.0947 -0.32227,-0.11621 -0.12207,-0.022 -0.24805,-0.0327 -0.37891,-0.0327 l -1.37305,0 0,1.55469 1.48536,0 z m 0.0859,2.82813 c 0.14355,0 0.28027,-0.0137 0.41113,-0.042 0.13086,-0.0278 0.24707,-0.0747 0.34668,-0.13965 0.0996,-0.0654 0.17871,-0.1543 0.23828,-0.26611 0.0596,-0.11181 0.0889,-0.25488 0.0889,-0.4292 0,-0.3418 -0.0967,-0.58594 -0.29004,-0.73193 -0.19336,-0.14599 -0.44922,-0.21924 -0.7666,-0.21924 l -1.59961,0 0,1.82812 1.57129,0 z"
             inkscape:connector-curvature="0" />
          <path
             style="fill:#ffffff"
             id="path306"
             d="m 241.88914,107.8667 1.64355,0 1.56055,2.63184 1.55078,-2.63184 1.63379,0 -2.47363,4.10645 0,2.55762 -1.46875,0 0,-2.59473 -2.44629,-4.06934 z"
             inkscape:connector-curvature="0" />
        </g>
        <g
           transform="matrix(0.624995,0,0,0.624995,391.2294,176.9332)"
           id="g6316_1_">
          <path
             style="fill:#ffffff"
             d="m -175.0083,-139.1153 c 0.006,9.4118 -7.61725,17.04779 -17.02982,17.05481 -9.41101,0.007 -17.047,-7.61725 -17.05481,-17.02979 0,-0.008 0,-0.0172 0,-0.025 -0.006,-9.41254 7.6188,-17.047 17.02982,-17.05481 9.41257,-0.007 17.04855,7.61804 17.05481,17.02985 0,0.009 0,0.0164 0,0.025 z"
             rx="29.209877"
             type="arc"
             cy="252.08646"
             ry="29.209877"
             cx="475.97119"
             id="path6318_1_"
             inkscape:connector-curvature="0" />
          <g
             transform="translate(-23.9521,-89.72962)"
             id="g6320_1_">
            <path
               d="m -168.2204,-68.05536 c -5.17194,0 -9.54852,1.80469 -13.13135,5.41333 -3.67661,3.73444 -5.51413,8.1532 -5.51413,13.25635 0,5.10315 1.83752,9.49152 5.51413,13.1626 3.67502,3.67194 8.05316,5.50787 13.13135,5.50787 5.14066,0 9.59537,-1.85156 13.36728,-5.55475 3.55005,-3.51562 5.3266,-7.88831 5.3266,-13.11572 0,-5.22662 -1.8078,-9.64697 -5.42191,-13.25635 -3.61407,-3.60864 -8.03756,-5.41333 -13.27197,-5.41333 z m 0.0469,3.36017 c 4.23752,0 7.836,1.49298 10.79697,4.48053 2.98907,2.9563 4.48441,6.56567 4.48441,10.82898 0,4.29382 -1.46252,7.85712 -4.39224,10.68915 -3.08438,3.04926 -6.71411,4.57349 -10.88913,4.57349 -4.17505,0 -7.7735,-1.5094 -10.79541,-4.52661 -3.02188,-3.01953 -4.53284,-6.59692 -4.53284,-10.73602 0,-4.13831 1.52658,-7.74847 4.57971,-10.82898 2.92815,-2.98756 6.51098,-4.48054 10.74853,-4.48054 z"
               id="path6322_1_"
               inkscape:connector-curvature="0" />
            <path
               d="m -176.49548,-52.02087 c 0.74377,-4.69769 4.05161,-7.20862 8.1954,-7.20862 5.96097,0 9.59225,4.32501 9.59225,10.09229 0,5.62738 -3.86411,9.99927 -9.686,9.99927 -4.00473,0 -7.58914,-2.46484 -8.24228,-7.30084 l 4.70319,0 c 0.14062,2.51099 1.77032,3.39459 4.09845,3.39459 2.65317,0 4.37817,-2.4649 4.37817,-6.23291 0,-3.95233 -1.49063,-6.04535 -4.28598,-6.04535 -2.04846,0 -3.8172,0.74457 -4.19064,3.30157 l 1.36874,-0.007 -3.70316,3.7016 -3.7016,-3.7016 1.47346,0.007 z"
               id="path6324_1_"
               inkscape:connector-curvature="0" />
          </g>
        </g>
        <g
           id="g313">
          <circle
             style="fill:#ffffff"
             id="circle315"
             r="10.8064"
             cy="90.224609"
             cx="242.56226" />
          <g
             id="g317">
            <path
               id="path319"
               d="m 245.68994,87.09766 c 0,-0.4165 -0.33789,-0.75342 -0.75391,-0.75342 l -4.77246,0 c -0.41602,0 -0.75391,0.33691 -0.75391,0.75342 l 0,4.77295 1.33105,0 0,5.65234 3.61719,0 0,-5.65234 1.33203,0 0,-4.77295 1e-5,0 z"
               inkscape:connector-curvature="0" />
            <circle
               id="circle321"
               r="1.63232"
               cy="84.083008"
               cx="242.5498" />
          </g>
          <path
             style="clip-rule:evenodd;fill-rule:evenodd"
             id="path323"
             d="m 242.53467,78.31836 c -3.23145,0 -5.96826,1.12744 -8.20752,3.38379 -2.29785,2.33301 -3.44629,5.09521 -3.44629,8.28418 0,3.18897 1.14844,5.93213 3.44629,8.22705 2.29785,2.29443 5.03418,3.44189 8.20752,3.44189 3.21289,0 5.99805,-1.15674 8.35352,-3.47168 2.2207,-2.19678 3.33008,-4.92969 3.33008,-8.19727 0,-3.26758 -1.12891,-6.02881 -3.3877,-8.28418 -2.25879,-2.25634 -5.02442,-3.38378 -8.2959,-3.38378 z m 0.0293,2.09961 c 2.64844,0 4.89746,0.93359 6.74707,2.80078 1.87012,1.84717 2.80469,4.10352 2.80469,6.76758 0,2.68359 -0.91504,4.91113 -2.74609,6.68066 -1.92773,1.90576 -4.19629,2.8584 -6.80566,2.8584 -2.60937,0 -4.8584,-0.94287 -6.74658,-2.82959 -1.88965,-1.88623 -2.8335,-4.12256 -2.8335,-6.70947 0,-2.58643 0.9541,-4.84229 2.8623,-6.76758 1.83057,-1.86719 4.07031,-2.80078 6.71777,-2.80078 z"
             inkscape:connector-curvature="0" />
        </g>
      </g>
    </g>
    <rect
       style="fill:#ffffff;fill-opacity:1;fill-rule:nonzero;stroke:none;stroke-width:0.60000002;stroke-linecap:butt;stroke-linejoin:miter;stroke-miterlimit:4;stroke-dasharray:none;stroke-dashoffset:0;stroke-opacity:1"
       id="line"
       width="1325.7142"
       height="3"
       x="295.14285"
       y="763.93365" />
    <text
       xml:space="preserve"
       style="font-style:normal;font-variant:normal;font-weight:normal;font-stretch:normal;line-height:0%;font-family:'Courier 10 Pitch';-inkscape-font-specification:'Courier 10 Pitch';text-align:center;letter-spacing:0px;word-spacing:0px;text-anchor:middle;fill:#ffffff;fill-opacity:1;stroke:none"
       x="989.0517"
       y="842.97003"
       id="text"><tspan
         sodipodi:role="line"
         id="tspan3895"
         x="989.0517"
         y="842.97003"
         style="font-style:normal;font-variant:normal;font-weight:300;font-stretch:normal;font-size:45px;line-height:125%;font-family:'Source Sans Pro';-inkscape-font-specification:'Source Sans Pro Light';text-align:center;writing-mode:lr-tb;text-anchor:middle;fill:#ffffff;fill-opacity:1">More Recordings available on media.ccc.de</tspan></text>
    <g
       id="g10921"
       transform="matrix(0.64941813,0,0,0.64941813,-14.539683,262.95618)">
      <path
         style="opacity:0.2;fill:#000000;fill-opacity:1;stroke:none;stroke-width:0.31813714;stroke-miterlimit:4;stroke-dasharray:none;stroke-opacity:1"
         d="m 521.39144,236.24008 0,318.11746 10.90768,0 c 0.5987,-1.54888 2.07347,-2.65098 3.8384,-2.65098 l 23.52743,0 c 1.76493,0 3.23968,1.1021 3.8384,2.65098 l 10.90767,0 212.07831,0 10.90767,0 c 0.5987,-1.54888 2.07347,-2.65098 3.8384,-2.65098 l 23.52743,0 c 1.76492,0 3.2397,1.1021 3.8384,2.65098 l 10.90767,0 0,-318.11746 -10.60391,0 0,1.16007 c 0,2.29469 -1.8474,4.14189 -4.14216,4.14189 l -23.52743,0 c -2.29474,0 -4.14216,-1.8472 -4.14216,-4.14189 l 0,-1.16007 -10.60391,0 -212.07831,0 -10.60391,0 0,1.16007 c 0,2.29469 -1.8474,4.14189 -4.14216,4.14189 l -23.52743,0 c -2.29475,0 -4.14216,-1.8472 -4.14216,-4.14189 l 0,-1.16007 z m 14.74608,29.16077 23.52743,0 c 2.29476,0 4.14216,1.8472 4.14216,4.14189 l 0,15.57503 c 0,2.29469 -1.8474,4.14189 -4.14216,4.14189 l -23.52743,0 c -2.29475,0 -4.14216,-1.8472 -4.14216,-4.14189 l 0,-15.57503 c 0,-2.29469 1.8474,-4.14189 4.14216,-4.14189 z m 265.09788,0 23.52743,0 c 2.29476,0 4.14216,1.8472 4.14216,4.14189 l 0,15.57503 c 0,2.29469 -1.8474,4.14189 -4.14216,4.14189 l -23.52743,0 c -2.29474,0 -4.14216,-1.8472 -4.14216,-4.14189 l 0,-15.57503 c 0,-2.29469 1.84741,-4.14189 4.14216,-4.14189 z m -265.09788,47.71762 23.52743,0 c 2.29476,0 4.14216,1.8472 4.14216,4.14189 l 0,15.57503 c 0,2.29468 -1.8474,4.14189 -4.14216,4.14189 l -23.52743,0 c -2.29475,0 -4.14216,-1.84721 -4.14216,-4.14189 l 0,-15.57503 c 0,-2.29469 1.8474,-4.14189 4.14216,-4.14189 z m 265.09788,0 23.52743,0 c 2.29476,0 4.14216,1.8472 4.14216,4.14189 l 0,15.57503 c 0,2.29468 -1.8474,4.14189 -4.14216,4.14189 l -23.52743,0 c -2.29474,0 -4.14216,-1.84721 -4.14216,-4.14189 l 0,-15.57503 c 0,-2.29469 1.84741,-4.14189 4.14216,-4.14189 z m -265.09788,47.71762 23.52743,0 c 2.29476,0 4.14216,1.8472 4.14216,4.14189 l 0,15.57503 c 0,2.29468 -1.8474,4.14189 -4.14216,4.14189 l -23.52743,0 c -2.29475,0 -4.14216,-1.84721 -4.14216,-4.14189 l 0,-15.57503 c 0,-2.29469 1.8474,-4.14189 4.14216,-4.14189 z m 265.09788,0 23.52743,0 c 2.29476,0 4.14216,1.8472 4.14216,4.14189 l 0,15.57503 c 0,2.29468 -1.8474,4.14189 -4.14216,4.14189 l -23.52743,0 c -2.29474,0 -4.14216,-1.84721 -4.14216,-4.14189 l 0,-15.57503 c 0,-2.29469 1.84741,-4.14189 4.14216,-4.14189 z m -265.09788,47.71762 23.52743,0 c 2.29476,0 4.14216,1.8472 4.14216,4.14188 l 0,15.57504 c 0,2.29468 -1.8474,4.14188 -4.14216,4.14188 l -23.52743,0 c -2.29475,0 -4.14216,-1.8472 -4.14216,-4.14188 l 0,-15.57504 c 0,-2.29468 1.8474,-4.14188 4.14216,-4.14188 z m 265.09788,0 23.52743,0 c 2.29476,0 4.14216,1.8472 4.14216,4.14188 l 0,15.57504 c 0,2.29468 -1.8474,4.14188 -4.14216,4.14188 l -23.52743,0 c -2.29474,0 -4.14216,-1.8472 -4.14216,-4.14188 l 0,-15.57504 c 0,-2.29468 1.84741,-4.14188 4.14216,-4.14188 z m -265.09788,47.71761 23.52743,0 c 2.29476,0 4.14216,1.84721 4.14216,4.14189 l 0,15.57503 c 0,2.29469 -1.8474,4.14189 -4.14216,4.14189 l -23.52743,0 c -2.29475,0 -4.14216,-1.8472 -4.14216,-4.14189 l 0,-15.57503 c 0,-2.29468 1.8474,-4.14189 4.14216,-4.14189 z m 265.09788,0 23.52743,0 c 2.29476,0 4.14216,1.84721 4.14216,4.14189 l 0,15.57503 c 0,2.29469 -1.8474,4.14189 -4.14216,4.14189 l -23.52743,0 c -2.29474,0 -4.14216,-1.8472 -4.14216,-4.14189 l 0,-15.57503 c 0,-2.29468 1.84741,-4.14189 4.14216,-4.14189 z m -265.09788,47.71762 23.52743,0 c 2.29476,0 4.14216,1.84721 4.14216,4.14189 l 0,15.57503 c 0,2.29469 -1.8474,4.14189 -4.14216,4.14189 l -23.52743,0 c -2.29475,0 -4.14216,-1.8472 -4.14216,-4.14189 l 0,-15.57503 c 0,-2.29468 1.8474,-4.14189 4.14216,-4.14189 z m 265.09788,0 23.52743,0 c 2.29476,0 4.14216,1.84721 4.14216,4.14189 l 0,15.57503 c 0,2.29469 -1.8474,4.14189 -4.14216,4.14189 l -23.52743,0 c -2.29474,0 -4.14216,-1.8472 -4.14216,-4.14189 l 0,-15.57503 c 0,-2.29468 1.84741,-4.14189 4.14216,-4.14189 z"
         id="rect817-2"
         inkscape:connector-curvature="0" />
      <path
         style="opacity:1;fill:#061c2a;fill-opacity:1;stroke:none;stroke-width:1.49999988;stroke-miterlimit:4;stroke-dasharray:none;stroke-opacity:1"
         d="m 521.39144,230.93812 0,318.11746 10.90768,0 c 0.5987,-1.54958 2.07347,-2.65098 3.8384,-2.65098 l 23.52743,0 c 1.76493,0 3.23968,1.1014 3.8384,2.65098 l 10.90767,0 212.07831,0 10.90767,0 c 0.5987,-1.54817 2.07347,-2.65098 3.8384,-2.65098 l 23.52743,0 c 1.76492,0 3.2397,1.10281 3.8384,2.65098 l 10.90767,0 0,-318.11746 -10.60391,0 0,1.16007 c 0,2.29469 -1.8474,4.14189 -4.14216,4.14189 l -23.52743,0 c -2.29474,0 -4.14216,-1.8472 -4.14216,-4.14189 l 0,-1.16007 -10.60391,0 -212.07831,0 -10.60391,0 0,1.16007 c 0,2.29469 -1.84741,4.14189 -4.14216,4.14189 l -23.52743,0 c -2.29476,0 -4.14216,-1.8472 -4.14216,-4.14189 l 0,-1.16007 z m 14.74608,29.16077 23.52743,0 c 2.29475,0 4.14216,1.8465 4.14216,4.14189 l 0,15.57503 c 0,2.29469 -1.84741,4.14189 -4.14216,4.14189 l -23.52743,0 c -2.29476,0 -4.14216,-1.8472 -4.14216,-4.14189 l 0,-15.57503 c 0,-2.29539 1.8474,-4.14189 4.14216,-4.14189 z m 265.09788,0 23.52743,0 c 2.29476,0 4.14216,1.8465 4.14216,4.14189 l 0,15.57503 c 0,2.29469 -1.8474,4.14189 -4.14216,4.14189 l -23.52743,0 c -2.29474,0 -4.14216,-1.8472 -4.14216,-4.14189 l 0,-15.57503 c 0,-2.29539 1.84741,-4.14189 4.14216,-4.14189 z m -265.09788,47.71762 23.52743,0 c 2.29475,0 4.14216,1.8472 4.14216,4.14189 l 0,15.57503 c 0,2.29469 -1.84741,4.14189 -4.14216,4.14189 l -23.52743,0 c -2.29476,0 -4.14216,-1.8472 -4.14216,-4.14189 l 0,-15.57503 c 0,-2.29469 1.8474,-4.14189 4.14216,-4.14189 z m 265.09788,0 23.52743,0 c 2.29476,0 4.14216,1.8472 4.14216,4.14189 l 0,15.57503 c 0,2.29469 -1.8474,4.14189 -4.14216,4.14189 l -23.52743,0 c -2.29474,0 -4.14216,-1.8472 -4.14216,-4.14189 l 0,-15.57503 c 0,-2.29469 1.84741,-4.14189 4.14216,-4.14189 z m -265.09788,47.71762 23.52743,0 c 2.29475,0 4.14216,1.8472 4.14216,4.14189 l 0,15.57503 c 0,2.29469 -1.84741,4.14189 -4.14216,4.14189 l -23.52743,0 c -2.29476,0 -4.14216,-1.8472 -4.14216,-4.14189 l 0,-15.57503 c 0,-2.29469 1.8474,-4.14189 4.14216,-4.14189 z m 265.09788,0 23.52743,0 c 2.29476,0 4.14216,1.8472 4.14216,4.14189 l 0,15.57503 c 0,2.29469 -1.8474,4.14189 -4.14216,4.14189 l -23.52743,0 c -2.29474,0 -4.14216,-1.8472 -4.14216,-4.14189 l 0,-15.57503 c 0,-2.29469 1.84741,-4.14189 4.14216,-4.14189 z m -265.09788,47.71762 23.52743,0 c 2.29475,0 4.14216,1.8472 4.14216,4.14189 l 0,15.57503 c 0,2.29468 -1.84741,4.14189 -4.14216,4.14189 l -23.52743,0 c -2.29476,0 -4.14216,-1.84721 -4.14216,-4.14189 l 0,-15.57503 c 0,-2.29469 1.8474,-4.14189 4.14216,-4.14189 z m 265.09788,0 23.52743,0 c 2.29476,0 4.14216,1.8472 4.14216,4.14189 l 0,15.57503 c 0,2.29468 -1.8474,4.14189 -4.14216,4.14189 l -23.52743,0 c -2.29474,0 -4.14216,-1.84721 -4.14216,-4.14189 l 0,-15.57503 c 0,-2.29469 1.84741,-4.14189 4.14216,-4.14189 z m -265.09788,47.71762 23.52743,0 c 2.29475,0 4.14216,1.8472 4.14216,4.14189 l 0,15.57503 c 0,2.29468 -1.84741,4.14189 -4.14216,4.14189 l -23.52743,0 c -2.29476,0 -4.14216,-1.84721 -4.14216,-4.14189 l 0,-15.57503 c 0,-2.29469 1.8474,-4.14189 4.14216,-4.14189 z m 265.09788,0 23.52743,0 c 2.29476,0 4.14216,1.8472 4.14216,4.14189 l 0,15.57503 c 0,2.29468 -1.8474,4.14189 -4.14216,4.14189 l -23.52743,0 c -2.29474,0 -4.14216,-1.84721 -4.14216,-4.14189 l 0,-15.57503 c 0,-2.29469 1.84741,-4.14189 4.14216,-4.14189 z m -265.09788,47.71762 23.52743,0 c 2.29475,0 4.14216,1.8472 4.14216,4.14188 l 0,15.57504 c 0,2.29468 -1.84741,4.14189 -4.14216,4.14189 l -23.52743,0 c -2.29476,0 -4.14216,-1.84721 -4.14216,-4.14189 l 0,-15.57504 c 0,-2.29468 1.8474,-4.14188 4.14216,-4.14188 z m 265.09788,0 23.52743,0 c 2.29476,0 4.14216,1.8472 4.14216,4.14188 l 0,15.57504 c 0,2.29468 -1.8474,4.14189 -4.14216,4.14189 l -23.52743,0 c -2.29474,0 -4.14216,-1.84721 -4.14216,-4.14189 l 0,-15.57504 c 0,-2.29468 1.84741,-4.14188 4.14216,-4.14188 z"
         id="rect1349"
         inkscape:connector-curvature="0" />
      <rect
         style="opacity:0.2;fill:#000000;fill-opacity:1;stroke:none;stroke-width:0.39679703;stroke-miterlimit:4;stroke-dasharray:none;stroke-opacity:1"
         id="rect1059-9-4-0"
         width="190.87047"
         height="143.15286"
         x="585.01544"
         y="482.78079"
         ry="0" />
      <rect
         style="opacity:0.2;fill:#000000;fill-opacity:1;stroke:none;stroke-width:0.39679703;stroke-miterlimit:4;stroke-dasharray:none;stroke-opacity:1"
         id="rect1059-9-3"
         width="190.87047"
         height="143.15286"
         x="585.01544"
         y="323.72119"
         ry="0" />
      <rect
         style="opacity:0.2;fill:#000000;fill-opacity:1;stroke:none;stroke-width:0.39679703;stroke-miterlimit:4;stroke-dasharray:none;stroke-opacity:1"
         id="rect1059-6"
         width="190.87047"
         height="143.15285"
         x="585.01544"
         y="164.66418"
         ry="0" />
      <rect
         style="opacity:1;fill:#173f4f;fill-opacity:1;stroke:none;stroke-width:0.39679703;stroke-miterlimit:4;stroke-dasharray:none;stroke-opacity:1"
         id="rect1059"
         width="190.87047"
         height="143.15285"
         x="585.01544"
         y="159.36223"
         ry="0" />
      <rect
         style="opacity:1;fill:#73ba25;fill-opacity:1;stroke:none;stroke-width:0.39679703;stroke-miterlimit:4;stroke-dasharray:none;stroke-opacity:1"
         id="rect1059-9"
         width="190.87047"
         height="143.15286"
         x="585.01544"
         y="318.41922"
         ry="0" />
      <rect
         style="opacity:1;fill:#173f4f;fill-opacity:1;stroke:none;stroke-width:0.39679703;stroke-miterlimit:4;stroke-dasharray:none;stroke-opacity:1"
         id="rect1059-9-4"
         width="190.87047"
         height="143.15286"
         x="585.01544"
         y="477.47882"
         ry="0" />
      <path
         style="opacity:1;fill:#ffffff;fill-opacity:1;stroke:none;stroke-width:2.14482522;stroke-miterlimit:4;stroke-dasharray:none;stroke-opacity:1"
         d="m 680.45017,505.75626 a 45.9503,45.9503 0 0 0 -45.9503,45.9503 45.9503,45.9503 0 0 0 45.9503,45.9503 45.9503,45.9503 0 0 0 45.9503,-45.9503 45.9503,45.9503 0 0 0 -45.9503,-45.9503 z m -13.25489,24.74247 37.1137,21.20783 -37.1137,21.20783 z"
         id="path1671"
         inkscape:connector-curvature="0" />
      <path
         id="path819"
         d="m 680.47646,339.68976 c -16.32415,0 -31.72807,7.55847 -41.76281,20.42738 6.47048,1.72702 11.05018,3.21299 12.42175,3.6732 0.0212,-0.83771 0.16104,-8.36366 0.16104,-8.36366 0,0 0.017,-0.17674 0.11028,-0.2545 0.11778,-0.12725 0.28956,-0.12725 0.28956,-0.12725 1.70184,0.2545 38.02695,5.62786 53.33818,14.54433 1.89087,1.10281 2.8242,2.28197 3.99039,3.47314 4.23247,4.37518 9.82505,22.56796 10.42571,26.31892 0.0247,0.14845 -0.15863,0.31812 -0.23639,0.36053 l -0.002,0 c -0.43477,0.33933 -0.90844,0.68572 -1.38267,0.99677 -3.62299,2.43042 -11.96947,8.26893 -22.67786,7.31529 -9.61885,-0.84832 -22.18571,-6.36447 -37.33552,-16.34134 1.48955,3.48515 2.95717,6.98232 4.42558,10.47667 2.19395,1.13956 23.37008,11.92304 33.82145,11.71308 8.41791,-0.17673 17.42101,-4.27903 21.02275,-6.44506 0,0 0.79148,-0.47364 1.13596,-0.21208 0.37672,0.28984 0.27726,0.74298 0.1833,1.18976 -0.21674,1.02929 -0.72605,2.91678 -1.06916,3.81317 l -0.28956,0.73167 c -0.41228,1.10139 -0.80802,2.12927 -1.57114,2.76197 -2.12175,1.92779 -5.50824,3.46111 -10.81463,5.76782 -8.20212,3.58483 -21.50933,5.86608 -33.86428,5.7862 -4.42512,-0.12724 -8.70028,-0.59382 -12.45431,-1.02858 -7.70409,-0.86952 -13.97253,-1.57433 -17.79483,1.18976 10.05468,11.54837 24.61281,18.18925 39.92953,18.2147 29.29858,0 53.04955,-23.73863 53.04861,-53.02099 -6.2e-4,-29.28165 -23.75113,-53.01816 -53.04861,-53.01816 z m 11.83238,30.76408 c -4.15222,-0.14139 -8.11156,1.33044 -11.14704,4.1638 -3.0341,2.82276 -4.77038,6.67198 -4.92416,10.81812 -0.2868,8.55523 6.43389,15.76378 14.98664,16.07977 4.17107,0.13432 8.12182,-1.32407 11.1573,-4.1737 3.02637,-2.81498 4.76266,-6.66421 4.92416,-10.81034 0.2938,-8.54887 -6.43494,-15.77226 -14.9969,-16.07765 z m -0.13022,4.57453 c 5.98361,0.21207 10.66832,5.23692 10.46681,11.2147 -0.0923,2.88285 -1.30929,5.55504 -3.42324,7.53797 -2.11703,1.97233 -4.88397,2.99878 -7.78718,2.91113 -5.96973,-0.23329 -10.65462,-5.24894 -10.45311,-11.22955 0.088,-2.89487 1.3288,-5.56706 3.43353,-7.53938 2.10467,-1.97445 4.8584,-2.99879 7.76319,-2.89487 z m 1.7733,5.43768 c -2.65862,0 -4.80593,1.42941 -4.80593,3.20875 0,1.76237 2.14731,3.20026 4.80593,3.20026 2.65705,0 4.8128,-1.4393 4.8128,-3.20026 0,-1.77934 -2.15426,-3.20875 -4.8128,-3.20875 z"
         style="opacity:1;fill:#ffffff;fill-opacity:1;stroke:none;stroke-width:0.23640315;stroke-miterlimit:4;stroke-dasharray:none;stroke-opacity:1"
         inkscape:connector-curvature="0" />
      <path
         d="m 680.44906,180.72364 c -29.27979,0 -53.01797,23.73792 -53.01797,53.02099 a 53.021201,53.021201 0 0 0 3.46499,18.79225 c 0.77673,-2.03383 1.66777,-4.01888 2.79075,-5.88305 0.57176,-0.95435 1.20067,-1.86982 1.62031,-2.89062 0.42076,-1.02858 0.61488,-2.18158 0.29344,-3.23985 -0.18345,-0.60796 -0.52864,-1.14523 -0.90186,-1.64997 -0.37432,-0.50899 -0.78427,-0.98617 -1.12515,-1.51636 -0.8673,-1.34458 -1.26539,-3.00091 -1.03993,-4.58514 0.2265,-1.58493 1.08093,-3.08432 2.36897,-4.03585 1.1478,-0.84831 2.59766,-1.23005 4.03026,-1.17562 a 7.184562,7.184562 0 0 1 1.41318,0.20501 c 1.85115,0.44537 3.4844,1.60756 4.69585,3.07372 1.50165,1.82388 2.38407,4.13058 2.59982,6.48112 0.21794,2.35194 -0.21569,4.74772 -1.12407,6.92647 -1.62894,3.90437 -4.70556,7.05726 -6.39922,10.93405 -1.38298,3.16704 -1.77995,6.69956 -1.59118,10.15149 0.0255,0.31811 0.0693,0.63623 0.0976,0.96495 a 53.021201,53.021201 0 0 0 14.80171,13.00676 72.093737,72.093737 0 0 1 -0.52638,-8.63088 c 0.007,-2.29539 0.12407,-4.58513 0.3452,-6.85012 -1.39484,-0.96496 -2.66131,-2.08261 -3.55992,-3.50919 -1.59874,-2.54282 -1.90079,-5.76076 -1.24274,-8.69168 0.65807,-2.93092 2.21146,-5.60099 4.07773,-7.95435 3.07879,-3.8775 7.10042,-7.01555 11.59454,-9.09392 -0.12951,-0.17673 -0.25888,-0.36053 -0.36675,-0.50899 -1.65482,-2.67854 -2.63218,-5.76499 -2.86951,-8.90516 -0.2417,-3.17552 0.25887,-6.35599 0.46925,-9.53292 0.151,-2.21622 0.1597,-4.43315 0.28907,-6.65078 0.151,-2.56403 0.46381,-5.13088 1.18339,-7.59664 0.26107,-0.89073 0.58032,-1.7857 1.08739,-2.56686 a 5.728232,5.728232 0 0 1 2.43046,-2.10806 c 1.11868,-0.44536 2.09065,-0.54433 3.17157,-0.36053 0.90398,0.19087 1.74004,0.6433 2.47252,1.20743 0.73358,0.56554 1.36681,1.24419 1.96552,1.949 a 29.84398,29.84398 0 0 1 4.24384,6.60978 14.604295,14.604295 0 0 1 4.46609,0 29.798672,29.798672 0 0 1 4.246,-6.61049 c 0.59764,-0.71046 1.23303,-1.38628 1.96551,-1.95041 0.73358,-0.56554 1.56852,-1.01797 2.47361,-1.20531 a 5.1856141,5.1856141 0 0 1 3.1899,0.36053 5.7347047,5.7347047 0 0 1 2.43045,2.11442 c 0.50694,0.77409 0.82636,1.66765 1.0874,2.56191 0.71842,2.46506 1.03134,5.03262 1.18232,7.59452 0.12951,2.21834 0.14018,4.44163 0.29118,6.65573 0.21038,3.17834 0.71524,6.35386 0.4747,9.52868 a 19.854634,19.854634 0 0 1 -2.87814,8.90728 c -0.12951,0.19794 -0.28694,0.38882 -0.42069,0.59382 1.00758,1.13462 2.44555,2.09887 3.6721,2.51101 a 7.9979494,7.9979494 0 0 0 4.28701,0.16966 6.7498206,6.7498206 0 0 0 2.18341,-0.92254 5.124125,5.124125 0 0 0 1.62354,-1.70935 c 0.48545,-0.84831 0.67964,-1.83306 0.78755,-2.81004 0.27507,-2.48979 0,-5.00504 -0.20501,-7.50121 -0.14018,-1.62027 -0.25343,-3.26883 0.10993,-4.85447 0.24601,-1.07311 0.72711,-2.1229 1.53186,-2.87224 a 4.5221749,4.5221749 0 0 1 1.90077,-1.03919 5.3657674,5.3657674 0 0 1 2.16832,-0.11311 c 1.55342,0.23329 3.00759,1.11554 3.87491,2.42194 0.49302,0.74227 0.79287,1.59977 0.97303,2.47354 0.17906,0.86952 0.24495,1.76378 0.29344,2.6531 0.16825,3.11048 0.16182,6.2245 0.0753,9.33922 -0.0721,2.71884 -0.2265,5.51262 -1.31394,8.00454 -1.39807,3.19814 -4.21365,5.58614 -7.25467,7.30115 a 28.838573,28.838573 0 0 1 -6.48985,2.65381 c 1.9709,6.29165 2.9968,13.25348 2.9968,20.31356 a 71.971834,71.971834 0 0 1 -0.55013,8.69309 53.019049,53.019049 0 0 0 26.10606,-45.60885 c -0.003,-29.28377 -23.74137,-53.02099 -53.02116,-53.02099 z m -14.82868,65.35758 0,6.06544 a 7.6883448,7.6883448 0 0 1 4.43048,1.48101 7.1068911,7.1068911 0 0 1 2.27404,2.78389 c 0.49619,1.10563 0.67957,2.35477 0.47463,3.54877 a 6.1057992,6.1057992 0 0 1 -1.35708,2.89629 6.734718,6.734718 0 0 1 -2.59982,1.87265 7.1090487,7.1090487 0 0 1 -3.22227,0.50192 l 0,15.25903 31.74369,-17.21228 -31.74477,-17.19531 z"
         id="path2"
         style="fill:#ffffff;fill-opacity:1;stroke-width:0.15259878"
         inkscape:connector-curvature="0" />
      <text
         xml:space="preserve"
         style="font-style:normal;font-weight:normal;font-size:220.47531128px;line-height:0%;font-family:sans-serif;letter-spacing:0px;word-spacing:0px;fill:#ffffff;fill-opacity:1;stroke:none;stroke-width:0.77969539"
         x="987.96375"
         y="383.42517"
         id="text1624"><tspan
           id="tspan1622"
           x="987.96375"
           y="383.42517"
           style="font-style:normal;font-variant:normal;font-weight:bold;font-stretch:condensed;font-family:'Open Sans Condensed';-inkscape-font-specification:'Open Sans Condensed,  Bold Condensed';fill:#ffffff;fill-opacity:1;stroke-width:0.77969539">Video</tspan></text>
      <text
         xml:space="preserve"
         style="font-style:normal;font-weight:normal;font-size:252.85043335px;line-height:0%;font-family:sans-serif;letter-spacing:0px;word-spacing:0px;fill:#ffffff;fill-opacity:1;stroke:none;stroke-width:0.89418781"
         x="980.6311"
         y="580.48383"
         id="text1628"><tspan
           id="tspan1626"
           x="980.6311"
           y="580.48383"
           style="font-style:normal;font-variant:normal;font-weight:300;font-stretch:normal;font-family:'Source Sans Pro';-inkscape-font-specification:'Source Sans Pro Light';fill:#ffffff;fill-opacity:1;stroke-width:0.89418781">Team</tspan></text>
    </g>
    <g
       id="g5758"
       transform="matrix(0.51253329,0,0,0.51253329,1599.4973,-209.0269)"
       style="fill:#ffffff">
      <path
         d="m 523.71,442.05 c -3.3113,-0.11926 -6.4507,1.0506 -8.8499,3.3008 -2.3993,2.2502 -3.8147,5.2984 -3.9147,8.5992 -0.2297,6.8208 5.1108,12.559 11.916,12.81 3.3095,0.1 6.4647,-1.0698 8.878,-3.32 2.4098,-2.2607 3.7953,-5.3107 3.9006,-8.5992 0.2297,-6.819 -5.109,-12.549 -11.93,-12.791 z m 2.0205,13.512 c -3.0307,0 -5.4791,-1.6398 -5.4791,-3.6498 0,-2.0292 2.4484,-3.6603 5.4791,-3.6603 3.0306,0 5.486,1.6311 5.486,3.6603 0,2.0099 -2.4571,3.6498 -5.486,3.6498 z m 28.798,14.729 c 0.0887,-0.0692 0.29521,-0.25105 0.2683,-0.41918 -0.68471,-4.2787 -7.0592,-25.029 -11.884,-30.019 -1.3294,-1.3592 -2.394,-2.6992 -4.5495,-3.9602 -17.454,-10.171 -58.863,-16.309 -60.803,-16.59 0,0 -0.19473,-0.0406 -0.3297,0.0912 -0.1048,0.10237 -0.1246,0.29991 -0.1246,0.29991 0,0 -0.1596,8.5799 -0.1841,9.5392 -4.2286,-1.4206 -34.972,-11.351 -63.791,-12.351 -24.44,-0.85939 -60.033,-4.0198 -107.2,24.98 l -1.3943,0.86815 c -22.19,13.841 -37.51,30.91 -45.518,50.739 -2.5116,6.2402 -5.8895,20.32 -2.5414,33.569 1.4417,5.7912 4.1304,11.611 7.7556,16.819 8.194,11.77 21.944,19.58 36.749,20.899 20.904,1.8696 36.733,-7.5188 42.363,-25.099 3.8708,-12.13 0,-29.928 -14.839,-39.008 -12.07,-7.3908 -25.049,-5.7106 -32.578,-0.7296 -6.5313,4.3303 -10.23,11.06 -10.165,18.451 0.1508,13.11 11.444,20.078 19.564,20.099 2.3589,0 4.7284,-0.41041 7.3995,-1.2803 0.9506,-0.28939 1.845,-0.64893 2.8307,-1.2593 l 0.3087,-0.18065 0.1947,-0.12978 -0.065,0.0386 c 1.8503,-1.261 2.964,-3.3113 2.964,-5.5106 0,-0.59981 -0.084,-1.2084 -0.2561,-1.8205 -0.9593,-3.32 -4.239,-5.3282 -7.638,-4.7091 l -0.4595,0.10874 -0.6209,0.18942 -0.9015,0.31043 c -1.8696,0.45951 -3.2692,0.49985 -3.5691,0.51038 -0.9506,-0.0614 -5.6246,-1.461 -5.6246,-6.5805 l 0,-0.0702 c 0,-1.8801 0.7542,-3.199 1.1698,-3.9199 1.454,-2.28 5.4352,-4.5179 10.814,-4.0497 7.0593,0.61034 12.149,4.2303 15.52,11.06 3.1289,6.349 2.3098,14.159 -2.1099,19.88 -4.3899,5.6685 -12.205,8.0783 -22.598,6.9593 -10.481,-1.1593 -19.34,-7.1908 -24.303,-16.579 -4.8565,-9.1779 -5.1213,-20.059 -0.6858,-28.418 10.609,-20.029 30.649,-19.82 41.637,-17.921 16.26,2.8202 34.758,17.819 41.319,35.139 1.0593,2.7606 1.5995,4.9494 2.0713,6.9505 l 0.7085,2.9903 18.37,8.9692 c 0.39458,0.19266 0.52796,0.25778 0.6858,0.14034 0.18941,-0.14093 0.081,-0.52966 0.081,-0.52966 -0.114,-0.4104 -0.3806,-0.78924 -0.805,-5.9298 -0.3491,-4.5618 -1.0594,-17.051 5.2282,-23.24 2.4414,-2.4186 6.1613,-4.5776 9.099,-5.2686 12.04,-2.9412 26.159,-0.912 39.507,14.539 6.9102,7.98 10.279,11.619 11.97,13.249 0,0 0.38494,0.36349 0.5893,0.53142 0.22331,0.1835 0.36878,0.33789 0.6945,0.51914 0.55786,0.31042 22.954,10.621 22.954,10.621 0,0 0.26534,0.13182 0.4612,-0.11049 0.19362,-0.23953 0.01,-0.4788 0.01,-0.4788 -0.1491,-0.17013 -14.199,-18.328 -11.698,-33.279 1.9696,-11.909 11.447,-10.83 24.558,-9.3498 4.2794,0.49984 9.1516,1.0593 14.196,1.1716 14.084,0.0895 29.254,-2.5115 38.604,-6.6015 6.049,-2.629 9.9093,-4.3794 12.328,-6.5787 0.8699,-0.72084 1.3207,-1.8907 1.7907,-3.1499 l 0.3297,-0.83133 c 0.3911,-1.0207 0.9664,-3.171 1.219,-4.3496 0.1017,-0.51914 0.2208,-1.0274 -0.2087,-1.3592 -0.39265,-0.30337 -1.2944,0.24027 -1.2944,0.24027 -4.1058,2.4712 -14.369,7.1505 -23.965,7.3504 -11.914,0.24028 -36.054,-12.061 -38.555,-13.36 -1.6739,-3.9857 -3.3458,-7.9724 -5.0438,-11.948 17.27,11.379 31.594,17.668 42.559,18.638 12.207,1.0874 21.723,-5.5724 25.853,-8.3433 0.54064,-0.35944 1.0799,-0.76184 1.5756,-1.1486 z m -48.992,-16.369 c 0.1753,-4.7302 2.1554,-9.1201 5.6141,-12.34 3.4603,-3.2306 7.9747,-4.9003 12.708,-4.7494 9.7602,0.34902 17.43,8.5886 17.095,18.338 -0.1841,4.7302 -2.1642,9.1201 -5.6141,12.33 -3.4603,3.2499 -7.9642,4.9196 -12.719,4.76 -9.7497,-0.35954 -17.411,-8.5799 -17.084,-18.338 z"
         id="Geeko"
         inkscape:connector-curvature="0"
         style="clip-rule:evenodd;fill:#ffffff;fill-rule:evenodd" />
      <path
         id="path5761"
         d="m 376.84,556.36 c -7.7836,0 -12.065,6.5805 -12.065,11.13 l 0,5.8403 c 0,6.6997 5.4738,10.851 10.55,10.851 l 17.819,0 c 2.2449,0 2.7149,1.4697 2.7149,2.7097 l 0,3.769 c 0,0.39988 -0.081,4.0198 -2.7149,4.0198 l -24.303,0 c -2.4151,0 -4.1602,1.6802 -4.1602,3.9795 l 0,1.0418 c 0,2.2905 1.7451,3.9602 4.1602,3.9602 l 25.624,0 c 6.698,0 11.02,-4.66 11.02,-11.879 l 0,-6.3016 c 0,-6.7786 -4.8705,-9.8093 -9.7058,-9.8093 l -17.533,0 c -2.6395,0 -3.8356,-1.9801 -3.8356,-3.3797 l 0,-3.4796 c 0,-2.1906 1.4644,-3.4604 4.0251,-3.4604 l 19.408,0 c 2.38,0 4.1707,-1.71 4.1707,-3.9707 l 0,-1.04 c 0,-2.2695 -1.8205,-3.9813 -4.2513,-3.9813 l -20.922,0 z"
         inkscape:connector-curvature="0"
         style="fill:#ffffff" />
      <path
         id="path5763"
         d="m 449.7,556.36 c -2.301,0 -4.1548,1.8696 -4.1548,4.1707 l 0,29.838 c 0,2.3905 -1.9503,4.311 -4.311,4.311 l -13.545,0 c -2.3694,0 -4.3092,-1.9205 -4.3092,-4.311 l 0,-29.838 c 0,-2.3011 -1.8696,-4.1707 -4.1689,-4.1707 l -1.3101,0 c -2.3344,0 -4.1707,1.8416 -4.1707,4.1707 l 0,30.968 c 0,7.2101 5.6737,12.44 13.489,12.44 l 14.485,0 c 7.8047,0 13.475,-5.2282 13.475,-12.44 l 0,-30.968 c 0,-2.3291 -1.8293,-4.1707 -4.1602,-4.1707 l -1.3189,0 z"
         inkscape:connector-curvature="0"
         style="fill:#ffffff" />
      <path
         id="path5765"
         d="m 475.63,556.36 c -7.7801,0 -12.074,6.5805 -12.074,11.13 l 0,5.8403 c 0,6.6997 5.4843,10.851 10.564,10.851 l 17.814,0 c 2.2485,0 2.7203,1.4697 2.7203,2.7097 l 0,3.769 c 0,0.39988 -0.081,4.0198 -2.7203,4.0198 l -24.314,0 c -2.4045,0 -4.1601,1.6802 -4.1601,3.9795 l 0,1.0418 c 0,2.2905 1.7556,3.9602 4.1601,3.9602 l 25.633,0 c 6.6998,0 11.041,-4.66 11.041,-11.879 l 0,-6.3016 c 0,-6.7786 -4.8845,-9.8093 -9.7199,-9.8093 l -17.533,0 c -2.6466,0 -3.8392,-1.9801 -3.8392,-3.3797 l 0,-3.4796 c 0,-2.1906 1.4645,-3.4604 4.0251,-3.4604 l 19.419,0 c 2.3747,0 4.1584,-1.71 4.1584,-3.9707 l 0,-1.04 c 0,-2.2695 -1.8188,-3.9813 -4.2601,-3.9813 l -20.913,0 z"
         inkscape:connector-curvature="0"
         style="fill:#ffffff" />
      <path
         id="path5767"
         d="m 516.6,556.36 c -2.3098,0 -4.0549,1.7118 -4.0549,3.9813 l 0,39.358 c 0,2.259 1.7047,3.9602 3.9637,3.9602 l 31.364,0 c 2.4151,0 4.1602,-1.6697 4.1602,-3.9602 l 0,-1.0418 c 0,-2.2993 -1.7451,-3.9795 -4.1602,-3.9795 l -25.687,0 0,-10.02 18.822,0 c 2.4098,0 4.1602,-1.6907 4.1602,-3.9813 l 0,-1.04 c 0,-2.3011 -1.7504,-3.9707 -4.1602,-3.9707 l -18.822,0 0,-10.32 24.382,0 c 2.4063,0 4.1601,-1.6591 4.1601,-3.9707 l 0,-1.04 c 0,-2.3011 -1.7538,-3.9813 -4.1601,-3.9813 l -29.968,0 z"
         inkscape:connector-curvature="0"
         style="fill:#ffffff" />
      <g
         id="g5769"
         transform="matrix(1.7539,0,0,1.7539,-611.6,-134.13)"
         style="fill:#ffffff">
        <path
           id="path5771"
           d="m 491.25,404.37 c -2.241,0 -4.065,1.744 -4.065,3.894 l 0,8.461 c 0,2.184 1.765,3.963 3.929,3.963 l 5.473,0 c 2.164,0 3.929,-1.779 3.929,-3.963 l 0,-8.461 c 0,-2.149 -1.825,-3.894 -4.065,-3.894 l -5.201,0 z m -1.184,12.019 0,-7.726 c 0,-0.906 0.744,-1.647 1.654,-1.647 l 4.264,0 c 0.89,0 1.648,0.758 1.648,1.647 l 0,7.726 c 0,0.912 -0.738,1.653 -1.648,1.653 l -4.296,0 c -0.912,0 -1.622,-0.725 -1.622,-1.653 z"
           inkscape:connector-curvature="0"
           style="fill:#ffffff" />
        <path
           id="path5773"
           d="m 512.91,404.27 c -1.578,0 -2.768,0.564 -3.723,1.026 -0.582,0.279 -1.086,0.52 -1.477,0.52 -0.177,0 -0.328,-0.08 -0.408,-0.211 l -0.364,-0.696 c -0.091,-0.183 -0.456,-0.541 -0.907,-0.541 l -0.541,0 c -0.52,0 -0.936,0.467 -0.936,1.037 l 0,21.461 c 0,0.673 0.531,1.203 1.203,1.203 l 0.468,0 c 0.667,0 1.209,-0.536 1.209,-1.203 l 0,-7.121 c 0,-0.211 0.137,-0.439 0.276,-0.439 0.391,0 0.895,0.229 1.477,0.496 0.955,0.439 2.145,0.98 3.723,0.98 l 0.505,0 c 2.794,0 4.532,-1.597 4.532,-4.162 l 0,-8.192 c 0,-2.526 -1.775,-4.157 -4.532,-4.157 l -0.505,0 z m -5.475,11.952 0,-7.39 c 0,-1.021 0.798,-1.818 1.818,-1.818 l 3.997,0 c 1.021,0 1.818,0.798 1.818,1.818 l 0,7.39 c 0,1.003 -0.818,1.818 -1.818,1.818 l -3.997,0 c -1.001,0 -1.818,-0.815 -1.818,-1.818 z"
           inkscape:connector-curvature="0"
           style="fill:#ffffff" />
        <path
           id="path5775"
           d="m 526.04,404.37 c -2.241,0 -4.06,1.744 -4.06,3.894 l 0,8.398 c 0,2.178 1.768,4.025 3.854,4.025 l 5.647,0 c 0.698,0 1.203,-0.484 1.203,-1.141 l 0,-0.37 c 0,-0.661 -0.505,-1.135 -1.203,-1.135 l -4.639,0 c -1.3,0 -1.986,-0.639 -1.986,-1.854 l 0,-2.457 8.369,0 c 1.346,0 2.142,-0.821 2.142,-2.212 l 0,-3.256 c 0,-2.149 -1.822,-3.894 -4.054,-3.894 l -5.273,0 z m -1.183,4.265 c 0,-0.907 0.713,-1.619 1.621,-1.619 l 4.396,0 c 0.906,0 1.613,0.712 1.613,1.619 l 0,2.622 -7.631,0 c 10e-4,-0.342 10e-4,-2.622 10e-4,-2.622 z"
           inkscape:connector-curvature="0"
           style="fill:#ffffff" />
        <path
           id="path5777"
           d="m 547,404.27 c -1.573,0 -2.76,0.564 -3.718,1.021 -0.596,0.28 -1.105,0.525 -1.521,0.525 -0.183,0 -0.257,-0.023 -0.399,-0.269 l -0.331,-0.604 c -0.19,-0.382 -0.513,-0.575 -0.949,-0.575 l -0.465,0 c -0.562,0 -0.972,0.438 -0.972,1.037 l 0,14.077 c 0,0.667 0.527,1.203 1.206,1.203 l 0.465,0 c 0.667,0 1.211,-0.542 1.211,-1.203 l 0,-10.65 c 0,-0.998 0.815,-1.818 1.813,-1.818 l 3.999,0 c 1.001,0 1.816,0.82 1.816,1.818 l 0,10.65 c 0,0.667 0.53,1.203 1.203,1.203 l 0.47,0 c 0.667,0 1.209,-0.542 1.209,-1.203 l 0,-11.055 c 0,-2.526 -1.776,-4.157 -4.535,-4.157 l -0.502,0 z"
           inkscape:connector-curvature="0"
           style="fill:#ffffff" />
      </g>
      <g
         id="g5779"
         transform="matrix(1.7539,0,0,1.7539,-611.6,-134.13)"
         style="fill:#ffffff">
        <path
           id="path5781"
           d="m 667.46,415.23 c 1.218,0 2.188,0.99 2.188,2.229 0,1.257 -0.971,2.237 -2.198,2.237 -1.218,0 -2.208,-0.98 -2.208,-2.237 0,-1.238 0.99,-2.229 2.208,-2.229 l 0.01,0 z m -0.01,0.346 c -0.98,0 -1.782,0.842 -1.782,1.882 0,1.06 0.802,1.891 1.792,1.891 0.99,0.011 1.782,-0.831 1.782,-1.881 0,-1.05 -0.792,-1.892 -1.782,-1.892 l -0.01,0 z m -0.416,3.179 -0.396,0 0,-2.485 c 0.208,-0.03 0.406,-0.06 0.703,-0.06 0.377,0 0.624,0.079 0.772,0.188 0.149,0.108 0.229,0.276 0.229,0.515 0,0.326 -0.218,0.524 -0.485,0.604 l 0,0.021 c 0.218,0.039 0.366,0.237 0.416,0.604 0.06,0.387 0.118,0.535 0.158,0.614 l -0.416,0 c -0.06,-0.079 -0.119,-0.307 -0.168,-0.634 -0.06,-0.316 -0.218,-0.436 -0.535,-0.436 l -0.277,0 0,1.069 z m 0,-1.377 0.287,0 c 0.327,0 0.604,-0.118 0.604,-0.426 0,-0.218 -0.158,-0.436 -0.604,-0.436 -0.129,0 -0.218,0.01 -0.287,0.021 l 0,0.841 z"
           inkscape:connector-curvature="0"
           style="fill:#ffffff" />
      </g>
    </g>
    <text
       xml:space="preserve"
       style="font-style:normal;font-variant:normal;font-weight:normal;font-stretch:normal;line-height:0%;font-family:'Open Sans Pro';-inkscape-font-specification:'Open Sans Pro';letter-spacing:0px;word-spacing:0px;display:inline;fill:#ffffff;fill-opacity:1;stroke:none;stroke-width:1px;stroke-linecap:butt;stroke-linejoin:miter;stroke-opacity:1"
       x="957.59033"
       y="204.7789"
       id="text5802"><tspan
         sodipodi:role="line"
         id="tspan5804"
         x="957.59033"
         y="204.7789"
         style="font-style:normal;font-variant:normal;font-weight:300;font-stretch:normal;font-size:70px;line-height:1.25;font-family:'Source Sans Pro';-inkscape-font-specification:'Source Sans Pro Light';text-align:center;text-anchor:middle">openSUSE Conference 2022</tspan><tspan
         sodipodi:role="line"
         x="957.59033"
         y="292.2789"
         style="font-style:normal;font-variant:normal;font-weight:300;font-stretch:normal;font-size:70px;line-height:1.25;font-family:'Source Sans Pro';-inkscape-font-specification:'Source Sans Pro Light';text-align:center;text-anchor:middle"
         id="tspan11035">was brought to you by:</tspan></text>
    <g
       id="g3899"
       transform="matrix(0.76333759,0,0,0.76333759,1080.3691,388.43453)"
       style="fill:#ffffff;fill-opacity:1">
      <path
         id="path3901"
         d="m 294.407,7.95792 c 6.213,1.027 19.117,20.42198 17.554,56.04198 -4.3,2.287 -9.289,0.945 -12.547,0.894 -10.184,-2.682 -0.678,-29.555 -14.953,-39.546 C 263.79,10.8809 119.447,14.4069 45.5808,21.1209 13.592,24.0289 17.478,87.0639 16.8569,120.43 c -0.5169,27.768 0.4448,58.119 11.4189,88.93 9.4468,26.524 44.2989,17.409 75.9712,18.571 56.978,0 160.981,1.883 173.53,-3.125 9.092,-3.629 12.796,-16.972 14.709,-25.575 3.351,-15.069 -0.168,-25.607 11.822,-25.324 6.313,0.149 7.555,5.857 6.592,16.772 -1.001,11.346 -4.393,26.441 -9.128,44.005 -3.421,12.688 -27.012,10.129 -42.628,10.129 C 180.218,242.704 100.45,245.236 24.0554,243.125 1.9155,242.514 1.46946,137.911 0.285625,118.923 -1.10525,96.6069 2.51438,7.01993 21.3615,6.01993 35.3674,5.27692 113.628,0.0309143 159.959,0.0189209 205.016,0.00692749 252.988,1.11093 294.407,7.95792"
         style="fill:#ffffff;fill-opacity:1;stroke:none"
         inkscape:connector-curvature="0" />
      <path
         id="path3903"
         d="m 223.69,24.0759 c 5.487,15.616 -8.019,40.096 12.24,48.537 73.438,12.662 159.117,-14.772 221.582,23.635 16.882,16.4601 29.544,35.4531 37.563,55.7121 l 0,-9.285 c -9.285,-25.746 -28.278,-47.6931 -46.427,-70.0621 5.065,-6.753 10.974,1.266 16.038,3.376 18.571,23.213 37.563,46.8491 44.739,74.7051 1.265,1.688 3.798,5.065 5.908,2.11 l 2.955,-2.954 c -6.331,-29.966 -25.324,-54.4461 -41.362,-80.1921 7.175,-4.643 14.35,3.377 20.259,8.019 12.24,20.259 25.746,40.5181 30.388,64.1531 3.376,2.532 7.597,-2.11 9.285,-5.065 -2.532,-18.571 -8.864,-35.031 -16.461,-50.6471 1.266,-2.11 1.266,-5.065 4.221,-5.065 18.149,9.707 17.727,30.8111 24.057,47.2711 5.909,-0.422 8.863,-18.993 16.46,-8.019 2.532,6.753 -10.129,17.305 2.955,18.149 -6.331,30.388 -39.674,54.024 -68.796,60.777 -15.194,3.376 -35.453,8.018 -46.849,-3.798 2.11,-5.487 9.707,-6.331 15.194,-7.175 33.765,-1.266 65.842,-13.506 86.101,-40.518 l -0.844,-0.844 c -32.077,21.525 -71.75,42.206 -111.424,26.168 -3.376,-0.844 -5.065,-5.487 -2.954,-8.019 0.844,-2.532 -1.688,-3.798 -2.955,-4.221 -67.108,2.954 -137.596,-6.324 -202.593,4.227 -7.13,1.158 -7.934,7.746 -9.284,13.082 -3.414,13.511 5.21,32.647 -2.824,39.846 0,0 -5.936,1.741 -10.256,-0.177 -1.011,-5.609 -4.227,-37.144 2.948,-54.026 9.077,-21.357 89.954,-14.153 113.334,-14.626 42.722,-0.863 92.638,-2.254 132.734,0.701 -11.396,-11.396 -29.122,-11.818 -46.427,-11.396 -54.868,-0.844 -140.604,-0.559 -175.376,-2.466 -51.431,-2.822 -69.842,48.893 -102.341,82.658 l -15.194,0 c 20.259,-28.277 42.097,-60.522 70.062,-85.256 4.509,-3.988 7.645,-4.615 15.194,-6.752 21.025,-5.953 224.959,0.844 224.959,0.844 9.285,2.11 19.415,3.376 28.278,7.174 -5.065,-13.084 -21.525,-16.46 -34.609,-18.147 -73.017,-2.11 -146.877,-0.422 -218.628,-5.065 -19.415,-5.909 -29.544,-29.9661 -44.739,-44.7391 l -32.499,-41.362 16.46,0.844 c 21.103,24.479 35.575,54.506 62.887,73.8601 6.02,4.266 134.602,3.027 202.584,2.954 10.96,-0.012 33.77,7.175 48.542,15.195 2.532,-3.376 -1.688,-6.331 -4.221,-8.863 -30.811,-29.5441 -94.362,-20.3431 -117.328,-20.2641 -40.285,0.14 -88.233,8.522 -121.559,-12.235 -8.141,-5.071 -6.752,-35.875 -2.953,-52.758 l 10.973,0"
         style="fill:#ffffff;fill-opacity:1;stroke:none"
         inkscape:connector-curvature="0" />
      <path
         id="path3905"
         d="m 575.267,153.649 c -7.175,30.389 -29.544,57.822 -57.823,73.017 -17.727,3.799 -40.518,15.616 -54.868,-2.11 9.708,-8.863 27.434,-2.954 38.83,-10.13 29.544,-8.441 53.858,-34.474 68.796,-60.777 1.91,-1.321 3.195,-2.823 5.065,0"
         style="fill:#ffffff;fill-opacity:1;stroke:none"
         inkscape:connector-curvature="0" />
      <path
         id="path3907"
         d="m 584.142,179.84 c -5.065,26.168 -17.727,53.602 -44.739,66.686 -11.818,5.487 -30.388,11.818 -41.362,2.11 l 0,-4.221 c 41.784,1.688 62.887,-42.206 79.77,-71.75 4.643,-0.422 5.065,3.798 6.331,7.175"
         style="fill:#ffffff;fill-opacity:1;stroke:none"
         inkscape:connector-curvature="0" />
      <path
         id="path3909"
         d="m 611.567,280.265 c 19.879,4.224 39.249,-15.615 43.47,10.131 -16.883,8.863 -39.674,6.331 -57.4,1.266 -3.799,7.597 1.688,16.038 0,25.324 -2.532,24.902 -11.818,48.537 -33.765,63.731 -6.357,3.3 -7.677,5.247 -11.431,5.909 1.138,-5.702 1.527,-10.353 2.5,-13.899 4.346,-2.92 23.503,-15.22 24.125,-31.684 9.707,-34.609 -0.844,-68.796 -24.058,-94.12 l 15.194,-13.928 c 8.863,17.726 18.896,42.495 41.364,47.269"
         style="fill:#ffffff;fill-opacity:1;stroke:none"
         inkscape:connector-curvature="0" />
      <path
         id="path3911"
         d="m 542.769,257.054 c 24.479,47.271 1.688,102.561 -4.221,151.098 2.532,18.149 5.065,36.719 20.259,49.381 -1.688,4.221 0.844,14.772 -5.909,12.24 -21.525,-11.396 -28.7,-34.187 -28.278,-57.822 -0.844,-41.784 21.525,-75.127 16.038,-117.333 L 536.86,286.6 c -17.305,18.57 -36.719,41.784 -35.453,70.905 l -11.396,2.11 c -12.662,-40.518 31.655,-63.743 37.564,-100.04 0,0 9.707,-3.786 15.194,-2.521"
         style="fill:#ffffff;fill-opacity:1;stroke:none"
         inkscape:connector-curvature="0" />
    </g>
    <text
       xml:space="preserve"
       style="font-style:normal;font-variant:normal;font-weight:normal;font-stretch:normal;line-height:0%;font-family:'Courier 10 Pitch';-inkscape-font-specification:'Courier 10 Pitch';text-align:center;letter-spacing:0px;word-spacing:0px;text-anchor:middle;fill:#000000;fill-opacity:1;stroke:none"
       x="1195.7698"
       y="640.70959"
       id="text3926"><tspan
         sodipodi:role="line"
         id="tspan3928"
         x="1195.7698"
         y="640.70959"
         style="font-style:normal;font-variant:normal;font-weight:300;font-stretch:normal;font-size:40px;line-height:1.25;font-family:'Source Sans Pro';-inkscape-font-specification:'Source Sans Pro Light';text-align:center;text-anchor:middle;fill:#ffffff;fill-opacity:1">www.ccc.de</tspan></text>
  </g>
</svg>
