<?xml version="1.0" encoding="UTF-8" standalone="no"?>
<!-- Created with Inkscape (http://www.inkscape.org/) -->

<svg
   xmlns:dc="http://purl.org/dc/elements/1.1/"
   xmlns:cc="http://creativecommons.org/ns#"
   xmlns:rdf="http://www.w3.org/1999/02/22-rdf-syntax-ns#"
   xmlns:svg="http://www.w3.org/2000/svg"
   xmlns="http://www.w3.org/2000/svg"
   xmlns:sodipodi="http://sodipodi.sourceforge.net/DTD/sodipodi-0.dtd"
   xmlns:inkscape="http://www.inkscape.org/namespaces/inkscape"
   width="1920"
   height="1080"
   viewBox="0 0 1920 1080"
   id="svg2"
   version="1.1"
   inkscape:version="0.91 r13725"
   sodipodi:docname="pause.svg">
  <defs
     id="defs4">
    <filter
       style="color-interpolation-filters:sRGB;"
       y="-40%" height="180%"
       x="-40%" width="180%"
       inkscape:label="Drop Shadow"
       id="filter4447">
      <feFlood
         flood-opacity="0.1"
         flood-color="rgb(255,255,255)"
         result="flood"
         id="sleep-flood" />
      <feComposite
         in="flood"
         in2="SourceGraphic"
         operator="in"
         result="composite1"
         id="feComposite4451" />
      <feGaussianBlur
         in="composite1"
         stdDeviation="40"
         result="blur"
         id="feGaussianBlur4453" />
      <feOffset
         dx="0"
         dy="0"
         result="offset"
         id="feOffset4455" />
      <feComposite
         in="SourceGraphic"
         in2="offset"
         operator="over"
         result="composite2"
         id="feComposite4457" />
    </filter>
  </defs>
  <sodipodi:namedview
     id="base"
     pagecolor="#ffffff"
     bordercolor="#666666"
     borderopacity="1.0"
     inkscape:pageopacity="0"
     inkscape:pageshadow="2"
     inkscape:zoom="0.49497475"
     inkscape:cx="1776.594"
     inkscape:cy="313.93305"
     inkscape:document-units="px"
     inkscape:current-layer="layer-icons"
     showgrid="false"
     units="px"
     inkscape:window-width="1920"
     inkscape:window-height="1016"
     inkscape:window-x="0"
     inkscape:window-y="27"
     inkscape:window-maximized="1"
     showguides="true"
     inkscape:guide-bbox="true" />
  <metadata
     id="metadata7">
    <rdf:RDF>
      <cc:Work
         rdf:about="">
        <dc:format>image/svg+xml</dc:format>
        <dc:type
           rdf:resource="http://purl.org/dc/dcmitype/StillImage" />
        <dc:title />
      </cc:Work>
    </rdf:RDF>
  </metadata>
  <g
     inkscape:groupmode="layer"
     id="layer2"
     inkscape:label="Background"
     sodipodi:insensitive="true">
    <rect
       style="color:#000000;display:inline;overflow:visible;visibility:visible;opacity:1;fill:#1486cc;fill-opacity:1;fill-rule:nonzero;stroke:none;stroke-width:23.29999924;stroke-linecap:butt;stroke-linejoin:round;stroke-miterlimit:4;stroke-dasharray:none;stroke-dashoffset:0;stroke-opacity:1;marker:none;enable-background:accumulate"
       id="rect4162"
       width="1920"
       height="1080"
       x="0"
       y="0" />
  </g>
  <g
     inkscape:label="Icons"
     inkscape:groupmode="layer"
     id="layer-icons"
     transform="translate(0,27.637839)"
     style="display:inline">
    <g
       id="sleep"
       inkscape:label="#g4194">
      <g
         transform="translate(-165,238.57143)"
         id="sleep-inner">
        <path
           d="m 363.61614,205.17623 c 0,-10.968 8.891,-19.858 19.858,-19.858 10.967,0 19.858,8.891 19.858,19.858 0,10.967 -8.891,19.858 -19.858,19.858 -10.967,0 -19.858,-8.89 -19.858,-19.858 z"
           id="path12"
           style="fill:none;fill-opacity:1;stroke:#ffffff;stroke-width:37.36399841;stroke-linecap:round;stroke-opacity:1"
           inkscape:connector-curvature="0" />
        <line
           x1="452.92215"
           y1="241.75023"
           x2="770.66412"
           y2="241.75023"
           id="line10"
           style="fill:none;fill-opacity:1;stroke:#ffffff;stroke-width:50;stroke-linecap:round;stroke-opacity:1" />
        <polyline
           points="     264.811,-132.373 264.811,-42.348 -264.759,-42.348 -264.759,-132.373 -264.759,132.41    "
           id="polyline8"
           style="fill:none;fill-opacity:1;stroke:#ffffff;stroke-width:37.36399841;stroke-linecap:round;stroke-linejoin:round;stroke-opacity:1"
           transform="matrix(1,0,0,-1,567.83114,273.80923)" />
      </g>
    </g>
    <g
       id="g4428"
       style="filter:url(#filter4447)">
      <path
         d="m 832.90692,410.54575 0,203.63284 40.72656,0 0,-63.99889 52.36273,0 c 56.72629,0 87.27119,-30.54493 87.27119,-69.81698 0,-39.27204 -30.5449,-69.81697 -87.27119,-69.81697 l -93.08929,0 z m 93.08929,33.45397 c 27.63589,0 45.09013,17.45424 45.09013,36.363 0,18.90877 -17.45424,36.36301 -45.09013,36.36301 l -52.36273,0 0,-72.72601 52.36273,0 z"
         style="font-style:normal;font-variant:normal;font-weight:bold;font-stretch:normal;font-size:290.90405273px;line-height:559.99999046%;font-family:'Prosto Sans';-inkscape-font-specification:'Prosto Sans Bold';text-align:start;letter-spacing:0px;word-spacing:0px;writing-mode:lr-tb;text-anchor:start;fill:#ffffff;fill-opacity:1;stroke:none;stroke-width:1px;stroke-linecap:butt;stroke-linejoin:miter;stroke-opacity:1"
         id="path4413"
         inkscape:connector-curvature="0" />
      <path
         d="m 1148.9333,410.54575 -50.9082,0 -84.3622,203.63284 43.6356,0 15.9997,-40.72657 100.3619,0 15.9997,40.72657 43.6356,0 -84.3621,-203.63284 z m -26.1814,43.63561 1.4545,0 34.9085,84.36218 -71.2715,0 34.9085,-84.36218 z"
         style="font-style:normal;font-variant:normal;font-weight:bold;font-stretch:normal;font-size:290.90405273px;line-height:559.99999046%;font-family:'Prosto Sans';-inkscape-font-specification:'Prosto Sans Bold';text-align:start;letter-spacing:0px;word-spacing:0px;writing-mode:lr-tb;text-anchor:start;fill:#ffffff;fill-opacity:1;stroke:none;stroke-width:1px;stroke-linecap:butt;stroke-linejoin:miter;stroke-opacity:1"
         id="path4415"
         inkscape:connector-curvature="0" />
      <path
         d="m 1340.1663,619.99667 c 56.7263,0 93.0893,-36.36301 93.0893,-87.27122 l 0,-122.1797 -40.7266,0 0,122.1797 c 0,31.99945 -20.3632,52.36273 -52.3627,52.36273 -31.9994,0 -52.3627,-20.36328 -52.3627,-52.36273 l 0,-122.1797 -40.7266,0 0,122.1797 c 0,50.90821 36.363,87.27122 93.0893,87.27122 z"
         style="font-style:normal;font-variant:normal;font-weight:bold;font-stretch:normal;font-size:290.90405273px;line-height:559.99999046%;font-family:'Prosto Sans';-inkscape-font-specification:'Prosto Sans Bold';text-align:start;letter-spacing:0px;word-spacing:0px;writing-mode:lr-tb;text-anchor:start;fill:#ffffff;fill-opacity:1;stroke:none;stroke-width:1px;stroke-linecap:butt;stroke-linejoin:miter;stroke-opacity:1"
         id="path4417"
         inkscape:connector-curvature="0" />
      <path
         d="m 1553.9581,404.72767 c -50.9082,0 -79.9986,29.09041 -79.9986,58.18081 0,74.18053 114.9071,55.27177 114.9071,91.63478 0,15.99972 -15.9998,31.99944 -49.4537,31.99944 -33.1631,0 -56.7263,-21.8178 -56.7263,-21.8178 l -17.4543,27.63588 c 0,0 29.9631,27.63589 77.0896,27.63589 58.1808,0 88.7257,-30.54493 88.7257,-65.45341 0,-71.27149 -114.9071,-50.90821 -114.9071,-91.63478 0,-10.18164 13.0907,-23.27232 40.7266,-23.27232 30.5449,0 53.8173,17.45424 53.8173,17.45424 l 15.9997,-27.63588 c 0,0 -29.0904,-24.72685 -72.726,-24.72685 z"
         style="font-style:normal;font-variant:normal;font-weight:bold;font-stretch:normal;font-size:290.90405273px;line-height:559.99999046%;font-family:'Prosto Sans';-inkscape-font-specification:'Prosto Sans Bold';text-align:start;letter-spacing:0px;word-spacing:0px;writing-mode:lr-tb;text-anchor:start;fill:#ffffff;fill-opacity:1;stroke:none;stroke-width:1px;stroke-linecap:butt;stroke-linejoin:miter;stroke-opacity:1"
         id="path4419"
         inkscape:connector-curvature="0" />
      <path
         d="m 1664.1425,614.17859 165.8153,0 0,-33.45397 -125.0887,0 0,-50.90821 84.3622,0 0,-33.45396 -84.3622,0 0,-52.36273 122.1797,0 0,-33.45397 -162.9063,0 0,203.63284 z"
         style="font-style:normal;font-variant:normal;font-weight:bold;font-stretch:normal;font-size:290.90405273px;line-height:559.99999046%;font-family:'Prosto Sans';-inkscape-font-specification:'Prosto Sans Bold';text-align:start;letter-spacing:0px;word-spacing:0px;writing-mode:lr-tb;text-anchor:start;fill:#ffffff;fill-opacity:1;stroke:none;stroke-width:1px;stroke-linecap:butt;stroke-linejoin:miter;stroke-opacity:1"
         id="path4421"
         inkscape:connector-curvature="0" />
    </g>
  </g>
  <g
     inkscape:groupmode="layer"
     id="layer3"
     inkscape:label="Text"
     style="display:inline;" />
</svg>
