<?xml version="1.0" encoding="UTF-8" standalone="no"?>
<!-- Created with Inkscape (http://www.inkscape.org/) -->

<svg
   xmlns:dc="http://purl.org/dc/elements/1.1/"
   xmlns:cc="http://creativecommons.org/ns#"
   xmlns:rdf="http://www.w3.org/1999/02/22-rdf-syntax-ns#"
   xmlns:svg="http://www.w3.org/2000/svg"
   xmlns="http://www.w3.org/2000/svg"
   xmlns:xlink="http://www.w3.org/1999/xlink"
   xmlns:sodipodi="http://sodipodi.sourceforge.net/DTD/sodipodi-0.dtd"
   xmlns:inkscape="http://www.inkscape.org/namespaces/inkscape"
   width="1920"
   height="1080"
   id="svg2"
   version="1.1"
   inkscape:version="0.92.3 (2405546, 2018-03-11)"
   sodipodi:docname="outro.svg">
  <defs
     id="defs4">
    <linearGradient
       id="linearGradient3807">
      <stop
         style="stop-color:#ffffff;stop-opacity:0;"
         offset="0"
         id="stop3809" />
      <stop
         id="stop3815"
         offset="0.2"
         style="stop-color:#ffffff;stop-opacity:0.78431374;" />
      <stop
         style="stop-color:#ffffff;stop-opacity:0.78431374;"
         offset="1"
         id="stop3811" />
    </linearGradient>
    <linearGradient
       inkscape:collect="always"
       xlink:href="#linearGradient3807"
       id="linearGradient3813"
       x1="650"
       y1="595.07648"
       x2="1230"
       y2="595.07648"
       gradientUnits="userSpaceOnUse"
       gradientTransform="matrix(1,0,0,0.99744172,-74.949237,-22.857439)" />
    <linearGradient
       inkscape:collect="always"
       xlink:href="#linearGradient3807"
       id="linearGradient3819"
       x1="575.05078"
       y1="570.69666"
       x2="1155.0508"
       y2="570.69666"
       gradientUnits="userSpaceOnUse"
       spreadMethod="reflect" />
    <linearGradient
       inkscape:collect="always"
       xlink:href="#linearGradient3807-2"
       id="linearGradient3819-8"
       x1="575.05078"
       y1="570.69666"
       x2="1155.0508"
       y2="570.69666"
       gradientUnits="userSpaceOnUse"
       spreadMethod="reflect" />
    <linearGradient
       id="linearGradient3807-2">
      <stop
         style="stop-color:#ffffff;stop-opacity:0;"
         offset="0"
         id="stop3809-5" />
      <stop
         id="stop3815-1"
         offset="0.2"
         style="stop-color:#ffffff;stop-opacity:1;" />
      <stop
         style="stop-color:#ffffff;stop-opacity:1;"
         offset="1"
         id="stop3811-1" />
    </linearGradient>
    <linearGradient
       gradientTransform="matrix(2.3933139,0,0,1,-1291.5105,359.35582)"
       y2="570.69666"
       x2="1155.0508"
       y1="570.69666"
       x1="575.05078"
       spreadMethod="reflect"
       gradientUnits="userSpaceOnUse"
       id="linearGradient4017-1"
       xlink:href="#linearGradient3807-2-2"
       inkscape:collect="always" />
    <linearGradient
       id="linearGradient3807-2-2">
      <stop
         style="stop-color:#ffffff;stop-opacity:0;"
         offset="0"
         id="stop3809-5-5" />
      <stop
         id="stop3815-1-7"
         offset="0.2"
         style="stop-color:#ffffff;stop-opacity:1;" />
      <stop
         style="stop-color:#ffffff;stop-opacity:1;"
         offset="1"
         id="stop3811-1-0" />
    </linearGradient>
    <linearGradient
       y2="570.69666"
       x2="1155.0508"
       y1="570.69666"
       x1="575.05078"
       spreadMethod="reflect"
       gradientTransform="matrix(2.3933139,0,0,1,-842.013,2.87365)"
       gradientUnits="userSpaceOnUse"
       id="linearGradient4510"
       xlink:href="#linearGradient3807-2-2"
       inkscape:collect="always" />
    <filter
       id="filter4858"
       inkscape:label="Drop Shadow"
       width="1.2"
       color-interpolation-filters="sRGB">
      <feFlood
         id="feFlood4860"
         flood-opacity="0.29666666666666669"
         flood-color="rgb(255,255,255)"
         result="flood" />
      <feComposite
         id="feComposite4862"
         in2="SourceGraphic"
         in="flood"
         operator="in"
         result="composite1" />
      <feGaussianBlur
         id="feGaussianBlur4864"
         stdDeviation="2"
         result="blur" />
      <feOffset
         id="feOffset4866"
         dx="2"
         dy="2.2000000000000002"
         result="offset" />
      <feComposite
         id="feComposite4868"
         in2="offset"
         in="SourceGraphic"
         operator="over"
         result="composite2"
         dy="0" />
    </filter>
    <filter
       id="filter3207"
       inkscape:label="Invert"
       x="0"
       y="0"
       width="1"
       height="1"
       inkscape:menu="Color"
       inkscape:menu-tooltip="Invert colors"
       color-interpolation-filters="sRGB">
      <feColorMatrix
         id="feColorMatrix3209"
         type="saturate"
         values="1"
         result="fbSourceGraphic" />
      <feColorMatrix
         id="feColorMatrix3211"
         in="fbSourceGraphic"
         values="-1 0 0 0 1 0 -1 0 0 1 0 0 -1 0 1 0 0 0 1 0 " />
    </filter>
  </defs>
  <sodipodi:namedview
     id="base"
     pagecolor="#ffffff"
     bordercolor="#666666"
     borderopacity="1.0"
     inkscape:pageopacity="0.0"
     inkscape:pageshadow="2"
     inkscape:zoom="1.4"
     inkscape:cx="880.08199"
     inkscape:cy="341.27928"
     inkscape:document-units="px"
     inkscape:current-layer="layer1"
     showgrid="false"
     inkscape:window-width="1916"
     inkscape:window-height="1023"
     inkscape:window-x="0"
     inkscape:window-y="36"
     inkscape:window-maximized="0"
     showguides="true"
     inkscape:guide-bbox="true"
     inkscape:snap-global="true"
     inkscape:snap-bbox="true"
     inkscape:bbox-paths="true"
     inkscape:bbox-nodes="true"
     inkscape:snap-bbox-edge-midpoints="true"
     inkscape:snap-bbox-midpoints="true"
     inkscape:object-paths="false"
     inkscape:snap-to-guides="true">
    <sodipodi:guide
       orientation="0,1"
       position="0,0"
       id="guide3017"
       inkscape:locked="false" />
    <sodipodi:guide
       orientation="0,1"
       position="0,1080"
       id="guide3019"
       inkscape:locked="false" />
    <sodipodi:guide
       orientation="1,0"
       position="0,0"
       id="guide3021"
       inkscape:locked="false" />
    <sodipodi:guide
       orientation="1,0"
       position="1920,1337.442"
       id="guide3023"
       inkscape:locked="false" />
    <sodipodi:guide
       orientation="0,1"
       position="0,25"
       id="guide3025"
       inkscape:locked="false" />
    <sodipodi:guide
       orientation="0,1"
       position="0,1048"
       id="guide3027"
       inkscape:locked="false" />
    <sodipodi:guide
       orientation="1,0"
       position="32,0"
       id="guide3029"
       inkscape:locked="false" />
    <sodipodi:guide
       orientation="1,0"
       position="1888,0"
       id="guide3031"
       inkscape:locked="false" />
    <sodipodi:guide
       orientation="1,0"
       position="960,1080"
       id="guide3819"
       inkscape:locked="false" />
    <sodipodi:guide
       orientation="0,1"
       position="0,540"
       id="guide3821"
       inkscape:locked="false" />
  </sodipodi:namedview>
  <metadata
     id="metadata7">
    <rdf:RDF>
      <cc:Work
         rdf:about="">
        <dc:format>image/svg+xml</dc:format>
        <dc:type
           rdf:resource="http://purl.org/dc/dcmitype/StillImage" />
        <dc:title />
      </cc:Work>
    </rdf:RDF>
  </metadata>
  <g
     inkscape:label="Ebene 1"
     inkscape:groupmode="layer"
     id="layer1"
     transform="translate(0,27.63782)">
    <rect
       style="fill:#000000;fill-opacity:1;fill-rule:nonzero;stroke:none"
       id="rect3797"
       width="1920"
       height="1080"
       x="0"
       y="-27.637817" />
    <text
       xml:space="preserve"
       style="font-style:normal;font-variant:normal;font-weight:normal;font-stretch:normal;line-height:0%;font-family:'Courier 10 Pitch';-inkscape-font-specification:'Courier 10 Pitch';text-align:center;letter-spacing:0px;word-spacing:0px;text-anchor:middle;fill:#000000;fill-opacity:1;stroke:none"
       x="959.01093"
       y="916.61218"
       id="text3893"><tspan
         sodipodi:role="line"
         id="tspan3895"
         x="959.01093"
         y="916.61218"
         style="font-style:normal;font-variant:normal;font-weight:normal;font-stretch:normal;font-size:40px;line-height:1.25;font-family:'TeX Gyre Adventor';-inkscape-font-specification:'TeX Gyre Adventor';text-align:center;text-anchor:middle;fill:#a5a5a5;fill-opacity:1">More Recordings available on <tspan
   style="font-weight:bold;-inkscape-font-specification:'TeX Gyre Adventor Bold'"
   id="tspan3028">media.ccc.de</tspan></tspan></text>
    <g
       id="g3974"
       transform="translate(-17.645475,-114.3211)"
       style="filter:url(#filter3207)">
      <path
         sodipodi:nodetypes="sssssscssssssssssscssscsscsssssssscsssssssssssssssss"
         inkscape:connector-curvature="0"
         id="path3140"
         d="m 844.50095,634.53306 c 8.49609,-16.65371 8.79891,-20.16379 4.29367,-49.76793 -6.95799,-45.72111 -5.60472,-99.15766 3.32735,-131.38636 4.19658,-15.14216 14.75798,-53.26228 23.46975,-84.71137 23.9513,-86.46297 35.62204,-99.52722 95.47876,-106.87917 17.4718,-2.14599 39.86742,-4.89907 49.76802,-6.11797 9.9007,-1.2189 17.9731,-0.59475 17.939,1.38699 -0.034,1.98175 -9.8059,8.36818 -21.715,14.19209 -26.03694,12.73289 -51.94303,44.47211 -41.62519,50.99757 3.42217,2.16431 17.18171,3.96428 30.57669,3.99995 35.07,0.0934 32.9894,7.41758 -4.2356,14.90968 -7.57112,1.52378 -13.76558,3.68644 -13.76558,4.80588 0,1.11943 6.48963,10.53464 14.42148,20.92267 17.8704,23.40399 25.5433,53.44524 21.8673,85.61452 -1.5193,13.29614 -10.3229,54.80186 -19.5634,92.23497 -9.24046,37.4331 -17.26039,75.53573 -17.82203,84.67252 -0.97854,15.91873 2.53703,18.92775 16.74253,21.47471 8.1536,1.46186 -28.65612,0.70443 -78.20662,1.01108 l -90.09191,0.55757 z m 75.79233,7.26874 c 4.17638,-5.03224 10.90005,-5.84562 31.22647,-3.77756 l 25.90417,2.63554 18.34656,-76.29078 c 31.66682,-131.68059 31.64512,-159.14101 -0.15764,-198.52098 l -17.52797,-21.70425 -16.74649,5.90846 c -30.6207,10.80364 -42.94268,6.71196 -45.9833,-15.26937 -2.18916,-15.82601 -20.88649,-14.87624 -25.20746,1.28046 -2.6722,9.99172 -1.63921,12.45306 6.52984,15.55892 5.33731,2.02924 10.58802,6.21805 11.66825,9.30845 1.08022,3.09041 0.6642,36.11502 -0.92447,73.38802 -2.6665,62.56018 -4.10346,71.51299 -18.69519,116.47812 -8.69368,26.78996 -16.85947,59.66857 -18.1462,73.06355 l -2.33951,24.35451 23.36528,0 c 15.69868,0 25.11164,-2.10425 28.68766,-6.41309 z M 1110.8443,307.11805 c 0,-5.89738 -3.9072,-22.3209 -8.6827,-36.49669 -10.0333,-29.78321 -8.5287,-37.98026 2.097,-11.42425 7.59,18.96934 13.8773,58.64347 9.2935,58.64347 -1.4893,0 -2.7078,-4.82513 -2.7078,-10.72253 z m -73.82,-8.64006 c -1.5578,-6.20728 -2.0157,-12.10282 -1.0173,-13.10121 0.9984,-0.99838 3.0899,3.26344 4.6478,9.47073 1.558,6.20728 2.0157,12.10282 1.0173,13.1012 -0.9983,0.99838 -3.0899,-3.26344 -4.6478,-9.47072 z m 35.6998,0.57828 c 0,-5.67226 -2.0259,-15.67879 -4.502,-22.23674 -2.8238,-7.47868 -2.9143,-10.34461 -0.2429,-7.68797 5.9419,5.90894 13.2194,40.23789 8.5302,40.23789 -2.0819,0 -3.7853,-4.64094 -3.7853,-10.31318 z"
         style="fill:#000000" />
      <path
         inkscape:connector-curvature="0"
         id="path3936"
         d="m 839.75955,655.64272 275.77185,0"
         style="fill:none;stroke:#000000;stroke-width:10.86231995;stroke-linecap:round;stroke-linejoin:round;stroke-miterlimit:4;stroke-opacity:1;stroke-dasharray:none" />
    </g>
    <g
       id="layer1-6"
       inkscape:label="Layer 1"
       transform="translate(718.22268,586.44483)">
      <g
         inkscape:export-ydpi="300.23013"
         inkscape:export-xdpi="300.23013"
         inkscape:export-filename="/mnt/hgfs/Bov/Documents/Work/2007/cc/identity/srr buttons/big/by-nc.png"
         id="g325"
         transform="matrix(4.4686366,0,0,4.4682406,-827.66484,-635.08837)">
        <path
           style="fill:#aab2ab"
           d="m 182.23535,150.26416 114.06396,0.20264 c 1.59375,0 3.01758,-0.23633 3.01758,3.18018 l -0.13965,37.56689 H 179.35693 v -37.70605 c 0,-1.68507 0.16309,-3.24366 2.87842,-3.24366 z"
           nodetypes="ccccccc"
           id="path3817_3_"
           inkscape:connector-curvature="0" />
        <g
           transform="matrix(0.872921,0,0,0.872921,50.12536,143.2144)"
           id="g5908_3_">
          <path
             style="fill:#ffffff"
             d="m 187.20946,30.09433 c 0.006,8.68024 -7.02786,15.72153 -15.70808,15.72711 -8.68022,0.005 -15.72206,-7.02786 -15.7271,-15.70807 0,-0.0067 0,-0.01233 0,-0.01904 -0.005,-8.68076 7.02785,-15.72205 15.70808,-15.72708 8.68132,-0.005 15.72206,7.02786 15.7271,15.70807 0,0.0062 0,0.0123 0,0.01901 z"
             rx="22.939548"
             type="arc"
             cy="264.3577"
             ry="22.939548"
             cx="296.35416"
             id="path5906_3_"
             inkscape:connector-curvature="0" />
          <g
             transform="translate(-289.6157,99.0653)"
             id="g5706_3_">
            <path
               d="m 473.88458,-81.77313 c 3.48541,3.48538 5.22839,7.75336 5.22839,12.80215 0,5.04941 -1.71283,9.27203 -5.13837,12.66794 -3.63531,3.57602 -7.93176,5.36377 -12.88943,5.36377 -4.8978,0 -9.11987,-1.77264 -12.66513,-5.31958 -3.54581,-3.54526 -5.31842,-7.78299 -5.31842,-12.71213 0,-4.92856 1.77261,-9.19595 5.31842,-12.80215 3.4552,-3.48709 7.67728,-5.22952 12.66513,-5.22952 5.04825,-1e-5 9.314,1.74243 12.79941,5.22952 z m -23.11798,2.3443 c -2.94678,2.97638 -4.41956,6.46344 -4.41956,10.46234 0,3.99835 1.45825,7.45523 4.37421,10.37119 2.91656,2.91595 6.38852,4.37424 10.41705,4.37424 4.02856,0 7.53021,-1.47226 10.50659,-4.41898 2.82587,-2.73587 4.23938,-6.17706 4.23938,-10.32645 0,-4.11804 -1.43646,-7.61295 -4.30768,-10.48416 -2.87061,-2.87067 -6.34985,-4.30655 -10.43829,-4.30655 -4.08837,0 -7.54638,1.44314 -10.3717,4.32837 z m 7.75446,8.7037 c -0.45029,-0.98224 -1.12433,-1.47281 -2.02322,-1.47281 -1.58914,0 -2.38345,1.07007 -2.38345,3.20853 0,2.13956 0.79431,3.20908 2.38345,3.20908 1.04935,0 1.79892,-0.52078 2.24863,-1.56454 l 2.20279,1.17297 c -1.04993,1.86548 -2.62509,2.79849 -4.72549,2.79849 -1.61993,0 -2.91766,-0.4967 -3.89209,-1.48956 -0.97607,-0.99344 -1.46271,-2.36276 -1.46271,-4.108 0,-1.715 0.50229,-3.07706 1.50748,-4.08502 1.00516,-1.00854 2.25705,-1.51251 3.75781,-1.51251 2.22012,0 3.80984,0.87427 4.77081,2.62228 z m 10.36334,0 c -0.45087,-0.98224 -1.11145,-1.47281 -1.98236,-1.47281 -1.62109,0 -2.43213,1.07007 -2.43213,3.20853 0,2.13956 0.81104,3.20908 2.43213,3.20908 1.05103,0 1.78717,-0.52078 2.20721,-1.56454 l 2.25201,1.17297 c -1.04822,1.86548 -2.62115,2.79849 -4.71765,2.79849 -1.61774,0 -2.91266,-0.4967 -3.88647,-1.48956 -0.97217,-0.99344 -1.45941,-2.36276 -1.45941,-4.108 0,-1.715 0.49451,-3.07706 1.48291,-4.08502 0.98779,-1.00854 2.24524,-1.51251 3.77344,-1.51251 2.21619,0 3.80371,0.87427 4.76135,2.62228 z"
               id="path5708_3_"
               inkscape:connector-curvature="0" />
          </g>
        </g>
        <path
           id="path332"
           d="m 297.29639,149.82227 h -116.229 c -1.24658,0 -2.26123,1.01367 -2.26123,2.26025 v 39.49609 c 0,0.28174 0.229,0.51025 0.51074,0.51025 h 119.72949 c 0.28174,0 0.51074,-0.22852 0.51074,-0.51025 v -39.49609 c 0,-1.24658 -1.01416,-2.26025 -2.26074,-2.26025 z m -116.22901,1.0205 h 116.229 c 0.68359,0 1.23926,0.55615 1.23926,1.23975 0,0 0,15.88525 0,27.38135 h -83.07373 c -3.04492,5.50586 -8.91113,9.24365 -15.64355,9.24365 -6.73535,0 -12.6001,-3.73486 -15.64355,-9.24365 h -4.34717 c 0,-11.49609 0,-27.38135 0,-27.38135 0,-0.68359 0.55615,-1.23975 1.23974,-1.23975 z"
           inkscape:connector-curvature="0" />
        <g
           id="g334"
           enable-background="new    ">
          <path
             style="fill:#ffffff"
             id="path336"
             d="m 239.17822,182.77734 c 0.31787,0 0.60742,0.0283 0.86914,0.084 0.26172,0.0557 0.48633,0.14746 0.67383,0.27539 0.18652,0.12695 0.33203,0.29688 0.43457,0.50781 0.10254,0.21191 0.1543,0.47266 0.1543,0.78418 0,0.33594 -0.0762,0.61523 -0.22949,0.83887 -0.15234,0.22461 -0.37891,0.40723 -0.67773,0.55078 0.41211,0.11816 0.71973,0.3252 0.92285,0.62109 0.20312,0.29589 0.30469,0.65234 0.30469,1.06934 0,0.33594 -0.0654,0.62695 -0.19629,0.87305 -0.13086,0.24512 -0.30762,0.44629 -0.52832,0.60156 -0.22168,0.15625 -0.47461,0.27148 -0.75781,0.3457 -0.28418,0.0752 -0.5752,0.1123 -0.875,0.1123 h -3.23633 v -6.66406 h 3.14159 z m -0.18701,2.69532 c 0.26123,0 0.47656,-0.0625 0.64502,-0.18652 0.16797,-0.12402 0.25195,-0.3252 0.25195,-0.60449 0,-0.15527 -0.0283,-0.2832 -0.084,-0.38184 -0.0566,-0.0996 -0.13086,-0.17676 -0.22461,-0.2334 -0.0933,-0.0557 -0.20068,-0.0947 -0.32227,-0.11621 -0.12159,-0.0215 -0.24756,-0.0322 -0.37842,-0.0322 h -1.37354 v 1.55469 z m 0.0855,2.82812 c 0.14355,0 0.28027,-0.0137 0.41162,-0.042 0.13037,-0.0283 0.24658,-0.0752 0.34619,-0.13965 0.0996,-0.0654 0.17871,-0.1543 0.23828,-0.2666 0.0596,-0.11133 0.0889,-0.25488 0.0889,-0.42871 0,-0.3418 -0.0967,-0.58594 -0.29004,-0.73242 -0.19336,-0.14551 -0.44873,-0.21875 -0.7666,-0.21875 h -1.59961 v 1.82812 h 1.57129 z"
             inkscape:connector-curvature="0" />
          <path
             style="fill:#ffffff"
             id="path338"
             d="m 241.88916,182.77734 h 1.64355 l 1.56055,2.63184 1.55078,-2.63184 h 1.63379 l -2.47363,4.10645 v 2.55762 h -1.46875 v -2.59473 z"
             inkscape:connector-curvature="0" />
        </g>
        <g
           id="g340"
           enable-background="new    ">
          <path
             style="fill:#ffffff"
             id="path342"
             d="m 265.78076,182.77734 2.78418,4.4707 h 0.0156 v -4.4707 h 1.375 v 6.66406 h -1.46582 l -2.77344,-4.46191 h -0.0186 v 4.46191 h -1.375 v -6.66406 z"
             inkscape:connector-curvature="0" />
          <path
             style="fill:#ffffff"
             id="path344"
             d="m 275.51904,184.55273 c -0.0869,-0.14062 -0.19629,-0.26367 -0.32715,-0.36914 -0.13086,-0.10547 -0.27832,-0.18848 -0.44336,-0.24707 -0.16504,-0.0596 -0.33789,-0.0889 -0.51758,-0.0889 -0.33008,0 -0.61035,0.0635 -0.84082,0.19141 -0.23047,0.12695 -0.41699,0.29785 -0.55957,0.5127 -0.14355,0.21484 -0.24805,0.45898 -0.31348,0.73242 -0.0654,0.27344 -0.0977,0.55664 -0.0977,0.84863 0,0.28027 0.0322,0.55273 0.0977,0.81641 0.0654,0.26465 0.16992,0.50293 0.31348,0.71387 0.14258,0.21191 0.3291,0.38086 0.55957,0.50879 0.23047,0.12793 0.51074,0.19141 0.84082,0.19141 0.44727,0 0.79785,-0.13672 1.0498,-0.41113 0.25195,-0.27344 0.40625,-0.63477 0.46191,-1.08301 h 1.41895 c -0.0371,0.41699 -0.13379,0.79395 -0.28906,1.12988 -0.15527,0.33691 -0.36133,0.62305 -0.61621,0.86035 -0.25488,0.2373 -0.55371,0.41797 -0.89648,0.54297 -0.3418,0.125 -0.71875,0.1875 -1.12891,0.1875 -0.51074,0 -0.96973,-0.0889 -1.37793,-0.2666 -0.40723,-0.17676 -0.75195,-0.42188 -1.03223,-0.73242 -0.28125,-0.31152 -0.49609,-0.67773 -0.64551,-1.09766 -0.14941,-0.4209 -0.22461,-0.87305 -0.22461,-1.35938 0,-0.49805 0.0752,-0.95996 0.22461,-1.38672 0.14941,-0.42676 0.36426,-0.79883 0.64551,-1.11621 0.28027,-0.31738 0.625,-0.56641 1.03223,-0.74707 0.4082,-0.18066 0.86719,-0.27051 1.37793,-0.27051 0.36719,0 0.71387,0.0527 1.04102,0.15918 0.32617,0.10547 0.61914,0.25977 0.87695,0.46289 0.25879,0.20215 0.47168,0.45312 0.63965,0.75195 0.16797,0.29883 0.27344,0.6416 0.31738,1.02734 H 275.687 c -0.0244,-0.16796 -0.081,-0.32226 -0.16796,-0.46191 z"
             inkscape:connector-curvature="0" />
        </g>
        <g
           transform="matrix(1.146822,0,0,1.146822,457.9375,166.153)"
           id="g6379_1_">
          <path
             style="fill:#ffffff"
             d="m -154.14499,-1.09436 c 0.003,4.82693 -3.90601,8.74188 -8.73337,8.7457 -4.82652,0.00299 -8.7419,-3.90686 -8.7453,-8.73294 0,-0.0051 0,-0.00894 0,-0.01276 -0.003,-4.82739 3.90601,-8.74234 8.73251,-8.74615 4.82739,-0.00299 8.74277,3.90686 8.74615,8.73294 1e-5,0.00427 1e-5,0.00894 1e-5,0.01321 z"
             rx="29.209877"
             type="arc"
             cy="252.08646"
             ry="29.209877"
             cx="475.97119"
             id="path6381_1_"
             inkscape:connector-curvature="0" />
          <path
             d="m -162.89709,-11.26941 c 2.85181,0 5.26337,0.98352 7.23297,2.95016 1.9696,1.96747 2.95483,4.37604 2.95483,7.22488 0,2.84882 -0.9682,5.23141 -2.90375,7.14822 -2.05475,2.01813 -4.48248,3.02637 -7.28406,3.02637 -2.76834,0 -5.1535,-1.00055 -7.15718,-3.00168 -2.00366,-2.00027 -3.00507,-4.39182 -3.00507,-7.17291 0,-2.78156 1.0014,-5.19012 3.00507,-7.22488 1.95258,-1.96664 4.3386,-2.95016 7.15719,-2.95016 z m -7.87333,7.44116 c -0.30315,0.8588 -0.45471,1.76993 -0.45471,2.73389 0,2.25528 0.82259,4.2049 2.46945,5.85046 1.64688,1.64435 3.60797,2.46735 5.88412,2.46735 2.27533,0 4.25259,-0.83069 5.93353,-2.49332 0.56287,-0.54327 1.02695,-1.13678 1.39056,-1.77969 l -3.83618,-1.70776 c -0.25974,1.2905 -1.4093,2.16205 -2.79987,2.26422 v 1.56897 h -1.1683 V 3.5069 c -1.14192,-0.01276 -2.24551,-0.47983 -3.08853,-1.21811 l 1.40077,-1.41312 c 0.67528,0.63522 1.35054,0.9205 2.2719,0.9205 0.59695,0 1.25858,-0.23376 1.25858,-1.01163 0,-0.27548 -0.1073,-0.46707 -0.27502,-0.61099 l -0.96991,-0.43256 -1.20834,-0.53732 c -0.59692,-0.26654 -1.10274,-0.49094 -1.6111,-0.71744 z m 7.89887,-5.60992 c -2.30937,0 -4.26195,0.81366 -5.85773,2.4422 -0.43513,0.43857 -0.81236,0.89667 -1.13425,1.37439 l 3.89067,1.73203 c 0.35085,-1.07932 1.3761,-1.73416 2.62105,-1.80652 v -1.56897 h 1.1683 v 1.56897 c 0.80469,0.03873 1.68689,0.25928 2.5563,0.93286 l -1.33691,1.37436 c -0.49304,-0.34955 -1.11551,-0.59607 -1.73883,-0.59607 -0.5058,0 -1.21941,0.155 -1.21941,0.78979 0,0.0975 0.0315,0.18268 0.0911,0.25845 l 1.30113,0.57904 0.88049,0.39258 c 0.56287,0.25162 1.10104,0.49005 1.63409,0.72763 l 5.21313,2.32086 c 0.17285,-0.6825 0.25885,-1.40887 0.25885,-2.1778 0,-2.32428 -0.81491,-4.2905 -2.44476,-5.90161 -1.61363,-1.62853 -3.57472,-2.44219 -5.88325,-2.44219 z"
             id="path6383_1_"
             inkscape:connector-curvature="0" />
        </g>
        <g
           id="g349">
          <circle
             style="fill:#ffffff"
             id="circle351"
             r="10.8064"
             cy="165.13574"
             cx="242.56226" />
          <g
             id="g353">
            <path
               id="path355"
               d="m 245.68994,162.00928 c 0,-0.4165 -0.33789,-0.75391 -0.75391,-0.75391 h -4.77246 c -0.41602,0 -0.75391,0.3374 -0.75391,0.75391 v 4.77295 h 1.33105 v 5.65186 h 3.61719 v -5.65186 h 1.33203 v -4.77295 z"
               inkscape:connector-curvature="0" />
            <circle
               id="circle357"
               r="1.63232"
               cy="158.99463"
               cx="242.5498" />
          </g>
          <path
             style="clip-rule:evenodd;fill-rule:evenodd"
             id="path359"
             d="m 242.53467,153.22949 c -3.23145,0 -5.96826,1.12744 -8.20752,3.38379 -2.29785,2.3335 -3.44629,5.0957 -3.44629,8.28467 0,3.18897 1.14844,5.93164 3.44629,8.22656 2.29785,2.29443 5.03418,3.44189 8.20752,3.44189 3.21289,0 5.99805,-1.15625 8.35352,-3.47119 2.2207,-2.19727 3.33008,-4.92969 3.33008,-8.19727 0,-3.26758 -1.12891,-6.02881 -3.3877,-8.28467 -2.25879,-2.25634 -5.02442,-3.38378 -8.2959,-3.38378 z m 0.0293,2.09961 c 2.64844,0 4.89746,0.93408 6.74707,2.80078 1.87012,1.84766 2.80469,4.10352 2.80469,6.76807 0,2.68359 -0.91504,4.91064 -2.74609,6.68018 -1.92773,1.90625 -4.19629,2.85889 -6.80566,2.85889 -2.60937,0 -4.8584,-0.94336 -6.74658,-2.82959 -1.88965,-1.88672 -2.8335,-4.12305 -2.8335,-6.70947 0,-2.58691 0.9541,-4.84277 2.8623,-6.76807 1.83057,-1.86671 4.07031,-2.80079 6.71777,-2.80079 z"
             inkscape:connector-curvature="0" />
        </g>
      </g>
    </g>
  </g>
</svg>
