<?xml version="1.0" encoding="UTF-8" standalone="no"?>
<!-- Generator: Adobe Illustrator 18.1.1, SVG Export Plug-In . SVG Version: 6.00 Build 0)  -->

<svg
   xmlns:dc="http://purl.org/dc/elements/1.1/"
   xmlns:cc="http://creativecommons.org/ns#"
   xmlns:rdf="http://www.w3.org/1999/02/22-rdf-syntax-ns#"
   xmlns:svg="http://www.w3.org/2000/svg"
   xmlns="http://www.w3.org/2000/svg"
   xmlns:xlink="http://www.w3.org/1999/xlink"
   xmlns:sodipodi="http://sodipodi.sourceforge.net/DTD/sodipodi-0.dtd"
   xmlns:inkscape="http://www.inkscape.org/namespaces/inkscape"
   version="1.1"
   id="Layer_1"
   x="0px"
   y="0px"
   viewBox="0 0 1920 1080"
   enable-background="new 0 0 1920 1080"
   xml:space="preserve"
   inkscape:version="0.91 r13725"
   width="100%"
   height="100%"
   sodipodi:docname="pause.svg"><metadata
     id="metadata113"><rdf:RDF><cc:Work
         rdf:about=""><dc:format>image/svg+xml</dc:format><dc:type
           rdf:resource="http://purl.org/dc/dcmitype/StillImage" /><dc:title></dc:title></cc:Work></rdf:RDF></metadata><defs
     id="defs111" /><sodipodi:namedview
     pagecolor="#ffffff"
     bordercolor="#666666"
     borderopacity="1"
     objecttolerance="10"
     gridtolerance="10"
     guidetolerance="10"
     inkscape:pageopacity="0"
     inkscape:pageshadow="2"
     inkscape:window-width="1232"
     inkscape:window-height="756"
     id="namedview109"
     showgrid="false"
     inkscape:zoom="0.40625"
     inkscape:cx="960"
     inkscape:cy="540"
     inkscape:window-x="48"
     inkscape:window-y="0"
     inkscape:window-maximized="1"
     inkscape:current-layer="Layer_1"
     showguides="true"
     inkscape:guide-bbox="true"><sodipodi:guide
       orientation="1,0"
       position="172.67327,484.75248"
       id="guide3012" /></sodipodi:namedview><g
     id="g3"><defs
       id="defs5"><rect
         id="SVGID_1_"
         width="1920"
         height="1080" /></defs><clipPath
       id="SVGID_2_"><use
         xlink:href="#SVGID_1_"
         overflow="visible"
         id="use9" /></clipPath><path
       clip-path="url(#SVGID_2_)"
       fill="#1EC290"
       d="M466.4,434.7c-1.2,0.2-2.6,0.3-4.2,0.3H450c-1.5,0-3,0.6-4.2,1.9   c-1.2,1.3-1.9,2.7-1.9,4.2v12.2c0,1.5,0.6,2.9,1.9,4.2c1.3,1.3,2.7,1.9,4.2,1.9h6.1c3,0,5.8,1.3,8.4,3.9c2.6,2.6,3.9,5.4,3.9,8.4   c0,3.1-1.3,5.9-3.9,8.4c-2.5,2.5-5.3,3.8-8.4,3.8h-18.3c-1.5,0-3-0.1-4.2-0.3c-1.2-0.3-1.9-1.2-1.9-2.7c0-1.5,0.6-2.4,1.9-2.7   c1.2-0.3,2.6-0.4,4.2-0.4H450c1.5,0,2.9-0.6,4.2-1.9c1.3-1.3,1.9-2.7,1.9-4.2c0-1.5-0.6-2.9-1.9-4.2c-1.3-1.3-2.7-1.9-4.2-1.9   h-12.2c-1.5,0-3-0.6-4.2-1.9c-1.2-1.3-1.9-2.7-1.9-4.2v-24.5c0-1.5,0.6-2.9,1.9-4.2c1.3-1.3,2.7-1.9,4.2-1.9h24.5   c1.6,0,3,0.1,4.2,0.4c1.3,0.3,1.9,1.1,1.9,2.7C468.3,433.6,467.7,434.5,466.4,434.7 M423.3,482.1c-1.2,1.2-2.6,1.9-4.2,1.9   c-1.5,0-3-0.6-4.2-1.9c-1.2-1.3-1.9-2.7-1.9-4.2v-24.5c0-1.6-0.6-2.9-1.9-4.2c-1.3-1.3-2.7-1.9-4.2-1.9h-6.1c-1.6,0-3-0.1-4.2-0.3   c-1.2-0.3-1.9-1.2-1.9-2.7c0-1.5,0.6-2.4,1.9-2.7c1.2-0.3,2.6-0.4,4.2-0.4c2.3,0,3.9-0.6,4.8-1.9c0.9-1.3,1.7-2.7,2.4-4.2   c0.8-1.5,1.9-2.9,3.4-4.2c1.5-1.3,4.1-1.9,7.8-1.9c1.6,0,2.9,0.6,4.2,1.9c1.3,1.3,1.9,2.7,1.9,4.2v42.8   C425.2,479.4,424.5,480.9,423.3,482.1 M375.6,453.4c-2,2.6-4.1,5.6-6.1,9.2c-2,3.6-4.1,6.6-6.1,9.2c0,1.5,0.6,3,1.9,4.2   c1.3,1.2,2.7,1.9,4.2,1.9c1.5,0,2.9-0.6,4.2-1.9c1.3-1.3,1.9-2.7,1.9-4.2V453.4z M373.7,437c-1.3-1.3-2.7-1.9-4.2-1.9   c-1.5,0-3,0.6-4.2,1.9c-1.2,1.3-1.9,2.7-1.9,4.2v18.3l12.2-18.3C375.6,439.7,375,438.3,373.7,437 M384,480.2   c-2.5,2.5-5.3,3.8-8.4,3.8h-12.2c-3.1,0-5.9-1.3-8.4-3.8c-2.5-2.5-3.8-5.3-3.8-8.4v-30.6c0-3.1,1.3-5.9,3.8-8.4   c2.6-2.6,5.4-3.9,8.4-3.9h12.2c3,0,5.8,1.3,8.4,3.9c2.6,2.6,3.9,5.4,3.9,8.4v30.6C387.8,474.8,386.5,477.6,384,480.2 M341,447.7   c-1.1,0.9-2.3,1.8-3.5,2.7c-1.2,0.9-2.5,2-3.8,3.1c-2.7,2.2-5.2,4.9-7.4,8.1c-2.2,3.2-3.3,7.7-3.3,13.3c0,1.5,0.6,2.5,1.9,2.7   c1.3,0.2,2.7,0.3,4.2,0.3h9.2c1.6,0,3,0.1,4.2,0.4c1.3,0.3,1.9,1.1,1.9,2.7c0,1.5-0.6,2.5-1.9,2.7c-1.2,0.2-2.6,0.3-4.2,0.3h-24.5   c-1.5,0-3-0.6-4.2-1.9c-1.2-1.3-1.9-2.7-1.9-4.2c0-2,1.8-5.4,5.4-10.1c1.8-2.4,3.6-4.8,5.3-7.1c1.7-2.4,3.5-4.8,5.2-7.2   c3.4-4.8,5.8-9.1,7.1-12.8c1.4-3.7-0.2-5.6-4.7-5.6c-1.5,0-3,0.6-4.2,1.9c-1.2,1.3-1.9,2.7-1.9,4.2c0,1.5-0.6,3-1.9,4.2   c-1.3,1.2-2.7,1.9-4.2,1.9c-1.5,0-3-0.6-4.2-1.9c-1.2-1.3-1.9-2.7-1.9-4.2c0-3.1,1.3-5.9,3.8-8.4c2.6-2.6,5.4-3.9,8.4-3.9h12.2   c3,0,5.8,1.3,8.4,3.9c2.6,2.6,3.8,5.4,3.8,8.4C344.3,443.8,343.2,445.9,341,447.7 M586.7,392.6c-0.4-0.1-0.7-0.2-1.1-0.3   c-0.4-0.1-0.7-0.2-1-0.3c-0.6-0.2-1-0.9-1-2.2c0-1.5,0.6-2.4,1.9-2.7c1.2-0.3,2.6-0.4,4.2-0.4h6.1c1.5,0,2.9,0.6,4.2,1.9   c1.3,1.3,1.9,2.7,1.9,4.2v12.2c0,1.5-0.6,3-1.9,4.2c-1.2,1.2-2.6,1.9-4.2,1.9h-18.3c-3.1,0-5.9-1.3-8.4-3.8   c-2.5-2.5-3.8-5.3-3.8-8.4v-30.6c0-3.1,1.3-5.9,3.8-8.4c2.6-2.6,5.4-3.9,8.4-3.9h12.2c3,0,5.8,1.3,8.4,3.9c2.6,2.6,3.9,5.4,3.9,8.4   c0,1.5-0.6,3-1.9,4.2c-1.2,1.2-2.6,1.9-4.2,1.9c-1.5,0-2.9-0.6-4.2-1.9c-1.3-1.3-1.9-2.7-1.9-4.2c0-1.5-0.6-2.9-1.9-4.2   c-1.3-1.3-2.7-1.9-4.2-1.9c-1.5,0-3,0.6-4.2,1.9c-1.2,1.3-1.9,2.7-1.9,4.2V399c0,1.5,0.6,3,1.9,4.2c1.3,1.2,2.7,1.9,4.2,1.9   c1.5,0,2.9-0.6,4.2-1.9c1.3-1.3,1.9-2.7,1.9-4.2c0-2.5-0.3-4.2-1-5C588.2,393.2,587.5,392.8,586.7,392.6 M543.2,392.6   c-0.4-0.1-0.7-0.2-1.1-0.3c-0.4-0.1-0.7-0.2-1-0.3c-0.6-0.2-1-0.9-1-2.2c0-1.5,0.6-2.4,1.9-2.7c1.2-0.3,2.6-0.4,4.2-0.4h6.1   c1.5,0,2.9,0.6,4.2,1.9c1.3,1.3,1.9,2.7,1.9,4.2v12.2c0,1.5-0.6,3-1.9,4.2c-1.2,1.2-2.6,1.9-4.2,1.9h-18.3c-3.1,0-5.9-1.3-8.4-3.8   c-2.5-2.5-3.8-5.3-3.8-8.4v-30.6c0-3.1,1.3-5.9,3.8-8.4c2.6-2.6,5.4-3.9,8.4-3.9h12.2c3,0,5.8,1.3,8.4,3.9c2.6,2.6,3.9,5.4,3.9,8.4   c0,1.5-0.6,3-1.9,4.2c-1.2,1.2-2.6,1.9-4.2,1.9c-1.5,0-2.9-0.6-4.2-1.9c-1.3-1.3-1.9-2.7-1.9-4.2c0-1.5-0.6-2.9-1.9-4.2   c-1.3-1.3-2.7-1.9-4.2-1.9c-1.5,0-3,0.6-4.2,1.9c-1.2,1.3-1.9,2.7-1.9,4.2V399c0,1.5,0.6,3,1.9,4.2c1.3,1.2,2.7,1.9,4.2,1.9   c1.5,0,2.9-0.6,4.2-1.9c1.3-1.3,1.9-2.7,1.9-4.2c0-2.5-0.3-4.2-1-5C544.7,393.2,544,392.8,543.2,392.6 M513.1,362   c-1.2,0.2-2.6,0.3-4.2,0.3h-12.2c-1.5,0-3,0.6-4.2,1.9c-1.2,1.3-1.9,2.7-1.9,4.2v3.1v3c0,1.5,0.6,3,1.9,4.2   c1.3,1.2,2.7,1.9,4.2,1.9h6.1c1.6,0,3,0.1,4.2,0.4c1.3,0.3,1.9,1.2,1.9,2.7c0,1.6-0.6,2.5-1.9,2.7c-1.2,0.2-2.6,0.3-4.2,0.3h-6.1   c-1.5,0-3,0.6-4.2,1.9c-1.2,1.3-1.9,2.7-1.9,4.2v6.1c0,1.5,0.6,3,1.9,4.2c1.3,1.2,2.7,1.9,4.2,1.9h12.2c1.6,0,3,0.1,4.2,0.4   c1.3,0.3,1.9,1.1,1.9,2.7c0,1.5-0.6,2.5-1.9,2.7c-1.2,0.2-2.6,0.3-4.2,0.3h-24.5c-1.5,0-3-0.6-4.2-1.9c-1.2-1.3-1.9-2.7-1.9-4.2   v-42.8c0-1.5,0.6-2.9,1.9-4.2c1.3-1.3,2.7-1.9,4.2-1.9h24.5c1.6,0,3,0.1,4.2,0.4c1.3,0.3,1.9,1.1,1.9,2.7   C515,360.8,514.4,361.7,513.1,362 M469.6,409.4c-1.2,1.2-2.6,1.9-4.2,1.9c-1.5,0-2.9-0.6-4.2-1.9c-1.3-1.3-1.9-2.7-1.9-4.2v-12.2   c0-1.5-0.6-2.9-1.9-4.2c-1.3-1.3-2.7-1.9-4.2-1.9c-1.6,0-3,0.6-4.2,1.9c-1.2,1.3-1.9,2.7-1.9,4.2v12.2c0,1.5-0.6,3-1.9,4.2   c-1.3,1.2-2.7,1.9-4.2,1.9c-1.5,0-3-0.6-4.2-1.9c-1.2-1.3-1.9-2.7-1.9-4.2v-42.8c0-1.5,0.6-2.9,1.9-4.2c1.3-1.3,2.7-1.9,4.2-1.9   c1.5,0,2.9,0.6,4.2,1.9c1.3,1.3,1.9,2.7,1.9,4.2v12.2c0,1.5,0.6,3,1.9,4.2c1.3,1.2,2.7,1.9,4.2,1.9c1.5,0,2.9-0.6,4.2-1.9   c1.3-1.3,1.9-2.7,1.9-4.2v-12.2c0-1.5,0.6-2.9,1.9-4.2c1.3-1.3,2.7-1.9,4.2-1.9c1.5,0,2.9,0.6,4.2,1.9c1.3,1.3,1.9,2.7,1.9,4.2   v42.8C471.6,406.7,470.9,408.1,469.6,409.4 M415.9,368.4c0-1.5-0.6-2.9-1.9-4.2c-1.3-1.3-2.7-1.9-4.2-1.9c-1.5,0-3,0.6-4.2,1.9   c-1.2,1.3-1.9,2.7-1.9,4.2v6.1c0,1.5,0.6,3,1.9,4.2c1.3,1.2,2.7,1.9,4.2,1.9c1.5,0,2.9-0.6,4.2-1.9c1.3-1.3,1.9-2.7,1.9-4.2V368.4z    M425,381.1c-0.8,1.5-1.5,3-2.1,4.4c-0.6,1.4-1,2.8-1,4.4c0,1.2,0.2,2.3,0.5,3.1c0.3,0.8,0.7,1.5,1.1,2.2c0.5,0.6,0.9,1.2,1.5,1.8   c0.5,0.6,1,1.2,1.5,1.9c0.5,0.7,0.8,1.6,1.1,2.6c0.3,1,0.5,2.2,0.5,3.7c0,1.5-0.6,3-1.9,4.2c-1.2,1.2-2.6,1.9-4.2,1.9   c-1.5,0-2.9-0.6-4.2-1.9c-1.3-1.3-1.9-2.7-1.9-4.2c0-0.8-0.3-2.1-1-4.1c-0.3-1-0.7-2-1.1-3c-0.4-1-0.8-2.1-1.3-3.1   c-0.5-1.1-1-2-1.5-3c-0.5-0.9-1-1.8-1.5-2.6c-1.1-1.6-2-2.4-2.7-2.4c-1.5,0-2.5,0.6-2.7,1.9c-0.2,1.3-0.3,2.7-0.3,4.2v12.2   c0,1.5-0.6,3-1.9,4.2c-1.3,1.2-2.7,1.9-4.2,1.9c-1.5,0-3-0.6-4.2-1.9c-1.2-1.3-1.9-2.7-1.9-4.2v-42.8c0-1.5,0.6-2.9,1.9-4.2   c1.3-1.3,2.7-1.9,4.2-1.9h18.3c3,0,5.8,1.3,8.4,3.9c2.6,2.6,3.9,5.4,3.9,8.4c0,2.9-0.3,5.4-1,7.3   C426.5,377.8,425.8,379.5,425,381.1 M382.7,362c-1.2,0.2-2.6,0.3-4.2,0.3h-12.2c-1.5,0-3,0.6-4.2,1.9c-1.2,1.3-1.9,2.7-1.9,4.2v3.1   v3c0,1.5,0.6,3,1.9,4.2c1.3,1.2,2.7,1.9,4.2,1.9h6.1c1.6,0,3,0.1,4.2,0.4c1.3,0.3,1.9,1.2,1.9,2.7c0,1.6-0.6,2.5-1.9,2.7   c-1.2,0.2-2.6,0.3-4.2,0.3h-6.1c-1.5,0-3,0.6-4.2,1.9c-1.2,1.3-1.9,2.7-1.9,4.2v6.1c0,1.5,0.6,3,1.9,4.2c1.3,1.2,2.7,1.9,4.2,1.9   h12.2c1.6,0,3,0.1,4.2,0.4c1.3,0.3,1.9,1.1,1.9,2.7c0,1.5-0.6,2.5-1.9,2.7c-1.2,0.2-2.6,0.3-4.2,0.3H354c-1.5,0-3-0.6-4.2-1.9   c-1.2-1.3-1.9-2.7-1.9-4.2v-42.8c0-1.5,0.6-2.9,1.9-4.2c1.3-1.3,2.7-1.9,4.2-1.9h24.5c1.6,0,3,0.1,4.2,0.4c1.3,0.3,1.9,1.1,1.9,2.7   C384.6,360.8,384,361.7,382.7,362 M339.2,362c-1.2,0.2-2.6,0.3-4.2,0.3c-1.5,0-2.9,0.6-4.2,1.9c-1.3,1.3-1.9,2.7-1.9,4.2v36.7   c0,1.5-0.6,3-1.9,4.2c-1.3,1.2-2.7,1.9-4.2,1.9c-1.5,0-3-0.6-4.2-1.9c-1.2-1.3-1.9-2.7-1.9-4.2v-36.7c0-1.5-0.6-2.9-1.9-4.2   c-1.3-1.3-2.7-1.9-4.2-1.9c-1.5,0-3-0.1-4.2-0.3c-1.2-0.3-1.9-1.2-1.9-2.7c0-1.5,0.6-2.4,1.9-2.7c1.2-0.3,2.6-0.4,4.2-0.4H335   c1.6,0,3,0.1,4.2,0.4c1.3,0.3,1.9,1.1,1.9,2.7C341.1,360.8,340.5,361.7,339.2,362 M291.5,368.4c-1.9,0-3.1-0.3-3.6-1   c-0.2-0.3-0.4-0.6-0.7-1c-0.2-0.4-0.4-0.7-0.6-1.1c-0.4-0.8-1-1.5-1.9-2.1c-0.9-0.6-2.8-1-5.5-1c-1.5,0-3,0.6-4.2,1.9   c-1.2,1.3-1.9,2.7-1.9,4.2c0,3.1,1.3,5.9,3.8,8.4c2.5,2.5,5.3,3.8,8.4,3.8c1,0,2,0.3,3,0.9c1,0.6,2,1.4,2.9,2.5   c0.9,1,1.7,2.2,2.5,3.5c0.8,1.3,1.4,2.6,2,4c0.6,1.4,1,2.7,1.3,4c0.3,1.3,0.5,2.5,0.5,3.5c0,3.1-1.3,5.9-3.9,8.4   c-2.5,2.5-5.3,3.8-8.4,3.8h-18.3c-1.5,0-3-0.6-4.2-1.9c-1.2-1.3-1.9-2.7-1.9-4.2c0-1.5,0.6-2.9,1.9-4.2c1.3-1.3,2.7-1.9,4.2-1.9   c1.5,0,2.5,0.3,3.2,1c0.3,0.3,0.6,0.6,0.9,1c0.3,0.4,0.6,0.7,0.8,1.1c0.6,0.8,1.4,1.5,2.3,2.1c1.1,0.6,2.7,1,5,1   c1.5,0,2.9-0.6,4.2-1.9c1.3-1.3,1.9-2.7,1.9-4.2c0-3-1.3-5.8-3.9-8.4c-2.6-2.6-5.4-3.9-8.4-3.9c-1,0-2-0.3-3-0.9   c-1-0.6-2-1.4-2.9-2.5c-0.9-1-1.7-2.2-2.5-3.5c-0.8-1.3-1.4-2.6-2-4c-0.6-1.4-1-2.7-1.3-4c-0.3-1.3-0.5-2.5-0.5-3.5   c0-3.1,1.3-5.9,3.8-8.4c2.6-2.6,5.4-3.9,8.4-3.9h18.3c1.5,0,2.9,0.6,4.2,1.9c1.3,1.3,1.9,2.7,1.9,4.2c0,1.5-0.6,3-1.9,4.2   C294.5,367.8,293.1,368.4,291.5,368.4 M241.9,368.4c0-1.5-0.6-2.9-1.9-4.2c-1.3-1.3-2.7-1.9-4.2-1.9c-1.5,0-3,0.6-4.2,1.9   c-1.2,1.3-1.9,2.7-1.9,4.2v12.2c0,1.5,0.6,2.9,1.9,4.2c1.3,1.3,2.7,1.9,4.2,1.9c1.5,0,2.9-0.6,4.2-1.9c1.3-1.3,1.9-2.7,1.9-4.2   V368.4z M252.2,409.4c-1.2,1.2-2.6,1.9-4.2,1.9c-1.5,0-2.9-0.6-4.2-1.9c-1.3-1.3-1.9-2.7-1.9-4.2V399c0-1.5-0.6-2.9-1.9-4.2   c-1.3-1.3-2.7-1.9-4.2-1.9c-1.5,0-3,0.6-4.2,1.9c-1.2,1.3-1.9,2.7-1.9,4.2v6.1c0,1.5-0.6,3-1.9,4.2c-1.3,1.2-2.7,1.9-4.2,1.9   c-1.5,0-3-0.6-4.2-1.9c-1.2-1.3-1.9-2.7-1.9-4.2v-36.7c0-3.1,1.3-5.9,3.8-8.4c2.6-2.6,5.4-3.9,8.4-3.9h6.1h6.1c3,0,5.8,1.3,8.4,3.9   c2.6,2.6,3.8,5.4,3.8,8.4v36.7C254.2,406.7,253.5,408.1,252.2,409.4 M208.8,362c-1.2,0.2-2.6,0.3-4.2,0.3h-12.2   c-1.5,0-3,0.6-4.2,1.9c-1.2,1.3-1.9,2.7-1.9,4.2v3.1v3c0,1.5,0.6,3,1.9,4.2c1.3,1.2,2.7,1.9,4.2,1.9h6.1c1.6,0,3,0.1,4.2,0.4   c1.3,0.3,1.9,1.2,1.9,2.7c0,1.6-0.6,2.5-1.9,2.7c-1.2,0.2-2.6,0.3-4.2,0.3h-6.1c-1.5,0-3,0.6-4.2,1.9c-1.2,1.3-1.9,2.7-1.9,4.2v6.1   c0,1.5,0.6,3,1.9,4.2c1.3,1.2,2.7,1.9,4.2,1.9h12.2c1.6,0,3,0.1,4.2,0.4c1.3,0.3,1.9,1.1,1.9,2.7c0,1.5-0.6,2.5-1.9,2.7   c-1.2,0.2-2.6,0.3-4.2,0.3h-24.5c-1.5,0-3-0.6-4.2-1.9c-1.2-1.3-1.9-2.7-1.9-4.2v-42.8c0-1.5,0.6-2.9,1.9-4.2   c1.3-1.3,2.7-1.9,4.2-1.9h24.5c1.6,0,3,0.1,4.2,0.4c1.3,0.3,1.9,1.1,1.9,2.7C210.7,360.8,210,361.7,208.8,362 M469.8,266.8h11.4   v26.9h-11.4V266.8z M387,152.4c-2.7,2.5-5.7,5-8.6,7.4h8.9C387.4,157.7,387.3,155.1,387,152.4 M475.5,324.8   c-8.7,0-16.4-3.9-21.6-10.1c-11.4,13.3-28.4,18-48.2,18c-14.3,0-27.1-2.4-38.4-7.2c-12.5,7.7-23,11.8-29.9,11.8   c-6.1,0-10-2-11.6-8.3c-10.9,2.9-19.2,3.8-25.1,3c-6.1-0.9-9.8-3.7-10.9-7.8c-1.1-4.2,0.3-9.4,3.6-15.4   c4.7-8.4,11.9-15.8,16.1-20.1l3,2.7c-3.3,5.5-7.3,11.1-9.4,18.5c-0.7,2.3-1.1,5.7,1.2,7.3c1.6,1.1,4.7,1,8.8,0.5   c4-0.5,8.7-1.8,14.3-4.2c2.1-6.6,5.6-13.8,9.5-20.4l3.6,1.8c-1.4,4.7-4.2,12.7-4.2,21c0,2.4,0.6,5.8,3.6,6.2   c2.5,0.4,7.3-0.8,11.5-3c5.7-3.1,10-7.2,14.5-12c11.1,6.2,25.1,10.2,39.8,10c13.5-0.2,23.9-3.3,30.9-9.9   c7.1-6.7,10.6-16.7,10.6-29.8c0-11.1-3.7-19.3-11.1-24.7c-7.3-5.3-18.8-8-34.8-8h-16.8v-14.6l55.6-54.6h-77   c-39.1,6.9-60.5,30.1-63.8,64.3l45.7,21.2l-66.2-18.8c3.8-30.7,20.4-58.3,63.4-74.7c20-10,27.3-15.2,45.1-31.4l7.7-6.1l1.9,9.6   c1.4,6.8,2.9,13.6,2.5,20.2h64v15.7l-55.7,55.4h7.4c16.3,0,28.7,4,37.3,12c7,6.2,11.2,14.8,12.6,25.8v14.5c-3.6,3-5.8,7.4-5.8,12.4   c0,8.9,7.3,16.2,16.2,16.2c8.9,0,16.1-7.3,16.1-16.2c0-5-2.2-9.5-5.8-12.4v-13c10.5,4.1,18,14.4,18,26.4   C503.9,312.1,491.2,324.8,475.5,324.8 M325.7,216.9c2.4-3,5.4-5.7,8.6-7.8c3.2,1.6,6.1,3.9,8.3,6.7c3,3.7,4.9,8.2,5.5,13   c-4.5-1.9-9.4-2.9-14.3-3c-5,0-10,1-14.5,3C320.7,224.5,322.9,220.4,325.7,216.9"
       id="path11" /><path
       clip-path="url(#SVGID_2_)"
       fill="#1EC290"
       d="M2347.6,885.2h65.9V730.2h-65.9V885.2z M1567.4,397.7   c-18.7,12.3-35.6,27.5-49.7,45c-16.4,20.3-28.9,43.7-37.1,68.5c26.4-11.3,55.1-17.1,83.8-17c28.2,0.1,56.5,5.9,82.5,17   c-3.1-27.1-14.3-53.4-31.4-74.6C1602.4,420.3,1586,406.9,1567.4,397.7 M1917.4-58l-44.1,35.4c-102.8,93.4-144.6,123.4-260.1,181.1   C1365.7,253,1269.8,411.9,1248,588.8l381.4,108.2l-263.6-122.2c18.9-197.2,142.3-330.5,367.4-370.5H2177L1856.7,519v84.2h96.9   c92.2,0,158.9,15.5,200.7,46.3c42.4,31.2,63.7,78.5,63.7,142.3c0,75.3-20.1,132.8-61.1,171.5c-40.5,38.3-100.1,56.3-178,57.2   c-84.5,1-165.3-22-229.1-57.6c-26,28-50.4,51.7-83.3,69.4c-24.4,13.1-52.1,19.6-66.3,17.4c-17.6-2.7-20.9-21.8-20.9-35.8   c-0.1-47.5,15.9-93.6,24-120.9l-20.5-10.5c-22.2,38-42.3,79.5-54.5,117.4c-32.5,13.7-59.2,20.8-82.5,24c-23.3,3.2-41.5,4-50.6-2.6   c-13.4-9.6-10.8-29.2-7-42.3c12.2-42.3,35.1-74.5,54.1-106.5l-17.5-15.3c-24.4,24.6-66,67.1-92.9,115.7   c-19,34.2-27.3,64.7-20.9,88.6c6.4,23.9,27.9,39.8,62.8,45c34,5,81.8-0.5,144.9-17c9.4,36.3,31.9,47.6,66.8,47.6   c39.6,0,101.4,2.1,173.7-42c65.3,27.8,137.8,15.4,219.9,15.4c113.6,0,212.1-27.3,277.5-103.9c29.9,35.4,74.4,58,124.4,58   c90.1,0,163.2-73.1,163.2-163.2c0-69.1-43.2-128.1-103.9-151.9v74.6c20.7,17.1,33.6,42.6,33.6,71.6c0,51.5-41.5,93.4-92.9,93.4   c-51.5,0-93.4-41.9-93.4-93.4c0-28.8,13.1-54.5,33.6-71.6v-83.4c-8.2-62.9-32.3-112.4-72.4-148.4c-49.6-46.1-121.2-69-215.1-69   h-42.8l320.7-319V114h-368.7c2.4-37.9-6.5-77.4-14.4-116.5L1917.4-58z"
       id="path13" /></g><flowRoot
     xml:space="preserve"
     id="text"
     style="font-style:normal;font-weight:normal;font-size:40px;line-height:150%;font-family:Sans;letter-spacing:0px;word-spacing:0px;fill:#000000;fill-opacity:1;stroke:none"
     transform="translate(0,-16)"><flowRegion
       id="flowRegion3016"><rect
         id="rect3018"
         width="893.89502"
         height="453.66852"
         x="169.14554"
         y="597.20709"
         style="line-height:150%" /></flowRegion><flowPara
       id="flowPara3020"
       style="font-style:normal;font-variant:normal;font-weight:normal;font-stretch:normal;font-size:47.94689941px;line-height:150%;font-family:'TeX Gyre Adventor';-inkscape-font-specification:'TeX Gyre Adventor';fill:#1ec290;fill-opacity:1" /><flowPara
       id="flowPara3022"
       style="font-style:normal;font-variant:normal;font-weight:bold;font-stretch:normal;font-size:58px;line-height:120.00000477%;font-family:'TeX Gyre Adventor';-inkscape-font-specification:'TeX Gyre Adventor Bold';fill:#4d3823;fill-opacity:1">Gleich gehts weiter...</flowPara><flowPara
       style="font-style:normal;font-variant:normal;font-weight:normal;font-stretch:normal;font-size:35px;line-height:150%;font-family:'TeX Gyre Adventor';-inkscape-font-specification:'TeX Gyre Adventor';fill:#6f5d4a;fill-opacity:1"
       id="flowPara3016" /></flowRoot></svg>