<?xml version="1.0" encoding="UTF-8" standalone="no"?>
<!-- Created with Inkscape (http://www.inkscape.org/) -->

<svg
   xmlns:dc="http://purl.org/dc/elements/1.1/"
   xmlns:cc="http://creativecommons.org/ns#"
   xmlns:rdf="http://www.w3.org/1999/02/22-rdf-syntax-ns#"
   xmlns:svg="http://www.w3.org/2000/svg"
   xmlns="http://www.w3.org/2000/svg"
   xmlns:sodipodi="http://sodipodi.sourceforge.net/DTD/sodipodi-0.dtd"
   xmlns:inkscape="http://www.inkscape.org/namespaces/inkscape"
   width="1920"
   height="1080"
   viewBox="0 0 1920 1080"
   id="svg6419"
   version="1.1"
   inkscape:version="0.91 r13725"
   sodipodi:docname="background.svg"
   inkscape:export-filename="/home/danimo/scratch/VOC/intro-outro-generator/asg2017/artwork/background.png"
   inkscape:export-xdpi="90"
   inkscape:export-ydpi="90">
  <defs
     id="defs6421">
    <clipPath
       id="clipPath5793"
       clipPathUnits="userSpaceOnUse">
      <path
         inkscape:connector-curvature="0"
         id="path5795"
         d="m 0,1080 1920,0 L 1920,0 0,0 0,1080 Z" />
    </clipPath>
    <clipPath
       id="clipPath5801"
       clipPathUnits="userSpaceOnUse">
      <path
         inkscape:connector-curvature="0"
         id="path5803"
         d="m 0,1080.06 1920,0 0,-1080.120379 -1920,0 L 0,1080.06 Z" />
    </clipPath>
    <clipPath
       id="clipPath5837"
       clipPathUnits="userSpaceOnUse">
      <path
         inkscape:connector-curvature="0"
         id="path5839"
         d="m 964.524,713.711 -135.302,-138.508 -7.067,-54.935 267.526,0 0,193.443 -125.157,0 z" />
    </clipPath>
    <clipPath
       id="clipPath5935"
       clipPathUnits="userSpaceOnUse">
      <path
         inkscape:connector-curvature="0"
         id="path5937"
         d="m 0,1080 1920,0 L 1920,0 0,0 0,1080 Z" />
    </clipPath>
    <clipPath
       id="clipPath5935-6"
       clipPathUnits="userSpaceOnUse">
      <path
         inkscape:connector-curvature="0"
         id="path5937-0"
         d="m 0,1080 1920,0 L 1920,0 0,0 0,1080 Z" />
    </clipPath>
    <clipPath
       id="clipPath5935-1"
       clipPathUnits="userSpaceOnUse">
      <path
         inkscape:connector-curvature="0"
         id="path5937-7"
         d="m 0,1080 1920,0 L 1920,0 0,0 0,1080 Z" />
    </clipPath>
  </defs>
  <sodipodi:namedview
     id="base"
     pagecolor="#ffffff"
     bordercolor="#666666"
     borderopacity="1.0"
     inkscape:pageopacity="0.0"
     inkscape:pageshadow="2"
     inkscape:zoom="0.3130203"
     inkscape:cx="1471.2715"
     inkscape:cy="978.0998"
     inkscape:document-units="px"
     inkscape:current-layer="g5787"
     showgrid="false"
     units="px"
     inkscape:window-width="1366"
     inkscape:window-height="704"
     inkscape:window-x="0"
     inkscape:window-y="27"
     inkscape:window-maximized="1"
     showguides="true"
     inkscape:guide-bbox="true">
    <sodipodi:guide
       position="1893.0259,1354.6146"
       orientation="0,1"
       id="guide3571" />
    <sodipodi:guide
       position="1959.2593,794.44444"
       orientation="1,0"
       id="guide4955" />
  </sodipodi:namedview>
  <metadata
     id="metadata6424">
    <rdf:RDF>
      <cc:Work
         rdf:about="">
        <dc:format>image/svg+xml</dc:format>
        <dc:type
           rdf:resource="http://purl.org/dc/dcmitype/StillImage" />
        <dc:title />
      </cc:Work>
    </rdf:RDF>
  </metadata>
  <g
     inkscape:label="Layer 1"
     inkscape:groupmode="layer"
     id="layer1"
     transform="translate(0,27.637839)">
    <g
       transform="matrix(1.0010813,0,0,-1.0010813,-1.1685992,1052.8156)"
       inkscape:label="Intro_Outro"
       id="g5787">
      <g
         id="g5791"
         clip-path="url(#clipPath5793)"
         transform="matrix(1.0067443,0,0,1.0171282,-5.5495548,-9.249258)">
        <rect
           style="fill:#d9d9d9;fill-opacity:1"
           id="rect5483"
           width="1990.7046"
           height="1093.1038"
           x="-41.643513"
           y="-1082.1405"
           transform="scale(1,-1)" />
      </g>
      <g
         id="g4957"
         transform="matrix(0.73167696,0,0,0.67604662,56.237163,326.47409)">
        <g
           transform="matrix(0.53389732,0,0,-0.53389732,1928.4074,606.67042)"
           id="g67841">
          <path
             style="fill:#00679a"
             inkscape:connector-curvature="0"
             class="st0"
             d="m 1004.2,361.6 c 6.9,-2.1 13.7,-4.7 20.3,-7.7 l 0,-87.1 c -6.1,6 -12.9,11.2 -20.3,15.5 l 0,79.3 z"
             id="path67734" />
          <path
             style="fill:#00679a"
             inkscape:connector-curvature="0"
             class="st0"
             d="m 1004.2,13.7 0,79.3 c 7.4,4.3 14.2,9.5 20.3,15.5 l 0,-87.1 c -6.5,-3 -13.3,-5.6 -20.3,-7.7 z"
             id="path67736" />
          <polygon
             style="fill:#339966"
             class="st1"
             points="737.1,87 654.5,4.4 654.5,87 "
             id="polygon67738" />
          <text
             transform="translate(59.2575,521.6328)"
             id="text67740">
            <tspan
               style="font-size:119.65979767px;font-family:GillSans-Bold;fill:#990000"
               x="0"
               y="0"
               class="st2 st3 st4"
               id="tspan67742">WIKI</tspan>
            <tspan
               style="font-size:119.65979767px;font-family:GillSans-Bold"
               x="305.39999"
               y="0"
               class="st3 st4"
               id="tspan67744" />
            <tspan
               style="font-size:119.65979767px;font-family:GillSans-Bold;fill:#339966"
               x="338.60001"
               y="0"
               class="st1 st3 st4"
               id="tspan67746">DATA</tspan>
            <tspan
               style="font-size:119.65979767px;font-family:GillSans-Bold"
               x="707.5"
               y="0"
               class="st3 st4"
               id="tspan67748" />
            <tspan
               style="font-size:119.65979767px;font-family:GillSans-Bold;fill:#00679a"
               x="740.79999"
               y="0"
               class="st0 st3 st4"
               id="tspan67750">CON</tspan>
          </text>
          <g
             id="g67752">
            <path
               style="fill:#00679a"
               inkscape:connector-curvature="0"
               class="st0"
               d="m 820.2,67.2 c -27.8,32 -44.6,74.2 -44.6,120.4 0,46.2 16.9,88.4 44.6,120.4 l 0,-240.8 z"
               id="path67754" />
            <path
               style="fill:#00679a"
               inkscape:connector-curvature="0"
               class="st0"
               d="M 876.8,23.6 C 861.3,31.2 847,41 834.3,52.6 l 0,270 c 12.6,11.6 26.9,21.5 42.5,29 l 0,-89.9 c -17.5,-19.4 -28.3,-45.5 -28.3,-74.2 0,-28.7 10.8,-54.8 28.3,-74.2 l 0,-89.7 z"
               id="path67756" />
          </g>
          <path
             style="fill:#00679a"
             inkscape:connector-curvature="0"
             class="st0"
             d="m 891,17.4 0,82.9 c 4.5,-3.4 9.2,-6.5 14.2,-9.2 l 0,-78.4 c -4.9,1.4 -9.6,3 -14.2,4.7 z"
             id="path67758" />
          <path
             style="fill:#00679a"
             inkscape:connector-curvature="0"
             class="st0"
             d="m 891,357.8 c 4.6,1.8 9.4,3.3 14.2,4.7 l 0,-78.4 c -5,-2.7 -9.7,-5.8 -14.2,-9.2 l 0,82.9 z"
             id="path67760" />
          <path
             style="fill:#00679a"
             inkscape:connector-curvature="0"
             class="st0"
             d="m 919.5,366 c 4.6,0.9 9.3,1.6 14,2.2 l 0,-73.8 c -4.8,-0.9 -9.5,-2.2 -14,-3.8 l 0,75.4 z"
             id="path67762" />
          <path
             style="fill:#00679a"
             inkscape:connector-curvature="0"
             class="st0"
             d="m 919.5,9.3 0,75.5 c 4.5,-1.6 9.2,-2.9 14,-3.8 l 0,-73.9 c -4.7,0.5 -9.4,1.3 -14,2.2 z"
             id="path67764" />
          <path
             style="fill:#00679a"
             inkscape:connector-curvature="0"
             class="st0"
             d="m 947.6,296.1 0,73.1 c 1.8,0.1 3.6,0.1 5.4,0.1 12.9,0 25.4,-1.4 37.5,-4.1 l 0,-76.2 c -11.6,4.7 -24.3,7.2 -37.5,7.2 -1.8,0.1 -3.6,0 -5.4,-0.1 z"
             id="path67766" />
          <path
             style="fill:#00679a"
             inkscape:connector-curvature="0"
             class="st0"
             d="m 953,6 c -1.8,0 -3.6,0 -5.4,0.1 l 0,73.1 c 1.8,-0.1 3.6,-0.1 5.4,-0.1 13.2,0 25.9,2.6 37.5,7.2 l 0,-76.2 C 978.4,7.4 965.9,6 953,6 Z"
             id="path67768" />
          <g
             id="g67770">
            <polygon
               style="fill:#990000"
               class="st2"
               points="17.2,117.4 57.7,99.2 57.7,99.2 57.7,99.2 158.6,323.2 118,341.4 "
               id="polygon67772" />
          </g>
          <g
             id="g67774">
            <rect
               style="fill:#990000"
               x="5.1999998"
               y="68.599998"
               transform="matrix(0.9118,-0.4106,0.4106,0.9118,-32.9161,18.8433)"
               class="st2"
               width="44.400002"
               height="34.799999"
               id="rect67776" />
          </g>
          <g
             id="g67778">
            <polygon
               style="fill:#990000"
               class="st2"
               points="121.2,348.4 157.6,375.2 161.7,330.2 "
               id="polygon67780" />
          </g>
          <g
             id="g67782">
            <polygon
               style="fill:#990000"
               class="st2"
               points="247.5,347.8 203.9,278 163.5,317 170.5,330 201.2,300 247.5,374.2 385.3,154.9 408.9,169.7 411.5,100 349.8,132.6 373.4,147.5 "
               id="polygon67784" />
          </g>
          <g
             id="g67786">
            <polygon
               style="fill:#990000"
               class="st2"
               points="157.6,375.2 121.2,348.4 161.7,330.2 157.6,375.2 "
               id="polygon67788" />
          </g>
          <path
             style="fill:#339966"
             inkscape:connector-curvature="0"
             class="st1"
             d="m 475.2,333.3 47.1,-2.7 c 1.4,-4.2 3.5,-8.1 6.3,-11.5 L 501,281.2 c -3.5,1.2 -7.2,1.8 -11,1.8 -1.1,0 -2.1,0 -3.2,-0.1 l -18.3,39.2 c 2.9,3.3 5.2,7.1 6.7,11.2 z"
             id="path67790" />
          <path
             style="fill:#339966"
             inkscape:connector-curvature="0"
             class="st1"
             d="m 662.2,276.4 -9.9,-86.5 c -0.8,0 -1.5,-0.1 -2.3,-0.1 l -67.2,128.4 c 2.1,2.5 3.9,5.2 5.3,8.2 L 639.6,312 c 0,-0.7 -0.1,-1.4 -0.1,-2.1 0,-15 9.2,-28.2 22.7,-33.5 z"
             id="path67792" />
          <ellipse
             style="fill:#339966"
             class="st1"
             cx="556"
             cy="342"
             rx="7.5"
             ry="8"
             id="ellipse67794" />
          <path
             style="fill:#339966"
             inkscape:connector-curvature="0"
             class="st1"
             d="M 618,160 471.2,89.6 c -1.7,2.3 -3.7,4.3 -5.8,6.1 L 489.5,211 c 0.2,0 0.3,0 0.5,0 19.6,0 35.5,16.1 35.5,36 0,7.3 -2.2,14.4 -6.2,20.3 l 28.8,39.6 c 2.6,-0.6 5.2,-0.9 7.9,-0.9 2.3,0 4.6,0.2 6.8,0.7 L 628.9,180.5 C 623.2,175 619.3,167.9 618,160 Z"
             id="path67796" />
          <path
             style="fill:#339966"
             inkscape:connector-curvature="0"
             class="st1"
             d="m 703.6,288.6 35.9,-15.7 0,-97.1 -53.6,-8.4 c -2.4,6 -6.3,11.2 -11.4,15.2 l 10.7,92.9 c 7.4,2.3 13.8,6.9 18.4,13.1 z"
             id="path67798" />
          <ellipse
             style="fill:#339966"
             class="st1"
             cx="675"
             cy="310"
             rx="7.5"
             ry="8"
             id="ellipse67800" />
          <ellipse
             style="fill:#339966"
             class="st1"
             cx="490"
             cy="247"
             rx="7.5"
             ry="8"
             id="ellipse67802" />
          <path
             style="fill:#339966"
             inkscape:connector-curvature="0"
             class="st1"
             d="m 450.2,65 c -0.7,-1.9 -2,-3.4 -3.7,-4.2 -1,-0.5 -2,-0.7 -3,-0.7 -0.9,0 -1.8,0.2 -2.6,0.5 -2,0.7 -3.6,2.2 -4.6,4.2 -0.9,2 -1.1,4.2 -0.4,6.2 0.7,1.9 2,3.4 3.7,4.2 1,0.5 2,0.7 3,0.7 0.9,0 1.8,-0.2 2.6,-0.5 2,-0.7 3.6,-2.2 4.6,-4.2 0.9,-2 1.1,-4.2 0.4,-6.2 z"
             id="path67804" />
          <path
             style="fill:#339966"
             inkscape:connector-curvature="0"
             class="st1"
             d="m 467.7,219 -14.7,-70 0,151.8 12.8,-27.5 c -7.2,-6.8 -11.3,-16.2 -11.3,-26.4 0,-10.8 5,-21.1 13.2,-27.9 z"
             id="path67806" />
          <ellipse
             style="fill:#339966"
             class="st1"
             cx="653"
             cy="154"
             rx="7.5"
             ry="8"
             id="ellipse67808" />
          <ellipse
             style="fill:#339966"
             class="st1"
             cx="442"
             cy="346"
             rx="7.5"
             ry="8"
             id="ellipse67810" />
          <path
             style="fill:#339966"
             inkscape:connector-curvature="0"
             class="st1"
             d="m 583.4,117.9 38.6,18.5 c 0.2,-0.4 0.4,-0.8 0.7,-1.1 L 604,111.5 c -2.5,1.7 -5.2,3.2 -8.1,4.2 -4,1.5 -8.2,2.2 -12.4,2.2 0,0 0,0 -0.1,0 z"
             id="path67812" />
          <path
             style="fill:#339966"
             inkscape:connector-curvature="0"
             class="st1"
             d="m 506.9,81.3 49.5,23.7 c -4.1,-5.1 -6.8,-11.2 -7.7,-17.9 l -41.8,-5.8 z"
             id="path67814" />
          <path
             style="fill:#339966"
             inkscape:connector-curvature="0"
             class="st1"
             d="m 587.4,74.8 c -1,-0.5 -2,-0.7 -3,-0.7 -0.9,0 -1.8,0.2 -2.6,0.5 -2,0.7 -3.6,2.2 -4.6,4.2 -1.9,4 -0.4,8.7 3.4,10.4 1,0.5 2,0.7 3,0.7 0.9,0 1.8,-0.2 2.6,-0.5 2,-0.7 3.6,-2.2 4.6,-4.2 1.9,-4 0.4,-8.7 -3.4,-10.4 z"
             id="path67816" />
          <g
             id="g67818">
            <path
               style="fill:#00679a"
               inkscape:connector-curvature="0"
               class="st0"
               d="m 803.5,262.4 0,-9.8 -102.8,45 C 696.6,289 688.5,282.7 678.8,281.3 L 667.1,179.2 c 7.1,-4.1 12.3,-11.2 13.9,-19.6 l 122.5,19.3 0,-9.1 -122.2,-19.2 c -1.7,-14.4 -13.7,-25.5 -28.3,-25.5 -5.4,0 -10.5,1.5 -14.8,4.2 L 610.1,93.4 c 6.2,-14.3 0.2,-31 -13.8,-37.5 -6.9,-3.3 -14.7,-3.6 -21.9,-0.9 -7.2,2.7 -12.9,8 -16.2,14.9 -0.4,0.8 -0.7,1.5 -1,2.3 L 470.6,60 c -0.2,-0.6 -0.4,-1.2 -0.6,-1.9 -2.5,-7.3 -7.7,-13.1 -14.6,-16.4 -6.9,-3.3 -14.7,-3.6 -21.9,-0.9 -7.2,2.7 -12.9,8 -16.2,14.9 -3.3,7 -3.7,14.8 -1.2,22 2.5,7.3 7.7,13.1 14.6,16.4 2.1,1 4.2,1.7 6.4,2.1 l 0,221.1 c -13.3,2.4 -23.5,14.3 -23.5,28.5 0,16 12.8,29 28.5,29 14.5,0 26.5,-11.1 28.3,-25.4 l 57.5,-3.2 c 2.1,13.9 13.9,24.6 28.2,24.6 15,0 27.4,-11.9 28.4,-26.9 l 66.6,-18.5 c 5.1,8.1 13.9,13.4 24,13.4 15.7,0 28.5,-13 28.5,-29 0,-1.3 -0.1,-2.5 -0.2,-3.8 L 803.5,262.4 Z M 653,139 c 8,0 14.5,6.7 14.5,15 0,8.3 -6.5,15 -14.5,15 -8,0 -14.5,-6.7 -14.5,-15 0,-8.3 6.5,-15 14.5,-15 z M 570.9,75.8 c 1.7,-3.6 4.7,-6.4 8.4,-7.8 1.7,-0.6 3.4,-0.9 5.1,-0.9 2.1,0 4.1,0.5 6,1.4 7.2,3.4 10.2,12.3 6.7,19.8 l 0,0 c -1.7,3.6 -4.7,6.4 -8.4,7.8 -3.7,1.4 -7.6,1.2 -11.1,-0.4 -7.2,-3.6 -10.2,-12.4 -6.7,-19.9 z M 471.6,69.2 555.5,81 c -0.5,11.3 5.5,22.2 16.2,27.2 3.8,1.8 7.9,2.7 12,2.7 3.3,0 6.7,-0.6 9.9,-1.8 4.4,-1.7 8.4,-4.3 11.5,-7.8 l 26.4,33.8 c -2.6,3.1 -4.6,6.8 -5.8,10.8 L 471.3,72 c 0.1,-0.9 0.2,-1.8 0.3,-2.8 z m -3,11.4 156,74.8 c 0.5,9.7 5.6,18.2 13.3,23.1 L 566.4,315 c -3.2,-1.3 -6.7,-2 -10.4,-2 -3.7,0 -7.3,0.7 -10.6,2.1 l -34.9,-47.9 c 5,-5.2 8,-12.3 8,-20.1 0,-16 -12.8,-29 -28.5,-29 -2.1,0 -4.1,0.2 -6,0.7 l -26.4,-126 c 4.7,-3 8.5,-7.1 11,-12.2 z M 504.5,247 c 0,8.3 -6.5,15 -14.5,15 -8,0 -14.5,-6.7 -14.5,-15 0,-8.3 6.5,-15 14.5,-15 8,0 14.5,6.7 14.5,15 z m -30,24.3 -22.2,47.7 c -2,-0.8 -4.1,-1.4 -6.3,-1.7 l 0,-220.6 c 1,-0.1 2,-0.3 3.1,-0.5 l 26.4,125.9 c -8.4,5.1 -14,14.3 -14,24.9 0,10.2 5.2,19.2 13,24.3 z M 436.6,81.6 c -3.5,-1.6 -6.1,-4.6 -7.4,-8.3 -1.3,-3.8 -1.1,-7.8 0.7,-11.5 1.7,-3.6 4.7,-6.4 8.4,-7.8 1.7,-0.6 3.4,-0.9 5.1,-0.9 2.1,0 4.1,0.5 6,1.4 3.5,1.6 6.1,4.6 7.4,8.3 1.3,3.8 1.1,7.8 -0.7,11.5 -1.7,3.6 -4.7,6.4 -8.4,7.8 -3.7,1.3 -7.6,1.1 -11.1,-0.5 z M 442,361 c -8,0 -14.5,-6.7 -14.5,-15 0,-8.3 6.5,-15 14.5,-15 8,0 14.5,6.7 14.5,15 0,8.3 -6.5,15 -14.5,15 z m 85.9,-23.7 -57.9,3.3 c -1.3,-6.8 -4.9,-12.8 -9.9,-17 l 22.7,-48.5 c 2.3,0.6 4.8,1 7.3,1 4.8,0 9.4,-1.2 13.3,-3.4 l 34.4,47.2 c -5.2,4.3 -8.8,10.4 -9.9,17.4 z M 556,357 c -8,0 -14.5,-6.7 -14.5,-15 0,-8.3 6.5,-15 14.5,-15 8,0 14.5,6.7 14.5,15 0,8.3 -6.5,15 -14.5,15 z m 90.5,-47 c 0,2.5 0.3,4.9 0.9,7.2 L 583.7,335 c -1.5,-6.1 -4.9,-11.5 -9.5,-15.4 l 72,-137.5 c 2.2,0.6 4.5,0.9 6.9,0.9 1.8,0 3.6,-0.2 5.4,-0.5 l 11.4,99 c -13.3,2.5 -23.4,14.3 -23.4,28.5 z m 28.5,15 c -8,0 -14.5,-6.7 -14.5,-15 0,-8.3 6.5,-15 14.5,-15 8,0 14.5,6.7 14.5,15 0,8.3 -6.5,15 -14.5,15 z"
               id="path67820" />
          </g>
          <g
             id="g67822">
            <path
               style="fill:#339966"
               inkscape:connector-curvature="0"
               class="st1"
               d="m 675,346 c -10.4,0 -20.1,-4.6 -26.8,-12.4 l -57.5,16 c -3.5,16.3 -17.9,28.4 -34.7,28.4 -15.3,0 -28.7,-10.1 -33.6,-24.3 l -46.4,2.6 c -4.4,15 -18.1,25.7 -34,25.7 -19.6,0 -35.5,-16.1 -35.5,-36 0,-15.4 9.6,-28.8 23.5,-33.9 l 0,-210.5 c -0.8,-0.3 -1.6,-0.7 -2.4,-1 -3.3,-1.6 -6.3,-3.6 -8.9,-6 l -3.3,87.6 -28,-17.6 -8,12.7 0,232.7 360,0 0,-112 -29,12.7 c -0.3,19.5 -16,35.3 -35.4,35.3 z"
               id="path67824" />
            <path
               style="fill:#339966"
               inkscape:connector-curvature="0"
               class="st1"
               d="m 646.5,95 0,-95 -267,0 0,109 35.4,-18.7 c -2.3,-3 -4.2,-6.4 -5.5,-10.2 -3.1,-9 -2.6,-18.7 1.5,-27.3 4.1,-8.6 11.2,-15.2 20.1,-18.5 4,-1.5 8.2,-2.2 12.4,-2.2 5.2,0 10.2,1.1 15,3.4 7.9,3.7 14,10.2 17.4,18.2 l 77.3,10.8 c 4.2,-7.5 10.8,-13.2 18.9,-16.2 4,-1.5 8.2,-2.2 12.4,-2.2 5.2,0 10.2,1.1 15,3.4 16.1,7.6 23.8,25.8 18.7,42.6 l 22.2,28.3 c 4.1,-1.6 8.4,-2.4 12.8,-2.4 16.1,0 30,11 34.2,26.4 l 52.3,8.2 0,-57.6 -93.1,0 z"
               id="path67826" />
          </g>
          <polygon
             style="fill:#00679a"
             class="st0"
             points="286.8,89.7 314.6,92.5 298.7,253.3 315.4,226.7 328.5,93.8 356.3,96.6 327.5,33 "
             id="polygon67828" />
          <polygon
             style="fill:#00679a"
             class="st0"
             points="282.9,331 275.1,343.4 300.9,372.7 309.2,289.2 292.5,315.8 290.1,339.3 "
             id="polygon67830" />
          <polygon
             style="fill:#00679a"
             class="st0"
             points="255.8,321.4 263.6,309.1 200.5,237.2 158.5,306.1 160.4,310.3 189.5,282.1 202.5,260.8 "
             id="polygon67832" />
        </g>
        <flowRoot
           transform="matrix(0.62662387,0,0,-0.62662387,2707.7948,633.67518)"
           style="font-style:normal;font-weight:normal;font-size:60px;line-height:125%;font-family:sans-serif;letter-spacing:0px;word-spacing:0px;fill:#000000;fill-opacity:1;stroke:none;stroke-width:1px;stroke-linecap:butt;stroke-linejoin:miter;stroke-opacity:1"
           id="flowRoot67893"
           xml:space="preserve"><flowRegion
             id="flowRegion67895"><rect
               style="font-size:60px"
               y="512.36218"
               x="-1200"
               height="262.85712"
               width="1440"
               id="rect67897" /></flowRegion><flowPara
             id="flowPara67899">Berlin - 28&amp;29 October 2017</flowPara></flowRoot>      </g>
    </g>
  </g>
</svg>
