<?xml version="1.0" encoding="UTF-8" standalone="no"?>
<!-- Generator: Adobe Illustrator 16.0.0, SVG Export Plug-In . SVG Version: 6.00 Build 0)  -->

<svg
   xmlns:dc="http://purl.org/dc/elements/1.1/"
   xmlns:cc="http://creativecommons.org/ns#"
   xmlns:rdf="http://www.w3.org/1999/02/22-rdf-syntax-ns#"
   xmlns:svg="http://www.w3.org/2000/svg"
   xmlns="http://www.w3.org/2000/svg"
   xmlns:sodipodi="http://sodipodi.sourceforge.net/DTD/sodipodi-0.dtd"
   xmlns:inkscape="http://www.inkscape.org/namespaces/inkscape"
   version="1.1"
   x="0px"
   y="0px"
   width="1024"
   height="576"
   viewBox="0 0 1024 575.99998"
   enable-background="new 0 0 303.307 104.882"
   xml:space="preserve"
   id="svg2"
   inkscape:version="0.48.4 r9939"
   sodipodi:docname="overlay.svg"
   inkscape:export-filename="/home/peter/AAA-VOC/intro-outro-generator/mrmcd2014/artwork/intro.png"
   inkscape:export-xdpi="90"
   inkscape:export-ydpi="90"><metadata
     id="metadata524"><rdf:RDF><cc:Work
         rdf:about=""><dc:format>image/svg+xml</dc:format><dc:type
           rdf:resource="http://purl.org/dc/dcmitype/StillImage" /><dc:title></dc:title></cc:Work></rdf:RDF></metadata><defs
     id="defs522"><filter
       id="filter4574"
       inkscape:label="Drop Shadow"
       color-interpolation-filters="sRGB"><feFlood
         id="feFlood4576"
         flood-opacity="0.35"
         flood-color="rgb(0,0,0)"
         result="flood" /><feComposite
         id="feComposite4578"
         in2="SourceGraphic"
         in="flood"
         operator="in"
         result="composite1" /><feGaussianBlur
         id="feGaussianBlur4580"
         stdDeviation="1.1"
         result="blur" /><feOffset
         id="feOffset4582"
         dx="0.5"
         dy="0.6"
         result="offset" /><feComposite
         id="feComposite4584"
         in2="offset"
         in="SourceGraphic"
         operator="over"
         result="composite2" /></filter><filter
       id="filter4574-1"
       inkscape:label="Drop Shadow"
       color-interpolation-filters="sRGB"><feFlood
         id="feFlood4576-3"
         flood-opacity="0.35"
         flood-color="rgb(0,0,0)"
         result="flood" /><feComposite
         id="feComposite4578-8"
         in2="SourceGraphic"
         in="flood"
         operator="in"
         result="composite1" /><feGaussianBlur
         id="feGaussianBlur4580-0"
         stdDeviation="1.1"
         result="blur" /><feOffset
         id="feOffset4582-3"
         dx="0.5"
         dy="0.6"
         result="offset" /><feComposite
         id="feComposite4584-1"
         in2="offset"
         in="SourceGraphic"
         operator="over"
         result="composite2" /></filter><filter
       id="filter4574-7"
       inkscape:label="Drop Shadow"
       color-interpolation-filters="sRGB"><feFlood
         id="feFlood4576-7"
         flood-opacity="0.35"
         flood-color="rgb(0,0,0)"
         result="flood" /><feComposite
         id="feComposite4578-82"
         in2="SourceGraphic"
         in="flood"
         operator="in"
         result="composite1" /><feGaussianBlur
         id="feGaussianBlur4580-5"
         stdDeviation="1.1"
         result="blur" /><feOffset
         id="feOffset4582-0"
         dx="0.5"
         dy="0.6"
         result="offset" /><feComposite
         id="feComposite4584-6"
         in2="offset"
         in="SourceGraphic"
         operator="over"
         result="composite2" /></filter><clipPath
       clipPathUnits="userSpaceOnUse"
       id="clipPath4956"><g
         id="g4958"
         transform="matrix(0.78241969,0,0,1.0827137,2.7505971,-3.9544974)"><rect
           width="303.30701"
           height="104.882"
           id="rect4960"
           x="0"
           y="0" /></g></clipPath></defs><sodipodi:namedview
     pagecolor="#ffffff"
     bordercolor="#666666"
     borderopacity="1"
     objecttolerance="10"
     gridtolerance="10"
     guidetolerance="10"
     inkscape:pageopacity="0"
     inkscape:pageshadow="2"
     inkscape:window-width="1920"
     inkscape:window-height="993"
     id="namedview520"
     showgrid="false"
     inkscape:zoom="3.6928165"
     inkscape:cx="919.00552"
     inkscape:cy="466.1022"
     inkscape:window-x="0"
     inkscape:window-y="27"
     inkscape:window-maximized="1"
     inkscape:current-layer="svg2"
     inkscape:snap-bbox="true"
     inkscape:bbox-paths="true"
     inkscape:bbox-nodes="true"
     inkscape:snap-bbox-edge-midpoints="true"
     inkscape:snap-bbox-midpoints="true"
     showguides="true"
     inkscape:guide-bbox="true"><sodipodi:guide
       orientation="1,0"
       position="829.2444,489.193"
       id="guide4944" /><sodipodi:guide
       orientation="1,0"
       position="1005.3634,515.95035"
       id="guide4946" /><sodipodi:guide
       orientation="0,1"
       position="860.71024,473.81286"
       id="guide4952" /><sodipodi:guide
       orientation="0,1"
       position="870.28432,558.38367"
       id="guide4954" /></sodipodi:namedview><path
     style="fill:#000000;stroke:none;stroke-width:1px;stroke-linecap:butt;stroke-linejoin:miter;stroke-opacity:1;fill-opacity:1;opacity:0.75"
     d="m 829.2444,32.957901 0,64.337851 170.48155,4.891388 5.63745,0 0,-58.314783 z"
     id="path4962"
     inkscape:connector-curvature="0"
     transform="translate(0,-10e-6)" /><g
     id="Ebene_1"
     transform="matrix(0.74213704,0,0,0.74213704,827.20308,20.846917)"
     clip-path="url(#clipPath4956)"><g
       id="g4775"
       transform="matrix(0.95014662,0,0,0.95014662,0.1320066,1.4895836)"><polygon
         id="polygon18"
         points="39.622,76.795 32.819,76.795 32.819,47.917 32.687,47.917 25.95,68.325 22.549,68.325 15.88,47.917 15.747,47.917 15.747,76.795 8.944,76.795 8.944,29.311 15.48,29.311 24.217,54.454 24.35,54.454 33.021,29.311 39.622,29.311 "
         style="fill:#ffffff" /><path
         style="fill:#ffffff"
         inkscape:connector-curvature="0"
         id="path20"
         d="m 46.025,29.311 h 10.937 c 8.003,0 12.004,4.646 12.004,13.938 0,2.758 -0.433,5.125 -1.3,7.103 -0.867,1.979 -2.39,3.567 -4.568,4.769 l 7.335,21.675 H 63.23 L 56.894,56.522 H 52.826 V 76.796 H 46.024 V 29.311 z m 6.802,21.208 h 3.868 c 1.201,0 2.156,-0.167 2.868,-0.5 0.711,-0.333 1.256,-0.811 1.634,-1.434 0.377,-0.623 0.634,-1.391 0.767,-2.301 0.133,-0.912 0.2,-1.969 0.2,-3.168 0,-1.202 -0.067,-2.257 -0.2,-3.167 C 61.831,39.038 61.552,38.26 61.13,37.614 60.707,36.97 60.119,36.492 59.363,36.18 58.606,35.87 57.606,35.714 56.362,35.714 h -3.535 v 14.805 z" /><polygon
         style="fill:#ffffff"
         id="polygon22"
         points="91.44,68.325 88.039,68.325 81.371,47.917 81.237,47.917 81.237,76.795 74.435,76.795 74.435,29.311 80.97,29.311 89.707,54.454 89.839,54.454 98.51,29.311 105.112,29.311 105.112,76.795 98.31,76.795 98.31,47.917 98.176,47.917 " /><path
         id="path24"
         d="m 133.122,66.19 c 0,1.467 -0.278,2.869 -0.834,4.201 -0.556,1.334 -1.322,2.501 -2.3,3.503 -0.978,0.998 -2.124,1.801 -3.434,2.4 -1.312,0.599 -2.725,0.9 -4.236,0.9 -1.289,0 -2.601,-0.179 -3.934,-0.534 -1.335,-0.356 -2.534,-0.966 -3.601,-1.835 -1.068,-0.867 -1.946,-2.009 -2.635,-3.434 -0.69,-1.423 -1.033,-3.223 -1.033,-5.402 v -26.14 c 0,-1.556 0.266,-3.001 0.8,-4.335 0.533,-1.335 1.289,-2.49 2.268,-3.469 0.977,-0.977 2.144,-1.744 3.5,-2.3 1.356,-0.556 2.856,-0.833 4.502,-0.833 1.555,0 3.002,0.277 4.335,0.833 1.333,0.556 2.49,1.334 3.468,2.335 0.978,1 1.744,2.2 2.3,3.601 0.556,1.4 0.834,2.923 0.834,4.568 v 2.668 h -6.802 v -2.269 c 0,-1.333 -0.378,-2.489 -1.133,-3.467 -0.757,-0.977 -1.78,-1.467 -3.068,-1.467 -1.691,0 -2.813,0.523 -3.369,1.567 -0.556,1.045 -0.834,2.368 -0.834,3.968 v 24.275 c 0,1.38 0.301,2.534 0.901,3.469 0.6,0.935 1.679,1.399 3.235,1.399 0.444,0 0.922,-0.075 1.434,-0.232 0.511,-0.155 0.977,-0.411 1.4,-0.768 0.422,-0.355 0.767,-0.844 1.034,-1.466 0.267,-0.624 0.4,-1.401 0.4,-2.335 v -2.335 h 6.802 v 2.934 z"
         inkscape:connector-curvature="0"
         style="fill:#ffffff" /><path
         id="path26"
         d="m 138.657,29.311 h 10.07 c 3.868,0 6.824,1.079 8.87,3.235 2.045,2.156 3.067,5.168 3.067,9.035 V 63.79 c 0,4.445 -1.079,7.726 -3.234,9.835 -2.156,2.114 -5.258,3.17 -9.303,3.17 h -9.47 V 29.311 z m 6.802,41.081 h 3.135 c 1.91,0 3.268,-0.476 4.068,-1.434 0.801,-0.955 1.2,-2.456 1.2,-4.502 V 41.581 c 0,-1.866 -0.377,-3.311 -1.132,-4.334 -0.759,-1.022 -2.136,-1.533 -4.137,-1.533 h -3.135 v 34.678 z"
         inkscape:connector-curvature="0"
         style="fill:#ffffff" /><polygon
         id="polygon28"
         points="167.4,34.313 174.202,29.31 181.006,29.31 181.006,76.795 174.202,76.795 174.202,36.513 167.4,41.515 "
         style="fill:#ffffff" /><polygon
         id="polygon30"
         points="212.883,69.726 209.615,69.726 209.615,76.795 202.813,76.795 202.813,69.726 189.275,69.726 189.275,63.323 199.079,29.311 206.281,29.311 196.077,63.323 202.813,63.323 202.813,49.786 209.615,49.786 209.615,63.323 212.883,63.323 "
         style="fill:#ffffff" /></g><g
       id="g4706"
       style="filter:url(#filter4574)"><polygon
         id="polygon32"
         points="-0.556,85.738 -14.447,88.519 -15.479,76.081 -1.589,73.304 "
         style="fill:#be1622" /><polygon
         id="polygon34"
         points="13.008,83.025 -0.882,85.803 -1.915,73.368 11.975,70.59 "
         style="fill:#ffffff" /><polygon
         id="polygon36"
         points="26.569,80.314 12.678,83.092 11.645,70.657 25.536,67.879 "
         style="fill:#be1622" /><polygon
         id="polygon38"
         points="40.133,77.602 26.243,80.379 25.21,67.945 39.1,65.166 "
         style="fill:#ffffff" /><polygon
         id="polygon40"
         points="53.697,74.887 39.806,77.667 38.774,65.231 52.664,62.454 "
         style="fill:#be1622" /><polygon
         id="polygon42"
         points="67.261,72.175 53.37,74.954 52.337,62.519 66.228,59.739 "
         style="fill:#ffffff" /><polygon
         id="polygon44"
         points="80.816,69.464 66.926,72.241 65.893,59.806 79.783,57.028 "
         style="fill:#be1622" /><polygon
         id="polygon46"
         points="94.38,66.752 80.49,69.53 79.458,57.093 93.347,54.315 "
         style="fill:#ffffff" /><polygon
         id="polygon48"
         points="107.945,64.037 94.054,66.816 93.021,54.382 106.912,51.603 "
         style="fill:#be1622" /><polygon
         id="polygon50"
         points="121.509,61.325 107.618,64.104 106.585,51.669 120.476,48.89 "
         style="fill:#ffffff" /><polygon
         id="polygon52"
         points="135.068,58.614 121.178,61.393 120.146,48.956 134.036,46.179 "
         style="fill:#be1622" /><polygon
         id="polygon54"
         points="148.634,55.9 134.743,58.678 133.71,46.243 147.6,43.466 "
         style="fill:#ffffff" /><polygon
         id="polygon56"
         points="162.197,53.188 148.307,55.966 147.274,43.53 161.164,40.751 "
         style="fill:#be1622" /><polygon
         id="polygon58"
         points="175.763,50.475 161.871,53.253 160.838,40.818 174.729,38.04 "
         style="fill:#ffffff" /><polygon
         id="polygon60"
         points="189.282,47.777 175.393,50.554 174.359,38.12 188.25,35.342 "
         style="fill:#be1622" /><polygon
         id="polygon62"
         points="202.847,45.063 188.955,47.842 187.923,35.408 201.813,32.629 "
         style="fill:#ffffff" /><polygon
         id="polygon64"
         points="216.411,42.352 202.521,45.13 201.486,32.693 215.378,29.916 "
         style="fill:#be1622" /><polygon
         id="polygon66"
         points="229.975,39.639 216.084,42.416 215.051,29.981 228.942,27.204 "
         style="fill:#ffffff" /><polygon
         id="polygon68"
         points="243.536,36.927 229.645,39.705 228.61,27.27 242.502,24.491 "
         style="fill:#be1622" /><polygon
         id="polygon70"
         points="257.1,34.214 243.209,36.992 242.176,24.557 256.066,21.778 "
         style="fill:#ffffff" /><polygon
         id="polygon72"
         points="270.663,31.5 256.772,34.279 255.74,21.843 269.631,19.065 "
         style="fill:#be1622" /><polygon
         id="polygon74"
         points="284.229,28.788 270.337,31.565 269.304,19.13 283.195,16.352 "
         style="fill:#ffffff" /><polygon
         id="polygon76"
         points="297.783,26.077 283.892,28.854 282.858,16.419 296.749,13.641 "
         style="fill:#be1622" /><polygon
         id="polygon78"
         points="311.347,23.364 297.456,26.142 296.423,13.707 310.314,10.929 "
         style="fill:#ffffff" /></g><g
       id="g4751"
       style="filter:url(#filter4574)"><polygon
         id="polygon196"
         points="12.631,99.122 26.746,97.937 26.365,110.409 12.249,111.595 "
         style="fill:#ffffff" /><polygon
         id="polygon198"
         points="26.416,97.963 40.531,96.778 40.149,109.249 26.033,110.438 "
         style="fill:#be1622" /><polygon
         id="polygon200"
         points="40.2,96.806 54.315,95.617 53.934,108.09 39.817,109.278 "
         style="fill:#ffffff" /><polygon
         id="polygon202"
         points="53.976,95.646 68.09,94.459 67.708,106.932 53.592,108.12 "
         style="fill:#be1622" /><polygon
         id="polygon204"
         points="67.759,94.486 81.875,93.3 81.492,105.771 67.376,106.959 "
         style="fill:#ffffff" /><polygon
         id="polygon206"
         points="81.543,93.327 95.659,92.141 95.277,104.613 81.161,105.8 "
         style="fill:#be1622" /><polygon
         id="polygon208"
         points="95.327,92.169 109.442,90.981 109.061,103.454 94.945,104.641 "
         style="fill:#ffffff" /><polygon
         id="polygon210"
         points="109.107,91.009 123.223,89.821 122.841,102.294 108.725,103.482 "
         style="fill:#be1622" /><polygon
         id="polygon212"
         points="122.891,89.851 137.008,88.662 136.625,101.135 122.509,102.321 "
         style="fill:#ffffff" /><polygon
         id="polygon214"
         points="136.675,88.69 150.791,87.504 150.409,99.975 136.293,101.163 "
         style="fill:#be1622" /><polygon
         id="polygon216"
         points="150.461,87.531 164.576,86.343 164.193,98.815 150.077,100.004 "
         style="fill:#ffffff" /><polygon
         id="polygon218"
         points="164.199,86.382 178.314,85.195 177.933,97.668 163.816,98.854 "
         style="fill:#be1622" /><polygon
         id="polygon220"
         points="177.982,85.223 192.099,84.035 191.717,96.507 177.601,97.695 "
         style="fill:#ffffff" /><polygon
         id="polygon222"
         points="191.767,84.064 205.883,82.877 205.5,95.35 191.386,96.535 "
         style="fill:#be1622" /><polygon
         id="polygon224"
         points="205.551,82.903 219.666,81.717 219.284,94.189 205.169,95.376 "
         style="fill:#ffffff" /><polygon
         id="polygon226"
         points="219.33,81.745 233.446,80.558 233.065,93.03 218.95,94.217 "
         style="fill:#be1622" /><polygon
         id="polygon228"
         points="233.116,80.585 247.23,79.399 246.85,91.872 232.733,93.058 "
         style="fill:#ffffff" /><polygon
         id="polygon230"
         points="246.9,79.427 261.016,78.238 260.634,90.711 246.518,91.899 "
         style="fill:#be1622" /><polygon
         id="polygon232"
         points="260.685,78.266 274.799,77.08 274.418,89.554 260.302,90.738 "
         style="fill:#ffffff" /><polygon
         id="polygon234"
         points="274.459,77.109 288.573,75.922 288.193,88.393 274.076,89.58 "
         style="fill:#be1622" /><polygon
         id="polygon236"
         points="288.243,75.948 302.358,74.762 301.977,87.234 287.861,88.421 "
         style="fill:#ffffff" /><polygon
         id="polygon238"
         points="302.027,74.791 316.144,73.603 315.761,86.075 301.645,87.263 "
         style="fill:#be1622" /></g><polygon
       points="-15.153,76.017 -19.23,76.831 -19.23,89.473 -14.12,88.45 "
       id="polygon434"
       style="fill:#ffffff" /><polygon
       points="-19.229,35.583 -12.289,34.907 -12.073,22.431 -19.229,23.13 "
       id="polygon436"
       style="fill:#ffffff" /><polygon
       points="315.43,86.103 322.678,85.492 322.678,73.054 315.811,73.63 "
       id="polygon440"
       style="fill:#ffffff" /><polygon
       points="322.678,21.098 311.02,23.43 310.96,22.713 310.587,24.89 322.678,25.559 "
       id="polygon442"
       style="fill:#ffffff" /><g
       id="g4679"
       style="filter:url(#filter4574)"><polygon
         style="fill:#be1622"
         id="polygon286"
         points="-16.943,60.778 -2.818,61.858 -5.246,74.912 -19.371,73.833 " /><polygon
         style="fill:#ffffff"
         id="polygon288"
         points="-3.149,61.832 10.975,62.912 8.546,75.965 -5.579,74.887 " /><polygon
         style="fill:#be1622"
         id="polygon290"
         points="10.639,62.886 24.764,63.967 22.335,77.021 8.21,75.94 " /><polygon
         style="fill:#ffffff"
         id="polygon292"
         points="24.432,63.94 38.556,65.021 36.127,78.075 22.003,76.996 " /><polygon
         style="fill:#be1622"
         id="polygon294"
         points="38.224,64.995 52.348,66.075 49.92,79.129 35.795,78.05 " /><polygon
         style="fill:#ffffff"
         id="polygon296"
         points="52.017,66.049 66.141,67.128 63.713,80.185 49.588,79.104 " /><polygon
         style="fill:#be1622"
         id="polygon298"
         points="65.8,67.103 79.924,68.182 77.496,81.236 63.372,80.157 " /><polygon
         style="fill:#ffffff"
         id="polygon300"
         points="79.593,68.156 93.718,69.237 91.289,82.292 77.165,81.211 " /><polygon
         style="fill:#be1622"
         id="polygon302"
         points="93.386,69.212 107.51,70.291 105.082,83.346 90.957,82.267 " /><polygon
         style="fill:#ffffff"
         id="polygon304"
         points="107.177,70.266 121.301,71.345 118.874,84.399 104.75,83.32 " /><polygon
         style="fill:#be1622"
         id="polygon306"
         points="120.966,71.319 135.091,72.398 132.663,85.453 118.538,84.374 " /><polygon
         style="fill:#ffffff"
         id="polygon308"
         points="134.759,72.376 148.884,73.454 146.456,86.509 132.331,85.428 " /><polygon
         style="fill:#be1622"
         id="polygon310"
         points="148.551,73.43 162.676,74.508 160.248,87.563 146.123,86.483 " /><polygon
         style="fill:#ffffff"
         id="polygon312"
         points="162.345,74.482 176.469,75.563 174.041,88.616 159.916,87.537 " /><polygon
         style="fill:#be1622"
         id="polygon314"
         points="176.097,75.488 190.222,76.568 187.794,89.622 173.67,88.543 " /><polygon
         style="fill:#ffffff"
         id="polygon316"
         points="189.89,76.542 204.014,77.622 201.587,90.676 187.462,89.597 " /><polygon
         style="fill:#be1622"
         id="polygon318"
         points="203.683,77.596 217.807,78.676 215.378,91.731 201.254,90.652 " /><polygon
         style="fill:#ffffff"
         id="polygon320"
         points="217.475,78.651 231.599,79.729 229.171,92.785 215.047,91.707 " /><polygon
         style="fill:#be1622"
         id="polygon322"
         points="231.263,79.705 245.389,80.783 242.96,93.839 228.835,92.761 " /><polygon
         style="fill:#ffffff"
         id="polygon324"
         points="245.057,80.759 259.182,81.837 256.752,94.895 242.627,93.814 " /><polygon
         style="fill:#be1622"
         id="polygon326"
         points="258.849,81.814 272.973,82.894 270.544,95.948 256.42,94.868 " /><polygon
         style="fill:#ffffff"
         id="polygon328"
         points="272.642,82.868 286.766,83.947 284.338,97.002 270.214,95.924 " /><polygon
         style="fill:#be1622"
         id="polygon330"
         points="286.424,83.922 300.549,85.001 298.121,98.056 283.997,96.978 " /><polygon
         style="fill:#ffffff"
         id="polygon332"
         points="300.217,84.976 314.342,86.055 311.914,99.112 297.79,98.031 " /><polygon
         style="fill:#be1622"
         id="polygon446"
         points="311.581,99.085 322.678,99.934 322.678,86.693 314.009,86.029 " /></g><polygon
       points="-16.751,60.795 -19.371,60.595 -19.371,73.835 -19.18,73.851 "
       id="polygon472"
       style="fill:#ffffff" /><g
       id="g3501"
       style="stroke:none;filter:url(#filter4574)"
       transform="translate(0,15.596384)"><polygon
         id="polygon244"
         points="147.347,3.436 145.239,15.733 131.094,14.95 133.203,2.652 "
         style="fill:#be1622;stroke:none" /><polygon
         id="polygon246"
         points="161.16,4.2 159.051,16.498 144.906,15.715 147.016,3.417 "
         style="fill:#ffffff;stroke:none" /><polygon
         id="polygon248"
         points="174.925,4.969 172.817,17.267 158.672,16.483 160.781,4.185 "
         style="fill:#be1622;stroke:none" /><polygon
         id="polygon250"
         points="188.736,5.732 186.628,18.03 172.483,17.248 174.592,4.949 "
         style="fill:#ffffff;stroke:none" /><polygon
         id="polygon252"
         points="202.549,6.496 200.439,18.795 186.297,18.013 188.404,5.714 "
         style="fill:#be1622;stroke:none" /><polygon
         id="polygon254"
         points="216.358,7.26 214.25,19.558 200.107,18.776 202.216,6.478 "
         style="fill:#ffffff;stroke:none" /><polygon
         id="polygon256"
         points="230.168,8.024 228.061,20.323 213.916,19.54 216.023,7.241 "
         style="fill:#be1622;stroke:none" /><polygon
         id="polygon258"
         points="243.979,8.789 241.871,21.088 227.727,20.304 229.835,8.006 "
         style="fill:#ffffff;stroke:none" /><polygon
         id="polygon260"
         points="257.791,9.553 255.682,21.851 241.538,21.069 243.647,8.77 "
         style="fill:#be1622;stroke:none" /><polygon
         id="polygon262"
         points="271.603,10.317 269.493,22.616 255.351,21.833 257.459,9.535 "
         style="fill:#ffffff;stroke:none" /><polygon
         id="polygon264"
         points="285.405,11.081 283.297,23.379 269.152,22.596 271.262,10.298 "
         style="fill:#be1622;stroke:none" /><polygon
         id="polygon266"
         points="299.217,11.846 297.108,24.144 282.965,23.36 285.073,11.063 "
         style="fill:#ffffff;stroke:none" /><polygon
         id="polygon268"
         points="313.029,12.609 310.92,24.908 296.775,24.125 298.886,11.826 "
         style="fill:#be1622;stroke:none" /><polygon
         id="polygon474"
         points="8.866,-4.25 6.758,8.048 -7.386,7.265 -5.277,-5.033 "
         style="fill:#be1622;stroke:none" /><polygon
         id="polygon476"
         points="22.68,-3.485 20.571,8.813 6.426,8.029 8.535,-4.269 "
         style="fill:#ffffff;stroke:none" /><polygon
         id="polygon478"
         points="36.49,-2.721 34.382,9.577 20.237,8.793 22.346,-3.504 "
         style="fill:#be1622;stroke:none" /><polygon
         id="polygon480"
         points="50.303,-1.957 48.194,10.341 34.049,9.559 36.159,-2.74 "
         style="fill:#ffffff;stroke:none" /><polygon
         id="polygon482"
         points="64.068,-1.188 61.96,11.11 47.815,10.327 49.924,-1.972 "
         style="fill:#be1622;stroke:none" /><polygon
         id="polygon484"
         points="77.879,-0.424 75.771,11.874 61.626,11.091 63.735,-1.208 "
         style="fill:#ffffff;stroke:none" /><polygon
         id="polygon486"
         points="91.692,0.339 89.583,12.638 75.44,11.856 77.547,-0.443 "
         style="fill:#be1622;stroke:none" /><polygon
         id="polygon488"
         points="105.501,1.104 103.393,13.401 89.25,12.62 91.359,0.321 "
         style="fill:#ffffff;stroke:none" /><polygon
         id="polygon490"
         points="119.311,1.868 117.204,14.167 103.059,13.383 105.167,1.084 "
         style="fill:#be1622;stroke:none" /><polygon
         id="polygon492"
         points="133.122,2.632 131.014,14.931 116.87,14.147 118.978,1.849 "
         style="fill:#ffffff;stroke:none" /></g><g
       id="g4732"
       style="filter:url(#filter4574)"
       transform="translate(-6,0)"><polygon
         id="polygon272"
         points="18.869,96.007 16.959,108.337 2.804,107.784 4.714,95.451 "
         style="fill:#be1622" /><polygon
         id="polygon274"
         points="32.692,96.548 30.782,108.878 16.626,108.324 18.536,95.994 "
         style="fill:#ffffff" /><polygon
         id="polygon276"
         points="46.504,97.088 44.594,109.418 30.439,108.865 32.348,96.533 "
         style="fill:#be1622" /><polygon
         id="polygon278"
         points="60.327,97.629 58.416,109.961 44.262,109.405 46.171,97.075 "
         style="fill:#ffffff" /><polygon
         id="polygon280"
         points="74.149,98.169 72.239,110.502 58.084,109.946 59.994,97.616 "
         style="fill:#be1622" /><polygon
         id="polygon282"
         points="87.971,98.71 86.061,111.042 71.907,110.488 73.815,98.156 "
         style="fill:#ffffff" /><polygon
         id="polygon284"
         points="101.79,99.252 99.879,111.583 85.725,111.027 87.633,98.697 "
         style="fill:#be1622" /><polygon
         id="polygon498"
         points="115.625,99.807 113.716,112.139 99.562,111.586 101.47,99.253 "
         style="fill:#ffffff" /><polygon
         id="polygon500"
         points="129.448,100.349 127.538,112.679 113.383,112.126 115.293,99.793 "
         style="fill:#be1622" /><polygon
         id="polygon502"
         points="143.271,100.89 141.361,113.22 127.206,112.666 129.115,100.336 "
         style="fill:#ffffff" /><polygon
         id="polygon504"
         points="157.083,101.43 155.173,113.76 141.018,113.207 142.927,100.875 "
         style="fill:#be1622" /><polygon
         id="polygon506"
         points="170.906,101.971 168.995,114.303 154.841,113.747 156.75,101.417 "
         style="fill:#ffffff" /><polygon
         id="polygon508"
         points="184.729,102.511 182.818,114.844 168.663,114.288 170.572,101.958 "
         style="fill:#be1622" /><polygon
         id="polygon510"
         points="198.551,103.052 196.641,115.384 182.486,114.83 184.395,102.498 "
         style="fill:#ffffff" /><polygon
         id="polygon512"
         points="212.369,103.594 210.459,115.925 196.304,115.369 198.213,103.039 "
         style="fill:#be1622" /><polygon
         id="polygon514"
         points="226.471,104.13 224.561,116.462 210.406,115.908 212.314,103.576 "
         style="fill:#ffffff" /><polygon
         id="polygon516"
         points="240.289,104.672 238.379,117.003 224.224,116.447 226.133,104.117 "
         style="fill:#be1622" /></g><text
       xml:space="preserve"
       style="font-size:40px;font-style:normal;font-variant:normal;font-weight:normal;font-stretch:normal;line-height:125%;letter-spacing:0px;word-spacing:0px;fill:#000000;fill-opacity:1;stroke:none;font-family:DINMittelschrift;-inkscape-font-specification:DINMittelschrift"
       x="52.083023"
       y="91.934273"
       id="text3310"
       sodipodi:linespacing="125%"
       transform="matrix(0.2888219,0,0,0.2888219,-1.8996743,-62.907337)"><tspan
         sodipodi:role="line"
         id="tspan3312"
         x="52.083023"
         y="91.934273"
         style="fill:#ffffff;fill-opacity:1" /></text>
</g></svg>