<?xml version="1.0" encoding="UTF-8" standalone="no"?>
<!-- Created with Inkscape (http://www.inkscape.org/) -->

<svg
   xmlns:dc="http://purl.org/dc/elements/1.1/"
   xmlns:cc="http://creativecommons.org/ns#"
   xmlns:rdf="http://www.w3.org/1999/02/22-rdf-syntax-ns#"
   xmlns:svg="http://www.w3.org/2000/svg"
   xmlns="http://www.w3.org/2000/svg"
   xmlns:xlink="http://www.w3.org/1999/xlink"
   xmlns:sodipodi="http://sodipodi.sourceforge.net/DTD/sodipodi-0.dtd"
   xmlns:inkscape="http://www.inkscape.org/namespaces/inkscape"
   width="1920"
   height="1080"
   viewBox="0 0 1920.0001 1080"
   id="svg2"
   version="1.1"
   inkscape:version="0.92.2 5c3e80d, 2017-08-06"
   sodipodi:docname="background.svg">
  <defs
     id="defs4">
    <pattern
       inkscape:collect="always"
       xlink:href="#pattern9690"
       id="pattern1555"
       patternTransform="matrix(0.76707073,0,0,0.8025577,-1441.6812,-372.21671)" />
    <pattern
       inkscape:collect="always"
       xlink:href="#pattern9690"
       id="pattern1553"
       patternTransform="matrix(0.43015251,0,0,0.43015251,-1728.6835,-713.29173)" />
    <pattern
       inkscape:collect="always"
       xlink:href="#pattern9679"
       id="pattern9684"
       patternTransform="translate(-1400,-463.89457)" />
    <pattern
       patternUnits="userSpaceOnUse"
       width="399.99998"
       height="216.25652"
       patternTransform="translate(-1411.3028,-553.62504)"
       id="pattern9679">
      <path
         sodipodi:nodetypes="cscscccccscscscccccscccccssssscscscsccccccscsscccsscscscccccscsscccsscccc"
         inkscape:connector-curvature="0"
         style="color:#000000;text-indent:0;text-transform:none;block-progression:tb;fill:#ffffff;enable-background:accumulate"
         d="m 181.10259,0 c -29.7734,0 -53.8262,24.053917 -53.8262,53.826334 0,12.272618 4.0868,23.567897 10.9768,32.613096 14.9468,-17.299778 37.007,-28.285157 61.6372,-28.285157 12.0504,0 23.4774,2.68336 33.7734,7.387939 0.8334,-3.770139 1.2662,-7.690979 1.2662,-11.715358 0.028,-29.771077 -24.05,-53.82631400006 -53.821,-53.82631400006 z m -70.293,24.908137 c -15.504996,0 -27.969995,12.569519 -27.969995,28.073277 0,5.019999 1.2952,9.763539 3.5884,13.826058 9.356399,-5.278019 20.173395,-8.338039 31.662195,-8.338039 1.109,0 2.177,0.045 3.272,0.1058 -0.124,-1.5718 -0.212,-3.1461 -0.212,-4.749319 0,-8.635999 1.876,-16.852718 5.1718,-24.275098 -4.4376,-2.975759 -9.7546,-4.643919 -15.515,-4.643919 z m 132.7728,19.314358 c -1.1454,0 -2.2498,0.1408 -3.3774,0.21102 0.4878,3.075879 0.8446,6.181739 0.8446,9.393259 0,4.998319 -0.6362,9.821258 -1.7946,14.459358 13.58359,7.517199 24.86399,18.765058 32.29539,32.401238 7.709,-4.013282 16.3088,-6.565281 25.436,-7.176841 -2.3522,-27.585937 -25.2064,-49.289174 -53.40519,-49.289174 z m -43.6952,20.053377 c -41.6612,0 -75.3574,33.693756 -75.3574,75.357398 0,41.66094 33.6938,75.35737 75.3574,75.35737 41.6634,0 75.35719,-33.69907 75.35719,-75.35737 0,-41.663642 -33.69619,-75.357398 -75.35719,-75.357398 z m -81.7964,0.31662 c -32.321795,0 -58.471994,26.149537 -58.471994,58.472098 0,19.027 9.0656,35.87098 23.113999,46.54512 5.9224,-11.42292 17.817595,-19.20894 31.556195,-19.20894 1.6604,0 3.2542,0.2013 4.855,0.42216 -0.5026,-3.65546 -0.7388,-7.3951 -0.7388,-11.18772 0,-18.13284 5.9024,-34.90158 15.9372,-48.444261 -6.007,-7.516119 -10.3052,-16.547298 -12.1378,-26.385777 -1.3578,-0.094 -2.734,-0.21102 -4.1162,-0.21102 z m 183.23519,34.827416 c -9.8144,0 -19.0076,2.505602 -27.1252,6.754882 4.609,10.20932 7.177,21.53689 7.177,33.45806 0,22.31984 -8.974,42.588 -23.5362,57.30934 10.6982,11.8769 26.2198,19.31433 43.4834,19.31433 32.3218,0 58.4722,-26.14951 58.4722,-58.47205 0,-32.32258 -26.1498,-58.366182 -58.4722,-58.366182 z M 53.931997,107.12461 C 24.158399,107.12461 0,131.07204 0,160.84501 c 0,29.7729 24.158399,53.93225 53.931997,53.93225 11.332399,0 21.830198,-3.53068 30.502398,-9.49893 -3.5836,-5.56828 -5.6996,-12.22522 -5.6996,-19.31438 0,-3.67952 0.543,-7.21446 1.583,-10.55444 -16.234799,-11.73254 -26.806998,-30.82526 -26.806998,-52.34836 0,-5.46898 0.7206,-10.75704 2.0054,-15.83164 -0.5334,-0.016 -1.0462,-0.1056 -1.5832,-0.1056 z m 316.516383,46.2273 c -1.5882,0 -3.1252,0.181 -4.644,0.42216 0.084,1.34258 0.106,2.64706 0.106,4.01064 0,17.16762 -6.7738,32.74816 -17.7312,44.32818 5.3906,6.26886 13.3088,10.23763 22.2694,10.23763 16.322,0 29.5514,-13.12467 29.5514,-29.44529 0,-16.3219 -13.2302,-29.55124 -29.5514,-29.55124 z m -256.15299,3.16622 c -16.321196,0 -29.447795,13.1255 -29.447795,29.44528 0,16.32112 13.125199,29.55125 29.447795,29.55125 12.5102,0 23.129,-7.80619 27.44,-18.78675 -10.5218,-10.71656 -18.0838,-24.38822 -21.4252,-39.57912 -1.9554,-0.40434 -3.9398,-0.63328 -6.016,-0.63328 z"
         id="path4275" />
    </pattern>
    <pattern
       patternUnits="userSpaceOnUse"
       width="500"
       height="315.99999"
       patternTransform="translate(-1450.0001,-513.63806)"
       id="pattern9690">
      <g
         id="g9686"
         transform="translate(1450,513.638)">
        <rect
           style="opacity:1;fill:#1d2d44;fill-opacity:1;stroke:none;stroke-width:10;stroke-linecap:round;stroke-linejoin:round;stroke-miterlimit:4;stroke-dasharray:none;stroke-dashoffset:0;stroke-opacity:1"
           id="rect4136-3"
           width="500.00003"
           height="316.00003"
           x="-1450.0001"
           y="-513.63806" />
        <rect
           style="fill:url(#pattern9684);stroke:none"
           width="400"
           height="216.25655"
           x="-1400.0001"
           y="-463.89459"
           id="rect9682" />
      </g>
    </pattern>
  </defs>
  <sodipodi:namedview
     id="base"
     pagecolor="#ffffff"
     bordercolor="#666666"
     borderopacity="1.0"
     inkscape:pageopacity="0.0"
     inkscape:pageshadow="2"
     inkscape:zoom="0.24041631"
     inkscape:cx="937.57953"
     inkscape:cy="703.79806"
     inkscape:document-units="px"
     inkscape:current-layer="layer1"
     showgrid="false"
     units="px"
     showguides="true"
     inkscape:guide-bbox="true"
     inkscape:snap-bbox="true"
     inkscape:snap-nodes="true"
     inkscape:snap-page="true"
     inkscape:window-width="1600"
     inkscape:window-height="845"
     inkscape:window-x="0"
     inkscape:window-y="0"
     inkscape:window-maximized="1">
    <sodipodi:guide
       position="960.00005,636.36364"
       orientation="1,0"
       id="guide4172"
       inkscape:label=""
       inkscape:color="rgb(0,0,255)"
       inkscape:locked="false" />
  </sodipodi:namedview>
  <metadata
     id="metadata7">
    <rdf:RDF>
      <cc:Work
         rdf:about="">
        <dc:format>image/svg+xml</dc:format>
        <dc:type
           rdf:resource="http://purl.org/dc/dcmitype/StillImage" />
        <dc:title />
      </cc:Work>
    </rdf:RDF>
  </metadata>
  <g
     inkscape:label="Layer 1"
     inkscape:groupmode="layer"
     id="layer1"
     transform="translate(0,27.637963)">
    <rect
       style="opacity:1;fill:#1d2d44;fill-opacity:1;stroke:none;stroke-width:10;stroke-linecap:round;stroke-linejoin:round;stroke-miterlimit:4;stroke-dasharray:none;stroke-dashoffset:0;stroke-opacity:1"
       id="fixedbg"
       width="1920.0001"
       height="1080.0001"
       x="0"
       y="-27.638023"
       inkscape:export-xdpi="96"
       inkscape:export-ydpi="96" />
    <rect
       style="opacity:0.33000004;fill:url(#pattern1553);fill-opacity:1;stroke:none;stroke-width:1;stroke-linecap:round;stroke-linejoin:round;stroke-miterlimit:4;stroke-dasharray:none;stroke-opacity:1"
       id="movingbg"
       width="3041.595"
       height="1950.0869"
       x="-554.07294"
       y="-514.18964" />
    <rect
       style="fill:url(#pattern1555);stroke:none;stroke-width:0.78461361"
       width="383.5354"
       height="253.60826"
       x="-1441.6813"
       y="-372.21671"
       id="rect9695" />
    <g
       id="g1579"
       inkscape:export-xdpi="96"
       inkscape:export-ydpi="96">
      <rect
         y="-27.637976"
         x="1518.0001"
         height="400"
         width="390"
         id="rect4163"
         style="opacity:1;fill:#1d2d44;fill-opacity:1;stroke:none;stroke-width:1.05559719;stroke-linecap:round;stroke-linejoin:round;stroke-miterlimit:4;stroke-dasharray:none;stroke-opacity:1" />
      <g
         transform="translate(24.9999)"
         id="g1571">
        <path
           id="oclogo"
           d="m 1723.7991,20.489109 c -13.49,0 -24.387,10.89784 -24.387,24.386473 0,5.560226 1.852,10.677647 4.973,14.775657 6.772,-7.837831 16.767,-12.814842 27.926,-12.814842 5.459,0 10.636,1.21572 15.301,3.347171 0.377,-1.708091 0.574,-3.484461 0.574,-5.30774 0.01,-13.488039 -10.897,-24.386479 -24.385,-24.386479 z m -31.847,11.28484 c -7.025,0 -12.672,5.694731 -12.672,12.718839 0,2.274369 0.586,4.423449 1.625,6.26402 4.239,-2.391251 9.14,-3.777621 14.345,-3.777621 0.503,0 0.986,0.0204 1.483,0.0479 -0.06,-0.71212 -0.1,-1.42536 -0.1,-2.151725 0,-3.912612 0.849,-7.635268 2.343,-10.998034 -2.011,-1.348199 -4.42,-2.103965 -7.029,-2.103965 z m 60.154,8.750542 c -0.519,0 -1.02,0.06372 -1.531,0.09564 0.221,1.393566 0.383,2.800692 0.383,4.255698 0,2.264529 -0.288,4.449609 -0.813,6.55094 6.154,3.40573 11.265,8.501671 14.632,14.679653 3.492,-1.81825 7.389,-2.97445 11.524,-3.25153 -1.066,-12.498043 -11.42,-22.33088 -24.196,-22.33088 z m -19.797,9.085346 c -18.875,0 -34.141,15.265255 -34.141,34.141327 0,18.874856 15.265,34.141326 34.141,34.141326 18.876,0 34.141,-15.26767 34.141,-34.141326 0,-18.876072 -15.266,-34.141327 -34.141,-34.141327 z m -37.059,0.14345 c -14.643,0 -26.491,11.847285 -26.491,26.491295 0,8.620352 4.107,16.251662 10.472,21.087672 2.683,-5.17525 8.073,-8.70279 14.297,-8.70279 0.752,0 1.474,0.0912 2.2,0.19128 -0.228,-1.65614 -0.335,-3.35041 -0.335,-5.0687 0,-8.215232 2.674,-15.812462 7.22,-21.948082 -2.721,-3.405253 -4.669,-7.496904 -5.499,-11.954325 -0.615,-0.0426 -1.238,-0.0956 -1.865,-0.0956 z m 83.017,15.778865 c -4.447,0 -8.612,1.13519 -12.289,3.06037 2.088,4.62541 3.251,9.75747 3.251,15.158452 0,10.11219 -4.066,19.294856 -10.663,25.964496 4.847,5.38094 11.879,8.75054 19.7,8.75054 14.644,0 26.492,-11.84727 26.492,-26.491296 0,-14.644002 -11.848,-26.443282 -26.492,-26.443282 z m -112.084,3.49069 c -13.49,0 -24.435,10.84959 -24.435,24.338482 0,13.488886 10.945,24.434496 24.435,24.434496 5.134,0 9.89,-1.59961 13.819,-4.30358 -1.623,-2.52277 -2.582,-5.53874 -2.582,-8.75056 0,-1.66704 0.246,-3.26857 0.717,-4.781776 -7.355,-5.31554 -12.145,-13.96564 -12.145,-23.716882 0,-2.47776 0.326,-4.87357 0.908,-7.17266 -0.241,-0.007 -0.474,-0.0479 -0.717,-0.0479 z m 143.4,20.943672 c -0.719,0 -1.415,0.082 -2.104,0.19127 0.04,0.60826 0.05,1.19927 0.05,1.81705 0,7.77794 -3.068,14.836846 -8.033,20.083276 2.442,2.84016 6.03,4.63825 10.09,4.63825 7.394,0 13.388,-5.94626 13.388,-13.34046 0,-7.394776 -5.994,-13.388436 -13.388,-13.388436 z m -116.052,1.43448 c -7.395,0 -13.342,5.94663 -13.342,13.340446 0,7.39443 5.947,13.38845 13.342,13.38845 5.668,0 10.479,-3.53665 12.432,-8.5115 -4.767,-4.85523 -8.193,-11.049296 -9.707,-17.931676 -0.886,-0.18319 -1.785,-0.2869 -2.726,-0.2869 z m 146.652,11.237076 v 26.4433 h -14.01 c -9.158,0 -16.592,7.48167 -16.592,16.64046 0,9.15735 7.434,16.59245 16.592,16.59245 h 4.065 1.387 c 2.686,0 5.369,-1.30488 7.507,-3.29941 2.137,-1.99453 3.769,-4.7573 3.825,-7.84203 0.1,-5.29465 0,-20.70486 0,-20.70486 v -0.66945 -27.1597 h -2.773 z m -128.1,11.95433 v 36.57971 c 0,6.14787 5.041,11.14144 11.189,11.14144 v -2.77344 c -4.652,0 -8.416,-3.71605 -8.416,-8.368 v -34.8589 c -0.965,-0.519 -1.861,-1.12139 -2.773,-1.72141 z m -27.735,3.39505 c -4.912,4.68709 -7.985,11.2864 -7.985,18.60127 0,14.19243 11.534,25.72568 25.726,25.72568 v -2.77345 c -12.695,0 -22.953,-10.25631 -22.953,-22.95247 0,-6.82863 2.981,-12.96606 7.699,-17.16605 -0.882,-0.40623 -1.699,-0.88204 -2.487,-1.4345 z m -32.659,10.99804 c -9.159,0 -16.592,7.43391 -16.592,16.59246 v 15.34924 h 2.773 v -15.34924 c 0,-7.66227 6.157,-13.86725 13.819,-13.86725 7.664,0 13.868,6.20474 13.868,13.86725 v 15.34924 h 2.773 v -15.34924 c 0,-9.15867 -7.481,-16.59246 -16.64,-16.59246 z m 93.1,0.0956 c -9.159,0 -16.592,7.4813 -16.592,16.64046 0,9.15915 7.433,16.64045 16.592,16.64045 9.159,0 16.641,-7.4813 16.641,-16.64045 0,-9.15916 -7.482,-16.64046 -16.641,-16.64046 z m -185.149,0.0477 c -9.158,0 -16.64,7.43427 -16.64,16.59246 0,9.15842 7.482,16.59245 16.64,16.59245 9.159,0 16.593,-7.43427 16.593,-16.59245 0,-9.15843 -7.434,-16.59246 -16.593,-16.59246 z m 24.914,1.2432 v 20.80087 c 0,6.1481 4.994,11.14144 11.141,11.14144 4.19,0 7.886,-2.31637 9.803,-5.73806 1.903,3.42169 5.566,5.73806 9.754,5.73806 6.148,0 11.19,-4.99334 11.19,-11.14144 v -20.80087 h -2.774 v 20.80087 c 0,4.6517 -3.764,8.36798 -8.416,8.36798 -4.652,0 -8.368,-3.71628 -8.368,-8.36798 v -20.80087 h -2.773 v 20.80087 c 0,4.65194 -3.762,8.36798 -8.416,8.36798 -4.65,0 -8.368,-3.71628 -8.368,-8.36798 v -20.80087 z m 184.14,0 v 15.34926 c 0,9.15734 7.434,16.59245 16.593,16.59245 9.159,0 16.64,-7.43511 16.64,-16.59245 v -15.34926 h -2.773 v 15.34926 c 0,7.66046 -6.205,13.81924 -13.867,13.81924 -7.663,0 -13.82,-6.15866 -13.82,-13.81924 v -15.34926 z m -23.908,1.48237 c 7.662,0 13.867,6.20426 13.867,13.86725 0,7.66274 -6.204,13.86724 -13.867,13.86724 -7.663,0 -13.82,-6.20426 -13.82,-13.86724 0,-7.66275 6.157,-13.86725 13.82,-13.86725 z m 81.385,0 h 14.01 c 0.01,1.83253 0.09,14.45525 0,19.27086 -0.04,2.14296 -1.214,4.29314 -2.917,5.88158 -1.702,1.58833 -3.905,2.53429 -5.642,2.53429 h -5.451 c -7.662,0 -13.82,-6.15866 -13.82,-13.81924 0,-7.66227 6.158,-13.86725 13.82,-13.86725 z m -266.533,0.0479 c 7.662,0 13.819,6.15722 13.819,13.81925 0,7.66202 -6.157,13.81924 -13.819,13.81924 -7.662,0 -13.867,-6.15722 -13.867,-13.81924 0,-7.66203 6.205,-13.81925 13.867,-13.81925 z"
           style="color:#000000;text-indent:0;text-transform:none;fill:#f6f7f6;fill-opacity:1;enable-background:accumulate"
           inkscape:connector-curvature="0" />
        <text
           xml:space="preserve"
           style="font-style:normal;font-weight:normal;font-size:40.13301849px;line-height:125%;font-family:sans-serif;letter-spacing:0px;word-spacing:0px;fill:#f6f7f6;fill-opacity:1;stroke:none;stroke-width:1.00332546px;stroke-linecap:butt;stroke-linejoin:miter;stroke-opacity:1"
           x="1692.5688"
           y="217.7332"
           id="text1602"><tspan
             sodipodi:role="line"
             id="tspan1600"
             x="1692.5688"
             y="217.7332"
             style="font-style:normal;font-variant:normal;font-weight:bold;font-stretch:normal;font-size:53.51068878px;font-family:sans-serif;-inkscape-font-specification:'sans-serif Bold';text-align:center;text-anchor:middle;stroke-width:1.00332546px">Conference</tspan><tspan
             sodipodi:role="line"
             x="1692.5688"
             y="271.83948"
             id="tspan1604"
             style="font-style:normal;font-variant:normal;font-weight:bold;font-stretch:normal;font-size:53.51068878px;font-family:sans-serif;-inkscape-font-specification:'sans-serif Bold';text-align:center;text-anchor:middle;stroke-width:1.00332546px">2018</tspan></text>
      </g>
    </g>
  </g>
</svg>
