<?xml version="1.0" encoding="UTF-8" standalone="no"?>
<!-- Created with Inkscape (http://www.inkscape.org/) -->

<svg
   xmlns:dc="http://purl.org/dc/elements/1.1/"
   xmlns:cc="http://creativecommons.org/ns#"
   xmlns:rdf="http://www.w3.org/1999/02/22-rdf-syntax-ns#"
   xmlns:svg="http://www.w3.org/2000/svg"
   xmlns="http://www.w3.org/2000/svg"
   xmlns:sodipodi="http://sodipodi.sourceforge.net/DTD/sodipodi-0.dtd"
   xmlns:inkscape="http://www.inkscape.org/namespaces/inkscape"
   width="1920"
   height="1080"
   viewBox="0 0 1920 1080"
   id="svg2"
   version="1.1"
   inkscape:version="0.92.2 5c3e80d, 2017-08-06"
   sodipodi:docname="intro.svg">
  <defs
     id="defs4" />
  <sodipodi:namedview
     id="base"
     pagecolor="#ffffff"
     bordercolor="#666666"
     borderopacity="1.0"
     inkscape:pageopacity="0"
     inkscape:pageshadow="2"
     inkscape:zoom="0.35613138"
     inkscape:cx="881.60932"
     inkscape:cy="570.27793"
     inkscape:document-units="px"
     inkscape:current-layer="layer2"
     showgrid="false"
     units="px"
     inkscape:window-width="1596"
     inkscape:window-height="852"
     inkscape:window-x="0"
     inkscape:window-y="26"
     inkscape:window-maximized="0"
     showguides="true"
     inkscape:guide-bbox="true">
    <sodipodi:guide
       position="21.429,710"
       orientation="0,1"
       id="guide6027"
       inkscape:label=""
       inkscape:color="rgb(0,0,255)"
       inkscape:locked="false" />
    <sodipodi:guide
       position="-50,340"
       orientation="0,1"
       id="guide6053"
       inkscape:label=""
       inkscape:color="rgb(0,0,255)"
       inkscape:locked="false" />
    <sodipodi:guide
       position="1050,1056.6196"
       orientation="1,0"
       id="guide6055"
       inkscape:label=""
       inkscape:color="rgb(0,0,255)"
       inkscape:locked="false" />
  </sodipodi:namedview>
  <metadata
     id="metadata7">
    <rdf:RDF>
      <cc:Work
         rdf:about="">
        <dc:format>image/svg+xml</dc:format>
        <dc:type
           rdf:resource="http://purl.org/dc/dcmitype/StillImage" />
        <dc:title />
      </cc:Work>
    </rdf:RDF>
  </metadata>
  <g
     inkscape:groupmode="layer"
     id="layer2"
     inkscape:label="Background">
    <rect
       style="color:#000000;display:inline;overflow:visible;visibility:visible;opacity:1;fill:#1d2d44;fill-opacity:1;fill-rule:nonzero;stroke:none;stroke-width:23.29999924;stroke-linecap:butt;stroke-linejoin:round;stroke-miterlimit:4;stroke-dasharray:none;stroke-dashoffset:0;stroke-opacity:1;marker:none;enable-background:accumulate"
       id="background"
       width="1920"
       height="1080"
       x="0"
       y="0" />
    <flowRoot
       xml:space="preserve"
       id="title"
       style="font-style:normal;font-variant:normal;font-weight:normal;font-stretch:normal;line-height:0.01%;font-family:'Alte Haas Grotesk';-inkscape-font-specification:'Alte Haas Grotesk';letter-spacing:0px;word-spacing:0px;fill:#f6f7f6;fill-opacity:1;stroke:none;stroke-width:1px;stroke-linecap:butt;stroke-linejoin:miter;stroke-opacity:1"
       transform="matrix(0.99999414,0,0,0.99999414,-132.39476,-502.6769)"><flowRegion
         id="flowRegion6021"
         style="fill:#f6f7f6;fill-opacity:1"><rect
           id="rect6023"
           width="1002.3"
           height="344.10919"
           x="180"
           y="528.57141"
           style="fill:#f6f7f6;fill-opacity:1" /></flowRegion><flowPara
         id="flowPara6025"
         style="font-style:normal;font-variant:normal;font-weight:bold;font-stretch:normal;font-size:53.33333206px;line-height:1.25;font-family:sans-serif;-inkscape-font-specification:'sans-serif Bold';fill:#f6f7f6;fill-opacity:1">$title</flowPara></flowRoot>    <flowRoot
       xml:space="preserve"
       id="subtitle"
       style="font-style:normal;font-variant:normal;font-weight:normal;font-stretch:normal;line-height:0.01%;font-family:'Alte Haas Grotesk';-inkscape-font-specification:'Alte Haas Grotesk';letter-spacing:0px;word-spacing:0px;fill:#f6f7f6;fill-opacity:1;stroke:none;stroke-width:1px;stroke-linecap:butt;stroke-linejoin:miter;stroke-opacity:1"
       transform="translate(-132.14844,-146.98193)"><flowRegion
         id="flowRegion6021-5"
         style="fill:#f6f7f6;fill-opacity:1"><rect
           id="rect6023-0"
           width="1004.86"
           height="358.41086"
           x="180"
           y="528.57141"
           style="fill:#f6f7f6;fill-opacity:1" /></flowRegion><flowPara
         id="flowPara6025-8"
         style="font-style:normal;font-variant:normal;font-weight:normal;font-stretch:normal;font-size:40px;line-height:1.25;font-family:sans-serif;-inkscape-font-specification:sans-serif;fill:#f6f7f6;fill-opacity:1">$subtitle</flowPara></flowRoot>    <flowRoot
       xml:space="preserve"
       id="persons"
       style="font-style:normal;font-variant:normal;font-weight:normal;font-stretch:normal;line-height:0.01%;font-family:'Alte Haas Grotesk';-inkscape-font-specification:'Alte Haas Grotesk';letter-spacing:0px;word-spacing:0px;fill:#f6f7f6;fill-opacity:1;stroke:none;stroke-width:1px;stroke-linecap:butt;stroke-linejoin:miter;stroke-opacity:1"
       transform="translate(-132.86458,227.6693)"><flowRegion
         id="flowRegion6021-5-5"
         style="fill:#f6f7f6;fill-opacity:1"><rect
           id="rect6023-0-6"
           width="1004.9"
           height="299.82205"
           x="180"
           y="528.57141"
           style="fill:#f6f7f6;fill-opacity:1" /></flowRegion><flowPara
         id="flowPara6025-8-5"
         style="font-style:normal;font-variant:normal;font-weight:normal;font-stretch:normal;font-size:53.33333206px;line-height:1.25;font-family:sans-serif;-inkscape-font-specification:sans-serif;fill:#f6f7f6;fill-opacity:1">$persons</flowPara></flowRoot>    <flowRoot
       xml:space="preserve"
       id="id"
       style="font-style:normal;font-variant:normal;font-weight:normal;font-stretch:normal;line-height:0.01%;font-family:'Alte Haas Grotesk';-inkscape-font-specification:'Alte Haas Grotesk';letter-spacing:0px;word-spacing:0px;fill:#f6f7f6;fill-opacity:1;stroke:none;stroke-width:1px;stroke-linecap:butt;stroke-linejoin:miter;stroke-opacity:1"
       transform="translate(667.85156,433.05211)"><flowRegion
         id="flowRegion6021-5-5-3"
         style="fill:#f6f7f6;fill-opacity:1"><rect
           id="rect6023-0-6-7"
           width="194.87685"
           height="106.53619"
           x="180"
           y="528.57141"
           style="fill:#f6f7f6;fill-opacity:1" /></flowRegion><flowPara
         id="flowPara6025-8-5-6"
         style="font-style:normal;font-variant:normal;font-weight:normal;font-stretch:normal;font-size:40px;line-height:1.25;font-family:sans-serif;-inkscape-font-specification:sans-serif;fill:#f6f7f6;fill-opacity:1">$id</flowPara></flowRoot>    <g
       transform="matrix(0.5705275,0,0,0.57052806,936.32541,-41.982105)"
       id="logo"
       style="fill:#f6f7f6;fill-opacity:1">
      <g
         id="Typo"
         style="fill:#f6f7f6;fill-opacity:1">
        <path
           inkscape:connector-curvature="0"
           id="path2726"
           d="m 1581.3,844.8 h -25.1 c -43.7,0 -79.3,-37.2 -79.3,-83 0,-45.8 35.6,-83 79.3,-83 h 63.1 V 551.5 h 16.9 v 135.7 c 0,3.6 0.7,75.8 0,101.4 -0.4,14.1 -7.1,28.5 -18.3,39.5 -10.6,10.4 -24.3,16.7 -36.6,16.7 z m -25.1,-149.1 c -34.4,0 -62.4,29.6 -62.4,66.1 0,36.5 28,66.1 62.4,66.1 h 25.1 c 16.3,0 37.4,-18.7 38,-39.7 0.6,-20.3 0.2,-72 0.1,-92.4 z"
           class="st0"
           style="fill:#f6f7f6;fill-opacity:1" />
        <path
           inkscape:connector-curvature="0"
           id="path2728"
           d="m 1365.1,844.8 c -43.7,0 -79.3,-37.2 -79.3,-83 v -75.3 h 16.9 v 75.3 c 0,36.4 28,66.1 62.4,66.1 34.4,0 62.4,-29.6 62.4,-66.1 v -75.3 h 16.9 v 75.3 c 0,45.7 -35.6,83 -79.3,83 z"
           class="st0"
           style="fill:#f6f7f6;fill-opacity:1" />
        <path
           inkscape:connector-curvature="0"
           id="path2730"
           d="M 1039.3,788.3 V 622.1 c -5.8,-3.1 -11.5,-6.5 -16.9,-10.3 v 176.5 c 0,31.1 24.3,56.4 54.2,56.4 v -16.9 c -20.6,0 -37.3,-17.7 -37.3,-39.5 z"
           class="st0"
           style="fill:#f6f7f6;fill-opacity:1" />
        <path
           inkscape:connector-curvature="0"
           id="path2732"
           d="m 872.5,716.7 c 0,-32 13.1,-60.9 34,-81.1 -5.2,-2.4 -10.2,-5.5 -14.8,-9.1 -22.3,23.1 -36.1,55 -36.1,90.2 0,70.2 54.8,127.3 122.1,127.3 v -16.9 c -58,0 -105.2,-49.5 -105.2,-110.4 z"
           class="st0"
           style="fill:#f6f7f6;fill-opacity:1" />
        <path
           inkscape:connector-curvature="0"
           id="path2734"
           d="m 1176.9,844.8 c -43.7,0 -79.3,-37.2 -79.3,-83 0,-45.8 35.6,-83 79.3,-83 43.7,0 79.3,37.2 79.3,83 0,45.8 -35.5,83 -79.3,83 z m 0,-149.1 c -34.4,0 -62.4,29.6 -62.4,66.1 0,36.5 28,66.1 62.4,66.1 34.4,0 62.4,-29.6 62.4,-66.1 0,-36.5 -28,-66.1 -62.4,-66.1 z"
           class="st0"
           style="fill:#f6f7f6;fill-opacity:1" />
        <path
           inkscape:connector-curvature="0"
           id="path2736"
           d="m 822.4,835.5 h -16.9 v -75.3 c 0,-36.4 -28,-66.1 -62.4,-66.1 -34.4,0 -62.4,29.6 -62.4,66.1 v 75.3 h -16.9 v -75.3 c 0,-45.8 35.6,-83 79.3,-83 43.7,0 79.3,37.2 79.3,83 z"
           class="st0"
           style="fill:#f6f7f6;fill-opacity:1" />
        <path
           inkscape:connector-curvature="0"
           id="path2738"
           d="m 573.3,844.8 c -19.2,0 -36.1,-10.5 -45.7,-26.2 -9.6,15.7 -26.5,26.2 -45.7,26.2 -29.9,0 -54.2,-25.3 -54.2,-56.4 V 686.5 h 16.9 v 101.8 c 0,21.8 16.7,39.5 37.3,39.5 20.6,0 37.3,-17.7 37.3,-39.5 V 686.5 h 16.9 v 101.8 c 0,21.8 16.7,39.5 37.3,39.5 20.6,0 37.3,-17.7 37.3,-39.5 V 686.5 h 16.9 v 101.8 c 0,31.1 -24.4,56.5 -54.3,56.5 z"
           class="st0"
           style="fill:#f6f7f6;fill-opacity:1" />
        <path
           inkscape:connector-curvature="0"
           id="path2740"
           d="m 313.6,844.8 c -43.7,0 -79.3,-37.2 -79.3,-83 0,-45.8 35.6,-83 79.3,-83 43.7,0 79.3,37.2 79.3,83 0,45.8 -35.6,83 -79.3,83 z m 0,-149.1 c -34.4,0 -62.4,29.6 -62.4,66.1 0,36.5 28,66.1 62.4,66.1 34.4,0 62.4,-29.6 62.4,-66.1 0,-36.5 -28,-66.1 -62.4,-66.1 z"
           class="st0"
           style="fill:#f6f7f6;fill-opacity:1" />
      </g>
      <path
         inkscape:connector-curvature="0"
         d="m 1078.6,149.8 c -63.9,0 -115.5,53.1 -115.5,118.8 0,27.1 8.8,52 23.6,72 32.1,-38.2 79.4,-62.4 132.3,-62.4 25.9,0 50.4,5.9 72.5,16.3 1.8,-8.3 2.7,-17 2.7,-25.9 -0.1,-65.7 -51.7,-118.8 -115.6,-118.8 z m -150.9,54.9 c -33.3,0 -60,27.7 -60,62 0,11.1 2.8,21.5 7.7,30.5 20.1,-11.6 43.3,-18.4 67.9,-18.4 2.4,0 4.7,0.1 7,0.2 -0.3,-3.5 -0.5,-6.9 -0.5,-10.5 0,-19.1 4,-37.2 11.1,-53.6 -9.4,-6.5 -20.8,-10.2 -33.2,-10.2 z m 285,42.7 c -2.5,0 -4.8,0.3 -7.2,0.5 1,6.8 1.8,13.6 1.8,20.7 0,11 -1.4,21.7 -3.9,31.9 29.2,16.6 53.4,41.4 69.3,71.5 16.5,-8.9 35,-14.5 54.6,-15.8 -5.1,-60.9 -54.1,-108.8 -114.6,-108.8 z m -93.8,44.2 c -89.4,0 -161.7,74.4 -161.7,166.3 0,92 72.3,166.3 161.7,166.3 89.4,0 161.7,-74.4 161.7,-166.3 0,-91.9 -72.3,-166.3 -161.7,-166.3 z m -175.5,0.7 c -69.4,0 -125.5,57.7 -125.5,129.1 0,42 19.5,79.2 49.6,102.7 12.7,-25.2 38.2,-42.4 67.7,-42.4 3.6,0 7,0.4 10.4,0.9 -1.1,-8.1 -1.6,-16.3 -1.6,-24.7 0,-40 12.7,-77 34.2,-106.9 -12.9,-16.6 -22.1,-36.5 -26,-58.2 -2.9,-0.2 -5.9,-0.5 -8.8,-0.5 z m 393.2,76.9 c -21.1,0 -40.8,5.5 -58.2,14.9 9.9,22.5 15.4,47.5 15.4,73.8 0,49.3 -19.3,94 -50.5,126.5 23,26.2 56.3,42.6 93.3,42.6 69.4,0 125.5,-57.7 125.5,-129.1 0,-71.4 -56.2,-128.7 -125.5,-128.7 z m -530.9,17 c -63.9,0 -115.7,52.9 -115.7,118.6 0,65.7 51.8,119 115.7,119 24.3,0 46.8,-7.8 65.5,-21 -7.7,-12.3 -12.2,-27 -12.2,-42.6 0,-8.1 1.2,-15.9 3.4,-23.3 -34.8,-25.9 -57.5,-68 -57.5,-115.5 0,-12.1 1.5,-23.7 4.3,-34.9 -1.3,-0.1 -2.4,-0.3 -3.5,-0.3 z m 679.2,102 c -3.4,0 -6.7,0.4 -10,0.9 0.2,3 0.2,5.8 0.2,8.9 0,37.9 -14.5,72.3 -38.1,97.8 11.6,13.8 28.6,22.6 47.8,22.6 35,0 63.4,-29 63.4,-65 0.1,-36 -28.3,-65.2 -63.3,-65.2 z m -549.7,7 c -35,0 -63.2,29 -63.2,65 0,36 28.2,65.2 63.2,65.2 26.8,0 49.6,-17.2 58.9,-41.5 -22.6,-23.7 -38.8,-53.8 -46,-87.4 -4.2,-0.8 -8.4,-1.3 -12.9,-1.3 z"
         class="st0"
         id="Cloud"
         style="fill:#f6f7f6;fill-opacity:1" />
    </g>
    <flowRoot
       xml:space="preserve"
       id="confname"
       style="font-style:normal;font-weight:normal;font-size:40px;line-height:125%;font-family:sans-serif;letter-spacing:0px;word-spacing:0px;fill:#000000;fill-opacity:1;stroke:none;stroke-width:1px;stroke-linecap:butt;stroke-linejoin:miter;stroke-opacity:1"
       transform="matrix(0.99313023,0,0,0.99313023,-80.609908,-86.697601)"><flowRegion
         id="flowRegion4015"><rect
           id="rect4017"
           width="823.30499"
           height="64.661926"
           x="1155.574"
           y="575.67737" /></flowRegion><flowPara
         id="flowPara4019"
         style="font-size:66.66666412px;fill:#f6f7f6;fill-opacity:1">ownCloud conference 2018</flowPara></flowRoot>    <flowRoot
       xml:space="preserve"
       id="confdate"
       style="font-style:normal;font-weight:normal;font-size:40px;line-height:125%;font-family:sans-serif;letter-spacing:0px;word-spacing:0px;fill:#000000;fill-opacity:1;stroke:none;stroke-width:1px;stroke-linecap:butt;stroke-linejoin:miter;stroke-opacity:1"
       transform="matrix(1.8449467,0,0,1.8449467,-1063.9321,-520.28206)"><flowRegion
         id="flowRegion4015-6"><rect
           id="rect4017-6"
           width="444.13516"
           height="59.809845"
           x="1155.574"
           y="575.67737" /></flowRegion><flowPara
         id="flowPara4019-8"
         style="font-size:26.85112762px;fill:#f6f7f6;fill-opacity:1">September 18 - 21, 2018, Nuremberg</flowPara></flowRoot>  </g>
  <g
     inkscape:label="Icons"
     inkscape:groupmode="layer"
     id="layer-icons"
     transform="translate(0,27.637839)"
     style="display:none"
     sodipodi:insensitive="true">
    <g
       id="eat"
       inkscape:label="#g5170">
      <g
         transform="matrix(1,0,0,-1,960.005,512.34716)"
         id="eat-inner">
        <g
           id="g12"
           style="fill:#ffffff;fill-opacity:1">
          <path
             d="m -257.918,69.037 c 0,19.059 14.072,38.346 40.969,38.346 l 258.72,-0.004 c 5.373,19.998 23.656,34.338 45.991,34.338 l 157.858,-0.002 c 6.787,0 12.288,-5.502 12.288,-12.287 0,-6.785 -5.501,-12.289 -12.288,-12.289 l -157.864,0.004 c -15.114,0 -23.023,-11.09 -23.023,-22.05 l -0.002,-12.29 -281.674,0.005 c -12.099,0 -16.391,-7.419 -16.391,-13.771 -0.001,-6.352 4.292,-13.775 16.391,-13.775 l 281.68,-0.005 0,-12.285 c 0,-11.681 11.353,-21.087 20.754,-21.087 l 160.128,-0.002 c 6.787,0 12.289,-5.502 12.289,-12.289 0,-6.784 -5.502,-12.287 -12.289,-12.287 L 85.49,-2.69 c -17.998,0 -37.725,13.216 -43.592,33.372 l -258.842,0.004 c -26.903,0.007 -40.974,19.294 -40.974,38.351 z"
             id="path14"
             style="fill:#ffffff;fill-opacity:1"
             inkscape:connector-curvature="0" />
        </g>
        <g
           id="g16"
           style="fill:#ffffff;fill-opacity:1">
          <path
             d="m -256.946,-103.484 c 0,18.684 14.065,38.551 40.129,38.551 l 153.709,-0.003 0,27.818 264.646,-0.003 c 36.996,-0.002 56.352,-26.321 56.352,-52.316 -0.002,-25.992 -19.358,-52.311 -56.354,-52.31 l -418.354,0.006 c -26.345,0 -40.13,19.243 -40.128,38.257 z m 218.413,41.793 -10e-4,-27.822 -178.28,0.004 c -11.479,0 -15.55,-7.526 -15.55,-13.975 0,-6.621 4.08,-13.682 15.55,-13.682 l 418.35,-0.006 c 21.953,-0.001 31.783,13.932 31.783,27.734 0,13.808 -9.83,27.742 -31.781,27.742 l -240.071,0.005 z"
             id="path18"
             style="fill:#ffffff;fill-opacity:1"
             inkscape:connector-curvature="0" />
        </g>
        <path
           d="m 78.087,90.25 c 0,6.787 5.502,12.285 12.285,12.285 l 155.248,-0.002 c 6.787,0 12.288,-5.499 12.287,-12.285 0,-6.787 -5.5,-12.289 -12.289,-12.289 L 90.371,77.962 c -6.782,0 -12.284,5.501 -12.284,12.288 z"
           id="path20"
           style="fill:#ffffff;fill-opacity:1"
           inkscape:connector-curvature="0" />
        <path
           d="m 78.087,48.113 c 0,6.783 5.502,12.287 12.284,12.287 l 155.247,-0.004 c 6.789,0 12.289,-5.502 12.289,-12.286 0,-6.787 -5.502,-12.288 -12.289,-12.288 L 90.371,35.824 c -6.782,0 -12.286,5.502 -12.284,12.289 z"
           id="path22-2"
           style="fill:#ffffff;fill-opacity:1"
           inkscape:connector-curvature="0" />
      </g>
    </g>
    <g
       id="code"
       inkscape:label="#g5164">
      <g
         style="font-size:medium;font-family:ProstoSans-Bold;opacity:1;fill:#ffffff;fill-opacity:1;stroke:#ffffff;stroke-opacity:1"
         transform="translate(717.25155,401.37325)"
         id="code-inner">
        <path
           id="path4138"
           style="font-size:268.90231323px;font-family:ProstoSans-Bold;fill:#ffffff;fill-opacity:1;stroke:#ffffff;stroke-opacity:1"
           d="m 316.67032,64.180481 0,-23.896593 168.32655,61.054482 0,21.79579 -168.32655,61.05448 0,-23.89659 135.23896,-47.92448 -135.23896,-48.187089 z"
           inkscape:connector-curvature="0" />
        <path
           id="path4136"
           style="font-size:268.90231323px;font-family:ProstoSans-Bold;fill:#ffffff;fill-opacity:1;stroke:#ffffff;stroke-opacity:1"
           d="m 265.59465,0.50000127 22.32099,0 -68.27598,220.97782873 -22.32099,0 68.27598,-220.97782873 z"
           inkscape:connector-curvature="0" />
        <path
           id="path4134"
           style="font-size:268.90231323px;font-family:ProstoSans-Bold;fill:#ffffff;fill-opacity:1;stroke:#ffffff;stroke-opacity:1"
           d="m 168.82658,64.180481 -135.501558,48.187089 135.501558,47.92448 0,23.89659 -168.32654699,-61.05448 0,-21.79579 168.32654699,-61.054482 0,23.896593 z"
           inkscape:connector-curvature="0" />
      </g>
    </g>
    <g
       id="sleep"
       inkscape:label="#g5158">
      <g
         transform="translate(392.14286,238.57143)"
         id="sleep-inner">
        <path
           d="m 363.61614,205.17623 c 0,-10.968 8.891,-19.858 19.858,-19.858 10.967,0 19.858,8.891 19.858,19.858 0,10.967 -8.891,19.858 -19.858,19.858 -10.967,0 -19.858,-8.89 -19.858,-19.858 z"
           id="path12"
           style="fill:none;fill-opacity:1;stroke:#ffffff;stroke-width:37.36399841;stroke-linecap:round;stroke-opacity:1"
           inkscape:connector-curvature="0" />
        <line
           x1="452.92215"
           y1="241.75023"
           x2="770.66412"
           y2="241.75023"
           id="line10"
           style="fill:none;fill-opacity:1;stroke:#ffffff;stroke-width:50;stroke-linecap:round;stroke-opacity:1" />
        <polyline
           points="     264.811,-132.373 264.811,-42.348 -264.759,-42.348 -264.759,-132.373 -264.759,132.41    "
           id="polyline8"
           style="fill:none;fill-opacity:1;stroke:#ffffff;stroke-width:37.36399841;stroke-linecap:round;stroke-linejoin:round;stroke-opacity:1"
           transform="matrix(1,0,0,-1,567.83114,273.80923)" />
      </g>
    </g>
    <g
       id="repeat"
       inkscape:label="#g5149">
      <g
         id="repeat-inner">
        <path
           d="m 1087.366,384.80213 -353.43398,0 c -31.336,0 -56.692,25.357 -56.692,56.693 l 0,141.73303 c 0,31.336 25.357,56.693 56.693,56.693"
           id="path12-3"
           inkscape:connector-curvature="0"
           style="fill:none;fill-opacity:1;stroke:#ffffff;stroke-width:40;stroke-opacity:1" />
        <g
           id="g14"
           style="fill:#ffffff;fill-opacity:1;stroke:#ffffff;stroke-opacity:1"
           transform="matrix(1,0,0,-1,960.01198,512.19516)">
          <polygon
             points="112.765,176.973 199.117,127.119 112.765,77.256 "
             id="polygon16"
             style="fill:#ffffff;fill-opacity:1;stroke:#ffffff;stroke-opacity:1" />
        </g>
        <path
           d="m 832.63502,639.92216 353.43398,0 c 31.336,0 56.691,-25.357 56.691,-56.693 l 0,-141.73203 c 0,-31.336 -25.357,-56.693 -56.693,-56.693"
           id="path22"
           inkscape:connector-curvature="0"
           style="fill:none;fill-opacity:1;stroke:#ffffff;stroke-width:40;stroke-opacity:1"
           sodipodi:nodetypes="csccc" />
        <g
           id="g24"
           style="fill:#ffffff;fill-opacity:1;stroke:#ffffff;stroke-opacity:1"
           transform="matrix(1,0,0,-1,960.01198,512.19516)">
          <polygon
             points="-112.787,-177.307 -199.14,-127.453 -112.787,-77.59 "
             id="polygon26"
             style="fill:#ffffff;fill-opacity:1;stroke:#ffffff;stroke-opacity:1" />
        </g>
      </g>
    </g>
  </g>
  <g
     inkscape:groupmode="layer"
     id="layer3"
     inkscape:label="Text"
     style="display:inline;" />
</svg>
