<?xml version="1.0" encoding="UTF-8" standalone="no"?>
<!-- Created with Inkscape (http://www.inkscape.org/) -->

<svg
   xmlns:dc="http://purl.org/dc/elements/1.1/"
   xmlns:cc="http://creativecommons.org/ns#"
   xmlns:rdf="http://www.w3.org/1999/02/22-rdf-syntax-ns#"
   xmlns:svg="http://www.w3.org/2000/svg"
   xmlns="http://www.w3.org/2000/svg"
   xmlns:xlink="http://www.w3.org/1999/xlink"
   xmlns:sodipodi="http://sodipodi.sourceforge.net/DTD/sodipodi-0.dtd"
   xmlns:inkscape="http://www.inkscape.org/namespaces/inkscape"
   width="1024"
   height="576"
   id="svg2"
   version="1.1"
   inkscape:version="0.91 r13725"
   sodipodi:docname="outro.svg">
  <defs
     id="defs4">
    <linearGradient
       id="linearGradient3811">
      <stop
         id="stop3819"
         offset="0"
         style="stop-color:#fafbff;stop-opacity:1;" />
      <stop
         style="stop-color:#fffbff;stop-opacity:1;"
         offset="1"
         id="stop3815" />
    </linearGradient>
    <radialGradient
       fy="9.7279596"
       fx="1.71676"
       r="0.29498801"
       cy="9.7279596"
       cx="1.71676"
       gradientUnits="userSpaceOnUse"
       id="id12">
      <stop
         id="stop3151"
         style="stop-color:#75C5F0"
         offset="0" />
      <stop
         id="stop3153"
         style="stop-color:#007CC3"
         offset="1" />
    </radialGradient>
    <radialGradient
       fy="2.1879101"
       fx="3.27019"
       r="0.420028"
       cy="2.1879101"
       cx="3.27019"
       xlink:href="#id12"
       gradientUnits="userSpaceOnUse"
       id="id14" />
    <linearGradient
       y2="2.3961301"
       x2="3.27019"
       y1="1.96386"
       x1="3.27019"
       gradientUnits="userSpaceOnUse"
       id="linearGradient3382">
      <stop
         id="stop3384"
         style="stop-opacity:1; stop-color:white"
         offset="0" />
      <stop
         id="stop3386"
         style="stop-opacity:0; stop-color:white"
         offset="1" />
    </linearGradient>
    <mask
       id="id6">
      <linearGradient
         y2="2.3961301"
         x2="3.27019"
         y1="1.96386"
         x1="3.27019"
         gradientUnits="userSpaceOnUse"
         id="id7">
        <stop
           id="stop3128"
           style="stop-opacity:1; stop-color:white"
           offset="0" />
        <stop
           id="stop3130"
           style="stop-opacity:0; stop-color:white"
           offset="1" />
      </linearGradient>
      <rect
         id="rect3132"
         height="0.465563"
         width="0.65544897"
         y="1.94721"
         x="2.9424601"
         style="fill:url(#id7)" />
    </mask>
    <inkscape:perspective
       sodipodi:type="inkscape:persp3d"
       inkscape:vp_x="0 : 0.5 : 1"
       inkscape:vp_y="0 : 1000 : 0"
       inkscape:vp_z="1 : 0.5 : 1"
       inkscape:persp3d-origin="0.5 : 0.33333333 : 1"
       id="perspective3373" />
    <inkscape:perspective
       id="perspective3412"
       inkscape:persp3d-origin="372.04724 : 350.78739 : 1"
       inkscape:vp_z="744.09448 : 526.18109 : 1"
       inkscape:vp_y="0 : 1000 : 0"
       inkscape:vp_x="0 : 526.18109 : 1"
       sodipodi:type="inkscape:persp3d" />
    <radialGradient
       fy="9.7279596"
       fx="1.71676"
       r="0.29498801"
       cy="9.7279596"
       cx="1.71676"
       gradientUnits="userSpaceOnUse"
       id="id12-3">
      <stop
         id="stop3151-0"
         style="stop-color:#75C5F0"
         offset="0" />
      <stop
         id="stop3153-0"
         style="stop-color:#007CC3"
         offset="1" />
    </radialGradient>
    <radialGradient
       fy="2.1879101"
       fx="3.27019"
       r="0.420028"
       cy="2.1879101"
       cx="3.27019"
       xlink:href="#id12-3"
       gradientUnits="userSpaceOnUse"
       id="id14-6" />
    <linearGradient
       y2="2.3961301"
       x2="3.27019"
       y1="1.96386"
       x1="3.27019"
       gradientUnits="userSpaceOnUse"
       id="linearGradient3382-2">
      <stop
         id="stop3384-5"
         style="stop-opacity:1; stop-color:white"
         offset="0" />
      <stop
         id="stop3386-2"
         style="stop-opacity:0; stop-color:white"
         offset="1" />
    </linearGradient>
    <mask
       id="id6-4">
      <linearGradient
         y2="2.3961301"
         x2="3.27019"
         y1="1.96386"
         x1="3.27019"
         gradientUnits="userSpaceOnUse"
         id="id7-2">
        <stop
           id="stop3128-9"
           style="stop-opacity:1; stop-color:white"
           offset="0" />
        <stop
           id="stop3130-9"
           style="stop-opacity:0; stop-color:white"
           offset="1" />
      </linearGradient>
      <rect
         id="rect3132-4"
         height="0.465563"
         width="0.65544897"
         y="1.94721"
         x="2.9424601"
         style="fill:url(#id7-2)" />
    </mask>
    <inkscape:perspective
       sodipodi:type="inkscape:persp3d"
       inkscape:vp_x="0 : 0.5 : 1"
       inkscape:vp_y="0 : 1000 : 0"
       inkscape:vp_z="1 : 0.5 : 1"
       inkscape:persp3d-origin="0.5 : 0.33333333 : 1"
       id="perspective3373-6" />
    <inkscape:perspective
       id="perspective3412-2"
       inkscape:persp3d-origin="372.04724 : 350.78739 : 1"
       inkscape:vp_z="744.09448 : 526.18109 : 1"
       inkscape:vp_y="0 : 1000 : 0"
       inkscape:vp_x="0 : 526.18109 : 1"
       sodipodi:type="inkscape:persp3d" />
  </defs>
  <sodipodi:namedview
     id="base"
     pagecolor="#ffffff"
     bordercolor="#666666"
     borderopacity="1.0"
     inkscape:pageopacity="0.0"
     inkscape:pageshadow="2"
     inkscape:zoom="0.99999995"
     inkscape:cx="557.32096"
     inkscape:cy="108.34401"
     inkscape:document-units="px"
     inkscape:current-layer="layer1"
     showgrid="false"
     inkscape:window-width="1366"
     inkscape:window-height="704"
     inkscape:window-x="0"
     inkscape:window-y="27"
     inkscape:window-maximized="1"
     showguides="true"
     inkscape:guide-bbox="true">
    <sodipodi:guide
       orientation="1,0"
       position="54,576"
       id="guide3846" />
    <sodipodi:guide
       orientation="1,0"
       position="913,541"
       id="guide3848" />
    <sodipodi:guide
       orientation="0,1"
       position="1130.6638,384.66611"
       id="guide3049" />
  </sodipodi:namedview>
  <metadata
     id="metadata7">
    <rdf:RDF>
      <cc:Work
         rdf:about="">
        <dc:format>image/svg+xml</dc:format>
        <dc:type
           rdf:resource="http://purl.org/dc/dcmitype/StillImage" />
        <dc:title />
      </cc:Work>
    </rdf:RDF>
  </metadata>
  <g
     inkscape:label="Ebene 1"
     inkscape:groupmode="layer"
     id="layer1"
     transform="translate(0,-476.36218)">
    <rect
       style="fill:#00a2e1;fill-opacity:1"
       id="rect3809"
       width="1024"
       height="11.549639"
       x="1.0101526"
       y="476.62903" />
    <g
       id="logo"
       transform="matrix(1.3326742,0,0,1.3326742,-126.68825,-284.0427)">
      <path
         class="fil2"
         d="m 294.32513,751.49647 0,16.47056 15.86506,0 c 2.34123,0 4.279,0.80782 5.81305,2.42219 1.53377,1.61465 2.3012,3.55242 2.3012,5.81305 0,2.26036 -0.76725,4.1782 -2.3012,5.75237 -1.53414,1.57425 -3.47218,2.36151 -5.81305,2.36151 l -15.86506,0 0,19.98245 c 0,2.3413 -0.78708,4.2997 -2.36152,5.8738 -1.57425,1.5743 -3.53213,2.3616 -5.87345,2.3616 -2.34159,0 -4.29991,-0.7871 -5.87381,-2.3616 -1.57425,-1.5742 -2.36151,-3.5321 -2.36151,-5.8738 l 0,-60.91602 c 0,-2.09924 0.78798,-3.9968 2.36151,-5.69205 1.57426,-1.69524 3.53213,-2.54327 5.87381,-2.54327 l 32.21419,0 c 2.26035,0 4.17811,0.80782 5.75236,2.42219 1.5739,1.61464 2.36152,3.55242 2.36152,5.81304 0,2.34123 -0.78708,4.27937 -2.36152,5.81305 -1.57389,1.53377 -3.49237,2.30084 -5.75236,2.30084 l -23.97931,0 z m 37.85016,61.15853 c -2.18012,0 -3.99681,-0.7069 -5.44998,-2.1194 -1.45281,-1.4127 -2.42219,-3.2844 -2.42219,-5.6314 l 0,-22.40474 c 0,-3.87608 0.9087,-7.52857 2.48286,-10.95991 1.57426,-3.43097 3.67341,-6.41899 6.29729,-8.96191 2.62379,-2.54327 5.69241,-4.56156 9.20435,-6.05512 3.51193,-1.49329 7.24422,-2.38036 11.20234,-2.48287 2.25928,-0.0586 4.13773,0.76725 5.63138,2.3012 1.49329,1.53378 2.402,3.38662 2.48251,5.57061 0.0805,2.17832 -0.76725,4.017 -2.30084,5.5103 -1.53377,1.49365 -3.43061,2.31751 -5.69205,2.36187 -1.85645,0.0362 -3.59281,0.3435 -5.20755,1.02934 -1.61428,0.6861 -3.02778,1.63493 -4.23888,2.84602 -1.21109,1.2111 -2.17975,2.64408 -2.90634,4.2992 -0.72667,1.65513 -1.0901,3.45189 -1.0901,5.3893 l 0,22.04111 c 0,2.105 -0.94883,3.8353 -2.36152,5.2076 -1.41269,1.3726 -3.29005,2.0588 -5.63137,2.0588 z m 133.92379,-61.15853 c -1.93768,0 -3.57261,0.70684 -4.90479,2.11944 -1.33218,1.41305 -2.03884,3.16906 -2.11944,5.26822 0.0805,1.85681 0.78708,3.45153 2.11944,4.78371 1.33218,1.33217 2.96702,1.99799 4.90479,1.99799 l 8.23533,0 c 2.9873,0 5.87345,0.60587 8.65907,1.81669 2.78535,1.2111 5.26785,2.88651 7.44797,5.02578 2.17976,2.13964 3.91548,4.64243 5.20754,7.50866 1.2917,2.86622 1.93768,5.91384 1.93768,9.14358 0,3.14878 -0.60586,6.13608 -1.81668,8.96191 -1.2111,2.82585 -2.86623,5.28815 -4.96547,7.38725 -2.09916,2.0992 -4.56147,3.7747 -7.3873,5.0259 -2.82583,1.2515 -5.85353,1.9178 -9.0829,1.9983 l -21.55703,0 c -2.42219,0 -4.39999,-0.7871 -5.93413,-2.3615 -1.53413,-1.5746 -2.3012,-3.5322 -2.3012,-5.8738 0,-2.1798 0.78709,-4.077 2.36152,-5.69209 1.57461,-1.61464 3.53249,-2.42183 5.87381,-2.42183 l 21.55703,0 c 1.85671,0 3.51193,-0.68611 4.9651,-2.05913 1.45353,-1.37221 2.18012,-3.02742 2.18012,-4.9651 0,-2.01865 -0.70684,-3.69397 -2.11944,-5.02615 -1.41305,-1.33217 -3.04798,-2.03847 -4.90479,-2.11908 l -8.35632,0 c -3.06818,-0.0809 -6.01509,-0.72667 -8.84083,-1.93768 -2.82583,-1.21109 -5.30834,-2.84602 -7.44798,-4.90479 -2.13963,-2.05912 -3.85516,-4.50115 -5.14686,-7.32698 -1.29206,-2.82583 -1.93768,-5.89401 -1.93768,-9.20435 0,-2.9873 0.60496,-5.89364 1.81632,-8.71948 1.2111,-2.82583 2.88651,-5.32853 5.02615,-7.50865 2.13927,-2.17975 4.62223,-3.93577 7.44797,-5.26822 2.82583,-1.33217 5.85317,-1.99799 9.08291,-1.99799 l 21.55666,0 c 2.18012,0 4.03693,0.78708 5.57097,2.36151 1.53413,1.57426 2.38171,3.53213 2.54328,5.87381 0,2.34123 -0.76725,4.27901 -2.3012,5.81305 -1.53378,1.53377 -3.47146,2.30084 -5.81305,2.30084 l -21.55666,0 z m 80.60041,34.63637 c 2.17976,0 4.07705,0.78708 5.69169,2.36152 1.61501,1.57461 2.4222,3.53213 2.4222,5.87381 0,0.80692 -0.14155,1.57425 -0.42375,2.30084 -0.28219,0.72667 -0.6257,1.49365 -1.02934,2.3012 -2.34132,4.11749 -5.65157,7.40749 -9.93093,9.87019 -4.279,2.4623 -8.88095,3.6936 -13.80594,3.6936 -3.55241,0 -6.98375,-0.706 -10.294,-2.1195 -3.31039,-1.4127 -6.23699,-3.3504 -8.78023,-5.8131 -2.54324,-2.4623 -4.56186,-5.36903 -6.05551,-8.71943 -1.49329,-3.35078 -2.24012,-6.96385 -2.24012,-10.83919 l 0,-22.28325 c 0,-3.63329 0.70594,-7.1051 2.11908,-10.41508 1.41305,-3.31025 3.37102,-6.23724 5.87381,-8.78052 2.50279,-2.54327 5.40949,-4.56155 8.71948,-6.05512 3.31025,-1.49365 6.86266,-2.24043 10.65751,-2.24043 4.84439,0 9.40595,1.23138 13.68486,3.69369 4.27936,2.46268 7.67021,5.87382 10.17301,10.23369 0.32276,0.56529 0.6257,1.25122 0.90834,2.05876 0.2822,0.80692 0.42375,1.57426 0.42375,2.30084 0,2.26072 -0.80692,4.1984 -2.4222,5.81305 -1.61464,1.615 -3.55241,2.42219 -5.81304,2.42219 -1.77621,0 -3.22938,-0.46432 -4.35951,-1.39249 -1.1305,-0.92854 -2.13964,-2.07896 -3.02779,-3.45153 -0.96902,-1.61465 -2.28091,-2.90671 -3.93613,-3.87537 -1.65513,-0.96902 -3.53213,-1.45353 -5.63138,-1.45353 -1.53413,0 -2.96701,0.2831 -4.29919,0.84839 -1.33218,0.56529 -2.5028,1.35237 -3.5123,2.36152 -1.00914,1.00914 -1.81633,2.20004 -2.42183,3.57261 -0.60586,1.37257 -0.90834,2.82583 -0.90834,4.35987 l 0,22.28325 c 0,1.53413 0.30293,2.9873 0.90834,4.35987 0.60586,1.37257 1.41269,2.56347 2.42183,3.57262 1.0095,1.00914 2.18012,1.7964 3.5123,2.36151 1.33218,0.56529 2.76506,0.84839 4.29919,0.84839 2.09916,0 3.95597,-0.48415 5.57097,-1.45353 1.61465,-0.96866 2.94683,-2.26036 3.99645,-3.87536 0.88806,-1.37221 1.81669,-2.5028 2.78535,-3.39086 0.96902,-0.88806 2.54327,-1.33218 4.72339,-1.33218 z m 41.36173,-31.12417 c 3.95633,0 7.7107,0.76725 11.26302,2.30084 3.55242,1.53414 6.66072,3.63329 9.32498,6.29756 2.66463,2.66427 4.78371,5.77265 6.35833,9.32534 1.57425,3.55242 2.36151,7.3873 2.36151,11.50474 0,4.03692 -0.76725,7.81149 -2.3012,11.32333 -1.53377,3.5123 -3.61273,6.60042 -6.23688,9.26472 -2.62378,2.6643 -5.71224,4.7635 -9.26466,6.2975 -3.55242,1.5341 -7.3873,2.3012 -11.5051,2.3012 -4.03656,0 -7.83133,-0.7267 -11.38374,-2.1801 -3.55242,-1.4532 -6.66108,-3.4917 -9.32534,-6.1159 -2.66427,-2.6238 -4.76351,-5.71189 -6.2972,-9.26466 -1.53413,-3.55242 -2.3012,-7.42778 -2.3012,-11.62618 0,-4.03693 0.74651,-7.81114 2.24044,-11.32334 1.49365,-3.51194 3.55241,-6.58011 6.17656,-9.20399 2.62378,-2.62379 5.73217,-4.72303 9.32498,-6.29756 3.59281,-1.57425 7.44797,-2.44211 11.5655,-2.60359 z m 0,15.8647 c -1.85672,0 -3.59244,0.34351 -5.20754,1.02934 -1.61464,0.68611 -3.04762,1.63493 -4.2992,2.84603 -1.25121,1.21109 -2.24043,2.64443 -2.96702,4.29956 -0.72667,1.65476 -1.0901,3.45125 -1.0901,5.38894 0,1.85708 0.36334,3.61309 1.0901,5.26821 0.72668,1.65513 1.71581,3.1083 2.96702,4.35988 1.25158,1.25121 2.68456,2.24043 4.2992,2.96702 1.61501,0.72667 3.35073,1.0901 5.20754,1.0901 1.85708,0 3.61309,-0.36334 5.26822,-1.0901 1.65513,-0.72668 3.0881,-1.7159 4.2992,-2.96702 1.21109,-1.25158 2.18011,-2.70475 2.9067,-4.35988 0.72668,-1.65512 1.08974,-3.41113 1.08974,-5.26821 -0.16138,-3.71389 -1.49329,-6.86267 -3.99644,-9.44607 -2.5028,-2.58375 -5.69205,-3.95632 -9.56742,-4.1178 z m 63.28263,-17.31823 c 3.87537,0 7.58926,0.70684 11.14167,2.11944 3.55242,1.41305 6.66072,3.39086 9.32498,5.93413 2.66427,2.54328 4.804,5.55077 6.41864,9.02259 1.61465,3.47181 2.42226,7.22619 2.42226,11.26266 l 0,22.40464 c 0,2.0993 -0.74658,3.9159 -2.2405,5.45 -1.49365,1.5338 -3.33054,2.3413 -5.51029,2.4218 -2.17976,0 -4.05713,-0.7059 -5.63138,-2.119 -1.57461,-1.4131 -2.36151,-3.2095 -2.36151,-5.3893 l 0,-21.79912 c 0,-1.85708 -0.34351,-3.61309 -1.02934,-5.26822 -0.68611,-1.65512 -1.65513,-3.0881 -2.9067,-4.29919 -1.25158,-1.2111 -2.70475,-2.17976 -4.35988,-2.90635 -1.65512,-0.72667 -3.45153,-1.0901 -5.3893,-1.0901 -1.77621,0 -3.47145,0.3435 -5.08646,1.02934 -1.61464,0.6861 -3.02742,1.59445 -4.23852,2.72494 -1.21109,1.13014 -2.17976,2.5028 -2.9067,4.11744 -0.72668,1.61464 -1.08974,3.31025 -1.08974,5.08646 l 0,22.0412 c 0,2.0991 -0.80782,3.936 -2.4222,5.5103 -1.61464,1.5745 -3.47181,2.3614 -5.57097,2.3614 -2.09915,0 -3.95596,-0.7266 -5.57061,-2.1797 -1.615,-1.4531 -2.42219,-3.2294 -2.42219,-5.3285 l 0,-21.79911 c 0.0805,-4.03692 0.86823,-7.83169 2.36152,-11.3841 1.49365,-3.55242 3.55241,-6.66072 6.17656,-9.32498 2.62379,-2.66427 5.71189,-4.76351 9.26466,-6.29756 3.55242,-1.53413 7.42778,-2.3012 11.62618,-2.3012 z"
         id="path3223"
         style="fill:#00a2e1;fill-rule:nonzero"
         inkscape:connector-curvature="0" />
      <path
         class="fil3"
         d="m 290.82297,823.1245 -5.30397,0 0,3.4008 4.43448,0 c 0.4086,0 0.7182,0.093 0.91881,0.2754 0.2016,0.1854 0.3033,0.4302 0.3033,0.7398 0,0.3096 -0.1017,0.5535 -0.306,0.7335 -0.207,0.1827 -0.5139,0.2718 -0.91593,0.2718 l -4.43448,0 0,4.3788 c 0,0.5535 -0.1269,0.9684 -0.378,1.2376 -0.2502,0.2691 -0.5724,0.4023 -0.96552,0.4023 -0.396,0 -0.7209,-0.1368 -0.97155,-0.4086 -0.2502,-0.2727 -0.3771,-0.684 -0.3771,-1.2316 l 0,-10.2274 c 0,-0.387 0.0588,-0.702 0.1737,-0.9468 0.1143,-0.2448 0.2934,-0.4239 0.5382,-0.5355 0.2448,-0.1116 0.5571,-0.1674 0.93789,-0.1674 l 6.3468,0 c 0.4302,0 0.7488,0.096 0.95598,0.2853 0.207,0.1917 0.3123,0.4392 0.3123,0.7488 0,0.3159 -0.1053,0.5661 -0.3123,0.7587 -0.207,0.189 -0.5256,0.2844 -0.95598,0.2844 z m 4.84902,7.8665 0,2.07 c 0,0.5013 -0.1179,0.8757 -0.3528,1.1264 -0.2349,0.2502 -0.5355,0.378 -0.8973,0.378 -0.3591,0 -0.6498,-0.1269 -0.882,-0.3807 -0.2286,-0.2538 -0.3438,-0.6282 -0.3438,-1.1232 l 0,-6.8914 c 0,-1.1107 0.4023,-1.6677 1.20681,-1.6677 0.4113,0 0.7056,0.1296 0.8883,0.3897 0.1827,0.2601 0.2817,0.6435 0.2997,1.1511 0.2943,-0.5076 0.5976,-0.891 0.9099,-1.1511 0.3123,-0.2601 0.7272,-0.3897 1.24686,-0.3897 0.5202,0 1.02438,0.1296 1.51335,0.3897 0.4887,0.2601 0.7335,0.603 0.7335,1.0335 0,0.2997 -0.1026,0.5508 -0.3123,0.7461 -0.2079,0.198 -0.4329,0.2934 -0.675,0.2934 -0.09,0 -0.3096,-0.056 -0.6561,-0.1665 -0.3501,-0.1116 -0.6561,-0.1674 -0.92196,-0.1674 -0.3618,0 -0.6597,0.096 -0.8883,0.2853 -0.2286,0.1917 -0.4086,0.4734 -0.5355,0.8478 -0.1269,0.3744 -0.2133,0.8199 -0.2628,1.3398 -0.0464,0.5166 -0.0712,1.1451 -0.0712,1.8878 z m 12.12129,-0.8514 -4.83984,0 c 0.006,0.5634 0.1206,1.0584 0.3402,1.4885 0.2196,0.4302 0.5139,0.7515 0.8793,0.9684 0.3654,0.2196 0.7704,0.3285 1.20969,0.3285 0.297,0 0.567,-0.034 0.8109,-0.1053 0.2439,-0.068 0.4824,-0.1764 0.7119,-0.3249 0.2322,-0.1485 0.4428,-0.3069 0.6345,-0.477 0.1953,-0.1701 0.4455,-0.3996 0.7551,-0.6903 0.1269,-0.108 0.3069,-0.1638 0.5418,-0.1638 0.2538,0 0.4608,0.071 0.6183,0.2097 0.1548,0.1395 0.2349,0.3348 0.2349,0.5886 0,0.2232 -0.0897,0.486 -0.2628,0.7857 -0.1764,0.297 -0.4392,0.585 -0.7956,0.8604 -0.3528,0.2754 -0.7947,0.504 -1.33056,0.684 -0.5355,0.1827 -1.15119,0.2727 -1.84428,0.2727 -1.59057,0 -2.82825,-0.4518 -3.71016,-1.3585 -0.882,-0.9068 -1.32453,-2.1384 -1.32453,-3.6919 0,-0.7299 0.108,-1.4112 0.3285,-2.0363 0.2169,-0.6246 0.5346,-1.1604 0.94995,-1.609 0.4176,-0.4455 0.93114,-0.7893 1.54422,-1.0275 0.6093,-0.2385 1.28727,-0.3591 2.02995,-0.3591 0.9684,0 1.79784,0.2043 2.48778,0.6129 0.693,0.4086 1.21005,0.9343 1.55655,1.581 0.3438,0.6471 0.5166,1.3061 0.5166,1.9775 0,0.6219 -0.18,1.0244 -0.5355,1.21 -0.3564,0.1827 -0.8604,0.2754 -1.50696,0.2754 z m -4.83984,-1.4049 4.48686,0 c -0.0588,-0.8451 -0.288,-1.4793 -0.684,-1.8971 -0.396,-0.4203 -0.91593,-0.6309 -1.56258,-0.6309 -0.6192,0 -1.12356,0.2133 -1.51938,0.6372 -0.396,0.4266 -0.6372,1.0584 -0.7209,1.8907 z m 15.8715,1.4049 -4.83984,0 c 0.006,0.5634 0.1206,1.0584 0.3402,1.4885 0.2196,0.4302 0.5139,0.7515 0.8793,0.9684 0.3654,0.2196 0.7704,0.3285 1.20969,0.3285 0.297,0 0.567,-0.034 0.8109,-0.1053 0.2439,-0.068 0.4824,-0.1764 0.7119,-0.3249 0.2322,-0.1485 0.4428,-0.3069 0.6345,-0.477 0.1953,-0.1701 0.4455,-0.3996 0.7551,-0.6903 0.1269,-0.108 0.3069,-0.1638 0.5418,-0.1638 0.2538,0 0.4608,0.071 0.6183,0.2097 0.1548,0.1395 0.2349,0.3348 0.2349,0.5886 0,0.2232 -0.0896,0.486 -0.2628,0.7857 -0.1764,0.297 -0.4392,0.585 -0.7956,0.8604 -0.3528,0.2754 -0.7947,0.504 -1.33056,0.684 -0.5355,0.1827 -1.15119,0.2727 -1.84428,0.2727 -1.59057,0 -2.82825,-0.4518 -3.71016,-1.3585 -0.882,-0.9068 -1.32444,-2.1384 -1.32444,-3.6919 0,-0.7299 0.108,-1.4112 0.3285,-2.0363 0.2169,-0.6246 0.5346,-1.1604 0.94995,-1.609 0.4176,-0.4455 0.93114,-0.7893 1.54422,-1.0275 0.6093,-0.2385 1.28727,-0.3591 2.02995,-0.3591 0.9684,0 1.79784,0.2043 2.48778,0.6129 0.693,0.4086 1.21005,0.9343 1.55655,1.581 0.3438,0.6471 0.5166,1.3061 0.5166,1.9775 0,0.6219 -0.18,1.0244 -0.5355,1.21 -0.3564,0.1827 -0.8604,0.2754 -1.50696,0.2754 z m -4.83984,-1.4049 4.48686,0 c -0.0588,-0.8451 -0.288,-1.4793 -0.684,-1.8971 -0.396,-0.4203 -0.91593,-0.6309 -1.56258,-0.6309 -0.6192,0 -1.12356,0.2133 -1.51938,0.6372 -0.396,0.4266 -0.6372,1.0584 -0.7209,1.8907 z m 19.86345,4.4345 c -0.6003,0.4644 -1.17918,0.8136 -1.73619,1.046 -0.5598,0.2322 -1.18809,0.3501 -1.88154,0.3501 -0.6372,0 -1.19448,-0.1269 -1.67382,-0.378 -0.4797,-0.2502 -0.8514,-0.5877 -1.11123,-1.018 -0.2601,-0.4302 -0.3897,-0.8946 -0.3897,-1.3958 0,-0.6777 0.2133,-1.2532 0.6435,-1.733 0.4302,-0.477 1.01799,-0.7983 1.76985,-0.9591 0.1548,-0.037 0.5445,-0.1179 1.16964,-0.2448 0.6219,-0.1296 1.15443,-0.2448 1.59984,-0.3501 0.4428,-0.108 0.92547,-0.2349 1.44531,-0.387 -0.0312,-0.6534 -0.1611,-1.1329 -0.3933,-1.4362 -0.2349,-0.306 -0.7146,-0.4581 -1.44846,-0.4581 -0.6282,0 -1.1016,0.086 -1.41696,0.2628 -0.3186,0.1764 -0.5913,0.4365 -0.8172,0.7893 -0.2259,0.3501 -0.387,0.5814 -0.4797,0.693 -0.0954,0.1116 -0.297,0.1674 -0.603,0.1674 -0.2781,0 -0.5202,-0.09 -0.7209,-0.2691 -0.2043,-0.1764 -0.3033,-0.405 -0.3033,-0.684 0,-0.4338 0.1512,-0.8568 0.4608,-1.2688 0.3096,-0.4113 0.7893,-0.7488 1.44216,-1.0148 0.6525,-0.2664 1.4634,-0.3996 2.43819,-0.3996 1.08954,0 1.94346,0.1296 2.56536,0.387 0.6219,0.2565 1.06155,0.6624 1.3185,1.2192 0.2565,0.5535 0.387,1.2933 0.387,2.2125 0,0.5787 -0.003,1.074 -0.006,1.4762 -0.003,0.405 -0.006,0.8568 -0.0124,1.3525 0,0.4644 0.0772,0.9499 0.2322,1.4541 0.1548,0.5049 0.2286,0.8298 0.2286,0.9748 0,0.2538 -0.1179,0.486 -0.3555,0.693 -0.2385,0.2079 -0.5103,0.3132 -0.8109,0.3132 -0.2538,0 -0.5049,-0.1206 -0.7515,-0.3591 -0.2511,-0.2385 -0.5103,-0.5814 -0.7893,-1.0364 z m -0.16398,-3.5803 c -0.3618,0.1332 -0.891,0.2727 -1.58139,0.4212 -0.693,0.1485 -1.17279,0.2565 -1.43892,0.3285 -0.2664,0.068 -0.5202,0.2043 -0.7614,0.4086 -0.2421,0.2007 -0.3618,0.4824 -0.3618,0.8451 0,0.3771 0.1422,0.6966 0.4266,0.9592 0.2853,0.2628 0.6561,0.3933 1.11402,0.3933 0.4887,0 0.94077,-0.108 1.35531,-0.3213 0.4149,-0.2133 0.7182,-0.4923 0.91314,-0.8298 0.2223,-0.3744 0.3339,-0.99 0.3339,-1.8503 l 0,-0.3528 z m 7.1883,-3.7195 0,0.2997 c 0.4365,-0.5751 0.91278,-0.9964 1.4265,-1.2656 0.5166,-0.2691 1.11078,-0.4023 1.78227,-0.4023 0.6534,0 1.23489,0.1422 1.74861,0.4266 0.5139,0.2817 0.8973,0.684 1.15119,1.2036 0.1638,0.3033 0.2691,0.6282 0.3186,0.9812 0.0464,0.3501 0.0712,0.7947 0.0712,1.3397 l 0,4.6078 c 0,0.495 -0.1143,0.8694 -0.3402,1.1232 -0.2259,0.2538 -0.5202,0.3807 -0.8847,0.3807 -0.3681,0 -0.6651,-0.1296 -0.8973,-0.3897 -0.2286,-0.2601 -0.3438,-0.6309 -0.3438,-1.114 l 0,-4.1248 c 0,-0.8172 -0.1152,-1.4422 -0.3402,-1.8755 -0.2259,-0.4302 -0.6777,-0.6471 -1.35252,-0.6471 -0.4419,0 -0.8451,0.1296 -1.20681,0.3933 -0.3618,0.2628 -0.6282,0.6246 -0.7947,1.086 -0.1206,0.3681 -0.1827,1.0555 -0.1827,2.0671 l 0,3.1008 c 0,0.5013 -0.1179,0.8757 -0.3501,1.1264 -0.2322,0.2502 -0.5319,0.378 -0.90072,0.378 -0.3591,0 -0.6498,-0.1296 -0.882,-0.3897 -0.2286,-0.2601 -0.3438,-0.6309 -0.3438,-1.114 l 0,-7.1543 c 0,-0.4707 0.1017,-0.8235 0.3096,-1.0551 0.2043,-0.2322 0.486,-0.3501 0.8415,-0.3501 0.2169,0 0.4149,0.052 0.5913,0.1548 0.1737,0.1026 0.3159,0.2565 0.4212,0.4617 0.1053,0.207 0.1575,0.4581 0.1575,0.7515 z m 15.74505,7.2812 0,-0.2448 c -0.3312,0.3807 -0.6597,0.6903 -0.98433,0.9284 -0.3213,0.2385 -0.6741,0.4212 -1.05201,0.5454 -0.3771,0.1233 -0.7893,0.1854 -1.23768,0.1854 -0.5913,0 -1.13877,-0.1269 -1.6434,-0.378 -0.504,-0.2502 -0.94356,-0.6066 -1.31211,-1.0736 -0.3681,-0.4644 -0.6471,-1.012 -0.8379,-1.6402 -0.189,-0.6282 -0.2853,-1.3089 -0.2853,-2.0391 0,-1.5474 0.378,-2.7542 1.13283,-3.6178 0.7551,-0.8631 1.75149,-1.2965 2.98314,-1.2965 0.7146,0 1.3149,0.1233 1.80387,0.3681 0.4887,0.2448 0.96876,0.6192 1.43289,1.1296 l 0,-3.6546 c 0,-0.5076 0.1017,-0.891 0.3033,-1.1511 0.2043,-0.2601 0.4923,-0.3898 0.8667,-0.3898 0.3744,0 0.6624,0.1207 0.8667,0.3592 0.2016,0.2385 0.3033,0.5913 0.3033,1.0551 l 0,10.9141 c 0,0.4707 -0.108,0.8262 -0.3249,1.0616 -0.2196,0.2349 -0.5013,0.3528 -0.8451,0.3528 -0.3375,0 -0.6192,-0.1242 -0.8388,-0.3681 -0.2196,-0.2448 -0.3312,-0.5913 -0.3312,-1.046 z m -4.86778,-3.6358 c 0,0.6714 0.1053,1.2441 0.31229,1.7142 0.207,0.4698 0.495,0.8262 0.85681,1.0645 0.36179,0.2385 0.75869,0.3591 1.18844,0.3591 0.4338,0 0.8325,-0.1143 1.19124,-0.3402 0.3591,-0.2259 0.6471,-0.5724 0.8604,-1.0429 0.2133,-0.4671 0.3213,-1.0523 0.3213,-1.7546 0,-0.6561 -0.108,-1.2256 -0.3213,-1.699 -0.2133,-0.4734 -0.504,-0.8352 -0.8694,-1.086 -0.3654,-0.2511 -0.7677,-0.378 -1.20078,-0.378 -0.4545,0 -0.8604,0.1269 -1.21607,0.3834 -0.3555,0.2565 -0.6309,0.6282 -0.82891,1.1079 -0.1953,0.4797 -0.2943,1.0365 -0.2943,1.6711 z m 20.35241,-8.6925 c 1.38015,0 2.56212,0.2781 3.55248,0.8388 0.98712,0.5598 1.73583,1.3522 2.24361,2.3825 0.5076,1.0304 0.7614,2.2405 0.7614,3.633 0,1.0275 -0.1395,1.9587 -0.4176,2.8006 -0.2781,0.8388 -0.693,1.569 -1.2501,2.1848 -0.5571,0.6156 -1.24083,1.0861 -2.04876,1.4142 -0.8109,0.3249 -1.73907,0.4887 -2.78505,0.4887 -1.03959,0 -1.97118,-0.1674 -2.79423,-0.5049 -0.8199,-0.3339 -1.50696,-0.8073 -2.05758,-1.4173 -0.5508,-0.6093 -0.96552,-1.3462 -1.24722,-2.2032 -0.2817,-0.8568 -0.4212,-1.7855 -0.4212,-2.7818 0,-1.0213 0.1458,-1.9588 0.4392,-2.8098 0.2943,-0.8541 0.7182,-1.5782 1.27521,-2.1756 0.5571,-0.6003 1.23129,-1.058 2.02995,-1.3738 0.7983,-0.3186 1.70505,-0.477 2.7198,-0.477 z m 3.82779,6.8358 c 0,-0.9748 -0.1575,-1.8166 -0.4698,-2.5313 -0.3159,-0.7119 -0.7641,-1.2533 -1.34928,-1.6186 -0.5814,-0.3654 -1.2501,-0.5472 -2.00835,-0.5472 -0.5382,0 -1.03356,0.1017 -1.49139,0.3033 -0.4554,0.2043 -0.8478,0.4986 -1.17918,0.8847 -0.3276,0.387 -0.5877,0.882 -0.7794,1.4821 -0.189,0.6003 -0.2853,1.2781 -0.2853,2.0272 0,0.7551 0.0963,1.4389 0.2853,2.0484 0.1917,0.6102 0.4608,1.1172 0.8073,1.5194 0.3465,0.4023 0.7461,0.7029 1.19763,0.9007 0.4482,0.2007 0.94356,0.2997 1.48212,0.2997 0.6903,0 1.32129,-0.1737 1.8999,-0.5166 0.5787,-0.3429 1.0368,-0.8757 1.37727,-1.5966 0.3429,-0.7182 0.513,-1.603 0.513,-2.655 z m 7.14222,-1.767 0,0.297 c 0.4644,-0.5724 0.94995,-0.9964 1.45134,-1.2657 0.5013,-0.2691 1.07082,-0.4023 1.70505,-0.4023 0.7614,0 1.46376,0.1953 2.10438,0.5877 0.6408,0.3933 1.14804,0.9687 1.51938,1.7238 0.3717,0.7551 0.5571,1.6495 0.5571,2.683 0,0.7614 -0.108,1.4606 -0.3213,2.098 -0.2133,0.6372 -0.5103,1.1728 -0.8847,1.6062 -0.3744,0.4329 -0.8172,0.7641 -1.32768,0.9964 -0.5103,0.2322 -1.06119,0.3501 -1.64619,0.3501 -0.7083,0 -1.30284,-0.1422 -1.78227,-0.4275 -0.4797,-0.2817 -0.93789,-0.6993 -1.37412,-1.2501 l 0,3.7197 c 0,1.0861 -0.396,1.6307 -1.18845,1.6307 -0.4644,0 -0.7731,-0.1395 -0.9252,-0.4212 -0.1512,-0.2817 -0.2259,-0.6903 -0.2259,-1.2285 l 0,-10.682 c 0,-0.4707 0.1017,-0.8235 0.3096,-1.0552 0.2043,-0.2322 0.486,-0.3501 0.8415,-0.3501 0.3501,0 0.6381,0.1206 0.8577,0.3591 0.2196,0.2385 0.3312,0.5814 0.3312,1.0304 z m 4.85217,3.5989 c 0,-0.6534 -0.099,-1.2132 -0.2997,-1.6835 -0.198,-0.4671 -0.477,-0.8262 -0.8298,-1.0768 -0.3528,-0.2511 -0.7452,-0.378 -1.17279,-0.378 -0.684,0 -1.25928,0.2691 -1.72989,0.8082 -0.4671,0.5382 -0.702,1.3273 -0.702,2.3733 0,0.9871 0.2322,1.7515 0.6993,2.2992 0.4644,0.5481 1.04283,0.8199 1.73268,0.8199 0.4086,0 0.792,-0.1206 1.14201,-0.3591 0.3501,-0.2385 0.6318,-0.5967 0.8415,-1.0736 0.2133,-0.477 0.3186,-1.0552 0.3186,-1.7298 z m 11.37546,0.6498 -4.83984,0 c 0.006,0.5634 0.1206,1.0584 0.3402,1.4885 0.2196,0.4302 0.5139,0.7515 0.8793,0.9684 0.3654,0.2196 0.7704,0.3285 1.20969,0.3285 0.297,0 0.567,-0.034 0.8109,-0.1053 0.2439,-0.068 0.4824,-0.1764 0.7119,-0.3249 0.2322,-0.1485 0.4428,-0.3069 0.6345,-0.477 0.1953,-0.1701 0.4455,-0.3996 0.7551,-0.6903 0.1269,-0.108 0.3069,-0.1638 0.5418,-0.1638 0.2538,0 0.4608,0.071 0.6183,0.2097 0.1548,0.1395 0.2349,0.3348 0.2349,0.5886 0,0.2232 -0.0896,0.486 -0.2628,0.7857 -0.1764,0.297 -0.4392,0.585 -0.7956,0.8604 -0.3528,0.2754 -0.7947,0.504 -1.33056,0.684 -0.5355,0.1827 -1.15119,0.2727 -1.84428,0.2727 -1.59057,0 -2.82825,-0.4518 -3.71016,-1.3586 -0.882,-0.9067 -1.32453,-2.1384 -1.32453,-3.6918 0,-0.7299 0.108,-1.4113 0.3285,-2.0363 0.2169,-0.6246 0.5346,-1.1605 0.94995,-1.609 0.4176,-0.4455 0.93123,-0.7893 1.54422,-1.0276 0.6093,-0.2385 1.28727,-0.3591 2.02995,-0.3591 0.9684,0 1.79784,0.2043 2.48778,0.6129 0.693,0.4086 1.21005,0.9344 1.55655,1.5811 0.3438,0.6471 0.5166,1.3061 0.5166,1.9775 0,0.6219 -0.18,1.0243 -0.5355,1.21 -0.3564,0.1827 -0.8604,0.2754 -1.50696,0.2754 z m -4.83984,-1.4049 4.48686,0 c -0.0588,-0.8451 -0.288,-1.4794 -0.684,-1.8971 -0.396,-0.4203 -0.91593,-0.6309 -1.56258,-0.6309 -0.6192,0 -1.12356,0.2133 -1.51938,0.6372 -0.396,0.4266 -0.6372,1.0584 -0.7209,1.8907 z m 11.21418,-2.8655 0,0.2997 c 0.4365,-0.5751 0.91278,-0.9964 1.4265,-1.2657 0.5166,-0.2691 1.11078,-0.4023 1.78227,-0.4023 0.6534,0 1.23489,0.1422 1.74861,0.4266 0.5139,0.2817 0.8973,0.684 1.15119,1.2037 0.1638,0.3033 0.2691,0.6282 0.3186,0.9811 0.0464,0.3501 0.0712,0.7947 0.0712,1.3398 l 0,4.6077 c 0,0.495 -0.1143,0.8694 -0.3402,1.1232 -0.2259,0.2538 -0.5202,0.3807 -0.8847,0.3807 -0.3681,0 -0.6651,-0.1296 -0.8973,-0.3897 -0.2286,-0.2601 -0.3429,-0.6309 -0.3429,-1.114 l 0,-4.1248 c 0,-0.8172 -0.1152,-1.4422 -0.3402,-1.8755 -0.2259,-0.4302 -0.6777,-0.6471 -1.35252,-0.6471 -0.4419,0 -0.8451,0.1296 -1.20681,0.3933 -0.3618,0.2628 -0.6282,0.6246 -0.7947,1.086 -0.1206,0.3681 -0.1827,1.0555 -0.1827,2.0672 l 0,3.1008 c 0,0.5013 -0.1179,0.8757 -0.3501,1.1264 -0.2322,0.2502 -0.5319,0.378 -0.90072,0.378 -0.3591,0 -0.6498,-0.1296 -0.882,-0.3897 -0.2286,-0.2601 -0.3429,-0.6309 -0.3429,-1.114 l 0,-7.1543 c 0,-0.4707 0.1017,-0.8235 0.3096,-1.0551 0.2043,-0.2322 0.486,-0.3501 0.8415,-0.3501 0.2169,0 0.4149,0.052 0.5913,0.1548 0.1737,0.1026 0.3159,0.2565 0.4212,0.4617 0.1053,0.207 0.1575,0.4581 0.1575,0.7515 z m 23.87727,4.4776 c 0,0.8046 -0.207,1.5286 -0.6219,2.1692 -0.4113,0.6408 -1.01799,1.142 -1.81629,1.5038 -0.7983,0.3618 -1.74222,0.5454 -2.83788,0.5454 -1.31175,0 -2.39175,-0.2475 -3.24603,-0.7425 -0.603,-0.3591 -1.09521,-0.8325 -1.47294,-1.4297 -0.3771,-0.594 -0.5661,-1.1728 -0.5661,-1.7362 0,-0.3249 0.1143,-0.6066 0.3402,-0.8379 0.2259,-0.2322 0.513,-0.3501 0.8667,-0.3501 0.2844,0 0.5229,0.093 0.7209,0.2718 0.1953,0.1827 0.3618,0.4518 0.5013,0.8082 0.1701,0.4239 0.3528,0.7767 0.5508,1.0612 0.1953,0.2817 0.4734,0.5166 0.8298,0.7029 0.3555,0.1827 0.8235,0.2754 1.4049,0.2754 0.7983,0 1.44495,-0.1854 1.94319,-0.5571 0.4986,-0.3717 0.7488,-0.8352 0.7488,-1.3925 0,-0.4392 -0.1332,-0.7983 -0.4023,-1.074 -0.2691,-0.2754 -0.6183,-0.486 -1.04283,-0.6282 -0.4266,-0.1458 -0.99639,-0.3006 -1.71108,-0.4644 -0.95319,-0.2232 -1.75464,-0.486 -2.3985,-0.783 -0.6435,-0.2997 -1.15407,-0.7083 -1.5318,-1.2252 -0.3771,-0.5166 -0.5661,-1.1576 -0.5661,-1.9248 0,-0.7308 0.198,-1.3805 0.5976,-1.9494 0.3987,-0.567 0.97758,-1.0028 1.73268,-1.3093 0.7551,-0.306 1.6434,-0.4581 2.66454,-0.4581 0.8163,0 1.52217,0.1017 2.11644,0.3033 0.5976,0.2043 1.08918,0.4698 1.48248,0.8073 0.3933,0.3339 0.6804,0.6867 0.8631,1.0552 0.18,0.3681 0.2727,0.7272 0.2727,1.08 0,0.3186 -0.1143,0.6066 -0.3402,0.8631 -0.2259,0.2565 -0.5103,0.387 -0.8478,0.387 -0.3096,0 -0.5418,-0.077 -0.702,-0.2322 -0.1611,-0.1512 -0.3348,-0.405 -0.5202,-0.7551 -0.2448,-0.5013 -0.5319,-0.8946 -0.8721,-1.1757 -0.3375,-0.2817 -0.882,-0.4212 -1.63098,-0.4212 -0.6966,0 -1.25649,0.1521 -1.68021,0.4581 -0.4266,0.306 -0.6408,0.6714 -0.6408,1.1016 0,0.2664 0.0712,0.495 0.2169,0.6867 0.1458,0.1953 0.3465,0.3618 0.6003,0.5013 0.2538,0.1359 0.5103,0.2475 0.7704,0.3249 0.2601,0.078 0.6867,0.1917 1.28727,0.3438 0.7488,0.1764 1.4265,0.3681 2.03319,0.5814 0.6102,0.2106 1.1232,0.4671 1.55052,0.7704 0.4266,0.2997 0.7578,0.684 0.99639,1.1449 0.2385,0.4644 0.3591,1.0308 0.3591,1.699 z m 11.37825,-0.8136 c 0,0.7371 -0.1143,1.4174 -0.3429,2.0392 -0.2322,0.6219 -0.5634,1.1576 -0.99954,1.6062 -0.4329,0.4455 -0.95319,0.7893 -1.55655,1.0272 -0.6066,0.2385 -1.28412,0.3591 -2.03913,0.3591 -0.7515,0 -1.42335,-0.1206 -2.02392,-0.3618 -0.5967,-0.2412 -1.11402,-0.5886 -1.5534,-1.04 -0.4392,-0.4482 -0.7704,-0.9808 -0.99639,-1.5934 -0.2259,-0.6156 -0.3402,-1.2937 -0.3402,-2.0364 0,-0.7488 0.1143,-1.4357 0.3429,-2.0579 0.2322,-0.6219 0.5598,-1.1541 0.99036,-1.5966 0.4266,-0.4392 0.9468,-0.7803 1.55619,-1.018 0.6129,-0.2385 1.28448,-0.3591 2.02392,-0.3591 0.7488,0 1.4265,0.1206 2.03922,0.3618 0.6102,0.2412 1.13283,0.5877 1.56582,1.0332 0.4365,0.4491 0.7677,0.9812 0.99351,1.597 0.2259,0.6156 0.3402,1.2965 0.3402,2.0391 z m -2.48454,0 c 0,-1.0088 -0.2232,-1.7946 -0.6651,-2.358 -0.4455,-0.5598 -1.03959,-0.8415 -1.78866,-0.8415 -0.486,0 -0.9099,0.1269 -1.27809,0.3771 -0.3681,0.2511 -0.6534,0.6192 -0.8505,1.1079 -0.2016,0.4914 -0.3006,1.0612 -0.3006,1.7143 0,0.6462 0.099,1.21 0.2943,1.6958 0.198,0.4824 0.477,0.8541 0.8415,1.1107 0.3681,0.2565 0.7983,0.3834 1.2933,0.3834 0.7488,0 1.34289,-0.2817 1.78866,-0.8478 0.4428,-0.5634 0.6651,-1.3461 0.6651,-2.3425 z m 10.86165,3.6362 0,-0.3186 c -0.297,0.3744 -0.6066,0.6903 -0.93438,0.9439 -0.3249,0.2538 -0.6813,0.4428 -1.06758,0.5661 -0.387,0.1233 -0.8298,0.1854 -1.32453,0.1854 -0.5976,0 -1.13283,-0.1233 -1.60938,-0.3717 -0.4734,-0.2475 -0.8415,-0.5877 -1.1016,-1.0243 -0.306,-0.5256 -0.4608,-1.2809 -0.4608,-2.2649 l 0,-4.905 c 0,-0.4986 0.1116,-0.8667 0.3339,-1.1108 0.2259,-0.2448 0.5202,-0.3681 0.891,-0.3681 0.3744,0 0.675,0.1233 0.90675,0.3717 0.2295,0.2475 0.3438,0.6156 0.3438,1.1077 l 0,3.961 c 0,0.5724 0.0493,1.0552 0.1449,1.445 0.0963,0.3897 0.2691,0.6966 0.5202,0.9159 0.2511,0.2196 0.5913,0.3312 1.02123,0.3312 0.4149,0 0.8082,-0.1233 1.17603,-0.3717 0.3681,-0.2475 0.6372,-0.5724 0.8073,-0.9715 0.1395,-0.3501 0.2079,-1.1172 0.2079,-2.3025 l 0,-3.0079 c 0,-0.4914 0.1143,-0.8604 0.3429,-1.1076 0.2322,-0.2475 0.5292,-0.3717 0.8973,-0.3717 0.3717,0 0.6651,0.1233 0.891,0.3681 0.2232,0.2448 0.3339,0.6129 0.3339,1.1109 l 0,7.1698 c 0,0.4707 -0.108,0.8235 -0.3213,1.0616 -0.2133,0.2349 -0.4923,0.3528 -0.8298,0.3528 -0.3402,0 -0.6183,-0.1242 -0.8388,-0.3681 -0.2196,-0.2448 -0.3312,-0.5877 -0.3312,-1.0272 z m 7.24428,-2.1784 0,2.07 c 0,0.5013 -0.1179,0.8757 -0.3528,1.1264 -0.2349,0.2502 -0.5355,0.378 -0.8973,0.378 -0.3591,0 -0.6498,-0.1269 -0.882,-0.3807 -0.2286,-0.2538 -0.3438,-0.6282 -0.3438,-1.1232 l 0,-6.8914 c 0,-1.1108 0.4023,-1.6678 1.20681,-1.6678 0.4113,0 0.7056,0.1296 0.8883,0.3897 0.1827,0.2601 0.2817,0.6435 0.2997,1.1512 0.2943,-0.5076 0.5976,-0.891 0.9099,-1.1512 0.3123,-0.2601 0.7272,-0.3897 1.24686,-0.3897 0.5202,0 1.02438,0.1296 1.51335,0.3897 0.4887,0.2601 0.7335,0.603 0.7335,1.0336 0,0.2997 -0.1026,0.5508 -0.3123,0.7461 -0.2079,0.198 -0.4329,0.2934 -0.675,0.2934 -0.09,0 -0.3096,-0.056 -0.6561,-0.1665 -0.3501,-0.1116 -0.6561,-0.1674 -0.92196,-0.1674 -0.3618,0 -0.6597,0.096 -0.8883,0.2853 -0.2286,0.1917 -0.4086,0.4734 -0.5355,0.8478 -0.1269,0.3744 -0.2133,0.8199 -0.2628,1.3397 -0.0464,0.5166 -0.0712,1.1452 -0.0712,1.8879 z m 14.07366,0.5076 c 0,0.3096 -0.0927,0.6372 -0.2781,0.99 -0.1827,0.3501 -0.4644,0.684 -0.8415,1.0028 -0.3771,0.3159 -0.8541,0.5724 -1.42938,0.7641 -0.5724,0.1953 -1.21923,0.2907 -1.93752,0.2907 -1.5318,0 -2.72304,-0.4455 -3.58335,-1.3369 -0.8568,-0.891 -1.28727,-2.0856 -1.28727,-3.5865 0,-1.0148 0.1953,-1.9123 0.5886,-2.6922 0.3933,-0.7794 0.96237,-1.3829 1.70505,-1.8071 0.7452,-0.4266 1.63377,-0.6408 2.66742,-0.6408 0.6408,0 1.2285,0.093 1.76382,0.2817 0.5319,0.1854 0.98721,0.4266 1.35846,0.7245 0.3717,0.297 0.6561,0.6129 0.8505,0.9468 0.198,0.3375 0.297,0.6498 0.297,0.9375 0,0.297 -0.1116,0.5481 -0.3312,0.7551 -0.2232,0.2043 -0.4887,0.3069 -0.8046,0.3069 -0.2043,0 -0.3744,-0.053 -0.5103,-0.1584 -0.1368,-0.1053 -0.288,-0.2781 -0.4581,-0.513 -0.3033,-0.4581 -0.6192,-0.8019 -0.9468,-1.0335 -0.3312,-0.2295 -0.7488,-0.3438 -1.25649,-0.3438 -0.7299,0 -1.32129,0.2853 -1.76706,0.8568 -0.4482,0.5697 -0.6714,1.3525 -0.6714,2.3429 0,0.4671 0.0588,0.8946 0.1737,1.2841 0.1143,0.3897 0.2781,0.7209 0.4986,0.9964 0.2169,0.2754 0.4797,0.4824 0.7893,0.6246 0.3069,0.1422 0.6471,0.2133 1.01511,0.2133 0.495,0 0.91917,-0.1143 1.2717,-0.3438 0.3555,-0.2322 0.6687,-0.5814 0.94077,-1.052 0.1485,-0.2781 0.3123,-0.495 0.4887,-0.6534 0.1737,-0.1575 0.3897,-0.2349 0.6435,-0.2349 0.3033,0 0.5544,0.1143 0.7524,0.3438 0.198,0.2286 0.2997,0.4734 0.2997,0.7335 z m 9.06057,-1.3586 -4.83984,0 c 0.006,0.5634 0.1206,1.0584 0.3402,1.4885 0.2196,0.4302 0.5139,0.7515 0.8793,0.9684 0.3654,0.2196 0.7704,0.3285 1.20969,0.3285 0.297,0 0.567,-0.034 0.8109,-0.1053 0.2439,-0.068 0.4824,-0.1764 0.7119,-0.3249 0.2322,-0.1485 0.4428,-0.3069 0.6345,-0.477 0.1953,-0.1701 0.4455,-0.3996 0.7551,-0.6903 0.1269,-0.108 0.3069,-0.1638 0.5418,-0.1638 0.2538,0 0.4608,0.071 0.6183,0.2097 0.1548,0.1395 0.2349,0.3348 0.2349,0.5886 0,0.2232 -0.0896,0.486 -0.2628,0.7857 -0.1764,0.297 -0.4392,0.585 -0.7956,0.8604 -0.3528,0.2754 -0.7947,0.504 -1.33056,0.684 -0.5355,0.1827 -1.15119,0.2727 -1.84428,0.2727 -1.59057,0 -2.82825,-0.4518 -3.71016,-1.3585 -0.882,-0.9068 -1.32453,-2.1384 -1.32453,-3.6918 0,-0.7299 0.108,-1.4113 0.3285,-2.0364 0.2169,-0.6246 0.5346,-1.1604 0.94995,-1.609 0.4176,-0.4455 0.93114,-0.7893 1.54422,-1.0275 0.6093,-0.2385 1.28727,-0.3591 2.02995,-0.3591 0.9684,0 1.79784,0.2043 2.48778,0.6129 0.693,0.4086 1.21005,0.9344 1.55655,1.581 0.3438,0.6471 0.5166,1.3061 0.5166,1.9775 0,0.6219 -0.18,1.0244 -0.5355,1.2101 -0.3564,0.1826 -0.8604,0.2754 -1.50696,0.2754 z m -4.83984,-1.4049 4.48686,0 c -0.0588,-0.8451 -0.288,-1.4793 -0.684,-1.8971 -0.396,-0.4203 -0.91593,-0.6309 -1.56258,-0.6309 -0.6192,0 -1.12356,0.2133 -1.51938,0.6372 -0.396,0.4266 -0.6372,1.0584 -0.7209,1.8907 z"
         id="path3225"
         style="fill:#838281;fill-rule:nonzero"
         inkscape:connector-curvature="0" />
      <path
         class="fil3"
         d="m 498.72296,830.3479 c 0,0.8046 -0.207,1.5285 -0.6219,2.1691 -0.4113,0.6408 -1.01799,1.142 -1.81629,1.5038 -0.7983,0.3618 -1.74222,0.5454 -2.83779,0.5454 -1.31175,0 -2.39175,-0.2475 -3.24603,-0.7425 -0.603,-0.3591 -1.09521,-0.8325 -1.47294,-1.4297 -0.3771,-0.594 -0.5661,-1.1728 -0.5661,-1.7362 0,-0.3249 0.1143,-0.6066 0.3402,-0.8379 0.2259,-0.2322 0.513,-0.3501 0.8667,-0.3501 0.2844,0 0.5229,0.093 0.7209,0.2718 0.1953,0.1827 0.3618,0.4518 0.5013,0.8082 0.1701,0.4239 0.3528,0.7767 0.5508,1.0612 0.1953,0.2817 0.4734,0.5166 0.8298,0.7029 0.3555,0.1827 0.8235,0.2754 1.4049,0.2754 0.7983,0 1.44495,-0.1854 1.94319,-0.5571 0.4986,-0.3717 0.7488,-0.8352 0.7488,-1.3925 0,-0.4392 -0.1332,-0.7983 -0.4023,-1.0739 -0.2691,-0.2754 -0.6183,-0.486 -1.04283,-0.6282 -0.4266,-0.1458 -0.99639,-0.3006 -1.71108,-0.4644 -0.95319,-0.2232 -1.75464,-0.486 -2.3985,-0.783 -0.6435,-0.2997 -1.15407,-0.7083 -1.5318,-1.2253 -0.3771,-0.5166 -0.5661,-1.1576 -0.5661,-1.9247 0,-0.7308 0.198,-1.3806 0.5976,-1.9495 0.3987,-0.567 0.97758,-1.0028 1.73268,-1.3093 0.7551,-0.306 1.6434,-0.4581 2.66454,-0.4581 0.8163,0 1.52217,0.1017 2.11644,0.3033 0.5976,0.2043 1.08918,0.4698 1.48248,0.8073 0.3933,0.3339 0.6804,0.6867 0.8631,1.0552 0.18,0.3681 0.2727,0.7272 0.2727,1.08 0,0.3186 -0.1143,0.6066 -0.3402,0.8631 -0.2259,0.2565 -0.5103,0.387 -0.8478,0.387 -0.3096,0 -0.5418,-0.077 -0.702,-0.2322 -0.1611,-0.1512 -0.3348,-0.405 -0.5202,-0.7551 -0.2448,-0.5013 -0.5319,-0.8946 -0.8721,-1.1757 -0.3375,-0.2817 -0.882,-0.4212 -1.63098,-0.4212 -0.6966,0 -1.25649,0.1521 -1.68021,0.4581 -0.4266,0.306 -0.6408,0.6714 -0.6408,1.1016 0,0.2664 0.0712,0.495 0.2169,0.6867 0.1458,0.1953 0.3465,0.3618 0.6003,0.5013 0.2538,0.1359 0.5103,0.2475 0.7704,0.3249 0.2601,0.078 0.6867,0.1917 1.28727,0.3438 0.7488,0.1764 1.4265,0.3681 2.03319,0.5814 0.6102,0.2106 1.1232,0.4671 1.55052,0.7704 0.4266,0.2997 0.7578,0.684 0.99639,1.1448 0.2385,0.4644 0.3591,1.0308 0.3591,1.699 z m 11.37825,-0.8136 c 0,0.7371 -0.1143,1.4173 -0.3438,2.0392 -0.2322,0.6219 -0.5634,1.1576 -0.99954,1.6061 -0.4329,0.4455 -0.95319,0.7893 -1.55655,1.0272 -0.6066,0.2385 -1.28412,0.3591 -2.03922,0.3591 -0.7515,0 -1.42335,-0.1206 -2.02392,-0.3618 -0.5967,-0.2412 -1.11402,-0.5886 -1.5534,-1.04 -0.4392,-0.4482 -0.7704,-0.9808 -0.99639,-1.5934 -0.2259,-0.6156 -0.3402,-1.2937 -0.3402,-2.0364 0,-0.7488 0.1143,-1.4357 0.3429,-2.0579 0.2322,-0.6219 0.5598,-1.1541 0.99036,-1.5966 0.4266,-0.4392 0.9468,-0.7803 1.55619,-1.018 0.6129,-0.2385 1.28448,-0.3591 2.02392,-0.3591 0.7488,0 1.4265,0.1206 2.03922,0.3618 0.6102,0.2412 1.13283,0.5877 1.56582,1.0332 0.4365,0.4491 0.7677,0.9812 0.99351,1.597 0.2259,0.6156 0.3402,1.2965 0.3402,2.0391 z m -2.48454,0 c 0,-1.0089 -0.2232,-1.7947 -0.6651,-2.3581 -0.4455,-0.5598 -1.03959,-0.8415 -1.78866,-0.8415 -0.486,0 -0.9099,0.1269 -1.27809,0.3771 -0.3681,0.2511 -0.6534,0.6192 -0.8505,1.108 -0.2016,0.4914 -0.3006,1.0611 -0.3006,1.7142 0,0.6471 0.099,1.21 0.2943,1.6958 0.198,0.4824 0.477,0.8541 0.8415,1.1107 0.3681,0.2565 0.7983,0.3834 1.2933,0.3834 0.7488,0 1.34289,-0.2817 1.78866,-0.8478 0.4428,-0.5634 0.6651,-1.3461 0.6651,-2.3425 z m 4.23639,-4.8119 0.5877,0 0,-0.7425 c 0,-0.774 0.099,-1.3893 0.2943,-1.8475 0.198,-0.4554 0.5292,-0.7893 0.99954,-0.9964 0.4671,-0.207 1.11078,-0.3123 1.92474,-0.3123 1.44495,0 2.16603,0.3528 2.16603,1.0612 0,0.2295 -0.074,0.4239 -0.2259,0.5886 -0.1512,0.1638 -0.3285,0.2448 -0.5355,0.2448 -0.0963,0 -0.2628,-0.019 -0.4986,-0.053 -0.2349,-0.037 -0.4329,-0.056 -0.5976,-0.056 -0.4482,0 -0.7335,0.1332 -0.8604,0.396 -0.1269,0.2628 -0.1917,0.6372 -0.1917,1.1264 l 0,0.5913 0.6066,0 c 0.94356,0 1.41417,0.2844 1.41417,0.8505 0,0.4059 -0.1242,0.6624 -0.3744,0.7704 -0.2502,0.108 -0.5967,0.1638 -1.03959,0.1638 l -0.6066,0 0,6.5541 c 0,0.4887 -0.1179,0.8631 -0.3501,1.1204 -0.2322,0.2565 -0.5319,0.3834 -0.90036,0.3834 -0.3528,0 -0.6435,-0.1269 -0.8757,-0.3834 -0.2322,-0.2565 -0.3501,-0.6318 -0.3501,-1.1204 l 0,-6.5541 -0.6804,0 c -0.3681,0 -0.6534,-0.084 -0.8514,-0.2502 -0.2007,-0.1638 -0.2997,-0.3807 -0.2997,-0.6471 0,-0.5913 0.4149,-0.8883 1.24407,-0.8883 z m 6.51681,0 0.2727,0 0,-1.4885 c 0,-0.3996 0.009,-0.7119 0.0308,-0.9375 0.0216,-0.2286 0.0804,-0.4239 0.1764,-0.585 0.099,-0.1701 0.2385,-0.306 0.4176,-0.4149 0.1827,-0.1053 0.3834,-0.1575 0.6093,-0.1575 0.3123,0 0.5976,0.117 0.8514,0.3528 0.1701,0.1584 0.2754,0.3501 0.3213,0.576 0.0464,0.2286 0.068,0.5508 0.068,0.9684 l 0,1.6866 0.90675,0 c 0.3501,0 0.6192,0.084 0.8019,0.2502 0.1854,0.1638 0.2781,0.378 0.2781,0.6372 0,0.3312 -0.1332,0.5661 -0.396,0.6993 -0.2628,0.1332 -0.6372,0.198 -1.12923,0.198 l -0.4617,0 0,4.5488 c 0,0.387 0.0124,0.6867 0.0404,0.8946 0.0276,0.207 0.099,0.3771 0.2169,0.5076 0.1206,0.1296 0.3123,0.1953 0.5787,0.1953 0.1422,0 0.3402,-0.025 0.5886,-0.077 0.2475,-0.052 0.4428,-0.077 0.5787,-0.077 0.2007,0 0.3807,0.08 0.5418,0.2412 0.1611,0.1611 0.2385,0.3555 0.2385,0.594 0,0.3987 -0.2169,0.702 -0.6534,0.9128 -0.4329,0.2133 -1.0584,0.3186 -1.87551,0.3186 -0.7731,0 -1.36134,-0.1296 -1.75752,-0.3897 -0.3996,-0.2601 -0.6624,-0.6192 -0.7857,-1.08 -0.1242,-0.4581 -0.1854,-1.0708 -0.1854,-1.8379 l 0,-4.7502 -0.3249,0 c -0.3591,0 -0.6318,-0.084 -0.8172,-0.2538 -0.189,-0.1701 -0.2817,-0.3834 -0.2817,-0.6435 0,-0.2601 0.099,-0.4734 0.2943,-0.6372 0.198,-0.1665 0.4824,-0.2502 0.8568,-0.2502 z m 7.97778,1.3213 1.61217,5.5297 1.46979,-5.1399 c 0.1548,-0.5382 0.2727,-0.9035 0.3501,-1.1016 0.0744,-0.1953 0.2169,-0.3834 0.4239,-0.5634 0.2106,-0.1764 0.495,-0.2664 0.8568,-0.2664 0.3681,0 0.6588,0.09 0.8667,0.2664 0.207,0.1791 0.3564,0.3744 0.4392,0.5814 0.0836,0.207 0.2016,0.5697 0.3528,1.0828 l 1.46979,5.1399 1.63098,-5.5297 c 0.1116,-0.3996 0.198,-0.6867 0.2628,-0.8667 0.068,-0.1764 0.18,-0.3348 0.3375,-0.4707 0.1575,-0.1359 0.3834,-0.2043 0.6777,-0.2043 0.297,0 0.5535,0.1017 0.7731,0.3096 0.2169,0.2043 0.3249,0.4455 0.3249,0.7245 0,0.2538 -0.0927,0.6372 -0.2817,1.1508 l -2.02077,5.9294 c -0.1764,0.5013 -0.3123,0.8631 -0.4086,1.0892 -0.0963,0.2223 -0.2511,0.4203 -0.4581,0.5967 -0.207,0.1764 -0.495,0.2637 -0.8568,0.2637 -0.3744,0 -0.6687,-0.093 -0.8847,-0.2817 -0.2133,-0.1854 -0.3717,-0.4176 -0.4734,-0.6903 -0.1053,-0.2691 -0.2169,-0.6246 -0.3375,-1.0584 l -1.41417,-4.8242 -1.36773,4.8242 c -0.1827,0.6714 -0.378,1.176 -0.5913,1.5165 -0.2106,0.3438 -0.5814,0.5139 -1.11402,0.5139 -0.2727,0 -0.5049,-0.053 -0.693,-0.1584 -0.1917,-0.1053 -0.3492,-0.2565 -0.4761,-0.4554 -0.1269,-0.1953 -0.2385,-0.4266 -0.3375,-0.6966 -0.0963,-0.2691 -0.1701,-0.4824 -0.2259,-0.6399 l -2.00196,-5.9294 c -0.2016,-0.5571 -0.3006,-0.9404 -0.3006,-1.1508 0,-0.2664 0.1053,-0.5049 0.3186,-0.7146 0.2106,-0.2133 0.4698,-0.3186 0.7803,-0.3186 0.4086,0 0.6867,0.1179 0.8325,0.3501 0.1458,0.2322 0.2997,0.6282 0.4644,1.1912 z m 19.56654,7.1266 c -0.6003,0.4644 -1.17918,0.8136 -1.73619,1.046 -0.5598,0.2322 -1.18809,0.3501 -1.88145,0.3501 -0.6372,0 -1.19448,-0.1269 -1.67382,-0.378 -0.4797,-0.2502 -0.8514,-0.5877 -1.11114,-1.018 -0.2601,-0.4302 -0.3897,-0.8946 -0.3897,-1.3957 0,-0.6777 0.2133,-1.2532 0.6435,-1.733 0.4302,-0.477 1.01799,-0.7983 1.76985,-0.9592 0.1548,-0.037 0.5445,-0.1179 1.16964,-0.2448 0.6219,-0.1296 1.15443,-0.2448 1.59984,-0.3501 0.4428,-0.108 0.92547,-0.2349 1.44531,-0.387 -0.0312,-0.6534 -0.1611,-1.1328 -0.3933,-1.4361 -0.2349,-0.306 -0.7146,-0.4581 -1.44855,-0.4581 -0.6282,0 -1.1016,0.086 -1.41696,0.2628 -0.3186,0.1764 -0.5913,0.4365 -0.8172,0.7893 -0.2259,0.3501 -0.387,0.5814 -0.4797,0.693 -0.0954,0.1116 -0.297,0.1674 -0.603,0.1674 -0.2781,0 -0.5202,-0.09 -0.7209,-0.2691 -0.2043,-0.1764 -0.3033,-0.405 -0.3033,-0.684 0,-0.4338 0.1521,-0.8568 0.4608,-1.2688 0.3096,-0.4113 0.7893,-0.7488 1.44216,-1.0148 0.6525,-0.2664 1.4634,-0.3996 2.43819,-0.3996 1.08954,0 1.94346,0.1296 2.56536,0.387 0.6219,0.2565 1.06155,0.6624 1.3185,1.2192 0.2565,0.5535 0.387,1.2933 0.387,2.2125 0,0.5787 -0.003,1.0739 -0.006,1.4761 -0.003,0.405 -0.006,0.8568 -0.0124,1.3526 0,0.4644 0.0772,0.9499 0.2322,1.4541 0.1548,0.5049 0.2286,0.8298 0.2286,0.9748 0,0.2538 -0.1179,0.486 -0.3555,0.693 -0.2385,0.2079 -0.5103,0.3132 -0.8109,0.3132 -0.2538,0 -0.5049,-0.1206 -0.7515,-0.3591 -0.2511,-0.2385 -0.5103,-0.5814 -0.7893,-1.0365 z m -0.1638,-3.5805 c -0.3618,0.1332 -0.891,0.2727 -1.58139,0.4212 -0.693,0.1485 -1.17288,0.2565 -1.43892,0.3285 -0.2664,0.068 -0.5202,0.2043 -0.7614,0.4086 -0.2421,0.2007 -0.3618,0.4824 -0.3618,0.8451 0,0.3771 0.1422,0.6966 0.4266,0.9591 0.2853,0.2628 0.6561,0.3933 1.11402,0.3933 0.4887,0 0.94077,-0.108 1.35531,-0.3213 0.4149,-0.2133 0.7182,-0.4923 0.91314,-0.8298 0.2223,-0.3744 0.3339,-0.99 0.3339,-1.8503 l 0,-0.3528 z m 7.39557,1.4021 0,2.07 c 0,0.5013 -0.1179,0.8757 -0.3528,1.1264 -0.2349,0.2502 -0.5355,0.378 -0.8973,0.378 -0.3591,0 -0.6498,-0.1269 -0.882,-0.3807 -0.2286,-0.2538 -0.3438,-0.6282 -0.3438,-1.1232 l 0,-6.8914 c 0,-1.1107 0.4023,-1.6677 1.20681,-1.6677 0.4113,0 0.7056,0.1296 0.8883,0.3897 0.1827,0.2601 0.2817,0.6435 0.2997,1.1511 0.2943,-0.5076 0.5976,-0.891 0.9099,-1.1511 0.3123,-0.2601 0.7272,-0.3897 1.24686,-0.3897 0.5202,0 1.02438,0.1296 1.51335,0.3897 0.4887,0.2601 0.7335,0.603 0.7335,1.0335 0,0.2997 -0.1026,0.5508 -0.3123,0.7461 -0.2079,0.198 -0.4329,0.2934 -0.675,0.2934 -0.09,0 -0.3096,-0.056 -0.6561,-0.1665 -0.3501,-0.1116 -0.6561,-0.1674 -0.92196,-0.1674 -0.3618,0 -0.6597,0.096 -0.8883,0.2853 -0.2286,0.1917 -0.4086,0.4734 -0.5355,0.8478 -0.1269,0.3744 -0.2133,0.8199 -0.2628,1.3398 -0.0464,0.5166 -0.0712,1.1451 -0.0712,1.8878 z m 12.12129,-0.8514 -4.83984,0 c 0.006,0.5634 0.1206,1.0584 0.3402,1.4885 0.2196,0.4302 0.5139,0.7515 0.8793,0.9684 0.3654,0.2196 0.7704,0.3285 1.20969,0.3285 0.297,0 0.567,-0.034 0.8109,-0.1053 0.2439,-0.068 0.4824,-0.1764 0.7119,-0.3249 0.2322,-0.1485 0.4428,-0.3069 0.6345,-0.477 0.1953,-0.1701 0.4455,-0.3996 0.7551,-0.6903 0.1269,-0.108 0.3069,-0.1638 0.5418,-0.1638 0.2538,0 0.4608,0.071 0.6183,0.2097 0.1548,0.1395 0.2349,0.3348 0.2349,0.5886 0,0.2232 -0.0896,0.486 -0.2628,0.7857 -0.1764,0.297 -0.4392,0.585 -0.7956,0.8604 -0.3528,0.2754 -0.7947,0.504 -1.33056,0.684 -0.5355,0.1827 -1.15119,0.2727 -1.84428,0.2727 -1.59057,0 -2.82825,-0.4518 -3.71016,-1.3585 -0.882,-0.9068 -1.32444,-2.1384 -1.32444,-3.6919 0,-0.7298 0.108,-1.4112 0.3285,-2.0363 0.2169,-0.6246 0.5346,-1.1604 0.94995,-1.609 0.4176,-0.4455 0.93123,-0.7893 1.54422,-1.0275 0.6093,-0.2385 1.28727,-0.3591 2.02995,-0.3591 0.9684,0 1.79784,0.2043 2.48778,0.6129 0.693,0.4086 1.21005,0.9343 1.55655,1.581 0.3438,0.6471 0.5166,1.3061 0.5166,1.9775 0,0.6219 -0.18,1.0244 -0.5355,1.21 -0.3564,0.1827 -0.8604,0.2754 -1.50696,0.2754 z m -4.83984,-1.4049 4.48686,0 c -0.0588,-0.8451 -0.288,-1.4793 -0.684,-1.8971 -0.396,-0.4203 -0.91593,-0.6309 -1.56258,-0.6309 -0.6192,0 -1.12356,0.2133 -1.51938,0.6372 -0.396,0.4266 -0.6372,1.0584 -0.7209,1.8907 z m 25.10217,1.4081 c 0,0.4203 -0.1017,0.8784 -0.3123,1.3706 -0.207,0.495 -0.5355,0.9779 -0.98397,1.4513 -0.4455,0.4734 -1.01799,0.8604 -1.71144,1.1544 -0.6966,0.297 -1.50696,0.4455 -2.43216,0.4455 -0.6993,0 -1.33686,-0.065 -1.91232,-0.198 -0.5724,-0.1332 -1.09557,-0.3402 -1.56294,-0.6219 -0.4671,-0.2817 -0.90036,-0.6498 -1.2933,-1.1108 -0.3501,-0.4149 -0.6498,-0.882 -0.8973,-1.3988 -0.2475,-0.5166 -0.4329,-1.0705 -0.5571,-1.6555 -0.1233,-0.585 -0.1854,-1.21 -0.1854,-1.8659 0,-1.0708 0.1548,-2.0299 0.4671,-2.8747 0.3123,-0.8478 0.7587,-1.5689 1.33686,-2.1724 0.5814,-0.6003 1.25928,-1.0584 2.03922,-1.3741 0.7803,-0.3123 1.61217,-0.4698 2.49417,-0.4698 1.07685,0 2.03319,0.2133 2.87469,0.6435 0.8388,0.4302 1.48248,0.9595 1.93113,1.5906 0.4455,0.6318 0.6714,1.2285 0.6714,1.7918 0,0.306 -0.1116,0.5787 -0.3285,0.8136 -0.2169,0.2349 -0.4797,0.3528 -0.7893,0.3528 -0.3438,0 -0.603,-0.08 -0.7731,-0.2448 -0.1737,-0.1611 -0.3654,-0.4419 -0.5751,-0.8415 -0.3528,-0.6588 -0.7641,-1.1512 -1.23804,-1.4793 -0.477,-0.3249 -1.06119,-0.4887 -1.75428,-0.4887 -1.10799,0 -1.98675,0.4203 -2.64294,1.2592 -0.6561,0.8415 -0.98397,2.0364 -0.98397,3.5834 0,1.0335 0.1458,1.8939 0.4365,2.5778 0.288,0.6867 0.6993,1.2008 1.23165,1.5382 0.5319,0.3366 1.15443,0.5076 1.86912,0.5076 0.774,0 1.4265,-0.1917 1.96191,-0.576 0.5355,-0.3834 0.93753,-0.9468 1.21005,-1.6927 0.1143,-0.3501 0.2565,-0.6345 0.4266,-0.8541 0.1674,-0.2232 0.4392,-0.3312 0.8136,-0.3312 0.3213,0 0.5976,0.1116 0.8262,0.3348 0.2286,0.2223 0.3438,0.5013 0.3438,0.8352 z m 11.51154,-0.6102 c 0,0.7362 -0.1143,1.4174 -0.3438,2.0392 -0.2322,0.6219 -0.5634,1.1575 -0.99954,1.6062 -0.4329,0.4455 -0.95319,0.7893 -1.55655,1.0272 -0.6066,0.2385 -1.28412,0.3591 -2.03922,0.3591 -0.7515,0 -1.42335,-0.1206 -2.02392,-0.3618 -0.5967,-0.2412 -1.11402,-0.5886 -1.5534,-1.04 -0.4392,-0.4482 -0.7704,-0.9808 -0.99639,-1.5934 -0.2259,-0.6156 -0.3402,-1.2937 -0.3402,-2.0364 0,-0.7488 0.1143,-1.4357 0.3429,-2.0579 0.2322,-0.6219 0.5598,-1.1541 0.99036,-1.5966 0.4266,-0.4392 0.9468,-0.7803 1.55619,-1.018 0.6129,-0.2385 1.28448,-0.3591 2.02392,-0.3591 0.7488,0 1.4265,0.1206 2.03922,0.3618 0.6102,0.2412 1.13283,0.5877 1.56582,1.0332 0.4365,0.4491 0.7677,0.9812 0.99351,1.597 0.2259,0.6156 0.3402,1.2965 0.3402,2.0391 z m -2.48454,0 c 0,-1.0088 -0.2232,-1.7947 -0.6651,-2.3581 -0.4455,-0.5598 -1.03959,-0.8415 -1.78866,-0.8415 -0.486,0 -0.9099,0.1269 -1.27809,0.3771 -0.3681,0.2511 -0.6534,0.6192 -0.8505,1.108 -0.2016,0.4914 -0.3006,1.0612 -0.3006,1.7143 0,0.6471 0.099,1.21 0.2943,1.6958 0.198,0.4824 0.477,0.8541 0.8415,1.1108 0.3681,0.2565 0.7983,0.3834 1.2933,0.3834 0.7488,0 1.34289,-0.2817 1.78866,-0.8478 0.4428,-0.5634 0.6651,-1.3461 0.6651,-2.3425 z m 6.68412,-3.6638 0,0.2997 c 0.4365,-0.5751 0.91278,-0.9964 1.4265,-1.2656 0.5166,-0.2691 1.11078,-0.4023 1.78227,-0.4023 0.6534,0 1.2348,0.1422 1.74861,0.4266 0.5139,0.2817 0.8973,0.684 1.15119,1.2036 0.1638,0.3033 0.2691,0.6282 0.3186,0.9812 0.0464,0.3501 0.0712,0.7947 0.0712,1.3397 l 0,4.6078 c 0,0.495 -0.1143,0.8694 -0.3402,1.1232 -0.2259,0.2538 -0.5202,0.3807 -0.8847,0.3807 -0.3681,0 -0.6651,-0.1296 -0.8973,-0.3897 -0.2286,-0.2601 -0.3438,-0.6309 -0.3438,-1.1141 l 0,-4.1247 c 0,-0.8172 -0.1152,-1.4422 -0.3402,-1.8756 -0.2259,-0.4302 -0.6777,-0.6471 -1.35252,-0.6471 -0.4419,0 -0.8451,0.1296 -1.20681,0.3933 -0.3618,0.2628 -0.6282,0.6246 -0.7947,1.0861 -0.1206,0.3681 -0.1827,1.0555 -0.1827,2.0671 l 0,3.1008 c 0,0.5013 -0.1179,0.8757 -0.3501,1.1264 -0.2322,0.2502 -0.5319,0.378 -0.90072,0.378 -0.3591,0 -0.6498,-0.1296 -0.882,-0.3897 -0.2286,-0.2601 -0.3438,-0.6309 -0.3438,-1.114 l 0,-7.1543 c 0,-0.4707 0.1017,-0.8235 0.3096,-1.0552 0.2043,-0.2322 0.486,-0.3501 0.8415,-0.3501 0.2169,0 0.4149,0.052 0.5913,0.1548 0.1737,0.1026 0.3159,0.2565 0.4212,0.4617 0.1053,0.207 0.1575,0.4581 0.1575,0.7515 z m 8.76681,-1.148 0.5877,0 0,-0.7425 c 0,-0.774 0.099,-1.3893 0.2943,-1.8475 0.198,-0.4554 0.5292,-0.7893 0.99954,-0.9964 0.4671,-0.207 1.11078,-0.3123 1.92474,-0.3123 1.44495,0 2.16603,0.3528 2.16603,1.0612 0,0.2295 -0.074,0.4239 -0.2259,0.5886 -0.1521,0.1638 -0.3285,0.2448 -0.5355,0.2448 -0.0963,0 -0.2628,-0.019 -0.4986,-0.053 -0.2349,-0.037 -0.4338,-0.056 -0.5976,-0.056 -0.4482,0 -0.7335,0.1332 -0.8604,0.396 -0.1269,0.2628 -0.1917,0.6372 -0.1917,1.1264 l 0,0.5913 0.6066,0 c 0.94356,0 1.41417,0.2844 1.41417,0.8505 0,0.4059 -0.1242,0.6624 -0.3744,0.7704 -0.2502,0.108 -0.5967,0.1638 -1.03959,0.1638 l -0.6066,0 0,6.5541 c 0,0.4887 -0.1179,0.8631 -0.3501,1.1204 -0.2322,0.2565 -0.5319,0.3834 -0.90036,0.3834 -0.3528,0 -0.6435,-0.1269 -0.8757,-0.3834 -0.2322,-0.2565 -0.3501,-0.6318 -0.3501,-1.1204 l 0,-6.5541 -0.6804,0 c -0.3681,0 -0.6534,-0.084 -0.8514,-0.2502 -0.2007,-0.1638 -0.2997,-0.3807 -0.2997,-0.6471 0,-0.5913 0.4149,-0.8883 1.24407,-0.8883 z m 13.04325,5.4184 -4.83984,0 c 0.006,0.5634 0.1206,1.0584 0.3402,1.4885 0.2196,0.4302 0.5139,0.7515 0.8793,0.9684 0.3654,0.2196 0.7704,0.3285 1.20969,0.3285 0.297,0 0.567,-0.034 0.8109,-0.1053 0.2439,-0.068 0.4824,-0.1764 0.7119,-0.3249 0.2322,-0.1485 0.4428,-0.3069 0.6345,-0.477 0.1953,-0.1701 0.4455,-0.3996 0.7551,-0.6903 0.1269,-0.108 0.3069,-0.1638 0.5418,-0.1638 0.2538,0 0.4608,0.071 0.6183,0.2097 0.1548,0.1395 0.2349,0.3348 0.2349,0.5886 0,0.2232 -0.0896,0.486 -0.2628,0.7857 -0.1764,0.297 -0.4392,0.585 -0.7956,0.8604 -0.3528,0.2754 -0.7947,0.504 -1.33056,0.684 -0.5355,0.1827 -1.15119,0.2727 -1.84428,0.2727 -1.59057,0 -2.82825,-0.4518 -3.71016,-1.3585 -0.882,-0.9068 -1.32444,-2.1384 -1.32444,-3.6918 0,-0.7299 0.108,-1.4113 0.3285,-2.0363 0.2169,-0.6246 0.5346,-1.1605 0.94995,-1.6091 0.4176,-0.4455 0.93114,-0.7893 1.54422,-1.0275 0.6093,-0.2385 1.28727,-0.3591 2.02995,-0.3591 0.9684,0 1.79784,0.2043 2.48778,0.6129 0.693,0.4086 1.21005,0.9344 1.55655,1.581 0.3438,0.6471 0.5166,1.3061 0.5166,1.9775 0,0.6219 -0.18,1.0244 -0.5355,1.2101 -0.3564,0.1827 -0.8604,0.2754 -1.50696,0.2754 z m -4.83984,-1.4049 4.48686,0 c -0.0588,-0.8451 -0.288,-1.4793 -0.684,-1.8971 -0.396,-0.4203 -0.91593,-0.6309 -1.56258,-0.6309 -0.6192,0 -1.12356,0.2133 -1.51938,0.6372 -0.396,0.4266 -0.6372,1.0584 -0.7209,1.8907 z m 11.42154,2.2561 0,2.07 c 0,0.5013 -0.1179,0.8757 -0.3528,1.1264 -0.2349,0.2502 -0.5355,0.378 -0.8973,0.378 -0.3591,0 -0.6498,-0.1269 -0.882,-0.3807 -0.2286,-0.2538 -0.3438,-0.6282 -0.3438,-1.1232 l 0,-6.8914 c 0,-1.1108 0.4023,-1.6678 1.20681,-1.6678 0.4113,0 0.7056,0.1296 0.8883,0.3897 0.1827,0.2601 0.2817,0.6435 0.2997,1.1512 0.2943,-0.5076 0.5976,-0.891 0.9099,-1.1512 0.3123,-0.2601 0.7272,-0.3897 1.24686,-0.3897 0.5202,0 1.02438,0.1296 1.51335,0.3897 0.4887,0.2601 0.7335,0.603 0.7335,1.0336 0,0.2997 -0.1026,0.5508 -0.3123,0.7461 -0.2079,0.198 -0.4329,0.2934 -0.675,0.2934 -0.09,0 -0.3096,-0.056 -0.6561,-0.1665 -0.3501,-0.1116 -0.6561,-0.1674 -0.92196,-0.1674 -0.3618,0 -0.6597,0.096 -0.8883,0.2853 -0.2286,0.1917 -0.4086,0.4734 -0.5355,0.8478 -0.1269,0.3744 -0.2133,0.8199 -0.2628,1.3397 -0.0464,0.5166 -0.0712,1.1452 -0.0712,1.8879 z m 12.12129,-0.8514 -4.83984,0 c 0.006,0.5634 0.1206,1.0584 0.3402,1.4885 0.2196,0.4302 0.5139,0.7515 0.8793,0.9684 0.3654,0.2196 0.7704,0.3285 1.20969,0.3285 0.297,0 0.567,-0.034 0.8109,-0.1053 0.2439,-0.068 0.4824,-0.1764 0.7119,-0.3249 0.2322,-0.1485 0.4428,-0.3069 0.6345,-0.477 0.1953,-0.1701 0.4455,-0.3996 0.7551,-0.6903 0.1269,-0.108 0.3069,-0.1638 0.5418,-0.1638 0.2538,0 0.4608,0.071 0.6183,0.2097 0.1548,0.1395 0.2349,0.3348 0.2349,0.5886 0,0.2232 -0.0896,0.486 -0.2628,0.7857 -0.1764,0.297 -0.4392,0.585 -0.7956,0.8604 -0.3528,0.2754 -0.7947,0.504 -1.33056,0.684 -0.5355,0.1827 -1.15119,0.2727 -1.84428,0.2727 -1.59057,0 -2.82825,-0.4518 -3.71016,-1.3586 -0.882,-0.9067 -1.32444,-2.1384 -1.32444,-3.6918 0,-0.7299 0.108,-1.4113 0.3285,-2.0363 0.2169,-0.6246 0.5346,-1.1605 0.94995,-1.609 0.4176,-0.4455 0.93114,-0.7893 1.54413,-1.0276 0.6093,-0.2385 1.28727,-0.3591 2.02995,-0.3591 0.9684,0 1.79784,0.2043 2.48778,0.6129 0.693,0.4086 1.21005,0.9344 1.55655,1.5811 0.3438,0.6471 0.5166,1.306 0.5166,1.9774 0,0.6219 -0.18,1.0244 -0.5355,1.2101 -0.3564,0.1827 -0.8604,0.2754 -1.50696,0.2754 z m -4.83984,-1.4049 4.48686,0 c -0.0588,-0.8451 -0.288,-1.4794 -0.684,-1.8971 -0.396,-0.4203 -0.91593,-0.6309 -1.56258,-0.6309 -0.6192,0 -1.12356,0.2133 -1.51938,0.6372 -0.396,0.4266 -0.6372,1.0584 -0.7209,1.8907 z m 11.21418,-2.8655 0,0.2997 c 0.4365,-0.5751 0.91278,-0.9964 1.4265,-1.2657 0.5166,-0.2691 1.11078,-0.4023 1.78227,-0.4023 0.6534,0 1.2348,0.1422 1.74861,0.4266 0.5139,0.2817 0.8973,0.684 1.15119,1.2036 0.1638,0.3033 0.2691,0.6282 0.3186,0.9812 0.0464,0.3501 0.0712,0.7947 0.0712,1.3398 l 0,4.6077 c 0,0.495 -0.1143,0.8694 -0.3402,1.1232 -0.2259,0.2538 -0.5202,0.3807 -0.8847,0.3807 -0.3681,0 -0.6651,-0.1296 -0.8973,-0.3897 -0.2286,-0.2601 -0.3438,-0.6309 -0.3438,-1.114 l 0,-4.1248 c 0,-0.8172 -0.1152,-1.4422 -0.3402,-1.8755 -0.2259,-0.4302 -0.6777,-0.6471 -1.35252,-0.6471 -0.4419,0 -0.8451,0.1296 -1.20681,0.3933 -0.3618,0.2628 -0.6282,0.6246 -0.7947,1.086 -0.1206,0.3681 -0.1827,1.0555 -0.1827,2.0671 l 0,3.1008 c 0,0.5013 -0.1179,0.8757 -0.3501,1.1264 -0.2322,0.2502 -0.5319,0.378 -0.90072,0.378 -0.3591,0 -0.6498,-0.1296 -0.882,-0.3897 -0.2286,-0.2601 -0.3438,-0.6309 -0.3438,-1.114 l 0,-7.1543 c 0,-0.4707 0.1017,-0.8235 0.3096,-1.0551 0.2043,-0.2322 0.486,-0.3501 0.8415,-0.3501 0.2169,0 0.4149,0.052 0.5913,0.1548 0.1737,0.1026 0.3159,0.2565 0.4212,0.4617 0.1053,0.207 0.1575,0.4581 0.1575,0.7515 z m 17.84304,5.6288 c 0,0.3096 -0.0927,0.6372 -0.2781,0.99 -0.1827,0.3501 -0.4644,0.684 -0.8415,1.0028 -0.3771,0.3159 -0.8541,0.5724 -1.42938,0.7641 -0.5724,0.1953 -1.21923,0.2907 -1.93752,0.2907 -1.5318,0 -2.72304,-0.4455 -3.58335,-1.3369 -0.8568,-0.891 -1.28727,-2.0855 -1.28727,-3.5865 0,-1.0148 0.1953,-1.9123 0.5886,-2.6921 0.3933,-0.7794 0.96237,-1.383 1.70505,-1.8071 0.7452,-0.4266 1.63386,-0.6408 2.66742,-0.6408 0.6408,0 1.2285,0.093 1.76382,0.2817 0.5319,0.1854 0.98712,0.4266 1.35855,0.7245 0.3717,0.297 0.6561,0.6129 0.8505,0.9468 0.198,0.3375 0.297,0.6498 0.297,0.9375 0,0.297 -0.1116,0.5481 -0.3312,0.7551 -0.2232,0.2043 -0.4887,0.3069 -0.8046,0.3069 -0.2043,0 -0.3744,-0.053 -0.5103,-0.1584 -0.1368,-0.1053 -0.288,-0.2781 -0.4581,-0.513 -0.3033,-0.4581 -0.6192,-0.8019 -0.9468,-1.0336 -0.3312,-0.2295 -0.7488,-0.3438 -1.25649,-0.3438 -0.7299,0 -1.32129,0.2853 -1.76706,0.8568 -0.4482,0.5697 -0.6714,1.3526 -0.6714,2.3428 0,0.4671 0.0588,0.8946 0.1737,1.2841 0.1143,0.3897 0.2781,0.7209 0.4986,0.9964 0.2169,0.2754 0.4797,0.4824 0.7893,0.6246 0.3069,0.1422 0.6471,0.2133 1.0152,0.2133 0.495,0 0.91917,-0.1143 1.2717,-0.3438 0.3555,-0.2322 0.6687,-0.5814 0.94077,-1.052 0.1485,-0.2781 0.3123,-0.495 0.4887,-0.6534 0.1737,-0.1575 0.3897,-0.2349 0.6435,-0.2349 0.3033,0 0.5544,0.1143 0.7524,0.3429 0.198,0.2286 0.2997,0.4734 0.2997,0.7335 z"
         id="path3227"
         style="fill:#838281;fill-rule:nonzero"
         inkscape:connector-curvature="0" />
      <path
         class="fil3"
         d="m 675.03206,830.14 -4.83984,0 c 0.006,0.5634 0.1206,1.0584 0.3402,1.4885 0.2196,0.4302 0.5139,0.7515 0.8793,0.9684 0.3654,0.2196 0.7704,0.3285 1.20969,0.3285 0.297,0 0.567,-0.034 0.8109,-0.1053 0.2439,-0.068 0.4824,-0.1764 0.7119,-0.3249 0.2322,-0.1485 0.4428,-0.3069 0.6345,-0.477 0.1953,-0.1701 0.4455,-0.3996 0.7551,-0.6903 0.1269,-0.108 0.3069,-0.1638 0.5418,-0.1638 0.2538,0 0.4608,0.071 0.6183,0.2097 0.1548,0.1395 0.2349,0.3348 0.2349,0.5886 0,0.2232 -0.0897,0.486 -0.2628,0.7857 -0.1764,0.297 -0.4392,0.585 -0.7956,0.8604 -0.3528,0.2754 -0.7947,0.504 -1.33056,0.684 -0.5355,0.1827 -1.15119,0.2727 -1.84428,0.2727 -1.59057,0 -2.82825,-0.4518 -3.71016,-1.3586 -0.882,-0.9067 -1.32453,-2.1384 -1.32453,-3.6918 0,-0.7299 0.108,-1.4113 0.3285,-2.0363 0.2169,-0.6246 0.5346,-1.1605 0.94995,-1.609 0.4176,-0.4456 0.93114,-0.7893 1.54413,-1.0276 0.6093,-0.2385 1.28727,-0.3591 2.02995,-0.3591 0.9684,0 1.79784,0.2043 2.48778,0.6129 0.693,0.4086 1.21005,0.9344 1.55655,1.5811 0.3438,0.6471 0.5166,1.306 0.5166,1.9774 0,0.6219 -0.18,1.0244 -0.5355,1.2101 -0.3564,0.1827 -0.8604,0.2754 -1.50696,0.2754 z m -4.83984,-1.4049 4.48686,0 c -0.0588,-0.8451 -0.288,-1.4794 -0.684,-1.8972 -0.396,-0.4203 -0.91593,-0.6309 -1.56258,-0.6309 -0.6192,0 -1.12356,0.2133 -1.51938,0.6372 -0.396,0.4266 -0.6372,1.0584 -0.7209,1.8908 z"
         id="path3229"
         style="fill:#838281;fill-rule:nonzero"
         inkscape:connector-curvature="0" />
    </g>
    <g
       id="bar"
       transform="translate(0,382.43606)">
      <rect
         y="520.72675"
         x="1"
         height="149.19937"
         width="1024"
         id="rect3809-1"
         style="fill:#00a2e1;fill-opacity:1" />
    </g>
    <g
       id="frog">
      <g
         id="g3039"
         transform="matrix(1.3326742,0,0,1.3326742,-552.53229,-554.43576)">
        <ellipse
           class="fil1"
           cx="3.27019"
           cy="2.82919"
           rx="0.20146"
           ry="0.023169201"
           id="ellipse3221"
           sodipodi:cx="3.27019"
           sodipodi:cy="2.82919"
           sodipodi:rx="0.20146"
           sodipodi:ry="0.023169201"
           style="fill:#dededd;fill-rule:evenodd"
           transform="matrix(89.999997,0,0,89.999997,428.41008,765.88416)" />
        <g
           mask="none"
           id="g3231"
           style="fill:#00a2e1;fill-opacity:1;fill-rule:evenodd;stroke:none"
           transform="matrix(89.999997,0,0,89.999997,428.41008,765.88416)">
          <path
             class="fil0 str1"
             d="m 3.27019,1.9359 c 0.231933,0 0.420024,0.188091 0.420024,0.420024 0,0.231933 -0.188091,0.420024 -0.420024,0.420024 -0.231933,0 -0.420024,-0.188091 -0.420024,-0.420024 0,-0.231933 0.188091,-0.420024 0.420024,-0.420024 z"
             id="path3233"
             style="fill:#00a2e1;fill-opacity:1;stroke:none"
             inkscape:connector-curvature="0" />
          <path
             id="path3235"
             class="fil9"
             d="m 3.27019,1.9359 c 0.231933,0 0.420024,0.188091 0.420024,0.420024 0,0.231933 -0.188091,0.420024 -0.420024,0.420024 -0.231933,0 -0.420024,-0.188091 -0.420024,-0.420024 0,-0.231933 0.188091,-0.420024 0.420024,-0.420024 z"
             style="fill:#00a2e1;fill-opacity:1;stroke:none"
             inkscape:connector-curvature="0" />
        </g>
        <path
           class="fil5"
           d="m 735.27493,956.18375 c 2.019,1.22319 0.9476,4.71717 1.5552,7.02108 0.3402,1.39113 0.8514,3.12516 -0.3411,4.27887 -1.1107,0.8595 -3.2059,0.7542 -3.6605,2.07711 -0.585,1.70289 1.0541,4.42449 3.3438,4.27536 2.8425,-0.7884 5.1308,-2.90304 7.1568,-4.95639 2.0051,-2.05191 1.3348,-3.66417 1.1442,-6.19974 -0.085,-1.12887 0.9117,-2.54124 1.7755,-1.91763 1.8538,1.33902 -1.1189,4.37454 1.0559,4.95918 2.2262,0.5985 3.217,-5.76216 5.2855,-3.13515 1.2756,1.61892 -3.6975,3.07521 -2.4615,4.51485 1.1137,1.20258 2.4421,-2.22345 4.4986,-0.98649 0.4068,0.2448 0.7335,0.8622 0.504,1.28484 -1.2059,2.2167 -4.0182,0.2844 -4.325,2.09196 -0.3582,2.10753 4.5737,-0.1404 4.1982,2.61747 -0.4914,3.61062 -5.5152,-1.47015 -9.2689,0.6183 -3.7142,2.06613 -5.3033,6.47892 -9.1612,8.17866 -2.2418,0.9882 -4.2205,-1.35882 -6.322,-1.96371 -0.504,3.40155 -2.7439,5.96484 -4.9585,8.41572 -1.9751,5.34258 10.9782,-1.51686 9.2555,4.83165 -1.0967,4.04154 -6.4379,2.44989 -9.8009,4.75758 -0.45,2.98026 2.1097,4.18463 4.1872,5.24413 3.2872,1.676 0.9262,2.5643 0.1089,1.7426 -1.749,-1.7585 -1.8631,-0.5004 -1.5662,-0.1692 1.1839,1.3216 0.4797,0.7515 2.8928,2.5823 1.283,0.9734 0.065,2.699 -1.1643,1.9209 -1.7916,-1.8138 -2.1675,-3.7304 -3.1692,-3.4125 -1.3408,0.4851 0.8208,1.7596 1.6394,4.5931 0.7083,2.4509 -2.5628,2.7018 -2.3297,0.4797 0.2601,-2.4768 -0.7335,-4.0245 -1.3163,-3.9958 -0.7857,0.039 0.7479,4.9082 -1.1069,4.7353 -1.76,-0.1638 -0.8325,-3.1883 -0.7326,-3.5384 1.0304,-3.6003 0.432,-3.5731 -1.2487,-6.9194 -0.8496,-1.69295 -5.2555,-5.08568 -2.88,-6.58697 8.1578,-2.57598 -1.091,-2.31165 -1.8329,-4.13361 -4e-4,-0.2871 -0.028,-0.3033 -0.2763,-0.1593 -1.9488,0.2682 -6.344,-7.87356 -4.4962,0.4797 -0.1125,2.80773 -5.2536,0.6885 -7.1447,0.7992 -3.7379,0.2178 -4.0138,-0.3141 -6.6165,2.37789 -0.2529,0.2619 -2.4087,2.5767 -3.4306,1.13454 -1.0772,-1.51938 3.9065,-2.62629 3.5472,-3.32577 -0.2664,-0.5193 -2.1037,-0.6057 -4.1184,0.8577 -1.8075,1.31283 -3.2259,-1.64592 -0.7488,-2.25747 2.863,-0.7074 5.0475,0.5274 4.7973,-0.8766 -0.2259,-1.02681 -2.0732,-0.3942 -4.5401,-1.03851 -1.2883,-0.6759 -0.4032,-2.59335 1.0815,-1.96866 2.7914,1.17423 1.9463,0.8496 3.6828,1.21428 0.4347,0.0909 1.4677,-0.6363 -0.9297,-1.27206 -1.1205,-0.297 -1.5315,-2.78577 1.5636,-0.7767 1.9563,1.26954 4.2789,2.88387 6.6352,1.00413 0.3168,-4.06629 -3.7322,-7.89588 -0.7803,-10.86624 4.6368,-4.6665 5.1728,9.98118 8.8118,5.59917 1.0154,-3.14325 2.1153,-6.36489 4.8089,-8.50185 -1.5742,-1.51758 -4.596,-2.05758 -4.861,-4.49325 -0.4572,-4.19103 2.5699,-7.7733 2.5022,-12.02319 -0.068,-4.29516 -6.9803,-6.10587 -4.0988,-8.33634 2.2007,-1.70433 2.7198,3.69108 4.3661,2.32686 1.412,-1.16964 -1.6676,-2.63907 -0.351,-4.79124 0.2511,-0.4104 0.9492,-0.4356 1.3648,-0.2061 2.0994,1.16253 -0.2034,4.02588 1.395,4.38912 1.8648,0.3501 0.6399,-4.68423 2.6795,-4.38948 3.3091,0.4779 -1.7033,4.51629 -0.072,6.14511 1.5934,1.59129 2.7362,-2.50119 4.8225,-1.5651 0.9722,0.4365 0.2475,2.00583 -0.7732,2.4966 -2.2914,1.10232 -4.0227,1.32804 -4.7969,4.09041 -0.765,2.78154 -1.4527,5.82057 -0.7137,8.67618 1.0156,2.05758 4.1918,2.11572 5.3745,0.7587 0.9181,-1.05516 -0.2205,-2.81691 -0.032,-4.20876 0.4032,-1.60938 2.16,-2.03418 3.5348,-2.43495 2.2993,-0.6255 4.7892,-3.30057 6.8585,-2.16351 z"
           id="path3237"
           style="fill:#ffffff;fill-rule:nonzero"
           inkscape:connector-curvature="0" />
        <ellipse
           transform="matrix(89.999997,0,0,89.999997,428.41008,765.88416)"
           style="fill:#75c5f0;fill-rule:evenodd"
           sodipodi:ry="0.0114398"
           sodipodi:rx="0.0088984901"
           sodipodi:cy="2.21737"
           sodipodi:cx="3.4184899"
           id="ellipse3239"
           ry="0.0114398"
           rx="0.0088984901"
           cy="2.21737"
           cx="3.4184899"
           class="fil10" />
        <circle
           style="fill:#75c5f0;fill-rule:evenodd"
           sodipodi:ry="0.0141142"
           sodipodi:rx="0.0141142"
           sodipodi:cy="0"
           sodipodi:cx="0"
           cy="0"
           cx="0"
           id="circle3241"
           r="0.0141142"
           transform="matrix(-28.370879,-49.139908,-63.173518,36.473309,726.85191,960.12305)"
           class="fil10" />
        <path
           inkscape:connector-curvature="0"
           style="fill:#ffffff;fill-rule:nonzero"
           id="path3811"
           d="m 735.27493,956.18375 c 2.019,1.22319 0.9476,4.71717 1.5552,7.02108 0.3402,1.39113 0.8514,3.12516 -0.3411,4.27887 -1.1107,0.8595 -3.2059,0.7542 -3.6605,2.07711 -0.585,1.70289 1.0541,4.42449 3.3438,4.27536 2.8425,-0.7884 5.1308,-2.90304 7.1568,-4.95639 2.0051,-2.05191 1.3348,-3.66417 1.1442,-6.19974 -0.085,-1.12887 0.9117,-2.54124 1.7755,-1.91763 1.8538,1.33902 -1.1189,4.37454 1.0559,4.95918 2.2262,0.5985 3.217,-5.76216 5.2855,-3.13515 1.2756,1.61892 -3.6975,3.07521 -2.4615,4.51485 1.1137,1.20258 2.4421,-2.22345 4.4986,-0.98649 0.4068,0.2448 0.7335,0.8622 0.504,1.28484 -1.2059,2.2167 -4.0182,0.2844 -4.325,2.09196 -0.3582,2.10753 4.5737,-0.1404 4.1982,2.61747 -0.4914,3.61062 -5.5152,-1.47015 -9.2689,0.6183 -3.7142,2.06613 -5.3033,6.47892 -9.1612,8.17866 -2.2418,0.9882 -4.2205,-1.35882 -6.322,-1.96371 -0.504,3.40155 -2.7439,5.96484 -4.9585,8.41572 -1.9751,5.34258 10.9782,-1.51686 9.2555,4.83165 -1.0967,4.04154 -6.4379,2.44989 -9.8009,4.75758 -0.45,2.98026 2.1097,4.18463 4.1872,5.24413 3.2872,1.676 0.9262,2.5643 0.1089,1.7426 -1.749,-1.7585 -1.8631,-0.5004 -1.5662,-0.1692 1.1839,1.3216 0.4797,0.7515 2.8928,2.5823 1.283,0.9734 0.065,2.699 -1.1643,1.9209 -1.7916,-1.8138 -2.1675,-3.7304 -3.1692,-3.4125 -1.3408,0.4851 0.8208,1.7596 1.6394,4.5931 0.7083,2.4509 -2.5628,2.7018 -2.3297,0.4797 0.2601,-2.4768 -0.7335,-4.0245 -1.3163,-3.9958 -0.7857,0.039 0.7479,4.9082 -1.1069,4.7353 -1.76,-0.1638 -0.8325,-3.1883 -0.7326,-3.5384 1.0304,-3.6003 0.432,-3.5731 -1.2487,-6.9194 -0.8496,-1.69295 -5.2555,-5.08568 -2.88,-6.58697 8.1578,-2.57598 -1.091,-2.31165 -1.8329,-4.13361 -4e-4,-0.2871 -0.028,-0.3033 -0.2763,-0.1593 -1.9488,0.2682 -6.344,-7.87356 -4.4962,0.4797 -0.1125,2.80773 -5.2536,0.6885 -7.1447,0.7992 -3.7379,0.2178 -4.0138,-0.3141 -6.6165,2.37789 -0.2529,0.2619 -2.4087,2.5767 -3.4306,1.13454 -1.0772,-1.51938 3.9065,-2.62629 3.5472,-3.32577 -0.2664,-0.5193 -2.1037,-0.6057 -4.1184,0.8577 -1.8075,1.31283 -3.2259,-1.64592 -0.7488,-2.25747 2.863,-0.7074 5.0475,0.5274 4.7973,-0.8766 -0.2259,-1.02681 -2.0732,-0.3942 -4.5401,-1.03851 -1.2883,-0.6759 -0.4032,-2.59335 1.0815,-1.96866 2.7914,1.17423 1.9463,0.8496 3.6828,1.21428 0.4347,0.0909 1.4677,-0.6363 -0.9297,-1.27206 -1.1205,-0.297 -1.5315,-2.78577 1.5636,-0.7767 1.9563,1.26954 4.2789,2.88387 6.6352,1.00413 0.3168,-4.06629 -3.7322,-7.89588 -0.7803,-10.86624 4.6368,-4.6665 5.1728,9.98118 8.8118,5.59917 1.0154,-3.14325 2.1153,-6.36489 4.8089,-8.50185 -1.5742,-1.51758 -4.596,-2.05758 -4.861,-4.49325 -0.4572,-4.19103 2.5699,-7.7733 2.5022,-12.02319 -0.068,-4.29516 -6.9803,-6.10587 -4.0988,-8.33634 2.2007,-1.70433 2.7198,3.69108 4.3661,2.32686 1.412,-1.16964 -1.6676,-2.63907 -0.351,-4.79124 0.2511,-0.4104 0.9492,-0.4356 1.3648,-0.2061 2.0994,1.16253 -0.2034,4.02588 1.395,4.38912 1.8648,0.3501 0.6399,-4.68423 2.6795,-4.38948 3.3091,0.4779 -1.7033,4.51629 -0.072,6.14511 1.5934,1.59129 2.7362,-2.50119 4.8225,-1.5651 0.9722,0.4365 0.2475,2.00583 -0.7732,2.4966 -2.2914,1.10232 -4.0227,1.32804 -4.7969,4.09041 -0.765,2.78154 -1.4527,5.82057 -0.7137,8.67618 1.0156,2.05758 4.1918,2.11572 5.3745,0.7587 0.9181,-1.05516 -0.2205,-2.81691 -0.032,-4.20876 0.4032,-1.60938 2.16,-2.03418 3.5348,-2.43495 2.2993,-0.6255 4.7892,-3.30057 6.8585,-2.16351 z"
           class="fil5" />
        <ellipse
           class="fil10"
           cx="3.4184899"
           cy="2.21737"
           rx="0.0088984901"
           ry="0.0114398"
           id="ellipse3813"
           sodipodi:cx="3.4184899"
           sodipodi:cy="2.21737"
           sodipodi:rx="0.0088984901"
           sodipodi:ry="0.0114398"
           style="fill:#75c5f0;fill-rule:evenodd"
           transform="matrix(89.999997,0,0,89.999997,428.41008,765.88416)" />
        <circle
           class="fil10"
           transform="matrix(-28.370879,-49.139908,-63.173518,36.473309,726.85191,960.12305)"
           r="0.0141142"
           id="circle3815"
           cx="0"
           cy="0"
           sodipodi:cx="0"
           sodipodi:cy="0"
           sodipodi:rx="0.0141142"
           sodipodi:ry="0.0141142"
           style="fill:#75c5f0;fill-rule:evenodd" />
      </g>
    </g>
    <path
       sodipodi:nodetypes="cscscsc"
       inkscape:connector-curvature="0"
       id="animatePath"
       d="m 402.12503,764.2372 c 0,0 46.88241,-220.97993 130.94607,-212.13112 76,8 126.05393,115.62866 126.05393,115.62866 0,0 91.8771,-159.56589 166,-129.12256 56,23 109.75365,129.08389 109.75365,129.08389 0,0 64.21158,-135.08068 125.66052,-106.06307 36,17.00002 60.0503,97.61646 60.0503,97.61646"
       style="fill:none;stroke:#000000;stroke-width:1px;stroke-linecap:butt;stroke-linejoin:miter;stroke-opacity:1" />
    <text
       xml:space="preserve"
       style="font-style:normal;font-variant:normal;font-weight:300;font-stretch:normal;font-size:44.7326355px;line-height:125%;font-family:'Open Sans';-inkscape-font-specification:'Open Sans Light';text-align:start;letter-spacing:0px;word-spacing:0px;writing-mode:lr-tb;text-anchor:start;fill:#ffffff;fill-opacity:1;stroke:none"
       x="305.25974"
       y="988.60712"
       id="text3062"
       sodipodi:linespacing="125%"><tspan
         sodipodi:role="line"
         id="tspan3064"
         x="305.25974"
         y="988.60712"
         style="font-style:normal;font-variant:normal;font-weight:300;font-stretch:normal;font-size:44.7326355px;line-height:125%;font-family:'Open Sans';-inkscape-font-specification:'Open Sans Light';text-align:start;writing-mode:lr-tb;text-anchor:start;fill:#ffffff;fill-opacity:1">19.- 20. August 2017</tspan></text>
    <g
       id="license"
       inkscape:label="Layer 1"
       transform="matrix(2.4285715,0,0,2.4285715,366.28571,713.36218)">
      <g
         inkscape:export-ydpi="300.23013"
         inkscape:export-xdpi="300.23013"
         inkscape:export-filename="/mnt/hgfs/Bov/Documents/Work/2007/cc/identity/srr buttons/big/by.png"
         id="g260"
         transform="matrix(0.9937728,0,0,0.9936696,-177.69267,6.25128e-7)">
        <path
           style="fill:#aab2ab"
           d="m 181.96579,0.51074 114.06396,0.20264 c 1.59375,0 3.01758,-0.23633 3.01758,3.18066 l -0.13965,37.56689 -119.82031,0 0,-37.70654 c 0,-1.68505 0.16309,-3.24365 2.87842,-3.24365 z"
           nodetypes="ccccccc"
           id="path3817_1_"
           inkscape:connector-curvature="0" />
        <path
           id="path263"
           d="m 297.29636,0 -116.229,0 c -1.24658,0 -2.26123,1.01416 -2.26123,2.26074 l 0,39.49658 c 0,0.28174 0.229,0.51025 0.51074,0.51025 l 119.73047,0 c 0.28174,0 0.51074,-0.22852 0.51074,-0.51025 l 0,-39.49658 C 299.55807,1.01416 298.54343,0 297.29636,0 Z m -116.22901,1.02148 116.229,0 c 0.68408,0 1.24023,0.55566 1.24023,1.23926 0,0 0,15.94824 0,27.44971 l -83.34424,0 c -3.04492,5.50586 -8.91113,9.24414 -15.64355,9.24414 -6.73535,0 -12.6001,-3.73486 -15.64355,-9.24414 l -4.07764,0 c 0,-11.50146 0,-27.44971 0,-27.44971 1e-5,-0.68359 0.55616,-1.23926 1.23975,-1.23926 z"
           inkscape:connector-curvature="0" />
        <g
           id="g265"
           enable-background="new    ">
          <path
             style="fill:#ffffff"
             id="path267"
             d="m 253.07761,32.95605 c 0.31738,0 0.60742,0.02832 0.87012,0.08398 0.26172,0.05566 0.48535,0.14746 0.67285,0.27539 0.18652,0.12695 0.33203,0.29688 0.43457,0.50781 0.10254,0.21191 0.1543,0.47266 0.1543,0.78418 0,0.33594 -0.0762,0.61523 -0.22949,0.83887 -0.15234,0.22461 -0.37891,0.40723 -0.67773,0.55078 0.41211,0.11816 0.71973,0.3252 0.92285,0.62109 0.20312,0.29589 0.30469,0.65234 0.30469,1.06934 0,0.33594 -0.0654,0.62695 -0.19629,0.87305 -0.13086,0.24512 -0.30762,0.44629 -0.52832,0.60156 -0.22168,0.15625 -0.47461,0.27148 -0.75781,0.3457 -0.28418,0.0752 -0.5752,0.1123 -0.875,0.1123 l -3.23635,0 0,-6.66406 3.14161,0 0,10e-6 z m -0.1875,2.69532 c 0.26172,0 0.47656,-0.0625 0.64551,-0.18652 0.16797,-0.12402 0.25195,-0.3252 0.25195,-0.60449 0,-0.15527 -0.0283,-0.2832 -0.084,-0.38184 -0.0566,-0.09961 -0.13086,-0.17676 -0.22461,-0.2334 -0.0937,-0.05566 -0.20117,-0.09473 -0.32227,-0.11621 -0.1211,-0.02148 -0.24805,-0.03223 -0.37793,-0.03223 l -1.37402,0 0,1.55469 1.48535,0 z m 0.0859,2.82812 c 0.14355,0 0.28027,-0.01367 0.41113,-0.04199 0.13086,-0.02832 0.24609,-0.0752 0.34668,-0.13965 0.0996,-0.06543 0.17871,-0.1543 0.23828,-0.2666 0.0596,-0.11133 0.0889,-0.25488 0.0889,-0.42871 0,-0.3418 -0.0967,-0.58594 -0.29004,-0.73242 -0.19336,-0.14551 -0.44922,-0.21875 -0.7666,-0.21875 l -1.59961,0 0,1.82812 1.57129,0 z"
             inkscape:connector-curvature="0" />
          <path
             style="fill:#ffffff"
             id="path269"
             d="m 255.78854,32.95605 1.64355,0 1.56055,2.63184 1.55078,-2.63184 1.63379,0 -2.47363,4.10645 0,2.55762 -1.46875,0 0,-2.59473 -2.44629,-4.06934 z"
             inkscape:connector-curvature="0" />
        </g>
        <g
           transform="matrix(0.872921,0,0,0.872921,50.12536,143.2144)"
           id="g5908_1_">
          <path
             style="fill:#ffffff"
             d="m 186.90065,-141.46002 c 0.006,8.68079 -7.02786,15.7215 -15.70808,15.72711 -8.68022,0.006 -15.72206,-7.02734 -15.7271,-15.70807 0,-0.006 0,-0.0123 0,-0.019 -0.005,-8.68079 7.02786,-15.7215 15.70808,-15.72656 8.68135,-0.006 15.72206,7.02734 15.7271,15.70813 0,0.006 0,0.0123 0,0.0184 z"
             rx="22.939548"
             type="arc"
             cy="264.3577"
             ry="22.939548"
             cx="296.35416"
             id="path5906_1_"
             inkscape:connector-curvature="0" />
          <g
             transform="translate(-289.6157,99.0653)"
             id="g5706_1_">
            <path
               d="m 473.57574,-253.32751 c 3.48541,3.48541 5.22839,7.75391 5.22839,12.80219 0,5.04938 -1.71277,9.27203 -5.13831,12.66791 -3.63531,3.5766 -7.93182,5.36432 -12.88947,5.36432 -4.89777,0 -9.11987,-1.77319 -12.66513,-5.31952 -3.54581,-3.54584 -5.31845,-7.78302 -5.31845,-12.71271 0,-4.92859 1.77264,-9.19598 5.31845,-12.80219 3.4552,-3.48651 7.67728,-5.22949 12.66513,-5.22949 5.0483,-10e-6 9.31404,1.74297 12.79939,5.22949 z m -23.11798,2.34484 c -2.94672,2.97638 -4.41953,6.46289 -4.41953,10.46234 0,3.99835 1.45828,7.45526 4.37424,10.37067 2.9165,2.9165 6.38849,4.37421 10.41705,4.37421 4.02856,0 7.53015,-1.47223 10.50653,-4.4184 2.82593,-2.73645 4.23944,-6.17706 4.23944,-10.32648 0,-4.11804 -1.43646,-7.61346 -4.30768,-10.48468 -2.87067,-2.87067 -6.34991,-4.30658 -10.43829,-4.30658 -4.0884,1e-5 -7.54638,1.44318 -10.37176,4.32892 z m 7.75449,8.70319 c -0.45029,-0.98169 -1.1243,-1.47284 -2.02322,-1.47284 -1.58917,0 -2.38345,1.07007 -2.38345,3.20911 0,2.13953 0.79428,3.2085 2.38345,3.2085 1.04938,0 1.79892,-0.52075 2.24866,-1.56451 l 2.20276,1.17297 c -1.04993,1.86548 -2.62509,2.79846 -4.72549,2.79846 -1.6199,0 -2.91763,-0.4967 -3.89206,-1.48901 -0.9761,-0.99341 -1.46274,-2.36273 -1.46274,-4.10852 0,-1.71503 0.50229,-3.07654 1.50748,-4.08502 1.00519,-1.00854 2.25702,-1.51257 3.75781,-1.51257 2.22012,0 3.80981,0.87488 4.77081,2.62286 l -2.38401,1.22057 z m 10.36337,0 c -0.45087,-0.98169 -1.11145,-1.47284 -1.98242,-1.47284 -1.62103,0 -2.43213,1.07007 -2.43213,3.20911 0,2.13953 0.8111,3.2085 2.43213,3.2085 1.05109,0 1.78717,-0.52075 2.20728,-1.56451 l 2.25201,1.17297 c -1.04828,1.86548 -2.62122,2.79846 -4.71771,2.79846 -1.61768,0 -2.9126,-0.4967 -3.88647,-1.48901 -0.97217,-0.99341 -1.45935,-2.36273 -1.45935,-4.10852 0,-1.71503 0.49445,-3.07654 1.48285,-4.08502 0.98785,-1.00854 2.2453,-1.51257 3.7735,-1.51257 2.21619,0 3.80365,0.87488 4.76129,2.62286 l -2.43098,1.22057 z"
               id="path5708_1_"
               inkscape:connector-curvature="0" />
          </g>
        </g>
        <g
           id="g275">
          <circle
             style="fill:#ffffff"
             id="circle277"
             r="10.80664"
             cy="15.31348"
             cx="255.55124" />
          <g
             id="g279">
            <path
               id="path281"
               d="m 258.67819,12.18701 c 0,-0.4165 -0.33789,-0.75391 -0.75293,-0.75391 l -4.77344,0 c -0.41504,0 -0.75293,0.3374 -0.75293,0.75391 l 0,4.77295 1.33105,0 0,5.65186 3.61719,0 0,-5.65186 1.33105,0 0,-4.77295 10e-6,0 z"
               inkscape:connector-curvature="0" />
            <circle
               id="circle283"
               r="1.63281"
               cy="9.1723604"
               cx="255.53854" />
          </g>
          <path
             style="clip-rule:evenodd;fill-rule:evenodd"
             id="path285"
             d="m 255.5239,3.40723 c -3.23242,0 -5.96875,1.12793 -8.20801,3.38379 -2.29785,2.3335 -3.44629,5.0957 -3.44629,8.28467 0,3.18897 1.14844,5.93164 3.44629,8.22656 2.29785,2.29443 5.03418,3.44189 8.20801,3.44189 3.21289,0 5.99805,-1.15625 8.35352,-3.47119 2.21973,-2.19727 3.33008,-4.92969 3.33008,-8.19727 0,-3.26758 -1.12988,-6.02881 -3.3877,-8.28467 -2.25977,-2.25585 -5.02442,-3.38378 -8.2959,-3.38378 z m 0.0293,2.09961 c 2.64844,0 4.89746,0.93408 6.74707,2.80127 1.86914,1.84717 2.80371,4.10303 2.80371,6.76758 0,2.68359 -0.91504,4.91064 -2.74512,6.68018 -1.92871,1.90625 -4.19629,2.85889 -6.80566,2.85889 -2.61035,0 -4.85938,-0.94287 -6.74707,-2.82959 -1.88965,-1.88672 -2.83301,-4.12305 -2.83301,-6.70947 0,-2.58691 0.9541,-4.84229 2.8623,-6.76758 1.83009,-1.8672 4.06934,-2.80128 6.71778,-2.80128 z"
             inkscape:connector-curvature="0" />
        </g>
      </g>
    </g>
  </g>
</svg>
