<?xml version="1.0" encoding="UTF-8" standalone="no"?>
<!-- Created with Inkscape (http://www.inkscape.org/) -->

<svg
   xmlns:dc="http://purl.org/dc/elements/1.1/"
   xmlns:cc="http://creativecommons.org/ns#"
   xmlns:rdf="http://www.w3.org/1999/02/22-rdf-syntax-ns#"
   xmlns:svg="http://www.w3.org/2000/svg"
   xmlns="http://www.w3.org/2000/svg"
   xmlns:sodipodi="http://sodipodi.sourceforge.net/DTD/sodipodi-0.dtd"
   xmlns:inkscape="http://www.inkscape.org/namespaces/inkscape"
   width="1920"
   height="1080"
   viewBox="0 0 1920 1080"
   id="svg2"
   version="1.1"
   inkscape:version="0.91 r13725"
   sodipodi:docname="intro.svg">
  <defs
     id="defs4" />
  <sodipodi:namedview
     id="base"
     pagecolor="#ffffff"
     bordercolor="#666666"
     borderopacity="1.0"
     inkscape:pageopacity="0.0"
     inkscape:pageshadow="2"
     inkscape:zoom="0.50749643"
     inkscape:cx="853.55913"
     inkscape:cy="472.48838"
     inkscape:document-units="px"
     inkscape:current-layer="layer1"
     showgrid="false"
     units="px"
     inkscape:window-width="1920"
     inkscape:window-height="1057"
     inkscape:window-x="0"
     inkscape:window-y="0"
     inkscape:window-maximized="0"
     showguides="true"
     inkscape:guide-bbox="true">
    <sodipodi:guide
       position="100,911.23368"
       orientation="1,0"
       id="guide4174"
       inkscape:label=""
       inkscape:color="rgb(0,0,255)" />
    <sodipodi:guide
       position="1820,1001.7997"
       orientation="1,0"
       id="guide4176"
       inkscape:label=""
       inkscape:color="rgb(0,0,255)" />
  </sodipodi:namedview>
  <metadata
     id="metadata7">
    <rdf:RDF>
      <cc:Work
         rdf:about="">
        <dc:format>image/svg+xml</dc:format>
        <dc:type
           rdf:resource="http://purl.org/dc/dcmitype/StillImage" />
        <dc:title />
      </cc:Work>
    </rdf:RDF>
  </metadata>
  <g
     inkscape:label="Layer 1"
     inkscape:groupmode="layer"
     id="layer1"
     transform="translate(0,27.637839)">
    <rect
       style="opacity:1;fill:#000000;fill-opacity:1;stroke:#000000;stroke-width:0.49981919;stroke-miterlimit:4;stroke-dasharray:none;stroke-opacity:1"
       id="rect4136"
       width="1919.5002"
       height="1079.5001"
       x="0.24990959"
       y="-27.387871"
       sodipodi:insensitive="true" />
    <path
       sodipodi:nodetypes="cccccc"
       inkscape:connector-curvature="0"
       id="cloud"
       d="m 737.10722,501.38312 449.45588,2.33823 c 135.7495,-47.44294 100.4887,-198.10298 7.817,-222.9481 7.4457,-64.32148 -78.4627,-154.27553 -171.0192,-98.46561 C 958.91659,48.906208 725.905,62.695984 738.41545,274.36935 570.38804,337.6652 661.68115,498.1928 737.10722,501.38312 Z"
       style="fill:none;fill-rule:evenodd;stroke:#ffffff;stroke-width:42.75263214;stroke-linecap:butt;stroke-linejoin:miter;stroke-miterlimit:4;stroke-dasharray:none;stroke-opacity:1"
       sodipodi:insensitive="true" />
    <g
       id="rain">
      <path
         id="path5262"
         d="m 881.25146,591.58189 a 21.378454,21.378454 0 0 0 -20.53795,12.59532 l -13.43702,29.92684 a 21.378454,21.378454 0 0 0 0,17.51188 c 5.47848,12.20208 15.96454,25.01697 32.93622,25.01697 16.9717,0 27.45774,-12.81489 32.93623,-25.01697 a 21.378454,21.378454 0 0 0 0,-17.51188 l -13.43368,-29.92684 a 21.378454,21.378454 0 0 0 -18.4638,-12.59532 z m -1.55645,22.42174 a 10.104185,10.104185 0 0 1 9.73624,5.95197 l 6.34944,14.14512 a 10.104185,10.104185 0 0 1 0,8.27663 c -2.58932,5.76711 -7.54658,11.82378 -15.56798,11.82378 -8.0214,0 -12.97866,-6.05667 -15.56796,-11.82378 a 10.104185,10.104185 0 0 1 0,-8.27663 l 6.35277,-14.14512 a 10.104185,10.104185 0 0 1 8.69749,-5.95197 z"
         style="color:#000000;font-style:normal;font-variant:normal;font-weight:normal;font-stretch:normal;font-size:medium;line-height:normal;font-family:sans-serif;text-indent:0;text-align:start;text-decoration:none;text-decoration-line:none;text-decoration-style:solid;text-decoration-color:#000000;letter-spacing:normal;word-spacing:normal;text-transform:none;direction:ltr;block-progression:tb;writing-mode:lr-tb;baseline-shift:baseline;text-anchor:start;white-space:normal;clip-rule:nonzero;overflow:visible;visibility:visible;opacity:1;isolation:auto;mix-blend-mode:normal;color-interpolation:sRGB;color-interpolation-filters:linearRGB;solid-color:#000000;solid-opacity:1;fill:#ffffff;fill-opacity:1;fill-rule:nonzero;stroke:none;stroke-width:25;stroke-linecap:butt;stroke-linejoin:round;stroke-miterlimit:4;stroke-dasharray:none;stroke-dashoffset:0;stroke-opacity:1;marker:none;color-rendering:auto;image-rendering:auto;shape-rendering:auto;text-rendering:auto;enable-background:accumulate"
         inkscape:connector-curvature="0" />
      <path
         id="path5268"
         d="m 1176.9895,591.58189 a 21.378454,21.378454 0 0 0 -20.538,12.59532 l -13.437,29.92684 a 21.378454,21.378454 0 0 0 0,17.51188 c 5.4785,12.20208 15.9645,25.01697 32.9362,25.01697 16.9717,0 27.4611,-12.81489 32.9396,-25.01697 a 21.378454,21.378454 0 0 0 0,-17.51188 l -13.437,-29.92684 a 21.378454,21.378454 0 0 0 -18.4638,-12.59532 z m -1.5565,22.42174 a 10.104185,10.104185 0 0 1 9.7362,5.95197 l 6.3495,14.14512 a 10.104185,10.104185 0 0 1 0,8.27663 c -2.5893,5.76711 -7.5466,11.82378 -15.568,11.82378 -8.0214,0 -12.9786,-6.05667 -15.568,-11.82378 a 10.104185,10.104185 0 0 1 0,-8.27663 l 6.3528,-14.14512 a 10.104185,10.104185 0 0 1 8.6975,-5.95197 z"
         style="color:#000000;font-style:normal;font-variant:normal;font-weight:normal;font-stretch:normal;font-size:medium;line-height:normal;font-family:sans-serif;text-indent:0;text-align:start;text-decoration:none;text-decoration-line:none;text-decoration-style:solid;text-decoration-color:#000000;letter-spacing:normal;word-spacing:normal;text-transform:none;direction:ltr;block-progression:tb;writing-mode:lr-tb;baseline-shift:baseline;text-anchor:start;white-space:normal;clip-rule:nonzero;overflow:visible;visibility:visible;opacity:1;isolation:auto;mix-blend-mode:normal;color-interpolation:sRGB;color-interpolation-filters:linearRGB;solid-color:#000000;solid-opacity:1;fill:#ffffff;fill-opacity:1;fill-rule:nonzero;stroke:none;stroke-width:25;stroke-linecap:butt;stroke-linejoin:round;stroke-miterlimit:4;stroke-dasharray:none;stroke-dashoffset:0;stroke-opacity:1;marker:none;color-rendering:auto;image-rendering:auto;shape-rendering:auto;text-rendering:auto;enable-background:accumulate"
         inkscape:connector-curvature="0" />
      <path
         inkscape:connector-curvature="0"
         id="path5272"
         d="m 732.34204,591.56376 c 7.64048,0 12.71262,4.58324 14.99015,7.45834 2.27752,2.8751 3.20575,5.1487 4.05148,7.38483 1.69147,4.47229 2.61672,8.9685 3.48032,14.59936 a 17.234161,17.234161 0 0 1 0,5.22384 l -5.48769,35.78864 a 17.234161,17.234161 0 0 1 -34.06516,0 l -5.49105,-35.78864 a 17.234161,17.234161 0 0 1 0,-5.22384 c 0.86362,-5.63086 1.79221,-10.12707 3.48367,-14.59936 0.84574,-2.23613 1.77061,-4.50973 4.04815,-7.38483 2.27753,-2.8751 7.34967,-7.45834 14.99013,-7.45834 z"
         style="color:#000000;font-style:normal;font-variant:normal;font-weight:normal;font-stretch:normal;font-size:medium;line-height:normal;font-family:sans-serif;text-indent:0;text-align:start;text-decoration:none;text-decoration-line:none;text-decoration-style:solid;text-decoration-color:#000000;letter-spacing:normal;word-spacing:normal;text-transform:none;direction:ltr;block-progression:tb;writing-mode:lr-tb;baseline-shift:baseline;text-anchor:start;white-space:normal;clip-rule:nonzero;overflow:visible;visibility:visible;opacity:1;isolation:auto;mix-blend-mode:normal;color-interpolation:sRGB;color-interpolation-filters:linearRGB;solid-color:#000000;solid-opacity:1;fill:#ffffff;fill-opacity:1;fill-rule:nonzero;stroke:none;stroke-width:20.15365601;stroke-linecap:butt;stroke-linejoin:round;stroke-miterlimit:4;stroke-dasharray:none;stroke-dashoffset:0;stroke-opacity:1;marker:none;color-rendering:auto;image-rendering:auto;shape-rendering:auto;text-rendering:auto;enable-background:accumulate" />
      <path
         inkscape:connector-curvature="0"
         id="path5274"
         d="m 1028.0834,591.56376 c 7.6405,0 12.7126,4.58324 14.9901,7.45834 2.2775,2.8751 3.2024,5.1487 4.0482,7.38483 1.6914,4.47229 2.62,8.9685 3.4836,14.59936 a 17.234161,17.234161 0 0 1 0,5.22384 l -5.491,35.78864 a 17.234161,17.234161 0 0 1 -34.0652,0 l -5.4877,-35.78864 a 17.234161,17.234161 0 0 1 0,-5.22384 c 0.8636,-5.63086 1.7889,-10.12707 3.4804,-14.59936 0.8457,-2.23613 1.7739,-4.50973 4.0514,-7.38483 2.2776,-2.8751 7.3497,-7.45834 14.9902,-7.45834 z"
         style="color:#000000;font-style:normal;font-variant:normal;font-weight:normal;font-stretch:normal;font-size:medium;line-height:normal;font-family:sans-serif;text-indent:0;text-align:start;text-decoration:none;text-decoration-line:none;text-decoration-style:solid;text-decoration-color:#000000;letter-spacing:normal;word-spacing:normal;text-transform:none;direction:ltr;block-progression:tb;writing-mode:lr-tb;baseline-shift:baseline;text-anchor:start;white-space:normal;clip-rule:nonzero;overflow:visible;visibility:visible;opacity:1;isolation:auto;mix-blend-mode:normal;color-interpolation:sRGB;color-interpolation-filters:linearRGB;solid-color:#000000;solid-opacity:1;fill:#ffffff;fill-opacity:1;fill-rule:nonzero;stroke:none;stroke-width:20.15365601;stroke-linecap:butt;stroke-linejoin:round;stroke-miterlimit:4;stroke-dasharray:none;stroke-dashoffset:0;stroke-opacity:1;marker:none;color-rendering:auto;image-rendering:auto;shape-rendering:auto;text-rendering:auto;enable-background:accumulate" />
      <path
         id="path5278"
         d="m 662.358,728.39365 a 21.378454,21.378454 0 0 0 -20.53797,12.59532 l -13.43701,29.92684 a 21.378454,21.378454 0 0 0 0,17.50854 c 5.47848,12.20208 15.96453,25.01698 32.93622,25.01698 16.97171,0 27.45775,-12.8149 32.93623,-25.01698 a 21.378454,21.378454 0 0 0 0,-17.50854 L 680.82178,740.98897 A 21.378454,21.378454 0 0 0 662.358,728.39365 Z m -1.55647,22.4184 a 10.104185,10.104185 0 0 1 9.73625,5.95197 l 6.34943,14.14512 a 10.104185,10.104185 0 0 1 0,8.27664 c -2.58931,5.76711 -7.54656,11.82377 -15.56797,11.82377 -8.0214,0 -12.97865,-6.05666 -15.56797,-11.82377 a 10.104185,10.104185 0 0 1 0,-8.27664 l 6.35278,-14.14512 a 10.104185,10.104185 0 0 1 8.69748,-5.95197 z"
         style="color:#000000;font-style:normal;font-variant:normal;font-weight:normal;font-stretch:normal;font-size:medium;line-height:normal;font-family:sans-serif;text-indent:0;text-align:start;text-decoration:none;text-decoration-line:none;text-decoration-style:solid;text-decoration-color:#000000;letter-spacing:normal;word-spacing:normal;text-transform:none;direction:ltr;block-progression:tb;writing-mode:lr-tb;baseline-shift:baseline;text-anchor:start;white-space:normal;clip-rule:nonzero;overflow:visible;visibility:visible;opacity:1;isolation:auto;mix-blend-mode:normal;color-interpolation:sRGB;color-interpolation-filters:linearRGB;solid-color:#000000;solid-opacity:1;fill:#ffffff;fill-opacity:1;fill-rule:nonzero;stroke:none;stroke-width:25;stroke-linecap:butt;stroke-linejoin:round;stroke-miterlimit:4;stroke-dasharray:none;stroke-dashoffset:0;stroke-opacity:1;marker:none;color-rendering:auto;image-rendering:auto;shape-rendering:auto;text-rendering:auto;enable-background:accumulate"
         inkscape:connector-curvature="0" />
      <path
         id="path5284"
         d="m 958.09598,728.39365 a 21.378454,21.378454 0 0 0 -20.53795,12.59532 L 924.121,770.91581 a 21.378454,21.378454 0 0 0 0,17.50854 c 5.47849,12.20208 15.96453,25.01698 32.93623,25.01698 16.9717,0 27.46108,-12.8149 32.93957,-25.01698 a 21.378454,21.378454 0 0 0 0,-17.50854 l -13.43701,-29.92684 a 21.378454,21.378454 0 0 0 -18.46381,-12.59532 z m -1.55645,22.4184 a 10.104185,10.104185 0 0 1 9.73623,5.95197 l 6.34943,14.14512 a 10.104185,10.104185 0 0 1 0,8.27664 c -2.58929,5.76711 -7.54656,11.82377 -15.56796,11.82377 -8.0214,0 -12.97865,-6.05666 -15.56798,-11.82377 a 10.104185,10.104185 0 0 1 0,-8.27664 l 6.35279,-14.14512 a 10.104185,10.104185 0 0 1 8.69749,-5.95197 z"
         style="color:#000000;font-style:normal;font-variant:normal;font-weight:normal;font-stretch:normal;font-size:medium;line-height:normal;font-family:sans-serif;text-indent:0;text-align:start;text-decoration:none;text-decoration-line:none;text-decoration-style:solid;text-decoration-color:#000000;letter-spacing:normal;word-spacing:normal;text-transform:none;direction:ltr;block-progression:tb;writing-mode:lr-tb;baseline-shift:baseline;text-anchor:start;white-space:normal;clip-rule:nonzero;overflow:visible;visibility:visible;opacity:1;isolation:auto;mix-blend-mode:normal;color-interpolation:sRGB;color-interpolation-filters:linearRGB;solid-color:#000000;solid-opacity:1;fill:#ffffff;fill-opacity:1;fill-rule:nonzero;stroke:none;stroke-width:25;stroke-linecap:butt;stroke-linejoin:round;stroke-miterlimit:4;stroke-dasharray:none;stroke-dashoffset:0;stroke-opacity:1;marker:none;color-rendering:auto;image-rendering:auto;shape-rendering:auto;text-rendering:auto;enable-background:accumulate"
         inkscape:connector-curvature="0" />
      <path
         inkscape:connector-curvature="0"
         id="path5288"
         d="m 809.1899,728.37219 c 7.64048,0 12.71261,4.58324 14.99015,7.45833 2.27752,2.8751 3.20241,5.1487 4.04813,7.38484 1.69146,4.47228 2.62007,8.96849 3.48367,14.59935 a 17.234161,17.234161 0 0 1 0,5.22384 l -5.49103,35.78864 a 17.234161,17.234161 0 0 1 -34.06516,0 l -5.48771,-35.78864 a 17.234161,17.234161 0 0 1 0,-5.22384 c 0.86362,-5.63086 1.78887,-10.12707 3.48034,-14.59935 0.84573,-2.23614 1.77394,-4.50974 4.05148,-7.38484 2.27753,-2.87509 7.34967,-7.45833 14.99013,-7.45833 z"
         style="color:#000000;font-style:normal;font-variant:normal;font-weight:normal;font-stretch:normal;font-size:medium;line-height:normal;font-family:sans-serif;text-indent:0;text-align:start;text-decoration:none;text-decoration-line:none;text-decoration-style:solid;text-decoration-color:#000000;letter-spacing:normal;word-spacing:normal;text-transform:none;direction:ltr;block-progression:tb;writing-mode:lr-tb;baseline-shift:baseline;text-anchor:start;white-space:normal;clip-rule:nonzero;overflow:visible;visibility:visible;opacity:1;isolation:auto;mix-blend-mode:normal;color-interpolation:sRGB;color-interpolation-filters:linearRGB;solid-color:#000000;solid-opacity:1;fill:#ffffff;fill-opacity:1;fill-rule:nonzero;stroke:none;stroke-width:20.15365601;stroke-linecap:butt;stroke-linejoin:round;stroke-miterlimit:4;stroke-dasharray:none;stroke-dashoffset:0;stroke-opacity:1;marker:none;color-rendering:auto;image-rendering:auto;shape-rendering:auto;text-rendering:auto;enable-background:accumulate" />
      <path
         inkscape:connector-curvature="0"
         id="path5290"
         d="m 1104.9279,728.37219 c 7.6405,0 12.7126,4.58324 14.9901,7.45833 2.2776,2.8751 3.2024,5.1487 4.0482,7.38484 1.6914,4.47228 2.62,8.96849 3.4836,14.59935 a 17.234161,17.234161 0 0 1 0,5.22384 l -5.4876,35.78864 a 17.234161,17.234161 0 0 1 -34.0686,0 l -5.4877,-35.78864 a 17.234161,17.234161 0 0 1 0,-5.22384 c 0.8637,-5.63086 1.7923,-10.12707 3.4837,-14.59935 0.8458,-2.23614 1.7706,-4.50974 4.0481,-7.38484 2.2776,-2.87509 7.3497,-7.45833 14.9902,-7.45833 z"
         style="color:#000000;font-style:normal;font-variant:normal;font-weight:normal;font-stretch:normal;font-size:medium;line-height:normal;font-family:sans-serif;text-indent:0;text-align:start;text-decoration:none;text-decoration-line:none;text-decoration-style:solid;text-decoration-color:#000000;letter-spacing:normal;word-spacing:normal;text-transform:none;direction:ltr;block-progression:tb;writing-mode:lr-tb;baseline-shift:baseline;text-anchor:start;white-space:normal;clip-rule:nonzero;overflow:visible;visibility:visible;opacity:1;isolation:auto;mix-blend-mode:normal;color-interpolation:sRGB;color-interpolation-filters:linearRGB;solid-color:#000000;solid-opacity:1;fill:#ffffff;fill-opacity:1;fill-rule:nonzero;stroke:none;stroke-width:20.15365601;stroke-linecap:butt;stroke-linejoin:round;stroke-miterlimit:4;stroke-dasharray:none;stroke-dashoffset:0;stroke-opacity:1;marker:none;color-rendering:auto;image-rendering:auto;shape-rendering:auto;text-rendering:auto;enable-background:accumulate" />
      <path
         id="path5294"
         d="m 881.25146,865.20207 a 21.378454,21.378454 0 0 0 -20.53795,12.59532 l -13.43702,29.92685 a 21.378454,21.378454 0 0 0 0,17.50853 c 5.47848,12.20208 15.96452,25.01698 32.93622,25.01698 16.9717,0 27.45774,-12.8149 32.93623,-25.01698 a 21.378454,21.378454 0 0 0 0,-17.50853 l -13.43368,-29.92685 a 21.378454,21.378454 0 0 0 -18.4638,-12.59532 z m -1.55645,22.41841 a 10.104185,10.104185 0 0 1 9.73624,5.95197 l 6.34944,14.14512 a 10.104185,10.104185 0 0 1 0,8.27663 c -2.58932,5.76711 -7.54658,11.82377 -15.56798,11.82377 -8.0214,0 -12.97866,-6.05666 -15.56796,-11.82377 a 10.104185,10.104185 0 0 1 0,-8.27663 l 6.35277,-14.14512 a 10.104185,10.104185 0 0 1 8.69749,-5.95197 z"
         style="color:#000000;font-style:normal;font-variant:normal;font-weight:normal;font-stretch:normal;font-size:medium;line-height:normal;font-family:sans-serif;text-indent:0;text-align:start;text-decoration:none;text-decoration-line:none;text-decoration-style:solid;text-decoration-color:#000000;letter-spacing:normal;word-spacing:normal;text-transform:none;direction:ltr;block-progression:tb;writing-mode:lr-tb;baseline-shift:baseline;text-anchor:start;white-space:normal;clip-rule:nonzero;overflow:visible;visibility:visible;opacity:1;isolation:auto;mix-blend-mode:normal;color-interpolation:sRGB;color-interpolation-filters:linearRGB;solid-color:#000000;solid-opacity:1;fill:#ffffff;fill-opacity:1;fill-rule:nonzero;stroke:none;stroke-width:25;stroke-linecap:butt;stroke-linejoin:round;stroke-miterlimit:4;stroke-dasharray:none;stroke-dashoffset:0;stroke-opacity:1;marker:none;color-rendering:auto;image-rendering:auto;shape-rendering:auto;text-rendering:auto;enable-background:accumulate"
         inkscape:connector-curvature="0" />
      <path
         id="path5300"
         d="m 1176.9895,865.20207 a 21.378454,21.378454 0 0 0 -20.538,12.59532 l -13.437,29.92685 a 21.378454,21.378454 0 0 0 0,17.50853 c 5.4785,12.20208 15.9645,25.01698 32.9362,25.01698 16.9717,0 27.4611,-12.8149 32.9396,-25.01698 a 21.378454,21.378454 0 0 0 0,-17.50853 l -13.437,-29.92685 a 21.378454,21.378454 0 0 0 -18.4638,-12.59532 z m -1.5565,22.41841 a 10.104185,10.104185 0 0 1 9.7362,5.95197 l 6.3495,14.14512 a 10.104185,10.104185 0 0 1 0,8.27663 c -2.5893,5.76711 -7.5466,11.82377 -15.568,11.82377 -8.0214,0 -12.9786,-6.05666 -15.568,-11.82377 a 10.104185,10.104185 0 0 1 0,-8.27663 l 6.3528,-14.14512 a 10.104185,10.104185 0 0 1 8.6975,-5.95197 z"
         style="color:#000000;font-style:normal;font-variant:normal;font-weight:normal;font-stretch:normal;font-size:medium;line-height:normal;font-family:sans-serif;text-indent:0;text-align:start;text-decoration:none;text-decoration-line:none;text-decoration-style:solid;text-decoration-color:#000000;letter-spacing:normal;word-spacing:normal;text-transform:none;direction:ltr;block-progression:tb;writing-mode:lr-tb;baseline-shift:baseline;text-anchor:start;white-space:normal;clip-rule:nonzero;overflow:visible;visibility:visible;opacity:1;isolation:auto;mix-blend-mode:normal;color-interpolation:sRGB;color-interpolation-filters:linearRGB;solid-color:#000000;solid-opacity:1;fill:#ffffff;fill-opacity:1;fill-rule:nonzero;stroke:none;stroke-width:25;stroke-linecap:butt;stroke-linejoin:round;stroke-miterlimit:4;stroke-dasharray:none;stroke-dashoffset:0;stroke-opacity:1;marker:none;color-rendering:auto;image-rendering:auto;shape-rendering:auto;text-rendering:auto;enable-background:accumulate"
         inkscape:connector-curvature="0" />
      <path
         inkscape:connector-curvature="0"
         id="path5304"
         d="m 732.34204,865.18061 c 7.64048,0 12.71262,4.58324 14.99015,7.45834 2.27752,2.87509 3.20575,5.1487 4.05148,7.38483 1.69147,4.47228 2.61672,8.96849 3.48032,14.59936 a 17.234161,17.234161 0 0 1 0,5.22384 l -5.48769,35.78864 a 17.234161,17.234161 0 0 1 -34.06516,0 l -5.49105,-35.78864 a 17.234161,17.234161 0 0 1 0,-5.22384 c 0.86362,-5.63087 1.79221,-10.12708 3.48367,-14.59936 0.84574,-2.23613 1.77061,-4.50974 4.04815,-7.38483 2.27753,-2.8751 7.34967,-7.45834 14.99013,-7.45834 z"
         style="color:#000000;font-style:normal;font-variant:normal;font-weight:normal;font-stretch:normal;font-size:medium;line-height:normal;font-family:sans-serif;text-indent:0;text-align:start;text-decoration:none;text-decoration-line:none;text-decoration-style:solid;text-decoration-color:#000000;letter-spacing:normal;word-spacing:normal;text-transform:none;direction:ltr;block-progression:tb;writing-mode:lr-tb;baseline-shift:baseline;text-anchor:start;white-space:normal;clip-rule:nonzero;overflow:visible;visibility:visible;opacity:1;isolation:auto;mix-blend-mode:normal;color-interpolation:sRGB;color-interpolation-filters:linearRGB;solid-color:#000000;solid-opacity:1;fill:#ffffff;fill-opacity:1;fill-rule:nonzero;stroke:none;stroke-width:20.15365601;stroke-linecap:butt;stroke-linejoin:round;stroke-miterlimit:4;stroke-dasharray:none;stroke-dashoffset:0;stroke-opacity:1;marker:none;color-rendering:auto;image-rendering:auto;shape-rendering:auto;text-rendering:auto;enable-background:accumulate" />
      <path
         inkscape:connector-curvature="0"
         id="path5306"
         d="m 1028.0834,865.18061 c 7.6405,0 12.7126,4.58324 14.9901,7.45834 2.2775,2.87509 3.2024,5.1487 4.0482,7.38483 1.6914,4.47228 2.62,8.96849 3.4836,14.59936 a 17.234161,17.234161 0 0 1 0,5.22384 l -5.491,35.78864 a 17.234161,17.234161 0 0 1 -34.0652,0 l -5.4877,-35.78864 a 17.234161,17.234161 0 0 1 0,-5.22384 c 0.8636,-5.63087 1.7889,-10.12708 3.4804,-14.59936 0.8457,-2.23613 1.7739,-4.50974 4.0514,-7.38483 2.2776,-2.8751 7.3497,-7.45834 14.9902,-7.45834 z"
         style="color:#000000;font-style:normal;font-variant:normal;font-weight:normal;font-stretch:normal;font-size:medium;line-height:normal;font-family:sans-serif;text-indent:0;text-align:start;text-decoration:none;text-decoration-line:none;text-decoration-style:solid;text-decoration-color:#000000;letter-spacing:normal;word-spacing:normal;text-transform:none;direction:ltr;block-progression:tb;writing-mode:lr-tb;baseline-shift:baseline;text-anchor:start;white-space:normal;clip-rule:nonzero;overflow:visible;visibility:visible;opacity:1;isolation:auto;mix-blend-mode:normal;color-interpolation:sRGB;color-interpolation-filters:linearRGB;solid-color:#000000;solid-opacity:1;fill:#ffffff;fill-opacity:1;fill-rule:nonzero;stroke:none;stroke-width:20.15365601;stroke-linecap:butt;stroke-linejoin:round;stroke-miterlimit:4;stroke-dasharray:none;stroke-dashoffset:0;stroke-opacity:1;marker:none;color-rendering:auto;image-rendering:auto;shape-rendering:auto;text-rendering:auto;enable-background:accumulate" />
    </g>
    <flowRoot
       xml:space="preserve"
       id="personnames"
       style="font-style:normal;font-variant:normal;font-weight:normal;font-stretch:normal;font-size:180px;line-height:125%;font-family:Xolonium;-inkscape-font-specification:Xolonium;letter-spacing:0px;word-spacing:0px;fill:#000000;fill-opacity:1;stroke:none;stroke-width:1px;stroke-linecap:butt;stroke-linejoin:miter;stroke-opacity:1"
       transform="translate(6.9666183,-109.84394)"
       inkscape:label="#personnames"><flowRegion
         id="flowRegion4158"><rect
           id="rect4160"
           width="1720.0001"
           height="167.19884"
           x="93.033379"
           y="652.24963" /></flowRegion><flowPara
         id="flowPara4162"
         style="font-style:normal;font-variant:normal;font-weight:normal;font-stretch:normal;font-size:125px;font-family:'Yanone Kaffeesatz';-inkscape-font-specification:'Yanone Kaffeesatz';text-align:center;text-anchor:middle;fill:#ffffff;fill-opacity:1">$personnames</flowPara></flowRoot>    <flowRoot
       xml:space="preserve"
       id="title"
       style="font-style:normal;font-variant:normal;font-weight:normal;font-stretch:normal;font-size:180px;line-height:125%;font-family:Xolonium;-inkscape-font-specification:Xolonium;letter-spacing:0px;word-spacing:0px;fill:#000000;fill-opacity:1;stroke:none;stroke-width:1px;stroke-linecap:butt;stroke-linejoin:miter;stroke-opacity:1;text-anchor:middle;text-align:center;"
       transform="translate(652.07547,-477.68139)"
       inkscape:label="#title"><flowRegion
         id="flowRegion4166"><rect
           id="rect4168"
           width="1720"
           height="266.12466"
           x="-552.0755"
           y="1169.1727"
           style="text-align:center;text-anchor:middle" /></flowRegion><flowPara
         id="flowPara4170"
         style="font-style:normal;font-variant:normal;font-weight:300;font-stretch:normal;font-size:112.5px;font-family:'Yanone Kaffeesatz';-inkscape-font-specification:'Yanone Kaffeesatz Light';fill:#ffffff;fill-opacity:1;text-anchor:middle;text-align:center">$title</flowPara></flowRoot>  </g>
</svg>
