<?xml version="1.0" encoding="UTF-8" standalone="no"?>
<!-- Created with Inkscape (http://www.inkscape.org/) -->

<svg
   xmlns:dc="http://purl.org/dc/elements/1.1/"
   xmlns:cc="http://creativecommons.org/ns#"
   xmlns:rdf="http://www.w3.org/1999/02/22-rdf-syntax-ns#"
   xmlns:svg="http://www.w3.org/2000/svg"
   xmlns="http://www.w3.org/2000/svg"
   xmlns:sodipodi="http://sodipodi.sourceforge.net/DTD/sodipodi-0.dtd"
   xmlns:inkscape="http://www.inkscape.org/namespaces/inkscape"
   width="1920"
   height="1080"
   viewBox="0 0 1920 1080"
   id="svg2"
   version="1.1"
   inkscape:version="0.91 r13725"
   sodipodi:docname="outro.svg">
  <defs
     id="defs4" />
  <sodipodi:namedview
     id="base"
     pagecolor="#ffffff"
     bordercolor="#666666"
     borderopacity="1.0"
     inkscape:pageopacity="0.0"
     inkscape:pageshadow="2"
     inkscape:zoom="2.0299857"
     inkscape:cx="1322.2962"
     inkscape:cy="584.94455"
     inkscape:document-units="px"
     inkscape:current-layer="layer1"
     showgrid="false"
     units="px"
     inkscape:window-width="1920"
     inkscape:window-height="1057"
     inkscape:window-x="0"
     inkscape:window-y="0"
     inkscape:window-maximized="0"
     showguides="true"
     inkscape:guide-bbox="true">
    <sodipodi:guide
       position="100,911.23368"
       orientation="1,0"
       id="guide4174"
       inkscape:label=""
       inkscape:color="rgb(0,0,255)" />
    <sodipodi:guide
       position="1820,1001.7997"
       orientation="1,0"
       id="guide4176"
       inkscape:label=""
       inkscape:color="rgb(0,0,255)" />
  </sodipodi:namedview>
  <metadata
     id="metadata7">
    <rdf:RDF>
      <cc:Work
         rdf:about="">
        <dc:format>image/svg+xml</dc:format>
        <dc:type
           rdf:resource="http://purl.org/dc/dcmitype/StillImage" />
        <dc:title />
      </cc:Work>
    </rdf:RDF>
  </metadata>
  <g
     inkscape:label="Layer 1"
     inkscape:groupmode="layer"
     id="layer1"
     transform="translate(0,27.637839)">
    <rect
       style="opacity:1;fill:#000000;fill-opacity:1;stroke:#000000;stroke-width:0.49981919;stroke-miterlimit:4;stroke-dasharray:none;stroke-opacity:1"
       id="rect4136"
       width="1919.5002"
       height="1079.5001"
       x="0.24990959"
       y="-27.387871"
       sodipodi:insensitive="true" />
    <g
       transform="matrix(1.4543585,0,0,1.4543585,284.31488,-536.4442)"
       id="logo"
       inkscape:label="#logo">
      <path
         style="fill:none;fill-rule:evenodd;stroke:#ffffff;stroke-width:25;stroke-linecap:butt;stroke-linejoin:miter;stroke-miterlimit:4;stroke-dasharray:none;stroke-opacity:1"
         d="m 119.35679,714.72697 262.8235,1.3673 c 79.3808,-27.7427 58.7617,-115.84256 4.5711,-130.37098 4.3539,-37.61258 -45.8818,-90.21405 -100.0051,-57.57868 -37.6844,-78.00773 -173.9401,-69.94403 -166.6245,53.83394 -98.255595,37.01284 -44.871096,130.88285 -0.765,132.74842 z"
         id="path5258"
         inkscape:connector-curvature="0"
         sodipodi:nodetypes="cccccc" />
      <path
         id="path5262"
         transform="translate(0,412.36216)"
         d="m 203.64648,355.10938 a 12.50125,12.50125 0 0 0 -12.00976,7.36523 l -7.85742,17.5 a 12.50125,12.50125 0 0 0 0,10.24023 c 3.20359,7.13528 9.33541,14.62891 19.25976,14.62891 9.92436,0 16.05617,-7.49363 19.25977,-14.62891 a 12.50125,12.50125 0 0 0 0,-10.24023 l -7.85547,-17.5 a 12.50125,12.50125 0 0 0 -10.79688,-7.36523 z m -0.91015,13.11132 a 5.9085164,5.9085164 0 0 1 5.69336,3.48047 l 3.71289,8.27149 a 5.9085164,5.9085164 0 0 1 0,4.83984 c -1.51413,3.37237 -4.41293,6.91406 -9.10352,6.91406 -4.69059,0 -7.58939,-3.54169 -9.10351,-6.91406 a 5.9085164,5.9085164 0 0 1 0,-4.83984 l 3.71484,-8.27149 a 5.9085164,5.9085164 0 0 1 5.08594,-3.48047 z"
         style="color:#000000;font-style:normal;font-variant:normal;font-weight:normal;font-stretch:normal;font-size:medium;line-height:normal;font-family:sans-serif;text-indent:0;text-align:start;text-decoration:none;text-decoration-line:none;text-decoration-style:solid;text-decoration-color:#000000;letter-spacing:normal;word-spacing:normal;text-transform:none;direction:ltr;block-progression:tb;writing-mode:lr-tb;baseline-shift:baseline;text-anchor:start;white-space:normal;clip-rule:nonzero;display:inline;overflow:visible;visibility:visible;opacity:1;isolation:auto;mix-blend-mode:normal;color-interpolation:sRGB;color-interpolation-filters:linearRGB;solid-color:#000000;solid-opacity:1;fill:#ffffff;fill-opacity:1;fill-rule:nonzero;stroke:none;stroke-width:25;stroke-linecap:butt;stroke-linejoin:round;stroke-miterlimit:4;stroke-dasharray:none;stroke-dashoffset:0;stroke-opacity:1;marker:none;color-rendering:auto;image-rendering:auto;shape-rendering:auto;text-rendering:auto;enable-background:accumulate"
         inkscape:connector-curvature="0" />
      <path
         id="path5268"
         transform="translate(0,412.36216)"
         d="m 376.58203,355.10938 a 12.50125,12.50125 0 0 0 -12.00976,7.36523 l -7.85743,17.5 a 12.50125,12.50125 0 0 0 0,10.24023 c 3.2036,7.13528 9.33541,14.62891 19.25977,14.62891 9.92436,0 16.05812,-7.49363 19.26172,-14.62891 a 12.50125,12.50125 0 0 0 0,-10.24023 l -7.85742,-17.5 a 12.50125,12.50125 0 0 0 -10.79688,-7.36523 z m -0.91015,13.11132 a 5.9085164,5.9085164 0 0 1 5.69335,3.48047 l 3.71289,8.27149 a 5.9085164,5.9085164 0 0 1 0,4.83984 c -1.51412,3.37237 -4.41292,6.91406 -9.10351,6.91406 -4.69059,0 -7.58939,-3.54169 -9.10352,-6.91406 a 5.9085164,5.9085164 0 0 1 0,-4.83984 l 3.71485,-8.27149 a 5.9085164,5.9085164 0 0 1 5.08594,-3.48047 z"
         style="color:#000000;font-style:normal;font-variant:normal;font-weight:normal;font-stretch:normal;font-size:medium;line-height:normal;font-family:sans-serif;text-indent:0;text-align:start;text-decoration:none;text-decoration-line:none;text-decoration-style:solid;text-decoration-color:#000000;letter-spacing:normal;word-spacing:normal;text-transform:none;direction:ltr;block-progression:tb;writing-mode:lr-tb;baseline-shift:baseline;text-anchor:start;white-space:normal;clip-rule:nonzero;display:inline;overflow:visible;visibility:visible;opacity:1;isolation:auto;mix-blend-mode:normal;color-interpolation:sRGB;color-interpolation-filters:linearRGB;solid-color:#000000;solid-opacity:1;fill:#ffffff;fill-opacity:1;fill-rule:nonzero;stroke:none;stroke-width:25;stroke-linecap:butt;stroke-linejoin:round;stroke-miterlimit:4;stroke-dasharray:none;stroke-dashoffset:0;stroke-opacity:1;marker:none;color-rendering:auto;image-rendering:auto;shape-rendering:auto;text-rendering:auto;enable-background:accumulate"
         inkscape:connector-curvature="0" />
      <path
         inkscape:connector-curvature="0"
         id="path5272"
         d="m 116.57031,767.46094 c 4.46784,0 7.43382,2.68009 8.76563,4.36133 1.3318,1.68124 1.87459,3.01075 2.36914,4.31835 0.9891,2.61521 1.53015,5.24441 2.03515,8.53711 a 10.077836,10.077836 0 0 1 0,3.05469 l -3.20898,20.92774 a 10.077836,10.077836 0 0 1 -19.91992,0 l -3.21094,-20.92774 a 10.077836,10.077836 0 0 1 0,-3.05469 c 0.50501,-3.2927 1.04801,-5.9219 2.03711,-8.53711 0.49455,-1.3076 1.03538,-2.63711 2.36719,-4.31835 1.33181,-1.68124 4.29779,-4.36133 8.76562,-4.36133 z"
         style="color:#000000;font-style:normal;font-variant:normal;font-weight:normal;font-stretch:normal;font-size:medium;line-height:normal;font-family:sans-serif;text-indent:0;text-align:start;text-decoration:none;text-decoration-line:none;text-decoration-style:solid;text-decoration-color:#000000;letter-spacing:normal;word-spacing:normal;text-transform:none;direction:ltr;block-progression:tb;writing-mode:lr-tb;baseline-shift:baseline;text-anchor:start;white-space:normal;clip-rule:nonzero;display:inline;overflow:visible;visibility:visible;opacity:1;isolation:auto;mix-blend-mode:normal;color-interpolation:sRGB;color-interpolation-filters:linearRGB;solid-color:#000000;solid-opacity:1;fill:#ffffff;fill-opacity:1;fill-rule:nonzero;stroke:none;stroke-width:20.15365601;stroke-linecap:butt;stroke-linejoin:round;stroke-miterlimit:4;stroke-dasharray:none;stroke-dashoffset:0;stroke-opacity:1;marker:none;color-rendering:auto;image-rendering:auto;shape-rendering:auto;text-rendering:auto;enable-background:accumulate" />
      <path
         inkscape:connector-curvature="0"
         id="path5274"
         d="m 289.50781,767.46094 c 4.46784,0 7.43382,2.68009 8.76563,4.36133 1.3318,1.68124 1.87264,3.01075 2.36718,4.31835 0.9891,2.61521 1.53211,5.24441 2.03711,8.53711 a 10.077836,10.077836 0 0 1 0,3.05469 l -3.21093,20.92774 a 10.077836,10.077836 0 0 1 -19.91992,0 l -3.20899,-20.92774 a 10.077836,10.077836 0 0 1 0,-3.05469 c 0.50501,-3.2927 1.04606,-5.9219 2.03516,-8.53711 0.49455,-1.3076 1.03733,-2.63711 2.36914,-4.31835 1.33181,-1.68124 4.29779,-4.36133 8.76562,-4.36133 z"
         style="color:#000000;font-style:normal;font-variant:normal;font-weight:normal;font-stretch:normal;font-size:medium;line-height:normal;font-family:sans-serif;text-indent:0;text-align:start;text-decoration:none;text-decoration-line:none;text-decoration-style:solid;text-decoration-color:#000000;letter-spacing:normal;word-spacing:normal;text-transform:none;direction:ltr;block-progression:tb;writing-mode:lr-tb;baseline-shift:baseline;text-anchor:start;white-space:normal;clip-rule:nonzero;display:inline;overflow:visible;visibility:visible;opacity:1;isolation:auto;mix-blend-mode:normal;color-interpolation:sRGB;color-interpolation-filters:linearRGB;solid-color:#000000;solid-opacity:1;fill:#ffffff;fill-opacity:1;fill-rule:nonzero;stroke:none;stroke-width:20.15365601;stroke-linecap:butt;stroke-linejoin:round;stroke-miterlimit:4;stroke-dasharray:none;stroke-dashoffset:0;stroke-opacity:1;marker:none;color-rendering:auto;image-rendering:auto;shape-rendering:auto;text-rendering:auto;enable-background:accumulate" />
      <path
         id="path5278"
         transform="translate(0,412.36216)"
         d="m 75.646484,435.11133 a 12.50125,12.50125 0 0 0 -12.009765,7.36523 l -7.857422,17.5 a 12.50125,12.50125 0 0 0 0,10.23828 c 3.203594,7.13528 9.335408,14.62891 19.259765,14.62891 9.924359,0 16.056172,-7.49363 19.259766,-14.62891 a 12.50125,12.50125 0 0 0 0,-10.23828 l -7.855469,-17.5 a 12.50125,12.50125 0 0 0 -10.796875,-7.36523 z m -0.910156,13.10937 a 5.9085164,5.9085164 0 0 1 5.69336,3.48047 l 3.71289,8.27149 a 5.9085164,5.9085164 0 0 1 0,4.83984 c -1.514127,3.37237 -4.412925,6.91406 -9.103516,6.91406 -4.690589,0 -7.589387,-3.54169 -9.103515,-6.91406 a 5.9085164,5.9085164 0 0 1 0,-4.83984 l 3.714844,-8.27149 a 5.9085164,5.9085164 0 0 1 5.085937,-3.48047 z"
         style="color:#000000;font-style:normal;font-variant:normal;font-weight:normal;font-stretch:normal;font-size:medium;line-height:normal;font-family:sans-serif;text-indent:0;text-align:start;text-decoration:none;text-decoration-line:none;text-decoration-style:solid;text-decoration-color:#000000;letter-spacing:normal;word-spacing:normal;text-transform:none;direction:ltr;block-progression:tb;writing-mode:lr-tb;baseline-shift:baseline;text-anchor:start;white-space:normal;clip-rule:nonzero;display:inline;overflow:visible;visibility:visible;opacity:1;isolation:auto;mix-blend-mode:normal;color-interpolation:sRGB;color-interpolation-filters:linearRGB;solid-color:#000000;solid-opacity:1;fill:#ffffff;fill-opacity:1;fill-rule:nonzero;stroke:none;stroke-width:25;stroke-linecap:butt;stroke-linejoin:round;stroke-miterlimit:4;stroke-dasharray:none;stroke-dashoffset:0;stroke-opacity:1;marker:none;color-rendering:auto;image-rendering:auto;shape-rendering:auto;text-rendering:auto;enable-background:accumulate"
         inkscape:connector-curvature="0" />
      <path
         id="path5284"
         transform="translate(0,412.36216)"
         d="m 248.58203,435.11133 a 12.50125,12.50125 0 0 0 -12.00976,7.36523 l -7.85743,17.5 a 12.50125,12.50125 0 0 0 0,10.23828 c 3.2036,7.13528 9.33541,14.62891 19.25977,14.62891 9.92436,0 16.05812,-7.49363 19.26172,-14.62891 a 12.50125,12.50125 0 0 0 0,-10.23828 l -7.85742,-17.5 a 12.50125,12.50125 0 0 0 -10.79688,-7.36523 z m -0.91015,13.10937 a 5.9085164,5.9085164 0 0 1 5.69335,3.48047 l 3.71289,8.27149 a 5.9085164,5.9085164 0 0 1 0,4.83984 c -1.51411,3.37237 -4.41292,6.91406 -9.10351,6.91406 -4.69059,0 -7.58939,-3.54169 -9.10352,-6.91406 a 5.9085164,5.9085164 0 0 1 0,-4.83984 l 3.71485,-8.27149 a 5.9085164,5.9085164 0 0 1 5.08594,-3.48047 z"
         style="color:#000000;font-style:normal;font-variant:normal;font-weight:normal;font-stretch:normal;font-size:medium;line-height:normal;font-family:sans-serif;text-indent:0;text-align:start;text-decoration:none;text-decoration-line:none;text-decoration-style:solid;text-decoration-color:#000000;letter-spacing:normal;word-spacing:normal;text-transform:none;direction:ltr;block-progression:tb;writing-mode:lr-tb;baseline-shift:baseline;text-anchor:start;white-space:normal;clip-rule:nonzero;display:inline;overflow:visible;visibility:visible;opacity:1;isolation:auto;mix-blend-mode:normal;color-interpolation:sRGB;color-interpolation-filters:linearRGB;solid-color:#000000;solid-opacity:1;fill:#ffffff;fill-opacity:1;fill-rule:nonzero;stroke:none;stroke-width:25;stroke-linecap:butt;stroke-linejoin:round;stroke-miterlimit:4;stroke-dasharray:none;stroke-dashoffset:0;stroke-opacity:1;marker:none;color-rendering:auto;image-rendering:auto;shape-rendering:auto;text-rendering:auto;enable-background:accumulate"
         inkscape:connector-curvature="0" />
      <path
         inkscape:connector-curvature="0"
         id="path5288"
         d="m 161.50781,847.46094 c 4.46784,0 7.43382,2.68009 8.76563,4.36133 1.3318,1.68124 1.87264,3.01075 2.36718,4.31835 0.9891,2.61521 1.53211,5.24441 2.03711,8.53711 a 10.077836,10.077836 0 0 1 0,3.05469 l -3.21093,20.92774 a 10.077836,10.077836 0 0 1 -19.91992,0 l -3.20899,-20.92774 a 10.077836,10.077836 0 0 1 0,-3.05469 c 0.50501,-3.2927 1.04606,-5.9219 2.03516,-8.53711 0.49455,-1.3076 1.03733,-2.63711 2.36914,-4.31835 1.33181,-1.68124 4.29779,-4.36133 8.76562,-4.36133 z"
         style="color:#000000;font-style:normal;font-variant:normal;font-weight:normal;font-stretch:normal;font-size:medium;line-height:normal;font-family:sans-serif;text-indent:0;text-align:start;text-decoration:none;text-decoration-line:none;text-decoration-style:solid;text-decoration-color:#000000;letter-spacing:normal;word-spacing:normal;text-transform:none;direction:ltr;block-progression:tb;writing-mode:lr-tb;baseline-shift:baseline;text-anchor:start;white-space:normal;clip-rule:nonzero;display:inline;overflow:visible;visibility:visible;opacity:1;isolation:auto;mix-blend-mode:normal;color-interpolation:sRGB;color-interpolation-filters:linearRGB;solid-color:#000000;solid-opacity:1;fill:#ffffff;fill-opacity:1;fill-rule:nonzero;stroke:none;stroke-width:20.15365601;stroke-linecap:butt;stroke-linejoin:round;stroke-miterlimit:4;stroke-dasharray:none;stroke-dashoffset:0;stroke-opacity:1;marker:none;color-rendering:auto;image-rendering:auto;shape-rendering:auto;text-rendering:auto;enable-background:accumulate" />
      <path
         inkscape:connector-curvature="0"
         id="path5290"
         d="m 334.44336,847.46094 c 4.46784,0 7.43382,2.68009 8.76562,4.36133 1.33181,1.68124 1.87264,3.01075 2.36719,4.31835 0.9891,2.61521 1.53211,5.24441 2.03711,8.53711 a 10.077836,10.077836 0 0 1 0,3.05469 l -3.20898,20.92774 a 10.077836,10.077836 0 0 1 -19.92188,0 l -3.20898,-20.92774 a 10.077836,10.077836 0 0 1 0,-3.05469 c 0.505,-3.2927 1.04801,-5.9219 2.03711,-8.53711 0.49455,-1.3076 1.03538,-2.63711 2.36718,-4.31835 1.33181,-1.68124 4.29779,-4.36133 8.76563,-4.36133 z"
         style="color:#000000;font-style:normal;font-variant:normal;font-weight:normal;font-stretch:normal;font-size:medium;line-height:normal;font-family:sans-serif;text-indent:0;text-align:start;text-decoration:none;text-decoration-line:none;text-decoration-style:solid;text-decoration-color:#000000;letter-spacing:normal;word-spacing:normal;text-transform:none;direction:ltr;block-progression:tb;writing-mode:lr-tb;baseline-shift:baseline;text-anchor:start;white-space:normal;clip-rule:nonzero;display:inline;overflow:visible;visibility:visible;opacity:1;isolation:auto;mix-blend-mode:normal;color-interpolation:sRGB;color-interpolation-filters:linearRGB;solid-color:#000000;solid-opacity:1;fill:#ffffff;fill-opacity:1;fill-rule:nonzero;stroke:none;stroke-width:20.15365601;stroke-linecap:butt;stroke-linejoin:round;stroke-miterlimit:4;stroke-dasharray:none;stroke-dashoffset:0;stroke-opacity:1;marker:none;color-rendering:auto;image-rendering:auto;shape-rendering:auto;text-rendering:auto;enable-background:accumulate" />
      <path
         id="path5294"
         transform="translate(0,412.36216)"
         d="m 203.64648,515.11133 a 12.50125,12.50125 0 0 0 -12.00976,7.36523 l -7.85742,17.5 a 12.50125,12.50125 0 0 0 0,10.23828 c 3.20359,7.13528 9.3354,14.62891 19.25976,14.62891 9.92436,0 16.05617,-7.49363 19.25977,-14.62891 a 12.50125,12.50125 0 0 0 0,-10.23828 l -7.85547,-17.5 a 12.50125,12.50125 0 0 0 -10.79688,-7.36523 z m -0.91015,13.10937 a 5.9085164,5.9085164 0 0 1 5.69336,3.48047 l 3.71289,8.27149 a 5.9085164,5.9085164 0 0 1 0,4.83984 c -1.51413,3.37237 -4.41293,6.91406 -9.10352,6.91406 -4.69059,0 -7.58939,-3.54169 -9.10351,-6.91406 a 5.9085164,5.9085164 0 0 1 0,-4.83984 l 3.71484,-8.27149 a 5.9085164,5.9085164 0 0 1 5.08594,-3.48047 z"
         style="color:#000000;font-style:normal;font-variant:normal;font-weight:normal;font-stretch:normal;font-size:medium;line-height:normal;font-family:sans-serif;text-indent:0;text-align:start;text-decoration:none;text-decoration-line:none;text-decoration-style:solid;text-decoration-color:#000000;letter-spacing:normal;word-spacing:normal;text-transform:none;direction:ltr;block-progression:tb;writing-mode:lr-tb;baseline-shift:baseline;text-anchor:start;white-space:normal;clip-rule:nonzero;display:inline;overflow:visible;visibility:visible;opacity:1;isolation:auto;mix-blend-mode:normal;color-interpolation:sRGB;color-interpolation-filters:linearRGB;solid-color:#000000;solid-opacity:1;fill:#ffffff;fill-opacity:1;fill-rule:nonzero;stroke:none;stroke-width:25;stroke-linecap:butt;stroke-linejoin:round;stroke-miterlimit:4;stroke-dasharray:none;stroke-dashoffset:0;stroke-opacity:1;marker:none;color-rendering:auto;image-rendering:auto;shape-rendering:auto;text-rendering:auto;enable-background:accumulate"
         inkscape:connector-curvature="0" />
      <path
         id="path5300"
         transform="translate(0,412.36216)"
         d="m 376.58203,515.11133 a 12.50125,12.50125 0 0 0 -12.00976,7.36523 l -7.85743,17.5 a 12.50125,12.50125 0 0 0 0,10.23828 c 3.2036,7.13528 9.33541,14.62891 19.25977,14.62891 9.92436,0 16.05812,-7.49363 19.26172,-14.62891 a 12.50125,12.50125 0 0 0 0,-10.23828 l -7.85742,-17.5 a 12.50125,12.50125 0 0 0 -10.79688,-7.36523 z m -0.91015,13.10937 a 5.9085164,5.9085164 0 0 1 5.69335,3.48047 l 3.71289,8.27149 a 5.9085164,5.9085164 0 0 1 0,4.83984 c -1.51412,3.37237 -4.41292,6.91406 -9.10351,6.91406 -4.69059,0 -7.58939,-3.54169 -9.10352,-6.91406 a 5.9085164,5.9085164 0 0 1 0,-4.83984 l 3.71485,-8.27149 a 5.9085164,5.9085164 0 0 1 5.08594,-3.48047 z"
         style="color:#000000;font-style:normal;font-variant:normal;font-weight:normal;font-stretch:normal;font-size:medium;line-height:normal;font-family:sans-serif;text-indent:0;text-align:start;text-decoration:none;text-decoration-line:none;text-decoration-style:solid;text-decoration-color:#000000;letter-spacing:normal;word-spacing:normal;text-transform:none;direction:ltr;block-progression:tb;writing-mode:lr-tb;baseline-shift:baseline;text-anchor:start;white-space:normal;clip-rule:nonzero;display:inline;overflow:visible;visibility:visible;opacity:1;isolation:auto;mix-blend-mode:normal;color-interpolation:sRGB;color-interpolation-filters:linearRGB;solid-color:#000000;solid-opacity:1;fill:#ffffff;fill-opacity:1;fill-rule:nonzero;stroke:none;stroke-width:25;stroke-linecap:butt;stroke-linejoin:round;stroke-miterlimit:4;stroke-dasharray:none;stroke-dashoffset:0;stroke-opacity:1;marker:none;color-rendering:auto;image-rendering:auto;shape-rendering:auto;text-rendering:auto;enable-background:accumulate"
         inkscape:connector-curvature="0" />
      <path
         inkscape:connector-curvature="0"
         id="path5304"
         d="m 116.57031,927.46094 c 4.46784,0 7.43382,2.68009 8.76563,4.36133 1.3318,1.68124 1.87459,3.01075 2.36914,4.31835 0.9891,2.61521 1.53015,5.24441 2.03515,8.53711 a 10.077836,10.077836 0 0 1 0,3.05469 l -3.20898,20.92774 a 10.077836,10.077836 0 0 1 -19.91992,0 l -3.21094,-20.92774 a 10.077836,10.077836 0 0 1 0,-3.05469 c 0.50501,-3.2927 1.04801,-5.9219 2.03711,-8.53711 0.49455,-1.3076 1.03538,-2.63711 2.36719,-4.31835 1.33181,-1.68124 4.29779,-4.36133 8.76562,-4.36133 z"
         style="color:#000000;font-style:normal;font-variant:normal;font-weight:normal;font-stretch:normal;font-size:medium;line-height:normal;font-family:sans-serif;text-indent:0;text-align:start;text-decoration:none;text-decoration-line:none;text-decoration-style:solid;text-decoration-color:#000000;letter-spacing:normal;word-spacing:normal;text-transform:none;direction:ltr;block-progression:tb;writing-mode:lr-tb;baseline-shift:baseline;text-anchor:start;white-space:normal;clip-rule:nonzero;display:inline;overflow:visible;visibility:visible;opacity:1;isolation:auto;mix-blend-mode:normal;color-interpolation:sRGB;color-interpolation-filters:linearRGB;solid-color:#000000;solid-opacity:1;fill:#ffffff;fill-opacity:1;fill-rule:nonzero;stroke:none;stroke-width:20.15365601;stroke-linecap:butt;stroke-linejoin:round;stroke-miterlimit:4;stroke-dasharray:none;stroke-dashoffset:0;stroke-opacity:1;marker:none;color-rendering:auto;image-rendering:auto;shape-rendering:auto;text-rendering:auto;enable-background:accumulate" />
      <path
         inkscape:connector-curvature="0"
         id="path5306"
         d="m 289.50781,927.46094 c 4.46784,0 7.43382,2.68009 8.76563,4.36133 1.3318,1.68124 1.87264,3.01075 2.36718,4.31835 0.9891,2.61521 1.53211,5.24441 2.03711,8.53711 a 10.077836,10.077836 0 0 1 0,3.05469 l -3.21093,20.92774 a 10.077836,10.077836 0 0 1 -19.91992,0 l -3.20899,-20.92774 a 10.077836,10.077836 0 0 1 0,-3.05469 c 0.50501,-3.2927 1.04606,-5.9219 2.03516,-8.53711 0.49455,-1.3076 1.03733,-2.63711 2.36914,-4.31835 1.33181,-1.68124 4.29779,-4.36133 8.76562,-4.36133 z"
         style="color:#000000;font-style:normal;font-variant:normal;font-weight:normal;font-stretch:normal;font-size:medium;line-height:normal;font-family:sans-serif;text-indent:0;text-align:start;text-decoration:none;text-decoration-line:none;text-decoration-style:solid;text-decoration-color:#000000;letter-spacing:normal;word-spacing:normal;text-transform:none;direction:ltr;block-progression:tb;writing-mode:lr-tb;baseline-shift:baseline;text-anchor:start;white-space:normal;clip-rule:nonzero;display:inline;overflow:visible;visibility:visible;opacity:1;isolation:auto;mix-blend-mode:normal;color-interpolation:sRGB;color-interpolation-filters:linearRGB;solid-color:#000000;solid-opacity:1;fill:#ffffff;fill-opacity:1;fill-rule:nonzero;stroke:none;stroke-width:20.15365601;stroke-linecap:butt;stroke-linejoin:round;stroke-miterlimit:4;stroke-dasharray:none;stroke-dashoffset:0;stroke-opacity:1;marker:none;color-rendering:auto;image-rendering:auto;shape-rendering:auto;text-rendering:auto;enable-background:accumulate" />
    </g>
    <text
       xml:space="preserve"
       style="font-style:normal;font-variant:normal;font-weight:normal;font-stretch:normal;font-size:180px;line-height:125%;font-family:'Yanone Kaffeesatz';-inkscape-font-specification:'Yanone Kaffeesatz, Normal';text-align:start;letter-spacing:0px;word-spacing:0px;writing-mode:lr-tb;text-anchor:start;fill:#000000;fill-opacity:1;stroke:none;stroke-width:1px;stroke-linecap:butt;stroke-linejoin:miter;stroke-opacity:1"
       x="1401.6836"
       y="417.00656"
       id="text4275"
       sodipodi:linespacing="125%"><tspan
         sodipodi:role="line"
         id="tspan4277"
         x="1401.6836"
         y="417.00656" /></text>
    <g
       id="gpn"
       transform="translate(0,139.59066)">
      <text
         sodipodi:linespacing="125%"
         id="text4269"
         y="392.77435"
         x="1184.3252"
         style="font-style:normal;font-variant:normal;font-weight:normal;font-stretch:normal;font-size:180px;line-height:125%;font-family:'Yanone Kaffeesatz';-inkscape-font-specification:'Yanone Kaffeesatz, Normal';text-align:start;letter-spacing:0px;word-spacing:0px;writing-mode:lr-tb;text-anchor:start;fill:#ffffff;fill-opacity:1;stroke:none;stroke-width:1px;stroke-linecap:butt;stroke-linejoin:miter;stroke-opacity:1"
         xml:space="preserve"><tspan
           style="font-size:187.5px"
           y="392.77435"
           x="1184.3252"
           id="tspan4271"
           sodipodi:role="line">GPN15</tspan><tspan
           style="font-size:22.5px"
           id="tspan4273"
           y="627.14935"
           x="1184.3252"
           sodipodi:role="line" /></text>
      <text
         sodipodi:linespacing="125%"
         id="text4279"
         y="479.70615"
         x="1184.3252"
         style="font-style:normal;font-variant:normal;font-weight:normal;font-stretch:normal;font-size:180px;line-height:125%;font-family:'Yanone Kaffeesatz';-inkscape-font-specification:'Yanone Kaffeesatz, Normal';text-align:start;letter-spacing:0px;word-spacing:0px;writing-mode:lr-tb;text-anchor:start;fill:#000000;fill-opacity:1;stroke:none;stroke-width:1px;stroke-linecap:butt;stroke-linejoin:miter;stroke-opacity:1"
         xml:space="preserve"><tspan
           style="font-size:60px;fill:#ffffff;fill-opacity:1"
           y="479.70615"
           x="1184.3252"
           id="tspan4281"
           sodipodi:role="line">4.–7. Juni 2015</tspan></text>
    </g>
    <g
       id="license">
      <g
         id="g4489">
        <path
           style="fill:#aab2ab"
           d="m 1178.8793,443.94044 377.9033,0.67288 c 5.2803,0 9.9975,-0.78452 9.9975,10.53502 l -0.4626,124.44829 -396.9747,0 0,-124.91091 c 0,-5.5805 0.5403,-10.74528 9.5365,-10.74528 z"
           nodetypes="ccccccc"
           id="path3817_2_"
           inkscape:connector-curvature="0" />
        <g
           transform="matrix(2.8920598,0,0,2.8917359,741.18798,668.62268)"
           id="g5908_2_">
          <path
             style="fill:#ffffff"
             d="m 187.20944,-55.6792 c 0.006,8.68024 -7.02786,15.72095 -15.7081,15.72708 -8.68021,0.005 -15.72205,-7.02786 -15.72708,-15.70804 0,-0.0067 0,-0.01233 0,-0.01904 -0.005,-8.68134 7.02783,-15.72205 15.70807,-15.72711 8.68134,-0.0056 15.72208,7.02789 15.72711,15.70807 0,0.0056 0,0.01233 0,0.01904 z"
             rx="22.939548"
             type="arc"
             cy="264.3577"
             ry="22.939548"
             cx="296.35416"
             id="path5906_2_"
             inkscape:connector-curvature="0" />
          <g
             transform="translate(-289.6157,99.0653)"
             id="g5706_2_">
            <path
               d="m 473.88455,-167.54724 c 3.48541,3.48596 5.22839,7.75391 5.22839,12.80273 0,5.04938 -1.7128,9.27148 -5.13834,12.66736 -3.63531,3.5766 -7.93179,5.36432 -12.88947,5.36432 -4.89777,0 -9.11987,-1.77261 -12.6651,-5.31955 -3.54584,-3.54581 -5.31845,-7.78299 -5.31845,-12.71213 0,-4.92859 1.77261,-9.19598 5.31845,-12.80273 3.4552,-3.48651 7.67725,-5.22894 12.6651,-5.22894 5.04829,0 9.31401,1.74243 12.79942,5.22894 z m -23.11798,2.34485 c -2.94675,2.97638 -4.41956,6.46289 -4.41956,10.46234 0,3.99835 1.45828,7.4552 4.37424,10.37067 2.91653,2.9165 6.38849,4.37476 10.41705,4.37476 4.02853,0 7.53018,-1.47281 10.50656,-4.41901 2.8259,-2.73584 4.23941,-6.17706 4.23941,-10.32642 0,-4.11804 -1.43646,-7.61292 -4.30768,-10.48474 -2.87064,-2.87067 -6.34988,-4.30652 -10.43829,-4.30652 -4.08837,0 -7.54638,1.44318 -10.37173,4.32892 z m 7.75449,8.70312 c -0.45032,-0.98163 -1.12433,-1.47223 -2.02325,-1.47223 -1.58914,0 -2.38342,1.06952 -2.38342,3.2085 0,2.13959 0.79428,3.20911 2.38342,3.20911 1.04938,0 1.79895,-0.5213 2.24866,-1.56512 l 2.20276,1.17303 c -1.04993,1.86548 -2.62506,2.79901 -4.72549,2.79901 -1.6199,0 -2.91763,-0.4967 -3.89206,-1.48956 -0.97607,-0.99341 -1.46274,-2.36273 -1.46274,-4.10797 0,-1.71558 0.50229,-3.07709 1.50748,-4.08563 1.00519,-1.00793 2.25705,-1.51251 3.75781,-1.51251 2.22012,0 3.80984,0.87488 4.77081,2.62286 l -2.38398,1.22051 z m 10.36334,0 c -0.45087,-0.98163 -1.11148,-1.47223 -1.98239,-1.47223 -1.62106,0 -2.43213,1.06952 -2.43213,3.2085 0,2.13959 0.81107,3.20911 2.43213,3.20911 1.05103,0 1.78717,-0.5213 2.20724,-1.56512 l 2.25201,1.17303 c -1.04825,1.86548 -2.62119,2.79901 -4.71768,2.79901 -1.61771,0 -2.91263,-0.4967 -3.88647,-1.48956 -0.97217,-0.99341 -1.45938,-2.36273 -1.45938,-4.10797 0,-1.71558 0.49448,-3.07709 1.48288,-4.08563 0.98782,-1.00793 2.24527,-1.51251 3.77347,-1.51251 2.21619,0 3.80368,0.87488 4.76132,2.62286 l -2.431,1.22051 z"
               id="path5708_2_"
               inkscape:connector-curvature="0" />
          </g>
        </g>
        <path
           id="path294"
           d="m 1560.0861,442.352 -385.078,0 c -4.13,0 -7.49,3.36124 -7.49,7.4908 l 0,130.83758 c 0,0.93332 0.7571,1.69194 1.6905,1.69194 l 396.6754,0 c 0.9335,0 1.6922,-0.75862 1.6922,-1.69194 l 0,-130.83755 c 0,-4.12959 -3.36,-7.49083 -7.4901,-7.49083 z m -385.078,3.3839 385.078,0 c 2.2648,0 4.1058,1.84236 4.1058,4.10693 0,0 0,52.73649 0,90.82946 l -275.2302,0 c -10.0881,18.23771 -29.5233,30.62155 -51.8284,30.62155 -22.3148,0 -41.7452,-12.37251 -51.8284,-30.62155 l -14.4057,0 c 0,-38.09294 0,-90.82946 0,-90.82946 -10e-5,-2.26457 1.8441,-4.10693 4.1089,-4.10693 z"
           inkscape:connector-curvature="0"
           style="stroke:#ffffff;stroke-opacity:1" />
        <g
           id="g296"
           enable-background="new    "
           transform="matrix(3.3130831,0,0,3.312712,575.1185,194.19462)">
          <path
             style="fill:#ffffff"
             id="path298"
             d="m 265.60986,112.8833 c 0.0801,0.15576 0.1875,0.28174 0.32129,0.37842 0.13379,0.0962 0.29004,0.16797 0.46973,0.21436 0.18066,0.0469 0.36719,0.0703 0.55957,0.0703 0.12988,0 0.26953,-0.0107 0.41895,-0.0327 0.14844,-0.0215 0.28809,-0.064 0.41895,-0.12598 0.12988,-0.062 0.23926,-0.14795 0.3252,-0.25684 0.0879,-0.10889 0.13086,-0.24707 0.13086,-0.41553 0,-0.18018 -0.0576,-0.32617 -0.17285,-0.43848 -0.11426,-0.1123 -0.26562,-0.20508 -0.45215,-0.28027 -0.18555,-0.0742 -0.39746,-0.13965 -0.63281,-0.1958 -0.23633,-0.0562 -0.47559,-0.11816 -0.71777,-0.18701 -0.24902,-0.062 -0.49121,-0.13818 -0.72754,-0.22852 -0.23535,-0.0898 -0.44727,-0.20703 -0.63379,-0.3501 -0.18652,-0.14307 -0.33691,-0.32178 -0.45215,-0.53662 -0.11426,-0.21484 -0.17188,-0.47461 -0.17188,-0.7793 0,-0.34277 0.0732,-0.63965 0.21875,-0.8916 0.14648,-0.25195 0.33789,-0.46191 0.57422,-0.63037 0.23535,-0.16797 0.50293,-0.29248 0.80176,-0.37354 0.29785,-0.0806 0.59668,-0.12109 0.89453,-0.12109 0.34863,0 0.68262,0.0391 1.00293,0.11719 0.31934,0.0776 0.60449,0.2041 0.85254,0.37842 0.24902,0.17432 0.44629,0.39697 0.59277,0.66797 0.14551,0.271 0.21875,0.59961 0.21875,0.98535 l -1.42188,0 c -0.0127,-0.19922 -0.0547,-0.36426 -0.125,-0.49463 -0.0713,-0.13086 -0.16602,-0.2334 -0.2832,-0.30859 -0.11816,-0.0742 -0.25293,-0.12744 -0.4043,-0.1582 -0.15234,-0.0312 -0.31738,-0.0469 -0.49707,-0.0469 -0.11719,0 -0.23535,0.0127 -0.35254,0.0371 -0.11816,0.0254 -0.22461,0.0688 -0.32031,0.13086 -0.0967,0.0625 -0.17578,0.14014 -0.2373,0.2334 -0.0615,0.0937 -0.0928,0.21191 -0.0928,0.35498 0,0.13086 0.0244,0.23682 0.0742,0.31738 0.0498,0.0811 0.14844,0.15576 0.29395,0.22412 0.14551,0.0684 0.34766,0.13721 0.60547,0.20557 0.25781,0.0684 0.59473,0.15576 1.01172,0.26123 0.12402,0.0249 0.2959,0.0703 0.5166,0.13574 0.2207,0.0654 0.43945,0.16943 0.65723,0.3125 0.21777,0.14355 0.40527,0.33496 0.56445,0.57422 0.1582,0.23975 0.2373,0.54639 0.2373,0.91992 0,0.30518 -0.0596,0.58838 -0.17773,0.84961 -0.11816,0.26172 -0.29395,0.4873 -0.52734,0.67676 -0.2334,0.19043 -0.52246,0.33789 -0.86719,0.44385 -0.3457,0.10596 -0.74609,0.15869 -1.19922,0.15869 -0.36719,0 -0.72363,-0.0454 -1.06934,-0.13574 -0.34473,-0.0903 -0.65039,-0.23242 -0.91504,-0.42578 -0.26367,-0.19336 -0.47363,-0.43994 -0.62988,-0.73877 -0.15527,-0.29932 -0.22949,-0.65381 -0.22363,-1.06494 l 1.42188,0 c -3e-5,0.22412 0.04,0.41406 0.12106,0.56933 z"
             inkscape:connector-curvature="0" />
          <path
             style="fill:#ffffff"
             id="path300"
             d="m 273.8667,107.8667 2.49316,6.66406 -1.52246,0 -0.50391,-1.48438 -2.49316,0 -0.52246,1.48438 -1.47461,0 2.52051,-6.66406 1.50293,0 z m 0.084,4.08594 -0.83984,-2.44336 -0.0186,0 -0.86914,2.44336 1.72753,0 z"
             inkscape:connector-curvature="0" />
        </g>
        <g
           id="g302"
           enable-background="new    "
           transform="matrix(3.3130831,0,0,3.312712,575.1185,194.19462)">
          <path
             style="fill:#ffffff"
             id="path304"
             d="m 239.17821,107.8667 c 0.31738,0 0.60742,0.0283 0.86914,0.084 0.26172,0.0561 0.48633,0.14795 0.67383,0.27539 0.18652,0.12744 0.33203,0.29688 0.43457,0.5083 0.10254,0.21142 0.1543,0.47266 0.1543,0.78369 0,0.33594 -0.0762,0.61523 -0.22949,0.83936 -0.15234,0.22412 -0.37891,0.40723 -0.67773,0.55029 0.41211,0.11816 0.71973,0.3252 0.92285,0.62109 0.20312,0.29589 0.30469,0.65234 0.30469,1.06934 0,0.33594 -0.0654,0.62695 -0.19629,0.87305 -0.13086,0.24561 -0.30762,0.44629 -0.52832,0.60205 -0.22168,0.15576 -0.47461,0.271 -0.75781,0.34521 -0.28418,0.0752 -0.5752,0.1123 -0.875,0.1123 l -3.23633,0 0,-6.66406 3.14159,0 0,1e-5 z m -0.1875,2.69531 c 0.26172,0 0.47656,-0.062 0.64551,-0.18604 0.16797,-0.12451 0.25195,-0.32568 0.25195,-0.60498 0,-0.15527 -0.0283,-0.28271 -0.084,-0.38184 -0.0566,-0.0996 -0.13086,-0.17676 -0.22461,-0.23291 -0.0937,-0.0557 -0.20117,-0.0947 -0.32227,-0.11621 -0.12207,-0.022 -0.24805,-0.0327 -0.37891,-0.0327 l -1.37305,0 0,1.55469 1.48536,0 z m 0.0859,2.82813 c 0.14355,0 0.28027,-0.0137 0.41113,-0.042 0.13086,-0.0278 0.24707,-0.0747 0.34668,-0.13965 0.0996,-0.0654 0.17871,-0.1543 0.23828,-0.26611 0.0596,-0.11181 0.0889,-0.25488 0.0889,-0.4292 0,-0.3418 -0.0967,-0.58594 -0.29004,-0.73193 -0.19336,-0.14599 -0.44922,-0.21924 -0.7666,-0.21924 l -1.59961,0 0,1.82812 1.57129,0 z"
             inkscape:connector-curvature="0" />
          <path
             style="fill:#ffffff"
             id="path306"
             d="m 241.88914,107.8667 1.64355,0 1.56055,2.63184 1.55078,-2.63184 1.63379,0 -2.47363,4.10645 0,2.55762 -1.46875,0 0,-2.59473 -2.44629,-4.06934 z"
             inkscape:connector-curvature="0" />
        </g>
        <g
           transform="matrix(2.0706604,0,0,2.0704284,1871.294,780.32335)"
           id="g6316_1_">
          <path
             style="fill:#ffffff"
             d="m -175.0083,-139.1153 c 0.006,9.4118 -7.61725,17.04779 -17.02982,17.05481 -9.41101,0.007 -17.047,-7.61725 -17.05481,-17.02979 0,-0.008 0,-0.0172 0,-0.025 -0.006,-9.41254 7.6188,-17.047 17.02982,-17.05481 9.41257,-0.007 17.04855,7.61804 17.05481,17.02985 0,0.009 0,0.0164 0,0.025 z"
             rx="29.209877"
             type="arc"
             cy="252.08646"
             ry="29.209877"
             cx="475.97119"
             id="path6318_1_"
             inkscape:connector-curvature="0" />
          <g
             transform="translate(-23.9521,-89.72962)"
             id="g6320_1_">
            <path
               d="m -168.2204,-68.05536 c -5.17194,0 -9.54852,1.80469 -13.13135,5.41333 -3.67661,3.73444 -5.51413,8.1532 -5.51413,13.25635 0,5.10315 1.83752,9.49152 5.51413,13.1626 3.67502,3.67194 8.05316,5.50787 13.13135,5.50787 5.14066,0 9.59537,-1.85156 13.36728,-5.55475 3.55005,-3.51562 5.3266,-7.88831 5.3266,-13.11572 0,-5.22662 -1.8078,-9.64697 -5.42191,-13.25635 -3.61407,-3.60864 -8.03756,-5.41333 -13.27197,-5.41333 z m 0.0469,3.36017 c 4.23752,0 7.836,1.49298 10.79697,4.48053 2.98907,2.9563 4.48441,6.56567 4.48441,10.82898 0,4.29382 -1.46252,7.85712 -4.39224,10.68915 -3.08438,3.04926 -6.71411,4.57349 -10.88913,4.57349 -4.17505,0 -7.7735,-1.5094 -10.79541,-4.52661 -3.02188,-3.01953 -4.53284,-6.59692 -4.53284,-10.73602 0,-4.13831 1.52658,-7.74847 4.57971,-10.82898 2.92815,-2.98756 6.51098,-4.48054 10.74853,-4.48054 z"
               id="path6322_1_"
               inkscape:connector-curvature="0" />
            <path
               d="m -176.49548,-52.02087 c 0.74377,-4.69769 4.05161,-7.20862 8.1954,-7.20862 5.96097,0 9.59225,4.32501 9.59225,10.09229 0,5.62738 -3.86411,9.99927 -9.686,9.99927 -4.00473,0 -7.58914,-2.46484 -8.24228,-7.30084 l 4.70319,0 c 0.14062,2.51099 1.77032,3.39459 4.09845,3.39459 2.65317,0 4.37817,-2.4649 4.37817,-6.23291 0,-3.95233 -1.49063,-6.04535 -4.28598,-6.04535 -2.04846,0 -3.8172,0.74457 -4.19064,3.30157 l 1.36874,-0.007 -3.70316,3.7016 -3.7016,-3.7016 1.47346,0.007 z"
               id="path6324_1_"
               inkscape:connector-curvature="0" />
          </g>
        </g>
        <g
           id="g313"
           transform="matrix(3.3130831,0,0,3.312712,575.1185,194.19462)">
          <circle
             style="fill:#ffffff"
             id="circle315"
             r="10.8064"
             cy="90.224609"
             cx="242.56226" />
          <g
             id="g317">
            <path
               id="path319"
               d="m 245.68994,87.09766 c 0,-0.4165 -0.33789,-0.75342 -0.75391,-0.75342 l -4.77246,0 c -0.41602,0 -0.75391,0.33691 -0.75391,0.75342 l 0,4.77295 1.33105,0 0,5.65234 3.61719,0 0,-5.65234 1.33203,0 0,-4.77295 1e-5,0 z"
               inkscape:connector-curvature="0" />
            <circle
               id="circle321"
               r="1.63232"
               cy="84.083008"
               cx="242.5498" />
          </g>
          <path
             style="clip-rule:evenodd;fill-rule:evenodd"
             id="path323"
             d="m 242.53467,78.31836 c -3.23145,0 -5.96826,1.12744 -8.20752,3.38379 -2.29785,2.33301 -3.44629,5.09521 -3.44629,8.28418 0,3.18897 1.14844,5.93213 3.44629,8.22705 2.29785,2.29443 5.03418,3.44189 8.20752,3.44189 3.21289,0 5.99805,-1.15674 8.35352,-3.47168 2.2207,-2.19678 3.33008,-4.92969 3.33008,-8.19727 0,-3.26758 -1.12891,-6.02881 -3.3877,-8.28418 -2.25879,-2.25634 -5.02442,-3.38378 -8.2959,-3.38378 z m 0.0293,2.09961 c 2.64844,0 4.89746,0.93359 6.74707,2.80078 1.87012,1.84717 2.80469,4.10352 2.80469,6.76758 0,2.68359 -0.91504,4.91113 -2.74609,6.68066 -1.92773,1.90576 -4.19629,2.8584 -6.80566,2.8584 -2.60937,0 -4.8584,-0.94287 -6.74658,-2.82959 -1.88965,-1.88623 -2.8335,-4.12256 -2.8335,-6.70947 0,-2.58643 0.9541,-4.84229 2.8623,-6.76758 1.83057,-1.86719 4.07031,-2.80078 6.71777,-2.80078 z"
             inkscape:connector-curvature="0" />
        </g>
      </g>
    </g>
  </g>
</svg>
