<?xml version="1.0" encoding="UTF-8" standalone="no"?>
<!-- Created with Inkscape (http://www.inkscape.org/) -->

<svg
   xmlns:dc="http://purl.org/dc/elements/1.1/"
   xmlns:cc="http://creativecommons.org/ns#"
   xmlns:rdf="http://www.w3.org/1999/02/22-rdf-syntax-ns#"
   xmlns:svg="http://www.w3.org/2000/svg"
   xmlns="http://www.w3.org/2000/svg"
   xmlns:sodipodi="http://sodipodi.sourceforge.net/DTD/sodipodi-0.dtd"
   xmlns:inkscape="http://www.inkscape.org/namespaces/inkscape"
   width="1920"
   height="1080"
   viewBox="0 0 507.99999 285.75001"
   version="1.1"
   id="svg8"
   inkscape:version="0.92.2 5c3e80d, 2017-08-06"
   sodipodi:docname="bauchbinde.svg">
  <defs
     id="defs2" />
  <sodipodi:namedview
     id="base"
     pagecolor="#ffffff"
     bordercolor="#666666"
     borderopacity="1.0"
     inkscape:pageopacity="0.0"
     inkscape:pageshadow="2"
     inkscape:zoom="0.49497475"
     inkscape:cx="474.39653"
     inkscape:cy="423.85639"
     inkscape:document-units="mm"
     inkscape:current-layer="layer1"
     showgrid="false"
     units="px"
     inkscape:snap-bbox="true"
     inkscape:bbox-paths="true"
     inkscape:snap-bbox-midpoints="true"
     inkscape:snap-bbox-edge-midpoints="true"
     inkscape:bbox-nodes="true"
     inkscape:snap-page="true"
     inkscape:window-width="1920"
     inkscape:window-height="1155"
     inkscape:window-x="0"
     inkscape:window-y="1"
     inkscape:window-maximized="1" />
  <metadata
     id="metadata5">
    <rdf:RDF>
      <cc:Work
         rdf:about="">
        <dc:format>image/svg+xml</dc:format>
        <dc:type
           rdf:resource="http://purl.org/dc/dcmitype/StillImage" />
        <dc:title />
      </cc:Work>
    </rdf:RDF>
  </metadata>
  <g
     inkscape:label="Layer 1"
     inkscape:groupmode="layer"
     id="layer1"
     transform="translate(0,-11.249983)">
    <path
       style="font-family:none;mix-blend-mode:normal;fill:none;fill-rule:nonzero;stroke:#00bb31;stroke-width:1.58749998;stroke-linecap:butt;stroke-linejoin:miter;stroke-miterlimit:10;stroke-dasharray:none;stroke-dashoffset:0"
       inkscape:connector-curvature="0"
       d=""
       id="path1524" />
    <path
       style="font-family:none;mix-blend-mode:normal;fill:none;fill-rule:nonzero;stroke:#00bb31;stroke-width:1.58749998;stroke-linecap:butt;stroke-linejoin:miter;stroke-miterlimit:10;stroke-dasharray:none;stroke-dashoffset:0"
       inkscape:connector-curvature="0"
       d=""
       id="path1530" />
    <path
       style="font-family:none;mix-blend-mode:normal;fill:none;fill-rule:nonzero;stroke:#00bb31;stroke-width:1.58749998;stroke-linecap:butt;stroke-linejoin:miter;stroke-miterlimit:10;stroke-dasharray:none;stroke-dashoffset:0"
       inkscape:connector-curvature="0"
       d=""
       id="path1536" />
    <path
       style="font-family:none;mix-blend-mode:normal;fill:none;fill-rule:nonzero;stroke:#00bb31;stroke-width:1.58749998;stroke-linecap:butt;stroke-linejoin:miter;stroke-miterlimit:10;stroke-dasharray:none;stroke-dashoffset:0"
       inkscape:connector-curvature="0"
       d=""
       id="path1542" />
    <path
       style="font-family:none;mix-blend-mode:normal;fill:#d0d0ce;fill-opacity:1;fill-rule:nonzero;stroke:none;stroke-width:0.1383528;stroke-linecap:butt;stroke-linejoin:miter;stroke-miterlimit:10;stroke-dasharray:none;stroke-dashoffset:0"
       inkscape:connector-curvature="0"
       id="path12"
       d="m 397.57509,218.79848 c 1.60555,1.45616 2.84446,3.09346 3.71675,4.91188 0.87229,1.81843 1.35532,3.6885 1.44907,5.61021 0.0938,1.92171 -0.20492,3.82991 -0.89606,5.72462 -0.69113,1.8947 -1.78028,3.6619 -3.26742,5.3016 l -8.09602,-7.34278 c 0.80554,-0.88817 1.18744,-1.92708 1.14573,-3.11673 -0.0417,-1.18965 -0.50666,-2.18724 -1.39483,-2.99278 -0.88817,-0.80554 -1.92629,-1.17116 -3.11435,-1.09688 -0.24196,0.0151 -0.47599,0.0472 -0.70208,0.096 l -0.13396,-0.49033 0.50021,-1.2252 1.00054,-1.44677 1.47376,-0.96513 0.82208,-1.62228 1.30686,-1.47003 0.65206,-2.10298 0.85419,-0.8129 c 1.64818,0.68998 3.20934,1.70347 4.68347,3.04045 z" />
    <path
       style="font-family:none;mix-blend-mode:normal;fill:#d0d0ce;fill-opacity:1;fill-rule:nonzero;stroke:none;stroke-width:0.1383528;stroke-linecap:butt;stroke-linejoin:miter;stroke-miterlimit:10;stroke-dasharray:none;stroke-dashoffset:0"
       inkscape:connector-curvature="0"
       id="path18"
       d="m 409.6766,257.94185 -5.06921,-9.36979 c -1.1664,-2.25285 -1.98169,-4.65632 -2.4459,-7.21041 -0.4642,-2.55409 -0.45745,-5.06149 0.0202,-7.52218 0.47771,-2.46068 1.49139,-4.77875 3.04102,-6.9542 0.17874,-0.25092 0.36578,-0.49744 0.56114,-0.73957 l 0.44859,0.4442 0.45237,1.72243 1.51367,1.32587 0.71423,1.38483 0.61897,1.10154 1.24675,1.58561 -0.12815,1.43341 0.28352,1.08082 1.39461,1.4291 0.1615,1.423 0.88027,1.06689 0.44752,1.78549 -0.48891,1.68331 0.3377,1.91865 0.17503,1.24033 0.47968,1.91547 0.65794,1.65624 0.17155,1.85296 -1.18682,2.07475 0.90756,1.95142 -0.74434,1.77964 0.15365,1.56535 -1.15951,1.15743 -0.70207,1.12138 c -0.98516,-1.2198 -1.89936,-2.52112 -2.74263,-3.90397 z" />
    <path
       style="font-family:none;mix-blend-mode:normal;fill:#d0d0ce;fill-opacity:1;fill-rule:nonzero;stroke:none;stroke-width:0.1383528;stroke-linecap:butt;stroke-linejoin:miter;stroke-miterlimit:10;stroke-dasharray:none;stroke-dashoffset:0"
       inkscape:connector-curvature="0"
       id="path28"
       d="m 475.77737,234.54239 c 1.06727,1.39 1.85332,2.7924 2.35817,4.20723 0.58062,1.5892 0.90814,3.22739 0.98256,4.91456 0.0744,1.68717 -0.1169,3.33123 -0.57385,4.93216 -0.45696,1.60093 -1.15706,3.11238 -2.1003,4.53431 -0.94323,1.42194 -2.12815,2.68058 -3.55475,3.77593 -1.75578,1.3481 -3.64548,2.27572 -5.66904,2.78288 -2.02357,0.50712 -4.05383,0.6269 -6.09077,0.35936 -0.74077,-0.0973 -1.4684,-0.24508 -2.18287,-0.44331 l 0.0774,-1.11643 0.25658,-1.95758 -0.45205,-1.3493 0.33678,-1.66579 -0.38247,-1.23596 -0.5109,-1.97791 -1.27284,-0.95055 -0.0204,-0.37586 2.77709,-2.13225 c 0.73023,0.95106 1.68434,1.51217 2.86235,1.68334 1.178,0.17118 2.24254,-0.10835 3.1936,-0.83857 0.76815,-0.58979 1.26934,-1.33799 1.50353,-2.2446 0.2342,-0.90661 0.19423,-1.79167 -0.11993,-2.6552 -0.0869,-0.3403 -0.28478,-0.71163 -0.59371,-1.11401 -0.73023,-0.95106 -1.7335,-1.57619 -3.0098,-1.87539 -1.27632,-0.2992 -2.39,-0.0837 -3.34105,0.64654 l -2.63371,2.02216 -6.06647,-7.90111 2.63371,-2.02215 c 0.95105,-0.73022 1.44685,-1.75048 1.48739,-3.06076 0.0406,-1.31029 -0.3043,-2.44095 -1.03452,-3.39201 -0.28088,-0.36577 -0.5885,-0.65287 -0.92292,-0.86126 -0.7531,-0.52647 -1.59782,-0.79366 -2.53415,-0.80153 -0.93634,-0.008 -1.78858,0.28309 -2.55675,0.87289 -0.95105,0.73022 -1.50303,1.67732 -1.65591,2.84128 -0.15289,1.16396 0.13578,2.22147 0.866,3.17254 l -9.21794,7.07755 c -1.32002,-1.71923 -2.24061,-3.59976 -2.76178,-5.64163 -0.52116,-2.04187 -0.64798,-4.08127 -0.38044,-6.11821 0.26756,-2.03693 0.90759,-3.96739 1.92008,-5.79136 1.0125,-1.82398 2.39665,-3.41002 4.15245,-4.75812 1.42658,-1.09534 2.94852,-1.91504 4.56581,-2.45907 1.61731,-0.54406 3.25828,-0.83009 4.92291,-0.85812 1.66464,-0.028 3.30232,0.21175 4.91304,0.71932 0.96887,0.30532 1.89696,0.69454 2.7843,1.16764 l -0.0704,0.12235 0.72444,1.23805 -0.26002,1.45098 -0.44321,2.13223 0.16317,1.34001 0.80833,2.07543 0.31029,1.21097 -0.8933,1.65299 0.0239,0.0727 -0.11705,0.23238 0.0161,1.46903 1.00057,1.25612 -0.93226,1.12972 -0.13098,1.59805 0.14053,1.28137 0.285,-0.92756 0.34376,-1.42115 1.14502,-0.95281 -0.78779,-1.07922 0.0472,-0.31038 0.23956,0.44723 1.76073,0.19754 0.52267,2.1242 1.12013,1.25628 0.60898,1.74251 1.01559,0.83145 1.22465,1.68112 1.0156,0.83146 0.43059,1.20067 1.07697,1.44714 1.34166,1.60727 1.08944,0.94845 -0.62044,-1.24432 -1.10767,-1.75498 -0.84302,-1.59479 -0.1966,-1.34836 -0.78159,-0.97914 -0.99066,-1.82882 -1.01558,-0.83146 -0.60898,-1.74251 -1.12013,-1.25628 -0.52266,-2.12419 -1.76074,-0.19754 -0.88352,-1.6496 0.35461,-0.52671 -0.0975,-1.03408 -0.59556,-1.89852 0.0496,-1.1631 0.65599,-1.95533 0.47277,-1.27406 -0.51167,-1.06116 0.29096,-0.37075 c 0.75338,0.66538 1.46562,1.43511 2.13673,2.30917 1.15151,1.49976 1.98588,3.09762 2.50314,4.79363 0.51726,1.696 0.74419,3.41143 0.68077,5.14628 1.69238,0.38674 3.284,1.03982 4.77486,1.95922 1.49085,0.91941 2.81203,2.12898 3.96354,3.62873 z" />
    <path
       style="font-family:none;mix-blend-mode:normal;fill:none;fill-rule:nonzero;stroke:#00bb31;stroke-width:1.58749998;stroke-linecap:butt;stroke-linejoin:miter;stroke-miterlimit:10;stroke-dasharray:none;stroke-dashoffset:0"
       inkscape:connector-curvature="0"
       id="path32"
       d="" />
    <path
       style="font-family:none;mix-blend-mode:normal;fill:#d0d0ce;fill-opacity:1;fill-rule:nonzero;stroke:none;stroke-width:0.1383528;stroke-linecap:butt;stroke-linejoin:miter;stroke-miterlimit:10;stroke-dasharray:none;stroke-dashoffset:0"
       inkscape:connector-curvature="0"
       id="path34"
       d="m 431.99131,248.30868 c 1.66216,-1.09036 2.66733,-2.49221 3.01554,-4.20555 0.34819,-1.71335 0.30904,-3.42178 -0.11749,-5.1253 l 11.37583,-1.61228 c 0.17217,0.912 0.34627,2.11221 0.52232,3.60066 0.17603,1.48845 0.0903,3.14699 -0.25708,4.97562 -0.34743,1.82864 -1.10238,3.74995 -2.26486,5.76393 -1.16247,2.01398 -2.99175,3.97019 -5.48783,5.86862 l -0.0551,0.0419 c -2.78973,2.12177 -5.46483,3.46107 -8.02527,4.01788 -2.56046,0.55681 -5.00253,0.54557 -7.32619,-0.0337 -2.32366,-0.5793 -4.5076,-1.64148 -6.55183,-3.18654 -0.80804,-0.61073 -1.59149,-1.26054 -2.35034,-1.94942 l 0.52139,-1.21597 0.96782,-1.32189 -0.39239,-1.52313 0.46197,-1.87289 -1.19671,-1.78875 0.85382,-2.23251 -0.4543,-1.80457 -0.90467,-1.53545 -0.76838,-1.81898 -0.3636,-1.19869 -0.62857,-1.84395 0.22438,-1.73844 -0.71663,-1.6955 -1.03378,-0.91892 -0.3783,-1.38127 -1.59769,-1.19777 -0.44626,-1.0244 -0.0937,-1.43608 -1.47563,-1.37515 -0.78093,-0.99332 -0.91859,-1.2586 -1.69946,-1.07746 -0.71173,-1.63244 -0.51154,-0.36997 c 1.19513,-2.06528 2.91302,-3.95001 5.15367,-5.65416 l 0.0551,-0.0419 c 2.23914,-1.703 4.40357,-2.85669 6.49328,-3.46107 2.08973,-0.60437 4.08962,-0.85072 5.99969,-0.73905 1.48214,0.0866 2.89051,0.35152 4.2251,0.79461 l 0.0616,1.0066 -0.0278,1.29675 0.10869,1.43697 -0.31388,1.98467 -0.30255,1.15463 0.79661,1.72309 0.51671,1.21764 -0.006,-1.00335 -0.5415,-1.61594 0.55767,-1.04749 0.569,-1.87752 0.14644,-1.32983 0.28287,-1.1896 0.0912,-0.97502 c 1.35129,0.62139 2.59325,1.32593 3.72589,2.11362 l -4.59176,10.53211 c -0.72276,-0.49322 -1.54209,-0.94198 -2.45796,-1.34627 -0.91586,-0.4043 -1.85849,-0.67236 -2.82786,-0.8042 -0.96938,-0.13184 -1.92842,-0.0977 -2.87712,0.10237 -0.94869,0.20008 -1.79451,0.61161 -2.53744,1.2346 -1.76039,1.57065 -2.69087,3.45163 -2.79142,5.64294 -0.10056,2.19131 0.61692,4.29642 2.15241,6.31531 l 6.07219,7.98379 c 1.5355,2.01889 3.39566,3.28387 5.58052,3.79492 2.18485,0.51106 4.26914,0.12809 6.25288,-1.14891 z" />
    <path
       style="font-family:none;mix-blend-mode:normal;fill:#aa0000;fill-rule:nonzero;stroke:none;stroke-width:0.1383528;stroke-linecap:butt;stroke-linejoin:miter;stroke-miterlimit:10;stroke-dasharray:none;stroke-dashoffset:0"
       inkscape:connector-curvature="0"
       id="path36"
       d="m 424.35237,213.10679 1.93862,0.7816" />
    <path
       style="font-family:none;mix-blend-mode:normal;fill:none;fill-rule:nonzero;stroke:#00bb31;stroke-width:1.58749998;stroke-linecap:butt;stroke-linejoin:miter;stroke-miterlimit:10;stroke-dasharray:none;stroke-dashoffset:0"
       inkscape:connector-curvature="0"
       id="path38"
       d="" />
    <path
       style="font-family:none;mix-blend-mode:normal;fill:none;fill-rule:nonzero;stroke:#00bb31;stroke-width:1.58749998;stroke-linecap:butt;stroke-linejoin:miter;stroke-miterlimit:10;stroke-dasharray:none;stroke-dashoffset:0"
       inkscape:connector-curvature="0"
       id="path44-3"
       d="" />
    <path
       style="font-family:none;mix-blend-mode:normal;fill:#d0d0ce;fill-opacity:1;fill-rule:nonzero;stroke:none;stroke-width:0.1383528;stroke-linecap:butt;stroke-linejoin:miter;stroke-miterlimit:10;stroke-dasharray:none;stroke-dashoffset:0"
       inkscape:connector-curvature="0"
       id="path46"
       d="m 395.83039,247.09432 c -0.16686,2.20734 -0.65583,4.24003 -1.4669,6.09806 -0.81107,1.85803 -1.90366,3.46353 -3.27779,4.81651 -1.37413,1.35297 -3.0352,2.37207 -4.98322,3.0573 -1.94801,0.68522 -4.16366,0.93398 -6.64692,0.74626 -2.48327,-0.18772 -4.6858,-0.72421 -6.60759,-1.60947 -1.92179,-0.88527 -3.51145,-2.03448 -4.76898,-3.44764 -1.25752,-1.41317 -2.18639,-3.04429 -2.78659,-4.89338 -0.60021,-1.84909 -0.82036,-3.83132 -0.66045,-5.9467 l 1.59561,-21.10775 c 0.13936,-1.84345 0.59617,-3.63275 1.37046,-5.36791 l 0.98593,0.20367 1.61991,-0.39949 2.0731,0.75201 2.31195,-1.29822 -2.04295,0.81458 -1.93859,-0.99383 -1.48542,0.15768 -0.94192,-0.41568 c 0.82722,-1.51937 1.8766,-2.86213 3.14815,-4.02829 1.49083,-1.36728 3.25885,-2.42454 5.30405,-3.1718 0.37998,-0.13883 0.76672,-0.26158 1.16023,-0.36826 l -0.17501,1.1661 0.77672,2.06022 -0.12875,1.96272 0.34735,1.78519 -0.57053,1.66673 0.0987,1.75626 0.35756,1.27416 0.40682,0.30474 c -0.58037,0.69374 -0.90653,1.51668 -0.97851,2.46882 l -0.069,-0.005 -0.55273,7.31184 c 0.11631,-0.31496 0.38294,-0.6301 0.79989,-0.94545 0.41696,-0.31535 0.89855,-0.56801 1.44478,-0.75796 0.54622,-0.18996 1.08984,-0.34542 1.63085,-0.4664 0.54101,-0.12097 0.99546,-0.16755 1.36335,-0.13974 4.69061,0.35458 8.16979,2.05131 10.43752,5.09018 2.26774,3.03888 3.2191,6.9726 2.85409,11.80117 z" />
    <path
       style="font-family:none;mix-blend-mode:normal;fill:#aa0000;fill-rule:nonzero;stroke:none;stroke-width:0.1383528;stroke-linecap:butt;stroke-linejoin:miter;stroke-miterlimit:10;stroke-dasharray:none;stroke-dashoffset:0"
       inkscape:connector-curvature="0"
       id="path104"
       d="m 367.59802,219.4396 0.58201,-1.17928" />
    <path
       style="font-family:none;mix-blend-mode:normal;fill:none;fill-rule:nonzero;stroke:#00bb31;stroke-width:1.58749998;stroke-linecap:butt;stroke-linejoin:miter;stroke-miterlimit:10;stroke-dasharray:none;stroke-dashoffset:0"
       inkscape:connector-curvature="0"
       id="path106"
       d="" />
    <path
       style="opacity:1;vector-effect:none;fill:#d0d0ce;fill-opacity:1;stroke:none;stroke-width:17.23838425;stroke-linecap:butt;stroke-linejoin:miter;stroke-miterlimit:4;stroke-dasharray:none;stroke-dashoffset:0;stroke-opacity:1"
       d="m 0,210.56848 v 50.75866 l 333.94414,0.49971 -0.76222,-1.73633 -0.3767,-3.30729 -3.9579,-3.49643 0.28293,-5.38624 -2.16757,-1.98437 0.84828,-5.48029 -3.20448,-3.49642 4.24084,3.30729 2.86226,-0.83716 5.39725,1.53634 5.59723,-0.19999 4.26452,3.60805 -4.66443,-2.73988 -5.13082,0.33434 -5.33078,-1.8712 -3.24157,1.80609 -0.50761,3.37137 1.97895,2.36265 -0.18864,4.91339 3.67549,2.83497 1.41359,3.40186 3.56728,3.06648 7.37207,0.0109 c 1.04373,0.0606 2.07321,0.0181 3.08801,-0.13125 1.68363,-0.24783 3.27186,-0.73628 4.76441,-1.46555 1.49254,-0.72927 2.83978,-1.68521 4.0424,-2.86752 1.20262,-1.18232 2.20046,-2.52009 2.99318,-4.01371 0.71373,-1.32074 1.23098,-2.84292 1.55169,-4.56562 0.34606,-1.8587 0.36382,-3.64969 0.0531,-5.37331 -0.31072,-1.72363 -0.88664,-3.34444 -1.72692,-4.86224 1.32976,-1.1116 2.45209,-2.42615 3.36626,-3.94394 0.91417,-1.5178 1.54432,-3.20609 1.89028,-5.06481 0.31229,-1.67738 0.37292,-3.26114 0.18244,-4.75113 -0.20191,-1.6798 -0.65089,-3.28831 -1.34711,-4.82606 -0.69624,-1.53774 -1.60893,-2.91658 -2.73857,-4.1367 -1.12966,-1.22011 -2.43505,-2.25056 -3.91615,-3.09077 -1.4811,-0.84022 -3.10325,-1.42537 -4.86647,-1.75545 -1.26196,-0.23622 -2.49911,-0.32033 -3.71311,-0.262 l -5.93684,-0.003 -0.56173,1.2826 0.79984,2.93988 -1.7326,3.94239 0.53339,3.40755 -1.53266,2.07119 0.92401,2.12441 4.73969,0.54829 3.19879,1.60352 2.73187,-3.00653 -2.6654,3.87521 -3.66517,-1.53686 -3.66467,0.0672 -3.53168,4.14239 2.73187,-4.27623 -1.86556,-3.80855 1.46616,-2.00453 -1.13326,-3.40754 1.46617,-3.80856 -2.06552,-2.6727 0.38859,-1.48466 z"
       id="rect1667"
       inkscape:connector-curvature="0" />
    <path
       style="font-family:none;mix-blend-mode:normal;fill:none;fill-rule:nonzero;stroke:#00bb31;stroke-width:0.20063466;stroke-linecap:butt;stroke-linejoin:miter;stroke-miterlimit:10;stroke-dasharray:none;stroke-dashoffset:0"
       inkscape:connector-curvature="0"
       id="path44"
       d="" />
    <path
       style="font-family:none;mix-blend-mode:normal;fill:none;fill-rule:nonzero;stroke:#00bb31;stroke-width:0.20063466;stroke-linecap:butt;stroke-linejoin:miter;stroke-miterlimit:10;stroke-dasharray:none;stroke-dashoffset:0"
       inkscape:connector-curvature="0"
       id="path48"
       d="" />
    <path
       style="font-family:none;mix-blend-mode:normal;fill:none;fill-rule:nonzero;stroke:#00bb31;stroke-width:0.20063466;stroke-linecap:butt;stroke-linejoin:miter;stroke-miterlimit:10;stroke-dasharray:none;stroke-dashoffset:0"
       inkscape:connector-curvature="0"
       id="path52"
       d="" />
    <path
       style="font-family:none;mix-blend-mode:normal;fill:none;fill-rule:nonzero;stroke:#00bb31;stroke-width:0.20063466;stroke-linecap:butt;stroke-linejoin:miter;stroke-miterlimit:10;stroke-dasharray:none;stroke-dashoffset:0"
       inkscape:connector-curvature="0"
       id="path58"
       d="" />
    <path
       style="font-family:none;mix-blend-mode:normal;fill:none;fill-rule:nonzero;stroke:#00bb31;stroke-width:0.20063466;stroke-linecap:butt;stroke-linejoin:miter;stroke-miterlimit:10;stroke-dasharray:none;stroke-dashoffset:0"
       inkscape:connector-curvature="0"
       id="path62"
       d="" />
    <path
       style="font-family:none;mix-blend-mode:normal;fill:none;fill-rule:nonzero;stroke:#00bb31;stroke-width:0.20063466;stroke-linecap:butt;stroke-linejoin:miter;stroke-miterlimit:10;stroke-dasharray:none;stroke-dashoffset:0"
       inkscape:connector-curvature="0"
       id="path68"
       d="" />
    <path
       style="font-family:none;mix-blend-mode:normal;fill:none;fill-rule:nonzero;stroke:#00bb31;stroke-width:0.20063466;stroke-linecap:butt;stroke-linejoin:miter;stroke-miterlimit:10;stroke-dasharray:none;stroke-dashoffset:0"
       inkscape:connector-curvature="0"
       d=""
       id="path1742" />
    <path
       style="font-family:none;mix-blend-mode:normal;fill:none;fill-rule:nonzero;stroke:#00bb31;stroke-width:0.20063466;stroke-linecap:butt;stroke-linejoin:miter;stroke-miterlimit:10;stroke-dasharray:none;stroke-dashoffset:0"
       inkscape:connector-curvature="0"
       d=""
       id="path1746" />
    <path
       style="font-family:none;mix-blend-mode:normal;fill:none;fill-rule:nonzero;stroke:#00bb31;stroke-width:0.20063466;stroke-linecap:butt;stroke-linejoin:miter;stroke-miterlimit:10;stroke-dasharray:none;stroke-dashoffset:0"
       inkscape:connector-curvature="0"
       d=""
       id="path1750" />
    <path
       style="font-family:none;mix-blend-mode:normal;fill:none;fill-rule:nonzero;stroke:#00bb31;stroke-width:0.20063466;stroke-linecap:butt;stroke-linejoin:miter;stroke-miterlimit:10;stroke-dasharray:none;stroke-dashoffset:0"
       inkscape:connector-curvature="0"
       d=""
       id="path1754" />
    <path
       style="font-family:none;mix-blend-mode:normal;fill:none;fill-rule:nonzero;stroke:#00bb31;stroke-width:0.20063466;stroke-linecap:butt;stroke-linejoin:miter;stroke-miterlimit:10;stroke-dasharray:none;stroke-dashoffset:0"
       inkscape:connector-curvature="0"
       d=""
       id="path1758" />
    <path
       style="font-family:none;mix-blend-mode:normal;fill:none;fill-rule:nonzero;stroke:#00bb31;stroke-width:0.20063466;stroke-linecap:butt;stroke-linejoin:miter;stroke-miterlimit:10;stroke-dasharray:none;stroke-dashoffset:0"
       inkscape:connector-curvature="0"
       d=""
       id="path1762" />
    <path
       style="font-family:none;mix-blend-mode:normal;fill:none;fill-rule:nonzero;stroke:#00bb31;stroke-width:0.20063466;stroke-linecap:butt;stroke-linejoin:miter;stroke-miterlimit:10;stroke-dasharray:none;stroke-dashoffset:0"
       inkscape:connector-curvature="0"
       d=""
       id="path1766" />
    <path
       style="font-family:none;mix-blend-mode:normal;fill:none;fill-rule:nonzero;stroke:#00bb31;stroke-width:0.20063466;stroke-linecap:butt;stroke-linejoin:miter;stroke-miterlimit:10;stroke-dasharray:none;stroke-dashoffset:0"
       inkscape:connector-curvature="0"
       d=""
       id="path1770" />
    <path
       style="font-family:none;mix-blend-mode:normal;fill:none;fill-rule:nonzero;stroke:#00bb31;stroke-width:0.20063466;stroke-linecap:butt;stroke-linejoin:miter;stroke-miterlimit:10;stroke-dasharray:none;stroke-dashoffset:0"
       inkscape:connector-curvature="0"
       d=""
       id="path1774" />
    <path
       style="font-family:none;mix-blend-mode:normal;fill:none;fill-rule:nonzero;stroke:#00bb31;stroke-width:0.20063466;stroke-linecap:butt;stroke-linejoin:miter;stroke-miterlimit:10;stroke-dasharray:none;stroke-dashoffset:0"
       inkscape:connector-curvature="0"
       d=""
       id="path1778" />
    <path
       style="font-family:none;mix-blend-mode:normal;fill:none;fill-rule:nonzero;stroke:#00bb31;stroke-width:0.20063466;stroke-linecap:butt;stroke-linejoin:miter;stroke-miterlimit:10;stroke-dasharray:none;stroke-dashoffset:0"
       inkscape:connector-curvature="0"
       d=""
       id="path1782" />
    <path
       style="font-family:none;mix-blend-mode:normal;fill:none;fill-rule:nonzero;stroke:#00bb31;stroke-width:0.20063466;stroke-linecap:butt;stroke-linejoin:miter;stroke-miterlimit:10;stroke-dasharray:none;stroke-dashoffset:0"
       inkscape:connector-curvature="0"
       d=""
       id="path1786" />
    <path
       style="font-family:none;mix-blend-mode:normal;fill:none;fill-rule:nonzero;stroke:#00bb31;stroke-width:0.20063466;stroke-linecap:butt;stroke-linejoin:miter;stroke-miterlimit:10;stroke-dasharray:none;stroke-dashoffset:0"
       inkscape:connector-curvature="0"
       d=""
       id="path1790" />
    <path
       style="font-family:none;mix-blend-mode:normal;fill:none;fill-rule:nonzero;stroke:#00bb31;stroke-width:0.20063466;stroke-linecap:butt;stroke-linejoin:miter;stroke-miterlimit:10;stroke-dasharray:none;stroke-dashoffset:0"
       inkscape:connector-curvature="0"
       d=""
       id="path1794" />
    <path
       style="font-family:none;mix-blend-mode:normal;fill:none;fill-rule:nonzero;stroke:#00bb31;stroke-width:0.20063466;stroke-linecap:butt;stroke-linejoin:miter;stroke-miterlimit:10;stroke-dasharray:none;stroke-dashoffset:0"
       inkscape:connector-curvature="0"
       d=""
       id="path1800" />
    <path
       style="font-family:none;mix-blend-mode:normal;fill:none;fill-rule:nonzero;stroke:#00bb31;stroke-width:0.20063466;stroke-linecap:butt;stroke-linejoin:miter;stroke-miterlimit:10;stroke-dasharray:none;stroke-dashoffset:0"
       inkscape:connector-curvature="0"
       d=""
       id="path2233" />
    <path
       style="font-family:none;mix-blend-mode:normal;fill:none;fill-rule:nonzero;stroke:#00bb31;stroke-width:0.20063466;stroke-linecap:butt;stroke-linejoin:miter;stroke-miterlimit:10;stroke-dasharray:none;stroke-dashoffset:0"
       inkscape:connector-curvature="0"
       d=""
       id="path2237" />
    <path
       style="font-family:none;mix-blend-mode:normal;fill:none;fill-rule:nonzero;stroke:#00bb31;stroke-width:0.20063466;stroke-linecap:butt;stroke-linejoin:miter;stroke-miterlimit:10;stroke-dasharray:none;stroke-dashoffset:0"
       inkscape:connector-curvature="0"
       d=""
       id="path2241" />
    <path
       style="font-family:none;mix-blend-mode:normal;fill:none;fill-rule:nonzero;stroke:#00bb31;stroke-width:0.20063466;stroke-linecap:butt;stroke-linejoin:miter;stroke-miterlimit:10;stroke-dasharray:none;stroke-dashoffset:0"
       inkscape:connector-curvature="0"
       d=""
       id="path2245" />
    <path
       style="font-family:none;mix-blend-mode:normal;fill:none;fill-rule:nonzero;stroke:#00bb31;stroke-width:0.20063466;stroke-linecap:butt;stroke-linejoin:miter;stroke-miterlimit:10;stroke-dasharray:none;stroke-dashoffset:0"
       inkscape:connector-curvature="0"
       d=""
       id="path2249" />
    <path
       style="font-family:none;mix-blend-mode:normal;fill:none;fill-rule:nonzero;stroke:#00bb31;stroke-width:0.20063466;stroke-linecap:butt;stroke-linejoin:miter;stroke-miterlimit:10;stroke-dasharray:none;stroke-dashoffset:0"
       inkscape:connector-curvature="0"
       d=""
       id="path2253" />
    <path
       style="font-family:none;mix-blend-mode:normal;fill:none;fill-rule:nonzero;stroke:#00bb31;stroke-width:0.20063466;stroke-linecap:butt;stroke-linejoin:miter;stroke-miterlimit:10;stroke-dasharray:none;stroke-dashoffset:0"
       inkscape:connector-curvature="0"
       d=""
       id="path2257" />
    <path
       style="font-family:none;mix-blend-mode:normal;fill:none;fill-rule:nonzero;stroke:#00bb31;stroke-width:0.20063466;stroke-linecap:butt;stroke-linejoin:miter;stroke-miterlimit:10;stroke-dasharray:none;stroke-dashoffset:0"
       inkscape:connector-curvature="0"
       d=""
       id="path2261" />
    <path
       style="font-family:none;mix-blend-mode:normal;fill:none;fill-rule:nonzero;stroke:#00bb31;stroke-width:0.20063466;stroke-linecap:butt;stroke-linejoin:miter;stroke-miterlimit:10;stroke-dasharray:none;stroke-dashoffset:0"
       inkscape:connector-curvature="0"
       d=""
       id="path2265" />
    <path
       style="font-family:none;mix-blend-mode:normal;fill:none;fill-rule:nonzero;stroke:#00bb31;stroke-width:0.20063466;stroke-linecap:butt;stroke-linejoin:miter;stroke-miterlimit:10;stroke-dasharray:none;stroke-dashoffset:0"
       inkscape:connector-curvature="0"
       d=""
       id="path2269" />
    <path
       style="font-family:none;mix-blend-mode:normal;fill:none;fill-rule:nonzero;stroke:#00bb31;stroke-width:0.20063466;stroke-linecap:butt;stroke-linejoin:miter;stroke-miterlimit:10;stroke-dasharray:none;stroke-dashoffset:0"
       inkscape:connector-curvature="0"
       d=""
       id="path2273" />
    <path
       style="font-family:none;mix-blend-mode:normal;fill:none;fill-rule:nonzero;stroke:#00bb31;stroke-width:0.20063466;stroke-linecap:butt;stroke-linejoin:miter;stroke-miterlimit:10;stroke-dasharray:none;stroke-dashoffset:0"
       inkscape:connector-curvature="0"
       d=""
       id="path2277" />
    <path
       style="font-family:none;mix-blend-mode:normal;fill:none;fill-rule:nonzero;stroke:#00bb31;stroke-width:0.20063466;stroke-linecap:butt;stroke-linejoin:miter;stroke-miterlimit:10;stroke-dasharray:none;stroke-dashoffset:0"
       inkscape:connector-curvature="0"
       d=""
       id="path2281" />
    <path
       style="font-family:none;mix-blend-mode:normal;fill:none;fill-rule:nonzero;stroke:#00bb31;stroke-width:0.20063466;stroke-linecap:butt;stroke-linejoin:miter;stroke-miterlimit:10;stroke-dasharray:none;stroke-dashoffset:0"
       inkscape:connector-curvature="0"
       d=""
       id="path2285" />
    <path
       style="font-family:none;mix-blend-mode:normal;fill:none;fill-rule:nonzero;stroke:#00bb31;stroke-width:0.20063466;stroke-linecap:butt;stroke-linejoin:miter;stroke-miterlimit:10;stroke-dasharray:none;stroke-dashoffset:0"
       inkscape:connector-curvature="0"
       d=""
       id="path2291" />
    <path
       style="font-family:none;mix-blend-mode:normal;fill:none;fill-rule:nonzero;stroke:#00bb31;stroke-width:0.20063466;stroke-linecap:butt;stroke-linejoin:miter;stroke-miterlimit:10;stroke-dasharray:none;stroke-dashoffset:0"
       inkscape:connector-curvature="0"
       d=""
       id="path3260" />
    <path
       style="font-family:none;mix-blend-mode:normal;fill:none;fill-rule:nonzero;stroke:#00bb31;stroke-width:0.20063466;stroke-linecap:butt;stroke-linejoin:miter;stroke-miterlimit:10;stroke-dasharray:none;stroke-dashoffset:0"
       inkscape:connector-curvature="0"
       d=""
       id="path3266" />
    <path
       style="font-family:none;mix-blend-mode:normal;fill:none;fill-rule:nonzero;stroke:#00bb31;stroke-width:0.20063466;stroke-linecap:butt;stroke-linejoin:miter;stroke-miterlimit:10;stroke-dasharray:none;stroke-dashoffset:0"
       inkscape:connector-curvature="0"
       d=""
       id="path3314" />
    <path
       style="font-family:none;mix-blend-mode:normal;fill:none;fill-rule:nonzero;stroke:#00bb31;stroke-width:0.20063466;stroke-linecap:butt;stroke-linejoin:miter;stroke-miterlimit:10;stroke-dasharray:none;stroke-dashoffset:0"
       inkscape:connector-curvature="0"
       d=""
       id="path3320" />
    <path
       style="font-family:none;mix-blend-mode:normal;fill:none;fill-rule:nonzero;stroke:#00bb31;stroke-width:0.20063466;stroke-linecap:butt;stroke-linejoin:miter;stroke-miterlimit:10;stroke-dasharray:none;stroke-dashoffset:0"
       inkscape:connector-curvature="0"
       d=""
       id="path3340" />
    <path
       style="font-family:none;mix-blend-mode:normal;fill:none;fill-rule:nonzero;stroke:#00bb31;stroke-width:0.20063466;stroke-linecap:butt;stroke-linejoin:miter;stroke-miterlimit:10;stroke-dasharray:none;stroke-dashoffset:0"
       inkscape:connector-curvature="0"
       d=""
       id="path7713" />
    <path
       style="font-family:none;mix-blend-mode:normal;fill:none;fill-rule:nonzero;stroke:#00bb31;stroke-width:0.20063466;stroke-linecap:butt;stroke-linejoin:miter;stroke-miterlimit:10;stroke-dasharray:none;stroke-dashoffset:0"
       inkscape:connector-curvature="0"
       d=""
       id="path7719" />
    <path
       style="font-family:none;mix-blend-mode:normal;fill:none;fill-rule:nonzero;stroke:#00bb31;stroke-width:0.20063466;stroke-linecap:butt;stroke-linejoin:miter;stroke-miterlimit:10;stroke-dasharray:none;stroke-dashoffset:0"
       inkscape:connector-curvature="0"
       d=""
       id="path7725" />
    <path
       style="font-family:none;mix-blend-mode:normal;fill:none;fill-rule:nonzero;stroke:#00bb31;stroke-width:0.20063466;stroke-linecap:butt;stroke-linejoin:miter;stroke-miterlimit:10;stroke-dasharray:none;stroke-dashoffset:0"
       inkscape:connector-curvature="0"
       d=""
       id="path7773" />
    <path
       style="font-family:none;mix-blend-mode:normal;fill:none;fill-rule:nonzero;stroke:#00bb31;stroke-width:0.20063466;stroke-linecap:butt;stroke-linejoin:miter;stroke-miterlimit:10;stroke-dasharray:none;stroke-dashoffset:0"
       inkscape:connector-curvature="0"
       d=""
       id="path8214" />
    <path
       style="font-family:none;mix-blend-mode:normal;fill:none;fill-rule:nonzero;stroke:#00bb31;stroke-width:0.20063466;stroke-linecap:butt;stroke-linejoin:miter;stroke-miterlimit:10;stroke-dasharray:none;stroke-dashoffset:0"
       inkscape:connector-curvature="0"
       d=""
       id="path8218" />
    <path
       style="font-family:none;mix-blend-mode:normal;fill:none;fill-rule:nonzero;stroke:#00bb31;stroke-width:0.20063466;stroke-linecap:butt;stroke-linejoin:miter;stroke-miterlimit:10;stroke-dasharray:none;stroke-dashoffset:0"
       inkscape:connector-curvature="0"
       d=""
       id="path8222" />
    <path
       style="font-family:none;mix-blend-mode:normal;fill:none;fill-rule:nonzero;stroke:#00bb31;stroke-width:0.20063466;stroke-linecap:butt;stroke-linejoin:miter;stroke-miterlimit:10;stroke-dasharray:none;stroke-dashoffset:0"
       inkscape:connector-curvature="0"
       d=""
       id="path8226" />
    <path
       style="font-family:none;mix-blend-mode:normal;fill:none;fill-rule:nonzero;stroke:#00bb31;stroke-width:0.20063466;stroke-linecap:butt;stroke-linejoin:miter;stroke-miterlimit:10;stroke-dasharray:none;stroke-dashoffset:0"
       inkscape:connector-curvature="0"
       d=""
       id="path8230" />
    <path
       style="font-family:none;mix-blend-mode:normal;fill:none;fill-rule:nonzero;stroke:#00bb31;stroke-width:0.20063466;stroke-linecap:butt;stroke-linejoin:miter;stroke-miterlimit:10;stroke-dasharray:none;stroke-dashoffset:0"
       inkscape:connector-curvature="0"
       d=""
       id="path8234" />
    <path
       style="font-family:none;mix-blend-mode:normal;fill:none;fill-rule:nonzero;stroke:#00bb31;stroke-width:0.20063466;stroke-linecap:butt;stroke-linejoin:miter;stroke-miterlimit:10;stroke-dasharray:none;stroke-dashoffset:0"
       inkscape:connector-curvature="0"
       d=""
       id="path8238" />
    <path
       style="font-family:none;mix-blend-mode:normal;fill:none;fill-rule:nonzero;stroke:#00bb31;stroke-width:0.20063466;stroke-linecap:butt;stroke-linejoin:miter;stroke-miterlimit:10;stroke-dasharray:none;stroke-dashoffset:0"
       inkscape:connector-curvature="0"
       d=""
       id="path8242" />
    <path
       style="font-family:none;mix-blend-mode:normal;fill:none;fill-rule:nonzero;stroke:#00bb31;stroke-width:0.20063466;stroke-linecap:butt;stroke-linejoin:miter;stroke-miterlimit:10;stroke-dasharray:none;stroke-dashoffset:0"
       inkscape:connector-curvature="0"
       d=""
       id="path8246" />
    <path
       style="font-family:none;mix-blend-mode:normal;fill:none;fill-rule:nonzero;stroke:#00bb31;stroke-width:0.20063466;stroke-linecap:butt;stroke-linejoin:miter;stroke-miterlimit:10;stroke-dasharray:none;stroke-dashoffset:0"
       inkscape:connector-curvature="0"
       d=""
       id="path8250" />
    <path
       style="font-family:none;mix-blend-mode:normal;fill:none;fill-rule:nonzero;stroke:#00bb31;stroke-width:0.20063466;stroke-linecap:butt;stroke-linejoin:miter;stroke-miterlimit:10;stroke-dasharray:none;stroke-dashoffset:0"
       inkscape:connector-curvature="0"
       d=""
       id="path8254" />
    <path
       style="font-family:none;mix-blend-mode:normal;fill:none;fill-rule:nonzero;stroke:#00bb31;stroke-width:0.20063466;stroke-linecap:butt;stroke-linejoin:miter;stroke-miterlimit:10;stroke-dasharray:none;stroke-dashoffset:0"
       inkscape:connector-curvature="0"
       d=""
       id="path8258" />
    <path
       style="font-family:none;mix-blend-mode:normal;fill:none;fill-rule:nonzero;stroke:#00bb31;stroke-width:0.20063466;stroke-linecap:butt;stroke-linejoin:miter;stroke-miterlimit:10;stroke-dasharray:none;stroke-dashoffset:0"
       inkscape:connector-curvature="0"
       d=""
       id="path8262" />
    <path
       style="font-family:none;mix-blend-mode:normal;fill:none;fill-rule:nonzero;stroke:#00bb31;stroke-width:0.20063466;stroke-linecap:butt;stroke-linejoin:miter;stroke-miterlimit:10;stroke-dasharray:none;stroke-dashoffset:0"
       inkscape:connector-curvature="0"
       d=""
       id="path8266" />
    <path
       style="font-family:none;mix-blend-mode:normal;fill:none;fill-rule:nonzero;stroke:#00bb31;stroke-width:0.20063466;stroke-linecap:butt;stroke-linejoin:miter;stroke-miterlimit:10;stroke-dasharray:none;stroke-dashoffset:0"
       inkscape:connector-curvature="0"
       d=""
       id="path8272" />
    <path
       style="font-family:none;mix-blend-mode:normal;fill:#fe5000;fill-rule:nonzero;stroke:none;stroke-width:0.12407031;stroke-linecap:butt;stroke-linejoin:miter;stroke-miterlimit:10;stroke-dasharray:none;stroke-dashoffset:0"
       d="m 420.64477,252.68042 -0.67922,12.95998 43.83458,2.29726 -56.26544,3.38445 0.77921,12.95432 75.28626,-4.5286 -0.77921,-12.95432 -2.69252,0.16196 0.58318,-11.12712 z m 0.69748,1.86289 2.8126,0.14742 c 0.52864,0.0277 0.96424,0.13119 1.30684,0.31066 0.34261,0.17947 0.61214,0.40902 0.8087,0.68851 0.19656,0.27949 0.33094,0.60124 0.40296,0.96531 0.072,0.36408 0.0976,0.74435 0.0768,1.14083 -0.0216,0.413 -0.10898,0.77701 -0.26216,1.09201 -0.15316,0.315 -0.32849,0.57711 -0.52581,0.78626 -0.19732,0.20915 -0.39388,0.36444 -0.5897,0.46599 -0.19583,0.10155 -0.34739,0.14953 -0.45477,0.1439 l 1.67807,3.77791 -2.39137,-0.12531 -1.08186,-3.06333 -0.0248,-10e-4 -0.15704,2.99837 -2.08157,-0.10907 z m 7.21097,0.37785 5.64988,0.29613 -0.10908,2.08157 -3.5683,-0.18706 -0.078,1.48685 2.62672,0.1376 -0.10908,2.08156 -2.62671,-0.1377 -0.0779,1.48685 3.56831,0.18695 -0.10907,2.08156 -5.64988,-0.29613 z m 9.88138,0.52336 c 0.0472,-1e-4 0.0946,5.7e-4 0.14219,0.002 0.4543,0.0238 0.84952,0.10868 1.18559,0.25468 0.33608,0.14599 0.61659,0.32431 0.8416,0.53489 0.22503,0.21058 0.39703,0.44526 0.51599,0.70411 0.11896,0.25886 0.19261,0.51323 0.22092,0.76319 l -1.85894,0.62324 c -0.02,-0.0922 -0.0519,-0.19537 -0.0956,-0.30948 -0.0437,-0.11411 -0.10647,-0.22085 -0.18823,-0.32038 -0.0817,-0.0995 -0.18078,-0.18553 -0.29709,-0.25789 -0.11631,-0.0724 -0.25297,-0.1126 -0.40991,-0.12082 -0.1652,-0.009 -0.31862,0.0351 -0.46032,0.13118 -0.14171,0.0961 -0.21804,0.24731 -0.22883,0.45381 -0.008,0.15694 0.0485,0.2987 0.17028,0.42518 0.12175,0.12648 0.31372,0.29599 0.57592,0.50851 0.3687,0.23468 0.72305,0.4686 1.06284,0.70176 0.33979,0.23316 0.63874,0.4932 0.89705,0.78007 0.25829,0.28686 0.46115,0.60595 0.60839,0.9574 0.14723,0.35145 0.20843,0.76263 0.18375,1.23345 l -0.009,0.17349 c -0.0321,0.2965 -0.13139,0.57083 -0.29784,0.82301 -0.16644,0.25219 -0.38895,0.4682 -0.66758,0.64824 -0.27862,0.18004 -0.6108,0.31596 -0.99661,0.40756 -0.38581,0.0916 -0.81825,0.12478 -1.29733,0.0997 -0.3717,-0.0195 -0.71806,-0.0873 -1.03913,-0.20351 -0.32108,-0.11622 -0.60902,-0.27213 -0.86382,-0.4677 -0.25479,-0.19557 -0.46834,-0.4283 -0.64055,-0.69823 -0.17221,-0.26994 -0.29099,-0.57226 -0.35627,-0.90698 l 2.0259,-0.72623 c -0.017,0.007 -10e-4,0.0662 0.0467,0.17638 0.0481,0.11019 0.11857,0.22767 0.21141,0.35264 0.0928,0.12496 0.20902,0.23875 0.34859,0.34132 0.13956,0.10256 0.29265,0.14581 0.45915,0.12969 0.14128,-0.009 0.28283,-0.0639 0.42475,-0.16409 0.14191,-0.10024 0.21484,-0.26622 0.21868,-0.49793 -8.9e-4,-0.14085 -0.0498,-0.27383 -0.14678,-0.39901 -0.097,-0.12518 -0.237,-0.25892 -0.42005,-0.40104 -0.40655,-0.30291 -0.78402,-0.56908 -1.13229,-0.79854 -0.34827,-0.22946 -0.65054,-0.46688 -0.90687,-0.71223 -0.25633,-0.24535 -0.45332,-0.51651 -0.59098,-0.81361 -0.13765,-0.29711 -0.19504,-0.66459 -0.1721,-1.10237 0.0212,-0.40475 0.12239,-0.75563 0.30361,-1.05259 0.18122,-0.29696 0.41355,-0.54149 0.69695,-0.73371 0.2834,-0.19221 0.60557,-0.33278 0.96638,-0.42154 0.31571,-0.0777 0.63888,-0.11683 0.96958,-0.11762 z m 7.8654,0.41129 c 0.0602,1.7e-4 0.1207,0.002 0.18162,0.005 l 0.0124,6.4e-4 c 0.48735,0.0255 0.94286,0.14464 1.36656,0.35735 0.42368,0.21271 0.79557,0.50552 1.11561,0.87845 0.28093,0.32947 0.48531,0.69629 0.6132,1.10056 0.12791,0.40427 0.18497,0.81731 0.17114,1.239 l -0.11292,2.15582 c -0.0234,0.44604 -0.11529,0.89476 -0.27561,1.34604 -0.16031,0.45129 -0.41471,0.84167 -0.7633,1.17128 -0.3577,0.34569 -0.75844,0.60223 -1.20204,0.76949 -0.44361,0.16725 -0.90903,0.23813 -1.39636,0.21259 l -0.0124,-6.4e-4 c -0.47907,-0.0251 -0.93046,-0.144 -1.35416,-0.35671 -0.42369,-0.2127 -0.79971,-0.50573 -1.12801,-0.87909 -0.30396,-0.36381 -0.51267,-0.76823 -0.62602,-1.21316 -0.11335,-0.44492 -0.16108,-0.91539 -0.14337,-1.41142 l 0.11292,-2.15581 c 0.0208,-0.39648 0.12033,-0.7951 0.2987,-1.19574 0.17837,-0.40065 0.42034,-0.75034 0.7259,-1.04907 0.36552,-0.337 0.76811,-0.5892 1.2076,-0.75667 0.38453,-0.14653 0.78737,-0.21917 1.20855,-0.21793 z m 4.91522,0.24058 2.14352,0.11238 -0.28245,5.38964 c -0.0117,0.22302 0,0.43491 0.035,0.63553 0.0351,0.20062 0.0982,0.37781 0.18951,0.53169 0.0913,0.15387 0.20903,0.2781 0.35318,0.37262 0.14413,0.0945 0.31952,0.14718 0.52603,0.158 0.2065,0.0108 0.38636,-0.0232 0.53959,-0.10213 0.15323,-0.0789 0.28116,-0.19025 0.38395,-0.33395 0.10277,-0.1437 0.18209,-0.3135 0.2379,-0.50936 0.0558,-0.19586 0.0896,-0.40535 0.10128,-0.62837 l 0.28245,-5.38964 2.14353,0.11228 -0.29089,5.55074 c -0.0286,0.54516 -0.12702,1.04108 -0.29539,1.48781 -0.16835,0.44672 -0.39951,0.82596 -0.69332,1.13773 -0.29381,0.31177 -0.65186,0.5457 -1.07417,0.70165 -0.4223,0.15595 -0.90579,0.21545 -1.45052,0.17862 l -0.0124,-6.4e-4 c -0.60342,-0.0233 -1.1106,-0.14515 -1.52147,-0.36547 -0.41087,-0.22031 -0.73946,-0.50877 -0.98581,-0.86542 -0.24636,-0.35664 -0.41778,-0.76115 -0.51417,-1.21347 -0.0964,-0.45232 -0.13184,-0.92216 -0.1063,-1.4095 z m 8.06528,0.43511 2.8126,0.14743 c 0.52864,0.0277 0.96424,0.1313 1.30684,0.31077 0.34261,0.17946 0.61224,0.40891 0.80881,0.6884 0.19655,0.27949 0.33082,0.60134 0.40284,0.96542 0.0721,0.36407 0.0976,0.74435 0.0768,1.14083 -0.0216,0.413 -0.10898,0.77701 -0.26216,1.092 -0.15317,0.315 -0.32838,0.57701 -0.52571,0.78616 -0.19732,0.20915 -0.39397,0.36454 -0.5898,0.4661 -0.19583,0.10155 -0.34738,0.14953 -0.45477,0.14389 l 1.67807,3.77791 -2.39127,-0.12542 -1.08185,-3.06322 -0.0248,-10e-4 -0.15715,2.99837 -2.08157,-0.10907 z m 10.2837,0.54398 c 0.0692,3e-4 0.13943,0.002 0.21067,0.006 l 0.0124,6.4e-4 c 0.50387,0.0264 0.93389,0.11936 1.28997,0.27882 0.35608,0.15947 0.65836,0.35753 0.90687,0.59419 0.2485,0.23665 0.44591,0.49954 0.59226,0.78882 0.14636,0.28929 0.2576,0.57673 0.33374,0.86233 l -1.84911,0.90944 c -0.0418,-0.15128 -0.10192,-0.3076 -0.18043,-0.46909 -0.0785,-0.16149 -0.17648,-0.30739 -0.29389,-0.43779 -0.1174,-0.13039 -0.25259,-0.23696 -0.40563,-0.31952 -0.15304,-0.0826 -0.31656,-0.12423 -0.49045,-0.1251 -0.42299,0.011 -0.7683,0.16061 -1.03603,0.4489 -0.26773,0.28829 -0.41355,0.6596 -0.43736,1.1139 l -0.0941,1.79655 c -0.0238,0.4543 0.0842,0.84308 0.32401,1.16625 0.23982,0.32318 0.5695,0.51226 0.98902,0.56737 0.35389,0.0434 0.65391,-0.032 0.90014,-0.22615 0.24623,-0.19417 0.43891,-0.43251 0.57795,-0.71512 l 1.74388,1.09778 c -0.0821,0.14478 -0.19739,0.32924 -0.3458,0.55337 -0.14842,0.22414 -0.35232,0.4412 -0.61182,0.65123 -0.25949,0.21004 -0.58548,0.38552 -0.97802,0.52646 -0.39253,0.14094 -0.86962,0.19673 -1.4313,0.16729 l -0.0124,-6.4e-4 c -0.62776,-0.0329 -1.14919,-0.15967 -1.56419,-0.3802 -0.415,-0.22053 -0.74793,-0.50507 -0.99885,-0.85367 -0.25092,-0.3486 -0.42678,-0.74712 -0.52752,-1.19553 -0.10074,-0.4484 -0.15064,-0.91278 -0.15064,-1.39316 l 0.1,-1.90807 c 0.0321,-0.45387 0.13195,-0.89793 0.29965,-1.33227 0.16772,-0.43434 0.40321,-0.8175 0.70636,-1.14948 0.30315,-0.33199 0.67495,-0.59205 1.11551,-0.78017 0.38549,-0.16461 0.82058,-0.24576 1.30513,-0.24347 z m 4.59675,0.23588 5.64988,0.29613 -0.10908,2.08156 -3.56841,-0.18705 -0.0779,1.48685 2.62672,0.13759 -0.10908,2.08157 -2.62671,-0.13771 -0.0779,1.48685 3.56831,0.18695 -0.10908,2.08157 -5.64987,-0.29613 z m 8.07596,11.3444 0.55424,9.21412 -2.1054,0.1267 -2.74956,-4.38384 0.27263,4.53276 -2.20442,0.13268 -0.55434,-9.21422 2.11778,-0.12735 2.73654,4.3721 -0.27199,-4.52037 z m -11.24943,0.68114 c 0.42162,-0.005 0.82709,0.0649 1.21637,0.20821 0.44488,0.16383 0.84729,0.41304 1.20716,0.7477 0.3161,0.29587 0.5604,0.63755 0.73285,1.02492 0.17247,0.38737 0.27547,0.79129 0.30905,1.21187 l 0.12959,2.15571 c 0.0268,0.44584 -0.0141,0.90194 -0.12275,1.36837 -0.10867,0.46643 -0.31768,0.88295 -0.62709,1.24958 -0.31664,0.38365 -0.68597,0.68354 -1.10803,0.8995 -0.42204,0.21599 -0.87664,0.33862 -1.36378,0.36792 h -0.0124 c -0.47886,0.0288 -0.94079,-0.0387 -1.38568,-0.20255 -0.44488,-0.16382 -0.85144,-0.41288 -1.21956,-0.74705 -0.34286,-0.3274 -0.5955,-0.70577 -0.75806,-1.13517 -0.16251,-0.4294 -0.26289,-0.89154 -0.30094,-1.38643 l -0.12958,-2.15496 c -0.0238,-0.3963 0.0303,-0.80346 0.16259,-1.22159 0.13228,-0.41812 0.33349,-0.79282 0.60358,-1.12395 0.32543,-0.37588 0.69717,-0.6716 1.11509,-0.88732 0.41792,-0.21572 0.87034,-0.3383 1.35747,-0.3676 l 0.0125,-7.5e-4 c 0.0609,-0.004 0.12138,-0.006 0.18161,-0.006 z m -5.08592,0.30148 0.55423,9.21412 -2.0806,0.1252 -0.55424,-9.21423 z m -3.30669,0.19891 0.12511,2.08061 -2.09301,0.12584 0.42914,7.13363 -2.08061,0.12509 -0.42913,-7.13352 -2.093,0.12585 -0.1252,-2.08061 z m -9.91129,0.60818 c 0.32112,0.005 0.61304,0.0475 0.87579,0.12798 0.35035,0.10736 0.64918,0.25304 0.8964,0.43704 0.24723,0.184 0.44448,0.39785 0.59173,0.64172 0.14726,0.24388 0.24891,0.4885 0.3051,0.7337 l -1.77731,0.82782 c -0.0302,-0.0893 -0.0734,-0.18828 -0.1297,-0.29677 -0.0562,-0.10848 -0.13055,-0.20757 -0.22295,-0.2973 -0.0924,-0.0897 -0.20052,-0.164 -0.32422,-0.22285 -0.12369,-0.0589 -0.26393,-0.0836 -0.4208,-0.0741 -0.16514,0.01 -0.31268,0.0706 -0.4427,0.18204 -0.13003,0.1114 -0.18892,0.27026 -0.17649,0.47667 0.009,0.15687 0.0818,0.29137 0.21697,0.40339 0.13518,0.11202 0.34496,0.2589 0.62933,0.44067 0.39271,0.19182 0.77092,0.38449 1.13474,0.57805 0.36381,0.19356 0.69014,0.41834 0.97899,0.67441 0.28884,0.25608 0.52618,0.55045 0.71191,0.88316 0.18571,0.33271 0.29281,0.73442 0.32113,1.20503 l 0.0104,0.17339 c 0.001,0.29822 -0.0665,0.58195 -0.20362,0.85121 -0.13711,0.26927 -0.33389,0.50901 -0.59055,0.71918 -0.25666,0.21016 -0.57159,0.38242 -0.94469,0.51673 -0.37309,0.13431 -0.79912,0.21583 -1.278,0.24464 -0.37154,0.0223 -0.72328,-0.006 -1.05536,-0.0857 -0.3321,-0.0795 -0.63569,-0.20207 -0.91083,-0.36781 -0.27514,-0.16576 -0.51338,-0.37306 -0.71479,-0.62196 -0.20142,-0.24891 -0.35342,-0.53597 -0.45584,-0.86126 l 1.93168,-0.94896 c -0.016,0.009 0.006,0.0659 0.0661,0.16996 0.0601,0.10411 0.14328,0.21304 0.24955,0.32679 0.10628,0.11376 0.2346,0.21383 0.3848,0.30009 0.1502,0.0863 0.30704,0.11204 0.47069,0.0773 0.13936,-0.0249 0.27393,-0.0952 0.40371,-0.21077 0.12976,-0.11553 0.18361,-0.28862 0.16142,-0.5193 -0.0167,-0.13986 -0.0802,-0.26659 -0.19059,-0.3801 -0.11041,-0.11351 -0.2646,-0.23057 -0.46246,-0.35125 -0.43796,-0.25539 -0.84283,-0.47758 -1.21465,-0.66651 -0.37182,-0.18894 -0.69877,-0.39089 -0.98101,-0.60593 -0.28225,-0.21504 -0.50846,-0.46247 -0.67858,-0.74225 -0.17009,-0.2798 -0.26832,-0.6385 -0.29463,-1.07609 -0.0243,-0.40457 0.0368,-0.76452 0.18353,-1.07994 0.14676,-0.31542 0.35016,-0.58451 0.61021,-0.80731 0.26005,-0.2228 0.56439,-0.39862 0.91296,-0.52731 0.34856,-0.12874 0.71248,-0.20851 1.09179,-0.23961 0.11353,-0.007 0.22381,-0.01 0.33085,-0.008 z m -4.69097,0.25767 0.33373,5.54785 c 0.0328,0.54493 -0.009,1.04874 -0.12659,1.51153 -0.11717,0.46279 -0.3042,0.86558 -0.56117,1.20835 -0.25698,0.34276 -0.58656,0.61532 -0.98871,0.81767 -0.40214,0.20234 -0.87595,0.31584 -1.42136,0.34035 l -0.0124,10e-4 c -0.60222,0.0445 -1.11988,-0.0196 -1.55287,-0.1924 -0.433,-0.17282 -0.79191,-0.42265 -1.07673,-0.74941 -0.28482,-0.32675 -0.50042,-0.70944 -0.64696,-1.14809 -0.14655,-0.43864 -0.23446,-0.90154 -0.26376,-1.38867 l -0.33374,-5.54828 2.14257,-0.12884 0.32401,5.38729 c 0.0134,0.22292 0.0488,0.43209 0.10609,0.62752 0.0573,0.19542 0.14003,0.36446 0.24805,0.50711 0.10802,0.14266 0.23888,0.25289 0.39271,0.33064 0.15382,0.0778 0.33404,0.11038 0.54045,0.098 0.2064,-0.0124 0.38123,-0.0664 0.52463,-0.16206 0.1434,-0.0956 0.2582,-0.22064 0.34421,-0.37497 0.086,-0.15433 0.14566,-0.33187 0.17915,-0.53275 0.0335,-0.20089 0.0435,-0.41282 0.0301,-0.63575 L 445.85,270.83195 Z m -10.9845,0.67324 3.25412,9.05174 -2.36541,0.1423 -0.97578,-2.37748 -1.79579,0.108 -0.67143,2.47651 -2.36541,0.1423 2.14556,-9.3765 z m -6.99731,0.42091 0.55423,9.21412 -2.08061,0.1252 -0.21451,-3.56681 -2.46455,0.14828 0.21452,3.56671 -2.08061,0.1252 -0.55423,-9.21423 2.08061,-0.1251 0.21462,3.56671 2.46444,-0.14817 -0.21452,-3.56682 z m -7.6041,0.45733 -2.19983,4.75614 2.75406,4.45809 -2.32834,0.14005 -1.33494,-2.3559 -1.04287,2.49895 -2.32834,0.14005 2.19983,-4.75614 -2.75406,-4.45809 2.32824,-0.14005 1.33493,2.3559 1.04298,-2.49894 z m -8.32253,0.5006 0.12521,2.08061 -3.56682,0.21462 0.0894,1.4861 2.62554,-0.15789 0.1251,2.0806 -2.62554,0.15789 0.0894,1.48621 3.56682,-0.21451 0.12509,2.0806 -5.64741,0.33972 -0.55423,-9.21423 z"
       id="path36-6"
       inkscape:connector-curvature="0" />
    <flowRoot
       xml:space="preserve"
       id="flowRoot1684"
       style="font-style:normal;font-weight:normal;font-size:64.00000081px;line-height:0;font-family:'Blackout MidnightUmlauts';letter-spacing:0px;word-spacing:0px;fill:#000000;fill-opacity:1;stroke:none;-inkscape-font-specification:'Blackout MidnightUmlauts, Normal';font-stretch:normal;font-variant:normal;text-anchor:start;text-align:start;writing-mode:lr;font-variant-ligatures:normal;font-variant-caps:normal;font-variant-numeric:normal;font-feature-settings:normal;"
       transform="matrix(0.26458333,0,0,0.26458333,-11.339286,115.45282)"><flowRegion
         id="flowRegion1686"
         style="fill:#000000;fill-opacity:1;-inkscape-font-specification:'Blackout MidnightUmlauts, Normal';font-family:'Blackout MidnightUmlauts';font-weight:normal;font-style:normal;font-stretch:normal;font-variant:normal;font-size:64.00000081px;text-anchor:start;text-align:start;writing-mode:lr;font-variant-ligatures:normal;font-variant-caps:normal;font-variant-numeric:normal;font-feature-settings:normal;"><rect
           id="rect1688"
           width="954.28571"
           height="198.57143"
           x="90"
           y="412.85715"
           style="fill:#000000;fill-opacity:1;-inkscape-font-specification:'Blackout MidnightUmlauts, Normal';font-family:'Blackout MidnightUmlauts';font-weight:normal;font-style:normal;font-stretch:normal;font-variant:normal;font-size:64.00000081px;text-anchor:start;text-align:start;writing-mode:lr;font-variant-ligatures:normal;font-variant-caps:normal;font-variant-numeric:normal;font-feature-settings:normal;" /></flowRegion><flowPara
         id="flowPara1690"
         style="font-style:normal;font-variant:normal;font-weight:normal;font-stretch:normal;font-size:64.00000081px;font-family:'Blackout MidnightUmlauts';-inkscape-font-specification:'Blackout MidnightUmlauts, Normal';fill:#000000;fill-opacity:1;text-anchor:start;text-align:start;writing-mode:lr;font-variant-ligatures:normal;font-variant-caps:normal;font-variant-numeric:normal;font-feature-settings:normal;">$person</flowPara></flowRoot>    <flowRoot
       xml:space="preserve"
       id="flowRoot1684-6"
       style="font-style:normal;font-weight:normal;font-size:42.66666721px;line-height:0;font-family:'Blackout MidnightUmlauts';letter-spacing:0px;word-spacing:0px;fill:#000000;fill-opacity:1;stroke:none;-inkscape-font-specification:'Blackout MidnightUmlauts, Normal';font-stretch:normal;font-variant:normal;text-anchor:start;text-align:start;writing-mode:lr;font-variant-ligatures:normal;font-variant-caps:normal;font-variant-numeric:normal;font-feature-settings:normal;"
       transform="matrix(0.26458333,0,0,0.26458333,1.1351938,137.03075)"><flowRegion
         id="flowRegion1686-7"
         style="-inkscape-font-specification:'Blackout MidnightUmlauts, Normal';font-family:'Blackout MidnightUmlauts';font-weight:normal;font-style:normal;font-stretch:normal;font-variant:normal;font-size:42.66666721px;text-anchor:start;text-align:start;writing-mode:lr;font-variant-ligatures:normal;font-variant-caps:normal;font-variant-numeric:normal;font-feature-settings:normal;"><rect
           id="rect1688-5"
           width="954.28571"
           height="198.57143"
           x="90"
           y="412.85715"
           style="-inkscape-font-specification:'Blackout MidnightUmlauts, Normal';font-family:'Blackout MidnightUmlauts';font-weight:normal;font-style:normal;font-stretch:normal;font-variant:normal;font-size:42.66666721px;text-anchor:start;text-align:start;writing-mode:lr;font-variant-ligatures:normal;font-variant-caps:normal;font-variant-numeric:normal;font-feature-settings:normal;" /></flowRegion><flowPara
         id="flowPara1690-3"
         style="font-style:normal;font-variant:normal;font-weight:normal;font-stretch:normal;font-size:42.66666721px;font-family:'Blackout MidnightUmlauts';-inkscape-font-specification:'Blackout MidnightUmlauts, Normal';text-anchor:start;text-align:start;writing-mode:lr;font-variant-ligatures:normal;font-variant-caps:normal;font-variant-numeric:normal;font-feature-settings:normal;">$tagline</flowPara></flowRoot>  </g>
</svg>
