<?xml version="1.0" encoding="UTF-8" standalone="no"?>
<!-- Created with Inkscape (http://www.inkscape.org/) -->

<svg
   xmlns:dc="http://purl.org/dc/elements/1.1/"
   xmlns:cc="http://creativecommons.org/ns#"
   xmlns:rdf="http://www.w3.org/1999/02/22-rdf-syntax-ns#"
   xmlns:svg="http://www.w3.org/2000/svg"
   xmlns="http://www.w3.org/2000/svg"
   xmlns:sodipodi="http://sodipodi.sourceforge.net/DTD/sodipodi-0.dtd"
   xmlns:inkscape="http://www.inkscape.org/namespaces/inkscape"
   width="1920"
   height="1080"
   viewBox="0 0 507.99999 285.75001"
   version="1.1"
   id="svg8"
   inkscape:version="0.92.2 5c3e80d, 2017-08-06"
   sodipodi:docname="insert.svg">
  <defs
     id="defs2" />
  <sodipodi:namedview
     id="base"
     pagecolor="#ffffff"
     bordercolor="#666666"
     borderopacity="1.0"
     inkscape:pageopacity="0.0"
     inkscape:pageshadow="2"
     inkscape:zoom="0.35"
     inkscape:cx="1227.6385"
     inkscape:cy="455.17622"
     inkscape:document-units="mm"
     inkscape:current-layer="g963"
     showgrid="false"
     units="px"
     inkscape:snap-bbox="true"
     inkscape:bbox-paths="true"
     inkscape:snap-bbox-midpoints="true"
     inkscape:snap-bbox-edge-midpoints="true"
     inkscape:bbox-nodes="true"
     inkscape:snap-page="true"
     inkscape:window-width="1920"
     inkscape:window-height="1155"
     inkscape:window-x="0"
     inkscape:window-y="1"
     inkscape:window-maximized="1" />
  <metadata
     id="metadata5">
    <rdf:RDF>
      <cc:Work
         rdf:about="">
        <dc:format>image/svg+xml</dc:format>
        <dc:type
           rdf:resource="http://purl.org/dc/dcmitype/StillImage" />
        <dc:title />
      </cc:Work>
    </rdf:RDF>
  </metadata>
  <g
     inkscape:label="Layer 1"
     inkscape:groupmode="layer"
     id="layer1"
     transform="translate(0,-11.249983)">
    <path
       style="font-family:none;mix-blend-mode:normal;fill:none;fill-rule:nonzero;stroke:#00bb31;stroke-width:1.58749998;stroke-linecap:butt;stroke-linejoin:miter;stroke-miterlimit:10;stroke-dasharray:none;stroke-dashoffset:0"
       inkscape:connector-curvature="0"
       d=""
       id="path1524" />
    <path
       style="font-family:none;mix-blend-mode:normal;fill:none;fill-rule:nonzero;stroke:#00bb31;stroke-width:1.58749998;stroke-linecap:butt;stroke-linejoin:miter;stroke-miterlimit:10;stroke-dasharray:none;stroke-dashoffset:0"
       inkscape:connector-curvature="0"
       d=""
       id="path1530" />
    <path
       style="font-family:none;mix-blend-mode:normal;fill:none;fill-rule:nonzero;stroke:#00bb31;stroke-width:1.58749998;stroke-linecap:butt;stroke-linejoin:miter;stroke-miterlimit:10;stroke-dasharray:none;stroke-dashoffset:0"
       inkscape:connector-curvature="0"
       d=""
       id="path1536" />
    <path
       style="font-family:none;mix-blend-mode:normal;fill:none;fill-rule:nonzero;stroke:#00bb31;stroke-width:1.58749998;stroke-linecap:butt;stroke-linejoin:miter;stroke-miterlimit:10;stroke-dasharray:none;stroke-dashoffset:0"
       inkscape:connector-curvature="0"
       d=""
       id="path1542" />
    <path
       style="font-family:none;mix-blend-mode:normal;fill:none;fill-rule:nonzero;stroke:#00bb31;stroke-width:1.58749998;stroke-linecap:butt;stroke-linejoin:miter;stroke-miterlimit:10;stroke-dasharray:none;stroke-dashoffset:0"
       inkscape:connector-curvature="0"
       id="path32"
       d="" />
    <path
       style="font-family:none;mix-blend-mode:normal;fill:none;fill-rule:nonzero;stroke:#00bb31;stroke-width:1.58749998;stroke-linecap:butt;stroke-linejoin:miter;stroke-miterlimit:10;stroke-dasharray:none;stroke-dashoffset:0"
       inkscape:connector-curvature="0"
       id="path38"
       d="" />
    <path
       style="font-family:none;mix-blend-mode:normal;fill:none;fill-rule:nonzero;stroke:#00bb31;stroke-width:1.58749998;stroke-linecap:butt;stroke-linejoin:miter;stroke-miterlimit:10;stroke-dasharray:none;stroke-dashoffset:0"
       inkscape:connector-curvature="0"
       id="path44-3"
       d="" />
    <path
       style="font-family:none;mix-blend-mode:normal;fill:none;fill-rule:nonzero;stroke:#00bb31;stroke-width:1.58749998;stroke-linecap:butt;stroke-linejoin:miter;stroke-miterlimit:10;stroke-dasharray:none;stroke-dashoffset:0"
       inkscape:connector-curvature="0"
       id="path106"
       d="" />
    <path
       style="opacity:1;vector-effect:none;fill:#d0d0ce;fill-opacity:1;stroke:none;stroke-width:65.15294647;stroke-linecap:butt;stroke-linejoin:miter;stroke-miterlimit:4;stroke-dasharray:none;stroke-dashoffset:0;stroke-opacity:1"
       d="M 582.00195 753.33008 L 582.06445 753.45703 C 579.46062 753.62257 576.83496 753.9531 574.18555 754.46484 C 566.01708 756.04272 558.6991 759.04532 552.22852 763.47266 C 545.75789 767.89999 540.36018 773.31105 536.03516 779.70703 C 531.71005 786.10301 528.70601 793.17116 527.02344 800.91016 C 525.34094 808.64923 525.26957 816.51744 526.81445 824.51562 L 569.70117 816.23242 C 568.84651 811.80792 569.65357 807.76808 572.125 804.11328 C 574.59647 800.45844 578.04616 798.20232 582.4707 797.34766 C 586.04444 796.65733 589.39753 797.11368 592.53125 798.71484 C 595.66497 800.31608 598.05357 802.63383 599.69922 805.66992 C 600.4727 806.9327 601.02477 808.41546 601.35352 810.11719 C 602.20818 814.54177 601.46502 818.92228 599.125 823.25781 C 596.78502 827.59335 593.40306 830.1883 588.97852 831.04297 L 576.72656 833.41016 L 583.82617 870.16797 L 596.07812 867.80078 C 600.50274 866.94608 604.60816 868.09408 608.39453 871.24609 C 609.53992 872.19967 610.53499 873.21908 611.41211 874.28906 L 615.47852 887.35547 L 613.90039 892.74609 C 613.2539 894.06451 612.43362 895.31267 611.41602 896.48047 C 609.10408 899.13358 606.16155 900.8058 602.58789 901.49609 C 598.16331 902.35076 594.11468 901.50009 590.44336 898.94336 C 586.77208 896.38685 584.50904 892.89521 583.6543 888.4707 L 570.73438 890.9668 L 570.17188 892.26367 L 572.85156 897.59961 L 571.24219 905.10547 L 570.44727 909.9043 L 566.51367 914.93555 L 565.76367 920.23047 L 561.60938 926.37891 L 559.47266 930 C 561.54051 931.86788 563.73647 933.58922 566.0625 935.16211 C 572.45852 939.4871 579.48272 942.49829 587.13672 944.19727 C 590.85233 945.02188 594.62993 945.45336 598.4668 945.50586 L 598.41602 945.67969 L 1920 946.89844 L 1920 753.86133 L 582.00195 753.33008 z "
       transform="matrix(0.26458333,0,0,0.26458333,0,11.249983)"
       id="rect1667" />
    <path
       style="font-family:none;mix-blend-mode:normal;fill:none;fill-rule:nonzero;stroke:#00bb31;stroke-width:0.20063466;stroke-linecap:butt;stroke-linejoin:miter;stroke-miterlimit:10;stroke-dasharray:none;stroke-dashoffset:0"
       inkscape:connector-curvature="0"
       id="path44"
       d="" />
    <path
       style="font-family:none;mix-blend-mode:normal;fill:none;fill-rule:nonzero;stroke:#00bb31;stroke-width:0.20063466;stroke-linecap:butt;stroke-linejoin:miter;stroke-miterlimit:10;stroke-dasharray:none;stroke-dashoffset:0"
       inkscape:connector-curvature="0"
       id="path48"
       d="" />
    <path
       style="font-family:none;mix-blend-mode:normal;fill:none;fill-rule:nonzero;stroke:#00bb31;stroke-width:0.20063466;stroke-linecap:butt;stroke-linejoin:miter;stroke-miterlimit:10;stroke-dasharray:none;stroke-dashoffset:0"
       inkscape:connector-curvature="0"
       id="path52"
       d="" />
    <path
       style="font-family:none;mix-blend-mode:normal;fill:none;fill-rule:nonzero;stroke:#00bb31;stroke-width:0.20063466;stroke-linecap:butt;stroke-linejoin:miter;stroke-miterlimit:10;stroke-dasharray:none;stroke-dashoffset:0"
       inkscape:connector-curvature="0"
       id="path58"
       d="" />
    <path
       style="font-family:none;mix-blend-mode:normal;fill:none;fill-rule:nonzero;stroke:#00bb31;stroke-width:0.20063466;stroke-linecap:butt;stroke-linejoin:miter;stroke-miterlimit:10;stroke-dasharray:none;stroke-dashoffset:0"
       inkscape:connector-curvature="0"
       id="path62"
       d="" />
    <path
       style="font-family:none;mix-blend-mode:normal;fill:none;fill-rule:nonzero;stroke:#00bb31;stroke-width:0.20063466;stroke-linecap:butt;stroke-linejoin:miter;stroke-miterlimit:10;stroke-dasharray:none;stroke-dashoffset:0"
       inkscape:connector-curvature="0"
       id="path68"
       d="" />
    <path
       style="font-family:none;mix-blend-mode:normal;fill:none;fill-rule:nonzero;stroke:#00bb31;stroke-width:0.20063466;stroke-linecap:butt;stroke-linejoin:miter;stroke-miterlimit:10;stroke-dasharray:none;stroke-dashoffset:0"
       inkscape:connector-curvature="0"
       d=""
       id="path1742" />
    <path
       style="font-family:none;mix-blend-mode:normal;fill:none;fill-rule:nonzero;stroke:#00bb31;stroke-width:0.20063466;stroke-linecap:butt;stroke-linejoin:miter;stroke-miterlimit:10;stroke-dasharray:none;stroke-dashoffset:0"
       inkscape:connector-curvature="0"
       d=""
       id="path1746" />
    <path
       style="font-family:none;mix-blend-mode:normal;fill:none;fill-rule:nonzero;stroke:#00bb31;stroke-width:0.20063466;stroke-linecap:butt;stroke-linejoin:miter;stroke-miterlimit:10;stroke-dasharray:none;stroke-dashoffset:0"
       inkscape:connector-curvature="0"
       d=""
       id="path1750" />
    <path
       style="font-family:none;mix-blend-mode:normal;fill:none;fill-rule:nonzero;stroke:#00bb31;stroke-width:0.20063466;stroke-linecap:butt;stroke-linejoin:miter;stroke-miterlimit:10;stroke-dasharray:none;stroke-dashoffset:0"
       inkscape:connector-curvature="0"
       d=""
       id="path1754" />
    <path
       style="font-family:none;mix-blend-mode:normal;fill:none;fill-rule:nonzero;stroke:#00bb31;stroke-width:0.20063466;stroke-linecap:butt;stroke-linejoin:miter;stroke-miterlimit:10;stroke-dasharray:none;stroke-dashoffset:0"
       inkscape:connector-curvature="0"
       d=""
       id="path1758" />
    <path
       style="font-family:none;mix-blend-mode:normal;fill:none;fill-rule:nonzero;stroke:#00bb31;stroke-width:0.20063466;stroke-linecap:butt;stroke-linejoin:miter;stroke-miterlimit:10;stroke-dasharray:none;stroke-dashoffset:0"
       inkscape:connector-curvature="0"
       d=""
       id="path1762" />
    <path
       style="font-family:none;mix-blend-mode:normal;fill:none;fill-rule:nonzero;stroke:#00bb31;stroke-width:0.20063466;stroke-linecap:butt;stroke-linejoin:miter;stroke-miterlimit:10;stroke-dasharray:none;stroke-dashoffset:0"
       inkscape:connector-curvature="0"
       d=""
       id="path1766" />
    <path
       style="font-family:none;mix-blend-mode:normal;fill:none;fill-rule:nonzero;stroke:#00bb31;stroke-width:0.20063466;stroke-linecap:butt;stroke-linejoin:miter;stroke-miterlimit:10;stroke-dasharray:none;stroke-dashoffset:0"
       inkscape:connector-curvature="0"
       d=""
       id="path1770" />
    <path
       style="font-family:none;mix-blend-mode:normal;fill:none;fill-rule:nonzero;stroke:#00bb31;stroke-width:0.20063466;stroke-linecap:butt;stroke-linejoin:miter;stroke-miterlimit:10;stroke-dasharray:none;stroke-dashoffset:0"
       inkscape:connector-curvature="0"
       d=""
       id="path1774" />
    <path
       style="font-family:none;mix-blend-mode:normal;fill:none;fill-rule:nonzero;stroke:#00bb31;stroke-width:0.20063466;stroke-linecap:butt;stroke-linejoin:miter;stroke-miterlimit:10;stroke-dasharray:none;stroke-dashoffset:0"
       inkscape:connector-curvature="0"
       d=""
       id="path1778" />
    <path
       style="font-family:none;mix-blend-mode:normal;fill:none;fill-rule:nonzero;stroke:#00bb31;stroke-width:0.20063466;stroke-linecap:butt;stroke-linejoin:miter;stroke-miterlimit:10;stroke-dasharray:none;stroke-dashoffset:0"
       inkscape:connector-curvature="0"
       d=""
       id="path1782" />
    <path
       style="font-family:none;mix-blend-mode:normal;fill:none;fill-rule:nonzero;stroke:#00bb31;stroke-width:0.20063466;stroke-linecap:butt;stroke-linejoin:miter;stroke-miterlimit:10;stroke-dasharray:none;stroke-dashoffset:0"
       inkscape:connector-curvature="0"
       d=""
       id="path1786" />
    <path
       style="font-family:none;mix-blend-mode:normal;fill:none;fill-rule:nonzero;stroke:#00bb31;stroke-width:0.20063466;stroke-linecap:butt;stroke-linejoin:miter;stroke-miterlimit:10;stroke-dasharray:none;stroke-dashoffset:0"
       inkscape:connector-curvature="0"
       d=""
       id="path1790" />
    <path
       style="font-family:none;mix-blend-mode:normal;fill:none;fill-rule:nonzero;stroke:#00bb31;stroke-width:0.20063466;stroke-linecap:butt;stroke-linejoin:miter;stroke-miterlimit:10;stroke-dasharray:none;stroke-dashoffset:0"
       inkscape:connector-curvature="0"
       d=""
       id="path1794" />
    <path
       style="font-family:none;mix-blend-mode:normal;fill:none;fill-rule:nonzero;stroke:#00bb31;stroke-width:0.20063466;stroke-linecap:butt;stroke-linejoin:miter;stroke-miterlimit:10;stroke-dasharray:none;stroke-dashoffset:0"
       inkscape:connector-curvature="0"
       d=""
       id="path1800" />
    <path
       style="font-family:none;mix-blend-mode:normal;fill:none;fill-rule:nonzero;stroke:#00bb31;stroke-width:0.20063466;stroke-linecap:butt;stroke-linejoin:miter;stroke-miterlimit:10;stroke-dasharray:none;stroke-dashoffset:0"
       inkscape:connector-curvature="0"
       d=""
       id="path2233" />
    <path
       style="font-family:none;mix-blend-mode:normal;fill:none;fill-rule:nonzero;stroke:#00bb31;stroke-width:0.20063466;stroke-linecap:butt;stroke-linejoin:miter;stroke-miterlimit:10;stroke-dasharray:none;stroke-dashoffset:0"
       inkscape:connector-curvature="0"
       d=""
       id="path2237" />
    <path
       style="font-family:none;mix-blend-mode:normal;fill:none;fill-rule:nonzero;stroke:#00bb31;stroke-width:0.20063466;stroke-linecap:butt;stroke-linejoin:miter;stroke-miterlimit:10;stroke-dasharray:none;stroke-dashoffset:0"
       inkscape:connector-curvature="0"
       d=""
       id="path2241" />
    <path
       style="font-family:none;mix-blend-mode:normal;fill:none;fill-rule:nonzero;stroke:#00bb31;stroke-width:0.20063466;stroke-linecap:butt;stroke-linejoin:miter;stroke-miterlimit:10;stroke-dasharray:none;stroke-dashoffset:0"
       inkscape:connector-curvature="0"
       d=""
       id="path2245" />
    <path
       style="font-family:none;mix-blend-mode:normal;fill:none;fill-rule:nonzero;stroke:#00bb31;stroke-width:0.20063466;stroke-linecap:butt;stroke-linejoin:miter;stroke-miterlimit:10;stroke-dasharray:none;stroke-dashoffset:0"
       inkscape:connector-curvature="0"
       d=""
       id="path2249" />
    <path
       style="font-family:none;mix-blend-mode:normal;fill:none;fill-rule:nonzero;stroke:#00bb31;stroke-width:0.20063466;stroke-linecap:butt;stroke-linejoin:miter;stroke-miterlimit:10;stroke-dasharray:none;stroke-dashoffset:0"
       inkscape:connector-curvature="0"
       d=""
       id="path2253" />
    <path
       style="font-family:none;mix-blend-mode:normal;fill:none;fill-rule:nonzero;stroke:#00bb31;stroke-width:0.20063466;stroke-linecap:butt;stroke-linejoin:miter;stroke-miterlimit:10;stroke-dasharray:none;stroke-dashoffset:0"
       inkscape:connector-curvature="0"
       d=""
       id="path2257" />
    <path
       style="font-family:none;mix-blend-mode:normal;fill:none;fill-rule:nonzero;stroke:#00bb31;stroke-width:0.20063466;stroke-linecap:butt;stroke-linejoin:miter;stroke-miterlimit:10;stroke-dasharray:none;stroke-dashoffset:0"
       inkscape:connector-curvature="0"
       d=""
       id="path2261" />
    <path
       style="font-family:none;mix-blend-mode:normal;fill:none;fill-rule:nonzero;stroke:#00bb31;stroke-width:0.20063466;stroke-linecap:butt;stroke-linejoin:miter;stroke-miterlimit:10;stroke-dasharray:none;stroke-dashoffset:0"
       inkscape:connector-curvature="0"
       d=""
       id="path2265" />
    <path
       style="font-family:none;mix-blend-mode:normal;fill:none;fill-rule:nonzero;stroke:#00bb31;stroke-width:0.20063466;stroke-linecap:butt;stroke-linejoin:miter;stroke-miterlimit:10;stroke-dasharray:none;stroke-dashoffset:0"
       inkscape:connector-curvature="0"
       d=""
       id="path2269" />
    <path
       style="font-family:none;mix-blend-mode:normal;fill:none;fill-rule:nonzero;stroke:#00bb31;stroke-width:0.20063466;stroke-linecap:butt;stroke-linejoin:miter;stroke-miterlimit:10;stroke-dasharray:none;stroke-dashoffset:0"
       inkscape:connector-curvature="0"
       d=""
       id="path2273" />
    <path
       style="font-family:none;mix-blend-mode:normal;fill:none;fill-rule:nonzero;stroke:#00bb31;stroke-width:0.20063466;stroke-linecap:butt;stroke-linejoin:miter;stroke-miterlimit:10;stroke-dasharray:none;stroke-dashoffset:0"
       inkscape:connector-curvature="0"
       d=""
       id="path2277" />
    <path
       style="font-family:none;mix-blend-mode:normal;fill:none;fill-rule:nonzero;stroke:#00bb31;stroke-width:0.20063466;stroke-linecap:butt;stroke-linejoin:miter;stroke-miterlimit:10;stroke-dasharray:none;stroke-dashoffset:0"
       inkscape:connector-curvature="0"
       d=""
       id="path2281" />
    <path
       style="font-family:none;mix-blend-mode:normal;fill:none;fill-rule:nonzero;stroke:#00bb31;stroke-width:0.20063466;stroke-linecap:butt;stroke-linejoin:miter;stroke-miterlimit:10;stroke-dasharray:none;stroke-dashoffset:0"
       inkscape:connector-curvature="0"
       d=""
       id="path2285" />
    <path
       style="font-family:none;mix-blend-mode:normal;fill:none;fill-rule:nonzero;stroke:#00bb31;stroke-width:0.20063466;stroke-linecap:butt;stroke-linejoin:miter;stroke-miterlimit:10;stroke-dasharray:none;stroke-dashoffset:0"
       inkscape:connector-curvature="0"
       d=""
       id="path2291" />
    <path
       style="font-family:none;mix-blend-mode:normal;fill:none;fill-rule:nonzero;stroke:#00bb31;stroke-width:0.20063466;stroke-linecap:butt;stroke-linejoin:miter;stroke-miterlimit:10;stroke-dasharray:none;stroke-dashoffset:0"
       inkscape:connector-curvature="0"
       d=""
       id="path3260" />
    <path
       style="font-family:none;mix-blend-mode:normal;fill:none;fill-rule:nonzero;stroke:#00bb31;stroke-width:0.20063466;stroke-linecap:butt;stroke-linejoin:miter;stroke-miterlimit:10;stroke-dasharray:none;stroke-dashoffset:0"
       inkscape:connector-curvature="0"
       d=""
       id="path3266" />
    <path
       style="font-family:none;mix-blend-mode:normal;fill:none;fill-rule:nonzero;stroke:#00bb31;stroke-width:0.20063466;stroke-linecap:butt;stroke-linejoin:miter;stroke-miterlimit:10;stroke-dasharray:none;stroke-dashoffset:0"
       inkscape:connector-curvature="0"
       d=""
       id="path3314" />
    <path
       style="font-family:none;mix-blend-mode:normal;fill:none;fill-rule:nonzero;stroke:#00bb31;stroke-width:0.20063466;stroke-linecap:butt;stroke-linejoin:miter;stroke-miterlimit:10;stroke-dasharray:none;stroke-dashoffset:0"
       inkscape:connector-curvature="0"
       d=""
       id="path3320" />
    <path
       style="font-family:none;mix-blend-mode:normal;fill:none;fill-rule:nonzero;stroke:#00bb31;stroke-width:0.20063466;stroke-linecap:butt;stroke-linejoin:miter;stroke-miterlimit:10;stroke-dasharray:none;stroke-dashoffset:0"
       inkscape:connector-curvature="0"
       d=""
       id="path3340" />
    <path
       style="font-family:none;mix-blend-mode:normal;fill:none;fill-rule:nonzero;stroke:#00bb31;stroke-width:0.20063466;stroke-linecap:butt;stroke-linejoin:miter;stroke-miterlimit:10;stroke-dasharray:none;stroke-dashoffset:0"
       inkscape:connector-curvature="0"
       d=""
       id="path7713" />
    <path
       style="font-family:none;mix-blend-mode:normal;fill:none;fill-rule:nonzero;stroke:#00bb31;stroke-width:0.20063466;stroke-linecap:butt;stroke-linejoin:miter;stroke-miterlimit:10;stroke-dasharray:none;stroke-dashoffset:0"
       inkscape:connector-curvature="0"
       d=""
       id="path7719" />
    <path
       style="font-family:none;mix-blend-mode:normal;fill:none;fill-rule:nonzero;stroke:#00bb31;stroke-width:0.20063466;stroke-linecap:butt;stroke-linejoin:miter;stroke-miterlimit:10;stroke-dasharray:none;stroke-dashoffset:0"
       inkscape:connector-curvature="0"
       d=""
       id="path7725" />
    <path
       style="font-family:none;mix-blend-mode:normal;fill:none;fill-rule:nonzero;stroke:#00bb31;stroke-width:0.20063466;stroke-linecap:butt;stroke-linejoin:miter;stroke-miterlimit:10;stroke-dasharray:none;stroke-dashoffset:0"
       inkscape:connector-curvature="0"
       d=""
       id="path7773" />
    <path
       style="font-family:none;mix-blend-mode:normal;fill:none;fill-rule:nonzero;stroke:#00bb31;stroke-width:0.20063466;stroke-linecap:butt;stroke-linejoin:miter;stroke-miterlimit:10;stroke-dasharray:none;stroke-dashoffset:0"
       inkscape:connector-curvature="0"
       d=""
       id="path8214" />
    <path
       style="font-family:none;mix-blend-mode:normal;fill:none;fill-rule:nonzero;stroke:#00bb31;stroke-width:0.20063466;stroke-linecap:butt;stroke-linejoin:miter;stroke-miterlimit:10;stroke-dasharray:none;stroke-dashoffset:0"
       inkscape:connector-curvature="0"
       d=""
       id="path8218" />
    <path
       style="font-family:none;mix-blend-mode:normal;fill:none;fill-rule:nonzero;stroke:#00bb31;stroke-width:0.20063466;stroke-linecap:butt;stroke-linejoin:miter;stroke-miterlimit:10;stroke-dasharray:none;stroke-dashoffset:0"
       inkscape:connector-curvature="0"
       d=""
       id="path8222" />
    <path
       style="font-family:none;mix-blend-mode:normal;fill:none;fill-rule:nonzero;stroke:#00bb31;stroke-width:0.20063466;stroke-linecap:butt;stroke-linejoin:miter;stroke-miterlimit:10;stroke-dasharray:none;stroke-dashoffset:0"
       inkscape:connector-curvature="0"
       d=""
       id="path8226" />
    <path
       style="font-family:none;mix-blend-mode:normal;fill:none;fill-rule:nonzero;stroke:#00bb31;stroke-width:0.20063466;stroke-linecap:butt;stroke-linejoin:miter;stroke-miterlimit:10;stroke-dasharray:none;stroke-dashoffset:0"
       inkscape:connector-curvature="0"
       d=""
       id="path8230" />
    <path
       style="font-family:none;mix-blend-mode:normal;fill:none;fill-rule:nonzero;stroke:#00bb31;stroke-width:0.20063466;stroke-linecap:butt;stroke-linejoin:miter;stroke-miterlimit:10;stroke-dasharray:none;stroke-dashoffset:0"
       inkscape:connector-curvature="0"
       d=""
       id="path8234" />
    <path
       style="font-family:none;mix-blend-mode:normal;fill:none;fill-rule:nonzero;stroke:#00bb31;stroke-width:0.20063466;stroke-linecap:butt;stroke-linejoin:miter;stroke-miterlimit:10;stroke-dasharray:none;stroke-dashoffset:0"
       inkscape:connector-curvature="0"
       d=""
       id="path8238" />
    <path
       style="font-family:none;mix-blend-mode:normal;fill:none;fill-rule:nonzero;stroke:#00bb31;stroke-width:0.20063466;stroke-linecap:butt;stroke-linejoin:miter;stroke-miterlimit:10;stroke-dasharray:none;stroke-dashoffset:0"
       inkscape:connector-curvature="0"
       d=""
       id="path8242" />
    <path
       style="font-family:none;mix-blend-mode:normal;fill:none;fill-rule:nonzero;stroke:#00bb31;stroke-width:0.20063466;stroke-linecap:butt;stroke-linejoin:miter;stroke-miterlimit:10;stroke-dasharray:none;stroke-dashoffset:0"
       inkscape:connector-curvature="0"
       d=""
       id="path8246" />
    <path
       style="font-family:none;mix-blend-mode:normal;fill:none;fill-rule:nonzero;stroke:#00bb31;stroke-width:0.20063466;stroke-linecap:butt;stroke-linejoin:miter;stroke-miterlimit:10;stroke-dasharray:none;stroke-dashoffset:0"
       inkscape:connector-curvature="0"
       d=""
       id="path8250" />
    <path
       style="font-family:none;mix-blend-mode:normal;fill:none;fill-rule:nonzero;stroke:#00bb31;stroke-width:0.20063466;stroke-linecap:butt;stroke-linejoin:miter;stroke-miterlimit:10;stroke-dasharray:none;stroke-dashoffset:0"
       inkscape:connector-curvature="0"
       d=""
       id="path8254" />
    <path
       style="font-family:none;mix-blend-mode:normal;fill:none;fill-rule:nonzero;stroke:#00bb31;stroke-width:0.20063466;stroke-linecap:butt;stroke-linejoin:miter;stroke-miterlimit:10;stroke-dasharray:none;stroke-dashoffset:0"
       inkscape:connector-curvature="0"
       d=""
       id="path8258" />
    <path
       style="font-family:none;mix-blend-mode:normal;fill:none;fill-rule:nonzero;stroke:#00bb31;stroke-width:0.20063466;stroke-linecap:butt;stroke-linejoin:miter;stroke-miterlimit:10;stroke-dasharray:none;stroke-dashoffset:0"
       inkscape:connector-curvature="0"
       d=""
       id="path8262" />
    <path
       style="font-family:none;mix-blend-mode:normal;fill:none;fill-rule:nonzero;stroke:#00bb31;stroke-width:0.20063466;stroke-linecap:butt;stroke-linejoin:miter;stroke-miterlimit:10;stroke-dasharray:none;stroke-dashoffset:0"
       inkscape:connector-curvature="0"
       d=""
       id="path8266" />
    <path
       style="font-family:none;mix-blend-mode:normal;fill:none;fill-rule:nonzero;stroke:#00bb31;stroke-width:0.20063466;stroke-linecap:butt;stroke-linejoin:miter;stroke-miterlimit:10;stroke-dasharray:none;stroke-dashoffset:0"
       inkscape:connector-curvature="0"
       d=""
       id="path8272" />
    <g
       id="g963"
       transform="translate(21.695841,-9.9650855)">
      <flowRoot
         transform="matrix(0.26458333,0,0,0.26458333,146.75512,125.418)"
         style="font-style:normal;font-variant:normal;font-weight:normal;font-stretch:normal;font-size:64px;line-height:0;font-family:'Blackout MidnightUmlauts';-inkscape-font-specification:'Blackout MidnightUmlauts, Normal';font-variant-ligatures:normal;font-variant-caps:normal;font-variant-numeric:normal;font-feature-settings:normal;text-align:start;letter-spacing:0px;word-spacing:0px;writing-mode:lr-tb;text-anchor:start;fill:#000000;fill-opacity:1;stroke:none"
         id="flowRoot1684"
         xml:space="preserve"><flowRegion
           style="font-style:normal;font-variant:normal;font-weight:normal;font-stretch:normal;font-size:64px;font-family:'Blackout MidnightUmlauts';-inkscape-font-specification:'Blackout MidnightUmlauts, Normal';font-variant-ligatures:normal;font-variant-caps:normal;font-variant-numeric:normal;font-feature-settings:normal;text-align:start;writing-mode:lr-tb;text-anchor:start;fill:#000000;fill-opacity:1"
           id="flowRegion1686"><rect
             style="font-style:normal;font-variant:normal;font-weight:normal;font-stretch:normal;font-size:64px;font-family:'Blackout MidnightUmlauts';-inkscape-font-specification:'Blackout MidnightUmlauts, Normal';font-variant-ligatures:normal;font-variant-caps:normal;font-variant-numeric:normal;font-feature-settings:normal;text-align:start;writing-mode:lr-tb;text-anchor:start;fill:#000000;fill-opacity:1"
             y="412.85715"
             x="90"
             height="198.57143"
             width="954.28571"
             id="rect1688" /></flowRegion><flowPara
           style="font-style:normal;font-variant:normal;font-weight:normal;font-stretch:normal;font-size:64px;font-family:'Blackout MidnightUmlauts';-inkscape-font-specification:'Blackout MidnightUmlauts, Normal';font-variant-ligatures:normal;font-variant-caps:normal;font-variant-numeric:normal;font-feature-settings:normal;text-align:start;writing-mode:lr-tb;text-anchor:start;fill:#000000;fill-opacity:1"
           id="flowPara1690">$person</flowPara></flowRoot>      <flowRoot
         transform="matrix(0.26458333,0,0,0.26458333,159.2296,146.99593)"
         style="font-style:normal;font-variant:normal;font-weight:normal;font-stretch:normal;font-size:42.66666794px;line-height:0;font-family:'Blackout MidnightUmlauts';-inkscape-font-specification:'Blackout MidnightUmlauts, Normal';font-variant-ligatures:normal;font-variant-caps:normal;font-variant-numeric:normal;font-feature-settings:normal;text-align:start;letter-spacing:0px;word-spacing:0px;writing-mode:lr-tb;text-anchor:start;fill:#000000;fill-opacity:1;stroke:none"
         id="flowRoot1684-6"
         xml:space="preserve"><flowRegion
           id="flowRegion1686-7"
           style="font-style:normal;font-variant:normal;font-weight:normal;font-stretch:normal;font-size:42.66666794px;font-family:'Blackout MidnightUmlauts';-inkscape-font-specification:'Blackout MidnightUmlauts, Normal';font-variant-ligatures:normal;font-variant-caps:normal;font-variant-numeric:normal;font-feature-settings:normal;text-align:start;writing-mode:lr-tb;text-anchor:start"><rect
             y="412.85715"
             x="90"
             height="198.57143"
             width="954.28571"
             id="rect1688-5"
             style="font-style:normal;font-variant:normal;font-weight:normal;font-stretch:normal;font-size:42.66666794px;font-family:'Blackout MidnightUmlauts';-inkscape-font-specification:'Blackout MidnightUmlauts, Normal';font-variant-ligatures:normal;font-variant-caps:normal;font-variant-numeric:normal;font-feature-settings:normal;text-align:start;writing-mode:lr-tb;text-anchor:start" /></flowRegion><flowPara
           style="font-style:normal;font-variant:normal;font-weight:normal;font-stretch:normal;font-size:42.66666794px;font-family:'Blackout MidnightUmlauts';-inkscape-font-specification:'Blackout MidnightUmlauts, Normal';font-variant-ligatures:normal;font-variant-caps:normal;font-variant-numeric:normal;font-feature-settings:normal;text-align:start;writing-mode:lr-tb;text-anchor:start"
           id="flowPara1690-3">$tagline</flowPara></flowRoot>    </g>
    <path
       style="font-family:none;mix-blend-mode:normal;fill:#d0d0ce;fill-opacity:1;fill-rule:nonzero;stroke:none;stroke-width:0.13695204;stroke-linecap:butt;stroke-linejoin:miter;stroke-miterlimit:10;stroke-dasharray:none;stroke-dashoffset:0"
       inkscape:connector-curvature="0"
       id="path6"
       d="m 11.657532,251.90843 c 2.143438,0.0956 4.154549,0.59665 6.033327,1.50302 1.878791,0.90636 3.504399,2.10988 4.876863,3.61056 0.867044,0.94805 1.607181,1.98162 2.220388,3.10072 l -0.598087,-0.29506 -1.922251,1.33585 -1.618518,0.009 -1.361674,-0.24689 -1.366551,-0.0985 -1.239434,-0.23458 -1.249994,-0.50918 -1.486661,1.13278 -1.392511,-1.0803 -1.108674,0.53894 -0.17774,0.007 z" />
    <path
       style="font-family:none;mix-blend-mode:normal;fill:#d0d0ce;fill-opacity:1;fill-rule:nonzero;stroke:none;stroke-width:0.13695204;stroke-linecap:butt;stroke-linejoin:miter;stroke-miterlimit:10;stroke-dasharray:none;stroke-dashoffset:0"
       inkscape:connector-curvature="0"
       id="path12-3"
       d="m 97.654806,218.59301 c 1.589285,1.44142 2.815654,3.06214 3.679124,4.86215 0.86346,1.80002 1.3416,3.65115 1.43441,5.55341 0.0928,1.90225 -0.20286,3.79113 -0.887,5.66665 -0.68414,1.87553 -1.76225,3.62484 -3.234344,5.24794 l -8.014054,-7.26845 c 0.797382,-0.87918 1.175426,-1.90757 1.134132,-3.08517 -0.04129,-1.1776 -0.501531,-2.1651 -1.380711,-2.96248 -0.879179,-0.79738 -1.906783,-1.1593 -3.082814,-1.08577 -0.239512,0.015 -0.471172,0.0467 -0.694979,0.0951 l -0.132595,-0.48537 0.495145,-1.2128 0.990407,-1.43212 1.458841,-0.95536 0.813752,-1.60585 1.293626,-1.45515 0.645463,-2.0817 0.845542,-0.80466 c 1.631497,0.683 3.17685,1.68622 4.636057,3.00967 z" />
    <path
       style="font-family:none;mix-blend-mode:normal;fill:#d0d0ce;fill-opacity:1;fill-rule:nonzero;stroke:none;stroke-width:0.13695204;stroke-linecap:butt;stroke-linejoin:miter;stroke-miterlimit:10;stroke-dasharray:none;stroke-dashoffset:0"
       inkscape:connector-curvature="0"
       id="path18-6"
       d="m 109.63384,257.34007 -5.01791,-9.27493 c -1.15459,-2.23004 -1.96164,-4.60917 -2.42115,-7.13741 -0.4595,-2.52823 -0.45282,-5.01023 0.02,-7.44601 0.47288,-2.43578 1.47629,-4.73037 3.01024,-6.8838 0.17693,-0.24838 0.36209,-0.4924 0.55546,-0.73208 l 0.44406,0.43971 0.44779,1.70499 1.49835,1.31244 0.70701,1.37081 0.61271,1.09039 1.23413,1.56956 -0.12685,1.4189 0.28064,1.06987 1.38051,1.41463 0.15986,1.4086 0.87137,1.05608 0.44298,1.76742 -0.48396,1.66626 0.33429,1.89922 0.17325,1.22778 0.47483,1.89607 0.65129,1.63948 0.1698,1.83419 -1.17481,2.05375 0.89839,1.93167 -0.73681,1.76162 0.15209,1.54949 -1.14778,1.14571 -0.69496,1.11003 c -0.97519,-1.20745 -1.88015,-2.49559 -2.71488,-3.86444 z" />
    <path
       style="font-family:none;mix-blend-mode:normal;fill:#d0d0ce;fill-opacity:1;fill-rule:nonzero;stroke:none;stroke-width:0.13695204;stroke-linecap:butt;stroke-linejoin:miter;stroke-miterlimit:10;stroke-dasharray:none;stroke-dashoffset:0"
       inkscape:connector-curvature="0"
       id="path24"
       d="m 146.56811,261.59079 c -2.08452,0.0783 -4.1493,-0.27605 -6.19434,-1.06301 l 2.88685,-7.50188 0.21132,0.30688 1.56574,0.14573 1.45261,1.40677 0.9611,0.84642 0.57553,1.58078 1.07837,0.90624 0.7939,1.78581 0.51097,0.9829 c -1.23494,0.35242 -2.51562,0.55354 -3.84205,0.60336 z" />
    <path
       style="font-family:none;mix-blend-mode:normal;fill:none;fill-rule:nonzero;stroke:#00bb31;stroke-width:0.82171226;stroke-linecap:butt;stroke-linejoin:miter;stroke-miterlimit:10;stroke-dasharray:none;stroke-dashoffset:0"
       inkscape:connector-curvature="0"
       id="path32-5"
       d="" />
    <path
       style="font-family:none;mix-blend-mode:normal;fill:#d0d0ce;fill-opacity:1;fill-rule:nonzero;stroke:none;stroke-width:0.13695204;stroke-linecap:butt;stroke-linejoin:miter;stroke-miterlimit:10;stroke-dasharray:none;stroke-dashoffset:0"
       inkscape:connector-curvature="0"
       id="path34-3"
       d="m 131.72275,247.80443 c 1.64534,-1.07932 2.64034,-2.46698 2.98503,-4.16297 0.34467,-1.696 0.30591,-3.38714 -0.1163,-5.07341 l 11.26072,-1.59595 c 0.17043,0.90276 0.34277,2.09082 0.51703,3.5642 0.17425,1.47338 0.0894,3.11513 -0.25447,4.92525 -0.34392,1.81012 -1.09123,3.71198 -2.24195,5.70557 -1.15071,1.99359 -2.96148,3.92999 -5.4323,5.8092 l -0.0545,0.0414 c -2.7615,2.1003 -5.40954,3.42603 -7.94407,3.9772 -2.53455,0.55118 -4.9519,0.54005 -7.25205,-0.0334 -2.30015,-0.57344 -4.46199,-1.62486 -6.48554,-3.15428 -0.79986,-0.60455 -1.57538,-1.24778 -2.32655,-1.92969 l 0.5161,-1.20365 0.95804,-1.30851 -0.38842,-1.50771 0.4573,-1.85393 -1.1846,-1.77064 0.84517,-2.2099 -0.4497,-1.78631 -0.89552,-1.51989 -0.7606,-1.80057 -0.35992,-1.18656 -0.62221,-1.82528 0.22211,-1.72084 -0.70938,-1.67833 -1.02332,-0.90962 -0.37447,-1.36728 -1.58152,-1.18565 -0.44175,-1.01402 -0.0927,-1.42154 -1.46071,-1.36123 -0.77302,-0.98326 -0.90929,-1.24586 -1.68227,-1.06656 -0.70453,-1.6159 -0.50636,-0.36623 c 1.18304,-2.04437 2.88354,-3.91001 5.10152,-5.59692 l 0.0545,-0.0414 c 2.21648,-1.68576 4.359,-2.82778 6.42758,-3.42603 2.06858,-0.59826 4.04823,-0.84212 5.93897,-0.73158 1.46715,0.0858 2.86126,0.34797 4.18235,0.78658 l 0.061,0.99641 -0.0275,1.28361 0.10759,1.42243 -0.3107,1.96457 -0.29949,1.14294 0.78855,1.70564 0.51147,1.20532 -0.006,-0.99319 -0.53602,-1.59959 0.55203,-1.03688 0.56325,-1.85851 0.14495,-1.31636 0.28001,-1.17756 0.0902,-0.96515 c 1.33762,0.6151 2.56701,1.31251 3.68818,2.09222 l -4.54528,10.42548 c -0.71546,-0.48823 -1.52649,-0.93244 -2.43309,-1.33265 -0.9066,-0.4002 -1.83969,-0.66555 -2.79925,-0.79605 -0.95957,-0.1305 -1.9089,-0.0967 -2.848,0.10133 -0.9391,0.19806 -1.77636,0.60542 -2.51177,1.2221 -1.74258,1.55475 -2.66364,3.41669 -2.76318,5.58582 -0.0995,2.16912 0.61068,4.25291 2.13063,6.25136 l 6.01075,7.90297 c 1.51996,1.99845 3.36131,3.25061 5.52405,3.75649 2.16275,0.50588 4.22594,0.12679 6.18961,-1.13728 z" />
    <path
       style="font-family:none;mix-blend-mode:normal;fill:#aa0000;fill-rule:nonzero;stroke:none;stroke-width:0.13695204;stroke-linecap:butt;stroke-linejoin:miter;stroke-miterlimit:10;stroke-dasharray:none;stroke-dashoffset:0"
       inkscape:connector-curvature="0"
       id="path36-5"
       d="m 124.16111,212.95895 1.91901,0.77368" />
    <path
       style="font-family:none;mix-blend-mode:normal;fill:none;fill-rule:nonzero;stroke:#00bb31;stroke-width:0.82171226;stroke-linecap:butt;stroke-linejoin:miter;stroke-miterlimit:10;stroke-dasharray:none;stroke-dashoffset:0"
       inkscape:connector-curvature="0"
       id="path38-6"
       d="" />
    <path
       style="font-family:none;mix-blend-mode:normal;fill:#d0d0ce;fill-opacity:1;fill-rule:nonzero;stroke:none;stroke-width:0.13695204;stroke-linecap:butt;stroke-linejoin:miter;stroke-miterlimit:10;stroke-dasharray:none;stroke-dashoffset:0"
       inkscape:connector-curvature="0"
       id="path40"
       d="m 45.77134,257.42897 c -1.321401,1.1239 -2.668975,1.97042 -4.042726,2.53954 -1.542411,0.65266 -3.145772,1.05751 -4.810093,1.21455 -1.664311,0.15704 -3.299132,0.0493 -4.904483,-0.32326 -1.605341,-0.37255 -3.134242,-0.98991 -4.586683,-1.85208 -1.452454,-0.86217 -2.755415,-1.97135 -3.908889,-3.32753 -1.419661,-1.66915 -2.430225,-3.49146 -3.031712,-5.46696 -0.601487,-1.97549 -0.820377,-3.97675 -0.656647,-6.00378 0.10501,-1.30021 0.367277,-2.56773 0.786807,-3.80256 l 2.149378,0.53535 1.666738,-0.52421 1.336214,-0.21186 -1.142494,-0.30055 -1.569891,0.268 -2.052988,-0.79051 c 0.14229,-0.34138 0.296957,-0.68018 0.463997,-1.01642 0.928124,-1.86813 2.226758,-3.51204 3.895899,-4.9317 l 7.453198,8.76302 c -0.904117,0.76899 -1.411644,1.74002 -1.522594,2.91312 -0.110937,1.17309 0.21808,2.2117 0.987067,3.11582 0.621094,0.73025 1.385591,1.18871 2.293485,1.37539 0.907884,0.18668 1.780911,0.10337 2.619065,-0.24994 0.33215,-0.10271 0.689477,-0.31674 1.071984,-0.64208 0.904117,-0.76899 1.472501,-1.79178 1.705151,-3.06839 0.23265,-1.27661 -0.0355,-2.36698 -0.804494,-3.2711 l -2.129488,-2.50372 7.511115,-6.3885 2.129488,2.50372 c 0.768977,0.90412 1.802161,1.34381 3.099552,1.31906 1.297394,-0.0248 2.398158,-0.42162 3.302272,-1.1906 0.34774,-0.29577 0.616337,-0.61411 0.805797,-0.95505 0.483244,-0.77059 0.705593,-1.61893 0.667045,-2.54502 -0.03855,-0.92608 -0.368374,-1.75425 -0.989475,-2.48451 -0.768984,-0.90412 -1.732618,-1.40296 -2.890922,-1.49651 -1.158294,-0.0936 -2.189508,0.24416 -3.093622,1.01315 l -1.763051,-2.07289 0.1251,-0.12647 0.444537,-1.14979 1.755361,-0.1577 0.316737,-1.84202 1.261974,-0.47872 1.067174,-0.67258 1.067554,-0.85878 1.165061,-0.74682 1.178619,-1.10931 0.497309,-2.28742 0.638854,-0.1914 c 0.706046,0.23408 1.400315,0.51881 2.082809,0.85419 1.853349,0.91074 3.489857,2.20068 4.909522,3.86983 1.153479,1.35618 2.03916,2.82027 2.657047,4.39227 0.617886,1.57201 0.981866,3.18018 1.091943,4.82451 0.110076,1.64434 -0.04594,3.27527 -0.468056,4.89282 -0.422113,1.61754 -1.079042,3.13515 -1.970789,4.55284 -0.782226,1.2646 -1.816658,2.44407 -3.103291,3.53839 -1.425729,1.21264 -2.964163,2.1166 -4.615305,2.7119 -1.651141,0.5953 -3.335839,0.90453 -5.05411,0.92767 -0.298607,1.69228 -0.865504,3.29813 -1.700688,4.81754 -0.835197,1.51941 -1.965651,2.88543 -3.391362,4.09806 z" />
    <path
       style="font-family:none;mix-blend-mode:normal;fill:none;fill-rule:nonzero;stroke:#00bb31;stroke-width:0.82171226;stroke-linecap:butt;stroke-linejoin:miter;stroke-miterlimit:10;stroke-dasharray:none;stroke-dashoffset:0"
       inkscape:connector-curvature="0"
       id="path44-2"
       d="" />
    <path
       style="font-family:none;mix-blend-mode:normal;fill:#d0d0ce;fill-opacity:1;fill-rule:nonzero;stroke:none;stroke-width:0.13695204;stroke-linecap:butt;stroke-linejoin:miter;stroke-miterlimit:10;stroke-dasharray:none;stroke-dashoffset:0"
       inkscape:connector-curvature="0"
       id="path46-9"
       d="m 95.927766,246.60236 c -0.165173,2.185 -0.649187,4.19711 -1.452044,6.03633 -0.802857,1.83922 -1.884393,3.42846 -3.24461,4.76774 -1.360216,1.33927 -3.00447,2.34805 -4.932763,3.02635 -1.928293,0.67828 -4.121501,0.92452 -6.579624,0.7387 -2.458124,-0.18582 -4.638353,-0.71688 -6.540691,-1.59318 -1.902337,-0.8763 -3.475902,-2.01387 -4.720695,-3.41273 -1.244792,-1.39885 -2.164254,-3.01347 -2.758384,-4.84383 -0.59413,-1.83037 -0.81205,-3.79254 -0.653759,-5.88649 l 1.579459,-20.89405 c 0.137943,-1.82479 0.590136,-3.59597 1.35658,-5.31356 l 0.975945,0.2016 1.603521,-0.39544 2.052099,0.7444 2.288549,-1.28508 -2.022271,0.80634 -1.918959,-0.98377 -1.470382,0.15608 -0.932388,-0.41148 c 0.818851,-1.50398 1.85761,-2.83315 3.116279,-3.9875 1.475739,-1.35343 3.225856,-2.39999 5.250352,-3.13968 0.376129,-0.13743 0.758957,-0.25894 1.148483,-0.36454 l -0.173235,1.1543 0.768854,2.03935 -0.127453,1.94285 0.343835,1.76713 -0.564749,1.64984 0.09772,1.73848 0.353939,1.26126 0.402698,0.30166 c -0.57449,0.68672 -0.897358,1.50132 -0.968605,2.44382 l -0.06828,-0.005 -0.547133,7.23781 c 0.115129,-0.31177 0.379061,-0.62373 0.791796,-0.93588 0.412737,-0.31216 0.889451,-0.56225 1.430145,-0.75029 0.540695,-0.18803 1.078809,-0.34192 1.614342,-0.46167 0.535533,-0.11975 0.985382,-0.16586 1.349548,-0.13833 4.643122,0.35099 8.087072,2.03054 10.331848,5.03865 2.244775,3.00811 3.186507,6.902 2.825191,11.68169 z" />
    <path
       style="font-family:none;mix-blend-mode:normal;fill:#aa0000;fill-rule:nonzero;stroke:none;stroke-width:0.13695204;stroke-linecap:butt;stroke-linejoin:miter;stroke-miterlimit:10;stroke-dasharray:none;stroke-dashoffset:0"
       inkscape:connector-curvature="0"
       id="path104-1"
       d="m 67.981235,219.22764 0.576114,-1.16735" />
    <path
       style="font-family:none;mix-blend-mode:normal;fill:none;fill-rule:nonzero;stroke:#00bb31;stroke-width:0.82171226;stroke-linecap:butt;stroke-linejoin:miter;stroke-miterlimit:10;stroke-dasharray:none;stroke-dashoffset:0"
       inkscape:connector-curvature="0"
       id="path106-2"
       d="" />
    <path
       style="font-family:none;mix-blend-mode:normal;fill:#fe5000;fill-opacity:1;fill-rule:nonzero;stroke:none;stroke-width:0.13695204;stroke-linecap:butt;stroke-linejoin:miter;stroke-miterlimit:10;stroke-dasharray:none;stroke-dashoffset:0"
       inkscape:connector-curvature="0"
       id="path110"
       d="m 98.68129,272.68057 -0.0803,-2.2994 -6.2412,0.21795 0.35559,10.18303 6.24121,-0.21795 -0.0803,-2.2994 -3.94181,0.13766 -0.0573,-1.64243 2.90161,-0.10132 -0.0803,-2.2994 -2.90161,0.10133 -0.0573,-1.64242 z m -6.767777,10.25363 -0.499942,-14.31646 83.202419,-2.90549 0.49995,14.31646 z m 15.885057,-12.87421 -2.57313,0.0898 -1.22026,2.72851 -1.40762,-2.63674 -2.57313,0.0899 2.91517,4.99592 -2.55957,5.1871 2.57313,-0.0899 1.22026,-2.72851 1.40762,2.63674 2.57313,-0.0899 -2.91517,-4.99592 z m 6.10434,-0.21317 0.13765,3.94182 -2.72369,0.0951 -0.13765,-3.94182 -2.29939,0.0803 0.3556,10.18302 2.29939,-0.0803 -0.13765,-3.94182 2.72369,-0.0951 0.13765,3.94181 2.29939,-0.0803 -0.35559,-10.18303 z m 9.74692,7.16917 1.01069,2.65061 2.6142,-0.0913 -3.33935,-10.07883 -3.06585,0.10706 -2.62813,10.28722 2.61418,-0.0913 0.80966,-2.71417 z m 12.42532,-7.95715 -2.36784,0.0827 0.20792,5.95378 c 0.009,0.24637 -0.008,0.47992 -0.0509,0.70066 -0.0425,0.22074 -0.11341,0.41507 -0.2126,0.58298 -0.0992,0.1679 -0.22924,0.30263 -0.39014,0.40417 -0.1609,0.10154 -0.3554,0.1563 -0.58352,0.16427 -0.22811,0.008 -0.42596,-0.0331 -0.59355,-0.12316 -0.16759,-0.0901 -0.30899,-0.21532 -0.42422,-0.37574 -0.11524,-0.16042 -0.20178,-0.34925 -0.25961,-0.56649 -0.0578,-0.21723 -0.091,-0.44903 -0.0996,-0.6954 l -0.20791,-5.95378 -2.36783,0.0827 0.21412,6.13172 c 0.0188,0.53835 0.10297,1.05158 0.25248,1.53968 0.14951,0.48811 0.37687,0.9164 0.68207,1.28487 0.30521,0.36848 0.69432,0.65408 1.16733,0.85682 0.473,0.20274 1.04238,0.28792 1.70816,0.25553 l 0.0137,-4.1e-4 c 0.60255,-0.0119 1.12851,-0.12391 1.57788,-0.33602 0.44938,-0.21211 0.82061,-0.50371 1.1137,-0.87481 0.29308,-0.37109 0.51071,-0.81035 0.65287,-1.31778 0.14214,-0.50743 0.20271,-1.06225 0.18168,-1.66448 z m 8.4925,7.35002 c -0.0182,-0.5201 -0.12511,-0.9663 -0.32083,-1.3386 -0.1957,-0.37229 -0.44938,-0.70374 -0.761,-0.99434 -0.31163,-0.29059 -0.66547,-0.54774 -1.06155,-0.77143 -0.39608,-0.2237 -0.80813,-0.44684 -1.23614,-0.66942 -0.30876,-0.20848 -0.53617,-0.3764 -0.68222,-0.50376 -0.14606,-0.12737 -0.22211,-0.27774 -0.22816,-0.45111 -0.008,-0.22811 0.0613,-0.40182 0.20791,-0.52114 0.14658,-0.11932 0.3111,-0.18216 0.4936,-0.18853 0.17337,-0.006 0.32747,0.0251 0.46232,0.0935 0.13486,0.0684 0.25202,0.15336 0.3515,0.25495 0.0995,0.10158 0.17873,0.21301 0.23778,0.33428 0.059,0.12127 0.10402,0.23161 0.1349,0.33103 l 1.98424,-0.8641 c -0.0552,-0.27214 -0.16063,-0.54482 -0.31635,-0.81802 -0.1557,-0.2732 -0.36741,-0.51475 -0.63511,-0.72466 -0.26769,-0.20991 -0.59335,-0.37897 -0.97695,-0.50718 -0.38361,-0.1282 -0.82634,-0.18355 -1.3282,-0.16602 -0.4194,0.0238 -0.82322,0.10183 -1.21143,0.23415 -0.38822,0.13232 -0.72889,0.3178 -1.02204,0.55643 -0.29314,0.23863 -0.52507,0.52993 -0.69577,0.87391 -0.17071,0.34399 -0.24825,0.73953 -0.23264,1.18663 0.0169,0.48361 0.11532,0.88214 0.29527,1.19561 0.17996,0.31346 0.42268,0.59276 0.72815,0.83789 0.30547,0.24513 0.66072,0.47711 1.06577,0.69592 0.40504,0.21882 0.84565,0.47522 1.32185,0.76921 0.21496,0.13866 0.38178,0.27215 0.50045,0.40048 0.11868,0.12832 0.1853,0.26988 0.19983,0.42468 0.018,0.25517 -0.0461,0.44469 -0.19254,0.56857 -0.14642,0.12388 -0.29686,0.19765 -0.45134,0.22132 -0.18155,0.0337 -0.35398,9.5e-4 -0.51733,-0.0984 -0.16334,-0.0994 -0.30207,-0.21327 -0.41619,-0.34176 -0.11411,-0.12848 -0.2029,-0.251 -0.26635,-0.36754 -0.0635,-0.11655 -0.0862,-0.17971 -0.0683,-0.18947 l -2.15787,0.99349 c 0.10399,0.3618 0.26366,0.68283 0.47899,0.96308 0.21534,0.28026 0.47251,0.51566 0.77151,0.7062 0.29899,0.19054 0.63062,0.33427 0.99486,0.43118 0.36425,0.0969 0.75167,0.13819 1.16227,0.12385 0.52923,-0.0185 1.00155,-0.0966 1.41698,-0.23447 0.41543,-0.13784 0.76767,-0.31916 1.05674,-0.54394 0.28906,-0.22478 0.51297,-0.48383 0.67173,-0.77715 0.15877,-0.29332 0.24155,-0.60454 0.24833,-0.93366 z m 7.64478,-7.89984 -6.92555,0.24185 0.0803,2.29939 2.31308,-0.0808 0.2753,7.88364 2.2994,-0.0803 -0.2753,-7.88363 2.31307,-0.0808 z m 4.00999,10.05541 -0.3556,-10.18302 -2.2994,0.0803 0.35561,10.18303 z m 9.00031,-6.75497 c -0.0254,-0.46503 -0.12783,-0.91367 -0.30738,-1.34591 -0.17953,-0.43225 -0.4396,-0.816 -0.78019,-1.15126 -0.3878,-0.3793 -0.8249,-0.66551 -1.31127,-0.85865 -0.48636,-0.19313 -0.99872,-0.2803 -1.53707,-0.2615 l -0.0137,4.1e-4 c -0.53835,0.0188 -1.0411,0.14141 -1.50824,0.36785 -0.46716,0.22643 -0.88549,0.54252 -1.25503,0.94826 -0.30725,0.35788 -0.53967,0.76569 -0.69726,1.22341 -0.15761,0.45772 -0.22876,0.90557 -0.21346,1.34355 l 0.0832,2.38151 c 0.0282,0.54716 0.12608,1.05991 0.29353,1.53825 0.16744,0.47835 0.43578,0.90292 0.80502,1.27373 0.39694,0.37897 0.83859,0.66503 1.32496,0.85816 0.48637,0.19314 0.99416,0.28047 1.52338,0.26199 l 0.0137,-4.1e-4 c 0.53834,-0.0188 1.04338,-0.1415 1.51508,-0.36809 0.47172,-0.2266 0.88762,-0.54717 1.24771,-0.96171 0.35159,-0.39598 0.59383,-0.8498 0.7267,-1.36147 0.13287,-0.51168 0.19071,-1.01388 0.17349,-1.5066 z m 6.2608,-3.9734 0.17445,4.9957 -2.89814,-4.90059 -2.34045,0.0817 0.35561,10.18303 2.43625,-0.0851 -0.17493,-5.00939 2.9123,4.9138 2.32677,-0.0813 -0.35559,-10.18303 z" />
    <path
       style="font-family:none;mix-blend-mode:normal;fill:#fe5000;fill-opacity:1;fill-rule:nonzero;stroke:none;stroke-width:0.13695204;stroke-linecap:butt;stroke-linejoin:miter;stroke-miterlimit:10;stroke-dasharray:none;stroke-dashoffset:0"
       inkscape:connector-curvature="0"
       id="path108"
       d="m 115.48619,264.30127 -1.85227,-4.17013 c 0.11854,0.006 0.28588,-0.0467 0.50203,-0.15883 0.21616,-0.1121 0.43314,-0.28358 0.65095,-0.51444 0.2178,-0.23087 0.41125,-0.52016 0.58033,-0.86786 0.16908,-0.3477 0.26556,-0.74949 0.28945,-1.20537 0.0229,-0.43765 -0.005,-0.85741 -0.0849,-1.25928 -0.0795,-0.40188 -0.22775,-0.75706 -0.44471,-1.06557 -0.21698,-0.30851 -0.51456,-0.56181 -0.89274,-0.75992 -0.37818,-0.1981 -0.85903,-0.31244 -1.44255,-0.34302 l -3.10456,-0.1627 -0.53326,10.17526 2.29764,0.12042 0.17346,-3.3097 0.0273,0.001 1.19418,3.38137 z m -7.31858,1.74212 0.74973,-14.30555 66.30335,3.47481 -0.74971,14.30555 z m 15.59538,-9.20762 0.12041,-2.29764 -6.23645,-0.32684 -0.53327,10.17527 6.23646,0.32684 0.12042,-2.29764 -3.93882,-0.20643 0.086,-1.64117 2.89939,0.15195 0.12043,-2.29764 -2.89941,-0.15195 0.086,-1.64117 z m 7.9544,5.75162 c 0.0272,-0.5197 -0.0404,-0.97352 -0.20293,-1.36146 -0.16252,-0.38794 -0.38634,-0.74023 -0.67146,-1.05688 -0.2851,-0.31665 -0.6152,-0.60366 -0.99027,-0.86103 -0.37508,-0.25736 -0.76611,-0.51556 -1.17309,-0.7746 -0.28942,-0.2346 -0.50133,-0.4217 -0.63572,-0.56131 -0.13439,-0.13961 -0.19704,-0.29603 -0.18798,-0.46927 0.0119,-0.22794 0.0961,-0.39495 0.25254,-0.50104 0.15643,-0.10609 0.3258,-0.15435 0.50816,-0.14479 0.17323,0.009 0.32404,0.0535 0.45242,0.13342 0.12838,0.0799 0.2377,0.17474 0.32793,0.28461 0.0902,0.10987 0.1595,0.22778 0.20775,0.35374 0.0483,0.12595 0.0834,0.23979 0.10553,0.34152 l 2.05201,-0.68787 c -0.0312,-0.27592 -0.11253,-0.55674 -0.24384,-0.84248 -0.13131,-0.28573 -0.32116,-0.54482 -0.56955,-0.77726 -0.24839,-0.23244 -0.55806,-0.42924 -0.92904,-0.59039 -0.37097,-0.16115 -0.80719,-0.25487 -1.30866,-0.28115 -0.41989,-0.0129 -0.82897,0.0297 -1.22724,0.12768 -0.39827,0.098 -0.75381,0.25306 -1.06665,0.46523 -0.31282,0.21217 -0.56925,0.48215 -0.76929,0.80995 -0.20003,0.32779 -0.31175,0.71507 -0.33516,1.16184 -0.0253,0.48323 0.038,0.88883 0.18994,1.21678 0.15195,0.32796 0.3694,0.62735 0.65234,0.89817 0.28295,0.27083 0.61663,0.53288 1.00107,0.78617 0.38442,0.25328 0.80102,0.54711 1.24977,0.88148 0.20206,0.15687 0.35661,0.30439 0.46365,0.44257 0.10704,0.13818 0.16107,0.28501 0.16205,0.44049 -0.004,0.25577 -0.0847,0.43898 -0.24136,0.54962 -0.15666,0.11065 -0.31296,0.17102 -0.46891,0.18114 -0.18379,0.0178 -0.35272,-0.0299 -0.50678,-0.14313 -0.15407,-0.11322 -0.28234,-0.23879 -0.38482,-0.37673 -0.10248,-0.13794 -0.18025,-0.26773 -0.2333,-0.38936 -0.0531,-0.12164 -0.0702,-0.18654 -0.0515,-0.1947 l -2.23625,0.80164 c 0.0721,0.36948 0.20315,0.7032 0.39325,1.00116 0.19009,0.29796 0.42576,0.55487 0.70701,0.77075 0.28125,0.21588 0.59909,0.38796 0.9535,0.51625 0.35441,0.12828 0.73677,0.20318 1.14706,0.22468 0.52881,0.0277 1.00616,-0.009 1.43203,-0.11009 0.42585,-0.10111 0.79256,-0.25103 1.10012,-0.44976 0.30754,-0.19874 0.55319,-0.43729 0.73691,-0.71565 0.18373,-0.27837 0.29331,-0.58119 0.32875,-0.90847 z m 9.3387,-3.39164 c 0.0153,-0.46548 -0.0477,-0.92134 -0.1889,-1.36758 -0.14118,-0.44625 -0.36681,-0.85121 -0.67688,-1.21488 -0.35328,-0.41165 -0.76376,-0.73487 -1.23145,-0.96966 -0.46768,-0.2348 -0.97049,-0.36629 -1.50843,-0.39448 l -0.0137,-6.8e-4 c -0.53793,-0.0282 -1.04946,0.0501 -1.53456,0.235 -0.48511,0.18485 -0.92941,0.46328 -1.3329,0.83527 -0.33727,0.32974 -0.60436,0.71574 -0.80124,1.15798 -0.19688,0.44224 -0.3068,0.88219 -0.32974,1.31983 l -0.12471,2.3797 c -0.0196,0.54754 0.0332,1.06686 0.15835,1.55798 0.12512,0.49112 0.35543,0.93747 0.69095,1.33904 0.36239,0.41213 0.77743,0.73559 1.24511,0.97038 0.46769,0.23479 0.96594,0.36605 1.49477,0.39376 l 0.0137,6.9e-4 c 0.53793,0.0282 1.05173,-0.05 1.54139,-0.23464 0.48967,-0.18462 0.93193,-0.46773 1.32678,-0.84931 0.38477,-0.36383 0.66564,-0.79481 0.8426,-1.29296 0.17697,-0.49814 0.27834,-0.99339 0.30414,-1.48574 z m 8.95002,-3.3023 -2.36602,-0.12399 -0.31179,5.94924 c -0.0129,0.24618 -0.0502,0.47737 -0.11177,0.69356 -0.0616,0.2162 -0.14915,0.4036 -0.2626,0.56223 -0.11347,0.15862 -0.25476,0.2815 -0.42388,0.36863 -0.16914,0.0871 -0.36768,0.12473 -0.59562,0.11278 -0.22794,-0.0119 -0.42146,-0.0701 -0.58057,-0.17442 -0.15909,-0.10434 -0.28905,-0.24143 -0.38986,-0.41128 -0.10081,-0.16985 -0.17055,-0.3655 -0.20923,-0.58696 -0.0387,-0.22145 -0.0516,-0.45526 -0.0387,-0.70144 l 0.31178,-5.94924 -2.36602,-0.124 -0.3211,6.12704 c -0.0282,0.53794 0.011,1.05655 0.11731,1.55583 0.1064,0.49928 0.29557,0.94576 0.5675,1.33943 0.27194,0.39367 0.63467,0.7121 1.0882,0.95529 0.45353,0.2432 1.01333,0.37768 1.6794,0.40344 l 0.0137,6.8e-4 c 0.60129,0.0407 1.135,-0.0251 1.60116,-0.19722 0.46616,-0.17214 0.86139,-0.43027 1.1857,-0.77441 0.32432,-0.34414 0.57939,-0.76276 0.76524,-1.25587 0.18584,-0.49311 0.29453,-1.04054 0.32607,-1.64231 z m 7.35732,10.60251 -1.85226,-4.17013 c 0.11852,0.006 0.28587,-0.0467 0.50203,-0.15883 0.21615,-0.11209 0.43313,-0.28358 0.65094,-0.51444 0.21781,-0.23087 0.41126,-0.52015 0.58034,-0.86785 0.16906,-0.34771 0.26555,-0.7495 0.28945,-1.20538 0.0229,-0.43765 -0.005,-0.85741 -0.0849,-1.25928 -0.0795,-0.40187 -0.22775,-0.75706 -0.44472,-1.06557 -0.21696,-0.30851 -0.51455,-0.56181 -0.89273,-0.75991 -0.37818,-0.1981 -0.85903,-0.31245 -1.44255,-0.34303 l -3.10455,-0.1627 -0.53327,10.17527 2.29763,0.12041 0.17347,-3.3097 0.0273,10e-4 1.1942,3.38137 z m 5.41105,-1.97923 c -0.46309,-0.0608 -0.827,-0.26962 -1.09173,-0.62634 -0.26471,-0.35673 -0.38394,-0.78582 -0.35766,-1.28729 l 0.10393,-1.98308 c 0.0263,-0.50147 0.18719,-0.91132 0.48271,-1.22954 0.29553,-0.31822 0.67674,-0.48338 1.14365,-0.49548 0.19195,9.6e-4 0.3724,0.047 0.54133,0.13808 0.16893,0.0911 0.31819,0.20868 0.44779,0.35261 0.1296,0.14393 0.23772,0.30502 0.32439,0.48327 0.0866,0.17826 0.15303,0.35087 0.19914,0.51786 l 2.04113,-1.00386 c -0.084,-0.31526 -0.20684,-0.63255 -0.36839,-0.95186 -0.16154,-0.31932 -0.37946,-0.60959 -0.65378,-0.87082 -0.2743,-0.26123 -0.60797,-0.47985 -1.00102,-0.65588 -0.39305,-0.17602 -0.86767,-0.27861 -1.42385,-0.30776 l -0.0137,-6.8e-4 c -0.62912,-0.033 -1.18683,0.0544 -1.67313,0.26202 -0.48631,0.20765 -0.89677,0.49471 -1.23139,0.86116 -0.33463,0.36645 -0.59451,0.7894 -0.77963,1.26883 -0.18512,0.47943 -0.29538,0.96964 -0.33078,1.47063 l -0.11039,2.10617 c 0,0.53026 0.0551,1.04287 0.16626,1.53783 0.11121,0.49496 0.3053,0.93483 0.58226,1.31963 0.27697,0.38479 0.64451,0.6989 1.1026,0.94233 0.45809,0.24343 1.0336,0.38331 1.72654,0.41962 l 0.0137,6.9e-4 c 0.62001,0.0325 1.14665,-0.0291 1.57994,-0.18462 0.43328,-0.15558 0.79314,-0.34929 1.07958,-0.58113 0.28642,-0.23184 0.51155,-0.47146 0.67537,-0.71887 0.16383,-0.24741 0.29105,-0.45103 0.38172,-0.61084 l -1.92503,-1.21172 c -0.15348,0.31195 -0.36613,0.57508 -0.63792,0.78941 -0.27181,0.21432 -0.60301,0.29753 -0.99364,0.24963 z m 11.33146,-5.04259 0.12043,-2.29764 -6.23646,-0.32684 -0.53326,10.17527 6.23645,0.32683 0.12041,-2.29764 -3.93881,-0.20642 0.086,-1.64117 2.8994,0.15195 0.12042,-2.29764 -2.89941,-0.15196 0.086,-1.64117 z" />
  </g>
</svg>
