<?xml version="1.0" encoding="UTF-8" standalone="no"?>
<!-- Created with Inkscape (http://www.inkscape.org/) -->

<svg
   xmlns:dc="http://purl.org/dc/elements/1.1/"
   xmlns:cc="http://creativecommons.org/ns#"
   xmlns:rdf="http://www.w3.org/1999/02/22-rdf-syntax-ns#"
   xmlns:svg="http://www.w3.org/2000/svg"
   xmlns="http://www.w3.org/2000/svg"
   xmlns:sodipodi="http://sodipodi.sourceforge.net/DTD/sodipodi-0.dtd"
   xmlns:inkscape="http://www.inkscape.org/namespaces/inkscape"
   width="1920"
   height="1080"
   id="svg2"
   version="1.1"
   inkscape:version="0.91 r13725"
   sodipodi:docname="outro.svg">
  <defs
     id="defs4" />
  <sodipodi:namedview
     id="base"
     pagecolor="#ffffff"
     bordercolor="#666666"
     borderopacity="1.0"
     inkscape:pageopacity="0.0"
     inkscape:pageshadow="2"
     inkscape:zoom="0.35"
     inkscape:cx="707.50011"
     inkscape:cy="316.12459"
     inkscape:document-units="px"
     inkscape:current-layer="layer1"
     showgrid="false"
     inkscape:window-width="1920"
     inkscape:window-height="1014"
     inkscape:window-x="0"
     inkscape:window-y="27"
     inkscape:window-maximized="1"
     showguides="true"
     inkscape:guide-bbox="true"
     inkscape:snap-global="true"
     inkscape:snap-bbox="true"
     inkscape:bbox-paths="true"
     inkscape:bbox-nodes="true"
     inkscape:snap-bbox-edge-midpoints="true"
     inkscape:snap-bbox-midpoints="true"
     inkscape:object-paths="false"
     inkscape:snap-to-guides="true">
    <sodipodi:guide
       orientation="0,1"
       position="0,0"
       id="guide3017" />
    <sodipodi:guide
       orientation="0,1"
       position="0,1080"
       id="guide3019" />
    <sodipodi:guide
       orientation="1,0"
       position="0,0"
       id="guide3021" />
    <sodipodi:guide
       orientation="1,0"
       position="1920,1337.442"
       id="guide3023" />
    <sodipodi:guide
       orientation="0,1"
       position="0,25"
       id="guide3025" />
    <sodipodi:guide
       orientation="0,1"
       position="0,1048"
       id="guide3027" />
    <sodipodi:guide
       orientation="1,0"
       position="32,0"
       id="guide3029" />
    <sodipodi:guide
       orientation="1,0"
       position="1888,0"
       id="guide3031" />
    <sodipodi:guide
       orientation="1,0"
       position="960,1080"
       id="guide3819" />
    <sodipodi:guide
       orientation="0,1"
       position="0,540"
       id="guide3821" />
  </sodipodi:namedview>
  <metadata
     id="metadata7">
    <rdf:RDF>
      <cc:Work
         rdf:about="">
        <dc:format>image/svg+xml</dc:format>
        <dc:type
           rdf:resource="http://purl.org/dc/dcmitype/StillImage" />
        <dc:title></dc:title>
      </cc:Work>
    </rdf:RDF>
  </metadata>
  <g
     inkscape:label="Ebene 1"
     inkscape:groupmode="layer"
     id="layer1"
     transform="translate(0,27.63782)">
    <rect
       style="fill:#000000;fill-opacity:1;fill-rule:nonzero;stroke:none"
       id="black"
       width="1920"
       height="1080"
       x="0"
       y="-27.637817"
       inkscape:label="#rect3797" />
    <g
       id="b"
       inkscape:label="#g4232">
      <text
         sodipodi:linespacing="125%"
         id="text3893"
         y="742.61218"
         x="959.01093"
         style="font-style:normal;font-variant:normal;font-weight:normal;font-stretch:normal;font-size:40px;line-height:125%;font-family:'Courier 10 Pitch';-inkscape-font-specification:'Courier 10 Pitch';text-align:center;letter-spacing:0px;word-spacing:0px;text-anchor:middle;fill:#000000;fill-opacity:1;stroke:none"
         xml:space="preserve"><tspan
           style="font-style:normal;font-variant:normal;font-weight:normal;font-stretch:normal;font-family:'TeX Gyre Adventor';-inkscape-font-specification:'TeX Gyre Adventor';text-align:center;text-anchor:middle;fill:#a5a5a5;fill-opacity:1"
           y="742.61218"
           x="959.01093"
           id="tspan3895"
           sodipodi:role="line">More Recordings available on <tspan
   id="tspan3028"
   style="font-weight:bold;-inkscape-font-specification:'TeX Gyre Adventor Bold'">media.ccc.de</tspan></tspan></text>
      <g
         style="fill:#ffffff;fill-opacity:1"
         transform="translate(632.47209,157.2726)"
         id="g3899">
        <path
           inkscape:connector-curvature="0"
           style="fill:#ffffff;fill-opacity:1;stroke:none"
           d="m 294.407,7.95792 c 6.213,1.027 19.117,20.42198 17.554,56.04198 -4.3,2.287 -9.289,0.945 -12.547,0.894 -10.184,-2.682 -0.678,-29.555 -14.953,-39.546 C 263.79,10.8809 119.447,14.4069 45.5808,21.1209 13.592,24.0289 17.478,87.0639 16.8569,120.43 c -0.5169,27.768 0.4448,58.119 11.4189,88.93 9.4468,26.524 44.2989,17.409 75.9712,18.571 56.978,0 160.981,1.883 173.53,-3.125 9.092,-3.629 12.796,-16.972 14.709,-25.575 3.351,-15.069 -0.168,-25.607 11.822,-25.324 6.313,0.149 7.555,5.857 6.592,16.772 -1.001,11.346 -4.393,26.441 -9.128,44.005 -3.421,12.688 -27.012,10.129 -42.628,10.129 C 180.218,242.704 100.45,245.236 24.0554,243.125 1.9155,242.514 1.46946,137.911 0.285625,118.923 -1.10525,96.6069 2.51438,7.01993 21.3615,6.01993 35.3674,5.27692 113.628,0.0309143 159.959,0.0189209 205.016,0.00692749 252.988,1.11093 294.407,7.95792"
           id="path3901" />
        <path
           inkscape:connector-curvature="0"
           style="fill:#ffffff;fill-opacity:1;stroke:none"
           d="m 223.69,24.0759 c 5.487,15.616 -8.019,40.096 12.24,48.537 73.438,12.662 159.117,-14.772 221.582,23.635 16.882,16.4601 29.544,35.4531 37.563,55.7121 l 0,-9.285 c -9.285,-25.746 -28.278,-47.6931 -46.427,-70.0621 5.065,-6.753 10.974,1.266 16.038,3.376 18.571,23.213 37.563,46.8491 44.739,74.7051 1.265,1.688 3.798,5.065 5.908,2.11 l 2.955,-2.954 c -6.331,-29.966 -25.324,-54.4461 -41.362,-80.1921 7.175,-4.643 14.35,3.377 20.259,8.019 12.24,20.259 25.746,40.5181 30.388,64.1531 3.376,2.532 7.597,-2.11 9.285,-5.065 -2.532,-18.571 -8.864,-35.031 -16.461,-50.6471 1.266,-2.11 1.266,-5.065 4.221,-5.065 18.149,9.707 17.727,30.8111 24.057,47.2711 5.909,-0.422 8.863,-18.993 16.46,-8.019 2.532,6.753 -10.129,17.305 2.955,18.149 -6.331,30.388 -39.674,54.024 -68.796,60.777 -15.194,3.376 -35.453,8.018 -46.849,-3.798 2.11,-5.487 9.707,-6.331 15.194,-7.175 33.765,-1.266 65.842,-13.506 86.101,-40.518 l -0.844,-0.844 c -32.077,21.525 -71.75,42.206 -111.424,26.168 -3.376,-0.844 -5.065,-5.487 -2.954,-8.019 0.844,-2.532 -1.688,-3.798 -2.955,-4.221 -67.108,2.954 -137.596,-6.324 -202.593,4.227 -7.13,1.158 -7.934,7.746 -9.284,13.082 -3.414,13.511 5.21,32.647 -2.824,39.846 0,0 -5.936,1.741 -10.256,-0.177 -1.011,-5.609 -4.227,-37.144 2.948,-54.026 9.077,-21.357 89.954,-14.153 113.334,-14.626 42.722,-0.863 92.638,-2.254 132.734,0.701 -11.396,-11.396 -29.122,-11.818 -46.427,-11.396 -54.868,-0.844 -140.604,-0.559 -175.376,-2.466 -51.431,-2.822 -69.842,48.893 -102.341,82.658 l -15.194,0 c 20.259,-28.277 42.097,-60.522 70.062,-85.256 4.509,-3.988 7.645,-4.615 15.194,-6.752 21.025,-5.953 224.959,0.844 224.959,0.844 9.285,2.11 19.415,3.376 28.278,7.174 -5.065,-13.084 -21.525,-16.46 -34.609,-18.147 -73.017,-2.11 -146.877,-0.422 -218.628,-5.065 -19.415,-5.909 -29.544,-29.9661 -44.739,-44.7391 l -32.499,-41.362 16.46,0.844 c 21.103,24.479 35.575,54.506 62.887,73.8601 6.02,4.266 134.602,3.027 202.584,2.954 10.96,-0.012 33.77,7.175 48.542,15.195 2.532,-3.376 -1.688,-6.331 -4.221,-8.863 -30.811,-29.5441 -94.362,-20.3431 -117.328,-20.2641 -40.285,0.14 -88.233,8.522 -121.559,-12.235 -8.141,-5.071 -6.752,-35.875 -2.953,-52.758 l 10.973,0"
           id="path3903" />
        <path
           inkscape:connector-curvature="0"
           style="fill:#ffffff;fill-opacity:1;stroke:none"
           d="m 575.267,153.649 c -7.175,30.389 -29.544,57.822 -57.823,73.017 -17.727,3.799 -40.518,15.616 -54.868,-2.11 9.708,-8.863 27.434,-2.954 38.83,-10.13 29.544,-8.441 53.858,-34.474 68.796,-60.777 1.91,-1.321 3.195,-2.823 5.065,0"
           id="path3905" />
        <path
           inkscape:connector-curvature="0"
           style="fill:#ffffff;fill-opacity:1;stroke:none"
           d="m 584.142,179.84 c -5.065,26.168 -17.727,53.602 -44.739,66.686 -11.818,5.487 -30.388,11.818 -41.362,2.11 l 0,-4.221 c 41.784,1.688 62.887,-42.206 79.77,-71.75 4.643,-0.422 5.065,3.798 6.331,7.175"
           id="path3907" />
        <path
           inkscape:connector-curvature="0"
           style="fill:#ffffff;fill-opacity:1;stroke:none"
           d="m 611.567,280.265 c 19.879,4.224 39.249,-15.615 43.47,10.131 -16.883,8.863 -39.674,6.331 -57.4,1.266 -3.799,7.597 1.688,16.038 0,25.324 -2.532,24.902 -11.818,48.537 -33.765,63.731 -6.357,3.3 -7.677,5.247 -11.431,5.909 1.138,-5.702 1.527,-10.353 2.5,-13.899 4.346,-2.92 23.503,-15.22 24.125,-31.684 9.707,-34.609 -0.844,-68.796 -24.058,-94.12 l 15.194,-13.928 c 8.863,17.726 18.896,42.495 41.364,47.269"
           id="path3909" />
        <path
           inkscape:connector-curvature="0"
           style="fill:#ffffff;fill-opacity:1;stroke:none"
           d="m 542.769,257.054 c 24.479,47.271 1.688,102.561 -4.221,151.098 2.532,18.149 5.065,36.719 20.259,49.381 -1.688,4.221 0.844,14.772 -5.909,12.24 -21.525,-11.396 -28.7,-34.187 -28.278,-57.822 -0.844,-41.784 21.525,-75.127 16.038,-117.333 L 536.86,286.6 c -17.305,18.57 -36.719,41.784 -35.453,70.905 l -11.396,2.11 c -12.662,-40.518 31.655,-63.743 37.564,-100.04 0,0 9.707,-3.786 15.194,-2.521"
           id="path3911" />
      </g>
      <text
         sodipodi:linespacing="125%"
         id="text3926"
         y="470.10266"
         x="794.13159"
         style="font-style:normal;font-variant:normal;font-weight:normal;font-stretch:normal;font-size:49.64359283px;line-height:125%;font-family:'Courier 10 Pitch';-inkscape-font-specification:'Courier 10 Pitch';text-align:center;letter-spacing:0px;word-spacing:0px;text-anchor:middle;fill:#000000;fill-opacity:1;stroke:none"
         xml:space="preserve"><tspan
           style="font-style:normal;font-variant:normal;font-weight:normal;font-stretch:normal;font-family:'TeX Gyre Adventor';-inkscape-font-specification:'TeX Gyre Adventor';text-align:center;text-anchor:middle;fill:#ffffff;fill-opacity:1"
           y="470.10266"
           x="794.13159"
           id="tspan3928"
           sodipodi:role="line">www.ccc.de</tspan></text>
    </g>
    <g
       transform="matrix(1.2124625,0,0,1.2124625,339.81946,33.303218)"
       id="a"
       inkscape:label="#g3">
      <g
         id="g5">
        <path
           inkscape:connector-curvature="0"
           d="m 797.7,392.2 c -13.5,10.7 -27.1,16.3 -44.1,18 l -6.8,0.7 0,3.3 c 0,2.7 0.6,3.7 3.5,5.5 1.9,1.2 4.8,2.5 6.3,3 5,1.5 17.6,1 25.8,-0.9 29.6,-7.1 53.5,-26.4 67.7,-54.9 7.4,-14.7 15.1,-40.5 13.7,-45.8 -0.8,-3.3 -5.4,-8.6 -7.5,-8.5 -1.1,0 -5.2,6 -11.7,17.2 -20.1,34.4 -32.6,51 -46.9,62.4 z m -366.1,16.7 c 22.5,-0.6 37.5,-4.2 42.5,-10.2 2.6,-3.1 7.1,-18.8 11.9,-42.1 3.8,-18 4.4,-35.5 1.4,-40.9 -3.3,-6 -11,-6.6 -16.9,-1.4 -2.9,2.6 -3.2,3.5 -5.4,18.4 -4.7,31.9 -12.9,46.6 -27.1,48.9 -15.3,2.5 -54.3,3.2 -172.2,3.3 -136.1,0 -130.7,0.3 -144.4,-6.4 -12.3,-6 -17.1,-13 -22.8,-33.7 -9.5,-34.2 -12,-66.3 -10.4,-132.4 1.1,-46 1.8,-55.4 5.5,-69.7 4.8,-18.7 12.5,-31 22.9,-36.2 4,-2 7.7,-2.7 20.6,-3.9 52.3,-4.7 104.4,-6.8 171.8,-6.8 69.4,-0.1 104.3,2 127.2,7.4 20.5,4.8 25.3,11.2 28.9,38.3 1.7,12.8 3.7,19.3 6.6,20.8 2,1.1 13.2,1.3 16.7,0.4 2.7,-0.7 3.1,-4.7 2.2,-21.7 -0.9,-15.6 -4.3,-29.4 -10.4,-41.6 -5.9,-12 -8.2,-13.8 -20.6,-15.7 -54.9,-8.7 -152.7,-11.9 -243.2,-8 -96.2,4.2 -125.8,6 -128.6,7.8 -10.3,6.7 -17.9,36.4 -22.1,85.8 -2.8,32.8 -3,54.7 -0.7,89.7 1.1,17.6 2.6,40.9 3.1,51.6 1.5,28.6 4.3,49.5 9.2,68.6 2.8,11.1 9.1,23.8 13.2,26.7 l 3.3,2.3 162.6,0.5 c 89.5,0.3 168.3,0.4 175.2,0.2 z m 371.3,235.2 c -2.6,-14.4 -2.7,-13.3 6.1,-59.5 10.2,-53.3 12.8,-75.2 11.8,-99.7 -0.9,-21.4 -3.6,-34.7 -11,-53.5 l -3.1,-7.9 -8.7,0.6 c -12.5,0.9 -12.8,1.1 -15.5,9.4 -3.2,10.2 -12,26.1 -25.4,46.3 -12.1,18.2 -20.6,33.9 -24.3,45.1 -2.8,8.3 -3.7,27 -1.7,34.6 1.5,5.6 1.7,5.7 12.3,3.5 l 5.2,-1.1 0.7,-7.7 c 1.7,-19.8 10.9,-41.2 27.2,-62.8 7.5,-9.9 19.7,-24.4 20.7,-24.6 0.3,0 1.8,2.2 3.4,5 l 2.8,5.1 -0.5,19.2 c -0.6,22.1 -1.8,29.5 -10.8,66.8 -10.1,41.7 -12.4,59.3 -11,82.7 1.9,31.4 12.2,52.7 31.8,66 7.7,5.2 11.8,5.9 13.2,2.4 0.5,-1.2 1.2,-5.1 1.6,-8.6 0.7,-6.1 0.6,-6.5 -2.2,-9.5 -11.8,-12.6 -18.1,-27 -22.6,-51.8 z m -28,-55 -3.8,0 c -2.1,0 -10.9,0.4 -19.6,0.9 -14.2,0.8 -16.5,1.2 -21.4,3.6 -6.3,3.1 -10.3,8.2 -11.1,14.4 l -0.5,4 4.4,0.4 c 8.8,0.8 10.6,0.7 28.9,-1.3 26,-2.8 23.2,-1.3 23.2,-12.5 l 0,-9.5 z M 748.2,388.8 c 22.7,-4.7 24.1,-5.1 31.5,-9.6 33,-19.9 56.1,-48.1 67.3,-82.2 5,-15.1 5,-14.5 -0.2,-14.5 -2.8,0 -4.6,0.5 -5,1.4 -1.6,4.3 -23.9,31.8 -34.7,42.9 -22.1,22.7 -39.1,33.6 -66.4,42.5 -2.5,0.8 -10.4,2.1 -17.6,2.9 -14.2,1.5 -22.1,3.5 -25.7,6.5 l -2.3,1.9 3.9,3.6 c 4.7,4.5 8.7,6.6 15.2,8.2 7.6,1.8 8.5,1.7 34,-3.6 z m -32.8,-37.4 c 27.4,-1.1 56.3,-10.7 78.6,-25.9 23.5,-16 38.3,-33.7 45.2,-53.7 2.3,-6.8 2.5,-9.4 0.5,-9.4 -0.8,0 -2.6,-0.5 -4,-1.2 -3.1,-1.4 -3.2,-3.6 -0.5,-11.4 2.6,-7.5 2.5,-11.3 -0.2,-14.2 -4.2,-4.5 -7.3,-3 -15.7,7.5 -1.8,2.3 -3.7,4.2 -4.1,4.2 -0.4,0 -3.4,-8.7 -6.6,-19.3 -3.2,-10.6 -7.2,-22 -8.9,-25.3 -3.4,-6.4 -11.4,-15.1 -16.1,-17.5 -2.8,-1.4 -3,-1.4 -5.8,1.8 -1.6,1.8 -2.9,3.8 -2.9,4.6 0,0.7 2,5.6 4.4,10.8 8.7,18.6 16,41.3 17.3,54 0.6,5.4 0.5,5.6 -3.1,8.8 -5.7,5 -5.7,5 -11,-12 -2,-6.4 -6.5,-17.5 -10,-24.6 -7,-14.1 -27.1,-48.1 -29.6,-50.2 -0.9,-0.7 -4.9,-3.5 -9,-6.3 -6,-4.1 -8.2,-5 -11.7,-5 -8.1,0 -8,0.3 10.6,30.1 24.4,39.1 30.7,51.5 36.5,71.5 l 2.6,9 -3,3 -3,3 -2.4,-2.5 c -1.3,-1.4 -3.8,-6.8 -5.6,-12 -8,-23.4 -25.1,-51.3 -52.5,-85.5 C 700,177 688.2,169 683.6,169 c -2.6,0 -7,2.5 -7,3.9 0,0.4 4.8,6.8 10.7,14.2 31.4,39.7 51.5,72.9 52.3,86.5 l 0.4,6.1 -3.9,-8.5 c -8.5,-18.7 -23.4,-40.5 -38.8,-56.8 -8.2,-8.7 -9.5,-9.6 -20.9,-15.2 -23.7,-11.5 -50.9,-18.3 -84.8,-21.1 -7.2,-0.6 -83.7,-7.5 -131.3,0.4 -2,8.6 4.2,17.9 20.5,14.6 30.5,-6.2 128.8,3.9 139.7,5 27.1,2.7 48.8,11.2 63.4,24.8 4.6,4.3 8.6,9.9 7.6,10.9 -0.2,0.2 -3.7,-1.2 -7.8,-3.1 -9.6,-4.6 -25.1,-10 -37.6,-13 -15.7,-3.9 -49.5,-4.6 -150.2,-3.2 -28.5,0.4 -41.9,1 -47.5,1.6 0,0 -0.1,0 -0.1,0 -7.4,-1.6 -18.4,-8.4 -30.2,-19.5 -12,-11.3 -19.8,-20.7 -45.8,-55.5 -12.1,-16.2 -22.7,-29.9 -23.4,-30.5 -1.4,-1.1 -24,-3 -24,-2 0,0.3 17.8,22.7 39.5,49.9 40.9,51.1 49.2,60.2 59.5,65.4 l 5.9,2.9 39.6,1.2 c 84.6,2.6 30.8,3.4 101.6,4.4 78.5,1.2 83.1,1.5 96.9,6.6 8.2,3.1 16.1,8.2 19.6,12.9 1.5,2 2.5,3.8 2.3,4 -0.2,0.2 -6,-1.3 -12.8,-3.5 -22,-7 -19.9,-6.8 -97,-8.1 -90.9,-1.6 -122.6,-1.6 -136.8,-0.1 -12,1.3 -24.2,5.2 -31.2,10 -9.3,6.5 -34,32.3 -50.8,53.2 -8.2,10.2 -45,61.2 -46,63.7 -0.5,1.3 1.1,1.5 9.9,1.5 l 10.5,0 30.2,-37.8 c 28,-35.1 39.7,-48.2 49.9,-56 10.1,-7.7 22,-13.4 35.6,-17.1 1.2,-0.3 0.4,-0.6 -1.6,-0.8 5.8,0.1 13,0.3 21.8,0.5 32.6,0.6 86.3,1.6 119.5,2.1 60.7,0.9 67.1,1.3 80.9,5 7,1.9 18.8,7.5 17.8,8.5 -0.2,0.2 -13,-0.1 -28.5,-0.7 -17.9,-0.7 -48.4,-0.9 -84.7,-0.5 l 0,0 c -31.2,0.4 -102.6,0.6 -102,7.8 -7.7,18 60.3,10.1 105.5,10.4 l 82.3,0.5 -0.3,4.2 c -0.4,7.3 0.3,8.7 6.3,11.3 10.8,4.8 20.2,6.7 35.8,7.2 11.4,0.4 17,0.1 24.6,-1.2 25.2,-4.5 58.5,-19.1 89.1,-39.1 2.8,-1.8 2.7,-1.6 -1.2,3.1 -24.6,29.7 -58.5,45.9 -103.3,49.5 -14.4,1.2 -21.3,2.8 -26.6,6.3 -4.8,3.2 -4.6,6.3 0.6,9.9 6.6,4.7 14.5,6.2 28.1,5.7 z m 242.2,110.8 c -4.3,-8.9 -10.3,-10.1 -29.2,-5.9 -12.6,2.8 -20.2,3.2 -25.6,1.1 -2.1,-0.8 -5.8,-2 -8.3,-2.6 -10.6,-2.7 -21.4,-10.9 -29.6,-22.4 -3.8,-5.3 -20.5,-36.5 -21.8,-40.7 -0.3,-1.1 -3.6,1.4 -11.2,8.4 -5.9,5.4 -10.7,10.3 -10.7,10.9 0,0.5 2.3,3.5 5,6.5 16.4,17.9 29,44.9 32.2,69.2 2.4,17.8 -1.3,52.1 -6.6,62.4 -2.5,4.8 -10,12.5 -18.6,19 -8.3,6.4 -15.1,13.2 -17.5,17.8 -2,3.8 -3.1,10.4 -2.2,13.7 l 0.6,2.6 5.8,-2.9 c 3.2,-1.6 8.3,-3.6 11.4,-4.5 4.6,-1.3 7.1,-3 14.1,-9.6 17.7,-16.6 28.5,-37.6 34.1,-66.4 1.8,-9.5 2,-12.9 1.4,-20.9 -1.2,-14.2 -1.1,-22.8 0.2,-24.1 0.9,-0.9 3.3,-0.6 10,0.9 21.8,5.1 43.5,4.9 60,-0.7 9.3,-3.1 10.1,-4.4 6.5,-11.8 z M 116.5,235.8 c 0,61.6 49.1,111.5 109.7,111.5 60.6,0 109.7,-49.9 109.7,-111.5 0,-61.6 -49.1,-111.5 -109.7,-111.5 -60.6,0 -109.7,49.9 -109.7,111.5 z m 186.8,-0.4 -62.4,35.6 -62.4,35.6 0.9,-72.8 0.9,-72.8 61.5,37.1 61.5,37.3 z M 120.6,601.3 c -19,0 -34.6,-15.7 -34.6,-34.9 0,-19.7 15,-34.8 34.5,-34.8 11.5,0 21.2,4.2 28.2,15.2 l 9.2,0 c -6.3,-14.1 -20.7,-22.7 -37.7,-22.7 -24.4,0 -42.5,18.2 -42.5,42.6 0,23.9 18.5,42.1 43,42.1 16.6,0 29.3,-7.8 37.5,-22.9 l -9.1,0 c -8.7,10.9 -16.6,15.4 -28.5,15.4 z m 90.1,0 c -19,0 -34.6,-15.7 -34.6,-34.9 0,-19.7 15,-34.8 34.5,-34.8 11.5,0 21.2,4.2 28.2,15.2 l 9.2,0 c -6.3,-14.1 -20.7,-22.7 -37.7,-22.7 -24.4,0 -42.5,18.2 -42.5,42.6 0,23.9 18.5,42.1 43,42.1 16.6,0 29.3,-7.8 37.5,-22.9 l -9.1,0 c -8.7,10.9 -16.5,15.4 -28.5,15.4 z m 90.1,0 c -19,0 -34.6,-15.7 -34.6,-34.9 0,-19.7 15,-34.8 34.5,-34.8 11.5,0 21.2,4.2 28.2,15.2 l 9.2,0 c -6.3,-14.1 -20.7,-22.7 -37.7,-22.7 -24.4,0 -42.5,18.2 -42.5,42.6 0,23.9 18.5,42.1 43,42.1 16.6,0 29.3,-7.8 37.5,-22.9 l -9.1,0 c -8.6,10.9 -16.5,15.4 -28.5,15.4 z m 112,-13.5 -22.1,-62.2 -16,0 31.9,81.9 12.4,0 31.7,-81.9 -16,0 -21.9,62.2 z m 81.4,-63.7 c -24.4,0 -43.2,18.5 -43.2,42.4 0,23.6 19.1,42.3 43.1,42.3 23.8,0 42.2,-18.5 42.2,-42.4 0.1,-23.4 -18.7,-42.3 -42.1,-42.3 z m -0.2,70.1 c -15.5,0 -27.7,-12.2 -27.7,-27.7 0,-15.8 12,-27.8 27.7,-27.8 15.2,0 27.1,12.2 27.1,27.9 0,15.8 -11.6,27.6 -27.1,27.6 z m 92.6,-55.5 c 9.5,0 16,3.1 21.5,10.3 l 17,0 c -7.2,-15.8 -22,-24.9 -38.8,-24.9 -23.2,0 -42.1,18.9 -42.1,42.1 0,23.6 19.2,42.6 43.1,42.6 16.7,0 31.4,-9.3 37.8,-24.3 l -17.9,0 c -6.7,7 -12.4,9.6 -20.3,9.6 -15.1,0 -27.5,-12.6 -27.5,-27.9 0,-15.3 11.6,-27.5 27.2,-27.5 z"
           id="path7" />
      </g>
    </g>
  </g>
</svg>
