<?xml version="1.0" encoding="UTF-8" standalone="no"?>
<!-- Created with Inkscape (http://www.inkscape.org/) -->

<svg
   width="1920"
   height="1080"
   viewBox="0 0 1920 1080"
   id="svg2"
   version="1.1"
   inkscape:version="1.1.2 (0a00cf5339, 2022-02-04)"
   sodipodi:docname="bg.svg"
   enable-background="new"
   xmlns:inkscape="http://www.inkscape.org/namespaces/inkscape"
   xmlns:sodipodi="http://sodipodi.sourceforge.net/DTD/sodipodi-0.dtd"
   xmlns="http://www.w3.org/2000/svg"
   xmlns:svg="http://www.w3.org/2000/svg"
   xmlns:rdf="http://www.w3.org/1999/02/22-rdf-syntax-ns#"
   xmlns:cc="http://creativecommons.org/ns#"
   xmlns:dc="http://purl.org/dc/elements/1.1/">
  <defs
     id="defs4">
    <clipPath
       clipPathUnits="userSpaceOnUse"
       id="clipPath18">
      <path
         d="m 312.117,871.087 c -6.264,-1.72 -10.84,-10.647 -14.167,-15.645 l 0,0 c -4.194,-6.302 -7.979,-12.897 -11.534,-19.58 l 0,0 c -6.794,-12.771 -13.065,-25.863 -21.157,-37.891 l 0,0 -14.658,-134.44 c -34.506,-10.769 -67.49,-29.469 -99.699,-48.874 l 0,0 c 12.812,-37.59 55.526,-58.834 95.24,-58.766 l 0,0 c 0.024,0 0.047,0 0.071,0 l 0,0 c -6.665,-0.282 -13.34,-0.125 -19.96,0.504 l 0,0 c 17.08,-29.328 37.542,-57.811 69.853,-68.2 l 0,0 c 26.039,-8.372 54.524,-0.76 79.568,10.242 l 0,0 c 16.073,7.061 37.811,23.424 50.174,37.459 l 0,0 c -5.443,-6.931 -9.356,-11.85 -9.378,-14.226 l 0,0 c -0.036,-4.022 11.889,-7.249 15.319,-7.836 l 0,0 c 4.537,-0.776 55.479,-8.821 65.762,-9.857 l 0,0 c 10.396,-1.048 20.273,-1.879 30.647,-0.162 l 0,0 c 9.775,1.619 19.405,4.609 27.984,9.637 l 0,0 c 9.366,5.488 17.124,13.214 21.752,22.642 l 0,0 c -2.467,-9.581 -5.754,-22.648 -9.272,-36.305 l 0,0 c -0.171,-0.666 -0.311,-1.344 -0.413,-2.024 l 0,0 c -3.39,-22.815 -3.156,-46.468 -3.991,-69.493 l 0,0 c -0.901,-24.858 -1.418,-49.754 -2.83,-74.59 l 0,0 c -0.791,-13.917 -3.767,-27.11 -7.947,-40.362 l 0,0 c -1.785,-5.66 -3.752,-11.282 -5.94,-16.816 l 0,0 c 2.853,8.361 4.713,17.016 5.261,25.851 l 0,0 c 0.555,8.93 -0.352,17.967 -2.745,26.592 l 0,0 c -2.662,9.599 -7.206,18.729 -13.686,26.328 l 0,0 c -1.536,1.801 -2.531,3.044 -3.792,5.045 l 0,0 c -1.313,2.081 -3.691,4.003 -5.535,5.683 l 0,0 c -4.28,3.901 -8.981,7.314 -13.802,10.512 l 0,0 c -8.952,5.937 -18.089,11.527 -28.039,15.555 l 0,0 c -22.597,9.151 -48.915,13.05 -72.999,8.126 l 0,0 c -49.265,-10.074 -94.2,-46.844 -113.089,-93.79 l 0,0 c -7.565,-18.805 -8.616,-45.719 -6.222,-65.756 l 0,0 c 7.2,-60.243 65.422,-100.088 125.514,-108.448 l 0,0 c 24.824,-3.455 52.18,-1.693 76.294,4.869 l 0,0 c 50.617,13.775 89.298,54.937 112.844,99.669 l 0,0 c 2.794,5.307 14.736,24.552 14.675,26.909 l 0,0 c 0.267,-10.318 3.457,-20.545 9.106,-29.184 l 0,0 16.227,92.559 c 1.621,-9.021 7.294,-17.234 15.157,-21.945 l 0,0 0.204,60.905 c 1.41,-9.085 6.602,-14.523 14.491,-19.244 l 0,0 c -4.166,27.38 -4.717,52.34 -2.482,79.945 l 0,0 c 7.063,-4.324 13.65,-8.62 20.658,-10.281 l 0,0 c -3.651,26.792 -12.97,49.694 -16.621,76.487 l 0,0 c 10.534,-8.562 10.319,-10.84 19.664,-11.89 l 0,0 c -3.943,26.189 -16.832,43.539 -29.738,66.666 l 0,0 25.882,-0.923 c -10.728,25.86 -25.45,41.841 -43.486,63.254 l 0,0 c 10.92,0.053 16.559,0.433 26.037,2.489 l 0,0 c -14.416,20.027 -33.431,26.496 -56.345,35.655 l 0,0 c 14.572,6.667 21.146,13.146 30.811,25.412 l 0,0 c -25.908,4.436 -43.613,6.974 -69.672,10.409 l 0,0 c 9.984,6.221 25.959,11.735 32.646,23.966 l 0,0 c -23.093,-0.068 -51.514,-1.99 -74.606,-2.058 l 0,0 c 3.118,9.15 16.024,22.056 15.344,33.286 l 0,0 -67.289,-24.136 c -2.029,7.646 4.971,10.282 1.623,31.588 l 0,0 -54.542,-23.538 c 0,6.9 9.282,21.518 5.236,31.248 l 0,0 c -1.052,2.53 -27.624,-18.934 -36.917,-20.788 l 0,0 c 0,0 19.327,52.162 14.75,52.15 l 0,0 c -15.455,-0.042 -33.75,-18.848 -49.058,-21.738 l 0,0 c -3.6,5.947 -6.717,12.18 -9.698,18.456 l 0,0 c -5.957,12.543 -11.32,25.358 -17.137,37.966 l 0,0 c -2.809,6.088 -5.71,12.138 -8.882,18.045 l 0,0 c -2.044,3.808 -3.89,8.265 -7.717,10.63 l 0,0 c -2.577,1.592 -6.347,2.531 -9.801,2.531 l 0,0 c -1.401,0 -2.751,-0.155 -3.948,-0.484 m 41.469,-271.97 c -2.238,-1.885 -4.527,-3.722 -6.865,-5.509 l 0,0 c 2.327,1.793 4.616,3.631 6.865,5.509 m 85.349,-45.569 c 0,0 0,0 0,0 M 383.533,241.747 c -16.443,19.302 -23.431,46.211 -18.815,71.142 l 0,0 c 4.341,23.447 18.996,45.037 39.804,56.683 l 0,0 c 20.808,11.645 47.481,12.699 68.622,1.67 l 0,0 c 21.142,-11.029 35.713,-34.183 35.364,-58.026 l 0,0 c -0.349,-23.843 -16.558,-46.24 -39.055,-54.146 l 0,0 c -13.248,-4.655 -27.77,-4.347 -39.5,3.375 l 0,0 c -11.729,7.722 -19.3,22.583 -15.553,36.117 l 0,0 c 3.746,13.535 19.143,23.26 32.574,19.157 l 0,0 c 5.156,-1.575 9.602,-4.83 14.374,-7.338 l 0,0 c 6.351,-3.339 14.186,-5.411 20.409,0.204 l 0,0 c 2.348,2.119 3.893,5.052 4.395,8.174 l 0,0 c 1.65,10.257 -5.836,19.545 -14.699,22.812 l 0,0 c -6.84,2.521 -14.529,2.26 -21.749,1.25 l 0,0 c -23.7,-3.318 -46.176,-17.837 -57.931,-38.681 l 0,0 c -11.755,-20.845 -11.322,-48.644 3.051,-67.777 l 0,0 c 7.968,-10.606 19.479,-17.733 32.216,-21.387 l 0,0 c -16.77,4.192 -32.281,13.594 -43.507,26.771 m 146.601,21.02 c 0.24,0.346 0.478,0.693 0.716,1.042 l 0,0 c -2.094,-3.187 -4.311,-6.295 -6.662,-9.313 l 0,0 c -5.252,-6.741 -11.254,-13.003 -17.851,-18.524 l 0,0 c 9.038,7.807 17.014,17.001 23.797,26.795"
         id="path20-4"
         inkscape:connector-curvature="0" />
    </clipPath>
    <clipPath
       clipPathUnits="userSpaceOnUse"
       id="clipPath28">
      <path
         d="m 314.284,874.024 c -6.264,-1.721 -10.84,-10.648 -14.166,-15.645 l 0,0 c -4.194,-6.302 -7.981,-12.897 -11.535,-19.58 l 0,0 c -6.794,-12.772 -13.065,-25.863 -21.157,-37.891 l 0,0 -14.657,-134.44 c -34.506,-10.769 -67.491,-29.47 -99.701,-48.874 l 0,0 c 12.813,-37.59 55.528,-58.835 95.241,-58.767 l 0,0 c 0.017,0 0.031,0 0.048,0 l 0,0 c -6.659,-0.281 -13.323,-0.124 -19.938,0.505 l 0,0 c 17.081,-29.328 37.544,-57.812 69.854,-68.2 l 0,0 c 26.039,-8.373 54.524,-0.761 79.568,10.242 l 0,0 c 16.072,7.06 37.807,23.42 50.171,37.455 l 0,0 c -5.441,-6.928 -9.354,-11.847 -9.375,-14.223 l 0,0 c -0.036,-4.022 11.889,-7.249 15.32,-7.836 l 0,0 c 4.536,-0.776 55.478,-8.82 65.761,-9.857 l 0,0 c 10.396,-1.048 20.273,-1.879 30.647,-0.161 l 0,0 c 9.774,1.618 19.404,4.608 27.984,9.636 l 0,0 c 9.366,5.488 17.124,13.214 21.752,22.642 l 0,0 c -2.467,-9.581 -5.754,-22.647 -9.272,-36.304 l 0,0 c -0.171,-0.666 -0.312,-1.345 -0.413,-2.025 l 0,0 c -3.39,-22.814 -3.157,-46.467 -3.991,-69.492 l 0,0 c -0.902,-24.859 -1.418,-49.754 -2.83,-74.591 l 0,0 c -0.791,-13.916 -3.768,-27.109 -7.947,-40.362 l 0,0 c -1.785,-5.661 -3.753,-11.284 -5.942,-16.82 l 0,0 c 2.854,8.362 4.714,17.02 5.263,25.856 l 0,0 c 0.554,8.929 -0.353,17.967 -2.745,26.592 l 0,0 c -2.662,9.598 -7.206,18.729 -13.686,26.327 l 0,0 c -1.536,1.801 -3.494,3.382 -4.757,5.383 l 0,0 c -1.312,2.081 -2.726,3.665 -4.57,5.345 l 0,0 c -4.28,3.901 -8.981,7.315 -13.802,10.512 l 0,0 c -8.952,5.938 -18.598,10.791 -28.547,14.819 l 0,0 c -22.597,9.149 -47.586,13.078 -71.67,8.153 l 0,0 c -49.265,-10.074 -95.021,-46.134 -113.91,-93.081 l 0,0 c -7.566,-18.804 -8.616,-45.718 -6.222,-65.755 l 0,0 c 7.2,-60.244 65.422,-100.089 125.514,-108.45 l 0,0 c 24.823,-3.453 52.179,-1.692 76.293,4.87 l 0,0 c 50.618,13.775 89.298,54.937 112.845,99.669 l 0,0 c 2.794,5.306 14.736,24.552 14.675,26.91 l 0,0 c 0.266,-10.318 3.457,-20.545 9.105,-29.185 l 0,0 16.228,92.559 c 1.622,-9.021 7.294,-17.234 15.156,-21.944 l 0,0 0.204,60.905 c 1.411,-9.085 6.603,-14.524 14.491,-19.245 l 0,0 c -4.165,27.381 -4.717,52.34 -2.481,79.945 l 0,0 c 7.063,-4.324 13.65,-8.619 20.657,-10.281 l 0,0 c -3.651,26.793 -12.969,49.695 -16.621,76.488 l 0,0 c 10.535,-8.562 10.321,-10.841 19.665,-11.89 l 0,0 c -3.943,26.189 -16.832,43.539 -29.738,66.666 l 0,0 25.881,-0.924 c -10.726,25.861 -25.449,41.842 -43.485,63.255 l 0,0 c 10.92,0.053 16.559,0.433 26.037,2.488 l 0,0 c -14.416,20.028 -33.431,26.496 -56.345,35.655 l 0,0 c 14.571,6.668 21.146,13.147 30.811,25.413 l 0,0 c -25.908,4.436 -43.613,6.973 -69.673,10.409 l 0,0 c 9.985,6.22 25.961,11.735 32.648,23.966 l 0,0 c -23.094,-0.069 -51.515,-1.991 -74.608,-2.06 l 0,0 c 3.119,9.152 16.025,22.058 15.345,33.287 l 0,0 -67.289,-24.135 c -2.03,7.644 4.971,10.282 1.624,31.588 l 0,0 -54.543,-23.538 c 0,6.899 9.282,21.517 5.235,31.248 l 0,0 c -1.052,2.53 -27.623,-18.935 -36.917,-20.789 l 0,0 c 0,0 19.328,52.162 14.751,52.15 l 0,0 c -15.456,-0.043 -33.751,-18.848 -49.059,-21.737 l 0,0 c -3.6,5.946 -6.717,12.18 -9.697,18.454 l 0,0 c -5.958,12.545 -11.32,25.36 -17.137,37.968 l 0,0 c -2.808,6.086 -5.71,12.137 -8.882,18.045 l 0,0 c -2.044,3.808 -3.889,8.265 -7.717,10.63 l 0,0 c -2.577,1.592 -6.347,2.53 -9.801,2.53 l 0,0 c -1.401,0 -2.752,-0.154 -3.948,-0.483 m 41.469,-271.971 c -2.231,-1.88 -4.511,-3.71 -6.842,-5.492 l 0,0 c 2.319,1.787 4.601,3.62 6.842,5.492 m 85.349,-45.569 c 0,0 0,0 0,0 M 385.7,244.684 c -16.443,19.301 -23.431,46.21 -18.815,71.142 l 0,0 c 4.341,23.447 18.996,45.036 39.804,56.681 l 0,0 c 20.807,11.646 47.481,12.699 68.623,1.672 l 0,0 c 21.141,-11.029 35.712,-34.184 35.362,-58.026 l 0,0 C 510.325,292.31 494.456,269.141 471.96,261.234 l 0,0 c -13.249,-4.656 -28.749,-3.925 -40.478,3.797 l 0,0 c -11.73,7.722 -18.663,22.934 -14.915,36.468 l 0,0 c 3.747,13.534 19.144,23.259 32.574,19.157 l 0,0 c 5.156,-1.575 9.602,-4.831 14.374,-7.339 l 0,0 c 6.352,-3.338 14.186,-5.411 20.41,0.205 l 0,0 c 2.347,2.118 3.891,5.052 4.393,8.173 l 0,0 c 1.651,10.257 -5.876,18.554 -14.739,21.821 l 0,0 c -6.84,2.522 -14.381,2.425 -21.601,1.414 l 0,0 c -23.699,-3.317 -46.283,-17.011 -58.038,-37.854 l 0,0 c -11.755,-20.844 -11.323,-48.644 3.051,-67.777 l 0,0 c 7.968,-10.606 19.481,-17.733 32.218,-21.388 l 0,0 c -16.769,4.192 -32.283,13.595 -43.509,26.773 m 146.6,21.019 c 0.248,0.358 0.494,0.716 0.739,1.075 l 0,0 c -2.1,-3.197 -4.324,-6.317 -6.684,-9.346 l 0,0 c -5.241,-6.727 -11.231,-12.977 -17.813,-18.49 l 0,0 c 9.023,7.8 16.985,16.98 23.758,26.761"
         id="path30"
         inkscape:connector-curvature="0" />
    </clipPath>
    <clipPath
       clipPathUnits="userSpaceOnUse"
       id="clipPath1428">
      <path
         d="m 0,1201.89 853.228,0 L 853.228,0 0,0 0,1201.89 Z"
         id="path1430"
         inkscape:connector-curvature="0" />
    </clipPath>
    <clipPath
       clipPathUnits="userSpaceOnUse"
       id="clipPath1436">
      <path
         d="m 153.069,874.507 547.722,0 0,-721.1 -547.722,0 0,721.1 z"
         id="path1438"
         inkscape:connector-curvature="0" />
    </clipPath>
    <radialGradient
       fx="0"
       fy="0"
       cx="0"
       cy="0"
       r="1"
       gradientUnits="userSpaceOnUse"
       gradientTransform="matrix(74.078758,0,0,-59.263008,239.82324,731.99097)"
       spreadMethod="pad"
       id="radialGradient1468">
      <stop
         style="stop-opacity:1;stop-color:#ffffff"
         offset="0"
         id="stop1470" />
      <stop
         style="stop-opacity:1;stop-color:#c4c3c3"
         offset="1"
         id="stop1472" />
    </radialGradient>
    <clipPath
       clipPathUnits="userSpaceOnUse"
       id="clipPath1480">
      <path
         d="m 0,1201.89 853.228,0 L 853.228,0 0,0 0,1201.89 Z"
         id="path1482"
         inkscape:connector-curvature="0" />
    </clipPath>
    <radialGradient
       fx="0"
       fy="0"
       cx="0"
       cy="0"
       r="1"
       gradientUnits="userSpaceOnUse"
       gradientTransform="matrix(74.078758,0,0,-59.263008,324.3374,727.64069)"
       spreadMethod="pad"
       id="radialGradient1516">
      <stop
         style="stop-opacity:1;stop-color:#ffffff"
         offset="0"
         id="stop1518" />
      <stop
         style="stop-opacity:1;stop-color:#c4c3c3"
         offset="1"
         id="stop1520" />
    </radialGradient>
    <clipPath
       clipPathUnits="userSpaceOnUse"
       id="clipPath1528">
      <path
         d="m 0,1201.89 853.228,0 L 853.228,0 0,0 0,1201.89 Z"
         id="path1530"
         inkscape:connector-curvature="0" />
    </clipPath>
    <clipPath
       clipPathUnits="userSpaceOnUse"
       id="clipPath1560">
      <path
         d="m 529.474,574.673 c 6.87,-7.702 13.741,-15.405 20.611,-23.107 l 0,0 c 2.925,-3.279 6.035,-7.149 6.026,-11.402 l 0,0 c -10e-4,-0.461 -0.038,-0.925 -0.116,-1.394 l 0,0 c -0.679,-4.076 -4.235,-6.974 -7.641,-9.312 l 0,0 c -8.134,-5.582 -16.812,-10.954 -24.245,-17.441 l 0,0 c -3.348,-2.922 -15.688,-9.847 -17.856,-11.768 l 0,0 c -10.514,-9.322 -29.698,-8.23 -43.695,-6.992 l 0,0 c -2.978,0.263 -6.376,0.501 -8.544,-1.558 l 0,0 c -1.461,-1.388 -1.959,-3.483 -2.345,-5.461 l 0,0 c -0.541,-2.777 -0.961,-5.706 -0.964,-8.569 l 0,0 c -0.005,-3.924 0.773,-7.721 3.093,-10.826 l 0,0 c 5.5,-7.361 17.621,-6.775 24.515,-0.701 l 0,0 c 3.855,3.397 7.098,8.39 12.216,8.854 l 0,0 c 5.187,0.469 9.462,-4.158 11.606,-8.906 l 0,0 c 2.145,-4.748 3.149,-10.106 6.358,-14.211 l 0,0 c 6.392,-8.178 21.134,-7.2 26.389,1.752 l 0,0 c 1.293,2.202 1.885,4.672 1.889,7.167 l 0,0 c 0.013,7.643 -5.488,15.526 -13.22,16.729 l 0,0 c -0.999,1.438 -1.44,3.117 -1.442,4.842 l 0,0 c -0.002,2.689 1.063,5.487 2.742,7.64 l 0,0 c 2.755,3.534 6.807,5.762 10.671,8.029 l 0,0 c 15.893,9.322 30.475,20.875 43.186,34.214 l 0,0 c 2.132,2.238 4.348,4.93 4.35,7.937 l 0,0 c 0,0.269 -0.017,0.54 -0.054,0.814 l 0,0 c -0.28,2.082 -1.645,3.833 -2.959,5.471 l 0,0 c -9.167,11.424 -18.333,22.849 -27.5,34.273 l 0,0 -23.071,-6.074 z"
         id="path1562"
         inkscape:connector-curvature="0" />
    </clipPath>
    <clipPath
       clipPathUnits="userSpaceOnUse"
       id="clipPath1646">
      <path
         d="m 0,1201.89 853.228,0 L 853.228,0 0,0 0,1201.89 Z"
         id="path1648"
         inkscape:connector-curvature="0" />
    </clipPath>
    <clipPath
       clipPathUnits="userSpaceOnUse"
       id="clipPath1658">
      <path
         d="m 444.813,571.047 c 6.832,-7.66 13.665,-15.32 20.499,-22.979 l 0,0 c 3.241,-3.634 6.709,-7.994 5.908,-12.797 l 0,0 c -0.056,-0.338 -0.132,-0.668 -0.226,-0.99 l 0,0 c -0.987,-3.65 -4.29,-6.315 -7.463,-8.492 l 0,0 c -8.135,-5.582 -16.812,-10.954 -24.246,-17.441 l 0,0 c -3.348,-2.922 -15.687,-9.846 -17.855,-11.769 l 0,0 c -10.514,-9.321 -29.699,-8.229 -43.695,-6.992 l 0,0 c -2.979,0.264 -6.375,0.503 -8.543,-1.557 l 0,0 c -0.945,-0.898 -1.487,-2.091 -1.857,-3.358 l 0,0 c -0.178,-0.638 -0.315,-1.291 -0.44,-1.933 l 0,0 c -1.283,-6.581 -1.885,-14.024 2.129,-19.396 l 0,0 c 5.499,-7.36 17.621,-6.774 24.514,-0.7 l 0,0 c 3.856,3.397 7.099,8.391 12.216,8.854 l 0,0 c 5.189,0.47 9.464,-4.158 11.607,-8.906 l 0,0 c 2.144,-4.747 3.15,-10.106 6.357,-14.211 l 0,0 c 6.393,-8.177 21.135,-7.199 26.39,1.752 l 0,0 c 0.57,0.971 1.003,1.993 1.311,3.046 l 0,0 c 2.398,8.633 -3.607,19.267 -12.691,20.68 l 0,0 c -1.621,2.332 -1.772,5.302 -0.964,8.064 l 0,0 c 0.46,1.658 1.268,3.248 2.313,4.588 l 0,0 c 2.754,3.534 6.806,5.762 10.671,8.029 l 0,0 c 15.893,9.322 30.475,20.875 43.186,34.215 l 0,0 c 1.669,1.751 3.39,3.782 4.06,6.024 l 0,0 c 0.225,0.825 0.306,1.678 0.187,2.556 l 0,0 c -0.279,2.082 -1.644,3.832 -2.959,5.47 l 0,0 c -9.166,11.425 -18.334,22.85 -27.5,34.274 l 0,0 -22.909,-6.031 z"
         id="path1660"
         inkscape:connector-curvature="0" />
    </clipPath>
  </defs>
  <sodipodi:namedview
     id="base"
     pagecolor="#ffffff"
     bordercolor="#666666"
     borderopacity="1.0"
     inkscape:pageopacity="0"
     inkscape:pageshadow="2"
     inkscape:zoom="0.71805506"
     inkscape:cx="1298.6469"
     inkscape:cy="351.64434"
     inkscape:document-units="px"
     inkscape:current-layer="layer3"
     showgrid="false"
     units="px"
     inkscape:window-width="1870"
     inkscape:window-height="1016"
     inkscape:window-x="0"
     inkscape:window-y="0"
     inkscape:window-maximized="1"
     showguides="true"
     inkscape:guide-bbox="true"
     inkscape:snap-global="false"
     inkscape:pagecheckerboard="0">
    <sodipodi:guide
       position="79.389313,583.96947"
       orientation="1,0"
       id="guide5258"
       inkscape:locked="false" />
    <sodipodi:guide
       position="752.5,175"
       orientation="0,1"
       id="guide5684"
       inkscape:locked="false" />
    <sodipodi:guide
       position="622.14288,33.487991"
       orientation="0,1"
       id="guide5686"
       inkscape:locked="false" />
    <sodipodi:guide
       position="512,936"
       orientation="0,1"
       id="guide5806"
       inkscape:locked="false" />
    <sodipodi:guide
       position="1852.7369,1139.6332"
       orientation="1,0"
       id="guide5827"
       inkscape:locked="false" />
    <sodipodi:guide
       position="1482.841,1277.9437"
       orientation="1,0"
       id="guide918" />
  </sodipodi:namedview>
  <metadata
     id="metadata7">
    <rdf:RDF>
      <cc:Work
         rdf:about="">
        <dc:format>image/svg+xml</dc:format>
        <dc:type
           rdf:resource="http://purl.org/dc/dcmitype/StillImage" />
      </cc:Work>
    </rdf:RDF>
  </metadata>
  <g
     inkscape:groupmode="layer"
     id="layer2"
     inkscape:label="Background" />
  <g
     inkscape:groupmode="layer"
     id="layer3"
     inkscape:label="Text"
     style="display:inline">
    <rect
       style="fill:#000000;stroke:#000000;stroke-width:2.50195;fill-opacity:1"
       id="rect1419"
       width="1917.498"
       height="1077.498"
       x="1.2509733"
       y="1.2509733"
       inkscape:export-filename="/home/thorsten/git/voc/intro-outro-generator/hackerhotel2024/artwork/bg.png"
       inkscape:export-xdpi="96"
       inkscape:export-ydpi="96" />
    <g
       id="g3984"
       transform="matrix(0.35798835,0,0,0.35806,1470.0496,-22.882206)"
       inkscape:export-filename="/home/thorsten/git/voc/intro-outro-generator/hackerhotel2024/artwork/bg.png"
       inkscape:export-xdpi="96"
       inkscape:export-ydpi="96">
      <path
         style="fill:#eeee23;fill-opacity:1;fill-rule:nonzero;stroke:none;stroke-width:3.41408"
         d="m 212.06547,284.45341 h -17.60391 v -35.20783 h -52.81173 v 35.20783 h -17.60392 v -83.6319 h 17.60392 v 30.82016 h 52.81173 v -30.82016 h 17.60391 z m 0,0"
         id="path11" />
      <path
         style="fill:#eeee23;fill-opacity:1;fill-rule:nonzero;stroke:none;stroke-width:3.41408"
         d="m 229.66938,200.82151 h 88.01954 v 83.6319 H 300.08501 V 249.24558 H 247.2733 v 35.20783 h -17.60392 v -83.6319 m 17.60392,30.82016 h 52.81171 V 218.43876 H 247.2733 Z m 0,0"
         id="path13" />
      <path
         style="fill:#eeee23;fill-opacity:1;fill-rule:nonzero;stroke:none;stroke-width:3.41408"
         d="m 352.89674,218.43876 v 48.41073 h 70.42902 v 17.60392 h -88.03293 v -83.6319 h 88.03293 v 17.61725 z m 0,0"
         id="path15" />
      <path
         style="fill:#eeee23;fill-opacity:1;fill-rule:nonzero;stroke:none;stroke-width:3.41408"
         d="m 499.90275,240.88376 29.04658,43.56965 H 508.0379 l -23.43189,-35.20783 h -26.07243 v 35.20783 h -17.60391 v -83.61856 h 17.60391 v 30.79351 h 27.05932 l 22.445,-30.79351 h 20.91143 z m 0,0"
         id="path17" />
      <path
         style="fill:#eeee23;fill-opacity:1;fill-rule:nonzero;stroke:none;stroke-width:3.41408"
         d="m 564.15715,249.24558 v 17.60391 h 70.41565 v 17.60392 h -88.01956 v -83.61856 h 88.01956 v 17.60391 h -70.41565 v 13.20291 h 70.41565 v 17.60391 z m 0,0"
         id="path19" />
      <path
         style="fill:#eeee23;fill-opacity:1;fill-rule:nonzero;stroke:none;stroke-width:3.41408"
         d="M 740.19602,249.24558 H 722.5921 l 17.60392,35.20783 h -20.89783 l -17.60391,-35.20783 h -31.91366 v 35.20783 h -17.60391 v -83.61856 h 88.01931 v 48.41073 m -70.4154,-17.60391 h 52.81148 v -13.20291 h -52.81148 z m 0,0"
         id="path21" />
      <path
         style="fill:#eeee23;fill-opacity:1;fill-rule:nonzero;stroke:none;stroke-width:3.41408"
         d="m 145.70405,191.07266 c 0,-3.04065 2.46724,-5.49452 5.50789,-5.49452 3.02733,0 5.49457,2.45387 5.49457,5.49452 0,3.0407 -2.46724,5.50788 -5.49457,5.50788 -3.04065,0 -5.50789,-2.46718 -5.50789,-5.50788"
         id="path23" />
      <path
         style="fill:#eeee23;fill-opacity:1;fill-rule:nonzero;stroke:none;stroke-width:3.41408"
         d="m 103.65469,269.93019 c 0,-3.04067 2.46724,-5.50788 5.49458,-5.50788 3.04065,0 5.50788,2.46721 5.50788,5.50788 0,3.04068 -2.46723,5.49455 -5.50788,5.49455 -3.02734,0 -5.49458,-2.45387 -5.49458,-5.49455"
         id="path25" />
      <path
         style="fill:#eeee23;fill-opacity:1;fill-rule:nonzero;stroke:none;stroke-width:3.41408"
         d="m 155.18615,271.75726 c 0,-3.04068 2.45387,-5.49455 5.49457,-5.49455 3.04065,0 5.50788,2.45387 5.50788,5.49455 0,3.04068 -2.46723,5.50791 -5.50788,5.50791 -3.0407,0 -5.49457,-2.46723 -5.49457,-5.50791"
         id="path27" />
      <path
         style="fill:#eeee23;fill-opacity:1;fill-rule:nonzero;stroke:none;stroke-width:3.41408"
         d="m 205.61069,302.93754 c 0,-3.0407 2.46721,-5.50789 5.50791,-5.50789 3.02731,0 5.49455,2.46719 5.49455,5.50789 0,3.04065 -2.46724,5.49452 -5.49455,5.49452 -3.0407,0 -5.50791,-2.45387 -5.50791,-5.49452"
         id="path29" />
      <path
         style="fill:#eeee23;fill-opacity:1;fill-rule:nonzero;stroke:none;stroke-width:3.41408"
         d="m 269.79831,268.08981 c 0,-3.0407 2.45387,-5.49457 5.49452,-5.49457 3.04071,0 5.50789,2.45387 5.50789,5.49457 0,3.04065 -2.46718,5.50788 -5.50789,5.50788 -3.04065,0 -5.49452,-2.46723 -5.49452,-5.50788"
         id="path31" />
      <path
         style="fill:#eeee23;fill-opacity:1;fill-rule:nonzero;stroke:none;stroke-width:3.41408"
         d="m 196.4353,172.73527 c 0,-3.0407 2.46723,-5.49457 5.50794,-5.49457 3.04065,0 5.50788,2.45387 5.50788,5.49457 0,3.04065 -2.46723,5.49454 -5.50788,5.49454 -3.04071,0 -5.50794,-2.45389 -5.50794,-5.49454"
         id="path33" />
      <path
         style="fill:#eeee23;fill-opacity:1;fill-rule:nonzero;stroke:none;stroke-width:3.41408"
         d="m 304.63268,172.73527 c 0,-3.0407 2.46724,-5.49457 5.50789,-5.49457 3.0407,0 5.49457,2.45387 5.49457,5.49457 0,3.04065 -2.45387,5.49454 -5.49457,5.49454 -3.04065,0 -5.50789,-2.45389 -5.50789,-5.49454"
         id="path35" />
      <path
         style="fill:#eeee23;fill-opacity:1;fill-rule:nonzero;stroke:none;stroke-width:3.41408"
         d="m 744.75716,262.90194 c 0,-3.04065 2.46711,-5.50788 5.49447,-5.50788 3.04067,0 5.50804,2.46723 5.50804,5.50788 0,3.02736 -2.46737,5.49457 -5.50804,5.49457 -3.02736,0 -5.49447,-2.46721 -5.49447,-5.49457"
         id="path37" />
      <path
         style="fill:#eeee23;fill-opacity:1;fill-rule:nonzero;stroke:none;stroke-width:3.41408"
         d="m 321.14302,295.60256 c 0,-3.0407 2.46721,-5.50789 5.49455,-5.50789 3.0407,0 5.50789,2.46719 5.50789,5.50789 0,3.04065 -2.46719,5.49454 -5.50789,5.49454 -3.02734,0 -5.49455,-2.45389 -5.49455,-5.49454"
         id="path39" />
      <path
         style="fill:#eeee23;fill-opacity:1;fill-rule:nonzero;stroke:none;stroke-width:3.41408"
         d="m 532.02995,295.90929 c 0,-3.04068 2.46711,-5.50789 5.50778,-5.50789 3.04068,0 5.49473,2.46721 5.49473,5.50789 0,3.04068 -2.45405,5.49457 -5.49473,5.49457 -3.04067,0 -5.50778,-2.45389 -5.50778,-5.49457"
         id="path41" />
      <path
         style="fill:#eeee23;fill-opacity:1;fill-rule:nonzero;stroke:none;stroke-width:3.41408"
         d="m 466.0152,306.91175 c 0,-3.0407 2.4539,-5.50789 5.50789,-5.50789 3.02736,0 5.49457,2.46719 5.49457,5.50789 0,3.04065 -2.46721,5.49452 -5.49457,5.49452 -3.05399,0 -5.50789,-2.45387 -5.50789,-5.49452"
         id="path43" />
      <path
         style="fill:#eeee23;fill-opacity:1;fill-rule:nonzero;stroke:none;stroke-width:3.41408"
         d="m 468.76249,205.74262 c 0,-3.04071 2.46724,-5.49458 5.50789,-5.49458 3.02736,0 5.49457,2.45387 5.49457,5.49458 0,3.04065 -2.46721,5.49452 -5.49457,5.49452 -3.04065,0 -5.50789,-2.45387 -5.50789,-5.49452"
         id="path45" />
      <path
         style="fill:#eeee23;fill-opacity:1;fill-rule:nonzero;stroke:none;stroke-width:3.41408"
         d="m 590.70949,189.53898 c 0,-3.02734 2.46736,-5.49452 5.50804,-5.49452 3.04067,0 5.50778,2.45387 5.50778,5.49452 0,3.0407 -2.46711,5.50788 -5.50778,5.50788 -3.04068,0 -5.50804,-2.46718 -5.50804,-5.50788"
         id="path47" />
      <path
         style="fill:#eeee23;fill-opacity:1;fill-rule:nonzero;stroke:none;stroke-width:3.41408"
         d="m 559.54275,173.042 c 0,-3.04068 2.4538,-5.50789 5.49447,-5.50789 3.04068,0 5.50778,2.46721 5.50778,5.50789 0,3.04067 -2.4671,5.49457 -5.50778,5.49457 -3.04067,0 -5.49447,-2.4539 -5.49447,-5.49457"
         id="path49" />
      <path
         style="fill:#eeee23;fill-opacity:1;fill-rule:nonzero;stroke:none;stroke-width:3.41408"
         d="m 711.74989,184.04446 c 0,-3.0407 2.45379,-5.49457 5.49447,-5.49457 3.04067,0 5.50778,2.45387 5.50778,5.49457 0,3.04065 -2.46711,5.49452 -5.50778,5.49452 -3.04068,0 -5.49447,-2.45387 -5.49447,-5.49452"
         id="path51" />
      <path
         style="fill:#eeee23;fill-opacity:1;fill-rule:nonzero;stroke:none;stroke-width:3.41408"
         d="m 390.82517,247.49856 c 0,-3.0407 2.46721,-5.50791 5.50791,-5.50791 3.02731,0 5.49455,2.46721 5.49455,5.50791 0,3.02731 -2.46724,5.49454 -5.49455,5.49454 -3.0407,0 -5.50791,-2.46723 -5.50791,-5.49454"
         id="path53" />
      <path
         style="fill:#eeee23;fill-opacity:1;fill-rule:nonzero;stroke:none;stroke-width:3.41408"
         d="m 365.1528,187.40518 c 0,-3.04065 2.46721,-5.49455 5.50789,-5.49455 3.02733,0 5.49457,2.4539 5.49457,5.49455 0,3.0407 -2.46724,5.49457 -5.49457,5.49457 -3.04068,0 -5.50789,-2.45387 -5.50789,-5.49457"
         id="path55" />
      <path
         style="fill:#eeee23;fill-opacity:1;fill-rule:nonzero;stroke:none;stroke-width:3.41408"
         d="m 83.663589,242.41739 c 0,-3.04065 2.467211,-5.49452 5.507912,-5.49452 3.02731,0 5.494546,2.45387 5.494546,5.49452 0,3.0407 -2.467236,5.50794 -5.494546,5.50794 -3.040701,0 -5.507912,-2.46724 -5.507912,-5.50794"
         id="path57" />
      <path
         style="fill:none;stroke:#eeee23;stroke-width:2.29086;stroke-linecap:butt;stroke-linejoin:miter;stroke-miterlimit:10;stroke-opacity:1"
         d="M 151.89208,190.91262 135.47512,173.042 h -25.21895 l -19.257626,16.80371 v 20.79131 l 18.337416,18.4841 v 40.19561"
         id="path59" />
      <path
         style="fill:none;stroke:#eeee23;stroke-width:2.29086;stroke-linecap:butt;stroke-linejoin:miter;stroke-miterlimit:10;stroke-opacity:1"
         d="m 89.171476,241.80393 v 44.00978 l 13.749744,13.76306 h 47.67726 l 10.08224,-13.89642 v -14.53658"
         id="path61" />
      <path
         style="fill:none;stroke:#eeee23;stroke-width:2.29086;stroke-linecap:butt;stroke-linejoin:miter;stroke-miterlimit:10;stroke-opacity:1"
         d="m 211.11857,303.24424 h 38.5019 l 13.74972,-13.14957 v -10.22896 l 9.48212,-9.93552"
         id="path63" />
      <path
         style="fill:none;stroke:#eeee23;stroke-width:2.29086;stroke-linecap:butt;stroke-linejoin:miter;stroke-miterlimit:10;stroke-opacity:1"
         d="m 201.94321,173.042 h 18.33741 l 14.36318,7.33495 h 42.48944 l 7.80175,7.33496 h 85.7257"
         id="path65" />
      <path
         style="fill:none;stroke:#eeee23;stroke-width:2.29086;stroke-linecap:butt;stroke-linejoin:miter;stroke-miterlimit:10;stroke-opacity:1"
         d="m 396.33306,248.23203 h 22.00489 l 11.90933,-13.76306 V 192.29963 L 410.2295,173.042 H 310.14059"
         id="path67" />
      <path
         style="fill:none;stroke:#eeee23;stroke-width:2.29086;stroke-linecap:butt;stroke-linejoin:miter;stroke-miterlimit:10;stroke-opacity:1"
         d="m 328.47798,295.90929 h 93.8342 l 6.72149,11.00246 h 42.48945"
         id="path69" />
      <path
         style="fill:none;stroke:#eeee23;stroke-width:2.29086;stroke-linecap:butt;stroke-linejoin:miter;stroke-miterlimit:10;stroke-opacity:1"
         d="m 537.53773,295.90929 h 104.52986 l 10.08224,11.00246 h 28.41975 l 10.24228,-11.00246 h 61.02681 l 11.06908,-5.96131 0.18692,-14.89665 -11.61602,-11.26919"
         id="path71" />
      <path
         style="fill:none;stroke:#eeee23;stroke-width:2.29086;stroke-linecap:butt;stroke-linejoin:miter;stroke-miterlimit:10;stroke-opacity:1"
         d="m 474.27038,205.12913 v -23.83196 l 12.68283,-8.25517 h 23.07177 l 22.00497,16.51034 h 60.52007"
         id="path73" />
      <path
         style="fill:none;stroke:#eeee23;stroke-width:2.29086;stroke-linecap:butt;stroke-linejoin:miter;stroke-miterlimit:10;stroke-opacity:1"
         d="m 568.70472,173.042 h 42.18256 l 10.389,11.00246 h 95.96808"
         id="path75" />
      <path
         style="fill:#eeee23;fill-opacity:1;fill-rule:nonzero;stroke:none;stroke-width:3.41408"
         d="m 624.10366,435.47364 h -17.67049 v -35.35452 h -53.05192 v 35.35452 h -17.67048 v -83.97867 h 17.67048 v 30.9402 h 53.05192 v -30.9402 h 17.67049 z m 0,0"
         id="path77" />
      <path
         style="fill:#eeee23;fill-opacity:1;fill-rule:nonzero;stroke:none;stroke-width:3.41408"
         d="m 730.19392,435.47364 h -88.4062 v -83.97867 h 88.4062 z m -70.7224,-17.67059 h 53.03834 V 369.1789 h -53.03834 z m 0,0"
         id="path79" />
      <path
         style="fill:#eeee23;fill-opacity:1;fill-rule:nonzero;stroke:none;stroke-width:3.41408"
         d="m 836.27087,369.1789 h -35.35455 v 66.29474 H 783.23227 V 369.1789 h -35.36786 v -17.68393 h 88.40646 z m 0,0"
         id="path81" />
      <path
         style="fill:#eeee23;fill-opacity:1;fill-rule:nonzero;stroke:none;stroke-width:3.41408"
         d="m 871.62541,400.11912 v 17.68393 h 70.72241 v 17.67059 h -88.39315 v -83.97867 h 88.39315 v 17.68393 h -70.72241 v 13.25627 h 70.72241 v 17.68395 z m 0,0"
         id="path83" />
      <path
         style="fill:#eeee23;fill-opacity:1;fill-rule:nonzero;stroke:none;stroke-width:3.41408"
         d="m 960.03162,435.47364 v -83.97867 h 17.68406 v 66.30808 h 70.72242 v 17.67059 z m 0,0"
         id="path85" />
      <path
         style="fill:#eeee23;fill-opacity:1;fill-rule:nonzero;stroke:none;stroke-width:3.41408"
         d="m 557.10202,342.01287 c 0,-3.05401 2.48068,-5.53454 5.52135,-5.53454 3.05399,0 5.53442,2.48053 5.53442,5.53454 0,3.04065 -2.48043,5.52123 -5.53442,5.52123 -3.04067,0 -5.52135,-2.48058 -5.52135,-5.52123"
         id="path87" />
      <path
         style="fill:#eeee23;fill-opacity:1;fill-rule:nonzero;stroke:none;stroke-width:3.41408"
         d="m 610.51395,327.27626 c 0,-3.05402 2.46736,-5.5212 5.52136,-5.5212 3.05399,0 5.52109,2.46718 5.52109,5.5212 0,3.05399 -2.4671,5.52123 -5.52109,5.52123 -3.054,0 -5.52136,-2.46724 -5.52136,-5.52123"
         id="path89" />
      <path
         style="fill:#eeee23;fill-opacity:1;fill-rule:nonzero;stroke:none;stroke-width:3.41408"
         d="m 811.26538,338.33203 c 0,-3.05399 2.4671,-5.53454 5.5211,-5.53454 3.05399,0 5.52109,2.48055 5.52109,5.53454 0,3.0407 -2.4671,5.52125 -5.52109,5.52125 -3.054,0 -5.5211,-2.48055 -5.5211,-5.52125"
         id="path91" />
      <path
         style="fill:#eeee23;fill-opacity:1;fill-rule:nonzero;stroke:none;stroke-width:3.41408"
         d="m 859.14264,327.27626 c 0,-3.05402 2.48042,-5.5212 5.5211,-5.5212 3.05399,0 5.52135,2.46718 5.52135,5.5212 0,3.05399 -2.46736,5.52123 -5.52135,5.52123 -3.04068,0 -5.5211,-2.46724 -5.5211,-5.52123"
         id="path93" />
      <path
         style="fill:#eeee23;fill-opacity:1;fill-rule:nonzero;stroke:none;stroke-width:3.41408"
         d="m 1015.684,377.00732 c 0,-3.05401 2.4805,-5.53456 5.5211,-5.53456 3.054,0 5.5347,2.48055 5.5347,5.53456 0,3.04065 -2.4673,5.52123 -5.5347,5.52123 -3.0406,0 -5.5211,-2.48058 -5.5211,-5.52123"
         id="path95" />
      <path
         style="fill:#eeee23;fill-opacity:1;fill-rule:nonzero;stroke:none;stroke-width:3.41408"
         d="m 513.21238,420.89706 c 0,-3.05399 2.46721,-5.52122 5.52123,-5.52122 3.05401,0 5.53449,2.46723 5.53449,5.52122 0,3.05402 -2.48048,5.52126 -5.53449,5.52126 -3.05402,0 -5.52123,-2.46724 -5.52123,-5.52126"
         id="path97" />
      <path
         style="fill:#eeee23;fill-opacity:1;fill-rule:nonzero;stroke:none;stroke-width:3.41408"
         d="m 588.72248,422.73747 c 0,-3.05401 2.48043,-5.52122 5.52136,-5.52122 3.05399,0 5.5211,2.46721 5.5211,5.52122 0,3.05402 -2.46711,5.52123 -5.5211,5.52123 -3.04093,0 -5.52136,-2.46721 -5.52136,-5.52123"
         id="path99" />
      <path
         style="fill:#eeee23;fill-opacity:1;fill-rule:nonzero;stroke:none;stroke-width:3.41408"
         d="m 611.74098,454.35784 c 0,-3.05402 2.48042,-5.53454 5.52109,-5.53454 3.05399,0 5.52136,2.48052 5.52136,5.53454 0,3.04065 -2.46737,5.52122 -5.52136,5.52122 -3.04067,0 -5.52109,-2.48057 -5.52109,-5.52122"
         id="path101" />
      <path
         style="fill:#eeee23;fill-opacity:1;fill-rule:nonzero;stroke:none;stroke-width:3.41408"
         d="m 709.34935,446.98286 c 0,-3.05402 2.48043,-5.5212 5.5211,-5.5212 3.05399,0 5.53467,2.46718 5.53467,5.5212 0,3.05399 -2.48068,5.53457 -5.53467,5.53457 -3.04067,0 -5.5211,-2.48058 -5.5211,-5.53457"
         id="path103" />
      <path
         style="fill:#eeee23;fill-opacity:1;fill-rule:nonzero;stroke:none;stroke-width:3.41408"
         d="m 492.95454,393.26427 c 0,-3.0407 2.46721,-5.52125 5.5212,-5.52125 3.05404,0 5.52125,2.48055 5.52125,5.52125 0,3.05399 -2.46721,5.53455 -5.52125,5.53455 -3.05399,0 -5.5212,-2.48056 -5.5212,-5.53455"
         id="path105" />
      <path
         style="fill:none;stroke:#eeee23;stroke-width:2.3011;stroke-linecap:butt;stroke-linejoin:miter;stroke-miterlimit:10;stroke-opacity:1"
         d="M 561.47649,341.54611 544.97952,323.59544 H 519.6538 l -19.33762,16.87041 v 20.88464 l 18.41743,18.56413 v 40.36898"
         id="path107" />
      <path
         style="fill:none;stroke:#eeee23;stroke-width:2.3011;stroke-linecap:butt;stroke-linejoin:miter;stroke-miterlimit:10;stroke-opacity:1"
         d="m 498.47577,392.65079 v 44.20983 l 13.81639,13.80306 h 71.81592 l 10.1355,-13.94978 v -14.58991"
         id="path109" />
      <path
         style="fill:#eeee23;fill-opacity:1;fill-rule:nonzero;stroke:none;stroke-width:3.41408"
         d="m 985.61068,461.71947 c 0,3.05402 -2.48068,5.52123 -5.53467,5.52123 -3.04068,0 -5.5211,-2.46721 -5.5211,-5.52123 0,-3.05401 2.48042,-5.52122 5.5211,-5.52122 3.05399,0 5.53467,2.46721 5.53467,5.52122"
         id="path111" />
      <path
         style="fill:#eeee23;fill-opacity:1;fill-rule:nonzero;stroke:none;stroke-width:3.41408"
         d="m 1011.3897,446.98286 c 0,3.05399 -2.4807,5.53457 -5.5211,5.53457 -3.0542,0 -5.5213,-2.48058 -5.5213,-5.53457 0,-3.05402 2.4671,-5.5212 5.5213,-5.5212 3.0404,0 5.5211,2.46718 5.5211,5.5212"
         id="path113" />
      <path
         style="fill:#eeee23;fill-opacity:1;fill-rule:nonzero;stroke:none;stroke-width:3.41408"
         d="m 1050.0651,338.33203 c 0,3.0407 -2.4807,5.52125 -5.5214,5.52125 -3.054,0 -5.5211,-2.48055 -5.5211,-5.52125 0,-3.05399 2.4671,-5.53454 5.5211,-5.53454 3.0407,0 5.5214,2.48055 5.5214,5.53454"
         id="path115" />
      <path
         style="fill:#eeee23;fill-opacity:1;fill-rule:nonzero;stroke:none;stroke-width:3.41408"
         d="m 687.25113,461.71947 c 0,3.05402 -2.48068,5.52123 -5.52135,5.52123 -3.05399,0 -5.53442,-2.46721 -5.53442,-5.52123 0,-3.05401 2.48043,-5.52122 5.53442,-5.52122 3.04067,0 5.52135,2.46721 5.52135,5.52122"
         id="path117" />
      <path
         style="fill:#eeee23;fill-opacity:1;fill-rule:nonzero;stroke:none;stroke-width:3.41408"
         d="m 770.12267,385.90264 c 0,3.05399 -2.46711,5.52122 -5.5211,5.52122 -3.05399,0 -5.52136,-2.46723 -5.52136,-5.52122 0,-3.05402 2.46737,-5.52125 5.52136,-5.52125 3.05399,0 5.5211,2.46723 5.5211,5.52125"
         id="path119" />
      <path
         style="fill:#eeee23;fill-opacity:1;fill-rule:nonzero;stroke:none;stroke-width:3.41408"
         d="m 804.19693,454.05111 c 0,3.04067 -2.46711,5.5212 -5.5211,5.5212 -3.05399,0 -5.52136,-2.48053 -5.52136,-5.5212 0,-3.05405 2.46737,-5.53457 5.52136,-5.53457 3.05399,0 5.5211,2.48052 5.5211,5.53457"
         id="path121" />
      <path
         style="fill:none;stroke:#eeee23;stroke-width:2.3011;stroke-linecap:butt;stroke-linejoin:miter;stroke-miterlimit:10;stroke-opacity:1"
         d="m 980.07601,461.71947 h -34.98096 l -8.89541,-7.36163 h -42.67598 l -7.82843,-5.5346 h -36.38159 l -9.81543,11.0558 h -18.4174 l -7.6684,-5.82796 -11.6027,-0.61343"
         id="path123" />
      <path
         style="fill:none;stroke:#eeee23;stroke-width:2.3011;stroke-linecap:butt;stroke-linejoin:miter;stroke-miterlimit:10;stroke-opacity:1"
         d="m 762.76103,387.90306 -9.82874,7.44165 0.31981,20.13783 9.50893,8.69523 -0.22789,24.21873 -6.37454,13.32297 h -74.42985"
         id="path125" />
      <path
         style="fill:none;stroke:#eeee23;stroke-width:2.3011;stroke-linecap:butt;stroke-linejoin:miter;stroke-miterlimit:10;stroke-opacity:1"
         d="m 615.42179,327.27626 h 38.67509 l 12.89631,11.04245 H 818.0135"
         id="path127" />
      <path
         style="fill:none;stroke:#eeee23;stroke-width:2.3011;stroke-linecap:butt;stroke-linejoin:miter;stroke-miterlimit:10;stroke-opacity:1"
         d="m 1005.8686,446.98286 h 46.0367 l 8.2953,-13.34963 v -77.81728 l -15.9368,-17.76397"
         id="path129" />
      <path
         style="fill:none;stroke:#eeee23;stroke-width:2.3011;stroke-linecap:butt;stroke-linejoin:miter;stroke-miterlimit:10;stroke-opacity:1"
         d="M 1022.0186,377.71414 988.07779,343.85328 H 922.98351 L 906.60637,327.27626 H 867.74436"
         id="path131" />
      <path
         style="fill:none;stroke:#eeee23;stroke-width:2.3011;stroke-linecap:butt;stroke-linejoin:miter;stroke-miterlimit:10;stroke-opacity:1"
         d="m 617.26207,454.35784 h 34.99453 l 13.50956,-7.37498 h 47.26401"
         id="path133" />
    </g>
  </g>
  <g
     inkscape:groupmode="layer"
     id="layer1"
     inkscape:label="FadeOutLayer"
     style="display:inline">
    <rect
       style="fill:#000000;fill-opacity:1;opacity:0"
       id="fadeout"
       width="1932.7112"
       height="1092.9814"
       x="-4.4430141"
       y="-1.8739687"
       inkscape:label="#fadeout" />
  </g>
</svg>
