<?xml version="1.0" encoding="UTF-8" standalone="no"?>
<!-- Created with Inkscape (http://www.inkscape.org/) -->

<svg
   width="1920"
   height="1080"
   viewBox="0 0 1920 1080"
   id="svg2"
   version="1.1"
   inkscape:version="1.1.2 (0a00cf5339, 2022-02-04)"
   sodipodi:docname="overlay-repair.svg"
   enable-background="new"
   inkscape:export-filename="/home/thorsten/git/voc/intro-outro-generator/hackerhotel2024/artwork/overlay-repair.png"
   inkscape:export-xdpi="96"
   inkscape:export-ydpi="96"
   xmlns:inkscape="http://www.inkscape.org/namespaces/inkscape"
   xmlns:sodipodi="http://sodipodi.sourceforge.net/DTD/sodipodi-0.dtd"
   xmlns="http://www.w3.org/2000/svg"
   xmlns:svg="http://www.w3.org/2000/svg"
   xmlns:rdf="http://www.w3.org/1999/02/22-rdf-syntax-ns#"
   xmlns:cc="http://creativecommons.org/ns#"
   xmlns:dc="http://purl.org/dc/elements/1.1/">
  <defs
     id="defs4">
    <clipPath
       clipPathUnits="userSpaceOnUse"
       id="clipPath18">
      <path
         d="m 312.117,871.087 c -6.264,-1.72 -10.84,-10.647 -14.167,-15.645 l 0,0 c -4.194,-6.302 -7.979,-12.897 -11.534,-19.58 l 0,0 c -6.794,-12.771 -13.065,-25.863 -21.157,-37.891 l 0,0 -14.658,-134.44 c -34.506,-10.769 -67.49,-29.469 -99.699,-48.874 l 0,0 c 12.812,-37.59 55.526,-58.834 95.24,-58.766 l 0,0 c 0.024,0 0.047,0 0.071,0 l 0,0 c -6.665,-0.282 -13.34,-0.125 -19.96,0.504 l 0,0 c 17.08,-29.328 37.542,-57.811 69.853,-68.2 l 0,0 c 26.039,-8.372 54.524,-0.76 79.568,10.242 l 0,0 c 16.073,7.061 37.811,23.424 50.174,37.459 l 0,0 c -5.443,-6.931 -9.356,-11.85 -9.378,-14.226 l 0,0 c -0.036,-4.022 11.889,-7.249 15.319,-7.836 l 0,0 c 4.537,-0.776 55.479,-8.821 65.762,-9.857 l 0,0 c 10.396,-1.048 20.273,-1.879 30.647,-0.162 l 0,0 c 9.775,1.619 19.405,4.609 27.984,9.637 l 0,0 c 9.366,5.488 17.124,13.214 21.752,22.642 l 0,0 c -2.467,-9.581 -5.754,-22.648 -9.272,-36.305 l 0,0 c -0.171,-0.666 -0.311,-1.344 -0.413,-2.024 l 0,0 c -3.39,-22.815 -3.156,-46.468 -3.991,-69.493 l 0,0 c -0.901,-24.858 -1.418,-49.754 -2.83,-74.59 l 0,0 c -0.791,-13.917 -3.767,-27.11 -7.947,-40.362 l 0,0 c -1.785,-5.66 -3.752,-11.282 -5.94,-16.816 l 0,0 c 2.853,8.361 4.713,17.016 5.261,25.851 l 0,0 c 0.555,8.93 -0.352,17.967 -2.745,26.592 l 0,0 c -2.662,9.599 -7.206,18.729 -13.686,26.328 l 0,0 c -1.536,1.801 -2.531,3.044 -3.792,5.045 l 0,0 c -1.313,2.081 -3.691,4.003 -5.535,5.683 l 0,0 c -4.28,3.901 -8.981,7.314 -13.802,10.512 l 0,0 c -8.952,5.937 -18.089,11.527 -28.039,15.555 l 0,0 c -22.597,9.151 -48.915,13.05 -72.999,8.126 l 0,0 c -49.265,-10.074 -94.2,-46.844 -113.089,-93.79 l 0,0 c -7.565,-18.805 -8.616,-45.719 -6.222,-65.756 l 0,0 c 7.2,-60.243 65.422,-100.088 125.514,-108.448 l 0,0 c 24.824,-3.455 52.18,-1.693 76.294,4.869 l 0,0 c 50.617,13.775 89.298,54.937 112.844,99.669 l 0,0 c 2.794,5.307 14.736,24.552 14.675,26.909 l 0,0 c 0.267,-10.318 3.457,-20.545 9.106,-29.184 l 0,0 16.227,92.559 c 1.621,-9.021 7.294,-17.234 15.157,-21.945 l 0,0 0.204,60.905 c 1.41,-9.085 6.602,-14.523 14.491,-19.244 l 0,0 c -4.166,27.38 -4.717,52.34 -2.482,79.945 l 0,0 c 7.063,-4.324 13.65,-8.62 20.658,-10.281 l 0,0 c -3.651,26.792 -12.97,49.694 -16.621,76.487 l 0,0 c 10.534,-8.562 10.319,-10.84 19.664,-11.89 l 0,0 c -3.943,26.189 -16.832,43.539 -29.738,66.666 l 0,0 25.882,-0.923 c -10.728,25.86 -25.45,41.841 -43.486,63.254 l 0,0 c 10.92,0.053 16.559,0.433 26.037,2.489 l 0,0 c -14.416,20.027 -33.431,26.496 -56.345,35.655 l 0,0 c 14.572,6.667 21.146,13.146 30.811,25.412 l 0,0 c -25.908,4.436 -43.613,6.974 -69.672,10.409 l 0,0 c 9.984,6.221 25.959,11.735 32.646,23.966 l 0,0 c -23.093,-0.068 -51.514,-1.99 -74.606,-2.058 l 0,0 c 3.118,9.15 16.024,22.056 15.344,33.286 l 0,0 -67.289,-24.136 c -2.029,7.646 4.971,10.282 1.623,31.588 l 0,0 -54.542,-23.538 c 0,6.9 9.282,21.518 5.236,31.248 l 0,0 c -1.052,2.53 -27.624,-18.934 -36.917,-20.788 l 0,0 c 0,0 19.327,52.162 14.75,52.15 l 0,0 c -15.455,-0.042 -33.75,-18.848 -49.058,-21.738 l 0,0 c -3.6,5.947 -6.717,12.18 -9.698,18.456 l 0,0 c -5.957,12.543 -11.32,25.358 -17.137,37.966 l 0,0 c -2.809,6.088 -5.71,12.138 -8.882,18.045 l 0,0 c -2.044,3.808 -3.89,8.265 -7.717,10.63 l 0,0 c -2.577,1.592 -6.347,2.531 -9.801,2.531 l 0,0 c -1.401,0 -2.751,-0.155 -3.948,-0.484 m 41.469,-271.97 c -2.238,-1.885 -4.527,-3.722 -6.865,-5.509 l 0,0 c 2.327,1.793 4.616,3.631 6.865,5.509 m 85.349,-45.569 c 0,0 0,0 0,0 M 383.533,241.747 c -16.443,19.302 -23.431,46.211 -18.815,71.142 l 0,0 c 4.341,23.447 18.996,45.037 39.804,56.683 l 0,0 c 20.808,11.645 47.481,12.699 68.622,1.67 l 0,0 c 21.142,-11.029 35.713,-34.183 35.364,-58.026 l 0,0 c -0.349,-23.843 -16.558,-46.24 -39.055,-54.146 l 0,0 c -13.248,-4.655 -27.77,-4.347 -39.5,3.375 l 0,0 c -11.729,7.722 -19.3,22.583 -15.553,36.117 l 0,0 c 3.746,13.535 19.143,23.26 32.574,19.157 l 0,0 c 5.156,-1.575 9.602,-4.83 14.374,-7.338 l 0,0 c 6.351,-3.339 14.186,-5.411 20.409,0.204 l 0,0 c 2.348,2.119 3.893,5.052 4.395,8.174 l 0,0 c 1.65,10.257 -5.836,19.545 -14.699,22.812 l 0,0 c -6.84,2.521 -14.529,2.26 -21.749,1.25 l 0,0 c -23.7,-3.318 -46.176,-17.837 -57.931,-38.681 l 0,0 c -11.755,-20.845 -11.322,-48.644 3.051,-67.777 l 0,0 c 7.968,-10.606 19.479,-17.733 32.216,-21.387 l 0,0 c -16.77,4.192 -32.281,13.594 -43.507,26.771 m 146.601,21.02 c 0.24,0.346 0.478,0.693 0.716,1.042 l 0,0 c -2.094,-3.187 -4.311,-6.295 -6.662,-9.313 l 0,0 c -5.252,-6.741 -11.254,-13.003 -17.851,-18.524 l 0,0 c 9.038,7.807 17.014,17.001 23.797,26.795"
         id="path20-4"
         inkscape:connector-curvature="0" />
    </clipPath>
    <clipPath
       clipPathUnits="userSpaceOnUse"
       id="clipPath28">
      <path
         d="m 314.284,874.024 c -6.264,-1.721 -10.84,-10.648 -14.166,-15.645 l 0,0 c -4.194,-6.302 -7.981,-12.897 -11.535,-19.58 l 0,0 c -6.794,-12.772 -13.065,-25.863 -21.157,-37.891 l 0,0 -14.657,-134.44 c -34.506,-10.769 -67.491,-29.47 -99.701,-48.874 l 0,0 c 12.813,-37.59 55.528,-58.835 95.241,-58.767 l 0,0 c 0.017,0 0.031,0 0.048,0 l 0,0 c -6.659,-0.281 -13.323,-0.124 -19.938,0.505 l 0,0 c 17.081,-29.328 37.544,-57.812 69.854,-68.2 l 0,0 c 26.039,-8.373 54.524,-0.761 79.568,10.242 l 0,0 c 16.072,7.06 37.807,23.42 50.171,37.455 l 0,0 c -5.441,-6.928 -9.354,-11.847 -9.375,-14.223 l 0,0 c -0.036,-4.022 11.889,-7.249 15.32,-7.836 l 0,0 c 4.536,-0.776 55.478,-8.82 65.761,-9.857 l 0,0 c 10.396,-1.048 20.273,-1.879 30.647,-0.161 l 0,0 c 9.774,1.618 19.404,4.608 27.984,9.636 l 0,0 c 9.366,5.488 17.124,13.214 21.752,22.642 l 0,0 c -2.467,-9.581 -5.754,-22.647 -9.272,-36.304 l 0,0 c -0.171,-0.666 -0.312,-1.345 -0.413,-2.025 l 0,0 c -3.39,-22.814 -3.157,-46.467 -3.991,-69.492 l 0,0 c -0.902,-24.859 -1.418,-49.754 -2.83,-74.591 l 0,0 c -0.791,-13.916 -3.768,-27.109 -7.947,-40.362 l 0,0 c -1.785,-5.661 -3.753,-11.284 -5.942,-16.82 l 0,0 c 2.854,8.362 4.714,17.02 5.263,25.856 l 0,0 c 0.554,8.929 -0.353,17.967 -2.745,26.592 l 0,0 c -2.662,9.598 -7.206,18.729 -13.686,26.327 l 0,0 c -1.536,1.801 -3.494,3.382 -4.757,5.383 l 0,0 c -1.312,2.081 -2.726,3.665 -4.57,5.345 l 0,0 c -4.28,3.901 -8.981,7.315 -13.802,10.512 l 0,0 c -8.952,5.938 -18.598,10.791 -28.547,14.819 l 0,0 c -22.597,9.149 -47.586,13.078 -71.67,8.153 l 0,0 c -49.265,-10.074 -95.021,-46.134 -113.91,-93.081 l 0,0 c -7.566,-18.804 -8.616,-45.718 -6.222,-65.755 l 0,0 c 7.2,-60.244 65.422,-100.089 125.514,-108.45 l 0,0 c 24.823,-3.453 52.179,-1.692 76.293,4.87 l 0,0 c 50.618,13.775 89.298,54.937 112.845,99.669 l 0,0 c 2.794,5.306 14.736,24.552 14.675,26.91 l 0,0 c 0.266,-10.318 3.457,-20.545 9.105,-29.185 l 0,0 16.228,92.559 c 1.622,-9.021 7.294,-17.234 15.156,-21.944 l 0,0 0.204,60.905 c 1.411,-9.085 6.603,-14.524 14.491,-19.245 l 0,0 c -4.165,27.381 -4.717,52.34 -2.481,79.945 l 0,0 c 7.063,-4.324 13.65,-8.619 20.657,-10.281 l 0,0 c -3.651,26.793 -12.969,49.695 -16.621,76.488 l 0,0 c 10.535,-8.562 10.321,-10.841 19.665,-11.89 l 0,0 c -3.943,26.189 -16.832,43.539 -29.738,66.666 l 0,0 25.881,-0.924 c -10.726,25.861 -25.449,41.842 -43.485,63.255 l 0,0 c 10.92,0.053 16.559,0.433 26.037,2.488 l 0,0 c -14.416,20.028 -33.431,26.496 -56.345,35.655 l 0,0 c 14.571,6.668 21.146,13.147 30.811,25.413 l 0,0 c -25.908,4.436 -43.613,6.973 -69.673,10.409 l 0,0 c 9.985,6.22 25.961,11.735 32.648,23.966 l 0,0 c -23.094,-0.069 -51.515,-1.991 -74.608,-2.06 l 0,0 c 3.119,9.152 16.025,22.058 15.345,33.287 l 0,0 -67.289,-24.135 c -2.03,7.644 4.971,10.282 1.624,31.588 l 0,0 -54.543,-23.538 c 0,6.899 9.282,21.517 5.235,31.248 l 0,0 c -1.052,2.53 -27.623,-18.935 -36.917,-20.789 l 0,0 c 0,0 19.328,52.162 14.751,52.15 l 0,0 c -15.456,-0.043 -33.751,-18.848 -49.059,-21.737 l 0,0 c -3.6,5.946 -6.717,12.18 -9.697,18.454 l 0,0 c -5.958,12.545 -11.32,25.36 -17.137,37.968 l 0,0 c -2.808,6.086 -5.71,12.137 -8.882,18.045 l 0,0 c -2.044,3.808 -3.889,8.265 -7.717,10.63 l 0,0 c -2.577,1.592 -6.347,2.53 -9.801,2.53 l 0,0 c -1.401,0 -2.752,-0.154 -3.948,-0.483 m 41.469,-271.971 c -2.231,-1.88 -4.511,-3.71 -6.842,-5.492 l 0,0 c 2.319,1.787 4.601,3.62 6.842,5.492 m 85.349,-45.569 c 0,0 0,0 0,0 M 385.7,244.684 c -16.443,19.301 -23.431,46.21 -18.815,71.142 l 0,0 c 4.341,23.447 18.996,45.036 39.804,56.681 l 0,0 c 20.807,11.646 47.481,12.699 68.623,1.672 l 0,0 c 21.141,-11.029 35.712,-34.184 35.362,-58.026 l 0,0 C 510.325,292.31 494.456,269.141 471.96,261.234 l 0,0 c -13.249,-4.656 -28.749,-3.925 -40.478,3.797 l 0,0 c -11.73,7.722 -18.663,22.934 -14.915,36.468 l 0,0 c 3.747,13.534 19.144,23.259 32.574,19.157 l 0,0 c 5.156,-1.575 9.602,-4.831 14.374,-7.339 l 0,0 c 6.352,-3.338 14.186,-5.411 20.41,0.205 l 0,0 c 2.347,2.118 3.891,5.052 4.393,8.173 l 0,0 c 1.651,10.257 -5.876,18.554 -14.739,21.821 l 0,0 c -6.84,2.522 -14.381,2.425 -21.601,1.414 l 0,0 c -23.699,-3.317 -46.283,-17.011 -58.038,-37.854 l 0,0 c -11.755,-20.844 -11.323,-48.644 3.051,-67.777 l 0,0 c 7.968,-10.606 19.481,-17.733 32.218,-21.388 l 0,0 c -16.769,4.192 -32.283,13.595 -43.509,26.773 m 146.6,21.019 c 0.248,0.358 0.494,0.716 0.739,1.075 l 0,0 c -2.1,-3.197 -4.324,-6.317 -6.684,-9.346 l 0,0 c -5.241,-6.727 -11.231,-12.977 -17.813,-18.49 l 0,0 c 9.023,7.8 16.985,16.98 23.758,26.761"
         id="path30"
         inkscape:connector-curvature="0" />
    </clipPath>
    <clipPath
       clipPathUnits="userSpaceOnUse"
       id="clipPath1428">
      <path
         d="m 0,1201.89 853.228,0 L 853.228,0 0,0 0,1201.89 Z"
         id="path1430"
         inkscape:connector-curvature="0" />
    </clipPath>
    <clipPath
       clipPathUnits="userSpaceOnUse"
       id="clipPath1436">
      <path
         d="m 153.069,874.507 547.722,0 0,-721.1 -547.722,0 0,721.1 z"
         id="path1438"
         inkscape:connector-curvature="0" />
    </clipPath>
    <radialGradient
       fx="0"
       fy="0"
       cx="0"
       cy="0"
       r="1"
       gradientUnits="userSpaceOnUse"
       gradientTransform="matrix(74.078758,0,0,-59.263008,239.82324,731.99097)"
       spreadMethod="pad"
       id="radialGradient1468">
      <stop
         style="stop-opacity:1;stop-color:#ffffff"
         offset="0"
         id="stop1470" />
      <stop
         style="stop-opacity:1;stop-color:#c4c3c3"
         offset="1"
         id="stop1472" />
    </radialGradient>
    <clipPath
       clipPathUnits="userSpaceOnUse"
       id="clipPath1480">
      <path
         d="m 0,1201.89 853.228,0 L 853.228,0 0,0 0,1201.89 Z"
         id="path1482"
         inkscape:connector-curvature="0" />
    </clipPath>
    <radialGradient
       fx="0"
       fy="0"
       cx="0"
       cy="0"
       r="1"
       gradientUnits="userSpaceOnUse"
       gradientTransform="matrix(74.078758,0,0,-59.263008,324.3374,727.64069)"
       spreadMethod="pad"
       id="radialGradient1516">
      <stop
         style="stop-opacity:1;stop-color:#ffffff"
         offset="0"
         id="stop1518" />
      <stop
         style="stop-opacity:1;stop-color:#c4c3c3"
         offset="1"
         id="stop1520" />
    </radialGradient>
    <clipPath
       clipPathUnits="userSpaceOnUse"
       id="clipPath1528">
      <path
         d="m 0,1201.89 853.228,0 L 853.228,0 0,0 0,1201.89 Z"
         id="path1530"
         inkscape:connector-curvature="0" />
    </clipPath>
    <clipPath
       clipPathUnits="userSpaceOnUse"
       id="clipPath1560">
      <path
         d="m 529.474,574.673 c 6.87,-7.702 13.741,-15.405 20.611,-23.107 l 0,0 c 2.925,-3.279 6.035,-7.149 6.026,-11.402 l 0,0 c -10e-4,-0.461 -0.038,-0.925 -0.116,-1.394 l 0,0 c -0.679,-4.076 -4.235,-6.974 -7.641,-9.312 l 0,0 c -8.134,-5.582 -16.812,-10.954 -24.245,-17.441 l 0,0 c -3.348,-2.922 -15.688,-9.847 -17.856,-11.768 l 0,0 c -10.514,-9.322 -29.698,-8.23 -43.695,-6.992 l 0,0 c -2.978,0.263 -6.376,0.501 -8.544,-1.558 l 0,0 c -1.461,-1.388 -1.959,-3.483 -2.345,-5.461 l 0,0 c -0.541,-2.777 -0.961,-5.706 -0.964,-8.569 l 0,0 c -0.005,-3.924 0.773,-7.721 3.093,-10.826 l 0,0 c 5.5,-7.361 17.621,-6.775 24.515,-0.701 l 0,0 c 3.855,3.397 7.098,8.39 12.216,8.854 l 0,0 c 5.187,0.469 9.462,-4.158 11.606,-8.906 l 0,0 c 2.145,-4.748 3.149,-10.106 6.358,-14.211 l 0,0 c 6.392,-8.178 21.134,-7.2 26.389,1.752 l 0,0 c 1.293,2.202 1.885,4.672 1.889,7.167 l 0,0 c 0.013,7.643 -5.488,15.526 -13.22,16.729 l 0,0 c -0.999,1.438 -1.44,3.117 -1.442,4.842 l 0,0 c -0.002,2.689 1.063,5.487 2.742,7.64 l 0,0 c 2.755,3.534 6.807,5.762 10.671,8.029 l 0,0 c 15.893,9.322 30.475,20.875 43.186,34.214 l 0,0 c 2.132,2.238 4.348,4.93 4.35,7.937 l 0,0 c 0,0.269 -0.017,0.54 -0.054,0.814 l 0,0 c -0.28,2.082 -1.645,3.833 -2.959,5.471 l 0,0 c -9.167,11.424 -18.333,22.849 -27.5,34.273 l 0,0 -23.071,-6.074 z"
         id="path1562"
         inkscape:connector-curvature="0" />
    </clipPath>
    <clipPath
       clipPathUnits="userSpaceOnUse"
       id="clipPath1646">
      <path
         d="m 0,1201.89 853.228,0 L 853.228,0 0,0 0,1201.89 Z"
         id="path1648"
         inkscape:connector-curvature="0" />
    </clipPath>
    <clipPath
       clipPathUnits="userSpaceOnUse"
       id="clipPath1658">
      <path
         d="m 444.813,571.047 c 6.832,-7.66 13.665,-15.32 20.499,-22.979 l 0,0 c 3.241,-3.634 6.709,-7.994 5.908,-12.797 l 0,0 c -0.056,-0.338 -0.132,-0.668 -0.226,-0.99 l 0,0 c -0.987,-3.65 -4.29,-6.315 -7.463,-8.492 l 0,0 c -8.135,-5.582 -16.812,-10.954 -24.246,-17.441 l 0,0 c -3.348,-2.922 -15.687,-9.846 -17.855,-11.769 l 0,0 c -10.514,-9.321 -29.699,-8.229 -43.695,-6.992 l 0,0 c -2.979,0.264 -6.375,0.503 -8.543,-1.557 l 0,0 c -0.945,-0.898 -1.487,-2.091 -1.857,-3.358 l 0,0 c -0.178,-0.638 -0.315,-1.291 -0.44,-1.933 l 0,0 c -1.283,-6.581 -1.885,-14.024 2.129,-19.396 l 0,0 c 5.499,-7.36 17.621,-6.774 24.514,-0.7 l 0,0 c 3.856,3.397 7.099,8.391 12.216,8.854 l 0,0 c 5.189,0.47 9.464,-4.158 11.607,-8.906 l 0,0 c 2.144,-4.747 3.15,-10.106 6.357,-14.211 l 0,0 c 6.393,-8.177 21.135,-7.199 26.39,1.752 l 0,0 c 0.57,0.971 1.003,1.993 1.311,3.046 l 0,0 c 2.398,8.633 -3.607,19.267 -12.691,20.68 l 0,0 c -1.621,2.332 -1.772,5.302 -0.964,8.064 l 0,0 c 0.46,1.658 1.268,3.248 2.313,4.588 l 0,0 c 2.754,3.534 6.806,5.762 10.671,8.029 l 0,0 c 15.893,9.322 30.475,20.875 43.186,34.215 l 0,0 c 1.669,1.751 3.39,3.782 4.06,6.024 l 0,0 c 0.225,0.825 0.306,1.678 0.187,2.556 l 0,0 c -0.279,2.082 -1.644,3.832 -2.959,5.47 l 0,0 c -9.166,11.425 -18.334,22.85 -27.5,34.274 l 0,0 -22.909,-6.031 z"
         id="path1660"
         inkscape:connector-curvature="0" />
    </clipPath>
  </defs>
  <sodipodi:namedview
     id="base"
     pagecolor="#ffffff"
     bordercolor="#666666"
     borderopacity="1.0"
     inkscape:pageopacity="0"
     inkscape:pageshadow="2"
     inkscape:zoom="0.68562427"
     inkscape:cx="1335.2795"
     inkscape:cy="931.26809"
     inkscape:document-units="px"
     inkscape:current-layer="layer3"
     showgrid="false"
     units="px"
     inkscape:window-width="1870"
     inkscape:window-height="1016"
     inkscape:window-x="0"
     inkscape:window-y="0"
     inkscape:window-maximized="1"
     showguides="true"
     inkscape:guide-bbox="true"
     inkscape:snap-global="false"
     inkscape:pagecheckerboard="0">
    <sodipodi:guide
       position="79.389313,583.96947"
       orientation="1,0"
       id="guide5258"
       inkscape:locked="false" />
    <sodipodi:guide
       position="752.5,175"
       orientation="0,1"
       id="guide5684"
       inkscape:locked="false" />
    <sodipodi:guide
       position="622.14288,33.487991"
       orientation="0,1"
       id="guide5686"
       inkscape:locked="false" />
    <sodipodi:guide
       position="512,936"
       orientation="0,1"
       id="guide5806"
       inkscape:locked="false" />
    <sodipodi:guide
       position="1852.7369,1139.6332"
       orientation="1,0"
       id="guide5827"
       inkscape:locked="false" />
  </sodipodi:namedview>
  <metadata
     id="metadata7">
    <rdf:RDF>
      <cc:Work
         rdf:about="">
        <dc:format>image/svg+xml</dc:format>
        <dc:type
           rdf:resource="http://purl.org/dc/dcmitype/StillImage" />
      </cc:Work>
    </rdf:RDF>
  </metadata>
  <g
     inkscape:groupmode="layer"
     id="layer2"
     inkscape:label="Background" />
  <g
     inkscape:groupmode="layer"
     id="layer3"
     inkscape:label="Text"
     style="display:inline">
    <text
       xml:space="preserve"
       style="font-style:normal;font-variant:normal;font-weight:normal;font-stretch:normal;font-size:39.892px;line-height:0%;font-family:'Open Sans Pro';-inkscape-font-specification:'Open Sans Pro';letter-spacing:0px;word-spacing:0px;fill:#eeee23;fill-opacity:1;stroke:none;stroke-width:3.24291px;stroke-linecap:butt;stroke-linejoin:miter;stroke-opacity:1"
       x="1837.9172"
       y="945.90991"
       id="text5802"
       inkscape:export-filename="/home/thorsten/git/voc/intro-outro-generator/hackerhotel2024/artwork/overlay-repair.png"
       inkscape:export-xdpi="96"
       inkscape:export-ydpi="96"><tspan
         sodipodi:role="line"
         x="1837.9172"
         y="945.90991"
         style="font-style:normal;font-variant:normal;font-weight:bold;font-stretch:normal;font-size:39.892px;line-height:1.25;font-family:'Source Sans Pro';-inkscape-font-specification:'Source Sans Pro Bold';text-align:end;text-anchor:end;fill:#eeee23;fill-opacity:1;stroke-width:3.24291px"
         id="tspan3498">We are very, very sorry, but we have lost audio content from this talk, </tspan><tspan
         sodipodi:role="line"
         x="1837.9172"
         y="995.7749"
         style="font-style:normal;font-variant:normal;font-weight:bold;font-stretch:normal;font-size:39.892px;line-height:1.25;font-family:'Source Sans Pro';-inkscape-font-specification:'Source Sans Pro Bold';text-align:end;text-anchor:end;fill:#eeee23;fill-opacity:1;stroke-width:3.24291px"
         id="tspan4470">due to several technical issues :(.</tspan><tspan
         sodipodi:role="line"
         x="1837.9172"
         y="1045.6399"
         style="font-style:normal;font-variant:normal;font-weight:bold;font-stretch:normal;font-size:39.892px;line-height:1.25;font-family:'Source Sans Pro';-inkscape-font-specification:'Source Sans Pro Bold';text-align:end;text-anchor:end;fill:#eeee23;fill-opacity:1;stroke-width:3.24291px"
         id="tspan3506">This overlay will show up, when there is no audio or repaired audio in the talk.</tspan></text>
  </g>
  <g
     inkscape:groupmode="layer"
     id="layer1"
     inkscape:label="FadeOutLayer"
     style="display:inline">
    <rect
       style="fill:#000000;fill-opacity:1;opacity:0"
       id="fadeout"
       width="1932.7112"
       height="1092.9814"
       x="-4.4430141"
       y="-1.8739687"
       inkscape:label="#fadeout" />
  </g>
</svg>
