<?xml version="1.0" encoding="UTF-8" standalone="no"?>
<!-- Generator: Adobe Illustrator 20.1.0, SVG Export Plug-In . SVG Version: 6.00 Build 0)  -->

<svg
   xmlns:dc="http://purl.org/dc/elements/1.1/"
   xmlns:cc="http://creativecommons.org/ns#"
   xmlns:rdf="http://www.w3.org/1999/02/22-rdf-syntax-ns#"
   xmlns:svg="http://www.w3.org/2000/svg"
   xmlns="http://www.w3.org/2000/svg"
   xmlns:xlink="http://www.w3.org/1999/xlink"
   xmlns:sodipodi="http://sodipodi.sourceforge.net/DTD/sodipodi-0.dtd"
   xmlns:inkscape="http://www.inkscape.org/namespaces/inkscape"
   version="1.1"
   id="Ebene_1"
   inkscape:version="0.91 r13725"
   sodipodi:docname="intro.svg"
   x="0px"
   y="0px"
   viewBox="0 0 1920 1080"
   style="enable-background:new 0 0 1920 1080;"
   xml:space="preserve"><metadata
     id="metadata198"><rdf:RDF><cc:Work
         rdf:about=""><dc:format>image/svg+xml</dc:format><dc:type
           rdf:resource="http://purl.org/dc/dcmitype/StillImage" /></cc:Work></rdf:RDF></metadata><defs
     id="defs196" /><style
     type="text/css"
     id="style3">
	.st0{fill:#00A5DD;}
	.st1{fill:#29ABE2;}
	.st2{fill:#5FDBA5;}
	.st3{fill:#FFFFFF;}
	.st4{fill:#F86E16;}
</style><sodipodi:namedview
     bordercolor="#666666"
     borderopacity="1"
     gridtolerance="10"
     guidetolerance="10"
     id="namedview1462"
     inkscape:current-layer="Ebene_1"
     inkscape:cx="314.16004"
     inkscape:cy="-124.12472"
     inkscape:pageopacity="0"
     inkscape:pageshadow="2"
     inkscape:window-height="704"
     inkscape:window-maximized="0"
     inkscape:window-width="1366"
     inkscape:window-x="0"
     inkscape:window-y="27"
     inkscape:zoom="0.16812201"
     objecttolerance="10"
     pagecolor="#ffffff"
     showgrid="false"
     showguides="false" /><image
     sodipodi:absref="/home/derpeter/projects/VOC/git/intro-outro-generator/jh16-berlin/artwork/background.png"
     xlink:href="background.png"
     id="background"
     height="1080"
     width="1920"
     style="overflow:visible;enable-background:new    ;" /><polygon
     id="text-bg"
     inkscape:label="#text-bg"
     class="st0"
     points="1900,1060 1900,912.5 1900,863.3 1900,786.8 1823.2,863.3   600,863.3 600,1060 " /><g
     id="icongroup"><g
       id="g1105"><g
         id="g1107"><g
           id="XMLID_16_"><rect
             id="rect1110"
             x="1799"
             y="34.3"
             class="st1"
             width="63.3"
             height="38.7" /><path
             id="path1112"
             class="st2"
             d="M1845.9,87.1v-4.7h-4.7v4.7H1845.9z M1854.1,87.1v-4.7h-4.7v4.7H1854.1z M1858.8,90.6h-4.7      v4.7h4.7V90.6z M1862.3,87.1v-4.7h-4.7v4.7H1862.3z M1867,90.6h-4.7v4.7h4.7V90.6z M1867,87.1h4.7v4.7v4.7v4.7h-82.1v-4.7v-4.7      v-4.7h4.7v-4.7v-4.7h68h4.7v4.7L1867,87.1L1867,87.1z M1800.1,90.6h-4.7v4.7h4.7V90.6z M1803.6,87.1v-4.7h-4.7v4.7H1803.6z       M1808.3,90.6h-4.7v4.7h4.7V90.6z M1811.9,87.1v-4.7h-4.7v4.7H1811.9z M1815.4,87.1h4.7v-4.7h-4.7V87.1z M1823.6,87.1h4.7v-4.7      h-4.7V87.1z M1833,87.1h4.7v-4.7h-4.7V87.1z M1845.9,90.6h-29.3h-2.3h-2.3v4.7h2.3h2.3h29.3h4.7v-4.7H1845.9z" /><polygon
             id="polygon1114"
             points="1876.3,96.5 1876.3,101.2 1871.7,101.2 1871.7,96.5 1871.7,91.8 1871.7,87.1 1876.3,87.1       1876.3,91.8     " /><rect
             id="rect1116"
             x="1789.6"
             y="101.2"
             width="82.1"
             height="4.7" /><polygon
             id="polygon1118"
             points="1871.7,82.4 1871.7,87.1 1867,87.1 1867,82.4 1867,77.7 1871.7,77.7     " /><rect
             id="rect1120"
             x="1862.3"
             y="90.6"
             width="4.7"
             height="4.7" /><polygon
             id="polygon1122"
             points="1867,73 1867,77.7 1862.3,77.7 1794.3,77.7 1794.3,73 1794.3,34.3 1799,34.3 1799,73       1862.3,73 1862.3,34.3 1867,34.3     " /><rect
             id="rect1124"
             x="1857.6"
             y="82.4"
             width="4.7"
             height="4.7" /><rect
             id="rect1126"
             x="1799"
             y="29.6"
             width="63.3"
             height="4.7" /><rect
             id="rect1128"
             x="1854.1"
             y="90.6"
             width="4.7"
             height="4.7" /><rect
             id="rect1130"
             x="1849.4"
             y="82.4"
             width="4.7"
             height="4.7" /><polygon
             id="polygon1132"
             points="1850.5,90.6 1850.5,95.3 1845.9,95.3 1816.5,95.3 1814.2,95.3 1811.9,95.3 1811.9,90.6       1814.2,90.6 1816.5,90.6 1845.9,90.6     " /><rect
             id="rect1134"
             x="1841.2"
             y="82.4"
             width="4.7"
             height="4.7" /><rect
             id="rect1136"
             x="1833"
             y="82.4"
             width="4.7"
             height="4.7" /><rect
             id="rect1138"
             x="1823.6"
             y="82.4"
             width="4.7"
             height="4.7" /><rect
             id="rect1140"
             x="1815.4"
             y="82.4"
             width="4.7"
             height="4.7" /><rect
             id="rect1142"
             x="1807.2"
             y="82.4"
             width="4.7"
             height="4.7" /><rect
             id="rect1144"
             x="1803.6"
             y="90.6"
             width="4.7"
             height="4.7" /><rect
             id="rect1146"
             x="1799"
             y="82.4"
             width="4.7"
             height="4.7" /><rect
             id="rect1148"
             x="1795.4"
             y="90.6"
             width="4.7"
             height="4.7" /><polygon
             id="polygon1150"
             points="1794.3,82.4 1794.3,87.1 1789.6,87.1 1789.6,82.4 1789.6,77.7 1794.3,77.7     " /><polygon
             id="polygon1152"
             points="1789.6,96.5 1789.6,101.2 1784.9,101.2 1784.9,96.5 1784.9,91.8 1784.9,87.1 1789.6,87.1       1789.6,91.8     " /></g></g><g
         id="g1154"><polygon
           id="polygon1156"
           class="st3"
           points="1886.3,136.4 1886.3,141.1 1881.6,141.1 1881.6,155.2 1876.9,155.2 1876.9,159.8      1876.9,164.5 1876.9,172.7 1853.5,172.7 1853.5,168 1853.5,163.4 1853.5,158.7 1848.8,158.7 1848.8,154 1848.8,149.3      1844.1,149.3 1844.1,144.6 1844.1,139.9 1839.4,139.9 1839.4,135.2 1839.4,130.5 1844.1,130.5 1844.1,135.2 1848.8,135.2      1848.8,139.9 1853.5,139.9 1853.5,135.2 1853.5,130.5 1853.5,125.8 1853.5,121.1 1853.5,116.5 1853.5,95.4 1858.2,95.4      1858.2,100 1858.2,104.7 1858.2,109.4 1858.2,114.1 1858.2,118.8 1858.2,123.5 1862.9,123.5 1862.9,118.8 1862.9,114.1      1862.9,109.4 1862.9,104.7 1862.9,100 1862.9,95.4 1867.5,95.4 1867.5,100 1867.5,104.7 1867.5,109.4 1867.5,114.1 1867.5,118.8      1867.5,123.5 1872.2,123.5 1872.2,118.8 1872.2,114.1 1872.2,109.4 1872.2,104.7 1872.2,100 1872.2,95.4 1876.9,95.4 1876.9,100      1876.9,104.7 1876.9,109.4 1876.9,114.1 1876.9,118.8 1876.9,123.5 1881.6,123.5 1881.6,118.8 1881.6,114.1 1881.6,109.4      1881.6,108.3 1886.3,108.3 1886.3,112.9 1886.3,117.6 1886.3,122.3 1886.3,127 1886.3,131.7    " /><polygon
           id="polygon1158"
           points="1891,136.4 1891,141.1 1886.3,141.1 1886.3,136.4 1886.3,131.7 1886.3,127 1886.3,122.3      1886.3,117.6 1886.3,112.9 1886.3,108.3 1891,108.3 1891,112.9 1891,117.6 1891,122.3 1891,127 1891,131.7    " /><rect
           id="rect1160"
           x="1881.6"
           y="141.1"
           width="4.7"
           height="14.1" /><polygon
           id="polygon1162"
           points="1886.3,103.6 1886.3,108.3 1881.6,108.3 1881.6,109.4 1881.6,114.1 1881.6,118.8 1881.6,123.5      1876.9,123.5 1876.9,118.8 1876.9,114.1 1876.9,109.4 1876.9,104.7 1876.9,100 1876.9,95.4 1881.6,95.4 1881.6,100 1881.6,103.6         " /><polygon
           id="polygon1164"
           points="1881.6,164.5 1881.6,177.4 1876.9,177.4 1848.8,177.4 1848.8,172.7 1848.8,168 1848.8,163.4      1853.5,163.4 1853.5,168 1853.5,172.7 1876.9,172.7 1876.9,164.5 1876.9,159.8 1876.9,155.2 1881.6,155.2 1881.6,159.8    " /><rect
           id="rect1166"
           x="1872.2"
           y="90.7"
           width="4.7"
           height="4.7" /><polygon
           id="polygon1168"
           points="1872.2,118.8 1872.2,123.5 1867.5,123.5 1867.5,118.8 1867.5,114.1 1867.5,109.4 1867.5,104.7      1867.5,100 1867.5,95.4 1872.2,95.4 1872.2,100 1872.2,104.7 1872.2,109.4 1872.2,114.1    " /><rect
           id="rect1170"
           x="1862.9"
           y="90.7"
           width="4.7"
           height="4.7" /><polygon
           id="polygon1172"
           points="1862.9,118.8 1862.9,123.5 1858.2,123.5 1858.2,118.8 1858.2,114.1 1858.2,109.4 1858.2,104.7      1858.2,100 1858.2,95.4 1862.9,95.4 1862.9,100 1862.9,104.7 1862.9,109.4 1862.9,114.1    " /><rect
           id="rect1174"
           x="1853.5"
           y="90.7"
           width="4.7"
           height="4.7" /><rect
           id="rect1176"
           x="1848.8"
           y="158.7"
           width="4.7"
           height="4.7" /><polygon
           id="polygon1178"
           points="1853.5,135.2 1853.5,139.9 1848.8,139.9 1848.8,135.2 1844.1,135.2 1844.1,130.5 1848.8,130.5      1848.8,125.8 1848.8,121.1 1848.8,116.5 1848.8,95.4 1853.5,95.4 1853.5,116.5 1853.5,121.1 1853.5,125.8 1853.5,130.5    " /><polygon
           id="polygon1180"
           points="1848.8,154 1848.8,158.7 1844.1,158.7 1844.1,154 1844.1,149.3 1848.8,149.3    " /><polygon
           id="polygon1182"
           points="1844.1,144.6 1844.1,149.3 1839.4,149.3 1839.4,144.6 1839.4,139.9 1844.1,139.9    " /><rect
           id="rect1184"
           x="1839.4"
           y="125.8"
           width="4.7"
           height="4.7" /><polygon
           id="polygon1186"
           points="1839.4,135.2 1839.4,139.9 1834.7,139.9 1834.7,135.2 1834.7,130.5 1839.4,130.5    " /></g><g
         id="g1188"><polygon
           id="polygon1190"
           class="st3"
           points="1825.3,148.1 1825.3,152.8 1820.6,152.8 1820.6,157.4 1820.6,162.1 1816,162.1      1816,166.8 1816,171.5 1811.3,171.5 1811.3,176.2 1806.6,176.2 1801.9,176.2 1801.9,180.9 1797.2,180.9 1797.2,185.6      1792.5,185.6 1792.5,190.3 1792.5,195 1787.8,195 1787.8,198.5 1773.7,198.5 1773.7,193.8 1769.1,193.8 1769.1,189.1      1764.4,189.1 1764.4,184.4 1759.7,184.4 1759.7,179.7 1764.4,179.7 1764.4,175 1769.1,175 1769.1,170.3 1773.7,170.3 1773.7,161      1773.7,156.3 1773.7,146.9 1778.4,146.9 1778.4,142.2 1778.4,128.1 1783.1,128.1 1783.1,132.8 1783.1,137.5 1783.1,142.2      1787.8,142.2 1787.8,137.5 1787.8,132.8 1787.8,128.1 1792.5,128.1 1792.5,132.8 1792.5,137.5 1792.5,142.2 1797.2,142.2      1797.2,137.5 1797.2,132.8 1797.2,128.1 1801.9,128.1 1801.9,129.3 1801.9,134 1801.9,138.7 1801.9,143.4 1806.6,143.4      1806.6,138.7 1806.6,134 1806.6,129.3 1806.6,124.6 1806.6,119.9 1811.3,119.9 1811.3,115.2 1816,115.2 1816,119.9 1816,124.6      1811.3,124.6 1811.3,129.3 1811.3,134 1811.3,138.7 1811.3,143.4 1811.3,148.1 1811.3,152.8 1816,152.8 1816,148.1 1820.6,148.1      1820.6,143.4 1825.3,143.4    " /><polygon
           id="polygon1192"
           points="1830,148.1 1830,152.8 1825.3,152.8 1825.3,148.1 1825.3,143.4 1830,143.4    " /><polygon
           id="polygon1194"
           points="1825.3,157.4 1825.3,162.1 1820.6,162.1 1820.6,157.4 1820.6,152.8 1825.3,152.8    " /><rect
           id="rect1196"
           x="1820.6"
           y="138.7"
           width="4.7"
           height="4.7" /><polygon
           id="polygon1198"
           points="1820.6,166.8 1820.6,171.5 1816,171.5 1816,166.8 1816,162.1 1820.6,162.1    " /><polygon
           id="polygon1200"
           points="1820.6,143.4 1820.6,148.1 1816,148.1 1816,152.8 1811.3,152.8 1811.3,148.1 1811.3,143.4      1811.3,138.7 1811.3,134 1811.3,129.3 1811.3,124.6 1816,124.6 1816,129.3 1816,134 1816,138.7 1816,143.4    " /><polygon
           id="polygon1202"
           points="1820.6,119.9 1820.6,124.6 1816,124.6 1816,119.9 1816,115.2 1820.6,115.2    " /><rect
           id="rect1204"
           x="1811.3"
           y="171.5"
           width="4.7"
           height="4.7" /><rect
           id="rect1206"
           x="1811.3"
           y="110.5"
           width="4.7"
           height="4.7" /><polygon
           id="polygon1208"
           points="1811.3,176.2 1811.3,180.9 1806.6,180.9 1801.9,180.9 1801.9,176.2 1806.6,176.2    " /><rect
           id="rect1210"
           x="1806.6"
           y="115.2"
           width="4.7"
           height="4.7" /><polygon
           id="polygon1212"
           points="1806.6,138.7 1806.6,143.4 1801.9,143.4 1801.9,138.7 1801.9,134 1801.9,129.3 1801.9,128.1      1797.2,128.1 1797.2,132.8 1797.2,137.5 1797.2,142.2 1792.5,142.2 1792.5,137.5 1792.5,132.8 1792.5,128.1 1787.8,128.1      1787.8,132.8 1787.8,137.5 1787.8,142.2 1783.1,142.2 1783.1,137.5 1783.1,132.8 1783.1,128.1 1778.4,128.1 1778.4,123.4      1787.8,123.4 1792.5,123.4 1797.2,123.4 1801.9,123.4 1801.9,119.9 1806.6,119.9 1806.6,124.6 1806.6,129.3 1806.6,134    " /><rect
           id="rect1214"
           x="1797.2"
           y="180.9"
           width="4.7"
           height="4.7" /><polygon
           id="polygon1216"
           points="1797.2,190.3 1797.2,195 1792.5,195 1792.5,190.3 1792.5,185.6 1797.2,185.6    " /><polygon
           id="polygon1218"
           points="1787.8,199.7 1787.8,203.2 1773.7,203.2 1773.7,198.5 1787.8,198.5 1787.8,195 1792.5,195      1792.5,199.7    " /><polygon
           id="polygon1220"
           points="1778.4,142.2 1778.4,146.9 1773.7,146.9 1773.7,142.2 1773.7,128.1 1778.4,128.1    " /><rect
           id="rect1222"
           x="1769.1"
           y="193.8"
           width="4.7"
           height="4.7" /><polygon
           id="polygon1224"
           points="1773.7,161 1773.7,170.3 1769.1,170.3 1769.1,161 1769.1,156.3 1769.1,146.9 1773.7,146.9      1773.7,156.3    " /><rect
           id="rect1226"
           x="1764.4"
           y="189.1"
           width="4.7"
           height="4.7" /><rect
           id="rect1228"
           x="1764.4"
           y="170.3"
           width="4.7"
           height="4.7" /><rect
           id="rect1230"
           x="1759.7"
           y="184.4"
           width="4.7"
           height="4.7" /><rect
           id="rect1232"
           x="1759.7"
           y="175"
           width="4.7"
           height="4.7" /><rect
           id="rect1234"
           x="1755"
           y="179.7"
           width="4.7"
           height="4.7" /></g></g><polygon
       id="polygon1236"
       class="st1"
       points="1200.4,54.1 1200.4,47.1 1193.4,47.1 1193.4,40.1 1186.3,40.1 1179.3,40.1    1172.3,40.1 1165.2,40.1 1158.2,40.1 1150,40.1 1142.9,40.1 1135.9,40.1 1135.9,47.1 1128.9,47.1 1128.9,54.1 1121.8,54.1    1121.8,61.2 1121.8,69.4 1121.8,76.4 1121.8,83.5 1121.8,90.5 1121.8,97.5 1121.8,104.6 1121.8,111.6 1121.8,118.6 1128.9,118.6    1128.9,126.8 1135.9,126.8 1135.9,133.9 1142.9,133.9 1142.9,140.9 1150,140.9 1150,147.9 1158.2,147.9 1158.2,155 1150,155    1150,162 1142.9,162 1142.9,169 1135.9,169 1135.9,176.1 1135.9,184.3 1135.9,191.3 1135.9,198.4 1135.9,205.4 1142.9,205.4    1142.9,198.4 1142.9,191.3 1150,191.3 1150,198.4 1150,205.4 1158.2,205.4 1165.2,205.4 1172.3,205.4 1179.3,205.4 1179.3,198.4    1179.3,191.3 1186.3,191.3 1186.3,198.4 1186.3,205.4 1193.4,205.4 1193.4,198.4 1193.4,191.3 1193.4,184.3 1193.4,176.1    1193.4,169 1186.3,169 1186.3,162 1179.3,162 1179.3,155 1172.3,155 1172.3,147.9 1179.3,147.9 1179.3,140.9 1186.3,140.9    1186.3,133.9 1193.4,133.9 1193.4,126.8 1200.4,126.8 1200.4,118.6 1208.6,118.6 1208.6,111.6 1208.6,104.6 1208.6,97.5    1208.6,90.5 1208.6,83.5 1208.6,76.4 1208.6,69.4 1208.6,61.2 1208.6,54.1  " /><g
       id="g1238"><rect
         id="rect1240"
         x="1302.4"
         y="184.3"
         class="st2"
         width="8.2"
         height="7" /><rect
         id="rect1242"
         x="1288.3"
         y="184.3"
         class="st2"
         width="7"
         height="7" /><rect
         id="rect1244"
         x="1274.3"
         y="184.3"
         class="st2"
         width="7"
         height="7" /><rect
         id="rect1246"
         x="1310.6"
         y="191.3"
         class="st2"
         width="7"
         height="7" /><rect
         id="rect1248"
         x="1295.4"
         y="191.3"
         class="st2"
         width="7"
         height="7" /><rect
         id="rect1250"
         x="1302.4"
         y="198.4"
         class="st2"
         width="8.2"
         height="7" /><rect
         id="rect1252"
         x="1288.3"
         y="198.4"
         class="st2"
         width="7"
         height="7" /><rect
         id="rect1254"
         x="1310.6"
         y="162"
         class="st2"
         width="7"
         height="7" /><rect
         id="rect1256"
         x="1295.4"
         y="162"
         class="st2"
         width="7"
         height="7" /><rect
         id="rect1258"
         x="1303.6"
         y="155"
         class="st2"
         width="7"
         height="7" /><rect
         id="rect1260"
         x="1302.4"
         y="169"
         class="st2"
         width="8.2"
         height="7" /><rect
         id="rect1262"
         x="1260.2"
         y="169"
         class="st2"
         width="7"
         height="7" /><polygon
         id="polygon1264"
         class="st2"
         points="1317.6,198.4 1317.6,205.4 1324.7,205.4 1331.7,205.4 1331.7,198.4 1324.7,198.4       " /><polygon
         id="polygon1266"
         class="st2"
         points="1317.6,169 1317.6,176.1 1310.6,176.1 1310.6,184.3 1317.6,184.3 1317.6,177.3     1324.7,177.3 1331.7,177.3 1331.7,184.3 1338.8,184.3 1338.8,176.1 1331.7,176.1 1331.7,169 1324.7,169   " /><rect
         id="rect1268"
         x="1295.4"
         y="176.1"
         class="st2"
         width="7"
         height="8.2" /><rect
         id="rect1270"
         x="1281.3"
         y="191.3"
         class="st2"
         width="7"
         height="7" /><rect
         id="rect1272"
         x="1267.2"
         y="176.1"
         class="st2"
         width="7"
         height="8.2" /><path
         id="path1274"
         class="st2"
         d="M1389.2,76.4v-7h-7v-8.2h-7v-7h-7v-7h-7v-7h-7v-7h-7h-8.2h-7v7h7v7h8.2v7h7v7h7v8.2h-7v-8.2h-7    v-7h-8.2v-7h-7v-7h-7h-7v7h-7v7h-8.2v7h-7v8.2h-7v-8.2h7v-7h7v-7h8.2v-7h7v-7h-7h-8.2h-7v7h-7v7h-7v7h-7v7h-7v8.2h-7v7h-7v7v7v7v7    v7h7v7h7h7v8.2h7h7v7h7v7v7v7h7v-7h1.2h7v7h7v7h7h7v-7h7v-7h7h1.2v7h7v-7v-7v-7h7v-7h7h7v-8.2h7h7v-7h7v-7v-7v-7v-7v-7    C1396.2,76.4,1389.2,76.4,1389.2,76.4z M1324.7,133.9h-7v-7h7h7v7H1324.7z" /><rect
         id="rect1276"
         x="1338.8"
         y="184.3"
         class="st2"
         width="8.2"
         height="7" /><rect
         id="rect1278"
         x="1354"
         y="184.3"
         class="st2"
         width="7"
         height="7" /><rect
         id="rect1280"
         x="1368.1"
         y="184.3"
         class="st2"
         width="7"
         height="7" /><rect
         id="rect1282"
         x="1331.7"
         y="191.3"
         class="st2"
         width="7"
         height="7" /><rect
         id="rect1284"
         x="1347"
         y="191.3"
         class="st2"
         width="7"
         height="7" /><rect
         id="rect1286"
         x="1338.8"
         y="198.4"
         class="st2"
         width="8.2"
         height="7" /><rect
         id="rect1288"
         x="1354"
         y="198.4"
         class="st2"
         width="7"
         height="7" /><rect
         id="rect1290"
         x="1331.7"
         y="162"
         class="st2"
         width="7"
         height="7" /><rect
         id="rect1292"
         x="1347"
         y="162"
         class="st2"
         width="7"
         height="7" /><rect
         id="rect1294"
         x="1338.8"
         y="155"
         class="st2"
         width="7"
         height="7" /><rect
         id="rect1296"
         x="1338.8"
         y="169"
         class="st2"
         width="8.2"
         height="7" /><rect
         id="rect1298"
         x="1382.1"
         y="169"
         class="st2"
         width="7"
         height="7" /><polygon
         id="polygon1300"
         class="st2"
         points="1324.7,184.3 1317.6,184.3 1317.6,191.3 1324.7,191.3 1331.7,191.3 1331.7,184.3       " /><rect
         id="rect1302"
         x="1347"
         y="176.1"
         class="st2"
         width="7"
         height="8.2" /><rect
         id="rect1304"
         x="1361"
         y="191.3"
         class="st2"
         width="7"
         height="7" /><rect
         id="rect1306"
         x="1375.1"
         y="176.1"
         class="st2"
         width="7"
         height="8.2" /></g><g
       id="g1308"><polygon
         id="polygon1310"
         class="st4"
         points="1458.3,176.1 1458.3,184.3 1458.3,191.3 1458.3,198.4 1458.3,205.4 1465.4,205.4     1465.4,198.4 1465.4,191.3 1465.4,184.3 1465.4,176.1 1465.4,156.1 1458.3,156.1   " /><path
         id="path1312"
         class="st4"
         d="M1546.3,85.8v-2.3v-7v-7v-8.2v-7v-7h-7v-7h-7h-7h-7v-7h-7v-7h-16.4v7h-7v7h-7h-7h-7v7h-7v7v7    v8.2v7v7v2.3h-7v7v7v7h7v4.7v28.1h7v1.2v7h29.3h7h7h29.3v-7v-1.2h7v-28.1v-4.7h7v-7v-7v-7C1553.5,85.8,1546.3,85.8,1546.3,85.8z     M1495.9,33h14.1v7h-7h-7L1495.9,33L1495.9,33z" /><polygon
         id="polygon1314"
         class="st4"
         points="1540.4,176.1 1540.4,184.3 1540.4,191.3 1540.4,198.4 1540.4,205.4 1547.5,205.4     1547.5,198.4 1547.5,191.3 1547.5,184.3 1547.5,176.1 1547.5,156.1 1540.4,156.1   " /><polygon
         id="polygon1316"
         class="st4"
         points="1518.1,155 1509.9,155 1502.9,155 1495.9,155 1487.7,155 1480.6,155 1472.4,155     1472.4,162 1472.4,169 1472.4,176.1 1472.4,184.3 1472.4,191.3 1472.4,198.4 1472.4,205.4 1480.6,205.4 1487.7,205.4     1495.9,205.4 1502.9,205.4 1509.9,205.4 1518.1,205.4 1525.2,205.4 1533.4,205.4 1533.4,198.4 1533.4,191.3 1533.4,184.3     1533.4,176.1 1533.4,169 1533.4,162 1533.4,155 1525.2,155   " /></g><g
       id="g1318"><rect
         id="rect1320"
         x="1501"
         y="184"
         class="st3"
         width="7"
         height="7" /><rect
         id="rect1322"
         x="1492"
         y="191"
         class="st3"
         width="9"
         height="7" /><rect
         id="rect1324"
         x="1485"
         y="198"
         class="st3"
         width="7"
         height="7" /><rect
         id="rect1326"
         x="1508"
         y="191"
         class="st3"
         width="7"
         height="7" /><rect
         id="rect1328"
         x="1515"
         y="198"
         class="st3"
         width="8"
         height="7" /></g><path
       id="path1330"
       class="st2"
       d="M1717.5,83.5h-7h-7h-7h-8.2h-7v7h-7h-7v-7h-7h-8.2h-7h-7h-7h-7v7v7v7v7h7v7h7v8.2h7h7h8.2v7v7   h-7h-1.2h-7v7v7v7v7h7h1.2h7h7h7h7h7h7h1.2h7v-7v-7v-7v-7h-7h-1.2h-7v-7v-7h8.2h7h7v-8.2h7v-7h7v-7v-7v-7v-7H1717.5z M1674.1,162   h-7v-7v-7h7h7v7v7H1674.1z M1681.1,133.9h-7h-7v-7h7h7V133.9z" /><g
       id="g1332"><polygon
         id="polygon1334"
         points="1476.2,103.2 1476.2,95.4 1476.2,95.4 1476.2,91.3 1476.2,87.9 1472.2,87.9 1472.1,91.3     1472.1,95.4 1472.1,95.4 1472.1,103.2   " /><rect
         id="rect1336"
         x="1483.4"
         y="81.3"
         transform="matrix(3.112295e-03 -1 1 3.112295e-03 1394.3613 1570.9081)"
         width="3.4"
         height="9.6" /><rect
         id="rect1338"
         x="1476.5"
         y="84"
         transform="matrix(3.104756e-03 -1 1 3.104756e-03 1387.5896 1564.0121)"
         width="3.4"
         height="4.1" /><rect
         id="rect1340"
         x="1476.6"
         y="102.8"
         transform="matrix(3.379855e-03 -1 1 3.379855e-03 1368.4644 1582.7228)"
         width="3.4"
         height="4.1" /><polygon
         id="polygon1342"
         points="1493.8,87.9 1489.7,87.9 1489.7,91.3 1489.7,95.4 1489.7,95.4 1489.7,103.2 1480.3,103.2     1480.3,106.6 1490,106.6 1490,103.2 1493.8,103.2 1493.8,95.4 1493.8,95.4 1493.8,91.3   " /><polygon
         id="polygon1344"
         points="1530.7,91.3 1530.8,95.4 1530.8,95.4 1530.8,103.2 1534.9,103.2 1534.8,95.4 1534.8,95.4     1534.8,91.3 1534.8,87.9 1530.7,87.9   " /><rect
         id="rect1346"
         x="1517.1"
         y="84.4"
         transform="matrix(1 -3.035083e-03 3.035083e-03 1 -0.2543 4.6195)"
         width="9.6"
         height="3.4" /><rect
         id="rect1348"
         x="1526.7"
         y="84.4"
         transform="matrix(1 -3.379855e-03 3.379855e-03 1 -0.2823 5.1675)"
         width="4.1"
         height="3.4" /><rect
         id="rect1350"
         x="1526.7"
         y="103.2"
         transform="matrix(1 -3.036130e-03 3.036130e-03 1 -0.3114 4.642)"
         width="4.1"
         height="3.4" /><polygon
         id="polygon1352"
         points="1513.2,95.4 1513.2,95.4 1513.2,103.2 1517,103.2 1517,106.6 1526.7,106.6 1526.7,103.2     1517.3,103.2 1517.2,95.4 1517.3,95.4 1517.2,91.3 1517.2,87.9 1513.1,87.9 1513.2,91.3   " /><rect
         id="rect1354"
         x="1472.4"
         y="122.1"
         width="3.5"
         height="10.6" /><rect
         id="rect1356"
         x="1529.9"
         y="122.1"
         width="3.5"
         height="10.6" /><path
         id="path1358"
         d="M1524,122.1h5.9v-3.5h-26.4h-27.6v3.5h5.9v10.6h-5.9v3.5h27.6h26.4v-3.5h-5.9V122.1z M1491.2,132.7h-5.9    v-10.6h5.9V132.7z M1501.7,132.7h-7v-10.6h7V132.7z M1511.1,132.7h-5.9v-10.6h5.9V132.7z M1520.5,132.7h-5.9v-10.6h5.9V132.7z" /></g><g
       id="g1360"><polygon
         id="polygon1362"
         points="1156,108.3 1151.9,108.3 1151.9,104.2 1151.9,100.8 1148.5,100.8 1148.5,96.7 1144.4,96.7     1140.4,96.7 1137,96.7 1136.9,100.8 1132.9,100.8 1132.9,104.2 1136.9,104.2 1136.9,108.3 1140.3,108.3 1140.3,112.3     1144.4,112.4 1148.5,112.4 1151.9,112.4 1155.9,112.4   " /><rect
         id="rect1364"
         x="1158.3"
         y="121.8"
         transform="matrix(2.817284e-03 -1 1 2.817284e-03 1033.2163 1283.8247)"
         width="4.1"
         height="4.1" /><rect
         id="rect1366"
         x="1168.7"
         y="121.9"
         transform="matrix(2.817284e-03 -1 1 2.817284e-03 1043.4868 1294.2721)"
         width="4.1"
         height="4.1" /><polygon
         id="polygon1368"
         points="1193.4,104.2 1197.4,104.2 1197.4,100.8 1193.4,100.8 1193.3,96.7 1189.9,96.7 1185.9,96.7     1181.8,96.7 1181.8,100.8 1178.4,100.8 1178.4,104.2 1178.4,108.3 1174.3,108.3 1174.4,112.4 1178.4,112.4 1181.8,112.4     1185.9,112.4 1190,112.3 1190,108.3 1193.4,108.3   " /><rect
         id="rect1370"
         x="1163.5"
         y="125"
         transform="matrix(2.927291e-03 -1 1 2.927291e-03 1027.3768 1299.2382)"
         width="3.4"
         height="18.8" /></g><g
       id="g1372"><rect
         id="rect1374"
         x="1302.4"
         y="47.1"
         class="st3"
         width="8.2"
         height="7" /><rect
         id="rect1376"
         x="1310.6"
         y="40.1"
         class="st3"
         width="7"
         height="7" /><rect
         id="rect1378"
         x="1295.4"
         y="54.1"
         class="st3"
         width="7"
         height="7" /><rect
         id="rect1380"
         x="1288.3"
         y="61.2"
         class="st3"
         width="7"
         height="8.2" /><polygon
         id="polygon1382"
         class="st3"
         points="1317.6,126.8 1317.6,133.9 1324.7,133.9 1331.7,133.9 1331.7,126.8 1324.7,126.8       " /><rect
         id="rect1384"
         x="1338.8"
         y="47.1"
         class="st3"
         width="8.2"
         height="7" /><rect
         id="rect1386"
         x="1331.7"
         y="40.1"
         class="st3"
         width="7"
         height="7" /><rect
         id="rect1388"
         x="1347"
         y="54.1"
         class="st3"
         width="7"
         height="7" /><rect
         id="rect1390"
         x="1354"
         y="61.2"
         class="st3"
         width="7"
         height="8.2" /><polygon
         id="polygon1392"
         class="st3"
         points="1324.7,33 1317.6,33 1317.6,40.1 1324.7,40.1 1331.7,40.1 1331.7,33   " /></g><g
       id="g1394"><polygon
         id="polygon1396"
         points="1308.3,95.2 1291.8,95.2 1291.8,98.7 1289.5,98.7 1289.5,102.2 1287.7,102.2 1287.7,104.6     1289.5,104.6 1289.5,108.1 1291.8,108.1 1291.8,111.6 1308.3,111.6 1308.3,108.1 1310.6,108.1 1310.6,98.7 1308.3,98.7   " /><polygon
         id="polygon1398"
         points="1356.3,95.2 1339.9,95.2 1339.9,98.7 1337.6,98.7 1337.6,102.2 1335.8,102.2 1335.8,104.6     1337.6,104.6 1337.6,108.1 1339.9,108.1 1339.9,111.6 1356.3,111.6 1356.3,108.1 1358.7,108.1 1358.7,98.7 1356.3,98.7   " /><rect
         id="rect1400"
         x="1308.9"
         y="85.8"
         width="2.3"
         height="2.3" /><polygon
         id="polygon1402"
         points="1292.4,85.8 1308.3,85.8 1308.3,83.5 1291.8,83.5 1291.8,85.8 1290.1,85.8 1290.1,88.1     1292.4,88.1   " /><rect
         id="rect1404"
         x="1356.9"
         y="85.8"
         width="2.3"
         height="2.3" /><polygon
         id="polygon1406"
         points="1340.5,85.8 1356.3,85.8 1356.3,83.5 1339.9,83.5 1339.9,85.8 1338.2,85.8 1338.2,88.1     1340.5,88.1   " /><rect
         id="rect1408"
         x="1359.3"
         y="102.2"
         width="2.3"
         height="2.3" /><rect
         id="rect1410"
         x="1311.2"
         y="102.2"
         width="2.3"
         height="2.3" /></g><polygon
       id="polygon1412"
       points="1662.9,102.2 1662.4,102.2 1662.4,98.7 1657.7,98.7 1657.7,96.4 1641.8,96.4 1641.3,96.4    1632.5,96.4 1632.5,98.7 1634.6,98.7 1632.5,98.7 1632.5,101 1634.8,101 1634.8,103.4 1637.2,103.4 1637.2,105.7 1638.9,105.7    1638.9,108.1 1641.3,108.1 1641.3,111.6 1657.7,111.6 1657.7,108.1 1662.4,108.1 1662.4,104.6 1662.9,104.6  " /><polyline
       id="polyline1414"
       points="1713.4,98.7 1713.4,101 1715.7,101 1715.7,98.7 1713.6,98.7 1715.7,98.7 1715.7,96.4    1706.9,96.4 1706.3,96.4 1690.5,96.4 1690.5,98.7 1685.8,98.7 1685.8,108.1 1690.5,108.1 1690.5,111.6 1706.9,111.6 1706.9,108.1    1709.3,108.1 1709.3,105.7 1711,105.7 1711,103.4 1713.4,103.4 1713.4,101  " /><polygon
       id="polygon1416"
       points="1685.2,153.8 1683.5,153.8 1683.5,150.3 1681.1,150.3 1681.1,147.9 1674.1,147.9 1667.1,147.9    1667.1,150.3 1664.7,150.3 1664.7,153.8 1662.9,153.8 1662.9,156.1 1664.7,156.1 1664.7,159.7 1667.1,159.7 1667.1,162 1674.1,162    1681.1,162 1681.1,159.7 1683.5,159.7 1683.5,156.1 1685.2,156.1  " /><g
       id="g1418"><polygon
         id="polygon1420"
         class="st1"
         points="1667.1,126.8 1667.1,133.9 1674.1,133.9 1681.1,133.9 1681.1,126.8 1674.1,126.8       " /><path
         id="path1422"
         class="st1"
         d="M1724.5,61.2v-7h-7v-7h-7v-7h-7v-7h-7h-8.2h-7h-7h-7h-7h-8.2h-7v7h-7v7h-7v7h-7v7h-7v8.2v7v7v7    v7v7v7v53.9h7v9.4h7v8.2h7h5.9v7v7h7v7h8.2h7h7h7h7h8.2v-7h7v-7v-7h1.2h7h7v-8.2h7v-9.4h7v-53.9v-7v-7v-7v-7v-7v-7v-8.2H1724.5z     M1724.5,90.5v7v7v7h-7v7h-7v8.2h-7h-7h-8.2v7v7h8.2h7V169h-7h-1.2h-7h-7h-7h-7h-7h-7h-1.2h-7v-28.1h7h8.2v-7v-7h-8.2h-7h-7v-8.2    h-7v-7h-7v-7v-7v-7v-7h7h7h7h7h8.2h7v7h7h7v-7h7h8.2h7h7h7h7V90.5z" /></g></g><g
     id="projectname"
     transform="translate(-49.287109,243.69023)" /><g
     id="prenames"
     transform="translate(-304.28859,248.38359)" /><g
     id="logo"><polygon
       id="polygon1428-4"
       class="st0"
       points="526.6,83.4 526.6,26 26.4,26 26.4,83.4 26.4,102.5 26.4,132.2 55.9,102.5    526.6,102.5  " /><path
       id="path1430-8"
       inkscape:connector-curvature="0"
       class="st3"
       d="M494.6,48.1h4.7v-4.8h-4.7V48.1z M488.3,48.1h4.7v-4.8h-4.7   V48.1z M482,48.1h4.7v-4.8H482V48.1z M475.7,48.1h4.7v-4.8h-4.7V48.1z M469.4,48.1h4.7v-4.8h-4.7V48.1z M456.8,48.1h4.7v-4.8h-4.7   V48.1z M431.6,48.1h4.7v-4.8h-4.7V48.1z M412.7,48.1h4.7v-4.8h-4.7V48.1z M406.4,48.1h4.7v-4.8h-4.7V48.1z M400.1,48.1h4.7v-4.8   h-4.7V48.1z M368.6,48.1h4.7v-4.8h-4.7V48.1z M343.4,48.1h4.7v-4.8h-4.7V48.1z M318.2,48.1h4.7v-4.8h-4.7V48.1z M261.5,48.1h4.7   v-4.8h-4.7V48.1z M255.2,48.1h4.7v-4.8h-4.7V48.1z M248.9,48.1h4.7v-4.8h-4.7V48.1z M242.6,48.1h4.7v-4.8h-4.7V48.1z M230,48.1h4.7   v-4.8H230V48.1z M204.8,48.1h4.7v-4.8h-4.7V48.1z M192.2,48.1h4.7v-4.8h-4.7V48.1z M186,48.1h4.7v-4.8H186V48.1z M179.7,48.1h4.7   v-4.8h-4.7V48.1z M173.4,48.1h4.7v-4.8h-4.7V48.1z M148.2,48.1h4.7v-4.8h-4.7V48.1z M141.9,48.1h4.7v-4.8h-4.7V48.1z M135.6,48.1   h4.7v-4.8h-4.7V48.1z M116.7,48.1h4.7v-4.8h-4.7V48.1z M91.5,48.1h4.7v-4.8h-4.7V48.1z M72.6,48.1h4.7v-4.8h-4.7V48.1z M66.3,48.1   H71v-4.8h-4.7V48.1z M60,48.1h4.7v-4.8H60V48.1z M53.7,48.1h4.7v-4.8h-4.7V48.1z M374.9,49.7h4.7v-4.8h-4.7V49.7z M362.3,49.7h4.7   v-4.8h-4.7V49.7z M419,51.2h4.7v-4.8H419V51.2z M393.8,51.2h4.7v-4.8h-4.7V51.2z M267.8,51.2h4.7v-4.8h-4.7V51.2z M167.1,51.2h4.7   v-4.8h-4.7V51.2z M154.5,51.2h4.7v-4.8h-4.7V51.2z M129.3,51.2h4.7v-4.8h-4.7V51.2z M78.9,51.2h4.7v-4.8h-4.7V51.2z M482,54.4h4.7   v-4.8H482V54.4z M450.5,54.4h4.7v-4.8h-4.7V54.4z M431.6,54.4h4.7v-4.8h-4.7V54.4z M381.2,54.4h4.7v-4.8h-4.7V54.4z M356,54.4h4.7   v-4.8H356V54.4z M343.4,54.4h4.7v-4.8h-4.7V54.4z M318.2,54.4h4.7v-4.8h-4.7V54.4z M242.6,54.4h4.7v-4.8h-4.7V54.4z M230,54.4h4.7   v-4.8H230V54.4z M204.8,54.4h4.7v-4.8h-4.7V54.4z M116.7,54.4h4.7v-4.8h-4.7V54.4z M91.5,54.4h4.7v-4.8h-4.7V54.4z M53.7,54.4h4.7   v-4.8h-4.7V54.4z M393.8,57.6h4.7v-4.8h-4.7V57.6z M267.8,57.6h4.7v-4.8h-4.7V57.6z M167.1,57.6h4.7v-4.8h-4.7V57.6z M129.3,57.6   h4.7v-4.8h-4.7V57.6z M78.9,57.6h4.7v-4.8h-4.7V57.6z M482,60.8h4.7V56H482V60.8z M444.2,60.8h4.7V56h-4.7V60.8z M431.6,60.8h4.7   V56h-4.7V60.8z M381.2,60.8h4.7V56h-4.7V60.8z M356,60.8h4.7V56H356V60.8z M343.4,60.8h4.7V56h-4.7V60.8z M318.2,60.8h4.7V56h-4.7   V60.8z M242.6,60.8h4.7V56h-4.7V60.8z M230,60.8h4.7V56H230V60.8z M211.1,60.8h4.7V56h-4.7V60.8z M204.8,60.8h4.7V56h-4.7V60.8z    M116.7,60.8h4.7V56h-4.7V60.8z M91.5,60.8h4.7V56h-4.7V60.8z M393.8,63.9h4.7v-4.8h-4.7V63.9z M267.8,63.9h4.7v-4.8h-4.7V63.9z    M167.1,63.9h4.7v-4.8h-4.7V63.9z M129.3,63.9h4.7v-4.8h-4.7V63.9z M78.9,63.9h4.7v-4.8h-4.7V63.9z M482,67.1h4.7v-4.8H482V67.1z    M437.9,67.1h4.7v-4.8h-4.7V67.1z M431.6,67.1h4.7v-4.8h-4.7V67.1z M381.2,67.1h4.7v-4.8h-4.7V67.1z M356,67.1h4.7v-4.8H356V67.1z    M343.4,67.1h4.7v-4.8h-4.7V67.1z M337.1,67.1h4.7v-4.8h-4.7V67.1z M330.8,67.1h4.7v-4.8h-4.7V67.1z M324.5,67.1h4.7v-4.8h-4.7   V67.1z M318.2,67.1h4.7v-4.8h-4.7V67.1z M242.6,67.1h4.7v-4.8h-4.7V67.1z M230,67.1h4.7v-4.8H230V67.1z M217.4,67.1h4.7v-4.8h-4.7   V67.1z M204.8,67.1h4.7v-4.8h-4.7V67.1z M186,67.1h4.7v-4.8H186V67.1z M179.7,67.1h4.7v-4.8h-4.7V67.1z M173.4,67.1h4.7v-4.8h-4.7   V67.1z M116.7,67.1h4.7v-4.8h-4.7V67.1z M91.5,67.1h4.7v-4.8h-4.7V67.1z M393.8,70.3h4.7v-4.8h-4.7V70.3z M374.9,70.3h4.7v-4.8   h-4.7V70.3z M368.6,70.3h4.7v-4.8h-4.7V70.3z M362.3,70.3h4.7v-4.8h-4.7V70.3z M267.8,70.3h4.7v-4.8h-4.7V70.3z M167.1,70.3h4.7   v-4.8h-4.7V70.3z M154.5,70.3h4.7v-4.8h-4.7V70.3z M148.2,70.3h4.7v-4.8h-4.7V70.3z M141.9,70.3h4.7v-4.8h-4.7V70.3z M129.3,70.3   h4.7v-4.8h-4.7V70.3z M78.9,70.3h4.7v-4.8h-4.7V70.3z M482,73.4h4.7v-4.8H482V73.4z M444.2,73.4h4.7v-4.8h-4.7V73.4z M431.6,73.4   h4.7v-4.8h-4.7V73.4z M381.2,73.4h4.7v-4.8h-4.7V73.4z M356,73.4h4.7v-4.8H356V73.4z M343.4,73.4h4.7v-4.8h-4.7V73.4z M318.2,73.4   h4.7v-4.8h-4.7V73.4z M242.6,73.4h4.7v-4.8h-4.7V73.4z M230,73.4h4.7v-4.8H230V73.4z M223.7,73.4h4.7v-4.8h-4.7V73.4z M204.8,73.4   h4.7v-4.8h-4.7V73.4z M116.7,73.4h4.7v-4.8h-4.7V73.4z M91.5,73.4h4.7v-4.8h-4.7V73.4z M393.8,76.6h4.7v-4.8h-4.7V76.6z    M267.8,76.6h4.7v-4.8h-4.7V76.6z M167.1,76.6h4.7v-4.8h-4.7V76.6z M154.5,76.6h4.7v-4.8h-4.7V76.6z M129.3,76.6h4.7v-4.8h-4.7   V76.6z M78.9,76.6h4.7v-4.8h-4.7V76.6z M53.7,76.6h4.7v-4.8h-4.7V76.6z M482,79.8h4.7V75H482V79.8z M450.5,79.8h4.7V75h-4.7V79.8z    M431.6,79.8h4.7V75h-4.7V79.8z M381.2,79.8h4.7V75h-4.7V79.8z M356,79.8h4.7V75H356V79.8z M343.4,79.8h4.7V75h-4.7V79.8z    M318.2,79.8h4.7V75h-4.7V79.8z M242.6,79.8h4.7V75h-4.7V79.8z M230,79.8h4.7V75H230V79.8z M204.8,79.8h4.7V75h-4.7V79.8z    M116.7,79.8h4.7V75h-4.7V79.8z M91.5,79.8h4.7V75h-4.7V79.8z M419,82.9h4.7v-4.8H419V82.9z M393.8,82.9h4.7v-4.8h-4.7V82.9z    M267.8,82.9h4.7v-4.8h-4.7V82.9z M167.1,82.9h4.7v-4.8h-4.7V82.9z M154.5,82.9h4.7v-4.8h-4.7V82.9z M129.3,82.9h4.7v-4.8h-4.7   V82.9z M78.9,82.9h4.7v-4.8h-4.7V82.9z M53.7,82.9h4.7v-4.8h-4.7V82.9z M482,86.1h4.7v-4.8H482V86.1z M456.8,86.1h4.7v-4.8h-4.7   V86.1z M431.6,86.1h4.7v-4.8h-4.7V86.1z M412.7,86.1h4.7v-4.8h-4.7V86.1z M406.4,86.1h4.7v-4.8h-4.7V86.1z M400.1,86.1h4.7v-4.8   h-4.7V86.1z M381.2,86.1h4.7v-4.8h-4.7V86.1z M356,86.1h4.7v-4.8H356V86.1z M343.4,86.1h4.7v-4.8h-4.7V86.1z M318.2,86.1h4.7v-4.8   h-4.7V86.1z M261.5,86.1h4.7v-4.8h-4.7V86.1z M255.2,86.1h4.7v-4.8h-4.7V86.1z M248.9,86.1h4.7v-4.8h-4.7V86.1z M242.6,86.1h4.7   v-4.8h-4.7V86.1z M230,86.1h4.7v-4.8H230V86.1z M204.8,86.1h4.7v-4.8h-4.7V86.1z M192.2,86.1h4.7v-4.8h-4.7V86.1z M186,86.1h4.7   v-4.8H186V86.1z M179.7,86.1h4.7v-4.8h-4.7V86.1z M173.4,86.1h4.7v-4.8h-4.7V86.1z M148.2,86.1h4.7v-4.8h-4.7V86.1z M141.9,86.1   h4.7v-4.8h-4.7V86.1z M135.6,86.1h4.7v-4.8h-4.7V86.1z M110.4,86.1h4.7v-4.8h-4.7V86.1z M104.1,86.1h4.7v-4.8h-4.7V86.1z    M97.8,86.1h4.7v-4.8h-4.7V86.1z M72.6,86.1h4.7v-4.8h-4.7V86.1z M66.3,86.1H71v-4.8h-4.7V86.1z M60,86.1h4.7v-4.8H60V86.1z" /></g><g
     id="g174"><g
       id="g176"><g
         id="g178"><path
           class="st0"
           d="M200.3,881.8v16.9v17.8v17.8v17.8v17.8v17.9v17.8v18.8h17.8v17.8H236v17.9h34.7h17.8h17.8h17.9h17.8H361     v-17.9h17.8v-17.8h17.8v-18.8v-17.8v-17.9v-17.8v-17.8v-17.8v-17.8v-16.9h-17.8V864h-35.7v17.8h-17.8v17.8h-18.8h-17.8h-16.9     v-17.8h-17.8V864h-35.7v17.8H200.3z M218.2,953.2h13.9v-17.8H361v17.8h17.8v16.9v17.9v18.8H361v17.8h-17.8v17.8h-18.8h-17.9     h-17.8h-17.8h-16.9v-17.8H236v-17.8h-17.8v-18.8v-17.9V953.2z"
           id="path180" /></g></g><g
       id="g182"><path
         class="st3"
         d="M217,954v16.9v17.8v18.2h20v17h16v19h19.7h17.8h17.8h17.8H344v-19h16v-17h17v-18.2v-17.8V954h-17v-17h-15.9    h-17.8h-17.8h-17.8h-17.8H230v17H217z"
         id="path184" /><rect
         x="344"
         y="970"
         width="16"
         height="20"
         id="rect186" /><rect
         x="237"
         y="970"
         width="16"
         height="20"
         id="rect188" /><rect
         x="306"
         y="990"
         width="18"
         height="17"
         id="rect190" /><rect
         x="271"
         y="1007"
         width="53"
         height="17"
         id="rect192" /><rect
         x="271"
         y="990"
         width="19"
         height="17"
         id="rect194" /></g></g></svg>