<?xml version="1.0" encoding="UTF-8" standalone="no"?>
<!-- Created with Inkscape (http://www.inkscape.org/) -->

<svg
   xmlns:dc="http://purl.org/dc/elements/1.1/"
   xmlns:cc="http://creativecommons.org/ns#"
   xmlns:rdf="http://www.w3.org/1999/02/22-rdf-syntax-ns#"
   xmlns:svg="http://www.w3.org/2000/svg"
   xmlns="http://www.w3.org/2000/svg"
   xmlns:xlink="http://www.w3.org/1999/xlink"
   xmlns:sodipodi="http://sodipodi.sourceforge.net/DTD/sodipodi-0.dtd"
   xmlns:inkscape="http://www.inkscape.org/namespaces/inkscape"
   width="1024"
   height="576"
   id="svg2"
   version="1.1"
   inkscape:version="0.48.4 r9939"
   sodipodi:docname="intro.svg"
   inkscape:export-filename="/home/peter/AAA-VOC/intro-outro-generator/30-jahre-btx/artwork/intro.png"
   inkscape:export-xdpi="90"
   inkscape:export-ydpi="90">
  <defs
     id="defs4" />
  <sodipodi:namedview
     id="base"
     pagecolor="#ffffff"
     bordercolor="#666666"
     borderopacity="1.0"
     inkscape:pageopacity="0.0"
     inkscape:pageshadow="2"
     inkscape:zoom="0.70710678"
     inkscape:cx="707.28506"
     inkscape:cy="355.10484"
     inkscape:document-units="px"
     inkscape:current-layer="layer1"
     showgrid="false"
     inkscape:window-width="1920"
     inkscape:window-height="993"
     inkscape:window-x="0"
     inkscape:window-y="27"
     inkscape:window-maximized="1" />
  <metadata
     id="metadata7">
    <rdf:RDF>
      <cc:Work
         rdf:about="">
        <dc:format>image/svg+xml</dc:format>
        <dc:type
           rdf:resource="http://purl.org/dc/dcmitype/StillImage" />
        <dc:title />
      </cc:Work>
    </rdf:RDF>
  </metadata>
  <g
     inkscape:label="Ebene 1"
     inkscape:groupmode="layer"
     id="layer1"
     transform="translate(0,-476.36218)">
    <rect
       style="opacity:1;fill:#000070;fill-opacity:1;fill-rule:nonzero;stroke:none"
       id="rect3155"
       width="1024"
       height="576"
       x="0"
       y="476.36218" />
    <image
       y="410.36218"
       x="-14.628601"
       id="image2997"
       xlink:href="file:///home/peter/AAA-VOC/intro-outro-generator/30-jahre-btx/artwork/zugang-nt.gif"
       height="576"
       width="1053.2572" />
    <flowRoot
       xml:space="preserve"
       id="flowRoot3000"
       style="font-size:40px;font-style:normal;font-variant:normal;font-weight:normal;font-stretch:normal;line-height:75%;letter-spacing:0px;word-spacing:0px;fill:#000000;fill-opacity:1;stroke:none;font-family:Abel;-inkscape-font-specification:Abel"
       transform="translate(0,422.36218)"><flowRegion
         id="flowRegion3002"><rect
           id="rect3004"
           width="789.99994"
           height="215.75272"
           x="118.57143"
           y="370.28571"
           style="line-height:75%" /></flowRegion><flowPara
         id="flowPara3006"
         style="font-size:40px;font-style:normal;font-variant:normal;font-weight:normal;font-stretch:normal;text-align:center;line-height:75.99999905%;writing-mode:lr-tb;text-anchor:middle;fill:#ffffff;fill-opacity:1;font-family:'6px';-inkscape-font-specification:'6px,'"><flowSpan
   style="fill:#f0f000;fill-opacity:1"
   id="flowSpan3943">30 Jahre</flowSpan> BTX Hack</flowPara><flowPara
         id="flowPara3008"
         style="font-size:40px;font-style:normal;font-variant:normal;font-weight:normal;font-stretch:normal;text-align:center;line-height:75.99999905%;writing-mode:lr-tb;text-anchor:middle;fill:#ffffff;fill-opacity:1;font-family:'6px';-inkscape-font-specification:'6px,'"><flowSpan
   style="fill:#f0f000;fill-opacity:1"
   id="flowSpan3945">18.11.2014</flowSpan> BCC Berlin</flowPara><flowPara
         style="font-size:40px;font-style:normal;font-variant:normal;font-weight:normal;font-stretch:normal;text-align:center;line-height:75%;writing-mode:lr-tb;text-anchor:middle;fill:#ffffff;fill-opacity:1;font-family:'6px';-inkscape-font-specification:'6px,'"
         id="flowPara3151" /><flowPara
         id="flowPara3010"
         style="font-size:40px;font-style:normal;font-variant:normal;font-weight:normal;font-stretch:normal;text-align:center;line-height:75%;writing-mode:lr-tb;text-anchor:middle;fill:#ffffff;fill-opacity:1;font-family:'6px';-inkscape-font-specification:'6px,'" /><flowPara
         style="font-size:40px;font-style:normal;font-variant:normal;font-weight:normal;font-stretch:normal;text-align:center;line-height:75%;writing-mode:lr-tb;text-anchor:middle;fill:#ffffff;fill-opacity:1;font-family:'6px';-inkscape-font-specification:'6px,'"
         id="flowPara3147" /><flowPara
         style="font-size:40px;font-style:normal;font-variant:normal;font-weight:normal;font-stretch:normal;text-align:center;line-height:75%;writing-mode:lr-tb;text-anchor:middle;fill:#f0f000;fill-opacity:1;font-family:'6px';-inkscape-font-specification:'6px,'"
         id="flowPara3153">Andy Mueller Magun, Steffen Werneey,</flowPara><flowPara
         style="font-size:40px;font-style:normal;font-variant:normal;font-weight:normal;font-stretch:normal;text-align:center;line-height:75%;writing-mode:lr-tb;text-anchor:middle;fill:#f0f000;fill-opacity:1;font-family:'6px';-inkscape-font-specification:'6px,'"
         id="flowPara3141">Eric Danke, Bernd Fix</flowPara></flowRoot>    <g
       id="g3962"
       transform="translate(-26,78)">
      <rect
         y="417.78931"
         x="882.23706"
         height="111.01576"
         width="148.6692"
         id="rect3960"
         style="fill:#ffffff;fill-opacity:1;fill-rule:nonzero;stroke:none" />
      <path
         inkscape:connector-curvature="0"
         id="path3958"
         d="m 981.15084,526.78201 c -1.53947,-1.63577 -2.70206,-3.37135 -4.01493,-5.99368 l -1.35663,-2.70974 -0.92797,0.99465 c -0.5104,0.54705 -1.56926,1.68803 -2.35305,2.53553 -0.78378,0.84751 -1.58427,1.60146 -1.77884,1.67544 -0.19459,0.074 -0.70575,0.0839 -1.13591,0.0219 -0.71998,-0.10362 -0.79674,-0.15444 -0.9662,-0.63976 -0.10125,-0.28997 -0.22379,-0.71301 -0.27233,-0.94013 -0.063,-0.29458 -0.20658,-0.43814 -0.50115,-0.50097 -1.08251,-0.23089 -2.11839,-0.73096 -2.70771,-1.30718 l -0.63393,-0.61984 -0.49847,0.39986 c -0.27414,0.21993 -0.70228,0.56232 -0.95141,0.76086 -0.64643,0.51518 -3.82769,1.88426 -4.17024,1.7947 -0.37144,-0.0971 -0.54324,-0.75416 -0.26567,-1.01604 0.11457,-0.1081 0.93423,-0.51922 1.82147,-0.91361 0.95021,-0.42239 1.95071,-0.99936 2.43452,-1.40397 l 0.82133,-0.6869 -0.43393,-1.28378 c -0.41345,-1.22309 -0.4338,-1.4091 -0.43079,-3.93545 0.003,-2.36908 0.043,-2.78846 0.37678,-3.93506 0.79344,-2.72563 1.41348,-3.8414 4.23709,-7.6248 3.07568,-4.12115 5.78312,-6.26592 7.90975,-6.26592 1.18929,0 2.72369,0.42092 3.57457,0.98058 1.14405,0.75248 1.71501,1.86896 1.71501,3.35364 0,1.29751 -0.16917,1.68966 -2.23362,5.1779 -0.91692,1.54932 -1.63004,2.5424 -2.43946,3.39719 -0.62908,0.66434 -1.66979,1.81097 -2.31272,2.54806 l -1.16893,1.34018 1.39736,1.03797 c 0.76855,0.5709 1.67447,1.35166 2.01316,1.73506 l 0.61579,0.69707 0.56338,-0.76747 c 0.30985,-0.42209 1.37822,-1.4266 2.37415,-2.23223 3.05134,-2.46828 4.10587,-4.04587 3.74615,-5.60427 -0.14515,-0.62879 0.0558,-2.70222 0.41261,-4.25768 0.12286,-0.53554 0.38886,-1.9821 0.59111,-3.21455 0.48538,-2.95761 1.13773,-4.34244 2.04559,-4.34244 0.51145,0 0.63521,0.21041 0.8881,1.50987 0.23567,1.21108 -0.0217,6.20802 -0.39282,7.62479 -0.33154,1.26587 -1.02941,2.80726 -1.89976,4.19603 -0.72338,1.15425 -0.74331,1.21776 -0.83011,2.64543 -0.0489,0.80453 -0.0387,2.46495 0.0226,3.68982 l 0.11152,2.22705 1.01886,0 c 1.13595,0 3.40971,-0.52333 5.1082,-1.1757 2.08791,-0.80195 3.44214,-2.2565 4.51835,-4.8531 0.62929,-1.51829 0.92194,-1.85713 1.36439,-1.57981 0.4354,0.273 0.3911,0.75295 -0.20466,2.21598 -1.09194,2.68132 -2.83445,4.53112 -5.07508,5.38748 -1.89444,0.72405 -3.97306,1.23096 -5.4205,1.3219 l -1.30132,0.0817 -0.0692,3.94358 c -0.045,2.56474 -0.13013,4.05706 -0.24349,4.26815 -0.17054,0.31754 -1.30872,0.80782 -1.87534,0.80782 -0.15553,0 -0.52256,-0.25479 -0.81564,-0.5662 z m 1.45792,-1.17997 c 0.081,-0.21301 0.14724,-1.94069 0.14724,-3.83927 l 0,-3.452 -0.79267,-0.0781 c -2.20051,-0.21679 -4.01604,-0.41921 -4.47321,-0.49875 l -0.50982,-0.0887 1.32407,2.54894 c 0.72826,1.40194 1.597,2.92265 1.93057,3.37939 0.89918,1.2312 1.92085,2.41578 2.08352,2.41578 0.0787,0 0.20931,-0.17429 0.2903,-0.3873 z m -11.07931,-4.83669 c 0.65229,-0.7141 1.71367,-1.85795 2.35864,-2.54191 l 1.17265,-1.24355 -0.79588,-0.74204 c -0.43772,-0.40813 -1.20322,-1.33456 -1.7011,-2.05875 l -0.90523,-1.31671 -1.35888,1.32871 c -0.74738,0.73078 -2.03831,1.89411 -2.86874,2.58515 -0.83042,0.69105 -1.59906,1.33782 -1.70809,1.43725 -0.49934,0.45547 1.46407,1.73639 2.66157,1.73639 0.61604,0 1.03664,0.37112 1.15088,1.01546 0.2625,1.48058 0.47885,1.45888 1.99418,-0.2 z m -4.85347,-5.06033 c 2.27352,-1.90875 3.65263,-3.25112 5.41141,-5.26724 0.76063,-0.87193 1.96049,-2.20227 2.66635,-2.95629 0.93037,-0.99388 1.64051,-1.96986 2.58174,-3.54821 2.21178,-3.70891 2.42311,-4.41128 1.71661,-5.70496 -0.43952,-0.80482 -1.05411,-1.25311 -2.06267,-1.50459 -1.31719,-0.32844 -2.15996,-0.23294 -3.31901,0.37612 -1.80086,0.94632 -3.30458,2.53702 -6.27581,6.63872 -1.63774,2.26088 -2.20674,3.35048 -2.84867,5.45504 -0.35799,1.17365 -0.39817,1.54916 -0.40684,3.80222 -0.008,2.04764 0.0413,2.65705 0.27207,3.36814 0.15491,0.47749 0.32021,0.86683 0.36732,0.86518 0.0471,-0.002 0.90099,-0.6875 1.8975,-1.52413 z m 16.0794,0.43247 c 0,-0.43597 -0.0451,-1.66668 -0.0996,-2.73489 -0.092,-1.80488 -0.11603,-1.92148 -0.33911,-1.64898 -0.13203,0.16129 -0.57977,0.55889 -0.99498,0.88361 -1.71262,1.33927 -2.73528,2.25652 -3.28347,2.94501 l -0.58021,0.72871 0.64846,0.18124 c 0.57158,0.15976 2.4036,0.34585 4.08339,0.41476 l 0.56619,0.0232 0,-0.79268 z m 2.62752,-11.98191 c 0.29473,-1.13736 0.57603,-4.18085 0.51485,-5.57023 l -0.0465,-1.0569 -0.27606,1.66085 c -0.15185,0.91346 -0.4343,2.4422 -0.62768,3.39719 -0.19339,0.95498 -0.3941,2.21194 -0.44603,2.79324 l -0.0944,1.0569 0.37092,-0.68896 c 0.20403,-0.37895 0.47626,-1.09538 0.60496,-1.59209 z m -98.68778,-18.19011 c -1.05715,-0.15484 -2.34314,-0.68949 -2.53908,-1.05562 -0.2289,-0.4277 -0.18276,-1.4986 0.0646,-1.4986 0.11524,0 0.67577,0.21893 1.24563,0.48652 1.85148,0.86941 3.95244,0.6897 4.66584,-0.39909 0.3683,-0.5621 0.45451,-1.60256 0.1772,-2.13882 -0.33659,-0.6509 -0.61517,-0.85123 -2.52355,-1.81478 -2.61191,-1.31877 -3.46936,-2.3173 -3.47183,-4.04309 -0.002,-1.49962 0.94346,-2.84019 2.33878,-3.31562 1.48129,-0.50474 3.92164,-0.19294 4.71726,0.60267 0.30865,0.30865 0.36151,0.47493 0.29035,0.91341 -0.0479,0.29483 -0.123,0.57207 -0.16701,0.61609 -0.044,0.044 -0.54494,-0.13426 -1.11315,-0.39618 -1.93119,-0.89014 -3.62225,-0.55305 -4.07706,0.81271 -0.25757,0.77348 -0.0393,1.56671 0.57272,2.08173 0.24392,0.20524 1.25556,0.78717 2.24809,1.2932 2.15018,1.09623 2.92005,1.84029 3.20041,3.09307 0.32606,1.45699 -0.2993,3.15382 -1.46766,3.98231 -0.95179,0.67491 -2.67468,0.99789 -4.16151,0.78009 z m 18.90697,0.0318 -0.37746,-0.1083 -0.0394,-6.07041 -0.0394,-6.07041 -2.03371,0 -2.03373,0 -0.0947,-0.37747 c -0.0521,-0.2076 -0.0521,-0.54732 0,-0.75493 l 0.0947,-0.37746 5.03755,0 5.03756,0 0.0779,0.40757 c 0.0429,0.22416 0.0185,0.56388 -0.0541,0.75493 -0.12884,0.33885 -0.18206,0.34736 -2.17412,0.34736 l -2.04205,0 0,6.11493 c 0,4.7902 -0.0409,6.1154 -0.18873,6.11701 -0.10381,10e-4 -0.32463,0.0298 -0.49071,0.0638 -0.16608,0.0339 -0.47183,0.013 -0.67944,-0.0466 z m 16.79721,0.0252 -0.33972,-0.0654 0,-6.84257 0,-6.84256 0.50982,-0.0957 c 0.2804,-0.0526 0.68807,-0.0279 0.90592,0.055 l 0.3961,0.15059 0,6.72635 0,6.72636 -0.3873,0.14726 c -0.39633,0.15068 -0.49461,0.15436 -1.08482,0.0407 z m 13.28678,-0.0491 -0.33972,-0.13655 0,-6.62975 c 0,-5.4432 0.0372,-6.66064 0.20774,-6.80218 0.14544,-0.1207 1.22107,-0.16022 3.58592,-0.13174 l 3.37818,0.0407 0,0.67944 0,0.67944 -2.68,0.0412 -2.68001,0.0412 0,2.33315 0,2.33314 2.52902,0.0414 2.52902,0.0414 0,0.67943 0,0.67944 -2.52902,0.0414 -2.52902,0.0414 0,2.9972 0,2.99719 -0.47182,0.0944 c -0.56291,0.11257 -0.56849,0.11224 -1.00029,-0.0613 z m 21.28904,0 -0.33972,-0.13655 0,-6.04004 0,-6.04005 -2.07606,-0.042 -2.07606,-0.042 0,-0.67944 0,-0.67944 5.05804,0 5.05803,0 0,0.67944 0,0.67944 -2.07606,0.042 -2.07605,0.042 0,6.0918 0,6.09181 -0.47183,0.0944 c -0.56291,0.11257 -0.56848,0.11224 -1.00029,-0.0613 z m 18.1246,-0.006 c -2.47534,-0.3177 -3.95076,-1.78861 -4.27162,-4.25853 -0.17666,-1.35983 -0.19225,-9.17134 -0.0189,-9.44484 0.16814,-0.26524 1.7902,-0.40105 2.3214,-0.19439 l 0.41521,0.16156 0.001,4.49557 c 0,2.62648 0.0657,4.72903 0.15678,5.05708 0.3386,1.21939 1.33659,1.92977 2.71105,1.92977 1.47213,0 2.40731,-0.73203 2.70429,-2.11683 0.0968,-0.45135 0.16444,-2.53536 0.16444,-5.06619 l 0,-4.2994 0.3873,-0.14724 c 0.21301,-0.081 0.65022,-0.14726 0.97158,-0.14726 0.32135,0 0.75856,0.0663 0.97158,0.14726 l 0.3873,0.14724 -0.002,4.64657 c -0.002,5.07908 -0.0784,5.69646 -0.86311,6.97184 -0.99173,1.61182 -3.39886,2.45633 -6.03644,2.11781 z m 20.22587,0.006 -0.33971,-0.13655 0,-6.46367 c 0,-7.52908 -0.0751,-7.1348 1.35902,-7.1348 0.7091,0 0.9655,0.0687 1.2672,0.33972 0.3405,0.30571 4.4145,7.52856 5.5845,9.90075 l 0.471,0.95482 0.076,-5.5599 0.075,-5.5599 0.7927,-0.0457 0.7926,-0.0457 0,6.69656 c 0,5.00714 -0.046,6.74229 -0.1811,6.87777 -0.1,0.0996 -0.5446,0.18118 -0.9887,0.18118 -0.6569,0 -0.8694,-0.067 -1.1399,-0.35972 -0.3237,-0.3502 -1.7954,-2.93843 -4.815,-8.46819 l -1.4815,-2.71298 0,5.69868 0,5.6987 -0.3873,0.14726 c -0.45943,0.17467 -0.63256,0.17333 -1.0848,-0.008 z m 28.27221,0.0528 c -2.9212,-0.24705 -4.9953,-1.97789 -5.7569,-4.8041 -0.4822,-1.78883 -0.1407,-4.64395 0.7335,-6.13347 1.4822,-2.52559 4.7246,-3.72691 7.8636,-2.9135 1.6626,0.43081 2.3688,0.95832 2.3688,1.76944 0,0.8403 -0.2197,0.8934 -1.3341,0.32253 -1.2485,-0.63957 -2.3948,-0.88424 -3.5698,-0.76194 -2.3221,0.24168 -3.9335,1.90223 -4.2745,4.40476 -0.1722,1.26357 0,2.84069 0.4023,3.75771 0.42,0.94936 1.4083,1.95459 2.3249,2.36454 1.0245,0.45823 2.8527,0.49654 3.9265,0.0823 l 0.7214,-0.27836 -0.042,-1.98643 -0.042,-1.98645 -1.6553,-0.0432 c -1.7502,-0.0456 -1.8864,-0.10292 -1.8906,-0.79478 -0.01,-0.68665 0.204,-0.74739 2.5611,-0.74739 3.0881,0 2.8721,-0.25484 2.8721,3.38902 0,2.56354 -0.032,2.95595 -0.2642,3.2228 -0.5834,0.67086 -3.2375,1.28089 -4.9448,1.1365 z m -139.47501,-26.8771 c -0.24948,-0.0651 -0.26335,-0.48718 -0.22648,-6.8901 l 0.0393,-6.82075 0.83042,0 0.83042,0 0.0411,2.83098 0.0411,2.83099 3.16738,0 3.16738,0 0,-2.85159 0,-2.8516 0.41521,-0.0587 c 0.22837,-0.0323 0.61905,-0.0223 0.86817,0.0221 l 0.45296,0.0807 0.0393,6.7577 0.0393,6.7577 -0.36747,0.16743 c -0.20782,0.0947 -0.60207,0.12342 -0.90747,0.0661 l -0.54001,-0.1013 0,-3.16387 0,-3.16387 -3.17071,0 -3.17071,0 0,3.15311 c 0,3.14224 -10e-4,3.1534 -0.33972,3.24413 -0.37437,0.10033 -0.80211,0.0971 -1.20941,-0.009 z m 27.36777,0.006 c -3.62698,-0.38599 -5.28678,-2.79778 -5.0984,-7.40828 0.14733,-3.60586 1.39557,-5.56017 4.08754,-6.39963 1.4933,-0.46568 3.577,-0.36661 4.89836,0.23289 2.16248,0.98111 3.21167,3.07394 3.20661,6.39619 -0.006,3.75114 -1.52762,6.24755 -4.23088,6.94003 -0.80438,0.20606 -2.13114,0.31672 -2.86323,0.2388 z m 2.4512,-1.79821 c 1.26208,-0.43003 2.16273,-1.58733 2.5332,-3.25505 0.25533,-1.14946 0.12047,-4.04005 -0.23464,-5.02928 -0.59374,-1.65397 -2.28379,-2.64442 -4.17499,-2.44675 -2.78873,0.29148 -4.1277,2.69521 -3.72775,6.69206 0.15458,1.54476 0.77582,3.01023 1.49241,3.52047 1.05123,0.74855 2.79235,0.96813 4.11177,0.51855 z m 17.99852,1.68282 c -0.28111,-0.20546 -0.29481,-0.48054 -0.33552,-6.7355 -0.031,-4.75967 0.004,-6.57797 0.13172,-6.73115 0.2142,-0.25808 1.36701,-0.27852 1.61686,-0.0287 0.13477,0.13477 0.18119,1.70112 0.18119,6.11494 l 0,5.93376 2.46107,0 c 2.6831,0 2.82344,0.0413 2.82344,0.83041 0,0.25744 -0.0815,0.5496 -0.18118,0.64924 -0.2825,0.2825 -6.30653,0.25279 -6.69758,-0.033 z m 20.25473,-0.0202 c -0.21229,-0.21228 -0.24018,-1.01014 -0.24018,-6.8699 l 0,-6.62973 0.35657,-0.0895 c 0.19612,-0.0492 0.58679,-0.0675 0.86818,-0.0406 l 0.51159,0.0489 0.0394,6.07363 0.0394,6.07364 2.59208,0.0413 2.59209,0.0413 0.0969,0.37746 c 0.0533,0.2076 0.0551,0.54733 0.004,0.75493 l -0.0929,0.37747 -3.26355,0.0406 c -2.81843,0.0351 -3.29628,0.008 -3.50371,-0.19951 z m 18.14239,0.13029 c -0.15536,-0.0406 -0.26423,-0.21261 -0.26423,-0.41742 0,-0.46758 4.34108,-12.93738 4.59259,-13.19231 0.13842,-0.1403 0.64592,-0.1996 1.68961,-0.19746 1.28458,0.003 1.52422,0.0432 1.72556,0.2918 0.1286,0.15882 1.24304,3.1899 2.47653,6.73573 1.68912,4.85558 2.19988,6.48982 2.06922,6.62049 -0.22813,0.22814 -1.95565,0.3297 -2.43744,0.1433 -0.31085,-0.12026 -0.46601,-0.41627 -0.87916,-1.67742 l -0.50169,-1.53137 -2.58095,0.0413 -2.58096,0.0413 -0.47755,1.43436 c -0.36454,1.09491 -0.56406,1.47851 -0.843,1.62089 -0.35352,0.18042 -1.44764,0.22823 -1.98853,0.0869 z m 7.73803,-5.44457 c 0,-0.0622 -0.41885,-1.36978 -0.93078,-2.90571 l -0.9308,-2.79259 -0.88249,2.6415 c -0.48537,1.45282 -0.92039,2.76039 -0.96671,2.90571 -0.0772,0.2421 0.0747,0.26423 1.81328,0.26423 1.04363,0 1.8975,-0.0509 1.8975,-0.11314 z m 17.02369,5.44457 c -0.24658,-0.0645 -0.26423,-0.51133 -0.26423,-6.6906 0,-5.81826 0.0288,-6.65031 0.23726,-6.8588 0.34227,-0.34227 1.89135,-0.32415 2.30655,0.0269 0.3015,0.25505 2.7578,4.58931 5.0356,8.88606 l 1.1023,2.07918 0.075,-5.57699 0.076,-5.57699 0.7549,0 0.755,0 0.039,6.66136 c 0.044,7.50247 0.1089,7.09099 -1.1102,7.06413 -0.3557,-0.008 -0.8146,-0.12419 -1.0196,-0.25855 -0.2331,-0.15271 -1.4468,-2.18537 -3.2371,-5.42125 -1.5753,-2.84733 -2.9638,-5.37237 -3.0856,-5.61122 -0.1972,-0.38676 -0.2135,0.18371 -0.149,5.21549 0.066,5.18383 0.051,5.671 -0.1853,5.90751 -0.2454,0.24538 -0.75485,0.30421 -1.33086,0.15369 z m 23.05428,-0.11024 c -0.2823,-0.20641 -0.2931,-0.45446 -0.2931,-6.73105 0,-6.3394 0.01,-6.52301 0.3019,-6.74684 0.2533,-0.19295 0.6918,-0.21604 2.7178,-0.14304 3.2365,0.11661 4.4731,0.47878 5.6949,1.66799 1.2576,1.22425 1.8232,2.79783 1.8242,5.07594 0,4.17503 -1.8486,6.45422 -5.6318,6.93736 -1.7743,0.2266 -4.2661,0.19401 -4.6139,-0.0604 z m 5.4408,-1.66438 c 1.4427,-0.43418 2.2932,-1.47239 2.7311,-3.3337 0.293,-1.2454 0.2221,-3.09209 -0.1604,-4.17812 -0.3069,-0.87173 -1.2727,-1.99561 -2.0599,-2.3972 -0.6179,-0.31526 -2.2253,-0.5806 -3.5647,-0.58849 l -0.7927,-0.004 0,5.45774 0,5.45774 1.575,-0.10183 c 0.8662,-0.056 1.8884,-0.19617 2.2716,-0.31148 z m -53.04429,-24.20443 c -0.24145,-0.2047 -0.69096,-1.7245 -1.99557,-6.74694 -1.58982,-6.1205 -1.66874,-6.49381 -1.41255,-6.68114 0.30576,-0.22358 2.13159,-0.27003 2.45911,-0.0626 0.12388,0.0785 0.70862,2.30855 1.45433,5.54643 0.87102,3.78203 1.27731,5.30135 1.34714,5.03773 0.055,-0.20761 0.63724,-2.61812 1.29385,-5.35667 0.85336,-3.55913 1.26876,-5.034 1.45652,-5.17128 0.15168,-0.11091 0.69707,-0.19207 1.2907,-0.19207 0.80607,0 1.08954,0.0615 1.31284,0.28479 0.19945,0.19946 0.66112,1.82842 1.54053,5.4355 0.69065,2.83289 1.29719,5.15071 1.34787,5.15071 0.0507,0 0.62876,-2.35357 1.28463,-5.23014 0.65587,-2.87659 1.28491,-5.32256 1.39784,-5.4355 0.21049,-0.21049 1.75097,-0.28976 2.20974,-0.11371 0.13136,0.0504 0.23883,0.21806 0.23883,0.37254 0,0.15451 -0.74625,3.11977 -1.65834,6.58949 -1.31223,4.99203 -1.72536,6.36374 -1.97953,6.57282 -0.42573,0.35021 -2.77229,0.38053 -3.2555,0.042 -0.25588,-0.17921 -0.53208,-1.08499 -1.42912,-4.68655 -0.73426,-2.94801 -1.15075,-4.37261 -1.22623,-4.19418 -0.0628,0.14861 -0.55758,2.13866 -1.09937,4.42232 -0.77256,3.25626 -1.05307,4.20913 -1.30016,4.41635 -0.2476,0.20765 -0.59887,0.26423 -1.64049,0.26423 -1.04293,0 -1.39186,-0.0563 -1.63707,-0.26423 z"
         style="fill:#000070;fill-opacity:1;stroke:none" />
    </g>
  </g>
  <rect
     style="fill:#ff0000;fill-opacity:1;fill-rule:nonzero;stroke:none"
     id="colmask"
     width="1024"
     height="576"
     x="0"
     y="0"
     inkscape:label="#rect3000" />
  <rect
     style="fill:#00ff00;fill-opacity:1;fill-rule:nonzero;stroke:none"
     id="rowmask"
     width="1024"
     height="16"
     x="0"
     y="560"
     inkscape:label="#rect3772" />
</svg>
