<?xml version="1.0" encoding="UTF-8" standalone="no"?>
<!-- Generator: Adobe Illustrator 18.0.0, SVG Export Plug-In . SVG Version: 6.00 Build 0)  -->

<svg
   xmlns:dc="http://purl.org/dc/elements/1.1/"
   xmlns:cc="http://creativecommons.org/ns#"
   xmlns:rdf="http://www.w3.org/1999/02/22-rdf-syntax-ns#"
   xmlns:svg="http://www.w3.org/2000/svg"
   xmlns="http://www.w3.org/2000/svg"
   xmlns:sodipodi="http://sodipodi.sourceforge.net/DTD/sodipodi-0.dtd"
   xmlns:inkscape="http://www.inkscape.org/namespaces/inkscape"
   version="1.1"
   id="Layer_1"
   x="0px"
   y="0px"
   viewBox="0 0 606 237"
   enable-background="new 0 0 606 237"
   xml:space="preserve"
   sodipodi:docname="1aim.svg"
   inkscape:version="0.92.1 r"><metadata
     id="metadata41"><rdf:RDF><cc:Work
         rdf:about=""><dc:format>image/svg+xml</dc:format><dc:type
           rdf:resource="http://purl.org/dc/dcmitype/StillImage" /></cc:Work></rdf:RDF></metadata><defs
     id="defs39" /><sodipodi:namedview
     pagecolor="#ffffff"
     bordercolor="#666666"
     borderopacity="1"
     objecttolerance="10"
     gridtolerance="10"
     guidetolerance="10"
     inkscape:pageopacity="0"
     inkscape:pageshadow="2"
     inkscape:window-width="1918"
     inkscape:window-height="1042"
     id="namedview37"
     showgrid="false"
     inkscape:zoom="0.55445545"
     inkscape:cx="-61.321429"
     inkscape:cy="118.5"
     inkscape:window-x="1920"
     inkscape:window-y="18"
     inkscape:window-maximized="0"
     inkscape:current-layer="Layer_1" /><g
     id="g8"
     style="fill:#ffffff"><path
       style="fill:#ffffff"
       inkscape:connector-curvature="0"
       id="path2"
       d="m 293.8,76.8 c 0,-1.5 -0.5,-1.9 -2,-1.9 -8.9,0.1 -17.9,0.1 -26.8,0 -1.5,0 -2,0.4 -2,1.9 -0.2,4.9 -0.5,9.9 -0.8,15.3 -1.7,-2.2 -3,-4.1 -4.6,-5.7 -8.9,-9.3 -20.1,-13.6 -32.7,-14.5 -7.2,-0.5 -14.4,0 -21.4,1.6 -18,4 -31.8,13.1 -40.3,28 -2,3.5 -3.7,7.3 -5.1,11.4 -6,17.7 -5.6,35.8 -0.1,53.6 3.5,11.1 9.6,20.5 18.5,27.5 1.5,1.2 3.1,2.3 4.7,3.4 15.1,9.5 31.6,12.4 49,9.2 10,-1.8 19,-6.2 26.3,-13.5 2.1,-2.1 3.7,-4.7 5.6,-7.6 0.5,5.7 0.9,10.9 1.2,16.1 0.1,1.7 0.6,2.3 2.4,2.3 8.7,-0.1 17.3,-0.1 26,0 1.5,0 1.9,-0.4 1.9,-1.9 0,-18 0,-36 0,-54 0,-20.5 0,-41 0,-61.5 0.2,-3.3 0.2,-6.5 0.2,-9.7 z m -32.9,55.8 c 1.5,8.6 0.9,16.7 -2.3,24.4 -1,2.3 -2.1,4.6 -3.5,6.8 -5.5,8.6 -13.4,13.6 -23.4,15.3 -10.6,1.8 -20.6,0.3 -29.7,-5.8 -0.6,-0.4 -1.1,-0.8 -1.7,-1.2 -8.1,-6.1 -12.5,-14.5 -13.9,-24.7 -1.2,-9.1 -0.4,-18 3.9,-26.3 2.8,-5.4 6.5,-9.6 10.9,-12.7 4.5,-3.1 9.8,-5.2 15.8,-6.2 0.9,-0.1 1.7,-0.3 2.6,-0.4 1.5,-0.1 3,0 4.4,0 10.8,-0.2 20.2,3.3 27.6,11.3 2,2.2 3.7,4.6 5.1,7.2 2,3.9 3.4,8 4.2,12.3 z" /><path
       style="fill:#ffffff"
       inkscape:connector-curvature="0"
       id="path4"
       d="m 357.2,139 c 0,-6.2 0,-12.4 0,-18.6 0,-14.6 0,-29.1 0,-43.7 0,-1.7 -0.3,-2.5 -2.3,-2.4 -9.3,0.1 -18.6,0.1 -27.8,0 -1.5,0 -1.9,0.4 -1.9,1.9 0,9 0,18 0,27 0,27.4 0,54.8 0,82.3 0,5.5 0,10.9 0,16.4 0,1.6 0.5,2 2,2 9.2,-0.1 18.4,-0.1 27.6,0 1.8,0 2.4,-0.5 2.4,-2.3 0,-11 0,-21.9 0,-32.9 0,-10 0,-19.8 0,-29.7 z" /><path
       style="fill:#ffffff"
       inkscape:connector-curvature="0"
       id="path6"
       d="m 592.5,122.9 c 0,-0.5 -0.1,-0.9 -0.2,-1.4 -3.1,-25.9 -15.8,-41.8 -37.5,-47 -2.3,-0.5 -4.7,-1 -7.1,-1.3 -3.2,-0.4 -6.5,-0.6 -9.9,-0.6 -19.1,0 -32.8,7.2 -42.9,22.6 -9,-20.1 -27.7,-23.1 -38.2,-23.1 -4.9,0 -19.3,0.9 -29.1,10.7 -1.6,1.6 -3.1,3.4 -4.4,5.5 l -1,-6.7 -1,-6.7 c -0.1,-0.4 -0.4,-0.7 -0.8,-0.7 H 391 c -0.4,0 -0.8,0.3 -0.8,0.8 v 128.8 c 0,0.4 0.3,0.8 0.8,0.8 h 31.8 c 0.4,0 0.8,-0.3 0.8,-0.8 v -27.7 -41.2 c 0,-8.3 2.5,-16.6 7.5,-22.6 4.4,-5.4 10.8,-9 19.1,-9 16.9,0 24.9,14.5 25.5,29.6 0,0.7 0,1.3 0,2 v 19.9 48.9 c 0,0.4 0.3,0.8 0.8,0.8 h 2.1 29.7 c 0.4,0 0.8,-0.3 0.8,-0.8 v -17.1 -34.1 -17.6 c 0,-15.2 7.6,-25 17,-29 3.2,-1.4 6.7,-2.1 10.1,-2.1 0.5,0 0.9,0 1.4,0.1 6.9,0.3 12.4,3.3 16.2,8.5 3.8,5.2 5.9,12.7 5.9,21.9 v 56.8 12.6 c 0,0.4 0.3,0.8 0.8,0.8 h 31.8 c 0.4,0 0.8,-0.3 0.8,-0.8 v -69.4 c 0,-3.9 -0.2,-7.8 -0.6,-11.4 z" /></g><g
     id="g32"><g
       id="g30"><polygon
         style="fill:#059dd9"
         id="polygon10"
         points="48,64.6 32.7,48.2 22.8,52.7 22.8,76.4 " /><polygon
         style="fill:#342e7d"
         id="polygon12"
         points="67.8,85.9 54.1,71.1 54.1,61.7 48,64.6 32.7,48.2 68.1,31.9 109.4,51.3 " /><polygon
         style="fill:#e20a74"
         id="polygon14"
         points="68.1,31.9 109.3,13 109.4,51.3 " /><polygon
         style="fill:#a02381"
         id="polygon16"
         points="109.4,51.3 109.3,90.1 93.7,113.4 67.8,85.9 " /><polygon
         style="fill:#ed7b23"
         id="polygon18"
         points="67.8,85.9 54.1,97.8 54.1,172.6 93.7,113.4 " /><polygon
         style="fill:#ffe814"
         id="polygon20"
         points="93.7,113.4 54.1,172.6 54.1,190.3 109.4,130.4 " /><polygon
         style="fill:#98bd35"
         id="polygon22"
         points="54.1,190.3 109.3,195.3 109.4,130.4 " /><polygon
         style="fill:#019447"
         id="polygon24"
         points="54.1,190.3 54.1,221.7 109.3,195.3 " /><polygon
         style="fill:#e22432"
         id="polygon26"
         points="109.3,90.1 109.4,130.4 93.7,113.4 " /><polygon
         style="fill:#059dd9"
         id="polygon28"
         points="67.8,85.9 54.1,71.1 54.1,97.8 " /></g></g></svg>