<?xml version="1.0" encoding="utf-8"?>
<!-- Generator: Adobe Illustrator 16.0.4, SVG Export Plug-In . SVG Version: 6.00 Build 0)  -->
<!DOCTYPE svg PUBLIC "-//W3C//DTD SVG 1.1//EN" "http://www.w3.org/Graphics/SVG/1.1/DTD/svg11.dtd">
<svg version="1.1" id="Ebene_1" xmlns="http://www.w3.org/2000/svg" xmlns:xlink="http://www.w3.org/1999/xlink" x="0px" y="0px"
	 width="1920px" height="1080px" viewBox="0 0 1920 1080" enable-background="new 0 0 1920 1080" xml:space="preserve">
<rect fill="#10A6D4" width="1920" height="1080"/>
<g>
	<g>
		<path fill="#FFFFFF" d="M1733.418,216.767h0.111c1.631-3.486,4.61-3.992,6.972-4.104c2.699-0.057,6.297,1.124,6.747,4.104h0.111
			c1.406-2.755,3.711-4.104,7.31-4.104c5.397,0,7.759,3.373,7.759,6.746v25.806h-7.309v-21.42c0-2.868-0.281-5.679-3.486-5.51
			c-3.148,0.169-3.711,2.361-3.711,6.072v20.858h-7.308v-21.814c0-2.811-0.226-5.172-3.599-5.116
			c-3.43,0.057-3.598,2.586-3.598,6.072v20.858h-7.31v-31.708h7.31V216.767z"/>
		<path fill="#FFFFFF" d="M1792.396,245.215c-0.507-1.012-0.563-2.136-0.45-3.26h-0.113c-0.843,1.292-1.799,2.361-2.923,3.036
			c-1.068,0.675-2.249,1.068-3.486,1.068c-5.902,0-8.489-2.979-8.489-9.501c0-7.252,5.116-8.995,10.851-11.356
			c3.093-1.293,4.217-2.698,3.599-5.285c-0.337-1.405-1.462-1.63-3.43-1.63c-3.317,0-3.879,1.743-3.823,4.611h-6.971
			c-0.057-6.016,1.911-10.232,11.075-10.232c9.951,0,10.569,5.229,10.457,9.389v18.722c0,1.518,0.225,2.979,0.618,4.441H1792.396z
			 M1791.384,228.518c-1.799,1.236-3.992,2.473-5.903,4.048c-1.068,0.899-1.236,2.473-1.236,3.823c0,2.417,0.73,4.047,3.429,4.047
			c4.329,0,3.542-5.453,3.711-8.489V228.518z"/>
		<path fill="#FFFFFF" d="M1813.817,245.215v-42.166h7.31v19.059c0,1.349-0.057,2.643-0.113,3.992h0.113l6.914-12.593h7.983
			l-7.983,12.762l7.759,18.946h-8.152l-4.554-12.931l-1.967,3.261v9.67H1813.817z"/>
		<path fill="#FFFFFF" d="M1847.495,224.413c-0.338-7.477,3.485-11.75,10.682-11.75c10.176,0,11.244,5.285,11.244,13.943v4.272
			h-14.618v4.61c0.057,4.161,1.631,4.947,3.823,4.947c2.699,0,3.486-1.967,3.374-5.959h7.309c0.281,7.083-2.643,11.581-10.12,11.581
			c-8.433,0-11.862-3.991-11.693-13.324V224.413z M1862.112,225.257v-2.755c-0.057-3.205-0.899-4.217-3.823-4.217
			c-3.654,0-3.486,2.812-3.486,5.679v1.293H1862.112z"/>
	</g>
	<g>
		<path fill="#FFFFFF" d="M1730.213,278.991h-4.407v-19.673h7.02l2.36,9.128c0.378,1.495,0.63,3.017,0.818,4.538h0.063
			c0.22-1.941,0.377-3.252,0.692-4.538l2.36-9.128h6.987v19.673h-4.406v-6.19c0-3.908,0.094-7.816,0.377-11.725h-0.062
			l-4.721,17.916h-2.676l-4.627-17.916h-0.157c0.283,3.909,0.378,7.817,0.378,11.725V278.991z"/>
		<path fill="#FFFFFF" d="M1768.77,259.318h4.407v13.718c0,4.354-1.7,6.427-7.46,6.427c-5.822,0-7.522-2.072-7.522-6.427v-13.718
			h4.406v13.404c0,1.889,0.157,3.777,3.147,3.777c2.864,0,3.021-1.889,3.021-3.777V259.318z"/>
		<path fill="#FFFFFF" d="M1795.839,259.318h4.406v19.673h-4.596l-3.431-7.004c-1.164-2.334-2.108-4.721-3.147-7.816h-0.062
			c0.157,1.626,0.346,3.62,0.472,5.613c0.126,1.967,0.221,3.935,0.221,5.509v3.698h-4.406v-19.673h4.563l3.431,7.161
			c1.133,2.282,2.077,4.616,3.147,7.816h0.063c-0.157-1.784-0.315-3.698-0.441-5.587c-0.125-1.889-0.22-3.777-0.22-5.535V259.318z"
			/>
		<path fill="#FFFFFF" d="M1812.426,278.991v-19.673h4.407v19.673H1812.426z"/>
		<path fill="#FFFFFF" d="M1842.988,271.987c-0.031,0.368-0.062,0.761-0.094,1.128c-0.221,3.593-1.668,6.348-6.578,6.348
			c-7.239,0-7.712-3.83-7.712-9.076v-2.807c0.188-5.01,0.661-8.734,7.712-8.734c3.934,0.052,6.138,1.731,6.452,5.089
			c0.062,0.498,0.126,0.997,0.095,1.495h-4.344c-0.189-1.259-0.032-3.62-2.203-3.62c-3.463,0-3.18,3.437-3.18,4.958v5.456
			c0,1.626,0.158,4.276,3.18,4.276c2.423,0,2.141-3.253,2.234-4.512H1842.988z"/>
		<path fill="#FFFFFF" d="M1854.383,278.991v-19.673h4.406v7.791h6.17v-7.791h4.406v19.673h-4.406v-8.997h-6.17v8.997H1854.383z"/>
	</g>
	<g>
		<path fill="#FFFFFF" d="M1855.432,96.203c0-6.028-4.907-10.933-10.936-10.933c-6.031,0-10.936,4.905-10.936,10.933
			c0,3.984,2.146,7.466,5.333,9.375v23.828c0,23.59-19.189,42.775-42.778,42.775c-23.431,0-42.512-18.937-42.763-42.309
			c3.071-1.94,5.125-5.355,5.125-9.252c0-6.025-4.907-10.933-10.935-10.933c-6.033,0-10.94,4.907-10.94,10.933
			c0,4.253,2.444,7.935,5.993,9.744c0.518,29.084,24.319,52.587,53.52,52.587c29.524,0,53.549-24.021,53.549-53.545v-23.567
			C1853.095,103.991,1855.432,100.365,1855.432,96.203 M1747.543,115.669c2.729,0,4.95,2.225,4.95,4.951
			c0,2.733-2.221,4.956-4.95,4.956c-2.733,0-4.956-2.223-4.956-4.956C1742.587,117.895,1744.81,115.669,1747.543,115.669
			 M1844.496,91.25c2.73,0,4.948,2.223,4.948,4.953c0,2.733-2.218,4.953-4.948,4.953s-4.953-2.22-4.953-4.953
			C1839.543,93.473,1841.766,91.25,1844.496,91.25"/>
		<path fill="#FFFFFF" d="M1814.284,80.877v47.394h10.771V80.877c3.307-1.884,5.548-5.438,5.548-9.508
			c0-6.032-4.903-10.937-10.936-10.937c-6.027,0-10.935,4.905-10.935,10.937C1808.732,75.439,1810.973,78.993,1814.284,80.877
			 M1819.667,66.417c2.73,0,4.953,2.222,4.953,4.953s-2.223,4.953-4.953,4.953s-4.953-2.223-4.953-4.953
			S1816.937,66.417,1819.667,66.417"/>
		<path fill="#FFFFFF" d="M1790.188,66.499v61.773h10.77V66.499c3.307-1.88,5.553-5.433,5.553-9.508
			c0-6.028-4.907-10.933-10.937-10.933c-6.031,0-10.936,4.905-10.936,10.933C1784.638,61.065,1786.879,64.619,1790.188,66.499
			 M1795.573,52.04c2.73,0,4.954,2.221,4.954,4.951c0,2.735-2.224,4.956-4.954,4.956s-4.953-2.221-4.953-4.956
			C1790.62,54.26,1792.843,52.04,1795.573,52.04"/>
		<path fill="#FFFFFF" d="M1765.932,71.301v56.971h10.771V71.301c3.307-1.88,5.55-5.431,5.55-9.506
			c0-6.03-4.907-10.933-10.938-10.933c-6.027,0-10.935,4.903-10.935,10.933C1760.38,65.87,1762.62,69.421,1765.932,71.301
			 M1771.314,56.844c2.73,0,4.956,2.218,4.956,4.951c0,2.732-2.226,4.955-4.956,4.955s-4.953-2.223-4.953-4.955
			C1766.361,59.062,1768.584,56.844,1771.314,56.844"/>
	</g>
</g>
</svg>
