<?xml version="1.0" encoding="UTF-8" standalone="no"?>
<!-- Generator: Adobe Illustrator 16.0.4, SVG Export Plug-In . SVG Version: 6.00 Build 0)  -->

<svg
   xmlns:dc="http://purl.org/dc/elements/1.1/"
   xmlns:cc="http://creativecommons.org/ns#"
   xmlns:rdf="http://www.w3.org/1999/02/22-rdf-syntax-ns#"
   xmlns:svg="http://www.w3.org/2000/svg"
   xmlns="http://www.w3.org/2000/svg"
   xmlns:xlink="http://www.w3.org/1999/xlink"
   xmlns:sodipodi="http://sodipodi.sourceforge.net/DTD/sodipodi-0.dtd"
   xmlns:inkscape="http://www.inkscape.org/namespaces/inkscape"
   version="1.1"
   id="Ebene_1"
   x="0px"
   y="0px"
   width="1920px"
   height="1080px"
   viewBox="0 0 1920 1080"
   enable-background="new 0 0 1920 1080"
   xml:space="preserve"
   inkscape:version="0.92.1 r"
   sodipodi:docname="pause.svg"><metadata
     id="metadata47"><rdf:RDF><cc:Work
         rdf:about=""><dc:format>image/svg+xml</dc:format><dc:type
           rdf:resource="http://purl.org/dc/dcmitype/StillImage" /><dc:title /></cc:Work></rdf:RDF></metadata><defs
     id="defs45" /><sodipodi:namedview
     pagecolor="#ffffff"
     bordercolor="#666666"
     borderopacity="1"
     objecttolerance="10"
     gridtolerance="10"
     guidetolerance="10"
     inkscape:pageopacity="0"
     inkscape:pageshadow="2"
     inkscape:window-width="1440"
     inkscape:window-height="851"
     id="namedview43"
     showgrid="false"
     inkscape:zoom="0.53180322"
     inkscape:cx="415.62494"
     inkscape:cy="694.85744"
     inkscape:window-x="0"
     inkscape:window-y="23"
     inkscape:window-maximized="0"
     inkscape:current-layer="Ebene_1" /><image
     sodipodi:absref="/Users/derchris/Development/intro-outro-generator/mm17/artwork/Hintergrund-komplett1920x1080RGB_V2.jpg"
     xlink:href="Hintergrund-komplett1920x1080RGB_V2.jpg"
     overflow="visible"
     width="1920"
     height="1080"
     id="image3"
     style="overflow:visible" /><g
     id="g5"><g
       id="g7"><path
         fill="#FFFFFF"
         d="M1617.739,350.462h0.174c2.531-5.414,7.159-6.199,10.825-6.374c4.191-0.087,9.779,1.746,10.479,6.374    h0.173c2.184-4.278,5.764-6.374,11.351-6.374c8.381,0,12.049,5.238,12.049,10.478v40.074h-11.351v-33.264    c0-4.453-0.437-8.819-5.412-8.558c-4.89,0.263-5.763,3.668-5.763,9.43v32.392h-11.35v-33.875c0-4.365-0.35-8.033-5.589-7.946    c-5.325,0.088-5.587,4.017-5.587,9.43v32.392h-11.351v-49.242h11.351V350.462z"
         id="path9" /><path
         fill="#FFFFFF"
         d="M1709.329,394.64c-0.785-1.571-0.873-3.317-0.698-5.063h-0.175c-1.31,2.008-2.793,3.667-4.54,4.714    c-1.658,1.048-3.492,1.659-5.412,1.659c-9.168,0-13.184-4.627-13.184-14.755c0-11.263,7.943-13.969,16.85-17.637    c4.803-2.008,6.549-4.19,5.588-8.208c-0.523-2.182-2.27-2.532-5.326-2.532c-5.151,0-6.024,2.708-5.937,7.16h-10.827    c-0.086-9.341,2.968-15.89,17.2-15.89c15.455,0,16.413,8.12,16.24,14.581v29.074c0,2.356,0.348,4.627,0.96,6.897H1709.329z     M1707.758,368.71c-2.793,1.919-6.199,3.841-9.168,6.286c-1.658,1.396-1.92,3.841-1.92,5.937c0,3.754,1.136,6.286,5.325,6.286    c6.724,0,5.501-8.469,5.763-13.184V368.71z"
         id="path11" /><path
         fill="#FFFFFF"
         d="M1742.596,394.64v-65.482h11.351v29.598c0,2.096-0.087,4.104-0.175,6.199h0.175l10.739-19.557h12.396    l-12.396,19.819l12.049,29.423h-12.661l-7.07-20.081l-3.057,5.064v15.017H1742.596z"
         id="path13" /><path
         fill="#FFFFFF"
         d="M1794.896,362.336c-0.523-11.611,5.413-18.248,16.589-18.248c15.803,0,17.461,8.207,17.461,21.653v6.635    h-22.701v7.159c0.089,6.462,2.533,7.684,5.938,7.684c4.191,0,5.413-3.056,5.238-9.255h11.351    c0.437,11.001-4.103,17.986-15.715,17.986c-13.096,0-18.422-6.199-18.16-20.692V362.336z M1817.595,363.646v-4.279    c-0.087-4.977-1.396-6.549-5.936-6.549c-5.675,0-5.415,4.366-5.415,8.819v2.009H1817.595z"
         id="path15" /></g><g
       id="g17"><path
         fill="#FFFFFF"
         d="M1612.762,447.093h-6.843v-30.551h10.899l3.666,14.176c0.588,2.322,0.979,4.684,1.271,7.046h0.098    c0.342-3.014,0.587-5.051,1.076-7.046l3.665-14.176h10.851v30.551h-6.842v-9.614c0-6.069,0.145-12.139,0.585-18.208h-0.097    l-7.332,27.822h-4.154l-7.186-27.822h-0.244c0.439,6.069,0.586,12.139,0.586,18.208V447.093z"
         id="path19" /><path
         fill="#FFFFFF"
         d="M1672.641,416.542h6.842v21.304c0,6.763-2.639,9.98-11.584,9.98c-9.043,0-11.682-3.217-11.682-9.98    v-21.304h6.842v20.815c0,2.934,0.244,5.866,4.888,5.866c4.448,0,4.694-2.933,4.694-5.866V416.542z"
         id="path21" /><path
         fill="#FFFFFF"
         d="M1714.676,416.542h6.843v30.551h-7.136l-5.327-10.876c-1.81-3.626-3.275-7.332-4.888-12.138h-0.1    c0.245,2.525,0.539,5.621,0.733,8.717c0.195,3.055,0.343,6.11,0.343,8.554v5.744h-6.842v-30.551h7.086l5.328,11.12    c1.761,3.544,3.227,7.169,4.888,12.139h0.098c-0.243-2.77-0.489-5.744-0.685-8.676c-0.194-2.933-0.342-5.866-0.342-8.595V416.542z    "
         id="path23" /><path
         fill="#FFFFFF"
         d="M1740.436,447.093v-30.551h6.844v30.551H1740.436z"
         id="path25" /><path
         fill="#FFFFFF"
         d="M1787.897,436.217c-0.049,0.571-0.097,1.182-0.147,1.751c-0.341,5.581-2.59,9.858-10.214,9.858    c-11.243,0-11.976-5.947-11.976-14.094v-4.358c0.293-7.78,1.025-13.565,11.976-13.565c6.109,0.082,9.531,2.689,10.021,7.903    c0.097,0.773,0.193,1.548,0.145,2.322h-6.745c-0.292-1.955-0.048-5.622-3.42-5.622c-5.378,0-4.938,5.337-4.938,7.698v8.474    c0,2.525,0.244,6.64,4.938,6.64c3.764,0,3.323-5.052,3.471-7.007H1787.897z"
         id="path27" /><path
         fill="#FFFFFF"
         d="M1805.593,447.093v-30.551h6.843v12.098h9.581v-12.098h6.842v30.551h-6.842v-13.972h-9.581v13.972    H1805.593z"
         id="path29" /></g><g
       id="g31"><path
         fill="#FFFFFF"
         d="M1807.22,163.231c0-9.361-7.62-16.978-16.981-16.978c-9.367,0-16.981,7.617-16.981,16.978    c0,6.187,3.332,11.595,8.282,14.56v37.003c0,36.634-29.802,66.428-66.434,66.428c-36.387,0-66.019-29.408-66.408-65.704    c4.77-3.012,7.958-8.316,7.958-14.368c0-9.357-7.62-16.978-16.98-16.978c-9.368,0-16.99,7.621-16.99,16.978    c0,6.605,3.797,12.323,9.308,15.132c0.805,45.167,37.767,81.665,83.113,81.665c45.852,0,83.16-37.305,83.16-83.153v-36.598    C1803.592,175.327,1807.22,169.695,1807.22,163.231 M1639.675,193.463c4.238,0,7.688,3.455,7.688,7.688    c0,4.244-3.45,7.696-7.688,7.696c-4.245,0-7.696-3.452-7.696-7.696C1631.979,196.918,1635.43,193.463,1639.675,193.463     M1790.238,155.54c4.241,0,7.686,3.451,7.686,7.691c0,4.244-3.444,7.692-7.686,7.692c-4.24,0-7.691-3.448-7.691-7.692    C1782.547,158.991,1785.998,155.54,1790.238,155.54"
         id="path33" /><path
         fill="#FFFFFF"
         d="M1743.322,139.432v73.601h16.725v-73.601c5.136-2.926,8.615-8.444,8.615-14.766    c0-9.368-7.613-16.985-16.982-16.985c-9.359,0-16.981,7.618-16.981,16.985C1734.698,130.987,1738.18,136.505,1743.322,139.432     M1751.68,116.974c4.242,0,7.693,3.452,7.693,7.692s-3.451,7.692-7.693,7.692c-4.239,0-7.69-3.452-7.69-7.692    S1747.44,116.974,1751.68,116.974"
         id="path35" /><path
         fill="#FFFFFF"
         d="M1705.9,117.102v95.931h16.725v-95.931c5.136-2.919,8.622-8.438,8.622-14.766    c0-9.361-7.62-16.978-16.983-16.978c-9.365,0-16.983,7.617-16.983,16.978C1697.28,108.665,1700.761,114.183,1705.9,117.102     M1714.264,94.648c4.24,0,7.694,3.448,7.694,7.688c0,4.247-3.454,7.696-7.694,7.696s-7.691-3.449-7.691-7.696    C1706.572,98.096,1710.023,94.648,1714.264,94.648"
         id="path37" /><path
         fill="#FFFFFF"
         d="M1668.232,124.56v88.474h16.726V124.56c5.136-2.919,8.618-8.434,8.618-14.762    c0-9.365-7.62-16.979-16.985-16.979c-9.359,0-16.981,7.614-16.981,16.979C1659.609,116.125,1663.09,121.64,1668.232,124.56     M1676.591,102.109c4.241,0,7.696,3.444,7.696,7.688c0,4.243-3.455,7.695-7.696,7.695c-4.239,0-7.691-3.452-7.691-7.695    C1668.899,105.554,1672.352,102.109,1676.591,102.109"
         id="path39" /></g></g><text
     transform="translate(65,353.0005)"
     font-size="100"
     id="text41"
     style="font-style:normal;font-variant:normal;font-weight:bold;font-stretch:condensed;font-size:100px;line-height:0%;font-family:'Roboto Condensed';-inkscape-font-specification:'Roboto Condensed, Bold Condensed';text-align:start;writing-mode:lr-tb;text-anchor:start;fill:#ffffff"><tspan
       style="-inkscape-font-specification:'Roboto Condensed, Condensed';font-family:'Roboto Condensed';font-weight:normal;font-style:normal;font-stretch:condensed;font-variant:normal;font-size:100px;text-anchor:start;text-align:start;writing-mode:lr;font-variant-ligatures:normal;font-variant-caps:normal;font-variant-numeric:normal;font-feature-settings:normal"
       id="tspan26">...gleich geht‘s weiter</tspan></text>
</svg>