<?xml version="1.0" encoding="UTF-8" standalone="no"?>
<!-- Created with Inkscape (http://www.inkscape.org/) -->

<svg
   xmlns:dc="http://purl.org/dc/elements/1.1/"
   xmlns:cc="http://creativecommons.org/ns#"
   xmlns:rdf="http://www.w3.org/1999/02/22-rdf-syntax-ns#"
   xmlns:svg="http://www.w3.org/2000/svg"
   xmlns="http://www.w3.org/2000/svg"
   xmlns:sodipodi="http://sodipodi.sourceforge.net/DTD/sodipodi-0.dtd"
   xmlns:inkscape="http://www.inkscape.org/namespaces/inkscape"
   width="1920"
   height="1080"
   viewBox="0 0 1920 1080"
   id="svg6419"
   version="1.1"
   inkscape:version="0.91 r13725"
   sodipodi:docname="background.svg"
   inkscape:export-filename="/home/danimo/dev/git/intro-outro-generator/asg2017/artwork/background.png"
   inkscape:export-xdpi="90"
   inkscape:export-ydpi="90">
  <defs
     id="defs6421">
    <clipPath
       id="clipPath5793"
       clipPathUnits="userSpaceOnUse">
      <path
         inkscape:connector-curvature="0"
         id="path5795"
         d="m 0,1080 1920,0 L 1920,0 0,0 0,1080 Z" />
    </clipPath>
    <clipPath
       id="clipPath5801"
       clipPathUnits="userSpaceOnUse">
      <path
         inkscape:connector-curvature="0"
         id="path5803"
         d="m 0,1080.06 1920,0 0,-1080.120379 -1920,0 L 0,1080.06 Z" />
    </clipPath>
    <clipPath
       id="clipPath5837"
       clipPathUnits="userSpaceOnUse">
      <path
         inkscape:connector-curvature="0"
         id="path5839"
         d="m 964.524,713.711 -135.302,-138.508 -7.067,-54.935 267.526,0 0,193.443 -125.157,0 z" />
    </clipPath>
    <clipPath
       id="clipPath5935"
       clipPathUnits="userSpaceOnUse">
      <path
         inkscape:connector-curvature="0"
         id="path5937"
         d="m 0,1080 1920,0 L 1920,0 0,0 0,1080 Z" />
    </clipPath>
    <clipPath
       id="clipPath5935-6"
       clipPathUnits="userSpaceOnUse">
      <path
         inkscape:connector-curvature="0"
         id="path5937-0"
         d="m 0,1080 1920,0 L 1920,0 0,0 0,1080 Z" />
    </clipPath>
    <clipPath
       id="clipPath5935-1"
       clipPathUnits="userSpaceOnUse">
      <path
         inkscape:connector-curvature="0"
         id="path5937-7"
         d="m 0,1080 1920,0 L 1920,0 0,0 0,1080 Z" />
    </clipPath>
  </defs>
  <sodipodi:namedview
     id="base"
     pagecolor="#ffffff"
     bordercolor="#666666"
     borderopacity="1.0"
     inkscape:pageopacity="0.0"
     inkscape:pageshadow="2"
     inkscape:zoom="0.35"
     inkscape:cx="651.31316"
     inkscape:cy="158.0352"
     inkscape:document-units="px"
     inkscape:current-layer="g5791"
     showgrid="false"
     units="px"
     inkscape:window-width="1920"
     inkscape:window-height="1016"
     inkscape:window-x="0"
     inkscape:window-y="27"
     inkscape:window-maximized="1"
     showguides="true"
     inkscape:guide-bbox="true">
    <sodipodi:guide
       position="1893.0259,1354.6146"
       orientation="0,1"
       id="guide3571" />
  </sodipodi:namedview>
  <metadata
     id="metadata6424">
    <rdf:RDF>
      <cc:Work
         rdf:about="">
        <dc:format>image/svg+xml</dc:format>
        <dc:type
           rdf:resource="http://purl.org/dc/dcmitype/StillImage" />
        <dc:title></dc:title>
      </cc:Work>
    </rdf:RDF>
  </metadata>
  <g
     inkscape:label="Layer 1"
     inkscape:groupmode="layer"
     id="layer1"
     transform="translate(0,27.637839)">
    <g
       transform="matrix(1.0010813,0,0,-1.0010813,-1.1685992,1052.8156)"
       inkscape:label="Intro_Outro"
       id="g5787">
      <g
         id="g5791"
         clip-path="url(#clipPath5793)">
        <rect
           style="fill:#d9d9d9;fill-opacity:1"
           id="rect5483"
           width="1990.7046"
           height="1093.1038"
           x="-41.643513"
           y="-1082.1405"
           transform="scale(1,-1)" />
      </g>
      <g
         id="g3531"
         transform="matrix(0.48435248,0,0,0.48435248,1306.0677,626.32749)">
        <g
           id="g5813"
           transform="translate(993.8462,774.4478)">
          <path
             d="m 0,0 56.657,56.646 120.376,0 0,-113.297 -60.195,-58.413 L 116.838,0 0,0 Z"
             style="fill:#ec2227;fill-opacity:1;fill-rule:nonzero;stroke:none"
             id="path5815"
             inkscape:connector-curvature="0" />
        </g>
        <g
           id="g5817"
           transform="translate(1111.5757,584.1475)">
          <path
             d="m 0,0 56.646,-56.646 0,-120.374 -113.291,0 -58.413,60.187 115.058,0 L 0,0 Z"
             style="fill:#00a54f;fill-opacity:1;fill-rule:nonzero;stroke:none"
             id="path5819"
             inkscape:connector-curvature="0" />
        </g>
        <g
           id="g5821"
           transform="translate(926.1538,772.2271)">
          <path
             d="m 0,0 -56.658,56.652 -120.375,0 0,-113.296 60.2,-58.42 0,115.064 L 0,0 Z"
             style="fill:#000000;fill-opacity:1;fill-rule:nonzero;stroke:none"
             id="path5823"
             inkscape:connector-curvature="0" />
        </g>
        <g
           id="g5825"
           transform="translate(808.4312,581.9336)">
          <path
             d="m 0,0 -56.652,-56.651 0,-120.376 113.291,0 58.418,60.195 L 0,-116.832 0,0 Z"
             style="fill:#30358f;fill-opacity:1;fill-rule:nonzero;stroke:none"
             id="path5827"
             inkscape:connector-curvature="0" />
        </g>
        <g
           id="g5829"
           transform="translate(853.479,613.0376)">
          <path
             d="M 0,0 92.202,94.389"
             style="fill:none;stroke:#000000;stroke-width:2.5769999;stroke-linecap:round;stroke-linejoin:miter;stroke-miterlimit:10;stroke-dasharray:none;stroke-opacity:1"
             id="path5831"
             inkscape:connector-curvature="0" />
        </g>
        <g
           id="g5833">
          <g
             id="g5835"
             clip-path="url(#clipPath5837)">
            <g
               id="g5841"
               transform="translate(927.6963,661.8999)">
              <path
                 d="m 0,0 6.937,0 -0.4,10.202 -0.045,2.066 c 0,1.199 0.025,2.252 0.09,3.148 C 6.202,14.035 5.724,12.707 5.137,11.428 L 0,0 Z m 7.22,-7.505 -10.608,0 -2.962,-6.589 -9.622,0 17.623,35.163 11.919,0 2.91,-35.163 -9.021,0 -0.239,6.589 z"
                 style="fill:#000000;fill-opacity:1;fill-rule:nonzero;stroke:none"
                 id="path5843"
                 inkscape:connector-curvature="0" />
            </g>
            <g
               id="g5845"
               transform="translate(947.6748,647.8057)">
              <path
                 d="m 0,0 7.317,35.163 9.261,0 -5.704,-27.496 11.298,0 L 20.565,0 0,0 Z"
                 style="fill:#000000;fill-opacity:1;fill-rule:nonzero;stroke:none"
                 id="path5847"
                 inkscape:connector-curvature="0" />
            </g>
            <g
               id="g5849"
               transform="translate(972.7441,647.8057)">
              <path
                 d="m 0,0 7.324,35.163 9.26,0 -5.704,-27.496 11.293,0 L 20.56,0 0,0 Z"
                 style="fill:#000000;fill-opacity:1;fill-rule:nonzero;stroke:none"
                 id="path5851"
                 inkscape:connector-curvature="0" />
            </g>
            <g
               id="g5853"
               transform="translate(898.2637,613.4565)">
              <path
                 d="m 0,0 c 0,-3.555 -1.162,-6.324 -3.479,-8.305 -2.323,-1.981 -5.562,-2.974 -9.717,-2.974 -1.73,0 -3.376,0.194 -4.924,0.593 -1.549,0.387 -2.885,0.968 -4.001,1.716 l 0,8.422 c 1.323,-0.846 2.846,-1.569 4.556,-2.142 1.716,-0.575 3.271,-0.865 4.659,-0.865 1.168,0 2.051,0.251 2.652,0.742 0.6,0.503 0.897,1.2 0.897,2.116 0,0.439 -0.097,0.839 -0.285,1.22 -0.186,0.374 -0.457,0.748 -0.806,1.129 -0.342,0.375 -1.271,1.207 -2.793,2.485 -1.846,1.509 -3.188,3.052 -4.028,4.62 -0.832,1.575 -1.252,3.297 -1.252,5.169 0,2.103 0.517,3.994 1.55,5.666 1.039,1.678 2.497,2.974 4.381,3.897 1.89,0.923 4.001,1.388 6.338,1.388 3.774,0 7.169,-0.858 10.189,-2.575 L 0.735,15.159 c -2.697,1.406 -4.994,2.116 -6.891,2.116 -1.013,0 -1.794,-0.226 -2.336,-0.677 -0.542,-0.446 -0.813,-1.104 -0.813,-1.969 0,-0.787 0.257,-1.522 0.786,-2.207 0.53,-0.677 1.543,-1.587 3.028,-2.73 1.859,-1.393 3.239,-2.858 4.142,-4.4 C -0.445,3.75 0,1.994 0,0"
                 style="fill:#000000;fill-opacity:1;fill-rule:nonzero;stroke:none"
                 id="path5855"
                 inkscape:connector-curvature="0" />
            </g>
            <g
               id="g5857"
               transform="translate(916.0488,624.7886)">
              <path
                 d="m 0,0 7.395,13.035 10.325,0 -14.494,-21.528 -2.865,-13.635 -9.267,0 2.846,13.635 -5.614,21.528 9.544,0 L 0,0 Z"
                 style="fill:#000000;fill-opacity:1;fill-rule:nonzero;stroke:none"
                 id="path5859"
                 inkscape:connector-curvature="0" />
            </g>
            <g
               id="g5861"
               transform="translate(951.7207,613.4565)">
              <path
                 d="m 0,0 c 0,-3.555 -1.162,-6.324 -3.478,-8.305 -2.323,-1.981 -5.562,-2.974 -9.712,-2.974 -1.742,0 -3.382,0.194 -4.93,0.593 -1.549,0.387 -2.885,0.968 -4.001,1.716 l 0,8.422 c 1.323,-0.846 2.846,-1.569 4.562,-2.142 1.71,-0.575 3.259,-0.865 4.653,-0.865 1.161,0 2.052,0.251 2.653,0.742 0.6,0.503 0.897,1.2 0.897,2.116 0,0.439 -0.091,0.839 -0.285,1.22 -0.187,0.374 -0.457,0.748 -0.8,1.129 -0.355,0.375 -1.285,1.207 -2.801,2.485 -1.845,1.509 -3.188,3.052 -4.027,4.62 -0.838,1.575 -1.257,3.297 -1.257,5.169 0,2.103 0.522,3.994 1.554,5.666 1.039,1.678 2.497,2.974 4.382,3.897 1.891,0.923 4.001,1.388 6.337,1.388 3.775,0 7.17,-0.858 10.183,-2.575 L 0.736,15.159 c -2.704,1.406 -4.995,2.116 -6.892,2.116 -1.013,0 -1.788,-0.226 -2.336,-0.677 -0.543,-0.446 -0.82,-1.104 -0.82,-1.969 0,-0.787 0.265,-1.522 0.794,-2.207 0.529,-0.677 1.542,-1.587 3.02,-2.73 1.865,-1.393 3.246,-2.858 4.149,-4.4 C -0.445,3.75 0,1.994 0,0"
                 style="fill:#000000;fill-opacity:1;fill-rule:nonzero;stroke:none"
                 id="path5863"
                 inkscape:connector-curvature="0" />
            </g>
            <g
               id="g5865"
               transform="translate(968.7954,602.6606)">
              <path
                 d="m 0,0 -9.261,0 5.608,27.394 -7.504,0 1.638,7.769 24.348,0 -1.678,-7.769 -7.537,0 L 0,0 Z"
                 style="fill:#000000;fill-opacity:1;fill-rule:nonzero;stroke:none"
                 id="path5867"
                 inkscape:connector-curvature="0" />
            </g>
            <g
               id="g5869"
               transform="translate(1000.8408,602.6606)">
              <path
                 d="m 0,0 -20.559,0 7.318,35.163 20.565,0 -1.542,-7.621 -11.299,0 -1.11,-5.537 10.512,0 -1.704,-7.628 -10.517,0 -1.349,-6.633 11.298,0 L 0,0 Z"
                 style="fill:#000000;fill-opacity:1;fill-rule:nonzero;stroke:none"
                 id="path5871"
                 inkscape:connector-curvature="0" />
            </g>
            <g
               id="g5873"
               transform="translate(1019.4771,602.6606)">
              <path
                 d="m 0,0 0,25.232 -0.187,0 C -1.239,18.546 -1.923,14.442 -2.22,12.912 L -4.904,0 l -8.247,0 7.332,35.163 12.266,0 0,-24.968 0.187,0 11.331,24.968 12.455,0 L 23.011,0 14.694,0 17.463,13.203 c 0.787,3.659 1.645,7.15 2.556,10.486 l 0.36,1.543 -0.193,0 L 8.77,0 0,0 Z"
                 style="fill:#000000;fill-opacity:1;fill-rule:nonzero;stroke:none"
                 id="path5875"
                 inkscape:connector-curvature="0" />
            </g>
            <g
               id="g5877"
               transform="translate(1071.5918,613.4565)">
              <path
                 d="m 0,0 c 0,-3.555 -1.161,-6.324 -3.484,-8.305 -2.318,-1.981 -5.556,-2.974 -9.705,-2.974 -1.743,0 -3.382,0.194 -4.931,0.593 -1.548,0.387 -2.885,0.968 -4.001,1.716 l 0,8.422 c 1.323,-0.846 2.84,-1.569 4.556,-2.142 1.717,-0.575 3.266,-0.865 4.659,-0.865 1.162,0 2.047,0.251 2.647,0.742 0.606,0.503 0.903,1.2 0.903,2.116 0,0.439 -0.092,0.839 -0.285,1.22 -0.193,0.374 -0.458,0.748 -0.806,1.129 -0.342,0.375 -1.277,1.207 -2.794,2.485 -1.846,1.509 -3.187,3.052 -4.028,4.62 -0.838,1.575 -1.251,3.297 -1.251,5.169 0,2.103 0.517,3.994 1.548,5.666 1.033,1.678 2.492,2.974 4.382,3.897 1.884,0.923 4.001,1.388 6.337,1.388 3.775,0 7.17,-0.858 10.19,-2.575 l -3.2,-7.143 c -2.698,1.406 -5.002,2.116 -6.892,2.116 -1.008,0 -1.795,-0.226 -2.337,-0.677 -0.542,-0.446 -0.813,-1.104 -0.813,-1.969 0,-0.787 0.258,-1.522 0.787,-2.207 0.53,-0.677 1.543,-1.587 3.02,-2.73 1.866,-1.393 3.253,-2.858 4.149,-4.4 C -0.451,3.75 0,1.994 0,0"
                 style="fill:#000000;fill-opacity:1;fill-rule:nonzero;stroke:none"
                 id="path5879"
                 inkscape:connector-curvature="0" />
            </g>
            <g
               id="g5881"
               transform="translate(973.2227,578.3711)">
              <path
                 d="m 0,0 14.455,0 -3.963,-19.119 c -3.95,-1.304 -8.066,-1.95 -12.338,-1.95 -4.131,0 -7.318,1.214 -9.596,3.653 -2.271,2.439 -3.413,5.898 -3.413,10.363 0,4.292 0.87,8.157 2.607,11.602 1.742,3.447 4.117,6.08 7.143,7.873 3.026,1.807 6.538,2.711 10.558,2.711 4.2,0 7.736,-0.865 10.615,-2.569 L 12.583,5.131 C 10.163,6.57 7.749,7.292 5.33,7.292 3.239,7.292 1.406,6.705 -0.201,5.543 -1.807,4.382 -3.085,2.666 -4.04,0.388 -4.996,-1.89 -5.473,-4.323 -5.473,-6.898 c 0,-4.24 1.652,-6.35 4.956,-6.35 0.995,0 2.039,0.11 3.149,0.329 l 1.206,5.583 -5.426,0 L 0,0 Z"
                 style="fill:#000000;fill-opacity:1;fill-rule:nonzero;stroke:none"
                 id="path5883"
                 inkscape:connector-curvature="0" />
            </g>
            <g
               id="g5885"
               transform="translate(1013.4629,579.8623)">
              <path
                 d="m 0,0 c 0,1.833 -0.374,3.265 -1.136,4.297 -0.761,1.034 -1.859,1.55 -3.291,1.55 -1.561,0 -3.006,-0.672 -4.31,-2.021 -1.316,-1.348 -2.361,-3.194 -3.142,-5.555 -0.782,-2.363 -1.169,-4.775 -1.169,-7.241 0,-3.878 1.574,-5.821 4.737,-5.821 1.497,0 2.891,0.671 4.182,2.001 1.284,1.33 2.297,3.123 3.033,5.388 C -0.368,-5.15 0,-2.672 0,0 m -3.652,13.642 c 4.117,0 7.305,-1.187 9.589,-3.576 2.285,-2.38 3.421,-5.703 3.421,-9.962 0,-4.273 -0.788,-8.17 -2.356,-11.706 -1.568,-3.537 -3.736,-6.247 -6.498,-8.131 -2.769,-1.885 -5.976,-2.827 -9.623,-2.827 -4.251,0 -7.529,1.201 -9.84,3.588 -2.316,2.388 -3.471,5.705 -3.471,9.95 0,4.253 0.812,8.157 2.439,11.719 1.626,3.562 3.846,6.273 6.646,8.144 2.801,1.865 6.04,2.801 9.693,2.801"
                 style="fill:#000000;fill-opacity:1;fill-rule:nonzero;stroke:none"
                 id="path5887"
                 inkscape:connector-curvature="0" />
            </g>
            <g
               id="g5889"
               transform="translate(1033.8281,570.1948)">
              <path
                 d="m 0,0 -7.769,0 3.698,22.754 10.092,0 L 0,0 Z m -10.44,-9.356 c 0,1.716 0.516,3.078 1.536,4.091 1.032,1.007 2.44,1.51 4.246,1.51 1.368,0 2.426,-0.323 3.162,-0.968 0.736,-0.658 1.096,-1.568 1.096,-2.761 0,-1.756 -0.502,-3.124 -1.496,-4.086 -1.007,-0.961 -2.375,-1.438 -4.117,-1.438 -1.388,0 -2.472,0.302 -3.253,0.923 -0.788,0.612 -1.174,1.529 -1.174,2.729"
                 style="fill:#000000;fill-opacity:1;fill-rule:nonzero;stroke:none"
                 id="path5891"
                 inkscape:connector-curvature="0" />
            </g>
          </g>
        </g>
      </g>
      <text
         id="text5897"
         style="font-variant:normal;font-weight:800;font-stretch:normal;font-size:20.92133904px;font-family:'Open Sans Extrabold';-inkscape-font-specification:OpenSans-Extrabold;writing-mode:lr-tb;fill:#000000;fill-opacity:1;fill-rule:nonzero;stroke:none"
         transform="scale(1.0014684,-0.99853376)"
         x="1665.3069"
         y="-766.52795">
        <tspan
           id="tspan5899"
           sodipodi:role="line"
           y="-766.52795"
           x="1665.3069 1681.4583 1692.2119 1701.3126 1714.1165 1727.0458 1739.4521 1748.7412 1753.6577 1765.3945 1777.1315 1783.2616 1794.9983 1806.7352 1811.6517 1817.1749 1822.0914 1833.8282 1845.5652 1857.3021"
           style="font-style:normal;font-variant:normal;font-weight:800;font-stretch:normal;font-family:'Open Sans';-inkscape-font-specification:'Open Sans Ultra-Bold'">October 21-22 . 2017</tspan>
      </text>
      <text
         id="text5901"
         style="font-variant:normal;font-weight:600;font-stretch:normal;font-size:11.14807987px;font-family:'Open Sans Semibold';-inkscape-font-specification:OpenSans-Semibold;writing-mode:lr-tb;fill:#000000;fill-opacity:1;fill-rule:nonzero;stroke:none"
         transform="scale(1.0014684,-0.99853376)"
         x="1665.3069"
         y="-751.2572">
        <tspan
           id="tspan5903"
           sodipodi:role="line"
           y="-751.2572"
           x="1665.3069 1673.7793 1681.1149 1689.3533 1696.5104 1701.0254 1710.8691 1714.9604">BERLIN,</tspan>
      </text>
      <text
         id="text5909"
         style="font-variant:normal;font-weight:bold;font-stretch:normal;font-size:16.082304px;font-family:'Open Sans';-inkscape-font-specification:OpenSans-Bold;writing-mode:lr-tb;fill:#000000;fill-opacity:1;fill-rule:nonzero;stroke:none"
         transform="scale(1.0014684,-0.99853376)"
         x="1665.1013"
         y="-725.52411">
        <tspan
           id="tspan5911"
           sodipodi:role="line"
           y="-725.52411"
           x="1665.1013 1675.6675 1682.6473 1689.627 1699.807 1707.7999 1712.3835 1719.0254 1725.6674 1735.3811 1740.2864 1745.1915 1750.37 1758.3629 1767.5135 1775.5067 1782.4863 1791.9908 1807.7836 1815.7766 1820.9552 1830.0416 1839.9966 1844.5801 1849.4851">https://all-systems-go.io</tspan>
      </text>
    </g>
  </g>
</svg>
