<?xml version="1.0" encoding="UTF-8" standalone="no"?>
<!-- Created with Inkscape (http://www.inkscape.org/) -->

<svg
   xmlns:dc="http://purl.org/dc/elements/1.1/"
   xmlns:cc="http://creativecommons.org/ns#"
   xmlns:rdf="http://www.w3.org/1999/02/22-rdf-syntax-ns#"
   xmlns:svg="http://www.w3.org/2000/svg"
   xmlns="http://www.w3.org/2000/svg"
   xmlns:sodipodi="http://sodipodi.sourceforge.net/DTD/sodipodi-0.dtd"
   xmlns:inkscape="http://www.inkscape.org/namespaces/inkscape"
   width="1920"
   height="1080"
   viewBox="0 0 1920.0001 1080"
   id="svg2"
   version="1.1"
   inkscape:version="0.91 r13725"
   sodipodi:docname="intro.svg">
  <defs
     id="defs4" />
  <sodipodi:namedview
     id="base"
     pagecolor="#ffffff"
     bordercolor="#666666"
     borderopacity="1.0"
     inkscape:pageopacity="0.0"
     inkscape:pageshadow="2"
     inkscape:zoom="0.48083261"
     inkscape:cx="1005.2673"
     inkscape:cy="694.62722"
     inkscape:document-units="px"
     inkscape:current-layer="layer1"
     showgrid="false"
     units="px"
     showguides="true"
     inkscape:guide-bbox="true"
     inkscape:snap-bbox="true"
     inkscape:snap-nodes="true"
     inkscape:snap-page="true"
     inkscape:window-width="1855"
     inkscape:window-height="1056"
     inkscape:window-x="65"
     inkscape:window-y="24"
     inkscape:window-maximized="1">
    <sodipodi:guide
       position="113.63637,636.36364"
       orientation="1,0"
       id="guide4172" />
  </sodipodi:namedview>
  <metadata
     id="metadata7">
    <rdf:RDF>
      <cc:Work
         rdf:about="">
        <dc:format>image/svg+xml</dc:format>
        <dc:type
           rdf:resource="http://purl.org/dc/dcmitype/StillImage" />
        <dc:title />
      </cc:Work>
    </rdf:RDF>
  </metadata>
  <g
     inkscape:label="Layer 1"
     inkscape:groupmode="layer"
     id="layer1"
     transform="translate(0,27.637963)">
    <rect
       style="opacity:1;fill:#1d2d44;fill-opacity:1;stroke:none;stroke-width:10;stroke-linecap:round;stroke-linejoin:round;stroke-miterlimit:4;stroke-dasharray:none;stroke-dashoffset:0;stroke-opacity:1"
       id="rect4136"
       width="1972.9948"
       height="1114.4384"
       x="-19.251337"
       y="-41.220913" />
    <text
       xml:space="preserve"
       style="font-style:normal;font-variant:normal;font-weight:normal;font-stretch:normal;font-size:150.00001526px;line-height:125%;font-family:'Open Sans';-inkscape-font-specification:'Open Sans';letter-spacing:0px;word-spacing:0px;fill:#000000;fill-opacity:1;stroke:none;stroke-width:1px;stroke-linecap:butt;stroke-linejoin:miter;stroke-opacity:1"
       x="104.54546"
       y="568.18018"
       id="text4138"
       sodipodi:linespacing="125%"><tspan
         sodipodi:role="line"
         id="tspan4140"
         x="104.54546"
         y="568.18018"
         style="font-style:normal;font-variant:normal;font-weight:300;font-stretch:normal;font-size:125.00000763px;font-family:'Open Sans';-inkscape-font-specification:'Open Sans Light';fill:#ffffff;fill-opacity:1" /></text>
    <text
       xml:space="preserve"
       style="font-style:normal;font-variant:normal;font-weight:normal;font-stretch:normal;font-size:150.00001526px;line-height:125%;font-family:'Open Sans';-inkscape-font-specification:'Open Sans';letter-spacing:0px;word-spacing:0px;fill:#000000;fill-opacity:1;stroke:none;stroke-width:1px;stroke-linecap:butt;stroke-linejoin:miter;stroke-opacity:1"
       x="107.68976"
       y="427.43558"
       id="text4138-3"
       sodipodi:linespacing="125%"
       inkscape:transform-center-x="25.40107"
       inkscape:transform-center-y="3.4759401"><tspan
         sodipodi:role="line"
         x="107.68976"
         y="427.43558"
         style="font-style:normal;font-variant:normal;font-weight:300;font-stretch:normal;font-size:50.00000447px;font-family:'Open Sans';-inkscape-font-specification:'Open Sans Light';fill:#aaaaaa;fill-opacity:1"
         id="tspan4284">$personnames</tspan></text>
    <flowRoot
       xml:space="preserve"
       id="flowRoot4160"
       style="fill:black;stroke:none;stroke-opacity:1;stroke-width:1px;stroke-linejoin:miter;stroke-linecap:butt;fill-opacity:1;font-family:Umpush;font-style:normal;font-weight:normal;font-size:40px;line-height:125%;letter-spacing:0px;word-spacing:0px;-inkscape-font-specification:Umpush;font-stretch:normal;font-variant:normal"><flowRegion
         id="flowRegion4162"><rect
           id="rect4164"
           width="63.636364"
           height="186.36363"
           x="104.54546"
           y="684.54547" /></flowRegion><flowPara
         id="flowPara4166" /></flowRoot>    <flowRoot
       xml:space="preserve"
       id="flowRoot4174"
       style="fill:black;stroke:none;stroke-opacity:1;stroke-width:1px;stroke-linejoin:miter;stroke-linecap:butt;fill-opacity:1;font-family:Umpush;font-style:normal;font-weight:normal;font-size:40px;line-height:125%;letter-spacing:0px;word-spacing:0px;-inkscape-font-specification:Umpush;font-stretch:normal;font-variant:normal"><flowRegion
         id="flowRegion4176"><rect
           id="rect4178"
           width="241.17647"
           height="314.70587"
           x="1794.1177"
           y="709.41174" /></flowRegion><flowPara
         id="flowPara4180" /></flowRoot>    <flowRoot
       xml:space="preserve"
       id="flowRoot4185"
       style="fill:black;stroke:none;stroke-opacity:1;stroke-width:1px;stroke-linejoin:miter;stroke-linecap:butt;fill-opacity:1;font-family:Umpush;font-style:normal;font-weight:normal;font-size:40px;line-height:125%;letter-spacing:0px;word-spacing:0px;-inkscape-font-specification:Umpush;font-stretch:normal;font-variant:normal"><flowRegion
         id="flowRegion4187"><rect
           id="rect4189"
           width="215.77541"
           height="123.52941"
           x="113.63637"
           y="688.82355" /></flowRegion><flowPara
         id="flowPara4191" /></flowRoot>    <text
       xml:space="preserve"
       style="font-style:normal;font-variant:normal;font-weight:normal;font-stretch:normal;font-size:29.34437561px;line-height:125%;font-family:Umpush;-inkscape-font-specification:Umpush;letter-spacing:0px;word-spacing:0px;fill:#000000;fill-opacity:1;stroke:none;stroke-width:1px;stroke-linecap:butt;stroke-linejoin:miter;stroke-opacity:1"
       x="959.88721"
       y="950.70856"
       id="text4219"
       sodipodi:linespacing="125%"><tspan
         sodipodi:role="line"
         id="tspan4221"
         x="959.88721"
         y="950.70856"
         style="font-style:normal;font-variant:normal;font-weight:normal;font-stretch:normal;font-size:33.01242447px;font-family:'Open Sans';-inkscape-font-specification:'Open Sans';text-align:center;text-anchor:middle;fill:#ffffff;fill-opacity:1">ownCloud Contributor Conference 2016</tspan><tspan
         sodipodi:role="line"
         x="959.88721"
         y="991.97406"
         id="tspan4223"
         style="font-style:normal;font-variant:normal;font-weight:normal;font-stretch:normal;font-size:33.01242447px;font-family:'Open Sans';-inkscape-font-specification:'Open Sans';text-align:center;text-anchor:middle;fill:#ffffff;fill-opacity:1">September 09 - 15, 2016, TU Berlin</tspan></text>
    <path
       id="path4275"
       d="m 994.00339,13.836698 c -14.8928,0 -26.924,12.031812 -26.924,26.924013 0,6.13879 2.0442,11.788701 5.4906,16.313133 7.4764,-8.653394 18.511,-14.14829 30.83111,-14.14829 6.0276,0 11.7434,1.342224 16.8934,3.695461 0.4169,-1.885826 0.6334,-3.847032 0.6334,-5.860035 0.014,-14.891542 -12.0298,-26.924019 -26.92131,-26.924019 z m -35.1607,12.459084 c -7.7556,0 -13.9906,6.2873 -13.9906,14.042299 0,2.511025 0.6478,4.883738 1.7949,6.915822 4.6801,-2.640071 10.0908,-4.170695 15.8375,-4.170695 0.5547,0 1.0889,0.02254 1.6366,0.05289 -0.062,-0.786218 -0.1056,-1.573681 -0.1056,-2.375626 0,-4.319738 0.9383,-8.429754 2.5869,-12.142438 -2.2197,-1.488488 -4.8793,-2.322895 -7.7606,-2.322895 z m 66.41311,9.661083 c -0.5729,0 -1.1253,0.07035 -1.6893,0.105593 0.244,1.53857 0.4224,3.092115 0.4224,4.698522 0,2.500159 -0.3181,4.912614 -0.8976,7.232595 6.7945,3.760116 12.437,9.386312 16.1542,16.207143 3.8561,-2.007446 8.1577,-3.283959 12.7232,-3.589867 -1.1766,-13.798529 -12.6083,-24.654517 -26.7134,-24.654517 z m -21.8564,10.030724 c -20.83891,0 -37.69391,16.853675 -37.69391,37.693892 0,20.838879 16.8538,37.693889 37.69391,37.693889 20.8402,0 37.6939,-16.85633 37.6939,-37.693889 0,-20.840217 -16.855,-37.693892 -37.6939,-37.693892 z m -40.91461,0.158375 c -16.1674,0 -29.2478,13.08005 -29.2478,29.247843 0,9.517336 4.5346,17.942717 11.5616,23.281944 2.9624,-5.713766 8.9124,-9.608357 15.7845,-9.608357 0.8306,0 1.6278,0.100689 2.4285,0.211174 -0.2514,-1.828458 -0.3696,-3.69904 -0.3696,-5.596122 0,-9.070063 2.9524,-17.457816 7.9718,-24.231882 -3.0046,-3.759584 -5.1547,-8.276992 -6.0713,-13.198225 -0.6792,-0.04703 -1.3676,-0.105593 -2.0589,-0.105593 z m 91.65461,17.420724 c -4.9092,0 -9.5077,1.253311 -13.5681,3.378816 2.3054,5.106713 3.5899,10.772785 3.5899,16.735763 0,11.164419 -4.4888,21.302593 -11.7728,28.666223 5.3512,5.94085 13.1151,9.66108 21.7504,9.66108 16.1674,0 29.2479,-13.08004 29.2479,-29.247835 0,-16.167791 -13.0801,-29.194841 -29.2479,-29.194841 z m -123.74691,3.853916 c -14.8929,0 -26.977,11.978548 -26.977,26.871018 0,14.892468 12.0841,26.977018 26.977,26.977018 5.6684,0 10.9194,-1.76606 15.2572,-4.75139 -1.7924,-2.78527 -2.8509,-6.11507 -2.8509,-9.66109 0,-1.8405 0.2716,-3.60868 0.7919,-5.27934 -8.1207,-5.868645 -13.409,-15.41884 -13.409,-26.184735 0,-2.735594 0.3605,-5.380698 1.0031,-7.919017 -0.2668,-0.0079 -0.5233,-0.05283 -0.7919,-0.05283 z m 158.32201,23.122959 c -0.7945,0 -1.5632,0.09049 -2.3229,0.211174 0.042,0.671549 0.053,1.324061 0.053,2.006121 0,8.587282 -3.3882,16.380692 -8.8692,22.173032 2.6965,3.1357 6.6572,5.12088 11.1393,5.12088 8.1643,0 14.7816,-6.56499 14.7816,-14.72858 0,-8.164249 -6.6178,-14.781577 -14.7816,-14.781577 z m -128.12821,1.583753 c -8.1639,0 -14.7299,6.565396 -14.7299,14.728584 0,8.16385 6.5653,14.78158 14.7299,14.78158 6.2576,0 11.5691,-3.90466 13.7256,-9.39717 -5.2631,-5.36043 -9.0457,-12.19902 -10.717,-19.797546 -0.978,-0.202251 -1.9707,-0.316761 -3.0092,-0.316761 z m 161.91241,12.406354 0,29.19484 -15.4679,0 c -10.1116,0 -18.319,8.26017 -18.319,18.37198 0,10.11022 8.2076,18.31898 18.319,18.31898 l 4.4873,0 1.5311,0 c 2.9663,0 5.9285,-1.44066 8.2885,-3.64273 2.36,-2.20207 4.1613,-5.25232 4.2234,-8.65803 0.1061,-5.84559 0,-22.85931 0,-22.85931 l 0,-0.73911 0,-29.98579 -3.062,0 z m -141.42991,13.19822 0,40.38602 c 0,6.78758 5.5659,12.30076 12.3536,12.30076 l 0,-3.06203 c -5.136,0 -9.2916,-4.10273 -9.2916,-9.23873 l 0,-38.48615 c -1.066,-0.57301 -2.0554,-1.23808 -3.062,-1.90053 z m -30.6204,3.74832 c -5.4234,5.17482 -8.8165,12.46081 -8.8165,20.53682 0,15.66924 12.7344,28.40257 28.4026,28.40257 l 0,-3.06204 c -14.0159,0 -25.3409,-11.32353 -25.3409,-25.34079 0,-7.53918 3.2909,-14.31523 8.4998,-18.95227 -0.9736,-0.44849 -1.8754,-0.97381 -2.7453,-1.58376 z m -36.0577,12.14244 c -10.1117,0 -18.319,8.20744 -18.319,18.31899 l 0,16.94641 3.062,0 0,-16.94641 c 0,-8.45957 6.7978,-15.31021 15.2572,-15.31021 8.4612,0 15.3102,6.85038 15.3102,15.31021 l 0,16.94641 3.0621,0 0,-16.94641 c 0,-10.11168 -8.259,-18.31899 -18.372,-18.31899 z m 102.78741,0.10559 c -10.1122,0 -18.31901,8.25977 -18.31901,18.37198 0,10.11221 8.20691,18.37198 18.31901,18.37198 10.1122,0 18.372,-8.25977 18.372,-18.37198 0,-10.11221 -8.2598,-18.37198 -18.372,-18.37198 z m -204.41426,0.0527 c -10.11141,0 -18.37198,8.20784 -18.37198,18.31898 0,10.11141 8.26057,18.31899 18.37198,18.31899 10.11141,0 18.31898,-8.20784 18.31898,-18.31899 0,-10.11141 -8.20783,-18.31898 -18.31898,-18.31898 z m 27.50563,1.37256 0,22.96531 c 0,6.78784 5.51438,12.30076 12.30076,12.30076 4.62539,0 8.70652,-2.5574 10.8226,-6.33513 2.10085,3.77773 6.14528,6.33513 10.76974,6.33513 6.78771,0 12.35349,-5.51292 12.35349,-12.30076 l 0,-22.96531 -3.06204,0 0,22.96531 c 0,5.13573 -4.15559,9.23871 -9.29158,9.23871 -5.13599,0 -9.23872,-4.10298 -9.23872,-9.23871 l 0,-22.96531 -3.06204,0 0,22.96531 c 0,5.13599 -4.15373,9.23871 -9.29158,9.23871 -5.13427,0 -9.23872,-4.10298 -9.23872,-9.23871 l 0,-22.96531 -3.06204,0 z m 203.30143,0 0,16.94642 c 0,10.11022 8.2075,18.31899 18.3189,18.31899 10.1117,0 18.372,-8.20877 18.372,-18.31899 l 0,-16.94642 -3.062,0 0,16.94642 c 0,8.45758 -6.8505,15.25721 -15.3102,15.25721 -8.4595,0 -15.2572,-6.7995 -15.2572,-15.25721 l 0,-16.94642 -3.0621,0 z m -26.3968,1.63662 c 8.4601,0 15.3102,6.84984 15.3102,15.3102 0,8.46009 -6.8498,15.3102 -15.3102,15.3102 -8.4601,0 -15.2572,-6.84984 -15.2572,-15.3102 0,-8.46009 6.7971,-15.3102 15.2572,-15.3102 z m 89.8541,0 15.4678,0 c 0.012,2.02321 0.096,15.95939 0,21.27609 -0.043,2.36595 -1.3409,4.73986 -3.2203,6.49359 -1.8795,1.7536 -4.3117,2.79799 -6.2296,2.79799 l -6.0184,0 c -8.4593,0 -15.2571,-6.7995 -15.2571,-15.2572 0,-8.45957 6.7978,-15.31021 15.2571,-15.31021 z m -294.26701,0.0529 c 8.4593,0 15.25721,6.79791 15.25721,15.25721 0,8.4593 -6.79791,15.25721 -15.25721,15.25721 -8.45929,0 -15.3102,-6.79791 -15.3102,-15.25721 0,-8.4593 6.85064,-15.25721 15.3102,-15.25721 z"
       style="color:#000000;text-indent:0;text-transform:none;block-progression:tb;fill:#ffffff;enable-background:accumulate"
       inkscape:connector-curvature="0" />
    <flowRoot
       xml:space="preserve"
       id="flowRoot4155"
       style="fill:black;stroke:none;stroke-opacity:1;stroke-width:1px;stroke-linejoin:miter;stroke-linecap:butt;fill-opacity:1;font-family:Umpush;font-style:normal;font-weight:normal;font-size:40px;line-height:125%;letter-spacing:0px;word-spacing:0px;-inkscape-font-specification:Umpush;font-stretch:normal;font-variant:normal"><flowRegion
         id="flowRegion4157"><rect
           id="rect4159"
           width="1806.3636"
           height="288.23529"
           x="113.63637"
           y="315.29413" /></flowRegion><flowPara
         id="flowPara4161" /></flowRoot>    <flowRoot
       xml:space="preserve"
       id="flowRoot4163"
       style="font-style:normal;font-variant:normal;font-weight:normal;font-stretch:normal;font-size:40px;line-height:125%;font-family:Umpush;-inkscape-font-specification:Umpush;letter-spacing:0px;word-spacing:0px;fill:#000000;fill-opacity:1;stroke:none;stroke-width:1px;stroke-linecap:butt;stroke-linejoin:miter;stroke-opacity:1"
       transform="translate(-2.9411769,106.92082)"><flowRegion
         id="flowRegion4165"><rect
           id="rect4167"
           width="1724.9556"
           height="334.55502"
           x="113.63637"
           y="359.41177"
           ry="0" /></flowRegion><flowPara
         id="flowPara4169"
         style="font-style:normal;font-variant:normal;font-weight:300;font-stretch:normal;font-size:87.50000782px;font-family:Umpush;-inkscape-font-specification:'Umpush Light';fill:#ffffff;fill-opacity:1;stroke:none;stroke-opacity:1">$title</flowPara></flowRoot>  </g>
</svg>
