<?xml version="1.0" encoding="UTF-8" standalone="no"?>
<!-- Created with Inkscape (http://www.inkscape.org/) -->

<svg
   xmlns:dc="http://purl.org/dc/elements/1.1/"
   xmlns:cc="http://creativecommons.org/ns#"
   xmlns:rdf="http://www.w3.org/1999/02/22-rdf-syntax-ns#"
   xmlns:svg="http://www.w3.org/2000/svg"
   xmlns="http://www.w3.org/2000/svg"
   xmlns:sodipodi="http://sodipodi.sourceforge.net/DTD/sodipodi-0.dtd"
   xmlns:inkscape="http://www.inkscape.org/namespaces/inkscape"
   width="1920"
   height="1080"
   viewBox="0 0 1920.0001 1080"
   id="svg2"
   version="1.1"
   inkscape:version="0.91 r13725"
   sodipodi:docname="pause.svg">
  <defs
     id="defs4" />
  <sodipodi:namedview
     id="base"
     pagecolor="#ffffff"
     bordercolor="#666666"
     borderopacity="1.0"
     inkscape:pageopacity="0.0"
     inkscape:pageshadow="2"
     inkscape:zoom="0.34"
     inkscape:cx="972.40851"
     inkscape:cy="403.25169"
     inkscape:document-units="px"
     inkscape:current-layer="layer1"
     showgrid="false"
     units="px"
     showguides="true"
     inkscape:guide-bbox="true"
     inkscape:snap-bbox="true"
     inkscape:snap-nodes="true"
     inkscape:snap-page="true"
     inkscape:window-width="1596"
     inkscape:window-height="861"
     inkscape:window-x="0"
     inkscape:window-y="18"
     inkscape:window-maximized="0">
    <sodipodi:guide
       position="960.00005,636.36364"
       orientation="1,0"
       id="guide4172"
       inkscape:label=""
       inkscape:color="rgb(0,0,255)" />
    <sodipodi:guide
       position="863.23534,340"
       orientation="0,1"
       id="guide4141"
       inkscape:label=""
       inkscape:color="rgb(0,0,255)" />
    <sodipodi:guide
       position="-414.7059,740"
       orientation="0,1"
       id="guide4143"
       inkscape:label=""
       inkscape:color="rgb(0,0,255)" />
    <sodipodi:guide
       position="-326.47061,540"
       orientation="0,1"
       id="guide4145"
       inkscape:label=""
       inkscape:color="rgb(0,0,255)" />
  </sodipodi:namedview>
  <metadata
     id="metadata7">
    <rdf:RDF>
      <cc:Work
         rdf:about="">
        <dc:format>image/svg+xml</dc:format>
        <dc:type
           rdf:resource="http://purl.org/dc/dcmitype/StillImage" />
        <dc:title />
      </cc:Work>
    </rdf:RDF>
  </metadata>
  <g
     inkscape:label="Layer 1"
     inkscape:groupmode="layer"
     id="layer1"
     transform="translate(0,27.637963)">
    <rect
       style="opacity:1;fill:#1d2d44;fill-opacity:1;stroke:none;stroke-width:10;stroke-linecap:round;stroke-linejoin:round;stroke-miterlimit:4;stroke-dasharray:none;stroke-dashoffset:0;stroke-opacity:1"
       id="rect4136"
       width="1972.9948"
       height="1114.4384"
       x="-19.251337"
       y="-41.220913" />
    <text
       xml:space="preserve"
       style="font-style:normal;font-variant:normal;font-weight:normal;font-stretch:normal;font-size:150.00001526px;line-height:125%;font-family:'Open Sans';-inkscape-font-specification:'Open Sans';letter-spacing:0px;word-spacing:0px;fill:#ffffff;fill-opacity:1;stroke:none;stroke-width:1px;stroke-linecap:butt;stroke-linejoin:miter;stroke-opacity:1"
       x="776.96918"
       y="552.53864"
       id="breaktext"
       sodipodi:linespacing="125%"
       inkscape:transform-center-x="25.40107"
       inkscape:transform-center-y="3.4759401"><tspan
         sodipodi:role="line"
         x="776.96918"
         y="552.53864"
         style="font-style:normal;font-variant:normal;font-weight:600;font-stretch:normal;font-size:112.50000763px;font-family:'Open Sans';-inkscape-font-specification:'Open Sans Semi-Bold';fill:#ffffff;fill-opacity:1"
         id="tspan4284">BREAK</tspan></text>
    <text
       xml:space="preserve"
       style="font-style:normal;font-variant:normal;font-weight:normal;font-stretch:normal;font-size:29.34437561px;line-height:125%;font-family:Umpush;-inkscape-font-specification:Umpush;letter-spacing:0px;word-spacing:0px;fill:#000000;fill-opacity:1;stroke:none;stroke-width:1px;stroke-linecap:butt;stroke-linejoin:miter;stroke-opacity:1"
       x="959.88721"
       y="770.59448"
       id="octext"
       sodipodi:linespacing="125%"><tspan
         sodipodi:role="line"
         id="tspan4221"
         x="959.88721"
         y="770.59448"
         style="font-style:normal;font-variant:normal;font-weight:normal;font-stretch:normal;font-size:75.00000763px;font-family:'Open Sans';-inkscape-font-specification:'Open Sans';text-align:center;text-anchor:middle;fill:#ffffff;fill-opacity:1">ownCloud Contributor Conference 2016</tspan><tspan
         sodipodi:role="line"
         x="959.88721"
         y="864.34448"
         id="tspan4223"
         style="font-style:normal;font-variant:normal;font-weight:normal;font-stretch:normal;font-size:75.00000763px;font-family:'Open Sans';-inkscape-font-specification:'Open Sans';text-align:center;text-anchor:middle;fill:#ffffff;fill-opacity:1">September 09 - 15, 2016, TU Berlin</tspan></text>
    <path
       id="oclogo"
       d="m 1011.3553,74.907101 c -22.48205,0 -40.64425,18.16307 -40.64425,40.644129 0,9.26704 3.0859,17.79607 8.2886,24.6261 11.2863,-13.06306 27.94405,-21.35808 46.54225,-21.35808 9.0992,0 17.7277,2.02621 25.5021,5.57862 0.6293,-2.84682 0.9562,-5.80743 0.9562,-8.84623 0.021,-22.480069 -18.1601,-40.644139 -40.6401,-40.644139 z m -53.07825,18.80807 c -11.7077,0 -21.12,9.491219 -21.12,21.198069 0,3.79061 0.9779,7.37242 2.7096,10.44003 7.065,-3.98542 15.2329,-6.29603 23.908,-6.29603 0.8374,0 1.6438,0.034 2.4706,0.0798 -0.094,-1.18686 -0.1594,-2.3756 -0.1594,-3.58621 0,-6.52102 1.4165,-12.72545 3.9052,-18.330059 -3.3509,-2.247 -7.3658,-3.50661 -11.7153,-3.50661 z m 100.25645,14.584239 c -0.8648,0 -1.6987,0.1062 -2.5501,0.1594 0.3683,2.32261 0.6376,4.66782 0.6376,7.09283 0,3.77421 -0.4802,7.41602 -1.355,10.91823 10.2569,5.67622 18.7747,14.16946 24.3862,24.46609 5.8211,-3.03041 12.3147,-4.95742 19.2068,-5.41921 -1.7762,-20.83008 -19.0334,-37.21814 -40.3262,-37.21814 z m -32.9941,15.14225 c -31.45825,0 -56.90235,25.44209 -56.90235,56.90221 0,31.4581 25.4423,56.90221 56.90235,56.90221 31.4601,0 56.9022,-25.4461 56.9022,-56.90221 0,-31.46012 -25.4441,-56.90221 -56.9022,-56.90221 z m -61.76425,0.23908 c -24.4061,0 -44.1521,19.74547 -44.1521,44.15216 0,14.36725 6.8454,27.0861 17.4532,35.14612 4.472,-8.62542 13.4541,-14.50465 23.8281,-14.50465 1.2539,0 2.4573,0.152 3.666,0.31879 -0.3795,-2.76022 -0.5579,-5.58402 -0.5579,-8.44783 0,-13.69205 4.4569,-26.3541 12.0341,-36.58014 -4.5357,-5.67542 -7.7814,-12.49484 -9.1651,-19.92387 -1.0253,-0.071 -2.0645,-0.1594 -3.1081,-0.1594 z m 138.36065,26.2981 c -7.4108,0 -14.3527,1.89198 -20.4822,5.10062 3.4802,7.70902 5.4193,16.26245 5.4193,25.26409 0,16.85366 -6.7763,32.15811 -17.7721,43.27415 8.0781,8.96824 19.7984,14.58425 32.8341,14.58425 24.4061,0 44.1523,-19.74546 44.1523,-44.15216 0,-24.40668 -19.7456,-44.07215 -44.1523,-44.07215 z m -186.80678,5.81782 c -22.48213,0 -40.72413,18.08266 -40.72413,40.56414 0,22.48148 18.242,40.72416 40.72413,40.72416 8.55693,0 16.48383,-2.66602 23.03203,-7.17264 -2.7057,-4.20461 -4.3036,-9.23123 -4.3036,-14.58425 0,-2.7784 0.41,-5.44762 1.1954,-7.96963 -12.2589,-8.85923 -20.24205,-23.27608 -20.24205,-39.52814 0,-4.12961 0.5442,-8.12263 1.51425,-11.95444 -0.4027,-0.0119 -0.79,-0.0798 -1.19543,-0.0798 z m 239.00088,34.90612 c -1.1993,0 -2.3597,0.1366 -3.5066,0.31879 0.063,1.01376 0.08,1.99878 0.08,3.02841 0,12.96325 -5.1147,24.72808 -13.3888,33.47212 4.0706,4.73361 10.0496,7.73042 16.8158,7.73042 12.3247,0 22.3141,-9.91043 22.3141,-22.23408 0,-12.32464 -9.9902,-22.31408 -22.3141,-22.31408 z m -193.42075,2.39081 c -12.3241,0 -22.236,9.91104 -22.236,22.23408 0,12.32404 9.9109,22.31408 22.236,22.31408 9.4464,0 17.4646,-5.89442 20.72,-14.18584 -7.9451,-8.09204 -13.6552,-18.41549 -16.1782,-29.88612 -1.4764,-0.30532 -2.975,-0.47818 -4.5427,-0.47818 z m 244.42095,18.72847 0,44.07216 -23.3501,0 c -15.2643,0 -27.6541,12.46944 -27.6541,27.7341 0,15.26226 12.3901,27.6541 27.6541,27.6541 l 6.774,0 2.3113,0 c 4.4779,0 8.9496,-2.1748 12.5122,-5.49902 3.5626,-3.32422 6.2819,-7.92883 6.3756,-13.07005 0.1602,-8.82443 0,-34.50812 0,-34.50812 l 0,-1.11575 0,-45.26616 -4.6224,0 z m -213.50075,19.92387 0,60.96621 c 0,10.24645 8.40225,18.56907 18.64885,18.56907 l 0,-4.6224 c -7.7532,0 -14.02655,-6.19343 -14.02655,-13.94667 l 0,-58.09819 c -1.6092,-0.86501 -3.1028,-1.86899 -4.6223,-2.86902 z m -46.2242,5.65841 c -8.1871,7.81184 -13.3093,18.81068 -13.3093,31.00212 0,23.65408 19.2237,42.87616 42.8762,42.87616 l 0,-4.62242 c -21.1582,0 -38.2543,-17.09386 -38.2543,-38.25413 0,-11.38105 4.9679,-21.61009 12.8312,-28.6101 -1.4697,-0.67704 -2.8311,-1.47006 -4.1443,-2.39083 z m -54.43224,18.33007 c -15.2645,0 -27.65413,12.38985 -27.65413,27.65411 l 0,25.58209 4.62236,0 0,-25.58209 c 0,-12.77045 10.26187,-23.11209 23.03207,-23.11209 12.77292,0 23.11208,10.34124 23.11208,23.11209 l 0,25.58209 4.62246,0 0,-25.58209 c 0,-15.26446 -12.46763,-27.65411 -27.73409,-27.65411 z m 155.16659,0.1594 c -15.2652,0 -27.6541,12.46884 -27.6541,27.7341 0,15.26527 12.389,27.73411 27.6541,27.73411 15.2653,0 27.7342,-12.46884 27.7342,-27.73411 0,-15.26526 -12.4689,-27.7341 -27.7342,-27.7341 z m -308.58118,0.0795 c -15.26406,0 -27.73411,12.39045 -27.73411,27.6541 0,15.26406 12.47005,27.65411 27.73411,27.65411 15.26405,0 27.65409,-12.39045 27.65409,-27.65411 0,-15.26405 -12.39043,-27.6541 -27.65409,-27.6541 z m 41.52214,2.072 0,34.66814 c 0,10.24684 8.32444,18.56907 18.56907,18.56907 6.98243,0 13.14325,-3.86062 16.33766,-9.56343 3.17142,5.70281 9.27684,9.56343 16.25786,9.56343 10.24664,0 18.64867,-8.32223 18.64867,-18.56907 l 0,-34.66814 -4.62241,0 0,34.66814 c 0,7.75283 -6.27323,13.94664 -14.02645,13.94664 -7.75323,0 -13.94666,-6.19381 -13.94666,-13.94664 l 0,-34.66814 -4.62241,0 0,34.66814 c 0,7.75323 -6.27042,13.94664 -14.02645,13.94664 -7.75063,0 -13.94666,-6.19381 -13.94666,-13.94664 l 0,-34.66814 -4.62241,0 z m 306.90124,0 0,25.5821 c 0,15.26226 12.39,27.65411 27.654,27.65411 15.2645,0 27.7342,-12.39185 27.7342,-27.65411 l 0,-25.5821 -4.6224,0 0,25.5821 c 0,12.76746 -10.3414,23.03209 -23.1121,23.03209 -12.7703,0 -23.0321,-10.26444 -23.0321,-23.03209 l 0,-25.5821 -4.6225,0 z m -39.8482,2.47062 c 12.7712,0 23.1121,10.34043 23.1121,23.11209 0,12.77124 -10.3404,23.11208 -23.1121,23.11208 -12.7713,0 -23.0321,-10.34043 -23.0321,-23.11208 0,-12.77125 10.2608,-23.11209 23.0321,-23.11209 z m 135.6426,0 23.35,0 c 0.018,3.05422 0.1449,24.09209 0,32.11812 -0.065,3.5716 -2.0242,7.15523 -4.8614,9.80264 -2.8372,2.64721 -6.5088,4.22381 -9.4041,4.22381 l -9.0853,0 c -12.77,0 -23.0319,-10.26444 -23.0319,-23.03208 0,-12.77046 10.2619,-23.11209 23.0319,-23.11209 z m -444.22178,0.0799 c 12.77005,0 23.03208,10.26204 23.03208,23.03209 0,12.77005 -10.26203,23.03209 -23.03208,23.03209 -12.77004,0 -23.11209,-10.26204 -23.11209,-23.03209 0,-12.77005 10.34164,-23.03209 23.11209,-23.03209 z"
       style="color:#000000;text-indent:0;text-transform:none;block-progression:tb;fill:#ffffff;enable-background:accumulate"
       inkscape:connector-curvature="0" />
  </g>
</svg>
