<?xml version="1.0" encoding="UTF-8" standalone="no"?>
<!DOCTYPE svg PUBLIC "-//W3C//DTD SVG 1.1//EN" "http://www.w3.org/Graphics/SVG/1.1/DTD/svg11.dtd">
<svg width="100%" height="100%" viewBox="0 0 1920 1080" version="1.1" xmlns="http://www.w3.org/2000/svg" xmlns:xlink="http://www.w3.org/1999/xlink" xml:space="preserve" xmlns:serif="http://www.serif.com/" style="fill-rule:evenodd;clip-rule:evenodd;stroke-linecap:round;stroke-linejoin:round;stroke-miterlimit:1.5;">
    <g id="Background">
        <rect id="background" x="0" y="0" width="1920" height="1080" style="fill:rgb(34,32,44);"/>
        <g id="c3voclogo">
            <path id="path2161" d="M1699.5,562.816C1685.78,553.561 1678.56,538.597 1677.22,516.604C1676.23,500.214 1677.86,487.863 1684.91,458.637C1691.21,432.535 1692.05,427.311 1692.45,411.847L1692.8,398.403L1690.85,394.823C1689.78,392.854 1688.72,391.264 1688.49,391.289C1687.78,391.367 1679.2,401.55 1673.98,408.498C1662.61,423.65 1656.16,438.595 1654.98,452.498L1654.53,457.877L1650.86,458.639C1643.47,460.174 1643.29,460.123 1642.25,456.18C1640.85,450.91 1641.51,437.748 1643.46,431.96C1646.1,424.111 1652.02,413.117 1660.48,400.353C1669.88,386.183 1676.01,374.993 1678.26,367.878C1680.11,362.054 1680.33,361.919 1689.09,361.297L1695.17,360.866L1697.35,366.402C1702.52,379.586 1704.43,388.858 1705.05,403.88C1705.76,421.041 1703.94,436.361 1696.79,473.73C1690.6,506.12 1690.67,505.379 1692.51,515.452C1695.69,532.849 1700.07,542.926 1708.28,551.766C1710.26,553.897 1710.32,554.161 1709.83,558.436C1709.54,560.884 1709.04,563.597 1708.71,564.466C1707.77,566.952 1704.85,566.429 1699.5,562.816ZM1636.56,493.22L1633.49,492.947L1633.87,490.133C1634.45,485.816 1637.23,482.227 1641.66,480.057C1645.1,478.374 1646.7,478.107 1656.61,477.558C1662.72,477.22 1668.9,476.931 1670.35,476.916L1672.98,476.89L1672.98,483.545C1672.98,491.413 1674.99,490.322 1656.79,492.313C1643.99,493.713 1642.74,493.769 1636.56,493.22L1636.56,493.22ZM1699.94,484.231C1699.36,481.917 1700.1,477.318 1701.49,474.629C1703.16,471.411 1707.86,466.599 1713.7,462.144C1719.71,457.551 1724.93,452.194 1726.68,448.823C1730.43,441.566 1732.97,417.563 1731.31,405.087C1729.04,388.092 1720.25,369.173 1708.78,356.626C1706.85,354.514 1705.27,352.475 1705.27,352.094C1705.27,351.713 1708.64,348.282 1712.76,344.47C1718.04,339.584 1720.35,337.85 1720.58,338.592C1721.51,341.514 1733.23,363.37 1735.86,367.09C1741.55,375.139 1749.11,380.876 1756.53,382.784C1758.26,383.229 1760.87,384.05 1762.33,384.61C1766.16,386.083 1771.42,385.866 1780.25,383.872C1793.47,380.889 1797.67,381.737 1800.7,387.993C1803.22,393.181 1802.71,394.097 1796.13,396.303C1784.6,400.173 1769.4,400.34 1754.17,396.765C1749.48,395.663 1747.77,395.505 1747.15,396.117C1746.23,397.037 1746.18,403.088 1747.01,413.006C1747.48,418.57 1747.32,420.993 1746.05,427.627C1742.18,447.793 1734.62,462.552 1722.23,474.15C1717.34,478.724 1715.56,479.931 1712.35,480.856C1710.19,481.477 1706.62,482.893 1704.41,484.003L1700.39,486.022L1699.94,484.231ZM1660.18,360.358C1659.12,360.04 1657.15,359.093 1655.79,358.255C1653.77,357.004 1653.32,356.309 1653.32,354.386L1653.32,352.042L1658.06,351.578C1669.9,350.419 1679.46,346.51 1688.87,338.978C1698.92,330.942 1707.62,319.36 1721.77,295.175C1726.33,287.392 1729.2,283.173 1729.96,283.157C1731.38,283.127 1734.6,286.82 1735.18,289.142C1736.12,292.885 1730.73,310.908 1725.58,321.23C1715.63,341.166 1698.94,354.734 1678.25,359.699C1672.49,361.081 1663.65,361.403 1660.18,360.358ZM1310.39,350.532L1196.66,350.175L1194.38,348.545C1191.5,346.494 1187.11,337.574 1185.15,329.817C1181.78,316.428 1179.83,301.773 1178.75,281.729C1178.34,274.2 1177.35,257.93 1176.55,245.575C1174.95,221.047 1175.07,205.695 1177.02,182.744C1179.96,148.11 1185.31,127.337 1192.49,122.629C1194.47,121.334 1215.19,120.073 1282.45,117.155C1345.73,114.411 1414.09,116.667 1452.51,122.769C1461.18,124.145 1462.77,125.363 1466.93,133.799C1471.14,142.325 1473.55,152.016 1474.17,162.921C1474.86,174.786 1474.58,177.594 1472.66,178.107C1470.22,178.763 1462.39,178.591 1461.01,177.851C1459.01,176.78 1457.58,172.235 1456.41,163.279C1453.94,144.279 1450.58,139.812 1436.22,136.419C1420.18,132.629 1395.79,131.214 1347.24,131.258C1300.07,131.3 1263.63,132.752 1227.08,136.046C1218.04,136.859 1215.46,137.347 1212.66,138.767C1205.39,142.448 1199.97,151.047 1196.64,164.147C1194.09,174.184 1193.58,180.774 1192.82,212.993C1191.74,259.316 1193.5,281.748 1200.12,305.741C1204.11,320.24 1207.43,325.162 1216.06,329.369C1225.65,334.047 1221.89,333.88 1317.06,333.851C1399.54,333.826 1426.78,333.309 1437.48,331.567C1447.45,329.946 1453.15,319.614 1456.43,297.278C1457.96,286.859 1458.14,286.23 1460.18,284.415C1464.3,280.733 1469.7,281.176 1471.99,285.384C1474.06,289.165 1473.63,301.391 1470.98,314.021C1467.57,330.306 1464.45,341.329 1462.63,343.49C1459.08,347.708 1448.62,350.228 1432.89,350.652C1428.06,350.783 1372.94,350.728 1310.39,350.532ZM1630.51,339.009C1625.93,337.879 1623.18,336.396 1619.88,333.277L1617.18,330.736L1618.83,329.405C1621.37,327.345 1626.86,325.966 1636.83,324.886C1641.85,324.341 1647.37,323.435 1649.11,322.87C1668.21,316.67 1680.11,309.038 1695.55,293.108C1703.1,285.312 1718.65,266.029 1719.8,263.029C1720.03,262.421 1721.3,262.072 1723.26,262.072C1726.88,262.072 1726.88,261.655 1723.41,272.229C1715.58,296.104 1699.41,315.863 1676.32,329.795C1671.13,332.928 1670.14,333.229 1654.28,336.535C1636.43,340.256 1635.81,340.32 1630.51,339.009ZM1533.98,257.45C1559.38,257.157 1580.69,257.275 1593.24,257.78C1604.02,258.213 1612.97,258.432 1613.14,258.266C1613.84,257.567 1605.63,253.624 1600.72,252.3C1591.05,249.693 1586.62,249.416 1544.16,248.764C1520.99,248.408 1483.4,247.747 1460.62,247.294C1397.69,246.043 1451.83,246.062 1446.44,247.543C1436.91,250.161 1428.58,254.171 1421.52,259.536C1414.38,264.956 1406.16,274.192 1386.59,298.753L1365.48,325.254L1358.15,325.254C1351.96,325.254 1350.88,325.092 1351.21,324.214C1351.89,322.451 1377.65,286.694 1383.38,279.563C1395.17,264.882 1412.41,246.808 1418.93,242.281C1423.78,238.913 1432.36,236.144 1440.74,235.241C1450.72,234.165 1472.89,234.204 1536.44,235.315C1590.35,236.257 1588.87,236.133 1604.25,241.005C1609.01,242.514 1613.05,243.615 1613.21,243.452C1613.37,243.289 1612.64,242.027 1611.59,240.646C1609.11,237.399 1603.61,233.787 1597.86,231.631C1588.25,228.03 1584.99,227.807 1530.12,226.996C1480.64,226.265 1518.27,225.74 1459.07,223.907L1431.34,223.049L1427.23,220.996C1419.98,217.38 1414.18,211.004 1385.59,175.186C1370.41,156.163 1357.98,140.43 1357.98,140.223C1357.98,139.516 1373.78,140.804 1374.78,141.593C1375.33,142.025 1382.7,151.645 1391.17,162.971C1409.4,187.364 1414.85,193.968 1423.23,201.863C1431.54,209.682 1439.2,214.454 1444.39,215.546C1454.38,217.649 1416.94,215.293 1477.7,214.47C1548.15,213.514 1571.77,214.022 1582.77,216.729C1591.56,218.891 1602.35,222.638 1609.09,225.87C1611.94,227.234 1614.39,228.227 1614.54,228.077C1615.2,227.422 1612.45,223.506 1609.2,220.469C1599.02,210.943 1583.85,205.008 1564.87,203.123C1557.27,202.367 1488.46,195.325 1467.15,199.639C1455.74,201.951 1451.38,195.424 1452.79,189.378C1486.09,183.842 1539.55,188.652 1544.62,189.08C1568.38,191.089 1587.4,195.836 1603.96,203.892C1611.99,207.798 1612.88,208.448 1618.61,214.528C1629.38,225.968 1639.81,241.257 1645.77,254.35L1648.49,260.317L1648.24,256.039C1647.67,246.499 1633.62,223.242 1611.63,195.439C1607.54,190.259 1604.18,185.775 1604.18,185.475C1604.18,184.466 1607.29,182.744 1609.11,182.744C1612.32,182.744 1620.59,188.326 1624.34,193.028C1643.52,217.016 1655.5,236.554 1661.08,252.946C1662.33,256.614 1664.1,260.398 1665.01,261.355L1666.66,263.096L1668.79,260.972L1670.91,258.849L1669.1,252.563C1665.04,238.525 1660.62,229.845 1643.56,202.464C1630.55,181.572 1630.47,181.34 1636.15,181.34C1638.61,181.34 1640.11,181.984 1644.31,184.843C1647.15,186.77 1649.96,188.745 1650.58,189.231C1652.37,190.656 1666.43,214.498 1671.31,224.387C1673.77,229.385 1676.92,237.144 1678.31,241.63C1681.98,253.522 1681.99,253.535 1685.99,250.027C1688.54,247.783 1688.59,247.661 1688.18,243.848C1687.22,234.955 1682.11,218.993 1676.05,205.984C1674.36,202.356 1672.98,198.965 1672.98,198.448C1672.98,197.932 1673.89,196.485 1675.01,195.234C1676.97,193.043 1677.12,192.997 1679.05,193.994C1682.31,195.681 1687.91,201.8 1690.3,206.29C1691.52,208.591 1694.33,216.555 1696.54,223.988C1698.75,231.42 1700.81,237.502 1701.12,237.502C1701.43,237.502 1702.73,236.19 1704.01,234.587C1709.9,227.191 1712.03,226.162 1714.98,229.298C1716.88,231.326 1716.92,233.979 1715.1,239.257C1713.23,244.71 1713.3,246.221 1715.49,247.217C1716.47,247.665 1717.73,248.032 1718.29,248.032C1719.67,248.032 1719.58,249.856 1717.95,254.594C1713.12,268.608 1702.73,280.973 1686.32,292.207C1670.73,302.878 1650.51,309.549 1631.33,310.344C1621.81,310.739 1616.28,309.634 1611.55,306.399C1607.92,303.913 1607.79,301.732 1611.14,299.476C1614.8,297.011 1619.63,295.86 1629.72,295.05C1661.07,292.534 1684.79,281.145 1702,260.343C1704.7,257.078 1704.76,256.918 1702.82,258.196C1681.44,272.224 1658.14,282.466 1640.49,285.598C1635.2,286.537 1631.27,286.734 1623.29,286.458C1612.34,286.079 1605.8,284.764 1598.24,281.417C1594.05,279.566 1593.52,278.607 1593.83,273.492L1594,270.521L1536.44,270.167C1504.78,269.972 1457.22,275.509 1462.63,262.896C1462.22,257.893 1512.16,257.702 1533.98,257.45L1533.98,257.45Z" style="fill:white;fill-rule:nonzero;"/>
            <path id="path3041" d="M1289.18,151.205C1246.81,151.205 1212.46,186.195 1212.46,229.363C1212.46,272.532 1246.81,307.521 1289.18,307.521C1331.55,307.521 1365.9,272.532 1365.9,229.363C1365.9,186.195 1331.55,151.205 1289.18,151.205ZM1257.08,177.011L1300.12,203.035L1343.16,229.08L1255.87,278.995L1256.48,227.992L1257.08,177.011Z" style="fill:white;fill-rule:nonzero;"/>
        </g>
        <g transform="matrix(1,0,0,1,1168.03,511.04)">
            <g id="c3voctext">
                <text x="0px" y="0px" style="font-family:'Helvetica';font-size:124.051px;fill:white;">C3VOC</text>
            </g>
        </g>
        <g id="bysalogo" transform="matrix(4.9689,0,0,4.96835,291.53,295.961)">
            <path id="path3817_2_" d="M182.235,75.39L296.299,75.593C297.893,75.593 299.317,75.356 299.317,78.773L299.177,116.34L179.357,116.34L179.357,78.634C179.357,76.949 179.52,75.39 182.235,75.39Z" style="fill:rgb(170,178,171);fill-rule:nonzero;"/>
            <g id="g5908_2_" transform="matrix(0.872921,0,0,0.872921,50.1254,143.214)">
                <path id="path5906_2_" d="M187.209,-55.679C187.215,-46.999 180.182,-39.958 171.501,-39.952C162.821,-39.947 155.779,-46.98 155.774,-55.66L155.774,-55.679C155.769,-64.361 162.802,-71.401 171.482,-71.406C180.164,-71.412 187.204,-64.378 187.209,-55.698L187.209,-55.679Z" style="fill:white;fill-rule:nonzero;"/>
                <g id="g5706_2_" transform="matrix(1,0,0,1,-289.616,99.0653)">
                    <path id="path5708_2_" d="M473.885,-167.547C477.37,-164.061 479.113,-159.793 479.113,-154.745C479.113,-149.695 477.4,-145.473 473.975,-142.077C470.339,-138.501 466.043,-136.713 461.085,-136.713C456.187,-136.713 451.965,-138.485 448.42,-142.032C444.874,-145.578 443.102,-149.815 443.102,-154.745C443.102,-159.673 444.874,-163.94 448.42,-167.547C451.875,-171.034 456.097,-172.776 461.085,-172.776C466.133,-172.776 470.399,-171.034 473.885,-167.547ZM450.767,-165.202C447.82,-162.226 446.347,-158.74 446.347,-154.74C446.347,-150.742 447.805,-147.285 450.721,-144.369C453.638,-141.453 457.11,-139.995 461.138,-139.995C465.167,-139.995 468.668,-141.467 471.645,-144.414C474.471,-147.149 475.884,-150.591 475.884,-154.74C475.884,-158.858 474.448,-162.353 471.577,-165.225C468.706,-168.095 465.227,-169.531 461.138,-169.531C457.05,-169.531 453.592,-168.088 450.767,-165.202ZM458.521,-156.499C458.071,-157.481 457.397,-157.971 456.498,-157.971C454.909,-157.971 454.114,-156.902 454.114,-154.763C454.114,-152.623 454.909,-151.554 456.498,-151.554C457.547,-151.554 458.297,-152.075 458.746,-153.119L460.949,-151.946C459.899,-150.08 458.324,-149.147 456.224,-149.147C454.604,-149.147 453.306,-149.644 452.332,-150.637C451.356,-151.63 450.869,-152.999 450.869,-154.744C450.869,-156.46 451.371,-157.822 452.376,-158.83C453.382,-159.838 454.633,-160.343 456.134,-160.343C458.354,-160.343 459.944,-159.468 460.905,-157.72L458.521,-156.499ZM468.884,-156.499C468.434,-157.481 467.773,-157.971 466.902,-157.971C465.281,-157.971 464.47,-156.902 464.47,-154.763C464.47,-152.623 465.281,-151.554 466.902,-151.554C467.953,-151.554 468.689,-152.075 469.109,-153.119L471.361,-151.946C470.313,-150.08 468.74,-149.147 466.644,-149.147C465.026,-149.147 463.731,-149.644 462.757,-150.637C461.785,-151.63 461.298,-152.999 461.298,-154.744C461.298,-156.46 461.792,-157.822 462.781,-158.83C463.768,-159.838 465.026,-160.343 466.554,-160.343C468.77,-160.343 470.358,-159.468 471.315,-157.72L468.884,-156.499Z" style="fill-rule:nonzero;"/>
                </g>
            </g>
            <path id="path294-3" d="M297.296,74.911L181.067,74.911C179.82,74.911 178.806,75.925 178.806,77.172L178.806,116.667C178.806,116.949 179.035,117.178 179.316,117.178L299.046,117.178C299.328,117.178 299.557,116.949 299.557,116.667L299.557,77.172C299.557,75.925 298.543,74.911 297.296,74.911ZM181.067,75.932L297.296,75.932C297.98,75.932 298.536,76.488 298.536,77.172L298.536,104.59L215.462,104.59C212.417,110.096 206.551,113.834 199.818,113.834C193.083,113.834 187.218,110.099 184.175,104.59L179.827,104.59L179.827,77.172C179.827,76.488 180.383,75.932 181.067,75.932Z" style="fill-rule:nonzero;"/>
            <g id="g296">
                <path id="path298-6" d="M265.61,112.883C265.69,113.039 265.797,113.165 265.931,113.262C266.065,113.358 266.221,113.43 266.401,113.476C266.582,113.523 266.768,113.546 266.96,113.546C267.09,113.546 267.23,113.536 267.379,113.514C267.528,113.492 267.667,113.45 267.798,113.388C267.928,113.326 268.038,113.24 268.124,113.131C268.211,113.022 268.254,112.884 268.254,112.715C268.254,112.535 268.197,112.389 268.082,112.277C267.967,112.165 267.816,112.072 267.629,111.997C267.444,111.922 267.232,111.857 266.997,111.801C266.76,111.745 266.521,111.683 266.279,111.614C266.03,111.552 265.788,111.476 265.551,111.385C265.316,111.295 265.104,111.178 264.918,111.035C264.731,110.892 264.581,110.713 264.465,110.499C264.351,110.284 264.293,110.024 264.293,109.719C264.293,109.376 264.367,109.08 264.512,108.828C264.659,108.576 264.85,108.366 265.086,108.197C265.322,108.029 265.589,107.905 265.888,107.824C266.186,107.743 266.485,107.703 266.783,107.703C267.131,107.703 267.465,107.742 267.786,107.82C268.105,107.897 268.39,108.024 268.638,108.198C268.887,108.373 269.084,108.595 269.231,108.866C269.376,109.137 269.45,109.466 269.45,109.852L268.028,109.852C268.015,109.652 267.973,109.487 267.903,109.357C267.832,109.226 267.737,109.124 267.62,109.048C267.501,108.974 267.367,108.921 267.215,108.89C267.063,108.859 266.898,108.843 266.718,108.843C266.601,108.843 266.483,108.856 266.366,108.88C266.248,108.906 266.141,108.949 266.045,109.011C265.949,109.074 265.87,109.151 265.808,109.245C265.747,109.338 265.715,109.457 265.715,109.6C265.715,109.73 265.74,109.836 265.79,109.917C265.839,109.998 265.938,110.073 266.083,110.141C266.229,110.209 266.431,110.278 266.689,110.347C266.947,110.415 267.284,110.502 267.701,110.608C267.825,110.633 267.997,110.678 268.217,110.744C268.438,110.809 268.657,110.913 268.874,111.056C269.092,111.2 269.28,111.391 269.439,111.63C269.597,111.87 269.676,112.177 269.676,112.55C269.676,112.855 269.617,113.139 269.499,113.4C269.38,113.662 269.205,113.887 268.971,114.077C268.738,114.267 268.449,114.415 268.104,114.52C267.758,114.626 267.358,114.679 266.905,114.679C266.538,114.679 266.181,114.634 265.835,114.543C265.491,114.453 265.185,114.311 264.92,114.118C264.657,113.924 264.447,113.678 264.291,113.379C264.135,113.08 264.061,112.725 264.067,112.314L265.489,112.314C265.489,112.538 265.529,112.728 265.61,112.883L265.61,112.883Z" style="fill:white;fill-rule:nonzero;"/>
                <path id="path300-7" d="M273.867,107.867L276.36,114.531L274.837,114.531L274.333,113.046L271.84,113.046L271.318,114.531L269.843,114.531L272.364,107.867L273.867,107.867ZM273.951,111.953L273.111,109.509L273.092,109.509L272.223,111.953L273.951,111.953Z" style="fill:white;fill-rule:nonzero;"/>
            </g>
            <g id="g302">
                <path id="path304-5" d="M239.178,107.867C239.496,107.867 239.786,107.895 240.047,107.951C240.309,108.007 240.534,108.099 240.721,108.226C240.908,108.354 241.053,108.523 241.156,108.734C241.258,108.946 241.31,109.207 241.31,109.518C241.31,109.854 241.234,110.133 241.081,110.357C240.928,110.582 240.702,110.765 240.403,110.908C240.815,111.026 241.123,111.233 241.326,111.529C241.529,111.825 241.63,112.181 241.63,112.598C241.63,112.934 241.565,113.225 241.434,113.471C241.303,113.717 241.126,113.918 240.906,114.073C240.684,114.229 240.431,114.344 240.148,114.418C239.864,114.494 239.573,114.531 239.273,114.531L236.037,114.531L236.037,107.867L239.178,107.867L239.178,107.867L239.178,107.867ZM238.991,110.562C239.252,110.562 239.467,110.5 239.636,110.376C239.804,110.251 239.888,110.05 239.888,109.771C239.888,109.616 239.86,109.488 239.804,109.389C239.748,109.29 239.673,109.212 239.58,109.156C239.486,109.101 239.378,109.062 239.257,109.04C239.135,109.018 239.009,109.007 238.878,109.007L237.505,109.007L237.505,110.562L238.991,110.562L238.991,110.562ZM239.077,113.39C239.22,113.39 239.357,113.376 239.488,113.348C239.619,113.32 239.735,113.273 239.834,113.208C239.934,113.143 240.013,113.054 240.073,112.942C240.132,112.831 240.162,112.688 240.162,112.513C240.162,112.171 240.065,111.927 239.872,111.781C239.678,111.635 239.422,111.562 239.105,111.562L237.505,111.562L237.505,113.39L239.077,113.39L239.077,113.39Z" style="fill:white;fill-rule:nonzero;"/>
                <path id="path306-3" d="M241.889,107.867L243.533,107.867L245.093,110.499L246.644,107.867L248.278,107.867L245.804,111.973L245.804,114.531L244.335,114.531L244.335,111.936L241.889,107.867Z" style="fill:white;fill-rule:nonzero;"/>
            </g>
            <g id="g6316_1_" transform="matrix(0.624995,0,0,0.624995,391.229,176.933)">
                <path id="path6318_1_" d="M-175.008,-139.115C-175.002,-129.703 -182.626,-122.068 -192.038,-122.06C-201.449,-122.053 -209.085,-129.678 -209.093,-139.09L-209.093,-139.115C-209.099,-148.528 -201.474,-156.162 -192.063,-156.17C-182.651,-156.177 -175.015,-148.552 -175.008,-139.14L-175.008,-139.115L-175.008,-139.115Z" style="fill:white;fill-rule:nonzero;"/>
                <g id="g6320_1_" transform="matrix(1,0,0,1,-23.9521,-89.7296)">
                    <path id="path6322_1_" d="M-168.22,-68.055C-173.392,-68.055 -177.769,-66.251 -181.352,-62.642C-185.028,-58.908 -186.866,-54.489 -186.866,-49.386C-186.866,-44.283 -185.028,-39.894 -181.352,-36.223C-177.677,-32.551 -173.299,-30.715 -168.22,-30.715C-163.08,-30.715 -158.625,-32.567 -154.853,-36.27C-151.303,-39.786 -149.527,-44.158 -149.527,-49.386C-149.527,-54.612 -151.334,-59.033 -154.948,-62.642C-158.563,-66.251 -162.986,-68.055 -168.22,-68.055ZM-168.174,-64.695C-163.936,-64.695 -160.338,-63.202 -157.377,-60.215C-154.387,-57.258 -152.892,-53.649 -152.892,-49.386C-152.892,-45.092 -154.355,-41.529 -157.284,-38.697C-160.369,-35.647 -163.998,-34.123 -168.173,-34.123C-172.349,-34.123 -175.947,-35.632 -178.969,-38.65C-181.991,-41.669 -183.502,-45.247 -183.502,-49.386C-183.502,-53.524 -181.975,-57.134 -178.922,-60.215C-175.994,-63.202 -172.411,-64.695 -168.174,-64.695Z" style="fill-rule:nonzero;"/>
                    <path id="path6324_1_" d="M-176.495,-52.021C-175.752,-56.719 -172.444,-59.229 -168.3,-59.229C-162.339,-59.229 -158.708,-54.904 -158.708,-49.137C-158.708,-43.51 -162.572,-39.138 -168.394,-39.138C-172.399,-39.138 -175.983,-41.603 -176.636,-46.439L-171.933,-46.439C-171.792,-43.928 -170.163,-43.044 -167.834,-43.044C-165.181,-43.044 -163.456,-45.509 -163.456,-49.277C-163.456,-53.229 -164.947,-55.322 -167.742,-55.322C-169.791,-55.322 -171.559,-54.578 -171.933,-52.021L-170.564,-52.028L-174.267,-48.326L-177.969,-52.028L-176.495,-52.021Z" style="fill-rule:nonzero;"/>
                </g>
            </g>
            <g id="g313">
                <circle id="circle315" cx="242.562" cy="90.225" r="10.806" style="fill:white;"/>
                <g id="g317">
                    <path id="path319" d="M245.69,87.098C245.69,86.681 245.352,86.344 244.936,86.344L240.164,86.344C239.748,86.344 239.41,86.681 239.41,87.098L239.41,91.871L240.741,91.871L240.741,97.523L244.358,97.523L244.358,91.871L245.69,91.871L245.69,87.098L245.69,87.098Z" style="fill-rule:nonzero;"/>
                    <circle id="circle321" cx="242.55" cy="84.083" r="1.632"/>
                </g>
                <path id="path323" d="M242.535,78.318C239.303,78.318 236.566,79.446 234.327,81.702C232.029,84.035 230.881,86.797 230.881,89.986C230.881,93.175 232.029,95.918 234.327,98.213C236.625,100.508 239.361,101.655 242.535,101.655C245.748,101.655 248.533,100.499 250.888,98.184C253.109,95.987 254.218,93.254 254.218,89.986C254.218,86.719 253.089,83.958 250.831,81.702C248.572,79.446 245.806,78.318 242.535,78.318ZM242.564,80.418C245.212,80.418 247.461,81.352 249.311,83.219C251.181,85.066 252.116,87.322 252.116,89.986C252.116,92.67 251.201,94.897 249.37,96.667C247.442,98.573 245.173,99.525 242.564,99.525C239.955,99.525 237.706,98.583 235.817,96.696C233.928,94.81 232.984,92.573 232.984,89.986C232.984,87.4 233.938,85.144 235.846,83.219C237.677,81.352 239.917,80.418 242.564,80.418Z"/>
            </g>
        </g>
        <g transform="matrix(1,0,0,1,1257,957.714)">
            <g id="bysatext">
                <text x="0px" y="0px" style="font-family:'Helvetica-Bold', 'Helvetica';font-weight:700;font-size:75px;fill:white;">CC BY<tspan x="229.248px 254.224px 304.248px 355.664px 376.501px " y="0px 0px 0px 0px 0px ">-SA 4</tspan>.0</text>
            </g>
        </g>
    </g>
    <g id="Person--" serif:id="Person ?" transform="matrix(0.43995,0,0,0.43995,-95.2548,49.7756)">
        <g transform="matrix(0.995584,-0.0938769,0.0938769,0.995584,-1160.96,-4264.08)">
            <path d="M1826.02,4765.36C1908.53,4761.09 1950.68,4781.78 2009.13,4813.13C2048.83,4834.43 2047.36,4941.24 2038.85,4977.37C2013.05,4940.1 1923.78,4865.47 1834.47,4864.48C1795.31,4864.05 1809.7,4766.2 1826.02,4765.36Z" style="fill:rgb(149,146,144);stroke:rgb(149,146,144);stroke-width:11.36px;"/>
        </g>
        <g transform="matrix(1,0,0,1,-704.61,-4458.1)">
            <g transform="matrix(0.799709,0,0,0.806023,325.665,529.695)">
                <circle cx="1752.51" cy="5465.01" r="241.035" style="fill:rgb(0,130,244);stroke:rgb(0,130,244);stroke-width:14.16px;"/>
            </g>
            <g transform="matrix(-0.942526,0.256614,-0.246264,-0.90451,5557.34,10381.7)">
                <path d="M2167.22,5779.73C2171.31,5772.97 2173.45,5765.29 2173.45,5757.48C2173.45,5732.93 2152.61,5712.99 2126.94,5712.99C2101.27,5712.99 2080.43,5732.93 2080.43,5757.48C2080.43,5765.29 2082.58,5772.97 2086.66,5779.73L2167.22,5779.73Z" style="fill:rgb(0,130,244);stroke:rgb(0,130,244);stroke-width:11.87px;"/>
            </g>
            <path d="M1576.67,5137.48C1728.8,5236.53 1861.84,5151.58 1861.84,5151.58C1861.84,5151.58 1954.25,5202.29 2046.75,5359.36C2095.07,5441.41 2142.8,5531.69 2146.03,5628.41C2146.89,5654.06 2052.04,5683.34 2021.79,5633.42C1967.31,5543.5 1881.85,5394.89 1881.85,5394.89C1881.85,5394.89 1952.17,5639.06 1915.27,5799.98C1910.15,5822.32 1824.96,5841.61 1680.12,5834.65C1536.58,5827.75 1461.06,5797.27 1458.69,5775.39C1437.5,5580.29 1539.6,5395.68 1539.6,5395.68C1539.6,5395.68 1300.55,5466.62 1251.78,5438.34C1229.59,5425.48 1234.52,5275.72 1368.96,4989.36C1388.57,4947.6 1491.51,5019.16 1476.68,5070.52C1451.94,5156.24 1390.62,5319.25 1390.62,5319.25C1390.62,5319.25 1521.29,5183.15 1576.67,5137.48Z" style="fill:rgb(237,15,103);stroke:rgb(237,15,103);stroke-width:11.36px;"/>
            <path d="M1446.71,5839.84C1446.71,5839.84 1531.01,5884.92 1668.12,5890.18C1833.88,5896.55 1911.77,5868.17 1911.77,5868.17C1911.77,5868.17 1947.65,6023.85 1949.26,6180.73C1950.14,6266.94 1952.3,6358.26 1936.11,6466.65C1928.08,6520.46 1736.16,6534.6 1727.27,6488.42C1699.04,6341.83 1663.46,6072.15 1663.46,6072.15C1663.46,6072.15 1592.52,6330.31 1524.64,6476.41C1503.97,6520.9 1355.23,6516.35 1349.37,6453.31C1337.91,6330.17 1345.83,6249.05 1368.49,6127.59C1402.08,5947.47 1446.71,5839.84 1446.71,5839.84Z" style="fill:rgb(22,19,10);stroke:rgb(22,19,10);stroke-width:11.36px;"/>
        </g>
        <g transform="matrix(1.17793,0.07957,-0.07957,1.17793,-393.855,-5319.72)">
            <path d="M1283.89,6176.68C1323.31,6203.29 1377.89,6210.01 1439.1,6192.36C1454,6190.51 1541.84,6249.44 1501.11,6260.32C1435.59,6277.83 1339.03,6271.41 1300.66,6251.59C1277.57,6239.66 1274.91,6216.8 1283.89,6176.68Z" style="fill:rgb(237,15,103);stroke:rgb(237,15,103);stroke-width:9.63px;"/>
        </g>
        <g transform="matrix(1.28776,-0.302824,0.270255,1.14926,-2264.79,-4610.62)">
            <path d="M1283.89,6176.68C1323.31,6203.29 1377.89,6210.01 1439.1,6192.36C1454,6190.51 1541.84,6249.44 1501.11,6260.32C1435.59,6277.83 1339.03,6271.41 1300.66,6251.59C1277.57,6239.66 1274.91,6216.8 1283.89,6176.68Z" style="fill:rgb(237,15,103);stroke:rgb(237,15,103);stroke-width:9.06px;"/>
        </g>
        <g transform="matrix(1,0,0,-1,-705.316,5619.41)">
            <path d="M1688.7,5006.77C1688.7,5006.77 1701.59,5037.37 1718.08,5035.94C1739.92,5034.06 1755.84,5034.37 1771.84,5036.23C1790.58,5038.41 1809.44,5042.7 1838.06,5048.05" style="fill:none;stroke:rgb(22,19,10);stroke-width:11.36px;"/>
        </g>
        <g transform="matrix(1,0,0,1,-704.61,-4458.1)">
            <g transform="matrix(1,0,0,1,-2.80849,16.3533)">
                <path d="M1700.3,4837.23C1622.44,4844.21 1569.52,4851.35 1526.44,4870.4C1514.97,4875.48 1515.28,4931.72 1522.76,4928.04C1561.65,4908.88 1648.01,4879.95 1693.55,4887.8L1700.3,4837.23Z" style="fill:rgb(179,179,179);stroke:rgb(220,220,220);stroke-width:11.36px;"/>
            </g>
            <g transform="matrix(1,0,0,1,-15.7594,-14.6583)">
                <path d="M1703.48,4836.41C1734.58,4813.87 1771.57,4799.77 1821.07,4782.99C1804.48,4833.33 1816.68,4880.36 1837.75,4879.16C1905.12,4875.3 1992.39,4902.53 2055.7,4973.78C2023.71,4985.96 1984.38,4984.18 1951.64,4987.76C1921.31,4963.59 1799.71,4932.14 1730.68,4936.83C1697.64,4939.07 1686.4,4848.78 1703.48,4836.41Z" style="fill:rgb(179,179,179);stroke:rgb(220,220,220);stroke-width:11.36px;"/>
            </g>
            <g transform="matrix(1,0,0,1,-28.025,-4.20821)">
                <path d="M1796.1,4788.17C1785.08,4841.55 1802.79,4885.39 1827.6,4885.71C1869.98,4886.24 1966.14,4894.9 2039.23,4970.78" style="fill:none;stroke:rgb(220,220,220);stroke-width:11.36px;"/>
            </g>
            <g transform="matrix(1,0,0,1,-13.1502,-11.2067)">
                <path d="M1730.53,4819.56C1712.63,4835.08 1715.81,4917.96 1739.53,4914.03C1797.29,4904.47 1924.67,4929.33 1971.2,4978.69" style="fill:none;stroke:rgb(220,220,220);stroke-width:11.36px;"/>
            </g>
            <g transform="matrix(0.995584,-0.0938769,0.0938769,0.995584,-456.346,194.017)">
                <path d="M1826.02,4765.36C1908.53,4761.09 1950.68,4781.78 2009.13,4813.13C2048.83,4834.43 2047.36,4941.24 2038.85,4977.37C2013.05,4940.1 1923.78,4865.47 1834.47,4864.48C1795.31,4864.05 1809.7,4766.2 1826.02,4765.36Z" style="fill:rgb(149,146,144);fill-opacity:0.42;stroke:rgb(220,220,220);stroke-width:11.36px;"/>
            </g>
            <g transform="matrix(1.07193,0.116574,-0.11538,1.06095,420.702,-519.254)">
                <path d="M1896.34,4841.61C1905.79,4836.14 1952.24,4810.55 1952.24,4810.55" style="fill:none;stroke:rgb(220,220,220);stroke-width:10.59px;"/>
            </g>
            <g transform="matrix(1.006,0.166168,-0.188065,0.989957,893.595,-265.975)">
                <path d="M1895.34,4822.26L1921.45,4805.99" style="fill:none;stroke:rgb(220,220,220);stroke-width:11.35px;"/>
            </g>
        </g>
        <g transform="matrix(0.730686,0.682713,-0.682713,0.730686,3775.67,-4490)">
            <path d="M1242.17,5704.09C1245.91,5697.62 1247.88,5690.28 1247.88,5682.8C1247.88,5659.3 1228.79,5640.22 1205.29,5640.22C1181.79,5640.22 1162.71,5659.3 1162.71,5682.8C1162.71,5690.28 1164.67,5697.62 1168.41,5704.09L1242.17,5704.09Z" style="fill:rgb(0,130,244);stroke:rgb(0,130,244);stroke-width:11.36px;"/>
        </g>
        <g transform="matrix(0.28339,0.212032,-0.212032,0.28339,776.006,-695.395)">
            <g transform="matrix(0.989631,0.143634,-0.143634,0.989631,-165.216,-419.241)">
                <g transform="matrix(0.995254,0.0973076,-0.0973076,0.995254,99.9844,-243.434)">
                    <path d="M4290.02,1566.52C4200.68,1570.17 4209.21,1696.91 4285.36,1690.64C4407.6,1680.57 4359.39,1563.67 4290.02,1566.52Z" style="fill:rgb(22,19,10);stroke:rgb(22,19,10);stroke-width:32.11px;"/>
                </g>
                <g transform="matrix(0.86912,0.308452,-0.286859,0.808276,881.582,-1013.15)">
                    <path d="M3892.72,1261.3C3946.71,1170.25 4148.79,994.551 4273.29,1023.05C4345.51,1039.58 4380.42,1085.12 4404.07,1132.59C4424.03,1172.65 4437.55,1261.3 4410.57,1317.38C4367.13,1407.66 4301.82,1416.74 4262.41,1491.38C4241.84,1530.35 4279.8,1571.37 4336.06,1536.4C4401.96,1495.43 4490.6,1341.36 4490.6,1341.36L4608.78,1440.29C4608.78,1440.29 4358.49,1742.81 4209.11,1710.11C4106.47,1687.64 4090.13,1545.17 4117.3,1466.75C4129.88,1430.45 4187.5,1364.79 4230.76,1326.39C4310.18,1255.88 4260.4,1176.07 4232.98,1177.21C4121.25,1181.86 3948.43,1354.7 3973.47,1371.71L3892.72,1261.3Z" style="fill:rgb(22,19,10);stroke:rgb(22,19,10);stroke-width:36.06px;"/>
                </g>
            </g>
            <g transform="matrix(0.989631,0.143634,-0.143634,0.989631,-87.7709,-478.521)">
                <g transform="matrix(0.995254,0.0973076,-0.0973076,0.995254,99.9844,-243.434)">
                    <path d="M4290.02,1566.52C4200.68,1570.17 4209.21,1696.91 4285.36,1690.64C4407.6,1680.57 4359.39,1563.67 4290.02,1566.52Z" style="fill:rgb(237,15,103);stroke:rgb(10,10,10);stroke-width:32.11px;"/>
                </g>
                <g transform="matrix(0.86912,0.308452,-0.286859,0.808276,881.582,-1013.15)">
                    <path d="M3892.72,1261.3C3946.71,1170.25 4148.79,994.551 4273.29,1023.05C4345.51,1039.58 4380.42,1085.12 4404.07,1132.59C4424.03,1172.65 4437.55,1261.3 4410.57,1317.38C4367.13,1407.66 4301.82,1416.74 4262.41,1491.38C4241.84,1530.35 4279.8,1571.37 4336.06,1536.4C4401.96,1495.43 4490.6,1341.36 4490.6,1341.36L4608.78,1440.29C4608.78,1440.29 4358.49,1742.81 4209.11,1710.11C4106.47,1687.64 4090.13,1545.17 4117.3,1466.75C4129.88,1430.45 4187.5,1364.79 4230.76,1326.39C4310.18,1255.88 4260.4,1176.07 4232.98,1177.21C4121.25,1181.86 3948.43,1354.7 3973.47,1371.71L3892.72,1261.3Z" style="fill:rgb(237,15,103);stroke:rgb(10,10,10);stroke-width:36.06px;"/>
                </g>
            </g>
        </g>
        <g transform="matrix(0.331673,0.123532,-0.138371,0.371515,423.216,-893.63)">
            <g transform="matrix(0.989631,0.143634,-0.143634,0.989631,-165.216,-419.241)">
                <g transform="matrix(0.995254,0.0973076,-0.0973076,0.995254,99.9844,-243.434)">
                    <path d="M4290.02,1566.52C4200.68,1570.17 4209.21,1696.91 4285.36,1690.64C4407.6,1680.57 4359.39,1563.67 4290.02,1566.52Z" style="fill:rgb(22,19,10);stroke:rgb(22,19,10);stroke-width:29.48px;"/>
                </g>
                <g transform="matrix(0.86912,0.308452,-0.286859,0.808276,881.582,-1013.15)">
                    <path d="M3892.72,1261.3C3946.71,1170.25 4148.79,994.551 4273.29,1023.05C4345.51,1039.58 4380.42,1085.12 4404.07,1132.59C4424.03,1172.65 4437.55,1261.3 4410.57,1317.38C4367.13,1407.66 4301.82,1416.74 4262.41,1491.38C4241.84,1530.35 4279.8,1571.37 4336.06,1536.4C4401.96,1495.43 4490.6,1341.36 4490.6,1341.36L4608.78,1440.29C4608.78,1440.29 4358.49,1742.81 4209.11,1710.11C4106.47,1687.64 4090.13,1545.17 4117.3,1466.75C4129.88,1430.45 4187.5,1364.79 4230.76,1326.39C4310.18,1255.88 4260.4,1176.07 4232.98,1177.21C4121.25,1181.86 3948.43,1354.7 3973.47,1371.71L3892.72,1261.3Z" style="fill:rgb(22,19,10);stroke:rgb(22,19,10);stroke-width:32.55px;"/>
                </g>
            </g>
            <g transform="matrix(0.989631,0.143634,-0.143634,0.989631,-87.7709,-478.521)">
                <g transform="matrix(0.995254,0.0973076,-0.0973076,0.995254,99.9844,-243.434)">
                    <path d="M4290.02,1566.52C4200.68,1570.17 4209.21,1696.91 4285.36,1690.64C4407.6,1680.57 4359.39,1563.67 4290.02,1566.52Z" style="fill:rgb(237,15,103);stroke:rgb(10,10,10);stroke-width:29.48px;"/>
                </g>
                <g transform="matrix(0.86912,0.308452,-0.286859,0.808276,881.582,-1013.15)">
                    <path d="M3892.72,1261.3C3946.71,1170.25 4148.79,994.551 4273.29,1023.05C4345.51,1039.58 4380.42,1085.12 4404.07,1132.59C4424.03,1172.65 4437.55,1261.3 4410.57,1317.38C4367.13,1407.66 4301.82,1416.74 4262.41,1491.38C4241.84,1530.35 4279.8,1571.37 4336.06,1536.4C4401.96,1495.43 4490.6,1341.36 4490.6,1341.36L4608.78,1440.29C4608.78,1440.29 4358.49,1742.81 4209.11,1710.11C4106.47,1687.64 4090.13,1545.17 4117.3,1466.75C4129.88,1430.45 4187.5,1364.79 4230.76,1326.39C4310.18,1255.88 4260.4,1176.07 4232.98,1177.21C4121.25,1181.86 3948.43,1354.7 3973.47,1371.71L3892.72,1261.3Z" style="fill:rgb(237,15,103);stroke:rgb(10,10,10);stroke-width:32.55px;"/>
                </g>
            </g>
        </g>
        <g transform="matrix(0.145044,0.131336,-0.172485,0.168438,1359.89,-455.781)">
            <g transform="matrix(0.989631,0.143634,-0.143634,0.989631,-165.216,-419.241)">
                <g transform="matrix(0.995254,0.0973076,-0.0973076,0.995254,99.9844,-243.434)">
                    <path d="M4290.02,1566.52C4200.68,1570.17 4209.21,1696.91 4285.36,1690.64C4407.6,1680.57 4359.39,1563.67 4290.02,1566.52Z" style="fill:rgb(22,19,10);stroke:rgb(22,19,10);stroke-width:50.7px;"/>
                </g>
                <g transform="matrix(0.86912,0.308452,-0.286859,0.808276,881.582,-1013.15)">
                    <path d="M3892.72,1261.3C3946.71,1170.25 4148.79,994.551 4273.29,1023.05C4345.51,1039.58 4380.42,1085.12 4404.07,1132.59C4424.03,1172.65 4437.55,1261.3 4410.57,1317.38C4367.13,1407.66 4301.82,1416.74 4262.41,1491.38C4241.84,1530.35 4279.8,1571.37 4336.06,1536.4C4401.96,1495.43 4490.6,1341.36 4490.6,1341.36L4608.78,1440.29C4608.78,1440.29 4358.49,1742.81 4209.11,1710.11C4106.47,1687.64 4090.13,1545.17 4117.3,1466.75C4129.88,1430.45 4187.5,1364.79 4230.76,1326.39C4310.18,1255.88 4260.4,1176.07 4232.98,1177.21C4121.25,1181.86 3948.43,1354.7 3973.47,1371.71L3892.72,1261.3Z" style="fill:rgb(22,19,10);stroke:rgb(22,19,10);stroke-width:54.84px;"/>
                </g>
            </g>
            <g transform="matrix(0.989631,0.143634,-0.143634,0.989631,-87.7709,-478.521)">
                <g transform="matrix(0.995254,0.0973076,-0.0973076,0.995254,99.9844,-243.434)">
                    <path d="M4290.02,1566.52C4200.68,1570.17 4209.21,1696.91 4285.36,1690.64C4407.6,1680.57 4359.39,1563.67 4290.02,1566.52Z" style="fill:rgb(237,15,103);stroke:rgb(10,10,10);stroke-width:50.7px;"/>
                </g>
                <g transform="matrix(0.86912,0.308452,-0.286859,0.808276,881.582,-1013.15)">
                    <path d="M3892.72,1261.3C3946.71,1170.25 4148.79,994.551 4273.29,1023.05C4345.51,1039.58 4380.42,1085.12 4404.07,1132.59C4424.03,1172.65 4437.55,1261.3 4410.57,1317.38C4367.13,1407.66 4301.82,1416.74 4262.41,1491.38C4241.84,1530.35 4279.8,1571.37 4336.06,1536.4C4401.96,1495.43 4490.6,1341.36 4490.6,1341.36L4608.78,1440.29C4608.78,1440.29 4358.49,1742.81 4209.11,1710.11C4106.47,1687.64 4090.13,1545.17 4117.3,1466.75C4129.88,1430.45 4187.5,1364.79 4230.76,1326.39C4310.18,1255.88 4260.4,1176.07 4232.98,1177.21C4121.25,1181.86 3948.43,1354.7 3973.47,1371.71L3892.72,1261.3Z" style="fill:rgb(237,15,103);stroke:rgb(10,10,10);stroke-width:54.84px;"/>
                </g>
            </g>
        </g>
        <g transform="matrix(1.71595,0,0,1.58296,1086.64,222.151)">
            <g transform="matrix(1,0,0,1,-490.086,187.184)">
                <g transform="matrix(0.14518,0.0528472,-0.0507704,0.151118,853.058,542.011)">
                    <g>
                        <g transform="matrix(0.983693,0.26589,-0.273324,1.01119,452.694,-475.981)">
                            <path d="M1864.66,1017.93C1864.66,1017.93 1983.85,796.616 2061.57,754.998C2139.29,713.381 2229.57,694.711 2311.36,712.469C2379.27,727.213 2460.42,777.663 2472.64,910.465C2480.09,991.451 2386.84,1107.44 2386.84,1107.44C2386.84,1107.44 2533.82,1019.57 2682.71,1097.46C2751.99,1133.71 2777.71,1225.98 2767.7,1355.68C2756.48,1500.96 2460.04,1602.24 2289.49,1673.53C2287.2,1589.76 2236.83,1527.55 2156.87,1478.6C2206.1,1488.16 2556.81,1457.11 2588.67,1322.54C2600.39,1273.03 2537.55,1212.18 2447.48,1218.4C2391.05,1222.3 2191.1,1307.14 2191.1,1307.14C2193.86,1251.82 2170.44,1211.97 2132.71,1180.57C2132.71,1180.57 2320.14,1038.95 2306.66,947.181C2295.06,868.183 2243.27,853.759 2192.3,870.391C2139.91,887.487 2002.13,1077.1 2002.13,1077.1C1963.33,1040.48 1915.12,1026.5 1864.66,1017.93Z" style="stroke:black;stroke-width:28.9px;"/>
                        </g>
                        <g transform="matrix(0.967975,0.242148,-0.261596,1.04831,1275.62,-385.987)">
                            <path d="M601.644,1463.14C595.697,1444.81 761.342,1154.99 863.632,1118.9C1097.65,1036.32 1232.72,1154.08 1259.63,1285.1C1312.49,1542.38 1140.02,1773.12 1140.02,1773.12C1271.17,1640.9 1344.32,1634.15 1505.25,1606.01C1515.76,1675.15 1487.14,1741.62 1525.04,1781.3C1288.01,1839.78 1169.35,1943.57 992.563,2095.75C966.258,2009.08 957.988,1926.38 897.224,1872.27C916.202,1879.42 1051.31,1671.57 1084.61,1563.53C1115.01,1464.89 1105.39,1360.37 1033.45,1305.61C1001.22,1281.07 892.881,1320.91 849.57,1381C813.223,1431.43 794.231,1472.62 762.53,1575.46C712.916,1496.33 685.745,1498.16 601.644,1463.14Z" style="stroke:black;stroke-width:28.71px;"/>
                        </g>
                        <g transform="matrix(1.00616,0.271964,-0.276877,1.02434,122.51,-33.302)">
                            <path d="M1579.6,835.25C1664.65,851.817 1797.55,941.477 1879.61,1065.87C1947.48,1168.77 1955.8,1289.28 1922.91,1453.87C1898.86,1574.28 1774.07,1654.56 1678.4,1674.37C1582.74,1694.19 1461.89,1642.41 1376.94,1557.23C1291.98,1472.05 1213.43,1322.88 1202.29,1207.68C1191.15,1092.48 1229.29,986.093 1301.71,912.945C1374.13,839.798 1494.54,818.684 1579.6,835.25ZM1458.15,1034.77C1415.24,1053.24 1380.65,1140.1 1387.4,1190.29C1398.91,1275.77 1448.8,1358.95 1493.72,1405.72C1538.64,1452.49 1657.09,1513.25 1701.28,1487.37C1831.66,1411.01 1782.55,1232.77 1692.36,1125.12C1629.68,1050.32 1520.5,1007.95 1458.15,1034.77Z" style="stroke:black;stroke-width:28.39px;"/>
                        </g>
                        <g transform="matrix(0.946467,0.255828,-0.262157,0.969883,161.015,73.0219)">
                            <path d="M601.644,1463.14C595.697,1444.81 789.89,1125.95 892.18,1089.86C1126.2,1007.28 1232.72,1154.08 1259.63,1285.1C1312.49,1542.38 1072.47,1872.89 1072.47,1872.89C1203.63,1740.67 1363.9,1660.33 1524.83,1632.19C1535.34,1701.33 1560.25,1753 1598.14,1792.68C1361.11,1851.16 1165.22,1973.63 988.435,2125.81C962.129,2039.14 915.225,1970.56 854.461,1916.45C873.439,1923.6 1023.44,1633.67 1056.74,1525.63C1087.15,1426.99 1097.51,1338.83 1025.57,1284.06C993.335,1259.52 931.194,1296.05 887.883,1356.14C851.536,1406.57 710.955,1556.24 712.455,1601.46C705.167,1523.2 685.745,1498.16 601.644,1463.14Z" style="stroke:black;stroke-width:30.08px;"/>
                        </g>
                    </g>
                </g>
                <g transform="matrix(0.14518,0.0528472,-0.0507704,0.151118,873.057,527.282)">
                    <g>
                        <g transform="matrix(0.983693,0.26589,-0.273324,1.01119,452.694,-475.981)">
                            <path d="M1864.66,1017.93C1864.66,1017.93 1983.85,796.616 2061.57,754.998C2139.29,713.381 2229.57,694.711 2311.36,712.469C2379.27,727.213 2460.42,777.663 2472.64,910.465C2480.09,991.451 2386.84,1107.44 2386.84,1107.44C2386.84,1107.44 2533.82,1019.57 2682.71,1097.46C2751.99,1133.71 2777.71,1225.98 2767.7,1355.68C2756.48,1500.96 2460.04,1602.24 2289.49,1673.53C2287.2,1589.76 2236.83,1527.55 2156.87,1478.6C2206.1,1488.16 2556.81,1457.11 2588.67,1322.54C2600.39,1273.03 2537.55,1212.18 2447.48,1218.4C2391.05,1222.3 2191.1,1307.14 2191.1,1307.14C2193.86,1251.82 2170.44,1211.97 2132.71,1180.57C2132.71,1180.57 2320.14,1038.95 2306.66,947.181C2295.06,868.183 2243.27,853.759 2192.3,870.391C2139.91,887.487 2002.13,1077.1 2002.13,1077.1C1963.33,1040.48 1915.12,1026.5 1864.66,1017.93Z" style="fill:rgb(237,15,103);stroke:black;stroke-width:28.9px;"/>
                        </g>
                        <g transform="matrix(0.967975,0.242148,-0.261596,1.04831,1275.62,-385.987)">
                            <path d="M601.644,1463.14C595.697,1444.81 761.342,1154.99 863.632,1118.9C1097.65,1036.32 1232.72,1154.08 1259.63,1285.1C1312.49,1542.38 1140.02,1773.12 1140.02,1773.12C1271.17,1640.9 1344.32,1634.15 1505.25,1606.01C1515.76,1675.15 1487.14,1741.62 1525.04,1781.3C1288.01,1839.78 1169.35,1943.57 992.563,2095.75C966.258,2009.08 957.988,1926.38 897.224,1872.27C916.202,1879.42 1051.31,1671.57 1084.61,1563.53C1115.01,1464.89 1105.39,1360.37 1033.45,1305.61C1001.22,1281.07 892.881,1320.91 849.57,1381C813.223,1431.43 794.231,1472.62 762.53,1575.46C712.916,1496.33 685.745,1498.16 601.644,1463.14Z" style="fill:rgb(237,15,103);stroke:black;stroke-width:28.71px;"/>
                        </g>
                        <g transform="matrix(1.00616,0.271964,-0.276877,1.02434,122.51,-33.302)">
                            <path d="M1579.6,835.25C1664.65,851.817 1797.55,941.477 1879.61,1065.87C1947.48,1168.77 1955.8,1289.28 1922.91,1453.87C1898.86,1574.28 1774.07,1654.56 1678.4,1674.37C1582.74,1694.19 1461.89,1642.41 1376.94,1557.23C1291.98,1472.05 1213.43,1322.88 1202.29,1207.68C1191.15,1092.48 1229.29,986.093 1301.71,912.945C1374.13,839.798 1494.54,818.684 1579.6,835.25ZM1458.15,1034.77C1415.24,1053.24 1380.65,1140.1 1387.4,1190.29C1398.91,1275.77 1448.8,1358.95 1493.72,1405.72C1538.64,1452.49 1657.09,1513.25 1701.28,1487.37C1831.66,1411.01 1782.55,1232.77 1692.36,1125.12C1629.68,1050.32 1520.5,1007.95 1458.15,1034.77Z" style="fill:rgb(237,15,103);stroke:black;stroke-width:28.39px;"/>
                        </g>
                        <g transform="matrix(0.946467,0.255828,-0.262157,0.969883,161.015,73.0219)">
                            <path d="M601.644,1463.14C595.697,1444.81 789.89,1125.95 892.18,1089.86C1126.2,1007.28 1232.72,1154.08 1259.63,1285.1C1312.49,1542.38 1072.47,1872.89 1072.47,1872.89C1203.63,1740.67 1363.9,1660.33 1524.83,1632.19C1535.34,1701.33 1560.25,1753 1598.14,1792.68C1361.11,1851.16 1165.22,1973.63 988.435,2125.81C962.129,2039.14 915.225,1970.56 854.461,1916.45C873.439,1923.6 1023.44,1633.67 1056.74,1525.63C1087.15,1426.99 1097.51,1338.83 1025.57,1284.06C993.335,1259.52 931.194,1296.05 887.883,1356.14C851.536,1406.57 710.955,1556.24 712.455,1601.46C705.167,1523.2 685.745,1498.16 601.644,1463.14Z" style="fill:rgb(237,15,103);stroke:black;stroke-width:30.08px;"/>
                        </g>
                    </g>
                </g>
            </g>
            <g>
                <g transform="matrix(0.380743,0.0751727,-0.0722184,0.396318,-61.1232,-466.345)">
                    <g>
                        <g transform="matrix(0.810927,-0.0551153,0.0571728,0.841198,411.131,2135.51)">
                            <path d="M2334.99,896.147C2324.17,887.722 2423.41,829.249 2541.5,836C2634.84,841.336 2729.15,918.801 2762.31,992.145C2810.19,1098.06 2773.41,1226.08 2696.56,1264.88C2585.4,1320.99 2401.07,1322.45 2390.73,1292.05L2407.64,1217.84C2454.82,1232.15 2446.56,1234.94 2480.32,1230.35C2468.26,1123.08 2424.61,948.092 2424.61,948.092C2380.29,960.756 2395.81,957.03 2361.28,976.109L2334.99,896.147ZM2517.01,936.489C2540.59,1034.06 2561.78,1135.76 2568.16,1210.67C2568.16,1210.67 2746.57,1176.55 2681.05,1031.34C2642.89,946.773 2517.01,936.489 2517.01,936.489Z" style="stroke:black;stroke-width:14.11px;"/>
                        </g>
                        <g transform="matrix(0.624551,-0.0245218,0.0258116,0.657401,960.078,1826.62)">
                            <path d="M2236.87,1438.61C2210.36,1413.34 2038.62,1459.15 1957.97,1570.18C1845.35,1725.23 1919.74,1911.12 1988.59,1967.07C2122.43,2075.82 2277.93,2019.96 2387.02,1971.89L2326.42,1838.06C2326.42,1838.06 2195.8,1924.03 2098.91,1849.79C2030.58,1797.44 2033.53,1699.76 2068.29,1648.51C2097.94,1604.82 2225.01,1564.31 2274.22,1568.35L2236.87,1438.61Z" style="stroke:black;stroke-width:18.24px;"/>
                        </g>
                        <g transform="matrix(0.782583,-0.144125,0.14206,0.76428,940.549,2489.47)">
                            <path d="M1170.81,1136.83C1140.12,998.689 1158.4,819.948 1192.7,631.059L1288.45,631.059C1286.95,690.004 1301.09,742.312 1343.1,782.798C1355.21,728.293 1381.24,671.113 1431.18,609.345L1518.61,631.059C1450.51,807.942 1484.69,974.898 1537.48,1114.1L1451.26,1109.74C1428.06,1052.22 1377.81,930.035 1412.39,812.973C1385.69,841.651 1363.36,872.544 1361.28,913.684L1306.03,933.971C1280.56,907.482 1269.18,865.283 1263.33,816.922C1236.09,942.045 1234.91,1039.72 1246.96,1125.14L1170.81,1136.83Z" style="stroke:black;stroke-width:14.76px;"/>
                        </g>
                        <g transform="matrix(0.724827,-0.115974,0.106523,0.710213,-510.493,2777.7)">
                            <path d="M3378.12,1104.57C3369.36,1103.95 3212.62,1084.2 3212.62,1084.2C3238.5,1082.49 3169.12,926.841 3112.06,897.295C3110.79,893.438 3109.04,891.442 3106.79,891.767C3106.78,891.769 3108.66,893.745 3112.06,897.295C3120.54,922.969 3108.18,1031.06 3084.79,1085.29C3037.45,1105.94 3002.68,1092.07 2969.51,1080.25C2969.51,1080.25 3010.7,905.718 3011.42,835.985C3012.16,763.975 2998.44,612.696 2985.05,578.02C2994.95,568.116 3078.38,542.8 3130.2,545.11C3205.91,548.484 3316.2,597.086 3333.81,678.759C3366.96,832.536 3212.91,856.458 3212.91,856.458C3281.52,910.284 3426.72,1140.71 3378.12,1104.57ZM3086.47,658.15C3094.45,694.081 3108.95,746.277 3101.2,804.315C3101.2,804.315 3234.76,800.932 3224.84,711.98C3217.81,648.991 3147.18,641.959 3086.47,658.15Z" style="stroke:black;stroke-width:16.1px;"/>
                        </g>
                        <g transform="matrix(0.804403,-0.131734,0.12648,0.772322,437.37,2557.69)">
                            <path d="M1170.81,1136.83C1140.12,998.689 1158.4,819.948 1192.7,631.059L1288.45,631.059C1286.95,690.004 1301.09,742.312 1343.1,782.798C1355.21,728.293 1381.24,671.113 1431.18,609.345L1518.61,631.059C1450.51,807.942 1484.69,974.898 1537.48,1114.1L1451.26,1109.74C1428.06,1052.22 1377.81,930.035 1412.39,812.973C1385.69,841.651 1363.36,872.544 1361.28,913.684L1306.03,933.971C1280.56,907.482 1269.18,865.283 1263.33,816.922C1236.09,942.045 1234.91,1039.72 1246.96,1125.14L1170.81,1136.83Z" style="stroke:black;stroke-width:14.55px;"/>
                        </g>
                    </g>
                </g>
                <g transform="matrix(0.380743,0.0751727,-0.0722184,0.396318,-41.1244,-481.074)">
                    <g>
                        <g transform="matrix(0.810927,-0.0551153,0.0571728,0.841198,411.131,2135.51)">
                            <path d="M2334.99,896.147C2324.17,887.722 2423.41,829.249 2541.5,836C2634.84,841.336 2729.15,918.801 2762.31,992.145C2810.19,1098.06 2773.41,1226.08 2696.56,1264.88C2585.4,1320.99 2401.07,1322.45 2390.73,1292.05L2407.64,1217.84C2454.82,1232.15 2446.56,1234.94 2480.32,1230.35C2468.26,1123.08 2424.61,948.092 2424.61,948.092C2380.29,960.756 2395.81,957.03 2361.28,976.109L2334.99,896.147ZM2517.01,936.489C2540.59,1034.06 2561.78,1135.76 2568.16,1210.67C2568.16,1210.67 2746.57,1176.55 2681.05,1031.34C2642.89,946.773 2517.01,936.489 2517.01,936.489Z" style="fill:rgb(237,15,103);stroke:black;stroke-width:14.11px;"/>
                        </g>
                        <g transform="matrix(0.624551,-0.0245218,0.0258116,0.657401,960.078,1826.62)">
                            <path d="M2236.87,1438.61C2210.36,1413.34 2038.62,1459.15 1957.97,1570.18C1845.35,1725.23 1919.74,1911.12 1988.59,1967.07C2122.43,2075.82 2277.93,2019.96 2387.02,1971.89L2326.42,1838.06C2326.42,1838.06 2195.8,1924.03 2098.91,1849.79C2030.58,1797.44 2033.53,1699.76 2068.29,1648.51C2097.94,1604.82 2225.01,1564.31 2274.22,1568.35L2236.87,1438.61Z" style="fill:rgb(237,15,103);stroke:black;stroke-width:18.24px;"/>
                        </g>
                        <g transform="matrix(0.782583,-0.144125,0.14206,0.76428,940.549,2489.47)">
                            <path d="M1170.81,1136.83C1140.12,998.689 1158.4,819.948 1192.7,631.059L1288.45,631.059C1286.95,690.004 1301.09,742.312 1343.1,782.798C1355.21,728.293 1381.24,671.113 1431.18,609.345L1518.61,631.059C1450.51,807.942 1484.69,974.898 1537.48,1114.1L1451.26,1109.74C1428.06,1052.22 1377.81,930.035 1412.39,812.973C1385.69,841.651 1363.36,872.544 1361.28,913.684L1306.03,933.971C1280.56,907.482 1269.18,865.283 1263.33,816.922C1236.09,942.045 1234.91,1039.72 1246.96,1125.14L1170.81,1136.83Z" style="fill:rgb(237,15,103);stroke:black;stroke-width:14.76px;"/>
                        </g>
                        <g transform="matrix(0.724827,-0.115974,0.106523,0.710213,-510.493,2777.7)">
                            <path d="M3378.12,1104.57C3369.36,1103.95 3212.62,1084.2 3212.62,1084.2C3238.5,1082.49 3169.12,926.841 3112.06,897.295C3110.79,893.438 3109.04,891.442 3106.79,891.767C3106.78,891.769 3108.66,893.745 3112.06,897.295C3120.54,922.969 3108.18,1031.06 3084.79,1085.29C3037.45,1105.94 3002.68,1092.07 2969.51,1080.25C2969.51,1080.25 3010.7,905.718 3011.42,835.985C3012.16,763.975 2998.44,612.696 2985.05,578.02C2994.95,568.116 3078.38,542.8 3130.2,545.11C3205.91,548.484 3316.2,597.086 3333.81,678.759C3366.96,832.536 3212.91,856.458 3212.91,856.458C3281.52,910.284 3426.72,1140.71 3378.12,1104.57ZM3086.47,658.15C3094.45,694.081 3108.95,746.277 3101.2,804.315C3101.2,804.315 3234.76,800.932 3224.84,711.98C3217.81,648.991 3147.18,641.959 3086.47,658.15Z" style="fill:rgb(237,15,103);stroke:black;stroke-width:16.1px;"/>
                        </g>
                        <g transform="matrix(0.804403,-0.131734,0.12648,0.772322,437.37,2557.69)">
                            <path d="M1170.81,1136.83C1140.12,998.689 1158.4,819.948 1192.7,631.059L1288.45,631.059C1286.95,690.004 1301.09,742.312 1343.1,782.798C1355.21,728.293 1381.24,671.113 1431.18,609.345L1518.61,631.059C1450.51,807.942 1484.69,974.898 1537.48,1114.1L1451.26,1109.74C1428.06,1052.22 1377.81,930.035 1412.39,812.973C1385.69,841.651 1363.36,872.544 1361.28,913.684L1306.03,933.971C1280.56,907.482 1269.18,865.283 1263.33,816.922C1236.09,942.045 1234.91,1039.72 1246.96,1125.14L1170.81,1136.83Z" style="fill:rgb(237,15,103);stroke:black;stroke-width:14.55px;"/>
                        </g>
                    </g>
                </g>
            </g>
        </g>
    </g>
</svg>
