<svg xmlns="http://www.w3.org/2000/svg" viewBox="0 0 1920 1080">
  <defs>
    <style>
      .cls-1 {
        fill: #b3c8c8;
        stroke: #e6e6e6;
        stroke-linejoin: round;
        stroke-width: 3px;
      }

      .cls-13, .cls-2 {
        fill: #fff;
      }

      .cls-3 {
        fill: #ea690b;
      }

      .cls-4 {
        fill: #0a0a0a;
      }

      .cls-5 {
        fill: #29abe3;
      }

      .cls-6 {
        fill: #141414;
      }

      .cls-7 {
        fill: #5edba6;
      }

      .cls-8 {
        fill: #f76e17;
      }

      .cls-9 {
        fill: #5edaa5;
      }

      .cls-10 {
        fill: #1a171b;
      }

      .cls-11 {
        fill: #00a5dd;
      }

      .cls-12, .cls-13 {
        isolation: isolate;
      }

      .cls-13 {
        font-size: 37.33px;
        font-family: ModernLEDBoard-7, Modern LED Board-7;
      }

      .cls-14 {
        fill: #e9680f;
      }

      .cls-15 {
        fill: #06a4dd;
      }
    </style>
  </defs>
  <title>ulm-intro</title>
  <g id="Background">
    <g>
      <g>
        <g>
          <polygon id="polygon2229" class="cls-1" points="280 97.5 110 -2.5 110 -197.5 280 -97.5 280 97.5"/>
          <polygon id="polygon2233" class="cls-1" points="-60 97.5 -60 -97.5 110 -197.5 110 -2.5 -60 97.5"/>
        </g>
        <polygon id="polygon2301" class="cls-1" points="110 197.5 -60 97.5 110 -2.5 280 97.5 110 197.5"/>
      </g>
      <g>
        <g>
          <polygon id="polygon2229-2" data-name="polygon2229" class="cls-1" points="620 97.5 450 -2.5 450 -197.5 620 -97.5 620 97.5"/>
          <polygon id="polygon2233-2" data-name="polygon2233" class="cls-1" points="280 97.5 280 -97.5 450 -197.5 450 -2.5 280 97.5"/>
        </g>
        <polygon id="polygon2301-2" data-name="polygon2301" class="cls-1" points="450 197.5 280 97.5 450 -2.5 620 97.5 450 197.5"/>
      </g>
      <g>
        <g>
          <polygon id="polygon2229-3" data-name="polygon2229" class="cls-1" points="960 97.5 790 -2.5 790 -197.5 960 -97.5 960 97.5"/>
          <polygon id="polygon2233-3" data-name="polygon2233" class="cls-1" points="620 97.5 620 -97.5 790 -197.5 790 -2.5 620 97.5"/>
        </g>
        <polygon id="polygon2301-3" data-name="polygon2301" class="cls-1" points="790 197.5 620 97.5 790 -2.5 960 97.5 790 197.5"/>
      </g>
      <g>
        <g>
          <polygon id="polygon2229-4" data-name="polygon2229" class="cls-1" points="1300 97.5 1130 -2.5 1130 -197.5 1300 -97.5 1300 97.5"/>
          <polygon id="polygon2233-4" data-name="polygon2233" class="cls-1" points="960 97.5 960 -97.5 1130 -197.5 1130 -2.5 960 97.5"/>
        </g>
        <polygon id="polygon2301-4" data-name="polygon2301" class="cls-1" points="1130 197.5 960 97.5 1130 -2.5 1300 97.5 1130 197.5"/>
      </g>
      <g>
        <g>
          <polygon id="polygon2229-5" data-name="polygon2229" class="cls-1" points="1640 97.5 1470 -2.5 1470 -197.5 1640 -97.5 1640 97.5"/>
          <polygon id="polygon2233-5" data-name="polygon2233" class="cls-1" points="1300 97.5 1300 -97.5 1470 -197.5 1470 -2.5 1300 97.5"/>
        </g>
        <polygon id="polygon2301-5" data-name="polygon2301" class="cls-1" points="1470 197.5 1300 97.5 1470 -2.5 1640 97.5 1470 197.5"/>
      </g>
      <g>
        <g>
          <polygon id="polygon2229-6" data-name="polygon2229" class="cls-1" points="1980 97.5 1810 -2.5 1810 -197.5 1980 -97.5 1980 97.5"/>
          <polygon id="polygon2233-6" data-name="polygon2233" class="cls-1" points="1640 97.5 1640 -97.5 1810 -197.5 1810 -2.5 1640 97.5"/>
        </g>
        <polygon id="polygon2301-6" data-name="polygon2301" class="cls-1" points="1810 197.5 1640 97.5 1810 -2.5 1980 97.5 1810 197.5"/>
      </g>
    </g>
    <g>
      <g>
        <polygon id="polygon2229-7" data-name="polygon2229" class="cls-1" points="280 687.5 110 587.5 110 392.5 280 492.5 280 687.5"/>
        <polygon id="polygon2233-7" data-name="polygon2233" class="cls-1" points="-60 687.5 -60 492.5 110 392.5 110 587.5 -60 687.5"/>
      </g>
      <polygon id="polygon2301-7" data-name="polygon2301" class="cls-1" points="110 787.5 -60 687.5 110 587.5 280 687.5 110 787.5"/>
    </g>
    <g>
      <g>
        <polygon id="polygon2229-8" data-name="polygon2229" class="cls-1" points="620 687.5 450 587.5 450 392.5 620 492.5 620 687.5"/>
        <polygon id="polygon2233-8" data-name="polygon2233" class="cls-1" points="280 687.5 280 492.5 450 392.5 450 587.5 280 687.5"/>
      </g>
      <polygon id="polygon2301-8" data-name="polygon2301" class="cls-1" points="450 787.5 280 687.5 450 587.5 620 687.5 450 787.5"/>
    </g>
    <g>
      <g>
        <polygon id="polygon2229-9" data-name="polygon2229" class="cls-1" points="960 687.5 790 587.5 790 392.5 960 492.5 960 687.5"/>
        <polygon id="polygon2233-9" data-name="polygon2233" class="cls-1" points="620 687.5 620 492.5 790 392.5 790 587.5 620 687.5"/>
      </g>
      <polygon id="polygon2301-9" data-name="polygon2301" class="cls-1" points="790 787.5 620 687.5 790 587.5 960 687.5 790 787.5"/>
    </g>
    <g>
      <g>
        <polygon id="polygon2229-10" data-name="polygon2229" class="cls-1" points="1300 687.5 1130 587.5 1130 392.5 1300 492.5 1300 687.5"/>
        <polygon id="polygon2233-10" data-name="polygon2233" class="cls-1" points="960 687.5 960 492.5 1130 392.5 1130 587.5 960 687.5"/>
      </g>
      <polygon id="polygon2301-10" data-name="polygon2301" class="cls-1" points="1130 787.5 960 687.5 1130 587.5 1300 687.5 1130 787.5"/>
    </g>
    <g>
      <g>
        <polygon id="polygon2229-11" data-name="polygon2229" class="cls-1" points="1640 687.5 1470 587.5 1470 392.5 1640 492.5 1640 687.5"/>
        <polygon id="polygon2233-11" data-name="polygon2233" class="cls-1" points="1300 687.5 1300 492.5 1470 392.5 1470 587.5 1300 687.5"/>
      </g>
      <polygon id="polygon2301-11" data-name="polygon2301" class="cls-1" points="1470 787.5 1300 687.5 1470 587.5 1640 687.5 1470 787.5"/>
    </g>
    <g>
      <g>
        <polygon id="polygon2229-12" data-name="polygon2229" class="cls-1" points="1980 687.5 1810 587.5 1810 392.5 1980 492.5 1980 687.5"/>
        <polygon id="polygon2233-12" data-name="polygon2233" class="cls-1" points="1640 687.5 1640 492.5 1810 392.5 1810 587.5 1640 687.5"/>
      </g>
      <polygon id="polygon2301-12" data-name="polygon2301" class="cls-1" points="1810 787.5 1640 687.5 1810 587.5 1980 687.5 1810 787.5"/>
    </g>
    <g>
      <g>
        <polygon id="polygon2229-13" data-name="polygon2229" class="cls-1" points="280 1277.5 110 1177.5 110 982.5 280 1082.5 280 1277.5"/>
        <polygon id="polygon2233-13" data-name="polygon2233" class="cls-1" points="-60 1277.5 -60 1082.5 110 982.5 110 1177.5 -60 1277.5"/>
      </g>
      <g>
        <polygon id="polygon2229-14" data-name="polygon2229" class="cls-1" points="620 1277.5 450 1177.5 450 982.5 620 1082.5 620 1277.5"/>
        <polygon id="polygon2233-14" data-name="polygon2233" class="cls-1" points="280 1277.5 280 1082.5 450 982.5 450 1177.5 280 1277.5"/>
      </g>
      <g>
        <polygon id="polygon2229-15" data-name="polygon2229" class="cls-1" points="960 1277.5 790 1177.5 790 982.5 960 1082.5 960 1277.5"/>
        <polygon id="polygon2233-15" data-name="polygon2233" class="cls-1" points="620 1277.5 620 1082.5 790 982.5 790 1177.5 620 1277.5"/>
      </g>
      <g>
        <polygon id="polygon2229-16" data-name="polygon2229" class="cls-1" points="1300 1277.5 1130 1177.5 1130 982.5 1300 1082.5 1300 1277.5"/>
        <polygon id="polygon2233-16" data-name="polygon2233" class="cls-1" points="960 1277.5 960 1082.5 1130 982.5 1130 1177.5 960 1277.5"/>
      </g>
      <g>
        <polygon id="polygon2229-17" data-name="polygon2229" class="cls-1" points="1640 1277.5 1470 1177.5 1470 982.5 1640 1082.5 1640 1277.5"/>
        <polygon id="polygon2233-17" data-name="polygon2233" class="cls-1" points="1300 1277.5 1300 1082.5 1470 982.5 1470 1177.5 1300 1277.5"/>
      </g>
      <g>
        <polygon id="polygon2229-18" data-name="polygon2229" class="cls-1" points="1980 1277.5 1810 1177.5 1810 982.5 1980 1082.5 1980 1277.5"/>
        <polygon id="polygon2233-18" data-name="polygon2233" class="cls-1" points="1640 1277.5 1640 1082.5 1810 982.5 1810 1177.5 1640 1277.5"/>
      </g>
    </g>
    <g>
      <g>
        <polygon id="polygon2229-19" data-name="polygon2229" class="cls-1" points="450 392.5 280 292.5 280 97.5 450 197.5 450 392.5"/>
        <polygon id="polygon2233-19" data-name="polygon2233" class="cls-1" points="110 392.5 110 197.5 280 97.5 280 292.5 110 392.5"/>
      </g>
      <polygon id="polygon2301-13" data-name="polygon2301" class="cls-1" points="280 492.5 110 392.5 280 292.5 450 392.5 280 492.5"/>
    </g>
    <g>
      <g>
        <polygon id="polygon2229-20" data-name="polygon2229" class="cls-1" points="790 392.5 620 292.5 620 97.5 790 197.5 790 392.5"/>
        <polygon id="polygon2233-20" data-name="polygon2233" class="cls-1" points="450 392.5 450 197.5 620 97.5 620 292.5 450 392.5"/>
      </g>
      <polygon id="polygon2301-14" data-name="polygon2301" class="cls-1" points="620 492.5 450 392.5 620 292.5 790 392.5 620 492.5"/>
    </g>
    <g>
      <g>
        <polygon id="polygon2229-21" data-name="polygon2229" class="cls-1" points="1129.99 392.5 960 292.5 960 97.5 1129.99 197.5 1129.99 392.5"/>
        <polygon id="polygon2233-21" data-name="polygon2233" class="cls-1" points="790 392.5 790 197.5 960 97.5 960 292.5 790 392.5"/>
      </g>
      <polygon id="polygon2301-15" data-name="polygon2301" class="cls-1" points="960 492.5 790 392.5 960 292.5 1129.99 392.5 960 492.5"/>
    </g>
    <g>
      <g>
        <polygon id="polygon2229-22" data-name="polygon2229" class="cls-1" points="1469.99 392.5 1299.99 292.5 1299.99 97.5 1469.99 197.5 1469.99 392.5"/>
        <polygon id="polygon2233-22" data-name="polygon2233" class="cls-1" points="1129.99 392.5 1129.99 197.5 1299.99 97.5 1299.99 292.5 1129.99 392.5"/>
      </g>
      <polygon id="polygon2301-16" data-name="polygon2301" class="cls-1" points="1299.99 492.5 1129.99 392.5 1299.99 292.5 1469.99 392.5 1299.99 492.5"/>
    </g>
    <g>
      <g>
        <polygon id="polygon2229-23" data-name="polygon2229" class="cls-1" points="1809.99 392.5 1639.99 292.5 1639.99 97.5 1809.99 197.5 1809.99 392.5"/>
        <polygon id="polygon2233-23" data-name="polygon2233" class="cls-1" points="1469.99 392.5 1469.99 197.5 1639.99 97.5 1639.99 292.5 1469.99 392.5"/>
      </g>
      <polygon id="polygon2301-17" data-name="polygon2301" class="cls-1" points="1639.99 492.5 1469.99 392.5 1639.99 292.5 1809.99 392.5 1639.99 492.5"/>
    </g>
    <g>
      <polygon id="polygon2233-24" data-name="polygon2233" class="cls-1" points="1809.99 392.5 1809.99 197.5 1979.99 97.5 1979.99 292.5 1809.99 392.5"/>
      <polygon id="polygon2301-18" data-name="polygon2301" class="cls-1" points="1979.99 492.5 1809.99 392.5 1979.99 292.5 2149.99 392.5 1979.99 492.5"/>
    </g>
    <g>
      <polygon id="polygon2229-24" data-name="polygon2229" class="cls-1" points="110 392.5 -60 292.5 -60 97.5 110 197.5 110 392.5"/>
      <polygon id="polygon2301-19" data-name="polygon2301" class="cls-1" points="-60 492.5 -230 392.5 -60 292.5 110 392.5 -60 492.5"/>
    </g>
    <g>
      <g>
        <g>
          <polygon id="polygon2229-25" data-name="polygon2229" class="cls-1" points="450 982.5 280 882.5 280 687.5 450 787.5 450 982.5"/>
          <polygon id="polygon2233-25" data-name="polygon2233" class="cls-1" points="110 982.5 110 787.5 280 687.5 280 882.5 110 982.5"/>
        </g>
        <polygon id="polygon2301-20" data-name="polygon2301" class="cls-1" points="280 1082.5 110 982.5 280 882.5 450 982.5 280 1082.5"/>
      </g>
      <g>
        <g>
          <polygon id="polygon2229-26" data-name="polygon2229" class="cls-1" points="790 982.5 620 882.5 620 687.5 790 787.5 790 982.5"/>
          <polygon id="polygon2233-26" data-name="polygon2233" class="cls-1" points="450 982.5 450 787.5 620 687.5 620 882.5 450 982.5"/>
        </g>
        <polygon id="polygon2301-21" data-name="polygon2301" class="cls-1" points="620 1082.5 450 982.5 620 882.5 790 982.5 620 1082.5"/>
      </g>
      <g>
        <g>
          <polygon id="polygon2229-27" data-name="polygon2229" class="cls-1" points="1130 982.5 960 882.5 960 687.5 1130 787.5 1130 982.5"/>
          <polygon id="polygon2233-27" data-name="polygon2233" class="cls-1" points="790 982.5 790 787.5 960 687.5 960 882.5 790 982.5"/>
        </g>
        <polygon id="polygon2301-22" data-name="polygon2301" class="cls-1" points="960 1082.5 790 982.5 960 882.5 1130 982.5 960 1082.5"/>
      </g>
      <g>
        <g>
          <polygon id="polygon2229-28" data-name="polygon2229" class="cls-1" points="1470 982.5 1300 882.5 1300 687.5 1470 787.5 1470 982.5"/>
          <polygon id="polygon2233-28" data-name="polygon2233" class="cls-1" points="1130 982.5 1130 787.5 1300 687.5 1300 882.5 1130 982.5"/>
        </g>
        <polygon id="polygon2301-23" data-name="polygon2301" class="cls-1" points="1300 1082.5 1130 982.5 1300 882.5 1470 982.5 1300 1082.5"/>
      </g>
      <g>
        <g>
          <polygon id="polygon2229-29" data-name="polygon2229" class="cls-1" points="1810 982.5 1640 882.5 1640 687.5 1810 787.5 1810 982.5"/>
          <polygon id="polygon2233-29" data-name="polygon2233" class="cls-1" points="1470 982.5 1470 787.5 1640 687.5 1640 882.5 1470 982.5"/>
        </g>
        <polygon id="polygon2301-24" data-name="polygon2301" class="cls-1" points="1640 1082.5 1470 982.5 1640 882.5 1810 982.5 1640 1082.5"/>
      </g>
      <g>
        <polygon id="polygon2233-30" data-name="polygon2233" class="cls-1" points="1810 982.5 1810 787.5 1980 687.5 1980 882.5 1810 982.5"/>
        <polygon id="polygon2301-25" data-name="polygon2301" class="cls-1" points="1980 1082.5 1810 982.5 1980 882.5 2150 982.5 1980 1082.5"/>
      </g>
      <g>
        <polygon id="polygon2229-30" data-name="polygon2229" class="cls-1" points="110 982.5 -60 882.5 -60 687.5 110 787.5 110 982.5"/>
        <polygon id="polygon2301-26" data-name="polygon2301" class="cls-1" points="-60 1082.5 -230 982.5 -60 882.5 110 982.5 -60 1082.5"/>
      </g>
    </g>
  </g>
  <g id="Alpakas">
    <g>
      <polygon class="cls-2" points="176 878.85 193.33 878.85 193.33 855.48 363.78 855.48 363.78 878.85 386.89 878.85 386.89 902.28 386.89 926.08 386.89 951.89 363.78 951.89 363.78 975.26 340.67 975.26 340.67 998.63 314.64 998.63 291.11 998.63 267.58 998.63 244.06 998.63 222.22 998.63 222.22 975.26 199.11 975.26 199.11 951.89 176 951.89 176 926.08 176 902.28 176 878.85"/>
      <path class="cls-3" d="M176,926.08V878.85h17.33V855.48H363.78v23.37h23.11v73H363.78v23.37H340.67v23.37H222.22V975.26H199.11V951.89H176ZM340.67,762v23.37h-26v23.37H245.33V785.37H222.22V762H176v23.37H150V975.26h26v23.37h23.11V1022H363.78V998.63h23.11V975.26H410V785.37H386.89V762Z"/>
      <rect class="cls-4" x="202" y="900.3" width="20.22" height="25.3"/>
      <polygon class="cls-4" points="314.67 975.26 314.67 948.97 314.67 925.6 291.56 925.6 291.56 948.97 268.44 948.97 268.44 925.6 245.33 925.6 245.33 948.97 245.33 975.26 314.67 975.26"/>
      <rect class="cls-4" x="337.78" y="897.37" width="20.22" height="25.3"/>
    </g>
  </g>
  <g id="Pixel_oben" data-name="Pixel oben">
    <g>
      <polygon class="cls-5" points="1102 40 1102 47 1095 47 1095 54 1088 54 1088 61 1088 68 1088 75 1088 82 1088 89 1088 96 1088 103 1088 110 1088 117 1095 117 1095 124 1102 124 1102 131 1109 131 1109 138 1116 138 1116 145 1123 145 1123 152 1116 152 1116 159 1109 159 1109 166 1102 166 1102 173 1102 180 1102 187 1102 194 1102 201 1102 208 1109 208 1109 201 1109 194 1109 187 1116 187 1116 194 1116 201 1116 208 1123 208 1130 208 1137 208 1144 208 1144 201 1144 194 1144 187 1151 187 1151 194 1151 201 1151 208 1158 208 1158 201 1158 194 1158 187 1158 180 1158 173 1158 166 1151 166 1151 159 1144 159 1144 152 1137 152 1137 145 1144 145 1144 138 1151 138 1151 131 1158 131 1158 124 1165 124 1165 117 1172 117 1172 54 1165 54 1165 47 1158 47 1158 40 1102 40"/>
      <path class="cls-6" d="M1109,99.5h3.5V96H1102v3.5h7Zm7,10.5h3.5v-3.5H1116v-7h-17.5V103h3.5v3.5h3.5V110H1116Zm7,14h3.5v-3.5H1123Zm10.5,0h3.5v-3.5h-3.5Zm7,7h-21v3.5h21Zm14-31.5h3.5V96h-10.5v3.5h7Zm7,3.5V99.5H1144v7h-3.5V110h14v-3.5h3.5V103Z"/>
    </g>
    <g>
      <polygon class="cls-5" points="1612 40 1612 47 1605 47 1605 54 1598 54 1598 61 1591 61 1591 68 1584 68 1584 75 1584 82 1584 89 1584 96 1584 103 1584 110 1584 117 1584 124 1584 131 1584 138 1584 138 1584 145 1584 152 1584 159 1584 166 1584 168 1584 173 1591 173 1591 180 1598 180 1598 187 1605 187 1612 187 1612 194 1612 201 1619 201 1619 208 1626 208 1633 208 1640 208 1647 208 1654 208 1661 208 1661 201 1668 201 1668 194 1668 187 1675 187 1682 187 1682 180 1689 180 1689 173 1696 173 1696 68 1689 68 1689 61 1682 61 1682 54 1675 54 1675 47 1668 47 1668 40 1612 40"/>
      <path class="cls-7" d="M1591,117h7V89h-7v28Zm7,7h7V89h-7v35Zm7,7h7V89h-7v42Zm7,0h7V89h-7v42Zm0,42h7V145h-7v28Zm7-42h7V89h-7v42Zm0,42h7V145h-7v28Zm14-42h7V96h-7v35Zm0,42h7V138h-7V89h-7v84Zm7-42h7V96h-7v35Zm0,42h7V138h-7v35Zm49-56V89h-7v0h-7v0h-7v0h-7v0h-7v0h-7v84h21V145h-14V131h21v-7h7v-7Z"/>
      <polygon class="cls-6" points="1629.5 113.5 1629.5 110 1629.5 106.5 1626 106.5 1622.5 106.5 1622.5 103 1619 103 1615.5 103 1612 103 1608.5 103 1605 103 1601.5 103 1598 103 1598 106.5 1601.5 106.5 1601.5 110 1605 110 1605 113.5 1608.5 113.5 1608.5 117 1612 117 1615.5 117 1619 117 1622.5 117 1626 117 1626 113.5 1629.5 113.5"/>
      <polygon class="cls-6" points="1682 106.5 1682 103 1678.5 103 1675 103 1671.5 103 1668 103 1664.5 103 1661 103 1657.5 103 1657.5 106.5 1654 106.5 1650.5 106.5 1650.5 110 1650.5 113.5 1654 113.5 1654 117 1657.5 117 1661 117 1664.5 117 1668 117 1671.5 117 1671.5 113.5 1675 113.5 1675 110 1678.5 110 1678.5 106.5 1682 106.5"/>
      <polygon class="cls-6" points="1650.5 166 1650.5 162.5 1650.5 159 1647 159 1647 155.5 1643.5 155.5 1640 155.5 1636.5 155.5 1633 155.5 1633 159 1629.5 159 1629.5 162.5 1629.5 166 1633 166 1633 169.5 1636.5 169.5 1640 169.5 1643.5 169.5 1647 169.5 1647 166 1650.5 166"/>
    </g>
    <g>
      <path class="cls-8" d="M1424.5,208h7V159h-7Zm84,0h7V159h-7Zm-49-14h7v7h-7Zm7-7h7v7h-7Zm-28-35v56h14v-7h7v7h21v-7h-7v-7h7v7h7v7h14V152Zm21-126v7h-7v7h-21v7h-7V82h-7v21h7v35h7v7h77v-7h7V103h7V82h-7V47h-7V40h-21V33h-7v7h-21V33h21V26Z"/>
      <path class="cls-6" d="M1452.5,102.87v-3.5h-14v3.5m-3.5-3.5h3.5v-14H1435m3.5-3.5v3.5h14v-3.5m3.5,3.5h-3.5v14h3.5Z"/>
      <path class="cls-6" d="M1501.5,102.87v-3.5h-14v3.5m-3.5-3.5h3.5v-14H1484m3.5-3.5v3.5h14v-3.5m3.5,3.5h-3.5v14h3.5Z"/>
      <path class="cls-6" d="M1445.5,123.87v-3.5H1442v10.5h3.5v-7Zm38.5,7h-7v-10.5h7v10.5Zm-10.5,0h-7v-10.5h7v10.5Zm-10.5,0h-7v-10.5h7v10.5Zm28-10.5h3.5v-3.5h-49v3.5h7v10.5h-7v3.5h49v-3.5h-7v-10.5Zm7,10.5v-10.5h-3.5v10.5Z"/>
      <rect class="cls-2" x="1466.5" y="187" width="7" height="7"/>
      <rect class="cls-2" x="1473.5" y="194" width="7" height="7"/>
      <rect class="cls-2" x="1459.5" y="194" width="7" height="7"/>
      <rect class="cls-2" x="1452.5" y="201" width="7" height="7"/>
      <rect class="cls-2" x="1480.5" y="201" width="7" height="7"/>
      <rect class="cls-2" x="1459.5" y="33" width="7" height="7"/>
      <rect class="cls-2" x="1466.5" y="33" width="7" height="7"/>
      <rect class="cls-2" x="1473.5" y="33" width="7" height="7"/>
    </g>
    <g>
      <rect class="cls-9" x="1272" y="40" width="7" height="7"/>
      <rect class="cls-9" x="1279" y="40" width="7" height="7"/>
      <rect class="cls-9" x="1286" y="40" width="7" height="7"/>
      <rect class="cls-2" x="1293" y="40" width="7" height="7"/>
      <rect class="cls-2" x="1300" y="40" width="7" height="7"/>
      <rect class="cls-9" x="1307" y="40" width="7" height="7"/>
      <rect class="cls-9" x="1314" y="40" width="7" height="7"/>
      <rect class="cls-9" x="1321" y="40" width="7" height="7"/>
      <rect class="cls-9" x="1265" y="47" width="7" height="7"/>
      <rect class="cls-9" x="1272" y="47" width="7" height="7"/>
      <rect class="cls-9" x="1279" y="47" width="7" height="7"/>
      <rect class="cls-9" x="1258" y="54" width="7" height="7"/>
      <rect class="cls-9" x="1265" y="54" width="7" height="7"/>
      <rect class="cls-9" x="1272" y="54" width="7" height="7"/>
      <rect class="cls-9" x="1251" y="61" width="7" height="7"/>
      <rect class="cls-9" x="1258" y="61" width="7" height="7"/>
      <rect class="cls-9" x="1265" y="61" width="7" height="7"/>
      <rect class="cls-9" x="1244" y="68" width="7" height="7"/>
      <rect class="cls-9" x="1251" y="68" width="7" height="7"/>
      <rect class="cls-9" x="1258" y="68" width="7" height="7"/>
      <rect class="cls-9" x="1272" y="68" width="7" height="7"/>
      <rect class="cls-9" x="1279" y="68" width="7" height="7"/>
      <rect class="cls-9" x="1286" y="68" width="7" height="7"/>
      <rect class="cls-9" x="1279" y="61" width="7" height="7"/>
      <rect class="cls-9" x="1286" y="61" width="7" height="7"/>
      <rect class="cls-9" x="1293" y="61" width="7" height="7"/>
      <rect class="cls-9" x="1300" y="61" width="7" height="7"/>
      <rect class="cls-9" x="1307" y="61" width="7" height="7"/>
      <rect class="cls-9" x="1314" y="61" width="7" height="7"/>
      <rect class="cls-9" x="1286" y="54" width="7" height="7"/>
      <rect class="cls-9" x="1293" y="54" width="7" height="7"/>
      <rect class="cls-9" x="1300" y="54" width="7" height="7"/>
      <rect class="cls-9" x="1293" y="47" width="7" height="7"/>
      <rect class="cls-9" x="1300" y="47" width="7" height="7"/>
      <rect class="cls-9" x="1293" y="68" width="7" height="7"/>
      <rect class="cls-9" x="1300" y="68" width="7" height="7"/>
      <rect class="cls-9" x="1307" y="68" width="7" height="7"/>
      <rect class="cls-9" x="1314" y="68" width="7" height="7"/>
      <rect class="cls-9" x="1321" y="68" width="7" height="7"/>
      <rect class="cls-9" x="1237" y="75" width="7" height="7"/>
      <rect class="cls-9" x="1244" y="75" width="7" height="7"/>
      <rect class="cls-9" x="1251" y="75" width="7" height="7"/>
      <rect class="cls-9" x="1230" y="82" width="7" height="7"/>
      <rect class="cls-9" x="1237" y="82" width="7" height="7"/>
      <rect class="cls-9" x="1244" y="82" width="7" height="7"/>
      <rect class="cls-9" x="1230" y="89" width="7" height="7"/>
      <rect class="cls-9" x="1237" y="89" width="7" height="7"/>
      <rect class="cls-9" x="1244" y="89" width="7" height="7"/>
      <rect class="cls-9" x="1230" y="96" width="7" height="7"/>
      <rect class="cls-9" x="1237" y="96" width="7" height="7"/>
      <rect class="cls-9" x="1244" y="96" width="7" height="7"/>
      <rect class="cls-9" x="1230" y="103" width="7" height="7"/>
      <rect class="cls-9" x="1237" y="103" width="7" height="7"/>
      <rect class="cls-9" x="1244" y="103" width="7" height="7"/>
      <rect class="cls-9" x="1230" y="110" width="7" height="7"/>
      <rect class="cls-9" x="1237" y="110" width="7" height="7"/>
      <rect class="cls-9" x="1244" y="110" width="7" height="7"/>
      <rect class="cls-9" x="1237" y="117" width="7" height="7"/>
      <rect class="cls-9" x="1244" y="117" width="7" height="7"/>
      <rect class="cls-9" x="1258" y="75" width="7" height="7"/>
      <rect class="cls-9" x="1265" y="75" width="7" height="7"/>
      <rect class="cls-9" x="1272" y="75" width="7" height="7"/>
      <rect class="cls-9" x="1251" y="82" width="7" height="7"/>
      <rect class="cls-9" x="1258" y="82" width="7" height="7"/>
      <rect class="cls-9" x="1265" y="82" width="7" height="7"/>
      <rect class="cls-9" x="1251" y="89" width="7" height="7"/>
      <rect class="cls-9" x="1258" y="89" width="7" height="7"/>
      <rect class="cls-9" x="1265" y="89" width="7" height="7"/>
      <rect class="cls-9" x="1251" y="96" width="7" height="7"/>
      <rect class="cls-9" x="1258" y="96" width="7" height="7"/>
      <rect class="cls-9" x="1265" y="96" width="7" height="7"/>
      <rect class="cls-9" x="1251" y="103" width="7" height="7"/>
      <rect class="cls-9" x="1258" y="103" width="7" height="7"/>
      <rect class="cls-9" x="1265" y="103" width="7" height="7"/>
      <rect class="cls-9" x="1251" y="110" width="7" height="7"/>
      <rect class="cls-9" x="1258" y="110" width="7" height="7"/>
      <rect class="cls-9" x="1265" y="110" width="7" height="7"/>
      <rect class="cls-9" x="1251" y="117" width="7" height="7"/>
      <rect class="cls-9" x="1258" y="117" width="7" height="7"/>
      <rect class="cls-9" x="1265" y="117" width="7" height="7"/>
      <rect class="cls-9" x="1251" y="124" width="7" height="7"/>
      <rect class="cls-9" x="1258" y="124" width="7" height="7"/>
      <rect class="cls-9" x="1265" y="124" width="7" height="7"/>
      <rect class="cls-9" x="1251" y="131" width="7" height="7"/>
      <rect class="cls-9" x="1258" y="131" width="7" height="7"/>
      <rect class="cls-9" x="1265" y="131" width="7" height="7"/>
      <rect class="cls-9" x="1258" y="138" width="7" height="7"/>
      <rect class="cls-9" x="1265" y="138" width="7" height="7"/>
      <rect class="cls-9" x="1279" y="75" width="7" height="7"/>
      <rect class="cls-9" x="1286" y="75" width="7" height="7"/>
      <rect class="cls-9" x="1293" y="75" width="7" height="7"/>
      <rect class="cls-9" x="1272" y="82" width="7" height="7"/>
      <rect class="cls-9" x="1279" y="82" width="7" height="7"/>
      <rect class="cls-9" x="1286" y="82" width="7" height="7"/>
      <rect class="cls-9" x="1272" y="89" width="7" height="7"/>
      <rect class="cls-9" x="1279" y="89" width="7" height="7"/>
      <rect class="cls-9" x="1286" y="89" width="7" height="7"/>
      <rect class="cls-9" x="1272" y="96" width="7" height="7"/>
      <rect class="cls-9" x="1279" y="96" width="7" height="7"/>
      <rect class="cls-9" x="1286" y="96" width="7" height="7"/>
      <rect class="cls-9" x="1272" y="103" width="7" height="7"/>
      <rect class="cls-9" x="1279" y="103" width="7" height="7"/>
      <rect class="cls-9" x="1286" y="103" width="7" height="7"/>
      <rect class="cls-9" x="1272" y="110" width="7" height="7"/>
      <rect class="cls-9" x="1279" y="110" width="7" height="7"/>
      <rect class="cls-9" x="1286" y="110" width="7" height="7"/>
      <rect class="cls-9" x="1272" y="117" width="7" height="7"/>
      <rect class="cls-9" x="1279" y="117" width="7" height="7"/>
      <rect class="cls-9" x="1286" y="117" width="7" height="7"/>
      <rect class="cls-9" x="1272" y="124" width="7" height="7"/>
      <rect class="cls-9" x="1279" y="124" width="7" height="7"/>
      <rect class="cls-9" x="1286" y="124" width="7" height="7"/>
      <rect class="cls-9" x="1272" y="131" width="7" height="7"/>
      <rect class="cls-9" x="1279" y="131" width="7" height="7"/>
      <rect class="cls-9" x="1286" y="131" width="7" height="7"/>
      <rect class="cls-9" x="1272" y="138" width="7" height="7"/>
      <rect class="cls-9" x="1279" y="138" width="7" height="7"/>
      <rect class="cls-9" x="1286" y="138" width="7" height="7"/>
      <rect class="cls-9" x="1272" y="145" width="7" height="7"/>
      <rect class="cls-9" x="1279" y="145" width="7" height="7"/>
      <rect class="cls-9" x="1286" y="145" width="7" height="7"/>
      <rect class="cls-9" x="1272" y="152" width="7" height="7"/>
      <rect class="cls-9" x="1286" y="152" width="7" height="7"/>
      <rect class="cls-9" x="1279" y="159" width="7" height="7"/>
      <rect class="cls-9" x="1272" y="166" width="7" height="7"/>
      <rect class="cls-9" x="1286" y="166" width="7" height="7"/>
      <rect class="cls-9" x="1279" y="173" width="7" height="7"/>
      <rect class="cls-9" x="1272" y="180" width="7" height="7"/>
      <rect class="cls-9" x="1279" y="187" width="7" height="7"/>
      <rect class="cls-9" x="1265" y="187" width="7" height="7"/>
      <rect class="cls-9" x="1286" y="180" width="7" height="7"/>
      <rect class="cls-9" x="1293" y="187" width="7" height="7"/>
      <rect class="cls-9" x="1300" y="187" width="7" height="7"/>
      <rect class="cls-9" x="1307" y="180" width="7" height="7"/>
      <rect class="cls-9" x="1314" y="187" width="7" height="7"/>
      <rect class="cls-9" x="1321" y="180" width="7" height="7"/>
      <rect class="cls-9" x="1328" y="187" width="7" height="7"/>
      <rect class="cls-9" x="1321" y="194" width="7" height="7"/>
      <rect class="cls-9" x="1307" y="194" width="7" height="7"/>
      <rect class="cls-9" x="1286" y="194" width="7" height="7"/>
      <rect class="cls-9" x="1272" y="194" width="7" height="7"/>
      <rect class="cls-9" x="1265" y="201" width="7" height="7"/>
      <rect class="cls-9" x="1279" y="201" width="7" height="7"/>
      <rect class="cls-9" x="1293" y="201" width="7" height="7"/>
      <rect class="cls-9" x="1300" y="201" width="7" height="7"/>
      <rect class="cls-9" x="1314" y="201" width="7" height="7"/>
      <rect class="cls-9" x="1328" y="201" width="7" height="7"/>
      <rect class="cls-9" x="1335" y="194" width="7" height="7"/>
      <rect class="cls-9" x="1258" y="194" width="7" height="7"/>
      <rect class="cls-9" x="1251" y="187" width="7" height="7"/>
      <rect class="cls-9" x="1244" y="180" width="7" height="7"/>
      <rect class="cls-9" x="1237" y="173" width="7" height="7"/>
      <rect class="cls-9" x="1342" y="187" width="7" height="7"/>
      <rect class="cls-9" x="1349" y="180" width="7" height="7"/>
      <rect class="cls-9" x="1356" y="173" width="7" height="7"/>
      <rect class="cls-9" x="1307" y="166" width="7" height="7"/>
      <rect class="cls-9" x="1321" y="166" width="7" height="7"/>
      <rect class="cls-9" x="1314" y="173" width="7" height="7"/>
      <rect class="cls-9" x="1300" y="75" width="7" height="7"/>
      <rect class="cls-9" x="1307" y="75" width="7" height="7"/>
      <rect class="cls-9" x="1314" y="75" width="7" height="7"/>
      <rect class="cls-9" x="1293" y="82" width="7" height="7"/>
      <rect class="cls-9" x="1300" y="82" width="7" height="7"/>
      <rect class="cls-9" x="1307" y="82" width="7" height="7"/>
      <rect class="cls-9" x="1293" y="89" width="7" height="7"/>
      <rect class="cls-9" x="1300" y="89" width="7" height="7"/>
      <rect class="cls-9" x="1307" y="89" width="7" height="7"/>
      <rect class="cls-9" x="1293" y="96" width="7" height="7"/>
      <rect class="cls-9" x="1300" y="96" width="7" height="7"/>
      <rect class="cls-9" x="1307" y="96" width="7" height="7"/>
      <rect class="cls-9" x="1293" y="103" width="7" height="7"/>
      <rect class="cls-9" x="1300" y="103" width="7" height="7"/>
      <rect class="cls-9" x="1307" y="103" width="7" height="7"/>
      <rect class="cls-9" x="1293" y="110" width="7" height="7"/>
      <rect class="cls-9" x="1300" y="110" width="7" height="7"/>
      <rect class="cls-9" x="1307" y="110" width="7" height="7"/>
      <rect class="cls-9" x="1293" y="117" width="7" height="7"/>
      <rect class="cls-9" x="1300" y="117" width="7" height="7"/>
      <rect class="cls-9" x="1307" y="117" width="7" height="7"/>
      <rect class="cls-9" x="1293" y="124" width="7" height="7"/>
      <rect class="cls-9" x="1300" y="124" width="7" height="7"/>
      <rect class="cls-9" x="1307" y="124" width="7" height="7"/>
      <rect class="cls-9" x="1293" y="131" width="7" height="7"/>
      <rect class="cls-9" x="1300" y="131" width="7" height="7"/>
      <rect class="cls-9" x="1307" y="131" width="7" height="7"/>
      <rect class="cls-9" x="1293" y="138" width="7" height="7"/>
      <rect class="cls-9" x="1300" y="138" width="7" height="7"/>
      <rect class="cls-9" x="1307" y="138" width="7" height="7"/>
      <rect class="cls-9" x="1293" y="145" width="7" height="7"/>
      <rect class="cls-9" x="1300" y="145" width="7" height="7"/>
      <rect class="cls-9" x="1307" y="145" width="7" height="7"/>
      <rect class="cls-9" x="1293" y="152" width="7" height="7"/>
      <rect class="cls-9" x="1300" y="152" width="7" height="7"/>
      <rect class="cls-9" x="1307" y="152" width="7" height="7"/>
      <rect class="cls-9" x="1293" y="159" width="7" height="7"/>
      <rect class="cls-9" x="1300" y="159" width="7" height="7"/>
      <rect class="cls-9" x="1314" y="159" width="7" height="7"/>
      <rect class="cls-9" x="1321" y="75" width="7" height="7"/>
      <rect class="cls-9" x="1328" y="75" width="7" height="7"/>
      <rect class="cls-9" x="1335" y="75" width="7" height="7"/>
      <rect class="cls-9" x="1314" y="82" width="7" height="7"/>
      <rect class="cls-9" x="1321" y="82" width="7" height="7"/>
      <rect class="cls-9" x="1328" y="82" width="7" height="7"/>
      <rect class="cls-9" x="1314" y="89" width="7" height="7"/>
      <rect class="cls-9" x="1321" y="89" width="7" height="7"/>
      <rect class="cls-9" x="1328" y="89" width="7" height="7"/>
      <rect class="cls-9" x="1314" y="96" width="7" height="7"/>
      <rect class="cls-9" x="1321" y="96" width="7" height="7"/>
      <rect class="cls-9" x="1328" y="96" width="7" height="7"/>
      <rect class="cls-9" x="1314" y="103" width="7" height="7"/>
      <rect class="cls-9" x="1321" y="103" width="7" height="7"/>
      <rect class="cls-9" x="1328" y="103" width="7" height="7"/>
      <rect class="cls-9" x="1314" y="110" width="7" height="7"/>
      <rect class="cls-9" x="1321" y="110" width="7" height="7"/>
      <rect class="cls-9" x="1328" y="110" width="7" height="7"/>
      <rect class="cls-9" x="1314" y="117" width="7" height="7"/>
      <rect class="cls-9" x="1321" y="117" width="7" height="7"/>
      <rect class="cls-9" x="1328" y="117" width="7" height="7"/>
      <rect class="cls-9" x="1314" y="124" width="7" height="7"/>
      <rect class="cls-9" x="1321" y="124" width="7" height="7"/>
      <rect class="cls-9" x="1328" y="124" width="7" height="7"/>
      <rect class="cls-9" x="1314" y="131" width="7" height="7"/>
      <rect class="cls-9" x="1321" y="131" width="7" height="7"/>
      <rect class="cls-9" x="1328" y="131" width="7" height="7"/>
      <rect class="cls-9" x="1314" y="138" width="7" height="7"/>
      <rect class="cls-9" x="1321" y="138" width="7" height="7"/>
      <rect class="cls-9" x="1328" y="138" width="7" height="7"/>
      <rect class="cls-9" x="1314" y="145" width="7" height="7"/>
      <rect class="cls-9" x="1321" y="145" width="7" height="7"/>
      <rect class="cls-9" x="1321" y="152" width="7" height="7"/>
      <rect class="cls-9" x="1342" y="75" width="7" height="7"/>
      <rect class="cls-9" x="1349" y="75" width="7" height="7"/>
      <rect class="cls-9" x="1356" y="75" width="7" height="7"/>
      <rect class="cls-9" x="1335" y="82" width="7" height="7"/>
      <rect class="cls-9" x="1342" y="82" width="7" height="7"/>
      <rect class="cls-9" x="1349" y="82" width="7" height="7"/>
      <rect class="cls-9" x="1335" y="89" width="7" height="7"/>
      <rect class="cls-9" x="1342" y="89" width="7" height="7"/>
      <rect class="cls-9" x="1349" y="89" width="7" height="7"/>
      <rect class="cls-9" x="1335" y="96" width="7" height="7"/>
      <rect class="cls-9" x="1342" y="96" width="7" height="7"/>
      <rect class="cls-9" x="1349" y="96" width="7" height="7"/>
      <rect class="cls-9" x="1335" y="103" width="7" height="7"/>
      <rect class="cls-9" x="1342" y="103" width="7" height="7"/>
      <rect class="cls-9" x="1349" y="103" width="7" height="7"/>
      <rect class="cls-9" x="1335" y="110" width="7" height="7"/>
      <rect class="cls-9" x="1342" y="110" width="7" height="7"/>
      <rect class="cls-9" x="1349" y="110" width="7" height="7"/>
      <rect class="cls-9" x="1335" y="117" width="7" height="7"/>
      <rect class="cls-9" x="1342" y="117" width="7" height="7"/>
      <rect class="cls-9" x="1349" y="117" width="7" height="7"/>
      <rect class="cls-9" x="1335" y="124" width="7" height="7"/>
      <rect class="cls-9" x="1342" y="124" width="7" height="7"/>
      <rect class="cls-9" x="1335" y="131" width="7" height="7"/>
      <rect class="cls-9" x="1342" y="131" width="7" height="7"/>
      <rect class="cls-9" x="1335" y="138" width="7" height="7"/>
      <rect class="cls-9" x="1356" y="82" width="7" height="7"/>
      <rect class="cls-9" x="1363" y="82" width="7" height="7"/>
      <rect class="cls-9" x="1356" y="89" width="7" height="7"/>
      <rect class="cls-9" x="1363" y="89" width="7" height="7"/>
      <rect class="cls-9" x="1356" y="96" width="7" height="7"/>
      <rect class="cls-9" x="1363" y="96" width="7" height="7"/>
      <rect class="cls-9" x="1356" y="103" width="7" height="7"/>
      <rect class="cls-9" x="1363" y="103" width="7" height="7"/>
      <rect class="cls-9" x="1356" y="110" width="7" height="7"/>
      <rect class="cls-9" x="1363" y="110" width="7" height="7"/>
      <rect class="cls-9" x="1356" y="117" width="7" height="7"/>
      <rect class="cls-9" x="1335" y="68" width="7" height="7"/>
      <rect class="cls-9" x="1342" y="68" width="7" height="7"/>
      <rect class="cls-9" x="1349" y="68" width="7" height="7"/>
      <rect class="cls-9" x="1328" y="61" width="7" height="7"/>
      <rect class="cls-9" x="1335" y="61" width="7" height="7"/>
      <rect class="cls-9" x="1342" y="61" width="7" height="7"/>
      <rect class="cls-9" x="1321" y="54" width="7" height="7"/>
      <rect class="cls-9" x="1328" y="54" width="7" height="7"/>
      <rect class="cls-9" x="1335" y="54" width="7" height="7"/>
      <rect class="cls-9" x="1314" y="47" width="7" height="7"/>
      <rect class="cls-9" x="1321" y="47" width="7" height="7"/>
      <rect class="cls-9" x="1328" y="47" width="7" height="7"/>
      <rect class="cls-9" x="1307" y="54" width="7" height="7"/>
      <rect class="cls-9" x="1293" y="173" width="7" height="7"/>
      <rect class="cls-9" x="1300" y="173" width="7" height="7"/>
      <rect class="cls-10" x="1314" y="103" width="7" height="7"/>
      <rect class="cls-10" x="1314" y="110" width="7" height="7"/>
      <rect class="cls-10" x="1265" y="103" width="7" height="7"/>
      <rect class="cls-10" x="1265" y="110" width="7" height="7"/>
      <rect class="cls-10" x="1310.5" y="108.25" width="3.5" height="3.5"/>
      <rect class="cls-10" x="1261.5" y="108.25" width="3.5" height="3.5"/>
      <rect class="cls-10" x="1310.5" y="92.5" width="3.5" height="3.5"/>
      <rect class="cls-10" x="1261.5" y="92.5" width="3.5" height="3.5"/>
      <rect class="cls-10" x="1314" y="89" width="21" height="3.5"/>
      <rect class="cls-10" x="1265" y="89" width="21" height="3.5"/>
      <rect class="cls-10" x="1335" y="108.25" width="3.5" height="3.5"/>
      <rect class="cls-10" x="1286" y="108.25" width="3.5" height="3.5"/>
      <rect class="cls-10" x="1335" y="92.5" width="3.5" height="3.5"/>
      <rect class="cls-10" x="1286" y="92.5" width="3.5" height="3.5"/>
      <rect class="cls-10" x="1321" y="103" width="7" height="7"/>
      <rect class="cls-10" x="1272" y="103" width="7" height="7"/>
      <rect class="cls-10" x="1321" y="110" width="7" height="7"/>
      <rect class="cls-10" x="1272" y="110" width="7" height="7"/>
      <rect class="cls-10" x="1328" y="103" width="7" height="7"/>
      <rect class="cls-10" x="1279" y="103" width="7" height="7"/>
      <rect class="cls-10" x="1328" y="110" width="7" height="7"/>
      <rect class="cls-10" x="1279" y="110" width="7" height="7"/>
      <rect class="cls-2" x="1293" y="131" width="7" height="7"/>
      <rect class="cls-2" x="1300" y="131" width="7" height="7"/>
      <rect class="cls-2" x="1286" y="46.87" width="7" height="7"/>
      <rect class="cls-2" x="1307" y="47" width="7" height="7"/>
      <rect class="cls-2" x="1279" y="53.87" width="7" height="7"/>
      <rect class="cls-2" x="1272" y="60.87" width="7" height="7"/>
      <rect class="cls-2" x="1265" y="67.87" width="7" height="7"/>
      <rect class="cls-2" x="1314" y="54" width="7" height="7"/>
      <rect class="cls-2" x="1321" y="61" width="7" height="7"/>
      <rect class="cls-2" x="1328" y="68" width="7" height="7"/>
      <rect class="cls-2" x="1314" y="152" width="7" height="7"/>
      <rect class="cls-2" x="1314" y="166" width="7" height="7"/>
      <rect class="cls-2" x="1293" y="166" width="7" height="7"/>
      <rect class="cls-2" x="1293" y="180" width="7" height="7"/>
      <rect class="cls-2" x="1293" y="194" width="7" height="7"/>
      <rect class="cls-2" x="1300" y="166" width="7" height="7"/>
      <rect class="cls-2" x="1300" y="180" width="7" height="7"/>
      <rect class="cls-2" x="1300" y="194" width="7" height="7"/>
      <rect class="cls-2" x="1314" y="180" width="7" height="7"/>
      <rect class="cls-2" x="1314" y="194" width="7" height="7"/>
      <rect class="cls-2" x="1279" y="152" width="7" height="7"/>
      <rect class="cls-2" x="1279" y="166" width="7" height="7"/>
      <rect class="cls-2" x="1279" y="180" width="7" height="7"/>
      <rect class="cls-2" x="1279" y="194" width="7" height="7"/>
      <rect class="cls-2" x="1307" y="159" width="7" height="7"/>
      <rect class="cls-2" x="1307" y="173" width="7" height="7"/>
      <rect class="cls-2" x="1307" y="187" width="7" height="7"/>
      <rect class="cls-2" x="1307" y="201" width="7" height="7"/>
      <rect class="cls-2" x="1321" y="201" width="7" height="7"/>
      <rect class="cls-2" x="1321" y="187" width="7" height="7"/>
      <rect class="cls-2" x="1321" y="173" width="7" height="7"/>
      <rect class="cls-2" x="1321" y="159" width="7" height="7"/>
      <rect class="cls-2" x="1286" y="159" width="7" height="7"/>
      <rect class="cls-2" x="1286" y="173" width="7" height="7"/>
      <rect class="cls-2" x="1286" y="187" width="7" height="7"/>
      <rect class="cls-2" x="1286" y="201" width="7" height="7"/>
      <rect class="cls-2" x="1272" y="201" width="7" height="7"/>
      <rect class="cls-2" x="1272" y="187" width="7" height="7"/>
      <rect class="cls-2" x="1272" y="173" width="7" height="7"/>
      <rect class="cls-2" x="1272" y="159" width="7" height="7"/>
      <rect class="cls-2" x="1265" y="194" width="7" height="7"/>
      <rect class="cls-2" x="1328" y="194" width="7" height="7"/>
    </g>
    <g>
      <polygon class="cls-7" points="1860.31 110 1860.31 105.62 1860.31 101.25 1860.31 96.87 1855.94 96.87 1851.56 96.87 1847.19 96.87 1842.81 96.87 1838.44 96.87 1834.06 96.87 1829.69 96.87 1825.31 96.87 1820.94 96.87 1816.56 96.87 1812.19 96.87 1807.81 96.87 1803.44 96.87 1799.06 96.87 1794.69 96.87 1790.31 96.87 1785.94 96.87 1781.56 96.87 1777.19 96.87 1772.81 96.87 1768.44 96.87 1768.44 101.25 1768.44 105.62 1768.44 110 1764.06 110 1764.06 114.37 1764.06 118.75 1764.06 123.12 1764.06 127.5 1768.44 127.5 1772.81 127.5 1777.19 127.5 1781.56 127.5 1785.94 127.5 1790.31 127.5 1794.69 127.5 1799.06 127.5 1803.44 127.5 1807.81 127.5 1812.19 127.5 1816.56 127.5 1820.94 127.5 1825.31 127.5 1829.69 127.5 1834.06 127.5 1838.44 127.5 1842.81 127.5 1847.19 127.5 1847.19 123.12 1847.19 118.75 1851.56 118.75 1851.56 123.12 1851.56 127.5 1855.94 127.5 1855.94 123.12 1855.94 118.75 1855.94 114.37 1855.94 110 1860.31 110"/>
      <polygon class="cls-5" points="1855.94 92.5 1855.94 88.12 1855.94 83.75 1855.94 79.37 1855.94 75 1855.94 70.62 1855.94 66.25 1855.94 61.87 1855.94 57.5 1855.94 53.12 1855.94 48.75 1855.94 44.37 1851.56 44.37 1847.19 44.37 1842.81 44.37 1838.44 44.37 1834.06 44.37 1829.69 44.37 1825.31 44.37 1820.94 44.37 1816.56 44.37 1812.19 44.37 1807.81 44.37 1803.44 44.37 1799.06 44.37 1794.69 44.37 1790.31 44.37 1785.94 44.37 1781.56 44.37 1777.19 44.37 1772.81 44.37 1772.81 48.75 1772.81 53.12 1772.81 57.5 1772.81 61.87 1772.81 66.25 1772.81 70.62 1772.81 75 1772.81 79.37 1772.81 83.75 1772.81 88.12 1772.81 92.5 1777.19 92.5 1781.56 92.5 1785.94 92.5 1790.31 92.5 1794.69 92.5 1799.06 92.5 1803.44 92.5 1807.81 92.5 1812.19 92.5 1816.56 92.5 1820.94 92.5 1825.31 92.5 1829.69 92.5 1834.06 92.5 1838.44 92.5 1842.81 92.5 1847.19 92.5 1851.56 92.5 1855.94 92.5"/>
      <path class="cls-6" d="M1746.56,223.81h4.38v-4.37h-4.38Zm-4.37-4.44h4.37V215h-4.37Zm61.25-43.68v8.75h-4.38v8.75h-4.37v8.75h-4.38v4.37h-8.75v4.38h-4.37v4.37h-4.38v8.75h-4.37v4.38h-13.13v-4.32h-4.37v4.38h4.37v4.31h13.13v-4.37h4.37v-4.38h4.38v-8.75h4.37v-4.37h8.75v-4.38h4.38v-4.37h4.37v-8.75h4.38v-8.75h4.37v-8.75Zm-4.38,0h4.38v-4.38h-4.38Zm-8.75-21.88v30.63h4.38v-4.38h4.37v-4.37h-4.37V153.81Zm-4.37-8.75v4.38h-4.38v4.37h-21.87v4.38h-4.38v17.5h-4.37v26.18h-4.38v4.38h-4.37v4.37h-4.38V215h4.38v-4.38h4.37v-4.37h4.38v-4.31h4.37V175.69h4.38v-17.5h4.37v17.5h4.38v-17.5h4.37v17.5h4.38v-17.5h4.37v17.5h4.38V149.44h4.37v-4.38Zm8.75-.06v8.75h4.37V145Zm-4.38,0h4.38v-4.38h-4.38Z"/>
      <path class="cls-6" d="M1842.81,180v26.25h30.63V184.38h-4.38v17.49h-21.87V180Zm-4.37-8.75V180h4.37v-8.75Zm-4.38-8.75v8.75h4.38V162.5Zm-4.37-8.75v8.75h4.37v-8.75Zm4.37,0h4.38v-4.38h-4.38Zm43.75-17.5v30.62h-4.37v17.51h4.37V166.87h4.38V136.25Zm-35-17.5v8.75h-78.75v4.37h78.75v21.88h-4.37v4.37h4.37v4.38h4.38V118.75Zm17.5,0v35h4.38v-35Zm8.75,0v35h4.38v-17.5h4.37v-4.38h-4.37V118.75Zm-100.62,0h4.37v-4.38h-4.37Zm8.75,0h4.37v-4.38h-4.37Zm61.25-4.38h-52.5v4.38h56.87v-4.38Zm8.75,4.38h4.37v-4.38h-4.37Zm17.5,0h4.37v-4.38h-4.37Zm-8.75-8.75v8.75h-4.38v35h4.38v-35h4.37V110Zm-83.13,0h4.38v-4.37h-4.38Zm8.75,0h4.38v-4.37h-4.38Zm8.75,0h4.38v-4.37h-4.38Zm8.75,0h4.38v-4.37h-4.38Zm8.75,0h4.38v-4.37h-4.38Zm8.75,0h4.38v-4.37h-4.38Zm8.75,0h4.38v-4.37h-4.38Zm8.75,0h4.38v-4.37h-4.38Zm8.75,0h4.38v-4.37h-4.38Zm8.75,0h4.38v-4.37h-4.38Zm8.75-13.13V110h4.38V96.87Zm-4.37-52.5V92.5h-83.13V44.37h-4.37v52.5h-4.38V110h-4.37v17.5h4.37V110h4.38V96.87h91.87V44.37ZM1772.81,40v4.37h83.13V40Z"/>
      <polygon class="cls-2" points="1803.44 184.37 1803.44 175.62 1799.06 175.62 1799.06 180 1794.69 180 1794.69 184.37 1790.31 184.37 1790.31 153.75 1794.69 153.75 1794.69 145 1790.31 145 1790.31 149.37 1785.94 149.37 1785.94 175.62 1781.56 175.62 1781.56 158.12 1777.19 158.12 1777.19 175.62 1772.81 175.62 1772.81 158.12 1768.44 158.12 1768.44 175.62 1764.06 175.62 1764.06 158.12 1759.69 158.12 1759.69 175.62 1755.31 175.62 1755.31 201.87 1750.94 201.87 1750.94 206.25 1746.56 206.25 1746.56 210.62 1742.19 210.62 1742.19 215 1746.56 215 1746.56 219.37 1750.94 219.37 1750.94 223.75 1755.31 223.75 1755.31 228.12 1768.44 228.12 1768.44 223.75 1772.81 223.75 1772.81 215 1777.19 215 1777.19 210.62 1781.56 210.62 1781.56 206.25 1785.94 206.25 1790.31 206.25 1790.31 201.87 1794.69 201.87 1794.69 193.12 1799.06 193.12 1799.06 184.37 1803.44 184.37"/>
      <path class="cls-2" d="M1834.06,162.5h4.38v-8.75h-4.38Zm43.75,4.37V136.25h-4.37v17.5h-4.38v-35h-4.37v35h-4.38v-35h-4.37v35h-4.38v-35h-4.37V162.5h-4.38v-4.38h-4.37v13.13h4.37V180h4.38v21.87h21.87v-17.5h4.38v-17.5Z"/>
    </g>
  </g>
  <g id="Logo_Titel" data-name="Logo Titel">
    <g>
      <polygon id="text-bg" class="cls-11" points="1798.2 843.3 575 843.3 575 1040 1875 1040 1875 892.5 1875 843.3 1875 766.8 1798.2 843.3"/>
      <g id="projectname" class="cls-12">
        <text class="cls-13" transform="translate(600 927.87)">$RROJECTNAME</text>
      </g>
    </g>
    <g>
      <polygon class="cls-14" points="45 118.12 45 202.68 73.59 171.3 173.27 171.16 222.07 118.01 45 118.12"/>
      <g>
        <path class="cls-2" d="M90.06,132.54h5.16v18.62c0,2.13,2.13,3.43,3.86,3.43a3.55,3.55,0,0,0,3.68-3.28V132.54h5.16v19.34c0,4.62-4.25,7.87-8.84,7.87s-9-3.25-9-7.87Z"/>
        <path class="cls-2" d="M126.23,154.41v5.16H112v-27.1h5.16V154a.38.38,0,0,0,.43.43Z"/>
        <path class="cls-2" d="M150.63,132.5h6.89v27.07h-5.09V141.78c0-.11-.11-.15-6.75,17.79h-3.93l-6.39-17.94v17.94h-5.31V132.5h6.79l6.89,18.92Z"/>
      </g>
      <polygon class="cls-15" points="45 45 45 149.06 74.07 120.76 545 120.76 545 101.59 545 45 45 45"/>
      <path class="cls-2" d="M515.83,66.21h4.74V61.44h-4.74Zm-6.31,0h4.74V61.44h-4.74Zm-6.31,0h4.73V61.44h-4.73Zm-6.32,0h4.74V61.44h-4.74Zm-6.32,0h4.74V61.44h-4.74Zm-12.63,0h4.74V61.44h-4.74Zm-25.26,0h4.73V61.44h-4.73Zm-18.95,0h4.74V61.44h-4.74Zm-6.31,0h4.73V61.44h-4.73Zm-6.33,0h4.74V61.44h-4.74Zm-31.57,0h4.73V61.44h-4.73Zm-25.27,0H369V61.44h-4.74Zm-25.26,0h4.73V61.44H339Zm-56.84,0h4.74V61.44h-4.74Zm-6.32,0h4.74V61.44h-4.74Zm-6.32,0h4.74V61.44h-4.74Zm-6.31,0h4.73V61.44H263.2Zm-12.63,0h4.74V61.44h-4.74Zm-25.27,0H230V61.44H225.3Zm-12.63,0h4.74V61.44h-4.74Zm-6.31,0h4.73V61.44h-4.73Zm-6.32,0h4.74V61.44H200Zm-6.32,0h4.74V61.44h-4.74Zm-25.26,0h4.74V61.44h-4.74Zm-6.32,0h4.74V61.44h-4.74Zm-6.31,0h4.74V61.44h-4.74Zm-19,0h4.74V61.44h-4.74Zm-25.26,0h4.73V61.44h-4.73Zm-19,0h4.74V61.44H92.67Zm-6.32,0h4.74V61.44H86.35Zm-6.31,0h4.74V61.44H80Zm-6.32,0h4.74V61.44H73.72ZM395.84,67.8h4.73V63h-4.73Zm-12.64,0h4.74V63H383.2ZM440,69.38h4.74V64.62H440Zm-25.26,0h4.74V64.62h-4.74Zm-126.32,0h4.74V64.62h-4.74Zm-101,0h4.73V64.62h-4.73Zm-12.63,0h4.73V64.62h-4.73Zm-25.27,0h4.74V64.62h-4.74ZM99,69.38h4.74V64.62H99Zm404.23,3.18h4.73V67.8h-4.73Zm-31.58,0h4.73V67.8h-4.73Zm-18.95,0h4.73V67.8h-4.73Zm-50.53,0h4.74V67.8h-4.74Zm-25.27,0h4.74V67.8h-4.74Zm-12.63,0H369V67.8h-4.74Zm-25.26,0h4.73V67.8H339Zm-75.79,0h4.73V67.8H263.2Zm-12.63,0h4.74V67.8h-4.74Zm-25.27,0H230V67.8H225.3Zm-88.42,0h4.74V67.8h-4.74Zm-25.26,0h4.73V67.8h-4.73Zm-37.9,0h4.74V67.8H73.72Zm341.06,3.18h4.74V71h-4.74Zm-126.32,0h4.74V71h-4.74Zm-101,0h4.73V71h-4.73Zm-37.9,0h4.74V71h-4.74ZM99,75.74h4.74V71H99Zm404.23,3.18h4.73V74.15h-4.73Zm-37.9,0h4.74V74.15h-4.74Zm-12.63,0h4.73V74.15h-4.73Zm-50.53,0h4.74V74.15h-4.74Zm-25.27,0h4.74V74.15h-4.74Zm-12.63,0H369V74.15h-4.74Zm-25.26,0h4.73V74.15H339Zm-75.79,0h4.73V74.15H263.2Zm-12.63,0h4.74V74.15h-4.74Zm-18.95,0h4.74V74.15h-4.74Zm-6.32,0H230V74.15H225.3Zm-88.42,0h4.74V74.15h-4.74Zm-25.26,0h4.73V74.15h-4.73ZM414.78,82.1h4.74V77.33h-4.74Zm-126.32,0h4.74V77.33h-4.74Zm-101,0h4.73V77.33h-4.73Zm-37.9,0h4.74V77.33h-4.74ZM99,82.1h4.74V77.33H99Zm404.23,3.18h4.73V80.51h-4.73Zm-44.22,0h4.74V80.51H459Zm-6.31,0h4.73V80.51h-4.73Zm-50.53,0h4.74V80.51h-4.74Zm-25.27,0h4.74V80.51h-4.74Zm-12.63,0H369V80.51h-4.74Zm-6.31,0h4.73V80.51h-4.73Zm-6.32,0h4.74V80.51h-4.74Zm-6.31,0H350V80.51h-4.73Zm-6.32,0h4.73V80.51H339Zm-75.79,0h4.73V80.51H263.2Zm-12.63,0h4.74V80.51h-4.74Zm-12.63,0h4.73V80.51h-4.73Zm-12.64,0H230V80.51H225.3Zm-18.94,0h4.73V80.51h-4.73Zm-6.32,0h4.74V80.51H200Zm-6.32,0h4.74V80.51h-4.74Zm-56.84,0h4.74V80.51h-4.74Zm-25.26,0h4.73V80.51h-4.73Zm303.16,3.17h4.74V83.69h-4.74Zm-18.94,0h4.73V83.69h-4.73Zm-6.32,0h4.73V83.69h-4.73Zm-6.32,0h4.74V83.69H383.2Zm-94.74,0h4.74V83.69h-4.74Zm-101,0h4.73V83.69h-4.73Zm-12.63,0h4.73V83.69h-4.73Zm-6.32,0h4.74V83.69h-4.74Zm-6.32,0h4.74V83.69h-4.74Zm-12.63,0h4.74V83.69h-4.74ZM99,88.45h4.74V83.69H99Zm404.23,3.19h4.73V86.87h-4.73Zm-37.9,0h4.74V86.87h-4.74Zm-12.63,0h4.73V86.87h-4.73Zm-50.53,0h4.74V86.87h-4.74Zm-25.27,0h4.74V86.87h-4.74Zm-12.63,0H369V86.87h-4.74Zm-25.26,0h4.73V86.87H339Zm-75.79,0h4.73V86.87H263.2Zm-12.63,0h4.74V86.87h-4.74Zm-6.32,0H249V86.87h-4.74Zm-18.95,0H230V86.87H225.3Zm-88.42,0h4.74V86.87h-4.74Zm-25.26,0h4.73V86.87h-4.73Zm303.16,3.17h4.74V90h-4.74Zm-126.32,0h4.74V90h-4.74Zm-101,0h4.73V90h-4.73Zm-12.63,0h4.73V90h-4.73Zm-25.27,0h4.74V90h-4.74ZM99,94.81h4.74V90H99Zm-25.26,0h4.74V90H73.72ZM503.21,98h4.73V93.22h-4.73Zm-31.58,0h4.73V93.22h-4.73Zm-18.95,0h4.73V93.22h-4.73Zm-50.53,0h4.74V93.22h-4.74Zm-25.27,0h4.74V93.22h-4.74Zm-12.63,0H369V93.22h-4.74ZM339,98h4.73V93.22H339ZM263.2,98h4.73V93.22H263.2Zm-12.63,0h4.74V93.22h-4.74ZM225.3,98H230V93.22H225.3Zm-88.42,0h4.74V93.22h-4.74Zm-25.26,0h4.73V93.22h-4.73ZM440,101.17h4.74V96.4H440Zm-25.26,0h4.74V96.4h-4.74Zm-126.32,0h4.74V96.4h-4.74Zm-101,0h4.73V96.4h-4.73Zm-12.63,0h4.73V96.4h-4.73Zm-25.27,0h4.74V96.4h-4.74Zm-50.53,0h4.74V96.4H99Zm-25.26,0h4.74V96.4H73.72Zm429.49,3.18h4.73V99.58h-4.73Zm-25.27,0h4.74V99.58h-4.74Zm-25.26,0h4.73V99.58h-4.73Zm-18.95,0h4.74V99.58h-4.74Zm-6.31,0h4.73V99.58h-4.73Zm-6.33,0h4.74V99.58h-4.74Zm-18.94,0h4.74V99.58h-4.74Zm-25.27,0h4.74V99.58h-4.74Zm-12.63,0H369V99.58h-4.74Zm-25.26,0h4.73V99.58H339Zm-56.84,0h4.74V99.58h-4.74Zm-6.32,0h4.74V99.58h-4.74Zm-6.32,0h4.74V99.58h-4.74Zm-6.31,0h4.73V99.58H263.2Zm-12.63,0h4.74V99.58h-4.74Zm-25.27,0H230V99.58H225.3Zm-12.63,0h4.74V99.58h-4.74Zm-6.31,0h4.73V99.58h-4.73Zm-6.32,0h4.74V99.58H200Zm-6.32,0h4.74V99.58h-4.74Zm-25.26,0h4.74V99.58h-4.74Zm-6.32,0h4.74V99.58h-4.74Zm-6.31,0h4.74V99.58h-4.74Zm-25.27,0h4.74V99.58h-4.74Zm-6.31,0H129V99.58h-4.73Zm-6.32,0h4.74V99.58h-4.74Zm-25.26,0h4.74V99.58H92.67Zm-6.32,0h4.74V99.58H86.35Zm-6.31,0h4.74V99.58H80Z"/>
    </g>
  </g>
</svg>
