<?xml version="1.0" encoding="UTF-8" standalone="no"?>
<!-- Generator: Adobe Illustrator 15.0.0, SVG Export Plug-In . SVG Version: 6.00 Build 0)  -->

<svg
   xmlns:dc="http://purl.org/dc/elements/1.1/"
   xmlns:cc="http://creativecommons.org/ns#"
   xmlns:rdf="http://www.w3.org/1999/02/22-rdf-syntax-ns#"
   xmlns:svg="http://www.w3.org/2000/svg"
   xmlns="http://www.w3.org/2000/svg"
   xmlns:sodipodi="http://sodipodi.sourceforge.net/DTD/sodipodi-0.dtd"
   xmlns:inkscape="http://www.inkscape.org/namespaces/inkscape"
   version="1.1"
   id="svg2"
   sodipodi:docname="pause.svg"
   inkscape:version="0.92.2 5c3e80d, 2017-08-06"
   x="0px"
   y="0px"
   width="1920px"
   height="1080px"
   viewBox="0 0 1920 1080"
   enable-background="new 0 0 1920 1080"
   xml:space="preserve"><metadata
     id="metadata943"><rdf:RDF><cc:Work
         rdf:about=""><dc:format>image/svg+xml</dc:format><dc:type
           rdf:resource="http://purl.org/dc/dcmitype/StillImage" /><dc:title /></cc:Work></rdf:RDF></metadata><defs
     id="defs941"><clipPath
       clipPathUnits="userSpaceOnUse"
       id="clipPath18"><path
         d="m 312.117,871.087 c -6.264,-1.72 -10.84,-10.647 -14.167,-15.645 l 0,0 c -4.194,-6.302 -7.979,-12.897 -11.534,-19.58 l 0,0 c -6.794,-12.771 -13.065,-25.863 -21.157,-37.891 l 0,0 -14.658,-134.44 c -34.506,-10.769 -67.49,-29.469 -99.699,-48.874 l 0,0 c 12.812,-37.59 55.526,-58.834 95.24,-58.766 l 0,0 c 0.024,0 0.047,0 0.071,0 l 0,0 c -6.665,-0.282 -13.34,-0.125 -19.96,0.504 l 0,0 c 17.08,-29.328 37.542,-57.811 69.853,-68.2 l 0,0 c 26.039,-8.372 54.524,-0.76 79.568,10.242 l 0,0 c 16.073,7.061 37.811,23.424 50.174,37.459 l 0,0 c -5.443,-6.931 -9.356,-11.85 -9.378,-14.226 l 0,0 c -0.036,-4.022 11.889,-7.249 15.319,-7.836 l 0,0 c 4.537,-0.776 55.479,-8.821 65.762,-9.857 l 0,0 c 10.396,-1.048 20.273,-1.879 30.647,-0.162 l 0,0 c 9.775,1.619 19.405,4.609 27.984,9.637 l 0,0 c 9.366,5.488 17.124,13.214 21.752,22.642 l 0,0 c -2.467,-9.581 -5.754,-22.648 -9.272,-36.305 l 0,0 c -0.171,-0.666 -0.311,-1.344 -0.413,-2.024 l 0,0 c -3.39,-22.815 -3.156,-46.468 -3.991,-69.493 l 0,0 c -0.901,-24.858 -1.418,-49.754 -2.83,-74.59 l 0,0 c -0.791,-13.917 -3.767,-27.11 -7.947,-40.362 l 0,0 c -1.785,-5.66 -3.752,-11.282 -5.94,-16.816 l 0,0 c 2.853,8.361 4.713,17.016 5.261,25.851 l 0,0 c 0.555,8.93 -0.352,17.967 -2.745,26.592 l 0,0 c -2.662,9.599 -7.206,18.729 -13.686,26.328 l 0,0 c -1.536,1.801 -2.531,3.044 -3.792,5.045 l 0,0 c -1.313,2.081 -3.691,4.003 -5.535,5.683 l 0,0 c -4.28,3.901 -8.981,7.314 -13.802,10.512 l 0,0 c -8.952,5.937 -18.089,11.527 -28.039,15.555 l 0,0 c -22.597,9.151 -48.915,13.05 -72.999,8.126 l 0,0 c -49.265,-10.074 -94.2,-46.844 -113.089,-93.79 l 0,0 c -7.565,-18.805 -8.616,-45.719 -6.222,-65.756 l 0,0 c 7.2,-60.243 65.422,-100.088 125.514,-108.448 l 0,0 c 24.824,-3.455 52.18,-1.693 76.294,4.869 l 0,0 c 50.617,13.775 89.298,54.937 112.844,99.669 l 0,0 c 2.794,5.307 14.736,24.552 14.675,26.909 l 0,0 c 0.267,-10.318 3.457,-20.545 9.106,-29.184 l 0,0 16.227,92.559 c 1.621,-9.021 7.294,-17.234 15.157,-21.945 l 0,0 0.204,60.905 c 1.41,-9.085 6.602,-14.523 14.491,-19.244 l 0,0 c -4.166,27.38 -4.717,52.34 -2.482,79.945 l 0,0 c 7.063,-4.324 13.65,-8.62 20.658,-10.281 l 0,0 c -3.651,26.792 -12.97,49.694 -16.621,76.487 l 0,0 c 10.534,-8.562 10.319,-10.84 19.664,-11.89 l 0,0 c -3.943,26.189 -16.832,43.539 -29.738,66.666 l 0,0 25.882,-0.923 c -10.728,25.86 -25.45,41.841 -43.486,63.254 l 0,0 c 10.92,0.053 16.559,0.433 26.037,2.489 l 0,0 c -14.416,20.027 -33.431,26.496 -56.345,35.655 l 0,0 c 14.572,6.667 21.146,13.146 30.811,25.412 l 0,0 c -25.908,4.436 -43.613,6.974 -69.672,10.409 l 0,0 c 9.984,6.221 25.959,11.735 32.646,23.966 l 0,0 c -23.093,-0.068 -51.514,-1.99 -74.606,-2.058 l 0,0 c 3.118,9.15 16.024,22.056 15.344,33.286 l 0,0 -67.289,-24.136 c -2.029,7.646 4.971,10.282 1.623,31.588 l 0,0 -54.542,-23.538 c 0,6.9 9.282,21.518 5.236,31.248 l 0,0 c -1.052,2.53 -27.624,-18.934 -36.917,-20.788 l 0,0 c 0,0 19.327,52.162 14.75,52.15 l 0,0 c -15.455,-0.042 -33.75,-18.848 -49.058,-21.738 l 0,0 c -3.6,5.947 -6.717,12.18 -9.698,18.456 l 0,0 c -5.957,12.543 -11.32,25.358 -17.137,37.966 l 0,0 c -2.809,6.088 -5.71,12.138 -8.882,18.045 l 0,0 c -2.044,3.808 -3.89,8.265 -7.717,10.63 l 0,0 c -2.577,1.592 -6.347,2.531 -9.801,2.531 l 0,0 c -1.401,0 -2.751,-0.155 -3.948,-0.484 m 41.469,-271.97 c -2.238,-1.885 -4.527,-3.722 -6.865,-5.509 l 0,0 c 2.327,1.793 4.616,3.631 6.865,5.509 m 85.349,-45.569 c 0,0 0,0 0,0 M 383.533,241.747 c -16.443,19.302 -23.431,46.211 -18.815,71.142 l 0,0 c 4.341,23.447 18.996,45.037 39.804,56.683 l 0,0 c 20.808,11.645 47.481,12.699 68.622,1.67 l 0,0 c 21.142,-11.029 35.713,-34.183 35.364,-58.026 l 0,0 c -0.349,-23.843 -16.558,-46.24 -39.055,-54.146 l 0,0 c -13.248,-4.655 -27.77,-4.347 -39.5,3.375 l 0,0 c -11.729,7.722 -19.3,22.583 -15.553,36.117 l 0,0 c 3.746,13.535 19.143,23.26 32.574,19.157 l 0,0 c 5.156,-1.575 9.602,-4.83 14.374,-7.338 l 0,0 c 6.351,-3.339 14.186,-5.411 20.409,0.204 l 0,0 c 2.348,2.119 3.893,5.052 4.395,8.174 l 0,0 c 1.65,10.257 -5.836,19.545 -14.699,22.812 l 0,0 c -6.84,2.521 -14.529,2.26 -21.749,1.25 l 0,0 c -23.7,-3.318 -46.176,-17.837 -57.931,-38.681 l 0,0 c -11.755,-20.845 -11.322,-48.644 3.051,-67.777 l 0,0 c 7.968,-10.606 19.479,-17.733 32.216,-21.387 l 0,0 c -16.77,4.192 -32.281,13.594 -43.507,26.771 m 146.601,21.02 c 0.24,0.346 0.478,0.693 0.716,1.042 l 0,0 c -2.094,-3.187 -4.311,-6.295 -6.662,-9.313 l 0,0 c -5.252,-6.741 -11.254,-13.003 -17.851,-18.524 l 0,0 c 9.038,7.807 17.014,17.001 23.797,26.795"
         id="path20"
         inkscape:connector-curvature="0" /></clipPath><clipPath
       clipPathUnits="userSpaceOnUse"
       id="clipPath28"><path
         d="m 314.284,874.024 c -6.264,-1.721 -10.84,-10.648 -14.166,-15.645 l 0,0 c -4.194,-6.302 -7.981,-12.897 -11.535,-19.58 l 0,0 c -6.794,-12.772 -13.065,-25.863 -21.157,-37.891 l 0,0 -14.657,-134.44 c -34.506,-10.769 -67.491,-29.47 -99.701,-48.874 l 0,0 c 12.813,-37.59 55.528,-58.835 95.241,-58.767 l 0,0 c 0.017,0 0.031,0 0.048,0 l 0,0 c -6.659,-0.281 -13.323,-0.124 -19.938,0.505 l 0,0 c 17.081,-29.328 37.544,-57.812 69.854,-68.2 l 0,0 c 26.039,-8.373 54.524,-0.761 79.568,10.242 l 0,0 c 16.072,7.06 37.807,23.42 50.171,37.455 l 0,0 c -5.441,-6.928 -9.354,-11.847 -9.375,-14.223 l 0,0 c -0.036,-4.022 11.889,-7.249 15.32,-7.836 l 0,0 c 4.536,-0.776 55.478,-8.82 65.761,-9.857 l 0,0 c 10.396,-1.048 20.273,-1.879 30.647,-0.161 l 0,0 c 9.774,1.618 19.404,4.608 27.984,9.636 l 0,0 c 9.366,5.488 17.124,13.214 21.752,22.642 l 0,0 c -2.467,-9.581 -5.754,-22.647 -9.272,-36.304 l 0,0 c -0.171,-0.666 -0.312,-1.345 -0.413,-2.025 l 0,0 c -3.39,-22.814 -3.157,-46.467 -3.991,-69.492 l 0,0 c -0.902,-24.859 -1.418,-49.754 -2.83,-74.591 l 0,0 c -0.791,-13.916 -3.768,-27.109 -7.947,-40.362 l 0,0 c -1.785,-5.661 -3.753,-11.284 -5.942,-16.82 l 0,0 c 2.854,8.362 4.714,17.02 5.263,25.856 l 0,0 c 0.554,8.929 -0.353,17.967 -2.745,26.592 l 0,0 c -2.662,9.598 -7.206,18.729 -13.686,26.327 l 0,0 c -1.536,1.801 -3.494,3.382 -4.757,5.383 l 0,0 c -1.312,2.081 -2.726,3.665 -4.57,5.345 l 0,0 c -4.28,3.901 -8.981,7.315 -13.802,10.512 l 0,0 c -8.952,5.938 -18.598,10.791 -28.547,14.819 l 0,0 c -22.597,9.149 -47.586,13.078 -71.67,8.153 l 0,0 c -49.265,-10.074 -95.021,-46.134 -113.91,-93.081 l 0,0 c -7.566,-18.804 -8.616,-45.718 -6.222,-65.755 l 0,0 c 7.2,-60.244 65.422,-100.089 125.514,-108.45 l 0,0 c 24.823,-3.453 52.179,-1.692 76.293,4.87 l 0,0 c 50.618,13.775 89.298,54.937 112.845,99.669 l 0,0 c 2.794,5.306 14.736,24.552 14.675,26.91 l 0,0 c 0.266,-10.318 3.457,-20.545 9.105,-29.185 l 0,0 16.228,92.559 c 1.622,-9.021 7.294,-17.234 15.156,-21.944 l 0,0 0.204,60.905 c 1.411,-9.085 6.603,-14.524 14.491,-19.245 l 0,0 c -4.165,27.381 -4.717,52.34 -2.481,79.945 l 0,0 c 7.063,-4.324 13.65,-8.619 20.657,-10.281 l 0,0 c -3.651,26.793 -12.969,49.695 -16.621,76.488 l 0,0 c 10.535,-8.562 10.321,-10.841 19.665,-11.89 l 0,0 c -3.943,26.189 -16.832,43.539 -29.738,66.666 l 0,0 25.881,-0.924 c -10.726,25.861 -25.449,41.842 -43.485,63.255 l 0,0 c 10.92,0.053 16.559,0.433 26.037,2.488 l 0,0 c -14.416,20.028 -33.431,26.496 -56.345,35.655 l 0,0 c 14.571,6.668 21.146,13.147 30.811,25.413 l 0,0 c -25.908,4.436 -43.613,6.973 -69.673,10.409 l 0,0 c 9.985,6.22 25.961,11.735 32.648,23.966 l 0,0 c -23.094,-0.069 -51.515,-1.991 -74.608,-2.06 l 0,0 c 3.119,9.152 16.025,22.058 15.345,33.287 l 0,0 -67.289,-24.135 c -2.03,7.644 4.971,10.282 1.624,31.588 l 0,0 -54.543,-23.538 c 0,6.899 9.282,21.517 5.235,31.248 l 0,0 c -1.052,2.53 -27.623,-18.935 -36.917,-20.789 l 0,0 c 0,0 19.328,52.162 14.751,52.15 l 0,0 c -15.456,-0.043 -33.751,-18.848 -49.059,-21.737 l 0,0 c -3.6,5.946 -6.717,12.18 -9.697,18.454 l 0,0 c -5.958,12.545 -11.32,25.36 -17.137,37.968 l 0,0 c -2.808,6.086 -5.71,12.137 -8.882,18.045 l 0,0 c -2.044,3.808 -3.889,8.265 -7.717,10.63 l 0,0 c -2.577,1.592 -6.347,2.53 -9.801,2.53 l 0,0 c -1.401,0 -2.752,-0.154 -3.948,-0.483 m 41.469,-271.971 c -2.231,-1.88 -4.511,-3.71 -6.842,-5.492 l 0,0 c 2.319,1.787 4.601,3.62 6.842,5.492 m 85.349,-45.569 c 0,0 0,0 0,0 M 385.7,244.684 c -16.443,19.301 -23.431,46.21 -18.815,71.142 l 0,0 c 4.341,23.447 18.996,45.036 39.804,56.681 l 0,0 c 20.807,11.646 47.481,12.699 68.623,1.672 l 0,0 c 21.141,-11.029 35.712,-34.184 35.362,-58.026 l 0,0 C 510.325,292.31 494.456,269.141 471.96,261.234 l 0,0 c -13.249,-4.656 -28.749,-3.925 -40.478,3.797 l 0,0 c -11.73,7.722 -18.663,22.934 -14.915,36.468 l 0,0 c 3.747,13.534 19.144,23.259 32.574,19.157 l 0,0 c 5.156,-1.575 9.602,-4.831 14.374,-7.339 l 0,0 c 6.352,-3.338 14.186,-5.411 20.41,0.205 l 0,0 c 2.347,2.118 3.891,5.052 4.393,8.173 l 0,0 c 1.651,10.257 -5.876,18.554 -14.739,21.821 l 0,0 c -6.84,2.522 -14.381,2.425 -21.601,1.414 l 0,0 c -23.699,-3.317 -46.283,-17.011 -58.038,-37.854 l 0,0 c -11.755,-20.844 -11.323,-48.644 3.051,-67.777 l 0,0 c 7.968,-10.606 19.481,-17.733 32.218,-21.388 l 0,0 c -16.769,4.192 -32.283,13.595 -43.509,26.773 m 146.6,21.019 c 0.248,0.358 0.494,0.716 0.739,1.075 l 0,0 c -2.1,-3.197 -4.324,-6.317 -6.684,-9.346 l 0,0 c -5.241,-6.727 -11.231,-12.977 -17.813,-18.49 l 0,0 c 9.023,7.8 16.985,16.98 23.758,26.761"
         id="path30"
         inkscape:connector-curvature="0" /></clipPath><clipPath
       clipPathUnits="userSpaceOnUse"
       id="clipPath1428"><path
         d="m 0,1201.89 853.228,0 L 853.228,0 0,0 0,1201.89 Z"
         id="path1430"
         inkscape:connector-curvature="0" /></clipPath><clipPath
       clipPathUnits="userSpaceOnUse"
       id="clipPath1436"><path
         d="m 153.069,874.507 547.722,0 0,-721.1 -547.722,0 0,721.1 z"
         id="path1438"
         inkscape:connector-curvature="0" /></clipPath><radialGradient
       fx="0"
       fy="0"
       cx="0"
       cy="0"
       r="1"
       gradientUnits="userSpaceOnUse"
       gradientTransform="matrix(74.078758,0,0,-59.263008,239.82324,731.99097)"
       spreadMethod="pad"
       id="radialGradient1468"><stop
         style="stop-opacity:1;stop-color:#ffffff"
         offset="0"
         id="stop1470" /><stop
         style="stop-opacity:1;stop-color:#c4c3c3"
         offset="1"
         id="stop1472" /></radialGradient><clipPath
       clipPathUnits="userSpaceOnUse"
       id="clipPath1480"><path
         d="m 0,1201.89 853.228,0 L 853.228,0 0,0 0,1201.89 Z"
         id="path1482"
         inkscape:connector-curvature="0" /></clipPath><radialGradient
       fx="0"
       fy="0"
       cx="0"
       cy="0"
       r="1"
       gradientUnits="userSpaceOnUse"
       gradientTransform="matrix(74.078758,0,0,-59.263008,324.3374,727.64069)"
       spreadMethod="pad"
       id="radialGradient1516"><stop
         style="stop-opacity:1;stop-color:#ffffff"
         offset="0"
         id="stop1518" /><stop
         style="stop-opacity:1;stop-color:#c4c3c3"
         offset="1"
         id="stop1520" /></radialGradient><clipPath
       clipPathUnits="userSpaceOnUse"
       id="clipPath1528"><path
         d="m 0,1201.89 853.228,0 L 853.228,0 0,0 0,1201.89 Z"
         id="path1530"
         inkscape:connector-curvature="0" /></clipPath><clipPath
       clipPathUnits="userSpaceOnUse"
       id="clipPath1560"><path
         d="m 529.474,574.673 c 6.87,-7.702 13.741,-15.405 20.611,-23.107 l 0,0 c 2.925,-3.279 6.035,-7.149 6.026,-11.402 l 0,0 c -10e-4,-0.461 -0.038,-0.925 -0.116,-1.394 l 0,0 c -0.679,-4.076 -4.235,-6.974 -7.641,-9.312 l 0,0 c -8.134,-5.582 -16.812,-10.954 -24.245,-17.441 l 0,0 c -3.348,-2.922 -15.688,-9.847 -17.856,-11.768 l 0,0 c -10.514,-9.322 -29.698,-8.23 -43.695,-6.992 l 0,0 c -2.978,0.263 -6.376,0.501 -8.544,-1.558 l 0,0 c -1.461,-1.388 -1.959,-3.483 -2.345,-5.461 l 0,0 c -0.541,-2.777 -0.961,-5.706 -0.964,-8.569 l 0,0 c -0.005,-3.924 0.773,-7.721 3.093,-10.826 l 0,0 c 5.5,-7.361 17.621,-6.775 24.515,-0.701 l 0,0 c 3.855,3.397 7.098,8.39 12.216,8.854 l 0,0 c 5.187,0.469 9.462,-4.158 11.606,-8.906 l 0,0 c 2.145,-4.748 3.149,-10.106 6.358,-14.211 l 0,0 c 6.392,-8.178 21.134,-7.2 26.389,1.752 l 0,0 c 1.293,2.202 1.885,4.672 1.889,7.167 l 0,0 c 0.013,7.643 -5.488,15.526 -13.22,16.729 l 0,0 c -0.999,1.438 -1.44,3.117 -1.442,4.842 l 0,0 c -0.002,2.689 1.063,5.487 2.742,7.64 l 0,0 c 2.755,3.534 6.807,5.762 10.671,8.029 l 0,0 c 15.893,9.322 30.475,20.875 43.186,34.214 l 0,0 c 2.132,2.238 4.348,4.93 4.35,7.937 l 0,0 c 0,0.269 -0.017,0.54 -0.054,0.814 l 0,0 c -0.28,2.082 -1.645,3.833 -2.959,5.471 l 0,0 c -9.167,11.424 -18.333,22.849 -27.5,34.273 l 0,0 -23.071,-6.074 z"
         id="path1562"
         inkscape:connector-curvature="0" /></clipPath><clipPath
       clipPathUnits="userSpaceOnUse"
       id="clipPath1646"><path
         d="m 0,1201.89 853.228,0 L 853.228,0 0,0 0,1201.89 Z"
         id="path1648"
         inkscape:connector-curvature="0" /></clipPath><clipPath
       clipPathUnits="userSpaceOnUse"
       id="clipPath1658"><path
         d="m 444.813,571.047 c 6.832,-7.66 13.665,-15.32 20.499,-22.979 l 0,0 c 3.241,-3.634 6.709,-7.994 5.908,-12.797 l 0,0 c -0.056,-0.338 -0.132,-0.668 -0.226,-0.99 l 0,0 c -0.987,-3.65 -4.29,-6.315 -7.463,-8.492 l 0,0 c -8.135,-5.582 -16.812,-10.954 -24.246,-17.441 l 0,0 c -3.348,-2.922 -15.687,-9.846 -17.855,-11.769 l 0,0 c -10.514,-9.321 -29.699,-8.229 -43.695,-6.992 l 0,0 c -2.979,0.264 -6.375,0.503 -8.543,-1.557 l 0,0 c -0.945,-0.898 -1.487,-2.091 -1.857,-3.358 l 0,0 c -0.178,-0.638 -0.315,-1.291 -0.44,-1.933 l 0,0 c -1.283,-6.581 -1.885,-14.024 2.129,-19.396 l 0,0 c 5.499,-7.36 17.621,-6.774 24.514,-0.7 l 0,0 c 3.856,3.397 7.099,8.391 12.216,8.854 l 0,0 c 5.189,0.47 9.464,-4.158 11.607,-8.906 l 0,0 c 2.144,-4.747 3.15,-10.106 6.357,-14.211 l 0,0 c 6.393,-8.177 21.135,-7.199 26.39,1.752 l 0,0 c 0.57,0.971 1.003,1.993 1.311,3.046 l 0,0 c 2.398,8.633 -3.607,19.267 -12.691,20.68 l 0,0 c -1.621,2.332 -1.772,5.302 -0.964,8.064 l 0,0 c 0.46,1.658 1.268,3.248 2.313,4.588 l 0,0 c 2.754,3.534 6.806,5.762 10.671,8.029 l 0,0 c 15.893,9.322 30.475,20.875 43.186,34.215 l 0,0 c 1.669,1.751 3.39,3.782 4.06,6.024 l 0,0 c 0.225,0.825 0.306,1.678 0.187,2.556 l 0,0 c -0.279,2.082 -1.644,3.832 -2.959,5.47 l 0,0 c -9.166,11.425 -18.334,22.85 -27.5,34.274 l 0,0 -22.909,-6.031 z"
         id="path1660"
         inkscape:connector-curvature="0" /></clipPath></defs><sodipodi:namedview
     units="px"
     pagecolor="#ffffff"
     inkscape:zoom="0.35"
     id="base"
     bordercolor="#666666"
     borderopacity="1.0"
     inkscape:pageopacity="0"
     inkscape:pageshadow="2"
     inkscape:cx="1540.0524"
     inkscape:cy="728.86551"
     inkscape:document-units="px"
     inkscape:current-layer="svg2"
     showgrid="false"
     inkscape:window-width="1916"
     inkscape:window-height="1041"
     inkscape:window-x="0"
     inkscape:window-y="18"
     inkscape:window-maximized="0"
     showguides="true"
     inkscape:guide-bbox="true"><sodipodi:guide
       position="991.42857,1077.1429"
       orientation="0,1"
       id="guide8407"
       inkscape:locked="false" /><sodipodi:guide
       position="938.92857,721.42857"
       orientation="0,1"
       id="guide8409"
       inkscape:locked="false" /><sodipodi:guide
       position="161.356,459.5"
       orientation="1,0"
       id="guide8411"
       inkscape:locked="false" /></sodipodi:namedview><g
     id="layer2"
     inkscape:groupmode="layer"
     inkscape:label="Background"
     style="display:inline"><rect
       id="pause_bg"
       x="0"
       width="1920"
       height="1080"
       y="0"
       style="fill:#003543" /><rect
       id="pause_bg_alt"
       x="-0.33477008"
       width="1920"
       height="1080"
       y="0.63943481"
       style="display:inline;fill:#003543" /></g><g
     id="layer3"
     inkscape:groupmode="layer"
     inkscape:label="Text" /><g
     id="pause"><text
       xml:space="preserve"
       style="font-style:normal;font-weight:normal;line-height:0%;font-family:sans-serif;letter-spacing:0px;word-spacing:0px;fill:#000000;fill-opacity:1;stroke:none;stroke-width:0.91700482px;stroke-linecap:butt;stroke-linejoin:miter;stroke-opacity:1"
       x="645.31598"
       y="593.3819"
       id="text8405"><tspan
         sodipodi:role="line"
         id="tspan8403"
         x="645.31598"
         y="593.3819"
         style="font-style:normal;font-variant:normal;font-weight:300;font-stretch:normal;font-size:268.98806763px;line-height:125%;font-family:'Roboto Condensed';-inkscape-font-specification:'Roboto Condensed,  Light';fill:#ffffff;fill-opacity:1;stroke-width:0.91700482px">Pause</tspan></text>
<path
       d="m 1741.5599,109.10114 c -0.1367,-0.0249 -13.642,-1.96523 -13.7673,-1.98711 -2.3692,-0.37689 -3.5809,-1.55603 -3.5809,-3.47751 0,-1.92696 1.6701,-3.01859 3.0404,-3.01859 h 22.3162 v -8.336034 h -22.2724 c -7.0751,0 -11.9501,5.371896 -11.9501,11.354624 0,5.23516 3.1499,10.65603 10.3396,11.77501 0.1243,0.0249 13.642,1.97642 13.7728,1.9978 2.3692,0.37117 3.5809,1.53988 3.5809,3.46658 0,1.93267 -1.6701,3.01336 -3.0459,3.01336 h -16.3113 v 0 c -3.3025,0.11436 -6.7855,2.64244 -6.7855,7.60438 v 0.74284 h 23.064 c 7.0642,0 11.9446,-5.37712 11.9446,-11.3658 0,-5.23517 -3.1392,-10.65579 -10.3451,-11.77477 m 118.4761,-8.48321 c 3.3085,-0.10441 6.7912,-2.636475 6.7912,-7.593695 v -0.74234 h -24.1507 c -7.0746,0 -11.9552,5.371896 -11.9552,11.354625 v 17.23939 c 0,5.98868 4.8806,11.3658 11.9552,11.3658 h 24.1507 v -0.74284 c 0,-4.96194 -3.4827,-7.48902 -6.7912,-7.60438 v 0 h -17.4087 c -1.3703,0 -3.035,-1.08069 -3.035,-3.01336 0,-1.9267 1.261,-3.46658 3.5703,-3.46658 h 7.5494 c 6.6381,-0.0373 10.4703,-4.11046 11.6773,-8.7614 h -18.1515 c -3.2699,0 -4.6455,2.59297 -4.6455,2.59297 v -7.60438 c 0,-1.92696 1.6595,-3.01859 3.035,-3.01859 z m -79.3242,-8.347222 v 23.762832 c 0,4.95722 -4.023,8.99111 -8.9854,8.99111 -4.9731,0 -8.9857,-4.03389 -8.9857,-8.99111 V 92.265488 h -8.6634 V 115.5321 c 0,9.73868 7.8992,17.64288 17.6491,17.64288 9.7387,0 17.6436,-7.9042 17.6436,-17.64288 V 92.265488 Z m 47.733,28.605202 c 0,5.98868 -4.8802,11.3658 -11.9381,11.3658 h -22.2841 v -8.35244 h 22.3274 c 1.376,0 3.0297,-1.08069 3.0297,-3.01336 0,-1.92671 -1.2119,-3.09541 -3.5812,-3.46658 -0.1267,-0.0249 -13.6418,-1.98139 -13.7725,-1.9978 -7.2009,-1.11898 -10.3344,-6.53985 -10.3344,-11.77501 0,-5.982729 4.875,-11.354625 11.9441,-11.354625 h 22.2836 v 8.336035 h -22.3274 c -1.37,0 -3.0349,1.09163 -3.0349,3.01859 0,1.92148 1.201,3.10062 3.5762,3.47751 0.1317,0.0249 13.6467,1.97046 13.7725,1.98711 7.2004,1.11898 10.3391,6.5396 10.3391,11.77477"
       style="fill:#ffffff;fill-opacity:1;fill-rule:nonzero;stroke:none;stroke-width:0.48608565"
       id="path1708"
       inkscape:connector-curvature="0" /><path
       d="m 1774.4939,57.879432 c 0.05,-1.74696 0.7913,-3.368125 2.0689,-4.558455 1.2721,-1.189583 2.9368,-1.806377 4.6837,-1.751932 3.6036,0.131762 6.4365,3.166008 6.3164,6.769316 -0.065,1.746463 -0.7973,3.356938 -2.0694,4.552737 -1.2774,1.195301 -2.9475,1.812095 -4.694,1.751684 -3.5975,-0.136734 -6.4257,-3.16576 -6.3056,-6.76335 M 1763.991,45.236283 c 0,0 -0.05,3.171726 -0.055,3.526737 -1.5777,-0.518843 -12.9268,-4.187285 -23.5717,-4.563428 -9.013,-0.311504 -21.3337,-0.742837 -38.7478,9.951235 l -0.5134,0.327415 c -8.1826,5.109865 -13.833,11.404093 -16.7976,18.73004 -0.9278,2.303591 -2.1723,7.505937 -0.944,12.392056 0.5348,2.134041 1.5342,4.279518 2.8714,6.211691 3.0238,4.340426 8.0957,7.222277 13.5598,7.708552 7.7138,0.682429 13.5603,-2.778679 15.6403,-9.263837 1.43,-4.481884 0,-11.043364 -5.4753,-14.395579 -4.455,-2.729206 -9.2531,-2.107191 -12.0261,-0.273219 -2.413,1.599785 -3.7833,4.083616 -3.7557,6.819037 0.06,4.82521 4.2246,7.40202 7.2166,7.40202 0.8733,0 1.7522,-0.141706 2.7404,-0.474839 0.3495,-0.09696 0.6715,-0.228718 1.0426,-0.458928 l 0.1144,-0.0721 0.07,-0.03729 h -0.025 c 0.6879,-0.464149 1.0976,-1.222897 1.0976,-2.030869 0,-0.228719 -0.037,-0.447741 -0.099,-0.677205 -0.3493,-1.217179 -1.5724,-1.965237 -2.8279,-1.730304 l -0.1566,0.02735 -0.2288,0.07707 -0.3383,0.109387 c -0.6879,0.178997 -1.2065,0.191427 -1.3159,0.196399 -0.3547,-0.02735 -2.0853,-0.545443 -2.0853,-2.434358 v -0.02486 c 0,-0.687896 0.2899,-1.179143 0.4423,-1.441174 0.5295,-0.84054 1.9978,-1.670638 3.9904,-1.495619 2.6039,0.223746 4.4769,1.566472 5.7266,4.077649 1.1521,2.341877 0.8515,5.218755 -0.7749,7.331167 -1.6274,2.107192 -4.504,2.997205 -8.347,2.57681 -3.8648,-0.425863 -7.1347,-2.653132 -8.9747,-6.119954 -1.785,-3.378816 -1.8889,-7.396302 -0.2565,-10.486237 3.9198,-7.39133 11.3218,-7.309289 15.3671,-6.616174 5.7697,0.993682 14.5154,6.163213 17.7853,18.123688 h 7.9756 c -0.9827,-3.051649 -1.5506,-11.873463 7.4241,-11.873463 9.8481,0 11.0929,6.932899 13.8708,11.873463 h 8.4507 c -2.2218,-3.182914 -3.7774,-6.720092 -3.2807,-9.700639 0.7265,-4.388905 4.2199,-3.995858 9.0675,-3.449917 1.5774,0.183969 3.3788,0.387578 5.2406,0.431084 5.2026,0.03232 9.9189,-0.927801 13.3634,-2.428889 2.2327,-0.977522 3.652,-1.621662 4.5527,-2.429386 0.317,-0.26775 0.486,-0.704303 0.6553,-1.162734 l 0.1144,-0.316974 c 0.1591,-0.370921 0.3329,-1.167955 0.453,-1.599288 0.2287,-0.878825 -0.5572,-0.414924 -0.5572,-0.414924 -1.5063,0.911889 -5.306,2.636972 -8.8432,2.707825 -4.3943,0.09199 -13.2435,-4.41128 -14.1768,-4.896809 l -0.082,-0.104415 c -0.2238,-0.524063 -1.556,-3.673911 -1.8288,-4.33446 6.3708,4.203693 11.655,6.518472 15.7055,6.878454 4.5035,0.403986 8.0191,-2.057967 9.5207,-3.106094 0.1467,-0.109387 0.7533,-0.502434 0.6168,-0.993433 -0.5897,-2.047277 -2.6151,-8.903605 -4.3019,-10.639875 -0.4915,-0.507407 -0.8736,-0.993184 -1.6868,-1.457333 -6.4362,-3.755455 -21.7158,-6.026479 -22.4363,-6.130396 0,0 -0.169,-0.04475 -0.169,0.141705"
       style="fill:#ffffff;fill-opacity:1;fill-rule:nonzero;stroke:none;stroke-width:0.48608565"
       id="path1712"
       inkscape:connector-curvature="0" /><path
       d="m 1781.9401,58.485536 c -1.1189,0 -2.0254,-0.606352 -2.0254,-1.348444 0,-0.753527 0.9065,-1.353912 2.0254,-1.353912 1.119,0 2.0257,0.600385 2.0257,1.353912 0,0.742092 -0.9067,1.348444 -2.0257,1.348444 m -0.7425,-4.995009 c -1.2227,-0.04475 -2.3859,0.393048 -3.2588,1.222897 -0.9007,0.82985 -1.4141,1.959768 -1.4466,3.171229 -0.087,2.522365 1.8777,4.640247 4.3889,4.727756 1.2229,0.03729 2.3799,-0.393296 3.2751,-1.222648 0.89,-0.829601 1.4089,-1.954547 1.4467,-3.177444 0.082,-2.516647 -1.8889,-4.629059 -4.4053,-4.72179"
       style="fill:#ffffff;fill-opacity:1;fill-rule:nonzero;stroke:none;stroke-width:0.48608565"
       id="path1716"
       inkscape:connector-curvature="0" /><path
       d="m 1872.3925,128.97154 c 0,0.22374 -0.1591,0.37664 -0.4507,0.37664 h -0.5867 v -0.75875 h 0.5733 c 0.2896,0 0.4641,0.13176 0.4641,0.38211 m 0.5813,-0.0373 c 0,-0.53501 -0.3926,-0.85148 -1.029,-0.85148 h -1.1685 v 2.59844 h 0.5788 v -0.83557 h 0.4584 l 0.5653,0.83557 h 0.6797 l -0.6471,-0.93377 c 0.3413,-0.11933 0.5624,-0.38186 0.5624,-0.81319 m 1.018,0.50765 c 0,1.20624 -0.9469,2.18874 -2.2024,2.18874 -1.245,0 -2.1813,-0.97131 -2.1813,-2.17233 0,-1.20102 0.9417,-2.18401 2.1947,-2.18401 1.2532,0 2.189,0.97752 2.189,2.1676 m 0.5706,0 c 0,-1.4904 -1.209,-2.71354 -2.7596,-2.71354 -1.5476,0 -2.7677,1.23955 -2.7677,2.72995 0,1.49562 1.204,2.72398 2.7543,2.72398 1.5446,0 2.773,-1.24477 2.773,-2.74039"
       style="fill:#ffffff;fill-opacity:1;fill-rule:nonzero;stroke:none;stroke-width:0.48608565"
       id="path1720"
       inkscape:connector-curvature="0" /></g></svg>