<?xml version="1.0" encoding="utf-8"?>
<!-- Generator: Adobe Illustrator 21.1.0, SVG Export Plug-In . SVG Version: 6.00 Build 0)  -->
<svg version="1.1" id="Ebene_1" xmlns="http://www.w3.org/2000/svg" xmlns:xlink="http://www.w3.org/1999/xlink" x="0px" y="0px"
	 viewBox="0 0 1920 1052" style="enable-background:new 0 0 1920 1052;" xml:space="preserve">
<style type="text/css">
	.st0{fill:#F6F7F6;}
</style>
<g id="Typo">
	<path class="st0" d="M1581.3,844.8h-25.1c-43.7,0-79.3-37.2-79.3-83s35.6-83,79.3-83h63.1V551.5h16.9v135.7c0,3.6,0.7,75.8,0,101.4
		c-0.4,14.1-7.1,28.5-18.3,39.5C1607.3,838.5,1593.6,844.8,1581.3,844.8z M1556.2,695.7c-34.4,0-62.4,29.6-62.4,66.1
		s28,66.1,62.4,66.1h25.1c16.3,0,37.4-18.7,38-39.7c0.6-20.3,0.2-72,0.1-92.4L1556.2,695.7L1556.2,695.7z"/>
	<path class="st0" d="M1365.1,844.8c-43.7,0-79.3-37.2-79.3-83v-75.3h16.9v75.3c0,36.4,28,66.1,62.4,66.1s62.4-29.6,62.4-66.1v-75.3
		h16.9v75.3C1444.4,807.5,1408.8,844.8,1365.1,844.8z"/>
	<path class="st0" d="M1039.3,788.3V622.1c-5.8-3.1-11.5-6.5-16.9-10.3v176.5c0,31.1,24.3,56.4,54.2,56.4v-16.9
		C1056,827.8,1039.3,810.1,1039.3,788.3z"/>
	<path class="st0" d="M872.5,716.7c0-32,13.1-60.9,34-81.1c-5.2-2.4-10.2-5.5-14.8-9.1c-22.3,23.1-36.1,55-36.1,90.2
		c0,70.2,54.8,127.3,122.1,127.3v-16.9C919.7,827.1,872.5,777.6,872.5,716.7z"/>
	<path class="st0" d="M1176.9,844.8c-43.7,0-79.3-37.2-79.3-83s35.6-83,79.3-83s79.3,37.2,79.3,83S1220.7,844.8,1176.9,844.8z
		 M1176.9,695.7c-34.4,0-62.4,29.6-62.4,66.1s28,66.1,62.4,66.1s62.4-29.6,62.4-66.1S1211.3,695.7,1176.9,695.7z"/>
	<path class="st0" d="M822.4,835.5h-16.9v-75.3c0-36.4-28-66.1-62.4-66.1s-62.4,29.6-62.4,66.1v75.3h-16.9v-75.3
		c0-45.8,35.6-83,79.3-83s79.3,37.2,79.3,83L822.4,835.5L822.4,835.5z"/>
	<path class="st0" d="M573.3,844.8c-19.2,0-36.1-10.5-45.7-26.2c-9.6,15.7-26.5,26.2-45.7,26.2c-29.9,0-54.2-25.3-54.2-56.4V686.5
		h16.9v101.8c0,21.8,16.7,39.5,37.3,39.5s37.3-17.7,37.3-39.5V686.5h16.9v101.8c0,21.8,16.7,39.5,37.3,39.5s37.3-17.7,37.3-39.5
		V686.5h16.9v101.8C627.6,819.4,603.2,844.8,573.3,844.8z"/>
	<path class="st0" d="M313.6,844.8c-43.7,0-79.3-37.2-79.3-83s35.6-83,79.3-83s79.3,37.2,79.3,83S357.3,844.8,313.6,844.8z
		 M313.6,695.7c-34.4,0-62.4,29.6-62.4,66.1s28,66.1,62.4,66.1s62.4-29.6,62.4-66.1S348,695.7,313.6,695.7z"/>
</g>
<path id="Cloud" class="st0" d="M1078.6,149.8c-63.9,0-115.5,53.1-115.5,118.8c0,27.1,8.8,52,23.6,72
	c32.1-38.2,79.4-62.4,132.3-62.4c25.9,0,50.4,5.9,72.5,16.3c1.8-8.3,2.7-17,2.7-25.9C1194.1,202.9,1142.5,149.8,1078.6,149.8
	L1078.6,149.8z M927.7,204.7c-33.3,0-60,27.7-60,62c0,11.1,2.8,21.5,7.7,30.5c20.1-11.6,43.3-18.4,67.9-18.4c2.4,0,4.7,0.1,7,0.2
	c-0.3-3.5-0.5-6.9-0.5-10.5c0-19.1,4-37.2,11.1-53.6C951.5,208.4,940.1,204.7,927.7,204.7L927.7,204.7z M1212.7,247.4
	c-2.5,0-4.8,0.3-7.2,0.5c1,6.8,1.8,13.6,1.8,20.7c0,11-1.4,21.7-3.9,31.9c29.2,16.6,53.4,41.4,69.3,71.5c16.5-8.9,35-14.5,54.6-15.8
	C1322.2,295.3,1273.2,247.4,1212.7,247.4L1212.7,247.4z M1118.9,291.6c-89.4,0-161.7,74.4-161.7,166.3c0,92,72.3,166.3,161.7,166.3
	s161.7-74.4,161.7-166.3S1208.3,291.6,1118.9,291.6z M943.4,292.3c-69.4,0-125.5,57.7-125.5,129.1c0,42,19.5,79.2,49.6,102.7
	c12.7-25.2,38.2-42.4,67.7-42.4c3.6,0,7,0.4,10.4,0.9c-1.1-8.1-1.6-16.3-1.6-24.7c0-40,12.7-77,34.2-106.9
	c-12.9-16.6-22.1-36.5-26-58.2C949.3,292.6,946.3,292.3,943.4,292.3L943.4,292.3z M1336.6,369.2c-21.1,0-40.8,5.5-58.2,14.9
	c9.9,22.5,15.4,47.5,15.4,73.8c0,49.3-19.3,94-50.5,126.5c23,26.2,56.3,42.6,93.3,42.6c69.4,0,125.5-57.7,125.5-129.1
	S1405.9,369.2,1336.6,369.2L1336.6,369.2z M805.7,386.2c-63.9,0-115.7,52.9-115.7,118.6s51.8,119,115.7,119c24.3,0,46.8-7.8,65.5-21
	c-7.7-12.3-12.2-27-12.2-42.6c0-8.1,1.2-15.9,3.4-23.3c-34.8-25.9-57.5-68-57.5-115.5c0-12.1,1.5-23.7,4.3-34.9
	C807.9,386.4,806.8,386.2,805.7,386.2L805.7,386.2z M1484.9,488.2c-3.4,0-6.7,0.4-10,0.9c0.2,3,0.2,5.8,0.2,8.9
	c0,37.9-14.5,72.3-38.1,97.8c11.6,13.8,28.6,22.6,47.8,22.6c35,0,63.4-29,63.4-65C1548.3,517.4,1519.9,488.2,1484.9,488.2
	L1484.9,488.2z M935.2,495.2c-35,0-63.2,29-63.2,65s28.2,65.2,63.2,65.2c26.8,0,49.6-17.2,58.9-41.5c-22.6-23.7-38.8-53.8-46-87.4
	C943.9,495.7,939.7,495.2,935.2,495.2L935.2,495.2z"/>
</svg>
