<?xml version="1.0" encoding="UTF-8" standalone="no"?>
<!-- Created with Inkscape (http://www.inkscape.org/) -->

<svg
   xmlns:dc="http://purl.org/dc/elements/1.1/"
   xmlns:cc="http://creativecommons.org/ns#"
   xmlns:rdf="http://www.w3.org/1999/02/22-rdf-syntax-ns#"
   xmlns:svg="http://www.w3.org/2000/svg"
   xmlns="http://www.w3.org/2000/svg"
   xmlns:xlink="http://www.w3.org/1999/xlink"
   xmlns:sodipodi="http://sodipodi.sourceforge.net/DTD/sodipodi-0.dtd"
   xmlns:inkscape="http://www.inkscape.org/namespaces/inkscape"
   width="1024"
   height="576"
   id="svg2"
   version="1.1"
   inkscape:version="0.48.4 r9939"
   sodipodi:docname="pause.svg">
  <defs
     id="defs4">
    <linearGradient
       id="linearGradient3811">
      <stop
         id="stop3819"
         offset="0"
         style="stop-color:#fafbff;stop-opacity:1;" />
      <stop
         style="stop-color:#fffbff;stop-opacity:1;"
         offset="1"
         id="stop3815" />
    </linearGradient>
    <radialGradient
       fy="9.7279596"
       fx="1.71676"
       r="0.29498801"
       cy="9.7279596"
       cx="1.71676"
       gradientUnits="userSpaceOnUse"
       id="id12">
      <stop
         id="stop3151"
         style="stop-color:#75C5F0"
         offset="0" />
      <stop
         id="stop3153"
         style="stop-color:#007CC3"
         offset="1" />
    </radialGradient>
    <radialGradient
       fy="2.1879101"
       fx="3.27019"
       r="0.420028"
       cy="2.1879101"
       cx="3.27019"
       xlink:href="#id12"
       gradientUnits="userSpaceOnUse"
       id="id14" />
    <linearGradient
       y2="2.3961301"
       x2="3.27019"
       y1="1.96386"
       x1="3.27019"
       gradientUnits="userSpaceOnUse"
       id="linearGradient3382">
      <stop
         id="stop3384"
         style="stop-opacity:1; stop-color:white"
         offset="0" />
      <stop
         id="stop3386"
         style="stop-opacity:0; stop-color:white"
         offset="1" />
    </linearGradient>
    <mask
       id="id6">
      <linearGradient
         y2="2.3961301"
         x2="3.27019"
         y1="1.96386"
         x1="3.27019"
         gradientUnits="userSpaceOnUse"
         id="id7">
        <stop
           id="stop3128"
           style="stop-opacity:1; stop-color:white"
           offset="0" />
        <stop
           id="stop3130"
           style="stop-opacity:0; stop-color:white"
           offset="1" />
      </linearGradient>
      <rect
         id="rect3132"
         height="0.465563"
         width="0.65544897"
         y="1.94721"
         x="2.9424601"
         style="fill:url(#id7)" />
    </mask>
    <inkscape:perspective
       sodipodi:type="inkscape:persp3d"
       inkscape:vp_x="0 : 0.5 : 1"
       inkscape:vp_y="0 : 1000 : 0"
       inkscape:vp_z="1 : 0.5 : 1"
       inkscape:persp3d-origin="0.5 : 0.33333333 : 1"
       id="perspective3373" />
    <inkscape:perspective
       id="perspective3412"
       inkscape:persp3d-origin="372.04724 : 350.78739 : 1"
       inkscape:vp_z="744.09448 : 526.18109 : 1"
       inkscape:vp_y="0 : 1000 : 0"
       inkscape:vp_x="0 : 526.18109 : 1"
       sodipodi:type="inkscape:persp3d" />
    <radialGradient
       fy="9.7279596"
       fx="1.71676"
       r="0.29498801"
       cy="9.7279596"
       cx="1.71676"
       gradientUnits="userSpaceOnUse"
       id="id12-3">
      <stop
         id="stop3151-0"
         style="stop-color:#75C5F0"
         offset="0" />
      <stop
         id="stop3153-0"
         style="stop-color:#007CC3"
         offset="1" />
    </radialGradient>
    <radialGradient
       fy="2.1879101"
       fx="3.27019"
       r="0.420028"
       cy="2.1879101"
       cx="3.27019"
       xlink:href="#id12-3"
       gradientUnits="userSpaceOnUse"
       id="id14-6" />
    <linearGradient
       y2="2.3961301"
       x2="3.27019"
       y1="1.96386"
       x1="3.27019"
       gradientUnits="userSpaceOnUse"
       id="linearGradient3382-2">
      <stop
         id="stop3384-5"
         style="stop-opacity:1; stop-color:white"
         offset="0" />
      <stop
         id="stop3386-2"
         style="stop-opacity:0; stop-color:white"
         offset="1" />
    </linearGradient>
    <mask
       id="id6-4">
      <linearGradient
         y2="2.3961301"
         x2="3.27019"
         y1="1.96386"
         x1="3.27019"
         gradientUnits="userSpaceOnUse"
         id="id7-2">
        <stop
           id="stop3128-9"
           style="stop-opacity:1; stop-color:white"
           offset="0" />
        <stop
           id="stop3130-9"
           style="stop-opacity:0; stop-color:white"
           offset="1" />
      </linearGradient>
      <rect
         id="rect3132-4"
         height="0.465563"
         width="0.65544897"
         y="1.94721"
         x="2.9424601"
         style="fill:url(#id7-2)" />
    </mask>
    <inkscape:perspective
       sodipodi:type="inkscape:persp3d"
       inkscape:vp_x="0 : 0.5 : 1"
       inkscape:vp_y="0 : 1000 : 0"
       inkscape:vp_z="1 : 0.5 : 1"
       inkscape:persp3d-origin="0.5 : 0.33333333 : 1"
       id="perspective3373-6" />
    <inkscape:perspective
       id="perspective3412-2"
       inkscape:persp3d-origin="372.04724 : 350.78739 : 1"
       inkscape:vp_z="744.09448 : 526.18109 : 1"
       inkscape:vp_y="0 : 1000 : 0"
       inkscape:vp_x="0 : 526.18109 : 1"
       sodipodi:type="inkscape:persp3d" />
    <radialGradient
       fy="9.7279596"
       fx="1.71676"
       r="0.29498801"
       cy="9.7279596"
       cx="1.71676"
       gradientUnits="userSpaceOnUse"
       id="id12-2">
      <stop
         id="stop3151-3"
         style="stop-color:#75C5F0"
         offset="0" />
      <stop
         id="stop3153-8"
         style="stop-color:#007CC3"
         offset="1" />
    </radialGradient>
    <radialGradient
       fy="2.1879101"
       fx="3.27019"
       r="0.420028"
       cy="2.1879101"
       cx="3.27019"
       xlink:href="#id12-2"
       gradientUnits="userSpaceOnUse"
       id="id14-68" />
    <linearGradient
       y2="2.3961301"
       x2="3.27019"
       y1="1.96386"
       x1="3.27019"
       gradientUnits="userSpaceOnUse"
       id="linearGradient3382-8">
      <stop
         id="stop3384-8"
         style="stop-opacity:1; stop-color:white"
         offset="0" />
      <stop
         id="stop3386-5"
         style="stop-opacity:0; stop-color:white"
         offset="1" />
    </linearGradient>
    <mask
       id="id6-3">
      <linearGradient
         y2="2.3961301"
         x2="3.27019"
         y1="1.96386"
         x1="3.27019"
         gradientUnits="userSpaceOnUse"
         id="id7-8">
        <stop
           id="stop3128-0"
           style="stop-opacity:1; stop-color:white"
           offset="0" />
        <stop
           id="stop3130-7"
           style="stop-opacity:0; stop-color:white"
           offset="1" />
      </linearGradient>
      <rect
         id="rect3132-41"
         height="0.465563"
         width="0.65544897"
         y="1.94721"
         x="2.9424601"
         style="fill:url(#id7-8)" />
    </mask>
    <inkscape:perspective
       sodipodi:type="inkscape:persp3d"
       inkscape:vp_x="0 : 0.5 : 1"
       inkscape:vp_y="0 : 1000 : 0"
       inkscape:vp_z="1 : 0.5 : 1"
       inkscape:persp3d-origin="0.5 : 0.33333333 : 1"
       id="perspective3373-8" />
    <inkscape:perspective
       id="perspective3412-8"
       inkscape:persp3d-origin="372.04724 : 350.78739 : 1"
       inkscape:vp_z="744.09448 : 526.18109 : 1"
       inkscape:vp_y="0 : 1000 : 0"
       inkscape:vp_x="0 : 526.18109 : 1"
       sodipodi:type="inkscape:persp3d" />
  </defs>
  <sodipodi:namedview
     id="base"
     pagecolor="#ffffff"
     bordercolor="#666666"
     borderopacity="1.0"
     inkscape:pageopacity="0.0"
     inkscape:pageshadow="2"
     inkscape:zoom="16"
     inkscape:cx="441.26551"
     inkscape:cy="372.65612"
     inkscape:document-units="px"
     inkscape:current-layer="bar"
     showgrid="false"
     inkscape:window-width="1920"
     inkscape:window-height="993"
     inkscape:window-x="0"
     inkscape:window-y="27"
     inkscape:window-maximized="1"
     showguides="true"
     inkscape:guide-bbox="true">
    <sodipodi:guide
       orientation="1,0"
       position="54,576"
       id="guide3846" />
    <sodipodi:guide
       orientation="1,0"
       position="913,541"
       id="guide3848" />
  </sodipodi:namedview>
  <metadata
     id="metadata7">
    <rdf:RDF>
      <cc:Work
         rdf:about="">
        <dc:format>image/svg+xml</dc:format>
        <dc:type
           rdf:resource="http://purl.org/dc/dcmitype/StillImage" />
        <dc:title />
      </cc:Work>
    </rdf:RDF>
  </metadata>
  <g
     inkscape:label="Ebene 1"
     inkscape:groupmode="layer"
     id="layer1"
     transform="translate(0,-476.36218)">
    <g
       id="bar"
       transform="translate(0,-80)">
      <rect
         y="628.72675"
         x="1"
         height="241.19937"
         width="1024"
         id="rect3809-1"
         style="fill:#00a2e1;fill-opacity:1" />
      <text
         xml:space="preserve"
         style="font-size:64px;font-style:normal;font-weight:normal;line-height:125%;letter-spacing:0px;word-spacing:0px;fill:#ffffff;fill-opacity:1;stroke:none;font-family:Sans"
         x="424.54688"
         y="771.85767"
         id="text2"
         sodipodi:linespacing="125%"
         inkscape:label="text2"><tspan
           sodipodi:role="line"
           id="tspan3105"
           x="424.54688"
           y="771.85767"
           style="font-size:64px;font-style:normal;font-variant:normal;font-weight:300;font-stretch:normal;text-align:start;line-height:125%;writing-mode:lr-tb;text-anchor:start;fill:#ffffff;fill-opacity:1;font-family:Open Sans;-inkscape-font-specification:Open Sans Light">Pause</tspan></text>
      <text
         xml:space="preserve"
         style="font-size:40px;font-style:normal;font-weight:normal;line-height:125%;letter-spacing:0px;word-spacing:0px;fill:#000000;fill-opacity:1;stroke:none;font-family:Sans"
         x="360"
         y="131"
         id="text3875"
         sodipodi:linespacing="125%"
         transform="translate(0,556.36218)"><tspan
           sodipodi:role="line"
           id="tspan3877"></tspan></text>
      <text
         xml:space="preserve"
         style="font-size:64px;font-style:normal;font-weight:normal;line-height:125%;letter-spacing:0px;word-spacing:0px;opacity:0.25;fill:#ffffff;fill-opacity:1;stroke:none;font-family:Sans"
         x="423.70312"
         y="773.32642"
         id="text1"
         sodipodi:linespacing="125%"><tspan
           sodipodi:role="line"
           id="tspan3105-9"
           x="423.70312"
           y="773.32642"
           style="font-size:64px;font-style:normal;font-variant:normal;font-weight:300;font-stretch:normal;text-align:start;line-height:125%;writing-mode:lr-tb;text-anchor:start;fill:#ffffff;fill-opacity:1;font-family:Open Sans;-inkscape-font-specification:Open Sans Light">Grade</tspan></text>
    </g>
    <flowRoot
       xml:space="preserve"
       id="flowRoot3815"
       style="font-size:40px;font-style:normal;font-weight:normal;text-align:end;line-height:125%;letter-spacing:0px;word-spacing:0px;text-anchor:end;fill:#000000;fill-opacity:1;stroke:none;font-family:Sans"
       transform="translate(-258,510.36218)"><flowRegion
         id="flowRegion3817"><rect
           id="rect3819"
           width="486.27167"
           height="22.430193"
           x="790.53937"
           y="312.37131"
           style="text-align:end;text-anchor:end" /></flowRegion><flowPara
         id="flowPara3821"
         style="font-size:18px;font-style:normal;font-variant:normal;font-weight:normal;font-stretch:normal;text-align:end;line-height:125%;writing-mode:lr-tb;text-anchor:end;fill:#ffffff;fill-opacity:1;font-family:Sans;-inkscape-font-specification:Sans">http://programm.froscon.de/2014/events/$id.html</flowPara></flowRoot>    <g
       transform="matrix(0.99977769,0,0,0.99977769,427.89673,849.00986)"
       id="layer1-1"
       inkscape:label="Layer 1">
      <ellipse
         d="m 3.47165,2.82919 c 0,0.012796 -0.090197,0.023169 -0.20146,0.023169 -0.1112633,0 -0.20146,-0.010373 -0.20146,-0.023169 0,-0.012796 0.090197,-0.023169 0.20146,-0.023169 0.1112633,0 0.20146,0.010373 0.20146,0.023169 z"
         class="fil1"
         cx="3.27019"
         cy="2.82919"
         rx="0.20146"
         ry="0.023169201"
         id="ellipse3221"
         sodipodi:cx="3.27019"
         sodipodi:cy="2.82919"
         sodipodi:rx="0.20146"
         sodipodi:ry="0.023169201"
         style="fill:#dededd;fill-rule:evenodd"
         transform="matrix(89.999997,0,0,89.999997,8.29985,-83.44764)" />
      <path
         class="fil2"
         d="m 194.53954,106.20485 0,16.44165 15.83721,0 c 2.33712,0 4.27149,0.8064 5.80284,2.41794 1.53108,1.61181 2.29716,3.54618 2.29716,5.80284 0,2.25639 -0.7659,4.17087 -2.29716,5.74227 -1.53144,1.57149 -3.46608,2.35737 -5.80284,2.35737 l -15.83721,0 0,19.94742 c 0,2.33712 -0.7857,4.29201 -2.35737,5.8635 -1.57149,1.57149 -3.52593,2.35737 -5.86314,2.35737 -2.33748,0 -4.29237,-0.7857 -5.8635,-2.35737 -1.57149,-1.57149 -2.35737,-3.52593 -2.35737,-5.8635 l 0,-60.809126 c 0,-2.09556 0.7866,-3.98979 2.35737,-5.68206 1.57149,-1.69227 3.52593,-2.53881 5.8635,-2.53881 l 32.15763,0 c 2.25639,0 4.17078,0.8064 5.74227,2.41794 1.57113,1.61181 2.35737,3.54618 2.35737,5.80284 0,2.337116 -0.7857,4.271846 -2.35737,5.802836 -1.57113,1.53108 -3.48624,2.2968 -5.74227,2.2968 l -23.93721,0 z m 37.78371,61.05114 c -2.17629,0 -3.98979,-0.7056 -5.44041,-2.11572 -1.45026,-1.41021 -2.41794,-3.27861 -2.41794,-5.62149 l 0,-22.36536 c 0,-3.86928 0.90711,-7.51536 2.47851,-10.94067 1.57149,-3.42495 3.66696,-6.40773 6.28623,-8.94618 2.61918,-2.53881 5.68242,-4.55355 9.18819,-6.04449 3.50577,-1.49067 7.2315,-2.37618 11.18268,-2.47851 2.25531,-0.0585 4.13046,0.7659 5.62149,2.29716 1.49067,1.53108 2.39778,3.38067 2.47815,5.56083 0.0804,2.17449 -0.7659,4.00995 -2.2968,5.50062 -1.53108,1.49103 -3.42459,2.31345 -5.68206,2.35773 -1.85319,0.0361 -3.5865,0.3429 -5.1984,1.02753 -1.61145,0.6849 -3.02247,1.63206 -4.23144,2.84103 -1.20897,1.20897 -2.17593,2.63943 -2.90124,4.29165 -0.7254,1.65222 -1.08819,3.44583 -1.08819,5.37984 l 0,22.00248 c 0,2.10123 -0.94716,3.82851 -2.35737,5.1984 -1.41021,1.37016 -3.28428,2.05515 -5.62149,2.05515 z m 133.68869,-61.05114 c -1.93428,0 -3.56634,0.7056 -4.89618,2.11572 -1.32984,1.41057 -2.03526,3.1635 -2.11572,5.25897 0.0804,1.85355 0.7857,3.44547 2.11572,4.77531 1.32984,1.32984 2.96181,1.99449 4.89618,1.99449 l 8.22087,0 c 2.98206,0 5.86314,0.6048 8.64387,1.8135 2.78046,1.20897 5.25861,2.88144 7.4349,5.01696 2.17593,2.13588 3.90861,4.63428 5.1984,7.49547 1.28943,2.86119 1.93428,5.90346 1.93428,9.12753 0,3.14325 -0.6048,6.12531 -1.8135,8.94618 -1.20897,2.82087 -2.86119,5.27877 -4.95675,7.37433 -2.09547,2.09547 -4.55346,3.76794 -7.37433,5.01696 -2.82087,1.24938 -5.84325,1.91448 -9.06696,1.99485 l -21.51918,0 c -2.41794,0 -4.39227,-0.7857 -5.92371,-2.35737 -1.53144,-1.57185 -2.29716,-3.52593 -2.29716,-5.8635 0,-2.17593 0.7857,-4.06989 2.35737,-5.68206 1.57185,-1.61181 3.52629,-2.41758 5.8635,-2.41758 l 21.51918,0 c 1.85346,0 3.50577,-0.6849 4.95639,-2.05551 1.45098,-1.3698 2.17629,-3.02211 2.17629,-4.95639 0,-2.0151 -0.7056,-3.68748 -2.11572,-5.01732 -1.41057,-1.32984 -3.04263,-2.0349 -4.89618,-2.11536 l -8.34165,0 c -3.06279,-0.0808 -6.00453,-0.7254 -8.82531,-1.93428 -2.82087,-1.20897 -5.29902,-2.84103 -7.4349,-4.89618 -2.13588,-2.05551 -3.8484,-4.49325 -5.13783,-7.31412 -1.28979,-2.82087 -1.93428,-5.88366 -1.93428,-9.18819 0,-2.98206 0.6039,-5.8833 1.81314,-8.70417 1.20897,-2.82087 2.88144,-5.319176 5.01732,-7.495466 2.13552,-2.17593 4.61412,-3.92886 7.4349,-5.25897 2.82087,-1.32984 5.84289,-1.99449 9.06696,-1.99449 l 21.51882,0 c 2.17629,0 4.02984,0.7857 5.56119,2.35737 1.53144,1.57149 2.37753,3.52593 2.53881,5.8635 0,2.337116 -0.7659,4.271486 -2.29716,5.802836 -1.53108,1.53108 -3.46536,2.2968 -5.80284,2.2968 l -21.51882,0 z m 80.45892,34.57557 c 2.17593,0 4.06989,0.7857 5.6817,2.35737 1.61217,1.57185 2.41794,3.52593 2.41794,5.8635 0,0.8055 -0.1413,1.57149 -0.423,2.2968 -0.2817,0.7254 -0.6246,1.49103 -1.02753,2.29716 -2.33721,4.11021 -5.64165,7.39449 -9.9135,9.85284 -4.27149,2.45799 -8.86536,3.68712 -13.7817,3.68712 -3.54618,0 -6.97149,-0.7047 -10.27593,-2.11572 -3.30458,-1.41029 -6.22604,-3.34458 -8.76482,-5.80293 -2.53878,-2.45799 -4.55385,-5.35961 -6.04488,-8.70413 -1.49067,-3.34489 -2.23619,-6.95162 -2.23619,-10.82016 l 0,-22.24413 c 0,-3.62691 0.7047,-7.09263 2.11536,-10.3968 1.41057,-3.30444 3.3651,-6.22629 5.8635,-8.7651 2.4984,-2.53881 5.4,-4.55355 8.70417,-6.04449 3.30444,-1.49103 6.85062,-2.2365 10.63881,-2.2365 4.83588,0 9.38943,1.22922 13.66083,3.68721 4.27185,2.45835 7.65675,5.8635 10.15515,10.21572 0.3222,0.5643 0.6246,1.24902 0.90675,2.05515 0.2817,0.8055 0.423,1.57149 0.423,2.2968 0,2.25675 -0.8055,4.19103 -2.41794,5.80284 -1.61181,1.61217 -3.54618,2.41794 -5.80284,2.41794 -1.77309,0 -3.22371,-0.4635 -4.35186,-1.39005 -1.12851,-0.92691 -2.13588,-2.07531 -3.02247,-3.44547 -0.96732,-1.61181 -2.27691,-2.9016 -3.92922,-3.86856 -1.65222,-0.96732 -3.52593,-1.45098 -5.62149,-1.45098 -1.53144,0 -2.96181,0.2826 -4.29165,0.8469 -1.32984,0.5643 -2.4984,1.35 -3.50613,2.35737 -1.00737,1.00737 -1.81314,2.19618 -2.41758,3.56634 -0.6048,1.37016 -0.90675,2.82087 -0.90675,4.35222 l 0,22.24413 c 0,1.53144 0.3024,2.98206 0.90675,4.35222 0.6048,1.37016 1.41021,2.55897 2.41758,3.56634 1.00773,1.00737 2.17629,1.79325 3.50613,2.35737 1.32984,0.5643 2.76021,0.8469 4.29165,0.8469 2.09547,0 3.94902,-0.4833 5.56119,-1.45098 1.61181,-0.96696 2.94165,-2.25639 3.98943,-3.86856 0.8865,-1.3698 1.8135,-2.4984 2.78046,-3.3849 0.96732,-0.8865 2.53881,-1.32984 4.7151,-1.32984 z m 41.28912,-31.06953 c 3.94938,0 7.69716,0.7659 11.24325,2.2968 3.54618,1.53144 6.64902,3.62691 9.30861,6.2865 2.65995,2.65959 4.77531,5.76252 6.34716,9.30897 1.57149,3.54618 2.35737,7.37433 2.35737,11.48454 0,4.02984 -0.7659,7.79778 -2.29716,11.30346 -1.53108,3.50613 -3.60639,6.58881 -6.22593,9.2484 -2.61918,2.65959 -5.70222,4.75515 -9.2484,6.2865 -3.54618,1.53144 -7.37433,2.29716 -11.4849,2.29716 -4.02948,0 -7.81758,-0.7254 -11.36376,-2.17629 -3.54618,-1.45062 -6.64938,-3.48552 -9.30897,-6.10515 -2.65959,-2.61918 -4.75515,-5.70186 -6.28614,-9.2484 -1.53144,-3.54618 -2.29716,-7.41474 -2.29716,-11.60577 0,-4.02984 0.7452,-7.79742 2.2365,-11.30346 1.49103,-3.50577 3.54618,-6.56856 6.16572,-9.18783 2.61918,-2.61918 5.72211,-4.71474 9.30861,-6.2865 3.5865,-1.57149 7.4349,-2.43783 11.5452,-2.59902 z m 0,15.83685 c -1.85346,0 -3.58614,0.3429 -5.1984,1.02753 -1.61181,0.6849 -3.04227,1.63206 -4.29165,2.84103 -1.24902,1.20897 -2.2365,2.63979 -2.96181,4.29201 -0.7254,1.65186 -1.08819,3.4452 -1.08819,5.37948 0,1.85382 0.3627,3.60675 1.08819,5.25897 0.7254,1.65222 1.71279,3.10284 2.96181,4.35222 1.24938,1.24902 2.67984,2.2365 4.29165,2.96181 1.61217,0.7254 3.34485,1.08819 5.1984,1.08819 1.85382,0 3.60675,-0.3627 5.25897,-1.08819 1.65222,-0.7254 3.08268,-1.71288 4.29165,-2.96181 1.20897,-1.24938 2.17629,-2.7 2.9016,-4.35222 0.7254,-1.65222 1.08783,-3.40515 1.08783,-5.25897 -0.1611,-3.70737 -1.49067,-6.85062 -3.98943,-9.42948 -2.4984,-2.57922 -5.68206,-3.94938 -9.55062,-4.11057 z m 63.17154,-17.28783 c 3.86856,0 7.57593,0.7056 11.12211,2.11572 3.54618,1.41057 6.64902,3.3849 9.30861,5.92371 2.65959,2.53881 4.79556,5.54103 6.40737,9.00675 1.61181,3.46572 2.41794,7.2135 2.41794,11.24289 l 0,22.36536 c 0,2.09556 -0.7452,3.90897 -2.2365,5.44041 -1.49103,1.53108 -3.32469,2.33712 -5.50062,2.41758 -2.17593,0 -4.05,-0.7047 -5.62149,-2.11536 -1.57185,-1.41057 -2.35737,-3.20382 -2.35737,-5.37984 l 0,-21.76083 c 0,-1.85382 -0.3429,-3.60675 -1.02753,-5.25897 -0.6849,-1.65222 -1.65222,-3.08268 -2.9016,-4.29165 -1.24938,-1.20897 -2.7,-2.17593 -4.35222,-2.90124 -1.65222,-0.7254 -3.44547,-1.08819 -5.37984,-1.08819 -1.77309,0 -3.46536,0.3429 -5.07753,1.02753 -1.61181,0.6849 -3.02211,1.59165 -4.23108,2.72016 -1.20897,1.12815 -2.17593,2.4984 -2.9016,4.11021 -0.7254,1.61181 -1.08783,3.30444 -1.08783,5.07753 l 0,22.00248 c 0,2.09547 -0.8064,3.92913 -2.41794,5.50062 -1.61181,1.57185 -3.46572,2.35737 -5.56119,2.35737 -2.09547,0 -3.94902,-0.7254 -5.56083,-2.17593 -1.61217,-1.45062 -2.41794,-3.22371 -2.41794,-5.31918 l 0,-21.76083 c 0.0804,-4.02984 0.8667,-7.81794 2.35737,-11.36412 1.49103,-3.54618 3.54618,-6.64902 6.16572,-9.30861 2.61918,-2.65959 5.70186,-4.75515 9.2484,-6.2865 3.54618,-1.53144 7.41474,-2.29716 11.60577,-2.29716 z"
         id="path3223"
         style="fill:#00a2e1;fill-rule:nonzero"
         inkscape:connector-curvature="0" />
      <path
         class="fil3"
         d="m 190.71274,177.79265 -5.30397,0 0,3.40083 4.43448,0 c 0.4086,0 0.7182,0.0927 0.91881,0.2754 0.2016,0.1854 0.3033,0.4302 0.3033,0.7398 0,0.3096 -0.1017,0.5535 -0.306,0.7335 -0.207,0.1827 -0.5139,0.2718 -0.91593,0.2718 l -4.43448,0 0,4.37877 c 0,0.5535 -0.1269,0.9684 -0.378,1.23768 -0.2502,0.2691 -0.5724,0.4023 -0.96552,0.4023 -0.396,0 -0.7209,-0.1368 -0.97155,-0.4086 -0.2502,-0.2727 -0.3771,-0.684 -0.3771,-1.23165 l 0,-10.22742 c 0,-0.387 0.0588,-0.702 0.1737,-0.9468 0.1143,-0.2448 0.2934,-0.4239 0.5382,-0.5355 0.2448,-0.1116 0.5571,-0.1674 0.93789,-0.1674 l 6.3468,0 c 0.4302,0 0.7488,0.0963 0.95598,0.2853 0.207,0.1917 0.3123,0.4392 0.3123,0.7488 0,0.3159 -0.1053,0.5661 -0.3123,0.7587 -0.207,0.189 -0.5256,0.2844 -0.95598,0.2844 z m 4.84902,7.86654 0,2.07 c 0,0.5013 -0.1179,0.8757 -0.3528,1.12644 -0.2349,0.2502 -0.5355,0.378 -0.8973,0.378 -0.3591,0 -0.6498,-0.1269 -0.882,-0.3807 -0.2286,-0.2538 -0.3438,-0.6282 -0.3438,-1.1232 l 0,-6.89139 c 0,-1.11078 0.4023,-1.66779 1.20681,-1.66779 0.4113,0 0.7056,0.1296 0.8883,0.3897 0.1827,0.2601 0.2817,0.6435 0.2997,1.15119 0.2943,-0.5076 0.5976,-0.891 0.9099,-1.15119 0.3123,-0.2601 0.7272,-0.3897 1.24686,-0.3897 0.5202,0 1.02438,0.1296 1.51335,0.3897 0.4887,0.2601 0.7335,0.603 0.7335,1.03356 0,0.2997 -0.1026,0.5508 -0.3123,0.7461 -0.2079,0.198 -0.4329,0.2934 -0.675,0.2934 -0.09,0 -0.3096,-0.0556 -0.6561,-0.1665 -0.3501,-0.1116 -0.6561,-0.1674 -0.92196,-0.1674 -0.3618,0 -0.6597,0.0963 -0.8883,0.2853 -0.2286,0.1917 -0.4086,0.4734 -0.5355,0.8478 -0.1269,0.3744 -0.2133,0.8199 -0.2628,1.33974 -0.0464,0.5166 -0.0712,1.14516 -0.0712,1.88784 z m 12.12129,-0.8514 -4.83984,0 c 0.006,0.5634 0.1206,1.0584 0.3402,1.48851 0.2196,0.4302 0.5139,0.7515 0.8793,0.9684 0.3654,0.2196 0.7704,0.3285 1.20969,0.3285 0.297,0 0.567,-0.034 0.8109,-0.1053 0.2439,-0.068 0.4824,-0.1764 0.7119,-0.3249 0.2322,-0.1485 0.4428,-0.3069 0.6345,-0.477 0.1953,-0.1701 0.4455,-0.3996 0.7551,-0.6903 0.1269,-0.108 0.3069,-0.1638 0.5418,-0.1638 0.2538,0 0.4608,0.0709 0.6183,0.2097 0.1548,0.1395 0.2349,0.3348 0.2349,0.5886 0,0.2232 -0.0897,0.486 -0.2628,0.7857 -0.1764,0.297 -0.4392,0.585 -0.7956,0.8604 -0.3528,0.2754 -0.7947,0.504 -1.33056,0.684 -0.5355,0.1827 -1.15119,0.2727 -1.84428,0.2727 -1.59057,0 -2.82825,-0.4518 -3.71016,-1.35855 -0.882,-0.90675 -1.32453,-2.1384 -1.32453,-3.6918 0,-0.7299 0.108,-1.41129 0.3285,-2.03634 0.2169,-0.6246 0.5346,-1.16046 0.94995,-1.60902 0.4176,-0.4455 0.93114,-0.7893 1.54422,-1.02753 0.6093,-0.2385 1.28727,-0.3591 2.02995,-0.3591 0.9684,0 1.79784,0.2043 2.48778,0.6129 0.693,0.4086 1.21005,0.93438 1.55655,1.58103 0.3438,0.6471 0.5166,1.30608 0.5166,1.97748 0,0.6219 -0.18,1.02438 -0.5355,1.21005 -0.3564,0.1827 -0.8604,0.2754 -1.50696,0.2754 z m -4.83984,-1.4049 4.48686,0 c -0.0588,-0.8451 -0.288,-1.47933 -0.684,-1.89711 -0.396,-0.4203 -0.91593,-0.6309 -1.56258,-0.6309 -0.6192,0 -1.12356,0.2133 -1.51938,0.6372 -0.396,0.4266 -0.6372,1.0584 -0.7209,1.89072 z m 15.8715,1.4049 -4.83984,0 c 0.006,0.5634 0.1206,1.0584 0.3402,1.48851 0.2196,0.4302 0.5139,0.7515 0.8793,0.9684 0.3654,0.2196 0.7704,0.3285 1.20969,0.3285 0.297,0 0.567,-0.034 0.8109,-0.1053 0.2439,-0.068 0.4824,-0.1764 0.7119,-0.3249 0.2322,-0.1485 0.4428,-0.3069 0.6345,-0.477 0.1953,-0.1701 0.4455,-0.3996 0.7551,-0.6903 0.1269,-0.108 0.3069,-0.1638 0.5418,-0.1638 0.2538,0 0.4608,0.0709 0.6183,0.2097 0.1548,0.1395 0.2349,0.3348 0.2349,0.5886 0,0.2232 -0.0896,0.486 -0.2628,0.7857 -0.1764,0.297 -0.4392,0.585 -0.7956,0.8604 -0.3528,0.2754 -0.7947,0.504 -1.33056,0.684 -0.5355,0.1827 -1.15119,0.2727 -1.84428,0.2727 -1.59057,0 -2.82825,-0.4518 -3.71016,-1.35855 -0.882,-0.90675 -1.32444,-2.1384 -1.32444,-3.6918 0,-0.7299 0.108,-1.41129 0.3285,-2.03634 0.2169,-0.6246 0.5346,-1.16046 0.94995,-1.60902 0.4176,-0.4455 0.93114,-0.7893 1.54422,-1.02753 0.6093,-0.2385 1.28727,-0.3591 2.02995,-0.3591 0.9684,0 1.79784,0.2043 2.48778,0.6129 0.693,0.4086 1.21005,0.93438 1.55655,1.58103 0.3438,0.6471 0.5166,1.30608 0.5166,1.97748 0,0.6219 -0.18,1.02438 -0.5355,1.21005 -0.3564,0.1827 -0.8604,0.2754 -1.50696,0.2754 z m -4.83984,-1.4049 4.48686,0 c -0.0588,-0.8451 -0.288,-1.47933 -0.684,-1.89711 -0.396,-0.4203 -0.91593,-0.6309 -1.56258,-0.6309 -0.6192,0 -1.12356,0.2133 -1.51938,0.6372 -0.396,0.4266 -0.6372,1.0584 -0.7209,1.89072 z m 19.86345,4.43448 c -0.6003,0.4644 -1.17918,0.8136 -1.73619,1.04598 -0.5598,0.2322 -1.18809,0.3501 -1.88154,0.3501 -0.6372,0 -1.19448,-0.1269 -1.67382,-0.378 -0.4797,-0.2502 -0.8514,-0.5877 -1.11123,-1.01799 -0.2601,-0.4302 -0.3897,-0.8946 -0.3897,-1.39572 0,-0.6777 0.2133,-1.25325 0.6435,-1.73304 0.4302,-0.477 1.01799,-0.7983 1.76985,-0.95913 0.1548,-0.0372 0.5445,-0.1179 1.16964,-0.2448 0.6219,-0.1296 1.15443,-0.2448 1.59984,-0.3501 0.4428,-0.108 0.92547,-0.2349 1.44531,-0.387 -0.0312,-0.6534 -0.1611,-1.13283 -0.3933,-1.43613 -0.2349,-0.306 -0.7146,-0.4581 -1.44846,-0.4581 -0.6282,0 -1.1016,0.0865 -1.41696,0.2628 -0.3186,0.1764 -0.5913,0.4365 -0.8172,0.7893 -0.2259,0.3501 -0.387,0.5814 -0.4797,0.693 -0.0954,0.1116 -0.297,0.1674 -0.603,0.1674 -0.2781,0 -0.5202,-0.0896 -0.7209,-0.2691 -0.2043,-0.1764 -0.3033,-0.405 -0.3033,-0.684 0,-0.4338 0.1512,-0.8568 0.4608,-1.26882 0.3096,-0.4113 0.7893,-0.7488 1.44216,-1.01484 0.6525,-0.2664 1.4634,-0.3996 2.43819,-0.3996 1.08954,0 1.94346,0.1296 2.56536,0.387 0.6219,0.2565 1.06155,0.6624 1.3185,1.21923 0.2565,0.5535 0.387,1.2933 0.387,2.21247 0,0.5787 -0.003,1.07397 -0.006,1.47618 -0.003,0.405 -0.006,0.8568 -0.0124,1.35252 0,0.4644 0.0772,0.94995 0.2322,1.45413 0.1548,0.5049 0.2286,0.8298 0.2286,0.97479 0,0.2538 -0.1179,0.486 -0.3555,0.693 -0.2385,0.2079 -0.5103,0.3132 -0.8109,0.3132 -0.2538,0 -0.5049,-0.1206 -0.7515,-0.3591 -0.2511,-0.2385 -0.5103,-0.5814 -0.7893,-1.03644 z m -0.16398,-3.58031 c -0.3618,0.1332 -0.891,0.2727 -1.58139,0.4212 -0.693,0.1485 -1.17279,0.2565 -1.43892,0.3285 -0.2664,0.068 -0.5202,0.2043 -0.7614,0.4086 -0.2421,0.2007 -0.3618,0.4824 -0.3618,0.8451 0,0.3771 0.1422,0.6966 0.4266,0.95922 0.2853,0.2628 0.6561,0.3933 1.11402,0.3933 0.4887,0 0.94077,-0.108 1.35531,-0.3213 0.4149,-0.2133 0.7182,-0.4923 0.91314,-0.8298 0.2223,-0.3744 0.3339,-0.99 0.3339,-1.85031 l 0,-0.3528 z m 7.1883,-3.71943 0,0.2997 c 0.4365,-0.5751 0.91278,-0.99639 1.4265,-1.26567 0.5166,-0.2691 1.11078,-0.4023 1.78227,-0.4023 0.6534,0 1.23489,0.1422 1.74861,0.4266 0.5139,0.2817 0.8973,0.684 1.15119,1.20366 0.1638,0.3033 0.2691,0.6282 0.3186,0.98118 0.0464,0.3501 0.0712,0.7947 0.0712,1.33974 l 0,4.60773 c 0,0.495 -0.1143,0.8694 -0.3402,1.1232 -0.2259,0.2538 -0.5202,0.3807 -0.8847,0.3807 -0.3681,0 -0.6651,-0.1296 -0.8973,-0.3897 -0.2286,-0.2601 -0.3438,-0.6309 -0.3438,-1.11402 l 0,-4.12479 c 0,-0.8172 -0.1152,-1.44216 -0.3402,-1.87551 -0.2259,-0.4302 -0.6777,-0.6471 -1.35252,-0.6471 -0.4419,0 -0.8451,0.1296 -1.20681,0.3933 -0.3618,0.2628 -0.6282,0.6246 -0.7947,1.08603 -0.1206,0.3681 -0.1827,1.05552 -0.1827,2.06712 l 0,3.10077 c 0,0.5013 -0.1179,0.8757 -0.3501,1.12644 -0.2322,0.2502 -0.5319,0.378 -0.90072,0.378 -0.3591,0 -0.6498,-0.1296 -0.882,-0.3897 -0.2286,-0.2601 -0.3438,-0.6309 -0.3438,-1.11402 l 0,-7.15428 c 0,-0.4707 0.1017,-0.8235 0.3096,-1.05516 0.2043,-0.2322 0.486,-0.3501 0.8415,-0.3501 0.2169,0 0.4149,0.0524 0.5913,0.1548 0.1737,0.1026 0.3159,0.2565 0.4212,0.4617 0.1053,0.207 0.1575,0.4581 0.1575,0.7515 z m 15.74505,7.28118 0,-0.2448 c -0.3312,0.3807 -0.6597,0.6903 -0.98433,0.92835 -0.3213,0.2385 -0.6741,0.4212 -1.05201,0.5454 -0.3771,0.1233 -0.7893,0.1854 -1.23768,0.1854 -0.5913,0 -1.13877,-0.1269 -1.6434,-0.378 -0.504,-0.2502 -0.94356,-0.6066 -1.31211,-1.07361 -0.3681,-0.4644 -0.6471,-1.01196 -0.8379,-1.64016 -0.189,-0.6282 -0.2853,-1.30887 -0.2853,-2.03913 0,-1.54737 0.378,-2.75418 1.13283,-3.61773 0.7551,-0.8631 1.75149,-1.29654 2.98314,-1.29654 0.7146,0 1.3149,0.1233 1.80387,0.3681 0.4887,0.2448 0.96876,0.6192 1.43289,1.12959 l 0,-3.65454 c 0,-0.5076 0.1017,-0.891 0.3033,-1.15119 0.2043,-0.2601 0.4923,-0.3897 0.8667,-0.3897 0.3744,0 0.6624,0.1206 0.8667,0.3591 0.2016,0.2385 0.3033,0.5913 0.3033,1.05516 l 0,10.91412 c 0,0.4707 -0.108,0.8262 -0.3249,1.06155 -0.2196,0.2349 -0.5013,0.3528 -0.8451,0.3528 -0.3375,0 -0.6192,-0.1242 -0.8388,-0.3681 -0.2196,-0.2448 -0.3312,-0.5913 -0.3312,-1.04598 z m -4.86778,-3.6358 c 0,0.6714 0.1053,1.24407 0.31229,1.71423 0.207,0.4698 0.495,0.8262 0.85681,1.06443 0.36179,0.2385 0.75869,0.3591 1.18844,0.3591 0.4338,0 0.8325,-0.1143 1.19124,-0.3402 0.3591,-0.2259 0.6471,-0.5724 0.8604,-1.04283 0.2133,-0.4671 0.3213,-1.05237 0.3213,-1.75464 0,-0.6561 -0.108,-1.22562 -0.3213,-1.69902 -0.2133,-0.4734 -0.504,-0.8352 -0.8694,-1.08603 -0.3654,-0.2511 -0.7677,-0.378 -1.20078,-0.378 -0.4545,0 -0.8604,0.1269 -1.21607,0.3834 -0.3555,0.2565 -0.6309,0.6282 -0.82891,1.10799 -0.1953,0.4797 -0.2943,1.03644 -0.2943,1.67103 z m 20.35241,-8.69247 c 1.38015,0 2.56212,0.2781 3.55248,0.8388 0.98712,0.5598 1.73583,1.35216 2.24361,2.38248 0.5076,1.03041 0.7614,2.24046 0.7614,3.63294 0,1.02753 -0.1395,1.95876 -0.4176,2.80062 -0.2781,0.8388 -0.693,1.56897 -1.2501,2.18484 -0.5571,0.6156 -1.24083,1.08603 -2.04876,1.41417 -0.8109,0.3249 -1.73907,0.4887 -2.78505,0.4887 -1.03959,0 -1.97118,-0.1674 -2.79423,-0.5049 -0.8199,-0.3339 -1.50696,-0.8073 -2.05758,-1.41732 -0.5508,-0.6093 -0.96552,-1.34613 -1.24722,-2.2032 -0.2817,-0.8568 -0.4212,-1.78551 -0.4212,-2.78181 0,-1.02123 0.1458,-1.95876 0.4392,-2.8098 0.2943,-0.8541 0.7182,-1.57815 1.27521,-2.17557 0.5571,-0.6003 1.23129,-1.05804 2.02995,-1.37376 0.7983,-0.3186 1.70505,-0.477 2.7198,-0.477 z m 3.82779,6.83577 c 0,-0.97479 -0.1575,-1.81665 -0.4698,-2.53134 -0.3159,-0.7119 -0.7641,-1.25325 -1.34928,-1.61856 -0.5814,-0.3654 -1.2501,-0.5472 -2.00835,-0.5472 -0.5382,0 -1.03356,0.1017 -1.49139,0.3033 -0.4554,0.2043 -0.8478,0.4986 -1.17918,0.8847 -0.3276,0.387 -0.5877,0.882 -0.7794,1.48212 -0.189,0.6003 -0.2853,1.27809 -0.2853,2.02716 0,0.7551 0.0963,1.43892 0.2853,2.0484 0.1917,0.6102 0.4608,1.11717 0.8073,1.51938 0.3465,0.4023 0.7461,0.7029 1.19763,0.90072 0.4482,0.2007 0.94356,0.2997 1.48212,0.2997 0.6903,0 1.32129,-0.1737 1.8999,-0.5166 0.5787,-0.3429 1.0368,-0.8757 1.37727,-1.5966 0.3429,-0.7182 0.513,-1.60299 0.513,-2.655 z m 7.14222,-1.76706 0,0.297 c 0.4644,-0.5724 0.94995,-0.99639 1.45134,-1.26567 0.5013,-0.2691 1.07082,-0.4023 1.70505,-0.4023 0.7614,0 1.46376,0.1953 2.10438,0.5877 0.6408,0.3933 1.14804,0.96876 1.51938,1.72386 0.3717,0.7551 0.5571,1.64943 0.5571,2.68299 0,0.7614 -0.108,1.46052 -0.3213,2.09799 -0.2133,0.6372 -0.5103,1.17279 -0.8847,1.60614 -0.3744,0.4329 -0.8172,0.7641 -1.32768,0.99639 -0.5103,0.2322 -1.06119,0.3501 -1.64619,0.3501 -0.7083,0 -1.30284,-0.1422 -1.78227,-0.4275 -0.4797,-0.2817 -0.93789,-0.6993 -1.37412,-1.2501 l 0,3.71979 c 0,1.08603 -0.396,1.63062 -1.18845,1.63062 -0.4644,0 -0.7731,-0.1395 -0.9252,-0.4212 -0.1512,-0.2817 -0.2259,-0.6903 -0.2259,-1.2285 l 0,-10.68201 c 0,-0.4707 0.1017,-0.8235 0.3096,-1.05516 0.2043,-0.2322 0.486,-0.3501 0.8415,-0.3501 0.3501,0 0.6381,0.1206 0.8577,0.3591 0.2196,0.2385 0.3312,0.5814 0.3312,1.03041 z m 4.85217,3.59892 c 0,-0.6534 -0.099,-1.2132 -0.2997,-1.68345 -0.198,-0.4671 -0.477,-0.8262 -0.8298,-1.07685 -0.3528,-0.2511 -0.7452,-0.378 -1.17279,-0.378 -0.684,0 -1.25928,0.2691 -1.72989,0.8082 -0.4671,0.5382 -0.702,1.32732 -0.702,2.3733 0,0.98712 0.2322,1.75149 0.6993,2.29923 0.4644,0.5481 1.04283,0.8199 1.73268,0.8199 0.4086,0 0.792,-0.1206 1.14201,-0.3591 0.3501,-0.2385 0.6318,-0.5967 0.8415,-1.07361 0.2133,-0.477 0.3186,-1.05516 0.3186,-1.7298 z m 11.37546,0.6498 -4.83984,0 c 0.006,0.5634 0.1206,1.0584 0.3402,1.48851 0.2196,0.4302 0.5139,0.7515 0.8793,0.9684 0.3654,0.2196 0.7704,0.3285 1.20969,0.3285 0.297,0 0.567,-0.034 0.8109,-0.1053 0.2439,-0.068 0.4824,-0.1764 0.7119,-0.3249 0.2322,-0.1485 0.4428,-0.3069 0.6345,-0.477 0.1953,-0.1701 0.4455,-0.3996 0.7551,-0.6903 0.1269,-0.108 0.3069,-0.1638 0.5418,-0.1638 0.2538,0 0.4608,0.0709 0.6183,0.2097 0.1548,0.1395 0.2349,0.3348 0.2349,0.5886 0,0.2232 -0.0896,0.486 -0.2628,0.7857 -0.1764,0.297 -0.4392,0.585 -0.7956,0.8604 -0.3528,0.2754 -0.7947,0.504 -1.33056,0.684 -0.5355,0.1827 -1.15119,0.2727 -1.84428,0.2727 -1.59057,0 -2.82825,-0.4518 -3.71016,-1.35855 -0.882,-0.90675 -1.32453,-2.1384 -1.32453,-3.6918 0,-0.7299 0.108,-1.41129 0.3285,-2.03634 0.2169,-0.6246 0.5346,-1.16046 0.94995,-1.60902 0.4176,-0.4455 0.93123,-0.7893 1.54422,-1.02753 0.6093,-0.2385 1.28727,-0.3591 2.02995,-0.3591 0.9684,0 1.79784,0.2043 2.48778,0.6129 0.693,0.4086 1.21005,0.93438 1.55655,1.58103 0.3438,0.6471 0.5166,1.30608 0.5166,1.97748 0,0.6219 -0.18,1.02438 -0.5355,1.21005 -0.3564,0.1827 -0.8604,0.2754 -1.50696,0.2754 z m -4.83984,-1.4049 4.48686,0 c -0.0588,-0.8451 -0.288,-1.47933 -0.684,-1.89711 -0.396,-0.4203 -0.91593,-0.6309 -1.56258,-0.6309 -0.6192,0 -1.12356,0.2133 -1.51938,0.6372 -0.396,0.4266 -0.6372,1.0584 -0.7209,1.89072 z m 11.21418,-2.86551 0,0.2997 c 0.4365,-0.5751 0.91278,-0.99639 1.4265,-1.26567 0.5166,-0.2691 1.11078,-0.4023 1.78227,-0.4023 0.6534,0 1.23489,0.1422 1.74861,0.4266 0.5139,0.2817 0.8973,0.684 1.15119,1.20366 0.1638,0.3033 0.2691,0.6282 0.3186,0.98118 0.0464,0.3501 0.0712,0.7947 0.0712,1.33974 l 0,4.60773 c 0,0.495 -0.1143,0.8694 -0.3402,1.1232 -0.2259,0.2538 -0.5202,0.3807 -0.8847,0.3807 -0.3681,0 -0.6651,-0.1296 -0.8973,-0.3897 -0.2286,-0.2601 -0.3429,-0.6309 -0.3429,-1.11402 l 0,-4.12479 c 0,-0.8172 -0.1152,-1.44216 -0.3402,-1.87551 -0.2259,-0.4302 -0.6777,-0.6471 -1.35252,-0.6471 -0.4419,0 -0.8451,0.1296 -1.20681,0.3933 -0.3618,0.2628 -0.6282,0.6246 -0.7947,1.08603 -0.1206,0.3681 -0.1827,1.05552 -0.1827,2.06721 l 0,3.10077 c 0,0.5013 -0.1179,0.8757 -0.3501,1.12644 -0.2322,0.2502 -0.5319,0.378 -0.90072,0.378 -0.3591,0 -0.6498,-0.1296 -0.882,-0.3897 -0.2286,-0.2601 -0.3429,-0.6309 -0.3429,-1.11402 l 0,-7.15428 c 0,-0.4707 0.1017,-0.8235 0.3096,-1.05516 0.2043,-0.2322 0.486,-0.3501 0.8415,-0.3501 0.2169,0 0.4149,0.0524 0.5913,0.1548 0.1737,0.1026 0.3159,0.2565 0.4212,0.4617 0.1053,0.207 0.1575,0.4581 0.1575,0.7515 z m 23.87727,4.47768 c 0,0.8046 -0.207,1.52856 -0.6219,2.16918 -0.4113,0.6408 -1.01799,1.14201 -1.81629,1.50381 -0.7983,0.3618 -1.74222,0.5454 -2.83788,0.5454 -1.31175,0 -2.39175,-0.2475 -3.24603,-0.7425 -0.603,-0.3591 -1.09521,-0.8325 -1.47294,-1.42974 -0.3771,-0.594 -0.5661,-1.17279 -0.5661,-1.73619 0,-0.3249 0.1143,-0.6066 0.3402,-0.8379 0.2259,-0.2322 0.513,-0.3501 0.8667,-0.3501 0.2844,0 0.5229,0.0927 0.7209,0.2718 0.1953,0.1827 0.3618,0.4518 0.5013,0.8082 0.1701,0.4239 0.3528,0.7767 0.5508,1.06119 0.1953,0.2817 0.4734,0.5166 0.8298,0.7029 0.3555,0.1827 0.8235,0.2754 1.4049,0.2754 0.7983,0 1.44495,-0.1854 1.94319,-0.5571 0.4986,-0.3717 0.7488,-0.8352 0.7488,-1.39248 0,-0.4392 -0.1332,-0.7983 -0.4023,-1.07397 -0.2691,-0.2754 -0.6183,-0.486 -1.04283,-0.6282 -0.4266,-0.1458 -0.99639,-0.3006 -1.71108,-0.4644 -0.95319,-0.2232 -1.75464,-0.486 -2.3985,-0.783 -0.6435,-0.2997 -1.15407,-0.7083 -1.5318,-1.22526 -0.3771,-0.5166 -0.5661,-1.15758 -0.5661,-1.92474 0,-0.7308 0.198,-1.38051 0.5976,-1.94949 0.3987,-0.567 0.97758,-1.00278 1.73268,-1.30923 0.7551,-0.306 1.6434,-0.4581 2.66454,-0.4581 0.8163,0 1.52217,0.1017 2.11644,0.3033 0.5976,0.2043 1.08918,0.4698 1.48248,0.8073 0.3933,0.3339 0.6804,0.6867 0.8631,1.05516 0.18,0.3681 0.2727,0.7272 0.2727,1.08 0,0.3186 -0.1143,0.6066 -0.3402,0.8631 -0.2259,0.2565 -0.5103,0.387 -0.8478,0.387 -0.3096,0 -0.5418,-0.0772 -0.702,-0.2322 -0.1611,-0.1512 -0.3348,-0.405 -0.5202,-0.7551 -0.2448,-0.5013 -0.5319,-0.8946 -0.8721,-1.17567 -0.3375,-0.2817 -0.882,-0.4212 -1.63098,-0.4212 -0.6966,0 -1.25649,0.1521 -1.68021,0.4581 -0.4266,0.306 -0.6408,0.6714 -0.6408,1.1016 0,0.2664 0.0712,0.495 0.2169,0.6867 0.1458,0.1953 0.3465,0.3618 0.6003,0.5013 0.2538,0.1359 0.5103,0.2475 0.7704,0.3249 0.2601,0.0776 0.6867,0.1917 1.28727,0.3438 0.7488,0.1764 1.4265,0.3681 2.03319,0.5814 0.6102,0.2106 1.1232,0.4671 1.55052,0.7704 0.4266,0.2997 0.7578,0.684 0.99639,1.14489 0.2385,0.4644 0.3591,1.03077 0.3591,1.69902 z m 11.37825,-0.8136 c 0,0.7371 -0.1143,1.41732 -0.3429,2.03913 -0.2322,0.6219 -0.5634,1.15758 -0.99954,1.60623 -0.4329,0.4455 -0.95319,0.7893 -1.55655,1.02717 -0.6066,0.2385 -1.28412,0.3591 -2.03913,0.3591 -0.7515,0 -1.42335,-0.1206 -2.02392,-0.3618 -0.5967,-0.2412 -1.11402,-0.5886 -1.5534,-1.03995 -0.4392,-0.4482 -0.7704,-0.98082 -0.99639,-1.59345 -0.2259,-0.6156 -0.3402,-1.29366 -0.3402,-2.03634 0,-0.7488 0.1143,-1.43577 0.3429,-2.05794 0.2322,-0.6219 0.5598,-1.15407 0.99036,-1.5966 0.4266,-0.4392 0.9468,-0.7803 1.55619,-1.01799 0.6129,-0.2385 1.28448,-0.3591 2.02392,-0.3591 0.7488,0 1.4265,0.1206 2.03922,0.3618 0.6102,0.2412 1.13283,0.5877 1.56582,1.0332 0.4365,0.4491 0.7677,0.98118 0.99351,1.59696 0.2259,0.6156 0.3402,1.29654 0.3402,2.03913 z m -2.48454,0 c 0,-1.00881 -0.2232,-1.79469 -0.6651,-2.35809 -0.4455,-0.5598 -1.03959,-0.8415 -1.78866,-0.8415 -0.486,0 -0.9099,0.1269 -1.27809,0.3771 -0.3681,0.2511 -0.6534,0.6192 -0.8505,1.10799 -0.2016,0.4914 -0.3006,1.06119 -0.3006,1.71423 0,0.6462 0.099,1.21005 0.2943,1.69578 0.198,0.4824 0.477,0.8541 0.8415,1.11078 0.3681,0.2565 0.7983,0.3834 1.2933,0.3834 0.7488,0 1.34289,-0.2817 1.78866,-0.8478 0.4428,-0.5634 0.6651,-1.34613 0.6651,-2.34252 z m 10.86165,3.63618 0,-0.3186 c -0.297,0.3744 -0.6066,0.6903 -0.93438,0.94392 -0.3249,0.2538 -0.6813,0.4428 -1.06758,0.5661 -0.387,0.1233 -0.8298,0.1854 -1.32453,0.1854 -0.5976,0 -1.13283,-0.1233 -1.60938,-0.3717 -0.4734,-0.2475 -0.8415,-0.5877 -1.1016,-1.02438 -0.306,-0.5256 -0.4608,-1.28088 -0.4608,-2.26485 l 0,-4.905 c 0,-0.4986 0.1116,-0.8667 0.3339,-1.11078 0.2259,-0.2448 0.5202,-0.3681 0.891,-0.3681 0.3744,0 0.675,0.1233 0.90675,0.3717 0.2295,0.2475 0.3438,0.6156 0.3438,1.10763 l 0,3.96108 c 0,0.5724 0.0493,1.05516 0.1449,1.44495 0.0963,0.3897 0.2691,0.6966 0.5202,0.91593 0.2511,0.2196 0.5913,0.3312 1.02123,0.3312 0.4149,0 0.8082,-0.1233 1.17603,-0.3717 0.3681,-0.2475 0.6372,-0.5724 0.8073,-0.97155 0.1395,-0.3501 0.2079,-1.11717 0.2079,-2.30247 l 0,-3.00789 c 0,-0.4914 0.1143,-0.8604 0.3429,-1.10763 0.2322,-0.2475 0.5292,-0.3717 0.8973,-0.3717 0.3717,0 0.6651,0.1233 0.891,0.3681 0.2232,0.2448 0.3339,0.6129 0.3339,1.11087 l 0,7.16985 c 0,0.4707 -0.108,0.8235 -0.3213,1.06155 -0.2133,0.2349 -0.4923,0.3528 -0.8298,0.3528 -0.3402,0 -0.6183,-0.1242 -0.8388,-0.3681 -0.2196,-0.2448 -0.3312,-0.5877 -0.3312,-1.02717 z m 7.24428,-2.17845 0,2.07 c 0,0.5013 -0.1179,0.8757 -0.3528,1.12644 -0.2349,0.2502 -0.5355,0.378 -0.8973,0.378 -0.3591,0 -0.6498,-0.1269 -0.882,-0.3807 -0.2286,-0.2538 -0.3438,-0.6282 -0.3438,-1.1232 l 0,-6.89139 c 0,-1.11078 0.4023,-1.66779 1.20681,-1.66779 0.4113,0 0.7056,0.1296 0.8883,0.3897 0.1827,0.2601 0.2817,0.6435 0.2997,1.15119 0.2943,-0.5076 0.5976,-0.891 0.9099,-1.15119 0.3123,-0.2601 0.7272,-0.3897 1.24686,-0.3897 0.5202,0 1.02438,0.1296 1.51335,0.3897 0.4887,0.2601 0.7335,0.603 0.7335,1.03356 0,0.2997 -0.1026,0.5508 -0.3123,0.7461 -0.2079,0.198 -0.4329,0.2934 -0.675,0.2934 -0.09,0 -0.3096,-0.0556 -0.6561,-0.1665 -0.3501,-0.1116 -0.6561,-0.1674 -0.92196,-0.1674 -0.3618,0 -0.6597,0.0963 -0.8883,0.2853 -0.2286,0.1917 -0.4086,0.4734 -0.5355,0.8478 -0.1269,0.3744 -0.2133,0.8199 -0.2628,1.33974 -0.0464,0.5166 -0.0712,1.14516 -0.0712,1.88784 z m 14.07366,0.5076 c 0,0.3096 -0.0927,0.6372 -0.2781,0.99 -0.1827,0.3501 -0.4644,0.684 -0.8415,1.00278 -0.3771,0.3159 -0.8541,0.5724 -1.42938,0.7641 -0.5724,0.1953 -1.21923,0.2907 -1.93752,0.2907 -1.5318,0 -2.72304,-0.4455 -3.58335,-1.33686 -0.8568,-0.891 -1.28727,-2.08557 -1.28727,-3.5865 0,-1.01484 0.1953,-1.91232 0.5886,-2.69217 0.3933,-0.7794 0.96237,-1.38294 1.70505,-1.80711 0.7452,-0.4266 1.63377,-0.6408 2.66742,-0.6408 0.6408,0 1.2285,0.0927 1.76382,0.2817 0.5319,0.1854 0.98721,0.4266 1.35846,0.7245 0.3717,0.297 0.6561,0.6129 0.8505,0.9468 0.198,0.3375 0.297,0.6498 0.297,0.93753 0,0.297 -0.1116,0.5481 -0.3312,0.7551 -0.2232,0.2043 -0.4887,0.3069 -0.8046,0.3069 -0.2043,0 -0.3744,-0.0528 -0.5103,-0.1584 -0.1368,-0.1053 -0.288,-0.2781 -0.4581,-0.513 -0.3033,-0.4581 -0.6192,-0.8019 -0.9468,-1.03356 -0.3312,-0.2295 -0.7488,-0.3438 -1.25649,-0.3438 -0.7299,0 -1.32129,0.2853 -1.76706,0.8568 -0.4482,0.5697 -0.6714,1.35252 -0.6714,2.34288 0,0.4671 0.0588,0.8946 0.1737,1.28412 0.1143,0.3897 0.2781,0.7209 0.4986,0.99639 0.2169,0.2754 0.4797,0.4824 0.7893,0.6246 0.3069,0.1422 0.6471,0.2133 1.01511,0.2133 0.495,0 0.91917,-0.1143 1.2717,-0.3438 0.3555,-0.2322 0.6687,-0.5814 0.94077,-1.05201 0.1485,-0.2781 0.3123,-0.495 0.4887,-0.6534 0.1737,-0.1575 0.3897,-0.2349 0.6435,-0.2349 0.3033,0 0.5544,0.1143 0.7524,0.3438 0.198,0.2286 0.2997,0.4734 0.2997,0.7335 z m 9.06057,-1.35855 -4.83984,0 c 0.006,0.5634 0.1206,1.0584 0.3402,1.48851 0.2196,0.4302 0.5139,0.7515 0.8793,0.9684 0.3654,0.2196 0.7704,0.3285 1.20969,0.3285 0.297,0 0.567,-0.034 0.8109,-0.1053 0.2439,-0.068 0.4824,-0.1764 0.7119,-0.3249 0.2322,-0.1485 0.4428,-0.3069 0.6345,-0.477 0.1953,-0.1701 0.4455,-0.3996 0.7551,-0.6903 0.1269,-0.108 0.3069,-0.1638 0.5418,-0.1638 0.2538,0 0.4608,0.0709 0.6183,0.2097 0.1548,0.1395 0.2349,0.3348 0.2349,0.5886 0,0.2232 -0.0896,0.486 -0.2628,0.7857 -0.1764,0.297 -0.4392,0.585 -0.7956,0.8604 -0.3528,0.2754 -0.7947,0.504 -1.33056,0.684 -0.5355,0.1827 -1.15119,0.2727 -1.84428,0.2727 -1.59057,0 -2.82825,-0.4518 -3.71016,-1.35855 -0.882,-0.90675 -1.32453,-2.1384 -1.32453,-3.6918 0,-0.7299 0.108,-1.41129 0.3285,-2.03634 0.2169,-0.6246 0.5346,-1.16046 0.94995,-1.60902 0.4176,-0.4455 0.93114,-0.7893 1.54422,-1.02753 0.6093,-0.2385 1.28727,-0.3591 2.02995,-0.3591 0.9684,0 1.79784,0.2043 2.48778,0.6129 0.693,0.4086 1.21005,0.93438 1.55655,1.58103 0.3438,0.6471 0.5166,1.30608 0.5166,1.97748 0,0.6219 -0.18,1.02438 -0.5355,1.21005 -0.3564,0.1827 -0.8604,0.2754 -1.50696,0.2754 z m -4.83984,-1.4049 4.48686,0 c -0.0588,-0.8451 -0.288,-1.47933 -0.684,-1.89711 -0.396,-0.4203 -0.91593,-0.6309 -1.56258,-0.6309 -0.6192,0 -1.12356,0.2133 -1.51938,0.6372 -0.396,0.4266 -0.6372,1.0584 -0.7209,1.89072 z"
         id="path3225"
         style="fill:#838281;fill-rule:nonzero"
         inkscape:connector-curvature="0" />
      <path
         class="fil3"
         d="m 398.61273,185.01605 c 0,0.8046 -0.207,1.52856 -0.6219,2.16918 -0.4113,0.6408 -1.01799,1.14201 -1.81629,1.50381 -0.7983,0.3618 -1.74222,0.5454 -2.83779,0.5454 -1.31175,0 -2.39175,-0.2475 -3.24603,-0.7425 -0.603,-0.3591 -1.09521,-0.8325 -1.47294,-1.42974 -0.3771,-0.594 -0.5661,-1.17279 -0.5661,-1.73619 0,-0.3249 0.1143,-0.6066 0.3402,-0.8379 0.2259,-0.2322 0.513,-0.3501 0.8667,-0.3501 0.2844,0 0.5229,0.0927 0.7209,0.2718 0.1953,0.1827 0.3618,0.4518 0.5013,0.8082 0.1701,0.4239 0.3528,0.7767 0.5508,1.06119 0.1953,0.2817 0.4734,0.5166 0.8298,0.7029 0.3555,0.1827 0.8235,0.2754 1.4049,0.2754 0.7983,0 1.44495,-0.1854 1.94319,-0.5571 0.4986,-0.3717 0.7488,-0.8352 0.7488,-1.39248 0,-0.4392 -0.1332,-0.7983 -0.4023,-1.07397 -0.2691,-0.2754 -0.6183,-0.486 -1.04283,-0.6282 -0.4266,-0.1458 -0.99639,-0.3006 -1.71108,-0.4644 -0.95319,-0.2232 -1.75464,-0.486 -2.3985,-0.783 -0.6435,-0.2997 -1.15407,-0.7083 -1.5318,-1.22526 -0.3771,-0.5166 -0.5661,-1.15758 -0.5661,-1.92474 0,-0.7308 0.198,-1.38051 0.5976,-1.94949 0.3987,-0.567 0.97758,-1.00278 1.73268,-1.30923 0.7551,-0.306 1.6434,-0.4581 2.66454,-0.4581 0.8163,0 1.52217,0.1017 2.11644,0.3033 0.5976,0.2043 1.08918,0.4698 1.48248,0.8073 0.3933,0.3339 0.6804,0.6867 0.8631,1.05516 0.18,0.3681 0.2727,0.7272 0.2727,1.08 0,0.3186 -0.1143,0.6066 -0.3402,0.8631 -0.2259,0.2565 -0.5103,0.387 -0.8478,0.387 -0.3096,0 -0.5418,-0.0773 -0.702,-0.2322 -0.1611,-0.1512 -0.3348,-0.405 -0.5202,-0.7551 -0.2448,-0.5013 -0.5319,-0.8946 -0.8721,-1.17567 -0.3375,-0.2817 -0.882,-0.4212 -1.63098,-0.4212 -0.6966,0 -1.25649,0.1521 -1.68021,0.4581 -0.4266,0.306 -0.6408,0.6714 -0.6408,1.1016 0,0.2664 0.0712,0.495 0.2169,0.6867 0.1458,0.1953 0.3465,0.3618 0.6003,0.5013 0.2538,0.1359 0.5103,0.2475 0.7704,0.3249 0.2601,0.0776 0.6867,0.1917 1.28727,0.3438 0.7488,0.1764 1.4265,0.3681 2.03319,0.5814 0.6102,0.2106 1.1232,0.4671 1.55052,0.7704 0.4266,0.2997 0.7578,0.684 0.99639,1.1448 0.2385,0.4644 0.3591,1.03077 0.3591,1.69902 z m 11.37825,-0.8136 c 0,0.7371 -0.1143,1.41732 -0.3438,2.03922 -0.2322,0.6219 -0.5634,1.15758 -0.99954,1.60614 -0.4329,0.4455 -0.95319,0.7893 -1.55655,1.02717 -0.6066,0.2385 -1.28412,0.3591 -2.03922,0.3591 -0.7515,0 -1.42335,-0.1206 -2.02392,-0.3618 -0.5967,-0.2412 -1.11402,-0.5886 -1.5534,-1.03995 -0.4392,-0.4482 -0.7704,-0.98082 -0.99639,-1.59345 -0.2259,-0.6156 -0.3402,-1.29366 -0.3402,-2.03634 0,-0.7488 0.1143,-1.43577 0.3429,-2.05794 0.2322,-0.6219 0.5598,-1.15407 0.99036,-1.5966 0.4266,-0.4392 0.9468,-0.7803 1.55619,-1.01799 0.6129,-0.2385 1.28448,-0.3591 2.02392,-0.3591 0.7488,0 1.4265,0.1206 2.03922,0.3618 0.6102,0.2412 1.13283,0.5877 1.56582,1.0332 0.4365,0.4491 0.7677,0.98118 0.99351,1.59696 0.2259,0.6156 0.3402,1.29654 0.3402,2.03913 z m -2.48454,0 c 0,-1.00881 -0.2232,-1.79469 -0.6651,-2.35809 -0.4455,-0.5598 -1.03959,-0.8415 -1.78866,-0.8415 -0.486,0 -0.9099,0.1269 -1.27809,0.3771 -0.3681,0.2511 -0.6534,0.6192 -0.8505,1.10799 -0.2016,0.4914 -0.3006,1.06119 -0.3006,1.71423 0,0.6471 0.099,1.21005 0.2943,1.69578 0.198,0.4824 0.477,0.8541 0.8415,1.11078 0.3681,0.2565 0.7983,0.3834 1.2933,0.3834 0.7488,0 1.34289,-0.2817 1.78866,-0.8478 0.4428,-0.5634 0.6651,-1.34613 0.6651,-2.34252 z m 4.23639,-4.81185 0.5877,0 0,-0.7425 c 0,-0.774 0.099,-1.38933 0.2943,-1.84752 0.198,-0.4554 0.5292,-0.7893 0.99954,-0.99639 0.4671,-0.207 1.11078,-0.3123 1.92474,-0.3123 1.44495,0 2.16603,0.3528 2.16603,1.06119 0,0.2295 -0.074,0.4239 -0.2259,0.5886 -0.1512,0.1638 -0.3285,0.2448 -0.5355,0.2448 -0.0963,0 -0.2628,-0.0188 -0.4986,-0.0528 -0.2349,-0.0372 -0.4329,-0.0556 -0.5976,-0.0556 -0.4482,0 -0.7335,0.1332 -0.8604,0.396 -0.1269,0.2628 -0.1917,0.6372 -0.1917,1.12644 l 0,0.5913 0.6066,0 c 0.94356,0 1.41417,0.2844 1.41417,0.8505 0,0.4059 -0.1242,0.6624 -0.3744,0.7704 -0.2502,0.108 -0.5967,0.1638 -1.03959,0.1638 l -0.6066,0 0,6.55407 c 0,0.4887 -0.1179,0.8631 -0.3501,1.12041 -0.2322,0.2565 -0.5319,0.3834 -0.90036,0.3834 -0.3528,0 -0.6435,-0.1269 -0.8757,-0.3834 -0.2322,-0.2565 -0.3501,-0.6318 -0.3501,-1.12041 l 0,-6.55407 -0.6804,0 c -0.3681,0 -0.6534,-0.0836 -0.8514,-0.2502 -0.2007,-0.1638 -0.2997,-0.3807 -0.2997,-0.6471 0,-0.5913 0.4149,-0.8883 1.24407,-0.8883 z m 6.51681,0 0.2727,0 0,-1.48851 c 0,-0.3996 0.009,-0.7119 0.0308,-0.93753 0.0216,-0.2286 0.0804,-0.4239 0.1764,-0.585 0.099,-0.1701 0.2385,-0.306 0.4176,-0.4149 0.1827,-0.1053 0.3834,-0.1575 0.6093,-0.1575 0.3123,0 0.5976,0.117 0.8514,0.3528 0.1701,0.1584 0.2754,0.3501 0.3213,0.576 0.0464,0.2286 0.068,0.5508 0.068,0.9684 l 0,1.6866 0.90675,0 c 0.3501,0 0.6192,0.0836 0.8019,0.2502 0.1854,0.1638 0.2781,0.378 0.2781,0.6372 0,0.3312 -0.1332,0.5661 -0.396,0.6993 -0.2628,0.1332 -0.6372,0.198 -1.12923,0.198 l -0.4617,0 0,4.54887 c 0,0.387 0.0124,0.6867 0.0404,0.8946 0.0276,0.207 0.099,0.3771 0.2169,0.5076 0.1206,0.1296 0.3123,0.1953 0.5787,0.1953 0.1422,0 0.3402,-0.0248 0.5886,-0.0772 0.2475,-0.0524 0.4428,-0.0772 0.5787,-0.0772 0.2007,0 0.3807,0.0804 0.5418,0.2412 0.1611,0.1611 0.2385,0.3555 0.2385,0.594 0,0.3987 -0.2169,0.702 -0.6534,0.91278 -0.4329,0.2133 -1.0584,0.3186 -1.87551,0.3186 -0.7731,0 -1.36134,-0.1296 -1.75752,-0.3897 -0.3996,-0.2601 -0.6624,-0.6192 -0.7857,-1.08 -0.1242,-0.4581 -0.1854,-1.07082 -0.1854,-1.83789 l 0,-4.7502 -0.3249,0 c -0.3591,0 -0.6318,-0.0836 -0.8172,-0.2538 -0.189,-0.1701 -0.2817,-0.3834 -0.2817,-0.6435 0,-0.2601 0.099,-0.4734 0.2943,-0.6372 0.198,-0.1665 0.4824,-0.2502 0.8568,-0.2502 z m 7.97778,1.32129 1.61217,5.52969 1.46979,-5.1399 c 0.1548,-0.5382 0.2727,-0.90351 0.3501,-1.1016 0.0744,-0.1953 0.2169,-0.3834 0.4239,-0.5634 0.2106,-0.1764 0.495,-0.2664 0.8568,-0.2664 0.3681,0 0.6588,0.0896 0.8667,0.2664 0.207,0.1791 0.3564,0.3744 0.4392,0.5814 0.0836,0.207 0.2016,0.5697 0.3528,1.08279 l 1.46979,5.1399 1.63098,-5.52969 c 0.1116,-0.3996 0.198,-0.6867 0.2628,-0.8667 0.068,-0.1764 0.18,-0.3348 0.3375,-0.4707 0.1575,-0.1359 0.3834,-0.2043 0.6777,-0.2043 0.297,0 0.5535,0.1017 0.7731,0.3096 0.2169,0.2043 0.3249,0.4455 0.3249,0.7245 0,0.2538 -0.0927,0.6372 -0.2817,1.15083 l -2.02077,5.92938 c -0.1764,0.5013 -0.3123,0.8631 -0.4086,1.08918 -0.0963,0.2223 -0.2511,0.4203 -0.4581,0.5967 -0.207,0.1764 -0.495,0.2637 -0.8568,0.2637 -0.3744,0 -0.6687,-0.0927 -0.8847,-0.2817 -0.2133,-0.1854 -0.3717,-0.4176 -0.4734,-0.6903 -0.1053,-0.2691 -0.2169,-0.6246 -0.3375,-1.0584 l -1.41417,-4.82418 -1.36773,4.82418 c -0.1827,0.6714 -0.378,1.17603 -0.5913,1.5165 -0.2106,0.3438 -0.5814,0.5139 -1.11402,0.5139 -0.2727,0 -0.5049,-0.0528 -0.693,-0.1584 -0.1917,-0.1053 -0.3492,-0.2565 -0.4761,-0.4554 -0.1269,-0.1953 -0.2385,-0.4266 -0.3375,-0.6966 -0.0963,-0.2691 -0.1701,-0.4824 -0.2259,-0.6399 l -2.00196,-5.92938 c -0.2016,-0.5571 -0.3006,-0.94041 -0.3006,-1.15083 0,-0.2664 0.1053,-0.5049 0.3186,-0.7146 0.2106,-0.2133 0.4698,-0.3186 0.7803,-0.3186 0.4086,0 0.6867,0.1179 0.8325,0.3501 0.1458,0.2322 0.2997,0.6282 0.4644,1.19124 z m 19.56654,7.12665 c -0.6003,0.4644 -1.17918,0.8136 -1.73619,1.04598 -0.5598,0.2322 -1.18809,0.3501 -1.88145,0.3501 -0.6372,0 -1.19448,-0.1269 -1.67382,-0.378 -0.4797,-0.2502 -0.8514,-0.5877 -1.11114,-1.01799 -0.2601,-0.4302 -0.3897,-0.8946 -0.3897,-1.39572 0,-0.6777 0.2133,-1.25325 0.6435,-1.73304 0.4302,-0.477 1.01799,-0.7983 1.76985,-0.95913 0.1548,-0.0372 0.5445,-0.1179 1.16964,-0.2448 0.6219,-0.1296 1.15443,-0.2448 1.59984,-0.3501 0.4428,-0.108 0.92547,-0.2349 1.44531,-0.387 -0.0312,-0.6534 -0.1611,-1.13283 -0.3933,-1.43613 -0.2349,-0.306 -0.7146,-0.4581 -1.44855,-0.4581 -0.6282,0 -1.1016,0.0864 -1.41696,0.2628 -0.3186,0.1764 -0.5913,0.4365 -0.8172,0.7893 -0.2259,0.3501 -0.387,0.5814 -0.4797,0.693 -0.0954,0.1116 -0.297,0.1674 -0.603,0.1674 -0.2781,0 -0.5202,-0.0896 -0.7209,-0.2691 -0.2043,-0.1764 -0.3033,-0.405 -0.3033,-0.684 0,-0.4338 0.1521,-0.8568 0.4608,-1.26882 0.3096,-0.4113 0.7893,-0.7488 1.44216,-1.01484 0.6525,-0.2664 1.4634,-0.3996 2.43819,-0.3996 1.08954,0 1.94346,0.1296 2.56536,0.387 0.6219,0.2565 1.06155,0.6624 1.3185,1.21923 0.2565,0.5535 0.387,1.2933 0.387,2.21247 0,0.5787 -0.003,1.07397 -0.006,1.47618 -0.003,0.405 -0.006,0.8568 -0.0124,1.35252 0,0.4644 0.0772,0.94995 0.2322,1.45413 0.1548,0.5049 0.2286,0.8298 0.2286,0.97479 0,0.2538 -0.1179,0.486 -0.3555,0.693 -0.2385,0.2079 -0.5103,0.3132 -0.8109,0.3132 -0.2538,0 -0.5049,-0.1206 -0.7515,-0.3591 -0.2511,-0.2385 -0.5103,-0.5814 -0.7893,-1.03644 z m -0.1638,-3.58056 c -0.3618,0.1332 -0.891,0.2727 -1.58139,0.4212 -0.693,0.1485 -1.17288,0.2565 -1.43892,0.3285 -0.2664,0.068 -0.5202,0.2043 -0.7614,0.4086 -0.2421,0.2007 -0.3618,0.4824 -0.3618,0.8451 0,0.3771 0.1422,0.6966 0.4266,0.95913 0.2853,0.2628 0.6561,0.3933 1.11402,0.3933 0.4887,0 0.94077,-0.108 1.35531,-0.3213 0.4149,-0.2133 0.7182,-0.4923 0.91314,-0.8298 0.2223,-0.3744 0.3339,-0.99 0.3339,-1.85031 l 0,-0.3528 z m 7.39557,1.40211 0,2.07 c 0,0.5013 -0.1179,0.8757 -0.3528,1.12644 -0.2349,0.2502 -0.5355,0.378 -0.8973,0.378 -0.3591,0 -0.6498,-0.1269 -0.882,-0.3807 -0.2286,-0.2538 -0.3438,-0.6282 -0.3438,-1.1232 l 0,-6.89139 c 0,-1.11078 0.4023,-1.66779 1.20681,-1.66779 0.4113,0 0.7056,0.1296 0.8883,0.3897 0.1827,0.2601 0.2817,0.6435 0.2997,1.15119 0.2943,-0.5076 0.5976,-0.891 0.9099,-1.15119 0.3123,-0.2601 0.7272,-0.3897 1.24686,-0.3897 0.5202,0 1.02438,0.1296 1.51335,0.3897 0.4887,0.2601 0.7335,0.603 0.7335,1.03356 0,0.2997 -0.1026,0.5508 -0.3123,0.7461 -0.2079,0.198 -0.4329,0.2934 -0.675,0.2934 -0.09,0 -0.3096,-0.0556 -0.6561,-0.1665 -0.3501,-0.1116 -0.6561,-0.1674 -0.92196,-0.1674 -0.3618,0 -0.6597,0.0963 -0.8883,0.2853 -0.2286,0.1917 -0.4086,0.4734 -0.5355,0.8478 -0.1269,0.3744 -0.2133,0.8199 -0.2628,1.33974 -0.0464,0.5166 -0.0712,1.14516 -0.0712,1.88784 z m 12.12129,-0.8514 -4.83984,0 c 0.006,0.5634 0.1206,1.0584 0.3402,1.48851 0.2196,0.4302 0.5139,0.7515 0.8793,0.9684 0.3654,0.2196 0.7704,0.3285 1.20969,0.3285 0.297,0 0.567,-0.034 0.8109,-0.1053 0.2439,-0.068 0.4824,-0.1764 0.7119,-0.3249 0.2322,-0.1485 0.4428,-0.3069 0.6345,-0.477 0.1953,-0.1701 0.4455,-0.3996 0.7551,-0.6903 0.1269,-0.108 0.3069,-0.1638 0.5418,-0.1638 0.2538,0 0.4608,0.0709 0.6183,0.2097 0.1548,0.1395 0.2349,0.3348 0.2349,0.5886 0,0.2232 -0.0896,0.486 -0.2628,0.7857 -0.1764,0.297 -0.4392,0.585 -0.7956,0.8604 -0.3528,0.2754 -0.7947,0.504 -1.33056,0.684 -0.5355,0.1827 -1.15119,0.2727 -1.84428,0.2727 -1.59057,0 -2.82825,-0.4518 -3.71016,-1.35855 -0.882,-0.90675 -1.32444,-2.1384 -1.32444,-3.6918 0,-0.7299 0.108,-1.41129 0.3285,-2.03634 0.2169,-0.6246 0.5346,-1.16046 0.94995,-1.60902 0.4176,-0.4455 0.93123,-0.7893 1.54422,-1.02753 0.6093,-0.2385 1.28727,-0.3591 2.02995,-0.3591 0.9684,0 1.79784,0.2043 2.48778,0.6129 0.693,0.4086 1.21005,0.93438 1.55655,1.58103 0.3438,0.6471 0.5166,1.30608 0.5166,1.97748 0,0.6219 -0.18,1.02438 -0.5355,1.21005 -0.3564,0.1827 -0.8604,0.2754 -1.50696,0.2754 z m -4.83984,-1.4049 4.48686,0 c -0.0588,-0.8451 -0.288,-1.47933 -0.684,-1.89711 -0.396,-0.4203 -0.91593,-0.6309 -1.56258,-0.6309 -0.6192,0 -1.12356,0.2133 -1.51938,0.6372 -0.396,0.4266 -0.6372,1.0584 -0.7209,1.89072 z m 25.10217,1.40814 c 0,0.4203 -0.1017,0.8784 -0.3123,1.37052 -0.207,0.495 -0.5355,0.97794 -0.98397,1.45134 -0.4455,0.4734 -1.01799,0.8604 -1.71144,1.15443 -0.6966,0.297 -1.50696,0.4455 -2.43216,0.4455 -0.6993,0 -1.33686,-0.0652 -1.91232,-0.198 -0.5724,-0.1332 -1.09557,-0.3402 -1.56294,-0.6219 -0.4671,-0.2817 -0.90036,-0.6498 -1.2933,-1.11078 -0.3501,-0.4149 -0.6498,-0.882 -0.8973,-1.39887 -0.2475,-0.5166 -0.4329,-1.07046 -0.5571,-1.65546 -0.1233,-0.585 -0.1854,-1.21005 -0.1854,-1.86588 0,-1.07082 0.1548,-2.02995 0.4671,-2.87469 0.3123,-0.8478 0.7587,-1.56897 1.33686,-2.17242 0.5814,-0.6003 1.25928,-1.0584 2.03922,-1.37412 0.7803,-0.3123 1.61217,-0.4698 2.49417,-0.4698 1.07685,0 2.03319,0.2133 2.87469,0.6435 0.8388,0.4302 1.48248,0.95949 1.93113,1.59057 0.4455,0.6318 0.6714,1.2285 0.6714,1.79181 0,0.306 -0.1116,0.5787 -0.3285,0.8136 -0.2169,0.2349 -0.4797,0.3528 -0.7893,0.3528 -0.3438,0 -0.603,-0.0804 -0.7731,-0.2448 -0.1737,-0.1611 -0.3654,-0.4419 -0.5751,-0.8415 -0.3528,-0.6588 -0.7641,-1.15119 -1.23804,-1.47933 -0.477,-0.3249 -1.06119,-0.4887 -1.75428,-0.4887 -1.10799,0 -1.98675,0.4203 -2.64294,1.25928 -0.6561,0.8415 -0.98397,2.03634 -0.98397,3.58335 0,1.03356 0.1458,1.89387 0.4365,2.57778 0.288,0.6867 0.6993,1.20087 1.23165,1.53819 0.5319,0.3366 1.15443,0.5076 1.86912,0.5076 0.774,0 1.4265,-0.1917 1.96191,-0.576 0.5355,-0.3834 0.93753,-0.9468 1.21005,-1.69263 0.1143,-0.3501 0.2565,-0.6345 0.4266,-0.8541 0.1674,-0.2232 0.4392,-0.3312 0.8136,-0.3312 0.3213,0 0.5976,0.1116 0.8262,0.3348 0.2286,0.2223 0.3438,0.5013 0.3438,0.8352 z m 11.51154,-0.6102 c 0,0.7362 -0.1143,1.41732 -0.3438,2.03913 -0.2322,0.6219 -0.5634,1.15758 -0.99954,1.60623 -0.4329,0.4455 -0.95319,0.7893 -1.55655,1.02717 -0.6066,0.2385 -1.28412,0.3591 -2.03922,0.3591 -0.7515,0 -1.42335,-0.1206 -2.02392,-0.3618 -0.5967,-0.2412 -1.11402,-0.5886 -1.5534,-1.03995 -0.4392,-0.4482 -0.7704,-0.98082 -0.99639,-1.59345 -0.2259,-0.6156 -0.3402,-1.29366 -0.3402,-2.03634 0,-0.7488 0.1143,-1.43577 0.3429,-2.05794 0.2322,-0.6219 0.5598,-1.15407 0.99036,-1.5966 0.4266,-0.4392 0.9468,-0.7803 1.55619,-1.01799 0.6129,-0.2385 1.28448,-0.3591 2.02392,-0.3591 0.7488,0 1.4265,0.1206 2.03922,0.3618 0.6102,0.2412 1.13283,0.5877 1.56582,1.0332 0.4365,0.4491 0.7677,0.98118 0.99351,1.59696 0.2259,0.6156 0.3402,1.29654 0.3402,2.03913 z m -2.48454,0 c 0,-1.00881 -0.2232,-1.79469 -0.6651,-2.35809 -0.4455,-0.5598 -1.03959,-0.8415 -1.78866,-0.8415 -0.486,0 -0.9099,0.1269 -1.27809,0.3771 -0.3681,0.2511 -0.6534,0.6192 -0.8505,1.10799 -0.2016,0.4914 -0.3006,1.06119 -0.3006,1.71423 0,0.6471 0.099,1.21005 0.2943,1.69587 0.198,0.4824 0.477,0.8541 0.8415,1.11078 0.3681,0.2565 0.7983,0.3834 1.2933,0.3834 0.7488,0 1.34289,-0.2817 1.78866,-0.8478 0.4428,-0.5634 0.6651,-1.34613 0.6651,-2.34252 z m 6.68412,-3.66381 0,0.2997 c 0.4365,-0.5751 0.91278,-0.99639 1.4265,-1.26567 0.5166,-0.2691 1.11078,-0.4023 1.78227,-0.4023 0.6534,0 1.2348,0.1422 1.74861,0.4266 0.5139,0.2817 0.8973,0.684 1.15119,1.20366 0.1638,0.3033 0.2691,0.6282 0.3186,0.98118 0.0464,0.3501 0.0712,0.7947 0.0712,1.33974 l 0,4.60773 c 0,0.495 -0.1143,0.8694 -0.3402,1.1232 -0.2259,0.2538 -0.5202,0.3807 -0.8847,0.3807 -0.3681,0 -0.6651,-0.1296 -0.8973,-0.3897 -0.2286,-0.2601 -0.3438,-0.6309 -0.3438,-1.11402 l 0,-4.12479 c 0,-0.8172 -0.1152,-1.44216 -0.3402,-1.87551 -0.2259,-0.4302 -0.6777,-0.6471 -1.35252,-0.6471 -0.4419,0 -0.8451,0.1296 -1.20681,0.3933 -0.3618,0.2628 -0.6282,0.6246 -0.7947,1.08603 -0.1206,0.3681 -0.1827,1.05552 -0.1827,2.06712 l 0,3.10077 c 0,0.5013 -0.1179,0.8757 -0.3501,1.12644 -0.2322,0.2502 -0.5319,0.378 -0.90072,0.378 -0.3591,0 -0.6498,-0.1296 -0.882,-0.3897 -0.2286,-0.2601 -0.3438,-0.6309 -0.3438,-1.11402 l 0,-7.15428 c 0,-0.4707 0.1017,-0.8235 0.3096,-1.05516 0.2043,-0.2322 0.486,-0.3501 0.8415,-0.3501 0.2169,0 0.4149,0.0524 0.5913,0.1548 0.1737,0.1026 0.3159,0.2565 0.4212,0.4617 0.1053,0.207 0.1575,0.4581 0.1575,0.7515 z m 8.76681,-1.14804 0.5877,0 0,-0.7425 c 0,-0.774 0.099,-1.38933 0.2943,-1.84752 0.198,-0.4554 0.5292,-0.7893 0.99954,-0.99639 0.4671,-0.207 1.11078,-0.3123 1.92474,-0.3123 1.44495,0 2.16603,0.3528 2.16603,1.06119 0,0.2295 -0.074,0.4239 -0.2259,0.5886 -0.1521,0.1638 -0.3285,0.2448 -0.5355,0.2448 -0.0963,0 -0.2628,-0.0188 -0.4986,-0.0528 -0.2349,-0.0372 -0.4338,-0.0556 -0.5976,-0.0556 -0.4482,0 -0.7335,0.1332 -0.8604,0.396 -0.1269,0.2628 -0.1917,0.6372 -0.1917,1.12644 l 0,0.5913 0.6066,0 c 0.94356,0 1.41417,0.2844 1.41417,0.8505 0,0.4059 -0.1242,0.6624 -0.3744,0.7704 -0.2502,0.108 -0.5967,0.1638 -1.03959,0.1638 l -0.6066,0 0,6.55407 c 0,0.4887 -0.1179,0.8631 -0.3501,1.12041 -0.2322,0.2565 -0.5319,0.3834 -0.90036,0.3834 -0.3528,0 -0.6435,-0.1269 -0.8757,-0.3834 -0.2322,-0.2565 -0.3501,-0.6318 -0.3501,-1.12041 l 0,-6.55407 -0.6804,0 c -0.3681,0 -0.6534,-0.0836 -0.8514,-0.2502 -0.2007,-0.1638 -0.2997,-0.3807 -0.2997,-0.6471 0,-0.5913 0.4149,-0.8883 1.24407,-0.8883 z m 13.04325,5.41845 -4.83984,0 c 0.006,0.5634 0.1206,1.0584 0.3402,1.48851 0.2196,0.4302 0.5139,0.7515 0.8793,0.9684 0.3654,0.2196 0.7704,0.3285 1.20969,0.3285 0.297,0 0.567,-0.034 0.8109,-0.1053 0.2439,-0.068 0.4824,-0.1764 0.7119,-0.3249 0.2322,-0.1485 0.4428,-0.3069 0.6345,-0.477 0.1953,-0.1701 0.4455,-0.3996 0.7551,-0.6903 0.1269,-0.108 0.3069,-0.1638 0.5418,-0.1638 0.2538,0 0.4608,0.0709 0.6183,0.2097 0.1548,0.1395 0.2349,0.3348 0.2349,0.5886 0,0.2232 -0.0896,0.486 -0.2628,0.7857 -0.1764,0.297 -0.4392,0.585 -0.7956,0.8604 -0.3528,0.2754 -0.7947,0.504 -1.33056,0.684 -0.5355,0.1827 -1.15119,0.2727 -1.84428,0.2727 -1.59057,0 -2.82825,-0.4518 -3.71016,-1.35855 -0.882,-0.90675 -1.32444,-2.1384 -1.32444,-3.6918 0,-0.7299 0.108,-1.41129 0.3285,-2.03634 0.2169,-0.6246 0.5346,-1.16046 0.94995,-1.60902 0.4176,-0.4455 0.93114,-0.7893 1.54422,-1.02753 0.6093,-0.2385 1.28727,-0.3591 2.02995,-0.3591 0.9684,0 1.79784,0.2043 2.48778,0.6129 0.693,0.4086 1.21005,0.93438 1.55655,1.58103 0.3438,0.6471 0.5166,1.30608 0.5166,1.97748 0,0.6219 -0.18,1.02438 -0.5355,1.21005 -0.3564,0.1827 -0.8604,0.2754 -1.50696,0.2754 z m -4.83984,-1.4049 4.48686,0 c -0.0588,-0.8451 -0.288,-1.47933 -0.684,-1.89711 -0.396,-0.4203 -0.91593,-0.6309 -1.56258,-0.6309 -0.6192,0 -1.12356,0.2133 -1.51938,0.6372 -0.396,0.4266 -0.6372,1.0584 -0.7209,1.89072 z m 11.42154,2.25603 0,2.07 c 0,0.5013 -0.1179,0.8757 -0.3528,1.12644 -0.2349,0.2502 -0.5355,0.378 -0.8973,0.378 -0.3591,0 -0.6498,-0.1269 -0.882,-0.3807 -0.2286,-0.2538 -0.3438,-0.6282 -0.3438,-1.1232 l 0,-6.89139 c 0,-1.11078 0.4023,-1.66779 1.20681,-1.66779 0.4113,0 0.7056,0.1296 0.8883,0.3897 0.1827,0.2601 0.2817,0.6435 0.2997,1.15119 0.2943,-0.5076 0.5976,-0.891 0.9099,-1.15119 0.3123,-0.2601 0.7272,-0.3897 1.24686,-0.3897 0.5202,0 1.02438,0.1296 1.51335,0.3897 0.4887,0.2601 0.7335,0.603 0.7335,1.03356 0,0.2997 -0.1026,0.5508 -0.3123,0.7461 -0.2079,0.198 -0.4329,0.2934 -0.675,0.2934 -0.09,0 -0.3096,-0.0556 -0.6561,-0.1665 -0.3501,-0.1116 -0.6561,-0.1674 -0.92196,-0.1674 -0.3618,0 -0.6597,0.0963 -0.8883,0.2853 -0.2286,0.1917 -0.4086,0.4734 -0.5355,0.8478 -0.1269,0.3744 -0.2133,0.8199 -0.2628,1.33974 -0.0464,0.5166 -0.0712,1.14516 -0.0712,1.88784 z m 12.12129,-0.8514 -4.83984,0 c 0.006,0.5634 0.1206,1.0584 0.3402,1.48851 0.2196,0.4302 0.5139,0.7515 0.8793,0.9684 0.3654,0.2196 0.7704,0.3285 1.20969,0.3285 0.297,0 0.567,-0.034 0.8109,-0.1053 0.2439,-0.068 0.4824,-0.1764 0.7119,-0.3249 0.2322,-0.1485 0.4428,-0.3069 0.6345,-0.477 0.1953,-0.1701 0.4455,-0.3996 0.7551,-0.6903 0.1269,-0.108 0.3069,-0.1638 0.5418,-0.1638 0.2538,0 0.4608,0.0709 0.6183,0.2097 0.1548,0.1395 0.2349,0.3348 0.2349,0.5886 0,0.2232 -0.0896,0.486 -0.2628,0.7857 -0.1764,0.297 -0.4392,0.585 -0.7956,0.8604 -0.3528,0.2754 -0.7947,0.504 -1.33056,0.684 -0.5355,0.1827 -1.15119,0.2727 -1.84428,0.2727 -1.59057,0 -2.82825,-0.4518 -3.71016,-1.35855 -0.882,-0.90675 -1.32444,-2.1384 -1.32444,-3.6918 0,-0.7299 0.108,-1.41129 0.3285,-2.03634 0.2169,-0.6246 0.5346,-1.16046 0.94995,-1.60902 0.4176,-0.4455 0.93114,-0.7893 1.54413,-1.02753 0.6093,-0.2385 1.28727,-0.3591 2.02995,-0.3591 0.9684,0 1.79784,0.2043 2.48778,0.6129 0.693,0.4086 1.21005,0.93438 1.55655,1.58103 0.3438,0.6471 0.5166,1.30608 0.5166,1.97748 0,0.6219 -0.18,1.02438 -0.5355,1.21005 -0.3564,0.1827 -0.8604,0.2754 -1.50696,0.2754 z m -4.83984,-1.4049 4.48686,0 c -0.0588,-0.8451 -0.288,-1.47933 -0.684,-1.89711 -0.396,-0.4203 -0.91593,-0.6309 -1.56258,-0.6309 -0.6192,0 -1.12356,0.2133 -1.51938,0.6372 -0.396,0.4266 -0.6372,1.0584 -0.7209,1.89072 z m 11.21418,-2.86551 0,0.2997 c 0.4365,-0.5751 0.91278,-0.99639 1.4265,-1.26567 0.5166,-0.2691 1.11078,-0.4023 1.78227,-0.4023 0.6534,0 1.2348,0.1422 1.74861,0.4266 0.5139,0.2817 0.8973,0.684 1.15119,1.20366 0.1638,0.3033 0.2691,0.6282 0.3186,0.98118 0.0464,0.3501 0.0712,0.7947 0.0712,1.33974 l 0,4.60773 c 0,0.495 -0.1143,0.8694 -0.3402,1.1232 -0.2259,0.2538 -0.5202,0.3807 -0.8847,0.3807 -0.3681,0 -0.6651,-0.1296 -0.8973,-0.3897 -0.2286,-0.2601 -0.3438,-0.6309 -0.3438,-1.11402 l 0,-4.12479 c 0,-0.8172 -0.1152,-1.44216 -0.3402,-1.87551 -0.2259,-0.4302 -0.6777,-0.6471 -1.35252,-0.6471 -0.4419,0 -0.8451,0.1296 -1.20681,0.3933 -0.3618,0.2628 -0.6282,0.6246 -0.7947,1.08603 -0.1206,0.3681 -0.1827,1.05552 -0.1827,2.06712 l 0,3.10077 c 0,0.5013 -0.1179,0.8757 -0.3501,1.12644 -0.2322,0.2502 -0.5319,0.378 -0.90072,0.378 -0.3591,0 -0.6498,-0.1296 -0.882,-0.3897 -0.2286,-0.2601 -0.3438,-0.6309 -0.3438,-1.11402 l 0,-7.15428 c 0,-0.4707 0.1017,-0.8235 0.3096,-1.05516 0.2043,-0.2322 0.486,-0.3501 0.8415,-0.3501 0.2169,0 0.4149,0.0524 0.5913,0.1548 0.1737,0.1026 0.3159,0.2565 0.4212,0.4617 0.1053,0.207 0.1575,0.4581 0.1575,0.7515 z m 17.84304,5.62887 c 0,0.3096 -0.0927,0.6372 -0.2781,0.99 -0.1827,0.3501 -0.4644,0.684 -0.8415,1.00278 -0.3771,0.3159 -0.8541,0.5724 -1.42938,0.7641 -0.5724,0.1953 -1.21923,0.2907 -1.93752,0.2907 -1.5318,0 -2.72304,-0.4455 -3.58335,-1.33686 -0.8568,-0.891 -1.28727,-2.08557 -1.28727,-3.5865 0,-1.01484 0.1953,-1.91232 0.5886,-2.69217 0.3933,-0.7794 0.96237,-1.38294 1.70505,-1.80711 0.7452,-0.4266 1.63386,-0.6408 2.66742,-0.6408 0.6408,0 1.2285,0.0927 1.76382,0.2817 0.5319,0.1854 0.98712,0.4266 1.35855,0.7245 0.3717,0.297 0.6561,0.6129 0.8505,0.9468 0.198,0.3375 0.297,0.6498 0.297,0.93753 0,0.297 -0.1116,0.5481 -0.3312,0.7551 -0.2232,0.2043 -0.4887,0.3069 -0.8046,0.3069 -0.2043,0 -0.3744,-0.0528 -0.5103,-0.1584 -0.1368,-0.1053 -0.288,-0.2781 -0.4581,-0.513 -0.3033,-0.4581 -0.6192,-0.8019 -0.9468,-1.03356 -0.3312,-0.2295 -0.7488,-0.3438 -1.25649,-0.3438 -0.7299,0 -1.32129,0.2853 -1.76706,0.8568 -0.4482,0.5697 -0.6714,1.35252 -0.6714,2.34279 0,0.4671 0.0588,0.8946 0.1737,1.28412 0.1143,0.3897 0.2781,0.7209 0.4986,0.99639 0.2169,0.2754 0.4797,0.4824 0.7893,0.6246 0.3069,0.1422 0.6471,0.2133 1.0152,0.2133 0.495,0 0.91917,-0.1143 1.2717,-0.3438 0.3555,-0.2322 0.6687,-0.5814 0.94077,-1.05201 0.1485,-0.2781 0.3123,-0.495 0.4887,-0.6534 0.1737,-0.1575 0.3897,-0.2349 0.6435,-0.2349 0.3033,0 0.5544,0.1143 0.7524,0.3429 0.198,0.2286 0.2997,0.4734 0.2997,0.7335 z"
         id="path3227"
         style="fill:#838281;fill-rule:nonzero"
         inkscape:connector-curvature="0" />
      <path
         class="fil3"
         d="m 574.92183,184.80815 -4.83984,0 c 0.006,0.5634 0.1206,1.0584 0.3402,1.48851 0.2196,0.4302 0.5139,0.7515 0.8793,0.9684 0.3654,0.2196 0.7704,0.3285 1.20969,0.3285 0.297,0 0.567,-0.034 0.8109,-0.1053 0.2439,-0.068 0.4824,-0.1764 0.7119,-0.3249 0.2322,-0.1485 0.4428,-0.3069 0.6345,-0.477 0.1953,-0.1701 0.4455,-0.3996 0.7551,-0.6903 0.1269,-0.108 0.3069,-0.1638 0.5418,-0.1638 0.2538,0 0.4608,0.0709 0.6183,0.2097 0.1548,0.1395 0.2349,0.3348 0.2349,0.5886 0,0.2232 -0.0897,0.486 -0.2628,0.7857 -0.1764,0.297 -0.4392,0.585 -0.7956,0.8604 -0.3528,0.2754 -0.7947,0.504 -1.33056,0.684 -0.5355,0.1827 -1.15119,0.2727 -1.84428,0.2727 -1.59057,0 -2.82825,-0.4518 -3.71016,-1.35855 -0.882,-0.90675 -1.32453,-2.1384 -1.32453,-3.6918 0,-0.7299 0.108,-1.41129 0.3285,-2.03634 0.2169,-0.6246 0.5346,-1.16046 0.94995,-1.60902 0.4176,-0.4455 0.93114,-0.7893 1.54413,-1.02753 0.6093,-0.2385 1.28727,-0.3591 2.02995,-0.3591 0.9684,0 1.79784,0.2043 2.48778,0.6129 0.693,0.4086 1.21005,0.93438 1.55655,1.58103 0.3438,0.6471 0.5166,1.30608 0.5166,1.97748 0,0.6219 -0.18,1.02438 -0.5355,1.21005 -0.3564,0.1827 -0.8604,0.2754 -1.50696,0.2754 z m -4.83984,-1.4049 4.48686,0 c -0.0588,-0.8451 -0.288,-1.47933 -0.684,-1.89711 -0.396,-0.4203 -0.91593,-0.6309 -1.56258,-0.6309 -0.6192,0 -1.12356,0.2133 -1.51938,0.6372 -0.396,0.4266 -0.6372,1.0584 -0.7209,1.89072 z"
         id="path3229"
         style="fill:#838281;fill-rule:nonzero"
         inkscape:connector-curvature="0" />
      <g
         mask="none"
         id="g3231"
         style="fill:#00a2e1;fill-opacity:1;fill-rule:evenodd;stroke:none"
         transform="matrix(89.999997,0,0,89.999997,8.29985,-83.44764)">
        <path
           class="fil0 str1"
           d="m 3.27019,1.9359 c 0.231933,0 0.420024,0.188091 0.420024,0.420024 0,0.231933 -0.188091,0.420024 -0.420024,0.420024 -0.231933,0 -0.420024,-0.188091 -0.420024,-0.420024 0,-0.231933 0.188091,-0.420024 0.420024,-0.420024 z"
           id="path3233"
           style="fill:#00a2e1;fill-opacity:1;stroke:none"
           inkscape:connector-curvature="0" />
        <path
           id="path3235"
           class="fil9"
           d="m 3.27019,1.9359 c 0.231933,0 0.420024,0.188091 0.420024,0.420024 0,0.231933 -0.188091,0.420024 -0.420024,0.420024 -0.231933,0 -0.420024,-0.188091 -0.420024,-0.420024 0,-0.231933 0.188091,-0.420024 0.420024,-0.420024 z"
           style="fill:#00a2e1;fill-opacity:1;stroke:none"
           inkscape:connector-curvature="0" />
      </g>
      <path
         class="fil5"
         d="m 315.16474,106.85195 c 2.01897,1.22319 0.94752,4.71717 1.5552,7.02108 0.3402,1.39113 0.8514,3.12516 -0.3411,4.27887 -1.11078,0.8595 -3.20598,0.7542 -3.66057,2.07711 -0.585,1.70289 1.05417,4.42449 3.34386,4.27536 2.84247,-0.7884 5.13072,-2.90304 7.1568,-4.95639 2.00511,-2.05191 1.33479,-3.66417 1.14417,-6.19974 -0.0854,-1.12887 0.9117,-2.54124 1.77552,-1.91763 1.85382,1.33902 -1.11897,4.37454 1.05588,4.95918 2.22623,0.5985 3.21695,-5.76216 5.28551,-3.13515 1.27557,1.61892 -3.69747,3.07521 -2.4615,4.51485 1.11366,1.20258 2.44206,-2.22345 4.49856,-0.98649 0.4068,0.2448 0.7335,0.8622 0.504,1.28484 -1.20582,2.2167 -4.01814,0.2844 -4.32495,2.09196 -0.3582,2.10753 4.57371,-0.1404 4.19814,2.61747 -0.4914,3.61062 -5.5152,-1.47015 -9.26891,0.6183 -3.71412,2.06613 -5.30325,6.47892 -9.16119,8.17866 -2.24181,0.9882 -4.22046,-1.35882 -6.32196,-1.96371 -0.504,3.40155 -2.74392,5.96484 -4.95855,8.41572 -1.97505,5.34258 10.9782,-1.51686 9.25551,4.83165 -1.09665,4.04154 -6.43788,2.44989 -9.80082,4.75758 -0.45,2.98026 2.10969,4.18464 4.18716,5.24412 3.28716,1.67598 0.92619,2.56428 0.1089,1.74258 -1.74897,-1.75851 -1.86309,-0.5004 -1.56618,-0.1692 1.18386,1.32165 0.4797,0.7515 2.89278,2.58237 1.28304,0.97335 0.0652,2.69892 -1.16433,1.92087 -1.79154,-1.81386 -2.16747,-3.73041 -3.16917,-3.41253 -1.34082,0.4851 0.8208,1.75959 1.63944,4.59315 0.7083,2.45088 -2.56284,2.7018 -2.32974,0.4797 0.2601,-2.4768 -0.7335,-4.02453 -1.31634,-3.99582 -0.7857,0.0386 0.7479,4.90815 -1.10691,4.73526 -1.75995,-0.1638 -0.8325,-3.18825 -0.7326,-3.53835 1.03041,-3.60036 0.432,-3.57309 -1.24866,-6.91938 -0.8496,-1.69299 -5.25546,-5.08572 -2.88,-6.58701 8.15778,-2.57598 -1.09098,-2.31165 -1.83294,-4.13361 -3.6e-4,-0.2871 -0.0276,-0.3033 -0.2763,-0.1593 -1.94877,0.2682 -6.34392,-7.87356 -4.49613,0.4797 -0.1125,2.80773 -5.25366,0.6885 -7.14474,0.7992 -3.73788,0.2178 -4.01382,-0.3141 -6.61644,2.37789 -0.2529,0.2619 -2.40876,2.5767 -3.43062,1.13454 -1.07721,-1.51938 3.90645,-2.62629 3.54717,-3.32577 -0.2664,-0.5193 -2.10366,-0.6057 -4.1184,0.8577 -1.80747,1.31283 -3.22587,-1.64592 -0.7488,-2.25747 2.86299,-0.7074 5.04747,0.5274 4.79727,-0.8766 -0.2259,-1.02681 -2.07315,-0.3942 -4.54005,-1.03851 -1.28835,-0.6759 -0.4032,-2.59335 1.08144,-1.96866 2.79144,1.17423 1.94634,0.8496 3.68289,1.21428 0.4347,0.0909 1.46763,-0.6363 -0.92979,-1.27206 -1.12041,-0.297 -1.53144,-2.78577 1.56366,-0.7767 1.95624,1.26954 4.27887,2.88387 6.63516,1.00413 0.3168,-4.06629 -3.73221,-7.89588 -0.7803,-10.86624 4.6368,-4.6665 5.17284,9.98118 8.81181,5.59917 1.01547,-3.14325 2.11536,-6.36489 4.80897,-8.50185 -1.57428,-1.51758 -4.59603,-2.05758 -4.86108,-4.49325 -0.4572,-4.19103 2.56995,-7.7733 2.50227,-12.02319 -0.068,-4.29516 -6.98031,-6.105866 -4.09887,-8.336336 2.20077,-1.70433 2.7198,3.691076 4.36608,2.326856 1.41201,-1.169636 -1.66752,-2.639066 -0.351,-4.791236 0.2511,-0.4104 0.94923,-0.4356 1.36485,-0.2061 2.09943,1.16253 -0.2034,4.02588 1.395,4.38912 1.8648,0.3501 0.6399,-4.68423 2.67948,-4.38948 3.30912,0.4779 -1.70325,4.51629 -0.0723,6.145106 1.59345,1.59129 2.73618,-2.501186 4.82247,-1.565096 0.97227,0.436496 0.2475,2.005826 -0.7731,2.496596 -2.29149,1.10232 -4.02273,1.32804 -4.79691,4.09041 -0.765,2.78154 -1.45278,5.82057 -0.7137,8.67618 1.01556,2.05758 4.19175,2.11572 5.37444,0.7587 0.91809,-1.05516 -0.2205,-2.81691 -0.0315,-4.20876 0.4032,-1.60938 2.16,-2.03418 3.53484,-2.43495 2.29923,-0.6255 4.78917,-3.30057 6.85845,-2.16351 z"
         id="path3237"
         style="fill:#ffffff;fill-rule:nonzero"
         inkscape:connector-curvature="0" />
      <ellipse
         d="m 3.4273884,2.21737 c 0,0.00632 -0.00398,0.01144 -0.0089,0.01144 -0.00491,0 -0.0089,-0.00512 -0.0089,-0.01144 0,-0.00632 0.00398,-0.01144 0.0089,-0.01144 0.00491,0 0.0089,0.00512 0.0089,0.01144 z"
         class="fil10"
         cx="3.4184899"
         cy="2.21737"
         rx="0.0088984901"
         ry="0.0114398"
         id="ellipse3239"
         sodipodi:cx="3.4184899"
         sodipodi:cy="2.21737"
         sodipodi:rx="0.0088984901"
         sodipodi:ry="0.0114398"
         style="fill:#75c5f0;fill-rule:evenodd"
         transform="matrix(89.999997,0,0,89.999997,8.29985,-83.44764)" />
      <circle
         d="M 0.0141142,0 C 0.0141142,0.00779506 0.00779506,0.0141142 0,0.0141142 -0.00779506,0.0141142 -0.0141142,0.00779506 -0.0141142,0 c 0,-0.00779506 0.00631914,-0.0141142 0.0141142,-0.0141142 0.00779506,0 0.0141142,0.00631914 0.0141142,0.0141142 z"
         class="fil10"
         transform="matrix(-28.370879,-49.139908,-63.173518,36.473309,306.74168,110.79125)"
         r="0.0141142"
         id="circle3241"
         cx="0"
         cy="0"
         sodipodi:cx="0"
         sodipodi:cy="0"
         sodipodi:rx="0.0141142"
         sodipodi:ry="0.0141142"
         style="fill:#75c5f0;fill-rule:evenodd" />
    </g>
  </g>
</svg>
