<svg version="1.1" xmlns="http://www.w3.org/2000/svg" xmlns:xlink="http://www.w3.org/1999/xlink" width="1499.19995" height="896" viewBox="0,0,1499.19995,896">
			<filter id="dropShadow">
				<feGaussianBlur in="SourceAlpha" stdDeviation="4" />
				<feOffset dx="-4" dy="4" />
				<feMerge>
					<feMergeNode />
					<feMergeNode in="SourceGraphic" />
				</feMerge>
			</filter>
			<filter id="glow">
				<feGaussianBlur in="SourceGraphic" stdDeviation="12" />
			</filter>
			<g transform="" id="logo" fill="none" fill-rule="nonzero" stroke="none" stroke-width="none" stroke-linecap="none" stroke-linejoin="miter" stroke-miterlimit="10" stroke-dasharray="" stroke-dashoffset="0" font-family="none" font-weight="none" font-size="none" text-anchor="none" style="mix-blend-mode: normal"><path d="M409.67949,448c0,-197.885 160.41749,-358.30249 358.30249,-358.30249c197.885,0 358.30249,160.41749 358.30249,358.30249c0,197.885 -160.41749,358.30249 -358.30249,358.30249c-197.885,0 -358.30249,-160.41749 -358.30249,-358.30249z" id="templateCircle" stroke="none" stroke-width="1" stroke-linecap="butt"/><path d="M409.67949,448c0,-197.885 160.41749,-358.30249 358.30249,-358.30249c197.885,0 358.30249,160.41749 358.30249,358.30249c0,197.885 -160.41749,358.30249 -358.30249,358.30249c-197.885,0 -358.30249,-160.41749 -358.30249,-358.30249z" stroke="none" stroke-width="1" stroke-linecap="butt"/><path d="M409.67949,465.91512v-35.83025h716.60497v35.83025z" stroke="none" stroke-width="1" stroke-linecap="butt"/><path d="M767.98198,89.69751c191.87761,0 348.52806,150.82543 357.8624,340.38736l-715.7248,0c9.33434,-189.56193 165.98479,-340.38736 357.8624,-340.38736zM767.98198,806.30249c-191.87761,0 -348.52806,-150.82543 -357.8624,-340.38736l715.7248,0c-9.33434,189.56193 -165.98479,340.38736 -357.8624,340.38736z" stroke="none" stroke-width="1" stroke-linecap="butt"/><g transform="translate(-0.23521,300.55494) rotate(-20) scale(0.89576,0.89576)" id="planet"><g><path d="M646.48553,428l-296.39426,0c10.42063,-211.62223 185.3013,-380 399.5087,-380c214.2074,0 389.08807,168.37777 399.5087,380h-163.54425" id="glow" filter="url(#glow)" stroke="#61f2ff" stroke-width="15" stroke-linecap="butt"/><path d="M646.48553,428l-296.39426,0c10.42063,-211.62223 185.3013,-380 399.5087,-380c214.2074,0 389.08807,168.37777 399.5087,380h-163.54425" id="dropshadow" filter="url(#dropShadow)" stroke="#61f2ff" stroke-width="15" stroke-linecap="butt" opacity="0.5"/><path d="M646.48553,428l-296.39426,0c10.42063,-211.62223 185.3013,-380 399.5087,-380c214.2074,0 389.08807,168.37777 399.5087,380h-163.54425" id="line" stroke="#61f2ff" stroke-width="15" stroke-linecap="butt"/><path d="M646.48553,428l-296.39426,0c10.42063,-211.62223 185.3013,-380 399.5087,-380c214.2074,0 389.08807,168.37777 399.5087,380h-163.54425" id="highlight" stroke="#ffffff" stroke-width="1.5" stroke-linecap="round" opacity="0.25"/></g><g><path d="M630.39317,388l-236.19895,0c5.16911,-32.20128 9.19708,-49.5509 28.85517,-91.7683c19.61528,-42.12547 44.73167,-76.89861 77.99779,-108.65825c33.27017,-31.76351 69.20611,-55.28169 112.36836,-72.93464c43.2737,-17.69854 86.66723,-26.6388 136.18445,-26.6388c49.51722,0 92.91074,8.94026 136.18445,26.6388c43.16224,17.65296 79.09819,41.17114 112.36836,72.93464c33.26612,31.75964 58.3825,66.53278 77.99779,108.65825c19.65809,42.2174 23.55235,59.61034 28.79384,91.7683l-117.36052,0" id="glow" filter="url(#glow)" stroke="#f25e95" stroke-width="15" stroke-linecap="butt"/><path d="M630.39317,388l-236.19895,0c5.16911,-32.20128 9.19708,-49.5509 28.85517,-91.7683c19.61528,-42.12547 44.73167,-76.89861 77.99779,-108.65825c33.27017,-31.76351 69.20611,-55.28169 112.36836,-72.93464c43.2737,-17.69854 86.66723,-26.6388 136.18445,-26.6388c49.51722,0 92.91074,8.94026 136.18445,26.6388c43.16224,17.65296 79.09819,41.17114 112.36836,72.93464c33.26612,31.75964 58.3825,66.53278 77.99779,108.65825c19.65809,42.2174 23.55235,59.61034 28.79384,91.7683l-117.36052,0" id="dropshadow" filter="url(#dropShadow)" stroke="#f25e95" stroke-width="15" stroke-linecap="butt" opacity="0.5"/><path d="M630.39317,388l-236.19895,0c5.16911,-32.20128 9.19708,-49.5509 28.85517,-91.7683c19.61528,-42.12547 44.73167,-76.89861 77.99779,-108.65825c33.27017,-31.76351 69.20611,-55.28169 112.36836,-72.93464c43.2737,-17.69854 86.66723,-26.6388 136.18445,-26.6388c49.51722,0 92.91074,8.94026 136.18445,26.6388c43.16224,17.65296 79.09819,41.17114 112.36836,72.93464c33.26612,31.75964 58.3825,66.53278 77.99779,108.65825c19.65809,42.2174 23.55235,59.61034 28.79384,91.7683l-117.36052,0" id="line" stroke="#f25e95" stroke-width="15" stroke-linecap="butt"/><path d="M630.39317,388l-236.19895,0c5.16911,-32.20128 9.19708,-49.5509 28.85517,-91.7683c19.61528,-42.12547 44.73167,-76.89861 77.99779,-108.65825c33.27017,-31.76351 69.20611,-55.28169 112.36836,-72.93464c43.2737,-17.69854 86.66723,-26.6388 136.18445,-26.6388c49.51722,0 92.91074,8.94026 136.18445,26.6388c43.16224,17.65296 79.09819,41.17114 112.36836,72.93464c33.26612,31.75964 58.3825,66.53278 77.99779,108.65825c19.65809,42.2174 23.55235,59.61034 28.79384,91.7683l-117.36052,0" id="highlight" stroke="#ffffff" stroke-width="1.5" stroke-linecap="round" opacity="0.25"/></g><g><path d="M899.93652,468h249.17216c-10.42063,211.62223 -185.3013,380 -399.5087,380c-214.2074,0 -389.08807,-168.37777 -399.5087,-380l126.6217,0" id="glow" filter="url(#glow)" stroke="#f25e95" stroke-width="15" stroke-linecap="butt"/><path d="M899.93652,468h249.17216c-10.42063,211.62223 -185.3013,380 -399.5087,380c-214.2074,0 -389.08807,-168.37777 -399.5087,-380l126.6217,0" id="dropshadow" filter="url(#dropShadow)" stroke="#f25e95" stroke-width="15" stroke-linecap="butt" opacity="0.5"/><path d="M899.93652,468h249.17216c-10.42063,211.62223 -185.3013,380 -399.5087,380c-214.2074,0 -389.08807,-168.37777 -399.5087,-380l126.6217,0" id="line" stroke="#f25e95" stroke-width="15" stroke-linecap="butt"/><path d="M899.93652,468h249.17216c-10.42063,211.62223 -185.3013,380 -399.5087,380c-214.2074,0 -389.08807,-168.37777 -399.5087,-380l126.6217,0" id="highlight" stroke="#ffffff" stroke-width="1.5" stroke-linecap="round" opacity="0.25"/></g><g><path d="M890.45806,508l214.54768,0c-5.16911,32.20128 -9.19708,49.5509 -28.85517,91.7683c-19.61528,42.12547 -44.73167,76.89861 -77.99779,108.65825c-33.27017,31.76351 -69.20611,55.28169 -112.36836,72.93464c-43.2737,17.69854 -86.66723,26.6388 -136.18445,26.6388c-49.51722,0 -92.91074,-8.94026 -136.18445,-26.6388c-43.16224,-17.65296 -79.09819,-41.17114 -112.36836,-72.93464c-33.26612,-31.75964 -58.3825,-66.53278 -77.99779,-108.65825c-19.65809,-42.2174 -23.55235,-59.61034 -28.79384,-91.7683l66.35684,0" id="glow" filter="url(#glow)" stroke="#61f2ff" stroke-width="15" stroke-linecap="butt"/><path d="M890.45806,508l214.54768,0c-5.16911,32.20128 -9.19708,49.5509 -28.85517,91.7683c-19.61528,42.12547 -44.73167,76.89861 -77.99779,108.65825c-33.27017,31.76351 -69.20611,55.28169 -112.36836,72.93464c-43.2737,17.69854 -86.66723,26.6388 -136.18445,26.6388c-49.51722,0 -92.91074,-8.94026 -136.18445,-26.6388c-43.16224,-17.65296 -79.09819,-41.17114 -112.36836,-72.93464c-33.26612,-31.75964 -58.3825,-66.53278 -77.99779,-108.65825c-19.65809,-42.2174 -23.55235,-59.61034 -28.79384,-91.7683l66.35684,0" id="dropshadow" filter="url(#dropShadow)" stroke="#61f2ff" stroke-width="15" stroke-linecap="butt" opacity="0.5"/><path d="M890.45806,508l214.54768,0c-5.16911,32.20128 -9.19708,49.5509 -28.85517,91.7683c-19.61528,42.12547 -44.73167,76.89861 -77.99779,108.65825c-33.27017,31.76351 -69.20611,55.28169 -112.36836,72.93464c-43.2737,17.69854 -86.66723,26.6388 -136.18445,26.6388c-49.51722,0 -92.91074,-8.94026 -136.18445,-26.6388c-43.16224,-17.65296 -79.09819,-41.17114 -112.36836,-72.93464c-33.26612,-31.75964 -58.3825,-66.53278 -77.99779,-108.65825c-19.65809,-42.2174 -23.55235,-59.61034 -28.79384,-91.7683l66.35684,0" id="line" stroke="#61f2ff" stroke-width="15" stroke-linecap="butt"/><path d="M890.45806,508l214.54768,0c-5.16911,32.20128 -9.19708,49.5509 -28.85517,91.7683c-19.61528,42.12547 -44.73167,76.89861 -77.99779,108.65825c-33.27017,31.76351 -69.20611,55.28169 -112.36836,72.93464c-43.2737,17.69854 -86.66723,26.6388 -136.18445,26.6388c-49.51722,0 -92.91074,-8.94026 -136.18445,-26.6388c-43.16224,-17.65296 -79.09819,-41.17114 -112.36836,-72.93464c-33.26612,-31.75964 -58.3825,-66.53278 -77.99779,-108.65825c-19.65809,-42.2174 -23.55235,-59.61034 -28.79384,-91.7683l66.35684,0" id="highlight" stroke="#ffffff" stroke-width="1.5" stroke-linecap="round" opacity="0.25"/></g><g><path d="M627.41549,298.03467l48.34076,120.05944c0.13208,0.39624 0.19812,1.05663 0.19812,1.98118v0c0,1.45286 -0.49529,2.70761 -1.48588,3.76424c-0.99059,1.05663 -2.27836,1.58494 -3.8633,1.58494v0c-2.11326,0 -3.76424,-1.12267 -4.95295,-3.368v0l-48.34076,-120.05944c-0.26416,-0.79247 -0.39624,-1.45286 -0.39624,-1.98118v0c0,-1.45286 0.52831,-2.70761 1.58494,-3.76424c1.05663,-1.05663 2.31138,-1.58494 3.76424,-1.58494v0c2.37741,0 4.09444,1.12267 5.15106,3.368zM776.59826,301.99703l-40.01981,99.45518c-1.05663,2.24534 -2.70761,3.368 -4.95295,3.368v0c-1.58494,0 -2.87271,-0.52831 -3.8633,-1.58494c-0.99059,-1.05663 -1.48588,-2.31138 -1.48588,-3.76424v0c0,-0.92455 0.06604,-1.58494 0.19812,-1.98118v0l40.21793,-99.45518c0.92455,-2.24534 2.57553,-3.368 4.95295,-3.368v0c1.58494,0 2.87271,0.52831 3.8633,1.58494c0.99059,1.05663 1.48588,2.31138 1.48588,3.76424v0c0,0.52831 -0.13208,1.18871 -0.39624,1.98118zM673.9732,397.48985l40.01981,-99.45518c1.18871,-2.24534 2.83969,-3.368 4.95295,-3.368v0c1.58494,0 2.90573,0.52831 3.96236,1.58494c1.05663,1.05663 1.58494,2.31138 1.58494,3.76424v0c0,0.52831 -0.13208,1.18871 -0.39624,1.98118v0l-40.21793,99.45518c-0.92455,2.24534 -2.57553,3.368 -4.95295,3.368v0c-1.45286,0 -2.70761,-0.52831 -3.76424,-1.58494c-1.05663,-1.05663 -1.58494,-2.31138 -1.58494,-3.76424v0c0,-0.52831 0.13208,-1.18871 0.39624,-1.98118zM709.4363,375.895l18.02873,44.77464c0.26416,0.52831 0.39624,1.18871 0.39624,1.98118v0c0,1.45286 -0.52831,2.70761 -1.58494,3.76424c-1.05663,1.05663 -2.31138,1.58494 -3.76424,1.58494v0c-2.50949,0 -4.22651,-1.18871 -5.15106,-3.56612v0l-17.83061,-44.77464c-0.26416,-0.52831 -0.39624,-1.12267 -0.39624,-1.78306v0c0,-1.58494 0.52831,-2.90573 1.58494,-3.96236c1.05663,-1.05663 2.31138,-1.58494 3.76424,-1.58494v0c2.64157,0 4.29255,1.18871 4.95295,3.56612zM796.60816,420.07528v-120.05944c0,-1.45286 0.52831,-2.70761 1.58494,-3.76424c1.05663,-1.05663 2.31138,-1.58494 3.76424,-1.58494v0c1.58494,0 2.90573,0.52831 3.96236,1.58494c1.05663,1.05663 1.58494,2.31138 1.58494,3.76424v0v120.05944c0,1.45286 -0.52831,2.70761 -1.58494,3.76424c-1.05663,1.05663 -2.37741,1.58494 -3.96236,1.58494v0c-1.45286,0 -2.70761,-0.52831 -3.76424,-1.58494c-1.05663,-1.05663 -1.58494,-2.31138 -1.58494,-3.76424zM874.46849,420.07528v-120.05944c0,-1.45286 0.49529,-2.70761 1.48588,-3.76424c0.99059,-1.05663 2.27836,-1.58494 3.8633,-1.58494v0c1.45286,0 2.70761,0.52831 3.76424,1.58494c1.05663,1.05663 1.58494,2.31138 1.58494,3.76424v0v120.05944c0,1.45286 -0.52831,2.70761 -1.58494,3.76424c-1.05663,1.05663 -2.31138,1.58494 -3.76424,1.58494v0c-1.58494,0 -2.87271,-0.52831 -3.8633,-1.58494c-0.99059,-1.05663 -1.48588,-2.31138 -1.48588,-3.76424zM819.98607,352.71521h41.80287c1.58494,0 2.87271,0.52831 3.8633,1.58494c0.99059,1.05663 1.48588,2.31138 1.48588,3.76424v0c0,1.45286 -0.49529,2.70761 -1.48588,3.76424c-0.99059,1.05663 -2.27836,1.58494 -3.8633,1.58494v0h-41.80287c-1.58494,0 -2.87271,-0.52831 -3.8633,-1.58494c-0.99059,-1.05663 -1.48588,-2.31138 -1.48588,-3.76424v0c0,-1.45286 0.49529,-2.70761 1.48588,-3.76424c0.99059,-1.05663 2.27836,-1.58494 3.8633,-1.58494zM1017.90584,303.38385l-42.39723,50.12382c-0.92455,1.32079 -2.31138,1.98118 -4.16048,1.98118v0c-1.45286,0 -2.70761,-0.49529 -3.76424,-1.48588c-1.05663,-0.99059 -1.58494,-2.27836 -1.58494,-3.8633v0c0,-1.05663 0.46228,-2.1793 1.38683,-3.368v0l42.19911,-50.12382c1.05663,-1.32079 2.44345,-1.98118 4.16048,-1.98118v0c1.45286,0 2.70761,0.52831 3.76424,1.58494c1.05663,1.05663 1.58494,2.31138 1.58494,3.76424v0c0,1.18871 -0.39624,2.31138 -1.18871,3.368zM958.07424,364.8004l-52.105,-61.41654c-0.79247,-1.05663 -1.18871,-2.1793 -1.18871,-3.368v0c0,-1.45286 0.52831,-2.70761 1.58494,-3.76424c1.05663,-1.05663 2.31138,-1.58494 3.76424,-1.58494v0c1.71702,0 3.10385,0.66039 4.16048,1.98118v0l51.90688,61.21842c0.92455,1.18871 1.38683,2.31138 1.38683,3.368v0c0,1.58494 -0.52831,2.87271 -1.58494,3.8633c-1.05663,0.99059 -2.37741,1.48588 -3.96236,1.48588v0c-1.58494,0 -2.90573,-0.59435 -3.96236,-1.78306zM956.68741,420.07528v-44.18029c0,-1.58494 0.52831,-2.90573 1.58494,-3.96236c1.05663,-1.05663 2.31138,-1.58494 3.76424,-1.58494v0c1.58494,0 2.90573,0.52831 3.96236,1.58494c1.05663,1.05663 1.58494,2.37741 1.58494,3.96236v0v44.18029c0,1.45286 -0.52831,2.70761 -1.58494,3.76424c-1.05663,1.05663 -2.37741,1.58494 -3.96236,1.58494v0c-1.45286,0 -2.70761,-0.52831 -3.76424,-1.58494c-1.05663,-1.05663 -1.58494,-2.31138 -1.58494,-3.76424z" id="glow" filter="url(#glow)" stroke="#61f2ff" stroke-width="6.25611" stroke-linecap="butt"/><path d="M627.41549,298.03467l48.34076,120.05944c0.13208,0.39624 0.19812,1.05663 0.19812,1.98118v0c0,1.45286 -0.49529,2.70761 -1.48588,3.76424c-0.99059,1.05663 -2.27836,1.58494 -3.8633,1.58494v0c-2.11326,0 -3.76424,-1.12267 -4.95295,-3.368v0l-48.34076,-120.05944c-0.26416,-0.79247 -0.39624,-1.45286 -0.39624,-1.98118v0c0,-1.45286 0.52831,-2.70761 1.58494,-3.76424c1.05663,-1.05663 2.31138,-1.58494 3.76424,-1.58494v0c2.37741,0 4.09444,1.12267 5.15106,3.368zM776.59826,301.99703l-40.01981,99.45518c-1.05663,2.24534 -2.70761,3.368 -4.95295,3.368v0c-1.58494,0 -2.87271,-0.52831 -3.8633,-1.58494c-0.99059,-1.05663 -1.48588,-2.31138 -1.48588,-3.76424v0c0,-0.92455 0.06604,-1.58494 0.19812,-1.98118v0l40.21793,-99.45518c0.92455,-2.24534 2.57553,-3.368 4.95295,-3.368v0c1.58494,0 2.87271,0.52831 3.8633,1.58494c0.99059,1.05663 1.48588,2.31138 1.48588,3.76424v0c0,0.52831 -0.13208,1.18871 -0.39624,1.98118zM673.9732,397.48985l40.01981,-99.45518c1.18871,-2.24534 2.83969,-3.368 4.95295,-3.368v0c1.58494,0 2.90573,0.52831 3.96236,1.58494c1.05663,1.05663 1.58494,2.31138 1.58494,3.76424v0c0,0.52831 -0.13208,1.18871 -0.39624,1.98118v0l-40.21793,99.45518c-0.92455,2.24534 -2.57553,3.368 -4.95295,3.368v0c-1.45286,0 -2.70761,-0.52831 -3.76424,-1.58494c-1.05663,-1.05663 -1.58494,-2.31138 -1.58494,-3.76424v0c0,-0.52831 0.13208,-1.18871 0.39624,-1.98118zM709.4363,375.895l18.02873,44.77464c0.26416,0.52831 0.39624,1.18871 0.39624,1.98118v0c0,1.45286 -0.52831,2.70761 -1.58494,3.76424c-1.05663,1.05663 -2.31138,1.58494 -3.76424,1.58494v0c-2.50949,0 -4.22651,-1.18871 -5.15106,-3.56612v0l-17.83061,-44.77464c-0.26416,-0.52831 -0.39624,-1.12267 -0.39624,-1.78306v0c0,-1.58494 0.52831,-2.90573 1.58494,-3.96236c1.05663,-1.05663 2.31138,-1.58494 3.76424,-1.58494v0c2.64157,0 4.29255,1.18871 4.95295,3.56612zM796.60816,420.07528v-120.05944c0,-1.45286 0.52831,-2.70761 1.58494,-3.76424c1.05663,-1.05663 2.31138,-1.58494 3.76424,-1.58494v0c1.58494,0 2.90573,0.52831 3.96236,1.58494c1.05663,1.05663 1.58494,2.31138 1.58494,3.76424v0v120.05944c0,1.45286 -0.52831,2.70761 -1.58494,3.76424c-1.05663,1.05663 -2.37741,1.58494 -3.96236,1.58494v0c-1.45286,0 -2.70761,-0.52831 -3.76424,-1.58494c-1.05663,-1.05663 -1.58494,-2.31138 -1.58494,-3.76424zM874.46849,420.07528v-120.05944c0,-1.45286 0.49529,-2.70761 1.48588,-3.76424c0.99059,-1.05663 2.27836,-1.58494 3.8633,-1.58494v0c1.45286,0 2.70761,0.52831 3.76424,1.58494c1.05663,1.05663 1.58494,2.31138 1.58494,3.76424v0v120.05944c0,1.45286 -0.52831,2.70761 -1.58494,3.76424c-1.05663,1.05663 -2.31138,1.58494 -3.76424,1.58494v0c-1.58494,0 -2.87271,-0.52831 -3.8633,-1.58494c-0.99059,-1.05663 -1.48588,-2.31138 -1.48588,-3.76424zM819.98607,352.71521h41.80287c1.58494,0 2.87271,0.52831 3.8633,1.58494c0.99059,1.05663 1.48588,2.31138 1.48588,3.76424v0c0,1.45286 -0.49529,2.70761 -1.48588,3.76424c-0.99059,1.05663 -2.27836,1.58494 -3.8633,1.58494v0h-41.80287c-1.58494,0 -2.87271,-0.52831 -3.8633,-1.58494c-0.99059,-1.05663 -1.48588,-2.31138 -1.48588,-3.76424v0c0,-1.45286 0.49529,-2.70761 1.48588,-3.76424c0.99059,-1.05663 2.27836,-1.58494 3.8633,-1.58494zM1017.90584,303.38385l-42.39723,50.12382c-0.92455,1.32079 -2.31138,1.98118 -4.16048,1.98118v0c-1.45286,0 -2.70761,-0.49529 -3.76424,-1.48588c-1.05663,-0.99059 -1.58494,-2.27836 -1.58494,-3.8633v0c0,-1.05663 0.46228,-2.1793 1.38683,-3.368v0l42.19911,-50.12382c1.05663,-1.32079 2.44345,-1.98118 4.16048,-1.98118v0c1.45286,0 2.70761,0.52831 3.76424,1.58494c1.05663,1.05663 1.58494,2.31138 1.58494,3.76424v0c0,1.18871 -0.39624,2.31138 -1.18871,3.368zM958.07424,364.8004l-52.105,-61.41654c-0.79247,-1.05663 -1.18871,-2.1793 -1.18871,-3.368v0c0,-1.45286 0.52831,-2.70761 1.58494,-3.76424c1.05663,-1.05663 2.31138,-1.58494 3.76424,-1.58494v0c1.71702,0 3.10385,0.66039 4.16048,1.98118v0l51.90688,61.21842c0.92455,1.18871 1.38683,2.31138 1.38683,3.368v0c0,1.58494 -0.52831,2.87271 -1.58494,3.8633c-1.05663,0.99059 -2.37741,1.48588 -3.96236,1.48588v0c-1.58494,0 -2.90573,-0.59435 -3.96236,-1.78306zM956.68741,420.07528v-44.18029c0,-1.58494 0.52831,-2.90573 1.58494,-3.96236c1.05663,-1.05663 2.31138,-1.58494 3.76424,-1.58494v0c1.58494,0 2.90573,0.52831 3.96236,1.58494c1.05663,1.05663 1.58494,2.37741 1.58494,3.96236v0v44.18029c0,1.45286 -0.52831,2.70761 -1.58494,3.76424c-1.05663,1.05663 -2.37741,1.58494 -3.96236,1.58494v0c-1.45286,0 -2.70761,-0.52831 -3.76424,-1.58494c-1.05663,-1.05663 -1.58494,-2.31138 -1.58494,-3.76424z" id="dropshadow" filter="url(#dropShadow)" stroke="#61f2ff" stroke-width="6.25611" stroke-linecap="butt" opacity="0.5"/><path d="M627.41549,298.03467l48.34076,120.05944c0.13208,0.39624 0.19812,1.05663 0.19812,1.98118v0c0,1.45286 -0.49529,2.70761 -1.48588,3.76424c-0.99059,1.05663 -2.27836,1.58494 -3.8633,1.58494v0c-2.11326,0 -3.76424,-1.12267 -4.95295,-3.368v0l-48.34076,-120.05944c-0.26416,-0.79247 -0.39624,-1.45286 -0.39624,-1.98118v0c0,-1.45286 0.52831,-2.70761 1.58494,-3.76424c1.05663,-1.05663 2.31138,-1.58494 3.76424,-1.58494v0c2.37741,0 4.09444,1.12267 5.15106,3.368zM776.59826,301.99703l-40.01981,99.45518c-1.05663,2.24534 -2.70761,3.368 -4.95295,3.368v0c-1.58494,0 -2.87271,-0.52831 -3.8633,-1.58494c-0.99059,-1.05663 -1.48588,-2.31138 -1.48588,-3.76424v0c0,-0.92455 0.06604,-1.58494 0.19812,-1.98118v0l40.21793,-99.45518c0.92455,-2.24534 2.57553,-3.368 4.95295,-3.368v0c1.58494,0 2.87271,0.52831 3.8633,1.58494c0.99059,1.05663 1.48588,2.31138 1.48588,3.76424v0c0,0.52831 -0.13208,1.18871 -0.39624,1.98118zM673.9732,397.48985l40.01981,-99.45518c1.18871,-2.24534 2.83969,-3.368 4.95295,-3.368v0c1.58494,0 2.90573,0.52831 3.96236,1.58494c1.05663,1.05663 1.58494,2.31138 1.58494,3.76424v0c0,0.52831 -0.13208,1.18871 -0.39624,1.98118v0l-40.21793,99.45518c-0.92455,2.24534 -2.57553,3.368 -4.95295,3.368v0c-1.45286,0 -2.70761,-0.52831 -3.76424,-1.58494c-1.05663,-1.05663 -1.58494,-2.31138 -1.58494,-3.76424v0c0,-0.52831 0.13208,-1.18871 0.39624,-1.98118zM709.4363,375.895l18.02873,44.77464c0.26416,0.52831 0.39624,1.18871 0.39624,1.98118v0c0,1.45286 -0.52831,2.70761 -1.58494,3.76424c-1.05663,1.05663 -2.31138,1.58494 -3.76424,1.58494v0c-2.50949,0 -4.22651,-1.18871 -5.15106,-3.56612v0l-17.83061,-44.77464c-0.26416,-0.52831 -0.39624,-1.12267 -0.39624,-1.78306v0c0,-1.58494 0.52831,-2.90573 1.58494,-3.96236c1.05663,-1.05663 2.31138,-1.58494 3.76424,-1.58494v0c2.64157,0 4.29255,1.18871 4.95295,3.56612zM796.60816,420.07528v-120.05944c0,-1.45286 0.52831,-2.70761 1.58494,-3.76424c1.05663,-1.05663 2.31138,-1.58494 3.76424,-1.58494v0c1.58494,0 2.90573,0.52831 3.96236,1.58494c1.05663,1.05663 1.58494,2.31138 1.58494,3.76424v0v120.05944c0,1.45286 -0.52831,2.70761 -1.58494,3.76424c-1.05663,1.05663 -2.37741,1.58494 -3.96236,1.58494v0c-1.45286,0 -2.70761,-0.52831 -3.76424,-1.58494c-1.05663,-1.05663 -1.58494,-2.31138 -1.58494,-3.76424zM874.46849,420.07528v-120.05944c0,-1.45286 0.49529,-2.70761 1.48588,-3.76424c0.99059,-1.05663 2.27836,-1.58494 3.8633,-1.58494v0c1.45286,0 2.70761,0.52831 3.76424,1.58494c1.05663,1.05663 1.58494,2.31138 1.58494,3.76424v0v120.05944c0,1.45286 -0.52831,2.70761 -1.58494,3.76424c-1.05663,1.05663 -2.31138,1.58494 -3.76424,1.58494v0c-1.58494,0 -2.87271,-0.52831 -3.8633,-1.58494c-0.99059,-1.05663 -1.48588,-2.31138 -1.48588,-3.76424zM819.98607,352.71521h41.80287c1.58494,0 2.87271,0.52831 3.8633,1.58494c0.99059,1.05663 1.48588,2.31138 1.48588,3.76424v0c0,1.45286 -0.49529,2.70761 -1.48588,3.76424c-0.99059,1.05663 -2.27836,1.58494 -3.8633,1.58494v0h-41.80287c-1.58494,0 -2.87271,-0.52831 -3.8633,-1.58494c-0.99059,-1.05663 -1.48588,-2.31138 -1.48588,-3.76424v0c0,-1.45286 0.49529,-2.70761 1.48588,-3.76424c0.99059,-1.05663 2.27836,-1.58494 3.8633,-1.58494zM1017.90584,303.38385l-42.39723,50.12382c-0.92455,1.32079 -2.31138,1.98118 -4.16048,1.98118v0c-1.45286,0 -2.70761,-0.49529 -3.76424,-1.48588c-1.05663,-0.99059 -1.58494,-2.27836 -1.58494,-3.8633v0c0,-1.05663 0.46228,-2.1793 1.38683,-3.368v0l42.19911,-50.12382c1.05663,-1.32079 2.44345,-1.98118 4.16048,-1.98118v0c1.45286,0 2.70761,0.52831 3.76424,1.58494c1.05663,1.05663 1.58494,2.31138 1.58494,3.76424v0c0,1.18871 -0.39624,2.31138 -1.18871,3.368zM958.07424,364.8004l-52.105,-61.41654c-0.79247,-1.05663 -1.18871,-2.1793 -1.18871,-3.368v0c0,-1.45286 0.52831,-2.70761 1.58494,-3.76424c1.05663,-1.05663 2.31138,-1.58494 3.76424,-1.58494v0c1.71702,0 3.10385,0.66039 4.16048,1.98118v0l51.90688,61.21842c0.92455,1.18871 1.38683,2.31138 1.38683,3.368v0c0,1.58494 -0.52831,2.87271 -1.58494,3.8633c-1.05663,0.99059 -2.37741,1.48588 -3.96236,1.48588v0c-1.58494,0 -2.90573,-0.59435 -3.96236,-1.78306zM956.68741,420.07528v-44.18029c0,-1.58494 0.52831,-2.90573 1.58494,-3.96236c1.05663,-1.05663 2.31138,-1.58494 3.76424,-1.58494v0c1.58494,0 2.90573,0.52831 3.96236,1.58494c1.05663,1.05663 1.58494,2.37741 1.58494,3.96236v0v44.18029c0,1.45286 -0.52831,2.70761 -1.58494,3.76424c-1.05663,1.05663 -2.37741,1.58494 -3.96236,1.58494v0c-1.45286,0 -2.70761,-0.52831 -3.76424,-1.58494c-1.05663,-1.05663 -1.58494,-2.31138 -1.58494,-3.76424z" id="line" stroke="#61f2ff" stroke-width="6.25611" stroke-linecap="butt"/><path d="M627.41549,298.03467l48.34076,120.05944c0.13208,0.39624 0.19812,1.05663 0.19812,1.98118v0c0,1.45286 -0.49529,2.70761 -1.48588,3.76424c-0.99059,1.05663 -2.27836,1.58494 -3.8633,1.58494v0c-2.11326,0 -3.76424,-1.12267 -4.95295,-3.368v0l-48.34076,-120.05944c-0.26416,-0.79247 -0.39624,-1.45286 -0.39624,-1.98118v0c0,-1.45286 0.52831,-2.70761 1.58494,-3.76424c1.05663,-1.05663 2.31138,-1.58494 3.76424,-1.58494v0c2.37741,0 4.09444,1.12267 5.15106,3.368zM776.59826,301.99703l-40.01981,99.45518c-1.05663,2.24534 -2.70761,3.368 -4.95295,3.368v0c-1.58494,0 -2.87271,-0.52831 -3.8633,-1.58494c-0.99059,-1.05663 -1.48588,-2.31138 -1.48588,-3.76424v0c0,-0.92455 0.06604,-1.58494 0.19812,-1.98118v0l40.21793,-99.45518c0.92455,-2.24534 2.57553,-3.368 4.95295,-3.368v0c1.58494,0 2.87271,0.52831 3.8633,1.58494c0.99059,1.05663 1.48588,2.31138 1.48588,3.76424v0c0,0.52831 -0.13208,1.18871 -0.39624,1.98118zM673.9732,397.48985l40.01981,-99.45518c1.18871,-2.24534 2.83969,-3.368 4.95295,-3.368v0c1.58494,0 2.90573,0.52831 3.96236,1.58494c1.05663,1.05663 1.58494,2.31138 1.58494,3.76424v0c0,0.52831 -0.13208,1.18871 -0.39624,1.98118v0l-40.21793,99.45518c-0.92455,2.24534 -2.57553,3.368 -4.95295,3.368v0c-1.45286,0 -2.70761,-0.52831 -3.76424,-1.58494c-1.05663,-1.05663 -1.58494,-2.31138 -1.58494,-3.76424v0c0,-0.52831 0.13208,-1.18871 0.39624,-1.98118zM709.4363,375.895l18.02873,44.77464c0.26416,0.52831 0.39624,1.18871 0.39624,1.98118v0c0,1.45286 -0.52831,2.70761 -1.58494,3.76424c-1.05663,1.05663 -2.31138,1.58494 -3.76424,1.58494v0c-2.50949,0 -4.22651,-1.18871 -5.15106,-3.56612v0l-17.83061,-44.77464c-0.26416,-0.52831 -0.39624,-1.12267 -0.39624,-1.78306v0c0,-1.58494 0.52831,-2.90573 1.58494,-3.96236c1.05663,-1.05663 2.31138,-1.58494 3.76424,-1.58494v0c2.64157,0 4.29255,1.18871 4.95295,3.56612zM796.60816,420.07528v-120.05944c0,-1.45286 0.52831,-2.70761 1.58494,-3.76424c1.05663,-1.05663 2.31138,-1.58494 3.76424,-1.58494v0c1.58494,0 2.90573,0.52831 3.96236,1.58494c1.05663,1.05663 1.58494,2.31138 1.58494,3.76424v0v120.05944c0,1.45286 -0.52831,2.70761 -1.58494,3.76424c-1.05663,1.05663 -2.37741,1.58494 -3.96236,1.58494v0c-1.45286,0 -2.70761,-0.52831 -3.76424,-1.58494c-1.05663,-1.05663 -1.58494,-2.31138 -1.58494,-3.76424zM874.46849,420.07528v-120.05944c0,-1.45286 0.49529,-2.70761 1.48588,-3.76424c0.99059,-1.05663 2.27836,-1.58494 3.8633,-1.58494v0c1.45286,0 2.70761,0.52831 3.76424,1.58494c1.05663,1.05663 1.58494,2.31138 1.58494,3.76424v0v120.05944c0,1.45286 -0.52831,2.70761 -1.58494,3.76424c-1.05663,1.05663 -2.31138,1.58494 -3.76424,1.58494v0c-1.58494,0 -2.87271,-0.52831 -3.8633,-1.58494c-0.99059,-1.05663 -1.48588,-2.31138 -1.48588,-3.76424zM819.98607,352.71521h41.80287c1.58494,0 2.87271,0.52831 3.8633,1.58494c0.99059,1.05663 1.48588,2.31138 1.48588,3.76424v0c0,1.45286 -0.49529,2.70761 -1.48588,3.76424c-0.99059,1.05663 -2.27836,1.58494 -3.8633,1.58494v0h-41.80287c-1.58494,0 -2.87271,-0.52831 -3.8633,-1.58494c-0.99059,-1.05663 -1.48588,-2.31138 -1.48588,-3.76424v0c0,-1.45286 0.49529,-2.70761 1.48588,-3.76424c0.99059,-1.05663 2.27836,-1.58494 3.8633,-1.58494zM1017.90584,303.38385l-42.39723,50.12382c-0.92455,1.32079 -2.31138,1.98118 -4.16048,1.98118v0c-1.45286,0 -2.70761,-0.49529 -3.76424,-1.48588c-1.05663,-0.99059 -1.58494,-2.27836 -1.58494,-3.8633v0c0,-1.05663 0.46228,-2.1793 1.38683,-3.368v0l42.19911,-50.12382c1.05663,-1.32079 2.44345,-1.98118 4.16048,-1.98118v0c1.45286,0 2.70761,0.52831 3.76424,1.58494c1.05663,1.05663 1.58494,2.31138 1.58494,3.76424v0c0,1.18871 -0.39624,2.31138 -1.18871,3.368zM958.07424,364.8004l-52.105,-61.41654c-0.79247,-1.05663 -1.18871,-2.1793 -1.18871,-3.368v0c0,-1.45286 0.52831,-2.70761 1.58494,-3.76424c1.05663,-1.05663 2.31138,-1.58494 3.76424,-1.58494v0c1.71702,0 3.10385,0.66039 4.16048,1.98118v0l51.90688,61.21842c0.92455,1.18871 1.38683,2.31138 1.38683,3.368v0c0,1.58494 -0.52831,2.87271 -1.58494,3.8633c-1.05663,0.99059 -2.37741,1.48588 -3.96236,1.48588v0c-1.58494,0 -2.90573,-0.59435 -3.96236,-1.78306zM956.68741,420.07528v-44.18029c0,-1.58494 0.52831,-2.90573 1.58494,-3.96236c1.05663,-1.05663 2.31138,-1.58494 3.76424,-1.58494v0c1.58494,0 2.90573,0.52831 3.96236,1.58494c1.05663,1.05663 1.58494,2.37741 1.58494,3.96236v0v44.18029c0,1.45286 -0.52831,2.70761 -1.58494,3.76424c-1.05663,1.05663 -2.37741,1.58494 -3.96236,1.58494v0c-1.45286,0 -2.70761,-0.52831 -3.76424,-1.58494c-1.05663,-1.05663 -1.58494,-2.31138 -1.58494,-3.76424z" id="highlight" stroke="#ffffff" stroke-width="0.62561" stroke-linecap="round" opacity="NaN"/></g><g><path d="M869.13861,567.05331v0c0,-1.59442 0.53147,-2.88989 1.59442,-3.8864c1.06295,-0.99651 2.3252,-1.49477 3.78675,-1.49477v0c1.59442,0 2.88989,0.49826 3.8864,1.49477c0.99651,0.99651 1.49477,2.29198 1.49477,3.8864v0c0,7.04202 -1.66085,13.12074 -4.98256,18.23617c-3.32171,5.11543 -7.7728,9.06826 -13.35326,11.8585c-5.58047,2.79023 -11.75884,4.18535 -18.53513,4.18535v0c-6.90915,0 -13.12074,-1.39512 -18.63478,-4.18535c-5.51403,-2.79023 -9.9319,-6.74307 -13.25361,-11.8585c-3.32171,-5.11543 -4.98256,-11.19415 -4.98256,-18.23617v0c0,-6.24481 1.5612,-12.15745 4.68361,-17.73792c3.1224,-5.58047 7.10845,-10.92842 11.95815,-16.04385c4.84969,-5.11543 9.99834,-10.09799 15.44594,-14.94768c5.4476,-4.84969 10.59625,-9.66617 15.44594,-14.44943c4.84969,-4.78326 8.83574,-9.59973 11.95815,-14.44943c3.1224,-4.84969 4.68361,-9.86547 4.68361,-15.04733v0c0,-1.46155 0.49826,-2.7238 1.49477,-3.78675c0.99651,-1.06295 2.29198,-1.59442 3.8864,-1.59442v0c1.46155,0 2.7238,0.53147 3.78675,1.59442c1.06295,1.06295 1.59442,2.3252 1.59442,3.78675v0c0,6.51055 -1.5612,12.58927 -4.68361,18.23617c-3.1224,5.6469 -7.10845,11.06129 -11.95815,16.24315c-4.84969,5.18186 -9.99834,10.19764 -15.44594,15.04733c-5.4476,4.84969 -10.59625,9.63295 -15.44594,14.34978c-4.84969,4.71682 -8.83574,9.43365 -11.95815,14.15047c-3.1224,4.71682 -4.68361,9.59973 -4.68361,14.64873v0c0,7.70636 2.39163,13.55257 7.17489,17.53861c4.78326,3.98605 11.0945,5.97907 18.93373,5.97907v0c7.9721,0 14.31656,-1.99302 19.03338,-5.97907c4.71682,-3.98605 7.07524,-9.83225 7.07524,-17.53861zM807.35486,468.99651h52.01794c1.59442,0 2.9231,0.53147 3.98605,1.59442c1.06295,1.06295 1.59442,2.3252 1.59442,3.78675v0c0,1.46155 -0.53147,2.7238 -1.59442,3.78675c-1.06295,1.06295 -2.39163,1.59442 -3.98605,1.59442v0h-52.01794c-1.46155,0 -2.7238,-0.53147 -3.78675,-1.59442c-1.06295,-1.06295 -1.59442,-2.3252 -1.59442,-3.78675v0c0,-1.46155 0.53147,-2.7238 1.59442,-3.78675c1.06295,-1.06295 2.3252,-1.59442 3.78675,-1.59442zM739.59203,478.96163h-0.3986c-1.59442,0 -2.88989,-0.53147 -3.8864,-1.59442c-0.99651,-1.06295 -1.49477,-2.3252 -1.49477,-3.78675v0c0,-1.59442 0.49826,-2.9231 1.49477,-3.98605c0.99651,-1.06295 2.29198,-1.59442 3.8864,-1.59442v0h0.3986c8.90218,0 16.5421,1.99302 22.91978,5.97907c6.37768,3.98605 11.52632,9.20113 15.44594,15.64524c3.91961,6.44411 6.8095,13.51935 8.66966,21.22571c1.86016,7.70636 2.79023,15.34629 2.79023,22.91978v0v2.19233c0,7.44062 -0.93008,15.01412 -2.79023,22.72048c-1.86016,7.70636 -4.75004,14.7816 -8.66966,21.22571c-3.91961,6.44411 -9.06826,11.62598 -15.44594,15.54559c-6.37768,3.91961 -14.01761,5.87942 -22.91978,5.87942v0h-0.3986c-1.59442,0 -2.88989,-0.49826 -3.8864,-1.49477c-0.99651,-0.99651 -1.49477,-2.29198 -1.49477,-3.8864v0c0,-1.46155 0.49826,-2.7238 1.49477,-3.78675c0.99651,-1.06295 2.29198,-1.59442 3.8864,-1.59442v0h0.3986c7.04202,0 13.05431,-1.5612 18.03687,-4.68361c4.98256,-3.1224 9.00183,-7.27454 12.0578,-12.4564c3.05597,-5.18186 5.31473,-11.02807 6.77628,-17.53861c1.46155,-6.51055 2.19233,-13.15396 2.19233,-19.93024v0v-2.19233c0,-6.77628 -0.73078,-13.4197 -2.19233,-19.93024c-1.46155,-6.51055 -3.72031,-12.38997 -6.77628,-17.63827c-3.05597,-5.2483 -7.07524,-9.43365 -12.0578,-12.55605c-4.98256,-3.1224 -10.99485,-4.68361 -18.03687,-4.68361zM720.65829,590.571h0.3986c1.59442,0 2.88989,0.53147 3.8864,1.59442c0.99651,1.06295 1.49477,2.3252 1.49477,3.78675v0c0,1.59442 -0.49826,2.88989 -1.49477,3.8864c-0.99651,0.99651 -2.29198,1.49477 -3.8864,1.49477v0h-0.3986c-9.03504,0 -16.70819,-1.95981 -23.01943,-5.87942c-6.31124,-3.91961 -11.42667,-9.10148 -15.34629,-15.54559c-3.91961,-6.44411 -6.8095,-13.51935 -8.66966,-21.22571c-1.86016,-7.70636 -2.79023,-15.27985 -2.79023,-22.72048v0v-2.19233c0,-7.57349 0.93008,-15.21342 2.79023,-22.91978c1.86016,-7.70636 4.75004,-14.7816 8.66966,-21.22571c3.91961,-6.44411 9.03504,-11.65919 15.34629,-15.64524c6.31124,-3.98605 13.98439,-5.97907 23.01943,-5.97907v0h0.3986c1.59442,0 2.88989,0.53147 3.8864,1.59442c0.99651,1.06295 1.49477,2.39163 1.49477,3.98605v0c0,1.46155 -0.49826,2.7238 -1.49477,3.78675c-0.99651,1.06295 -2.29198,1.59442 -3.8864,1.59442v0h-0.3986c-7.04202,0 -13.05431,1.5612 -18.03687,4.68361c-4.98256,3.1224 -9.03504,7.30776 -12.15745,12.55605c-3.1224,5.2483 -5.38117,11.12772 -6.77628,17.63827c-1.39512,6.51055 -2.09268,13.15396 -2.09268,19.93024v0v2.19233c0,6.77628 0.69756,13.4197 2.09268,19.93024c1.39512,6.51055 3.65388,12.35675 6.77628,17.53861c3.1224,5.18186 7.17489,9.334 12.15745,12.4564c4.98256,3.1224 10.99485,4.68361 18.03687,4.68361zM648.11221,567.05331v0c0,-1.59442 0.53147,-2.88989 1.59442,-3.8864c1.06295,-0.99651 2.3252,-1.49477 3.78675,-1.49477v0c1.59442,0 2.88989,0.49826 3.8864,1.49477c0.99651,0.99651 1.49477,2.29198 1.49477,3.8864v0c0,7.04202 -1.66085,13.12074 -4.98256,18.23617c-3.32171,5.11543 -7.7728,9.06826 -13.35326,11.8585c-5.58047,2.79023 -11.75884,4.18535 -18.53513,4.18535v0c-6.90915,0 -13.12074,-1.39512 -18.63478,-4.18535c-5.51403,-2.79023 -9.9319,-6.74307 -13.25361,-11.8585c-3.32171,-5.11543 -4.98256,-11.19415 -4.98256,-18.23617v0c0,-6.24481 1.5612,-12.15745 4.68361,-17.73792c3.1224,-5.58047 7.10845,-10.92842 11.95815,-16.04385c4.84969,-5.11543 9.99834,-10.09799 15.44594,-14.94768c5.4476,-4.84969 10.59625,-9.66617 15.44594,-14.44943c4.84969,-4.78326 8.83574,-9.59973 11.95815,-14.44943c3.1224,-4.84969 4.68361,-9.86547 4.68361,-15.04733v0c0,-1.46155 0.49826,-2.7238 1.49477,-3.78675c0.99651,-1.06295 2.29198,-1.59442 3.8864,-1.59442v0c1.46155,0 2.7238,0.53147 3.78675,1.59442c1.06295,1.06295 1.59442,2.3252 1.59442,3.78675v0c0,6.51055 -1.5612,12.58927 -4.68361,18.23617c-3.1224,5.6469 -7.10845,11.06129 -11.95815,16.24315c-4.84969,5.18186 -9.99834,10.19764 -15.44594,15.04733c-5.4476,4.84969 -10.59625,9.63295 -15.44594,14.34978c-4.84969,4.71682 -8.83574,9.43365 -11.95815,14.15047c-3.1224,4.71682 -4.68361,9.59973 -4.68361,14.64873v0c0,7.70636 2.39163,13.55257 7.17489,17.53861c4.78326,3.98605 11.0945,5.97907 18.93373,5.97907v0c7.9721,0 14.31656,-1.99302 19.03338,-5.97907c4.71682,-3.98605 7.07524,-9.83225 7.07524,-17.53861zM586.32845,468.99651h52.01794c1.59442,0 2.9231,0.53147 3.98605,1.59442c1.06295,1.06295 1.59442,2.3252 1.59442,3.78675v0c0,1.46155 -0.53147,2.7238 -1.59442,3.78675c-1.06295,1.06295 -2.39163,1.59442 -3.98605,1.59442v0h-52.01794c-1.46155,0 -2.7238,-0.53147 -3.78675,-1.59442c-1.06295,-1.06295 -1.59442,-2.3252 -1.59442,-3.78675v0c0,-1.46155 0.53147,-2.7238 1.59442,-3.78675c1.06295,-1.06295 2.3252,-1.59442 3.78675,-1.59442zM495.84514,589.77379h61.38515c1.46155,0 2.7238,0.49826 3.78675,1.49477c1.06295,0.99651 1.59442,2.29198 1.59442,3.8864v0c0,1.46155 -0.53147,2.7238 -1.59442,3.78675c-1.06295,1.06295 -2.3252,1.59442 -3.78675,1.59442v0h-61.38515c-1.59442,0 -2.9231,-0.53147 -3.98605,-1.59442c-1.06295,-1.06295 -1.59442,-2.3252 -1.59442,-3.78675v0c0,-1.59442 0.53147,-2.88989 1.59442,-3.8864c1.06295,-0.99651 2.39163,-1.49477 3.98605,-1.49477zM551.84913,581.40309v-28.89885c0,-1.59442 0.49826,-2.9231 1.49477,-3.98605c0.99651,-1.06295 2.29198,-1.59442 3.8864,-1.59442v0c1.46155,0 2.7238,0.53147 3.78675,1.59442c1.06295,1.06295 1.59442,2.39163 1.59442,3.98605v0v28.89885c0,1.46155 -0.53147,2.7238 -1.59442,3.78675c-1.06295,1.06295 -2.3252,1.59442 -3.78675,1.59442v0c-1.59442,0 -2.88989,-0.53147 -3.8864,-1.59442c-0.99651,-1.06295 -1.49477,-2.3252 -1.49477,-3.78675zM568.39123,505.66816v0c0,1.46155 -0.53147,2.7238 -1.59442,3.78675c-1.06295,1.06295 -2.3252,1.59442 -3.78675,1.59442v0c-1.59442,0 -2.88989,-0.53147 -3.8864,-1.59442c-0.99651,-1.06295 -1.49477,-2.3252 -1.49477,-3.78675v0c0,-7.70636 -3.08919,-14.08404 -9.26756,-19.13303c-6.17838,-5.049 -14.18369,-7.57349 -24.01594,-7.57349v0c-9.83225,0 -17.80435,2.7238 -23.91629,8.1714c-6.11194,5.4476 -9.16791,13.2204 -9.16791,23.31839v0v0.59791c0,10.8952 3.05597,18.8673 9.16791,23.91629c6.11194,5.049 14.21691,7.57349 24.3149,7.57349v0c6.90915,0 12.65571,-1.12938 17.23966,-3.38814c4.58396,-2.25876 8.13818,-5.31473 10.66268,-9.16791v0c1.19581,-1.59442 2.7238,-2.39163 4.58396,-2.39163v0c1.46155,0 2.7238,0.53147 3.78675,1.59442c1.06295,1.06295 1.59442,2.3252 1.59442,3.78675v0c0,1.19581 -0.33217,2.12589 -0.99651,2.79023v0c-3.32171,5.4476 -8.1714,9.7326 -14.54908,12.85501c-6.37768,3.1224 -13.8183,4.68361 -22.32187,4.68361v0c-8.23783,0 -15.67846,-1.59442 -22.32187,-4.78326c-6.64341,-3.18884 -11.95815,-7.90566 -15.9442,-14.15047c-3.98605,-6.24481 -5.97907,-14.01761 -5.97907,-23.31839v0v-0.59791c0,-8.63644 1.95981,-16.1435 5.87942,-22.52118c3.91961,-6.37768 9.20113,-11.29381 15.84454,-14.74838c6.64341,-3.45458 14.01761,-5.18186 22.12257,-5.18186v0c8.10497,0 15.47916,1.66085 22.12257,4.98256c6.64341,3.32171 11.95815,7.83923 15.9442,13.55257c3.98605,5.71334 5.97907,12.09101 5.97907,19.13303z" id="glow" filter="url(#glow)" stroke="#f25e95" stroke-width="6.2728" stroke-linecap="butt"/><path d="M869.13861,567.05331v0c0,-1.59442 0.53147,-2.88989 1.59442,-3.8864c1.06295,-0.99651 2.3252,-1.49477 3.78675,-1.49477v0c1.59442,0 2.88989,0.49826 3.8864,1.49477c0.99651,0.99651 1.49477,2.29198 1.49477,3.8864v0c0,7.04202 -1.66085,13.12074 -4.98256,18.23617c-3.32171,5.11543 -7.7728,9.06826 -13.35326,11.8585c-5.58047,2.79023 -11.75884,4.18535 -18.53513,4.18535v0c-6.90915,0 -13.12074,-1.39512 -18.63478,-4.18535c-5.51403,-2.79023 -9.9319,-6.74307 -13.25361,-11.8585c-3.32171,-5.11543 -4.98256,-11.19415 -4.98256,-18.23617v0c0,-6.24481 1.5612,-12.15745 4.68361,-17.73792c3.1224,-5.58047 7.10845,-10.92842 11.95815,-16.04385c4.84969,-5.11543 9.99834,-10.09799 15.44594,-14.94768c5.4476,-4.84969 10.59625,-9.66617 15.44594,-14.44943c4.84969,-4.78326 8.83574,-9.59973 11.95815,-14.44943c3.1224,-4.84969 4.68361,-9.86547 4.68361,-15.04733v0c0,-1.46155 0.49826,-2.7238 1.49477,-3.78675c0.99651,-1.06295 2.29198,-1.59442 3.8864,-1.59442v0c1.46155,0 2.7238,0.53147 3.78675,1.59442c1.06295,1.06295 1.59442,2.3252 1.59442,3.78675v0c0,6.51055 -1.5612,12.58927 -4.68361,18.23617c-3.1224,5.6469 -7.10845,11.06129 -11.95815,16.24315c-4.84969,5.18186 -9.99834,10.19764 -15.44594,15.04733c-5.4476,4.84969 -10.59625,9.63295 -15.44594,14.34978c-4.84969,4.71682 -8.83574,9.43365 -11.95815,14.15047c-3.1224,4.71682 -4.68361,9.59973 -4.68361,14.64873v0c0,7.70636 2.39163,13.55257 7.17489,17.53861c4.78326,3.98605 11.0945,5.97907 18.93373,5.97907v0c7.9721,0 14.31656,-1.99302 19.03338,-5.97907c4.71682,-3.98605 7.07524,-9.83225 7.07524,-17.53861zM807.35486,468.99651h52.01794c1.59442,0 2.9231,0.53147 3.98605,1.59442c1.06295,1.06295 1.59442,2.3252 1.59442,3.78675v0c0,1.46155 -0.53147,2.7238 -1.59442,3.78675c-1.06295,1.06295 -2.39163,1.59442 -3.98605,1.59442v0h-52.01794c-1.46155,0 -2.7238,-0.53147 -3.78675,-1.59442c-1.06295,-1.06295 -1.59442,-2.3252 -1.59442,-3.78675v0c0,-1.46155 0.53147,-2.7238 1.59442,-3.78675c1.06295,-1.06295 2.3252,-1.59442 3.78675,-1.59442zM739.59203,478.96163h-0.3986c-1.59442,0 -2.88989,-0.53147 -3.8864,-1.59442c-0.99651,-1.06295 -1.49477,-2.3252 -1.49477,-3.78675v0c0,-1.59442 0.49826,-2.9231 1.49477,-3.98605c0.99651,-1.06295 2.29198,-1.59442 3.8864,-1.59442v0h0.3986c8.90218,0 16.5421,1.99302 22.91978,5.97907c6.37768,3.98605 11.52632,9.20113 15.44594,15.64524c3.91961,6.44411 6.8095,13.51935 8.66966,21.22571c1.86016,7.70636 2.79023,15.34629 2.79023,22.91978v0v2.19233c0,7.44062 -0.93008,15.01412 -2.79023,22.72048c-1.86016,7.70636 -4.75004,14.7816 -8.66966,21.22571c-3.91961,6.44411 -9.06826,11.62598 -15.44594,15.54559c-6.37768,3.91961 -14.01761,5.87942 -22.91978,5.87942v0h-0.3986c-1.59442,0 -2.88989,-0.49826 -3.8864,-1.49477c-0.99651,-0.99651 -1.49477,-2.29198 -1.49477,-3.8864v0c0,-1.46155 0.49826,-2.7238 1.49477,-3.78675c0.99651,-1.06295 2.29198,-1.59442 3.8864,-1.59442v0h0.3986c7.04202,0 13.05431,-1.5612 18.03687,-4.68361c4.98256,-3.1224 9.00183,-7.27454 12.0578,-12.4564c3.05597,-5.18186 5.31473,-11.02807 6.77628,-17.53861c1.46155,-6.51055 2.19233,-13.15396 2.19233,-19.93024v0v-2.19233c0,-6.77628 -0.73078,-13.4197 -2.19233,-19.93024c-1.46155,-6.51055 -3.72031,-12.38997 -6.77628,-17.63827c-3.05597,-5.2483 -7.07524,-9.43365 -12.0578,-12.55605c-4.98256,-3.1224 -10.99485,-4.68361 -18.03687,-4.68361zM720.65829,590.571h0.3986c1.59442,0 2.88989,0.53147 3.8864,1.59442c0.99651,1.06295 1.49477,2.3252 1.49477,3.78675v0c0,1.59442 -0.49826,2.88989 -1.49477,3.8864c-0.99651,0.99651 -2.29198,1.49477 -3.8864,1.49477v0h-0.3986c-9.03504,0 -16.70819,-1.95981 -23.01943,-5.87942c-6.31124,-3.91961 -11.42667,-9.10148 -15.34629,-15.54559c-3.91961,-6.44411 -6.8095,-13.51935 -8.66966,-21.22571c-1.86016,-7.70636 -2.79023,-15.27985 -2.79023,-22.72048v0v-2.19233c0,-7.57349 0.93008,-15.21342 2.79023,-22.91978c1.86016,-7.70636 4.75004,-14.7816 8.66966,-21.22571c3.91961,-6.44411 9.03504,-11.65919 15.34629,-15.64524c6.31124,-3.98605 13.98439,-5.97907 23.01943,-5.97907v0h0.3986c1.59442,0 2.88989,0.53147 3.8864,1.59442c0.99651,1.06295 1.49477,2.39163 1.49477,3.98605v0c0,1.46155 -0.49826,2.7238 -1.49477,3.78675c-0.99651,1.06295 -2.29198,1.59442 -3.8864,1.59442v0h-0.3986c-7.04202,0 -13.05431,1.5612 -18.03687,4.68361c-4.98256,3.1224 -9.03504,7.30776 -12.15745,12.55605c-3.1224,5.2483 -5.38117,11.12772 -6.77628,17.63827c-1.39512,6.51055 -2.09268,13.15396 -2.09268,19.93024v0v2.19233c0,6.77628 0.69756,13.4197 2.09268,19.93024c1.39512,6.51055 3.65388,12.35675 6.77628,17.53861c3.1224,5.18186 7.17489,9.334 12.15745,12.4564c4.98256,3.1224 10.99485,4.68361 18.03687,4.68361zM648.11221,567.05331v0c0,-1.59442 0.53147,-2.88989 1.59442,-3.8864c1.06295,-0.99651 2.3252,-1.49477 3.78675,-1.49477v0c1.59442,0 2.88989,0.49826 3.8864,1.49477c0.99651,0.99651 1.49477,2.29198 1.49477,3.8864v0c0,7.04202 -1.66085,13.12074 -4.98256,18.23617c-3.32171,5.11543 -7.7728,9.06826 -13.35326,11.8585c-5.58047,2.79023 -11.75884,4.18535 -18.53513,4.18535v0c-6.90915,0 -13.12074,-1.39512 -18.63478,-4.18535c-5.51403,-2.79023 -9.9319,-6.74307 -13.25361,-11.8585c-3.32171,-5.11543 -4.98256,-11.19415 -4.98256,-18.23617v0c0,-6.24481 1.5612,-12.15745 4.68361,-17.73792c3.1224,-5.58047 7.10845,-10.92842 11.95815,-16.04385c4.84969,-5.11543 9.99834,-10.09799 15.44594,-14.94768c5.4476,-4.84969 10.59625,-9.66617 15.44594,-14.44943c4.84969,-4.78326 8.83574,-9.59973 11.95815,-14.44943c3.1224,-4.84969 4.68361,-9.86547 4.68361,-15.04733v0c0,-1.46155 0.49826,-2.7238 1.49477,-3.78675c0.99651,-1.06295 2.29198,-1.59442 3.8864,-1.59442v0c1.46155,0 2.7238,0.53147 3.78675,1.59442c1.06295,1.06295 1.59442,2.3252 1.59442,3.78675v0c0,6.51055 -1.5612,12.58927 -4.68361,18.23617c-3.1224,5.6469 -7.10845,11.06129 -11.95815,16.24315c-4.84969,5.18186 -9.99834,10.19764 -15.44594,15.04733c-5.4476,4.84969 -10.59625,9.63295 -15.44594,14.34978c-4.84969,4.71682 -8.83574,9.43365 -11.95815,14.15047c-3.1224,4.71682 -4.68361,9.59973 -4.68361,14.64873v0c0,7.70636 2.39163,13.55257 7.17489,17.53861c4.78326,3.98605 11.0945,5.97907 18.93373,5.97907v0c7.9721,0 14.31656,-1.99302 19.03338,-5.97907c4.71682,-3.98605 7.07524,-9.83225 7.07524,-17.53861zM586.32845,468.99651h52.01794c1.59442,0 2.9231,0.53147 3.98605,1.59442c1.06295,1.06295 1.59442,2.3252 1.59442,3.78675v0c0,1.46155 -0.53147,2.7238 -1.59442,3.78675c-1.06295,1.06295 -2.39163,1.59442 -3.98605,1.59442v0h-52.01794c-1.46155,0 -2.7238,-0.53147 -3.78675,-1.59442c-1.06295,-1.06295 -1.59442,-2.3252 -1.59442,-3.78675v0c0,-1.46155 0.53147,-2.7238 1.59442,-3.78675c1.06295,-1.06295 2.3252,-1.59442 3.78675,-1.59442zM495.84514,589.77379h61.38515c1.46155,0 2.7238,0.49826 3.78675,1.49477c1.06295,0.99651 1.59442,2.29198 1.59442,3.8864v0c0,1.46155 -0.53147,2.7238 -1.59442,3.78675c-1.06295,1.06295 -2.3252,1.59442 -3.78675,1.59442v0h-61.38515c-1.59442,0 -2.9231,-0.53147 -3.98605,-1.59442c-1.06295,-1.06295 -1.59442,-2.3252 -1.59442,-3.78675v0c0,-1.59442 0.53147,-2.88989 1.59442,-3.8864c1.06295,-0.99651 2.39163,-1.49477 3.98605,-1.49477zM551.84913,581.40309v-28.89885c0,-1.59442 0.49826,-2.9231 1.49477,-3.98605c0.99651,-1.06295 2.29198,-1.59442 3.8864,-1.59442v0c1.46155,0 2.7238,0.53147 3.78675,1.59442c1.06295,1.06295 1.59442,2.39163 1.59442,3.98605v0v28.89885c0,1.46155 -0.53147,2.7238 -1.59442,3.78675c-1.06295,1.06295 -2.3252,1.59442 -3.78675,1.59442v0c-1.59442,0 -2.88989,-0.53147 -3.8864,-1.59442c-0.99651,-1.06295 -1.49477,-2.3252 -1.49477,-3.78675zM568.39123,505.66816v0c0,1.46155 -0.53147,2.7238 -1.59442,3.78675c-1.06295,1.06295 -2.3252,1.59442 -3.78675,1.59442v0c-1.59442,0 -2.88989,-0.53147 -3.8864,-1.59442c-0.99651,-1.06295 -1.49477,-2.3252 -1.49477,-3.78675v0c0,-7.70636 -3.08919,-14.08404 -9.26756,-19.13303c-6.17838,-5.049 -14.18369,-7.57349 -24.01594,-7.57349v0c-9.83225,0 -17.80435,2.7238 -23.91629,8.1714c-6.11194,5.4476 -9.16791,13.2204 -9.16791,23.31839v0v0.59791c0,10.8952 3.05597,18.8673 9.16791,23.91629c6.11194,5.049 14.21691,7.57349 24.3149,7.57349v0c6.90915,0 12.65571,-1.12938 17.23966,-3.38814c4.58396,-2.25876 8.13818,-5.31473 10.66268,-9.16791v0c1.19581,-1.59442 2.7238,-2.39163 4.58396,-2.39163v0c1.46155,0 2.7238,0.53147 3.78675,1.59442c1.06295,1.06295 1.59442,2.3252 1.59442,3.78675v0c0,1.19581 -0.33217,2.12589 -0.99651,2.79023v0c-3.32171,5.4476 -8.1714,9.7326 -14.54908,12.85501c-6.37768,3.1224 -13.8183,4.68361 -22.32187,4.68361v0c-8.23783,0 -15.67846,-1.59442 -22.32187,-4.78326c-6.64341,-3.18884 -11.95815,-7.90566 -15.9442,-14.15047c-3.98605,-6.24481 -5.97907,-14.01761 -5.97907,-23.31839v0v-0.59791c0,-8.63644 1.95981,-16.1435 5.87942,-22.52118c3.91961,-6.37768 9.20113,-11.29381 15.84454,-14.74838c6.64341,-3.45458 14.01761,-5.18186 22.12257,-5.18186v0c8.10497,0 15.47916,1.66085 22.12257,4.98256c6.64341,3.32171 11.95815,7.83923 15.9442,13.55257c3.98605,5.71334 5.97907,12.09101 5.97907,19.13303z" id="dropshadow" filter="url(#dropShadow)" stroke="#f25e95" stroke-width="6.2728" stroke-linecap="butt" opacity="0.5"/><path d="M869.13861,567.05331v0c0,-1.59442 0.53147,-2.88989 1.59442,-3.8864c1.06295,-0.99651 2.3252,-1.49477 3.78675,-1.49477v0c1.59442,0 2.88989,0.49826 3.8864,1.49477c0.99651,0.99651 1.49477,2.29198 1.49477,3.8864v0c0,7.04202 -1.66085,13.12074 -4.98256,18.23617c-3.32171,5.11543 -7.7728,9.06826 -13.35326,11.8585c-5.58047,2.79023 -11.75884,4.18535 -18.53513,4.18535v0c-6.90915,0 -13.12074,-1.39512 -18.63478,-4.18535c-5.51403,-2.79023 -9.9319,-6.74307 -13.25361,-11.8585c-3.32171,-5.11543 -4.98256,-11.19415 -4.98256,-18.23617v0c0,-6.24481 1.5612,-12.15745 4.68361,-17.73792c3.1224,-5.58047 7.10845,-10.92842 11.95815,-16.04385c4.84969,-5.11543 9.99834,-10.09799 15.44594,-14.94768c5.4476,-4.84969 10.59625,-9.66617 15.44594,-14.44943c4.84969,-4.78326 8.83574,-9.59973 11.95815,-14.44943c3.1224,-4.84969 4.68361,-9.86547 4.68361,-15.04733v0c0,-1.46155 0.49826,-2.7238 1.49477,-3.78675c0.99651,-1.06295 2.29198,-1.59442 3.8864,-1.59442v0c1.46155,0 2.7238,0.53147 3.78675,1.59442c1.06295,1.06295 1.59442,2.3252 1.59442,3.78675v0c0,6.51055 -1.5612,12.58927 -4.68361,18.23617c-3.1224,5.6469 -7.10845,11.06129 -11.95815,16.24315c-4.84969,5.18186 -9.99834,10.19764 -15.44594,15.04733c-5.4476,4.84969 -10.59625,9.63295 -15.44594,14.34978c-4.84969,4.71682 -8.83574,9.43365 -11.95815,14.15047c-3.1224,4.71682 -4.68361,9.59973 -4.68361,14.64873v0c0,7.70636 2.39163,13.55257 7.17489,17.53861c4.78326,3.98605 11.0945,5.97907 18.93373,5.97907v0c7.9721,0 14.31656,-1.99302 19.03338,-5.97907c4.71682,-3.98605 7.07524,-9.83225 7.07524,-17.53861zM807.35486,468.99651h52.01794c1.59442,0 2.9231,0.53147 3.98605,1.59442c1.06295,1.06295 1.59442,2.3252 1.59442,3.78675v0c0,1.46155 -0.53147,2.7238 -1.59442,3.78675c-1.06295,1.06295 -2.39163,1.59442 -3.98605,1.59442v0h-52.01794c-1.46155,0 -2.7238,-0.53147 -3.78675,-1.59442c-1.06295,-1.06295 -1.59442,-2.3252 -1.59442,-3.78675v0c0,-1.46155 0.53147,-2.7238 1.59442,-3.78675c1.06295,-1.06295 2.3252,-1.59442 3.78675,-1.59442zM739.59203,478.96163h-0.3986c-1.59442,0 -2.88989,-0.53147 -3.8864,-1.59442c-0.99651,-1.06295 -1.49477,-2.3252 -1.49477,-3.78675v0c0,-1.59442 0.49826,-2.9231 1.49477,-3.98605c0.99651,-1.06295 2.29198,-1.59442 3.8864,-1.59442v0h0.3986c8.90218,0 16.5421,1.99302 22.91978,5.97907c6.37768,3.98605 11.52632,9.20113 15.44594,15.64524c3.91961,6.44411 6.8095,13.51935 8.66966,21.22571c1.86016,7.70636 2.79023,15.34629 2.79023,22.91978v0v2.19233c0,7.44062 -0.93008,15.01412 -2.79023,22.72048c-1.86016,7.70636 -4.75004,14.7816 -8.66966,21.22571c-3.91961,6.44411 -9.06826,11.62598 -15.44594,15.54559c-6.37768,3.91961 -14.01761,5.87942 -22.91978,5.87942v0h-0.3986c-1.59442,0 -2.88989,-0.49826 -3.8864,-1.49477c-0.99651,-0.99651 -1.49477,-2.29198 -1.49477,-3.8864v0c0,-1.46155 0.49826,-2.7238 1.49477,-3.78675c0.99651,-1.06295 2.29198,-1.59442 3.8864,-1.59442v0h0.3986c7.04202,0 13.05431,-1.5612 18.03687,-4.68361c4.98256,-3.1224 9.00183,-7.27454 12.0578,-12.4564c3.05597,-5.18186 5.31473,-11.02807 6.77628,-17.53861c1.46155,-6.51055 2.19233,-13.15396 2.19233,-19.93024v0v-2.19233c0,-6.77628 -0.73078,-13.4197 -2.19233,-19.93024c-1.46155,-6.51055 -3.72031,-12.38997 -6.77628,-17.63827c-3.05597,-5.2483 -7.07524,-9.43365 -12.0578,-12.55605c-4.98256,-3.1224 -10.99485,-4.68361 -18.03687,-4.68361zM720.65829,590.571h0.3986c1.59442,0 2.88989,0.53147 3.8864,1.59442c0.99651,1.06295 1.49477,2.3252 1.49477,3.78675v0c0,1.59442 -0.49826,2.88989 -1.49477,3.8864c-0.99651,0.99651 -2.29198,1.49477 -3.8864,1.49477v0h-0.3986c-9.03504,0 -16.70819,-1.95981 -23.01943,-5.87942c-6.31124,-3.91961 -11.42667,-9.10148 -15.34629,-15.54559c-3.91961,-6.44411 -6.8095,-13.51935 -8.66966,-21.22571c-1.86016,-7.70636 -2.79023,-15.27985 -2.79023,-22.72048v0v-2.19233c0,-7.57349 0.93008,-15.21342 2.79023,-22.91978c1.86016,-7.70636 4.75004,-14.7816 8.66966,-21.22571c3.91961,-6.44411 9.03504,-11.65919 15.34629,-15.64524c6.31124,-3.98605 13.98439,-5.97907 23.01943,-5.97907v0h0.3986c1.59442,0 2.88989,0.53147 3.8864,1.59442c0.99651,1.06295 1.49477,2.39163 1.49477,3.98605v0c0,1.46155 -0.49826,2.7238 -1.49477,3.78675c-0.99651,1.06295 -2.29198,1.59442 -3.8864,1.59442v0h-0.3986c-7.04202,0 -13.05431,1.5612 -18.03687,4.68361c-4.98256,3.1224 -9.03504,7.30776 -12.15745,12.55605c-3.1224,5.2483 -5.38117,11.12772 -6.77628,17.63827c-1.39512,6.51055 -2.09268,13.15396 -2.09268,19.93024v0v2.19233c0,6.77628 0.69756,13.4197 2.09268,19.93024c1.39512,6.51055 3.65388,12.35675 6.77628,17.53861c3.1224,5.18186 7.17489,9.334 12.15745,12.4564c4.98256,3.1224 10.99485,4.68361 18.03687,4.68361zM648.11221,567.05331v0c0,-1.59442 0.53147,-2.88989 1.59442,-3.8864c1.06295,-0.99651 2.3252,-1.49477 3.78675,-1.49477v0c1.59442,0 2.88989,0.49826 3.8864,1.49477c0.99651,0.99651 1.49477,2.29198 1.49477,3.8864v0c0,7.04202 -1.66085,13.12074 -4.98256,18.23617c-3.32171,5.11543 -7.7728,9.06826 -13.35326,11.8585c-5.58047,2.79023 -11.75884,4.18535 -18.53513,4.18535v0c-6.90915,0 -13.12074,-1.39512 -18.63478,-4.18535c-5.51403,-2.79023 -9.9319,-6.74307 -13.25361,-11.8585c-3.32171,-5.11543 -4.98256,-11.19415 -4.98256,-18.23617v0c0,-6.24481 1.5612,-12.15745 4.68361,-17.73792c3.1224,-5.58047 7.10845,-10.92842 11.95815,-16.04385c4.84969,-5.11543 9.99834,-10.09799 15.44594,-14.94768c5.4476,-4.84969 10.59625,-9.66617 15.44594,-14.44943c4.84969,-4.78326 8.83574,-9.59973 11.95815,-14.44943c3.1224,-4.84969 4.68361,-9.86547 4.68361,-15.04733v0c0,-1.46155 0.49826,-2.7238 1.49477,-3.78675c0.99651,-1.06295 2.29198,-1.59442 3.8864,-1.59442v0c1.46155,0 2.7238,0.53147 3.78675,1.59442c1.06295,1.06295 1.59442,2.3252 1.59442,3.78675v0c0,6.51055 -1.5612,12.58927 -4.68361,18.23617c-3.1224,5.6469 -7.10845,11.06129 -11.95815,16.24315c-4.84969,5.18186 -9.99834,10.19764 -15.44594,15.04733c-5.4476,4.84969 -10.59625,9.63295 -15.44594,14.34978c-4.84969,4.71682 -8.83574,9.43365 -11.95815,14.15047c-3.1224,4.71682 -4.68361,9.59973 -4.68361,14.64873v0c0,7.70636 2.39163,13.55257 7.17489,17.53861c4.78326,3.98605 11.0945,5.97907 18.93373,5.97907v0c7.9721,0 14.31656,-1.99302 19.03338,-5.97907c4.71682,-3.98605 7.07524,-9.83225 7.07524,-17.53861zM586.32845,468.99651h52.01794c1.59442,0 2.9231,0.53147 3.98605,1.59442c1.06295,1.06295 1.59442,2.3252 1.59442,3.78675v0c0,1.46155 -0.53147,2.7238 -1.59442,3.78675c-1.06295,1.06295 -2.39163,1.59442 -3.98605,1.59442v0h-52.01794c-1.46155,0 -2.7238,-0.53147 -3.78675,-1.59442c-1.06295,-1.06295 -1.59442,-2.3252 -1.59442,-3.78675v0c0,-1.46155 0.53147,-2.7238 1.59442,-3.78675c1.06295,-1.06295 2.3252,-1.59442 3.78675,-1.59442zM495.84514,589.77379h61.38515c1.46155,0 2.7238,0.49826 3.78675,1.49477c1.06295,0.99651 1.59442,2.29198 1.59442,3.8864v0c0,1.46155 -0.53147,2.7238 -1.59442,3.78675c-1.06295,1.06295 -2.3252,1.59442 -3.78675,1.59442v0h-61.38515c-1.59442,0 -2.9231,-0.53147 -3.98605,-1.59442c-1.06295,-1.06295 -1.59442,-2.3252 -1.59442,-3.78675v0c0,-1.59442 0.53147,-2.88989 1.59442,-3.8864c1.06295,-0.99651 2.39163,-1.49477 3.98605,-1.49477zM551.84913,581.40309v-28.89885c0,-1.59442 0.49826,-2.9231 1.49477,-3.98605c0.99651,-1.06295 2.29198,-1.59442 3.8864,-1.59442v0c1.46155,0 2.7238,0.53147 3.78675,1.59442c1.06295,1.06295 1.59442,2.39163 1.59442,3.98605v0v28.89885c0,1.46155 -0.53147,2.7238 -1.59442,3.78675c-1.06295,1.06295 -2.3252,1.59442 -3.78675,1.59442v0c-1.59442,0 -2.88989,-0.53147 -3.8864,-1.59442c-0.99651,-1.06295 -1.49477,-2.3252 -1.49477,-3.78675zM568.39123,505.66816v0c0,1.46155 -0.53147,2.7238 -1.59442,3.78675c-1.06295,1.06295 -2.3252,1.59442 -3.78675,1.59442v0c-1.59442,0 -2.88989,-0.53147 -3.8864,-1.59442c-0.99651,-1.06295 -1.49477,-2.3252 -1.49477,-3.78675v0c0,-7.70636 -3.08919,-14.08404 -9.26756,-19.13303c-6.17838,-5.049 -14.18369,-7.57349 -24.01594,-7.57349v0c-9.83225,0 -17.80435,2.7238 -23.91629,8.1714c-6.11194,5.4476 -9.16791,13.2204 -9.16791,23.31839v0v0.59791c0,10.8952 3.05597,18.8673 9.16791,23.91629c6.11194,5.049 14.21691,7.57349 24.3149,7.57349v0c6.90915,0 12.65571,-1.12938 17.23966,-3.38814c4.58396,-2.25876 8.13818,-5.31473 10.66268,-9.16791v0c1.19581,-1.59442 2.7238,-2.39163 4.58396,-2.39163v0c1.46155,0 2.7238,0.53147 3.78675,1.59442c1.06295,1.06295 1.59442,2.3252 1.59442,3.78675v0c0,1.19581 -0.33217,2.12589 -0.99651,2.79023v0c-3.32171,5.4476 -8.1714,9.7326 -14.54908,12.85501c-6.37768,3.1224 -13.8183,4.68361 -22.32187,4.68361v0c-8.23783,0 -15.67846,-1.59442 -22.32187,-4.78326c-6.64341,-3.18884 -11.95815,-7.90566 -15.9442,-14.15047c-3.98605,-6.24481 -5.97907,-14.01761 -5.97907,-23.31839v0v-0.59791c0,-8.63644 1.95981,-16.1435 5.87942,-22.52118c3.91961,-6.37768 9.20113,-11.29381 15.84454,-14.74838c6.64341,-3.45458 14.01761,-5.18186 22.12257,-5.18186v0c8.10497,0 15.47916,1.66085 22.12257,4.98256c6.64341,3.32171 11.95815,7.83923 15.9442,13.55257c3.98605,5.71334 5.97907,12.09101 5.97907,19.13303z" id="line" stroke="#f25e95" stroke-width="6.2728" stroke-linecap="butt"/><path d="M869.13861,567.05331v0c0,-1.59442 0.53147,-2.88989 1.59442,-3.8864c1.06295,-0.99651 2.3252,-1.49477 3.78675,-1.49477v0c1.59442,0 2.88989,0.49826 3.8864,1.49477c0.99651,0.99651 1.49477,2.29198 1.49477,3.8864v0c0,7.04202 -1.66085,13.12074 -4.98256,18.23617c-3.32171,5.11543 -7.7728,9.06826 -13.35326,11.8585c-5.58047,2.79023 -11.75884,4.18535 -18.53513,4.18535v0c-6.90915,0 -13.12074,-1.39512 -18.63478,-4.18535c-5.51403,-2.79023 -9.9319,-6.74307 -13.25361,-11.8585c-3.32171,-5.11543 -4.98256,-11.19415 -4.98256,-18.23617v0c0,-6.24481 1.5612,-12.15745 4.68361,-17.73792c3.1224,-5.58047 7.10845,-10.92842 11.95815,-16.04385c4.84969,-5.11543 9.99834,-10.09799 15.44594,-14.94768c5.4476,-4.84969 10.59625,-9.66617 15.44594,-14.44943c4.84969,-4.78326 8.83574,-9.59973 11.95815,-14.44943c3.1224,-4.84969 4.68361,-9.86547 4.68361,-15.04733v0c0,-1.46155 0.49826,-2.7238 1.49477,-3.78675c0.99651,-1.06295 2.29198,-1.59442 3.8864,-1.59442v0c1.46155,0 2.7238,0.53147 3.78675,1.59442c1.06295,1.06295 1.59442,2.3252 1.59442,3.78675v0c0,6.51055 -1.5612,12.58927 -4.68361,18.23617c-3.1224,5.6469 -7.10845,11.06129 -11.95815,16.24315c-4.84969,5.18186 -9.99834,10.19764 -15.44594,15.04733c-5.4476,4.84969 -10.59625,9.63295 -15.44594,14.34978c-4.84969,4.71682 -8.83574,9.43365 -11.95815,14.15047c-3.1224,4.71682 -4.68361,9.59973 -4.68361,14.64873v0c0,7.70636 2.39163,13.55257 7.17489,17.53861c4.78326,3.98605 11.0945,5.97907 18.93373,5.97907v0c7.9721,0 14.31656,-1.99302 19.03338,-5.97907c4.71682,-3.98605 7.07524,-9.83225 7.07524,-17.53861zM807.35486,468.99651h52.01794c1.59442,0 2.9231,0.53147 3.98605,1.59442c1.06295,1.06295 1.59442,2.3252 1.59442,3.78675v0c0,1.46155 -0.53147,2.7238 -1.59442,3.78675c-1.06295,1.06295 -2.39163,1.59442 -3.98605,1.59442v0h-52.01794c-1.46155,0 -2.7238,-0.53147 -3.78675,-1.59442c-1.06295,-1.06295 -1.59442,-2.3252 -1.59442,-3.78675v0c0,-1.46155 0.53147,-2.7238 1.59442,-3.78675c1.06295,-1.06295 2.3252,-1.59442 3.78675,-1.59442zM739.59203,478.96163h-0.3986c-1.59442,0 -2.88989,-0.53147 -3.8864,-1.59442c-0.99651,-1.06295 -1.49477,-2.3252 -1.49477,-3.78675v0c0,-1.59442 0.49826,-2.9231 1.49477,-3.98605c0.99651,-1.06295 2.29198,-1.59442 3.8864,-1.59442v0h0.3986c8.90218,0 16.5421,1.99302 22.91978,5.97907c6.37768,3.98605 11.52632,9.20113 15.44594,15.64524c3.91961,6.44411 6.8095,13.51935 8.66966,21.22571c1.86016,7.70636 2.79023,15.34629 2.79023,22.91978v0v2.19233c0,7.44062 -0.93008,15.01412 -2.79023,22.72048c-1.86016,7.70636 -4.75004,14.7816 -8.66966,21.22571c-3.91961,6.44411 -9.06826,11.62598 -15.44594,15.54559c-6.37768,3.91961 -14.01761,5.87942 -22.91978,5.87942v0h-0.3986c-1.59442,0 -2.88989,-0.49826 -3.8864,-1.49477c-0.99651,-0.99651 -1.49477,-2.29198 -1.49477,-3.8864v0c0,-1.46155 0.49826,-2.7238 1.49477,-3.78675c0.99651,-1.06295 2.29198,-1.59442 3.8864,-1.59442v0h0.3986c7.04202,0 13.05431,-1.5612 18.03687,-4.68361c4.98256,-3.1224 9.00183,-7.27454 12.0578,-12.4564c3.05597,-5.18186 5.31473,-11.02807 6.77628,-17.53861c1.46155,-6.51055 2.19233,-13.15396 2.19233,-19.93024v0v-2.19233c0,-6.77628 -0.73078,-13.4197 -2.19233,-19.93024c-1.46155,-6.51055 -3.72031,-12.38997 -6.77628,-17.63827c-3.05597,-5.2483 -7.07524,-9.43365 -12.0578,-12.55605c-4.98256,-3.1224 -10.99485,-4.68361 -18.03687,-4.68361zM720.65829,590.571h0.3986c1.59442,0 2.88989,0.53147 3.8864,1.59442c0.99651,1.06295 1.49477,2.3252 1.49477,3.78675v0c0,1.59442 -0.49826,2.88989 -1.49477,3.8864c-0.99651,0.99651 -2.29198,1.49477 -3.8864,1.49477v0h-0.3986c-9.03504,0 -16.70819,-1.95981 -23.01943,-5.87942c-6.31124,-3.91961 -11.42667,-9.10148 -15.34629,-15.54559c-3.91961,-6.44411 -6.8095,-13.51935 -8.66966,-21.22571c-1.86016,-7.70636 -2.79023,-15.27985 -2.79023,-22.72048v0v-2.19233c0,-7.57349 0.93008,-15.21342 2.79023,-22.91978c1.86016,-7.70636 4.75004,-14.7816 8.66966,-21.22571c3.91961,-6.44411 9.03504,-11.65919 15.34629,-15.64524c6.31124,-3.98605 13.98439,-5.97907 23.01943,-5.97907v0h0.3986c1.59442,0 2.88989,0.53147 3.8864,1.59442c0.99651,1.06295 1.49477,2.39163 1.49477,3.98605v0c0,1.46155 -0.49826,2.7238 -1.49477,3.78675c-0.99651,1.06295 -2.29198,1.59442 -3.8864,1.59442v0h-0.3986c-7.04202,0 -13.05431,1.5612 -18.03687,4.68361c-4.98256,3.1224 -9.03504,7.30776 -12.15745,12.55605c-3.1224,5.2483 -5.38117,11.12772 -6.77628,17.63827c-1.39512,6.51055 -2.09268,13.15396 -2.09268,19.93024v0v2.19233c0,6.77628 0.69756,13.4197 2.09268,19.93024c1.39512,6.51055 3.65388,12.35675 6.77628,17.53861c3.1224,5.18186 7.17489,9.334 12.15745,12.4564c4.98256,3.1224 10.99485,4.68361 18.03687,4.68361zM648.11221,567.05331v0c0,-1.59442 0.53147,-2.88989 1.59442,-3.8864c1.06295,-0.99651 2.3252,-1.49477 3.78675,-1.49477v0c1.59442,0 2.88989,0.49826 3.8864,1.49477c0.99651,0.99651 1.49477,2.29198 1.49477,3.8864v0c0,7.04202 -1.66085,13.12074 -4.98256,18.23617c-3.32171,5.11543 -7.7728,9.06826 -13.35326,11.8585c-5.58047,2.79023 -11.75884,4.18535 -18.53513,4.18535v0c-6.90915,0 -13.12074,-1.39512 -18.63478,-4.18535c-5.51403,-2.79023 -9.9319,-6.74307 -13.25361,-11.8585c-3.32171,-5.11543 -4.98256,-11.19415 -4.98256,-18.23617v0c0,-6.24481 1.5612,-12.15745 4.68361,-17.73792c3.1224,-5.58047 7.10845,-10.92842 11.95815,-16.04385c4.84969,-5.11543 9.99834,-10.09799 15.44594,-14.94768c5.4476,-4.84969 10.59625,-9.66617 15.44594,-14.44943c4.84969,-4.78326 8.83574,-9.59973 11.95815,-14.44943c3.1224,-4.84969 4.68361,-9.86547 4.68361,-15.04733v0c0,-1.46155 0.49826,-2.7238 1.49477,-3.78675c0.99651,-1.06295 2.29198,-1.59442 3.8864,-1.59442v0c1.46155,0 2.7238,0.53147 3.78675,1.59442c1.06295,1.06295 1.59442,2.3252 1.59442,3.78675v0c0,6.51055 -1.5612,12.58927 -4.68361,18.23617c-3.1224,5.6469 -7.10845,11.06129 -11.95815,16.24315c-4.84969,5.18186 -9.99834,10.19764 -15.44594,15.04733c-5.4476,4.84969 -10.59625,9.63295 -15.44594,14.34978c-4.84969,4.71682 -8.83574,9.43365 -11.95815,14.15047c-3.1224,4.71682 -4.68361,9.59973 -4.68361,14.64873v0c0,7.70636 2.39163,13.55257 7.17489,17.53861c4.78326,3.98605 11.0945,5.97907 18.93373,5.97907v0c7.9721,0 14.31656,-1.99302 19.03338,-5.97907c4.71682,-3.98605 7.07524,-9.83225 7.07524,-17.53861zM586.32845,468.99651h52.01794c1.59442,0 2.9231,0.53147 3.98605,1.59442c1.06295,1.06295 1.59442,2.3252 1.59442,3.78675v0c0,1.46155 -0.53147,2.7238 -1.59442,3.78675c-1.06295,1.06295 -2.39163,1.59442 -3.98605,1.59442v0h-52.01794c-1.46155,0 -2.7238,-0.53147 -3.78675,-1.59442c-1.06295,-1.06295 -1.59442,-2.3252 -1.59442,-3.78675v0c0,-1.46155 0.53147,-2.7238 1.59442,-3.78675c1.06295,-1.06295 2.3252,-1.59442 3.78675,-1.59442zM495.84514,589.77379h61.38515c1.46155,0 2.7238,0.49826 3.78675,1.49477c1.06295,0.99651 1.59442,2.29198 1.59442,3.8864v0c0,1.46155 -0.53147,2.7238 -1.59442,3.78675c-1.06295,1.06295 -2.3252,1.59442 -3.78675,1.59442v0h-61.38515c-1.59442,0 -2.9231,-0.53147 -3.98605,-1.59442c-1.06295,-1.06295 -1.59442,-2.3252 -1.59442,-3.78675v0c0,-1.59442 0.53147,-2.88989 1.59442,-3.8864c1.06295,-0.99651 2.39163,-1.49477 3.98605,-1.49477zM551.84913,581.40309v-28.89885c0,-1.59442 0.49826,-2.9231 1.49477,-3.98605c0.99651,-1.06295 2.29198,-1.59442 3.8864,-1.59442v0c1.46155,0 2.7238,0.53147 3.78675,1.59442c1.06295,1.06295 1.59442,2.39163 1.59442,3.98605v0v28.89885c0,1.46155 -0.53147,2.7238 -1.59442,3.78675c-1.06295,1.06295 -2.3252,1.59442 -3.78675,1.59442v0c-1.59442,0 -2.88989,-0.53147 -3.8864,-1.59442c-0.99651,-1.06295 -1.49477,-2.3252 -1.49477,-3.78675zM568.39123,505.66816v0c0,1.46155 -0.53147,2.7238 -1.59442,3.78675c-1.06295,1.06295 -2.3252,1.59442 -3.78675,1.59442v0c-1.59442,0 -2.88989,-0.53147 -3.8864,-1.59442c-0.99651,-1.06295 -1.49477,-2.3252 -1.49477,-3.78675v0c0,-7.70636 -3.08919,-14.08404 -9.26756,-19.13303c-6.17838,-5.049 -14.18369,-7.57349 -24.01594,-7.57349v0c-9.83225,0 -17.80435,2.7238 -23.91629,8.1714c-6.11194,5.4476 -9.16791,13.2204 -9.16791,23.31839v0v0.59791c0,10.8952 3.05597,18.8673 9.16791,23.91629c6.11194,5.049 14.21691,7.57349 24.3149,7.57349v0c6.90915,0 12.65571,-1.12938 17.23966,-3.38814c4.58396,-2.25876 8.13818,-5.31473 10.66268,-9.16791v0c1.19581,-1.59442 2.7238,-2.39163 4.58396,-2.39163v0c1.46155,0 2.7238,0.53147 3.78675,1.59442c1.06295,1.06295 1.59442,2.3252 1.59442,3.78675v0c0,1.19581 -0.33217,2.12589 -0.99651,2.79023v0c-3.32171,5.4476 -8.1714,9.7326 -14.54908,12.85501c-6.37768,3.1224 -13.8183,4.68361 -22.32187,4.68361v0c-8.23783,0 -15.67846,-1.59442 -22.32187,-4.78326c-6.64341,-3.18884 -11.95815,-7.90566 -15.9442,-14.15047c-3.98605,-6.24481 -5.97907,-14.01761 -5.97907,-23.31839v0v-0.59791c0,-8.63644 1.95981,-16.1435 5.87942,-22.52118c3.91961,-6.37768 9.20113,-11.29381 15.84454,-14.74838c6.64341,-3.45458 14.01761,-5.18186 22.12257,-5.18186v0c8.10497,0 15.47916,1.66085 22.12257,4.98256c6.64341,3.32171 11.95815,7.83923 15.9442,13.55257c3.98605,5.71334 5.97907,12.09101 5.97907,19.13303z" id="highlight" stroke="#ffffff" stroke-width="0.62728" stroke-linecap="round" opacity="NaN"/></g></g><g transform="translate(274.26933,-158.74996) rotate(20) scale(0.89576,0.89576)" id="rings"><g><path d="M1167.29609,492.25611c64.2761,9.98369 102.30389,22.35137 102.30389,35.74389c0,33.13708 -232.81193,60 -520,60c-287.18807,0 -520,-26.86292 -520,-60c0,-13.39252 38.02779,-25.7602 102.30389,-35.74389" id="glow" filter="url(#glow)" stroke="#fffb96" stroke-width="15" stroke-linecap="butt"/><path d="M1167.29609,492.25611c64.2761,9.98369 102.30389,22.35137 102.30389,35.74389c0,33.13708 -232.81193,60 -520,60c-287.18807,0 -520,-26.86292 -520,-60c0,-13.39252 38.02779,-25.7602 102.30389,-35.74389" id="dropshadow" filter="url(#dropShadow)" stroke="#fffb96" stroke-width="15" stroke-linecap="butt" opacity="0.5"/><path d="M1167.29609,492.25611c64.2761,9.98369 102.30389,22.35137 102.30389,35.74389c0,33.13708 -232.81193,60 -520,60c-287.18807,0 -520,-26.86292 -520,-60c0,-13.39252 38.02779,-25.7602 102.30389,-35.74389" id="line" stroke="#fffb96" stroke-width="15" stroke-linecap="butt"/><path d="M1167.29609,492.25611c64.2761,9.98369 102.30389,22.35137 102.30389,35.74389c0,33.13708 -232.81193,60 -520,60c-287.18807,0 -520,-26.86292 -520,-60c0,-13.39252 38.02779,-25.7602 102.30389,-35.74389" id="highlight" stroke="#ffffff" stroke-width="1.5" stroke-linecap="round" opacity="0.12549"/></g><g><path d="M1169.57517,452.61284c62.89497,9.92088 100.02481,22.1537 100.02481,35.38716c0,33.13708 -232.81193,60 -520,60c-287.18807,0 -520,-26.86292 -520,-60c0,-13.23346 37.12984,-25.46628 100.02481,-35.38716" id="glow" filter="url(#glow)" stroke="#fffb96" stroke-width="15" stroke-linecap="butt"/><path d="M1169.57517,452.61284c62.89497,9.92088 100.02481,22.1537 100.02481,35.38716c0,33.13708 -232.81193,60 -520,60c-287.18807,0 -520,-26.86292 -520,-60c0,-13.23346 37.12984,-25.46628 100.02481,-35.38716" id="dropshadow" filter="url(#dropShadow)" stroke="#fffb96" stroke-width="15" stroke-linecap="butt" opacity="0.5"/><path d="M1169.57517,452.61284c62.89497,9.92088 100.02481,22.1537 100.02481,35.38716c0,33.13708 -232.81193,60 -520,60c-287.18807,0 -520,-26.86292 -520,-60c0,-13.23346 37.12984,-25.46628 100.02481,-35.38716" id="line" stroke="#fffb96" stroke-width="15" stroke-linecap="butt"/><path d="M1169.57517,452.61284c62.89497,9.92088 100.02481,22.1537 100.02481,35.38716c0,33.13708 -232.81193,60 -520,60c-287.18807,0 -520,-26.86292 -520,-60c0,-13.23346 37.12984,-25.46628 100.02481,-35.38716" id="highlight" stroke="#ffffff" stroke-width="1.5" stroke-linecap="round" opacity="0.12549"/></g></g><g id="wings" stroke="none" stroke-width="1" stroke-linecap="butt" font-family="sans-serif" font-weight="normal" font-size="12" text-anchor="start"/></g></svg>